<?xml version="1.0" encoding="utf-8" standalone="no"?>
<!DOCTYPE svg PUBLIC "-//W3C//DTD SVG 1.1//EN"
  "http://www.w3.org/Graphics/SVG/1.1/DTD/svg11.dtd">
<!-- Created with matplotlib (https://matplotlib.org/) -->
<svg height="345.6pt" version="1.1" viewBox="0 0 460.8 345.6" width="460.8pt" xmlns="http://www.w3.org/2000/svg" xmlns:xlink="http://www.w3.org/1999/xlink">
 <defs>
  <style type="text/css">
*{stroke-linecap:butt;stroke-linejoin:round;}
  </style>
 </defs>
 <g id="figure_1">
  <g id="patch_1">
   <path d="M 0 345.6 
L 460.8 345.6 
L 460.8 0 
L 0 0 
z
" style="fill:#ffffff;"/>
  </g>
  <g id="axes_1">
   <g id="patch_2">
    <path d="M 57.6 307.584 
L 414.72 307.584 
L 414.72 41.472 
L 57.6 41.472 
z
" style="fill:#ffffff;"/>
   </g>
   <g id="PolyCollection_1">
    <path clip-path="url(#pdf35e2ad88)" d="M 73.832727 241.750013 
L 73.832727 254.749957 
L 75.464157 254.749957 
L 77.095587 254.749957 
L 78.727017 254.749957 
L 80.358447 254.749957 
L 81.989877 254.749957 
L 83.621307 254.749957 
L 85.252736 254.749957 
L 86.884166 254.749957 
L 88.515596 254.749957 
L 90.147026 254.749957 
L 91.778456 254.749957 
L 93.409886 254.749957 
L 95.041316 254.749957 
L 96.672746 254.749957 
L 98.304175 254.749957 
L 99.935605 254.749957 
L 101.567035 254.749957 
L 103.198465 254.749957 
L 104.829895 254.749957 
L 106.461325 254.749957 
L 108.092755 254.749957 
L 109.724185 254.749957 
L 111.355614 254.749957 
L 112.987044 254.749957 
L 114.618474 254.749957 
L 116.249904 254.749957 
L 117.881334 254.749957 
L 119.512764 254.749957 
L 121.144194 254.749957 
L 122.775624 254.749957 
L 124.407053 254.749957 
L 126.038483 254.749957 
L 127.669913 254.749957 
L 129.301343 254.749957 
L 130.932773 254.749957 
L 132.564203 254.749957 
L 134.195633 254.749957 
L 135.827063 254.749957 
L 137.458492 254.749957 
L 139.089922 254.749957 
L 140.721352 254.749957 
L 142.352782 254.749957 
L 143.984212 254.749957 
L 145.615642 254.749957 
L 147.247072 254.749957 
L 148.878502 254.749957 
L 150.509931 254.749957 
L 152.141361 254.749957 
L 153.772791 254.749957 
L 155.404221 254.749957 
L 157.035651 254.749957 
L 158.667081 254.749957 
L 160.298511 254.749957 
L 161.929941 254.749957 
L 163.56137 254.749957 
L 165.1928 254.749957 
L 166.82423 254.749957 
L 168.45566 254.749957 
L 170.08709 254.749957 
L 171.71852 254.749957 
L 173.34995 254.749957 
L 174.98138 254.749957 
L 176.61281 254.749957 
L 178.244239 254.749957 
L 179.875669 254.749957 
L 181.507099 254.749957 
L 183.138529 254.749957 
L 184.769959 254.749957 
L 186.401389 254.749957 
L 188.032819 254.749957 
L 189.664249 254.749957 
L 191.295678 254.749957 
L 192.927108 254.749957 
L 194.558538 254.749957 
L 196.189968 254.749957 
L 197.821398 254.749957 
L 199.452828 254.749957 
L 201.084258 254.749957 
L 202.715688 256.268224 
L 204.347117 256.354053 
L 205.978547 261.001458 
L 207.609977 262.817889 
L 209.241407 266.657179 
L 210.872837 259.26043 
L 212.504267 265.905332 
L 214.135697 260.906535 
L 215.767127 261.285934 
L 217.398556 261.970584 
L 219.029986 267.29225 
L 220.661416 268.350975 
L 222.292846 266.546913 
L 223.924276 271.806247 
L 225.555706 258.160339 
L 227.187136 273.27207 
L 228.818566 255.317586 
L 230.449995 269.822926 
L 232.081425 268.955756 
L 233.712855 266.617816 
L 235.344285 266.263681 
L 236.975715 265.395877 
L 238.607145 262.809693 
L 240.238575 265.552219 
L 241.870005 267.739688 
L 243.501434 262.226419 
L 245.132864 264.116772 
L 246.764294 266.163514 
L 248.395724 271.023407 
L 250.027154 270.172667 
L 251.658584 258.522386 
L 253.290014 257.932752 
L 254.921444 261.618804 
L 256.552873 266.829477 
L 258.184303 263.327123 
L 259.815733 267.780489 
L 261.447163 277.574344 
L 263.078593 260.97911 
L 264.710023 267.241531 
L 266.341453 273.248075 
L 267.972883 268.215043 
L 269.604312 261.507802 
L 271.235742 253.216928 
L 272.867172 260.722004 
L 274.498602 261.841505 
L 276.130032 264.98523 
L 277.761462 268.217258 
L 279.392892 262.983808 
L 281.024322 268.518685 
L 282.655751 263.150418 
L 284.287181 264.74543 
L 285.918611 263.483475 
L 287.550041 265.173016 
L 289.181471 266.053046 
L 290.812901 268.29191 
L 292.444331 272.932546 
L 294.075761 272.682918 
L 295.70719 271.466917 
L 297.33862 273.211259 
L 298.97005 268.47465 
L 300.60148 270.869518 
L 302.23291 273.305659 
L 303.86434 266.938849 
L 305.49577 274.208277 
L 307.1272 269.399303 
L 308.75863 273.246859 
L 310.390059 276.446205 
L 312.021489 269.098012 
L 313.652919 276.031709 
L 315.284349 276.099341 
L 316.915779 269.235226 
L 318.547209 274.62626 
L 320.178639 270.867978 
L 321.810069 271.343598 
L 323.441498 263.934876 
L 325.072928 269.687996 
L 326.704358 273.299624 
L 328.335788 270.472765 
L 329.967218 270.868808 
L 331.598648 279.011366 
L 333.230078 278.982866 
L 334.861508 269.682009 
L 336.492937 273.620446 
L 338.124367 273.606107 
L 339.755797 271.014271 
L 341.387227 267.652569 
L 343.018657 276.182866 
L 344.650087 273.388429 
L 346.281517 275.093626 
L 347.912947 277.119464 
L 349.544376 274.998038 
L 351.175806 278.066336 
L 352.807236 277.444387 
L 354.438666 272.563434 
L 356.070096 281.384278 
L 357.701526 274.791093 
L 359.332956 278.023478 
L 360.964386 284.437901 
L 362.595815 270.999225 
L 364.227245 270.100364 
L 365.858675 275.176576 
L 367.490105 261.050952 
L 369.121535 271.004248 
L 370.752965 277.839421 
L 372.384395 276.849208 
L 374.015825 271.056106 
L 375.647254 273.573475 
L 377.278684 273.373346 
L 378.910114 275.113358 
L 380.541544 268.923325 
L 382.172974 267.657195 
L 383.804404 279.118194 
L 385.435834 276.092639 
L 387.067264 272.860984 
L 388.698693 272.397981 
L 390.330123 276.429833 
L 391.961553 279.661718 
L 393.592983 277.517446 
L 395.224413 269.230725 
L 396.855843 280.097798 
L 398.487273 272.392036 
L 398.487273 253.845396 
L 398.487273 253.845396 
L 396.855843 265.481862 
L 395.224413 257.49537 
L 393.592983 262.545789 
L 391.961553 263.450582 
L 390.330123 261.029404 
L 388.698693 262.473719 
L 387.067264 258.841769 
L 385.435834 264.773106 
L 383.804404 261.257795 
L 382.172974 252.948353 
L 380.541544 251.764221 
L 378.910114 258.517872 
L 377.278684 253.369784 
L 375.647254 258.729171 
L 374.015825 255.308383 
L 372.384395 256.07092 
L 370.752965 259.833939 
L 369.121535 258.710067 
L 367.490105 252.024765 
L 365.858675 255.867959 
L 364.227245 259.575017 
L 362.595815 250.887085 
L 360.964386 268.983708 
L 359.332956 259.834009 
L 357.701526 257.190657 
L 356.070096 266.118215 
L 354.438666 257.082953 
L 352.807236 261.521955 
L 351.175806 263.102845 
L 349.544376 258.57536 
L 347.912947 260.392426 
L 346.281517 260.533188 
L 344.650087 258.116773 
L 343.018657 259.902488 
L 341.387227 256.687194 
L 339.755797 253.20605 
L 338.124367 258.121439 
L 336.492937 261.135255 
L 334.861508 257.109004 
L 333.230078 264.583376 
L 331.598648 259.930078 
L 329.967218 260.160196 
L 328.335788 261.915156 
L 326.704358 257.15543 
L 325.072928 254.916573 
L 323.441498 253.385082 
L 321.810069 257.892469 
L 320.178639 260.611822 
L 318.547209 261.287003 
L 316.915779 256.925418 
L 315.284349 261.657244 
L 313.652919 261.974764 
L 312.021489 258.891773 
L 310.390059 264.85545 
L 308.75863 258.574398 
L 307.1272 259.33187 
L 305.49577 257.609828 
L 303.86434 256.161869 
L 302.23291 256.994818 
L 300.60148 255.597551 
L 298.97005 257.487234 
L 297.33862 253.613448 
L 295.70719 255.130653 
L 294.075761 256.089276 
L 292.444331 261.303595 
L 290.812901 256.970312 
L 289.181471 257.331668 
L 287.550041 255.435579 
L 285.918611 254.992612 
L 284.287181 257.491784 
L 282.655751 257.059391 
L 281.024322 263.008643 
L 279.392892 255.811541 
L 277.761462 259.348473 
L 276.130032 257.617964 
L 274.498602 254.36263 
L 272.867172 251.484598 
L 271.235742 250.365902 
L 269.604312 252.39195 
L 267.972883 259.835942 
L 266.341453 261.748501 
L 264.710023 260.68641 
L 263.078593 254.45962 
L 261.447163 263.674596 
L 259.815733 260.430964 
L 258.184303 256.268031 
L 256.552873 260.352263 
L 254.921444 255.342168 
L 253.290014 248.419327 
L 251.658584 252.954219 
L 250.027154 262.851297 
L 248.395724 263.195758 
L 246.764294 256.647621 
L 245.132864 251.902074 
L 243.501434 254.681855 
L 241.870005 259.039643 
L 240.238575 253.367531 
L 238.607145 254.202314 
L 236.975715 252.743836 
L 235.344285 254.980034 
L 233.712855 251.534302 
L 232.081425 259.002217 
L 230.449995 258.27676 
L 228.818566 252.461402 
L 227.187136 264.21735 
L 225.555706 250.093455 
L 223.924276 264.33381 
L 222.292846 257.650442 
L 220.661416 257.568979 
L 219.029986 239.603053 
L 217.398556 247.365314 
L 215.767127 250.558609 
L 214.135697 254.39735 
L 212.504267 255.112158 
L 210.872837 238.984081 
L 209.241407 254.615019 
L 207.609977 245.28479 
L 205.978547 249.806895 
L 204.347117 243.128424 
L 202.715688 249.611749 
L 201.084258 241.750013 
L 199.452828 246.281151 
L 197.821398 249.549979 
L 196.189968 249.549979 
L 194.558538 246.949991 
L 192.927108 251.584494 
L 191.295678 241.750013 
L 189.664249 246.949991 
L 188.032819 251.584494 
L 186.401389 246.949991 
L 184.769959 246.949991 
L 183.138529 251.584494 
L 181.507099 249.549979 
L 179.875669 244.350002 
L 178.244239 246.949991 
L 176.61281 249.549979 
L 174.98138 246.949991 
L 173.34995 249.549979 
L 171.71852 246.949991 
L 170.08709 249.549979 
L 168.45566 246.949991 
L 166.82423 249.549979 
L 165.1928 244.350002 
L 163.56137 251.584494 
L 161.929941 246.949991 
L 160.298511 251.584494 
L 158.667081 251.584494 
L 157.035651 251.584494 
L 155.404221 246.949991 
L 153.772791 246.949991 
L 152.141361 249.549979 
L 150.509931 254.749957 
L 148.878502 251.584494 
L 147.247072 244.350002 
L 145.615642 251.584494 
L 143.984212 249.549979 
L 142.352782 249.549979 
L 140.721352 249.549979 
L 139.089922 252.149968 
L 137.458492 249.549979 
L 135.827063 249.549979 
L 134.195633 244.350002 
L 132.564203 244.350002 
L 130.932773 244.350002 
L 129.301343 246.949991 
L 127.669913 251.584494 
L 126.038483 251.584494 
L 124.407053 249.549979 
L 122.775624 251.584494 
L 121.144194 246.949991 
L 119.512764 244.350002 
L 117.881334 251.584494 
L 116.249904 249.549979 
L 114.618474 251.584494 
L 112.987044 244.350002 
L 111.355614 251.584494 
L 109.724185 246.949991 
L 108.092755 249.549979 
L 106.461325 244.350002 
L 104.829895 251.584494 
L 103.198465 244.350002 
L 101.567035 249.549979 
L 99.935605 251.584494 
L 98.304175 246.949991 
L 96.672746 250.425868 
L 95.041316 246.949991 
L 93.409886 249.549979 
L 91.778456 246.949991 
L 90.147026 251.584494 
L 88.515596 251.075865 
L 86.884166 251.584494 
L 85.252736 252.149968 
L 83.621307 249.549979 
L 81.989877 251.584494 
L 80.358447 251.584494 
L 78.727017 249.549979 
L 77.095587 244.350002 
L 75.464157 251.584494 
L 73.832727 241.750013 
z
" style="fill:#1f77b4;fill-opacity:0.2;"/>
   </g>
   <g id="PolyCollection_2">
    <path clip-path="url(#pdf35e2ad88)" d="M 73.832727 241.750013 
L 73.832727 254.749957 
L 75.464157 254.749957 
L 77.095587 254.749957 
L 78.727017 254.749957 
L 80.358447 254.749957 
L 81.989877 254.749957 
L 83.621307 254.749957 
L 85.252736 254.749957 
L 86.884166 254.749957 
L 88.515596 254.749957 
L 90.147026 254.749957 
L 91.778456 254.749957 
L 93.409886 254.749957 
L 95.041316 254.749957 
L 96.672746 254.749957 
L 98.304175 254.749957 
L 99.935605 254.749957 
L 101.567035 254.749957 
L 103.198465 254.749957 
L 104.829895 254.749957 
L 106.461325 254.749957 
L 108.092755 254.749957 
L 109.724185 254.749957 
L 111.355614 254.749957 
L 112.987044 254.749957 
L 114.618474 254.749957 
L 116.249904 254.749957 
L 117.881334 254.749957 
L 119.512764 254.749957 
L 121.144194 254.749957 
L 122.775624 254.749957 
L 124.407053 254.749957 
L 126.038483 254.749957 
L 127.669913 254.749957 
L 129.301343 254.749957 
L 130.932773 254.749957 
L 132.564203 254.749957 
L 134.195633 254.749957 
L 135.827063 254.749957 
L 137.458492 254.749957 
L 139.089922 254.749957 
L 140.721352 254.749957 
L 142.352782 254.749957 
L 143.984212 254.749957 
L 145.615642 254.749957 
L 147.247072 254.749957 
L 148.878502 254.749957 
L 150.509931 254.749957 
L 152.141361 254.749957 
L 153.772791 254.749957 
L 155.404221 254.749957 
L 157.035651 254.749957 
L 158.667081 254.749957 
L 160.298511 254.749957 
L 161.929941 254.749957 
L 163.56137 254.749957 
L 165.1928 254.749957 
L 166.82423 254.749957 
L 168.45566 254.749957 
L 170.08709 254.749957 
L 171.71852 254.749957 
L 173.34995 254.749957 
L 174.98138 254.749957 
L 176.61281 254.749957 
L 178.244239 254.749957 
L 179.875669 254.749957 
L 181.507099 254.749957 
L 183.138529 254.749957 
L 184.769959 254.749957 
L 186.401389 254.749957 
L 188.032819 254.749957 
L 189.664249 254.749957 
L 191.295678 254.749957 
L 192.927108 254.749957 
L 194.558538 254.749957 
L 196.189968 254.749957 
L 197.821398 254.749957 
L 199.452828 254.749957 
L 201.084258 259.897859 
L 202.715688 263.738466 
L 204.347117 263.510652 
L 205.978547 265.026531 
L 207.609977 269.565375 
L 209.241407 271.13548 
L 210.872837 269.226133 
L 212.504267 270.265518 
L 214.135697 269.565327 
L 215.767127 271.289266 
L 217.398556 269.641902 
L 219.029986 273.383198 
L 220.661416 274.010102 
L 222.292846 270.003664 
L 223.924276 279.331357 
L 225.555706 269.616125 
L 227.187136 277.065223 
L 228.818566 269.802965 
L 230.449995 272.776662 
L 232.081425 272.791719 
L 233.712855 270.406519 
L 235.344285 270.450266 
L 236.975715 270.136535 
L 238.607145 269.936481 
L 240.238575 269.791685 
L 241.870005 271.29824 
L 243.501434 269.645423 
L 245.132864 270.069246 
L 246.764294 270.008208 
L 248.395724 273.653698 
L 250.027154 274.705959 
L 251.658584 268.391658 
L 253.290014 267.927753 
L 254.921444 267.820699 
L 256.552873 272.932242 
L 258.184303 268.503881 
L 259.815733 272.382694 
L 261.447163 288.128313 
L 263.078593 267.98749 
L 264.710023 271.814339 
L 266.341453 276.662428 
L 267.972883 272.891957 
L 269.604312 269.220248 
L 271.235742 267.634831 
L 272.867172 268.60811 
L 274.498602 269.028441 
L 276.130032 268.941289 
L 277.761462 276.324188 
L 279.392892 268.623848 
L 281.024322 272.848325 
L 282.655751 272.408903 
L 284.287181 276.568466 
L 285.918611 276.876207 
L 287.550041 277.206835 
L 289.181471 277.27979 
L 290.812901 276.717945 
L 292.444331 281.383026 
L 294.075761 277.492815 
L 295.70719 277.002963 
L 297.33862 276.711177 
L 298.97005 279.525127 
L 300.60148 279.397063 
L 302.23291 279.291968 
L 303.86434 279.144232 
L 305.49577 279.124041 
L 307.1272 279.090195 
L 308.75863 280.655866 
L 310.390059 283.048789 
L 312.021489 279.011082 
L 313.652919 279.023331 
L 315.284349 281.616255 
L 316.915779 281.060176 
L 318.547209 283.666804 
L 320.178639 281.04835 
L 321.810069 280.893342 
L 323.441498 280.622871 
L 325.072928 280.38481 
L 326.704358 281.763636 
L 328.335788 280.354732 
L 329.967218 280.266251 
L 331.598648 283.091712 
L 333.230078 286.790019 
L 334.861508 280.066681 
L 336.492937 280.053422 
L 338.124367 280.631892 
L 339.755797 279.940261 
L 341.387227 279.837512 
L 343.018657 280.775104 
L 344.650087 281.156541 
L 346.281517 281.23074 
L 347.912947 283.662794 
L 349.544376 284.430904 
L 351.175806 285.34264 
L 352.807236 284.875698 
L 354.438666 283.673775 
L 356.070096 287.619263 
L 357.701526 283.057722 
L 359.332956 283.861674 
L 360.964386 295.488 
L 362.595815 284.175549 
L 364.227245 284.009433 
L 365.858675 283.803121 
L 367.490105 283.366164 
L 369.121535 283.186279 
L 370.752965 284.565804 
L 372.384395 284.104632 
L 374.015825 283.847176 
L 375.647254 283.700217 
L 377.278684 283.488629 
L 378.910114 284.322256 
L 380.541544 282.531682 
L 382.172974 282.354694 
L 383.804404 283.479611 
L 385.435834 281.315671 
L 387.067264 283.931759 
L 388.698693 288.728872 
L 390.330123 284.530471 
L 391.961553 288.451367 
L 393.592983 283.970943 
L 395.224413 280.626108 
L 396.855843 289.876355 
L 398.487273 280.816201 
L 398.487273 187.102344 
L 398.487273 187.102344 
L 396.855843 117.170664 
L 395.224413 243.268313 
L 393.592983 185.406233 
L 391.961553 237.246137 
L 390.330123 182.728941 
L 388.698693 153.943553 
L 387.067264 223.204032 
L 385.435834 170.143441 
L 383.804404 201.432968 
L 382.172974 179.135325 
L 380.541544 144.932884 
L 378.910114 234.032336 
L 377.278684 193.99804 
L 375.647254 239.864077 
L 374.015825 158.028598 
L 372.384395 141.756364 
L 370.752965 236.871015 
L 369.121535 210.799796 
L 367.490105 227.86601 
L 365.858675 227.554615 
L 364.227245 160.007151 
L 362.595815 243.958747 
L 360.964386 161.877532 
L 359.332956 238.695945 
L 357.701526 205.128019 
L 356.070096 138.128223 
L 354.438666 169.674225 
L 352.807236 169.582754 
L 351.175806 181.084685 
L 349.544376 185.241827 
L 347.912947 187.800288 
L 346.281517 244.784378 
L 344.650087 147.137491 
L 343.018657 204.632299 
L 341.387227 119.273269 
L 339.755797 188.315085 
L 338.124367 136.573776 
L 336.492937 190.202907 
L 334.861508 173.296982 
L 333.230078 176.340235 
L 331.598648 212.750361 
L 329.967218 242.190567 
L 328.335788 235.149657 
L 326.704358 152.715803 
L 325.072928 229.565702 
L 323.441498 117.642544 
L 321.810069 206.489982 
L 320.178639 163.374591 
L 318.547209 165.341649 
L 316.915779 178.040757 
L 315.284349 228.192685 
L 313.652919 194.322119 
L 312.021489 161.670303 
L 310.390059 168.188643 
L 308.75863 223.321496 
L 307.1272 211.096576 
L 305.49577 198.83434 
L 303.86434 141.096006 
L 302.23291 228.436562 
L 300.60148 189.603169 
L 298.97005 188.39852 
L 297.33862 245.695215 
L 295.70719 195.384186 
L 294.075761 198.74338 
L 292.444331 166.229727 
L 290.812901 179.528934 
L 289.181471 203.893935 
L 287.550041 173.188578 
L 285.918611 209.644363 
L 284.287181 171.240664 
L 282.655751 145.789284 
L 281.024322 205.617025 
L 279.392892 228.65706 
L 277.761462 140.864205 
L 276.130032 121.998495 
L 274.498602 205.708666 
L 272.867172 234.381339 
L 271.235742 241.032928 
L 269.604312 226.435533 
L 267.972883 208.424674 
L 266.341453 145.193837 
L 264.710023 183.102924 
L 263.078593 144.133895 
L 261.447163 132.862655 
L 259.815733 214.871294 
L 258.184303 240.44136 
L 256.552873 173.60391 
L 254.921444 218.717309 
L 253.290014 237.843595 
L 251.658584 234.372263 
L 250.027154 196.856858 
L 248.395724 179.113114 
L 246.764294 174.893802 
L 245.132864 165.264783 
L 243.501434 239.076364 
L 241.870005 211.828618 
L 240.238575 93.654765 
L 238.607145 199.418103 
L 236.975715 164.280309 
L 235.344285 200.332431 
L 233.712855 98.29199 
L 232.081425 132.5694 
L 230.449995 138.675129 
L 228.818566 219.655863 
L 227.187136 157.646308 
L 225.555706 137.503936 
L 223.924276 122.96605 
L 222.292846 181.257992 
L 220.661416 186.637834 
L 219.029986 115.198633 
L 217.398556 217.0507 
L 215.767127 231.124314 
L 214.135697 153.204328 
L 212.504267 198.002431 
L 210.872837 186.832555 
L 209.241407 142.801037 
L 207.609977 53.568 
L 205.978547 190.66108 
L 204.347117 236.220648 
L 202.715688 211.119349 
L 201.084258 184.815798 
L 199.452828 176.823672 
L 197.821398 241.750013 
L 196.189968 241.750013 
L 194.558538 241.750013 
L 192.927108 241.750013 
L 191.295678 241.750013 
L 189.664249 241.750013 
L 188.032819 241.750013 
L 186.401389 241.750013 
L 184.769959 241.750013 
L 183.138529 241.750013 
L 181.507099 241.750013 
L 179.875669 241.750013 
L 178.244239 241.750013 
L 176.61281 241.750013 
L 174.98138 241.750013 
L 173.34995 241.750013 
L 171.71852 241.750013 
L 170.08709 241.750013 
L 168.45566 241.750013 
L 166.82423 241.750013 
L 165.1928 241.750013 
L 163.56137 241.750013 
L 161.929941 241.750013 
L 160.298511 241.750013 
L 158.667081 241.750013 
L 157.035651 241.750013 
L 155.404221 241.750013 
L 153.772791 241.750013 
L 152.141361 241.750013 
L 150.509931 241.750013 
L 148.878502 241.750013 
L 147.247072 241.750013 
L 145.615642 241.750013 
L 143.984212 241.750013 
L 142.352782 241.750013 
L 140.721352 241.750013 
L 139.089922 241.750013 
L 137.458492 241.750013 
L 135.827063 241.750013 
L 134.195633 241.750013 
L 132.564203 241.750013 
L 130.932773 241.750013 
L 129.301343 241.750013 
L 127.669913 241.750013 
L 126.038483 241.750013 
L 124.407053 241.750013 
L 122.775624 241.750013 
L 121.144194 241.750013 
L 119.512764 241.750013 
L 117.881334 241.750013 
L 116.249904 241.750013 
L 114.618474 241.750013 
L 112.987044 241.750013 
L 111.355614 241.750013 
L 109.724185 241.750013 
L 108.092755 241.750013 
L 106.461325 241.750013 
L 104.829895 241.750013 
L 103.198465 241.750013 
L 101.567035 241.750013 
L 99.935605 241.750013 
L 98.304175 241.750013 
L 96.672746 241.750013 
L 95.041316 241.750013 
L 93.409886 241.750013 
L 91.778456 241.750013 
L 90.147026 241.750013 
L 88.515596 241.750013 
L 86.884166 241.750013 
L 85.252736 241.750013 
L 83.621307 241.750013 
L 81.989877 241.750013 
L 80.358447 241.750013 
L 78.727017 241.750013 
L 77.095587 241.750013 
L 75.464157 241.750013 
L 73.832727 241.750013 
z
" style="fill:#1f77b4;fill-opacity:0.1;"/>
   </g>
   <g id="matplotlib.axis_1">
    <g id="xtick_1">
     <g id="line2d_1">
      <defs>
       <path d="M 0 0 
L 0 3.5 
" id="m987f4929a9" style="stroke:#000000;stroke-width:0.8;"/>
      </defs>
      <g>
       <use style="stroke:#000000;stroke-width:0.8;" x="73.832727" xlink:href="#m987f4929a9" y="307.584"/>
      </g>
     </g>
     <g id="text_1">
      <!-- 0 -->
      <defs>
       <path d="M 31.78125 66.40625 
Q 24.171875 66.40625 20.328125 58.90625 
Q 16.5 51.421875 16.5 36.375 
Q 16.5 21.390625 20.328125 13.890625 
Q 24.171875 6.390625 31.78125 6.390625 
Q 39.453125 6.390625 43.28125 13.890625 
Q 47.125 21.390625 47.125 36.375 
Q 47.125 51.421875 43.28125 58.90625 
Q 39.453125 66.40625 31.78125 66.40625 
z
M 31.78125 74.21875 
Q 44.046875 74.21875 50.515625 64.515625 
Q 56.984375 54.828125 56.984375 36.375 
Q 56.984375 17.96875 50.515625 8.265625 
Q 44.046875 -1.421875 31.78125 -1.421875 
Q 19.53125 -1.421875 13.0625 8.265625 
Q 6.59375 17.96875 6.59375 36.375 
Q 6.59375 54.828125 13.0625 64.515625 
Q 19.53125 74.21875 31.78125 74.21875 
z
" id="DejaVuSans-48"/>
      </defs>
      <g transform="translate(70.651477 322.182437)scale(0.1 -0.1)">
       <use xlink:href="#DejaVuSans-48"/>
      </g>
     </g>
    </g>
    <g id="xtick_2">
     <g id="line2d_2">
      <g>
       <use style="stroke:#000000;stroke-width:0.8;" x="114.618474" xlink:href="#m987f4929a9" y="307.584"/>
      </g>
     </g>
     <g id="text_2">
      <!-- 25 -->
      <defs>
       <path d="M 19.1875 8.296875 
L 53.609375 8.296875 
L 53.609375 0 
L 7.328125 0 
L 7.328125 8.296875 
Q 12.9375 14.109375 22.625 23.890625 
Q 32.328125 33.6875 34.8125 36.53125 
Q 39.546875 41.84375 41.421875 45.53125 
Q 43.3125 49.21875 43.3125 52.78125 
Q 43.3125 58.59375 39.234375 62.25 
Q 35.15625 65.921875 28.609375 65.921875 
Q 23.96875 65.921875 18.8125 64.3125 
Q 13.671875 62.703125 7.8125 59.421875 
L 7.8125 69.390625 
Q 13.765625 71.78125 18.9375 73 
Q 24.125 74.21875 28.421875 74.21875 
Q 39.75 74.21875 46.484375 68.546875 
Q 53.21875 62.890625 53.21875 53.421875 
Q 53.21875 48.921875 51.53125 44.890625 
Q 49.859375 40.875 45.40625 35.40625 
Q 44.1875 33.984375 37.640625 27.21875 
Q 31.109375 20.453125 19.1875 8.296875 
z
" id="DejaVuSans-50"/>
       <path d="M 10.796875 72.90625 
L 49.515625 72.90625 
L 49.515625 64.59375 
L 19.828125 64.59375 
L 19.828125 46.734375 
Q 21.96875 47.46875 24.109375 47.828125 
Q 26.265625 48.1875 28.421875 48.1875 
Q 40.625 48.1875 47.75 41.5 
Q 54.890625 34.8125 54.890625 23.390625 
Q 54.890625 11.625 47.5625 5.09375 
Q 40.234375 -1.421875 26.90625 -1.421875 
Q 22.3125 -1.421875 17.546875 -0.640625 
Q 12.796875 0.140625 7.71875 1.703125 
L 7.71875 11.625 
Q 12.109375 9.234375 16.796875 8.0625 
Q 21.484375 6.890625 26.703125 6.890625 
Q 35.15625 6.890625 40.078125 11.328125 
Q 45.015625 15.765625 45.015625 23.390625 
Q 45.015625 31 40.078125 35.4375 
Q 35.15625 39.890625 26.703125 39.890625 
Q 22.75 39.890625 18.8125 39.015625 
Q 14.890625 38.140625 10.796875 36.28125 
z
" id="DejaVuSans-53"/>
      </defs>
      <g transform="translate(108.255974 322.182437)scale(0.1 -0.1)">
       <use xlink:href="#DejaVuSans-50"/>
       <use x="63.623047" xlink:href="#DejaVuSans-53"/>
      </g>
     </g>
    </g>
    <g id="xtick_3">
     <g id="line2d_3">
      <g>
       <use style="stroke:#000000;stroke-width:0.8;" x="155.404221" xlink:href="#m987f4929a9" y="307.584"/>
      </g>
     </g>
     <g id="text_3">
      <!-- 50 -->
      <g transform="translate(149.041721 322.182437)scale(0.1 -0.1)">
       <use xlink:href="#DejaVuSans-53"/>
       <use x="63.623047" xlink:href="#DejaVuSans-48"/>
      </g>
     </g>
    </g>
    <g id="xtick_4">
     <g id="line2d_4">
      <g>
       <use style="stroke:#000000;stroke-width:0.8;" x="196.189968" xlink:href="#m987f4929a9" y="307.584"/>
      </g>
     </g>
     <g id="text_4">
      <!-- 75 -->
      <defs>
       <path d="M 8.203125 72.90625 
L 55.078125 72.90625 
L 55.078125 68.703125 
L 28.609375 0 
L 18.3125 0 
L 43.21875 64.59375 
L 8.203125 64.59375 
z
" id="DejaVuSans-55"/>
      </defs>
      <g transform="translate(189.827468 322.182437)scale(0.1 -0.1)">
       <use xlink:href="#DejaVuSans-55"/>
       <use x="63.623047" xlink:href="#DejaVuSans-53"/>
      </g>
     </g>
    </g>
    <g id="xtick_5">
     <g id="line2d_5">
      <g>
       <use style="stroke:#000000;stroke-width:0.8;" x="236.975715" xlink:href="#m987f4929a9" y="307.584"/>
      </g>
     </g>
     <g id="text_5">
      <!-- 100 -->
      <defs>
       <path d="M 12.40625 8.296875 
L 28.515625 8.296875 
L 28.515625 63.921875 
L 10.984375 60.40625 
L 10.984375 69.390625 
L 28.421875 72.90625 
L 38.28125 72.90625 
L 38.28125 8.296875 
L 54.390625 8.296875 
L 54.390625 0 
L 12.40625 0 
z
" id="DejaVuSans-49"/>
      </defs>
      <g transform="translate(227.431965 322.182437)scale(0.1 -0.1)">
       <use xlink:href="#DejaVuSans-49"/>
       <use x="63.623047" xlink:href="#DejaVuSans-48"/>
       <use x="127.246094" xlink:href="#DejaVuSans-48"/>
      </g>
     </g>
    </g>
    <g id="xtick_6">
     <g id="line2d_6">
      <g>
       <use style="stroke:#000000;stroke-width:0.8;" x="277.761462" xlink:href="#m987f4929a9" y="307.584"/>
      </g>
     </g>
     <g id="text_6">
      <!-- 125 -->
      <g transform="translate(268.217712 322.182437)scale(0.1 -0.1)">
       <use xlink:href="#DejaVuSans-49"/>
       <use x="63.623047" xlink:href="#DejaVuSans-50"/>
       <use x="127.246094" xlink:href="#DejaVuSans-53"/>
      </g>
     </g>
    </g>
    <g id="xtick_7">
     <g id="line2d_7">
      <g>
       <use style="stroke:#000000;stroke-width:0.8;" x="318.547209" xlink:href="#m987f4929a9" y="307.584"/>
      </g>
     </g>
     <g id="text_7">
      <!-- 150 -->
      <g transform="translate(309.003459 322.182437)scale(0.1 -0.1)">
       <use xlink:href="#DejaVuSans-49"/>
       <use x="63.623047" xlink:href="#DejaVuSans-53"/>
       <use x="127.246094" xlink:href="#DejaVuSans-48"/>
      </g>
     </g>
    </g>
    <g id="xtick_8">
     <g id="line2d_8">
      <g>
       <use style="stroke:#000000;stroke-width:0.8;" x="359.332956" xlink:href="#m987f4929a9" y="307.584"/>
      </g>
     </g>
     <g id="text_8">
      <!-- 175 -->
      <g transform="translate(349.789206 322.182437)scale(0.1 -0.1)">
       <use xlink:href="#DejaVuSans-49"/>
       <use x="63.623047" xlink:href="#DejaVuSans-55"/>
       <use x="127.246094" xlink:href="#DejaVuSans-53"/>
      </g>
     </g>
    </g>
    <g id="xtick_9">
     <g id="line2d_9">
      <g>
       <use style="stroke:#000000;stroke-width:0.8;" x="400.118703" xlink:href="#m987f4929a9" y="307.584"/>
      </g>
     </g>
     <g id="text_9">
      <!-- 200 -->
      <g transform="translate(390.574953 322.182437)scale(0.1 -0.1)">
       <use xlink:href="#DejaVuSans-50"/>
       <use x="63.623047" xlink:href="#DejaVuSans-48"/>
       <use x="127.246094" xlink:href="#DejaVuSans-48"/>
      </g>
     </g>
    </g>
   </g>
   <g id="matplotlib.axis_2">
    <g id="ytick_1">
     <g id="line2d_10">
      <defs>
       <path d="M 0 0 
L -3.5 0 
" id="m0d32db996c" style="stroke:#000000;stroke-width:0.8;"/>
      </defs>
      <g>
       <use style="stroke:#000000;stroke-width:0.8;" x="57.6" xlink:href="#m0d32db996c" y="265.477688"/>
      </g>
     </g>
     <g id="text_10">
      <!-- 1.0 -->
      <defs>
       <path d="M 10.6875 12.40625 
L 21 12.40625 
L 21 0 
L 10.6875 0 
z
" id="DejaVuSans-46"/>
      </defs>
      <g transform="translate(34.696875 269.276907)scale(0.1 -0.1)">
       <use xlink:href="#DejaVuSans-49"/>
       <use x="63.623047" xlink:href="#DejaVuSans-46"/>
       <use x="95.410156" xlink:href="#DejaVuSans-48"/>
      </g>
     </g>
    </g>
    <g id="ytick_2">
     <g id="line2d_11">
      <g>
       <use style="stroke:#000000;stroke-width:0.8;" x="57.6" xlink:href="#m0d32db996c" y="211.084206"/>
      </g>
     </g>
     <g id="text_11">
      <!-- 1.5 -->
      <g transform="translate(34.696875 214.883424)scale(0.1 -0.1)">
       <use xlink:href="#DejaVuSans-49"/>
       <use x="63.623047" xlink:href="#DejaVuSans-46"/>
       <use x="95.410156" xlink:href="#DejaVuSans-53"/>
      </g>
     </g>
    </g>
    <g id="ytick_3">
     <g id="line2d_12">
      <g>
       <use style="stroke:#000000;stroke-width:0.8;" x="57.6" xlink:href="#m0d32db996c" y="156.690723"/>
      </g>
     </g>
     <g id="text_12">
      <!-- 2.0 -->
      <g transform="translate(34.696875 160.489942)scale(0.1 -0.1)">
       <use xlink:href="#DejaVuSans-50"/>
       <use x="63.623047" xlink:href="#DejaVuSans-46"/>
       <use x="95.410156" xlink:href="#DejaVuSans-48"/>
      </g>
     </g>
    </g>
    <g id="ytick_4">
     <g id="line2d_13">
      <g>
       <use style="stroke:#000000;stroke-width:0.8;" x="57.6" xlink:href="#m0d32db996c" y="102.29724"/>
      </g>
     </g>
     <g id="text_13">
      <!-- 2.5 -->
      <g transform="translate(34.696875 106.096459)scale(0.1 -0.1)">
       <use xlink:href="#DejaVuSans-50"/>
       <use x="63.623047" xlink:href="#DejaVuSans-46"/>
       <use x="95.410156" xlink:href="#DejaVuSans-53"/>
      </g>
     </g>
    </g>
    <g id="ytick_5">
     <g id="line2d_14">
      <g>
       <use style="stroke:#000000;stroke-width:0.8;" x="57.6" xlink:href="#m0d32db996c" y="47.903757"/>
      </g>
     </g>
     <g id="text_14">
      <!-- 3.0 -->
      <defs>
       <path d="M 40.578125 39.3125 
Q 47.65625 37.796875 51.625 33 
Q 55.609375 28.21875 55.609375 21.1875 
Q 55.609375 10.40625 48.1875 4.484375 
Q 40.765625 -1.421875 27.09375 -1.421875 
Q 22.515625 -1.421875 17.65625 -0.515625 
Q 12.796875 0.390625 7.625 2.203125 
L 7.625 11.71875 
Q 11.71875 9.328125 16.59375 8.109375 
Q 21.484375 6.890625 26.8125 6.890625 
Q 36.078125 6.890625 40.9375 10.546875 
Q 45.796875 14.203125 45.796875 21.1875 
Q 45.796875 27.640625 41.28125 31.265625 
Q 36.765625 34.90625 28.71875 34.90625 
L 20.21875 34.90625 
L 20.21875 43.015625 
L 29.109375 43.015625 
Q 36.375 43.015625 40.234375 45.921875 
Q 44.09375 48.828125 44.09375 54.296875 
Q 44.09375 59.90625 40.109375 62.90625 
Q 36.140625 65.921875 28.71875 65.921875 
Q 24.65625 65.921875 20.015625 65.03125 
Q 15.375 64.15625 9.8125 62.3125 
L 9.8125 71.09375 
Q 15.4375 72.65625 20.34375 73.4375 
Q 25.25 74.21875 29.59375 74.21875 
Q 40.828125 74.21875 47.359375 69.109375 
Q 53.90625 64.015625 53.90625 55.328125 
Q 53.90625 49.265625 50.4375 45.09375 
Q 46.96875 40.921875 40.578125 39.3125 
z
" id="DejaVuSans-51"/>
      </defs>
      <g transform="translate(34.696875 51.702976)scale(0.1 -0.1)">
       <use xlink:href="#DejaVuSans-51"/>
       <use x="63.623047" xlink:href="#DejaVuSans-46"/>
       <use x="95.410156" xlink:href="#DejaVuSans-48"/>
      </g>
     </g>
    </g>
   </g>
   <g id="line2d_15">
    <path clip-path="url(#pdf35e2ad88)" d="M 73.832727 254.749957 
L 85.252736 254.749957 
L 86.884166 252.149968 
L 88.515596 254.749957 
L 90.147026 252.149968 
L 91.778456 251.584494 
L 93.409886 254.749957 
L 96.672746 254.749957 
L 98.304175 251.584494 
L 99.935605 254.749957 
L 104.829895 254.749957 
L 106.461325 251.584494 
L 108.092755 251.584494 
L 109.724185 254.749957 
L 114.618474 254.749957 
L 116.249904 253.167225 
L 117.881334 254.749957 
L 121.144194 254.749957 
L 122.775624 253.449962 
L 124.407053 253.167225 
L 126.038483 254.749957 
L 127.669913 252.149968 
L 129.301343 254.749957 
L 130.932773 254.749957 
L 132.564203 251.584494 
L 134.195633 254.749957 
L 135.827063 251.584494 
L 137.458492 251.584494 
L 139.089922 254.749957 
L 152.141361 254.749957 
L 153.772791 251.584494 
L 155.404221 254.749957 
L 168.45566 254.749957 
L 170.08709 251.584494 
L 171.71852 251.584494 
L 173.34995 254.749957 
L 176.61281 251.584494 
L 178.244239 254.749957 
L 181.507099 251.584494 
L 183.138529 254.749957 
L 184.769959 251.584494 
L 186.401389 254.749957 
L 188.032819 252.149968 
L 189.664249 251.584494 
L 191.295678 254.749957 
L 199.452828 254.749957 
L 201.084258 254.602855 
L 202.715688 254.111443 
L 204.347117 246.504734 
L 205.978547 257.250077 
L 207.609977 258.75389 
L 209.241407 261.707675 
L 210.872837 254.594676 
L 212.504267 261.692738 
L 214.135697 256.976683 
L 215.767127 256.166117 
L 217.398556 253.590514 
L 219.029986 259.487999 
L 220.661416 264.835813 
L 222.292846 262.152788 
L 223.924276 268.174437 
L 225.555706 254.947399 
L 227.187136 268.049367 
L 228.818566 254.179018 
L 230.449995 265.120845 
L 232.081425 265.172107 
L 233.712855 261.005588 
L 235.344285 263.732846 
L 236.975715 260.334187 
L 238.607145 258.751651 
L 240.238575 259.089025 
L 241.870005 263.928205 
L 243.501434 259.468541 
L 245.132864 258.333646 
L 246.764294 261.24822 
L 248.395724 266.13925 
L 250.027154 266.216521 
L 251.658584 254.706522 
L 253.290014 255.096824 
L 254.921444 257.921937 
L 256.552873 263.587502 
L 258.184303 259.388392 
L 259.815733 263.591878 
L 261.447163 273.16481 
L 263.078593 258.08511 
L 264.710023 264.806121 
L 266.341453 267.650307 
L 267.972883 264.43479 
L 269.604312 256.378064 
L 271.235742 251.296943 
L 272.867172 256.53653 
L 274.498602 259.575278 
L 276.130032 262.344426 
L 277.761462 263.907704 
L 279.392892 259.301174 
L 281.024322 265.577061 
L 282.655751 259.882098 
L 284.287181 261.123305 
L 285.918611 257.525285 
L 287.550041 258.080776 
L 290.812901 262.550811 
L 292.444331 266.926641 
L 294.075761 262.218721 
L 295.70719 262.008984 
L 297.33862 259.427615 
L 298.97005 262.616105 
L 300.60148 263.040295 
L 302.23291 266.807531 
L 303.86434 262.179438 
L 305.49577 263.439392 
L 307.1272 264.867327 
L 308.75863 264.099413 
L 310.390059 268.451868 
L 312.021489 266.400624 
L 313.652919 267.272224 
L 315.284349 267.725704 
L 316.915779 265.419595 
L 318.547209 267.484135 
L 320.178639 267.15616 
L 321.810069 263.64457 
L 323.441498 258.177744 
L 325.072928 259.390364 
L 326.704358 266.483227 
L 328.335788 266.549663 
L 329.967218 265.677108 
L 331.598648 267.779612 
L 333.230078 270.967175 
L 334.861508 263.738383 
L 336.492937 268.148251 
L 338.124367 266.395751 
L 339.755797 259.304741 
L 341.387227 263.686005 
L 343.018657 267.551613 
L 344.650087 264.858574 
L 346.281517 269.533074 
L 347.912947 270.246271 
L 349.544376 266.765308 
L 351.175806 273.286856 
L 352.807236 269.380328 
L 354.438666 265.828186 
L 356.070096 274.991251 
L 357.701526 262.81579 
L 359.332956 267.499535 
L 360.964386 277.100625 
L 362.595815 259.263773 
L 364.227245 265.77643 
L 367.490105 256.684141 
L 369.121535 265.300248 
L 370.752965 266.97465 
L 372.384395 266.433561 
L 374.015825 261.46898 
L 375.647254 263.95911 
L 377.278684 259.617338 
L 378.910114 263.686119 
L 380.541544 262.960697 
L 382.172974 261.53693 
L 383.804404 267.147835 
L 385.435834 273.245376 
L 387.067264 262.034541 
L 388.698693 265.492112 
L 390.330123 264.638124 
L 391.961553 269.151099 
L 393.592983 268.805964 
L 395.224413 262.340456 
L 396.855843 271.492488 
L 398.487273 257.581977 
L 398.487273 257.581977 
" style="fill:none;stroke:#1f77b4;stroke-linecap:square;stroke-width:0.25;"/>
   </g>
   <g id="line2d_16">
    <path clip-path="url(#pdf35e2ad88)" d="M 73.832727 249.658467 
L 75.464157 251.567768 
L 77.095587 250.473499 
L 78.727017 251.879767 
L 80.358447 252.339836 
L 83.621307 251.966802 
L 85.252736 252.839489 
L 86.884166 251.597149 
L 88.515596 252.117147 
L 90.147026 251.539494 
L 91.778456 250.429428 
L 93.409886 251.333769 
L 95.041316 251.28515 
L 96.672746 251.909148 
L 98.304175 250.716534 
L 99.935605 252.058647 
L 101.567035 251.692113 
L 103.198465 250.808117 
L 104.829895 251.398186 
L 106.461325 249.806538 
L 108.092755 251.360876 
L 109.724185 250.932461 
L 111.355614 252.18273 
L 112.987044 251.088461 
L 114.618474 251.866184 
L 116.249904 251.542875 
L 117.881334 251.476185 
L 119.512764 250.774188 
L 121.144194 250.943771 
L 122.775624 251.57453 
L 124.407053 251.091842 
L 126.038483 251.926112 
L 127.669913 251.134806 
L 129.301343 250.854462 
L 130.932773 250.195429 
L 134.195633 250.655498 
L 135.827063 250.687153 
L 137.458492 251.294186 
L 139.089922 252.723073 
L 140.721352 251.435495 
L 142.352782 251.770113 
L 143.984212 251.32246 
L 145.615642 252.15673 
L 147.247072 250.817152 
L 148.878502 252.55349 
L 150.509931 253.105142 
L 152.141361 251.738458 
L 153.772791 250.635153 
L 155.404221 251.169841 
L 157.035651 252.122801 
L 158.667081 251.605078 
L 160.298511 252.033492 
L 161.929941 251.582459 
L 163.56137 252.360181 
L 165.1928 250.065429 
L 166.82423 251.513495 
L 168.45566 250.938116 
L 170.08709 251.582459 
L 171.71852 250.276809 
L 173.34995 251.593768 
L 174.98138 250.967497 
L 178.244239 251.288531 
L 179.875669 250.17281 
L 181.507099 250.735772 
L 183.138529 252.128456 
L 184.769959 250.993497 
L 186.401389 250.637427 
L 188.032819 251.478459 
L 189.664249 250.577499 
L 191.295678 250.536808 
L 192.927108 251.704139 
L 194.558538 251.450185 
L 196.189968 251.454733 
L 197.821398 251.793839 
L 199.452828 248.448759 
L 201.084258 243.036239 
L 202.715688 252.169913 
L 204.347117 249.790436 
L 205.978547 253.604894 
L 207.609977 247.462702 
L 209.241407 257.676477 
L 210.872837 249.264053 
L 212.504267 256.360729 
L 214.135697 252.634468 
L 215.767127 255.81436 
L 217.398556 253.947143 
L 219.029986 247.758491 
L 220.661416 259.290583 
L 222.292846 258.766993 
L 223.924276 259.407891 
L 225.555706 248.115376 
L 227.187136 260.167027 
L 228.818566 253.784147 
L 230.449995 260.147284 
L 232.081425 257.411655 
L 233.712855 250.088372 
L 235.344285 259.14589 
L 236.975715 257.801598 
L 238.607145 257.884988 
L 240.238575 254.534555 
L 241.870005 259.739091 
L 243.501434 257.959759 
L 245.132864 254.691743 
L 246.764294 258.763805 
L 248.395724 264.630007 
L 250.027154 262.723442 
L 251.658584 255.079232 
L 253.290014 253.49392 
L 254.921444 257.978168 
L 256.552873 260.719676 
L 258.184303 259.813986 
L 259.815733 262.185227 
L 261.447163 265.158677 
L 263.078593 254.795039 
L 264.710023 260.291446 
L 266.341453 260.383351 
L 267.972883 261.730231 
L 269.604312 255.590376 
L 271.235742 252.472501 
L 272.867172 256.096906 
L 274.498602 255.627685 
L 276.130032 258.270779 
L 277.761462 258.674548 
L 279.392892 258.498478 
L 281.024322 262.85801 
L 282.655751 255.565553 
L 284.287181 258.79405 
L 285.918611 258.942282 
L 287.550041 258.162262 
L 289.181471 260.912191 
L 290.812901 259.594812 
L 292.444331 261.266423 
L 294.075761 262.628057 
L 295.70719 261.003375 
L 297.33862 262.322876 
L 298.97005 261.504014 
L 300.60148 262.627416 
L 302.23291 264.1014 
L 303.86434 259.013025 
L 305.49577 262.194508 
L 308.75863 264.792894 
L 310.390059 265.58354 
L 312.021489 262.183523 
L 313.652919 266.402403 
L 315.284349 266.822876 
L 316.915779 262.126293 
L 318.547209 264.286413 
L 320.178639 264.230266 
L 321.810069 262.67877 
L 323.441498 257.816753 
L 325.072928 260.360412 
L 326.704358 259.643957 
L 328.335788 265.551547 
L 329.967218 265.509287 
L 331.598648 267.644603 
L 333.230078 269.045418 
L 334.861508 260.708463 
L 336.492937 264.42962 
L 338.124367 259.434625 
L 339.755797 258.298289 
L 341.387227 260.905354 
L 343.018657 265.233451 
L 344.650087 261.121997 
L 346.281517 267.745917 
L 347.912947 266.659504 
L 349.544376 263.627784 
L 351.175806 268.669075 
L 352.807236 263.46988 
L 354.438666 260.935408 
L 356.070096 270.866173 
L 357.701526 262.729673 
L 359.332956 267.90407 
L 360.964386 273.522376 
L 362.595815 261.166422 
L 364.227245 264.643399 
L 365.858675 262.463001 
L 367.490105 256.394111 
L 369.121535 263.834666 
L 370.752965 267.833344 
L 372.384395 261.22649 
L 374.015825 260.663219 
L 375.647254 265.44597 
L 377.278684 260.101625 
L 378.910114 265.227024 
L 380.541544 259.439436 
L 382.172974 259.723819 
L 383.804404 268.330447 
L 385.435834 268.464051 
L 387.067264 264.125774 
L 390.330123 265.947297 
L 391.961553 270.445785 
L 393.592983 264.217663 
L 395.224413 263.126515 
L 396.855843 263.164103 
L 398.487273 259.499687 
L 398.487273 259.499687 
" style="fill:none;stroke:#2ca02c;stroke-linecap:square;stroke-width:0.75;"/>
   </g>
   <g id="patch_3">
    <path d="M 57.6 307.584 
L 57.6 41.472 
" style="fill:none;stroke:#000000;stroke-linecap:square;stroke-linejoin:miter;stroke-width:0.8;"/>
   </g>
   <g id="patch_4">
    <path d="M 414.72 307.584 
L 414.72 41.472 
" style="fill:none;stroke:#000000;stroke-linecap:square;stroke-linejoin:miter;stroke-width:0.8;"/>
   </g>
   <g id="patch_5">
    <path d="M 57.6 307.584 
L 414.72 307.584 
" style="fill:none;stroke:#000000;stroke-linecap:square;stroke-linejoin:miter;stroke-width:0.8;"/>
   </g>
   <g id="patch_6">
    <path d="M 57.6 41.472 
L 414.72 41.472 
" style="fill:none;stroke:#000000;stroke-linecap:square;stroke-linejoin:miter;stroke-width:0.8;"/>
   </g>
   <g id="legend_1">
    <g id="patch_7">
     <path d="M 338.234063 78.82825 
L 407.72 78.82825 
Q 409.72 78.82825 409.72 76.82825 
L 409.72 48.472 
Q 409.72 46.472 407.72 46.472 
L 338.234063 46.472 
Q 336.234063 46.472 336.234063 48.472 
L 336.234063 76.82825 
Q 336.234063 78.82825 338.234063 78.82825 
z
" style="fill:#ffffff;opacity:0.8;stroke:#cccccc;stroke-linejoin:miter;"/>
    </g>
    <g id="line2d_17">
     <path d="M 340.234063 54.570437 
L 360.234063 54.570437 
" style="fill:none;stroke:#1f77b4;stroke-linecap:square;stroke-width:0.25;"/>
    </g>
    <g id="line2d_18"/>
    <g id="text_15">
     <!-- median -->
     <defs>
      <path d="M 52 44.1875 
Q 55.375 50.25 60.0625 53.125 
Q 64.75 56 71.09375 56 
Q 79.640625 56 84.28125 50.015625 
Q 88.921875 44.046875 88.921875 33.015625 
L 88.921875 0 
L 79.890625 0 
L 79.890625 32.71875 
Q 79.890625 40.578125 77.09375 44.375 
Q 74.3125 48.1875 68.609375 48.1875 
Q 61.625 48.1875 57.5625 43.546875 
Q 53.515625 38.921875 53.515625 30.90625 
L 53.515625 0 
L 44.484375 0 
L 44.484375 32.71875 
Q 44.484375 40.625 41.703125 44.40625 
Q 38.921875 48.1875 33.109375 48.1875 
Q 26.21875 48.1875 22.15625 43.53125 
Q 18.109375 38.875 18.109375 30.90625 
L 18.109375 0 
L 9.078125 0 
L 9.078125 54.6875 
L 18.109375 54.6875 
L 18.109375 46.1875 
Q 21.1875 51.21875 25.484375 53.609375 
Q 29.78125 56 35.6875 56 
Q 41.65625 56 45.828125 52.96875 
Q 50 49.953125 52 44.1875 
z
" id="DejaVuSans-109"/>
      <path d="M 56.203125 29.59375 
L 56.203125 25.203125 
L 14.890625 25.203125 
Q 15.484375 15.921875 20.484375 11.0625 
Q 25.484375 6.203125 34.421875 6.203125 
Q 39.59375 6.203125 44.453125 7.46875 
Q 49.3125 8.734375 54.109375 11.28125 
L 54.109375 2.78125 
Q 49.265625 0.734375 44.1875 -0.34375 
Q 39.109375 -1.421875 33.890625 -1.421875 
Q 20.796875 -1.421875 13.15625 6.1875 
Q 5.515625 13.8125 5.515625 26.8125 
Q 5.515625 40.234375 12.765625 48.109375 
Q 20.015625 56 32.328125 56 
Q 43.359375 56 49.78125 48.890625 
Q 56.203125 41.796875 56.203125 29.59375 
z
M 47.21875 32.234375 
Q 47.125 39.59375 43.09375 43.984375 
Q 39.0625 48.390625 32.421875 48.390625 
Q 24.90625 48.390625 20.390625 44.140625 
Q 15.875 39.890625 15.1875 32.171875 
z
" id="DejaVuSans-101"/>
      <path d="M 45.40625 46.390625 
L 45.40625 75.984375 
L 54.390625 75.984375 
L 54.390625 0 
L 45.40625 0 
L 45.40625 8.203125 
Q 42.578125 3.328125 38.25 0.953125 
Q 33.9375 -1.421875 27.875 -1.421875 
Q 17.96875 -1.421875 11.734375 6.484375 
Q 5.515625 14.40625 5.515625 27.296875 
Q 5.515625 40.1875 11.734375 48.09375 
Q 17.96875 56 27.875 56 
Q 33.9375 56 38.25 53.625 
Q 42.578125 51.265625 45.40625 46.390625 
z
M 14.796875 27.296875 
Q 14.796875 17.390625 18.875 11.75 
Q 22.953125 6.109375 30.078125 6.109375 
Q 37.203125 6.109375 41.296875 11.75 
Q 45.40625 17.390625 45.40625 27.296875 
Q 45.40625 37.203125 41.296875 42.84375 
Q 37.203125 48.484375 30.078125 48.484375 
Q 22.953125 48.484375 18.875 42.84375 
Q 14.796875 37.203125 14.796875 27.296875 
z
" id="DejaVuSans-100"/>
      <path d="M 9.421875 54.6875 
L 18.40625 54.6875 
L 18.40625 0 
L 9.421875 0 
z
M 9.421875 75.984375 
L 18.40625 75.984375 
L 18.40625 64.59375 
L 9.421875 64.59375 
z
" id="DejaVuSans-105"/>
      <path d="M 34.28125 27.484375 
Q 23.390625 27.484375 19.1875 25 
Q 14.984375 22.515625 14.984375 16.5 
Q 14.984375 11.71875 18.140625 8.90625 
Q 21.296875 6.109375 26.703125 6.109375 
Q 34.1875 6.109375 38.703125 11.40625 
Q 43.21875 16.703125 43.21875 25.484375 
L 43.21875 27.484375 
z
M 52.203125 31.203125 
L 52.203125 0 
L 43.21875 0 
L 43.21875 8.296875 
Q 40.140625 3.328125 35.546875 0.953125 
Q 30.953125 -1.421875 24.3125 -1.421875 
Q 15.921875 -1.421875 10.953125 3.296875 
Q 6 8.015625 6 15.921875 
Q 6 25.140625 12.171875 29.828125 
Q 18.359375 34.515625 30.609375 34.515625 
L 43.21875 34.515625 
L 43.21875 35.40625 
Q 43.21875 41.609375 39.140625 45 
Q 35.0625 48.390625 27.6875 48.390625 
Q 23 48.390625 18.546875 47.265625 
Q 14.109375 46.140625 10.015625 43.890625 
L 10.015625 52.203125 
Q 14.9375 54.109375 19.578125 55.046875 
Q 24.21875 56 28.609375 56 
Q 40.484375 56 46.34375 49.84375 
Q 52.203125 43.703125 52.203125 31.203125 
z
" id="DejaVuSans-97"/>
      <path d="M 54.890625 33.015625 
L 54.890625 0 
L 45.90625 0 
L 45.90625 32.71875 
Q 45.90625 40.484375 42.875 44.328125 
Q 39.84375 48.1875 33.796875 48.1875 
Q 26.515625 48.1875 22.3125 43.546875 
Q 18.109375 38.921875 18.109375 30.90625 
L 18.109375 0 
L 9.078125 0 
L 9.078125 54.6875 
L 18.109375 54.6875 
L 18.109375 46.1875 
Q 21.34375 51.125 25.703125 53.5625 
Q 30.078125 56 35.796875 56 
Q 45.21875 56 50.046875 50.171875 
Q 54.890625 44.34375 54.890625 33.015625 
z
" id="DejaVuSans-110"/>
     </defs>
     <g transform="translate(368.234063 58.070437)scale(0.1 -0.1)">
      <use xlink:href="#DejaVuSans-109"/>
      <use x="97.412109" xlink:href="#DejaVuSans-101"/>
      <use x="158.935547" xlink:href="#DejaVuSans-100"/>
      <use x="222.412109" xlink:href="#DejaVuSans-105"/>
      <use x="250.195312" xlink:href="#DejaVuSans-97"/>
      <use x="311.474609" xlink:href="#DejaVuSans-110"/>
     </g>
    </g>
    <g id="line2d_19">
     <path d="M 340.234063 69.248562 
L 360.234063 69.248562 
" style="fill:none;stroke:#2ca02c;stroke-linecap:square;stroke-width:0.75;"/>
    </g>
    <g id="line2d_20"/>
    <g id="text_16">
     <!-- mean -->
     <g transform="translate(368.234063 72.748562)scale(0.1 -0.1)">
      <use xlink:href="#DejaVuSans-109"/>
      <use x="97.412109" xlink:href="#DejaVuSans-101"/>
      <use x="158.935547" xlink:href="#DejaVuSans-97"/>
      <use x="220.214844" xlink:href="#DejaVuSans-110"/>
     </g>
    </g>
   </g>
  </g>
  <g id="text_17">
   <!-- log_loss.mean over generations -->
   <defs>
    <path d="M 9.421875 75.984375 
L 18.40625 75.984375 
L 18.40625 0 
L 9.421875 0 
z
" id="DejaVuSans-108"/>
    <path d="M 30.609375 48.390625 
Q 23.390625 48.390625 19.1875 42.75 
Q 14.984375 37.109375 14.984375 27.296875 
Q 14.984375 17.484375 19.15625 11.84375 
Q 23.34375 6.203125 30.609375 6.203125 
Q 37.796875 6.203125 41.984375 11.859375 
Q 46.1875 17.53125 46.1875 27.296875 
Q 46.1875 37.015625 41.984375 42.703125 
Q 37.796875 48.390625 30.609375 48.390625 
z
M 30.609375 56 
Q 42.328125 56 49.015625 48.375 
Q 55.71875 40.765625 55.71875 27.296875 
Q 55.71875 13.875 49.015625 6.21875 
Q 42.328125 -1.421875 30.609375 -1.421875 
Q 18.84375 -1.421875 12.171875 6.21875 
Q 5.515625 13.875 5.515625 27.296875 
Q 5.515625 40.765625 12.171875 48.375 
Q 18.84375 56 30.609375 56 
z
" id="DejaVuSans-111"/>
    <path d="M 45.40625 27.984375 
Q 45.40625 37.75 41.375 43.109375 
Q 37.359375 48.484375 30.078125 48.484375 
Q 22.859375 48.484375 18.828125 43.109375 
Q 14.796875 37.75 14.796875 27.984375 
Q 14.796875 18.265625 18.828125 12.890625 
Q 22.859375 7.515625 30.078125 7.515625 
Q 37.359375 7.515625 41.375 12.890625 
Q 45.40625 18.265625 45.40625 27.984375 
z
M 54.390625 6.78125 
Q 54.390625 -7.171875 48.1875 -13.984375 
Q 42 -20.796875 29.203125 -20.796875 
Q 24.46875 -20.796875 20.265625 -20.09375 
Q 16.0625 -19.390625 12.109375 -17.921875 
L 12.109375 -9.1875 
Q 16.0625 -11.328125 19.921875 -12.34375 
Q 23.78125 -13.375 27.78125 -13.375 
Q 36.625 -13.375 41.015625 -8.765625 
Q 45.40625 -4.15625 45.40625 5.171875 
L 45.40625 9.625 
Q 42.625 4.78125 38.28125 2.390625 
Q 33.9375 0 27.875 0 
Q 17.828125 0 11.671875 7.65625 
Q 5.515625 15.328125 5.515625 27.984375 
Q 5.515625 40.671875 11.671875 48.328125 
Q 17.828125 56 27.875 56 
Q 33.9375 56 38.28125 53.609375 
Q 42.625 51.21875 45.40625 46.390625 
L 45.40625 54.6875 
L 54.390625 54.6875 
z
" id="DejaVuSans-103"/>
    <path d="M 50.984375 -16.609375 
L 50.984375 -23.578125 
L -0.984375 -23.578125 
L -0.984375 -16.609375 
z
" id="DejaVuSans-95"/>
    <path d="M 44.28125 53.078125 
L 44.28125 44.578125 
Q 40.484375 46.53125 36.375 47.5 
Q 32.28125 48.484375 27.875 48.484375 
Q 21.1875 48.484375 17.84375 46.4375 
Q 14.5 44.390625 14.5 40.28125 
Q 14.5 37.15625 16.890625 35.375 
Q 19.28125 33.59375 26.515625 31.984375 
L 29.59375 31.296875 
Q 39.15625 29.25 43.1875 25.515625 
Q 47.21875 21.78125 47.21875 15.09375 
Q 47.21875 7.46875 41.1875 3.015625 
Q 35.15625 -1.421875 24.609375 -1.421875 
Q 20.21875 -1.421875 15.453125 -0.5625 
Q 10.6875 0.296875 5.421875 2 
L 5.421875 11.28125 
Q 10.40625 8.6875 15.234375 7.390625 
Q 20.0625 6.109375 24.8125 6.109375 
Q 31.15625 6.109375 34.5625 8.28125 
Q 37.984375 10.453125 37.984375 14.40625 
Q 37.984375 18.0625 35.515625 20.015625 
Q 33.0625 21.96875 24.703125 23.78125 
L 21.578125 24.515625 
Q 13.234375 26.265625 9.515625 29.90625 
Q 5.8125 33.546875 5.8125 39.890625 
Q 5.8125 47.609375 11.28125 51.796875 
Q 16.75 56 26.8125 56 
Q 31.78125 56 36.171875 55.265625 
Q 40.578125 54.546875 44.28125 53.078125 
z
" id="DejaVuSans-115"/>
    <path id="DejaVuSans-32"/>
    <path d="M 2.984375 54.6875 
L 12.5 54.6875 
L 29.59375 8.796875 
L 46.6875 54.6875 
L 56.203125 54.6875 
L 35.6875 0 
L 23.484375 0 
z
" id="DejaVuSans-118"/>
    <path d="M 41.109375 46.296875 
Q 39.59375 47.171875 37.8125 47.578125 
Q 36.03125 48 33.890625 48 
Q 26.265625 48 22.1875 43.046875 
Q 18.109375 38.09375 18.109375 28.8125 
L 18.109375 0 
L 9.078125 0 
L 9.078125 54.6875 
L 18.109375 54.6875 
L 18.109375 46.1875 
Q 20.953125 51.171875 25.484375 53.578125 
Q 30.03125 56 36.53125 56 
Q 37.453125 56 38.578125 55.875 
Q 39.703125 55.765625 41.0625 55.515625 
z
" id="DejaVuSans-114"/>
    <path d="M 18.3125 70.21875 
L 18.3125 54.6875 
L 36.8125 54.6875 
L 36.8125 47.703125 
L 18.3125 47.703125 
L 18.3125 18.015625 
Q 18.3125 11.328125 20.140625 9.421875 
Q 21.96875 7.515625 27.59375 7.515625 
L 36.8125 7.515625 
L 36.8125 0 
L 27.59375 0 
Q 17.1875 0 13.234375 3.875 
Q 9.28125 7.765625 9.28125 18.015625 
L 9.28125 47.703125 
L 2.6875 47.703125 
L 2.6875 54.6875 
L 9.28125 54.6875 
L 9.28125 70.21875 
z
" id="DejaVuSans-116"/>
   </defs>
   <g transform="translate(134.789062 16.030125)scale(0.12 -0.12)">
    <use xlink:href="#DejaVuSans-108"/>
    <use x="27.783203" xlink:href="#DejaVuSans-111"/>
    <use x="88.964844" xlink:href="#DejaVuSans-103"/>
    <use x="152.441406" xlink:href="#DejaVuSans-95"/>
    <use x="202.441406" xlink:href="#DejaVuSans-108"/>
    <use x="230.224609" xlink:href="#DejaVuSans-111"/>
    <use x="291.40625" xlink:href="#DejaVuSans-115"/>
    <use x="343.505859" xlink:href="#DejaVuSans-115"/>
    <use x="395.605469" xlink:href="#DejaVuSans-46"/>
    <use x="427.392578" xlink:href="#DejaVuSans-109"/>
    <use x="524.804688" xlink:href="#DejaVuSans-101"/>
    <use x="586.328125" xlink:href="#DejaVuSans-97"/>
    <use x="647.607422" xlink:href="#DejaVuSans-110"/>
    <use x="710.986328" xlink:href="#DejaVuSans-32"/>
    <use x="742.773438" xlink:href="#DejaVuSans-111"/>
    <use x="803.955078" xlink:href="#DejaVuSans-118"/>
    <use x="863.134766" xlink:href="#DejaVuSans-101"/>
    <use x="924.658203" xlink:href="#DejaVuSans-114"/>
    <use x="965.771484" xlink:href="#DejaVuSans-32"/>
    <use x="997.558594" xlink:href="#DejaVuSans-103"/>
    <use x="1061.035156" xlink:href="#DejaVuSans-101"/>
    <use x="1122.558594" xlink:href="#DejaVuSans-110"/>
    <use x="1185.9375" xlink:href="#DejaVuSans-101"/>
    <use x="1247.460938" xlink:href="#DejaVuSans-114"/>
    <use x="1288.574219" xlink:href="#DejaVuSans-97"/>
    <use x="1349.853516" xlink:href="#DejaVuSans-116"/>
    <use x="1389.0625" xlink:href="#DejaVuSans-105"/>
    <use x="1416.845703" xlink:href="#DejaVuSans-111"/>
    <use x="1478.027344" xlink:href="#DejaVuSans-110"/>
    <use x="1541.40625" xlink:href="#DejaVuSans-115"/>
   </g>
  </g>
 </g>
 <defs>
  <clipPath id="pdf35e2ad88">
   <rect height="266.112" width="357.12" x="57.6" y="41.472"/>
  </clipPath>
 </defs>
</svg>
