<?xml version="1.0" encoding="utf-8" standalone="no"?>
<!DOCTYPE svg PUBLIC "-//W3C//DTD SVG 1.1//EN"
  "http://www.w3.org/Graphics/SVG/1.1/DTD/svg11.dtd">
<!-- Created with matplotlib (https://matplotlib.org/) -->
<svg height="345.6pt" version="1.1" viewBox="0 0 460.8 345.6" width="460.8pt" xmlns="http://www.w3.org/2000/svg" xmlns:xlink="http://www.w3.org/1999/xlink">
 <defs>
  <style type="text/css">
*{stroke-linecap:butt;stroke-linejoin:round;}
  </style>
 </defs>
 <g id="figure_1">
  <g id="patch_1">
   <path d="M 0 345.6 
L 460.8 345.6 
L 460.8 0 
L 0 0 
z
" style="fill:#ffffff;"/>
  </g>
  <g id="axes_1">
   <g id="patch_2">
    <path d="M 57.6 307.584 
L 414.72 307.584 
L 414.72 41.472 
L 57.6 41.472 
z
" style="fill:#ffffff;"/>
   </g>
   <g id="PolyCollection_1">
    <path clip-path="url(#pa1e826da2e)" d="M 73.832727 201.213217 
L 73.832727 201.213217 
L 75.464157 201.213217 
L 77.095587 201.213217 
L 78.727017 201.213217 
L 80.358447 201.213217 
L 81.989877 201.213217 
L 83.621307 201.213217 
L 85.252736 201.213217 
L 86.884166 201.213217 
L 88.515596 201.213217 
L 90.147026 201.213217 
L 91.778456 201.213217 
L 93.409886 201.213217 
L 95.041316 201.213217 
L 96.672746 201.213217 
L 98.304175 201.213217 
L 99.935605 201.213217 
L 101.567035 201.213217 
L 103.198465 201.213217 
L 104.829895 201.213217 
L 106.461325 201.213217 
L 108.092755 201.213217 
L 109.724185 201.213217 
L 111.355614 201.213217 
L 112.987044 201.213217 
L 114.618474 201.213217 
L 116.249904 201.213217 
L 117.881334 201.213217 
L 119.512764 201.213217 
L 121.144194 201.213217 
L 122.775624 201.213217 
L 124.407053 201.213217 
L 126.038483 201.213217 
L 127.669913 201.213217 
L 129.301343 201.213217 
L 130.932773 201.213217 
L 132.564203 201.213217 
L 134.195633 201.213217 
L 135.827063 201.213217 
L 137.458492 201.213217 
L 139.089922 201.213217 
L 140.721352 201.213217 
L 142.352782 201.213217 
L 143.984212 201.213217 
L 145.615642 201.213217 
L 147.247072 201.213217 
L 148.878502 201.213217 
L 150.509931 201.213217 
L 152.141361 201.213217 
L 153.772791 201.213217 
L 155.404221 201.213217 
L 157.035651 201.213217 
L 158.667081 201.213217 
L 160.298511 201.213217 
L 161.929941 201.213217 
L 163.56137 201.213217 
L 165.1928 201.213217 
L 166.82423 201.213217 
L 168.45566 201.213217 
L 170.08709 201.213217 
L 171.71852 201.213217 
L 173.34995 201.213217 
L 174.98138 201.213217 
L 176.61281 201.213217 
L 178.244239 201.213217 
L 179.875669 201.213217 
L 181.507099 201.213217 
L 183.138529 201.213217 
L 184.769959 201.213217 
L 186.401389 201.213217 
L 188.032819 201.213217 
L 189.664249 201.213217 
L 191.295678 201.213217 
L 192.927108 201.213217 
L 194.558538 201.213217 
L 196.189968 201.213217 
L 197.821398 201.213217 
L 199.452828 201.213217 
L 201.084258 201.213217 
L 202.715688 201.213217 
L 204.347117 201.213217 
L 205.978547 201.213217 
L 207.609977 201.213217 
L 209.241407 201.213217 
L 210.872837 195.759304 
L 212.504267 181.832348 
L 214.135697 195.369739 
L 215.767127 189.526261 
L 217.398556 185.338435 
L 219.029986 167.710609 
L 220.661416 176.573217 
L 222.292846 181.734957 
L 223.924276 166.34713 
L 225.555706 186.799304 
L 227.187136 161.86713 
L 228.818566 201.213217 
L 230.449995 190.110609 
L 232.081425 182.124522 
L 233.712855 200.434087 
L 235.344285 197.317565 
L 236.975715 201.213217 
L 238.607145 187.773217 
L 240.238575 201.213217 
L 241.870005 182.319304 
L 243.501434 194.590609 
L 245.132864 188.74713 
L 246.764294 187.968 
L 248.395724 163.094261 
L 250.027154 189.623652 
L 251.658584 201.213217 
L 253.290014 201.213217 
L 254.921444 194.590609 
L 256.552873 172.770087 
L 258.184303 190.694957 
L 259.815733 181.150609 
L 261.447163 189.136696 
L 263.078593 187.968 
L 264.710023 178.618435 
L 266.341453 167.613217 
L 267.972883 166.773797 
L 269.604312 189.915826 
L 271.235742 201.213217 
L 272.867172 201.213217 
L 274.498602 183.001043 
L 276.130032 193.90887 
L 277.761462 181.345391 
L 279.392892 183.098435 
L 281.024322 167.710609 
L 282.655751 176.281043 
L 284.287181 182.319304 
L 285.918611 198.486261 
L 287.550041 201.213217 
L 289.181471 175.501913 
L 290.812901 182.514087 
L 292.444331 164.038957 
L 294.075761 181.734957 
L 295.70719 183.293217 
L 297.33862 186.50713 
L 298.97005 181.734957 
L 300.60148 182.903652 
L 302.23291 181.734957 
L 303.86434 190.402783 
L 305.49577 181.734957 
L 307.1272 200.044522 
L 308.75863 181.734957 
L 310.390059 165.747324 
L 312.021489 184.072348 
L 313.652919 162.456191 
L 315.284349 170.534957 
L 316.915779 179.397565 
L 318.547209 173.690435 
L 320.178639 176.738783 
L 321.810069 189.915826 
L 323.441498 201.213217 
L 325.072928 201.213217 
L 326.704358 177.279304 
L 328.335788 174.041043 
L 329.967218 192.253217 
L 331.598648 168.112877 
L 333.230078 164.983652 
L 334.861508 182.514087 
L 336.492937 180.176696 
L 338.124367 195.856696 
L 339.755797 198.778435 
L 341.387227 182.903652 
L 343.018657 168.773444 
L 344.650087 183.780174 
L 346.281517 181.734957 
L 347.912947 170.986498 
L 349.544376 170.168593 
L 351.175806 164.204522 
L 352.807236 175.112348 
L 354.438666 182.124522 
L 356.070096 158.751583 
L 357.701526 190.013217 
L 359.332956 175.112348 
L 360.964386 150.569739 
L 362.595815 201.213217 
L 364.227245 182.124522 
L 365.858675 182.124522 
L 367.490105 201.213217 
L 369.121535 194.980174 
L 370.752965 169.171478 
L 372.384395 180.566261 
L 374.015825 187.968 
L 375.647254 182.514087 
L 377.278684 198.486261 
L 378.910114 184.169739 
L 380.541544 201.213217 
L 382.172974 201.213217 
L 383.804404 177.839304 
L 385.435834 181.734957 
L 387.067264 173.939757 
L 388.698693 179.202783 
L 390.330123 166.931478 
L 391.961553 168.705771 
L 393.592983 177.060174 
L 395.224413 184.364522 
L 396.855843 171.216696 
L 398.487273 188.552348 
L 398.487273 177.839304 
L 398.487273 177.839304 
L 396.855843 125.053217 
L 395.224413 152.128 
L 393.592983 131.675826 
L 391.961553 115.021913 
L 390.330123 130.117565 
L 388.698693 148.232348 
L 387.067264 151.34887 
L 385.435834 155.926261 
L 383.804404 154.265043 
L 382.172974 162.54887 
L 380.541544 181.734957 
L 378.910114 147.550609 
L 377.278684 179.008 
L 375.647254 143.557565 
L 374.015825 168.489739 
L 372.384395 151.34887 
L 370.752965 141.220174 
L 369.121535 177.839304 
L 367.490105 183.293217 
L 365.858675 169.658435 
L 364.227245 162.256696 
L 362.595815 145.310609 
L 360.964386 84.538435 
L 359.332956 148.524522 
L 357.701526 148.914087 
L 356.070096 127.974957 
L 354.438666 146.284522 
L 352.807236 126.416696 
L 351.175806 127.195826 
L 349.544376 143.557565 
L 347.912947 144.016696 
L 346.281517 151.738435 
L 344.650087 175.891478 
L 343.018657 144.726261 
L 341.387227 165.373217 
L 339.755797 162.256696 
L 338.124367 156.023652 
L 336.492937 128.364522 
L 334.861508 156.413217 
L 333.230078 124.176696 
L 331.598648 151.222261 
L 329.967218 162.256696 
L 328.335788 142.38887 
L 326.704358 146.284522 
L 325.072928 163.035826 
L 323.441498 176.281043 
L 321.810069 142.778435 
L 320.178639 135.376696 
L 318.547209 142.778435 
L 316.915779 140.441043 
L 315.284349 128.656696 
L 313.652919 124.079304 
L 312.021489 146.864232 
L 310.390059 123.300174 
L 308.75863 142.778435 
L 307.1272 138.590609 
L 305.49577 146.85913 
L 303.86434 165.809739 
L 302.23291 122.131478 
L 300.60148 138.298435 
L 298.97005 142.778435 
L 297.33862 117.826783 
L 295.70719 123.689739 
L 294.075761 131.968 
L 292.444331 120.281043 
L 290.812901 142.291478 
L 289.181471 160.273643 
L 287.550041 164.399304 
L 285.918611 156.023652 
L 284.287181 153.779014 
L 282.655751 148.928696 
L 281.024322 142.583652 
L 279.392892 164.204522 
L 277.761462 146.284522 
L 276.130032 167.671652 
L 274.498602 149.888 
L 272.867172 172.747362 
L 271.235742 181.734957 
L 269.604312 174.820174 
L 267.972883 142.778435 
L 266.341453 140.399304 
L 264.710023 157.006696 
L 263.078593 169.366261 
L 261.447163 117.164522 
L 259.815733 152.90713 
L 258.184303 169.658435 
L 256.552873 160.30887 
L 254.921444 162.256696 
L 253.290014 195.369739 
L 251.658584 169.165913 
L 250.027154 156.393739 
L 248.395724 143.460174 
L 246.764294 164.201816 
L 245.132864 165.747074 
L 243.501434 168.645874 
L 241.870005 161.282783 
L 240.238575 161.964522 
L 238.607145 157.192348 
L 236.975715 181.248 
L 235.344285 164.051478 
L 233.712855 165.008 
L 232.081425 155.341913 
L 230.449995 153.223652 
L 228.818566 183.293217 
L 227.187136 127.098435 
L 225.555706 167.321043 
L 223.924276 138.785391 
L 222.292846 135.537391 
L 220.661416 142.403415 
L 219.029986 143.94713 
L 217.398556 157.581913 
L 215.767127 162.256696 
L 214.135697 156.802783 
L 212.504267 142.778435 
L 210.872837 163.035826 
L 209.241407 145.115826 
L 207.609977 201.213217 
L 205.978547 201.213217 
L 204.347117 201.213217 
L 202.715688 201.213217 
L 201.084258 201.213217 
L 199.452828 201.213217 
L 197.821398 201.213217 
L 196.189968 201.213217 
L 194.558538 201.213217 
L 192.927108 201.213217 
L 191.295678 201.213217 
L 189.664249 201.213217 
L 188.032819 201.213217 
L 186.401389 201.213217 
L 184.769959 201.213217 
L 183.138529 201.213217 
L 181.507099 201.213217 
L 179.875669 201.213217 
L 178.244239 201.213217 
L 176.61281 201.213217 
L 174.98138 201.213217 
L 173.34995 201.213217 
L 171.71852 201.213217 
L 170.08709 201.213217 
L 168.45566 201.213217 
L 166.82423 201.213217 
L 165.1928 201.213217 
L 163.56137 201.213217 
L 161.929941 201.213217 
L 160.298511 201.213217 
L 158.667081 201.213217 
L 157.035651 201.213217 
L 155.404221 201.213217 
L 153.772791 201.213217 
L 152.141361 201.213217 
L 150.509931 201.213217 
L 148.878502 201.213217 
L 147.247072 201.213217 
L 145.615642 201.213217 
L 143.984212 201.213217 
L 142.352782 201.213217 
L 140.721352 201.213217 
L 139.089922 201.213217 
L 137.458492 201.213217 
L 135.827063 201.213217 
L 134.195633 201.213217 
L 132.564203 201.213217 
L 130.932773 201.213217 
L 129.301343 201.213217 
L 127.669913 201.213217 
L 126.038483 201.213217 
L 124.407053 201.213217 
L 122.775624 201.213217 
L 121.144194 201.213217 
L 119.512764 201.213217 
L 117.881334 201.213217 
L 116.249904 201.213217 
L 114.618474 201.213217 
L 112.987044 201.213217 
L 111.355614 201.213217 
L 109.724185 201.213217 
L 108.092755 201.213217 
L 106.461325 201.213217 
L 104.829895 201.213217 
L 103.198465 201.213217 
L 101.567035 201.213217 
L 99.935605 201.213217 
L 98.304175 201.213217 
L 96.672746 201.213217 
L 95.041316 201.213217 
L 93.409886 201.213217 
L 91.778456 201.213217 
L 90.147026 201.213217 
L 88.515596 201.213217 
L 86.884166 201.213217 
L 85.252736 201.213217 
L 83.621307 201.213217 
L 81.989877 201.213217 
L 80.358447 201.213217 
L 78.727017 201.213217 
L 77.095587 201.213217 
L 75.464157 201.213217 
L 73.832727 201.213217 
z
" style="fill:#1f77b4;fill-opacity:0.2;"/>
   </g>
   <g id="PolyCollection_2">
    <path clip-path="url(#pa1e826da2e)" d="M 73.832727 201.213217 
L 73.832727 201.213217 
L 75.464157 201.213217 
L 77.095587 201.213217 
L 78.727017 201.213217 
L 80.358447 201.213217 
L 81.989877 201.213217 
L 83.621307 201.213217 
L 85.252736 201.213217 
L 86.884166 201.213217 
L 88.515596 201.213217 
L 90.147026 201.213217 
L 91.778456 201.213217 
L 93.409886 201.213217 
L 95.041316 201.213217 
L 96.672746 201.213217 
L 98.304175 201.213217 
L 99.935605 201.213217 
L 101.567035 201.213217 
L 103.198465 201.213217 
L 104.829895 201.213217 
L 106.461325 201.213217 
L 108.092755 201.213217 
L 109.724185 201.213217 
L 111.355614 201.213217 
L 112.987044 201.213217 
L 114.618474 201.213217 
L 116.249904 201.213217 
L 117.881334 201.213217 
L 119.512764 201.213217 
L 121.144194 201.213217 
L 122.775624 201.213217 
L 124.407053 201.213217 
L 126.038483 201.213217 
L 127.669913 201.213217 
L 129.301343 201.213217 
L 130.932773 201.213217 
L 132.564203 201.213217 
L 134.195633 201.213217 
L 135.827063 201.213217 
L 137.458492 201.213217 
L 139.089922 201.213217 
L 140.721352 201.213217 
L 142.352782 201.213217 
L 143.984212 201.213217 
L 145.615642 201.213217 
L 147.247072 201.213217 
L 148.878502 201.213217 
L 150.509931 201.213217 
L 152.141361 201.213217 
L 153.772791 201.213217 
L 155.404221 201.213217 
L 157.035651 201.213217 
L 158.667081 201.213217 
L 160.298511 201.213217 
L 161.929941 201.213217 
L 163.56137 201.213217 
L 165.1928 201.213217 
L 166.82423 201.213217 
L 168.45566 201.213217 
L 170.08709 201.213217 
L 171.71852 201.213217 
L 173.34995 201.213217 
L 174.98138 201.213217 
L 176.61281 201.213217 
L 178.244239 201.213217 
L 179.875669 201.213217 
L 181.507099 201.213217 
L 183.138529 201.213217 
L 184.769959 201.213217 
L 186.401389 201.213217 
L 188.032819 201.213217 
L 189.664249 201.213217 
L 191.295678 201.213217 
L 192.927108 201.213217 
L 194.558538 201.213217 
L 196.189968 201.213217 
L 197.821398 201.213217 
L 199.452828 201.213217 
L 201.084258 224.976696 
L 202.715688 201.213217 
L 204.347117 257.310609 
L 205.978547 201.213217 
L 207.609977 201.213217 
L 209.241407 201.213217 
L 210.872837 221.081043 
L 212.504267 244.454957 
L 214.135697 236.274087 
L 215.767127 240.94887 
L 217.398556 258.86887 
L 219.029986 258.479304 
L 220.661416 244.065391 
L 222.292846 235.105391 
L 223.924276 249.129739 
L 225.555706 219.912348 
L 227.187136 222.249739 
L 228.818566 241.338435 
L 230.449995 235.884522 
L 232.081425 237.442783 
L 233.712855 218.354087 
L 235.344285 217.964522 
L 236.975715 264.322783 
L 238.607145 224.197565 
L 240.238575 220.301913 
L 241.870005 239.001043 
L 243.501434 251.46713 
L 245.132864 217.574957 
L 246.764294 218.354087 
L 248.395724 216.406261 
L 250.027154 214.848 
L 251.658584 259.648 
L 253.290014 201.213217 
L 254.921444 218.354087 
L 256.552873 223.418435 
L 258.184303 218.354087 
L 259.815733 218.354087 
L 261.447163 237.053217 
L 263.078593 243.675826 
L 264.710023 234.715826 
L 266.341453 217.574957 
L 267.972883 251.077565 
L 269.604312 241.338435 
L 271.235742 220.691478 
L 272.867172 222.639304 
L 274.498602 257.310609 
L 276.130032 203.940174 
L 277.761462 233.936696 
L 279.392892 230.041043 
L 281.024322 201.213217 
L 282.655751 223.418435 
L 284.287181 255.362783 
L 285.918611 226.534957 
L 287.550041 201.213217 
L 289.181471 221.081043 
L 290.812901 252.246261 
L 292.444331 248.740174 
L 294.075761 201.213217 
L 295.70719 230.820174 
L 297.33862 206.66713 
L 298.97005 217.574957 
L 300.60148 254.194087 
L 302.23291 201.213217 
L 303.86434 201.213217 
L 305.49577 242.117565 
L 307.1272 224.58713 
L 308.75863 239.780174 
L 310.390059 235.494957 
L 312.021489 241.338435 
L 313.652919 219.522783 
L 315.284349 227.314087 
L 316.915779 218.743652 
L 318.547209 227.703652 
L 320.178639 257.700174 
L 321.810069 201.213217 
L 323.441498 254.973217 
L 325.072928 238.611478 
L 326.704358 221.081043 
L 328.335788 220.691478 
L 329.967218 220.691478 
L 331.598648 234.715826 
L 333.230078 216.795826 
L 334.861508 246.013217 
L 336.492937 234.715826 
L 338.124367 294.319304 
L 339.755797 259.648 
L 341.387227 217.574957 
L 343.018657 224.976696 
L 344.650087 203.940174 
L 346.281517 212.121043 
L 347.912947 203.940174 
L 349.544376 209.783652 
L 351.175806 201.213217 
L 352.807236 226.534957 
L 354.438666 201.213217 
L 356.070096 212.121043 
L 357.701526 218.354087 
L 359.332956 207.056696 
L 360.964386 254.583652 
L 362.595815 203.940174 
L 364.227245 201.213217 
L 365.858675 295.488 
L 367.490105 201.213217 
L 369.121535 223.808 
L 370.752965 231.209739 
L 372.384395 251.077565 
L 374.015825 214.458435 
L 375.647254 201.213217 
L 377.278684 210.173217 
L 378.910114 219.912348 
L 380.541544 201.213217 
L 382.172974 217.964522 
L 383.804404 212.510609 
L 385.435834 236.663652 
L 387.067264 221.081043 
L 388.698693 207.835826 
L 390.330123 220.301913 
L 391.961553 210.173217 
L 393.592983 221.081043 
L 395.224413 212.121043 
L 396.855843 201.213217 
L 398.487273 217.574957 
L 398.487273 119.404522 
L 398.487273 119.404522 
L 396.855843 105.769739 
L 395.224413 107.717565 
L 393.592983 106.938435 
L 391.961553 88.62887 
L 390.330123 87.460174 
L 388.698693 105.380174 
L 387.067264 123.300174 
L 385.435834 113.171478 
L 383.804404 95.641043 
L 382.172974 123.689739 
L 380.541544 126.416696 
L 378.910114 99.536696 
L 377.278684 119.794087 
L 375.647254 137.633487 
L 374.015825 121.352348 
L 372.384395 111.223652 
L 370.752965 96.809739 
L 369.121535 104.211478 
L 367.490105 134.094377 
L 365.858675 103.821913 
L 364.227245 101.874087 
L 362.595815 107.717565 
L 360.964386 53.568 
L 359.332956 116.677565 
L 357.701526 136.155826 
L 356.070096 91.745391 
L 354.438666 127.195826 
L 352.807236 95.641043 
L 351.175806 107.328 
L 349.544376 103.821913 
L 347.912947 113.950609 
L 346.281517 88.239304 
L 344.650087 114.321623 
L 343.018657 99.536696 
L 341.387227 109.665391 
L 339.755797 115.586783 
L 338.124367 114.632348 
L 336.492937 89.797565 
L 334.861508 114.393296 
L 333.230078 92.134957 
L 331.598648 89.018435 
L 329.967218 104.990609 
L 328.335788 78.889739 
L 326.704358 104.990609 
L 325.072928 103.821913 
L 323.441498 106.159304 
L 321.810069 104.601043 
L 320.178639 77.331478 
L 318.547209 109.665391 
L 316.915779 87.849739 
L 315.284349 62.528 
L 313.652919 96.381217 
L 312.021489 91.355826 
L 310.390059 84.733217 
L 308.75863 84.733217 
L 307.1272 74.214957 
L 305.49577 84.343652 
L 303.86434 93.730319 
L 302.23291 92.953043 
L 300.60148 94.435246 
L 298.97005 93.537391 
L 297.33862 86.681043 
L 295.70719 101.280464 
L 294.075761 95.543652 
L 292.444331 91.355826 
L 290.812901 104.143728 
L 289.181471 101.406609 
L 287.550041 102.931478 
L 285.918611 102.302609 
L 284.287181 110.834087 
L 282.655751 121.78087 
L 281.024322 120.573217 
L 279.392892 138.103652 
L 277.761462 93.303652 
L 276.130032 109.275826 
L 274.498602 124.858435 
L 272.867172 135.376696 
L 271.235742 137.094324 
L 269.604312 134.96858 
L 267.972883 123.300174 
L 266.341453 104.990609 
L 264.710023 112.002783 
L 263.078593 120.573217 
L 261.447163 85.512348 
L 259.815733 134.934008 
L 258.184303 126.416696 
L 256.552873 107.328 
L 254.921444 123.300174 
L 253.290014 143.168 
L 251.658584 142.778435 
L 250.027154 125.637565 
L 248.395724 106.159304 
L 246.764294 125.248 
L 245.132864 127.585391 
L 243.501434 109.275826 
L 241.870005 124.46887 
L 240.238575 124.858435 
L 238.607145 123.689739 
L 236.975715 107.717565 
L 235.344285 111.613217 
L 233.712855 105.380174 
L 232.081425 110.834087 
L 230.449995 107.328 
L 228.818566 136.972058 
L 227.187136 103.432348 
L 225.555706 142.217461 
L 223.924276 106.938435 
L 222.292846 111.613217 
L 220.661416 108.496696 
L 219.029986 104.211478 
L 217.398556 139.661913 
L 215.767127 132.630261 
L 214.135697 131.63687 
L 212.504267 115.898435 
L 210.872837 131.831652 
L 209.241407 106.159304 
L 207.609977 142.778435 
L 205.978547 125.248 
L 204.347117 148.269449 
L 202.715688 146.459826 
L 201.084258 201.213217 
L 199.452828 201.213217 
L 197.821398 201.213217 
L 196.189968 201.213217 
L 194.558538 201.213217 
L 192.927108 201.213217 
L 191.295678 201.213217 
L 189.664249 201.213217 
L 188.032819 201.213217 
L 186.401389 201.213217 
L 184.769959 201.213217 
L 183.138529 201.213217 
L 181.507099 201.213217 
L 179.875669 201.213217 
L 178.244239 201.213217 
L 176.61281 201.213217 
L 174.98138 201.213217 
L 173.34995 201.213217 
L 171.71852 201.213217 
L 170.08709 201.213217 
L 168.45566 201.213217 
L 166.82423 201.213217 
L 165.1928 201.213217 
L 163.56137 201.213217 
L 161.929941 201.213217 
L 160.298511 201.213217 
L 158.667081 201.213217 
L 157.035651 201.213217 
L 155.404221 201.213217 
L 153.772791 201.213217 
L 152.141361 201.213217 
L 150.509931 201.213217 
L 148.878502 201.213217 
L 147.247072 201.213217 
L 145.615642 201.213217 
L 143.984212 201.213217 
L 142.352782 201.213217 
L 140.721352 201.213217 
L 139.089922 201.213217 
L 137.458492 201.213217 
L 135.827063 201.213217 
L 134.195633 201.213217 
L 132.564203 201.213217 
L 130.932773 201.213217 
L 129.301343 201.213217 
L 127.669913 201.213217 
L 126.038483 201.213217 
L 124.407053 201.213217 
L 122.775624 201.213217 
L 121.144194 201.213217 
L 119.512764 201.213217 
L 117.881334 201.213217 
L 116.249904 201.213217 
L 114.618474 201.213217 
L 112.987044 201.213217 
L 111.355614 201.213217 
L 109.724185 201.213217 
L 108.092755 201.213217 
L 106.461325 201.213217 
L 104.829895 201.213217 
L 103.198465 201.213217 
L 101.567035 201.213217 
L 99.935605 201.213217 
L 98.304175 201.213217 
L 96.672746 201.213217 
L 95.041316 201.213217 
L 93.409886 201.213217 
L 91.778456 201.213217 
L 90.147026 201.213217 
L 88.515596 201.213217 
L 86.884166 201.213217 
L 85.252736 201.213217 
L 83.621307 201.213217 
L 81.989877 201.213217 
L 80.358447 201.213217 
L 78.727017 201.213217 
L 77.095587 201.213217 
L 75.464157 201.213217 
L 73.832727 201.213217 
z
" style="fill:#1f77b4;fill-opacity:0.1;"/>
   </g>
   <g id="matplotlib.axis_1">
    <g id="xtick_1">
     <g id="line2d_1">
      <defs>
       <path d="M 0 0 
L 0 3.5 
" id="m074e35a72b" style="stroke:#000000;stroke-width:0.8;"/>
      </defs>
      <g>
       <use style="stroke:#000000;stroke-width:0.8;" x="73.832727" xlink:href="#m074e35a72b" y="307.584"/>
      </g>
     </g>
     <g id="text_1">
      <!-- 0 -->
      <defs>
       <path d="M 31.78125 66.40625 
Q 24.171875 66.40625 20.328125 58.90625 
Q 16.5 51.421875 16.5 36.375 
Q 16.5 21.390625 20.328125 13.890625 
Q 24.171875 6.390625 31.78125 6.390625 
Q 39.453125 6.390625 43.28125 13.890625 
Q 47.125 21.390625 47.125 36.375 
Q 47.125 51.421875 43.28125 58.90625 
Q 39.453125 66.40625 31.78125 66.40625 
z
M 31.78125 74.21875 
Q 44.046875 74.21875 50.515625 64.515625 
Q 56.984375 54.828125 56.984375 36.375 
Q 56.984375 17.96875 50.515625 8.265625 
Q 44.046875 -1.421875 31.78125 -1.421875 
Q 19.53125 -1.421875 13.0625 8.265625 
Q 6.59375 17.96875 6.59375 36.375 
Q 6.59375 54.828125 13.0625 64.515625 
Q 19.53125 74.21875 31.78125 74.21875 
z
" id="DejaVuSans-48"/>
      </defs>
      <g transform="translate(70.651477 322.182437)scale(0.1 -0.1)">
       <use xlink:href="#DejaVuSans-48"/>
      </g>
     </g>
    </g>
    <g id="xtick_2">
     <g id="line2d_2">
      <g>
       <use style="stroke:#000000;stroke-width:0.8;" x="114.618474" xlink:href="#m074e35a72b" y="307.584"/>
      </g>
     </g>
     <g id="text_2">
      <!-- 25 -->
      <defs>
       <path d="M 19.1875 8.296875 
L 53.609375 8.296875 
L 53.609375 0 
L 7.328125 0 
L 7.328125 8.296875 
Q 12.9375 14.109375 22.625 23.890625 
Q 32.328125 33.6875 34.8125 36.53125 
Q 39.546875 41.84375 41.421875 45.53125 
Q 43.3125 49.21875 43.3125 52.78125 
Q 43.3125 58.59375 39.234375 62.25 
Q 35.15625 65.921875 28.609375 65.921875 
Q 23.96875 65.921875 18.8125 64.3125 
Q 13.671875 62.703125 7.8125 59.421875 
L 7.8125 69.390625 
Q 13.765625 71.78125 18.9375 73 
Q 24.125 74.21875 28.421875 74.21875 
Q 39.75 74.21875 46.484375 68.546875 
Q 53.21875 62.890625 53.21875 53.421875 
Q 53.21875 48.921875 51.53125 44.890625 
Q 49.859375 40.875 45.40625 35.40625 
Q 44.1875 33.984375 37.640625 27.21875 
Q 31.109375 20.453125 19.1875 8.296875 
z
" id="DejaVuSans-50"/>
       <path d="M 10.796875 72.90625 
L 49.515625 72.90625 
L 49.515625 64.59375 
L 19.828125 64.59375 
L 19.828125 46.734375 
Q 21.96875 47.46875 24.109375 47.828125 
Q 26.265625 48.1875 28.421875 48.1875 
Q 40.625 48.1875 47.75 41.5 
Q 54.890625 34.8125 54.890625 23.390625 
Q 54.890625 11.625 47.5625 5.09375 
Q 40.234375 -1.421875 26.90625 -1.421875 
Q 22.3125 -1.421875 17.546875 -0.640625 
Q 12.796875 0.140625 7.71875 1.703125 
L 7.71875 11.625 
Q 12.109375 9.234375 16.796875 8.0625 
Q 21.484375 6.890625 26.703125 6.890625 
Q 35.15625 6.890625 40.078125 11.328125 
Q 45.015625 15.765625 45.015625 23.390625 
Q 45.015625 31 40.078125 35.4375 
Q 35.15625 39.890625 26.703125 39.890625 
Q 22.75 39.890625 18.8125 39.015625 
Q 14.890625 38.140625 10.796875 36.28125 
z
" id="DejaVuSans-53"/>
      </defs>
      <g transform="translate(108.255974 322.182437)scale(0.1 -0.1)">
       <use xlink:href="#DejaVuSans-50"/>
       <use x="63.623047" xlink:href="#DejaVuSans-53"/>
      </g>
     </g>
    </g>
    <g id="xtick_3">
     <g id="line2d_3">
      <g>
       <use style="stroke:#000000;stroke-width:0.8;" x="155.404221" xlink:href="#m074e35a72b" y="307.584"/>
      </g>
     </g>
     <g id="text_3">
      <!-- 50 -->
      <g transform="translate(149.041721 322.182437)scale(0.1 -0.1)">
       <use xlink:href="#DejaVuSans-53"/>
       <use x="63.623047" xlink:href="#DejaVuSans-48"/>
      </g>
     </g>
    </g>
    <g id="xtick_4">
     <g id="line2d_4">
      <g>
       <use style="stroke:#000000;stroke-width:0.8;" x="196.189968" xlink:href="#m074e35a72b" y="307.584"/>
      </g>
     </g>
     <g id="text_4">
      <!-- 75 -->
      <defs>
       <path d="M 8.203125 72.90625 
L 55.078125 72.90625 
L 55.078125 68.703125 
L 28.609375 0 
L 18.3125 0 
L 43.21875 64.59375 
L 8.203125 64.59375 
z
" id="DejaVuSans-55"/>
      </defs>
      <g transform="translate(189.827468 322.182437)scale(0.1 -0.1)">
       <use xlink:href="#DejaVuSans-55"/>
       <use x="63.623047" xlink:href="#DejaVuSans-53"/>
      </g>
     </g>
    </g>
    <g id="xtick_5">
     <g id="line2d_5">
      <g>
       <use style="stroke:#000000;stroke-width:0.8;" x="236.975715" xlink:href="#m074e35a72b" y="307.584"/>
      </g>
     </g>
     <g id="text_5">
      <!-- 100 -->
      <defs>
       <path d="M 12.40625 8.296875 
L 28.515625 8.296875 
L 28.515625 63.921875 
L 10.984375 60.40625 
L 10.984375 69.390625 
L 28.421875 72.90625 
L 38.28125 72.90625 
L 38.28125 8.296875 
L 54.390625 8.296875 
L 54.390625 0 
L 12.40625 0 
z
" id="DejaVuSans-49"/>
      </defs>
      <g transform="translate(227.431965 322.182437)scale(0.1 -0.1)">
       <use xlink:href="#DejaVuSans-49"/>
       <use x="63.623047" xlink:href="#DejaVuSans-48"/>
       <use x="127.246094" xlink:href="#DejaVuSans-48"/>
      </g>
     </g>
    </g>
    <g id="xtick_6">
     <g id="line2d_6">
      <g>
       <use style="stroke:#000000;stroke-width:0.8;" x="277.761462" xlink:href="#m074e35a72b" y="307.584"/>
      </g>
     </g>
     <g id="text_6">
      <!-- 125 -->
      <g transform="translate(268.217712 322.182437)scale(0.1 -0.1)">
       <use xlink:href="#DejaVuSans-49"/>
       <use x="63.623047" xlink:href="#DejaVuSans-50"/>
       <use x="127.246094" xlink:href="#DejaVuSans-53"/>
      </g>
     </g>
    </g>
    <g id="xtick_7">
     <g id="line2d_7">
      <g>
       <use style="stroke:#000000;stroke-width:0.8;" x="318.547209" xlink:href="#m074e35a72b" y="307.584"/>
      </g>
     </g>
     <g id="text_7">
      <!-- 150 -->
      <g transform="translate(309.003459 322.182437)scale(0.1 -0.1)">
       <use xlink:href="#DejaVuSans-49"/>
       <use x="63.623047" xlink:href="#DejaVuSans-53"/>
       <use x="127.246094" xlink:href="#DejaVuSans-48"/>
      </g>
     </g>
    </g>
    <g id="xtick_8">
     <g id="line2d_8">
      <g>
       <use style="stroke:#000000;stroke-width:0.8;" x="359.332956" xlink:href="#m074e35a72b" y="307.584"/>
      </g>
     </g>
     <g id="text_8">
      <!-- 175 -->
      <g transform="translate(349.789206 322.182437)scale(0.1 -0.1)">
       <use xlink:href="#DejaVuSans-49"/>
       <use x="63.623047" xlink:href="#DejaVuSans-55"/>
       <use x="127.246094" xlink:href="#DejaVuSans-53"/>
      </g>
     </g>
    </g>
    <g id="xtick_9">
     <g id="line2d_9">
      <g>
       <use style="stroke:#000000;stroke-width:0.8;" x="400.118703" xlink:href="#m074e35a72b" y="307.584"/>
      </g>
     </g>
     <g id="text_9">
      <!-- 200 -->
      <g transform="translate(390.574953 322.182437)scale(0.1 -0.1)">
       <use xlink:href="#DejaVuSans-50"/>
       <use x="63.623047" xlink:href="#DejaVuSans-48"/>
       <use x="127.246094" xlink:href="#DejaVuSans-48"/>
      </g>
     </g>
    </g>
   </g>
   <g id="matplotlib.axis_2">
    <g id="ytick_1">
     <g id="line2d_10">
      <defs>
       <path d="M 0 0 
L -3.5 0 
" id="m7970b7447f" style="stroke:#000000;stroke-width:0.8;"/>
      </defs>
      <g>
       <use style="stroke:#000000;stroke-width:0.8;" x="57.6" xlink:href="#m7970b7447f" y="279.126261"/>
      </g>
     </g>
     <g id="text_10">
      <!-- −0.4 -->
      <defs>
       <path d="M 10.59375 35.5 
L 73.1875 35.5 
L 73.1875 27.203125 
L 10.59375 27.203125 
z
" id="DejaVuSans-8722"/>
       <path d="M 10.6875 12.40625 
L 21 12.40625 
L 21 0 
L 10.6875 0 
z
" id="DejaVuSans-46"/>
       <path d="M 37.796875 64.3125 
L 12.890625 25.390625 
L 37.796875 25.390625 
z
M 35.203125 72.90625 
L 47.609375 72.90625 
L 47.609375 25.390625 
L 58.015625 25.390625 
L 58.015625 17.1875 
L 47.609375 17.1875 
L 47.609375 0 
L 37.796875 0 
L 37.796875 17.1875 
L 4.890625 17.1875 
L 4.890625 26.703125 
z
" id="DejaVuSans-52"/>
      </defs>
      <g transform="translate(26.317187 282.92548)scale(0.1 -0.1)">
       <use xlink:href="#DejaVuSans-8722"/>
       <use x="83.789062" xlink:href="#DejaVuSans-48"/>
       <use x="147.412109" xlink:href="#DejaVuSans-46"/>
       <use x="179.199219" xlink:href="#DejaVuSans-52"/>
      </g>
     </g>
    </g>
    <g id="ytick_2">
     <g id="line2d_11">
      <g>
       <use style="stroke:#000000;stroke-width:0.8;" x="57.6" xlink:href="#m7970b7447f" y="240.169739"/>
      </g>
     </g>
     <g id="text_11">
      <!-- −0.2 -->
      <g transform="translate(26.317187 243.968958)scale(0.1 -0.1)">
       <use xlink:href="#DejaVuSans-8722"/>
       <use x="83.789062" xlink:href="#DejaVuSans-48"/>
       <use x="147.412109" xlink:href="#DejaVuSans-46"/>
       <use x="179.199219" xlink:href="#DejaVuSans-50"/>
      </g>
     </g>
    </g>
    <g id="ytick_3">
     <g id="line2d_12">
      <g>
       <use style="stroke:#000000;stroke-width:0.8;" x="57.6" xlink:href="#m7970b7447f" y="201.213217"/>
      </g>
     </g>
     <g id="text_12">
      <!-- 0.0 -->
      <g transform="translate(34.696875 205.012436)scale(0.1 -0.1)">
       <use xlink:href="#DejaVuSans-48"/>
       <use x="63.623047" xlink:href="#DejaVuSans-46"/>
       <use x="95.410156" xlink:href="#DejaVuSans-48"/>
      </g>
     </g>
    </g>
    <g id="ytick_4">
     <g id="line2d_13">
      <g>
       <use style="stroke:#000000;stroke-width:0.8;" x="57.6" xlink:href="#m7970b7447f" y="162.256696"/>
      </g>
     </g>
     <g id="text_13">
      <!-- 0.2 -->
      <g transform="translate(34.696875 166.055914)scale(0.1 -0.1)">
       <use xlink:href="#DejaVuSans-48"/>
       <use x="63.623047" xlink:href="#DejaVuSans-46"/>
       <use x="95.410156" xlink:href="#DejaVuSans-50"/>
      </g>
     </g>
    </g>
    <g id="ytick_5">
     <g id="line2d_14">
      <g>
       <use style="stroke:#000000;stroke-width:0.8;" x="57.6" xlink:href="#m7970b7447f" y="123.300174"/>
      </g>
     </g>
     <g id="text_14">
      <!-- 0.4 -->
      <g transform="translate(34.696875 127.099393)scale(0.1 -0.1)">
       <use xlink:href="#DejaVuSans-48"/>
       <use x="63.623047" xlink:href="#DejaVuSans-46"/>
       <use x="95.410156" xlink:href="#DejaVuSans-52"/>
      </g>
     </g>
    </g>
    <g id="ytick_6">
     <g id="line2d_15">
      <g>
       <use style="stroke:#000000;stroke-width:0.8;" x="57.6" xlink:href="#m7970b7447f" y="84.343652"/>
      </g>
     </g>
     <g id="text_15">
      <!-- 0.6 -->
      <defs>
       <path d="M 33.015625 40.375 
Q 26.375 40.375 22.484375 35.828125 
Q 18.609375 31.296875 18.609375 23.390625 
Q 18.609375 15.53125 22.484375 10.953125 
Q 26.375 6.390625 33.015625 6.390625 
Q 39.65625 6.390625 43.53125 10.953125 
Q 47.40625 15.53125 47.40625 23.390625 
Q 47.40625 31.296875 43.53125 35.828125 
Q 39.65625 40.375 33.015625 40.375 
z
M 52.59375 71.296875 
L 52.59375 62.3125 
Q 48.875 64.0625 45.09375 64.984375 
Q 41.3125 65.921875 37.59375 65.921875 
Q 27.828125 65.921875 22.671875 59.328125 
Q 17.53125 52.734375 16.796875 39.40625 
Q 19.671875 43.65625 24.015625 45.921875 
Q 28.375 48.1875 33.59375 48.1875 
Q 44.578125 48.1875 50.953125 41.515625 
Q 57.328125 34.859375 57.328125 23.390625 
Q 57.328125 12.15625 50.6875 5.359375 
Q 44.046875 -1.421875 33.015625 -1.421875 
Q 20.359375 -1.421875 13.671875 8.265625 
Q 6.984375 17.96875 6.984375 36.375 
Q 6.984375 53.65625 15.1875 63.9375 
Q 23.390625 74.21875 37.203125 74.21875 
Q 40.921875 74.21875 44.703125 73.484375 
Q 48.484375 72.75 52.59375 71.296875 
z
" id="DejaVuSans-54"/>
      </defs>
      <g transform="translate(34.696875 88.142871)scale(0.1 -0.1)">
       <use xlink:href="#DejaVuSans-48"/>
       <use x="63.623047" xlink:href="#DejaVuSans-46"/>
       <use x="95.410156" xlink:href="#DejaVuSans-54"/>
      </g>
     </g>
    </g>
    <g id="ytick_7">
     <g id="line2d_16">
      <g>
       <use style="stroke:#000000;stroke-width:0.8;" x="57.6" xlink:href="#m7970b7447f" y="45.38713"/>
      </g>
     </g>
     <g id="text_16">
      <!-- 0.8 -->
      <defs>
       <path d="M 31.78125 34.625 
Q 24.75 34.625 20.71875 30.859375 
Q 16.703125 27.09375 16.703125 20.515625 
Q 16.703125 13.921875 20.71875 10.15625 
Q 24.75 6.390625 31.78125 6.390625 
Q 38.8125 6.390625 42.859375 10.171875 
Q 46.921875 13.96875 46.921875 20.515625 
Q 46.921875 27.09375 42.890625 30.859375 
Q 38.875 34.625 31.78125 34.625 
z
M 21.921875 38.8125 
Q 15.578125 40.375 12.03125 44.71875 
Q 8.5 49.078125 8.5 55.328125 
Q 8.5 64.0625 14.71875 69.140625 
Q 20.953125 74.21875 31.78125 74.21875 
Q 42.671875 74.21875 48.875 69.140625 
Q 55.078125 64.0625 55.078125 55.328125 
Q 55.078125 49.078125 51.53125 44.71875 
Q 48 40.375 41.703125 38.8125 
Q 48.828125 37.15625 52.796875 32.3125 
Q 56.78125 27.484375 56.78125 20.515625 
Q 56.78125 9.90625 50.3125 4.234375 
Q 43.84375 -1.421875 31.78125 -1.421875 
Q 19.734375 -1.421875 13.25 4.234375 
Q 6.78125 9.90625 6.78125 20.515625 
Q 6.78125 27.484375 10.78125 32.3125 
Q 14.796875 37.15625 21.921875 38.8125 
z
M 18.3125 54.390625 
Q 18.3125 48.734375 21.84375 45.5625 
Q 25.390625 42.390625 31.78125 42.390625 
Q 38.140625 42.390625 41.71875 45.5625 
Q 45.3125 48.734375 45.3125 54.390625 
Q 45.3125 60.0625 41.71875 63.234375 
Q 38.140625 66.40625 31.78125 66.40625 
Q 25.390625 66.40625 21.84375 63.234375 
Q 18.3125 60.0625 18.3125 54.390625 
z
" id="DejaVuSans-56"/>
      </defs>
      <g transform="translate(34.696875 49.186349)scale(0.1 -0.1)">
       <use xlink:href="#DejaVuSans-48"/>
       <use x="63.623047" xlink:href="#DejaVuSans-46"/>
       <use x="95.410156" xlink:href="#DejaVuSans-56"/>
      </g>
     </g>
    </g>
   </g>
   <g id="line2d_17">
    <path clip-path="url(#pa1e826da2e)" d="M 73.832727 201.213217 
L 207.609977 201.213217 
L 209.241407 163.879884 
L 210.872837 172.921043 
L 212.504267 153.296696 
L 214.135697 173.943652 
L 215.767127 181.734957 
L 217.398556 180.955826 
L 219.029986 161.86713 
L 220.661416 162.043362 
L 222.292846 152.942545 
L 223.924276 149.328 
L 225.555706 179.202783 
L 227.187136 143.94713 
L 228.818566 201.213217 
L 230.449995 163.269565 
L 232.081425 163.481043 
L 233.712855 181.734957 
L 235.344285 181.734957 
L 236.975715 190.305391 
L 238.607145 176.281043 
L 240.238575 169.416904 
L 241.870005 168.033007 
L 243.501434 181.734957 
L 245.132864 181.734957 
L 246.764294 178.22887 
L 248.395724 151.933217 
L 250.027154 162.256696 
L 251.658584 201.213217 
L 253.290014 201.213217 
L 254.921444 182.319304 
L 256.552873 165.178435 
L 258.184303 181.734957 
L 259.815733 168.823117 
L 261.447163 162.354087 
L 263.078593 181.734957 
L 266.341453 151.738435 
L 267.972883 157.192348 
L 269.604312 182.124522 
L 271.235742 200.044522 
L 272.867172 201.213217 
L 274.498602 170.82713 
L 276.130032 178.034087 
L 277.761462 163.814957 
L 279.392892 177.839304 
L 281.024322 151.154087 
L 282.655751 163.035826 
L 284.287181 171.411478 
L 285.918611 181.734957 
L 287.550041 187.578435 
L 289.181471 166.931478 
L 290.812901 170.048 
L 292.444331 150.569739 
L 294.075761 160.114087 
L 295.70719 163.083393 
L 297.33862 163.425391 
L 298.97005 163.454057 
L 300.60148 164.594087 
L 302.23291 176.281043 
L 303.86434 181.734957 
L 305.49577 166.736696 
L 307.1272 162.256696 
L 308.75863 170.242783 
L 310.390059 143.94713 
L 312.021489 181.734957 
L 313.652919 151.923478 
L 315.284349 142.778435 
L 316.915779 161.088 
L 318.547209 154.270609 
L 320.178639 162.256696 
L 321.810069 180.761043 
L 323.441498 182.319304 
L 325.072928 181.734957 
L 326.704358 162.256696 
L 328.335788 162.256696 
L 329.967218 181.734957 
L 331.598648 162.256696 
L 333.230078 150.180174 
L 334.861508 169.26887 
L 336.492937 147.842783 
L 338.124367 165.762783 
L 339.755797 181.734957 
L 341.387227 170.167678 
L 343.018657 163.620174 
L 344.650087 181.734957 
L 346.281517 162.256696 
L 347.912947 162.256696 
L 349.544376 162.646261 
L 351.175806 147.063652 
L 352.807236 149.011478 
L 354.438666 163.425391 
L 356.070096 142.778435 
L 357.701526 166.63507 
L 359.332956 161.088 
L 360.964386 119.98887 
L 362.595815 172.557699 
L 364.227245 164.983652 
L 365.858675 181.734957 
L 367.490105 201.213217 
L 369.121535 181.734957 
L 370.752965 159.919304 
L 372.384395 162.256696 
L 374.015825 181.734957 
L 375.647254 162.297275 
L 377.278684 182.124522 
L 378.910114 166.736696 
L 380.541544 201.213217 
L 382.172974 194.006261 
L 383.804404 165.762783 
L 385.435834 162.256696 
L 387.067264 163.425391 
L 388.698693 161.672348 
L 390.330123 159.140174 
L 391.961553 143.94713 
L 393.592983 160.847386 
L 395.224413 180.464232 
L 396.855843 143.305691 
L 398.487273 181.734957 
L 398.487273 181.734957 
" style="fill:none;stroke:#1f77b4;stroke-linecap:square;stroke-width:0.25;"/>
   </g>
   <g id="line2d_18">
    <path clip-path="url(#pa1e826da2e)" d="M 73.832727 201.213217 
L 199.452828 201.213217 
L 201.084258 201.933913 
L 202.715688 200.102567 
L 204.347117 197.986412 
L 205.978547 198.152846 
L 207.609977 192.809155 
L 209.241407 168.719295 
L 210.872837 175.929786 
L 212.504267 160.437782 
L 214.135697 174.465896 
L 215.767127 177.768817 
L 217.398556 175.829942 
L 219.029986 160.812473 
L 220.661416 161.146173 
L 222.292846 158.561295 
L 223.924276 153.245987 
L 225.555706 176.156151 
L 227.187136 146.727519 
L 228.818566 194.053244 
L 230.449995 167.425861 
L 232.081425 166.731229 
L 233.712855 178.026875 
L 235.344285 174.3565 
L 236.975715 181.645607 
L 238.607145 172.794156 
L 240.238575 173.196453 
L 241.870005 170.666354 
L 243.501434 177.294324 
L 245.132864 178.501899 
L 246.764294 173.450201 
L 248.395724 151.327462 
L 250.027154 168.949065 
L 251.658584 188.48952 
L 253.290014 191.77974 
L 254.921444 178.787289 
L 256.552873 167.462127 
L 258.184303 177.496619 
L 259.815733 168.36886 
L 261.447163 154.416415 
L 263.078593 176.692427 
L 264.710023 168.775909 
L 266.341453 154.79546 
L 267.972883 161.713989 
L 269.604312 182.072898 
L 271.235742 190.720873 
L 272.867172 187.156089 
L 274.498602 169.358275 
L 276.130032 175.261135 
L 277.761462 163.352041 
L 279.392892 176.70266 
L 281.024322 155.242399 
L 282.655751 164.507746 
L 284.287181 166.47573 
L 285.918611 173.649957 
L 287.550041 175.956904 
L 289.181471 165.727549 
L 290.812901 164.281705 
L 292.444331 147.569785 
L 294.075761 154.980296 
L 295.70719 157.471575 
L 297.33862 155.445567 
L 298.97005 161.334226 
L 300.60148 160.918782 
L 302.23291 160.000841 
L 303.86434 172.783658 
L 305.49577 159.671523 
L 307.1272 161.480492 
L 308.75863 157.913301 
L 310.390059 146.748093 
L 312.021489 167.115331 
L 313.652919 151.901778 
L 315.284349 142.50247 
L 316.915779 159.660478 
L 318.547209 158.266282 
L 320.178639 157.643127 
L 321.810069 169.632922 
L 323.441498 180.345911 
L 325.072928 177.376054 
L 326.704358 162.135957 
L 328.335788 160.383447 
L 329.967218 174.916977 
L 331.598648 158.820332 
L 333.230078 150.31835 
L 334.861508 171.535363 
L 336.492937 152.639177 
L 338.124367 172.866045 
L 339.755797 180.01184 
L 341.387227 171.763529 
L 343.018657 158.215817 
L 344.650087 175.92856 
L 346.281517 162.552415 
L 347.912947 162.031815 
L 349.544376 158.886768 
L 351.175806 148.644591 
L 352.807236 154.87685 
L 354.438666 166.088296 
L 356.070096 145.445834 
L 357.701526 169.877084 
L 359.332956 160.827544 
L 360.964386 121.371343 
L 362.595815 171.888971 
L 364.227245 169.639015 
L 365.858675 177.583525 
L 367.490105 191.373112 
L 369.121535 177.102175 
L 370.752965 159.800425 
L 372.384395 165.998604 
L 374.015825 177.359756 
L 375.647254 166.332088 
L 377.278684 182.298425 
L 378.910114 166.562965 
L 380.541544 187.807934 
L 382.172974 180.728645 
L 383.804404 166.883993 
L 387.067264 164.886029 
L 388.698693 160.942439 
L 390.330123 151.980808 
L 391.961553 140.942019 
L 393.592983 156.996267 
L 395.224413 170.151378 
L 396.855843 150.194362 
L 398.487273 181.40343 
L 398.487273 181.40343 
" style="fill:none;stroke:#2ca02c;stroke-linecap:square;stroke-width:0.75;"/>
   </g>
   <g id="patch_3">
    <path d="M 57.6 307.584 
L 57.6 41.472 
" style="fill:none;stroke:#000000;stroke-linecap:square;stroke-linejoin:miter;stroke-width:0.8;"/>
   </g>
   <g id="patch_4">
    <path d="M 414.72 307.584 
L 414.72 41.472 
" style="fill:none;stroke:#000000;stroke-linecap:square;stroke-linejoin:miter;stroke-width:0.8;"/>
   </g>
   <g id="patch_5">
    <path d="M 57.6 307.584 
L 414.72 307.584 
" style="fill:none;stroke:#000000;stroke-linecap:square;stroke-linejoin:miter;stroke-width:0.8;"/>
   </g>
   <g id="patch_6">
    <path d="M 57.6 41.472 
L 414.72 41.472 
" style="fill:none;stroke:#000000;stroke-linecap:square;stroke-linejoin:miter;stroke-width:0.8;"/>
   </g>
   <g id="legend_1">
    <g id="patch_7">
     <path d="M 338.234063 78.82825 
L 407.72 78.82825 
Q 409.72 78.82825 409.72 76.82825 
L 409.72 48.472 
Q 409.72 46.472 407.72 46.472 
L 338.234063 46.472 
Q 336.234063 46.472 336.234063 48.472 
L 336.234063 76.82825 
Q 336.234063 78.82825 338.234063 78.82825 
z
" style="fill:#ffffff;opacity:0.8;stroke:#cccccc;stroke-linejoin:miter;"/>
    </g>
    <g id="line2d_19">
     <path d="M 340.234063 54.570437 
L 360.234063 54.570437 
" style="fill:none;stroke:#1f77b4;stroke-linecap:square;stroke-width:0.25;"/>
    </g>
    <g id="line2d_20"/>
    <g id="text_17">
     <!-- median -->
     <defs>
      <path d="M 52 44.1875 
Q 55.375 50.25 60.0625 53.125 
Q 64.75 56 71.09375 56 
Q 79.640625 56 84.28125 50.015625 
Q 88.921875 44.046875 88.921875 33.015625 
L 88.921875 0 
L 79.890625 0 
L 79.890625 32.71875 
Q 79.890625 40.578125 77.09375 44.375 
Q 74.3125 48.1875 68.609375 48.1875 
Q 61.625 48.1875 57.5625 43.546875 
Q 53.515625 38.921875 53.515625 30.90625 
L 53.515625 0 
L 44.484375 0 
L 44.484375 32.71875 
Q 44.484375 40.625 41.703125 44.40625 
Q 38.921875 48.1875 33.109375 48.1875 
Q 26.21875 48.1875 22.15625 43.53125 
Q 18.109375 38.875 18.109375 30.90625 
L 18.109375 0 
L 9.078125 0 
L 9.078125 54.6875 
L 18.109375 54.6875 
L 18.109375 46.1875 
Q 21.1875 51.21875 25.484375 53.609375 
Q 29.78125 56 35.6875 56 
Q 41.65625 56 45.828125 52.96875 
Q 50 49.953125 52 44.1875 
z
" id="DejaVuSans-109"/>
      <path d="M 56.203125 29.59375 
L 56.203125 25.203125 
L 14.890625 25.203125 
Q 15.484375 15.921875 20.484375 11.0625 
Q 25.484375 6.203125 34.421875 6.203125 
Q 39.59375 6.203125 44.453125 7.46875 
Q 49.3125 8.734375 54.109375 11.28125 
L 54.109375 2.78125 
Q 49.265625 0.734375 44.1875 -0.34375 
Q 39.109375 -1.421875 33.890625 -1.421875 
Q 20.796875 -1.421875 13.15625 6.1875 
Q 5.515625 13.8125 5.515625 26.8125 
Q 5.515625 40.234375 12.765625 48.109375 
Q 20.015625 56 32.328125 56 
Q 43.359375 56 49.78125 48.890625 
Q 56.203125 41.796875 56.203125 29.59375 
z
M 47.21875 32.234375 
Q 47.125 39.59375 43.09375 43.984375 
Q 39.0625 48.390625 32.421875 48.390625 
Q 24.90625 48.390625 20.390625 44.140625 
Q 15.875 39.890625 15.1875 32.171875 
z
" id="DejaVuSans-101"/>
      <path d="M 45.40625 46.390625 
L 45.40625 75.984375 
L 54.390625 75.984375 
L 54.390625 0 
L 45.40625 0 
L 45.40625 8.203125 
Q 42.578125 3.328125 38.25 0.953125 
Q 33.9375 -1.421875 27.875 -1.421875 
Q 17.96875 -1.421875 11.734375 6.484375 
Q 5.515625 14.40625 5.515625 27.296875 
Q 5.515625 40.1875 11.734375 48.09375 
Q 17.96875 56 27.875 56 
Q 33.9375 56 38.25 53.625 
Q 42.578125 51.265625 45.40625 46.390625 
z
M 14.796875 27.296875 
Q 14.796875 17.390625 18.875 11.75 
Q 22.953125 6.109375 30.078125 6.109375 
Q 37.203125 6.109375 41.296875 11.75 
Q 45.40625 17.390625 45.40625 27.296875 
Q 45.40625 37.203125 41.296875 42.84375 
Q 37.203125 48.484375 30.078125 48.484375 
Q 22.953125 48.484375 18.875 42.84375 
Q 14.796875 37.203125 14.796875 27.296875 
z
" id="DejaVuSans-100"/>
      <path d="M 9.421875 54.6875 
L 18.40625 54.6875 
L 18.40625 0 
L 9.421875 0 
z
M 9.421875 75.984375 
L 18.40625 75.984375 
L 18.40625 64.59375 
L 9.421875 64.59375 
z
" id="DejaVuSans-105"/>
      <path d="M 34.28125 27.484375 
Q 23.390625 27.484375 19.1875 25 
Q 14.984375 22.515625 14.984375 16.5 
Q 14.984375 11.71875 18.140625 8.90625 
Q 21.296875 6.109375 26.703125 6.109375 
Q 34.1875 6.109375 38.703125 11.40625 
Q 43.21875 16.703125 43.21875 25.484375 
L 43.21875 27.484375 
z
M 52.203125 31.203125 
L 52.203125 0 
L 43.21875 0 
L 43.21875 8.296875 
Q 40.140625 3.328125 35.546875 0.953125 
Q 30.953125 -1.421875 24.3125 -1.421875 
Q 15.921875 -1.421875 10.953125 3.296875 
Q 6 8.015625 6 15.921875 
Q 6 25.140625 12.171875 29.828125 
Q 18.359375 34.515625 30.609375 34.515625 
L 43.21875 34.515625 
L 43.21875 35.40625 
Q 43.21875 41.609375 39.140625 45 
Q 35.0625 48.390625 27.6875 48.390625 
Q 23 48.390625 18.546875 47.265625 
Q 14.109375 46.140625 10.015625 43.890625 
L 10.015625 52.203125 
Q 14.9375 54.109375 19.578125 55.046875 
Q 24.21875 56 28.609375 56 
Q 40.484375 56 46.34375 49.84375 
Q 52.203125 43.703125 52.203125 31.203125 
z
" id="DejaVuSans-97"/>
      <path d="M 54.890625 33.015625 
L 54.890625 0 
L 45.90625 0 
L 45.90625 32.71875 
Q 45.90625 40.484375 42.875 44.328125 
Q 39.84375 48.1875 33.796875 48.1875 
Q 26.515625 48.1875 22.3125 43.546875 
Q 18.109375 38.921875 18.109375 30.90625 
L 18.109375 0 
L 9.078125 0 
L 9.078125 54.6875 
L 18.109375 54.6875 
L 18.109375 46.1875 
Q 21.34375 51.125 25.703125 53.5625 
Q 30.078125 56 35.796875 56 
Q 45.21875 56 50.046875 50.171875 
Q 54.890625 44.34375 54.890625 33.015625 
z
" id="DejaVuSans-110"/>
     </defs>
     <g transform="translate(368.234063 58.070437)scale(0.1 -0.1)">
      <use xlink:href="#DejaVuSans-109"/>
      <use x="97.412109" xlink:href="#DejaVuSans-101"/>
      <use x="158.935547" xlink:href="#DejaVuSans-100"/>
      <use x="222.412109" xlink:href="#DejaVuSans-105"/>
      <use x="250.195312" xlink:href="#DejaVuSans-97"/>
      <use x="311.474609" xlink:href="#DejaVuSans-110"/>
     </g>
    </g>
    <g id="line2d_21">
     <path d="M 340.234063 69.248562 
L 360.234063 69.248562 
" style="fill:none;stroke:#2ca02c;stroke-linecap:square;stroke-width:0.75;"/>
    </g>
    <g id="line2d_22"/>
    <g id="text_18">
     <!-- mean -->
     <g transform="translate(368.234063 72.748562)scale(0.1 -0.1)">
      <use xlink:href="#DejaVuSans-109"/>
      <use x="97.412109" xlink:href="#DejaVuSans-101"/>
      <use x="158.935547" xlink:href="#DejaVuSans-97"/>
      <use x="220.214844" xlink:href="#DejaVuSans-110"/>
     </g>
    </g>
   </g>
  </g>
  <g id="text_19">
   <!-- kappa.mean over generations -->
   <defs>
    <path d="M 9.078125 75.984375 
L 18.109375 75.984375 
L 18.109375 31.109375 
L 44.921875 54.6875 
L 56.390625 54.6875 
L 27.390625 29.109375 
L 57.625 0 
L 45.90625 0 
L 18.109375 26.703125 
L 18.109375 0 
L 9.078125 0 
z
" id="DejaVuSans-107"/>
    <path d="M 18.109375 8.203125 
L 18.109375 -20.796875 
L 9.078125 -20.796875 
L 9.078125 54.6875 
L 18.109375 54.6875 
L 18.109375 46.390625 
Q 20.953125 51.265625 25.265625 53.625 
Q 29.59375 56 35.59375 56 
Q 45.5625 56 51.78125 48.09375 
Q 58.015625 40.1875 58.015625 27.296875 
Q 58.015625 14.40625 51.78125 6.484375 
Q 45.5625 -1.421875 35.59375 -1.421875 
Q 29.59375 -1.421875 25.265625 0.953125 
Q 20.953125 3.328125 18.109375 8.203125 
z
M 48.6875 27.296875 
Q 48.6875 37.203125 44.609375 42.84375 
Q 40.53125 48.484375 33.40625 48.484375 
Q 26.265625 48.484375 22.1875 42.84375 
Q 18.109375 37.203125 18.109375 27.296875 
Q 18.109375 17.390625 22.1875 11.75 
Q 26.265625 6.109375 33.40625 6.109375 
Q 40.53125 6.109375 44.609375 11.75 
Q 48.6875 17.390625 48.6875 27.296875 
z
" id="DejaVuSans-112"/>
    <path id="DejaVuSans-32"/>
    <path d="M 30.609375 48.390625 
Q 23.390625 48.390625 19.1875 42.75 
Q 14.984375 37.109375 14.984375 27.296875 
Q 14.984375 17.484375 19.15625 11.84375 
Q 23.34375 6.203125 30.609375 6.203125 
Q 37.796875 6.203125 41.984375 11.859375 
Q 46.1875 17.53125 46.1875 27.296875 
Q 46.1875 37.015625 41.984375 42.703125 
Q 37.796875 48.390625 30.609375 48.390625 
z
M 30.609375 56 
Q 42.328125 56 49.015625 48.375 
Q 55.71875 40.765625 55.71875 27.296875 
Q 55.71875 13.875 49.015625 6.21875 
Q 42.328125 -1.421875 30.609375 -1.421875 
Q 18.84375 -1.421875 12.171875 6.21875 
Q 5.515625 13.875 5.515625 27.296875 
Q 5.515625 40.765625 12.171875 48.375 
Q 18.84375 56 30.609375 56 
z
" id="DejaVuSans-111"/>
    <path d="M 2.984375 54.6875 
L 12.5 54.6875 
L 29.59375 8.796875 
L 46.6875 54.6875 
L 56.203125 54.6875 
L 35.6875 0 
L 23.484375 0 
z
" id="DejaVuSans-118"/>
    <path d="M 41.109375 46.296875 
Q 39.59375 47.171875 37.8125 47.578125 
Q 36.03125 48 33.890625 48 
Q 26.265625 48 22.1875 43.046875 
Q 18.109375 38.09375 18.109375 28.8125 
L 18.109375 0 
L 9.078125 0 
L 9.078125 54.6875 
L 18.109375 54.6875 
L 18.109375 46.1875 
Q 20.953125 51.171875 25.484375 53.578125 
Q 30.03125 56 36.53125 56 
Q 37.453125 56 38.578125 55.875 
Q 39.703125 55.765625 41.0625 55.515625 
z
" id="DejaVuSans-114"/>
    <path d="M 45.40625 27.984375 
Q 45.40625 37.75 41.375 43.109375 
Q 37.359375 48.484375 30.078125 48.484375 
Q 22.859375 48.484375 18.828125 43.109375 
Q 14.796875 37.75 14.796875 27.984375 
Q 14.796875 18.265625 18.828125 12.890625 
Q 22.859375 7.515625 30.078125 7.515625 
Q 37.359375 7.515625 41.375 12.890625 
Q 45.40625 18.265625 45.40625 27.984375 
z
M 54.390625 6.78125 
Q 54.390625 -7.171875 48.1875 -13.984375 
Q 42 -20.796875 29.203125 -20.796875 
Q 24.46875 -20.796875 20.265625 -20.09375 
Q 16.0625 -19.390625 12.109375 -17.921875 
L 12.109375 -9.1875 
Q 16.0625 -11.328125 19.921875 -12.34375 
Q 23.78125 -13.375 27.78125 -13.375 
Q 36.625 -13.375 41.015625 -8.765625 
Q 45.40625 -4.15625 45.40625 5.171875 
L 45.40625 9.625 
Q 42.625 4.78125 38.28125 2.390625 
Q 33.9375 0 27.875 0 
Q 17.828125 0 11.671875 7.65625 
Q 5.515625 15.328125 5.515625 27.984375 
Q 5.515625 40.671875 11.671875 48.328125 
Q 17.828125 56 27.875 56 
Q 33.9375 56 38.28125 53.609375 
Q 42.625 51.21875 45.40625 46.390625 
L 45.40625 54.6875 
L 54.390625 54.6875 
z
" id="DejaVuSans-103"/>
    <path d="M 18.3125 70.21875 
L 18.3125 54.6875 
L 36.8125 54.6875 
L 36.8125 47.703125 
L 18.3125 47.703125 
L 18.3125 18.015625 
Q 18.3125 11.328125 20.140625 9.421875 
Q 21.96875 7.515625 27.59375 7.515625 
L 36.8125 7.515625 
L 36.8125 0 
L 27.59375 0 
Q 17.1875 0 13.234375 3.875 
Q 9.28125 7.765625 9.28125 18.015625 
L 9.28125 47.703125 
L 2.6875 47.703125 
L 2.6875 54.6875 
L 9.28125 54.6875 
L 9.28125 70.21875 
z
" id="DejaVuSans-116"/>
    <path d="M 44.28125 53.078125 
L 44.28125 44.578125 
Q 40.484375 46.53125 36.375 47.5 
Q 32.28125 48.484375 27.875 48.484375 
Q 21.1875 48.484375 17.84375 46.4375 
Q 14.5 44.390625 14.5 40.28125 
Q 14.5 37.15625 16.890625 35.375 
Q 19.28125 33.59375 26.515625 31.984375 
L 29.59375 31.296875 
Q 39.15625 29.25 43.1875 25.515625 
Q 47.21875 21.78125 47.21875 15.09375 
Q 47.21875 7.46875 41.1875 3.015625 
Q 35.15625 -1.421875 24.609375 -1.421875 
Q 20.21875 -1.421875 15.453125 -0.5625 
Q 10.6875 0.296875 5.421875 2 
L 5.421875 11.28125 
Q 10.40625 8.6875 15.234375 7.390625 
Q 20.0625 6.109375 24.8125 6.109375 
Q 31.15625 6.109375 34.5625 8.28125 
Q 37.984375 10.453125 37.984375 14.40625 
Q 37.984375 18.0625 35.515625 20.015625 
Q 33.0625 21.96875 24.703125 23.78125 
L 21.578125 24.515625 
Q 13.234375 26.265625 9.515625 29.90625 
Q 5.8125 33.546875 5.8125 39.890625 
Q 5.8125 47.609375 11.28125 51.796875 
Q 16.75 56 26.8125 56 
Q 31.78125 56 36.171875 55.265625 
Q 40.578125 54.546875 44.28125 53.078125 
z
" id="DejaVuSans-115"/>
   </defs>
   <g transform="translate(140.184375 16.030125)scale(0.12 -0.12)">
    <use xlink:href="#DejaVuSans-107"/>
    <use x="56.160156" xlink:href="#DejaVuSans-97"/>
    <use x="117.439453" xlink:href="#DejaVuSans-112"/>
    <use x="180.916016" xlink:href="#DejaVuSans-112"/>
    <use x="244.392578" xlink:href="#DejaVuSans-97"/>
    <use x="305.671875" xlink:href="#DejaVuSans-46"/>
    <use x="337.458984" xlink:href="#DejaVuSans-109"/>
    <use x="434.871094" xlink:href="#DejaVuSans-101"/>
    <use x="496.394531" xlink:href="#DejaVuSans-97"/>
    <use x="557.673828" xlink:href="#DejaVuSans-110"/>
    <use x="621.052734" xlink:href="#DejaVuSans-32"/>
    <use x="652.839844" xlink:href="#DejaVuSans-111"/>
    <use x="714.021484" xlink:href="#DejaVuSans-118"/>
    <use x="773.201172" xlink:href="#DejaVuSans-101"/>
    <use x="834.724609" xlink:href="#DejaVuSans-114"/>
    <use x="875.837891" xlink:href="#DejaVuSans-32"/>
    <use x="907.625" xlink:href="#DejaVuSans-103"/>
    <use x="971.101562" xlink:href="#DejaVuSans-101"/>
    <use x="1032.625" xlink:href="#DejaVuSans-110"/>
    <use x="1096.003906" xlink:href="#DejaVuSans-101"/>
    <use x="1157.527344" xlink:href="#DejaVuSans-114"/>
    <use x="1198.640625" xlink:href="#DejaVuSans-97"/>
    <use x="1259.919922" xlink:href="#DejaVuSans-116"/>
    <use x="1299.128906" xlink:href="#DejaVuSans-105"/>
    <use x="1326.912109" xlink:href="#DejaVuSans-111"/>
    <use x="1388.09375" xlink:href="#DejaVuSans-110"/>
    <use x="1451.472656" xlink:href="#DejaVuSans-115"/>
   </g>
  </g>
 </g>
 <defs>
  <clipPath id="pa1e826da2e">
   <rect height="266.112" width="357.12" x="57.6" y="41.472"/>
  </clipPath>
 </defs>
</svg>
