<?xml version="1.0" encoding="utf-8" standalone="no"?>
<!DOCTYPE svg PUBLIC "-//W3C//DTD SVG 1.1//EN"
  "http://www.w3.org/Graphics/SVG/1.1/DTD/svg11.dtd">
<!-- Created with matplotlib (https://matplotlib.org/) -->
<svg height="345.6pt" version="1.1" viewBox="0 0 460.8 345.6" width="460.8pt" xmlns="http://www.w3.org/2000/svg" xmlns:xlink="http://www.w3.org/1999/xlink">
 <defs>
  <style type="text/css">
*{stroke-linecap:butt;stroke-linejoin:round;}
  </style>
 </defs>
 <g id="figure_1">
  <g id="patch_1">
   <path d="M 0 345.6 
L 460.8 345.6 
L 460.8 0 
L 0 0 
z
" style="fill:#ffffff;"/>
  </g>
  <g id="axes_1">
   <g id="patch_2">
    <path clip-path="url(#p17e7abad4d)" d="M 88.589752 111.606597 
Q 150.068134 115.517684 211.546516 119.428771 
" style="fill:none;stroke:#000000;stroke-linecap:round;stroke-opacity:0.9;stroke-width:0.4;"/>
   </g>
   <g id="patch_3">
    <path clip-path="url(#p17e7abad4d)" d="M 88.589752 111.606597 
Q 171.244171 140.0507 253.89859 168.494802 
" style="fill:none;stroke:#000000;stroke-linecap:round;stroke-opacity:0.9;stroke-width:0.4;"/>
   </g>
   <g id="patch_4">
    <path clip-path="url(#p17e7abad4d)" d="M 88.589752 169.645195 
Q 234.392382 169.645195 380.195011 169.645195 
" style="fill:none;stroke:#000000;stroke-linecap:round;stroke-opacity:0.9;stroke-width:0.4;"/>
   </g>
   <g id="patch_5">
    <path clip-path="url(#p17e7abad4d)" d="M 88.589752 169.645195 
Q 234.450927 208.803874 380.312102 247.962553 
" style="fill:none;stroke:#000000;stroke-linecap:round;stroke-opacity:0.9;stroke-width:0.4;"/>
   </g>
   <g id="patch_6">
    <path clip-path="url(#p17e7abad4d)" d="M 88.589752 227.683792 
Q 109.028504 175.315394 129.467256 122.946995 
" style="fill:none;stroke:#000000;stroke-linecap:round;stroke-opacity:0.9;stroke-width:0.4;"/>
   </g>
   <g id="patch_7">
    <path clip-path="url(#p17e7abad4d)" d="M 88.589752 227.683792 
Q 150.068134 223.772706 211.546516 219.861619 
" style="fill:none;stroke:#000000;stroke-linecap:round;stroke-opacity:0.9;stroke-width:0.4;"/>
   </g>
   <g id="patch_8">
    <path clip-path="url(#p17e7abad4d)" d="M 88.589752 227.683792 
Q 234.559011 159.791628 380.528269 91.899464 
" style="fill:none;stroke:#000000;stroke-linecap:round;stroke-opacity:0.9;stroke-width:0.4;"/>
   </g>
   <g id="patch_9">
    <path clip-path="url(#p17e7abad4d)" d="M 88.589752 227.683792 
Q 234.396885 238.155376 380.204018 248.62696 
" style="fill:none;stroke:#000000;stroke-linecap:round;stroke-opacity:0.9;stroke-width:0.4;"/>
   </g>
   <g id="patch_10">
    <path clip-path="url(#p17e7abad4d)" d="M 88.589752 285.72239 
Q 108.720337 254.170047 128.850922 222.617705 
" style="fill:none;stroke:#000000;stroke-linecap:round;stroke-opacity:0.9;stroke-width:0.4;"/>
   </g>
   <g id="patch_11">
    <path clip-path="url(#p17e7abad4d)" d="M 88.589752 285.72239 
Q 150.763923 204.093038 212.938093 122.463686 
" style="fill:none;stroke:#000000;stroke-linecap:round;stroke-opacity:0.9;stroke-width:0.4;"/>
   </g>
   <g id="patch_12">
    <path clip-path="url(#p17e7abad4d)" d="M 88.589752 285.72239 
Q 234.513976 228.331165 380.438199 170.93994 
" style="fill:none;stroke:#000000;stroke-linecap:round;stroke-opacity:0.9;stroke-width:0.4;"/>
   </g>
   <g id="patch_13">
    <path clip-path="url(#p17e7abad4d)" d="M 130.75268 119.653468 
Q 151.147684 168.017351 171.542688 216.381235 
" style="fill:none;stroke:#000000;stroke-linecap:round;stroke-opacity:0.9;stroke-width:0.4;"/>
   </g>
   <g id="patch_14">
    <path clip-path="url(#p17e7abad4d)" d="M 130.75268 119.653468 
Q 171.148955 119.653468 211.545229 119.653468 
" style="fill:none;stroke:#000000;stroke-linecap:round;stroke-opacity:0.9;stroke-width:0.4;"/>
   </g>
   <g id="patch_15">
    <path clip-path="url(#p17e7abad4d)" d="M 130.75268 219.636922 
Q 151.147684 171.273038 171.542688 122.909155 
" style="fill:none;stroke:#000000;stroke-linecap:round;stroke-opacity:0.9;stroke-width:0.4;"/>
   </g>
   <g id="patch_16">
    <path clip-path="url(#p17e7abad4d)" d="M 130.75268 219.636922 
Q 255.487034 234.055759 380.221389 248.474596 
" style="fill:none;stroke:#000000;stroke-linecap:round;stroke-opacity:0.9;stroke-width:0.4;"/>
   </g>
   <g id="patch_17">
    <path clip-path="url(#p17e7abad4d)" d="M 172.915608 219.636922 
Q 192.230419 219.636922 211.545229 219.636922 
" style="fill:none;stroke:#000000;stroke-linecap:round;stroke-opacity:0.9;stroke-width:0.4;"/>
   </g>
   <g id="patch_18">
    <path clip-path="url(#p17e7abad4d)" d="M 172.915608 119.653468 
Q 192.230419 119.653468 211.545229 119.653468 
" style="fill:none;stroke:#000000;stroke-linecap:round;stroke-opacity:0.9;stroke-width:0.4;"/>
   </g>
   <g id="patch_19">
    <path clip-path="url(#p17e7abad4d)" d="M 172.915608 119.653468 
Q 255.546866 144.147019 338.178125 168.64057 
" style="fill:none;stroke:#000000;stroke-linecap:round;stroke-opacity:0.9;stroke-width:0.4;"/>
   </g>
   <g id="patch_20">
    <path clip-path="url(#p17e7abad4d)" d="M 215.078536 119.653468 
Q 297.709794 144.147019 380.341053 168.64057 
" style="fill:none;stroke:#000000;stroke-linecap:round;stroke-opacity:0.9;stroke-width:0.4;"/>
   </g>
   <g id="patch_21">
    <path clip-path="url(#p17e7abad4d)" d="M 215.078536 119.653468 
Q 298.000591 183.191197 380.922646 246.728926 
" style="fill:none;stroke:#000000;stroke-linecap:round;stroke-opacity:0.9;stroke-width:0.4;"/>
   </g>
   <g id="patch_22">
    <path clip-path="url(#p17e7abad4d)" d="M 215.078536 219.636922 
Q 235.021261 195.991238 254.963986 172.345554 
" style="fill:none;stroke:#000000;stroke-linecap:round;stroke-opacity:0.9;stroke-width:0.4;"/>
   </g>
   <g id="patch_23">
    <path clip-path="url(#p17e7abad4d)" d="M 257.241464 169.645195 
Q 276.556275 169.645195 295.871085 169.645195 
" style="fill:none;stroke:#000000;stroke-linecap:round;stroke-opacity:0.9;stroke-width:0.4;"/>
   </g>
   <g id="patch_24">
    <path clip-path="url(#p17e7abad4d)" d="M 299.404392 169.645195 
Q 318.719203 169.645195 338.034013 169.645195 
" style="fill:none;stroke:#000000;stroke-linecap:round;stroke-opacity:0.9;stroke-width:0.4;"/>
   </g>
   <g id="patch_25">
    <path clip-path="url(#p17e7abad4d)" d="M 341.56732 169.645195 
Q 361.818212 207.701843 382.069105 245.758491 
" style="fill:none;stroke:#000000;stroke-linecap:round;stroke-opacity:0.9;stroke-width:0.4;"/>
   </g>
   <g id="PathCollection_1">
    <defs>
     <path d="M 0 3.535534 
C 0.937635 3.535534 1.836992 3.163008 2.5 2.5 
C 3.163008 1.836992 3.535534 0.937635 3.535534 0 
C 3.535534 -0.937635 3.163008 -1.836992 2.5 -2.5 
C 1.836992 -3.163008 0.937635 -3.535534 0 -3.535534 
C -0.937635 -3.535534 -1.836992 -3.163008 -2.5 -2.5 
C -3.163008 -1.836992 -3.535534 -0.937635 -3.535534 0 
C -3.535534 0.937635 -3.163008 1.836992 -2.5 2.5 
C -1.836992 3.163008 -0.937635 3.535534 0 3.535534 
z
" id="C0_0_d3cc474b7f"/>
    </defs>
    <g clip-path="url(#p17e7abad4d)">
     <use style="fill:#fdb462;fill-opacity:0.9;" x="88.589752" xlink:href="#C0_0_d3cc474b7f" y="53.568"/>
    </g>
    <g clip-path="url(#p17e7abad4d)">
     <use style="fill:#fdb462;fill-opacity:0.9;" x="88.589752" xlink:href="#C0_0_d3cc474b7f" y="111.606597"/>
    </g>
    <g clip-path="url(#p17e7abad4d)">
     <use style="fill:#fdb462;fill-opacity:0.9;" x="88.589752" xlink:href="#C0_0_d3cc474b7f" y="169.645195"/>
    </g>
    <g clip-path="url(#p17e7abad4d)">
     <use style="fill:#fdb462;fill-opacity:0.9;" x="88.589752" xlink:href="#C0_0_d3cc474b7f" y="227.683792"/>
    </g>
    <g clip-path="url(#p17e7abad4d)">
     <use style="fill:#ffed6f;fill-opacity:0.9;" x="88.589752" xlink:href="#C0_0_d3cc474b7f" y="285.72239"/>
    </g>
    <g clip-path="url(#p17e7abad4d)">
     <use style="fill:#80b1d3;fill-opacity:0.9;" x="130.75268" xlink:href="#C0_0_d3cc474b7f" y="119.653468"/>
    </g>
    <g clip-path="url(#p17e7abad4d)">
     <use style="fill:#80b1d3;fill-opacity:0.9;" x="130.75268" xlink:href="#C0_0_d3cc474b7f" y="219.636922"/>
    </g>
    <g clip-path="url(#p17e7abad4d)">
     <use style="fill:#80b1d3;fill-opacity:0.9;" x="172.915608" xlink:href="#C0_0_d3cc474b7f" y="219.636922"/>
    </g>
    <g clip-path="url(#p17e7abad4d)">
     <use style="fill:#80b1d3;fill-opacity:0.9;" x="172.915608" xlink:href="#C0_0_d3cc474b7f" y="119.653468"/>
    </g>
    <g clip-path="url(#p17e7abad4d)">
     <use style="fill:#80b1d3;fill-opacity:0.9;" x="215.078536" xlink:href="#C0_0_d3cc474b7f" y="119.653468"/>
    </g>
    <g clip-path="url(#p17e7abad4d)">
     <use style="fill:#80b1d3;fill-opacity:0.9;" x="215.078536" xlink:href="#C0_0_d3cc474b7f" y="219.636922"/>
    </g>
    <g clip-path="url(#p17e7abad4d)">
     <use style="fill:#80b1d3;fill-opacity:0.9;" x="257.241464" xlink:href="#C0_0_d3cc474b7f" y="169.645195"/>
    </g>
    <g clip-path="url(#p17e7abad4d)">
     <use style="fill:#80b1d3;fill-opacity:0.9;" x="299.404392" xlink:href="#C0_0_d3cc474b7f" y="169.645195"/>
    </g>
    <g clip-path="url(#p17e7abad4d)">
     <use style="fill:#80b1d3;fill-opacity:0.9;" x="341.56732" xlink:href="#C0_0_d3cc474b7f" y="169.645195"/>
    </g>
    <g clip-path="url(#p17e7abad4d)">
     <use style="fill:#b3de69;fill-opacity:0.9;" x="383.730248" xlink:href="#C0_0_d3cc474b7f" y="90.410183"/>
    </g>
    <g clip-path="url(#p17e7abad4d)">
     <use style="fill:#b3de69;fill-opacity:0.9;" x="383.730248" xlink:href="#C0_0_d3cc474b7f" y="169.645195"/>
    </g>
    <g clip-path="url(#p17e7abad4d)">
     <use style="fill:#b3de69;fill-opacity:0.9;" x="383.730248" xlink:href="#C0_0_d3cc474b7f" y="248.880207"/>
    </g>
   </g>
  </g>
 </g>
 <defs>
  <clipPath id="p17e7abad4d">
   <rect height="266.112" width="357.12" x="57.6" y="41.472"/>
  </clipPath>
 </defs>
</svg>
