<?xml version="1.0" encoding="utf-8" standalone="no"?>
<!DOCTYPE svg PUBLIC "-//W3C//DTD SVG 1.1//EN"
  "http://www.w3.org/Graphics/SVG/1.1/DTD/svg11.dtd">
<!-- Created with matplotlib (https://matplotlib.org/) -->
<svg height="345.6pt" version="1.1" viewBox="0 0 460.8 345.6" width="460.8pt" xmlns="http://www.w3.org/2000/svg" xmlns:xlink="http://www.w3.org/1999/xlink">
 <defs>
  <style type="text/css">
*{stroke-linecap:butt;stroke-linejoin:round;}
  </style>
 </defs>
 <g id="figure_1">
  <g id="patch_1">
   <path d="M 0 345.6 
L 460.8 345.6 
L 460.8 0 
L 0 0 
z
" style="fill:#ffffff;"/>
  </g>
  <g id="axes_1">
   <g id="patch_2">
    <path d="M 57.6 307.584 
L 414.72 307.584 
L 414.72 41.472 
L 57.6 41.472 
z
" style="fill:#ffffff;"/>
   </g>
   <g id="PolyCollection_1">
    <path clip-path="url(#p48c230389c)" d="M 73.832727 185.123037 
L 73.832727 185.123037 
L 75.464157 185.123037 
L 77.095587 185.123037 
L 78.727017 185.123037 
L 80.358447 185.123037 
L 81.989877 185.123037 
L 83.621307 185.123037 
L 85.252736 185.123037 
L 86.884166 185.123037 
L 88.515596 185.123037 
L 90.147026 185.123037 
L 91.778456 185.123037 
L 93.409886 185.123037 
L 95.041316 185.123037 
L 96.672746 185.123037 
L 98.304175 185.123037 
L 99.935605 185.123037 
L 101.567035 185.123037 
L 103.198465 185.123037 
L 104.829895 185.123037 
L 106.461325 185.123037 
L 108.092755 185.123037 
L 109.724185 185.123037 
L 111.355614 185.123037 
L 112.987044 185.123037 
L 114.618474 185.123037 
L 116.249904 185.123037 
L 117.881334 185.123037 
L 119.512764 185.123037 
L 121.144194 185.123037 
L 122.775624 185.123037 
L 124.407053 185.123037 
L 126.038483 185.123037 
L 127.669913 185.123037 
L 129.301343 185.123037 
L 130.932773 185.123037 
L 132.564203 185.123037 
L 134.195633 185.123037 
L 135.827063 185.123037 
L 137.458492 185.123037 
L 139.089922 185.123037 
L 140.721352 185.123037 
L 142.352782 185.123037 
L 143.984212 185.123037 
L 145.615642 185.123037 
L 147.247072 185.123037 
L 148.878502 185.123037 
L 150.509931 185.123037 
L 152.141361 185.123037 
L 153.772791 185.123037 
L 155.404221 185.123037 
L 157.035651 185.123037 
L 158.667081 185.123037 
L 160.298511 185.123037 
L 161.929941 185.123037 
L 163.56137 185.123037 
L 165.1928 185.123037 
L 166.82423 185.123037 
L 168.45566 185.123037 
L 170.08709 185.123037 
L 171.71852 185.123037 
L 173.34995 185.123037 
L 174.98138 185.123037 
L 176.61281 185.123037 
L 178.244239 185.123037 
L 179.875669 185.123037 
L 181.507099 185.123037 
L 183.138529 185.123037 
L 184.769959 185.123037 
L 186.401389 185.123037 
L 188.032819 185.123037 
L 189.664249 185.123037 
L 191.295678 185.123037 
L 192.927108 185.123037 
L 194.558538 185.123037 
L 196.189968 185.123037 
L 197.821398 185.123037 
L 199.452828 185.123037 
L 201.084258 185.123037 
L 202.715688 185.123037 
L 204.347117 185.123037 
L 205.978547 185.123037 
L 207.609977 185.123037 
L 209.241407 185.123037 
L 210.872837 185.123037 
L 212.504267 185.123037 
L 214.135697 185.123037 
L 215.767127 185.123037 
L 217.398556 185.123037 
L 219.029986 185.123037 
L 220.661416 185.123037 
L 222.292846 185.123037 
L 223.924276 185.123037 
L 225.555706 185.123037 
L 227.187136 185.123037 
L 228.818566 185.123037 
L 230.449995 185.123037 
L 232.081425 185.123037 
L 233.712855 185.123037 
L 235.344285 185.123037 
L 236.975715 185.123037 
L 238.607145 185.123037 
L 240.238575 185.123037 
L 241.870005 169.892672 
L 243.501434 167.464642 
L 245.132864 185.123037 
L 246.764294 166.332298 
L 248.395724 174.196905 
L 250.027154 173.313985 
L 251.658584 180.708438 
L 253.290014 164.815883 
L 254.921444 185.123037 
L 256.552873 185.123037 
L 258.184303 185.123037 
L 259.815733 185.123037 
L 261.447163 185.123037 
L 263.078593 185.123037 
L 264.710023 185.123037 
L 266.341453 175.85238 
L 267.972883 185.123037 
L 269.604312 161.832088 
L 271.235742 174.96946 
L 272.867172 185.123037 
L 274.498602 185.123037 
L 276.130032 177.618219 
L 277.761462 170.113401 
L 279.392892 181.039533 
L 281.024322 163.491504 
L 282.655751 179.825518 
L 284.287181 167.464642 
L 285.918611 163.050044 
L 287.550041 170.113401 
L 289.181471 185.123037 
L 290.812901 171.327416 
L 292.444331 185.123037 
L 294.075761 185.123037 
L 295.70719 182.032818 
L 297.33862 172.762161 
L 298.97005 167.304613 
L 300.60148 185.123037 
L 302.23291 167.524841 
L 303.86434 182.915737 
L 305.49577 163.050044 
L 307.1272 182.474277 
L 308.75863 185.123037 
L 310.390059 171.106686 
L 312.021489 185.123037 
L 313.652919 154.64654 
L 315.284349 185.123037 
L 316.915779 154.639783 
L 318.547209 177.949314 
L 320.178639 183.357197 
L 321.810069 182.143182 
L 323.441498 185.123037 
L 325.072928 178.501139 
L 326.704358 185.123037 
L 328.335788 185.123037 
L 329.967218 185.123037 
L 331.598648 186.116321 
L 333.230078 179.277499 
L 334.861508 184.460847 
L 336.492937 195.938803 
L 338.124367 185.123037 
L 339.755797 186.005956 
L 341.387227 185.123037 
L 343.018657 165.701956 
L 344.650087 213.045372 
L 346.281517 180.491884 
L 347.912947 163.050044 
L 349.544376 163.050044 
L 351.175806 229.269022 
L 352.807236 171.831942 
L 354.438666 185.123037 
L 356.070096 185.123037 
L 357.701526 180.708438 
L 359.332956 185.123037 
L 360.964386 185.123037 
L 362.595815 185.123037 
L 364.227245 185.123037 
L 365.858675 185.123037 
L 367.490105 185.123037 
L 369.121535 185.123037 
L 370.752965 181.591358 
L 372.384395 185.123037 
L 374.015825 185.123037 
L 375.647254 183.467562 
L 377.278684 177.618219 
L 378.910114 185.123037 
L 380.541544 183.467562 
L 382.172974 185.123037 
L 383.804404 185.123037 
L 385.435834 185.123037 
L 387.067264 185.123037 
L 388.698693 185.123037 
L 390.330123 185.123037 
L 391.961553 185.123037 
L 393.592983 185.123037 
L 395.224413 185.123037 
L 396.855843 185.123037 
L 398.487273 185.123037 
L 398.487273 134.355153 
L 398.487273 134.355153 
L 396.855843 156.428146 
L 395.224413 116.807124 
L 393.592983 140.977051 
L 391.961553 141.418511 
L 390.330123 116.144934 
L 388.698693 140.977051 
L 387.067264 138.769752 
L 385.435834 163.932964 
L 383.804404 140.535591 
L 382.172974 136.120993 
L 380.541544 142.853255 
L 378.910114 106.984642 
L 377.278684 118.397383 
L 375.647254 123.318657 
L 374.015825 118.904058 
L 372.384395 140.977051 
L 370.752965 144.50873 
L 369.121535 135.238073 
L 367.490105 108.971212 
L 365.858675 167.023182 
L 364.227245 119.786978 
L 362.595815 135.222307 
L 360.964386 118.904058 
L 359.332956 114.180438 
L 357.701526 150.382599 
L 356.070096 147.267854 
L 354.438666 145.722745 
L 352.807236 123.318657 
L 351.175806 163.50727 
L 349.544376 120.007708 
L 347.912947 118.904058 
L 346.281517 156.345784 
L 344.650087 163.381139 
L 343.018657 140.977051 
L 341.387227 144.06727 
L 339.755797 141.418511 
L 338.124367 152.013547 
L 336.492937 145.39165 
L 334.861508 142.632526 
L 333.230078 141.859971 
L 331.598648 137.886832 
L 329.967218 151.792818 
L 328.335788 161.156102 
L 326.704358 163.050044 
L 325.072928 142.301431 
L 323.441498 157.311066 
L 321.810069 144.95019 
L 320.178639 101.687124 
L 318.547209 136.562453 
L 316.915779 123.009635 
L 315.284349 150.689168 
L 313.652919 107.205372 
L 312.021489 122.891593 
L 310.390059 122.373837 
L 308.75863 158.635445 
L 307.1272 137.003912 
L 305.49577 127.84362 
L 303.86434 133.16873 
L 302.23291 143.18435 
L 300.60148 162.608584 
L 298.97005 121.000993 
L 297.33862 124.015963 
L 295.70719 118.793693 
L 294.075761 145.833109 
L 292.444331 148.923328 
L 290.812901 143.62581 
L 289.181471 140.535591 
L 287.550041 128.616175 
L 285.918611 126.850336 
L 284.287181 158.614423 
L 282.655751 142.191066 
L 281.024322 148.040409 
L 279.392892 146.671883 
L 277.761462 148.040409 
L 276.130032 146.274569 
L 274.498602 160.403879 
L 272.867172 162.739182 
L 271.235742 147.047124 
L 269.604312 140.977051 
L 267.972883 156.428146 
L 266.341453 139.652672 
L 264.710023 134.796613 
L 263.078593 156.18735 
L 261.447163 146.716029 
L 259.815733 129.940555 
L 258.184303 155.103766 
L 256.552873 131.706394 
L 254.921444 140.094131 
L 253.290014 149.240628 
L 251.658584 155.103766 
L 250.027154 148.522001 
L 248.395724 148.040409 
L 246.764294 148.040409 
L 245.132864 158.434782 
L 243.501434 148.040409 
L 241.870005 159.623212 
L 240.238575 169.293547 
L 238.607145 178.942599 
L 236.975715 164.595153 
L 235.344285 185.123037 
L 233.712855 185.123037 
L 232.081425 185.123037 
L 230.449995 185.123037 
L 228.818566 185.123037 
L 227.187136 185.123037 
L 225.555706 185.123037 
L 223.924276 185.123037 
L 222.292846 185.123037 
L 220.661416 185.123037 
L 219.029986 185.123037 
L 217.398556 185.123037 
L 215.767127 185.123037 
L 214.135697 185.123037 
L 212.504267 185.123037 
L 210.872837 185.123037 
L 209.241407 185.123037 
L 207.609977 185.123037 
L 205.978547 185.123037 
L 204.347117 185.123037 
L 202.715688 185.123037 
L 201.084258 185.123037 
L 199.452828 185.123037 
L 197.821398 185.123037 
L 196.189968 185.123037 
L 194.558538 185.123037 
L 192.927108 185.123037 
L 191.295678 185.123037 
L 189.664249 185.123037 
L 188.032819 185.123037 
L 186.401389 185.123037 
L 184.769959 185.123037 
L 183.138529 185.123037 
L 181.507099 185.123037 
L 179.875669 185.123037 
L 178.244239 185.123037 
L 176.61281 185.123037 
L 174.98138 185.123037 
L 173.34995 185.123037 
L 171.71852 185.123037 
L 170.08709 185.123037 
L 168.45566 185.123037 
L 166.82423 185.123037 
L 165.1928 185.123037 
L 163.56137 185.123037 
L 161.929941 185.123037 
L 160.298511 185.123037 
L 158.667081 185.123037 
L 157.035651 185.123037 
L 155.404221 185.123037 
L 153.772791 185.123037 
L 152.141361 185.123037 
L 150.509931 185.123037 
L 148.878502 185.123037 
L 147.247072 185.123037 
L 145.615642 185.123037 
L 143.984212 185.123037 
L 142.352782 185.123037 
L 140.721352 185.123037 
L 139.089922 185.123037 
L 137.458492 185.123037 
L 135.827063 185.123037 
L 134.195633 185.123037 
L 132.564203 185.123037 
L 130.932773 185.123037 
L 129.301343 185.123037 
L 127.669913 185.123037 
L 126.038483 185.123037 
L 124.407053 185.123037 
L 122.775624 185.123037 
L 121.144194 185.123037 
L 119.512764 185.123037 
L 117.881334 185.123037 
L 116.249904 185.123037 
L 114.618474 185.123037 
L 112.987044 185.123037 
L 111.355614 185.123037 
L 109.724185 185.123037 
L 108.092755 185.123037 
L 106.461325 185.123037 
L 104.829895 185.123037 
L 103.198465 185.123037 
L 101.567035 185.123037 
L 99.935605 185.123037 
L 98.304175 185.123037 
L 96.672746 185.123037 
L 95.041316 185.123037 
L 93.409886 185.123037 
L 91.778456 185.123037 
L 90.147026 185.123037 
L 88.515596 185.123037 
L 86.884166 185.123037 
L 85.252736 185.123037 
L 83.621307 185.123037 
L 81.989877 185.123037 
L 80.358447 185.123037 
L 78.727017 185.123037 
L 77.095587 185.123037 
L 75.464157 185.123037 
L 73.832727 185.123037 
z
" style="fill:#1f77b4;fill-opacity:0.2;"/>
   </g>
   <g id="PolyCollection_2">
    <path clip-path="url(#p48c230389c)" d="M 73.832727 185.123037 
L 73.832727 185.123037 
L 75.464157 185.123037 
L 77.095587 185.123037 
L 78.727017 185.123037 
L 80.358447 185.123037 
L 81.989877 185.123037 
L 83.621307 185.123037 
L 85.252736 185.123037 
L 86.884166 185.123037 
L 88.515596 185.123037 
L 90.147026 185.123037 
L 91.778456 185.123037 
L 93.409886 185.123037 
L 95.041316 185.123037 
L 96.672746 185.123037 
L 98.304175 185.123037 
L 99.935605 185.123037 
L 101.567035 185.123037 
L 103.198465 185.123037 
L 104.829895 185.123037 
L 106.461325 185.123037 
L 108.092755 185.123037 
L 109.724185 185.123037 
L 111.355614 185.123037 
L 112.987044 185.123037 
L 114.618474 185.123037 
L 116.249904 185.123037 
L 117.881334 185.123037 
L 119.512764 185.123037 
L 121.144194 185.123037 
L 122.775624 185.123037 
L 124.407053 185.123037 
L 126.038483 185.123037 
L 127.669913 185.123037 
L 129.301343 185.123037 
L 130.932773 185.123037 
L 132.564203 185.123037 
L 134.195633 185.123037 
L 135.827063 185.123037 
L 137.458492 185.123037 
L 139.089922 185.123037 
L 140.721352 185.123037 
L 142.352782 185.123037 
L 143.984212 185.123037 
L 145.615642 185.123037 
L 147.247072 185.123037 
L 148.878502 185.123037 
L 150.509931 185.123037 
L 152.141361 185.123037 
L 153.772791 185.123037 
L 155.404221 185.123037 
L 157.035651 185.123037 
L 158.667081 185.123037 
L 160.298511 185.123037 
L 161.929941 185.123037 
L 163.56137 185.123037 
L 165.1928 185.123037 
L 166.82423 185.123037 
L 168.45566 185.123037 
L 170.08709 185.123037 
L 171.71852 185.123037 
L 173.34995 185.123037 
L 174.98138 185.123037 
L 176.61281 185.123037 
L 178.244239 185.123037 
L 179.875669 185.123037 
L 181.507099 185.123037 
L 183.138529 185.123037 
L 184.769959 185.123037 
L 186.401389 185.123037 
L 188.032819 185.123037 
L 189.664249 185.123037 
L 191.295678 185.123037 
L 192.927108 185.123037 
L 194.558538 185.123037 
L 196.189968 185.123037 
L 197.821398 185.123037 
L 199.452828 185.123037 
L 201.084258 223.971504 
L 202.715688 211.610628 
L 204.347117 185.123037 
L 205.978547 185.123037 
L 207.609977 185.123037 
L 209.241407 185.123037 
L 210.872837 185.123037 
L 212.504267 185.123037 
L 214.135697 185.123037 
L 215.767127 185.123037 
L 217.398556 185.123037 
L 219.029986 188.654715 
L 220.661416 193.952234 
L 222.292846 185.123037 
L 223.924276 185.123037 
L 225.555706 185.123037 
L 227.187136 185.123037 
L 228.818566 185.123037 
L 230.449995 185.123037 
L 232.081425 185.123037 
L 233.712855 185.123037 
L 235.344285 185.123037 
L 236.975715 246.927416 
L 238.607145 222.205664 
L 240.238575 185.123037 
L 241.870005 185.123037 
L 243.501434 185.123037 
L 245.132864 185.123037 
L 246.764294 189.537635 
L 248.395724 185.123037 
L 250.027154 192.627854 
L 251.658584 229.269022 
L 253.290014 229.269022 
L 254.921444 236.33238 
L 256.552873 210.286248 
L 258.184303 229.269022 
L 259.815733 185.123037 
L 261.447163 194.835153 
L 263.078593 229.269022 
L 264.710023 185.123037 
L 266.341453 251.342015 
L 267.972883 251.342015 
L 269.604312 251.342015 
L 271.235742 229.269022 
L 272.867172 222.647124 
L 274.498602 222.647124 
L 276.130032 207.196029 
L 277.761462 185.564496 
L 279.392892 295.04654 
L 281.024322 188.213255 
L 282.655751 229.269022 
L 284.287181 222.647124 
L 285.918611 229.269022 
L 287.550041 199.249752 
L 289.181471 215.142307 
L 290.812901 207.196029 
L 292.444331 185.564496 
L 294.075761 250.459095 
L 295.70719 229.269022 
L 297.33862 188.654715 
L 298.97005 207.196029 
L 300.60148 229.269022 
L 302.23291 189.537635 
L 303.86434 251.342015 
L 305.49577 206.754569 
L 307.1272 200.574131 
L 308.75863 194.835153 
L 310.390059 215.583766 
L 312.021489 190.862015 
L 313.652919 189.537635 
L 315.284349 273.415007 
L 316.915779 185.123037 
L 318.547209 238.981139 
L 320.178639 206.754569 
L 321.810069 232.800701 
L 323.441498 264.58581 
L 325.072928 211.610628 
L 326.704358 257.522453 
L 328.335788 250.900555 
L 329.967218 251.342015 
L 331.598648 251.342015 
L 333.230078 232.359241 
L 334.861508 207.196029 
L 336.492937 251.342015 
L 338.124367 204.98873 
L 339.755797 272.973547 
L 341.387227 218.673985 
L 343.018657 210.727708 
L 344.650087 295.488 
L 346.281517 237.656759 
L 347.912947 210.727708 
L 349.544376 194.261255 
L 351.175806 267.676029 
L 352.807236 232.800701 
L 354.438666 230.593401 
L 356.070096 228.386102 
L 357.701526 227.061723 
L 359.332956 207.637489 
L 360.964386 251.342015 
L 362.595815 221.322745 
L 364.227245 224.412963 
L 365.858675 282.685664 
L 367.490105 231.476321 
L 369.121535 224.854423 
L 370.752965 185.123037 
L 372.384395 206.754569 
L 374.015825 233.68362 
L 375.647254 245.603036 
L 377.278684 223.088584 
L 378.910114 185.123037 
L 380.541544 222.647124 
L 382.172974 222.647124 
L 383.804404 185.123037 
L 385.435834 218.673985 
L 387.067264 227.503182 
L 388.698693 207.196029 
L 390.330123 231.476321 
L 391.961553 198.366832 
L 393.592983 218.232526 
L 395.224413 186.447416 
L 396.855843 201.457051 
L 398.487273 214.700847 
L 398.487273 119.786978 
L 398.487273 119.786978 
L 396.855843 114.93092 
L 395.224413 71.667854 
L 393.592983 105.218803 
L 391.961553 121.524336 
L 390.330123 74.758073 
L 388.698693 94.182307 
L 387.067264 77.406832 
L 385.435834 119.786978 
L 383.804404 119.850044 
L 382.172974 101.687124 
L 380.541544 98.596905 
L 378.910114 101.245664 
L 377.278684 53.568 
L 375.647254 99.921285 
L 374.015825 87.118949 
L 372.384395 117.841285 
L 370.752965 117.206136 
L 369.121535 116.114032 
L 367.490105 92.857927 
L 365.858675 76.082453 
L 364.227245 96.389606 
L 362.595815 100.362745 
L 360.964386 96.831066 
L 359.332956 65.928876 
L 357.701526 96.389606 
L 356.070096 96.389606 
L 354.438666 117.072 
L 352.807236 83.14581 
L 351.175806 71.667854 
L 349.544376 70.343474 
L 347.912947 100.362745 
L 346.281517 112.743687 
L 344.650087 92.857927 
L 343.018657 86.236029 
L 341.387227 74.758073 
L 339.755797 118.904058 
L 338.124367 126.850336 
L 336.492937 83.58727 
L 334.861508 116.696759 
L 333.230078 112.282161 
L 331.598648 82.262891 
L 329.967218 100.804204 
L 328.335788 95.948146 
L 326.704358 114.048 
L 325.072928 104.335883 
L 323.441498 104.335883 
L 321.810069 108.309022 
L 320.178639 60.189898 
L 318.547209 91.975007 
L 316.915779 90.209168 
L 315.284349 108.750482 
L 313.652919 61.514277 
L 312.021489 95.065226 
L 310.390059 98.155445 
L 308.75863 120.850495 
L 307.1272 93.740847 
L 305.49577 96.831066 
L 303.86434 85.794569 
L 302.23291 91.533547 
L 300.60148 122.390069 
L 298.97005 96.831066 
L 297.33862 71.667854 
L 295.70719 82.70435 
L 294.075761 60.631358 
L 292.444331 105.218803 
L 290.812901 93.740847 
L 289.181471 81.821431 
L 287.550041 74.758073 
L 285.918611 83.14581 
L 284.287181 79.172672 
L 282.655751 98.155445 
L 281.024322 126.850336 
L 279.392892 96.831066 
L 277.761462 96.389606 
L 276.130032 107.867562 
L 274.498602 78.731212 
L 272.867172 92.857927 
L 271.235742 90.209168 
L 269.604312 74.758073 
L 267.972883 109.633401 
L 266.341453 117.579679 
L 264.710023 90.650628 
L 263.078593 103.452964 
L 261.447163 96.831066 
L 259.815733 79.614131 
L 258.184303 132.589314 
L 256.552873 103.452964 
L 254.921444 95.948146 
L 253.290014 123.760117 
L 251.658584 133.030774 
L 250.027154 76.965372 
L 248.395724 103.894423 
L 246.764294 79.172672 
L 245.132864 103.011504 
L 243.501434 85.353109 
L 241.870005 90.650628 
L 240.238575 103.894423 
L 238.607145 85.353109 
L 236.975715 82.70435 
L 235.344285 83.58727 
L 233.712855 88.884788 
L 232.081425 76.523912 
L 230.449995 97.846423 
L 228.818566 76.523912 
L 227.187136 99.546044 
L 225.555706 84.91165 
L 223.924276 75.199533 
L 222.292846 84.02873 
L 220.661416 104.335883 
L 219.029986 108.750482 
L 217.398556 77.406832 
L 215.767127 79.614131 
L 214.135697 105.218803 
L 212.504267 80.055591 
L 210.872837 105.218803 
L 209.241407 81.379971 
L 207.609977 94.543501 
L 205.978547 93.677781 
L 204.347117 93.453898 
L 202.715688 185.123037 
L 201.084258 185.123037 
L 199.452828 185.123037 
L 197.821398 185.123037 
L 196.189968 185.123037 
L 194.558538 185.123037 
L 192.927108 185.123037 
L 191.295678 185.123037 
L 189.664249 185.123037 
L 188.032819 185.123037 
L 186.401389 185.123037 
L 184.769959 185.123037 
L 183.138529 185.123037 
L 181.507099 185.123037 
L 179.875669 185.123037 
L 178.244239 185.123037 
L 176.61281 185.123037 
L 174.98138 185.123037 
L 173.34995 185.123037 
L 171.71852 185.123037 
L 170.08709 185.123037 
L 168.45566 185.123037 
L 166.82423 185.123037 
L 165.1928 185.123037 
L 163.56137 185.123037 
L 161.929941 185.123037 
L 160.298511 185.123037 
L 158.667081 185.123037 
L 157.035651 185.123037 
L 155.404221 185.123037 
L 153.772791 185.123037 
L 152.141361 185.123037 
L 150.509931 185.123037 
L 148.878502 185.123037 
L 147.247072 185.123037 
L 145.615642 185.123037 
L 143.984212 185.123037 
L 142.352782 185.123037 
L 140.721352 185.123037 
L 139.089922 185.123037 
L 137.458492 185.123037 
L 135.827063 185.123037 
L 134.195633 185.123037 
L 132.564203 185.123037 
L 130.932773 185.123037 
L 129.301343 185.123037 
L 127.669913 185.123037 
L 126.038483 185.123037 
L 124.407053 185.123037 
L 122.775624 185.123037 
L 121.144194 185.123037 
L 119.512764 185.123037 
L 117.881334 185.123037 
L 116.249904 185.123037 
L 114.618474 185.123037 
L 112.987044 185.123037 
L 111.355614 185.123037 
L 109.724185 185.123037 
L 108.092755 185.123037 
L 106.461325 185.123037 
L 104.829895 185.123037 
L 103.198465 185.123037 
L 101.567035 185.123037 
L 99.935605 185.123037 
L 98.304175 185.123037 
L 96.672746 185.123037 
L 95.041316 185.123037 
L 93.409886 185.123037 
L 91.778456 185.123037 
L 90.147026 185.123037 
L 88.515596 185.123037 
L 86.884166 185.123037 
L 85.252736 185.123037 
L 83.621307 185.123037 
L 81.989877 185.123037 
L 80.358447 185.123037 
L 78.727017 185.123037 
L 77.095587 185.123037 
L 75.464157 185.123037 
L 73.832727 185.123037 
z
" style="fill:#1f77b4;fill-opacity:0.1;"/>
   </g>
   <g id="matplotlib.axis_1">
    <g id="xtick_1">
     <g id="line2d_1">
      <defs>
       <path d="M 0 0 
L 0 3.5 
" id="me72deb1150" style="stroke:#000000;stroke-width:0.8;"/>
      </defs>
      <g>
       <use style="stroke:#000000;stroke-width:0.8;" x="73.832727" xlink:href="#me72deb1150" y="307.584"/>
      </g>
     </g>
     <g id="text_1">
      <!-- 0 -->
      <defs>
       <path d="M 31.78125 66.40625 
Q 24.171875 66.40625 20.328125 58.90625 
Q 16.5 51.421875 16.5 36.375 
Q 16.5 21.390625 20.328125 13.890625 
Q 24.171875 6.390625 31.78125 6.390625 
Q 39.453125 6.390625 43.28125 13.890625 
Q 47.125 21.390625 47.125 36.375 
Q 47.125 51.421875 43.28125 58.90625 
Q 39.453125 66.40625 31.78125 66.40625 
z
M 31.78125 74.21875 
Q 44.046875 74.21875 50.515625 64.515625 
Q 56.984375 54.828125 56.984375 36.375 
Q 56.984375 17.96875 50.515625 8.265625 
Q 44.046875 -1.421875 31.78125 -1.421875 
Q 19.53125 -1.421875 13.0625 8.265625 
Q 6.59375 17.96875 6.59375 36.375 
Q 6.59375 54.828125 13.0625 64.515625 
Q 19.53125 74.21875 31.78125 74.21875 
z
" id="DejaVuSans-48"/>
      </defs>
      <g transform="translate(70.651477 322.182437)scale(0.1 -0.1)">
       <use xlink:href="#DejaVuSans-48"/>
      </g>
     </g>
    </g>
    <g id="xtick_2">
     <g id="line2d_2">
      <g>
       <use style="stroke:#000000;stroke-width:0.8;" x="114.618474" xlink:href="#me72deb1150" y="307.584"/>
      </g>
     </g>
     <g id="text_2">
      <!-- 25 -->
      <defs>
       <path d="M 19.1875 8.296875 
L 53.609375 8.296875 
L 53.609375 0 
L 7.328125 0 
L 7.328125 8.296875 
Q 12.9375 14.109375 22.625 23.890625 
Q 32.328125 33.6875 34.8125 36.53125 
Q 39.546875 41.84375 41.421875 45.53125 
Q 43.3125 49.21875 43.3125 52.78125 
Q 43.3125 58.59375 39.234375 62.25 
Q 35.15625 65.921875 28.609375 65.921875 
Q 23.96875 65.921875 18.8125 64.3125 
Q 13.671875 62.703125 7.8125 59.421875 
L 7.8125 69.390625 
Q 13.765625 71.78125 18.9375 73 
Q 24.125 74.21875 28.421875 74.21875 
Q 39.75 74.21875 46.484375 68.546875 
Q 53.21875 62.890625 53.21875 53.421875 
Q 53.21875 48.921875 51.53125 44.890625 
Q 49.859375 40.875 45.40625 35.40625 
Q 44.1875 33.984375 37.640625 27.21875 
Q 31.109375 20.453125 19.1875 8.296875 
z
" id="DejaVuSans-50"/>
       <path d="M 10.796875 72.90625 
L 49.515625 72.90625 
L 49.515625 64.59375 
L 19.828125 64.59375 
L 19.828125 46.734375 
Q 21.96875 47.46875 24.109375 47.828125 
Q 26.265625 48.1875 28.421875 48.1875 
Q 40.625 48.1875 47.75 41.5 
Q 54.890625 34.8125 54.890625 23.390625 
Q 54.890625 11.625 47.5625 5.09375 
Q 40.234375 -1.421875 26.90625 -1.421875 
Q 22.3125 -1.421875 17.546875 -0.640625 
Q 12.796875 0.140625 7.71875 1.703125 
L 7.71875 11.625 
Q 12.109375 9.234375 16.796875 8.0625 
Q 21.484375 6.890625 26.703125 6.890625 
Q 35.15625 6.890625 40.078125 11.328125 
Q 45.015625 15.765625 45.015625 23.390625 
Q 45.015625 31 40.078125 35.4375 
Q 35.15625 39.890625 26.703125 39.890625 
Q 22.75 39.890625 18.8125 39.015625 
Q 14.890625 38.140625 10.796875 36.28125 
z
" id="DejaVuSans-53"/>
      </defs>
      <g transform="translate(108.255974 322.182437)scale(0.1 -0.1)">
       <use xlink:href="#DejaVuSans-50"/>
       <use x="63.623047" xlink:href="#DejaVuSans-53"/>
      </g>
     </g>
    </g>
    <g id="xtick_3">
     <g id="line2d_3">
      <g>
       <use style="stroke:#000000;stroke-width:0.8;" x="155.404221" xlink:href="#me72deb1150" y="307.584"/>
      </g>
     </g>
     <g id="text_3">
      <!-- 50 -->
      <g transform="translate(149.041721 322.182437)scale(0.1 -0.1)">
       <use xlink:href="#DejaVuSans-53"/>
       <use x="63.623047" xlink:href="#DejaVuSans-48"/>
      </g>
     </g>
    </g>
    <g id="xtick_4">
     <g id="line2d_4">
      <g>
       <use style="stroke:#000000;stroke-width:0.8;" x="196.189968" xlink:href="#me72deb1150" y="307.584"/>
      </g>
     </g>
     <g id="text_4">
      <!-- 75 -->
      <defs>
       <path d="M 8.203125 72.90625 
L 55.078125 72.90625 
L 55.078125 68.703125 
L 28.609375 0 
L 18.3125 0 
L 43.21875 64.59375 
L 8.203125 64.59375 
z
" id="DejaVuSans-55"/>
      </defs>
      <g transform="translate(189.827468 322.182437)scale(0.1 -0.1)">
       <use xlink:href="#DejaVuSans-55"/>
       <use x="63.623047" xlink:href="#DejaVuSans-53"/>
      </g>
     </g>
    </g>
    <g id="xtick_5">
     <g id="line2d_5">
      <g>
       <use style="stroke:#000000;stroke-width:0.8;" x="236.975715" xlink:href="#me72deb1150" y="307.584"/>
      </g>
     </g>
     <g id="text_5">
      <!-- 100 -->
      <defs>
       <path d="M 12.40625 8.296875 
L 28.515625 8.296875 
L 28.515625 63.921875 
L 10.984375 60.40625 
L 10.984375 69.390625 
L 28.421875 72.90625 
L 38.28125 72.90625 
L 38.28125 8.296875 
L 54.390625 8.296875 
L 54.390625 0 
L 12.40625 0 
z
" id="DejaVuSans-49"/>
      </defs>
      <g transform="translate(227.431965 322.182437)scale(0.1 -0.1)">
       <use xlink:href="#DejaVuSans-49"/>
       <use x="63.623047" xlink:href="#DejaVuSans-48"/>
       <use x="127.246094" xlink:href="#DejaVuSans-48"/>
      </g>
     </g>
    </g>
    <g id="xtick_6">
     <g id="line2d_6">
      <g>
       <use style="stroke:#000000;stroke-width:0.8;" x="277.761462" xlink:href="#me72deb1150" y="307.584"/>
      </g>
     </g>
     <g id="text_6">
      <!-- 125 -->
      <g transform="translate(268.217712 322.182437)scale(0.1 -0.1)">
       <use xlink:href="#DejaVuSans-49"/>
       <use x="63.623047" xlink:href="#DejaVuSans-50"/>
       <use x="127.246094" xlink:href="#DejaVuSans-53"/>
      </g>
     </g>
    </g>
    <g id="xtick_7">
     <g id="line2d_7">
      <g>
       <use style="stroke:#000000;stroke-width:0.8;" x="318.547209" xlink:href="#me72deb1150" y="307.584"/>
      </g>
     </g>
     <g id="text_7">
      <!-- 150 -->
      <g transform="translate(309.003459 322.182437)scale(0.1 -0.1)">
       <use xlink:href="#DejaVuSans-49"/>
       <use x="63.623047" xlink:href="#DejaVuSans-53"/>
       <use x="127.246094" xlink:href="#DejaVuSans-48"/>
      </g>
     </g>
    </g>
    <g id="xtick_8">
     <g id="line2d_8">
      <g>
       <use style="stroke:#000000;stroke-width:0.8;" x="359.332956" xlink:href="#me72deb1150" y="307.584"/>
      </g>
     </g>
     <g id="text_8">
      <!-- 175 -->
      <g transform="translate(349.789206 322.182437)scale(0.1 -0.1)">
       <use xlink:href="#DejaVuSans-49"/>
       <use x="63.623047" xlink:href="#DejaVuSans-55"/>
       <use x="127.246094" xlink:href="#DejaVuSans-53"/>
      </g>
     </g>
    </g>
    <g id="xtick_9">
     <g id="line2d_9">
      <g>
       <use style="stroke:#000000;stroke-width:0.8;" x="400.118703" xlink:href="#me72deb1150" y="307.584"/>
      </g>
     </g>
     <g id="text_9">
      <!-- 200 -->
      <g transform="translate(390.574953 322.182437)scale(0.1 -0.1)">
       <use xlink:href="#DejaVuSans-50"/>
       <use x="63.623047" xlink:href="#DejaVuSans-48"/>
       <use x="127.246094" xlink:href="#DejaVuSans-48"/>
      </g>
     </g>
    </g>
   </g>
   <g id="matplotlib.axis_2">
    <g id="ytick_1">
     <g id="line2d_10">
      <defs>
       <path d="M 0 0 
L -3.5 0 
" id="m6f349f287a" style="stroke:#000000;stroke-width:0.8;"/>
      </defs>
      <g>
       <use style="stroke:#000000;stroke-width:0.8;" x="57.6" xlink:href="#m6f349f287a" y="295.488"/>
      </g>
     </g>
     <g id="text_10">
      <!-- 0.0 -->
      <defs>
       <path d="M 10.6875 12.40625 
L 21 12.40625 
L 21 0 
L 10.6875 0 
z
" id="DejaVuSans-46"/>
      </defs>
      <g transform="translate(34.696875 299.287219)scale(0.1 -0.1)">
       <use xlink:href="#DejaVuSans-48"/>
       <use x="63.623047" xlink:href="#DejaVuSans-46"/>
       <use x="95.410156" xlink:href="#DejaVuSans-48"/>
      </g>
     </g>
    </g>
    <g id="ytick_2">
     <g id="line2d_11">
      <g>
       <use style="stroke:#000000;stroke-width:0.8;" x="57.6" xlink:href="#m6f349f287a" y="262.378511"/>
      </g>
     </g>
     <g id="text_11">
      <!-- 0.1 -->
      <g transform="translate(34.696875 266.17773)scale(0.1 -0.1)">
       <use xlink:href="#DejaVuSans-48"/>
       <use x="63.623047" xlink:href="#DejaVuSans-46"/>
       <use x="95.410156" xlink:href="#DejaVuSans-49"/>
      </g>
     </g>
    </g>
    <g id="ytick_3">
     <g id="line2d_12">
      <g>
       <use style="stroke:#000000;stroke-width:0.8;" x="57.6" xlink:href="#m6f349f287a" y="229.269022"/>
      </g>
     </g>
     <g id="text_12">
      <!-- 0.2 -->
      <g transform="translate(34.696875 233.068241)scale(0.1 -0.1)">
       <use xlink:href="#DejaVuSans-48"/>
       <use x="63.623047" xlink:href="#DejaVuSans-46"/>
       <use x="95.410156" xlink:href="#DejaVuSans-50"/>
      </g>
     </g>
    </g>
    <g id="ytick_4">
     <g id="line2d_13">
      <g>
       <use style="stroke:#000000;stroke-width:0.8;" x="57.6" xlink:href="#m6f349f287a" y="196.159533"/>
      </g>
     </g>
     <g id="text_13">
      <!-- 0.3 -->
      <defs>
       <path d="M 40.578125 39.3125 
Q 47.65625 37.796875 51.625 33 
Q 55.609375 28.21875 55.609375 21.1875 
Q 55.609375 10.40625 48.1875 4.484375 
Q 40.765625 -1.421875 27.09375 -1.421875 
Q 22.515625 -1.421875 17.65625 -0.515625 
Q 12.796875 0.390625 7.625 2.203125 
L 7.625 11.71875 
Q 11.71875 9.328125 16.59375 8.109375 
Q 21.484375 6.890625 26.8125 6.890625 
Q 36.078125 6.890625 40.9375 10.546875 
Q 45.796875 14.203125 45.796875 21.1875 
Q 45.796875 27.640625 41.28125 31.265625 
Q 36.765625 34.90625 28.71875 34.90625 
L 20.21875 34.90625 
L 20.21875 43.015625 
L 29.109375 43.015625 
Q 36.375 43.015625 40.234375 45.921875 
Q 44.09375 48.828125 44.09375 54.296875 
Q 44.09375 59.90625 40.109375 62.90625 
Q 36.140625 65.921875 28.71875 65.921875 
Q 24.65625 65.921875 20.015625 65.03125 
Q 15.375 64.15625 9.8125 62.3125 
L 9.8125 71.09375 
Q 15.4375 72.65625 20.34375 73.4375 
Q 25.25 74.21875 29.59375 74.21875 
Q 40.828125 74.21875 47.359375 69.109375 
Q 53.90625 64.015625 53.90625 55.328125 
Q 53.90625 49.265625 50.4375 45.09375 
Q 46.96875 40.921875 40.578125 39.3125 
z
" id="DejaVuSans-51"/>
      </defs>
      <g transform="translate(34.696875 199.958752)scale(0.1 -0.1)">
       <use xlink:href="#DejaVuSans-48"/>
       <use x="63.623047" xlink:href="#DejaVuSans-46"/>
       <use x="95.410156" xlink:href="#DejaVuSans-51"/>
      </g>
     </g>
    </g>
    <g id="ytick_5">
     <g id="line2d_14">
      <g>
       <use style="stroke:#000000;stroke-width:0.8;" x="57.6" xlink:href="#m6f349f287a" y="163.050044"/>
      </g>
     </g>
     <g id="text_14">
      <!-- 0.4 -->
      <defs>
       <path d="M 37.796875 64.3125 
L 12.890625 25.390625 
L 37.796875 25.390625 
z
M 35.203125 72.90625 
L 47.609375 72.90625 
L 47.609375 25.390625 
L 58.015625 25.390625 
L 58.015625 17.1875 
L 47.609375 17.1875 
L 47.609375 0 
L 37.796875 0 
L 37.796875 17.1875 
L 4.890625 17.1875 
L 4.890625 26.703125 
z
" id="DejaVuSans-52"/>
      </defs>
      <g transform="translate(34.696875 166.849263)scale(0.1 -0.1)">
       <use xlink:href="#DejaVuSans-48"/>
       <use x="63.623047" xlink:href="#DejaVuSans-46"/>
       <use x="95.410156" xlink:href="#DejaVuSans-52"/>
      </g>
     </g>
    </g>
    <g id="ytick_6">
     <g id="line2d_15">
      <g>
       <use style="stroke:#000000;stroke-width:0.8;" x="57.6" xlink:href="#m6f349f287a" y="129.940555"/>
      </g>
     </g>
     <g id="text_15">
      <!-- 0.5 -->
      <g transform="translate(34.696875 133.739774)scale(0.1 -0.1)">
       <use xlink:href="#DejaVuSans-48"/>
       <use x="63.623047" xlink:href="#DejaVuSans-46"/>
       <use x="95.410156" xlink:href="#DejaVuSans-53"/>
      </g>
     </g>
    </g>
    <g id="ytick_7">
     <g id="line2d_16">
      <g>
       <use style="stroke:#000000;stroke-width:0.8;" x="57.6" xlink:href="#m6f349f287a" y="96.831066"/>
      </g>
     </g>
     <g id="text_16">
      <!-- 0.6 -->
      <defs>
       <path d="M 33.015625 40.375 
Q 26.375 40.375 22.484375 35.828125 
Q 18.609375 31.296875 18.609375 23.390625 
Q 18.609375 15.53125 22.484375 10.953125 
Q 26.375 6.390625 33.015625 6.390625 
Q 39.65625 6.390625 43.53125 10.953125 
Q 47.40625 15.53125 47.40625 23.390625 
Q 47.40625 31.296875 43.53125 35.828125 
Q 39.65625 40.375 33.015625 40.375 
z
M 52.59375 71.296875 
L 52.59375 62.3125 
Q 48.875 64.0625 45.09375 64.984375 
Q 41.3125 65.921875 37.59375 65.921875 
Q 27.828125 65.921875 22.671875 59.328125 
Q 17.53125 52.734375 16.796875 39.40625 
Q 19.671875 43.65625 24.015625 45.921875 
Q 28.375 48.1875 33.59375 48.1875 
Q 44.578125 48.1875 50.953125 41.515625 
Q 57.328125 34.859375 57.328125 23.390625 
Q 57.328125 12.15625 50.6875 5.359375 
Q 44.046875 -1.421875 33.015625 -1.421875 
Q 20.359375 -1.421875 13.671875 8.265625 
Q 6.984375 17.96875 6.984375 36.375 
Q 6.984375 53.65625 15.1875 63.9375 
Q 23.390625 74.21875 37.203125 74.21875 
Q 40.921875 74.21875 44.703125 73.484375 
Q 48.484375 72.75 52.59375 71.296875 
z
" id="DejaVuSans-54"/>
      </defs>
      <g transform="translate(34.696875 100.630284)scale(0.1 -0.1)">
       <use xlink:href="#DejaVuSans-48"/>
       <use x="63.623047" xlink:href="#DejaVuSans-46"/>
       <use x="95.410156" xlink:href="#DejaVuSans-54"/>
      </g>
     </g>
    </g>
    <g id="ytick_8">
     <g id="line2d_17">
      <g>
       <use style="stroke:#000000;stroke-width:0.8;" x="57.6" xlink:href="#m6f349f287a" y="63.721577"/>
      </g>
     </g>
     <g id="text_17">
      <!-- 0.7 -->
      <g transform="translate(34.696875 67.520795)scale(0.1 -0.1)">
       <use xlink:href="#DejaVuSans-48"/>
       <use x="63.623047" xlink:href="#DejaVuSans-46"/>
       <use x="95.410156" xlink:href="#DejaVuSans-55"/>
      </g>
     </g>
    </g>
   </g>
   <g id="line2d_18">
    <path clip-path="url(#p48c230389c)" d="M 73.832727 185.123037 
L 240.238575 185.123037 
L 241.870005 163.050044 
L 243.501434 157.311066 
L 245.132864 170.113401 
L 246.764294 160.842745 
L 248.395724 163.050044 
L 250.027154 162.167124 
L 251.658584 167.464642 
L 253.290014 162.167124 
L 254.921444 182.915737 
L 256.552873 155.103766 
L 258.184303 180.708438 
L 259.815733 155.688701 
L 261.447163 163.491504 
L 263.078593 185.123037 
L 264.710023 162.167124 
L 266.341453 148.261139 
L 267.972883 178.942599 
L 269.604312 144.06727 
L 271.235742 158.193985 
L 272.867172 178.942599 
L 274.498602 174.96946 
L 276.130032 162.167124 
L 277.761462 156.946861 
L 279.392892 163.050044 
L 281.024322 162.608584 
L 282.655751 151.130628 
L 284.287181 163.050044 
L 285.918611 150.936579 
L 287.550041 154.867372 
L 289.181471 185.123037 
L 290.812901 162.608584 
L 292.444331 164.815883 
L 294.075761 170.113401 
L 295.70719 141.859971 
L 297.33862 160.842745 
L 298.97005 152.247261 
L 300.60148 169.482745 
L 302.23291 161.504934 
L 303.86434 161.171148 
L 305.49577 141.859971 
L 307.1272 154.717489 
L 308.75863 169.230482 
L 310.390059 163.491504 
L 312.021489 160.842745 
L 313.652919 140.977051 
L 315.284349 184.681577 
L 316.915779 140.977051 
L 318.547209 143.62581 
L 320.178639 165.499095 
L 321.810069 163.050044 
L 323.441498 163.510698 
L 325.072928 150.909898 
L 326.704358 168.768 
L 328.335788 185.123037 
L 329.967218 178.501139 
L 331.598648 157.661189 
L 333.230078 163.050044 
L 334.861508 163.050044 
L 336.492937 179.255893 
L 338.124367 164.405956 
L 339.755797 162.538352 
L 341.387227 164.815883 
L 343.018657 154.23443 
L 344.650087 185.123037 
L 346.281517 163.491504 
L 347.912947 146.495299 
L 349.544376 146.565532 
L 351.175806 185.123037 
L 352.807236 147.378219 
L 354.438666 185.123037 
L 356.070096 164.374423 
L 357.701526 163.050044 
L 359.332956 184.240117 
L 360.964386 163.932964 
L 362.595815 176.031066 
L 364.227245 163.932964 
L 365.858675 185.123037 
L 367.490105 140.903474 
L 369.121535 161.725664 
L 370.752965 163.050044 
L 372.384395 170.113401 
L 374.015825 163.050044 
L 375.647254 140.977051 
L 377.278684 163.050044 
L 378.910114 129.62838 
L 380.541544 156.428146 
L 382.172974 152.103846 
L 383.804404 185.123037 
L 387.067264 185.123037 
L 388.698693 176.956029 
L 390.330123 170.334131 
L 391.961553 181.370628 
L 393.592983 164.595153 
L 395.224413 163.491504 
L 396.855843 163.050044 
L 398.487273 153.674277 
L 398.487273 153.674277 
" style="fill:none;stroke:#1f77b4;stroke-linecap:square;stroke-width:0.25;"/>
   </g>
   <g id="line2d_19">
    <path clip-path="url(#p48c230389c)" d="M 73.832727 185.123037 
L 199.452828 185.123037 
L 201.084258 185.900006 
L 202.715688 185.917664 
L 204.347117 179.806535 
L 205.978547 179.90372 
L 207.609977 178.425288 
L 209.241407 182.397118 
L 210.872837 179.52974 
L 212.504267 175.817063 
L 214.135697 174.735486 
L 215.767127 177.344514 
L 217.398556 176.205547 
L 219.029986 180.576 
L 220.661416 182.699422 
L 222.292846 177.649121 
L 223.924276 174.876753 
L 225.555706 179.534155 
L 227.187136 180.594762 
L 228.818566 181.322067 
L 230.449995 177.71225 
L 232.081425 175.904251 
L 233.712855 178.960467 
L 235.344285 176.625797 
L 236.975715 169.993355 
L 238.607145 174.72547 
L 240.238575 169.650121 
L 241.870005 159.411224 
L 243.501434 152.737395 
L 245.132864 166.116038 
L 246.764294 156.844306 
L 248.395724 158.778354 
L 250.027154 157.115287 
L 251.658584 167.927343 
L 253.290014 160.11624 
L 254.921444 162.892028 
L 256.552873 155.528891 
L 258.184303 171.374124 
L 259.815733 152.916165 
L 261.447163 162.045255 
L 263.078593 172.473766 
L 264.710023 158.4395 
L 266.341453 155.154083 
L 267.972883 168.913042 
L 269.604312 150.698482 
L 271.235742 157.459877 
L 272.867172 170.235757 
L 274.498602 166.354445 
L 276.130032 160.335801 
L 277.761462 155.616403 
L 279.392892 158.295766 
L 281.024322 159.202856 
L 282.655751 155.856065 
L 284.287181 161.877121 
L 285.918611 149.224909 
L 287.550041 151.987459 
L 289.181471 161.235757 
L 290.812901 154.673081 
L 292.444331 163.640193 
L 294.075761 163.828443 
L 295.70719 143.008027 
L 297.33862 151.90809 
L 298.97005 147.664238 
L 300.60148 172.015117 
L 302.23291 152.678184 
L 303.86434 156.553574 
L 305.49577 145.571096 
L 307.1272 153.90258 
L 308.75863 168.32026 
L 310.390059 153.160166 
L 312.021489 154.482003 
L 313.652919 133.776203 
L 315.284349 170.711177 
L 316.915779 138.881372 
L 318.547209 154.058017 
L 320.178639 146.913268 
L 321.810069 163.83388 
L 323.441498 172.513321 
L 325.072928 158.055439 
L 326.704358 181.386073 
L 328.335788 180.75971 
L 329.967218 179.250522 
L 331.598648 163.924204 
L 333.230078 159.651025 
L 334.861508 163.476943 
L 336.492937 172.160479 
L 338.124367 167.809145 
L 339.755797 165.829108 
L 341.387227 160.451773 
L 343.018657 149.829765 
L 344.650087 193.903022 
L 346.281517 165.478047 
L 347.912947 143.928084 
L 349.544376 142.139522 
L 351.175806 192.76173 
L 352.807236 149.133308 
L 354.438666 173.442011 
L 356.070096 163.113366 
L 357.701526 162.535871 
L 359.332956 154.068835 
L 360.964386 154.40392 
L 362.595815 162.256276 
L 364.227245 154.862566 
L 365.858675 174.346492 
L 367.490105 143.656411 
L 369.121535 161.515089 
L 370.752965 159.916017 
L 372.384395 163.732508 
L 374.015825 152.181917 
L 375.647254 146.903168 
L 377.278684 143.396411 
L 378.910114 141.897166 
L 380.541544 157.998438 
L 382.172974 156.969999 
L 383.804404 164.03806 
L 385.435834 172.443714 
L 387.067264 165.073138 
L 388.698693 164.530808 
L 390.330123 150.861044 
L 391.961553 167.37574 
L 393.592983 162.243603 
L 395.224413 147.836081 
L 396.855843 164.50322 
L 398.487273 158.837897 
L 398.487273 158.837897 
" style="fill:none;stroke:#2ca02c;stroke-linecap:square;stroke-width:0.75;"/>
   </g>
   <g id="patch_3">
    <path d="M 57.6 307.584 
L 57.6 41.472 
" style="fill:none;stroke:#000000;stroke-linecap:square;stroke-linejoin:miter;stroke-width:0.8;"/>
   </g>
   <g id="patch_4">
    <path d="M 414.72 307.584 
L 414.72 41.472 
" style="fill:none;stroke:#000000;stroke-linecap:square;stroke-linejoin:miter;stroke-width:0.8;"/>
   </g>
   <g id="patch_5">
    <path d="M 57.6 307.584 
L 414.72 307.584 
" style="fill:none;stroke:#000000;stroke-linecap:square;stroke-linejoin:miter;stroke-width:0.8;"/>
   </g>
   <g id="patch_6">
    <path d="M 57.6 41.472 
L 414.72 41.472 
" style="fill:none;stroke:#000000;stroke-linecap:square;stroke-linejoin:miter;stroke-width:0.8;"/>
   </g>
   <g id="legend_1">
    <g id="patch_7">
     <path d="M 338.234063 78.82825 
L 407.72 78.82825 
Q 409.72 78.82825 409.72 76.82825 
L 409.72 48.472 
Q 409.72 46.472 407.72 46.472 
L 338.234063 46.472 
Q 336.234063 46.472 336.234063 48.472 
L 336.234063 76.82825 
Q 336.234063 78.82825 338.234063 78.82825 
z
" style="fill:#ffffff;opacity:0.8;stroke:#cccccc;stroke-linejoin:miter;"/>
    </g>
    <g id="line2d_20">
     <path d="M 340.234063 54.570437 
L 360.234063 54.570437 
" style="fill:none;stroke:#1f77b4;stroke-linecap:square;stroke-width:0.25;"/>
    </g>
    <g id="line2d_21"/>
    <g id="text_18">
     <!-- median -->
     <defs>
      <path d="M 52 44.1875 
Q 55.375 50.25 60.0625 53.125 
Q 64.75 56 71.09375 56 
Q 79.640625 56 84.28125 50.015625 
Q 88.921875 44.046875 88.921875 33.015625 
L 88.921875 0 
L 79.890625 0 
L 79.890625 32.71875 
Q 79.890625 40.578125 77.09375 44.375 
Q 74.3125 48.1875 68.609375 48.1875 
Q 61.625 48.1875 57.5625 43.546875 
Q 53.515625 38.921875 53.515625 30.90625 
L 53.515625 0 
L 44.484375 0 
L 44.484375 32.71875 
Q 44.484375 40.625 41.703125 44.40625 
Q 38.921875 48.1875 33.109375 48.1875 
Q 26.21875 48.1875 22.15625 43.53125 
Q 18.109375 38.875 18.109375 30.90625 
L 18.109375 0 
L 9.078125 0 
L 9.078125 54.6875 
L 18.109375 54.6875 
L 18.109375 46.1875 
Q 21.1875 51.21875 25.484375 53.609375 
Q 29.78125 56 35.6875 56 
Q 41.65625 56 45.828125 52.96875 
Q 50 49.953125 52 44.1875 
z
" id="DejaVuSans-109"/>
      <path d="M 56.203125 29.59375 
L 56.203125 25.203125 
L 14.890625 25.203125 
Q 15.484375 15.921875 20.484375 11.0625 
Q 25.484375 6.203125 34.421875 6.203125 
Q 39.59375 6.203125 44.453125 7.46875 
Q 49.3125 8.734375 54.109375 11.28125 
L 54.109375 2.78125 
Q 49.265625 0.734375 44.1875 -0.34375 
Q 39.109375 -1.421875 33.890625 -1.421875 
Q 20.796875 -1.421875 13.15625 6.1875 
Q 5.515625 13.8125 5.515625 26.8125 
Q 5.515625 40.234375 12.765625 48.109375 
Q 20.015625 56 32.328125 56 
Q 43.359375 56 49.78125 48.890625 
Q 56.203125 41.796875 56.203125 29.59375 
z
M 47.21875 32.234375 
Q 47.125 39.59375 43.09375 43.984375 
Q 39.0625 48.390625 32.421875 48.390625 
Q 24.90625 48.390625 20.390625 44.140625 
Q 15.875 39.890625 15.1875 32.171875 
z
" id="DejaVuSans-101"/>
      <path d="M 45.40625 46.390625 
L 45.40625 75.984375 
L 54.390625 75.984375 
L 54.390625 0 
L 45.40625 0 
L 45.40625 8.203125 
Q 42.578125 3.328125 38.25 0.953125 
Q 33.9375 -1.421875 27.875 -1.421875 
Q 17.96875 -1.421875 11.734375 6.484375 
Q 5.515625 14.40625 5.515625 27.296875 
Q 5.515625 40.1875 11.734375 48.09375 
Q 17.96875 56 27.875 56 
Q 33.9375 56 38.25 53.625 
Q 42.578125 51.265625 45.40625 46.390625 
z
M 14.796875 27.296875 
Q 14.796875 17.390625 18.875 11.75 
Q 22.953125 6.109375 30.078125 6.109375 
Q 37.203125 6.109375 41.296875 11.75 
Q 45.40625 17.390625 45.40625 27.296875 
Q 45.40625 37.203125 41.296875 42.84375 
Q 37.203125 48.484375 30.078125 48.484375 
Q 22.953125 48.484375 18.875 42.84375 
Q 14.796875 37.203125 14.796875 27.296875 
z
" id="DejaVuSans-100"/>
      <path d="M 9.421875 54.6875 
L 18.40625 54.6875 
L 18.40625 0 
L 9.421875 0 
z
M 9.421875 75.984375 
L 18.40625 75.984375 
L 18.40625 64.59375 
L 9.421875 64.59375 
z
" id="DejaVuSans-105"/>
      <path d="M 34.28125 27.484375 
Q 23.390625 27.484375 19.1875 25 
Q 14.984375 22.515625 14.984375 16.5 
Q 14.984375 11.71875 18.140625 8.90625 
Q 21.296875 6.109375 26.703125 6.109375 
Q 34.1875 6.109375 38.703125 11.40625 
Q 43.21875 16.703125 43.21875 25.484375 
L 43.21875 27.484375 
z
M 52.203125 31.203125 
L 52.203125 0 
L 43.21875 0 
L 43.21875 8.296875 
Q 40.140625 3.328125 35.546875 0.953125 
Q 30.953125 -1.421875 24.3125 -1.421875 
Q 15.921875 -1.421875 10.953125 3.296875 
Q 6 8.015625 6 15.921875 
Q 6 25.140625 12.171875 29.828125 
Q 18.359375 34.515625 30.609375 34.515625 
L 43.21875 34.515625 
L 43.21875 35.40625 
Q 43.21875 41.609375 39.140625 45 
Q 35.0625 48.390625 27.6875 48.390625 
Q 23 48.390625 18.546875 47.265625 
Q 14.109375 46.140625 10.015625 43.890625 
L 10.015625 52.203125 
Q 14.9375 54.109375 19.578125 55.046875 
Q 24.21875 56 28.609375 56 
Q 40.484375 56 46.34375 49.84375 
Q 52.203125 43.703125 52.203125 31.203125 
z
" id="DejaVuSans-97"/>
      <path d="M 54.890625 33.015625 
L 54.890625 0 
L 45.90625 0 
L 45.90625 32.71875 
Q 45.90625 40.484375 42.875 44.328125 
Q 39.84375 48.1875 33.796875 48.1875 
Q 26.515625 48.1875 22.3125 43.546875 
Q 18.109375 38.921875 18.109375 30.90625 
L 18.109375 0 
L 9.078125 0 
L 9.078125 54.6875 
L 18.109375 54.6875 
L 18.109375 46.1875 
Q 21.34375 51.125 25.703125 53.5625 
Q 30.078125 56 35.796875 56 
Q 45.21875 56 50.046875 50.171875 
Q 54.890625 44.34375 54.890625 33.015625 
z
" id="DejaVuSans-110"/>
     </defs>
     <g transform="translate(368.234063 58.070437)scale(0.1 -0.1)">
      <use xlink:href="#DejaVuSans-109"/>
      <use x="97.412109" xlink:href="#DejaVuSans-101"/>
      <use x="158.935547" xlink:href="#DejaVuSans-100"/>
      <use x="222.412109" xlink:href="#DejaVuSans-105"/>
      <use x="250.195312" xlink:href="#DejaVuSans-97"/>
      <use x="311.474609" xlink:href="#DejaVuSans-110"/>
     </g>
    </g>
    <g id="line2d_22">
     <path d="M 340.234063 69.248562 
L 360.234063 69.248562 
" style="fill:none;stroke:#2ca02c;stroke-linecap:square;stroke-width:0.75;"/>
    </g>
    <g id="line2d_23"/>
    <g id="text_19">
     <!-- mean -->
     <g transform="translate(368.234063 72.748562)scale(0.1 -0.1)">
      <use xlink:href="#DejaVuSans-109"/>
      <use x="97.412109" xlink:href="#DejaVuSans-101"/>
      <use x="158.935547" xlink:href="#DejaVuSans-97"/>
      <use x="220.214844" xlink:href="#DejaVuSans-110"/>
     </g>
    </g>
   </g>
  </g>
  <g id="text_20">
   <!-- accuracy.mean over generations -->
   <defs>
    <path d="M 48.78125 52.59375 
L 48.78125 44.1875 
Q 44.96875 46.296875 41.140625 47.34375 
Q 37.3125 48.390625 33.40625 48.390625 
Q 24.65625 48.390625 19.8125 42.84375 
Q 14.984375 37.3125 14.984375 27.296875 
Q 14.984375 17.28125 19.8125 11.734375 
Q 24.65625 6.203125 33.40625 6.203125 
Q 37.3125 6.203125 41.140625 7.25 
Q 44.96875 8.296875 48.78125 10.40625 
L 48.78125 2.09375 
Q 45.015625 0.34375 40.984375 -0.53125 
Q 36.96875 -1.421875 32.421875 -1.421875 
Q 20.0625 -1.421875 12.78125 6.34375 
Q 5.515625 14.109375 5.515625 27.296875 
Q 5.515625 40.671875 12.859375 48.328125 
Q 20.21875 56 33.015625 56 
Q 37.15625 56 41.109375 55.140625 
Q 45.0625 54.296875 48.78125 52.59375 
z
" id="DejaVuSans-99"/>
    <path d="M 8.5 21.578125 
L 8.5 54.6875 
L 17.484375 54.6875 
L 17.484375 21.921875 
Q 17.484375 14.15625 20.5 10.265625 
Q 23.53125 6.390625 29.59375 6.390625 
Q 36.859375 6.390625 41.078125 11.03125 
Q 45.3125 15.671875 45.3125 23.6875 
L 45.3125 54.6875 
L 54.296875 54.6875 
L 54.296875 0 
L 45.3125 0 
L 45.3125 8.40625 
Q 42.046875 3.421875 37.71875 1 
Q 33.40625 -1.421875 27.6875 -1.421875 
Q 18.265625 -1.421875 13.375 4.4375 
Q 8.5 10.296875 8.5 21.578125 
z
M 31.109375 56 
z
" id="DejaVuSans-117"/>
    <path d="M 41.109375 46.296875 
Q 39.59375 47.171875 37.8125 47.578125 
Q 36.03125 48 33.890625 48 
Q 26.265625 48 22.1875 43.046875 
Q 18.109375 38.09375 18.109375 28.8125 
L 18.109375 0 
L 9.078125 0 
L 9.078125 54.6875 
L 18.109375 54.6875 
L 18.109375 46.1875 
Q 20.953125 51.171875 25.484375 53.578125 
Q 30.03125 56 36.53125 56 
Q 37.453125 56 38.578125 55.875 
Q 39.703125 55.765625 41.0625 55.515625 
z
" id="DejaVuSans-114"/>
    <path d="M 32.171875 -5.078125 
Q 28.375 -14.84375 24.75 -17.8125 
Q 21.140625 -20.796875 15.09375 -20.796875 
L 7.90625 -20.796875 
L 7.90625 -13.28125 
L 13.1875 -13.28125 
Q 16.890625 -13.28125 18.9375 -11.515625 
Q 21 -9.765625 23.484375 -3.21875 
L 25.09375 0.875 
L 2.984375 54.6875 
L 12.5 54.6875 
L 29.59375 11.921875 
L 46.6875 54.6875 
L 56.203125 54.6875 
z
" id="DejaVuSans-121"/>
    <path id="DejaVuSans-32"/>
    <path d="M 30.609375 48.390625 
Q 23.390625 48.390625 19.1875 42.75 
Q 14.984375 37.109375 14.984375 27.296875 
Q 14.984375 17.484375 19.15625 11.84375 
Q 23.34375 6.203125 30.609375 6.203125 
Q 37.796875 6.203125 41.984375 11.859375 
Q 46.1875 17.53125 46.1875 27.296875 
Q 46.1875 37.015625 41.984375 42.703125 
Q 37.796875 48.390625 30.609375 48.390625 
z
M 30.609375 56 
Q 42.328125 56 49.015625 48.375 
Q 55.71875 40.765625 55.71875 27.296875 
Q 55.71875 13.875 49.015625 6.21875 
Q 42.328125 -1.421875 30.609375 -1.421875 
Q 18.84375 -1.421875 12.171875 6.21875 
Q 5.515625 13.875 5.515625 27.296875 
Q 5.515625 40.765625 12.171875 48.375 
Q 18.84375 56 30.609375 56 
z
" id="DejaVuSans-111"/>
    <path d="M 2.984375 54.6875 
L 12.5 54.6875 
L 29.59375 8.796875 
L 46.6875 54.6875 
L 56.203125 54.6875 
L 35.6875 0 
L 23.484375 0 
z
" id="DejaVuSans-118"/>
    <path d="M 45.40625 27.984375 
Q 45.40625 37.75 41.375 43.109375 
Q 37.359375 48.484375 30.078125 48.484375 
Q 22.859375 48.484375 18.828125 43.109375 
Q 14.796875 37.75 14.796875 27.984375 
Q 14.796875 18.265625 18.828125 12.890625 
Q 22.859375 7.515625 30.078125 7.515625 
Q 37.359375 7.515625 41.375 12.890625 
Q 45.40625 18.265625 45.40625 27.984375 
z
M 54.390625 6.78125 
Q 54.390625 -7.171875 48.1875 -13.984375 
Q 42 -20.796875 29.203125 -20.796875 
Q 24.46875 -20.796875 20.265625 -20.09375 
Q 16.0625 -19.390625 12.109375 -17.921875 
L 12.109375 -9.1875 
Q 16.0625 -11.328125 19.921875 -12.34375 
Q 23.78125 -13.375 27.78125 -13.375 
Q 36.625 -13.375 41.015625 -8.765625 
Q 45.40625 -4.15625 45.40625 5.171875 
L 45.40625 9.625 
Q 42.625 4.78125 38.28125 2.390625 
Q 33.9375 0 27.875 0 
Q 17.828125 0 11.671875 7.65625 
Q 5.515625 15.328125 5.515625 27.984375 
Q 5.515625 40.671875 11.671875 48.328125 
Q 17.828125 56 27.875 56 
Q 33.9375 56 38.28125 53.609375 
Q 42.625 51.21875 45.40625 46.390625 
L 45.40625 54.6875 
L 54.390625 54.6875 
z
" id="DejaVuSans-103"/>
    <path d="M 18.3125 70.21875 
L 18.3125 54.6875 
L 36.8125 54.6875 
L 36.8125 47.703125 
L 18.3125 47.703125 
L 18.3125 18.015625 
Q 18.3125 11.328125 20.140625 9.421875 
Q 21.96875 7.515625 27.59375 7.515625 
L 36.8125 7.515625 
L 36.8125 0 
L 27.59375 0 
Q 17.1875 0 13.234375 3.875 
Q 9.28125 7.765625 9.28125 18.015625 
L 9.28125 47.703125 
L 2.6875 47.703125 
L 2.6875 54.6875 
L 9.28125 54.6875 
L 9.28125 70.21875 
z
" id="DejaVuSans-116"/>
    <path d="M 44.28125 53.078125 
L 44.28125 44.578125 
Q 40.484375 46.53125 36.375 47.5 
Q 32.28125 48.484375 27.875 48.484375 
Q 21.1875 48.484375 17.84375 46.4375 
Q 14.5 44.390625 14.5 40.28125 
Q 14.5 37.15625 16.890625 35.375 
Q 19.28125 33.59375 26.515625 31.984375 
L 29.59375 31.296875 
Q 39.15625 29.25 43.1875 25.515625 
Q 47.21875 21.78125 47.21875 15.09375 
Q 47.21875 7.46875 41.1875 3.015625 
Q 35.15625 -1.421875 24.609375 -1.421875 
Q 20.21875 -1.421875 15.453125 -0.5625 
Q 10.6875 0.296875 5.421875 2 
L 5.421875 11.28125 
Q 10.40625 8.6875 15.234375 7.390625 
Q 20.0625 6.109375 24.8125 6.109375 
Q 31.15625 6.109375 34.5625 8.28125 
Q 37.984375 10.453125 37.984375 14.40625 
Q 37.984375 18.0625 35.515625 20.015625 
Q 33.0625 21.96875 24.703125 23.78125 
L 21.578125 24.515625 
Q 13.234375 26.265625 9.515625 29.90625 
Q 5.8125 33.546875 5.8125 39.890625 
Q 5.8125 47.609375 11.28125 51.796875 
Q 16.75 56 26.8125 56 
Q 31.78125 56 36.171875 55.265625 
Q 40.578125 54.546875 44.28125 53.078125 
z
" id="DejaVuSans-115"/>
   </defs>
   <g transform="translate(132.309375 16.030125)scale(0.12 -0.12)">
    <use xlink:href="#DejaVuSans-97"/>
    <use x="61.279297" xlink:href="#DejaVuSans-99"/>
    <use x="116.259766" xlink:href="#DejaVuSans-99"/>
    <use x="171.240234" xlink:href="#DejaVuSans-117"/>
    <use x="234.619141" xlink:href="#DejaVuSans-114"/>
    <use x="275.732422" xlink:href="#DejaVuSans-97"/>
    <use x="337.011719" xlink:href="#DejaVuSans-99"/>
    <use x="391.992188" xlink:href="#DejaVuSans-121"/>
    <use x="436.921875" xlink:href="#DejaVuSans-46"/>
    <use x="468.708984" xlink:href="#DejaVuSans-109"/>
    <use x="566.121094" xlink:href="#DejaVuSans-101"/>
    <use x="627.644531" xlink:href="#DejaVuSans-97"/>
    <use x="688.923828" xlink:href="#DejaVuSans-110"/>
    <use x="752.302734" xlink:href="#DejaVuSans-32"/>
    <use x="784.089844" xlink:href="#DejaVuSans-111"/>
    <use x="845.271484" xlink:href="#DejaVuSans-118"/>
    <use x="904.451172" xlink:href="#DejaVuSans-101"/>
    <use x="965.974609" xlink:href="#DejaVuSans-114"/>
    <use x="1007.087891" xlink:href="#DejaVuSans-32"/>
    <use x="1038.875" xlink:href="#DejaVuSans-103"/>
    <use x="1102.351562" xlink:href="#DejaVuSans-101"/>
    <use x="1163.875" xlink:href="#DejaVuSans-110"/>
    <use x="1227.253906" xlink:href="#DejaVuSans-101"/>
    <use x="1288.777344" xlink:href="#DejaVuSans-114"/>
    <use x="1329.890625" xlink:href="#DejaVuSans-97"/>
    <use x="1391.169922" xlink:href="#DejaVuSans-116"/>
    <use x="1430.378906" xlink:href="#DejaVuSans-105"/>
    <use x="1458.162109" xlink:href="#DejaVuSans-111"/>
    <use x="1519.34375" xlink:href="#DejaVuSans-110"/>
    <use x="1582.722656" xlink:href="#DejaVuSans-115"/>
   </g>
  </g>
 </g>
 <defs>
  <clipPath id="p48c230389c">
   <rect height="266.112" width="357.12" x="57.6" y="41.472"/>
  </clipPath>
 </defs>
</svg>
