<?xml version="1.0" encoding="utf-8" standalone="no"?>
<!DOCTYPE svg PUBLIC "-//W3C//DTD SVG 1.1//EN"
  "http://www.w3.org/Graphics/SVG/1.1/DTD/svg11.dtd">
<!-- Created with matplotlib (https://matplotlib.org/) -->
<svg height="345.6pt" version="1.1" viewBox="0 0 460.8 345.6" width="460.8pt" xmlns="http://www.w3.org/2000/svg" xmlns:xlink="http://www.w3.org/1999/xlink">
 <defs>
  <style type="text/css">
*{stroke-linecap:butt;stroke-linejoin:round;}
  </style>
 </defs>
 <g id="figure_1">
  <g id="patch_1">
   <path d="M 0 345.6 
L 460.8 345.6 
L 460.8 0 
L 0 0 
z
" style="fill:#ffffff;"/>
  </g>
  <g id="axes_1">
   <g id="patch_2">
    <path clip-path="url(#pa9066fe933)" d="M 88.589752 64.564364 
Q 146.322649 118.339763 204.055545 172.115163 
" style="fill:none;stroke:#000000;stroke-linecap:round;stroke-opacity:0.9;stroke-width:0.4;"/>
   </g>
   <g id="patch_3">
    <path clip-path="url(#pa9066fe933)" d="M 88.589752 119.546182 
Q 146.016411 146.291259 203.443071 173.036336 
" style="fill:none;stroke:#000000;stroke-linecap:round;stroke-opacity:0.9;stroke-width:0.4;"/>
   </g>
   <g id="patch_4">
    <path clip-path="url(#pa9066fe933)" d="M 88.589752 229.509818 
Q 175.444444 202.542837 262.299137 175.575856 
" style="fill:none;stroke:#000000;stroke-linecap:round;stroke-opacity:0.9;stroke-width:0.4;"/>
   </g>
   <g id="patch_5">
    <path clip-path="url(#pa9066fe933)" d="M 88.589752 229.509818 
Q 234.423906 202.342327 380.25806 175.174835 
" style="fill:none;stroke:#000000;stroke-linecap:round;stroke-opacity:0.9;stroke-width:0.4;"/>
   </g>
   <g id="patch_6">
    <path clip-path="url(#pa9066fe933)" d="M 88.589752 229.509818 
Q 234.396885 239.429884 380.204018 249.34995 
" style="fill:none;stroke:#000000;stroke-linecap:round;stroke-opacity:0.9;stroke-width:0.4;"/>
   </g>
   <g id="patch_7">
    <path clip-path="url(#pa9066fe933)" d="M 88.589752 284.491636 
Q 117.267054 231.068598 145.944356 177.64556 
" style="fill:none;stroke:#000000;stroke-linecap:round;stroke-opacity:0.9;stroke-width:0.4;"/>
   </g>
   <g id="patch_8">
    <path clip-path="url(#pa9066fe933)" d="M 147.617851 174.528 
Q 175.364733 174.528 203.111614 174.528 
" style="fill:none;stroke:#000000;stroke-linecap:round;stroke-opacity:0.9;stroke-width:0.4;"/>
   </g>
   <g id="patch_9">
    <path clip-path="url(#pa9066fe933)" d="M 206.64595 174.528 
Q 234.392832 174.528 262.139713 174.528 
" style="fill:none;stroke:#000000;stroke-linecap:round;stroke-opacity:0.9;stroke-width:0.4;"/>
   </g>
   <g id="patch_10">
    <path clip-path="url(#pa9066fe933)" d="M 265.67405 174.528 
Q 293.420931 174.528 321.167812 174.528 
" style="fill:none;stroke:#000000;stroke-linecap:round;stroke-opacity:0.9;stroke-width:0.4;"/>
   </g>
   <g id="patch_11">
    <path clip-path="url(#pa9066fe933)" d="M 324.702149 174.528 
Q 353.123653 138.386384 381.545156 102.244767 
" style="fill:none;stroke:#000000;stroke-linecap:round;stroke-opacity:0.9;stroke-width:0.4;"/>
   </g>
   <g id="PathCollection_1">
    <defs>
     <path d="M 0 3.535534 
C 0.937635 3.535534 1.836992 3.163008 2.5 2.5 
C 3.163008 1.836992 3.535534 0.937635 3.535534 0 
C 3.535534 -0.937635 3.163008 -1.836992 2.5 -2.5 
C 1.836992 -3.163008 0.937635 -3.535534 0 -3.535534 
C -0.937635 -3.535534 -1.836992 -3.163008 -2.5 -2.5 
C -3.163008 -1.836992 -3.535534 -0.937635 -3.535534 0 
C -3.535534 0.937635 -3.163008 1.836992 -2.5 2.5 
C -1.836992 3.163008 -0.937635 3.535534 0 3.535534 
z
" id="C0_0_363037b149"/>
    </defs>
    <g clip-path="url(#pa9066fe933)">
     <use style="fill:#fdb462;fill-opacity:0.9;" x="88.589752" xlink:href="#C0_0_363037b149" y="64.564364"/>
    </g>
    <g clip-path="url(#pa9066fe933)">
     <use style="fill:#fdb462;fill-opacity:0.9;" x="88.589752" xlink:href="#C0_0_363037b149" y="119.546182"/>
    </g>
    <g clip-path="url(#pa9066fe933)">
     <use style="fill:#fdb462;fill-opacity:0.9;" x="88.589752" xlink:href="#C0_0_363037b149" y="174.528"/>
    </g>
    <g clip-path="url(#pa9066fe933)">
     <use style="fill:#fdb462;fill-opacity:0.9;" x="88.589752" xlink:href="#C0_0_363037b149" y="229.509818"/>
    </g>
    <g clip-path="url(#pa9066fe933)">
     <use style="fill:#ffed6f;fill-opacity:0.9;" x="88.589752" xlink:href="#C0_0_363037b149" y="284.491636"/>
    </g>
    <g clip-path="url(#pa9066fe933)">
     <use style="fill:#80b1d3;fill-opacity:0.9;" x="147.617851" xlink:href="#C0_0_363037b149" y="174.528"/>
    </g>
    <g clip-path="url(#pa9066fe933)">
     <use style="fill:#80b1d3;fill-opacity:0.9;" x="206.64595" xlink:href="#C0_0_363037b149" y="174.528"/>
    </g>
    <g clip-path="url(#pa9066fe933)">
     <use style="fill:#80b1d3;fill-opacity:0.9;" x="265.67405" xlink:href="#C0_0_363037b149" y="174.528"/>
    </g>
    <g clip-path="url(#pa9066fe933)">
     <use style="fill:#80b1d3;fill-opacity:0.9;" x="324.702149" xlink:href="#C0_0_363037b149" y="174.528"/>
    </g>
    <g clip-path="url(#pa9066fe933)">
     <use style="fill:#b3de69;fill-opacity:0.9;" x="383.730248" xlink:href="#C0_0_363037b149" y="99.466141"/>
    </g>
    <g clip-path="url(#pa9066fe933)">
     <use style="fill:#b3de69;fill-opacity:0.9;" x="383.730248" xlink:href="#C0_0_363037b149" y="174.528"/>
    </g>
    <g clip-path="url(#pa9066fe933)">
     <use style="fill:#b3de69;fill-opacity:0.9;" x="383.730248" xlink:href="#C0_0_363037b149" y="249.589859"/>
    </g>
   </g>
  </g>
 </g>
 <defs>
  <clipPath id="pa9066fe933">
   <rect height="266.112" width="357.12" x="57.6" y="41.472"/>
  </clipPath>
 </defs>
</svg>
