<?xml version="1.0" encoding="utf-8" standalone="no"?>
<!DOCTYPE svg PUBLIC "-//W3C//DTD SVG 1.1//EN"
  "http://www.w3.org/Graphics/SVG/1.1/DTD/svg11.dtd">
<!-- Created with matplotlib (https://matplotlib.org/) -->
<svg height="345.6pt" version="1.1" viewBox="0 0 460.8 345.6" width="460.8pt" xmlns="http://www.w3.org/2000/svg" xmlns:xlink="http://www.w3.org/1999/xlink">
 <defs>
  <style type="text/css">
*{stroke-linecap:butt;stroke-linejoin:round;}
  </style>
 </defs>
 <g id="figure_1">
  <g id="patch_1">
   <path d="M 0 345.6 
L 460.8 345.6 
L 460.8 0 
L 0 0 
z
" style="fill:#ffffff;"/>
  </g>
  <g id="axes_1">
   <g id="patch_2">
    <path d="M 57.6 307.584 
L 414.72 307.584 
L 414.72 41.472 
L 57.6 41.472 
z
" style="fill:#ffffff;"/>
   </g>
   <g id="PolyCollection_1">
    <path clip-path="url(#p56ca68759a)" d="M 73.832727 211.018726 
L 73.832727 211.018726 
L 75.464157 211.018726 
L 77.095587 211.018726 
L 78.727017 211.018726 
L 80.358447 211.018726 
L 81.989877 211.018726 
L 83.621307 211.018726 
L 85.252736 211.018726 
L 86.884166 211.018726 
L 88.515596 211.018726 
L 90.147026 211.018726 
L 91.778456 211.018726 
L 93.409886 211.018726 
L 95.041316 211.018726 
L 96.672746 211.018726 
L 98.304175 211.018726 
L 99.935605 211.018726 
L 101.567035 211.018726 
L 103.198465 211.018726 
L 104.829895 211.018726 
L 106.461325 211.018726 
L 108.092755 211.018726 
L 109.724185 211.018726 
L 111.355614 211.018726 
L 112.987044 211.018726 
L 114.618474 211.018726 
L 116.249904 211.018726 
L 117.881334 211.018726 
L 119.512764 211.018726 
L 121.144194 211.018726 
L 122.775624 211.018726 
L 124.407053 211.018726 
L 126.038483 211.018726 
L 127.669913 211.018726 
L 129.301343 211.018726 
L 130.932773 211.018726 
L 132.564203 211.018726 
L 134.195633 211.018726 
L 135.827063 211.018726 
L 137.458492 211.018726 
L 139.089922 211.018726 
L 140.721352 211.018726 
L 142.352782 211.018726 
L 143.984212 211.018726 
L 145.615642 211.018726 
L 147.247072 211.018726 
L 148.878502 211.018726 
L 150.509931 211.018726 
L 152.141361 211.018726 
L 153.772791 211.018726 
L 155.404221 211.018726 
L 157.035651 211.018726 
L 158.667081 211.018726 
L 160.298511 211.018726 
L 161.929941 211.018726 
L 163.56137 211.018726 
L 165.1928 211.018726 
L 166.82423 211.018726 
L 168.45566 211.018726 
L 170.08709 211.018726 
L 171.71852 211.018726 
L 173.34995 211.018726 
L 174.98138 211.018726 
L 176.61281 211.018726 
L 178.244239 211.018726 
L 179.875669 211.018726 
L 181.507099 211.018726 
L 183.138529 211.018726 
L 184.769959 211.018726 
L 186.401389 211.018726 
L 188.032819 211.018726 
L 189.664249 211.018726 
L 191.295678 211.018726 
L 192.927108 211.018726 
L 194.558538 211.018726 
L 196.189968 211.018726 
L 197.821398 211.018726 
L 199.452828 211.018726 
L 201.084258 211.018726 
L 202.715688 211.018726 
L 204.347117 211.018726 
L 205.978547 211.018726 
L 207.609977 211.018726 
L 209.241407 211.018726 
L 210.872837 211.018726 
L 212.504267 211.018726 
L 214.135697 211.018726 
L 215.767127 211.018726 
L 217.398556 211.018726 
L 219.029986 211.018726 
L 220.661416 211.018726 
L 222.292846 211.018726 
L 223.924276 211.018726 
L 225.555706 211.018726 
L 227.187136 211.018726 
L 228.818566 211.018726 
L 230.449995 211.018726 
L 232.081425 211.018726 
L 233.712855 211.018726 
L 235.344285 211.018726 
L 236.975715 211.018726 
L 238.607145 211.018726 
L 240.238575 211.018726 
L 241.870005 211.018726 
L 243.501434 211.018726 
L 245.132864 211.018726 
L 246.764294 211.018726 
L 248.395724 211.018726 
L 250.027154 211.018726 
L 251.658584 211.018726 
L 253.290014 211.018726 
L 254.921444 211.018726 
L 256.552873 211.018726 
L 258.184303 211.018726 
L 259.815733 211.018726 
L 261.447163 208.484648 
L 263.078593 194.800626 
L 264.710023 142.906927 
L 266.341453 211.018726 
L 267.972883 209.582749 
L 269.604312 146.484201 
L 271.235742 192.688894 
L 272.867172 211.018726 
L 274.498602 197.75705 
L 276.130032 199.530905 
L 277.761462 149.440626 
L 279.392892 209.329341 
L 281.024322 168.361743 
L 282.655751 198.93962 
L 284.287181 146.146324 
L 285.918611 198.179397 
L 287.550041 181.623419 
L 289.181471 171.487106 
L 290.812901 199.193028 
L 292.444331 163.040179 
L 294.075761 188.718838 
L 295.70719 144.456939 
L 297.33862 164.222749 
L 298.97005 141.753922 
L 300.60148 200.291128 
L 302.23291 147.920179 
L 303.86434 209.41381 
L 305.49577 198.010458 
L 307.1272 203.754369 
L 308.75863 191.083978 
L 310.390059 169.037497 
L 312.021489 202.994145 
L 313.652919 211.018726 
L 315.284349 209.329341 
L 316.915779 210.765318 
L 318.547209 182.299173 
L 320.178639 146.061855 
L 321.810069 195.645318 
L 323.441498 211.018726 
L 325.072928 210.511911 
L 326.704358 178.160179 
L 328.335788 159.239061 
L 329.967218 139.050905 
L 331.598648 145.808447 
L 333.230078 144.288 
L 334.861508 142.031464 
L 336.492937 141.984293 
L 338.124367 141.385329 
L 339.755797 158.056492 
L 341.387227 143.189899 
L 343.018657 160.759508 
L 344.650087 138.375151 
L 346.281517 141.416045 
L 347.912947 143.443307 
L 349.544376 148.173587 
L 351.175806 149.356156 
L 352.807236 145.47057 
L 354.438666 143.443307 
L 356.070096 138.45962 
L 357.701526 145.386101 
L 359.332956 151.890235 
L 360.964386 153.57962 
L 362.595815 148.849341 
L 364.227245 138.375151 
L 365.858675 151.045542 
L 367.490105 146.906547 
L 369.121535 147.666771 
L 370.752965 138.375151 
L 372.384395 140.58671 
L 374.015825 151.21448 
L 375.647254 209.329341 
L 377.278684 143.443307 
L 378.910114 138.375151 
L 380.541544 138.375151 
L 382.172974 148.680402 
L 383.804404 141.162637 
L 385.435834 138.375151 
L 387.067264 149.187218 
L 388.698693 150.876603 
L 390.330123 140.064536 
L 391.961553 138.375151 
L 393.592983 167.60152 
L 395.224413 148.004648 
L 396.855843 194.124872 
L 398.487273 191.337385 
L 398.487273 121.227888 
L 398.487273 121.227888 
L 396.855843 126.549453 
L 395.224413 108.895374 
L 393.592983 126.549453 
L 391.961553 91.663642 
L 390.330123 88.37702 
L 388.698693 87.186771 
L 387.067264 92.846212 
L 385.435834 87.955441 
L 383.804404 103.996156 
L 382.172974 126.549453 
L 380.541544 114.977162 
L 378.910114 111.429453 
L 377.278684 126.549453 
L 375.647254 104.502972 
L 374.015825 103.320402 
L 372.384395 126.549453 
L 370.752965 119.791911 
L 369.121535 106.192358 
L 367.490105 125.282413 
L 365.858675 126.549453 
L 364.227245 126.549453 
L 362.595815 113.287777 
L 360.964386 126.549453 
L 359.332956 126.549453 
L 357.701526 106.699173 
L 356.070096 126.549453 
L 354.438666 121.734704 
L 352.807236 126.549453 
L 351.175806 105.516603 
L 349.544376 103.235933 
L 347.912947 82.963307 
L 346.281517 124.015374 
L 344.650087 103.489341 
L 343.018657 110.162413 
L 341.387227 126.549453 
L 339.755797 126.549453 
L 338.124367 125.366883 
L 336.492937 105.601073 
L 334.861508 126.549453 
L 333.230078 126.549453 
L 331.598648 74.178503 
L 329.967218 126.549453 
L 328.335788 126.549453 
L 326.704358 126.549453 
L 325.072928 126.549453 
L 323.441498 126.549453 
L 321.810069 126.549453 
L 320.178639 126.549453 
L 318.547209 126.549453 
L 316.915779 126.549453 
L 315.284349 126.549453 
L 313.652919 126.549453 
L 312.021489 126.566346 
L 310.390059 126.549453 
L 308.75863 126.549453 
L 307.1272 126.58105 
L 305.49577 126.549453 
L 303.86434 126.549453 
L 302.23291 126.549453 
L 300.60148 126.549453 
L 298.97005 126.549453 
L 297.33862 126.549453 
L 295.70719 126.549453 
L 294.075761 126.549453 
L 292.444331 126.549453 
L 290.812901 126.549453 
L 289.181471 126.549453 
L 287.550041 126.549453 
L 285.918611 126.549453 
L 284.287181 126.549453 
L 282.655751 126.549453 
L 281.024322 126.549453 
L 279.392892 126.549453 
L 277.761462 126.549453 
L 276.130032 126.549453 
L 274.498602 126.549453 
L 272.867172 126.549453 
L 271.235742 126.549453 
L 269.604312 126.549453 
L 267.972883 126.549453 
L 266.341453 126.549453 
L 264.710023 126.549453 
L 263.078593 141.462119 
L 261.447163 146.484201 
L 259.815733 145.808447 
L 258.184303 211.018726 
L 256.552873 211.018726 
L 254.921444 211.018726 
L 253.290014 211.018726 
L 251.658584 211.018726 
L 250.027154 211.018726 
L 248.395724 211.018726 
L 246.764294 211.018726 
L 245.132864 211.018726 
L 243.501434 211.018726 
L 241.870005 211.018726 
L 240.238575 211.018726 
L 238.607145 211.018726 
L 236.975715 211.018726 
L 235.344285 211.018726 
L 233.712855 211.018726 
L 232.081425 211.018726 
L 230.449995 211.018726 
L 228.818566 211.018726 
L 227.187136 211.018726 
L 225.555706 211.018726 
L 223.924276 211.018726 
L 222.292846 211.018726 
L 220.661416 211.018726 
L 219.029986 211.018726 
L 217.398556 211.018726 
L 215.767127 211.018726 
L 214.135697 211.018726 
L 212.504267 211.018726 
L 210.872837 211.018726 
L 209.241407 211.018726 
L 207.609977 211.018726 
L 205.978547 211.018726 
L 204.347117 211.018726 
L 202.715688 211.018726 
L 201.084258 211.018726 
L 199.452828 211.018726 
L 197.821398 211.018726 
L 196.189968 211.018726 
L 194.558538 211.018726 
L 192.927108 211.018726 
L 191.295678 211.018726 
L 189.664249 211.018726 
L 188.032819 211.018726 
L 186.401389 211.018726 
L 184.769959 211.018726 
L 183.138529 211.018726 
L 181.507099 211.018726 
L 179.875669 211.018726 
L 178.244239 211.018726 
L 176.61281 211.018726 
L 174.98138 211.018726 
L 173.34995 211.018726 
L 171.71852 211.018726 
L 170.08709 211.018726 
L 168.45566 211.018726 
L 166.82423 211.018726 
L 165.1928 211.018726 
L 163.56137 211.018726 
L 161.929941 211.018726 
L 160.298511 211.018726 
L 158.667081 211.018726 
L 157.035651 211.018726 
L 155.404221 211.018726 
L 153.772791 211.018726 
L 152.141361 211.018726 
L 150.509931 211.018726 
L 148.878502 211.018726 
L 147.247072 211.018726 
L 145.615642 211.018726 
L 143.984212 211.018726 
L 142.352782 211.018726 
L 140.721352 211.018726 
L 139.089922 211.018726 
L 137.458492 211.018726 
L 135.827063 211.018726 
L 134.195633 211.018726 
L 132.564203 211.018726 
L 130.932773 211.018726 
L 129.301343 211.018726 
L 127.669913 211.018726 
L 126.038483 211.018726 
L 124.407053 211.018726 
L 122.775624 211.018726 
L 121.144194 211.018726 
L 119.512764 211.018726 
L 117.881334 211.018726 
L 116.249904 211.018726 
L 114.618474 211.018726 
L 112.987044 211.018726 
L 111.355614 211.018726 
L 109.724185 211.018726 
L 108.092755 211.018726 
L 106.461325 211.018726 
L 104.829895 211.018726 
L 103.198465 211.018726 
L 101.567035 211.018726 
L 99.935605 211.018726 
L 98.304175 211.018726 
L 96.672746 211.018726 
L 95.041316 211.018726 
L 93.409886 211.018726 
L 91.778456 211.018726 
L 90.147026 211.018726 
L 88.515596 211.018726 
L 86.884166 211.018726 
L 85.252736 211.018726 
L 83.621307 211.018726 
L 81.989877 211.018726 
L 80.358447 211.018726 
L 78.727017 211.018726 
L 77.095587 211.018726 
L 75.464157 211.018726 
L 73.832727 211.018726 
z
" style="fill:#1f77b4;fill-opacity:0.2;"/>
   </g>
   <g id="PolyCollection_2">
    <path clip-path="url(#p56ca68759a)" d="M 73.832727 211.018726 
L 73.832727 211.018726 
L 75.464157 211.018726 
L 77.095587 211.018726 
L 78.727017 211.018726 
L 80.358447 211.018726 
L 81.989877 211.018726 
L 83.621307 211.018726 
L 85.252736 211.018726 
L 86.884166 211.018726 
L 88.515596 211.018726 
L 90.147026 211.018726 
L 91.778456 211.018726 
L 93.409886 211.018726 
L 95.041316 211.018726 
L 96.672746 211.018726 
L 98.304175 211.018726 
L 99.935605 211.018726 
L 101.567035 211.018726 
L 103.198465 211.018726 
L 104.829895 211.018726 
L 106.461325 211.018726 
L 108.092755 211.018726 
L 109.724185 211.018726 
L 111.355614 211.018726 
L 112.987044 211.018726 
L 114.618474 211.018726 
L 116.249904 211.018726 
L 117.881334 211.018726 
L 119.512764 211.018726 
L 121.144194 211.018726 
L 122.775624 211.018726 
L 124.407053 211.018726 
L 126.038483 211.018726 
L 127.669913 211.018726 
L 129.301343 211.018726 
L 130.932773 211.018726 
L 132.564203 211.018726 
L 134.195633 211.018726 
L 135.827063 211.018726 
L 137.458492 211.018726 
L 139.089922 211.018726 
L 140.721352 211.018726 
L 142.352782 211.018726 
L 143.984212 211.018726 
L 145.615642 211.018726 
L 147.247072 211.018726 
L 148.878502 211.018726 
L 150.509931 211.018726 
L 152.141361 211.018726 
L 153.772791 211.018726 
L 155.404221 211.018726 
L 157.035651 211.018726 
L 158.667081 211.018726 
L 160.298511 211.018726 
L 161.929941 211.018726 
L 163.56137 211.018726 
L 165.1928 211.018726 
L 166.82423 211.018726 
L 168.45566 211.018726 
L 170.08709 211.018726 
L 171.71852 211.018726 
L 173.34995 211.018726 
L 174.98138 211.018726 
L 176.61281 211.018726 
L 178.244239 211.018726 
L 179.875669 211.018726 
L 181.507099 211.018726 
L 183.138529 211.018726 
L 184.769959 211.018726 
L 186.401389 211.018726 
L 188.032819 211.018726 
L 189.664249 211.018726 
L 191.295678 211.018726 
L 192.927108 211.018726 
L 194.558538 211.018726 
L 196.189968 211.018726 
L 197.821398 211.018726 
L 199.452828 211.018726 
L 201.084258 211.018726 
L 202.715688 211.018726 
L 204.347117 211.018726 
L 205.978547 211.018726 
L 207.609977 211.018726 
L 209.241407 211.018726 
L 210.872837 211.018726 
L 212.504267 211.018726 
L 214.135697 211.018726 
L 215.767127 211.018726 
L 217.398556 211.018726 
L 219.029986 211.018726 
L 220.661416 211.018726 
L 222.292846 211.018726 
L 223.924276 211.018726 
L 225.555706 211.018726 
L 227.187136 211.018726 
L 228.818566 211.018726 
L 230.449995 211.018726 
L 232.081425 211.018726 
L 233.712855 211.018726 
L 235.344285 211.018726 
L 236.975715 211.018726 
L 238.607145 211.018726 
L 240.238575 211.018726 
L 241.870005 211.018726 
L 243.501434 211.018726 
L 245.132864 211.018726 
L 246.764294 211.018726 
L 248.395724 211.018726 
L 250.027154 211.018726 
L 251.658584 211.018726 
L 253.290014 211.018726 
L 254.921444 211.018726 
L 256.552873 271.836603 
L 258.184303 269.809341 
L 259.815733 245.144313 
L 261.447163 295.150123 
L 263.078593 211.018726 
L 264.710023 211.018726 
L 266.341453 211.018726 
L 267.972883 211.018726 
L 269.604312 211.018726 
L 271.235742 211.018726 
L 272.867172 211.018726 
L 274.498602 211.018726 
L 276.130032 211.018726 
L 277.761462 211.018726 
L 279.392892 211.018726 
L 281.024322 211.018726 
L 282.655751 211.018726 
L 284.287181 211.018726 
L 285.918611 211.018726 
L 287.550041 211.018726 
L 289.181471 211.018726 
L 290.812901 211.018726 
L 292.444331 211.018726 
L 294.075761 211.69448 
L 295.70719 211.018726 
L 297.33862 222.844425 
L 298.97005 237.711017 
L 300.60148 211.018726 
L 302.23291 211.018726 
L 303.86434 285.01381 
L 305.49577 211.018726 
L 307.1272 278.594145 
L 308.75863 211.018726 
L 310.390059 211.018726 
L 312.021489 274.201743 
L 313.652919 295.488 
L 315.284349 211.018726 
L 316.915779 211.018726 
L 318.547209 240.751911 
L 320.178639 211.018726 
L 321.810069 211.018726 
L 323.441498 268.457832 
L 325.072928 211.018726 
L 326.704358 273.525989 
L 328.335788 283.324425 
L 329.967218 211.018726 
L 331.598648 211.018726 
L 333.230078 262.713922 
L 334.861508 211.018726 
L 336.492937 211.018726 
L 338.124367 211.018726 
L 339.755797 211.018726 
L 341.387227 211.018726 
L 343.018657 211.018726 
L 344.650087 211.018726 
L 346.281517 231.967106 
L 347.912947 211.018726 
L 349.544376 211.018726 
L 351.175806 211.018726 
L 352.807236 211.018726 
L 354.438666 211.018726 
L 356.070096 285.351687 
L 357.701526 218.789899 
L 359.332956 211.018726 
L 360.964386 211.018726 
L 362.595815 211.018726 
L 364.227245 211.018726 
L 365.858675 211.018726 
L 367.490105 211.018726 
L 369.121535 211.018726 
L 370.752965 211.018726 
L 372.384395 211.018726 
L 374.015825 290.757721 
L 375.647254 211.018726 
L 377.278684 211.018726 
L 378.910114 211.018726 
L 380.541544 211.018726 
L 382.172974 211.018726 
L 383.804404 211.018726 
L 385.435834 270.485095 
L 387.067264 289.744089 
L 388.698693 211.018726 
L 390.330123 211.018726 
L 391.961553 256.632134 
L 393.592983 211.018726 
L 395.224413 211.018726 
L 396.855843 262.713922 
L 398.487273 242.103419 
L 398.487273 57.960402 
L 398.487273 57.960402 
L 396.855843 59.413911 
L 395.224413 59.50684 
L 393.592983 58.974034 
L 391.961553 57.622525 
L 390.330123 59.311911 
L 388.698693 58.940246 
L 387.067264 56.608894 
L 385.435834 55.595263 
L 383.804404 59.514637 
L 382.172974 59.488528 
L 380.541544 59.311911 
L 378.910114 59.368223 
L 377.278684 59.278947 
L 375.647254 59.387933 
L 374.015825 56.946771 
L 372.384395 59.4275 
L 370.752965 57.622525 
L 369.121535 59.546547 
L 367.490105 59.524291 
L 365.858675 57.960402 
L 364.227245 57.960402 
L 362.595815 58.298279 
L 360.964386 58.298279 
L 359.332956 59.694838 
L 357.701526 59.684741 
L 356.070096 59.60152 
L 354.438666 59.299397 
L 352.807236 54.919508 
L 351.175806 58.298279 
L 349.544376 59.227441 
L 347.912947 54.919508 
L 346.281517 57.960402 
L 344.650087 53.568 
L 343.018657 59.531531 
L 341.387227 59.529117 
L 339.755797 59.462078 
L 338.124367 57.284648 
L 336.492937 56.271017 
L 334.861508 57.622525 
L 333.230078 59.532265 
L 331.598648 56.608894 
L 329.967218 59.665877 
L 328.335788 59.582212 
L 326.704358 75.073877 
L 325.072928 77.557274 
L 323.441498 77.557274 
L 321.810069 82.103256 
L 320.178639 81.917497 
L 318.547209 81.696268 
L 316.915779 115.061631 
L 315.284349 126.549453 
L 313.652919 126.549453 
L 312.021489 126.549453 
L 310.390059 126.549453 
L 308.75863 126.549453 
L 307.1272 126.549453 
L 305.49577 126.549453 
L 303.86434 126.549453 
L 302.23291 126.549453 
L 300.60148 126.549453 
L 298.97005 126.549453 
L 297.33862 126.549453 
L 295.70719 126.549453 
L 294.075761 126.549453 
L 292.444331 126.549453 
L 290.812901 126.549453 
L 289.181471 126.549453 
L 287.550041 126.549453 
L 285.918611 126.549453 
L 284.287181 126.549453 
L 282.655751 126.549453 
L 281.024322 126.549453 
L 279.392892 126.549453 
L 277.761462 126.549453 
L 276.130032 126.549453 
L 274.498602 126.549453 
L 272.867172 126.549453 
L 271.235742 126.549453 
L 269.604312 126.549453 
L 267.972883 126.549453 
L 266.341453 126.549453 
L 264.710023 126.549453 
L 263.078593 126.549453 
L 261.447163 138.375151 
L 259.815733 126.549453 
L 258.184303 126.549453 
L 256.552873 151.21448 
L 254.921444 211.018726 
L 253.290014 178.244648 
L 251.658584 211.018726 
L 250.027154 211.018726 
L 248.395724 211.018726 
L 246.764294 211.018726 
L 245.132864 211.018726 
L 243.501434 211.018726 
L 241.870005 211.018726 
L 240.238575 211.018726 
L 238.607145 211.018726 
L 236.975715 211.018726 
L 235.344285 211.018726 
L 233.712855 211.018726 
L 232.081425 211.018726 
L 230.449995 211.018726 
L 228.818566 211.018726 
L 227.187136 211.018726 
L 225.555706 211.018726 
L 223.924276 211.018726 
L 222.292846 211.018726 
L 220.661416 211.018726 
L 219.029986 211.018726 
L 217.398556 211.018726 
L 215.767127 211.018726 
L 214.135697 211.018726 
L 212.504267 211.018726 
L 210.872837 211.018726 
L 209.241407 211.018726 
L 207.609977 211.018726 
L 205.978547 211.018726 
L 204.347117 211.018726 
L 202.715688 211.018726 
L 201.084258 211.018726 
L 199.452828 211.018726 
L 197.821398 211.018726 
L 196.189968 211.018726 
L 194.558538 211.018726 
L 192.927108 211.018726 
L 191.295678 211.018726 
L 189.664249 211.018726 
L 188.032819 211.018726 
L 186.401389 211.018726 
L 184.769959 211.018726 
L 183.138529 211.018726 
L 181.507099 211.018726 
L 179.875669 211.018726 
L 178.244239 211.018726 
L 176.61281 211.018726 
L 174.98138 211.018726 
L 173.34995 211.018726 
L 171.71852 211.018726 
L 170.08709 211.018726 
L 168.45566 211.018726 
L 166.82423 211.018726 
L 165.1928 211.018726 
L 163.56137 211.018726 
L 161.929941 211.018726 
L 160.298511 211.018726 
L 158.667081 211.018726 
L 157.035651 211.018726 
L 155.404221 211.018726 
L 153.772791 211.018726 
L 152.141361 211.018726 
L 150.509931 211.018726 
L 148.878502 211.018726 
L 147.247072 211.018726 
L 145.615642 211.018726 
L 143.984212 211.018726 
L 142.352782 211.018726 
L 140.721352 211.018726 
L 139.089922 211.018726 
L 137.458492 211.018726 
L 135.827063 211.018726 
L 134.195633 211.018726 
L 132.564203 211.018726 
L 130.932773 211.018726 
L 129.301343 211.018726 
L 127.669913 211.018726 
L 126.038483 211.018726 
L 124.407053 211.018726 
L 122.775624 211.018726 
L 121.144194 211.018726 
L 119.512764 211.018726 
L 117.881334 211.018726 
L 116.249904 211.018726 
L 114.618474 211.018726 
L 112.987044 211.018726 
L 111.355614 211.018726 
L 109.724185 211.018726 
L 108.092755 211.018726 
L 106.461325 211.018726 
L 104.829895 211.018726 
L 103.198465 211.018726 
L 101.567035 211.018726 
L 99.935605 211.018726 
L 98.304175 211.018726 
L 96.672746 211.018726 
L 95.041316 211.018726 
L 93.409886 211.018726 
L 91.778456 211.018726 
L 90.147026 211.018726 
L 88.515596 211.018726 
L 86.884166 211.018726 
L 85.252736 211.018726 
L 83.621307 211.018726 
L 81.989877 211.018726 
L 80.358447 211.018726 
L 78.727017 211.018726 
L 77.095587 211.018726 
L 75.464157 211.018726 
L 73.832727 211.018726 
z
" style="fill:#1f77b4;fill-opacity:0.1;"/>
   </g>
   <g id="matplotlib.axis_1">
    <g id="xtick_1">
     <g id="line2d_1">
      <defs>
       <path d="M 0 0 
L 0 3.5 
" id="me8ac1d5865" style="stroke:#000000;stroke-width:0.8;"/>
      </defs>
      <g>
       <use style="stroke:#000000;stroke-width:0.8;" x="73.832727" xlink:href="#me8ac1d5865" y="307.584"/>
      </g>
     </g>
     <g id="text_1">
      <!-- 0 -->
      <defs>
       <path d="M 31.78125 66.40625 
Q 24.171875 66.40625 20.328125 58.90625 
Q 16.5 51.421875 16.5 36.375 
Q 16.5 21.390625 20.328125 13.890625 
Q 24.171875 6.390625 31.78125 6.390625 
Q 39.453125 6.390625 43.28125 13.890625 
Q 47.125 21.390625 47.125 36.375 
Q 47.125 51.421875 43.28125 58.90625 
Q 39.453125 66.40625 31.78125 66.40625 
z
M 31.78125 74.21875 
Q 44.046875 74.21875 50.515625 64.515625 
Q 56.984375 54.828125 56.984375 36.375 
Q 56.984375 17.96875 50.515625 8.265625 
Q 44.046875 -1.421875 31.78125 -1.421875 
Q 19.53125 -1.421875 13.0625 8.265625 
Q 6.59375 17.96875 6.59375 36.375 
Q 6.59375 54.828125 13.0625 64.515625 
Q 19.53125 74.21875 31.78125 74.21875 
z
" id="DejaVuSans-48"/>
      </defs>
      <g transform="translate(70.651477 322.182437)scale(0.1 -0.1)">
       <use xlink:href="#DejaVuSans-48"/>
      </g>
     </g>
    </g>
    <g id="xtick_2">
     <g id="line2d_2">
      <g>
       <use style="stroke:#000000;stroke-width:0.8;" x="114.618474" xlink:href="#me8ac1d5865" y="307.584"/>
      </g>
     </g>
     <g id="text_2">
      <!-- 25 -->
      <defs>
       <path d="M 19.1875 8.296875 
L 53.609375 8.296875 
L 53.609375 0 
L 7.328125 0 
L 7.328125 8.296875 
Q 12.9375 14.109375 22.625 23.890625 
Q 32.328125 33.6875 34.8125 36.53125 
Q 39.546875 41.84375 41.421875 45.53125 
Q 43.3125 49.21875 43.3125 52.78125 
Q 43.3125 58.59375 39.234375 62.25 
Q 35.15625 65.921875 28.609375 65.921875 
Q 23.96875 65.921875 18.8125 64.3125 
Q 13.671875 62.703125 7.8125 59.421875 
L 7.8125 69.390625 
Q 13.765625 71.78125 18.9375 73 
Q 24.125 74.21875 28.421875 74.21875 
Q 39.75 74.21875 46.484375 68.546875 
Q 53.21875 62.890625 53.21875 53.421875 
Q 53.21875 48.921875 51.53125 44.890625 
Q 49.859375 40.875 45.40625 35.40625 
Q 44.1875 33.984375 37.640625 27.21875 
Q 31.109375 20.453125 19.1875 8.296875 
z
" id="DejaVuSans-50"/>
       <path d="M 10.796875 72.90625 
L 49.515625 72.90625 
L 49.515625 64.59375 
L 19.828125 64.59375 
L 19.828125 46.734375 
Q 21.96875 47.46875 24.109375 47.828125 
Q 26.265625 48.1875 28.421875 48.1875 
Q 40.625 48.1875 47.75 41.5 
Q 54.890625 34.8125 54.890625 23.390625 
Q 54.890625 11.625 47.5625 5.09375 
Q 40.234375 -1.421875 26.90625 -1.421875 
Q 22.3125 -1.421875 17.546875 -0.640625 
Q 12.796875 0.140625 7.71875 1.703125 
L 7.71875 11.625 
Q 12.109375 9.234375 16.796875 8.0625 
Q 21.484375 6.890625 26.703125 6.890625 
Q 35.15625 6.890625 40.078125 11.328125 
Q 45.015625 15.765625 45.015625 23.390625 
Q 45.015625 31 40.078125 35.4375 
Q 35.15625 39.890625 26.703125 39.890625 
Q 22.75 39.890625 18.8125 39.015625 
Q 14.890625 38.140625 10.796875 36.28125 
z
" id="DejaVuSans-53"/>
      </defs>
      <g transform="translate(108.255974 322.182437)scale(0.1 -0.1)">
       <use xlink:href="#DejaVuSans-50"/>
       <use x="63.623047" xlink:href="#DejaVuSans-53"/>
      </g>
     </g>
    </g>
    <g id="xtick_3">
     <g id="line2d_3">
      <g>
       <use style="stroke:#000000;stroke-width:0.8;" x="155.404221" xlink:href="#me8ac1d5865" y="307.584"/>
      </g>
     </g>
     <g id="text_3">
      <!-- 50 -->
      <g transform="translate(149.041721 322.182437)scale(0.1 -0.1)">
       <use xlink:href="#DejaVuSans-53"/>
       <use x="63.623047" xlink:href="#DejaVuSans-48"/>
      </g>
     </g>
    </g>
    <g id="xtick_4">
     <g id="line2d_4">
      <g>
       <use style="stroke:#000000;stroke-width:0.8;" x="196.189968" xlink:href="#me8ac1d5865" y="307.584"/>
      </g>
     </g>
     <g id="text_4">
      <!-- 75 -->
      <defs>
       <path d="M 8.203125 72.90625 
L 55.078125 72.90625 
L 55.078125 68.703125 
L 28.609375 0 
L 18.3125 0 
L 43.21875 64.59375 
L 8.203125 64.59375 
z
" id="DejaVuSans-55"/>
      </defs>
      <g transform="translate(189.827468 322.182437)scale(0.1 -0.1)">
       <use xlink:href="#DejaVuSans-55"/>
       <use x="63.623047" xlink:href="#DejaVuSans-53"/>
      </g>
     </g>
    </g>
    <g id="xtick_5">
     <g id="line2d_5">
      <g>
       <use style="stroke:#000000;stroke-width:0.8;" x="236.975715" xlink:href="#me8ac1d5865" y="307.584"/>
      </g>
     </g>
     <g id="text_5">
      <!-- 100 -->
      <defs>
       <path d="M 12.40625 8.296875 
L 28.515625 8.296875 
L 28.515625 63.921875 
L 10.984375 60.40625 
L 10.984375 69.390625 
L 28.421875 72.90625 
L 38.28125 72.90625 
L 38.28125 8.296875 
L 54.390625 8.296875 
L 54.390625 0 
L 12.40625 0 
z
" id="DejaVuSans-49"/>
      </defs>
      <g transform="translate(227.431965 322.182437)scale(0.1 -0.1)">
       <use xlink:href="#DejaVuSans-49"/>
       <use x="63.623047" xlink:href="#DejaVuSans-48"/>
       <use x="127.246094" xlink:href="#DejaVuSans-48"/>
      </g>
     </g>
    </g>
    <g id="xtick_6">
     <g id="line2d_6">
      <g>
       <use style="stroke:#000000;stroke-width:0.8;" x="277.761462" xlink:href="#me8ac1d5865" y="307.584"/>
      </g>
     </g>
     <g id="text_6">
      <!-- 125 -->
      <g transform="translate(268.217712 322.182437)scale(0.1 -0.1)">
       <use xlink:href="#DejaVuSans-49"/>
       <use x="63.623047" xlink:href="#DejaVuSans-50"/>
       <use x="127.246094" xlink:href="#DejaVuSans-53"/>
      </g>
     </g>
    </g>
    <g id="xtick_7">
     <g id="line2d_7">
      <g>
       <use style="stroke:#000000;stroke-width:0.8;" x="318.547209" xlink:href="#me8ac1d5865" y="307.584"/>
      </g>
     </g>
     <g id="text_7">
      <!-- 150 -->
      <g transform="translate(309.003459 322.182437)scale(0.1 -0.1)">
       <use xlink:href="#DejaVuSans-49"/>
       <use x="63.623047" xlink:href="#DejaVuSans-53"/>
       <use x="127.246094" xlink:href="#DejaVuSans-48"/>
      </g>
     </g>
    </g>
    <g id="xtick_8">
     <g id="line2d_8">
      <g>
       <use style="stroke:#000000;stroke-width:0.8;" x="359.332956" xlink:href="#me8ac1d5865" y="307.584"/>
      </g>
     </g>
     <g id="text_8">
      <!-- 175 -->
      <g transform="translate(349.789206 322.182437)scale(0.1 -0.1)">
       <use xlink:href="#DejaVuSans-49"/>
       <use x="63.623047" xlink:href="#DejaVuSans-55"/>
       <use x="127.246094" xlink:href="#DejaVuSans-53"/>
      </g>
     </g>
    </g>
    <g id="xtick_9">
     <g id="line2d_9">
      <g>
       <use style="stroke:#000000;stroke-width:0.8;" x="400.118703" xlink:href="#me8ac1d5865" y="307.584"/>
      </g>
     </g>
     <g id="text_9">
      <!-- 200 -->
      <g transform="translate(390.574953 322.182437)scale(0.1 -0.1)">
       <use xlink:href="#DejaVuSans-50"/>
       <use x="63.623047" xlink:href="#DejaVuSans-48"/>
       <use x="127.246094" xlink:href="#DejaVuSans-48"/>
      </g>
     </g>
    </g>
   </g>
   <g id="matplotlib.axis_2">
    <g id="ytick_1">
     <g id="line2d_10">
      <defs>
       <path d="M 0 0 
L -3.5 0 
" id="m0469a09bed" style="stroke:#000000;stroke-width:0.8;"/>
      </defs>
      <g>
       <use style="stroke:#000000;stroke-width:0.8;" x="57.6" xlink:href="#m0469a09bed" y="295.488"/>
      </g>
     </g>
     <g id="text_10">
      <!-- 0.0 -->
      <defs>
       <path d="M 10.6875 12.40625 
L 21 12.40625 
L 21 0 
L 10.6875 0 
z
" id="DejaVuSans-46"/>
      </defs>
      <g transform="translate(34.696875 299.287219)scale(0.1 -0.1)">
       <use xlink:href="#DejaVuSans-48"/>
       <use x="63.623047" xlink:href="#DejaVuSans-46"/>
       <use x="95.410156" xlink:href="#DejaVuSans-48"/>
      </g>
     </g>
    </g>
    <g id="ytick_2">
     <g id="line2d_11">
      <g>
       <use style="stroke:#000000;stroke-width:0.8;" x="57.6" xlink:href="#m0469a09bed" y="244.806436"/>
      </g>
     </g>
     <g id="text_11">
      <!-- 0.2 -->
      <g transform="translate(34.696875 248.605655)scale(0.1 -0.1)">
       <use xlink:href="#DejaVuSans-48"/>
       <use x="63.623047" xlink:href="#DejaVuSans-46"/>
       <use x="95.410156" xlink:href="#DejaVuSans-50"/>
      </g>
     </g>
    </g>
    <g id="ytick_3">
     <g id="line2d_12">
      <g>
       <use style="stroke:#000000;stroke-width:0.8;" x="57.6" xlink:href="#m0469a09bed" y="194.124872"/>
      </g>
     </g>
     <g id="text_12">
      <!-- 0.4 -->
      <defs>
       <path d="M 37.796875 64.3125 
L 12.890625 25.390625 
L 37.796875 25.390625 
z
M 35.203125 72.90625 
L 47.609375 72.90625 
L 47.609375 25.390625 
L 58.015625 25.390625 
L 58.015625 17.1875 
L 47.609375 17.1875 
L 47.609375 0 
L 37.796875 0 
L 37.796875 17.1875 
L 4.890625 17.1875 
L 4.890625 26.703125 
z
" id="DejaVuSans-52"/>
      </defs>
      <g transform="translate(34.696875 197.92409)scale(0.1 -0.1)">
       <use xlink:href="#DejaVuSans-48"/>
       <use x="63.623047" xlink:href="#DejaVuSans-46"/>
       <use x="95.410156" xlink:href="#DejaVuSans-52"/>
      </g>
     </g>
    </g>
    <g id="ytick_4">
     <g id="line2d_13">
      <g>
       <use style="stroke:#000000;stroke-width:0.8;" x="57.6" xlink:href="#m0469a09bed" y="143.443307"/>
      </g>
     </g>
     <g id="text_13">
      <!-- 0.6 -->
      <defs>
       <path d="M 33.015625 40.375 
Q 26.375 40.375 22.484375 35.828125 
Q 18.609375 31.296875 18.609375 23.390625 
Q 18.609375 15.53125 22.484375 10.953125 
Q 26.375 6.390625 33.015625 6.390625 
Q 39.65625 6.390625 43.53125 10.953125 
Q 47.40625 15.53125 47.40625 23.390625 
Q 47.40625 31.296875 43.53125 35.828125 
Q 39.65625 40.375 33.015625 40.375 
z
M 52.59375 71.296875 
L 52.59375 62.3125 
Q 48.875 64.0625 45.09375 64.984375 
Q 41.3125 65.921875 37.59375 65.921875 
Q 27.828125 65.921875 22.671875 59.328125 
Q 17.53125 52.734375 16.796875 39.40625 
Q 19.671875 43.65625 24.015625 45.921875 
Q 28.375 48.1875 33.59375 48.1875 
Q 44.578125 48.1875 50.953125 41.515625 
Q 57.328125 34.859375 57.328125 23.390625 
Q 57.328125 12.15625 50.6875 5.359375 
Q 44.046875 -1.421875 33.015625 -1.421875 
Q 20.359375 -1.421875 13.671875 8.265625 
Q 6.984375 17.96875 6.984375 36.375 
Q 6.984375 53.65625 15.1875 63.9375 
Q 23.390625 74.21875 37.203125 74.21875 
Q 40.921875 74.21875 44.703125 73.484375 
Q 48.484375 72.75 52.59375 71.296875 
z
" id="DejaVuSans-54"/>
      </defs>
      <g transform="translate(34.696875 147.242526)scale(0.1 -0.1)">
       <use xlink:href="#DejaVuSans-48"/>
       <use x="63.623047" xlink:href="#DejaVuSans-46"/>
       <use x="95.410156" xlink:href="#DejaVuSans-54"/>
      </g>
     </g>
    </g>
    <g id="ytick_5">
     <g id="line2d_14">
      <g>
       <use style="stroke:#000000;stroke-width:0.8;" x="57.6" xlink:href="#m0469a09bed" y="92.761743"/>
      </g>
     </g>
     <g id="text_14">
      <!-- 0.8 -->
      <defs>
       <path d="M 31.78125 34.625 
Q 24.75 34.625 20.71875 30.859375 
Q 16.703125 27.09375 16.703125 20.515625 
Q 16.703125 13.921875 20.71875 10.15625 
Q 24.75 6.390625 31.78125 6.390625 
Q 38.8125 6.390625 42.859375 10.171875 
Q 46.921875 13.96875 46.921875 20.515625 
Q 46.921875 27.09375 42.890625 30.859375 
Q 38.875 34.625 31.78125 34.625 
z
M 21.921875 38.8125 
Q 15.578125 40.375 12.03125 44.71875 
Q 8.5 49.078125 8.5 55.328125 
Q 8.5 64.0625 14.71875 69.140625 
Q 20.953125 74.21875 31.78125 74.21875 
Q 42.671875 74.21875 48.875 69.140625 
Q 55.078125 64.0625 55.078125 55.328125 
Q 55.078125 49.078125 51.53125 44.71875 
Q 48 40.375 41.703125 38.8125 
Q 48.828125 37.15625 52.796875 32.3125 
Q 56.78125 27.484375 56.78125 20.515625 
Q 56.78125 9.90625 50.3125 4.234375 
Q 43.84375 -1.421875 31.78125 -1.421875 
Q 19.734375 -1.421875 13.25 4.234375 
Q 6.78125 9.90625 6.78125 20.515625 
Q 6.78125 27.484375 10.78125 32.3125 
Q 14.796875 37.15625 21.921875 38.8125 
z
M 18.3125 54.390625 
Q 18.3125 48.734375 21.84375 45.5625 
Q 25.390625 42.390625 31.78125 42.390625 
Q 38.140625 42.390625 41.71875 45.5625 
Q 45.3125 48.734375 45.3125 54.390625 
Q 45.3125 60.0625 41.71875 63.234375 
Q 38.140625 66.40625 31.78125 66.40625 
Q 25.390625 66.40625 21.84375 63.234375 
Q 18.3125 60.0625 18.3125 54.390625 
z
" id="DejaVuSans-56"/>
      </defs>
      <g transform="translate(34.696875 96.560962)scale(0.1 -0.1)">
       <use xlink:href="#DejaVuSans-48"/>
       <use x="63.623047" xlink:href="#DejaVuSans-46"/>
       <use x="95.410156" xlink:href="#DejaVuSans-56"/>
      </g>
     </g>
    </g>
    <g id="ytick_6">
     <g id="line2d_15">
      <g>
       <use style="stroke:#000000;stroke-width:0.8;" x="57.6" xlink:href="#m0469a09bed" y="42.080179"/>
      </g>
     </g>
     <g id="text_15">
      <!-- 1.0 -->
      <g transform="translate(34.696875 45.879398)scale(0.1 -0.1)">
       <use xlink:href="#DejaVuSans-49"/>
       <use x="63.623047" xlink:href="#DejaVuSans-46"/>
       <use x="95.410156" xlink:href="#DejaVuSans-48"/>
      </g>
     </g>
    </g>
   </g>
   <g id="line2d_16">
    <path clip-path="url(#p56ca68759a)" d="M 73.832727 211.018726 
L 259.815733 211.018726 
L 261.447163 170.811352 
L 263.078593 148.173587 
L 264.710023 138.375151 
L 269.604312 138.375151 
L 271.235742 137.36152 
L 272.867172 138.375151 
L 274.498602 138.375151 
L 276.130032 133.982749 
L 277.761462 136.685765 
L 279.392892 126.549453 
L 281.024322 126.549453 
L 282.655751 138.375151 
L 284.287181 128.069899 
L 285.918611 126.549453 
L 287.550041 128.069899 
L 289.181471 136.685765 
L 290.812901 138.375151 
L 292.444331 137.868335 
L 294.075761 138.375151 
L 295.70719 126.58324 
L 297.33862 127.394145 
L 298.97005 128.069899 
L 300.60148 133.644872 
L 302.23291 128.914592 
L 303.86434 141.111955 
L 305.49577 138.375151 
L 307.1272 141.641296 
L 308.75863 138.375151 
L 310.390059 136.66373 
L 312.021489 141.247106 
L 313.652919 151.21448 
L 315.284349 127.563084 
L 316.915779 138.375151 
L 318.547209 134.99638 
L 320.178639 126.88733 
L 321.810069 138.375151 
L 323.441498 138.375151 
L 325.072928 126.549453 
L 326.704358 134.489564 
L 328.335788 127.394145 
L 329.967218 126.549453 
L 333.230078 126.568223 
L 334.861508 126.736492 
L 336.492937 126.549453 
L 338.124367 126.549453 
L 339.755797 126.88733 
L 341.387227 130.603978 
L 343.018657 134.99638 
L 344.650087 126.549453 
L 347.912947 126.549453 
L 349.544376 133.475933 
L 351.175806 126.549453 
L 352.807236 135.841073 
L 354.438666 126.549453 
L 356.070096 127.900961 
L 357.701526 126.549453 
L 359.332956 138.375151 
L 360.964386 126.549453 
L 362.595815 127.732022 
L 364.227245 126.549453 
L 365.858675 136.347888 
L 367.490105 126.549453 
L 375.647254 126.549453 
L 377.278684 129.083531 
L 378.910114 126.549453 
L 385.435834 126.549453 
L 387.067264 135.672134 
L 388.698693 127.056268 
L 390.330123 126.549453 
L 391.961553 126.549453 
L 393.592983 133.644872 
L 395.224413 136.010011 
L 396.855843 138.713028 
L 398.487273 138.375151 
L 398.487273 138.375151 
" style="fill:none;stroke:#1f77b4;stroke-linecap:square;stroke-width:0.25;"/>
   </g>
   <g id="line2d_17">
    <path clip-path="url(#p56ca68759a)" d="M 73.832727 211.018726 
L 251.658584 211.018726 
L 253.290014 210.690985 
L 254.921444 211.018726 
L 256.552873 210.40852 
L 258.184303 203.600063 
L 259.815733 186.762256 
L 261.447163 176.568042 
L 263.078593 160.300595 
L 264.710023 146.944748 
L 266.341453 155.435034 
L 267.972883 156.972751 
L 269.604312 149.37305 
L 271.235742 151.823673 
L 272.867172 158.978574 
L 274.498602 152.578152 
L 276.130032 156.142128 
L 277.761462 151.710914 
L 279.392892 152.160215 
L 281.024322 150.183955 
L 282.655751 152.779527 
L 284.287181 146.255603 
L 285.918611 149.437907 
L 287.550041 150.933029 
L 289.181471 150.500973 
L 290.812901 153.977559 
L 292.444331 151.394192 
L 294.075761 152.396794 
L 295.70719 147.848912 
L 297.33862 150.045748 
L 298.97005 148.535277 
L 300.60148 152.588635 
L 302.23291 146.854901 
L 303.86434 161.068344 
L 305.49577 154.42985 
L 307.1272 161.132539 
L 308.75863 155.85417 
L 310.390059 151.203674 
L 312.021489 162.017598 
L 313.652919 167.846112 
L 315.284349 155.009829 
L 316.915779 158.663812 
L 318.547209 151.402374 
L 320.178639 141.679013 
L 321.810069 154.211366 
L 323.441498 153.473557 
L 325.072928 150.059145 
L 326.704358 149.116892 
L 328.335788 136.731096 
L 329.967218 128.150446 
L 331.598648 121.051266 
L 333.230078 135.506983 
L 334.861508 133.156524 
L 336.492937 129.201123 
L 338.124367 126.815031 
L 339.755797 139.581356 
L 341.387227 137.377165 
L 343.018657 137.094895 
L 344.650087 129.332702 
L 346.281517 131.924872 
L 347.912947 127.712951 
L 349.544376 131.956919 
L 351.175806 129.624662 
L 352.807236 134.360338 
L 354.438666 130.618229 
L 356.070096 137.383829 
L 357.701526 134.322459 
L 359.332956 139.353224 
L 360.964386 135.974162 
L 362.595815 131.094009 
L 364.227245 129.162788 
L 365.858675 139.044375 
L 367.490105 133.062414 
L 369.121535 132.889092 
L 370.752965 130.541293 
L 372.384395 132.860007 
L 374.015825 131.474819 
L 375.647254 137.565716 
L 377.278684 135.312565 
L 378.910114 128.200166 
L 380.541544 130.183395 
L 382.172974 138.6833 
L 383.804404 130.049694 
L 385.435834 128.721028 
L 387.067264 132.719803 
L 388.698693 132.285121 
L 390.330123 122.94448 
L 391.961553 124.358502 
L 393.592983 139.483253 
L 395.224413 132.948007 
L 396.855843 151.173129 
L 398.487273 143.915061 
L 398.487273 143.915061 
" style="fill:none;stroke:#2ca02c;stroke-linecap:square;stroke-width:0.75;"/>
   </g>
   <g id="patch_3">
    <path d="M 57.6 307.584 
L 57.6 41.472 
" style="fill:none;stroke:#000000;stroke-linecap:square;stroke-linejoin:miter;stroke-width:0.8;"/>
   </g>
   <g id="patch_4">
    <path d="M 414.72 307.584 
L 414.72 41.472 
" style="fill:none;stroke:#000000;stroke-linecap:square;stroke-linejoin:miter;stroke-width:0.8;"/>
   </g>
   <g id="patch_5">
    <path d="M 57.6 307.584 
L 414.72 307.584 
" style="fill:none;stroke:#000000;stroke-linecap:square;stroke-linejoin:miter;stroke-width:0.8;"/>
   </g>
   <g id="patch_6">
    <path d="M 57.6 41.472 
L 414.72 41.472 
" style="fill:none;stroke:#000000;stroke-linecap:square;stroke-linejoin:miter;stroke-width:0.8;"/>
   </g>
   <g id="legend_1">
    <g id="patch_7">
     <path d="M 338.234063 78.82825 
L 407.72 78.82825 
Q 409.72 78.82825 409.72 76.82825 
L 409.72 48.472 
Q 409.72 46.472 407.72 46.472 
L 338.234063 46.472 
Q 336.234063 46.472 336.234063 48.472 
L 336.234063 76.82825 
Q 336.234063 78.82825 338.234063 78.82825 
z
" style="fill:#ffffff;opacity:0.8;stroke:#cccccc;stroke-linejoin:miter;"/>
    </g>
    <g id="line2d_18">
     <path d="M 340.234063 54.570437 
L 360.234063 54.570437 
" style="fill:none;stroke:#1f77b4;stroke-linecap:square;stroke-width:0.25;"/>
    </g>
    <g id="line2d_19"/>
    <g id="text_16">
     <!-- median -->
     <defs>
      <path d="M 52 44.1875 
Q 55.375 50.25 60.0625 53.125 
Q 64.75 56 71.09375 56 
Q 79.640625 56 84.28125 50.015625 
Q 88.921875 44.046875 88.921875 33.015625 
L 88.921875 0 
L 79.890625 0 
L 79.890625 32.71875 
Q 79.890625 40.578125 77.09375 44.375 
Q 74.3125 48.1875 68.609375 48.1875 
Q 61.625 48.1875 57.5625 43.546875 
Q 53.515625 38.921875 53.515625 30.90625 
L 53.515625 0 
L 44.484375 0 
L 44.484375 32.71875 
Q 44.484375 40.625 41.703125 44.40625 
Q 38.921875 48.1875 33.109375 48.1875 
Q 26.21875 48.1875 22.15625 43.53125 
Q 18.109375 38.875 18.109375 30.90625 
L 18.109375 0 
L 9.078125 0 
L 9.078125 54.6875 
L 18.109375 54.6875 
L 18.109375 46.1875 
Q 21.1875 51.21875 25.484375 53.609375 
Q 29.78125 56 35.6875 56 
Q 41.65625 56 45.828125 52.96875 
Q 50 49.953125 52 44.1875 
z
" id="DejaVuSans-109"/>
      <path d="M 56.203125 29.59375 
L 56.203125 25.203125 
L 14.890625 25.203125 
Q 15.484375 15.921875 20.484375 11.0625 
Q 25.484375 6.203125 34.421875 6.203125 
Q 39.59375 6.203125 44.453125 7.46875 
Q 49.3125 8.734375 54.109375 11.28125 
L 54.109375 2.78125 
Q 49.265625 0.734375 44.1875 -0.34375 
Q 39.109375 -1.421875 33.890625 -1.421875 
Q 20.796875 -1.421875 13.15625 6.1875 
Q 5.515625 13.8125 5.515625 26.8125 
Q 5.515625 40.234375 12.765625 48.109375 
Q 20.015625 56 32.328125 56 
Q 43.359375 56 49.78125 48.890625 
Q 56.203125 41.796875 56.203125 29.59375 
z
M 47.21875 32.234375 
Q 47.125 39.59375 43.09375 43.984375 
Q 39.0625 48.390625 32.421875 48.390625 
Q 24.90625 48.390625 20.390625 44.140625 
Q 15.875 39.890625 15.1875 32.171875 
z
" id="DejaVuSans-101"/>
      <path d="M 45.40625 46.390625 
L 45.40625 75.984375 
L 54.390625 75.984375 
L 54.390625 0 
L 45.40625 0 
L 45.40625 8.203125 
Q 42.578125 3.328125 38.25 0.953125 
Q 33.9375 -1.421875 27.875 -1.421875 
Q 17.96875 -1.421875 11.734375 6.484375 
Q 5.515625 14.40625 5.515625 27.296875 
Q 5.515625 40.1875 11.734375 48.09375 
Q 17.96875 56 27.875 56 
Q 33.9375 56 38.25 53.625 
Q 42.578125 51.265625 45.40625 46.390625 
z
M 14.796875 27.296875 
Q 14.796875 17.390625 18.875 11.75 
Q 22.953125 6.109375 30.078125 6.109375 
Q 37.203125 6.109375 41.296875 11.75 
Q 45.40625 17.390625 45.40625 27.296875 
Q 45.40625 37.203125 41.296875 42.84375 
Q 37.203125 48.484375 30.078125 48.484375 
Q 22.953125 48.484375 18.875 42.84375 
Q 14.796875 37.203125 14.796875 27.296875 
z
" id="DejaVuSans-100"/>
      <path d="M 9.421875 54.6875 
L 18.40625 54.6875 
L 18.40625 0 
L 9.421875 0 
z
M 9.421875 75.984375 
L 18.40625 75.984375 
L 18.40625 64.59375 
L 9.421875 64.59375 
z
" id="DejaVuSans-105"/>
      <path d="M 34.28125 27.484375 
Q 23.390625 27.484375 19.1875 25 
Q 14.984375 22.515625 14.984375 16.5 
Q 14.984375 11.71875 18.140625 8.90625 
Q 21.296875 6.109375 26.703125 6.109375 
Q 34.1875 6.109375 38.703125 11.40625 
Q 43.21875 16.703125 43.21875 25.484375 
L 43.21875 27.484375 
z
M 52.203125 31.203125 
L 52.203125 0 
L 43.21875 0 
L 43.21875 8.296875 
Q 40.140625 3.328125 35.546875 0.953125 
Q 30.953125 -1.421875 24.3125 -1.421875 
Q 15.921875 -1.421875 10.953125 3.296875 
Q 6 8.015625 6 15.921875 
Q 6 25.140625 12.171875 29.828125 
Q 18.359375 34.515625 30.609375 34.515625 
L 43.21875 34.515625 
L 43.21875 35.40625 
Q 43.21875 41.609375 39.140625 45 
Q 35.0625 48.390625 27.6875 48.390625 
Q 23 48.390625 18.546875 47.265625 
Q 14.109375 46.140625 10.015625 43.890625 
L 10.015625 52.203125 
Q 14.9375 54.109375 19.578125 55.046875 
Q 24.21875 56 28.609375 56 
Q 40.484375 56 46.34375 49.84375 
Q 52.203125 43.703125 52.203125 31.203125 
z
" id="DejaVuSans-97"/>
      <path d="M 54.890625 33.015625 
L 54.890625 0 
L 45.90625 0 
L 45.90625 32.71875 
Q 45.90625 40.484375 42.875 44.328125 
Q 39.84375 48.1875 33.796875 48.1875 
Q 26.515625 48.1875 22.3125 43.546875 
Q 18.109375 38.921875 18.109375 30.90625 
L 18.109375 0 
L 9.078125 0 
L 9.078125 54.6875 
L 18.109375 54.6875 
L 18.109375 46.1875 
Q 21.34375 51.125 25.703125 53.5625 
Q 30.078125 56 35.796875 56 
Q 45.21875 56 50.046875 50.171875 
Q 54.890625 44.34375 54.890625 33.015625 
z
" id="DejaVuSans-110"/>
     </defs>
     <g transform="translate(368.234063 58.070437)scale(0.1 -0.1)">
      <use xlink:href="#DejaVuSans-109"/>
      <use x="97.412109" xlink:href="#DejaVuSans-101"/>
      <use x="158.935547" xlink:href="#DejaVuSans-100"/>
      <use x="222.412109" xlink:href="#DejaVuSans-105"/>
      <use x="250.195312" xlink:href="#DejaVuSans-97"/>
      <use x="311.474609" xlink:href="#DejaVuSans-110"/>
     </g>
    </g>
    <g id="line2d_20">
     <path d="M 340.234063 69.248562 
L 360.234063 69.248562 
" style="fill:none;stroke:#2ca02c;stroke-linecap:square;stroke-width:0.75;"/>
    </g>
    <g id="line2d_21"/>
    <g id="text_17">
     <!-- mean -->
     <g transform="translate(368.234063 72.748562)scale(0.1 -0.1)">
      <use xlink:href="#DejaVuSans-109"/>
      <use x="97.412109" xlink:href="#DejaVuSans-101"/>
      <use x="158.935547" xlink:href="#DejaVuSans-97"/>
      <use x="220.214844" xlink:href="#DejaVuSans-110"/>
     </g>
    </g>
   </g>
  </g>
  <g id="text_18">
   <!-- accuracy.mean over generations -->
   <defs>
    <path d="M 48.78125 52.59375 
L 48.78125 44.1875 
Q 44.96875 46.296875 41.140625 47.34375 
Q 37.3125 48.390625 33.40625 48.390625 
Q 24.65625 48.390625 19.8125 42.84375 
Q 14.984375 37.3125 14.984375 27.296875 
Q 14.984375 17.28125 19.8125 11.734375 
Q 24.65625 6.203125 33.40625 6.203125 
Q 37.3125 6.203125 41.140625 7.25 
Q 44.96875 8.296875 48.78125 10.40625 
L 48.78125 2.09375 
Q 45.015625 0.34375 40.984375 -0.53125 
Q 36.96875 -1.421875 32.421875 -1.421875 
Q 20.0625 -1.421875 12.78125 6.34375 
Q 5.515625 14.109375 5.515625 27.296875 
Q 5.515625 40.671875 12.859375 48.328125 
Q 20.21875 56 33.015625 56 
Q 37.15625 56 41.109375 55.140625 
Q 45.0625 54.296875 48.78125 52.59375 
z
" id="DejaVuSans-99"/>
    <path d="M 8.5 21.578125 
L 8.5 54.6875 
L 17.484375 54.6875 
L 17.484375 21.921875 
Q 17.484375 14.15625 20.5 10.265625 
Q 23.53125 6.390625 29.59375 6.390625 
Q 36.859375 6.390625 41.078125 11.03125 
Q 45.3125 15.671875 45.3125 23.6875 
L 45.3125 54.6875 
L 54.296875 54.6875 
L 54.296875 0 
L 45.3125 0 
L 45.3125 8.40625 
Q 42.046875 3.421875 37.71875 1 
Q 33.40625 -1.421875 27.6875 -1.421875 
Q 18.265625 -1.421875 13.375 4.4375 
Q 8.5 10.296875 8.5 21.578125 
z
M 31.109375 56 
z
" id="DejaVuSans-117"/>
    <path d="M 41.109375 46.296875 
Q 39.59375 47.171875 37.8125 47.578125 
Q 36.03125 48 33.890625 48 
Q 26.265625 48 22.1875 43.046875 
Q 18.109375 38.09375 18.109375 28.8125 
L 18.109375 0 
L 9.078125 0 
L 9.078125 54.6875 
L 18.109375 54.6875 
L 18.109375 46.1875 
Q 20.953125 51.171875 25.484375 53.578125 
Q 30.03125 56 36.53125 56 
Q 37.453125 56 38.578125 55.875 
Q 39.703125 55.765625 41.0625 55.515625 
z
" id="DejaVuSans-114"/>
    <path d="M 32.171875 -5.078125 
Q 28.375 -14.84375 24.75 -17.8125 
Q 21.140625 -20.796875 15.09375 -20.796875 
L 7.90625 -20.796875 
L 7.90625 -13.28125 
L 13.1875 -13.28125 
Q 16.890625 -13.28125 18.9375 -11.515625 
Q 21 -9.765625 23.484375 -3.21875 
L 25.09375 0.875 
L 2.984375 54.6875 
L 12.5 54.6875 
L 29.59375 11.921875 
L 46.6875 54.6875 
L 56.203125 54.6875 
z
" id="DejaVuSans-121"/>
    <path id="DejaVuSans-32"/>
    <path d="M 30.609375 48.390625 
Q 23.390625 48.390625 19.1875 42.75 
Q 14.984375 37.109375 14.984375 27.296875 
Q 14.984375 17.484375 19.15625 11.84375 
Q 23.34375 6.203125 30.609375 6.203125 
Q 37.796875 6.203125 41.984375 11.859375 
Q 46.1875 17.53125 46.1875 27.296875 
Q 46.1875 37.015625 41.984375 42.703125 
Q 37.796875 48.390625 30.609375 48.390625 
z
M 30.609375 56 
Q 42.328125 56 49.015625 48.375 
Q 55.71875 40.765625 55.71875 27.296875 
Q 55.71875 13.875 49.015625 6.21875 
Q 42.328125 -1.421875 30.609375 -1.421875 
Q 18.84375 -1.421875 12.171875 6.21875 
Q 5.515625 13.875 5.515625 27.296875 
Q 5.515625 40.765625 12.171875 48.375 
Q 18.84375 56 30.609375 56 
z
" id="DejaVuSans-111"/>
    <path d="M 2.984375 54.6875 
L 12.5 54.6875 
L 29.59375 8.796875 
L 46.6875 54.6875 
L 56.203125 54.6875 
L 35.6875 0 
L 23.484375 0 
z
" id="DejaVuSans-118"/>
    <path d="M 45.40625 27.984375 
Q 45.40625 37.75 41.375 43.109375 
Q 37.359375 48.484375 30.078125 48.484375 
Q 22.859375 48.484375 18.828125 43.109375 
Q 14.796875 37.75 14.796875 27.984375 
Q 14.796875 18.265625 18.828125 12.890625 
Q 22.859375 7.515625 30.078125 7.515625 
Q 37.359375 7.515625 41.375 12.890625 
Q 45.40625 18.265625 45.40625 27.984375 
z
M 54.390625 6.78125 
Q 54.390625 -7.171875 48.1875 -13.984375 
Q 42 -20.796875 29.203125 -20.796875 
Q 24.46875 -20.796875 20.265625 -20.09375 
Q 16.0625 -19.390625 12.109375 -17.921875 
L 12.109375 -9.1875 
Q 16.0625 -11.328125 19.921875 -12.34375 
Q 23.78125 -13.375 27.78125 -13.375 
Q 36.625 -13.375 41.015625 -8.765625 
Q 45.40625 -4.15625 45.40625 5.171875 
L 45.40625 9.625 
Q 42.625 4.78125 38.28125 2.390625 
Q 33.9375 0 27.875 0 
Q 17.828125 0 11.671875 7.65625 
Q 5.515625 15.328125 5.515625 27.984375 
Q 5.515625 40.671875 11.671875 48.328125 
Q 17.828125 56 27.875 56 
Q 33.9375 56 38.28125 53.609375 
Q 42.625 51.21875 45.40625 46.390625 
L 45.40625 54.6875 
L 54.390625 54.6875 
z
" id="DejaVuSans-103"/>
    <path d="M 18.3125 70.21875 
L 18.3125 54.6875 
L 36.8125 54.6875 
L 36.8125 47.703125 
L 18.3125 47.703125 
L 18.3125 18.015625 
Q 18.3125 11.328125 20.140625 9.421875 
Q 21.96875 7.515625 27.59375 7.515625 
L 36.8125 7.515625 
L 36.8125 0 
L 27.59375 0 
Q 17.1875 0 13.234375 3.875 
Q 9.28125 7.765625 9.28125 18.015625 
L 9.28125 47.703125 
L 2.6875 47.703125 
L 2.6875 54.6875 
L 9.28125 54.6875 
L 9.28125 70.21875 
z
" id="DejaVuSans-116"/>
    <path d="M 44.28125 53.078125 
L 44.28125 44.578125 
Q 40.484375 46.53125 36.375 47.5 
Q 32.28125 48.484375 27.875 48.484375 
Q 21.1875 48.484375 17.84375 46.4375 
Q 14.5 44.390625 14.5 40.28125 
Q 14.5 37.15625 16.890625 35.375 
Q 19.28125 33.59375 26.515625 31.984375 
L 29.59375 31.296875 
Q 39.15625 29.25 43.1875 25.515625 
Q 47.21875 21.78125 47.21875 15.09375 
Q 47.21875 7.46875 41.1875 3.015625 
Q 35.15625 -1.421875 24.609375 -1.421875 
Q 20.21875 -1.421875 15.453125 -0.5625 
Q 10.6875 0.296875 5.421875 2 
L 5.421875 11.28125 
Q 10.40625 8.6875 15.234375 7.390625 
Q 20.0625 6.109375 24.8125 6.109375 
Q 31.15625 6.109375 34.5625 8.28125 
Q 37.984375 10.453125 37.984375 14.40625 
Q 37.984375 18.0625 35.515625 20.015625 
Q 33.0625 21.96875 24.703125 23.78125 
L 21.578125 24.515625 
Q 13.234375 26.265625 9.515625 29.90625 
Q 5.8125 33.546875 5.8125 39.890625 
Q 5.8125 47.609375 11.28125 51.796875 
Q 16.75 56 26.8125 56 
Q 31.78125 56 36.171875 55.265625 
Q 40.578125 54.546875 44.28125 53.078125 
z
" id="DejaVuSans-115"/>
   </defs>
   <g transform="translate(132.309375 16.030125)scale(0.12 -0.12)">
    <use xlink:href="#DejaVuSans-97"/>
    <use x="61.279297" xlink:href="#DejaVuSans-99"/>
    <use x="116.259766" xlink:href="#DejaVuSans-99"/>
    <use x="171.240234" xlink:href="#DejaVuSans-117"/>
    <use x="234.619141" xlink:href="#DejaVuSans-114"/>
    <use x="275.732422" xlink:href="#DejaVuSans-97"/>
    <use x="337.011719" xlink:href="#DejaVuSans-99"/>
    <use x="391.992188" xlink:href="#DejaVuSans-121"/>
    <use x="436.921875" xlink:href="#DejaVuSans-46"/>
    <use x="468.708984" xlink:href="#DejaVuSans-109"/>
    <use x="566.121094" xlink:href="#DejaVuSans-101"/>
    <use x="627.644531" xlink:href="#DejaVuSans-97"/>
    <use x="688.923828" xlink:href="#DejaVuSans-110"/>
    <use x="752.302734" xlink:href="#DejaVuSans-32"/>
    <use x="784.089844" xlink:href="#DejaVuSans-111"/>
    <use x="845.271484" xlink:href="#DejaVuSans-118"/>
    <use x="904.451172" xlink:href="#DejaVuSans-101"/>
    <use x="965.974609" xlink:href="#DejaVuSans-114"/>
    <use x="1007.087891" xlink:href="#DejaVuSans-32"/>
    <use x="1038.875" xlink:href="#DejaVuSans-103"/>
    <use x="1102.351562" xlink:href="#DejaVuSans-101"/>
    <use x="1163.875" xlink:href="#DejaVuSans-110"/>
    <use x="1227.253906" xlink:href="#DejaVuSans-101"/>
    <use x="1288.777344" xlink:href="#DejaVuSans-114"/>
    <use x="1329.890625" xlink:href="#DejaVuSans-97"/>
    <use x="1391.169922" xlink:href="#DejaVuSans-116"/>
    <use x="1430.378906" xlink:href="#DejaVuSans-105"/>
    <use x="1458.162109" xlink:href="#DejaVuSans-111"/>
    <use x="1519.34375" xlink:href="#DejaVuSans-110"/>
    <use x="1582.722656" xlink:href="#DejaVuSans-115"/>
   </g>
  </g>
 </g>
 <defs>
  <clipPath id="p56ca68759a">
   <rect height="266.112" width="357.12" x="57.6" y="41.472"/>
  </clipPath>
 </defs>
</svg>
