<?xml version="1.0" encoding="utf-8" standalone="no"?>
<!DOCTYPE svg PUBLIC "-//W3C//DTD SVG 1.1//EN"
  "http://www.w3.org/Graphics/SVG/1.1/DTD/svg11.dtd">
<!-- Created with matplotlib (https://matplotlib.org/) -->
<svg height="345.6pt" version="1.1" viewBox="0 0 460.8 345.6" width="460.8pt" xmlns="http://www.w3.org/2000/svg" xmlns:xlink="http://www.w3.org/1999/xlink">
 <defs>
  <style type="text/css">
*{stroke-linecap:butt;stroke-linejoin:round;}
  </style>
 </defs>
 <g id="figure_1">
  <g id="patch_1">
   <path d="M 0 345.6 
L 460.8 345.6 
L 460.8 0 
L 0 0 
z
" style="fill:#ffffff;"/>
  </g>
  <g id="axes_1">
   <g id="patch_2">
    <path d="M 57.6 307.584 
L 414.72 307.584 
L 414.72 41.472 
L 57.6 41.472 
z
" style="fill:#ffffff;"/>
   </g>
   <g id="PolyCollection_1">
    <path clip-path="url(#p3f909c40d7)" d="M 73.832727 211.018726 
L 73.832727 211.018726 
L 75.464157 211.018726 
L 77.095587 211.018726 
L 78.727017 211.018726 
L 80.358447 211.018726 
L 81.989877 211.018726 
L 83.621307 211.018726 
L 85.252736 211.018726 
L 86.884166 211.018726 
L 88.515596 211.018726 
L 90.147026 211.018726 
L 91.778456 211.018726 
L 93.409886 211.018726 
L 95.041316 211.018726 
L 96.672746 211.018726 
L 98.304175 211.018726 
L 99.935605 211.018726 
L 101.567035 211.018726 
L 103.198465 211.018726 
L 104.829895 211.018726 
L 106.461325 211.018726 
L 108.092755 211.018726 
L 109.724185 211.018726 
L 111.355614 211.018726 
L 112.987044 211.018726 
L 114.618474 211.018726 
L 116.249904 211.018726 
L 117.881334 211.018726 
L 119.512764 211.018726 
L 121.144194 211.018726 
L 122.775624 211.018726 
L 124.407053 211.018726 
L 126.038483 211.018726 
L 127.669913 211.018726 
L 129.301343 211.018726 
L 130.932773 211.018726 
L 132.564203 211.018726 
L 134.195633 211.018726 
L 135.827063 211.018726 
L 137.458492 211.018726 
L 139.089922 211.018726 
L 140.721352 211.018726 
L 142.352782 211.018726 
L 143.984212 211.018726 
L 145.615642 211.018726 
L 147.247072 211.018726 
L 148.878502 211.018726 
L 150.509931 211.018726 
L 152.141361 211.018726 
L 153.772791 211.018726 
L 155.404221 211.018726 
L 157.035651 211.018726 
L 158.667081 211.018726 
L 160.298511 211.018726 
L 161.929941 211.018726 
L 163.56137 211.018726 
L 165.1928 211.018726 
L 166.82423 211.018726 
L 168.45566 211.018726 
L 170.08709 211.018726 
L 171.71852 211.018726 
L 173.34995 211.018726 
L 174.98138 211.018726 
L 176.61281 211.018726 
L 178.244239 211.018726 
L 179.875669 211.018726 
L 181.507099 211.018726 
L 183.138529 211.018726 
L 184.769959 211.018726 
L 186.401389 211.018726 
L 188.032819 211.018726 
L 189.664249 211.018726 
L 191.295678 211.018726 
L 192.927108 211.018726 
L 194.558538 211.018726 
L 196.189968 211.018726 
L 197.821398 211.018726 
L 199.452828 211.018726 
L 201.084258 211.018726 
L 202.715688 211.018726 
L 204.347117 211.018726 
L 205.978547 211.018726 
L 207.609977 211.018726 
L 209.241407 211.018726 
L 210.872837 211.018726 
L 212.504267 211.018726 
L 214.135697 211.018726 
L 215.767127 211.018726 
L 217.398556 211.018726 
L 219.029986 211.018726 
L 220.661416 211.018726 
L 222.292846 211.018726 
L 223.924276 211.018726 
L 225.555706 211.018726 
L 227.187136 211.018726 
L 228.818566 211.018726 
L 230.449995 211.018726 
L 232.081425 211.018726 
L 233.712855 211.018726 
L 235.344285 211.018726 
L 236.975715 211.018726 
L 238.607145 211.018726 
L 240.238575 211.018726 
L 241.870005 211.018726 
L 243.501434 211.018726 
L 245.132864 211.018726 
L 246.764294 211.018726 
L 248.395724 211.018726 
L 250.027154 211.018726 
L 251.658584 211.018726 
L 253.290014 211.018726 
L 254.921444 211.018726 
L 256.552873 211.018726 
L 258.184303 211.018726 
L 259.815733 211.018726 
L 261.447163 211.018726 
L 263.078593 211.018726 
L 264.710023 211.018726 
L 266.341453 211.018726 
L 267.972883 211.018726 
L 269.604312 211.018726 
L 271.235742 211.018726 
L 272.867172 211.018726 
L 274.498602 211.018726 
L 276.130032 211.018726 
L 277.761462 209.836156 
L 279.392892 211.018726 
L 281.024322 211.018726 
L 282.655751 211.018726 
L 284.287181 211.018726 
L 285.918611 211.018726 
L 287.550041 211.018726 
L 289.181471 211.018726 
L 290.812901 211.018726 
L 292.444331 211.018726 
L 294.075761 211.018726 
L 295.70719 211.018726 
L 297.33862 211.018726 
L 298.97005 211.018726 
L 300.60148 211.018726 
L 302.23291 211.018726 
L 303.86434 211.018726 
L 305.49577 211.018726 
L 307.1272 211.018726 
L 308.75863 211.018726 
L 310.390059 211.018726 
L 312.021489 211.018726 
L 313.652919 211.018726 
L 315.284349 211.018726 
L 316.915779 211.018726 
L 318.547209 211.018726 
L 320.178639 211.018726 
L 321.810069 211.018726 
L 323.441498 211.018726 
L 325.072928 211.018726 
L 326.704358 211.018726 
L 328.335788 211.018726 
L 329.967218 211.018726 
L 331.598648 211.018726 
L 333.230078 211.018726 
L 334.861508 211.018726 
L 336.492937 211.018726 
L 338.124367 211.018726 
L 339.755797 198.010458 
L 341.387227 211.018726 
L 343.018657 211.018726 
L 344.650087 211.018726 
L 346.281517 211.018726 
L 347.912947 211.018726 
L 349.544376 211.018726 
L 351.175806 211.018726 
L 352.807236 211.018726 
L 354.438666 211.018726 
L 356.070096 211.018726 
L 357.701526 211.018726 
L 359.332956 211.018726 
L 360.964386 211.018726 
L 362.595815 211.018726 
L 364.227245 211.018726 
L 365.858675 211.018726 
L 367.490105 211.018726 
L 369.121535 211.018726 
L 370.752965 211.018726 
L 372.384395 211.018726 
L 374.015825 211.018726 
L 375.647254 211.018726 
L 377.278684 211.018726 
L 378.910114 211.018726 
L 380.541544 211.018726 
L 382.172974 211.018726 
L 383.804404 211.018726 
L 385.435834 211.018726 
L 387.067264 211.018726 
L 388.698693 211.018726 
L 390.330123 211.018726 
L 391.961553 211.018726 
L 393.592983 211.018726 
L 395.224413 211.018726 
L 396.855843 211.018726 
L 398.487273 211.018726 
L 398.487273 126.549453 
L 398.487273 126.549453 
L 396.855843 143.443307 
L 395.224413 143.443307 
L 393.592983 126.549453 
L 391.961553 135.672134 
L 390.330123 126.549453 
L 388.698693 126.549453 
L 387.067264 126.549453 
L 385.435834 130.743352 
L 383.804404 131.431777 
L 382.172974 135.672134 
L 380.541544 126.549453 
L 378.910114 126.549453 
L 377.278684 128.97895 
L 375.647254 126.986489 
L 374.015825 127.962128 
L 372.384395 144.945654 
L 370.752965 126.549453 
L 369.121535 126.549453 
L 367.490105 126.549453 
L 365.858675 126.549453 
L 364.227245 126.549453 
L 362.595815 143.443307 
L 360.964386 126.549453 
L 359.332956 189.547971 
L 357.701526 126.549453 
L 356.070096 127.152804 
L 354.438666 126.549453 
L 352.807236 126.549453 
L 351.175806 130.447106 
L 349.544376 171.149229 
L 347.912947 126.614724 
L 346.281517 126.549453 
L 344.650087 126.574793 
L 343.018657 128.335978 
L 341.387227 170.247712 
L 339.755797 126.549453 
L 338.124367 126.549453 
L 336.492937 126.88733 
L 334.861508 111.260514 
L 333.230078 126.549453 
L 331.598648 126.549453 
L 329.967218 126.549453 
L 328.335788 187.673851 
L 326.704358 157.942642 
L 325.072928 126.549453 
L 323.441498 137.108112 
L 321.810069 126.549453 
L 320.178639 126.549453 
L 318.547209 126.549453 
L 316.915779 128.158592 
L 315.284349 145.723978 
L 313.652919 143.443307 
L 312.021489 126.549453 
L 310.390059 127.225207 
L 308.75863 128.039183 
L 307.1272 126.549453 
L 305.49577 163.602576 
L 303.86434 158.712753 
L 302.23291 130.519508 
L 300.60148 137.023642 
L 298.97005 143.443307 
L 297.33862 163.388112 
L 295.70719 130.688447 
L 294.075761 191.421855 
L 292.444331 169.290905 
L 290.812901 129.590346 
L 289.181471 188.380961 
L 287.550041 196.490011 
L 285.918611 171.06476 
L 284.287181 179.849564 
L 282.655751 194.690448 
L 281.024322 158.22543 
L 279.392892 163.884872 
L 277.761462 163.040179 
L 276.130032 179.258279 
L 274.498602 178.920402 
L 272.867172 166.925765 
L 271.235742 172.677721 
L 269.604312 178.075709 
L 267.972883 149.778503 
L 266.341453 186.052022 
L 264.710023 179.258279 
L 263.078593 199.41476 
L 261.447163 182.299173 
L 259.815733 185.340067 
L 258.184303 182.299173 
L 256.552873 205.95057 
L 254.921444 194.840045 
L 253.290014 186.353698 
L 251.658584 189.732469 
L 250.027154 199.711362 
L 248.395724 190.746101 
L 246.764294 194.462749 
L 245.132864 197.165765 
L 243.501434 189.77654 
L 241.870005 196.152134 
L 240.238575 211.018726 
L 238.607145 211.018726 
L 236.975715 209.329341 
L 235.344285 211.018726 
L 233.712855 211.018726 
L 232.081425 211.018726 
L 230.449995 211.018726 
L 228.818566 211.018726 
L 227.187136 211.018726 
L 225.555706 211.018726 
L 223.924276 211.018726 
L 222.292846 211.018726 
L 220.661416 211.018726 
L 219.029986 211.018726 
L 217.398556 211.018726 
L 215.767127 211.018726 
L 214.135697 211.018726 
L 212.504267 211.018726 
L 210.872837 211.018726 
L 209.241407 211.018726 
L 207.609977 211.018726 
L 205.978547 211.018726 
L 204.347117 211.018726 
L 202.715688 211.018726 
L 201.084258 211.018726 
L 199.452828 211.018726 
L 197.821398 211.018726 
L 196.189968 211.018726 
L 194.558538 211.018726 
L 192.927108 211.018726 
L 191.295678 211.018726 
L 189.664249 211.018726 
L 188.032819 211.018726 
L 186.401389 211.018726 
L 184.769959 211.018726 
L 183.138529 211.018726 
L 181.507099 211.018726 
L 179.875669 211.018726 
L 178.244239 211.018726 
L 176.61281 211.018726 
L 174.98138 211.018726 
L 173.34995 211.018726 
L 171.71852 211.018726 
L 170.08709 211.018726 
L 168.45566 211.018726 
L 166.82423 211.018726 
L 165.1928 211.018726 
L 163.56137 211.018726 
L 161.929941 211.018726 
L 160.298511 211.018726 
L 158.667081 211.018726 
L 157.035651 211.018726 
L 155.404221 211.018726 
L 153.772791 211.018726 
L 152.141361 211.018726 
L 150.509931 211.018726 
L 148.878502 211.018726 
L 147.247072 211.018726 
L 145.615642 211.018726 
L 143.984212 211.018726 
L 142.352782 211.018726 
L 140.721352 211.018726 
L 139.089922 211.018726 
L 137.458492 211.018726 
L 135.827063 211.018726 
L 134.195633 211.018726 
L 132.564203 211.018726 
L 130.932773 211.018726 
L 129.301343 211.018726 
L 127.669913 211.018726 
L 126.038483 211.018726 
L 124.407053 211.018726 
L 122.775624 211.018726 
L 121.144194 211.018726 
L 119.512764 211.018726 
L 117.881334 211.018726 
L 116.249904 211.018726 
L 114.618474 211.018726 
L 112.987044 211.018726 
L 111.355614 211.018726 
L 109.724185 211.018726 
L 108.092755 211.018726 
L 106.461325 211.018726 
L 104.829895 211.018726 
L 103.198465 211.018726 
L 101.567035 211.018726 
L 99.935605 211.018726 
L 98.304175 211.018726 
L 96.672746 211.018726 
L 95.041316 211.018726 
L 93.409886 211.018726 
L 91.778456 211.018726 
L 90.147026 211.018726 
L 88.515596 211.018726 
L 86.884166 211.018726 
L 85.252736 211.018726 
L 83.621307 211.018726 
L 81.989877 211.018726 
L 80.358447 211.018726 
L 78.727017 211.018726 
L 77.095587 211.018726 
L 75.464157 211.018726 
L 73.832727 211.018726 
z
" style="fill:#1f77b4;fill-opacity:0.2;"/>
   </g>
   <g id="PolyCollection_2">
    <path clip-path="url(#p3f909c40d7)" d="M 73.832727 211.018726 
L 73.832727 211.018726 
L 75.464157 211.018726 
L 77.095587 211.018726 
L 78.727017 211.018726 
L 80.358447 211.018726 
L 81.989877 211.018726 
L 83.621307 211.018726 
L 85.252736 211.018726 
L 86.884166 211.018726 
L 88.515596 211.018726 
L 90.147026 211.018726 
L 91.778456 211.018726 
L 93.409886 211.018726 
L 95.041316 211.018726 
L 96.672746 211.018726 
L 98.304175 211.018726 
L 99.935605 211.018726 
L 101.567035 211.018726 
L 103.198465 211.018726 
L 104.829895 211.018726 
L 106.461325 211.018726 
L 108.092755 211.018726 
L 109.724185 211.018726 
L 111.355614 211.018726 
L 112.987044 211.018726 
L 114.618474 211.018726 
L 116.249904 211.018726 
L 117.881334 211.018726 
L 119.512764 211.018726 
L 121.144194 211.018726 
L 122.775624 211.018726 
L 124.407053 211.018726 
L 126.038483 211.018726 
L 127.669913 211.018726 
L 129.301343 211.018726 
L 130.932773 211.018726 
L 132.564203 211.018726 
L 134.195633 211.018726 
L 135.827063 211.018726 
L 137.458492 211.018726 
L 139.089922 211.018726 
L 140.721352 211.018726 
L 142.352782 211.018726 
L 143.984212 211.018726 
L 145.615642 211.018726 
L 147.247072 211.018726 
L 148.878502 211.018726 
L 150.509931 211.018726 
L 152.141361 211.018726 
L 153.772791 211.018726 
L 155.404221 211.018726 
L 157.035651 211.018726 
L 158.667081 211.018726 
L 160.298511 211.018726 
L 161.929941 211.018726 
L 163.56137 211.018726 
L 165.1928 211.018726 
L 166.82423 211.018726 
L 168.45566 211.018726 
L 170.08709 211.018726 
L 171.71852 211.018726 
L 173.34995 211.018726 
L 174.98138 211.018726 
L 176.61281 211.018726 
L 178.244239 211.018726 
L 179.875669 211.018726 
L 181.507099 211.018726 
L 183.138529 211.018726 
L 184.769959 211.018726 
L 186.401389 211.018726 
L 188.032819 211.018726 
L 189.664249 211.018726 
L 191.295678 211.018726 
L 192.927108 211.018726 
L 194.558538 211.018726 
L 196.189968 211.018726 
L 197.821398 211.018726 
L 199.452828 211.018726 
L 201.084258 211.018726 
L 202.715688 211.018726 
L 204.347117 211.018726 
L 205.978547 211.018726 
L 207.609977 211.018726 
L 209.241407 211.018726 
L 210.872837 211.018726 
L 212.504267 211.018726 
L 214.135697 211.018726 
L 215.767127 211.018726 
L 217.398556 211.018726 
L 219.029986 211.018726 
L 220.661416 211.018726 
L 222.292846 211.018726 
L 223.924276 211.018726 
L 225.555706 211.018726 
L 227.187136 211.018726 
L 228.818566 295.150123 
L 230.449995 211.018726 
L 232.081425 260.010905 
L 233.712855 278.594145 
L 235.344285 265.754816 
L 236.975715 218.130235 
L 238.607145 217.868416 
L 240.238575 265.754816 
L 241.870005 218.015598 
L 243.501434 211.018726 
L 245.132864 244.130682 
L 246.764294 263.389676 
L 248.395724 274.53962 
L 250.027154 219.465654 
L 251.658584 268.457832 
L 253.290014 216.42476 
L 254.921444 273.525989 
L 256.552873 211.018726 
L 258.184303 268.119955 
L 259.815733 286.027441 
L 261.447163 270.147218 
L 263.078593 257.645765 
L 264.710023 250.212469 
L 266.341453 288.054704 
L 267.972883 227.574704 
L 269.604312 258.659397 
L 271.235742 211.018726 
L 272.867172 211.018726 
L 274.498602 264.06543 
L 276.130032 244.806436 
L 277.761462 261.700291 
L 279.392892 295.488 
L 281.024322 278.594145 
L 282.655751 295.488 
L 284.287181 211.018726 
L 285.918611 212.370235 
L 287.550041 295.488 
L 289.181471 211.018726 
L 290.812901 295.488 
L 292.444331 295.488 
L 294.075761 211.018726 
L 295.70719 211.018726 
L 297.33862 295.488 
L 298.97005 278.594145 
L 300.60148 273.525989 
L 302.23291 212.370235 
L 303.86434 295.488 
L 305.49577 234.332246 
L 307.1272 211.018726 
L 308.75863 244.130682 
L 310.390059 295.488 
L 312.021489 295.488 
L 313.652919 278.594145 
L 315.284349 224.53381 
L 316.915779 295.488 
L 318.547209 295.488 
L 320.178639 295.488 
L 321.810069 295.488 
L 323.441498 211.018726 
L 325.072928 211.018726 
L 326.704358 211.018726 
L 328.335788 211.018726 
L 329.967218 232.980737 
L 331.598648 242.441296 
L 333.230078 295.488 
L 334.861508 211.356603 
L 336.492937 227.912581 
L 338.124367 263.389676 
L 339.755797 211.018726 
L 341.387227 211.356603 
L 343.018657 211.018726 
L 344.650087 239.062525 
L 346.281517 295.488 
L 347.912947 211.018726 
L 349.544376 295.488 
L 351.175806 243.454927 
L 352.807236 295.488 
L 354.438666 295.488 
L 356.070096 295.488 
L 357.701526 212.370235 
L 359.332956 263.389676 
L 360.964386 236.697385 
L 362.595815 240.414034 
L 364.227245 211.018726 
L 365.858675 295.488 
L 367.490105 295.488 
L 369.121535 295.488 
L 370.752965 227.574704 
L 372.384395 295.488 
L 374.015825 211.018726 
L 375.647254 242.779173 
L 377.278684 271.498726 
L 378.910114 211.018726 
L 380.541544 212.708112 
L 382.172974 295.488 
L 383.804404 232.304983 
L 385.435834 253.59124 
L 387.067264 268.457832 
L 388.698693 239.062525 
L 390.330123 211.018726 
L 391.961553 226.561073 
L 393.592983 227.912581 
L 395.224413 211.018726 
L 396.855843 278.594145 
L 398.487273 211.018726 
L 398.487273 65.055821 
L 398.487273 65.055821 
L 396.855843 105.906771 
L 395.224413 105.449028 
L 393.592983 102.898056 
L 391.961553 98.167777 
L 390.330123 105.801973 
L 388.698693 55.595263 
L 387.067264 102.560179 
L 385.435834 55.595263 
L 383.804404 102.222302 
L 382.172974 102.898056 
L 380.541544 55.595263 
L 378.910114 99.181408 
L 377.278684 90.396603 
L 375.647254 53.568 
L 374.015825 106.129006 
L 372.384395 97.154145 
L 370.752965 105.68152 
L 369.121535 54.919508 
L 367.490105 54.919508 
L 365.858675 55.595263 
L 364.227245 105.456268 
L 362.595815 104.973587 
L 360.964386 104.823955 
L 359.332956 105.601073 
L 357.701526 101.884425 
L 356.070096 105.996325 
L 354.438666 99.519285 
L 352.807236 105.488447 
L 351.175806 105.178726 
L 349.544376 100.870793 
L 347.912947 100.870793 
L 346.281517 104.587441 
L 344.650087 106.137269 
L 343.018657 101.20867 
L 341.387227 104.570547 
L 339.755797 104.989676 
L 338.124367 102.125765 
L 336.492937 78.570905 
L 334.861508 105.15057 
L 333.230078 98.167777 
L 331.598648 96.140514 
L 329.967218 54.919508 
L 328.335788 106.72733 
L 326.704358 106.643665 
L 325.072928 86.679955 
L 323.441498 102.898056 
L 321.810069 107.068726 
L 320.178639 106.919883 
L 318.547209 106.72733 
L 316.915779 55.595263 
L 315.284349 92.423866 
L 313.652919 104.739486 
L 312.021489 106.575718 
L 310.390059 91.748112 
L 308.75863 106.600626 
L 307.1272 101.99705 
L 305.49577 96.478391 
L 303.86434 106.209251 
L 302.23291 106.935687 
L 300.60148 126.549453 
L 298.97005 126.549453 
L 297.33862 124.52219 
L 295.70719 87.693587 
L 294.075761 126.549453 
L 292.444331 113.710123 
L 290.812901 124.52219 
L 289.181471 126.549453 
L 287.550041 126.549453 
L 285.918611 126.549453 
L 284.287181 126.549453 
L 282.655751 126.549453 
L 281.024322 126.549453 
L 279.392892 126.549453 
L 277.761462 112.74476 
L 276.130032 112.510659 
L 274.498602 126.549453 
L 272.867172 126.549453 
L 271.235742 119.160227 
L 269.604312 119.100798 
L 267.972883 115.737385 
L 266.341453 119.487821 
L 264.710023 149.681038 
L 263.078593 149.389944 
L 261.447163 145.132693 
L 259.815733 143.443307 
L 258.184303 141.416045 
L 256.552873 129.928223 
L 254.921444 135.334257 
L 253.290014 130.266101 
L 251.658584 103.235933 
L 250.027154 148.173587 
L 248.395724 121.481296 
L 246.764294 172.314905 
L 245.132864 171.824983 
L 243.501434 178.920402 
L 241.870005 189.89465 
L 240.238575 181.961296 
L 238.607145 179.596156 
L 236.975715 189.194938 
L 235.344285 188.236156 
L 233.712855 187.924827 
L 232.081425 181.285542 
L 230.449995 205.95057 
L 228.818566 205.95057 
L 227.187136 211.018726 
L 225.555706 211.018726 
L 223.924276 211.018726 
L 222.292846 211.018726 
L 220.661416 211.018726 
L 219.029986 211.018726 
L 217.398556 211.018726 
L 215.767127 211.018726 
L 214.135697 211.018726 
L 212.504267 211.018726 
L 210.872837 211.018726 
L 209.241407 211.018726 
L 207.609977 211.018726 
L 205.978547 211.018726 
L 204.347117 211.018726 
L 202.715688 211.018726 
L 201.084258 211.018726 
L 199.452828 211.018726 
L 197.821398 211.018726 
L 196.189968 211.018726 
L 194.558538 211.018726 
L 192.927108 211.018726 
L 191.295678 211.018726 
L 189.664249 211.018726 
L 188.032819 211.018726 
L 186.401389 211.018726 
L 184.769959 211.018726 
L 183.138529 211.018726 
L 181.507099 211.018726 
L 179.875669 211.018726 
L 178.244239 211.018726 
L 176.61281 211.018726 
L 174.98138 211.018726 
L 173.34995 211.018726 
L 171.71852 211.018726 
L 170.08709 211.018726 
L 168.45566 211.018726 
L 166.82423 211.018726 
L 165.1928 211.018726 
L 163.56137 211.018726 
L 161.929941 211.018726 
L 160.298511 211.018726 
L 158.667081 211.018726 
L 157.035651 211.018726 
L 155.404221 211.018726 
L 153.772791 211.018726 
L 152.141361 211.018726 
L 150.509931 211.018726 
L 148.878502 211.018726 
L 147.247072 211.018726 
L 145.615642 211.018726 
L 143.984212 211.018726 
L 142.352782 211.018726 
L 140.721352 211.018726 
L 139.089922 211.018726 
L 137.458492 211.018726 
L 135.827063 211.018726 
L 134.195633 211.018726 
L 132.564203 211.018726 
L 130.932773 211.018726 
L 129.301343 211.018726 
L 127.669913 211.018726 
L 126.038483 211.018726 
L 124.407053 211.018726 
L 122.775624 211.018726 
L 121.144194 211.018726 
L 119.512764 211.018726 
L 117.881334 211.018726 
L 116.249904 211.018726 
L 114.618474 211.018726 
L 112.987044 211.018726 
L 111.355614 211.018726 
L 109.724185 211.018726 
L 108.092755 211.018726 
L 106.461325 211.018726 
L 104.829895 211.018726 
L 103.198465 211.018726 
L 101.567035 211.018726 
L 99.935605 211.018726 
L 98.304175 211.018726 
L 96.672746 211.018726 
L 95.041316 211.018726 
L 93.409886 211.018726 
L 91.778456 211.018726 
L 90.147026 211.018726 
L 88.515596 211.018726 
L 86.884166 211.018726 
L 85.252736 211.018726 
L 83.621307 211.018726 
L 81.989877 211.018726 
L 80.358447 211.018726 
L 78.727017 211.018726 
L 77.095587 211.018726 
L 75.464157 211.018726 
L 73.832727 211.018726 
z
" style="fill:#1f77b4;fill-opacity:0.1;"/>
   </g>
   <g id="matplotlib.axis_1">
    <g id="xtick_1">
     <g id="line2d_1">
      <defs>
       <path d="M 0 0 
L 0 3.5 
" id="mee3a2efea6" style="stroke:#000000;stroke-width:0.8;"/>
      </defs>
      <g>
       <use style="stroke:#000000;stroke-width:0.8;" x="73.832727" xlink:href="#mee3a2efea6" y="307.584"/>
      </g>
     </g>
     <g id="text_1">
      <!-- 0 -->
      <defs>
       <path d="M 31.78125 66.40625 
Q 24.171875 66.40625 20.328125 58.90625 
Q 16.5 51.421875 16.5 36.375 
Q 16.5 21.390625 20.328125 13.890625 
Q 24.171875 6.390625 31.78125 6.390625 
Q 39.453125 6.390625 43.28125 13.890625 
Q 47.125 21.390625 47.125 36.375 
Q 47.125 51.421875 43.28125 58.90625 
Q 39.453125 66.40625 31.78125 66.40625 
z
M 31.78125 74.21875 
Q 44.046875 74.21875 50.515625 64.515625 
Q 56.984375 54.828125 56.984375 36.375 
Q 56.984375 17.96875 50.515625 8.265625 
Q 44.046875 -1.421875 31.78125 -1.421875 
Q 19.53125 -1.421875 13.0625 8.265625 
Q 6.59375 17.96875 6.59375 36.375 
Q 6.59375 54.828125 13.0625 64.515625 
Q 19.53125 74.21875 31.78125 74.21875 
z
" id="DejaVuSans-48"/>
      </defs>
      <g transform="translate(70.651477 322.182437)scale(0.1 -0.1)">
       <use xlink:href="#DejaVuSans-48"/>
      </g>
     </g>
    </g>
    <g id="xtick_2">
     <g id="line2d_2">
      <g>
       <use style="stroke:#000000;stroke-width:0.8;" x="114.618474" xlink:href="#mee3a2efea6" y="307.584"/>
      </g>
     </g>
     <g id="text_2">
      <!-- 25 -->
      <defs>
       <path d="M 19.1875 8.296875 
L 53.609375 8.296875 
L 53.609375 0 
L 7.328125 0 
L 7.328125 8.296875 
Q 12.9375 14.109375 22.625 23.890625 
Q 32.328125 33.6875 34.8125 36.53125 
Q 39.546875 41.84375 41.421875 45.53125 
Q 43.3125 49.21875 43.3125 52.78125 
Q 43.3125 58.59375 39.234375 62.25 
Q 35.15625 65.921875 28.609375 65.921875 
Q 23.96875 65.921875 18.8125 64.3125 
Q 13.671875 62.703125 7.8125 59.421875 
L 7.8125 69.390625 
Q 13.765625 71.78125 18.9375 73 
Q 24.125 74.21875 28.421875 74.21875 
Q 39.75 74.21875 46.484375 68.546875 
Q 53.21875 62.890625 53.21875 53.421875 
Q 53.21875 48.921875 51.53125 44.890625 
Q 49.859375 40.875 45.40625 35.40625 
Q 44.1875 33.984375 37.640625 27.21875 
Q 31.109375 20.453125 19.1875 8.296875 
z
" id="DejaVuSans-50"/>
       <path d="M 10.796875 72.90625 
L 49.515625 72.90625 
L 49.515625 64.59375 
L 19.828125 64.59375 
L 19.828125 46.734375 
Q 21.96875 47.46875 24.109375 47.828125 
Q 26.265625 48.1875 28.421875 48.1875 
Q 40.625 48.1875 47.75 41.5 
Q 54.890625 34.8125 54.890625 23.390625 
Q 54.890625 11.625 47.5625 5.09375 
Q 40.234375 -1.421875 26.90625 -1.421875 
Q 22.3125 -1.421875 17.546875 -0.640625 
Q 12.796875 0.140625 7.71875 1.703125 
L 7.71875 11.625 
Q 12.109375 9.234375 16.796875 8.0625 
Q 21.484375 6.890625 26.703125 6.890625 
Q 35.15625 6.890625 40.078125 11.328125 
Q 45.015625 15.765625 45.015625 23.390625 
Q 45.015625 31 40.078125 35.4375 
Q 35.15625 39.890625 26.703125 39.890625 
Q 22.75 39.890625 18.8125 39.015625 
Q 14.890625 38.140625 10.796875 36.28125 
z
" id="DejaVuSans-53"/>
      </defs>
      <g transform="translate(108.255974 322.182437)scale(0.1 -0.1)">
       <use xlink:href="#DejaVuSans-50"/>
       <use x="63.623047" xlink:href="#DejaVuSans-53"/>
      </g>
     </g>
    </g>
    <g id="xtick_3">
     <g id="line2d_3">
      <g>
       <use style="stroke:#000000;stroke-width:0.8;" x="155.404221" xlink:href="#mee3a2efea6" y="307.584"/>
      </g>
     </g>
     <g id="text_3">
      <!-- 50 -->
      <g transform="translate(149.041721 322.182437)scale(0.1 -0.1)">
       <use xlink:href="#DejaVuSans-53"/>
       <use x="63.623047" xlink:href="#DejaVuSans-48"/>
      </g>
     </g>
    </g>
    <g id="xtick_4">
     <g id="line2d_4">
      <g>
       <use style="stroke:#000000;stroke-width:0.8;" x="196.189968" xlink:href="#mee3a2efea6" y="307.584"/>
      </g>
     </g>
     <g id="text_4">
      <!-- 75 -->
      <defs>
       <path d="M 8.203125 72.90625 
L 55.078125 72.90625 
L 55.078125 68.703125 
L 28.609375 0 
L 18.3125 0 
L 43.21875 64.59375 
L 8.203125 64.59375 
z
" id="DejaVuSans-55"/>
      </defs>
      <g transform="translate(189.827468 322.182437)scale(0.1 -0.1)">
       <use xlink:href="#DejaVuSans-55"/>
       <use x="63.623047" xlink:href="#DejaVuSans-53"/>
      </g>
     </g>
    </g>
    <g id="xtick_5">
     <g id="line2d_5">
      <g>
       <use style="stroke:#000000;stroke-width:0.8;" x="236.975715" xlink:href="#mee3a2efea6" y="307.584"/>
      </g>
     </g>
     <g id="text_5">
      <!-- 100 -->
      <defs>
       <path d="M 12.40625 8.296875 
L 28.515625 8.296875 
L 28.515625 63.921875 
L 10.984375 60.40625 
L 10.984375 69.390625 
L 28.421875 72.90625 
L 38.28125 72.90625 
L 38.28125 8.296875 
L 54.390625 8.296875 
L 54.390625 0 
L 12.40625 0 
z
" id="DejaVuSans-49"/>
      </defs>
      <g transform="translate(227.431965 322.182437)scale(0.1 -0.1)">
       <use xlink:href="#DejaVuSans-49"/>
       <use x="63.623047" xlink:href="#DejaVuSans-48"/>
       <use x="127.246094" xlink:href="#DejaVuSans-48"/>
      </g>
     </g>
    </g>
    <g id="xtick_6">
     <g id="line2d_6">
      <g>
       <use style="stroke:#000000;stroke-width:0.8;" x="277.761462" xlink:href="#mee3a2efea6" y="307.584"/>
      </g>
     </g>
     <g id="text_6">
      <!-- 125 -->
      <g transform="translate(268.217712 322.182437)scale(0.1 -0.1)">
       <use xlink:href="#DejaVuSans-49"/>
       <use x="63.623047" xlink:href="#DejaVuSans-50"/>
       <use x="127.246094" xlink:href="#DejaVuSans-53"/>
      </g>
     </g>
    </g>
    <g id="xtick_7">
     <g id="line2d_7">
      <g>
       <use style="stroke:#000000;stroke-width:0.8;" x="318.547209" xlink:href="#mee3a2efea6" y="307.584"/>
      </g>
     </g>
     <g id="text_7">
      <!-- 150 -->
      <g transform="translate(309.003459 322.182437)scale(0.1 -0.1)">
       <use xlink:href="#DejaVuSans-49"/>
       <use x="63.623047" xlink:href="#DejaVuSans-53"/>
       <use x="127.246094" xlink:href="#DejaVuSans-48"/>
      </g>
     </g>
    </g>
    <g id="xtick_8">
     <g id="line2d_8">
      <g>
       <use style="stroke:#000000;stroke-width:0.8;" x="359.332956" xlink:href="#mee3a2efea6" y="307.584"/>
      </g>
     </g>
     <g id="text_8">
      <!-- 175 -->
      <g transform="translate(349.789206 322.182437)scale(0.1 -0.1)">
       <use xlink:href="#DejaVuSans-49"/>
       <use x="63.623047" xlink:href="#DejaVuSans-55"/>
       <use x="127.246094" xlink:href="#DejaVuSans-53"/>
      </g>
     </g>
    </g>
    <g id="xtick_9">
     <g id="line2d_9">
      <g>
       <use style="stroke:#000000;stroke-width:0.8;" x="400.118703" xlink:href="#mee3a2efea6" y="307.584"/>
      </g>
     </g>
     <g id="text_9">
      <!-- 200 -->
      <g transform="translate(390.574953 322.182437)scale(0.1 -0.1)">
       <use xlink:href="#DejaVuSans-50"/>
       <use x="63.623047" xlink:href="#DejaVuSans-48"/>
       <use x="127.246094" xlink:href="#DejaVuSans-48"/>
      </g>
     </g>
    </g>
   </g>
   <g id="matplotlib.axis_2">
    <g id="ytick_1">
     <g id="line2d_10">
      <defs>
       <path d="M 0 0 
L -3.5 0 
" id="m1f96bc6605" style="stroke:#000000;stroke-width:0.8;"/>
      </defs>
      <g>
       <use style="stroke:#000000;stroke-width:0.8;" x="57.6" xlink:href="#m1f96bc6605" y="278.594145"/>
      </g>
     </g>
     <g id="text_10">
      <!-- −0.4 -->
      <defs>
       <path d="M 10.59375 35.5 
L 73.1875 35.5 
L 73.1875 27.203125 
L 10.59375 27.203125 
z
" id="DejaVuSans-8722"/>
       <path d="M 10.6875 12.40625 
L 21 12.40625 
L 21 0 
L 10.6875 0 
z
" id="DejaVuSans-46"/>
       <path d="M 37.796875 64.3125 
L 12.890625 25.390625 
L 37.796875 25.390625 
z
M 35.203125 72.90625 
L 47.609375 72.90625 
L 47.609375 25.390625 
L 58.015625 25.390625 
L 58.015625 17.1875 
L 47.609375 17.1875 
L 47.609375 0 
L 37.796875 0 
L 37.796875 17.1875 
L 4.890625 17.1875 
L 4.890625 26.703125 
z
" id="DejaVuSans-52"/>
      </defs>
      <g transform="translate(26.317187 282.393364)scale(0.1 -0.1)">
       <use xlink:href="#DejaVuSans-8722"/>
       <use x="83.789062" xlink:href="#DejaVuSans-48"/>
       <use x="147.412109" xlink:href="#DejaVuSans-46"/>
       <use x="179.199219" xlink:href="#DejaVuSans-52"/>
      </g>
     </g>
    </g>
    <g id="ytick_2">
     <g id="line2d_11">
      <g>
       <use style="stroke:#000000;stroke-width:0.8;" x="57.6" xlink:href="#m1f96bc6605" y="244.806436"/>
      </g>
     </g>
     <g id="text_11">
      <!-- −0.2 -->
      <g transform="translate(26.317187 248.605655)scale(0.1 -0.1)">
       <use xlink:href="#DejaVuSans-8722"/>
       <use x="83.789062" xlink:href="#DejaVuSans-48"/>
       <use x="147.412109" xlink:href="#DejaVuSans-46"/>
       <use x="179.199219" xlink:href="#DejaVuSans-50"/>
      </g>
     </g>
    </g>
    <g id="ytick_3">
     <g id="line2d_12">
      <g>
       <use style="stroke:#000000;stroke-width:0.8;" x="57.6" xlink:href="#m1f96bc6605" y="211.018726"/>
      </g>
     </g>
     <g id="text_12">
      <!-- 0.0 -->
      <g transform="translate(34.696875 214.817945)scale(0.1 -0.1)">
       <use xlink:href="#DejaVuSans-48"/>
       <use x="63.623047" xlink:href="#DejaVuSans-46"/>
       <use x="95.410156" xlink:href="#DejaVuSans-48"/>
      </g>
     </g>
    </g>
    <g id="ytick_4">
     <g id="line2d_13">
      <g>
       <use style="stroke:#000000;stroke-width:0.8;" x="57.6" xlink:href="#m1f96bc6605" y="177.231017"/>
      </g>
     </g>
     <g id="text_13">
      <!-- 0.2 -->
      <g transform="translate(34.696875 181.030236)scale(0.1 -0.1)">
       <use xlink:href="#DejaVuSans-48"/>
       <use x="63.623047" xlink:href="#DejaVuSans-46"/>
       <use x="95.410156" xlink:href="#DejaVuSans-50"/>
      </g>
     </g>
    </g>
    <g id="ytick_5">
     <g id="line2d_14">
      <g>
       <use style="stroke:#000000;stroke-width:0.8;" x="57.6" xlink:href="#m1f96bc6605" y="143.443307"/>
      </g>
     </g>
     <g id="text_14">
      <!-- 0.4 -->
      <g transform="translate(34.696875 147.242526)scale(0.1 -0.1)">
       <use xlink:href="#DejaVuSans-48"/>
       <use x="63.623047" xlink:href="#DejaVuSans-46"/>
       <use x="95.410156" xlink:href="#DejaVuSans-52"/>
      </g>
     </g>
    </g>
    <g id="ytick_6">
     <g id="line2d_15">
      <g>
       <use style="stroke:#000000;stroke-width:0.8;" x="57.6" xlink:href="#m1f96bc6605" y="109.655598"/>
      </g>
     </g>
     <g id="text_15">
      <!-- 0.6 -->
      <defs>
       <path d="M 33.015625 40.375 
Q 26.375 40.375 22.484375 35.828125 
Q 18.609375 31.296875 18.609375 23.390625 
Q 18.609375 15.53125 22.484375 10.953125 
Q 26.375 6.390625 33.015625 6.390625 
Q 39.65625 6.390625 43.53125 10.953125 
Q 47.40625 15.53125 47.40625 23.390625 
Q 47.40625 31.296875 43.53125 35.828125 
Q 39.65625 40.375 33.015625 40.375 
z
M 52.59375 71.296875 
L 52.59375 62.3125 
Q 48.875 64.0625 45.09375 64.984375 
Q 41.3125 65.921875 37.59375 65.921875 
Q 27.828125 65.921875 22.671875 59.328125 
Q 17.53125 52.734375 16.796875 39.40625 
Q 19.671875 43.65625 24.015625 45.921875 
Q 28.375 48.1875 33.59375 48.1875 
Q 44.578125 48.1875 50.953125 41.515625 
Q 57.328125 34.859375 57.328125 23.390625 
Q 57.328125 12.15625 50.6875 5.359375 
Q 44.046875 -1.421875 33.015625 -1.421875 
Q 20.359375 -1.421875 13.671875 8.265625 
Q 6.984375 17.96875 6.984375 36.375 
Q 6.984375 53.65625 15.1875 63.9375 
Q 23.390625 74.21875 37.203125 74.21875 
Q 40.921875 74.21875 44.703125 73.484375 
Q 48.484375 72.75 52.59375 71.296875 
z
" id="DejaVuSans-54"/>
      </defs>
      <g transform="translate(34.696875 113.454817)scale(0.1 -0.1)">
       <use xlink:href="#DejaVuSans-48"/>
       <use x="63.623047" xlink:href="#DejaVuSans-46"/>
       <use x="95.410156" xlink:href="#DejaVuSans-54"/>
      </g>
     </g>
    </g>
    <g id="ytick_7">
     <g id="line2d_16">
      <g>
       <use style="stroke:#000000;stroke-width:0.8;" x="57.6" xlink:href="#m1f96bc6605" y="75.867888"/>
      </g>
     </g>
     <g id="text_16">
      <!-- 0.8 -->
      <defs>
       <path d="M 31.78125 34.625 
Q 24.75 34.625 20.71875 30.859375 
Q 16.703125 27.09375 16.703125 20.515625 
Q 16.703125 13.921875 20.71875 10.15625 
Q 24.75 6.390625 31.78125 6.390625 
Q 38.8125 6.390625 42.859375 10.171875 
Q 46.921875 13.96875 46.921875 20.515625 
Q 46.921875 27.09375 42.890625 30.859375 
Q 38.875 34.625 31.78125 34.625 
z
M 21.921875 38.8125 
Q 15.578125 40.375 12.03125 44.71875 
Q 8.5 49.078125 8.5 55.328125 
Q 8.5 64.0625 14.71875 69.140625 
Q 20.953125 74.21875 31.78125 74.21875 
Q 42.671875 74.21875 48.875 69.140625 
Q 55.078125 64.0625 55.078125 55.328125 
Q 55.078125 49.078125 51.53125 44.71875 
Q 48 40.375 41.703125 38.8125 
Q 48.828125 37.15625 52.796875 32.3125 
Q 56.78125 27.484375 56.78125 20.515625 
Q 56.78125 9.90625 50.3125 4.234375 
Q 43.84375 -1.421875 31.78125 -1.421875 
Q 19.734375 -1.421875 13.25 4.234375 
Q 6.78125 9.90625 6.78125 20.515625 
Q 6.78125 27.484375 10.78125 32.3125 
Q 14.796875 37.15625 21.921875 38.8125 
z
M 18.3125 54.390625 
Q 18.3125 48.734375 21.84375 45.5625 
Q 25.390625 42.390625 31.78125 42.390625 
Q 38.140625 42.390625 41.71875 45.5625 
Q 45.3125 48.734375 45.3125 54.390625 
Q 45.3125 60.0625 41.71875 63.234375 
Q 38.140625 66.40625 31.78125 66.40625 
Q 25.390625 66.40625 21.84375 63.234375 
Q 18.3125 60.0625 18.3125 54.390625 
z
" id="DejaVuSans-56"/>
      </defs>
      <g transform="translate(34.696875 79.667107)scale(0.1 -0.1)">
       <use xlink:href="#DejaVuSans-48"/>
       <use x="63.623047" xlink:href="#DejaVuSans-46"/>
       <use x="95.410156" xlink:href="#DejaVuSans-56"/>
      </g>
     </g>
    </g>
    <g id="ytick_8">
     <g id="line2d_17">
      <g>
       <use style="stroke:#000000;stroke-width:0.8;" x="57.6" xlink:href="#m1f96bc6605" y="42.080179"/>
      </g>
     </g>
     <g id="text_17">
      <!-- 1.0 -->
      <g transform="translate(34.696875 45.879398)scale(0.1 -0.1)">
       <use xlink:href="#DejaVuSans-49"/>
       <use x="63.623047" xlink:href="#DejaVuSans-46"/>
       <use x="95.410156" xlink:href="#DejaVuSans-48"/>
      </g>
     </g>
    </g>
   </g>
   <g id="line2d_18">
    <path clip-path="url(#p3f909c40d7)" d="M 73.832727 211.018726 
L 241.870005 211.018726 
L 243.501434 200.130637 
L 245.132864 211.018726 
L 246.764294 209.329341 
L 248.395724 201.365095 
L 250.027154 211.018726 
L 263.078593 211.018726 
L 264.710023 194.969564 
L 266.341453 207.639955 
L 267.972883 207.471017 
L 269.604312 203.923307 
L 271.235742 183.312804 
L 272.867172 189.432278 
L 274.498602 211.018726 
L 276.130032 183.44152 
L 277.761462 190.746101 
L 279.392892 196.827888 
L 281.024322 189.901408 
L 282.655751 207.639955 
L 284.287181 193.786994 
L 285.918611 193.618056 
L 287.550041 209.329341 
L 289.181471 200.037721 
L 290.812901 180.609788 
L 292.444331 197.165765 
L 294.075761 204.261184 
L 295.70719 194.462749 
L 297.33862 191.833642 
L 298.97005 192.773363 
L 300.60148 177.568894 
L 302.23291 178.582525 
L 303.86434 211.018726 
L 305.49577 183.902883 
L 307.1272 192.254692 
L 308.75863 195.47638 
L 310.390059 184.297055 
L 312.021489 204.261184 
L 313.652919 207.639955 
L 315.284349 187.029453 
L 316.915779 207.639955 
L 318.547209 204.261184 
L 320.178639 207.639955 
L 321.810069 195.853676 
L 323.441498 189.462168 
L 325.072928 194.887655 
L 326.704358 209.329341 
L 328.335788 210.174034 
L 329.967218 158.647777 
L 331.598648 177.231017 
L 333.230078 180.947665 
L 334.861508 194.462749 
L 336.492937 167.770458 
L 338.124367 204.261184 
L 339.755797 170.304536 
L 341.387227 211.018726 
L 343.018657 192.435486 
L 344.650087 207.639955 
L 346.281517 192.435486 
L 347.912947 185.340067 
L 349.544376 211.018726 
L 351.175806 211.018726 
L 352.807236 195.307441 
L 354.438666 183.988559 
L 356.070096 193.955933 
L 357.701526 180.947665 
L 359.332956 211.018726 
L 360.964386 188.32898 
L 362.595815 183.988559 
L 364.227245 198.179397 
L 365.858675 197.84152 
L 367.490105 191.647106 
L 369.121535 190.746101 
L 370.752965 175.863309 
L 372.384395 208.653587 
L 374.015825 211.018726 
L 375.647254 194.284156 
L 377.278684 174.190123 
L 378.910114 189.056715 
L 380.541544 195.307441 
L 382.172974 187.36733 
L 383.804404 211.018726 
L 385.435834 196.152134 
L 387.067264 133.863084 
L 388.698693 197.165765 
L 390.330123 211.018726 
L 391.961553 177.906771 
L 393.592983 150.031911 
L 395.224413 197.84152 
L 396.855843 199.530905 
L 398.487273 178.582525 
L 398.487273 178.582525 
" style="fill:none;stroke:#1f77b4;stroke-linecap:square;stroke-width:0.25;"/>
   </g>
   <g id="line2d_19">
    <path clip-path="url(#p3f909c40d7)" d="M 73.832727 211.018726 
L 227.187136 211.018726 
L 228.818566 211.758677 
L 232.081425 210.244481 
L 233.712855 212.869327 
L 235.344285 209.751842 
L 236.975715 210.138738 
L 238.607145 207.842722 
L 240.238575 207.578345 
L 241.870005 205.636372 
L 243.501434 200.157127 
L 245.132864 204.438015 
L 246.764294 203.121398 
L 248.395724 196.039033 
L 250.027154 201.155778 
L 251.658584 201.274979 
L 253.290014 197.704884 
L 254.921444 194.771029 
L 256.552873 203.812921 
L 258.184303 196.208221 
L 259.815733 198.401973 
L 261.447163 195.730265 
L 263.078593 202.978835 
L 264.710023 193.775997 
L 266.341453 193.433331 
L 267.972883 184.340891 
L 269.604312 190.331334 
L 271.235742 181.053623 
L 272.867172 180.453973 
L 274.498602 194.923374 
L 276.130032 187.497293 
L 277.761462 183.302581 
L 279.392892 184.950561 
L 281.024322 182.059034 
L 282.655751 191.230877 
L 284.287181 186.172594 
L 285.918611 185.267153 
L 287.550041 198.465898 
L 289.181471 190.171033 
L 290.812901 175.167288 
L 292.444331 185.391706 
L 294.075761 189.230292 
L 295.70719 181.431787 
L 297.33862 183.238694 
L 298.97005 178.453098 
L 300.60148 172.248928 
L 302.23291 171.992745 
L 303.86434 186.41821 
L 307.1272 168.327487 
L 308.75863 179.796738 
L 310.390059 174.421463 
L 312.021489 178.007528 
L 313.652919 186.309315 
L 315.284349 176.541069 
L 316.915779 179.391205 
L 318.547209 173.349039 
L 320.178639 175.866608 
L 321.810069 172.406692 
L 323.441498 177.312526 
L 325.072928 174.36108 
L 326.704358 186.182255 
L 328.335788 187.54248 
L 329.967218 162.212423 
L 331.598648 172.336466 
L 333.230078 170.679193 
L 334.861508 167.027519 
L 336.492937 168.033318 
L 338.124367 180.807928 
L 339.755797 163.676389 
L 341.387227 187.556024 
L 343.018657 175.953009 
L 344.650087 179.032407 
L 346.281517 173.460386 
L 347.912947 175.261553 
L 349.544376 186.343178 
L 351.175806 182.66008 
L 352.807236 173.352597 
L 354.438666 175.902621 
L 356.070096 176.048181 
L 357.701526 170.078003 
L 359.332956 187.59955 
L 360.964386 174.445927 
L 362.595815 175.44647 
L 364.227245 176.694337 
L 365.858675 176.654198 
L 367.490105 168.848169 
L 369.121535 170.074409 
L 370.752965 166.07882 
L 372.384395 180.347712 
L 374.015825 182.480719 
L 375.647254 174.751389 
L 377.278684 164.14664 
L 378.910114 168.910772 
L 380.541544 175.006868 
L 382.172974 179.482206 
L 383.804404 181.132174 
L 385.435834 180.245833 
L 387.067264 163.158608 
L 388.698693 168.585218 
L 390.330123 178.707747 
L 393.592983 160.247688 
L 395.224413 177.592585 
L 396.855843 176.860484 
L 398.487273 164.057768 
L 398.487273 164.057768 
" style="fill:none;stroke:#2ca02c;stroke-linecap:square;stroke-width:0.75;"/>
   </g>
   <g id="patch_3">
    <path d="M 57.6 307.584 
L 57.6 41.472 
" style="fill:none;stroke:#000000;stroke-linecap:square;stroke-linejoin:miter;stroke-width:0.8;"/>
   </g>
   <g id="patch_4">
    <path d="M 414.72 307.584 
L 414.72 41.472 
" style="fill:none;stroke:#000000;stroke-linecap:square;stroke-linejoin:miter;stroke-width:0.8;"/>
   </g>
   <g id="patch_5">
    <path d="M 57.6 307.584 
L 414.72 307.584 
" style="fill:none;stroke:#000000;stroke-linecap:square;stroke-linejoin:miter;stroke-width:0.8;"/>
   </g>
   <g id="patch_6">
    <path d="M 57.6 41.472 
L 414.72 41.472 
" style="fill:none;stroke:#000000;stroke-linecap:square;stroke-linejoin:miter;stroke-width:0.8;"/>
   </g>
   <g id="legend_1">
    <g id="patch_7">
     <path d="M 338.234063 78.82825 
L 407.72 78.82825 
Q 409.72 78.82825 409.72 76.82825 
L 409.72 48.472 
Q 409.72 46.472 407.72 46.472 
L 338.234063 46.472 
Q 336.234063 46.472 336.234063 48.472 
L 336.234063 76.82825 
Q 336.234063 78.82825 338.234063 78.82825 
z
" style="fill:#ffffff;opacity:0.8;stroke:#cccccc;stroke-linejoin:miter;"/>
    </g>
    <g id="line2d_20">
     <path d="M 340.234063 54.570437 
L 360.234063 54.570437 
" style="fill:none;stroke:#1f77b4;stroke-linecap:square;stroke-width:0.25;"/>
    </g>
    <g id="line2d_21"/>
    <g id="text_18">
     <!-- median -->
     <defs>
      <path d="M 52 44.1875 
Q 55.375 50.25 60.0625 53.125 
Q 64.75 56 71.09375 56 
Q 79.640625 56 84.28125 50.015625 
Q 88.921875 44.046875 88.921875 33.015625 
L 88.921875 0 
L 79.890625 0 
L 79.890625 32.71875 
Q 79.890625 40.578125 77.09375 44.375 
Q 74.3125 48.1875 68.609375 48.1875 
Q 61.625 48.1875 57.5625 43.546875 
Q 53.515625 38.921875 53.515625 30.90625 
L 53.515625 0 
L 44.484375 0 
L 44.484375 32.71875 
Q 44.484375 40.625 41.703125 44.40625 
Q 38.921875 48.1875 33.109375 48.1875 
Q 26.21875 48.1875 22.15625 43.53125 
Q 18.109375 38.875 18.109375 30.90625 
L 18.109375 0 
L 9.078125 0 
L 9.078125 54.6875 
L 18.109375 54.6875 
L 18.109375 46.1875 
Q 21.1875 51.21875 25.484375 53.609375 
Q 29.78125 56 35.6875 56 
Q 41.65625 56 45.828125 52.96875 
Q 50 49.953125 52 44.1875 
z
" id="DejaVuSans-109"/>
      <path d="M 56.203125 29.59375 
L 56.203125 25.203125 
L 14.890625 25.203125 
Q 15.484375 15.921875 20.484375 11.0625 
Q 25.484375 6.203125 34.421875 6.203125 
Q 39.59375 6.203125 44.453125 7.46875 
Q 49.3125 8.734375 54.109375 11.28125 
L 54.109375 2.78125 
Q 49.265625 0.734375 44.1875 -0.34375 
Q 39.109375 -1.421875 33.890625 -1.421875 
Q 20.796875 -1.421875 13.15625 6.1875 
Q 5.515625 13.8125 5.515625 26.8125 
Q 5.515625 40.234375 12.765625 48.109375 
Q 20.015625 56 32.328125 56 
Q 43.359375 56 49.78125 48.890625 
Q 56.203125 41.796875 56.203125 29.59375 
z
M 47.21875 32.234375 
Q 47.125 39.59375 43.09375 43.984375 
Q 39.0625 48.390625 32.421875 48.390625 
Q 24.90625 48.390625 20.390625 44.140625 
Q 15.875 39.890625 15.1875 32.171875 
z
" id="DejaVuSans-101"/>
      <path d="M 45.40625 46.390625 
L 45.40625 75.984375 
L 54.390625 75.984375 
L 54.390625 0 
L 45.40625 0 
L 45.40625 8.203125 
Q 42.578125 3.328125 38.25 0.953125 
Q 33.9375 -1.421875 27.875 -1.421875 
Q 17.96875 -1.421875 11.734375 6.484375 
Q 5.515625 14.40625 5.515625 27.296875 
Q 5.515625 40.1875 11.734375 48.09375 
Q 17.96875 56 27.875 56 
Q 33.9375 56 38.25 53.625 
Q 42.578125 51.265625 45.40625 46.390625 
z
M 14.796875 27.296875 
Q 14.796875 17.390625 18.875 11.75 
Q 22.953125 6.109375 30.078125 6.109375 
Q 37.203125 6.109375 41.296875 11.75 
Q 45.40625 17.390625 45.40625 27.296875 
Q 45.40625 37.203125 41.296875 42.84375 
Q 37.203125 48.484375 30.078125 48.484375 
Q 22.953125 48.484375 18.875 42.84375 
Q 14.796875 37.203125 14.796875 27.296875 
z
" id="DejaVuSans-100"/>
      <path d="M 9.421875 54.6875 
L 18.40625 54.6875 
L 18.40625 0 
L 9.421875 0 
z
M 9.421875 75.984375 
L 18.40625 75.984375 
L 18.40625 64.59375 
L 9.421875 64.59375 
z
" id="DejaVuSans-105"/>
      <path d="M 34.28125 27.484375 
Q 23.390625 27.484375 19.1875 25 
Q 14.984375 22.515625 14.984375 16.5 
Q 14.984375 11.71875 18.140625 8.90625 
Q 21.296875 6.109375 26.703125 6.109375 
Q 34.1875 6.109375 38.703125 11.40625 
Q 43.21875 16.703125 43.21875 25.484375 
L 43.21875 27.484375 
z
M 52.203125 31.203125 
L 52.203125 0 
L 43.21875 0 
L 43.21875 8.296875 
Q 40.140625 3.328125 35.546875 0.953125 
Q 30.953125 -1.421875 24.3125 -1.421875 
Q 15.921875 -1.421875 10.953125 3.296875 
Q 6 8.015625 6 15.921875 
Q 6 25.140625 12.171875 29.828125 
Q 18.359375 34.515625 30.609375 34.515625 
L 43.21875 34.515625 
L 43.21875 35.40625 
Q 43.21875 41.609375 39.140625 45 
Q 35.0625 48.390625 27.6875 48.390625 
Q 23 48.390625 18.546875 47.265625 
Q 14.109375 46.140625 10.015625 43.890625 
L 10.015625 52.203125 
Q 14.9375 54.109375 19.578125 55.046875 
Q 24.21875 56 28.609375 56 
Q 40.484375 56 46.34375 49.84375 
Q 52.203125 43.703125 52.203125 31.203125 
z
" id="DejaVuSans-97"/>
      <path d="M 54.890625 33.015625 
L 54.890625 0 
L 45.90625 0 
L 45.90625 32.71875 
Q 45.90625 40.484375 42.875 44.328125 
Q 39.84375 48.1875 33.796875 48.1875 
Q 26.515625 48.1875 22.3125 43.546875 
Q 18.109375 38.921875 18.109375 30.90625 
L 18.109375 0 
L 9.078125 0 
L 9.078125 54.6875 
L 18.109375 54.6875 
L 18.109375 46.1875 
Q 21.34375 51.125 25.703125 53.5625 
Q 30.078125 56 35.796875 56 
Q 45.21875 56 50.046875 50.171875 
Q 54.890625 44.34375 54.890625 33.015625 
z
" id="DejaVuSans-110"/>
     </defs>
     <g transform="translate(368.234063 58.070437)scale(0.1 -0.1)">
      <use xlink:href="#DejaVuSans-109"/>
      <use x="97.412109" xlink:href="#DejaVuSans-101"/>
      <use x="158.935547" xlink:href="#DejaVuSans-100"/>
      <use x="222.412109" xlink:href="#DejaVuSans-105"/>
      <use x="250.195312" xlink:href="#DejaVuSans-97"/>
      <use x="311.474609" xlink:href="#DejaVuSans-110"/>
     </g>
    </g>
    <g id="line2d_22">
     <path d="M 340.234063 69.248562 
L 360.234063 69.248562 
" style="fill:none;stroke:#2ca02c;stroke-linecap:square;stroke-width:0.75;"/>
    </g>
    <g id="line2d_23"/>
    <g id="text_19">
     <!-- mean -->
     <g transform="translate(368.234063 72.748562)scale(0.1 -0.1)">
      <use xlink:href="#DejaVuSans-109"/>
      <use x="97.412109" xlink:href="#DejaVuSans-101"/>
      <use x="158.935547" xlink:href="#DejaVuSans-97"/>
      <use x="220.214844" xlink:href="#DejaVuSans-110"/>
     </g>
    </g>
   </g>
  </g>
  <g id="text_20">
   <!-- kappa.mean over generations -->
   <defs>
    <path d="M 9.078125 75.984375 
L 18.109375 75.984375 
L 18.109375 31.109375 
L 44.921875 54.6875 
L 56.390625 54.6875 
L 27.390625 29.109375 
L 57.625 0 
L 45.90625 0 
L 18.109375 26.703125 
L 18.109375 0 
L 9.078125 0 
z
" id="DejaVuSans-107"/>
    <path d="M 18.109375 8.203125 
L 18.109375 -20.796875 
L 9.078125 -20.796875 
L 9.078125 54.6875 
L 18.109375 54.6875 
L 18.109375 46.390625 
Q 20.953125 51.265625 25.265625 53.625 
Q 29.59375 56 35.59375 56 
Q 45.5625 56 51.78125 48.09375 
Q 58.015625 40.1875 58.015625 27.296875 
Q 58.015625 14.40625 51.78125 6.484375 
Q 45.5625 -1.421875 35.59375 -1.421875 
Q 29.59375 -1.421875 25.265625 0.953125 
Q 20.953125 3.328125 18.109375 8.203125 
z
M 48.6875 27.296875 
Q 48.6875 37.203125 44.609375 42.84375 
Q 40.53125 48.484375 33.40625 48.484375 
Q 26.265625 48.484375 22.1875 42.84375 
Q 18.109375 37.203125 18.109375 27.296875 
Q 18.109375 17.390625 22.1875 11.75 
Q 26.265625 6.109375 33.40625 6.109375 
Q 40.53125 6.109375 44.609375 11.75 
Q 48.6875 17.390625 48.6875 27.296875 
z
" id="DejaVuSans-112"/>
    <path id="DejaVuSans-32"/>
    <path d="M 30.609375 48.390625 
Q 23.390625 48.390625 19.1875 42.75 
Q 14.984375 37.109375 14.984375 27.296875 
Q 14.984375 17.484375 19.15625 11.84375 
Q 23.34375 6.203125 30.609375 6.203125 
Q 37.796875 6.203125 41.984375 11.859375 
Q 46.1875 17.53125 46.1875 27.296875 
Q 46.1875 37.015625 41.984375 42.703125 
Q 37.796875 48.390625 30.609375 48.390625 
z
M 30.609375 56 
Q 42.328125 56 49.015625 48.375 
Q 55.71875 40.765625 55.71875 27.296875 
Q 55.71875 13.875 49.015625 6.21875 
Q 42.328125 -1.421875 30.609375 -1.421875 
Q 18.84375 -1.421875 12.171875 6.21875 
Q 5.515625 13.875 5.515625 27.296875 
Q 5.515625 40.765625 12.171875 48.375 
Q 18.84375 56 30.609375 56 
z
" id="DejaVuSans-111"/>
    <path d="M 2.984375 54.6875 
L 12.5 54.6875 
L 29.59375 8.796875 
L 46.6875 54.6875 
L 56.203125 54.6875 
L 35.6875 0 
L 23.484375 0 
z
" id="DejaVuSans-118"/>
    <path d="M 41.109375 46.296875 
Q 39.59375 47.171875 37.8125 47.578125 
Q 36.03125 48 33.890625 48 
Q 26.265625 48 22.1875 43.046875 
Q 18.109375 38.09375 18.109375 28.8125 
L 18.109375 0 
L 9.078125 0 
L 9.078125 54.6875 
L 18.109375 54.6875 
L 18.109375 46.1875 
Q 20.953125 51.171875 25.484375 53.578125 
Q 30.03125 56 36.53125 56 
Q 37.453125 56 38.578125 55.875 
Q 39.703125 55.765625 41.0625 55.515625 
z
" id="DejaVuSans-114"/>
    <path d="M 45.40625 27.984375 
Q 45.40625 37.75 41.375 43.109375 
Q 37.359375 48.484375 30.078125 48.484375 
Q 22.859375 48.484375 18.828125 43.109375 
Q 14.796875 37.75 14.796875 27.984375 
Q 14.796875 18.265625 18.828125 12.890625 
Q 22.859375 7.515625 30.078125 7.515625 
Q 37.359375 7.515625 41.375 12.890625 
Q 45.40625 18.265625 45.40625 27.984375 
z
M 54.390625 6.78125 
Q 54.390625 -7.171875 48.1875 -13.984375 
Q 42 -20.796875 29.203125 -20.796875 
Q 24.46875 -20.796875 20.265625 -20.09375 
Q 16.0625 -19.390625 12.109375 -17.921875 
L 12.109375 -9.1875 
Q 16.0625 -11.328125 19.921875 -12.34375 
Q 23.78125 -13.375 27.78125 -13.375 
Q 36.625 -13.375 41.015625 -8.765625 
Q 45.40625 -4.15625 45.40625 5.171875 
L 45.40625 9.625 
Q 42.625 4.78125 38.28125 2.390625 
Q 33.9375 0 27.875 0 
Q 17.828125 0 11.671875 7.65625 
Q 5.515625 15.328125 5.515625 27.984375 
Q 5.515625 40.671875 11.671875 48.328125 
Q 17.828125 56 27.875 56 
Q 33.9375 56 38.28125 53.609375 
Q 42.625 51.21875 45.40625 46.390625 
L 45.40625 54.6875 
L 54.390625 54.6875 
z
" id="DejaVuSans-103"/>
    <path d="M 18.3125 70.21875 
L 18.3125 54.6875 
L 36.8125 54.6875 
L 36.8125 47.703125 
L 18.3125 47.703125 
L 18.3125 18.015625 
Q 18.3125 11.328125 20.140625 9.421875 
Q 21.96875 7.515625 27.59375 7.515625 
L 36.8125 7.515625 
L 36.8125 0 
L 27.59375 0 
Q 17.1875 0 13.234375 3.875 
Q 9.28125 7.765625 9.28125 18.015625 
L 9.28125 47.703125 
L 2.6875 47.703125 
L 2.6875 54.6875 
L 9.28125 54.6875 
L 9.28125 70.21875 
z
" id="DejaVuSans-116"/>
    <path d="M 44.28125 53.078125 
L 44.28125 44.578125 
Q 40.484375 46.53125 36.375 47.5 
Q 32.28125 48.484375 27.875 48.484375 
Q 21.1875 48.484375 17.84375 46.4375 
Q 14.5 44.390625 14.5 40.28125 
Q 14.5 37.15625 16.890625 35.375 
Q 19.28125 33.59375 26.515625 31.984375 
L 29.59375 31.296875 
Q 39.15625 29.25 43.1875 25.515625 
Q 47.21875 21.78125 47.21875 15.09375 
Q 47.21875 7.46875 41.1875 3.015625 
Q 35.15625 -1.421875 24.609375 -1.421875 
Q 20.21875 -1.421875 15.453125 -0.5625 
Q 10.6875 0.296875 5.421875 2 
L 5.421875 11.28125 
Q 10.40625 8.6875 15.234375 7.390625 
Q 20.0625 6.109375 24.8125 6.109375 
Q 31.15625 6.109375 34.5625 8.28125 
Q 37.984375 10.453125 37.984375 14.40625 
Q 37.984375 18.0625 35.515625 20.015625 
Q 33.0625 21.96875 24.703125 23.78125 
L 21.578125 24.515625 
Q 13.234375 26.265625 9.515625 29.90625 
Q 5.8125 33.546875 5.8125 39.890625 
Q 5.8125 47.609375 11.28125 51.796875 
Q 16.75 56 26.8125 56 
Q 31.78125 56 36.171875 55.265625 
Q 40.578125 54.546875 44.28125 53.078125 
z
" id="DejaVuSans-115"/>
   </defs>
   <g transform="translate(140.184375 16.030125)scale(0.12 -0.12)">
    <use xlink:href="#DejaVuSans-107"/>
    <use x="56.160156" xlink:href="#DejaVuSans-97"/>
    <use x="117.439453" xlink:href="#DejaVuSans-112"/>
    <use x="180.916016" xlink:href="#DejaVuSans-112"/>
    <use x="244.392578" xlink:href="#DejaVuSans-97"/>
    <use x="305.671875" xlink:href="#DejaVuSans-46"/>
    <use x="337.458984" xlink:href="#DejaVuSans-109"/>
    <use x="434.871094" xlink:href="#DejaVuSans-101"/>
    <use x="496.394531" xlink:href="#DejaVuSans-97"/>
    <use x="557.673828" xlink:href="#DejaVuSans-110"/>
    <use x="621.052734" xlink:href="#DejaVuSans-32"/>
    <use x="652.839844" xlink:href="#DejaVuSans-111"/>
    <use x="714.021484" xlink:href="#DejaVuSans-118"/>
    <use x="773.201172" xlink:href="#DejaVuSans-101"/>
    <use x="834.724609" xlink:href="#DejaVuSans-114"/>
    <use x="875.837891" xlink:href="#DejaVuSans-32"/>
    <use x="907.625" xlink:href="#DejaVuSans-103"/>
    <use x="971.101562" xlink:href="#DejaVuSans-101"/>
    <use x="1032.625" xlink:href="#DejaVuSans-110"/>
    <use x="1096.003906" xlink:href="#DejaVuSans-101"/>
    <use x="1157.527344" xlink:href="#DejaVuSans-114"/>
    <use x="1198.640625" xlink:href="#DejaVuSans-97"/>
    <use x="1259.919922" xlink:href="#DejaVuSans-116"/>
    <use x="1299.128906" xlink:href="#DejaVuSans-105"/>
    <use x="1326.912109" xlink:href="#DejaVuSans-111"/>
    <use x="1388.09375" xlink:href="#DejaVuSans-110"/>
    <use x="1451.472656" xlink:href="#DejaVuSans-115"/>
   </g>
  </g>
 </g>
 <defs>
  <clipPath id="p3f909c40d7">
   <rect height="266.112" width="357.12" x="57.6" y="41.472"/>
  </clipPath>
 </defs>
</svg>
