<?xml version="1.0" encoding="utf-8" standalone="no"?>
<!DOCTYPE svg PUBLIC "-//W3C//DTD SVG 1.1//EN"
  "http://www.w3.org/Graphics/SVG/1.1/DTD/svg11.dtd">
<!-- Created with matplotlib (https://matplotlib.org/) -->
<svg height="345.6pt" version="1.1" viewBox="0 0 460.8 345.6" width="460.8pt" xmlns="http://www.w3.org/2000/svg" xmlns:xlink="http://www.w3.org/1999/xlink">
 <defs>
  <style type="text/css">
*{stroke-linecap:butt;stroke-linejoin:round;}
  </style>
 </defs>
 <g id="figure_1">
  <g id="patch_1">
   <path d="M 0 345.6 
L 460.8 345.6 
L 460.8 0 
L 0 0 
z
" style="fill:#ffffff;"/>
  </g>
  <g id="axes_1">
   <g id="patch_2">
    <path d="M 57.6 307.584 
L 414.72 307.584 
L 414.72 41.472 
L 57.6 41.472 
z
" style="fill:#ffffff;"/>
   </g>
   <g id="PolyCollection_1">
    <path clip-path="url(#p8acd9a79b7)" d="M 73.832727 264.409473 
L 73.832727 269.693254 
L 75.464157 269.693254 
L 77.095587 269.693254 
L 78.727017 269.693254 
L 80.358447 269.693254 
L 81.989877 269.693254 
L 83.621307 269.693254 
L 85.252736 269.693254 
L 86.884166 269.693254 
L 88.515596 269.693254 
L 90.147026 269.693254 
L 91.778456 269.693254 
L 93.409886 269.693254 
L 95.041316 269.693254 
L 96.672746 269.693254 
L 98.304175 269.693254 
L 99.935605 269.693254 
L 101.567035 269.693254 
L 103.198465 269.693254 
L 104.829895 269.693254 
L 106.461325 269.693254 
L 108.092755 269.693254 
L 109.724185 269.693254 
L 111.355614 269.693254 
L 112.987044 269.693254 
L 114.618474 269.693254 
L 116.249904 269.693254 
L 117.881334 269.693254 
L 119.512764 269.693254 
L 121.144194 269.693254 
L 122.775624 269.693254 
L 124.407053 269.693254 
L 126.038483 269.693254 
L 127.669913 269.693254 
L 129.301343 269.693254 
L 130.932773 269.693254 
L 132.564203 269.693254 
L 134.195633 269.693254 
L 135.827063 269.693254 
L 137.458492 269.693254 
L 139.089922 269.693254 
L 140.721352 269.693254 
L 142.352782 269.693254 
L 143.984212 269.693254 
L 145.615642 269.693254 
L 147.247072 269.693254 
L 148.878502 269.693254 
L 150.509931 269.693254 
L 152.141361 269.693254 
L 153.772791 269.693254 
L 155.404221 269.693254 
L 157.035651 269.693254 
L 158.667081 269.693254 
L 160.298511 269.693254 
L 161.929941 269.693254 
L 163.56137 269.693254 
L 165.1928 269.693254 
L 166.82423 269.693254 
L 168.45566 269.693254 
L 170.08709 269.693254 
L 171.71852 269.693254 
L 173.34995 269.693254 
L 174.98138 269.693254 
L 176.61281 269.693254 
L 178.244239 269.693254 
L 179.875669 269.693254 
L 181.507099 269.693254 
L 183.138529 269.693254 
L 184.769959 269.693254 
L 186.401389 269.693254 
L 188.032819 269.693254 
L 189.664249 269.693254 
L 191.295678 269.693254 
L 192.927108 269.693254 
L 194.558538 269.693254 
L 196.189968 269.693254 
L 197.821398 269.693254 
L 199.452828 269.693254 
L 201.084258 269.693254 
L 202.715688 269.693254 
L 204.347117 269.693254 
L 205.978547 269.587779 
L 207.609977 269.706148 
L 209.241407 270.879097 
L 210.872837 272.982316 
L 212.504267 271.091379 
L 214.135697 272.346809 
L 215.767127 270.488958 
L 217.398556 273.317931 
L 219.029986 271.823789 
L 220.661416 274.478084 
L 222.292846 276.148062 
L 223.924276 272.258104 
L 225.555706 269.650836 
L 227.187136 273.310028 
L 228.818566 275.095407 
L 230.449995 278.573808 
L 232.081425 274.414129 
L 233.712855 276.936376 
L 235.344285 276.509406 
L 236.975715 276.151335 
L 238.607145 280.152319 
L 240.238575 273.989587 
L 241.870005 273.988123 
L 243.501434 275.033545 
L 245.132864 273.734073 
L 246.764294 280.140715 
L 248.395724 278.709967 
L 250.027154 274.37814 
L 251.658584 276.282632 
L 253.290014 276.096718 
L 254.921444 283.836516 
L 256.552873 277.491089 
L 258.184303 277.761095 
L 259.815733 277.496221 
L 261.447163 279.855644 
L 263.078593 276.83773 
L 264.710023 280.22802 
L 266.341453 275.572391 
L 267.972883 279.562332 
L 269.604312 277.391392 
L 271.235742 276.168506 
L 272.867172 279.812321 
L 274.498602 280.753203 
L 276.130032 279.070903 
L 277.761462 278.476108 
L 279.392892 272.649633 
L 281.024322 280.409825 
L 282.655751 276.190135 
L 284.287181 281.967722 
L 285.918611 283.617351 
L 287.550041 285.421842 
L 289.181471 274.012823 
L 290.812901 268.410489 
L 292.444331 275.532441 
L 294.075761 274.683348 
L 295.70719 282.10191 
L 297.33862 278.417134 
L 298.97005 279.486786 
L 300.60148 273.163195 
L 302.23291 276.141205 
L 303.86434 279.44671 
L 305.49577 274.728229 
L 307.1272 279.583961 
L 308.75863 277.530504 
L 310.390059 273.529325 
L 312.021489 276.501025 
L 313.652919 280.073296 
L 315.284349 280.410961 
L 316.915779 284.440268 
L 318.547209 284.373064 
L 320.178639 280.172955 
L 321.810069 278.458948 
L 323.441498 277.141706 
L 325.072928 283.552596 
L 326.704358 281.291676 
L 328.335788 275.546988 
L 329.967218 278.258227 
L 331.598648 278.534294 
L 333.230078 280.382885 
L 334.861508 282.613574 
L 336.492937 274.162713 
L 338.124367 275.948689 
L 339.755797 283.872592 
L 341.387227 277.499429 
L 343.018657 281.028912 
L 344.650087 274.645268 
L 346.281517 274.421122 
L 347.912947 282.269745 
L 349.544376 280.880484 
L 351.175806 276.483042 
L 352.807236 271.279461 
L 354.438666 280.555267 
L 356.070096 279.146781 
L 357.701526 276.614892 
L 359.332956 272.725952 
L 360.964386 283.34286 
L 362.595815 281.663156 
L 364.227245 278.109785 
L 365.858675 283.511985 
L 367.490105 277.823587 
L 369.121535 287.685547 
L 370.752965 283.667678 
L 372.384395 277.858406 
L 374.015825 278.278465 
L 375.647254 277.379759 
L 377.278684 279.508127 
L 378.910114 284.76028 
L 380.541544 271.316515 
L 382.172974 281.476644 
L 383.804404 275.953265 
L 385.435834 274.66611 
L 387.067264 276.331025 
L 388.698693 278.610476 
L 390.330123 272.999881 
L 391.961553 273.151698 
L 393.592983 278.820502 
L 395.224413 279.399879 
L 396.855843 284.675214 
L 398.487273 281.9022 
L 398.487273 268.932058 
L 398.487273 268.932058 
L 396.855843 266.699791 
L 395.224413 274.224029 
L 393.592983 270.32863 
L 391.961553 264.5761 
L 390.330123 269.075365 
L 388.698693 263.897665 
L 387.067264 269.937207 
L 385.435834 268.417197 
L 383.804404 266.227611 
L 382.172974 270.903515 
L 380.541544 266.938371 
L 378.910114 275.613132 
L 377.278684 267.41874 
L 375.647254 269.749241 
L 374.015825 270.837977 
L 372.384395 270.037401 
L 370.752965 270.990667 
L 369.121535 273.195681 
L 367.490105 270.077299 
L 365.858675 270.001328 
L 364.227245 266.461582 
L 362.595815 272.727752 
L 360.964386 272.490073 
L 359.332956 268.236982 
L 357.701526 266.888321 
L 356.070096 269.031805 
L 354.438666 272.333514 
L 352.807236 265.777984 
L 351.175806 268.353847 
L 349.544376 272.798497 
L 347.912947 269.45591 
L 346.281517 264.886967 
L 344.650087 267.042961 
L 343.018657 271.909591 
L 341.387227 270.106619 
L 339.755797 271.282092 
L 338.124367 269.573882 
L 336.492937 265.915949 
L 334.861508 273.983991 
L 333.230078 271.234908 
L 331.598648 271.325165 
L 329.967218 270.005894 
L 328.335788 268.656059 
L 326.704358 270.639021 
L 325.072928 274.295712 
L 323.441498 269.971709 
L 321.810069 270.868247 
L 320.178639 270.943009 
L 318.547209 275.805968 
L 316.915779 275.972651 
L 315.284349 272.550068 
L 313.652919 274.441531 
L 312.021489 269.672148 
L 310.390059 266.691945 
L 308.75863 268.478427 
L 307.1272 270.260008 
L 305.49577 268.127325 
L 303.86434 270.31132 
L 302.23291 268.899755 
L 300.60148 266.166997 
L 298.97005 272.358975 
L 297.33862 269.290018 
L 295.70719 273.655172 
L 294.075761 268.584252 
L 292.444331 268.395589 
L 290.812901 264.136777 
L 289.181471 268.064199 
L 287.550041 273.350131 
L 285.918611 272.904979 
L 284.287181 274.639546 
L 282.655751 267.335001 
L 281.024322 274.524242 
L 279.392892 267.227639 
L 277.761462 270.594475 
L 276.130032 272.925538 
L 274.498602 272.628984 
L 272.867172 273.398939 
L 271.235742 272.012259 
L 269.604312 270.846121 
L 267.972883 269.694948 
L 266.341453 269.602084 
L 264.710023 271.877457 
L 263.078593 270.896795 
L 261.447163 270.583618 
L 259.815733 269.192503 
L 258.184303 268.539247 
L 256.552873 270.995082 
L 254.921444 274.795291 
L 253.290014 268.269936 
L 251.658584 271.194661 
L 250.027154 267.709698 
L 248.395724 268.948543 
L 246.764294 268.898902 
L 245.132864 265.607709 
L 243.501434 269.125566 
L 241.870005 269.067332 
L 240.238575 267.492791 
L 238.607145 269.661276 
L 236.975715 268.474377 
L 235.344285 269.65298 
L 233.712855 267.236864 
L 232.081425 267.369478 
L 230.449995 270.839794 
L 228.818566 264.326306 
L 227.187136 261.361256 
L 225.555706 264.610376 
L 223.924276 266.061578 
L 222.292846 268.402868 
L 220.661416 260.321016 
L 219.029986 267.144184 
L 217.398556 265.541653 
L 215.767127 252.262159 
L 214.135697 266.471533 
L 212.504267 265.271186 
L 210.872837 266.023578 
L 209.241407 262.668288 
L 207.609977 263.827259 
L 205.978547 265.235338 
L 204.347117 263.643707 
L 202.715688 260.886952 
L 201.084258 262.648212 
L 199.452828 267.548935 
L 197.821398 262.648212 
L 196.189968 262.648212 
L 194.558538 266.764069 
L 192.927108 264.409473 
L 191.295678 264.409473 
L 189.664249 267.548935 
L 188.032819 266.170733 
L 186.401389 260.886952 
L 184.769959 264.409473 
L 183.138529 266.170733 
L 181.507099 264.409473 
L 179.875669 262.648212 
L 178.244239 267.548935 
L 176.61281 267.548935 
L 174.98138 266.170733 
L 173.34995 262.648212 
L 171.71852 267.548935 
L 170.08709 266.170733 
L 168.45566 260.886952 
L 166.82423 267.548935 
L 165.1928 262.648212 
L 163.56137 267.548935 
L 161.929941 266.170733 
L 160.298511 266.170733 
L 158.667081 264.409473 
L 157.035651 262.648212 
L 155.404221 264.409473 
L 153.772791 264.409473 
L 152.141361 262.648212 
L 150.509931 264.409473 
L 148.878502 266.170733 
L 147.247072 264.409473 
L 145.615642 264.409473 
L 143.984212 266.170733 
L 142.352782 264.409473 
L 140.721352 264.409473 
L 139.089922 266.170733 
L 137.458492 262.648212 
L 135.827063 264.409473 
L 134.195633 267.548935 
L 132.564203 264.409473 
L 130.932773 266.170733 
L 129.301343 267.548935 
L 127.669913 266.170733 
L 126.038483 264.409473 
L 124.407053 266.170733 
L 122.775624 266.170733 
L 121.144194 264.409473 
L 119.512764 264.409473 
L 117.881334 266.170733 
L 116.249904 260.886952 
L 114.618474 266.170733 
L 112.987044 266.170733 
L 111.355614 266.170733 
L 109.724185 266.170733 
L 108.092755 262.648212 
L 106.461325 266.170733 
L 104.829895 262.648212 
L 103.198465 264.409473 
L 101.567035 262.648212 
L 99.935605 267.548935 
L 98.304175 264.409473 
L 96.672746 264.409473 
L 95.041316 262.648212 
L 93.409886 266.170733 
L 91.778456 262.648212 
L 90.147026 262.648212 
L 88.515596 260.886952 
L 86.884166 262.648212 
L 85.252736 266.170733 
L 83.621307 264.409473 
L 81.989877 267.931993 
L 80.358447 266.170733 
L 78.727017 266.170733 
L 77.095587 266.170733 
L 75.464157 267.931993 
L 73.832727 264.409473 
z
" style="fill:#1f77b4;fill-opacity:0.2;"/>
   </g>
   <g id="PolyCollection_2">
    <path clip-path="url(#p8acd9a79b7)" d="M 73.832727 260.886952 
L 73.832727 269.693254 
L 75.464157 269.693254 
L 77.095587 269.693254 
L 78.727017 269.693254 
L 80.358447 269.693254 
L 81.989877 269.693254 
L 83.621307 269.693254 
L 85.252736 269.693254 
L 86.884166 269.693254 
L 88.515596 269.693254 
L 90.147026 269.693254 
L 91.778456 269.693254 
L 93.409886 269.693254 
L 95.041316 269.693254 
L 96.672746 269.693254 
L 98.304175 269.693254 
L 99.935605 269.693254 
L 101.567035 269.693254 
L 103.198465 269.693254 
L 104.829895 269.693254 
L 106.461325 269.693254 
L 108.092755 269.693254 
L 109.724185 269.693254 
L 111.355614 269.693254 
L 112.987044 269.693254 
L 114.618474 269.693254 
L 116.249904 269.693254 
L 117.881334 269.693254 
L 119.512764 269.693254 
L 121.144194 269.693254 
L 122.775624 269.693254 
L 124.407053 269.693254 
L 126.038483 269.693254 
L 127.669913 269.693254 
L 129.301343 269.693254 
L 130.932773 269.693254 
L 132.564203 269.693254 
L 134.195633 269.693254 
L 135.827063 269.693254 
L 137.458492 269.693254 
L 139.089922 269.693254 
L 140.721352 269.693254 
L 142.352782 269.693254 
L 143.984212 269.693254 
L 145.615642 269.693254 
L 147.247072 269.693254 
L 148.878502 269.693254 
L 150.509931 269.693254 
L 152.141361 269.693254 
L 153.772791 269.693254 
L 155.404221 269.693254 
L 157.035651 269.693254 
L 158.667081 269.693254 
L 160.298511 269.693254 
L 161.929941 269.693254 
L 163.56137 269.693254 
L 165.1928 269.693254 
L 166.82423 269.693254 
L 168.45566 269.693254 
L 170.08709 269.693254 
L 171.71852 269.693254 
L 173.34995 269.693254 
L 174.98138 269.693254 
L 176.61281 269.693254 
L 178.244239 269.693254 
L 179.875669 269.693254 
L 181.507099 269.693254 
L 183.138529 269.693254 
L 184.769959 269.693254 
L 186.401389 269.693254 
L 188.032819 269.693254 
L 189.664249 269.693254 
L 191.295678 269.693254 
L 192.927108 269.693254 
L 194.558538 269.693254 
L 196.189968 269.693254 
L 197.821398 269.693254 
L 199.452828 269.693254 
L 201.084258 269.693254 
L 202.715688 272.820056 
L 204.347117 272.862011 
L 205.978547 272.856854 
L 207.609977 272.839758 
L 209.241407 274.095903 
L 210.872837 275.112081 
L 212.504267 275.081862 
L 214.135697 275.01466 
L 215.767127 277.197094 
L 217.398556 278.840028 
L 219.029986 278.663244 
L 220.661416 278.731109 
L 222.292846 279.922907 
L 223.924276 278.490785 
L 225.555706 278.333018 
L 227.187136 278.990843 
L 228.818566 279.708695 
L 230.449995 283.263583 
L 232.081425 281.20485 
L 233.712855 281.33141 
L 235.344285 281.10131 
L 236.975715 281.065248 
L 238.607145 283.090779 
L 240.238575 280.860403 
L 241.870005 280.710059 
L 243.501434 280.660898 
L 245.132864 280.502861 
L 246.764294 282.354996 
L 248.395724 283.33844 
L 250.027154 280.535846 
L 251.658584 280.437215 
L 253.290014 280.369172 
L 254.921444 290.58953 
L 256.552873 282.016957 
L 258.184303 281.91045 
L 259.815733 281.849106 
L 261.447163 284.172951 
L 263.078593 282.421435 
L 264.710023 282.538314 
L 266.341453 281.682508 
L 267.972883 288.126942 
L 269.604312 283.326361 
L 271.235742 283.059336 
L 272.867172 282.930277 
L 274.498602 283.218177 
L 276.130032 281.426961 
L 277.761462 281.22112 
L 279.392892 280.955469 
L 281.024322 283.437169 
L 282.655751 280.945737 
L 284.287181 283.90701 
L 285.918611 288.014685 
L 287.550041 287.542171 
L 289.181471 282.616559 
L 290.812901 281.954609 
L 292.444331 281.79805 
L 294.075761 281.556827 
L 295.70719 289.987317 
L 297.33862 283.261934 
L 298.97005 285.591036 
L 300.60148 284.123165 
L 302.23291 283.889207 
L 303.86434 285.960142 
L 305.49577 280.756288 
L 307.1272 286.15118 
L 308.75863 282.968748 
L 310.390059 282.677578 
L 312.021489 283.531465 
L 313.652919 284.597759 
L 315.284349 287.429079 
L 316.915779 289.63185 
L 318.547209 292.359427 
L 320.178639 287.787017 
L 321.810069 286.599744 
L 323.441498 285.813046 
L 325.072928 295.488 
L 326.704358 284.776936 
L 328.335788 284.330342 
L 329.967218 284.175479 
L 331.598648 284.002077 
L 333.230078 283.944531 
L 334.861508 287.292474 
L 336.492937 285.374594 
L 338.124367 285.071207 
L 339.755797 286.67566 
L 341.387227 284.791245 
L 343.018657 287.325987 
L 344.650087 286.541817 
L 346.281517 286.200511 
L 347.912947 288.614911 
L 349.544376 287.220234 
L 351.175806 286.183896 
L 352.807236 285.65766 
L 354.438666 285.621851 
L 356.070096 285.584515 
L 357.701526 285.442572 
L 359.332956 285.027628 
L 360.964386 289.823478 
L 362.595815 287.68557 
L 364.227245 287.436767 
L 365.858675 287.413777 
L 367.490105 287.261221 
L 369.121535 294.119299 
L 370.752965 287.486596 
L 372.384395 287.248748 
L 374.015825 286.968365 
L 375.647254 286.789903 
L 377.278684 287.7216 
L 378.910114 290.663405 
L 380.541544 283.111487 
L 382.172974 283.18734 
L 383.804404 281.980441 
L 385.435834 281.689561 
L 387.067264 281.456576 
L 388.698693 283.251414 
L 390.330123 280.133134 
L 391.961553 279.536586 
L 393.592983 286.225882 
L 395.224413 283.002421 
L 396.855843 289.125269 
L 398.487273 284.419138 
L 398.487273 154.582913 
L 398.487273 154.582913 
L 396.855843 53.568 
L 395.224413 138.605775 
L 393.592983 174.014462 
L 391.961553 222.561007 
L 390.330123 170.958199 
L 388.698693 167.632435 
L 387.067264 161.326553 
L 385.435834 183.685311 
L 383.804404 193.64383 
L 382.172974 144.573072 
L 380.541544 122.185814 
L 378.910114 107.936412 
L 377.278684 102.471838 
L 375.647254 224.612422 
L 374.015825 142.696765 
L 372.384395 206.941508 
L 370.752965 216.095322 
L 369.121535 197.742659 
L 367.490105 230.625731 
L 365.858675 188.457442 
L 364.227245 224.27824 
L 362.595815 202.593414 
L 360.964386 175.296888 
L 359.332956 246.572904 
L 357.701526 230.630387 
L 356.070096 213.252117 
L 354.438666 245.441334 
L 352.807236 257.244407 
L 351.175806 191.698634 
L 349.544376 190.588673 
L 347.912947 129.244948 
L 346.281517 218.209424 
L 344.650087 140.669526 
L 343.018657 227.741726 
L 341.387227 237.089545 
L 339.755797 203.399313 
L 338.124367 243.77952 
L 336.492937 226.861263 
L 334.861508 215.31894 
L 333.230078 233.400269 
L 331.598648 250.182164 
L 329.967218 262.007011 
L 328.335788 260.288616 
L 326.704358 218.349841 
L 325.072928 182.161715 
L 323.441498 207.142303 
L 321.810069 211.16242 
L 320.178639 172.986596 
L 318.547209 211.045272 
L 316.915779 204.360994 
L 315.284349 223.612042 
L 313.652919 179.998286 
L 312.021489 167.495548 
L 310.390059 165.579555 
L 308.75863 171.321631 
L 307.1272 205.343637 
L 305.49577 230.68801 
L 303.86434 222.674555 
L 302.23291 218.552893 
L 300.60148 189.448677 
L 298.97005 100.106475 
L 297.33862 178.176299 
L 295.70719 185.135876 
L 294.075761 205.029172 
L 292.444331 254.564417 
L 290.812901 251.665672 
L 289.181471 224.529804 
L 287.550041 199.324054 
L 285.918611 215.743936 
L 284.287181 254.794803 
L 282.655751 189.247265 
L 281.024322 199.243415 
L 279.392892 212.585 
L 277.761462 215.315677 
L 276.130032 225.482526 
L 274.498602 208.486495 
L 272.867172 242.019661 
L 271.235742 232.928229 
L 269.604312 178.347606 
L 267.972883 252.014379 
L 266.341453 256.174548 
L 264.710023 251.121023 
L 263.078593 259.611624 
L 261.447163 194.322605 
L 259.815733 247.144653 
L 258.184303 226.246352 
L 256.552873 228.029565 
L 254.921444 159.541099 
L 253.290014 186.562328 
L 251.658584 228.671686 
L 250.027154 245.885859 
L 248.395724 236.879328 
L 246.764294 213.732673 
L 245.132864 253.730601 
L 243.501434 216.225203 
L 241.870005 228.771616 
L 240.238575 214.574207 
L 238.607145 229.504076 
L 236.975715 221.173549 
L 235.344285 210.3454 
L 233.712855 160.561791 
L 232.081425 222.189191 
L 230.449995 129.745622 
L 228.818566 210.905178 
L 227.187136 199.254449 
L 225.555706 239.886312 
L 223.924276 215.131781 
L 222.292846 234.049611 
L 220.661416 204.400063 
L 219.029986 195.981438 
L 217.398556 227.351862 
L 215.767127 113.199412 
L 214.135697 227.491608 
L 212.504267 243.295701 
L 210.872837 235.943489 
L 209.241407 214.529772 
L 207.609977 213.961403 
L 205.978547 226.43556 
L 204.347117 216.73249 
L 202.715688 201.521995 
L 201.084258 222.341138 
L 199.452828 233.845227 
L 197.821398 260.886952 
L 196.189968 260.886952 
L 194.558538 260.886952 
L 192.927108 260.886952 
L 191.295678 260.886952 
L 189.664249 260.886952 
L 188.032819 260.886952 
L 186.401389 260.886952 
L 184.769959 260.886952 
L 183.138529 260.886952 
L 181.507099 260.886952 
L 179.875669 260.886952 
L 178.244239 260.886952 
L 176.61281 260.886952 
L 174.98138 260.886952 
L 173.34995 260.886952 
L 171.71852 260.886952 
L 170.08709 260.886952 
L 168.45566 260.886952 
L 166.82423 260.886952 
L 165.1928 260.886952 
L 163.56137 260.886952 
L 161.929941 260.886952 
L 160.298511 260.886952 
L 158.667081 260.886952 
L 157.035651 260.886952 
L 155.404221 260.886952 
L 153.772791 260.886952 
L 152.141361 260.886952 
L 150.509931 260.886952 
L 148.878502 260.886952 
L 147.247072 260.886952 
L 145.615642 260.886952 
L 143.984212 260.886952 
L 142.352782 260.886952 
L 140.721352 260.886952 
L 139.089922 260.886952 
L 137.458492 260.886952 
L 135.827063 260.886952 
L 134.195633 260.886952 
L 132.564203 260.886952 
L 130.932773 260.886952 
L 129.301343 260.886952 
L 127.669913 260.886952 
L 126.038483 260.886952 
L 124.407053 260.886952 
L 122.775624 260.886952 
L 121.144194 260.886952 
L 119.512764 260.886952 
L 117.881334 260.886952 
L 116.249904 260.886952 
L 114.618474 260.886952 
L 112.987044 260.886952 
L 111.355614 260.886952 
L 109.724185 260.886952 
L 108.092755 260.886952 
L 106.461325 260.886952 
L 104.829895 260.886952 
L 103.198465 260.886952 
L 101.567035 260.886952 
L 99.935605 260.886952 
L 98.304175 260.886952 
L 96.672746 260.886952 
L 95.041316 260.886952 
L 93.409886 260.886952 
L 91.778456 260.886952 
L 90.147026 260.886952 
L 88.515596 260.886952 
L 86.884166 260.886952 
L 85.252736 260.886952 
L 83.621307 260.886952 
L 81.989877 260.886952 
L 80.358447 260.886952 
L 78.727017 260.886952 
L 77.095587 260.886952 
L 75.464157 260.886952 
L 73.832727 260.886952 
z
" style="fill:#1f77b4;fill-opacity:0.1;"/>
   </g>
   <g id="matplotlib.axis_1">
    <g id="xtick_1">
     <g id="line2d_1">
      <defs>
       <path d="M 0 0 
L 0 3.5 
" id="mcc295b7887" style="stroke:#000000;stroke-width:0.8;"/>
      </defs>
      <g>
       <use style="stroke:#000000;stroke-width:0.8;" x="73.832727" xlink:href="#mcc295b7887" y="307.584"/>
      </g>
     </g>
     <g id="text_1">
      <!-- 0 -->
      <defs>
       <path d="M 31.78125 66.40625 
Q 24.171875 66.40625 20.328125 58.90625 
Q 16.5 51.421875 16.5 36.375 
Q 16.5 21.390625 20.328125 13.890625 
Q 24.171875 6.390625 31.78125 6.390625 
Q 39.453125 6.390625 43.28125 13.890625 
Q 47.125 21.390625 47.125 36.375 
Q 47.125 51.421875 43.28125 58.90625 
Q 39.453125 66.40625 31.78125 66.40625 
z
M 31.78125 74.21875 
Q 44.046875 74.21875 50.515625 64.515625 
Q 56.984375 54.828125 56.984375 36.375 
Q 56.984375 17.96875 50.515625 8.265625 
Q 44.046875 -1.421875 31.78125 -1.421875 
Q 19.53125 -1.421875 13.0625 8.265625 
Q 6.59375 17.96875 6.59375 36.375 
Q 6.59375 54.828125 13.0625 64.515625 
Q 19.53125 74.21875 31.78125 74.21875 
z
" id="DejaVuSans-48"/>
      </defs>
      <g transform="translate(70.651477 322.182437)scale(0.1 -0.1)">
       <use xlink:href="#DejaVuSans-48"/>
      </g>
     </g>
    </g>
    <g id="xtick_2">
     <g id="line2d_2">
      <g>
       <use style="stroke:#000000;stroke-width:0.8;" x="114.618474" xlink:href="#mcc295b7887" y="307.584"/>
      </g>
     </g>
     <g id="text_2">
      <!-- 25 -->
      <defs>
       <path d="M 19.1875 8.296875 
L 53.609375 8.296875 
L 53.609375 0 
L 7.328125 0 
L 7.328125 8.296875 
Q 12.9375 14.109375 22.625 23.890625 
Q 32.328125 33.6875 34.8125 36.53125 
Q 39.546875 41.84375 41.421875 45.53125 
Q 43.3125 49.21875 43.3125 52.78125 
Q 43.3125 58.59375 39.234375 62.25 
Q 35.15625 65.921875 28.609375 65.921875 
Q 23.96875 65.921875 18.8125 64.3125 
Q 13.671875 62.703125 7.8125 59.421875 
L 7.8125 69.390625 
Q 13.765625 71.78125 18.9375 73 
Q 24.125 74.21875 28.421875 74.21875 
Q 39.75 74.21875 46.484375 68.546875 
Q 53.21875 62.890625 53.21875 53.421875 
Q 53.21875 48.921875 51.53125 44.890625 
Q 49.859375 40.875 45.40625 35.40625 
Q 44.1875 33.984375 37.640625 27.21875 
Q 31.109375 20.453125 19.1875 8.296875 
z
" id="DejaVuSans-50"/>
       <path d="M 10.796875 72.90625 
L 49.515625 72.90625 
L 49.515625 64.59375 
L 19.828125 64.59375 
L 19.828125 46.734375 
Q 21.96875 47.46875 24.109375 47.828125 
Q 26.265625 48.1875 28.421875 48.1875 
Q 40.625 48.1875 47.75 41.5 
Q 54.890625 34.8125 54.890625 23.390625 
Q 54.890625 11.625 47.5625 5.09375 
Q 40.234375 -1.421875 26.90625 -1.421875 
Q 22.3125 -1.421875 17.546875 -0.640625 
Q 12.796875 0.140625 7.71875 1.703125 
L 7.71875 11.625 
Q 12.109375 9.234375 16.796875 8.0625 
Q 21.484375 6.890625 26.703125 6.890625 
Q 35.15625 6.890625 40.078125 11.328125 
Q 45.015625 15.765625 45.015625 23.390625 
Q 45.015625 31 40.078125 35.4375 
Q 35.15625 39.890625 26.703125 39.890625 
Q 22.75 39.890625 18.8125 39.015625 
Q 14.890625 38.140625 10.796875 36.28125 
z
" id="DejaVuSans-53"/>
      </defs>
      <g transform="translate(108.255974 322.182437)scale(0.1 -0.1)">
       <use xlink:href="#DejaVuSans-50"/>
       <use x="63.623047" xlink:href="#DejaVuSans-53"/>
      </g>
     </g>
    </g>
    <g id="xtick_3">
     <g id="line2d_3">
      <g>
       <use style="stroke:#000000;stroke-width:0.8;" x="155.404221" xlink:href="#mcc295b7887" y="307.584"/>
      </g>
     </g>
     <g id="text_3">
      <!-- 50 -->
      <g transform="translate(149.041721 322.182437)scale(0.1 -0.1)">
       <use xlink:href="#DejaVuSans-53"/>
       <use x="63.623047" xlink:href="#DejaVuSans-48"/>
      </g>
     </g>
    </g>
    <g id="xtick_4">
     <g id="line2d_4">
      <g>
       <use style="stroke:#000000;stroke-width:0.8;" x="196.189968" xlink:href="#mcc295b7887" y="307.584"/>
      </g>
     </g>
     <g id="text_4">
      <!-- 75 -->
      <defs>
       <path d="M 8.203125 72.90625 
L 55.078125 72.90625 
L 55.078125 68.703125 
L 28.609375 0 
L 18.3125 0 
L 43.21875 64.59375 
L 8.203125 64.59375 
z
" id="DejaVuSans-55"/>
      </defs>
      <g transform="translate(189.827468 322.182437)scale(0.1 -0.1)">
       <use xlink:href="#DejaVuSans-55"/>
       <use x="63.623047" xlink:href="#DejaVuSans-53"/>
      </g>
     </g>
    </g>
    <g id="xtick_5">
     <g id="line2d_5">
      <g>
       <use style="stroke:#000000;stroke-width:0.8;" x="236.975715" xlink:href="#mcc295b7887" y="307.584"/>
      </g>
     </g>
     <g id="text_5">
      <!-- 100 -->
      <defs>
       <path d="M 12.40625 8.296875 
L 28.515625 8.296875 
L 28.515625 63.921875 
L 10.984375 60.40625 
L 10.984375 69.390625 
L 28.421875 72.90625 
L 38.28125 72.90625 
L 38.28125 8.296875 
L 54.390625 8.296875 
L 54.390625 0 
L 12.40625 0 
z
" id="DejaVuSans-49"/>
      </defs>
      <g transform="translate(227.431965 322.182437)scale(0.1 -0.1)">
       <use xlink:href="#DejaVuSans-49"/>
       <use x="63.623047" xlink:href="#DejaVuSans-48"/>
       <use x="127.246094" xlink:href="#DejaVuSans-48"/>
      </g>
     </g>
    </g>
    <g id="xtick_6">
     <g id="line2d_6">
      <g>
       <use style="stroke:#000000;stroke-width:0.8;" x="277.761462" xlink:href="#mcc295b7887" y="307.584"/>
      </g>
     </g>
     <g id="text_6">
      <!-- 125 -->
      <g transform="translate(268.217712 322.182437)scale(0.1 -0.1)">
       <use xlink:href="#DejaVuSans-49"/>
       <use x="63.623047" xlink:href="#DejaVuSans-50"/>
       <use x="127.246094" xlink:href="#DejaVuSans-53"/>
      </g>
     </g>
    </g>
    <g id="xtick_7">
     <g id="line2d_7">
      <g>
       <use style="stroke:#000000;stroke-width:0.8;" x="318.547209" xlink:href="#mcc295b7887" y="307.584"/>
      </g>
     </g>
     <g id="text_7">
      <!-- 150 -->
      <g transform="translate(309.003459 322.182437)scale(0.1 -0.1)">
       <use xlink:href="#DejaVuSans-49"/>
       <use x="63.623047" xlink:href="#DejaVuSans-53"/>
       <use x="127.246094" xlink:href="#DejaVuSans-48"/>
      </g>
     </g>
    </g>
    <g id="xtick_8">
     <g id="line2d_8">
      <g>
       <use style="stroke:#000000;stroke-width:0.8;" x="359.332956" xlink:href="#mcc295b7887" y="307.584"/>
      </g>
     </g>
     <g id="text_8">
      <!-- 175 -->
      <g transform="translate(349.789206 322.182437)scale(0.1 -0.1)">
       <use xlink:href="#DejaVuSans-49"/>
       <use x="63.623047" xlink:href="#DejaVuSans-55"/>
       <use x="127.246094" xlink:href="#DejaVuSans-53"/>
      </g>
     </g>
    </g>
    <g id="xtick_9">
     <g id="line2d_9">
      <g>
       <use style="stroke:#000000;stroke-width:0.8;" x="400.118703" xlink:href="#mcc295b7887" y="307.584"/>
      </g>
     </g>
     <g id="text_9">
      <!-- 200 -->
      <g transform="translate(390.574953 322.182437)scale(0.1 -0.1)">
       <use xlink:href="#DejaVuSans-50"/>
       <use x="63.623047" xlink:href="#DejaVuSans-48"/>
       <use x="127.246094" xlink:href="#DejaVuSans-48"/>
      </g>
     </g>
    </g>
   </g>
   <g id="matplotlib.axis_2">
    <g id="ytick_1">
     <g id="line2d_10">
      <defs>
       <path d="M 0 0 
L -3.5 0 
" id="mcd3a0d517e" style="stroke:#000000;stroke-width:0.8;"/>
      </defs>
      <g>
       <use style="stroke:#000000;stroke-width:0.8;" x="57.6" xlink:href="#mcd3a0d517e" y="276.960335"/>
      </g>
     </g>
     <g id="text_10">
      <!-- 1.0 -->
      <defs>
       <path d="M 10.6875 12.40625 
L 21 12.40625 
L 21 0 
L 10.6875 0 
z
" id="DejaVuSans-46"/>
      </defs>
      <g transform="translate(34.696875 280.759554)scale(0.1 -0.1)">
       <use xlink:href="#DejaVuSans-49"/>
       <use x="63.623047" xlink:href="#DejaVuSans-46"/>
       <use x="95.410156" xlink:href="#DejaVuSans-48"/>
      </g>
     </g>
    </g>
    <g id="ytick_2">
     <g id="line2d_11">
      <g>
       <use style="stroke:#000000;stroke-width:0.8;" x="57.6" xlink:href="#mcd3a0d517e" y="240.113603"/>
      </g>
     </g>
     <g id="text_11">
      <!-- 1.5 -->
      <g transform="translate(34.696875 243.912821)scale(0.1 -0.1)">
       <use xlink:href="#DejaVuSans-49"/>
       <use x="63.623047" xlink:href="#DejaVuSans-46"/>
       <use x="95.410156" xlink:href="#DejaVuSans-53"/>
      </g>
     </g>
    </g>
    <g id="ytick_3">
     <g id="line2d_12">
      <g>
       <use style="stroke:#000000;stroke-width:0.8;" x="57.6" xlink:href="#mcd3a0d517e" y="203.26687"/>
      </g>
     </g>
     <g id="text_12">
      <!-- 2.0 -->
      <g transform="translate(34.696875 207.066089)scale(0.1 -0.1)">
       <use xlink:href="#DejaVuSans-50"/>
       <use x="63.623047" xlink:href="#DejaVuSans-46"/>
       <use x="95.410156" xlink:href="#DejaVuSans-48"/>
      </g>
     </g>
    </g>
    <g id="ytick_4">
     <g id="line2d_13">
      <g>
       <use style="stroke:#000000;stroke-width:0.8;" x="57.6" xlink:href="#mcd3a0d517e" y="166.420138"/>
      </g>
     </g>
     <g id="text_13">
      <!-- 2.5 -->
      <g transform="translate(34.696875 170.219357)scale(0.1 -0.1)">
       <use xlink:href="#DejaVuSans-50"/>
       <use x="63.623047" xlink:href="#DejaVuSans-46"/>
       <use x="95.410156" xlink:href="#DejaVuSans-53"/>
      </g>
     </g>
    </g>
    <g id="ytick_5">
     <g id="line2d_14">
      <g>
       <use style="stroke:#000000;stroke-width:0.8;" x="57.6" xlink:href="#mcd3a0d517e" y="129.573406"/>
      </g>
     </g>
     <g id="text_14">
      <!-- 3.0 -->
      <defs>
       <path d="M 40.578125 39.3125 
Q 47.65625 37.796875 51.625 33 
Q 55.609375 28.21875 55.609375 21.1875 
Q 55.609375 10.40625 48.1875 4.484375 
Q 40.765625 -1.421875 27.09375 -1.421875 
Q 22.515625 -1.421875 17.65625 -0.515625 
Q 12.796875 0.390625 7.625 2.203125 
L 7.625 11.71875 
Q 11.71875 9.328125 16.59375 8.109375 
Q 21.484375 6.890625 26.8125 6.890625 
Q 36.078125 6.890625 40.9375 10.546875 
Q 45.796875 14.203125 45.796875 21.1875 
Q 45.796875 27.640625 41.28125 31.265625 
Q 36.765625 34.90625 28.71875 34.90625 
L 20.21875 34.90625 
L 20.21875 43.015625 
L 29.109375 43.015625 
Q 36.375 43.015625 40.234375 45.921875 
Q 44.09375 48.828125 44.09375 54.296875 
Q 44.09375 59.90625 40.109375 62.90625 
Q 36.140625 65.921875 28.71875 65.921875 
Q 24.65625 65.921875 20.015625 65.03125 
Q 15.375 64.15625 9.8125 62.3125 
L 9.8125 71.09375 
Q 15.4375 72.65625 20.34375 73.4375 
Q 25.25 74.21875 29.59375 74.21875 
Q 40.828125 74.21875 47.359375 69.109375 
Q 53.90625 64.015625 53.90625 55.328125 
Q 53.90625 49.265625 50.4375 45.09375 
Q 46.96875 40.921875 40.578125 39.3125 
z
" id="DejaVuSans-51"/>
      </defs>
      <g transform="translate(34.696875 133.372624)scale(0.1 -0.1)">
       <use xlink:href="#DejaVuSans-51"/>
       <use x="63.623047" xlink:href="#DejaVuSans-46"/>
       <use x="95.410156" xlink:href="#DejaVuSans-48"/>
      </g>
     </g>
    </g>
    <g id="ytick_6">
     <g id="line2d_15">
      <g>
       <use style="stroke:#000000;stroke-width:0.8;" x="57.6" xlink:href="#mcd3a0d517e" y="92.726673"/>
      </g>
     </g>
     <g id="text_15">
      <!-- 3.5 -->
      <g transform="translate(34.696875 96.525892)scale(0.1 -0.1)">
       <use xlink:href="#DejaVuSans-51"/>
       <use x="63.623047" xlink:href="#DejaVuSans-46"/>
       <use x="95.410156" xlink:href="#DejaVuSans-53"/>
      </g>
     </g>
    </g>
    <g id="ytick_7">
     <g id="line2d_16">
      <g>
       <use style="stroke:#000000;stroke-width:0.8;" x="57.6" xlink:href="#mcd3a0d517e" y="55.879941"/>
      </g>
     </g>
     <g id="text_16">
      <!-- 4.0 -->
      <defs>
       <path d="M 37.796875 64.3125 
L 12.890625 25.390625 
L 37.796875 25.390625 
z
M 35.203125 72.90625 
L 47.609375 72.90625 
L 47.609375 25.390625 
L 58.015625 25.390625 
L 58.015625 17.1875 
L 47.609375 17.1875 
L 47.609375 0 
L 37.796875 0 
L 37.796875 17.1875 
L 4.890625 17.1875 
L 4.890625 26.703125 
z
" id="DejaVuSans-52"/>
      </defs>
      <g transform="translate(34.696875 59.67916)scale(0.1 -0.1)">
       <use xlink:href="#DejaVuSans-52"/>
       <use x="63.623047" xlink:href="#DejaVuSans-46"/>
       <use x="95.410156" xlink:href="#DejaVuSans-48"/>
      </g>
     </g>
    </g>
   </g>
   <g id="line2d_17">
    <path clip-path="url(#p8acd9a79b7)" d="M 73.832727 267.548935 
L 75.464157 269.693254 
L 78.727017 269.693254 
L 80.358447 267.548935 
L 81.989877 269.693254 
L 90.147026 269.693254 
L 91.778456 267.548935 
L 93.409886 269.693254 
L 99.935605 269.693254 
L 101.567035 267.548935 
L 103.198465 269.693254 
L 109.724185 269.693254 
L 111.355614 267.548935 
L 112.987044 269.693254 
L 119.512764 269.693254 
L 121.144194 268.621094 
L 122.775624 269.693254 
L 130.932773 269.693254 
L 132.564203 267.548935 
L 134.195633 267.931993 
L 135.827063 269.693254 
L 137.458492 269.693254 
L 139.089922 267.548935 
L 140.721352 269.693254 
L 142.352782 269.693254 
L 143.984212 267.548935 
L 147.247072 269.693254 
L 148.878502 267.548935 
L 150.509931 267.548935 
L 152.141361 269.693254 
L 173.34995 269.693254 
L 174.98138 267.548935 
L 176.61281 267.931993 
L 178.244239 267.931993 
L 179.875669 269.693254 
L 181.507099 267.548935 
L 183.138529 269.693254 
L 188.032819 269.693254 
L 189.664249 267.931993 
L 191.295678 269.693254 
L 192.927108 267.548935 
L 194.558538 269.693254 
L 199.452828 269.693254 
L 201.084258 267.548935 
L 202.715688 267.548935 
L 204.347117 267.931993 
L 205.978547 268.432086 
L 207.609977 266.929841 
L 209.241407 267.340998 
L 210.872837 270.044107 
L 212.504267 269.07378 
L 214.135697 268.915121 
L 215.767127 261.051074 
L 217.398556 269.687997 
L 219.029986 269.988619 
L 220.661416 267.011789 
L 222.292846 272.037418 
L 223.924276 269.28523 
L 225.555706 266.304487 
L 227.187136 269.613686 
L 228.818566 269.76064 
L 230.449995 275.339215 
L 232.081425 271.341776 
L 233.712855 273.149563 
L 236.975715 272.622376 
L 238.607145 274.442741 
L 240.238575 272.246702 
L 241.870005 272.037182 
L 243.501434 271.561146 
L 245.132864 269.684302 
L 246.764294 273.955057 
L 248.395724 274.579481 
L 250.027154 269.934867 
L 251.658584 274.056634 
L 253.290014 272.558924 
L 254.921444 278.684918 
L 256.552873 274.582209 
L 258.184303 273.665302 
L 259.815733 272.989169 
L 261.447163 275.450825 
L 263.078593 274.565788 
L 264.710023 275.343983 
L 266.341453 271.457176 
L 267.972883 275.754001 
L 269.604312 276.150938 
L 271.235742 274.494189 
L 272.867172 278.75642 
L 274.498602 277.631327 
L 276.130032 277.351198 
L 277.761462 276.543785 
L 279.392892 270.079569 
L 281.024322 277.814624 
L 282.655751 272.822222 
L 284.287181 279.464251 
L 285.918611 278.333943 
L 287.550041 278.98806 
L 289.181471 271.586579 
L 290.812901 266.405106 
L 292.444331 272.132266 
L 294.075761 272.759881 
L 295.70719 278.309321 
L 298.97005 275.487506 
L 300.60148 269.835414 
L 302.23291 271.671057 
L 303.86434 275.00402 
L 305.49577 273.258927 
L 307.1272 275.57784 
L 308.75863 272.536802 
L 310.390059 271.144484 
L 313.652919 277.296374 
L 315.284349 277.132495 
L 316.915779 279.737428 
L 318.547209 280.462975 
L 320.178639 275.191931 
L 323.441498 273.192311 
L 325.072928 278.763314 
L 326.704358 274.592601 
L 328.335788 270.970088 
L 331.598648 276.166502 
L 333.230078 276.662746 
L 334.861508 278.246531 
L 336.492937 266.812818 
L 338.124367 271.203424 
L 339.755797 278.509333 
L 341.387227 274.200893 
L 343.018657 275.631698 
L 344.650087 272.317219 
L 346.281517 269.414865 
L 347.912947 276.07277 
L 349.544376 276.378378 
L 351.175806 271.919976 
L 352.807236 268.505214 
L 354.438666 277.465101 
L 356.070096 275.125613 
L 357.701526 272.5276 
L 359.332956 270.310458 
L 360.964386 278.426664 
L 362.595815 278.231591 
L 364.227245 271.659078 
L 365.858675 278.17807 
L 367.490105 274.037626 
L 369.121535 280.895862 
L 370.752965 278.258741 
L 372.384395 273.706419 
L 374.015825 275.716251 
L 375.647254 273.976286 
L 377.278684 276.540781 
L 378.910114 279.739459 
L 380.541544 269.369457 
L 382.172974 277.963799 
L 383.804404 273.219559 
L 385.435834 271.883193 
L 387.067264 274.923404 
L 388.698693 272.996938 
L 390.330123 272.273259 
L 391.961553 267.009455 
L 393.592983 274.805202 
L 395.224413 277.361717 
L 396.855843 278.439586 
L 398.487273 276.184207 
L 398.487273 276.184207 
" style="fill:none;stroke:#1f77b4;stroke-linecap:square;stroke-width:0.25;"/>
   </g>
   <g id="line2d_18">
    <path clip-path="url(#p8acd9a79b7)" d="M 73.832727 266.705192 
L 75.464157 267.683877 
L 77.095587 267.359939 
L 78.727017 267.869954 
L 80.358447 266.937236 
L 81.989877 267.768109 
L 83.621307 267.30252 
L 85.252736 267.338495 
L 86.884166 266.480849 
L 88.515596 266.460946 
L 90.147026 267.084258 
L 91.778456 266.812407 
L 93.409886 267.536065 
L 96.672746 267.348447 
L 98.304175 266.977832 
L 99.935605 267.829358 
L 101.567035 266.408858 
L 103.198465 267.353818 
L 104.829895 267.226699 
L 106.461325 267.84314 
L 108.092755 267.1662 
L 111.355614 267.602684 
L 112.987044 267.400535 
L 114.618474 267.316302 
L 116.249904 266.444083 
L 117.881334 267.445711 
L 119.512764 267.29944 
L 124.407053 267.627958 
L 126.038483 267.312472 
L 127.669913 267.794133 
L 129.301343 267.863043 
L 130.932773 267.581241 
L 132.564203 266.724344 
L 134.195633 267.542185 
L 137.458492 266.96251 
L 139.089922 266.841512 
L 140.721352 267.342326 
L 142.352782 267.516912 
L 143.984212 267.105701 
L 145.615642 267.025299 
L 147.247072 267.069726 
L 148.878502 266.899721 
L 150.509931 266.395076 
L 152.141361 266.784093 
L 153.772791 267.432679 
L 155.404221 267.117193 
L 157.035651 267.009227 
L 160.298511 267.222868 
L 161.929941 267.627958 
L 163.56137 267.722142 
L 165.1928 267.1662 
L 166.82423 267.696118 
L 168.45566 266.044364 
L 170.08709 267.645571 
L 171.71852 267.348447 
L 173.34995 266.754989 
L 174.98138 267.477856 
L 178.244239 267.624128 
L 179.875669 267.064355 
L 181.507099 266.76265 
L 183.138529 267.385212 
L 186.401389 266.993904 
L 188.032819 267.659353 
L 189.664249 267.581241 
L 191.295678 267.171571 
L 192.927108 267.003856 
L 194.558538 267.77652 
L 196.189968 267.248142 
L 197.821398 266.987784 
L 199.452828 267.464202 
L 201.084258 265.644262 
L 202.715688 264.54115 
L 204.347117 265.052267 
L 205.978547 266.44452 
L 207.609977 265.778779 
L 209.241407 265.751943 
L 210.872837 268.036831 
L 212.504267 267.864484 
L 214.135697 268.083933 
L 215.767127 256.323447 
L 217.398556 268.415865 
L 219.029986 268.00074 
L 220.661416 264.402375 
L 222.292846 270.434095 
L 223.924276 267.623898 
L 225.555706 267.14591 
L 227.187136 265.491619 
L 228.818566 268.122114 
L 230.449995 267.85983 
L 232.081425 269.741025 
L 233.712855 265.992377 
L 235.344285 271.375847 
L 236.975715 271.180708 
L 238.607145 273.426311 
L 240.238575 270.581204 
L 241.870005 270.458857 
L 243.501434 270.016733 
L 245.132864 269.813989 
L 246.764294 272.924384 
L 248.395724 272.310891 
L 250.027154 269.84418 
L 251.658584 272.439457 
L 253.290014 268.813655 
L 254.921444 274.149294 
L 256.552873 272.215829 
L 258.184303 271.829113 
L 259.815733 272.47311 
L 261.447163 272.83039 
L 263.078593 273.801231 
L 264.710023 275.20069 
L 266.341453 272.230865 
L 267.972883 274.172319 
L 269.604312 272.410705 
L 271.235742 272.717295 
L 272.867172 275.830669 
L 274.498602 273.485452 
L 276.130032 274.412929 
L 277.761462 273.557857 
L 279.392892 267.586301 
L 281.024322 276.070659 
L 282.655751 270.237199 
L 284.287181 277.926425 
L 285.918611 275.606786 
L 287.550041 276.037966 
L 289.181471 269.953243 
L 290.812901 266.51376 
L 292.444331 271.802379 
L 294.075761 268.775171 
L 295.70719 273.576936 
L 297.33862 271.918338 
L 298.97005 269.179921 
L 300.60148 268.673649 
L 302.23291 270.753759 
L 303.86434 273.632612 
L 305.49577 271.185191 
L 307.1272 270.059195 
L 308.75863 271.695251 
L 310.390059 266.592196 
L 313.652919 274.030994 
L 315.284349 274.58444 
L 316.915779 277.564906 
L 318.547209 277.344625 
L 320.178639 272.003517 
L 321.810069 273.463781 
L 323.441498 271.234978 
L 325.072928 275.45317 
L 326.704358 274.597736 
L 328.335788 271.694898 
L 329.967218 273.63136 
L 333.230078 274.849273 
L 334.861508 276.855616 
L 336.492937 268.912219 
L 338.124367 271.483125 
L 339.755797 274.782249 
L 341.387227 273.151854 
L 343.018657 275.261545 
L 344.650087 269.103241 
L 346.281517 268.380254 
L 347.912947 272.876518 
L 349.544376 273.395277 
L 351.175806 269.70918 
L 352.807236 268.417263 
L 354.438666 275.742035 
L 356.070096 271.714255 
L 359.332956 270.035447 
L 360.964386 274.305981 
L 362.595815 275.509661 
L 364.227245 272.13627 
L 365.858675 273.935792 
L 367.490105 272.441888 
L 369.121535 275.197697 
L 370.752965 275.761167 
L 372.384395 271.00722 
L 375.647254 271.829221 
L 377.278684 271.179226 
L 378.910114 274.297968 
L 380.541544 266.511656 
L 382.172974 269.706701 
L 383.804404 269.387305 
L 385.435834 269.437429 
L 388.698693 267.793652 
L 390.330123 264.412383 
L 391.961553 267.941646 
L 393.592983 271.755236 
L 395.224413 272.508631 
L 396.855843 262.635155 
L 398.487273 269.370225 
L 398.487273 269.370225 
" style="fill:none;stroke:#2ca02c;stroke-linecap:square;stroke-width:0.75;"/>
   </g>
   <g id="patch_3">
    <path d="M 57.6 307.584 
L 57.6 41.472 
" style="fill:none;stroke:#000000;stroke-linecap:square;stroke-linejoin:miter;stroke-width:0.8;"/>
   </g>
   <g id="patch_4">
    <path d="M 414.72 307.584 
L 414.72 41.472 
" style="fill:none;stroke:#000000;stroke-linecap:square;stroke-linejoin:miter;stroke-width:0.8;"/>
   </g>
   <g id="patch_5">
    <path d="M 57.6 307.584 
L 414.72 307.584 
" style="fill:none;stroke:#000000;stroke-linecap:square;stroke-linejoin:miter;stroke-width:0.8;"/>
   </g>
   <g id="patch_6">
    <path d="M 57.6 41.472 
L 414.72 41.472 
" style="fill:none;stroke:#000000;stroke-linecap:square;stroke-linejoin:miter;stroke-width:0.8;"/>
   </g>
   <g id="legend_1">
    <g id="patch_7">
     <path d="M 338.234063 78.82825 
L 407.72 78.82825 
Q 409.72 78.82825 409.72 76.82825 
L 409.72 48.472 
Q 409.72 46.472 407.72 46.472 
L 338.234063 46.472 
Q 336.234063 46.472 336.234063 48.472 
L 336.234063 76.82825 
Q 336.234063 78.82825 338.234063 78.82825 
z
" style="fill:#ffffff;opacity:0.8;stroke:#cccccc;stroke-linejoin:miter;"/>
    </g>
    <g id="line2d_19">
     <path d="M 340.234063 54.570437 
L 360.234063 54.570437 
" style="fill:none;stroke:#1f77b4;stroke-linecap:square;stroke-width:0.25;"/>
    </g>
    <g id="line2d_20"/>
    <g id="text_17">
     <!-- median -->
     <defs>
      <path d="M 52 44.1875 
Q 55.375 50.25 60.0625 53.125 
Q 64.75 56 71.09375 56 
Q 79.640625 56 84.28125 50.015625 
Q 88.921875 44.046875 88.921875 33.015625 
L 88.921875 0 
L 79.890625 0 
L 79.890625 32.71875 
Q 79.890625 40.578125 77.09375 44.375 
Q 74.3125 48.1875 68.609375 48.1875 
Q 61.625 48.1875 57.5625 43.546875 
Q 53.515625 38.921875 53.515625 30.90625 
L 53.515625 0 
L 44.484375 0 
L 44.484375 32.71875 
Q 44.484375 40.625 41.703125 44.40625 
Q 38.921875 48.1875 33.109375 48.1875 
Q 26.21875 48.1875 22.15625 43.53125 
Q 18.109375 38.875 18.109375 30.90625 
L 18.109375 0 
L 9.078125 0 
L 9.078125 54.6875 
L 18.109375 54.6875 
L 18.109375 46.1875 
Q 21.1875 51.21875 25.484375 53.609375 
Q 29.78125 56 35.6875 56 
Q 41.65625 56 45.828125 52.96875 
Q 50 49.953125 52 44.1875 
z
" id="DejaVuSans-109"/>
      <path d="M 56.203125 29.59375 
L 56.203125 25.203125 
L 14.890625 25.203125 
Q 15.484375 15.921875 20.484375 11.0625 
Q 25.484375 6.203125 34.421875 6.203125 
Q 39.59375 6.203125 44.453125 7.46875 
Q 49.3125 8.734375 54.109375 11.28125 
L 54.109375 2.78125 
Q 49.265625 0.734375 44.1875 -0.34375 
Q 39.109375 -1.421875 33.890625 -1.421875 
Q 20.796875 -1.421875 13.15625 6.1875 
Q 5.515625 13.8125 5.515625 26.8125 
Q 5.515625 40.234375 12.765625 48.109375 
Q 20.015625 56 32.328125 56 
Q 43.359375 56 49.78125 48.890625 
Q 56.203125 41.796875 56.203125 29.59375 
z
M 47.21875 32.234375 
Q 47.125 39.59375 43.09375 43.984375 
Q 39.0625 48.390625 32.421875 48.390625 
Q 24.90625 48.390625 20.390625 44.140625 
Q 15.875 39.890625 15.1875 32.171875 
z
" id="DejaVuSans-101"/>
      <path d="M 45.40625 46.390625 
L 45.40625 75.984375 
L 54.390625 75.984375 
L 54.390625 0 
L 45.40625 0 
L 45.40625 8.203125 
Q 42.578125 3.328125 38.25 0.953125 
Q 33.9375 -1.421875 27.875 -1.421875 
Q 17.96875 -1.421875 11.734375 6.484375 
Q 5.515625 14.40625 5.515625 27.296875 
Q 5.515625 40.1875 11.734375 48.09375 
Q 17.96875 56 27.875 56 
Q 33.9375 56 38.25 53.625 
Q 42.578125 51.265625 45.40625 46.390625 
z
M 14.796875 27.296875 
Q 14.796875 17.390625 18.875 11.75 
Q 22.953125 6.109375 30.078125 6.109375 
Q 37.203125 6.109375 41.296875 11.75 
Q 45.40625 17.390625 45.40625 27.296875 
Q 45.40625 37.203125 41.296875 42.84375 
Q 37.203125 48.484375 30.078125 48.484375 
Q 22.953125 48.484375 18.875 42.84375 
Q 14.796875 37.203125 14.796875 27.296875 
z
" id="DejaVuSans-100"/>
      <path d="M 9.421875 54.6875 
L 18.40625 54.6875 
L 18.40625 0 
L 9.421875 0 
z
M 9.421875 75.984375 
L 18.40625 75.984375 
L 18.40625 64.59375 
L 9.421875 64.59375 
z
" id="DejaVuSans-105"/>
      <path d="M 34.28125 27.484375 
Q 23.390625 27.484375 19.1875 25 
Q 14.984375 22.515625 14.984375 16.5 
Q 14.984375 11.71875 18.140625 8.90625 
Q 21.296875 6.109375 26.703125 6.109375 
Q 34.1875 6.109375 38.703125 11.40625 
Q 43.21875 16.703125 43.21875 25.484375 
L 43.21875 27.484375 
z
M 52.203125 31.203125 
L 52.203125 0 
L 43.21875 0 
L 43.21875 8.296875 
Q 40.140625 3.328125 35.546875 0.953125 
Q 30.953125 -1.421875 24.3125 -1.421875 
Q 15.921875 -1.421875 10.953125 3.296875 
Q 6 8.015625 6 15.921875 
Q 6 25.140625 12.171875 29.828125 
Q 18.359375 34.515625 30.609375 34.515625 
L 43.21875 34.515625 
L 43.21875 35.40625 
Q 43.21875 41.609375 39.140625 45 
Q 35.0625 48.390625 27.6875 48.390625 
Q 23 48.390625 18.546875 47.265625 
Q 14.109375 46.140625 10.015625 43.890625 
L 10.015625 52.203125 
Q 14.9375 54.109375 19.578125 55.046875 
Q 24.21875 56 28.609375 56 
Q 40.484375 56 46.34375 49.84375 
Q 52.203125 43.703125 52.203125 31.203125 
z
" id="DejaVuSans-97"/>
      <path d="M 54.890625 33.015625 
L 54.890625 0 
L 45.90625 0 
L 45.90625 32.71875 
Q 45.90625 40.484375 42.875 44.328125 
Q 39.84375 48.1875 33.796875 48.1875 
Q 26.515625 48.1875 22.3125 43.546875 
Q 18.109375 38.921875 18.109375 30.90625 
L 18.109375 0 
L 9.078125 0 
L 9.078125 54.6875 
L 18.109375 54.6875 
L 18.109375 46.1875 
Q 21.34375 51.125 25.703125 53.5625 
Q 30.078125 56 35.796875 56 
Q 45.21875 56 50.046875 50.171875 
Q 54.890625 44.34375 54.890625 33.015625 
z
" id="DejaVuSans-110"/>
     </defs>
     <g transform="translate(368.234063 58.070437)scale(0.1 -0.1)">
      <use xlink:href="#DejaVuSans-109"/>
      <use x="97.412109" xlink:href="#DejaVuSans-101"/>
      <use x="158.935547" xlink:href="#DejaVuSans-100"/>
      <use x="222.412109" xlink:href="#DejaVuSans-105"/>
      <use x="250.195312" xlink:href="#DejaVuSans-97"/>
      <use x="311.474609" xlink:href="#DejaVuSans-110"/>
     </g>
    </g>
    <g id="line2d_21">
     <path d="M 340.234063 69.248562 
L 360.234063 69.248562 
" style="fill:none;stroke:#2ca02c;stroke-linecap:square;stroke-width:0.75;"/>
    </g>
    <g id="line2d_22"/>
    <g id="text_18">
     <!-- mean -->
     <g transform="translate(368.234063 72.748562)scale(0.1 -0.1)">
      <use xlink:href="#DejaVuSans-109"/>
      <use x="97.412109" xlink:href="#DejaVuSans-101"/>
      <use x="158.935547" xlink:href="#DejaVuSans-97"/>
      <use x="220.214844" xlink:href="#DejaVuSans-110"/>
     </g>
    </g>
   </g>
  </g>
  <g id="text_19">
   <!-- log_loss.mean over generations -->
   <defs>
    <path d="M 9.421875 75.984375 
L 18.40625 75.984375 
L 18.40625 0 
L 9.421875 0 
z
" id="DejaVuSans-108"/>
    <path d="M 30.609375 48.390625 
Q 23.390625 48.390625 19.1875 42.75 
Q 14.984375 37.109375 14.984375 27.296875 
Q 14.984375 17.484375 19.15625 11.84375 
Q 23.34375 6.203125 30.609375 6.203125 
Q 37.796875 6.203125 41.984375 11.859375 
Q 46.1875 17.53125 46.1875 27.296875 
Q 46.1875 37.015625 41.984375 42.703125 
Q 37.796875 48.390625 30.609375 48.390625 
z
M 30.609375 56 
Q 42.328125 56 49.015625 48.375 
Q 55.71875 40.765625 55.71875 27.296875 
Q 55.71875 13.875 49.015625 6.21875 
Q 42.328125 -1.421875 30.609375 -1.421875 
Q 18.84375 -1.421875 12.171875 6.21875 
Q 5.515625 13.875 5.515625 27.296875 
Q 5.515625 40.765625 12.171875 48.375 
Q 18.84375 56 30.609375 56 
z
" id="DejaVuSans-111"/>
    <path d="M 45.40625 27.984375 
Q 45.40625 37.75 41.375 43.109375 
Q 37.359375 48.484375 30.078125 48.484375 
Q 22.859375 48.484375 18.828125 43.109375 
Q 14.796875 37.75 14.796875 27.984375 
Q 14.796875 18.265625 18.828125 12.890625 
Q 22.859375 7.515625 30.078125 7.515625 
Q 37.359375 7.515625 41.375 12.890625 
Q 45.40625 18.265625 45.40625 27.984375 
z
M 54.390625 6.78125 
Q 54.390625 -7.171875 48.1875 -13.984375 
Q 42 -20.796875 29.203125 -20.796875 
Q 24.46875 -20.796875 20.265625 -20.09375 
Q 16.0625 -19.390625 12.109375 -17.921875 
L 12.109375 -9.1875 
Q 16.0625 -11.328125 19.921875 -12.34375 
Q 23.78125 -13.375 27.78125 -13.375 
Q 36.625 -13.375 41.015625 -8.765625 
Q 45.40625 -4.15625 45.40625 5.171875 
L 45.40625 9.625 
Q 42.625 4.78125 38.28125 2.390625 
Q 33.9375 0 27.875 0 
Q 17.828125 0 11.671875 7.65625 
Q 5.515625 15.328125 5.515625 27.984375 
Q 5.515625 40.671875 11.671875 48.328125 
Q 17.828125 56 27.875 56 
Q 33.9375 56 38.28125 53.609375 
Q 42.625 51.21875 45.40625 46.390625 
L 45.40625 54.6875 
L 54.390625 54.6875 
z
" id="DejaVuSans-103"/>
    <path d="M 50.984375 -16.609375 
L 50.984375 -23.578125 
L -0.984375 -23.578125 
L -0.984375 -16.609375 
z
" id="DejaVuSans-95"/>
    <path d="M 44.28125 53.078125 
L 44.28125 44.578125 
Q 40.484375 46.53125 36.375 47.5 
Q 32.28125 48.484375 27.875 48.484375 
Q 21.1875 48.484375 17.84375 46.4375 
Q 14.5 44.390625 14.5 40.28125 
Q 14.5 37.15625 16.890625 35.375 
Q 19.28125 33.59375 26.515625 31.984375 
L 29.59375 31.296875 
Q 39.15625 29.25 43.1875 25.515625 
Q 47.21875 21.78125 47.21875 15.09375 
Q 47.21875 7.46875 41.1875 3.015625 
Q 35.15625 -1.421875 24.609375 -1.421875 
Q 20.21875 -1.421875 15.453125 -0.5625 
Q 10.6875 0.296875 5.421875 2 
L 5.421875 11.28125 
Q 10.40625 8.6875 15.234375 7.390625 
Q 20.0625 6.109375 24.8125 6.109375 
Q 31.15625 6.109375 34.5625 8.28125 
Q 37.984375 10.453125 37.984375 14.40625 
Q 37.984375 18.0625 35.515625 20.015625 
Q 33.0625 21.96875 24.703125 23.78125 
L 21.578125 24.515625 
Q 13.234375 26.265625 9.515625 29.90625 
Q 5.8125 33.546875 5.8125 39.890625 
Q 5.8125 47.609375 11.28125 51.796875 
Q 16.75 56 26.8125 56 
Q 31.78125 56 36.171875 55.265625 
Q 40.578125 54.546875 44.28125 53.078125 
z
" id="DejaVuSans-115"/>
    <path id="DejaVuSans-32"/>
    <path d="M 2.984375 54.6875 
L 12.5 54.6875 
L 29.59375 8.796875 
L 46.6875 54.6875 
L 56.203125 54.6875 
L 35.6875 0 
L 23.484375 0 
z
" id="DejaVuSans-118"/>
    <path d="M 41.109375 46.296875 
Q 39.59375 47.171875 37.8125 47.578125 
Q 36.03125 48 33.890625 48 
Q 26.265625 48 22.1875 43.046875 
Q 18.109375 38.09375 18.109375 28.8125 
L 18.109375 0 
L 9.078125 0 
L 9.078125 54.6875 
L 18.109375 54.6875 
L 18.109375 46.1875 
Q 20.953125 51.171875 25.484375 53.578125 
Q 30.03125 56 36.53125 56 
Q 37.453125 56 38.578125 55.875 
Q 39.703125 55.765625 41.0625 55.515625 
z
" id="DejaVuSans-114"/>
    <path d="M 18.3125 70.21875 
L 18.3125 54.6875 
L 36.8125 54.6875 
L 36.8125 47.703125 
L 18.3125 47.703125 
L 18.3125 18.015625 
Q 18.3125 11.328125 20.140625 9.421875 
Q 21.96875 7.515625 27.59375 7.515625 
L 36.8125 7.515625 
L 36.8125 0 
L 27.59375 0 
Q 17.1875 0 13.234375 3.875 
Q 9.28125 7.765625 9.28125 18.015625 
L 9.28125 47.703125 
L 2.6875 47.703125 
L 2.6875 54.6875 
L 9.28125 54.6875 
L 9.28125 70.21875 
z
" id="DejaVuSans-116"/>
   </defs>
   <g transform="translate(134.789062 16.030125)scale(0.12 -0.12)">
    <use xlink:href="#DejaVuSans-108"/>
    <use x="27.783203" xlink:href="#DejaVuSans-111"/>
    <use x="88.964844" xlink:href="#DejaVuSans-103"/>
    <use x="152.441406" xlink:href="#DejaVuSans-95"/>
    <use x="202.441406" xlink:href="#DejaVuSans-108"/>
    <use x="230.224609" xlink:href="#DejaVuSans-111"/>
    <use x="291.40625" xlink:href="#DejaVuSans-115"/>
    <use x="343.505859" xlink:href="#DejaVuSans-115"/>
    <use x="395.605469" xlink:href="#DejaVuSans-46"/>
    <use x="427.392578" xlink:href="#DejaVuSans-109"/>
    <use x="524.804688" xlink:href="#DejaVuSans-101"/>
    <use x="586.328125" xlink:href="#DejaVuSans-97"/>
    <use x="647.607422" xlink:href="#DejaVuSans-110"/>
    <use x="710.986328" xlink:href="#DejaVuSans-32"/>
    <use x="742.773438" xlink:href="#DejaVuSans-111"/>
    <use x="803.955078" xlink:href="#DejaVuSans-118"/>
    <use x="863.134766" xlink:href="#DejaVuSans-101"/>
    <use x="924.658203" xlink:href="#DejaVuSans-114"/>
    <use x="965.771484" xlink:href="#DejaVuSans-32"/>
    <use x="997.558594" xlink:href="#DejaVuSans-103"/>
    <use x="1061.035156" xlink:href="#DejaVuSans-101"/>
    <use x="1122.558594" xlink:href="#DejaVuSans-110"/>
    <use x="1185.9375" xlink:href="#DejaVuSans-101"/>
    <use x="1247.460938" xlink:href="#DejaVuSans-114"/>
    <use x="1288.574219" xlink:href="#DejaVuSans-97"/>
    <use x="1349.853516" xlink:href="#DejaVuSans-116"/>
    <use x="1389.0625" xlink:href="#DejaVuSans-105"/>
    <use x="1416.845703" xlink:href="#DejaVuSans-111"/>
    <use x="1478.027344" xlink:href="#DejaVuSans-110"/>
    <use x="1541.40625" xlink:href="#DejaVuSans-115"/>
   </g>
  </g>
 </g>
 <defs>
  <clipPath id="p8acd9a79b7">
   <rect height="266.112" width="357.12" x="57.6" y="41.472"/>
  </clipPath>
 </defs>
</svg>
