<?xml version="1.0" encoding="utf-8" standalone="no"?>
<!DOCTYPE svg PUBLIC "-//W3C//DTD SVG 1.1//EN"
  "http://www.w3.org/Graphics/SVG/1.1/DTD/svg11.dtd">
<!-- Created with matplotlib (https://matplotlib.org/) -->
<svg height="345.6pt" version="1.1" viewBox="0 0 460.8 345.6" width="460.8pt" xmlns="http://www.w3.org/2000/svg" xmlns:xlink="http://www.w3.org/1999/xlink">
 <defs>
  <style type="text/css">
*{stroke-linecap:butt;stroke-linejoin:round;}
  </style>
 </defs>
 <g id="figure_1">
  <g id="patch_1">
   <path d="M 0 345.6 
L 460.8 345.6 
L 460.8 0 
L 0 0 
z
" style="fill:#ffffff;"/>
  </g>
  <g id="axes_1">
   <g id="patch_2">
    <path d="M 57.6 307.584 
L 414.72 307.584 
L 414.72 41.472 
L 57.6 41.472 
z
" style="fill:#ffffff;"/>
   </g>
   <g id="PolyCollection_1">
    <path clip-path="url(#pc3f597b046)" d="M 73.832727 225.844364 
L 73.832727 225.844364 
L 75.464157 225.844364 
L 77.095587 225.844364 
L 78.727017 225.844364 
L 80.358447 225.844364 
L 81.989877 225.844364 
L 83.621307 225.844364 
L 85.252736 225.844364 
L 86.884166 225.844364 
L 88.515596 221.445818 
L 90.147026 225.844364 
L 91.778456 225.844364 
L 93.409886 218.513455 
L 95.041316 225.111273 
L 96.672746 225.844364 
L 98.304175 225.844364 
L 99.935605 220.712727 
L 101.567035 208.250182 
L 103.198465 220.346182 
L 104.829895 219.979636 
L 106.461325 225.844364 
L 108.092755 225.844364 
L 109.724185 225.844364 
L 111.355614 225.844364 
L 112.987044 212.151273 
L 114.618474 225.844364 
L 116.249904 223.645091 
L 117.881334 225.844364 
L 119.512764 225.844364 
L 121.144194 207.517091 
L 122.775624 225.294545 
L 124.407053 211.549091 
L 126.038483 225.844364 
L 127.669913 208.616727 
L 129.301343 225.844364 
L 130.932773 208.158545 
L 132.564203 225.844364 
L 134.195633 199.453091 
L 135.827063 218.605091 
L 137.458492 207.517091 
L 139.089922 195.787636 
L 140.721352 225.844364 
L 142.352782 208.250182 
L 143.984212 225.844364 
L 145.615642 225.844364 
L 147.247072 210.724364 
L 148.878502 222.178909 
L 150.509931 193.863273 
L 152.141361 208.066909 
L 153.772791 213.106909 
L 155.404221 207.883636 
L 157.035651 225.111273 
L 158.667081 134.208 
L 160.298511 194.596364 
L 161.929941 178.56 
L 163.56137 141.613091 
L 165.1928 152.535273 
L 166.82423 136.10049 
L 168.45566 145.296 
L 170.08709 134.299636 
L 171.71852 134.208 
L 173.34995 137.323636 
L 174.98138 134.208 
L 176.61281 147.403636 
L 178.244239 134.208 
L 179.875669 149.786182 
L 181.507099 154.459636 
L 183.138529 134.208 
L 184.769959 134.208 
L 186.401389 135.765818 
L 188.032819 138.423273 
L 189.664249 136.865455 
L 191.295678 134.208 
L 192.927108 135.307636 
L 194.558538 134.208 
L 196.189968 134.208 
L 197.821398 135.765818 
L 199.452828 135.307636 
L 201.084258 135.307636 
L 202.715688 134.574545 
L 204.347117 134.299636 
L 205.978547 134.208 
L 207.609977 135.307636 
L 209.241407 143.005091 
L 210.872837 146.762182 
L 212.504267 136.773818 
L 214.135697 148.136727 
L 215.767127 161.057455 
L 217.398556 152.535273 
L 219.029986 146.670545 
L 220.661416 152.535273 
L 222.292846 160.965818 
L 223.924276 152.535273 
L 225.555706 144.562909 
L 227.187136 134.208 
L 228.818566 154.368 
L 230.449995 134.941091 
L 232.081425 134.391273 
L 233.712855 134.208 
L 235.344285 134.208 
L 236.975715 134.208 
L 238.607145 159.041455 
L 240.238575 134.574545 
L 241.870005 151.893818 
L 243.501434 143.188364 
L 245.132864 143.829818 
L 246.764294 152.535273 
L 248.395724 164.722909 
L 250.027154 154.551273 
L 251.658584 168.48 
L 253.290014 152.535273 
L 254.921444 151.160727 
L 256.552873 143.646545 
L 258.184303 146.945455 
L 259.815733 161.332364 
L 261.447163 134.208 
L 263.078593 141.538909 
L 264.710023 150.427636 
L 266.341453 146.304 
L 267.972883 135.765818 
L 269.604312 134.208 
L 271.235742 135.307636 
L 272.867172 147.770182 
L 274.498602 158.583273 
L 276.130032 158.949818 
L 277.761462 138.606545 
L 279.392892 136.498909 
L 281.024322 148.136727 
L 282.655751 134.208 
L 284.287181 134.208 
L 285.918611 134.208 
L 287.550041 135.216 
L 289.181471 138.973091 
L 290.812901 134.208 
L 292.444331 141.172364 
L 294.075761 134.391273 
L 295.70719 139.064727 
L 297.33862 152.810182 
L 298.97005 134.208 
L 300.60148 134.208 
L 302.23291 145.937455 
L 303.86434 147.403636 
L 305.49577 135.399273 
L 307.1272 134.299636 
L 308.75863 135.307636 
L 310.390059 136.957091 
L 312.021489 134.941091 
L 313.652919 134.574545 
L 315.284349 134.208 
L 316.915779 134.208 
L 318.547209 153.268364 
L 320.178639 134.574545 
L 321.810069 134.208 
L 323.441498 134.208 
L 325.072928 134.208 
L 326.704358 150.061091 
L 328.335788 148.503273 
L 329.967218 148.136727 
L 331.598648 151.435636 
L 333.230078 134.391273 
L 334.861508 152.535273 
L 336.492937 138.514909 
L 338.124367 134.574545 
L 339.755797 134.208 
L 341.387227 134.941091 
L 343.018657 136.315636 
L 344.650087 141.538909 
L 346.281517 134.574545 
L 347.912947 135.307636 
L 349.544376 138.514909 
L 351.175806 134.208 
L 352.807236 134.574545 
L 354.438666 135.399273 
L 356.070096 135.765818 
L 357.701526 134.666182 
L 359.332956 136.498909 
L 360.964386 144.288 
L 362.595815 135.307636 
L 364.227245 134.574545 
L 365.858675 148.136727 
L 367.490105 134.208 
L 369.121535 134.208 
L 370.752965 134.208 
L 372.384395 134.208 
L 374.015825 135.307636 
L 375.647254 134.299636 
L 377.278684 134.208 
L 378.910114 135.765818 
L 380.541544 134.208 
L 382.172974 134.208 
L 383.804404 143.829818 
L 385.435834 142.272 
L 387.067264 135.674182 
L 388.698693 134.208 
L 390.330123 134.208 
L 391.961553 134.941091 
L 393.592983 148.045091 
L 395.224413 134.208 
L 396.855843 134.208 
L 398.487273 134.208 
L 398.487273 84.145909 
L 398.487273 84.145909 
L 396.855843 88.770109 
L 395.224413 109.924364 
L 393.592983 105.525818 
L 391.961553 112.581818 
L 390.330123 119.267107 
L 388.698693 83.50842 
L 387.067264 98.928 
L 385.435834 102.776727 
L 383.804404 86.648727 
L 382.172974 71.895273 
L 380.541544 61.641164 
L 378.910114 81.756142 
L 377.278684 79.226182 
L 375.647254 80.919875 
L 374.015825 86.923636 
L 372.384395 77.969455 
L 370.752965 85.932298 
L 369.121535 92.788364 
L 367.490105 75.560727 
L 365.858675 97.095273 
L 364.227245 89.856 
L 362.595815 86.190545 
L 360.964386 92.426182 
L 359.332956 83.624727 
L 357.701526 75.71444 
L 356.070096 91.597091 
L 354.438666 82.484364 
L 352.807236 73.786909 
L 351.175806 64.930909 
L 349.544376 91.963636 
L 347.912947 71.803636 
L 346.281517 90.57831 
L 344.650087 74.369455 
L 343.018657 91.322182 
L 341.387227 78.951273 
L 339.755797 72.811636 
L 338.124367 78.772966 
L 336.492937 85.048846 
L 334.861508 82.300582 
L 333.230078 83.533091 
L 331.598648 92.007622 
L 329.967218 100.027636 
L 328.335788 105.434182 
L 326.704358 99.294545 
L 325.072928 79.226182 
L 323.441498 85.399968 
L 321.810069 84.907636 
L 320.178639 85.025455 
L 318.547209 95.262545 
L 316.915779 81.699453 
L 315.284349 83.775011 
L 313.652919 107.908364 
L 312.021489 87.588996 
L 310.390059 84.632727 
L 308.75863 77.393455 
L 307.1272 89.2008 
L 305.49577 85.090909 
L 303.86434 97.186909 
L 302.23291 97.186909 
L 300.60148 88.014942 
L 298.97005 80.692364 
L 297.33862 90.062182 
L 295.70719 101.402182 
L 294.075761 94.162909 
L 292.444331 90.222545 
L 290.812901 78.813818 
L 289.181471 88.345697 
L 287.550041 100.485818 
L 285.918611 78.592058 
L 284.287181 81.792 
L 282.655751 81.725236 
L 281.024322 97.095273 
L 279.392892 97.370182 
L 277.761462 81.058909 
L 276.130032 102.318545 
L 274.498602 109.282909 
L 272.867172 101.127273 
L 271.235742 101.585455 
L 269.604312 96.362182 
L 267.972883 90.271244 
L 266.341453 89.620933 
L 264.710023 92.055273 
L 263.078593 112.123636 
L 261.447163 92.027157 
L 259.815733 100.485818 
L 258.184303 98.249891 
L 256.552873 124.029315 
L 254.921444 119.929388 
L 253.290014 96.222032 
L 251.658584 122.386909 
L 250.027154 117.582545 
L 248.395724 134.208 
L 246.764294 124.529438 
L 245.132864 112.581818 
L 243.501434 118.446545 
L 241.870005 123.602087 
L 240.238575 107.725091 
L 238.607145 119.808436 
L 236.975715 75.512291 
L 235.344285 118.446545 
L 233.712855 118.08 
L 232.081425 90.130909 
L 230.449995 92.440145 
L 228.818566 113.434036 
L 227.187136 103.784727 
L 225.555706 107.816727 
L 223.924276 111.207273 
L 222.292846 97.186909 
L 220.661416 93.704727 
L 219.029986 98.194909 
L 217.398556 115.056 
L 215.767127 98.194909 
L 214.135697 95.354182 
L 212.504267 120.445636 
L 210.872837 120.060142 
L 209.241407 94.621091 
L 207.609977 84.357818 
L 205.978547 108.628364 
L 204.347117 105.984 
L 202.715688 115.514182 
L 201.084258 120.883309 
L 199.452828 119.454545 
L 197.821398 107.450182 
L 196.189968 116.980364 
L 194.558538 110.474182 
L 192.927108 119.637818 
L 191.295678 93.613091 
L 189.664249 96.453818 
L 188.032819 105.525818 
L 186.401389 93.154909 
L 184.769959 118.813091 
L 183.138529 121.745455 
L 181.507099 117.369818 
L 179.875669 86.557091 
L 178.244239 101.218909 
L 176.61281 121.745455 
L 174.98138 121.745455 
L 173.34995 134.208 
L 171.71852 116.247273 
L 170.08709 116.947041 
L 168.45566 120.590836 
L 166.82423 134.208 
L 165.1928 134.208 
L 163.56137 134.208 
L 161.929941 134.208 
L 160.298511 134.208 
L 158.667081 134.208 
L 157.035651 134.208 
L 155.404221 134.208 
L 153.772791 134.208 
L 152.141361 135.550473 
L 150.509931 136.040727 
L 148.878502 136.815471 
L 147.247072 136.040727 
L 145.615642 134.208 
L 143.984212 134.208 
L 142.352782 153.543273 
L 140.721352 134.482909 
L 139.089922 164.631273 
L 137.458492 155.834182 
L 135.827063 146.304 
L 134.195633 134.208 
L 132.564203 134.208 
L 130.932773 146.029091 
L 129.301343 138.965123 
L 127.669913 136.132364 
L 126.038483 135.582545 
L 124.407053 152.535273 
L 122.775624 139.270909 
L 121.144194 163.094281 
L 119.512764 154.734545 
L 117.881334 143.371636 
L 116.249904 161.507668 
L 114.618474 169.854545 
L 112.987044 159.866182 
L 111.355614 164.631273 
L 109.724185 141.172364 
L 108.092755 158.766545 
L 106.461325 171.595636 
L 104.829895 153.634909 
L 103.198465 165.547636 
L 101.567035 141.538909 
L 99.935605 163.165091 
L 98.304175 172.695273 
L 96.672746 147.495273 
L 95.041316 166.830545 
L 93.409886 164.722909 
L 91.778456 187.998545 
L 90.147026 173.098473 
L 88.515596 171.962182 
L 86.884166 172.603636 
L 85.252736 161.433164 
L 83.621307 218.88 
L 81.989877 225.844364 
L 80.358447 225.844364 
L 78.727017 225.844364 
L 77.095587 225.844364 
L 75.464157 225.844364 
L 73.832727 225.844364 
z
" style="fill:#1f77b4;fill-opacity:0.2;"/>
   </g>
   <g id="PolyCollection_2">
    <path clip-path="url(#pc3f597b046)" d="M 73.832727 225.844364 
L 73.832727 225.844364 
L 75.464157 225.844364 
L 77.095587 225.844364 
L 78.727017 246.737455 
L 80.358447 279.726545 
L 81.989877 242.338909 
L 83.621307 247.470545 
L 85.252736 267.099055 
L 86.884166 266.321455 
L 88.515596 266.064397 
L 90.147026 257.000727 
L 91.778456 262.498909 
L 93.409886 243.072 
L 95.041316 231.342545 
L 96.672746 258.833455 
L 98.304175 278.993455 
L 99.935605 277.527273 
L 101.567035 229.143273 
L 103.198465 267.630545 
L 104.829895 295.488 
L 106.461325 248.606836 
L 108.092755 278.626909 
L 109.724185 252.968727 
L 111.355614 249.303273 
L 112.987044 236.474182 
L 114.618474 233.175273 
L 116.249904 237.940364 
L 117.881334 241.239273 
L 119.512764 228.410182 
L 121.144194 257.733818 
L 122.775624 225.844364 
L 124.407053 241.605818 
L 126.038483 257.367273 
L 127.669913 225.844364 
L 129.301343 245.637818 
L 130.932773 248.203636 
L 132.564203 246.004364 
L 134.195633 225.844364 
L 135.827063 225.844364 
L 137.458492 237.207273 
L 139.089922 225.844364 
L 140.721352 225.844364 
L 142.352782 235.374545 
L 143.984212 265.797818 
L 145.615642 225.844364 
L 147.247072 226.210909 
L 148.878502 256.267636 
L 150.509931 225.844364 
L 152.141361 225.844364 
L 153.772791 225.844364 
L 155.404221 225.844364 
L 157.035651 225.844364 
L 158.667081 225.844364 
L 160.298511 225.844364 
L 161.929941 225.844364 
L 163.56137 225.844364 
L 165.1928 225.844364 
L 166.82423 225.844364 
L 168.45566 225.844364 
L 170.08709 225.844364 
L 171.71852 225.844364 
L 173.34995 225.844364 
L 174.98138 225.844364 
L 176.61281 225.844364 
L 178.244239 225.844364 
L 179.875669 225.844364 
L 181.507099 225.844364 
L 183.138529 225.844364 
L 184.769959 225.844364 
L 186.401389 225.844364 
L 188.032819 225.844364 
L 189.664249 225.844364 
L 191.295678 225.844364 
L 192.927108 225.844364 
L 194.558538 225.844364 
L 196.189968 225.844364 
L 197.821398 225.844364 
L 199.452828 225.844364 
L 201.084258 225.844364 
L 202.715688 225.844364 
L 204.347117 225.844364 
L 205.978547 225.844364 
L 207.609977 225.844364 
L 209.241407 225.844364 
L 210.872837 225.844364 
L 212.504267 225.844364 
L 214.135697 225.844364 
L 215.767127 225.844364 
L 217.398556 225.844364 
L 219.029986 225.844364 
L 220.661416 225.844364 
L 222.292846 225.844364 
L 223.924276 225.844364 
L 225.555706 225.844364 
L 227.187136 225.844364 
L 228.818566 225.844364 
L 230.449995 225.844364 
L 232.081425 225.844364 
L 233.712855 225.844364 
L 235.344285 225.844364 
L 236.975715 225.844364 
L 238.607145 225.844364 
L 240.238575 225.844364 
L 241.870005 225.844364 
L 243.501434 225.844364 
L 245.132864 225.844364 
L 246.764294 225.844364 
L 248.395724 225.844364 
L 250.027154 225.844364 
L 251.658584 225.844364 
L 253.290014 226.210909 
L 254.921444 225.844364 
L 256.552873 225.844364 
L 258.184303 225.844364 
L 259.815733 225.844364 
L 261.447163 225.844364 
L 263.078593 225.844364 
L 264.710023 225.844364 
L 266.341453 225.844364 
L 267.972883 225.844364 
L 269.604312 225.844364 
L 271.235742 225.844364 
L 272.867172 225.844364 
L 274.498602 225.844364 
L 276.130032 225.844364 
L 277.761462 225.844364 
L 279.392892 225.844364 
L 281.024322 225.844364 
L 282.655751 225.844364 
L 284.287181 225.844364 
L 285.918611 225.844364 
L 287.550041 225.844364 
L 289.181471 225.844364 
L 290.812901 225.844364 
L 292.444331 225.844364 
L 294.075761 225.844364 
L 295.70719 225.844364 
L 297.33862 225.844364 
L 298.97005 225.844364 
L 300.60148 225.844364 
L 302.23291 225.844364 
L 303.86434 225.844364 
L 305.49577 225.844364 
L 307.1272 225.844364 
L 308.75863 225.844364 
L 310.390059 225.844364 
L 312.021489 225.844364 
L 313.652919 225.844364 
L 315.284349 225.844364 
L 316.915779 225.844364 
L 318.547209 225.844364 
L 320.178639 225.844364 
L 321.810069 225.844364 
L 323.441498 225.844364 
L 325.072928 225.844364 
L 326.704358 225.844364 
L 328.335788 225.844364 
L 329.967218 225.844364 
L 331.598648 225.844364 
L 333.230078 225.844364 
L 334.861508 225.844364 
L 336.492937 225.844364 
L 338.124367 225.844364 
L 339.755797 225.844364 
L 341.387227 225.844364 
L 343.018657 225.844364 
L 344.650087 225.844364 
L 346.281517 225.844364 
L 347.912947 225.844364 
L 349.544376 225.844364 
L 351.175806 225.844364 
L 352.807236 225.844364 
L 354.438666 225.844364 
L 356.070096 225.844364 
L 357.701526 225.844364 
L 359.332956 225.844364 
L 360.964386 229.876364 
L 362.595815 225.844364 
L 364.227245 225.844364 
L 365.858675 225.844364 
L 367.490105 225.844364 
L 369.121535 225.844364 
L 370.752965 225.844364 
L 372.384395 225.844364 
L 374.015825 225.844364 
L 375.647254 225.844364 
L 377.278684 225.844364 
L 378.910114 225.844364 
L 380.541544 225.844364 
L 382.172974 225.844364 
L 383.804404 225.844364 
L 385.435834 225.844364 
L 387.067264 225.844364 
L 388.698693 225.844364 
L 390.330123 225.844364 
L 391.961553 225.844364 
L 393.592983 225.844364 
L 395.224413 225.844364 
L 396.855843 225.844364 
L 398.487273 225.844364 
L 398.487273 60.898909 
L 398.487273 60.898909 
L 396.855843 58.699636 
L 395.224413 60.165818 
L 393.592983 70.062545 
L 391.961553 57.297202 
L 390.330123 57.333421 
L 388.698693 54.301091 
L 387.067264 57.361745 
L 385.435834 57.233455 
L 383.804404 56.866909 
L 382.172974 57.618327 
L 380.541544 54.301091 
L 378.910114 57.6 
L 377.278684 58.534691 
L 375.647254 56.500364 
L 374.015825 55.400727 
L 372.384395 58.699636 
L 370.752965 60.165818 
L 369.121535 55.400727 
L 367.490105 56.500364 
L 365.858675 64.0512 
L 364.227245 56.500364 
L 362.595815 57.233455 
L 360.964386 56.866909 
L 359.332956 57.6 
L 357.701526 59.216132 
L 356.070096 59.153455 
L 354.438666 58.937891 
L 352.807236 56.866909 
L 351.175806 58.608 
L 349.544376 61.152671 
L 347.912947 54.667636 
L 346.281517 60.532364 
L 344.650087 54.301091 
L 343.018657 61.598678 
L 341.387227 61.405091 
L 339.755797 60.043636 
L 338.124367 59.432727 
L 336.492937 56.500364 
L 334.861508 62.714182 
L 333.230078 61.265455 
L 331.598648 75.927273 
L 329.967218 78.126545 
L 328.335788 77.410116 
L 326.704358 76.381091 
L 325.072928 64.197818 
L 323.441498 68.596364 
L 321.810069 70.062545 
L 320.178639 62.731636 
L 318.547209 77.76 
L 316.915779 69.329455 
L 315.284349 68.962909 
L 313.652919 60.022387 
L 312.021489 59.965884 
L 310.390059 59.066182 
L 308.75863 53.568 
L 307.1272 61.195636 
L 305.49577 57.966545 
L 303.86434 56.500364 
L 302.23291 61.230545 
L 300.60148 55.400727 
L 298.97005 60.532364 
L 297.33862 62.0352 
L 295.70719 55.400727 
L 294.075761 59.432727 
L 292.444331 57.233455 
L 290.812901 59.799273 
L 289.181471 61.980218 
L 287.550041 66.885818 
L 285.918611 61.265455 
L 284.287181 69.641018 
L 282.655751 57.233455 
L 281.024322 73.361455 
L 279.392892 71.162182 
L 277.761462 73.728 
L 276.130032 64.564364 
L 274.498602 61.632 
L 272.867172 74.094545 
L 271.235742 74.722909 
L 269.604312 74.112873 
L 267.972883 68.962909 
L 266.341453 82.891636 
L 264.710023 89.324509 
L 263.078593 80.692364 
L 261.447163 71.895273 
L 259.815733 86.923636 
L 258.184303 61.998545 
L 256.552873 64.404 
L 254.921444 57.6 
L 253.290014 63.429818 
L 251.658584 59.799273 
L 250.027154 64.182545 
L 248.395724 63.751589 
L 246.764294 62.898248 
L 245.132864 60.898909 
L 243.501434 59.432727 
L 241.870005 63.018498 
L 240.238575 62.565025 
L 238.607145 62.522182 
L 236.975715 61.265455 
L 235.344285 61.632 
L 233.712855 65.297455 
L 232.081425 64.564364 
L 230.449995 66.466909 
L 228.818566 64.197818 
L 227.187136 66.4704 
L 225.555706 65.664 
L 223.924276 67.145455 
L 222.292846 66.030545 
L 220.661416 65.297455 
L 219.029986 66.030545 
L 217.398556 67.038545 
L 215.767127 65.664 
L 214.135697 65.297455 
L 212.504267 70.062545 
L 210.872837 65.297455 
L 209.241407 61.632 
L 207.609977 67.002688 
L 205.978547 61.265455 
L 204.347117 67.060364 
L 202.715688 66.983564 
L 201.084258 72.994909 
L 199.452828 74.094545 
L 197.821398 83.086364 
L 196.189968 66.397091 
L 194.558538 63.098182 
L 192.927108 72.994909 
L 191.295678 71.895273 
L 189.664249 73.728 
L 188.032819 77.228509 
L 186.401389 68.962909 
L 184.769959 66.030545 
L 183.138529 71.895273 
L 181.507099 81.675372 
L 179.875669 71.528727 
L 178.244239 57.233455 
L 176.61281 84.357818 
L 174.98138 61.701818 
L 173.34995 61.778618 
L 171.71852 71.895273 
L 170.08709 80.5824 
L 168.45566 85.307504 
L 166.82423 78.859636 
L 165.1928 85.585745 
L 163.56137 98.286545 
L 161.929941 109.649455 
L 160.298511 121.378909 
L 158.667081 121.378909 
L 157.035651 122.112 
L 155.404221 134.208 
L 153.772791 134.208 
L 152.141361 134.208 
L 150.509931 126.877091 
L 148.878502 134.208 
L 147.247072 132.875107 
L 145.615642 120.645818 
L 143.984212 118.813091 
L 142.352782 134.004364 
L 140.721352 121.745455 
L 139.089922 133.782807 
L 137.458492 132.451636 
L 135.827063 129.076364 
L 134.195633 125.044364 
L 132.564203 116.613818 
L 130.932773 131.110691 
L 129.301343 131.642182 
L 127.669913 112.948364 
L 126.038483 101.585455 
L 124.407053 123.944727 
L 122.775624 116.247273 
L 121.144194 134.208 
L 119.512764 105.250909 
L 117.881334 102.685091 
L 116.249904 123.944727 
L 114.618474 131.495564 
L 112.987044 134.208 
L 111.355614 134.123413 
L 109.724185 105.617455 
L 108.092755 132.696 
L 106.461325 131.769676 
L 104.829895 131.059041 
L 103.198465 119.546182 
L 101.567035 114.414545 
L 99.935605 119.144727 
L 98.304175 117.731782 
L 96.672746 134.208 
L 95.041316 136.040727 
L 93.409886 134.941091 
L 91.778456 135.307636 
L 90.147026 134.208 
L 88.515596 136.040727 
L 86.884166 134.287684 
L 85.252736 134.208 
L 83.621307 134.208 
L 81.989877 134.281309 
L 80.358447 217.780364 
L 78.727017 224.413091 
L 77.095587 223.278545 
L 75.464157 225.844364 
L 73.832727 225.844364 
z
" style="fill:#1f77b4;fill-opacity:0.1;"/>
   </g>
   <g id="matplotlib.axis_1">
    <g id="xtick_1">
     <g id="line2d_1">
      <defs>
       <path d="M 0 0 
L 0 3.5 
" id="m4206d219af" style="stroke:#000000;stroke-width:0.8;"/>
      </defs>
      <g>
       <use style="stroke:#000000;stroke-width:0.8;" x="73.832727" xlink:href="#m4206d219af" y="307.584"/>
      </g>
     </g>
     <g id="text_1">
      <!-- 0 -->
      <defs>
       <path d="M 31.78125 66.40625 
Q 24.171875 66.40625 20.328125 58.90625 
Q 16.5 51.421875 16.5 36.375 
Q 16.5 21.390625 20.328125 13.890625 
Q 24.171875 6.390625 31.78125 6.390625 
Q 39.453125 6.390625 43.28125 13.890625 
Q 47.125 21.390625 47.125 36.375 
Q 47.125 51.421875 43.28125 58.90625 
Q 39.453125 66.40625 31.78125 66.40625 
z
M 31.78125 74.21875 
Q 44.046875 74.21875 50.515625 64.515625 
Q 56.984375 54.828125 56.984375 36.375 
Q 56.984375 17.96875 50.515625 8.265625 
Q 44.046875 -1.421875 31.78125 -1.421875 
Q 19.53125 -1.421875 13.0625 8.265625 
Q 6.59375 17.96875 6.59375 36.375 
Q 6.59375 54.828125 13.0625 64.515625 
Q 19.53125 74.21875 31.78125 74.21875 
z
" id="DejaVuSans-48"/>
      </defs>
      <g transform="translate(70.651477 322.182437)scale(0.1 -0.1)">
       <use xlink:href="#DejaVuSans-48"/>
      </g>
     </g>
    </g>
    <g id="xtick_2">
     <g id="line2d_2">
      <g>
       <use style="stroke:#000000;stroke-width:0.8;" x="114.618474" xlink:href="#m4206d219af" y="307.584"/>
      </g>
     </g>
     <g id="text_2">
      <!-- 25 -->
      <defs>
       <path d="M 19.1875 8.296875 
L 53.609375 8.296875 
L 53.609375 0 
L 7.328125 0 
L 7.328125 8.296875 
Q 12.9375 14.109375 22.625 23.890625 
Q 32.328125 33.6875 34.8125 36.53125 
Q 39.546875 41.84375 41.421875 45.53125 
Q 43.3125 49.21875 43.3125 52.78125 
Q 43.3125 58.59375 39.234375 62.25 
Q 35.15625 65.921875 28.609375 65.921875 
Q 23.96875 65.921875 18.8125 64.3125 
Q 13.671875 62.703125 7.8125 59.421875 
L 7.8125 69.390625 
Q 13.765625 71.78125 18.9375 73 
Q 24.125 74.21875 28.421875 74.21875 
Q 39.75 74.21875 46.484375 68.546875 
Q 53.21875 62.890625 53.21875 53.421875 
Q 53.21875 48.921875 51.53125 44.890625 
Q 49.859375 40.875 45.40625 35.40625 
Q 44.1875 33.984375 37.640625 27.21875 
Q 31.109375 20.453125 19.1875 8.296875 
z
" id="DejaVuSans-50"/>
       <path d="M 10.796875 72.90625 
L 49.515625 72.90625 
L 49.515625 64.59375 
L 19.828125 64.59375 
L 19.828125 46.734375 
Q 21.96875 47.46875 24.109375 47.828125 
Q 26.265625 48.1875 28.421875 48.1875 
Q 40.625 48.1875 47.75 41.5 
Q 54.890625 34.8125 54.890625 23.390625 
Q 54.890625 11.625 47.5625 5.09375 
Q 40.234375 -1.421875 26.90625 -1.421875 
Q 22.3125 -1.421875 17.546875 -0.640625 
Q 12.796875 0.140625 7.71875 1.703125 
L 7.71875 11.625 
Q 12.109375 9.234375 16.796875 8.0625 
Q 21.484375 6.890625 26.703125 6.890625 
Q 35.15625 6.890625 40.078125 11.328125 
Q 45.015625 15.765625 45.015625 23.390625 
Q 45.015625 31 40.078125 35.4375 
Q 35.15625 39.890625 26.703125 39.890625 
Q 22.75 39.890625 18.8125 39.015625 
Q 14.890625 38.140625 10.796875 36.28125 
z
" id="DejaVuSans-53"/>
      </defs>
      <g transform="translate(108.255974 322.182437)scale(0.1 -0.1)">
       <use xlink:href="#DejaVuSans-50"/>
       <use x="63.623047" xlink:href="#DejaVuSans-53"/>
      </g>
     </g>
    </g>
    <g id="xtick_3">
     <g id="line2d_3">
      <g>
       <use style="stroke:#000000;stroke-width:0.8;" x="155.404221" xlink:href="#m4206d219af" y="307.584"/>
      </g>
     </g>
     <g id="text_3">
      <!-- 50 -->
      <g transform="translate(149.041721 322.182437)scale(0.1 -0.1)">
       <use xlink:href="#DejaVuSans-53"/>
       <use x="63.623047" xlink:href="#DejaVuSans-48"/>
      </g>
     </g>
    </g>
    <g id="xtick_4">
     <g id="line2d_4">
      <g>
       <use style="stroke:#000000;stroke-width:0.8;" x="196.189968" xlink:href="#m4206d219af" y="307.584"/>
      </g>
     </g>
     <g id="text_4">
      <!-- 75 -->
      <defs>
       <path d="M 8.203125 72.90625 
L 55.078125 72.90625 
L 55.078125 68.703125 
L 28.609375 0 
L 18.3125 0 
L 43.21875 64.59375 
L 8.203125 64.59375 
z
" id="DejaVuSans-55"/>
      </defs>
      <g transform="translate(189.827468 322.182437)scale(0.1 -0.1)">
       <use xlink:href="#DejaVuSans-55"/>
       <use x="63.623047" xlink:href="#DejaVuSans-53"/>
      </g>
     </g>
    </g>
    <g id="xtick_5">
     <g id="line2d_5">
      <g>
       <use style="stroke:#000000;stroke-width:0.8;" x="236.975715" xlink:href="#m4206d219af" y="307.584"/>
      </g>
     </g>
     <g id="text_5">
      <!-- 100 -->
      <defs>
       <path d="M 12.40625 8.296875 
L 28.515625 8.296875 
L 28.515625 63.921875 
L 10.984375 60.40625 
L 10.984375 69.390625 
L 28.421875 72.90625 
L 38.28125 72.90625 
L 38.28125 8.296875 
L 54.390625 8.296875 
L 54.390625 0 
L 12.40625 0 
z
" id="DejaVuSans-49"/>
      </defs>
      <g transform="translate(227.431965 322.182437)scale(0.1 -0.1)">
       <use xlink:href="#DejaVuSans-49"/>
       <use x="63.623047" xlink:href="#DejaVuSans-48"/>
       <use x="127.246094" xlink:href="#DejaVuSans-48"/>
      </g>
     </g>
    </g>
    <g id="xtick_6">
     <g id="line2d_6">
      <g>
       <use style="stroke:#000000;stroke-width:0.8;" x="277.761462" xlink:href="#m4206d219af" y="307.584"/>
      </g>
     </g>
     <g id="text_6">
      <!-- 125 -->
      <g transform="translate(268.217712 322.182437)scale(0.1 -0.1)">
       <use xlink:href="#DejaVuSans-49"/>
       <use x="63.623047" xlink:href="#DejaVuSans-50"/>
       <use x="127.246094" xlink:href="#DejaVuSans-53"/>
      </g>
     </g>
    </g>
    <g id="xtick_7">
     <g id="line2d_7">
      <g>
       <use style="stroke:#000000;stroke-width:0.8;" x="318.547209" xlink:href="#m4206d219af" y="307.584"/>
      </g>
     </g>
     <g id="text_7">
      <!-- 150 -->
      <g transform="translate(309.003459 322.182437)scale(0.1 -0.1)">
       <use xlink:href="#DejaVuSans-49"/>
       <use x="63.623047" xlink:href="#DejaVuSans-53"/>
       <use x="127.246094" xlink:href="#DejaVuSans-48"/>
      </g>
     </g>
    </g>
    <g id="xtick_8">
     <g id="line2d_8">
      <g>
       <use style="stroke:#000000;stroke-width:0.8;" x="359.332956" xlink:href="#m4206d219af" y="307.584"/>
      </g>
     </g>
     <g id="text_8">
      <!-- 175 -->
      <g transform="translate(349.789206 322.182437)scale(0.1 -0.1)">
       <use xlink:href="#DejaVuSans-49"/>
       <use x="63.623047" xlink:href="#DejaVuSans-55"/>
       <use x="127.246094" xlink:href="#DejaVuSans-53"/>
      </g>
     </g>
    </g>
    <g id="xtick_9">
     <g id="line2d_9">
      <g>
       <use style="stroke:#000000;stroke-width:0.8;" x="400.118703" xlink:href="#m4206d219af" y="307.584"/>
      </g>
     </g>
     <g id="text_9">
      <!-- 200 -->
      <g transform="translate(390.574953 322.182437)scale(0.1 -0.1)">
       <use xlink:href="#DejaVuSans-50"/>
       <use x="63.623047" xlink:href="#DejaVuSans-48"/>
       <use x="127.246094" xlink:href="#DejaVuSans-48"/>
      </g>
     </g>
    </g>
   </g>
   <g id="matplotlib.axis_2">
    <g id="ytick_1">
     <g id="line2d_10">
      <defs>
       <path d="M 0 0 
L -3.5 0 
" id="m6f837f4625" style="stroke:#000000;stroke-width:0.8;"/>
      </defs>
      <g>
       <use style="stroke:#000000;stroke-width:0.8;" x="57.6" xlink:href="#m6f837f4625" y="299.153455"/>
      </g>
     </g>
     <g id="text_10">
      <!-- −0.4 -->
      <defs>
       <path d="M 10.59375 35.5 
L 73.1875 35.5 
L 73.1875 27.203125 
L 10.59375 27.203125 
z
" id="DejaVuSans-8722"/>
       <path d="M 10.6875 12.40625 
L 21 12.40625 
L 21 0 
L 10.6875 0 
z
" id="DejaVuSans-46"/>
       <path d="M 37.796875 64.3125 
L 12.890625 25.390625 
L 37.796875 25.390625 
z
M 35.203125 72.90625 
L 47.609375 72.90625 
L 47.609375 25.390625 
L 58.015625 25.390625 
L 58.015625 17.1875 
L 47.609375 17.1875 
L 47.609375 0 
L 37.796875 0 
L 37.796875 17.1875 
L 4.890625 17.1875 
L 4.890625 26.703125 
z
" id="DejaVuSans-52"/>
      </defs>
      <g transform="translate(26.317187 302.952673)scale(0.1 -0.1)">
       <use xlink:href="#DejaVuSans-8722"/>
       <use x="83.789062" xlink:href="#DejaVuSans-48"/>
       <use x="147.412109" xlink:href="#DejaVuSans-46"/>
       <use x="179.199219" xlink:href="#DejaVuSans-52"/>
      </g>
     </g>
    </g>
    <g id="ytick_2">
     <g id="line2d_11">
      <g>
       <use style="stroke:#000000;stroke-width:0.8;" x="57.6" xlink:href="#m6f837f4625" y="262.498909"/>
      </g>
     </g>
     <g id="text_11">
      <!-- −0.2 -->
      <g transform="translate(26.317187 266.298128)scale(0.1 -0.1)">
       <use xlink:href="#DejaVuSans-8722"/>
       <use x="83.789062" xlink:href="#DejaVuSans-48"/>
       <use x="147.412109" xlink:href="#DejaVuSans-46"/>
       <use x="179.199219" xlink:href="#DejaVuSans-50"/>
      </g>
     </g>
    </g>
    <g id="ytick_3">
     <g id="line2d_12">
      <g>
       <use style="stroke:#000000;stroke-width:0.8;" x="57.6" xlink:href="#m6f837f4625" y="225.844364"/>
      </g>
     </g>
     <g id="text_12">
      <!-- 0.0 -->
      <g transform="translate(34.696875 229.643582)scale(0.1 -0.1)">
       <use xlink:href="#DejaVuSans-48"/>
       <use x="63.623047" xlink:href="#DejaVuSans-46"/>
       <use x="95.410156" xlink:href="#DejaVuSans-48"/>
      </g>
     </g>
    </g>
    <g id="ytick_4">
     <g id="line2d_13">
      <g>
       <use style="stroke:#000000;stroke-width:0.8;" x="57.6" xlink:href="#m6f837f4625" y="189.189818"/>
      </g>
     </g>
     <g id="text_13">
      <!-- 0.2 -->
      <g transform="translate(34.696875 192.989037)scale(0.1 -0.1)">
       <use xlink:href="#DejaVuSans-48"/>
       <use x="63.623047" xlink:href="#DejaVuSans-46"/>
       <use x="95.410156" xlink:href="#DejaVuSans-50"/>
      </g>
     </g>
    </g>
    <g id="ytick_5">
     <g id="line2d_14">
      <g>
       <use style="stroke:#000000;stroke-width:0.8;" x="57.6" xlink:href="#m6f837f4625" y="152.535273"/>
      </g>
     </g>
     <g id="text_14">
      <!-- 0.4 -->
      <g transform="translate(34.696875 156.334491)scale(0.1 -0.1)">
       <use xlink:href="#DejaVuSans-48"/>
       <use x="63.623047" xlink:href="#DejaVuSans-46"/>
       <use x="95.410156" xlink:href="#DejaVuSans-52"/>
      </g>
     </g>
    </g>
    <g id="ytick_6">
     <g id="line2d_15">
      <g>
       <use style="stroke:#000000;stroke-width:0.8;" x="57.6" xlink:href="#m6f837f4625" y="115.880727"/>
      </g>
     </g>
     <g id="text_15">
      <!-- 0.6 -->
      <defs>
       <path d="M 33.015625 40.375 
Q 26.375 40.375 22.484375 35.828125 
Q 18.609375 31.296875 18.609375 23.390625 
Q 18.609375 15.53125 22.484375 10.953125 
Q 26.375 6.390625 33.015625 6.390625 
Q 39.65625 6.390625 43.53125 10.953125 
Q 47.40625 15.53125 47.40625 23.390625 
Q 47.40625 31.296875 43.53125 35.828125 
Q 39.65625 40.375 33.015625 40.375 
z
M 52.59375 71.296875 
L 52.59375 62.3125 
Q 48.875 64.0625 45.09375 64.984375 
Q 41.3125 65.921875 37.59375 65.921875 
Q 27.828125 65.921875 22.671875 59.328125 
Q 17.53125 52.734375 16.796875 39.40625 
Q 19.671875 43.65625 24.015625 45.921875 
Q 28.375 48.1875 33.59375 48.1875 
Q 44.578125 48.1875 50.953125 41.515625 
Q 57.328125 34.859375 57.328125 23.390625 
Q 57.328125 12.15625 50.6875 5.359375 
Q 44.046875 -1.421875 33.015625 -1.421875 
Q 20.359375 -1.421875 13.671875 8.265625 
Q 6.984375 17.96875 6.984375 36.375 
Q 6.984375 53.65625 15.1875 63.9375 
Q 23.390625 74.21875 37.203125 74.21875 
Q 40.921875 74.21875 44.703125 73.484375 
Q 48.484375 72.75 52.59375 71.296875 
z
" id="DejaVuSans-54"/>
      </defs>
      <g transform="translate(34.696875 119.679946)scale(0.1 -0.1)">
       <use xlink:href="#DejaVuSans-48"/>
       <use x="63.623047" xlink:href="#DejaVuSans-46"/>
       <use x="95.410156" xlink:href="#DejaVuSans-54"/>
      </g>
     </g>
    </g>
    <g id="ytick_7">
     <g id="line2d_16">
      <g>
       <use style="stroke:#000000;stroke-width:0.8;" x="57.6" xlink:href="#m6f837f4625" y="79.226182"/>
      </g>
     </g>
     <g id="text_16">
      <!-- 0.8 -->
      <defs>
       <path d="M 31.78125 34.625 
Q 24.75 34.625 20.71875 30.859375 
Q 16.703125 27.09375 16.703125 20.515625 
Q 16.703125 13.921875 20.71875 10.15625 
Q 24.75 6.390625 31.78125 6.390625 
Q 38.8125 6.390625 42.859375 10.171875 
Q 46.921875 13.96875 46.921875 20.515625 
Q 46.921875 27.09375 42.890625 30.859375 
Q 38.875 34.625 31.78125 34.625 
z
M 21.921875 38.8125 
Q 15.578125 40.375 12.03125 44.71875 
Q 8.5 49.078125 8.5 55.328125 
Q 8.5 64.0625 14.71875 69.140625 
Q 20.953125 74.21875 31.78125 74.21875 
Q 42.671875 74.21875 48.875 69.140625 
Q 55.078125 64.0625 55.078125 55.328125 
Q 55.078125 49.078125 51.53125 44.71875 
Q 48 40.375 41.703125 38.8125 
Q 48.828125 37.15625 52.796875 32.3125 
Q 56.78125 27.484375 56.78125 20.515625 
Q 56.78125 9.90625 50.3125 4.234375 
Q 43.84375 -1.421875 31.78125 -1.421875 
Q 19.734375 -1.421875 13.25 4.234375 
Q 6.78125 9.90625 6.78125 20.515625 
Q 6.78125 27.484375 10.78125 32.3125 
Q 14.796875 37.15625 21.921875 38.8125 
z
M 18.3125 54.390625 
Q 18.3125 48.734375 21.84375 45.5625 
Q 25.390625 42.390625 31.78125 42.390625 
Q 38.140625 42.390625 41.71875 45.5625 
Q 45.3125 48.734375 45.3125 54.390625 
Q 45.3125 60.0625 41.71875 63.234375 
Q 38.140625 66.40625 31.78125 66.40625 
Q 25.390625 66.40625 21.84375 63.234375 
Q 18.3125 60.0625 18.3125 54.390625 
z
" id="DejaVuSans-56"/>
      </defs>
      <g transform="translate(34.696875 83.025401)scale(0.1 -0.1)">
       <use xlink:href="#DejaVuSans-48"/>
       <use x="63.623047" xlink:href="#DejaVuSans-46"/>
       <use x="95.410156" xlink:href="#DejaVuSans-56"/>
      </g>
     </g>
    </g>
    <g id="ytick_8">
     <g id="line2d_17">
      <g>
       <use style="stroke:#000000;stroke-width:0.8;" x="57.6" xlink:href="#m6f837f4625" y="42.571636"/>
      </g>
     </g>
     <g id="text_17">
      <!-- 1.0 -->
      <g transform="translate(34.696875 46.370855)scale(0.1 -0.1)">
       <use xlink:href="#DejaVuSans-49"/>
       <use x="63.623047" xlink:href="#DejaVuSans-46"/>
       <use x="95.410156" xlink:href="#DejaVuSans-48"/>
      </g>
     </g>
    </g>
   </g>
   <g id="line2d_18">
    <path clip-path="url(#pc3f597b046)" d="M 73.832727 225.844364 
L 85.252736 225.844364 
L 88.515596 205.474909 
L 90.147026 208.250182 
L 91.778456 210.117818 
L 93.409886 205.317818 
L 95.041316 207.245576 
L 96.672746 196.997236 
L 98.304175 220.346182 
L 99.935605 180.759273 
L 101.567035 171.229091 
L 103.198465 187.540364 
L 104.829895 173.611636 
L 106.461325 197.986909 
L 108.092755 178.56 
L 109.724185 172.695273 
L 111.355614 186.624 
L 112.987044 176.360727 
L 114.618474 223.278545 
L 116.249904 186.624 
L 117.881334 172.597527 
L 119.512764 174.807273 
L 121.144194 193.954909 
L 122.775624 174.894545 
L 124.407053 171.962182 
L 126.038483 157.327855 
L 127.669913 169.579636 
L 129.301343 171.328157 
L 130.932773 170.270106 
L 132.564203 170.862545 
L 134.195633 152.168727 
L 135.827063 168.113455 
L 137.458492 171.595636 
L 139.089922 170.312727 
L 140.721352 171.553983 
L 142.352782 172.1984 
L 143.984212 161.698909 
L 145.615642 140.888291 
L 147.247072 144.654545 
L 148.878502 168.48 
L 150.509931 147.037091 
L 152.141361 136.040727 
L 153.772791 134.208 
L 155.404221 134.482909 
L 157.035651 134.208 
L 188.032819 134.208 
L 189.664249 123.761455 
L 191.295678 134.208 
L 194.558538 134.208 
L 196.189968 131.642182 
L 197.821398 134.208 
L 219.029986 134.208 
L 220.661416 128.052628 
L 222.292846 134.208 
L 225.555706 134.208 
L 227.187136 132.192 
L 228.818566 134.208 
L 240.238575 134.208 
L 241.870005 140.989091 
L 243.501434 134.208 
L 245.132864 134.208 
L 246.764294 139.156364 
L 248.395724 142.638545 
L 250.027154 137.323636 
L 251.658584 134.208 
L 254.921444 134.208 
L 256.552873 134.574545 
L 258.184303 134.208 
L 263.078593 134.208 
L 264.710023 125.707883 
L 266.341453 134.208 
L 282.655751 134.208 
L 284.287181 126.235636 
L 285.918611 120.110098 
L 287.550041 130.588364 
L 289.181471 133.841455 
L 290.812901 132.925091 
L 292.444331 132.375273 
L 294.075761 127.426909 
L 295.70719 134.208 
L 297.33862 133.841455 
L 298.97005 126.758083 
L 300.60148 126.743161 
L 302.23291 134.208 
L 303.86434 134.208 
L 305.49577 126.91103 
L 307.1272 134.208 
L 308.75863 134.208 
L 310.390059 126.833455 
L 312.021489 134.208 
L 320.178639 134.208 
L 321.810069 132.375273 
L 323.441498 134.208 
L 325.072928 121.745455 
L 326.704358 132.192 
L 328.335788 134.208 
L 329.967218 134.208 
L 331.598648 130.725818 
L 333.230078 124.391913 
L 334.861508 134.208 
L 336.492937 132.008727 
L 339.755797 123.578182 
L 341.387227 130.909091 
L 343.018657 128.709818 
L 344.650087 132.925091 
L 346.281517 128.306618 
L 347.912947 128.362685 
L 349.544376 130.542545 
L 351.175806 116.247273 
L 352.807236 126.472225 
L 354.438666 127.295976 
L 356.070096 130.151455 
L 357.701526 130.97721 
L 359.332956 123.211636 
L 360.964386 134.208 
L 362.595815 123.333818 
L 364.227245 131.275636 
L 365.858675 134.208 
L 367.490105 122.661818 
L 369.121535 134.208 
L 370.752965 127.757103 
L 372.384395 134.208 
L 374.015825 132.925091 
L 375.647254 125.777455 
L 377.278684 129.809455 
L 378.910114 131.275636 
L 380.541544 116.613818 
L 382.172974 124.796945 
L 383.804404 130.725818 
L 385.435834 134.208 
L 387.067264 134.208 
L 388.698693 121.858909 
L 390.330123 134.208 
L 393.592983 134.208 
L 395.224413 123.761455 
L 396.855843 129.122182 
L 398.487273 106.717091 
L 398.487273 106.717091 
" style="fill:none;stroke:#1f77b4;stroke-linecap:square;stroke-width:0.25;"/>
   </g>
   <g id="line2d_19">
    <path clip-path="url(#pc3f597b046)" d="M 73.832727 225.844364 
L 77.095587 225.77362 
L 78.727017 226.195462 
L 80.358447 226.392342 
L 81.989877 224.575732 
L 83.621307 214.202652 
L 85.252736 202.115409 
L 86.884166 201.577496 
L 88.515596 198.105076 
L 90.147026 199.880495 
L 91.778456 203.66592 
L 93.409886 192.555852 
L 95.041316 194.004559 
L 96.672746 186.935331 
L 98.304175 203.183178 
L 99.935605 190.27305 
L 101.567035 172.38195 
L 103.198465 189.949673 
L 104.829895 186.137837 
L 106.461325 194.379024 
L 108.092755 189.663968 
L 109.724185 179.609489 
L 111.355614 190.302036 
L 112.987044 183.720626 
L 114.618474 200.486205 
L 116.249904 188.27606 
L 117.881334 180.839658 
L 119.512764 184.307407 
L 121.144194 186.043306 
L 122.775624 179.962324 
L 124.407053 180.972427 
L 126.038483 172.323446 
L 127.669913 173.234052 
L 129.301343 182.305648 
L 130.932773 176.839219 
L 132.564203 175.062415 
L 134.195633 164.705789 
L 135.827063 176.626891 
L 137.458492 179.293846 
L 139.089922 175.522977 
L 140.721352 178.250137 
L 142.352782 180.695789 
L 143.984212 174.538882 
L 145.615642 168.845782 
L 147.247072 169.043691 
L 148.878502 176.705663 
L 150.509931 165.037582 
L 152.141361 165.119066 
L 153.772791 160.900251 
L 155.404221 164.608407 
L 157.035651 163.116766 
L 158.667081 151.007911 
L 160.298511 158.155811 
L 161.929941 155.590566 
L 163.56137 151.265428 
L 165.1928 149.515425 
L 166.82423 146.322681 
L 168.45566 143.451847 
L 170.08709 133.92634 
L 171.71852 131.381094 
L 173.34995 144.757872 
L 174.98138 138.192804 
L 176.61281 140.324073 
L 178.244239 134.215186 
L 179.875669 129.986897 
L 181.507099 140.825051 
L 183.138529 136.347776 
L 184.769959 138.407021 
L 186.401389 132.277456 
L 188.032819 131.871938 
L 189.664249 128.811396 
L 191.295678 125.093048 
L 192.927108 133.201325 
L 194.558538 130.70604 
L 196.189968 128.431222 
L 197.821398 137.808552 
L 199.452828 135.947596 
L 201.084258 137.16092 
L 202.715688 132.765195 
L 204.347117 129.342794 
L 205.978547 130.995232 
L 207.609977 128.106818 
L 209.241407 134.231372 
L 210.872837 139.520464 
L 212.504267 133.903479 
L 214.135697 132.033785 
L 215.767127 138.969406 
L 217.398556 133.573981 
L 219.029986 132.718718 
L 220.661416 132.867932 
L 222.292846 135.456014 
L 223.924276 136.294309 
L 225.555706 133.574592 
L 227.187136 131.093565 
L 228.818566 136.307495 
L 230.449995 129.554812 
L 233.712855 131.350763 
L 235.344285 129.442186 
L 236.975715 122.788801 
L 238.607145 139.695971 
L 240.238575 128.59939 
L 241.870005 139.465177 
L 243.501434 131.44856 
L 245.132864 132.239334 
L 246.764294 143.763014 
L 248.395724 150.374895 
L 250.027154 141.498085 
L 251.658584 145.413983 
L 253.290014 137.774915 
L 254.921444 138.24941 
L 256.552873 137.584924 
L 258.184303 135.429816 
L 259.815733 142.923675 
L 261.447163 128.414608 
L 263.078593 131.822924 
L 264.710023 132.106026 
L 266.341453 133.188619 
L 267.972883 133.291351 
L 269.604312 128.555143 
L 271.235742 136.382143 
L 272.867172 139.484184 
L 274.498602 146.688741 
L 276.130032 141.66666 
L 277.761462 131.386997 
L 279.392892 129.600758 
L 281.024322 133.239814 
L 282.655751 123.96213 
L 284.287181 125.236281 
L 285.918611 114.430927 
L 287.550041 131.577548 
L 289.181471 127.121612 
L 290.812901 119.74962 
L 292.444331 129.490234 
L 294.075761 128.378319 
L 295.70719 127.788178 
L 297.33862 134.018741 
L 298.97005 122.765802 
L 300.60148 125.851529 
L 302.23291 130.318453 
L 303.86434 133.07289 
L 305.49577 124.194717 
L 307.1272 123.681935 
L 308.75863 124.735389 
L 312.021489 130.081838 
L 313.652919 130.977144 
L 315.284349 129.156137 
L 316.915779 128.866531 
L 318.547209 138.340678 
L 320.178639 132.259665 
L 321.810069 120.941598 
L 323.441498 128.482672 
L 325.072928 120.504175 
L 326.704358 131.844064 
L 328.335788 137.130434 
L 329.967218 137.628782 
L 331.598648 129.043698 
L 333.230078 125.142615 
L 334.861508 128.304981 
L 336.492937 124.861962 
L 338.124367 124.971059 
L 339.755797 116.494475 
L 341.387227 124.71713 
L 343.018657 126.150213 
L 344.650087 126.27865 
L 346.281517 123.356164 
L 347.912947 119.541043 
L 349.544376 128.808072 
L 351.175806 115.965137 
L 352.807236 119.5818 
L 354.438666 119.055832 
L 356.070096 124.067699 
L 357.701526 125.734482 
L 359.332956 119.833756 
L 360.964386 132.625727 
L 362.595815 128.394438 
L 364.227245 128.58584 
L 365.858675 133.5661 
L 367.490105 119.428369 
L 369.121535 126.93865 
L 370.752965 125.495901 
L 372.384395 126.204429 
L 374.015825 125.301168 
L 375.647254 121.252307 
L 377.278684 124.596154 
L 378.910114 120.52192 
L 380.541544 111.808191 
L 382.172974 121.899808 
L 383.804404 122.977285 
L 385.435834 135.77416 
L 387.067264 129.398106 
L 388.698693 117.988155 
L 390.330123 132.243874 
L 391.961553 131.401166 
L 393.592983 139.861463 
L 395.224413 127.091661 
L 396.855843 122.991607 
L 398.487273 111.093917 
L 398.487273 111.093917 
" style="fill:none;stroke:#2ca02c;stroke-linecap:square;stroke-width:0.75;"/>
   </g>
   <g id="patch_3">
    <path d="M 57.6 307.584 
L 57.6 41.472 
" style="fill:none;stroke:#000000;stroke-linecap:square;stroke-linejoin:miter;stroke-width:0.8;"/>
   </g>
   <g id="patch_4">
    <path d="M 414.72 307.584 
L 414.72 41.472 
" style="fill:none;stroke:#000000;stroke-linecap:square;stroke-linejoin:miter;stroke-width:0.8;"/>
   </g>
   <g id="patch_5">
    <path d="M 57.6 307.584 
L 414.72 307.584 
" style="fill:none;stroke:#000000;stroke-linecap:square;stroke-linejoin:miter;stroke-width:0.8;"/>
   </g>
   <g id="patch_6">
    <path d="M 57.6 41.472 
L 414.72 41.472 
" style="fill:none;stroke:#000000;stroke-linecap:square;stroke-linejoin:miter;stroke-width:0.8;"/>
   </g>
   <g id="legend_1">
    <g id="patch_7">
     <path d="M 338.234063 78.82825 
L 407.72 78.82825 
Q 409.72 78.82825 409.72 76.82825 
L 409.72 48.472 
Q 409.72 46.472 407.72 46.472 
L 338.234063 46.472 
Q 336.234063 46.472 336.234063 48.472 
L 336.234063 76.82825 
Q 336.234063 78.82825 338.234063 78.82825 
z
" style="fill:#ffffff;opacity:0.8;stroke:#cccccc;stroke-linejoin:miter;"/>
    </g>
    <g id="line2d_20">
     <path d="M 340.234063 54.570437 
L 360.234063 54.570437 
" style="fill:none;stroke:#1f77b4;stroke-linecap:square;stroke-width:0.25;"/>
    </g>
    <g id="line2d_21"/>
    <g id="text_18">
     <!-- median -->
     <defs>
      <path d="M 52 44.1875 
Q 55.375 50.25 60.0625 53.125 
Q 64.75 56 71.09375 56 
Q 79.640625 56 84.28125 50.015625 
Q 88.921875 44.046875 88.921875 33.015625 
L 88.921875 0 
L 79.890625 0 
L 79.890625 32.71875 
Q 79.890625 40.578125 77.09375 44.375 
Q 74.3125 48.1875 68.609375 48.1875 
Q 61.625 48.1875 57.5625 43.546875 
Q 53.515625 38.921875 53.515625 30.90625 
L 53.515625 0 
L 44.484375 0 
L 44.484375 32.71875 
Q 44.484375 40.625 41.703125 44.40625 
Q 38.921875 48.1875 33.109375 48.1875 
Q 26.21875 48.1875 22.15625 43.53125 
Q 18.109375 38.875 18.109375 30.90625 
L 18.109375 0 
L 9.078125 0 
L 9.078125 54.6875 
L 18.109375 54.6875 
L 18.109375 46.1875 
Q 21.1875 51.21875 25.484375 53.609375 
Q 29.78125 56 35.6875 56 
Q 41.65625 56 45.828125 52.96875 
Q 50 49.953125 52 44.1875 
z
" id="DejaVuSans-109"/>
      <path d="M 56.203125 29.59375 
L 56.203125 25.203125 
L 14.890625 25.203125 
Q 15.484375 15.921875 20.484375 11.0625 
Q 25.484375 6.203125 34.421875 6.203125 
Q 39.59375 6.203125 44.453125 7.46875 
Q 49.3125 8.734375 54.109375 11.28125 
L 54.109375 2.78125 
Q 49.265625 0.734375 44.1875 -0.34375 
Q 39.109375 -1.421875 33.890625 -1.421875 
Q 20.796875 -1.421875 13.15625 6.1875 
Q 5.515625 13.8125 5.515625 26.8125 
Q 5.515625 40.234375 12.765625 48.109375 
Q 20.015625 56 32.328125 56 
Q 43.359375 56 49.78125 48.890625 
Q 56.203125 41.796875 56.203125 29.59375 
z
M 47.21875 32.234375 
Q 47.125 39.59375 43.09375 43.984375 
Q 39.0625 48.390625 32.421875 48.390625 
Q 24.90625 48.390625 20.390625 44.140625 
Q 15.875 39.890625 15.1875 32.171875 
z
" id="DejaVuSans-101"/>
      <path d="M 45.40625 46.390625 
L 45.40625 75.984375 
L 54.390625 75.984375 
L 54.390625 0 
L 45.40625 0 
L 45.40625 8.203125 
Q 42.578125 3.328125 38.25 0.953125 
Q 33.9375 -1.421875 27.875 -1.421875 
Q 17.96875 -1.421875 11.734375 6.484375 
Q 5.515625 14.40625 5.515625 27.296875 
Q 5.515625 40.1875 11.734375 48.09375 
Q 17.96875 56 27.875 56 
Q 33.9375 56 38.25 53.625 
Q 42.578125 51.265625 45.40625 46.390625 
z
M 14.796875 27.296875 
Q 14.796875 17.390625 18.875 11.75 
Q 22.953125 6.109375 30.078125 6.109375 
Q 37.203125 6.109375 41.296875 11.75 
Q 45.40625 17.390625 45.40625 27.296875 
Q 45.40625 37.203125 41.296875 42.84375 
Q 37.203125 48.484375 30.078125 48.484375 
Q 22.953125 48.484375 18.875 42.84375 
Q 14.796875 37.203125 14.796875 27.296875 
z
" id="DejaVuSans-100"/>
      <path d="M 9.421875 54.6875 
L 18.40625 54.6875 
L 18.40625 0 
L 9.421875 0 
z
M 9.421875 75.984375 
L 18.40625 75.984375 
L 18.40625 64.59375 
L 9.421875 64.59375 
z
" id="DejaVuSans-105"/>
      <path d="M 34.28125 27.484375 
Q 23.390625 27.484375 19.1875 25 
Q 14.984375 22.515625 14.984375 16.5 
Q 14.984375 11.71875 18.140625 8.90625 
Q 21.296875 6.109375 26.703125 6.109375 
Q 34.1875 6.109375 38.703125 11.40625 
Q 43.21875 16.703125 43.21875 25.484375 
L 43.21875 27.484375 
z
M 52.203125 31.203125 
L 52.203125 0 
L 43.21875 0 
L 43.21875 8.296875 
Q 40.140625 3.328125 35.546875 0.953125 
Q 30.953125 -1.421875 24.3125 -1.421875 
Q 15.921875 -1.421875 10.953125 3.296875 
Q 6 8.015625 6 15.921875 
Q 6 25.140625 12.171875 29.828125 
Q 18.359375 34.515625 30.609375 34.515625 
L 43.21875 34.515625 
L 43.21875 35.40625 
Q 43.21875 41.609375 39.140625 45 
Q 35.0625 48.390625 27.6875 48.390625 
Q 23 48.390625 18.546875 47.265625 
Q 14.109375 46.140625 10.015625 43.890625 
L 10.015625 52.203125 
Q 14.9375 54.109375 19.578125 55.046875 
Q 24.21875 56 28.609375 56 
Q 40.484375 56 46.34375 49.84375 
Q 52.203125 43.703125 52.203125 31.203125 
z
" id="DejaVuSans-97"/>
      <path d="M 54.890625 33.015625 
L 54.890625 0 
L 45.90625 0 
L 45.90625 32.71875 
Q 45.90625 40.484375 42.875 44.328125 
Q 39.84375 48.1875 33.796875 48.1875 
Q 26.515625 48.1875 22.3125 43.546875 
Q 18.109375 38.921875 18.109375 30.90625 
L 18.109375 0 
L 9.078125 0 
L 9.078125 54.6875 
L 18.109375 54.6875 
L 18.109375 46.1875 
Q 21.34375 51.125 25.703125 53.5625 
Q 30.078125 56 35.796875 56 
Q 45.21875 56 50.046875 50.171875 
Q 54.890625 44.34375 54.890625 33.015625 
z
" id="DejaVuSans-110"/>
     </defs>
     <g transform="translate(368.234063 58.070437)scale(0.1 -0.1)">
      <use xlink:href="#DejaVuSans-109"/>
      <use x="97.412109" xlink:href="#DejaVuSans-101"/>
      <use x="158.935547" xlink:href="#DejaVuSans-100"/>
      <use x="222.412109" xlink:href="#DejaVuSans-105"/>
      <use x="250.195312" xlink:href="#DejaVuSans-97"/>
      <use x="311.474609" xlink:href="#DejaVuSans-110"/>
     </g>
    </g>
    <g id="line2d_22">
     <path d="M 340.234063 69.248562 
L 360.234063 69.248562 
" style="fill:none;stroke:#2ca02c;stroke-linecap:square;stroke-width:0.75;"/>
    </g>
    <g id="line2d_23"/>
    <g id="text_19">
     <!-- mean -->
     <g transform="translate(368.234063 72.748562)scale(0.1 -0.1)">
      <use xlink:href="#DejaVuSans-109"/>
      <use x="97.412109" xlink:href="#DejaVuSans-101"/>
      <use x="158.935547" xlink:href="#DejaVuSans-97"/>
      <use x="220.214844" xlink:href="#DejaVuSans-110"/>
     </g>
    </g>
   </g>
  </g>
  <g id="text_20">
   <!-- kappa.mean over generations -->
   <defs>
    <path d="M 9.078125 75.984375 
L 18.109375 75.984375 
L 18.109375 31.109375 
L 44.921875 54.6875 
L 56.390625 54.6875 
L 27.390625 29.109375 
L 57.625 0 
L 45.90625 0 
L 18.109375 26.703125 
L 18.109375 0 
L 9.078125 0 
z
" id="DejaVuSans-107"/>
    <path d="M 18.109375 8.203125 
L 18.109375 -20.796875 
L 9.078125 -20.796875 
L 9.078125 54.6875 
L 18.109375 54.6875 
L 18.109375 46.390625 
Q 20.953125 51.265625 25.265625 53.625 
Q 29.59375 56 35.59375 56 
Q 45.5625 56 51.78125 48.09375 
Q 58.015625 40.1875 58.015625 27.296875 
Q 58.015625 14.40625 51.78125 6.484375 
Q 45.5625 -1.421875 35.59375 -1.421875 
Q 29.59375 -1.421875 25.265625 0.953125 
Q 20.953125 3.328125 18.109375 8.203125 
z
M 48.6875 27.296875 
Q 48.6875 37.203125 44.609375 42.84375 
Q 40.53125 48.484375 33.40625 48.484375 
Q 26.265625 48.484375 22.1875 42.84375 
Q 18.109375 37.203125 18.109375 27.296875 
Q 18.109375 17.390625 22.1875 11.75 
Q 26.265625 6.109375 33.40625 6.109375 
Q 40.53125 6.109375 44.609375 11.75 
Q 48.6875 17.390625 48.6875 27.296875 
z
" id="DejaVuSans-112"/>
    <path id="DejaVuSans-32"/>
    <path d="M 30.609375 48.390625 
Q 23.390625 48.390625 19.1875 42.75 
Q 14.984375 37.109375 14.984375 27.296875 
Q 14.984375 17.484375 19.15625 11.84375 
Q 23.34375 6.203125 30.609375 6.203125 
Q 37.796875 6.203125 41.984375 11.859375 
Q 46.1875 17.53125 46.1875 27.296875 
Q 46.1875 37.015625 41.984375 42.703125 
Q 37.796875 48.390625 30.609375 48.390625 
z
M 30.609375 56 
Q 42.328125 56 49.015625 48.375 
Q 55.71875 40.765625 55.71875 27.296875 
Q 55.71875 13.875 49.015625 6.21875 
Q 42.328125 -1.421875 30.609375 -1.421875 
Q 18.84375 -1.421875 12.171875 6.21875 
Q 5.515625 13.875 5.515625 27.296875 
Q 5.515625 40.765625 12.171875 48.375 
Q 18.84375 56 30.609375 56 
z
" id="DejaVuSans-111"/>
    <path d="M 2.984375 54.6875 
L 12.5 54.6875 
L 29.59375 8.796875 
L 46.6875 54.6875 
L 56.203125 54.6875 
L 35.6875 0 
L 23.484375 0 
z
" id="DejaVuSans-118"/>
    <path d="M 41.109375 46.296875 
Q 39.59375 47.171875 37.8125 47.578125 
Q 36.03125 48 33.890625 48 
Q 26.265625 48 22.1875 43.046875 
Q 18.109375 38.09375 18.109375 28.8125 
L 18.109375 0 
L 9.078125 0 
L 9.078125 54.6875 
L 18.109375 54.6875 
L 18.109375 46.1875 
Q 20.953125 51.171875 25.484375 53.578125 
Q 30.03125 56 36.53125 56 
Q 37.453125 56 38.578125 55.875 
Q 39.703125 55.765625 41.0625 55.515625 
z
" id="DejaVuSans-114"/>
    <path d="M 45.40625 27.984375 
Q 45.40625 37.75 41.375 43.109375 
Q 37.359375 48.484375 30.078125 48.484375 
Q 22.859375 48.484375 18.828125 43.109375 
Q 14.796875 37.75 14.796875 27.984375 
Q 14.796875 18.265625 18.828125 12.890625 
Q 22.859375 7.515625 30.078125 7.515625 
Q 37.359375 7.515625 41.375 12.890625 
Q 45.40625 18.265625 45.40625 27.984375 
z
M 54.390625 6.78125 
Q 54.390625 -7.171875 48.1875 -13.984375 
Q 42 -20.796875 29.203125 -20.796875 
Q 24.46875 -20.796875 20.265625 -20.09375 
Q 16.0625 -19.390625 12.109375 -17.921875 
L 12.109375 -9.1875 
Q 16.0625 -11.328125 19.921875 -12.34375 
Q 23.78125 -13.375 27.78125 -13.375 
Q 36.625 -13.375 41.015625 -8.765625 
Q 45.40625 -4.15625 45.40625 5.171875 
L 45.40625 9.625 
Q 42.625 4.78125 38.28125 2.390625 
Q 33.9375 0 27.875 0 
Q 17.828125 0 11.671875 7.65625 
Q 5.515625 15.328125 5.515625 27.984375 
Q 5.515625 40.671875 11.671875 48.328125 
Q 17.828125 56 27.875 56 
Q 33.9375 56 38.28125 53.609375 
Q 42.625 51.21875 45.40625 46.390625 
L 45.40625 54.6875 
L 54.390625 54.6875 
z
" id="DejaVuSans-103"/>
    <path d="M 18.3125 70.21875 
L 18.3125 54.6875 
L 36.8125 54.6875 
L 36.8125 47.703125 
L 18.3125 47.703125 
L 18.3125 18.015625 
Q 18.3125 11.328125 20.140625 9.421875 
Q 21.96875 7.515625 27.59375 7.515625 
L 36.8125 7.515625 
L 36.8125 0 
L 27.59375 0 
Q 17.1875 0 13.234375 3.875 
Q 9.28125 7.765625 9.28125 18.015625 
L 9.28125 47.703125 
L 2.6875 47.703125 
L 2.6875 54.6875 
L 9.28125 54.6875 
L 9.28125 70.21875 
z
" id="DejaVuSans-116"/>
    <path d="M 44.28125 53.078125 
L 44.28125 44.578125 
Q 40.484375 46.53125 36.375 47.5 
Q 32.28125 48.484375 27.875 48.484375 
Q 21.1875 48.484375 17.84375 46.4375 
Q 14.5 44.390625 14.5 40.28125 
Q 14.5 37.15625 16.890625 35.375 
Q 19.28125 33.59375 26.515625 31.984375 
L 29.59375 31.296875 
Q 39.15625 29.25 43.1875 25.515625 
Q 47.21875 21.78125 47.21875 15.09375 
Q 47.21875 7.46875 41.1875 3.015625 
Q 35.15625 -1.421875 24.609375 -1.421875 
Q 20.21875 -1.421875 15.453125 -0.5625 
Q 10.6875 0.296875 5.421875 2 
L 5.421875 11.28125 
Q 10.40625 8.6875 15.234375 7.390625 
Q 20.0625 6.109375 24.8125 6.109375 
Q 31.15625 6.109375 34.5625 8.28125 
Q 37.984375 10.453125 37.984375 14.40625 
Q 37.984375 18.0625 35.515625 20.015625 
Q 33.0625 21.96875 24.703125 23.78125 
L 21.578125 24.515625 
Q 13.234375 26.265625 9.515625 29.90625 
Q 5.8125 33.546875 5.8125 39.890625 
Q 5.8125 47.609375 11.28125 51.796875 
Q 16.75 56 26.8125 56 
Q 31.78125 56 36.171875 55.265625 
Q 40.578125 54.546875 44.28125 53.078125 
z
" id="DejaVuSans-115"/>
   </defs>
   <g transform="translate(140.184375 16.030125)scale(0.12 -0.12)">
    <use xlink:href="#DejaVuSans-107"/>
    <use x="56.160156" xlink:href="#DejaVuSans-97"/>
    <use x="117.439453" xlink:href="#DejaVuSans-112"/>
    <use x="180.916016" xlink:href="#DejaVuSans-112"/>
    <use x="244.392578" xlink:href="#DejaVuSans-97"/>
    <use x="305.671875" xlink:href="#DejaVuSans-46"/>
    <use x="337.458984" xlink:href="#DejaVuSans-109"/>
    <use x="434.871094" xlink:href="#DejaVuSans-101"/>
    <use x="496.394531" xlink:href="#DejaVuSans-97"/>
    <use x="557.673828" xlink:href="#DejaVuSans-110"/>
    <use x="621.052734" xlink:href="#DejaVuSans-32"/>
    <use x="652.839844" xlink:href="#DejaVuSans-111"/>
    <use x="714.021484" xlink:href="#DejaVuSans-118"/>
    <use x="773.201172" xlink:href="#DejaVuSans-101"/>
    <use x="834.724609" xlink:href="#DejaVuSans-114"/>
    <use x="875.837891" xlink:href="#DejaVuSans-32"/>
    <use x="907.625" xlink:href="#DejaVuSans-103"/>
    <use x="971.101562" xlink:href="#DejaVuSans-101"/>
    <use x="1032.625" xlink:href="#DejaVuSans-110"/>
    <use x="1096.003906" xlink:href="#DejaVuSans-101"/>
    <use x="1157.527344" xlink:href="#DejaVuSans-114"/>
    <use x="1198.640625" xlink:href="#DejaVuSans-97"/>
    <use x="1259.919922" xlink:href="#DejaVuSans-116"/>
    <use x="1299.128906" xlink:href="#DejaVuSans-105"/>
    <use x="1326.912109" xlink:href="#DejaVuSans-111"/>
    <use x="1388.09375" xlink:href="#DejaVuSans-110"/>
    <use x="1451.472656" xlink:href="#DejaVuSans-115"/>
   </g>
  </g>
 </g>
 <defs>
  <clipPath id="pc3f597b046">
   <rect height="266.112" width="357.12" x="57.6" y="41.472"/>
  </clipPath>
 </defs>
</svg>
