<?xml version="1.0" encoding="utf-8" standalone="no"?>
<!DOCTYPE svg PUBLIC "-//W3C//DTD SVG 1.1//EN"
  "http://www.w3.org/Graphics/SVG/1.1/DTD/svg11.dtd">
<!-- Created with matplotlib (https://matplotlib.org/) -->
<svg height="345.6pt" version="1.1" viewBox="0 0 460.8 345.6" width="460.8pt" xmlns="http://www.w3.org/2000/svg" xmlns:xlink="http://www.w3.org/1999/xlink">
 <defs>
  <style type="text/css">
*{stroke-linecap:butt;stroke-linejoin:round;}
  </style>
 </defs>
 <g id="figure_1">
  <g id="patch_1">
   <path d="M 0 345.6 
L 460.8 345.6 
L 460.8 0 
L 0 0 
z
" style="fill:#ffffff;"/>
  </g>
  <g id="axes_1">
   <g id="patch_2">
    <path d="M 57.6 307.584 
L 414.72 307.584 
L 414.72 41.472 
L 57.6 41.472 
z
" style="fill:#ffffff;"/>
   </g>
   <g id="PolyCollection_1">
    <path clip-path="url(#p9fd2539ac5)" d="M 73.832727 211.473941 
L 73.832727 211.473941 
L 75.464157 211.473941 
L 77.095587 211.473941 
L 78.727017 211.473941 
L 80.358447 211.473941 
L 81.989877 211.473941 
L 83.621307 211.473941 
L 85.252736 211.473941 
L 86.884166 211.473941 
L 88.515596 211.473941 
L 90.147026 211.473941 
L 91.778456 211.473941 
L 93.409886 211.473941 
L 95.041316 211.473941 
L 96.672746 211.473941 
L 98.304175 211.473941 
L 99.935605 211.473941 
L 101.567035 211.473941 
L 103.198465 211.473941 
L 104.829895 211.473941 
L 106.461325 211.473941 
L 108.092755 211.473941 
L 109.724185 211.473941 
L 111.355614 211.473941 
L 112.987044 211.473941 
L 114.618474 211.473941 
L 116.249904 211.473941 
L 117.881334 211.473941 
L 119.512764 211.473941 
L 121.144194 211.473941 
L 122.775624 211.473941 
L 124.407053 211.473941 
L 126.038483 211.473941 
L 127.669913 211.473941 
L 129.301343 211.473941 
L 130.932773 211.473941 
L 132.564203 211.473941 
L 134.195633 211.473941 
L 135.827063 211.473941 
L 137.458492 211.473941 
L 139.089922 211.473941 
L 140.721352 211.473941 
L 142.352782 211.473941 
L 143.984212 211.473941 
L 145.615642 211.473941 
L 147.247072 211.473941 
L 148.878502 211.473941 
L 150.509931 211.473941 
L 152.141361 211.473941 
L 153.772791 211.473941 
L 155.404221 211.473941 
L 157.035651 211.473941 
L 158.667081 211.473941 
L 160.298511 211.473941 
L 161.929941 211.473941 
L 163.56137 211.473941 
L 165.1928 211.473941 
L 166.82423 211.473941 
L 168.45566 211.473941 
L 170.08709 211.473941 
L 171.71852 211.473941 
L 173.34995 211.473941 
L 174.98138 211.473941 
L 176.61281 211.473941 
L 178.244239 211.473941 
L 179.875669 211.473941 
L 181.507099 211.473941 
L 183.138529 211.473941 
L 184.769959 211.473941 
L 186.401389 211.473941 
L 188.032819 211.473941 
L 189.664249 211.473941 
L 191.295678 211.473941 
L 192.927108 211.473941 
L 194.558538 211.473941 
L 196.189968 211.473941 
L 197.821398 211.473941 
L 199.452828 211.473941 
L 201.084258 211.473941 
L 202.715688 211.473941 
L 204.347117 211.473941 
L 205.978547 211.473941 
L 207.609977 211.473941 
L 209.241407 173.684485 
L 210.872837 211.473941 
L 212.504267 201.01436 
L 214.135697 165.249339 
L 215.767127 208.774695 
L 217.398556 181.44482 
L 219.029986 193.254025 
L 220.661416 178.070762 
L 222.292846 211.473941 
L 223.924276 199.833439 
L 225.555706 169.973021 
L 227.187136 178.745573 
L 228.818566 189.711264 
L 230.449995 194.941054 
L 232.081425 178.323816 
L 233.712855 194.09754 
L 235.344285 169.719967 
L 236.975715 183.553607 
L 238.607145 180.010845 
L 240.238575 183.553607 
L 241.870005 193.338377 
L 243.501434 192.916619 
L 245.132864 194.688 
L 246.764294 195.86892 
L 248.395724 181.697874 
L 250.027154 188.867749 
L 251.658584 175.70892 
L 253.290014 190.63913 
L 254.921444 195.27846 
L 256.552873 178.070762 
L 258.184303 174.696703 
L 259.815733 157.197992 
L 261.447163 173.735096 
L 263.078593 196.628084 
L 264.710023 193.591431 
L 266.341453 182.625741 
L 267.972883 194.772351 
L 269.604312 185.49369 
L 271.235742 162.887498 
L 272.867172 192.073105 
L 274.498602 166.345908 
L 276.130032 188.867749 
L 277.761462 170.985238 
L 279.392892 186.168502 
L 281.024322 175.455866 
L 282.655751 169.838059 
L 284.287181 187.265071 
L 285.918611 181.191766 
L 287.550041 174.173724 
L 289.181471 194.603649 
L 290.812901 180.432603 
L 292.444331 179.420385 
L 294.075761 183.469255 
L 295.70719 177.733356 
L 297.33862 210.461724 
L 298.97005 195.531515 
L 300.60148 208.268586 
L 302.23291 177.311598 
L 303.86434 181.276117 
L 305.49577 154.368 
L 307.1272 162.465741 
L 308.75863 200.761305 
L 310.390059 195.531515 
L 312.021489 180.348251 
L 313.652919 178.728703 
L 315.284349 193.085322 
L 316.915779 191.904402 
L 318.547209 169.466912 
L 320.178639 164.658879 
L 321.810069 206.075448 
L 323.441498 175.034109 
L 325.072928 194.941054 
L 326.704358 188.886086 
L 328.335788 168.20164 
L 329.967218 178.155113 
L 331.598648 197.724653 
L 333.230078 208.859046 
L 334.861508 171.997456 
L 336.492937 196.628084 
L 338.124367 196.244987 
L 339.755797 191.566996 
L 341.387227 189.120803 
L 343.018657 182.457038 
L 344.650087 180.516954 
L 346.281517 187.18072 
L 347.912947 209.1121 
L 349.544376 181.360469 
L 351.175806 179.757791 
L 352.807236 190.820485 
L 354.438666 211.473941 
L 356.070096 187.18072 
L 357.701526 209.1121 
L 359.332956 195.700218 
L 360.964386 192.579213 
L 362.595815 211.473941 
L 364.227245 193.767802 
L 365.858675 194.181891 
L 367.490105 204.051013 
L 369.121535 184.818879 
L 370.752965 182.794443 
L 372.384395 194.941054 
L 374.015825 201.351766 
L 375.647254 198.14641 
L 377.278684 192.241808 
L 378.910114 196.96549 
L 380.541544 188.277289 
L 382.172974 185.240636 
L 383.804404 208.099883 
L 385.435834 182.119632 
L 387.067264 193.254025 
L 388.698693 211.473941 
L 390.330123 201.351766 
L 391.961553 180.980887 
L 393.592983 184.734527 
L 395.224413 185.831096 
L 396.855843 190.048669 
L 398.487273 181.529172 
L 398.487273 105.865908 
L 398.487273 105.865908 
L 396.855843 134.776222 
L 395.224413 134.714109 
L 393.592983 92.960134 
L 391.961553 144.236091 
L 390.330123 160.863063 
L 388.698693 127.628586 
L 387.067264 134.79846 
L 385.435834 135.931704 
L 383.804404 127.122477 
L 382.172974 131.086996 
L 380.541544 136.759632 
L 378.910114 128.809506 
L 377.278684 140.281305 
L 375.647254 127.122477 
L 374.015825 125.351096 
L 372.384395 139.850176 
L 370.752965 81.825741 
L 369.121535 127.628586 
L 367.490105 108.109657 
L 365.858675 126.70072 
L 364.227245 78.873439 
L 362.595815 145.426745 
L 360.964386 115.144569 
L 359.332956 149.391264 
L 357.701526 143.99277 
L 356.070096 139.070862 
L 354.438666 105.444151 
L 352.807236 133.533188 
L 351.175806 123.83277 
L 349.544376 148.576948 
L 347.912947 124.844987 
L 346.281517 127.375531 
L 344.650087 135.726326 
L 343.018657 111.095699 
L 341.387227 145.260151 
L 339.755797 147.113774 
L 338.124367 126.388391 
L 336.492937 152.765322 
L 334.861508 95.663598 
L 333.230078 104.178879 
L 331.598648 119.699548 
L 329.967218 140.281305 
L 328.335788 122.736201 
L 326.704358 110.252184 
L 325.072928 114.554109 
L 323.441498 114.63846 
L 321.810069 128.4721 
L 320.178639 116.241138 
L 318.547209 105.191096 
L 316.915779 149.545297 
L 315.284349 144.414527 
L 313.652919 127.122477 
L 312.021489 107.670296 
L 310.390059 117.590762 
L 308.75863 123.27605 
L 307.1272 116.32549 
L 305.49577 110.926996 
L 303.86434 134.79846 
L 302.23291 135.135866 
L 300.60148 170.563481 
L 298.97005 151.753105 
L 297.33862 129.146912 
L 295.70719 118.349925 
L 294.075761 136.195321 
L 292.444331 142.56613 
L 290.812901 140.196954 
L 289.181471 137.861952 
L 287.550041 96.484558 
L 285.918611 122.651849 
L 284.287181 129.821724 
L 282.655751 111.730971 
L 281.024322 128.576536 
L 279.392892 108.251849 
L 277.761462 111.264402 
L 276.130032 168.876452 
L 274.498602 127.459883 
L 272.867172 119.362142 
L 271.235742 126.447665 
L 269.604312 130.833941 
L 267.972883 137.573021 
L 266.341453 139.213746 
L 264.710023 145.342393 
L 263.078593 122.365054 
L 261.447163 111.18005 
L 259.815733 125.772854 
L 258.184303 135.135866 
L 256.552873 115.828753 
L 254.921444 135.810678 
L 253.290014 134.272268 
L 251.658584 133.406661 
L 250.027154 129.484318 
L 248.395724 136.569841 
L 246.764294 109.68978 
L 245.132864 126.732543 
L 243.501434 142.733986 
L 241.870005 126.676619 
L 240.238575 127.101389 
L 238.607145 139.9439 
L 236.975715 150.740887 
L 235.344285 128.134695 
L 233.712855 136.008904 
L 232.081425 139.016033 
L 230.449995 148.800803 
L 228.818566 155.309925 
L 227.187136 139.445824 
L 225.555706 135.895029 
L 223.924276 149.391264 
L 222.292846 150.31913 
L 220.661416 146.017205 
L 219.029986 156.170054 
L 217.398556 141.858678 
L 215.767127 154.789757 
L 214.135697 143.99277 
L 212.504267 141.196519 
L 210.872837 149.981724 
L 209.241407 130.15913 
L 207.609977 155.127163 
L 205.978547 161.200469 
L 204.347117 199.917791 
L 202.715688 211.473941 
L 201.084258 211.473941 
L 199.452828 211.473941 
L 197.821398 211.473941 
L 196.189968 211.473941 
L 194.558538 211.473941 
L 192.927108 211.473941 
L 191.295678 211.473941 
L 189.664249 211.473941 
L 188.032819 211.473941 
L 186.401389 211.473941 
L 184.769959 211.473941 
L 183.138529 211.473941 
L 181.507099 211.473941 
L 179.875669 211.473941 
L 178.244239 211.473941 
L 176.61281 211.473941 
L 174.98138 211.473941 
L 173.34995 211.473941 
L 171.71852 211.473941 
L 170.08709 211.473941 
L 168.45566 211.473941 
L 166.82423 211.473941 
L 165.1928 211.473941 
L 163.56137 211.473941 
L 161.929941 211.473941 
L 160.298511 211.473941 
L 158.667081 211.473941 
L 157.035651 211.473941 
L 155.404221 211.473941 
L 153.772791 211.473941 
L 152.141361 211.473941 
L 150.509931 211.473941 
L 148.878502 211.473941 
L 147.247072 211.473941 
L 145.615642 211.473941 
L 143.984212 211.473941 
L 142.352782 211.473941 
L 140.721352 211.473941 
L 139.089922 211.473941 
L 137.458492 211.473941 
L 135.827063 211.473941 
L 134.195633 211.473941 
L 132.564203 211.473941 
L 130.932773 211.473941 
L 129.301343 211.473941 
L 127.669913 211.473941 
L 126.038483 211.473941 
L 124.407053 211.473941 
L 122.775624 211.473941 
L 121.144194 211.473941 
L 119.512764 211.473941 
L 117.881334 211.473941 
L 116.249904 211.473941 
L 114.618474 211.473941 
L 112.987044 211.473941 
L 111.355614 211.473941 
L 109.724185 211.473941 
L 108.092755 211.473941 
L 106.461325 211.473941 
L 104.829895 211.473941 
L 103.198465 211.473941 
L 101.567035 211.473941 
L 99.935605 211.473941 
L 98.304175 211.473941 
L 96.672746 211.473941 
L 95.041316 211.473941 
L 93.409886 211.473941 
L 91.778456 211.473941 
L 90.147026 211.473941 
L 88.515596 211.473941 
L 86.884166 211.473941 
L 85.252736 211.473941 
L 83.621307 211.473941 
L 81.989877 211.473941 
L 80.358447 211.473941 
L 78.727017 211.473941 
L 77.095587 211.473941 
L 75.464157 211.473941 
L 73.832727 211.473941 
z
" style="fill:#1f77b4;fill-opacity:0.2;"/>
   </g>
   <g id="PolyCollection_2">
    <path clip-path="url(#p9fd2539ac5)" d="M 73.832727 211.473941 
L 73.832727 211.473941 
L 75.464157 211.473941 
L 77.095587 211.473941 
L 78.727017 211.473941 
L 80.358447 211.473941 
L 81.989877 211.473941 
L 83.621307 211.473941 
L 85.252736 211.473941 
L 86.884166 211.473941 
L 88.515596 211.473941 
L 90.147026 211.473941 
L 91.778456 211.473941 
L 93.409886 211.473941 
L 95.041316 211.473941 
L 96.672746 211.473941 
L 98.304175 211.473941 
L 99.935605 211.473941 
L 101.567035 211.473941 
L 103.198465 211.473941 
L 104.829895 211.473941 
L 106.461325 211.473941 
L 108.092755 211.473941 
L 109.724185 211.473941 
L 111.355614 211.473941 
L 112.987044 211.473941 
L 114.618474 211.473941 
L 116.249904 211.473941 
L 117.881334 211.473941 
L 119.512764 211.473941 
L 121.144194 211.473941 
L 122.775624 211.473941 
L 124.407053 211.473941 
L 126.038483 211.473941 
L 127.669913 211.473941 
L 129.301343 211.473941 
L 130.932773 211.473941 
L 132.564203 211.473941 
L 134.195633 211.473941 
L 135.827063 211.473941 
L 137.458492 211.473941 
L 139.089922 211.473941 
L 140.721352 211.473941 
L 142.352782 211.473941 
L 143.984212 211.473941 
L 145.615642 211.473941 
L 147.247072 211.473941 
L 148.878502 211.473941 
L 150.509931 211.473941 
L 152.141361 211.473941 
L 153.772791 211.473941 
L 155.404221 211.473941 
L 157.035651 211.473941 
L 158.667081 211.473941 
L 160.298511 211.473941 
L 161.929941 211.473941 
L 163.56137 211.473941 
L 165.1928 211.473941 
L 166.82423 211.473941 
L 168.45566 211.473941 
L 170.08709 211.473941 
L 171.71852 211.473941 
L 173.34995 211.473941 
L 174.98138 211.473941 
L 176.61281 211.473941 
L 178.244239 211.473941 
L 179.875669 211.473941 
L 181.507099 211.473941 
L 183.138529 211.473941 
L 184.769959 211.473941 
L 186.401389 211.473941 
L 188.032819 211.473941 
L 189.664249 211.473941 
L 191.295678 211.473941 
L 192.927108 211.473941 
L 194.558538 211.473941 
L 196.189968 211.473941 
L 197.821398 211.473941 
L 199.452828 211.473941 
L 201.084258 211.473941 
L 202.715688 211.473941 
L 204.347117 258.373356 
L 205.978547 261.747414 
L 207.609977 245.551933 
L 209.241407 254.999297 
L 210.872837 278.955113 
L 212.504267 284.691013 
L 214.135697 225.307582 
L 215.767127 276.255866 
L 217.398556 266.471096 
L 219.029986 243.190092 
L 220.661416 257.023732 
L 222.292846 278.617707 
L 223.924276 263.097038 
L 225.555706 260.397791 
L 227.187136 259.048167 
L 228.818566 211.473941 
L 230.449995 252.30005 
L 232.081425 211.473941 
L 233.712855 250.950427 
L 235.344285 273.894025 
L 236.975715 238.46641 
L 238.607145 245.551933 
L 240.238575 218.89687 
L 241.870005 278.955113 
L 243.501434 266.808502 
L 245.132864 218.559464 
L 246.764294 227.669423 
L 248.395724 211.473941 
L 250.027154 258.710761 
L 251.658584 211.473941 
L 253.290014 211.473941 
L 254.921444 216.872435 
L 256.552873 276.255866 
L 258.184303 258.03595 
L 259.815733 210.79913 
L 261.447163 253.312268 
L 263.078593 235.429757 
L 264.710023 214.848 
L 266.341453 212.486159 
L 267.972883 263.097038 
L 269.604312 268.495531 
L 271.235742 248.25118 
L 272.867172 218.559464 
L 274.498602 259.722979 
L 276.130032 216.197623 
L 277.761462 233.067916 
L 279.392892 238.46641 
L 281.024322 211.473941 
L 282.655751 227.332017 
L 284.287181 257.023732 
L 285.918611 267.145908 
L 287.550041 214.173188 
L 289.181471 233.742728 
L 290.812901 262.759632 
L 292.444331 246.901556 
L 294.075761 266.808502 
L 295.70719 261.747414 
L 297.33862 214.173188 
L 298.97005 234.080134 
L 300.60148 245.214527 
L 302.23291 245.214527 
L 303.86434 259.385573 
L 305.49577 250.275615 
L 307.1272 215.185406 
L 308.75863 295.488 
L 310.390059 276.255866 
L 312.021489 239.141222 
L 313.652919 271.194778 
L 315.284349 263.434444 
L 316.915779 259.722979 
L 318.547209 211.473941 
L 320.178639 247.238962 
L 321.810069 258.373356 
L 323.441498 211.811347 
L 325.072928 211.473941 
L 326.704358 262.422226 
L 328.335788 211.811347 
L 329.967218 211.811347 
L 331.598648 278.955113 
L 333.230078 222.945741 
L 334.861508 211.473941 
L 336.492937 216.197623 
L 338.124367 217.209841 
L 339.755797 223.957958 
L 341.387227 212.823565 
L 343.018657 263.771849 
L 344.650087 245.889339 
L 346.281517 229.356452 
L 347.912947 215.522812 
L 349.544376 225.982393 
L 351.175806 211.473941 
L 352.807236 270.182561 
L 354.438666 277.942895 
L 356.070096 235.767163 
L 357.701526 229.019046 
L 359.332956 256.686326 
L 360.964386 211.473941 
L 362.595815 278.280301 
L 364.227245 276.593272 
L 365.858675 295.488 
L 367.490105 220.921305 
L 369.121535 231.043481 
L 370.752965 266.808502 
L 372.384395 269.507749 
L 374.015825 276.255866 
L 375.647254 286.715448 
L 377.278684 211.473941 
L 378.910114 261.410008 
L 380.541544 211.473941 
L 382.172974 253.312268 
L 383.804404 211.473941 
L 385.435834 241.503063 
L 387.067264 201.689172 
L 388.698693 295.150594 
L 390.330123 211.473941 
L 391.961553 244.877121 
L 393.592983 211.473941 
L 395.224413 251.625238 
L 396.855843 243.527498 
L 398.487273 212.148753 
L 398.487273 78.301316 
L 398.487273 78.301316 
L 396.855843 77.983915 
L 395.224413 76.125992 
L 393.592983 56.942059 
L 391.961553 86.75749 
L 390.330123 86.435984 
L 388.698693 59.641305 
L 387.067264 85.771515 
L 385.435834 85.465831 
L 383.804404 56.604653 
L 382.172974 67.739046 
L 380.541544 72.800134 
L 378.910114 86.204348 
L 377.278684 73.474946 
L 375.647254 65.714611 
L 374.015825 66.726828 
L 372.384395 69.426075 
L 370.752965 73.13754 
L 369.121535 93.879967 
L 367.490105 56.942059 
L 365.858675 53.568 
L 364.227245 67.064234 
L 362.595815 80.678561 
L 360.964386 59.978711 
L 359.332956 85.877985 
L 357.701526 72.800134 
L 356.070096 84.726697 
L 354.438666 82.768943 
L 352.807236 71.787916 
L 351.175806 69.088669 
L 349.544376 84.454695 
L 347.912947 81.749423 
L 346.281517 64.364987 
L 344.650087 83.018711 
L 343.018657 65.714611 
L 341.387227 89.548961 
L 339.755797 88.672268 
L 338.124367 65.039799 
L 336.492937 88.780902 
L 334.861508 76.849004 
L 333.230078 54.917623 
L 331.598648 58.629088 
L 329.967218 88.687549 
L 328.335788 87.461952 
L 326.704358 75.499381 
L 325.072928 87.376067 
L 323.441498 68.076452 
L 321.810069 92.707079 
L 320.178639 94.056703 
L 318.547209 63.690176 
L 316.915779 101.200905 
L 315.284349 100.268038 
L 313.652919 93.381891 
L 312.021489 70.775699 
L 310.390059 91.894238 
L 308.75863 80.897874 
L 307.1272 76.849004 
L 305.49577 90.345238 
L 303.86434 96.081138 
L 302.23291 105.831004 
L 300.60148 104.80549 
L 298.97005 103.141668 
L 297.33862 91.694862 
L 295.70719 78.873439 
L 294.075761 82.247498 
L 292.444331 99.513876 
L 290.812901 98.105573 
L 289.181471 98.218042 
L 287.550041 63.690176 
L 285.918611 91.694862 
L 284.287181 94.104904 
L 282.655751 68.751264 
L 281.024322 98.105573 
L 279.392892 81.910092 
L 277.761462 62.677958 
L 276.130032 89.616442 
L 274.498602 85.621556 
L 272.867172 72.800134 
L 271.235742 79.578924 
L 269.604312 66.389423 
L 267.972883 79.970008 
L 266.341453 90.623965 
L 264.710023 89.854466 
L 263.078593 75.161975 
L 261.447163 78.198628 
L 259.815733 96.519766 
L 258.184303 108.436619 
L 256.552873 62.340552 
L 254.921444 104.85369 
L 253.290014 110.19595 
L 251.658584 109.273707 
L 250.027154 93.719297 
L 248.395724 101.817038 
L 246.764294 64.027582 
L 245.132864 93.044485 
L 243.501434 100.315582 
L 241.870005 82.247498 
L 240.238575 77.861222 
L 238.607145 116.271505 
L 236.975715 115.439799 
L 235.344285 103.166661 
L 233.712855 107.890343 
L 232.081425 106.54072 
L 230.449995 112.999632 
L 228.818566 111.73677 
L 227.187136 122.719331 
L 225.555706 106.203314 
L 223.924276 130.005763 
L 222.292846 129.58072 
L 220.661416 128.657674 
L 219.029986 137.758795 
L 217.398556 125.098042 
L 215.767127 134.140519 
L 214.135697 95.406326 
L 212.504267 126.110259 
L 210.872837 135.220218 
L 209.241407 128.134695 
L 207.609977 142.86246 
L 205.978547 146.135297 
L 204.347117 144.330176 
L 202.715688 147.603013 
L 201.084258 211.473941 
L 199.452828 211.473941 
L 197.821398 211.473941 
L 196.189968 211.473941 
L 194.558538 211.473941 
L 192.927108 211.473941 
L 191.295678 211.473941 
L 189.664249 211.473941 
L 188.032819 211.473941 
L 186.401389 211.473941 
L 184.769959 211.473941 
L 183.138529 211.473941 
L 181.507099 211.473941 
L 179.875669 211.473941 
L 178.244239 211.473941 
L 176.61281 211.473941 
L 174.98138 211.473941 
L 173.34995 211.473941 
L 171.71852 211.473941 
L 170.08709 211.473941 
L 168.45566 211.473941 
L 166.82423 211.473941 
L 165.1928 211.473941 
L 163.56137 211.473941 
L 161.929941 211.473941 
L 160.298511 211.473941 
L 158.667081 211.473941 
L 157.035651 211.473941 
L 155.404221 211.473941 
L 153.772791 211.473941 
L 152.141361 211.473941 
L 150.509931 211.473941 
L 148.878502 211.473941 
L 147.247072 211.473941 
L 145.615642 211.473941 
L 143.984212 211.473941 
L 142.352782 211.473941 
L 140.721352 211.473941 
L 139.089922 211.473941 
L 137.458492 211.473941 
L 135.827063 211.473941 
L 134.195633 211.473941 
L 132.564203 211.473941 
L 130.932773 211.473941 
L 129.301343 211.473941 
L 127.669913 211.473941 
L 126.038483 211.473941 
L 124.407053 211.473941 
L 122.775624 211.473941 
L 121.144194 211.473941 
L 119.512764 211.473941 
L 117.881334 211.473941 
L 116.249904 211.473941 
L 114.618474 211.473941 
L 112.987044 211.473941 
L 111.355614 211.473941 
L 109.724185 211.473941 
L 108.092755 211.473941 
L 106.461325 211.473941 
L 104.829895 211.473941 
L 103.198465 211.473941 
L 101.567035 211.473941 
L 99.935605 211.473941 
L 98.304175 211.473941 
L 96.672746 211.473941 
L 95.041316 211.473941 
L 93.409886 211.473941 
L 91.778456 211.473941 
L 90.147026 211.473941 
L 88.515596 211.473941 
L 86.884166 211.473941 
L 85.252736 211.473941 
L 83.621307 211.473941 
L 81.989877 211.473941 
L 80.358447 211.473941 
L 78.727017 211.473941 
L 77.095587 211.473941 
L 75.464157 211.473941 
L 73.832727 211.473941 
z
" style="fill:#1f77b4;fill-opacity:0.1;"/>
   </g>
   <g id="matplotlib.axis_1">
    <g id="xtick_1">
     <g id="line2d_1">
      <defs>
       <path d="M 0 0 
L 0 3.5 
" id="mefddae1039" style="stroke:#000000;stroke-width:0.8;"/>
      </defs>
      <g>
       <use style="stroke:#000000;stroke-width:0.8;" x="73.832727" xlink:href="#mefddae1039" y="307.584"/>
      </g>
     </g>
     <g id="text_1">
      <!-- 0 -->
      <defs>
       <path d="M 31.78125 66.40625 
Q 24.171875 66.40625 20.328125 58.90625 
Q 16.5 51.421875 16.5 36.375 
Q 16.5 21.390625 20.328125 13.890625 
Q 24.171875 6.390625 31.78125 6.390625 
Q 39.453125 6.390625 43.28125 13.890625 
Q 47.125 21.390625 47.125 36.375 
Q 47.125 51.421875 43.28125 58.90625 
Q 39.453125 66.40625 31.78125 66.40625 
z
M 31.78125 74.21875 
Q 44.046875 74.21875 50.515625 64.515625 
Q 56.984375 54.828125 56.984375 36.375 
Q 56.984375 17.96875 50.515625 8.265625 
Q 44.046875 -1.421875 31.78125 -1.421875 
Q 19.53125 -1.421875 13.0625 8.265625 
Q 6.59375 17.96875 6.59375 36.375 
Q 6.59375 54.828125 13.0625 64.515625 
Q 19.53125 74.21875 31.78125 74.21875 
z
" id="DejaVuSans-48"/>
      </defs>
      <g transform="translate(70.651477 322.182437)scale(0.1 -0.1)">
       <use xlink:href="#DejaVuSans-48"/>
      </g>
     </g>
    </g>
    <g id="xtick_2">
     <g id="line2d_2">
      <g>
       <use style="stroke:#000000;stroke-width:0.8;" x="114.618474" xlink:href="#mefddae1039" y="307.584"/>
      </g>
     </g>
     <g id="text_2">
      <!-- 25 -->
      <defs>
       <path d="M 19.1875 8.296875 
L 53.609375 8.296875 
L 53.609375 0 
L 7.328125 0 
L 7.328125 8.296875 
Q 12.9375 14.109375 22.625 23.890625 
Q 32.328125 33.6875 34.8125 36.53125 
Q 39.546875 41.84375 41.421875 45.53125 
Q 43.3125 49.21875 43.3125 52.78125 
Q 43.3125 58.59375 39.234375 62.25 
Q 35.15625 65.921875 28.609375 65.921875 
Q 23.96875 65.921875 18.8125 64.3125 
Q 13.671875 62.703125 7.8125 59.421875 
L 7.8125 69.390625 
Q 13.765625 71.78125 18.9375 73 
Q 24.125 74.21875 28.421875 74.21875 
Q 39.75 74.21875 46.484375 68.546875 
Q 53.21875 62.890625 53.21875 53.421875 
Q 53.21875 48.921875 51.53125 44.890625 
Q 49.859375 40.875 45.40625 35.40625 
Q 44.1875 33.984375 37.640625 27.21875 
Q 31.109375 20.453125 19.1875 8.296875 
z
" id="DejaVuSans-50"/>
       <path d="M 10.796875 72.90625 
L 49.515625 72.90625 
L 49.515625 64.59375 
L 19.828125 64.59375 
L 19.828125 46.734375 
Q 21.96875 47.46875 24.109375 47.828125 
Q 26.265625 48.1875 28.421875 48.1875 
Q 40.625 48.1875 47.75 41.5 
Q 54.890625 34.8125 54.890625 23.390625 
Q 54.890625 11.625 47.5625 5.09375 
Q 40.234375 -1.421875 26.90625 -1.421875 
Q 22.3125 -1.421875 17.546875 -0.640625 
Q 12.796875 0.140625 7.71875 1.703125 
L 7.71875 11.625 
Q 12.109375 9.234375 16.796875 8.0625 
Q 21.484375 6.890625 26.703125 6.890625 
Q 35.15625 6.890625 40.078125 11.328125 
Q 45.015625 15.765625 45.015625 23.390625 
Q 45.015625 31 40.078125 35.4375 
Q 35.15625 39.890625 26.703125 39.890625 
Q 22.75 39.890625 18.8125 39.015625 
Q 14.890625 38.140625 10.796875 36.28125 
z
" id="DejaVuSans-53"/>
      </defs>
      <g transform="translate(108.255974 322.182437)scale(0.1 -0.1)">
       <use xlink:href="#DejaVuSans-50"/>
       <use x="63.623047" xlink:href="#DejaVuSans-53"/>
      </g>
     </g>
    </g>
    <g id="xtick_3">
     <g id="line2d_3">
      <g>
       <use style="stroke:#000000;stroke-width:0.8;" x="155.404221" xlink:href="#mefddae1039" y="307.584"/>
      </g>
     </g>
     <g id="text_3">
      <!-- 50 -->
      <g transform="translate(149.041721 322.182437)scale(0.1 -0.1)">
       <use xlink:href="#DejaVuSans-53"/>
       <use x="63.623047" xlink:href="#DejaVuSans-48"/>
      </g>
     </g>
    </g>
    <g id="xtick_4">
     <g id="line2d_4">
      <g>
       <use style="stroke:#000000;stroke-width:0.8;" x="196.189968" xlink:href="#mefddae1039" y="307.584"/>
      </g>
     </g>
     <g id="text_4">
      <!-- 75 -->
      <defs>
       <path d="M 8.203125 72.90625 
L 55.078125 72.90625 
L 55.078125 68.703125 
L 28.609375 0 
L 18.3125 0 
L 43.21875 64.59375 
L 8.203125 64.59375 
z
" id="DejaVuSans-55"/>
      </defs>
      <g transform="translate(189.827468 322.182437)scale(0.1 -0.1)">
       <use xlink:href="#DejaVuSans-55"/>
       <use x="63.623047" xlink:href="#DejaVuSans-53"/>
      </g>
     </g>
    </g>
    <g id="xtick_5">
     <g id="line2d_5">
      <g>
       <use style="stroke:#000000;stroke-width:0.8;" x="236.975715" xlink:href="#mefddae1039" y="307.584"/>
      </g>
     </g>
     <g id="text_5">
      <!-- 100 -->
      <defs>
       <path d="M 12.40625 8.296875 
L 28.515625 8.296875 
L 28.515625 63.921875 
L 10.984375 60.40625 
L 10.984375 69.390625 
L 28.421875 72.90625 
L 38.28125 72.90625 
L 38.28125 8.296875 
L 54.390625 8.296875 
L 54.390625 0 
L 12.40625 0 
z
" id="DejaVuSans-49"/>
      </defs>
      <g transform="translate(227.431965 322.182437)scale(0.1 -0.1)">
       <use xlink:href="#DejaVuSans-49"/>
       <use x="63.623047" xlink:href="#DejaVuSans-48"/>
       <use x="127.246094" xlink:href="#DejaVuSans-48"/>
      </g>
     </g>
    </g>
    <g id="xtick_6">
     <g id="line2d_6">
      <g>
       <use style="stroke:#000000;stroke-width:0.8;" x="277.761462" xlink:href="#mefddae1039" y="307.584"/>
      </g>
     </g>
     <g id="text_6">
      <!-- 125 -->
      <g transform="translate(268.217712 322.182437)scale(0.1 -0.1)">
       <use xlink:href="#DejaVuSans-49"/>
       <use x="63.623047" xlink:href="#DejaVuSans-50"/>
       <use x="127.246094" xlink:href="#DejaVuSans-53"/>
      </g>
     </g>
    </g>
    <g id="xtick_7">
     <g id="line2d_7">
      <g>
       <use style="stroke:#000000;stroke-width:0.8;" x="318.547209" xlink:href="#mefddae1039" y="307.584"/>
      </g>
     </g>
     <g id="text_7">
      <!-- 150 -->
      <g transform="translate(309.003459 322.182437)scale(0.1 -0.1)">
       <use xlink:href="#DejaVuSans-49"/>
       <use x="63.623047" xlink:href="#DejaVuSans-53"/>
       <use x="127.246094" xlink:href="#DejaVuSans-48"/>
      </g>
     </g>
    </g>
    <g id="xtick_8">
     <g id="line2d_8">
      <g>
       <use style="stroke:#000000;stroke-width:0.8;" x="359.332956" xlink:href="#mefddae1039" y="307.584"/>
      </g>
     </g>
     <g id="text_8">
      <!-- 175 -->
      <g transform="translate(349.789206 322.182437)scale(0.1 -0.1)">
       <use xlink:href="#DejaVuSans-49"/>
       <use x="63.623047" xlink:href="#DejaVuSans-55"/>
       <use x="127.246094" xlink:href="#DejaVuSans-53"/>
      </g>
     </g>
    </g>
    <g id="xtick_9">
     <g id="line2d_9">
      <g>
       <use style="stroke:#000000;stroke-width:0.8;" x="400.118703" xlink:href="#mefddae1039" y="307.584"/>
      </g>
     </g>
     <g id="text_9">
      <!-- 200 -->
      <g transform="translate(390.574953 322.182437)scale(0.1 -0.1)">
       <use xlink:href="#DejaVuSans-50"/>
       <use x="63.623047" xlink:href="#DejaVuSans-48"/>
       <use x="127.246094" xlink:href="#DejaVuSans-48"/>
      </g>
     </g>
    </g>
   </g>
   <g id="matplotlib.axis_2">
    <g id="ytick_1">
     <g id="line2d_10">
      <defs>
       <path d="M 0 0 
L -3.5 0 
" id="m1742a93622" style="stroke:#000000;stroke-width:0.8;"/>
      </defs>
      <g>
       <use style="stroke:#000000;stroke-width:0.8;" x="57.6" xlink:href="#m1742a93622" y="295.825406"/>
      </g>
     </g>
     <g id="text_10">
      <!-- 0.0 -->
      <defs>
       <path d="M 10.6875 12.40625 
L 21 12.40625 
L 21 0 
L 10.6875 0 
z
" id="DejaVuSans-46"/>
      </defs>
      <g transform="translate(34.696875 299.624625)scale(0.1 -0.1)">
       <use xlink:href="#DejaVuSans-48"/>
       <use x="63.623047" xlink:href="#DejaVuSans-46"/>
       <use x="95.410156" xlink:href="#DejaVuSans-48"/>
      </g>
     </g>
    </g>
    <g id="ytick_2">
     <g id="line2d_11">
      <g>
       <use style="stroke:#000000;stroke-width:0.8;" x="57.6" xlink:href="#m1742a93622" y="245.214527"/>
      </g>
     </g>
     <g id="text_11">
      <!-- 0.2 -->
      <g transform="translate(34.696875 249.013746)scale(0.1 -0.1)">
       <use xlink:href="#DejaVuSans-48"/>
       <use x="63.623047" xlink:href="#DejaVuSans-46"/>
       <use x="95.410156" xlink:href="#DejaVuSans-50"/>
      </g>
     </g>
    </g>
    <g id="ytick_3">
     <g id="line2d_12">
      <g>
       <use style="stroke:#000000;stroke-width:0.8;" x="57.6" xlink:href="#m1742a93622" y="194.603649"/>
      </g>
     </g>
     <g id="text_12">
      <!-- 0.4 -->
      <defs>
       <path d="M 37.796875 64.3125 
L 12.890625 25.390625 
L 37.796875 25.390625 
z
M 35.203125 72.90625 
L 47.609375 72.90625 
L 47.609375 25.390625 
L 58.015625 25.390625 
L 58.015625 17.1875 
L 47.609375 17.1875 
L 47.609375 0 
L 37.796875 0 
L 37.796875 17.1875 
L 4.890625 17.1875 
L 4.890625 26.703125 
z
" id="DejaVuSans-52"/>
      </defs>
      <g transform="translate(34.696875 198.402867)scale(0.1 -0.1)">
       <use xlink:href="#DejaVuSans-48"/>
       <use x="63.623047" xlink:href="#DejaVuSans-46"/>
       <use x="95.410156" xlink:href="#DejaVuSans-52"/>
      </g>
     </g>
    </g>
    <g id="ytick_4">
     <g id="line2d_13">
      <g>
       <use style="stroke:#000000;stroke-width:0.8;" x="57.6" xlink:href="#m1742a93622" y="143.99277"/>
      </g>
     </g>
     <g id="text_13">
      <!-- 0.6 -->
      <defs>
       <path d="M 33.015625 40.375 
Q 26.375 40.375 22.484375 35.828125 
Q 18.609375 31.296875 18.609375 23.390625 
Q 18.609375 15.53125 22.484375 10.953125 
Q 26.375 6.390625 33.015625 6.390625 
Q 39.65625 6.390625 43.53125 10.953125 
Q 47.40625 15.53125 47.40625 23.390625 
Q 47.40625 31.296875 43.53125 35.828125 
Q 39.65625 40.375 33.015625 40.375 
z
M 52.59375 71.296875 
L 52.59375 62.3125 
Q 48.875 64.0625 45.09375 64.984375 
Q 41.3125 65.921875 37.59375 65.921875 
Q 27.828125 65.921875 22.671875 59.328125 
Q 17.53125 52.734375 16.796875 39.40625 
Q 19.671875 43.65625 24.015625 45.921875 
Q 28.375 48.1875 33.59375 48.1875 
Q 44.578125 48.1875 50.953125 41.515625 
Q 57.328125 34.859375 57.328125 23.390625 
Q 57.328125 12.15625 50.6875 5.359375 
Q 44.046875 -1.421875 33.015625 -1.421875 
Q 20.359375 -1.421875 13.671875 8.265625 
Q 6.984375 17.96875 6.984375 36.375 
Q 6.984375 53.65625 15.1875 63.9375 
Q 23.390625 74.21875 37.203125 74.21875 
Q 40.921875 74.21875 44.703125 73.484375 
Q 48.484375 72.75 52.59375 71.296875 
z
" id="DejaVuSans-54"/>
      </defs>
      <g transform="translate(34.696875 147.791989)scale(0.1 -0.1)">
       <use xlink:href="#DejaVuSans-48"/>
       <use x="63.623047" xlink:href="#DejaVuSans-46"/>
       <use x="95.410156" xlink:href="#DejaVuSans-54"/>
      </g>
     </g>
    </g>
    <g id="ytick_5">
     <g id="line2d_14">
      <g>
       <use style="stroke:#000000;stroke-width:0.8;" x="57.6" xlink:href="#m1742a93622" y="93.381891"/>
      </g>
     </g>
     <g id="text_14">
      <!-- 0.8 -->
      <defs>
       <path d="M 31.78125 34.625 
Q 24.75 34.625 20.71875 30.859375 
Q 16.703125 27.09375 16.703125 20.515625 
Q 16.703125 13.921875 20.71875 10.15625 
Q 24.75 6.390625 31.78125 6.390625 
Q 38.8125 6.390625 42.859375 10.171875 
Q 46.921875 13.96875 46.921875 20.515625 
Q 46.921875 27.09375 42.890625 30.859375 
Q 38.875 34.625 31.78125 34.625 
z
M 21.921875 38.8125 
Q 15.578125 40.375 12.03125 44.71875 
Q 8.5 49.078125 8.5 55.328125 
Q 8.5 64.0625 14.71875 69.140625 
Q 20.953125 74.21875 31.78125 74.21875 
Q 42.671875 74.21875 48.875 69.140625 
Q 55.078125 64.0625 55.078125 55.328125 
Q 55.078125 49.078125 51.53125 44.71875 
Q 48 40.375 41.703125 38.8125 
Q 48.828125 37.15625 52.796875 32.3125 
Q 56.78125 27.484375 56.78125 20.515625 
Q 56.78125 9.90625 50.3125 4.234375 
Q 43.84375 -1.421875 31.78125 -1.421875 
Q 19.734375 -1.421875 13.25 4.234375 
Q 6.78125 9.90625 6.78125 20.515625 
Q 6.78125 27.484375 10.78125 32.3125 
Q 14.796875 37.15625 21.921875 38.8125 
z
M 18.3125 54.390625 
Q 18.3125 48.734375 21.84375 45.5625 
Q 25.390625 42.390625 31.78125 42.390625 
Q 38.140625 42.390625 41.71875 45.5625 
Q 45.3125 48.734375 45.3125 54.390625 
Q 45.3125 60.0625 41.71875 63.234375 
Q 38.140625 66.40625 31.78125 66.40625 
Q 25.390625 66.40625 21.84375 63.234375 
Q 18.3125 60.0625 18.3125 54.390625 
z
" id="DejaVuSans-56"/>
      </defs>
      <g transform="translate(34.696875 97.18111)scale(0.1 -0.1)">
       <use xlink:href="#DejaVuSans-48"/>
       <use x="63.623047" xlink:href="#DejaVuSans-46"/>
       <use x="95.410156" xlink:href="#DejaVuSans-56"/>
      </g>
     </g>
    </g>
    <g id="ytick_6">
     <g id="line2d_15">
      <g>
       <use style="stroke:#000000;stroke-width:0.8;" x="57.6" xlink:href="#m1742a93622" y="42.771013"/>
      </g>
     </g>
     <g id="text_15">
      <!-- 1.0 -->
      <g transform="translate(34.696875 46.570231)scale(0.1 -0.1)">
       <use xlink:href="#DejaVuSans-49"/>
       <use x="63.623047" xlink:href="#DejaVuSans-46"/>
       <use x="95.410156" xlink:href="#DejaVuSans-48"/>
      </g>
     </g>
    </g>
   </g>
   <g id="line2d_16">
    <path clip-path="url(#p9fd2539ac5)" d="M 73.832727 211.473941 
L 202.715688 211.473941 
L 204.347117 206.943063 
L 205.978547 161.200469 
L 207.609977 181.107414 
L 209.241407 145.817829 
L 210.872837 167.779883 
L 212.504267 160.74037 
L 214.135697 150.234778 
L 215.767127 182.224067 
L 217.398556 162.946177 
L 219.029986 161.87528 
L 220.661416 157.489004 
L 222.292846 181.44482 
L 223.924276 183.131849 
L 225.555706 150.066075 
L 227.187136 155.633272 
L 228.818566 169.973021 
L 230.449995 168.285992 
L 232.081425 156.476787 
L 233.712855 162.550092 
L 235.344285 143.660326 
L 236.975715 166.261556 
L 238.607145 149.053858 
L 240.238575 139.230746 
L 241.870005 156.308084 
L 243.501434 163.522142 
L 245.132864 152.09051 
L 246.764294 146.284661 
L 248.395724 155.464569 
L 250.027154 146.017205 
L 251.658584 161.200469 
L 253.290014 155.633272 
L 254.921444 154.452351 
L 256.552873 139.269088 
L 258.184303 144.667582 
L 259.815733 145.342393 
L 261.447163 137.244653 
L 263.078593 144.233774 
L 264.710023 159.513439 
L 266.341453 161.200469 
L 267.972883 160.863063 
L 269.604312 154.95846 
L 271.235742 141.799632 
L 272.867172 145.004987 
L 274.498602 143.486661 
L 276.130032 180.770008 
L 277.761462 141.328669 
L 279.392892 146.238455 
L 281.024322 150.403481 
L 282.655751 135.895029 
L 284.287181 152.427916 
L 285.918611 147.664067 
L 287.550041 136.569841 
L 289.181471 164.237121 
L 290.812901 160.525657 
L 292.444331 150.740887 
L 294.075761 152.961018 
L 295.70719 151.415699 
L 297.33862 148.379046 
L 298.97005 170.808502 
L 300.60148 181.107414 
L 302.23291 154.283649 
L 303.86434 166.598962 
L 305.49577 139.269088 
L 307.1272 137.951598 
L 308.75863 137.582059 
L 310.390059 145.920803 
L 312.021489 138.088167 
L 313.652919 155.970678 
L 315.284349 170.526367 
L 316.915779 180.095197 
L 318.547209 139.100385 
L 320.178639 134.039297 
L 321.810069 175.371515 
L 323.441498 135.220218 
L 325.072928 155.295866 
L 326.704358 142.985994 
L 328.335788 143.655364 
L 329.967218 159.176033 
L 331.598648 156.960891 
L 333.230078 137.244653 
L 334.861508 129.821724 
L 336.492937 174.190594 
L 338.124367 153.440134 
L 339.755797 161.87528 
L 341.387227 165.418042 
L 343.018657 142.137038 
L 344.650087 158.501222 
L 346.281517 149.340653 
L 347.912947 150.63123 
L 349.544376 166.261556 
L 351.175806 145.104009 
L 352.807236 147.583732 
L 354.438666 146.523314 
L 356.070096 165.755448 
L 357.701526 172.125438 
L 359.332956 184.987582 
L 360.964386 143.824067 
L 362.595815 203.038795 
L 364.227245 130.496536 
L 365.858675 136.232435 
L 367.490105 145.679799 
L 369.121535 160.188251 
L 370.752965 128.134695 
L 372.384395 181.125172 
L 374.015825 182.35322 
L 375.647254 158.163816 
L 377.278684 175.70892 
L 378.910114 162.550092 
L 380.541544 153.440134 
L 382.172974 150.740887 
L 383.804404 172.672268 
L 385.435834 168.623397 
L 387.067264 153.102728 
L 388.698693 144.330176 
L 390.330123 182.794443 
L 391.961553 158.501222 
L 393.592983 127.459883 
L 395.224413 163.056201 
L 396.855843 173.684485 
L 398.487273 146.017205 
L 398.487273 146.017205 
" style="fill:none;stroke:#1f77b4;stroke-linecap:square;stroke-width:0.25;"/>
   </g>
   <g id="line2d_17">
    <path clip-path="url(#p9fd2539ac5)" d="M 73.832727 211.473941 
L 201.084258 211.473941 
L 202.715688 210.484499 
L 204.347117 199.070757 
L 205.978547 180.576241 
L 207.609977 180.108146 
L 209.241407 156.378214 
L 210.872837 179.718859 
L 212.504267 171.944349 
L 214.135697 151.87001 
L 215.767127 182.044168 
L 217.398556 165.634079 
L 219.029986 170.723252 
L 220.661416 162.291459 
L 222.292846 180.157411 
L 223.924276 175.31072 
L 225.555706 154.841319 
L 227.187136 159.9541 
L 228.818566 171.195147 
L 230.449995 172.267989 
L 232.081425 156.798033 
L 233.712855 161.810525 
L 235.344285 150.738542 
L 236.975715 167.965237 
L 238.607145 158.63141 
L 240.238575 151.823226 
L 241.870005 155.831971 
L 243.501434 167.003838 
L 246.764294 149.415915 
L 248.395724 157.353821 
L 250.027154 157.189556 
L 253.290014 159.044702 
L 254.921444 162.231637 
L 256.552873 147.515672 
L 258.184303 153.538941 
L 259.815733 147.688704 
L 261.447163 143.065752 
L 263.078593 155.673395 
L 264.710023 163.23396 
L 266.341453 158.582384 
L 267.972883 161.009773 
L 269.604312 153.827306 
L 271.235742 148.139844 
L 272.867172 151.288716 
L 274.498602 151.237712 
L 276.130032 175.96132 
L 277.761462 145.381419 
L 279.392892 149.370871 
L 281.024322 150.658378 
L 282.655751 143.102483 
L 284.287181 156.152345 
L 285.918611 153.815653 
L 287.550041 135.755321 
L 289.181471 164.565126 
L 290.812901 159.418257 
L 292.444331 159.224603 
L 294.075761 156.055893 
L 295.70719 151.354234 
L 297.33862 158.610146 
L 300.60148 182.623424 
L 302.23291 158.678905 
L 303.86434 161.191422 
L 305.49577 141.038139 
L 307.1272 143.135199 
L 308.75863 152.229945 
L 310.390059 155.382603 
L 312.021489 145.857806 
L 313.652919 154.352216 
L 315.284349 164.164677 
L 316.915779 175.669117 
L 318.547209 139.896079 
L 320.178639 145.040292 
L 321.810069 167.139933 
L 323.441498 144.785337 
L 325.072928 155.814584 
L 326.704358 148.219509 
L 328.335788 146.355182 
L 329.967218 158.226042 
L 331.598648 157.198984 
L 333.230078 147.437298 
L 334.861508 134.879521 
L 336.492937 171.426779 
L 338.124367 154.871064 
L 339.755797 164.746155 
L 341.387227 161.906025 
L 343.018657 144.281368 
L 344.650087 155.95721 
L 346.281517 152.203551 
L 347.912947 155.675829 
L 349.544376 166.278073 
L 351.175806 145.706808 
L 352.807236 152.261801 
L 354.438666 156.988097 
L 356.070096 163.5493 
L 357.701526 166.969055 
L 359.332956 171.305611 
L 360.964386 146.78939 
L 362.595815 180.291588 
L 364.227245 136.268009 
L 365.858675 143.53952 
L 367.490105 147.452829 
L 369.121535 156.196612 
L 370.752965 131.769172 
L 372.384395 165.733738 
L 374.015825 159.037645 
L 375.647254 155.209991 
L 377.278684 164.929215 
L 378.910114 165.137822 
L 380.541544 156.845961 
L 382.172974 156.278935 
L 383.804404 163.01053 
L 385.435834 161.73447 
L 387.067264 157.538402 
L 388.698693 160.222292 
L 390.330123 175.299316 
L 391.961553 158.726398 
L 393.592983 136.424275 
L 395.224413 158.025973 
L 396.855843 162.082791 
L 398.487273 144.976835 
L 398.487273 144.976835 
" style="fill:none;stroke:#2ca02c;stroke-linecap:square;stroke-width:0.75;"/>
   </g>
   <g id="patch_3">
    <path d="M 57.6 307.584 
L 57.6 41.472 
" style="fill:none;stroke:#000000;stroke-linecap:square;stroke-linejoin:miter;stroke-width:0.8;"/>
   </g>
   <g id="patch_4">
    <path d="M 414.72 307.584 
L 414.72 41.472 
" style="fill:none;stroke:#000000;stroke-linecap:square;stroke-linejoin:miter;stroke-width:0.8;"/>
   </g>
   <g id="patch_5">
    <path d="M 57.6 307.584 
L 414.72 307.584 
" style="fill:none;stroke:#000000;stroke-linecap:square;stroke-linejoin:miter;stroke-width:0.8;"/>
   </g>
   <g id="patch_6">
    <path d="M 57.6 41.472 
L 414.72 41.472 
" style="fill:none;stroke:#000000;stroke-linecap:square;stroke-linejoin:miter;stroke-width:0.8;"/>
   </g>
   <g id="legend_1">
    <g id="patch_7">
     <path d="M 338.234063 78.82825 
L 407.72 78.82825 
Q 409.72 78.82825 409.72 76.82825 
L 409.72 48.472 
Q 409.72 46.472 407.72 46.472 
L 338.234063 46.472 
Q 336.234063 46.472 336.234063 48.472 
L 336.234063 76.82825 
Q 336.234063 78.82825 338.234063 78.82825 
z
" style="fill:#ffffff;opacity:0.8;stroke:#cccccc;stroke-linejoin:miter;"/>
    </g>
    <g id="line2d_18">
     <path d="M 340.234063 54.570437 
L 360.234063 54.570437 
" style="fill:none;stroke:#1f77b4;stroke-linecap:square;stroke-width:0.25;"/>
    </g>
    <g id="line2d_19"/>
    <g id="text_16">
     <!-- median -->
     <defs>
      <path d="M 52 44.1875 
Q 55.375 50.25 60.0625 53.125 
Q 64.75 56 71.09375 56 
Q 79.640625 56 84.28125 50.015625 
Q 88.921875 44.046875 88.921875 33.015625 
L 88.921875 0 
L 79.890625 0 
L 79.890625 32.71875 
Q 79.890625 40.578125 77.09375 44.375 
Q 74.3125 48.1875 68.609375 48.1875 
Q 61.625 48.1875 57.5625 43.546875 
Q 53.515625 38.921875 53.515625 30.90625 
L 53.515625 0 
L 44.484375 0 
L 44.484375 32.71875 
Q 44.484375 40.625 41.703125 44.40625 
Q 38.921875 48.1875 33.109375 48.1875 
Q 26.21875 48.1875 22.15625 43.53125 
Q 18.109375 38.875 18.109375 30.90625 
L 18.109375 0 
L 9.078125 0 
L 9.078125 54.6875 
L 18.109375 54.6875 
L 18.109375 46.1875 
Q 21.1875 51.21875 25.484375 53.609375 
Q 29.78125 56 35.6875 56 
Q 41.65625 56 45.828125 52.96875 
Q 50 49.953125 52 44.1875 
z
" id="DejaVuSans-109"/>
      <path d="M 56.203125 29.59375 
L 56.203125 25.203125 
L 14.890625 25.203125 
Q 15.484375 15.921875 20.484375 11.0625 
Q 25.484375 6.203125 34.421875 6.203125 
Q 39.59375 6.203125 44.453125 7.46875 
Q 49.3125 8.734375 54.109375 11.28125 
L 54.109375 2.78125 
Q 49.265625 0.734375 44.1875 -0.34375 
Q 39.109375 -1.421875 33.890625 -1.421875 
Q 20.796875 -1.421875 13.15625 6.1875 
Q 5.515625 13.8125 5.515625 26.8125 
Q 5.515625 40.234375 12.765625 48.109375 
Q 20.015625 56 32.328125 56 
Q 43.359375 56 49.78125 48.890625 
Q 56.203125 41.796875 56.203125 29.59375 
z
M 47.21875 32.234375 
Q 47.125 39.59375 43.09375 43.984375 
Q 39.0625 48.390625 32.421875 48.390625 
Q 24.90625 48.390625 20.390625 44.140625 
Q 15.875 39.890625 15.1875 32.171875 
z
" id="DejaVuSans-101"/>
      <path d="M 45.40625 46.390625 
L 45.40625 75.984375 
L 54.390625 75.984375 
L 54.390625 0 
L 45.40625 0 
L 45.40625 8.203125 
Q 42.578125 3.328125 38.25 0.953125 
Q 33.9375 -1.421875 27.875 -1.421875 
Q 17.96875 -1.421875 11.734375 6.484375 
Q 5.515625 14.40625 5.515625 27.296875 
Q 5.515625 40.1875 11.734375 48.09375 
Q 17.96875 56 27.875 56 
Q 33.9375 56 38.25 53.625 
Q 42.578125 51.265625 45.40625 46.390625 
z
M 14.796875 27.296875 
Q 14.796875 17.390625 18.875 11.75 
Q 22.953125 6.109375 30.078125 6.109375 
Q 37.203125 6.109375 41.296875 11.75 
Q 45.40625 17.390625 45.40625 27.296875 
Q 45.40625 37.203125 41.296875 42.84375 
Q 37.203125 48.484375 30.078125 48.484375 
Q 22.953125 48.484375 18.875 42.84375 
Q 14.796875 37.203125 14.796875 27.296875 
z
" id="DejaVuSans-100"/>
      <path d="M 9.421875 54.6875 
L 18.40625 54.6875 
L 18.40625 0 
L 9.421875 0 
z
M 9.421875 75.984375 
L 18.40625 75.984375 
L 18.40625 64.59375 
L 9.421875 64.59375 
z
" id="DejaVuSans-105"/>
      <path d="M 34.28125 27.484375 
Q 23.390625 27.484375 19.1875 25 
Q 14.984375 22.515625 14.984375 16.5 
Q 14.984375 11.71875 18.140625 8.90625 
Q 21.296875 6.109375 26.703125 6.109375 
Q 34.1875 6.109375 38.703125 11.40625 
Q 43.21875 16.703125 43.21875 25.484375 
L 43.21875 27.484375 
z
M 52.203125 31.203125 
L 52.203125 0 
L 43.21875 0 
L 43.21875 8.296875 
Q 40.140625 3.328125 35.546875 0.953125 
Q 30.953125 -1.421875 24.3125 -1.421875 
Q 15.921875 -1.421875 10.953125 3.296875 
Q 6 8.015625 6 15.921875 
Q 6 25.140625 12.171875 29.828125 
Q 18.359375 34.515625 30.609375 34.515625 
L 43.21875 34.515625 
L 43.21875 35.40625 
Q 43.21875 41.609375 39.140625 45 
Q 35.0625 48.390625 27.6875 48.390625 
Q 23 48.390625 18.546875 47.265625 
Q 14.109375 46.140625 10.015625 43.890625 
L 10.015625 52.203125 
Q 14.9375 54.109375 19.578125 55.046875 
Q 24.21875 56 28.609375 56 
Q 40.484375 56 46.34375 49.84375 
Q 52.203125 43.703125 52.203125 31.203125 
z
" id="DejaVuSans-97"/>
      <path d="M 54.890625 33.015625 
L 54.890625 0 
L 45.90625 0 
L 45.90625 32.71875 
Q 45.90625 40.484375 42.875 44.328125 
Q 39.84375 48.1875 33.796875 48.1875 
Q 26.515625 48.1875 22.3125 43.546875 
Q 18.109375 38.921875 18.109375 30.90625 
L 18.109375 0 
L 9.078125 0 
L 9.078125 54.6875 
L 18.109375 54.6875 
L 18.109375 46.1875 
Q 21.34375 51.125 25.703125 53.5625 
Q 30.078125 56 35.796875 56 
Q 45.21875 56 50.046875 50.171875 
Q 54.890625 44.34375 54.890625 33.015625 
z
" id="DejaVuSans-110"/>
     </defs>
     <g transform="translate(368.234063 58.070437)scale(0.1 -0.1)">
      <use xlink:href="#DejaVuSans-109"/>
      <use x="97.412109" xlink:href="#DejaVuSans-101"/>
      <use x="158.935547" xlink:href="#DejaVuSans-100"/>
      <use x="222.412109" xlink:href="#DejaVuSans-105"/>
      <use x="250.195312" xlink:href="#DejaVuSans-97"/>
      <use x="311.474609" xlink:href="#DejaVuSans-110"/>
     </g>
    </g>
    <g id="line2d_20">
     <path d="M 340.234063 69.248562 
L 360.234063 69.248562 
" style="fill:none;stroke:#2ca02c;stroke-linecap:square;stroke-width:0.75;"/>
    </g>
    <g id="line2d_21"/>
    <g id="text_17">
     <!-- mean -->
     <g transform="translate(368.234063 72.748562)scale(0.1 -0.1)">
      <use xlink:href="#DejaVuSans-109"/>
      <use x="97.412109" xlink:href="#DejaVuSans-101"/>
      <use x="158.935547" xlink:href="#DejaVuSans-97"/>
      <use x="220.214844" xlink:href="#DejaVuSans-110"/>
     </g>
    </g>
   </g>
  </g>
  <g id="text_18">
   <!-- accuracy.mean over generations -->
   <defs>
    <path d="M 48.78125 52.59375 
L 48.78125 44.1875 
Q 44.96875 46.296875 41.140625 47.34375 
Q 37.3125 48.390625 33.40625 48.390625 
Q 24.65625 48.390625 19.8125 42.84375 
Q 14.984375 37.3125 14.984375 27.296875 
Q 14.984375 17.28125 19.8125 11.734375 
Q 24.65625 6.203125 33.40625 6.203125 
Q 37.3125 6.203125 41.140625 7.25 
Q 44.96875 8.296875 48.78125 10.40625 
L 48.78125 2.09375 
Q 45.015625 0.34375 40.984375 -0.53125 
Q 36.96875 -1.421875 32.421875 -1.421875 
Q 20.0625 -1.421875 12.78125 6.34375 
Q 5.515625 14.109375 5.515625 27.296875 
Q 5.515625 40.671875 12.859375 48.328125 
Q 20.21875 56 33.015625 56 
Q 37.15625 56 41.109375 55.140625 
Q 45.0625 54.296875 48.78125 52.59375 
z
" id="DejaVuSans-99"/>
    <path d="M 8.5 21.578125 
L 8.5 54.6875 
L 17.484375 54.6875 
L 17.484375 21.921875 
Q 17.484375 14.15625 20.5 10.265625 
Q 23.53125 6.390625 29.59375 6.390625 
Q 36.859375 6.390625 41.078125 11.03125 
Q 45.3125 15.671875 45.3125 23.6875 
L 45.3125 54.6875 
L 54.296875 54.6875 
L 54.296875 0 
L 45.3125 0 
L 45.3125 8.40625 
Q 42.046875 3.421875 37.71875 1 
Q 33.40625 -1.421875 27.6875 -1.421875 
Q 18.265625 -1.421875 13.375 4.4375 
Q 8.5 10.296875 8.5 21.578125 
z
M 31.109375 56 
z
" id="DejaVuSans-117"/>
    <path d="M 41.109375 46.296875 
Q 39.59375 47.171875 37.8125 47.578125 
Q 36.03125 48 33.890625 48 
Q 26.265625 48 22.1875 43.046875 
Q 18.109375 38.09375 18.109375 28.8125 
L 18.109375 0 
L 9.078125 0 
L 9.078125 54.6875 
L 18.109375 54.6875 
L 18.109375 46.1875 
Q 20.953125 51.171875 25.484375 53.578125 
Q 30.03125 56 36.53125 56 
Q 37.453125 56 38.578125 55.875 
Q 39.703125 55.765625 41.0625 55.515625 
z
" id="DejaVuSans-114"/>
    <path d="M 32.171875 -5.078125 
Q 28.375 -14.84375 24.75 -17.8125 
Q 21.140625 -20.796875 15.09375 -20.796875 
L 7.90625 -20.796875 
L 7.90625 -13.28125 
L 13.1875 -13.28125 
Q 16.890625 -13.28125 18.9375 -11.515625 
Q 21 -9.765625 23.484375 -3.21875 
L 25.09375 0.875 
L 2.984375 54.6875 
L 12.5 54.6875 
L 29.59375 11.921875 
L 46.6875 54.6875 
L 56.203125 54.6875 
z
" id="DejaVuSans-121"/>
    <path id="DejaVuSans-32"/>
    <path d="M 30.609375 48.390625 
Q 23.390625 48.390625 19.1875 42.75 
Q 14.984375 37.109375 14.984375 27.296875 
Q 14.984375 17.484375 19.15625 11.84375 
Q 23.34375 6.203125 30.609375 6.203125 
Q 37.796875 6.203125 41.984375 11.859375 
Q 46.1875 17.53125 46.1875 27.296875 
Q 46.1875 37.015625 41.984375 42.703125 
Q 37.796875 48.390625 30.609375 48.390625 
z
M 30.609375 56 
Q 42.328125 56 49.015625 48.375 
Q 55.71875 40.765625 55.71875 27.296875 
Q 55.71875 13.875 49.015625 6.21875 
Q 42.328125 -1.421875 30.609375 -1.421875 
Q 18.84375 -1.421875 12.171875 6.21875 
Q 5.515625 13.875 5.515625 27.296875 
Q 5.515625 40.765625 12.171875 48.375 
Q 18.84375 56 30.609375 56 
z
" id="DejaVuSans-111"/>
    <path d="M 2.984375 54.6875 
L 12.5 54.6875 
L 29.59375 8.796875 
L 46.6875 54.6875 
L 56.203125 54.6875 
L 35.6875 0 
L 23.484375 0 
z
" id="DejaVuSans-118"/>
    <path d="M 45.40625 27.984375 
Q 45.40625 37.75 41.375 43.109375 
Q 37.359375 48.484375 30.078125 48.484375 
Q 22.859375 48.484375 18.828125 43.109375 
Q 14.796875 37.75 14.796875 27.984375 
Q 14.796875 18.265625 18.828125 12.890625 
Q 22.859375 7.515625 30.078125 7.515625 
Q 37.359375 7.515625 41.375 12.890625 
Q 45.40625 18.265625 45.40625 27.984375 
z
M 54.390625 6.78125 
Q 54.390625 -7.171875 48.1875 -13.984375 
Q 42 -20.796875 29.203125 -20.796875 
Q 24.46875 -20.796875 20.265625 -20.09375 
Q 16.0625 -19.390625 12.109375 -17.921875 
L 12.109375 -9.1875 
Q 16.0625 -11.328125 19.921875 -12.34375 
Q 23.78125 -13.375 27.78125 -13.375 
Q 36.625 -13.375 41.015625 -8.765625 
Q 45.40625 -4.15625 45.40625 5.171875 
L 45.40625 9.625 
Q 42.625 4.78125 38.28125 2.390625 
Q 33.9375 0 27.875 0 
Q 17.828125 0 11.671875 7.65625 
Q 5.515625 15.328125 5.515625 27.984375 
Q 5.515625 40.671875 11.671875 48.328125 
Q 17.828125 56 27.875 56 
Q 33.9375 56 38.28125 53.609375 
Q 42.625 51.21875 45.40625 46.390625 
L 45.40625 54.6875 
L 54.390625 54.6875 
z
" id="DejaVuSans-103"/>
    <path d="M 18.3125 70.21875 
L 18.3125 54.6875 
L 36.8125 54.6875 
L 36.8125 47.703125 
L 18.3125 47.703125 
L 18.3125 18.015625 
Q 18.3125 11.328125 20.140625 9.421875 
Q 21.96875 7.515625 27.59375 7.515625 
L 36.8125 7.515625 
L 36.8125 0 
L 27.59375 0 
Q 17.1875 0 13.234375 3.875 
Q 9.28125 7.765625 9.28125 18.015625 
L 9.28125 47.703125 
L 2.6875 47.703125 
L 2.6875 54.6875 
L 9.28125 54.6875 
L 9.28125 70.21875 
z
" id="DejaVuSans-116"/>
    <path d="M 44.28125 53.078125 
L 44.28125 44.578125 
Q 40.484375 46.53125 36.375 47.5 
Q 32.28125 48.484375 27.875 48.484375 
Q 21.1875 48.484375 17.84375 46.4375 
Q 14.5 44.390625 14.5 40.28125 
Q 14.5 37.15625 16.890625 35.375 
Q 19.28125 33.59375 26.515625 31.984375 
L 29.59375 31.296875 
Q 39.15625 29.25 43.1875 25.515625 
Q 47.21875 21.78125 47.21875 15.09375 
Q 47.21875 7.46875 41.1875 3.015625 
Q 35.15625 -1.421875 24.609375 -1.421875 
Q 20.21875 -1.421875 15.453125 -0.5625 
Q 10.6875 0.296875 5.421875 2 
L 5.421875 11.28125 
Q 10.40625 8.6875 15.234375 7.390625 
Q 20.0625 6.109375 24.8125 6.109375 
Q 31.15625 6.109375 34.5625 8.28125 
Q 37.984375 10.453125 37.984375 14.40625 
Q 37.984375 18.0625 35.515625 20.015625 
Q 33.0625 21.96875 24.703125 23.78125 
L 21.578125 24.515625 
Q 13.234375 26.265625 9.515625 29.90625 
Q 5.8125 33.546875 5.8125 39.890625 
Q 5.8125 47.609375 11.28125 51.796875 
Q 16.75 56 26.8125 56 
Q 31.78125 56 36.171875 55.265625 
Q 40.578125 54.546875 44.28125 53.078125 
z
" id="DejaVuSans-115"/>
   </defs>
   <g transform="translate(132.309375 16.030125)scale(0.12 -0.12)">
    <use xlink:href="#DejaVuSans-97"/>
    <use x="61.279297" xlink:href="#DejaVuSans-99"/>
    <use x="116.259766" xlink:href="#DejaVuSans-99"/>
    <use x="171.240234" xlink:href="#DejaVuSans-117"/>
    <use x="234.619141" xlink:href="#DejaVuSans-114"/>
    <use x="275.732422" xlink:href="#DejaVuSans-97"/>
    <use x="337.011719" xlink:href="#DejaVuSans-99"/>
    <use x="391.992188" xlink:href="#DejaVuSans-121"/>
    <use x="436.921875" xlink:href="#DejaVuSans-46"/>
    <use x="468.708984" xlink:href="#DejaVuSans-109"/>
    <use x="566.121094" xlink:href="#DejaVuSans-101"/>
    <use x="627.644531" xlink:href="#DejaVuSans-97"/>
    <use x="688.923828" xlink:href="#DejaVuSans-110"/>
    <use x="752.302734" xlink:href="#DejaVuSans-32"/>
    <use x="784.089844" xlink:href="#DejaVuSans-111"/>
    <use x="845.271484" xlink:href="#DejaVuSans-118"/>
    <use x="904.451172" xlink:href="#DejaVuSans-101"/>
    <use x="965.974609" xlink:href="#DejaVuSans-114"/>
    <use x="1007.087891" xlink:href="#DejaVuSans-32"/>
    <use x="1038.875" xlink:href="#DejaVuSans-103"/>
    <use x="1102.351562" xlink:href="#DejaVuSans-101"/>
    <use x="1163.875" xlink:href="#DejaVuSans-110"/>
    <use x="1227.253906" xlink:href="#DejaVuSans-101"/>
    <use x="1288.777344" xlink:href="#DejaVuSans-114"/>
    <use x="1329.890625" xlink:href="#DejaVuSans-97"/>
    <use x="1391.169922" xlink:href="#DejaVuSans-116"/>
    <use x="1430.378906" xlink:href="#DejaVuSans-105"/>
    <use x="1458.162109" xlink:href="#DejaVuSans-111"/>
    <use x="1519.34375" xlink:href="#DejaVuSans-110"/>
    <use x="1582.722656" xlink:href="#DejaVuSans-115"/>
   </g>
  </g>
 </g>
 <defs>
  <clipPath id="p9fd2539ac5">
   <rect height="266.112" width="357.12" x="57.6" y="41.472"/>
  </clipPath>
 </defs>
</svg>
