<?xml version="1.0" encoding="utf-8" standalone="no"?>
<!DOCTYPE svg PUBLIC "-//W3C//DTD SVG 1.1//EN"
  "http://www.w3.org/Graphics/SVG/1.1/DTD/svg11.dtd">
<!-- Created with matplotlib (https://matplotlib.org/) -->
<svg height="345.6pt" version="1.1" viewBox="0 0 460.8 345.6" width="460.8pt" xmlns="http://www.w3.org/2000/svg" xmlns:xlink="http://www.w3.org/1999/xlink">
 <defs>
  <style type="text/css">
*{stroke-linecap:butt;stroke-linejoin:round;}
  </style>
 </defs>
 <g id="figure_1">
  <g id="patch_1">
   <path d="M 0 345.6 
L 460.8 345.6 
L 460.8 0 
L 0 0 
z
" style="fill:#ffffff;"/>
  </g>
  <g id="axes_1">
   <g id="patch_2">
    <path clip-path="url(#pa6d3ededbd)" d="M 88.589752 111.606597 
Q 124.091863 139.532182 159.593973 167.457766 
" style="fill:none;stroke:#000000;stroke-linecap:round;stroke-opacity:0.9;stroke-width:0.4;"/>
   </g>
   <g id="patch_3">
    <path clip-path="url(#pa6d3ededbd)" d="M 88.589752 111.606597 
Q 160.728852 139.978523 232.867951 168.35045 
" style="fill:none;stroke:#000000;stroke-linecap:round;stroke-opacity:0.9;stroke-width:0.4;"/>
   </g>
   <g id="patch_4">
    <path clip-path="url(#pa6d3ededbd)" d="M 88.589752 169.645195 
Q 234.392382 169.645195 380.195011 169.645195 
" style="fill:none;stroke:#000000;stroke-linecap:round;stroke-opacity:0.9;stroke-width:0.4;"/>
   </g>
   <g id="patch_5">
    <path clip-path="url(#pa6d3ededbd)" d="M 88.589752 227.683792 
Q 124.645791 160.603297 160.701831 93.522801 
" style="fill:none;stroke:#000000;stroke-linecap:round;stroke-opacity:0.9;stroke-width:0.4;"/>
   </g>
   <g id="patch_6">
    <path clip-path="url(#pa6d3ededbd)" d="M 88.589752 227.683792 
Q 123.782248 237.793618 158.974744 247.903444 
" style="fill:none;stroke:#000000;stroke-linecap:round;stroke-opacity:0.9;stroke-width:0.4;"/>
   </g>
   <g id="patch_7">
    <path clip-path="url(#pa6d3ededbd)" d="M 88.589752 227.683792 
Q 124.091863 199.758208 159.593973 171.832624 
" style="fill:none;stroke:#000000;stroke-linecap:round;stroke-opacity:0.9;stroke-width:0.4;"/>
   </g>
   <g id="patch_8">
    <path clip-path="url(#pa6d3ededbd)" d="M 88.589752 227.683792 
Q 197.499257 223.724635 306.408761 219.765478 
" style="fill:none;stroke:#000000;stroke-linecap:round;stroke-opacity:0.9;stroke-width:0.4;"/>
   </g>
   <g id="patch_9">
    <path clip-path="url(#pa6d3ededbd)" d="M 88.589752 227.683792 
Q 234.396885 238.155376 380.204018 248.62696 
" style="fill:none;stroke:#000000;stroke-linecap:round;stroke-opacity:0.9;stroke-width:0.4;"/>
   </g>
   <g id="patch_10">
    <path clip-path="url(#pa6d3ededbd)" d="M 88.589752 285.72239 
Q 234.513976 228.331165 380.438199 170.93994 
" style="fill:none;stroke:#000000;stroke-linecap:round;stroke-opacity:0.9;stroke-width:0.4;"/>
   </g>
   <g id="patch_11">
    <path clip-path="url(#pa6d3ededbd)" d="M 162.374876 90.410183 
Q 198.061629 128.732817 233.748383 167.055452 
" style="fill:none;stroke:#000000;stroke-linecap:round;stroke-opacity:0.9;stroke-width:0.4;"/>
   </g>
   <g id="patch_12">
    <path clip-path="url(#pa6d3ededbd)" d="M 162.374876 90.410183 
Q 234.830346 153.859178 307.285815 217.308174 
" style="fill:none;stroke:#000000;stroke-linecap:round;stroke-opacity:0.9;stroke-width:0.4;"/>
   </g>
   <g id="patch_13">
    <path clip-path="url(#pa6d3ededbd)" d="M 162.374876 90.410183 
Q 271.284381 90.410183 380.193885 90.410183 
" style="fill:none;stroke:#000000;stroke-linecap:round;stroke-opacity:0.9;stroke-width:0.4;"/>
   </g>
   <g id="patch_14">
    <path clip-path="url(#pa6d3ededbd)" d="M 162.374876 248.880207 
Q 198.061629 210.557572 233.748383 172.234938 
" style="fill:none;stroke:#000000;stroke-linecap:round;stroke-opacity:0.9;stroke-width:0.4;"/>
   </g>
   <g id="patch_15">
    <path clip-path="url(#pa6d3ededbd)" d="M 162.374876 248.880207 
Q 271.284381 248.880207 380.193885 248.880207 
" style="fill:none;stroke:#000000;stroke-linecap:round;stroke-opacity:0.9;stroke-width:0.4;"/>
   </g>
   <g id="patch_16">
    <path clip-path="url(#pa6d3ededbd)" d="M 162.374876 169.645195 
Q 234.486955 145.216102 306.599033 120.787009 
" style="fill:none;stroke:#000000;stroke-linecap:round;stroke-opacity:0.9;stroke-width:0.4;"/>
   </g>
   <g id="patch_17">
    <path clip-path="url(#pa6d3ededbd)" d="M 162.374876 169.645195 
Q 271.284381 169.645195 380.193885 169.645195 
" style="fill:none;stroke:#000000;stroke-linecap:round;stroke-opacity:0.9;stroke-width:0.4;"/>
   </g>
   <g id="patch_18">
    <path clip-path="url(#pa6d3ededbd)" d="M 236.16 169.645195 
Q 271.590055 145.640226 307.020109 121.635257 
" style="fill:none;stroke:#000000;stroke-linecap:round;stroke-opacity:0.9;stroke-width:0.4;"/>
   </g>
   <g id="patch_19">
    <path clip-path="url(#pa6d3ededbd)" d="M 236.16 169.645195 
Q 271.590055 193.650164 307.020109 217.655133 
" style="fill:none;stroke:#000000;stroke-linecap:round;stroke-opacity:0.9;stroke-width:0.4;"/>
   </g>
   <g id="patch_20">
    <path clip-path="url(#pa6d3ededbd)" d="M 309.945124 119.653468 
Q 345.375179 143.658437 380.805233 167.663406 
" style="fill:none;stroke:#000000;stroke-linecap:round;stroke-opacity:0.9;stroke-width:0.4;"/>
   </g>
   <g id="patch_21">
    <path clip-path="url(#pa6d3ededbd)" d="M 309.945124 119.653468 
Q 345.960632 182.730771 381.97614 245.808075 
" style="fill:none;stroke:#000000;stroke-linecap:round;stroke-opacity:0.9;stroke-width:0.4;"/>
   </g>
   <g id="patch_22">
    <path clip-path="url(#pa6d3ededbd)" d="M 309.945124 219.636922 
Q 345.375179 195.631953 380.805233 171.626984 
" style="fill:none;stroke:#000000;stroke-linecap:round;stroke-opacity:0.9;stroke-width:0.4;"/>
   </g>
   <g id="patch_23">
    <path clip-path="url(#pa6d3ededbd)" d="M 309.945124 219.636922 
Q 345.196165 233.60798 380.447206 247.579038 
" style="fill:none;stroke:#000000;stroke-linecap:round;stroke-opacity:0.9;stroke-width:0.4;"/>
   </g>
   <g id="PathCollection_1">
    <defs>
     <path d="M 0 3.535534 
C 0.937635 3.535534 1.836992 3.163008 2.5 2.5 
C 3.163008 1.836992 3.535534 0.937635 3.535534 0 
C 3.535534 -0.937635 3.163008 -1.836992 2.5 -2.5 
C 1.836992 -3.163008 0.937635 -3.535534 0 -3.535534 
C -0.937635 -3.535534 -1.836992 -3.163008 -2.5 -2.5 
C -3.163008 -1.836992 -3.535534 -0.937635 -3.535534 0 
C -3.535534 0.937635 -3.163008 1.836992 -2.5 2.5 
C -1.836992 3.163008 -0.937635 3.535534 0 3.535534 
z
" id="C0_0_e75db56e07"/>
    </defs>
    <g clip-path="url(#pa6d3ededbd)">
     <use style="fill:#fdb462;fill-opacity:0.9;" x="88.589752" xlink:href="#C0_0_e75db56e07" y="53.568"/>
    </g>
    <g clip-path="url(#pa6d3ededbd)">
     <use style="fill:#fdb462;fill-opacity:0.9;" x="88.589752" xlink:href="#C0_0_e75db56e07" y="111.606597"/>
    </g>
    <g clip-path="url(#pa6d3ededbd)">
     <use style="fill:#fdb462;fill-opacity:0.9;" x="88.589752" xlink:href="#C0_0_e75db56e07" y="169.645195"/>
    </g>
    <g clip-path="url(#pa6d3ededbd)">
     <use style="fill:#fdb462;fill-opacity:0.9;" x="88.589752" xlink:href="#C0_0_e75db56e07" y="227.683792"/>
    </g>
    <g clip-path="url(#pa6d3ededbd)">
     <use style="fill:#ffed6f;fill-opacity:0.9;" x="88.589752" xlink:href="#C0_0_e75db56e07" y="285.72239"/>
    </g>
    <g clip-path="url(#pa6d3ededbd)">
     <use style="fill:#80b1d3;fill-opacity:0.9;" x="162.374876" xlink:href="#C0_0_e75db56e07" y="90.410183"/>
    </g>
    <g clip-path="url(#pa6d3ededbd)">
     <use style="fill:#80b1d3;fill-opacity:0.9;" x="162.374876" xlink:href="#C0_0_e75db56e07" y="248.880207"/>
    </g>
    <g clip-path="url(#pa6d3ededbd)">
     <use style="fill:#80b1d3;fill-opacity:0.9;" x="162.374876" xlink:href="#C0_0_e75db56e07" y="169.645195"/>
    </g>
    <g clip-path="url(#pa6d3ededbd)">
     <use style="fill:#80b1d3;fill-opacity:0.9;" x="236.16" xlink:href="#C0_0_e75db56e07" y="169.645195"/>
    </g>
    <g clip-path="url(#pa6d3ededbd)">
     <use style="fill:#80b1d3;fill-opacity:0.9;" x="309.945124" xlink:href="#C0_0_e75db56e07" y="119.653468"/>
    </g>
    <g clip-path="url(#pa6d3ededbd)">
     <use style="fill:#80b1d3;fill-opacity:0.9;" x="309.945124" xlink:href="#C0_0_e75db56e07" y="219.636922"/>
    </g>
    <g clip-path="url(#pa6d3ededbd)">
     <use style="fill:#b3de69;fill-opacity:0.9;" x="383.730248" xlink:href="#C0_0_e75db56e07" y="90.410183"/>
    </g>
    <g clip-path="url(#pa6d3ededbd)">
     <use style="fill:#b3de69;fill-opacity:0.9;" x="383.730248" xlink:href="#C0_0_e75db56e07" y="169.645195"/>
    </g>
    <g clip-path="url(#pa6d3ededbd)">
     <use style="fill:#b3de69;fill-opacity:0.9;" x="383.730248" xlink:href="#C0_0_e75db56e07" y="248.880207"/>
    </g>
   </g>
  </g>
 </g>
 <defs>
  <clipPath id="pa6d3ededbd">
   <rect height="266.112" width="357.12" x="57.6" y="41.472"/>
  </clipPath>
 </defs>
</svg>
