<?xml version="1.0" encoding="utf-8" standalone="no"?>
<!DOCTYPE svg PUBLIC "-//W3C//DTD SVG 1.1//EN"
  "http://www.w3.org/Graphics/SVG/1.1/DTD/svg11.dtd">
<!-- Created with matplotlib (https://matplotlib.org/) -->
<svg height="345.6pt" version="1.1" viewBox="0 0 460.8 345.6" width="460.8pt" xmlns="http://www.w3.org/2000/svg" xmlns:xlink="http://www.w3.org/1999/xlink">
 <defs>
  <style type="text/css">
*{stroke-linecap:butt;stroke-linejoin:round;}
  </style>
 </defs>
 <g id="figure_1">
  <g id="patch_1">
   <path d="M 0 345.6 
L 460.8 345.6 
L 460.8 0 
L 0 0 
z
" style="fill:#ffffff;"/>
  </g>
  <g id="axes_1">
   <g id="patch_2">
    <path clip-path="url(#p462ddeafad)" d="M 88.589752 111.358774 
Q 123.943248 91.34708 159.296743 71.335385 
" style="fill:none;stroke:#000000;stroke-linecap:round;stroke-opacity:0.9;stroke-width:0.4;"/>
   </g>
   <g id="patch_3">
    <path clip-path="url(#p462ddeafad)" d="M 88.589752 111.358774 
Q 160.946145 164.101841 233.302538 216.844909 
" style="fill:none;stroke:#000000;stroke-linecap:round;stroke-opacity:0.9;stroke-width:0.4;"/>
   </g>
   <g id="patch_4">
    <path clip-path="url(#p462ddeafad)" d="M 88.589752 169.149548 
Q 234.392382 169.149548 380.195011 169.149548 
" style="fill:none;stroke:#000000;stroke-linecap:round;stroke-opacity:0.9;stroke-width:0.4;"/>
   </g>
   <g id="patch_5">
    <path clip-path="url(#p462ddeafad)" d="M 88.589752 226.940322 
Q 124.368827 182.825099 160.147902 138.709875 
" style="fill:none;stroke:#000000;stroke-linecap:round;stroke-opacity:0.9;stroke-width:0.4;"/>
   </g>
   <g id="patch_6">
    <path clip-path="url(#p462ddeafad)" d="M 88.589752 226.940322 
Q 123.804765 215.197105 159.019779 203.453888 
" style="fill:none;stroke:#000000;stroke-linecap:round;stroke-opacity:0.9;stroke-width:0.4;"/>
   </g>
   <g id="patch_7">
    <path clip-path="url(#p462ddeafad)" d="M 88.589752 226.940322 
Q 123.943248 246.952016 159.296743 266.963711 
" style="fill:none;stroke:#000000;stroke-linecap:round;stroke-opacity:0.9;stroke-width:0.4;"/>
   </g>
   <g id="patch_8">
    <path clip-path="url(#p462ddeafad)" d="M 88.589752 226.940322 
Q 234.423906 198.384876 380.25806 169.829429 
" style="fill:none;stroke:#000000;stroke-linecap:round;stroke-opacity:0.9;stroke-width:0.4;"/>
   </g>
   <g id="patch_9">
    <path clip-path="url(#p462ddeafad)" d="M 88.589752 226.940322 
Q 234.396885 237.367193 380.204018 247.794063 
" style="fill:none;stroke:#000000;stroke-linecap:round;stroke-opacity:0.9;stroke-width:0.4;"/>
   </g>
   <g id="patch_10">
    <path clip-path="url(#p462ddeafad)" d="M 88.589752 284.731096 
Q 234.513976 227.584931 380.438199 170.438765 
" style="fill:none;stroke:#000000;stroke-linecap:round;stroke-opacity:0.9;stroke-width:0.4;"/>
   </g>
   <g id="patch_11">
    <path clip-path="url(#p462ddeafad)" d="M 162.374876 135.964039 
Q 198.093154 176.125564 233.811432 216.287088 
" style="fill:none;stroke:#000000;stroke-linecap:round;stroke-opacity:0.9;stroke-width:0.4;"/>
   </g>
   <g id="patch_12">
    <path clip-path="url(#p462ddeafad)" d="M 162.374876 135.964039 
Q 234.618682 176.579399 306.862487 217.194758 
" style="fill:none;stroke:#000000;stroke-linecap:round;stroke-opacity:0.9;stroke-width:0.4;"/>
   </g>
   <g id="patch_13">
    <path clip-path="url(#p462ddeafad)" d="M 162.374876 135.964039 
Q 271.321534 113.465921 380.268193 90.967802 
" style="fill:none;stroke:#000000;stroke-linecap:round;stroke-opacity:0.9;stroke-width:0.4;"/>
   </g>
   <g id="patch_14">
    <path clip-path="url(#p462ddeafad)" d="M 162.374876 202.335057 
Q 197.544854 210.244061 232.714833 218.153064 
" style="fill:none;stroke:#000000;stroke-linecap:round;stroke-opacity:0.9;stroke-width:0.4;"/>
   </g>
   <g id="patch_15">
    <path clip-path="url(#p462ddeafad)" d="M 162.374876 202.335057 
Q 271.321534 224.833176 380.268193 247.331294 
" style="fill:none;stroke:#000000;stroke-linecap:round;stroke-opacity:0.9;stroke-width:0.4;"/>
   </g>
   <g id="patch_16">
    <path clip-path="url(#p462ddeafad)" d="M 162.374876 69.593021 
Q 197.802679 93.493971 233.230482 117.39492 
" style="fill:none;stroke:#000000;stroke-linecap:round;stroke-opacity:0.9;stroke-width:0.4;"/>
   </g>
   <g id="patch_17">
    <path clip-path="url(#p462ddeafad)" d="M 162.374876 69.593021 
Q 271.439751 118.645909 380.504626 167.698796 
" style="fill:none;stroke:#000000;stroke-linecap:round;stroke-opacity:0.9;stroke-width:0.4;"/>
   </g>
   <g id="patch_18">
    <path clip-path="url(#p462ddeafad)" d="M 162.374876 268.706075 
Q 234.486955 244.381293 306.599033 220.056512 
" style="fill:none;stroke:#000000;stroke-linecap:round;stroke-opacity:0.9;stroke-width:0.4;"/>
   </g>
   <g id="patch_19">
    <path clip-path="url(#p462ddeafad)" d="M 236.16 218.927811 
Q 271.999872 170.569918 307.839744 122.212024 
" style="fill:none;stroke:#000000;stroke-linecap:round;stroke-opacity:0.9;stroke-width:0.4;"/>
   </g>
   <g id="patch_20">
    <path clip-path="url(#p462ddeafad)" d="M 236.16 218.927811 
Q 271.284944 218.927811 306.409887 218.927811 
" style="fill:none;stroke:#000000;stroke-linecap:round;stroke-opacity:0.9;stroke-width:0.4;"/>
   </g>
   <g id="patch_21">
    <path clip-path="url(#p462ddeafad)" d="M 236.16 119.371285 
Q 271.284944 119.371285 306.409887 119.371285 
" style="fill:none;stroke:#000000;stroke-linecap:round;stroke-opacity:0.9;stroke-width:0.4;"/>
   </g>
   <g id="patch_22">
    <path clip-path="url(#p462ddeafad)" d="M 309.945124 119.371285 
Q 345.372927 143.272234 380.80073 167.173183 
" style="fill:none;stroke:#000000;stroke-linecap:round;stroke-opacity:0.9;stroke-width:0.4;"/>
   </g>
   <g id="patch_23">
    <path clip-path="url(#p462ddeafad)" d="M 309.945124 119.371285 
Q 345.95838 182.175323 381.971636 244.979361 
" style="fill:none;stroke:#000000;stroke-linecap:round;stroke-opacity:0.9;stroke-width:0.4;"/>
   </g>
   <g id="patch_24">
    <path clip-path="url(#p462ddeafad)" d="M 309.945124 218.927811 
Q 345.372927 195.026862 380.80073 171.125913 
" style="fill:none;stroke:#000000;stroke-linecap:round;stroke-opacity:0.9;stroke-width:0.4;"/>
   </g>
   <g id="patch_25">
    <path clip-path="url(#p462ddeafad)" d="M 309.945124 218.927811 
Q 345.191662 232.837436 380.438199 246.747061 
" style="fill:none;stroke:#000000;stroke-linecap:round;stroke-opacity:0.9;stroke-width:0.4;"/>
   </g>
   <g id="PathCollection_1">
    <defs>
     <path d="M 0 3.535534 
C 0.937635 3.535534 1.836992 3.163008 2.5 2.5 
C 3.163008 1.836992 3.535534 0.937635 3.535534 0 
C 3.535534 -0.937635 3.163008 -1.836992 2.5 -2.5 
C 1.836992 -3.163008 0.937635 -3.535534 0 -3.535534 
C -0.937635 -3.535534 -1.836992 -3.163008 -2.5 -2.5 
C -3.163008 -1.836992 -3.535534 -0.937635 -3.535534 0 
C -3.535534 0.937635 -3.163008 1.836992 -2.5 2.5 
C -1.836992 3.163008 -0.937635 3.535534 0 3.535534 
z
" id="C0_0_208fc3915a"/>
    </defs>
    <g clip-path="url(#p462ddeafad)">
     <use style="fill:#fdb462;fill-opacity:0.9;" x="88.589752" xlink:href="#C0_0_208fc3915a" y="53.568"/>
    </g>
    <g clip-path="url(#p462ddeafad)">
     <use style="fill:#fdb462;fill-opacity:0.9;" x="88.589752" xlink:href="#C0_0_208fc3915a" y="111.358774"/>
    </g>
    <g clip-path="url(#p462ddeafad)">
     <use style="fill:#fdb462;fill-opacity:0.9;" x="88.589752" xlink:href="#C0_0_208fc3915a" y="169.149548"/>
    </g>
    <g clip-path="url(#p462ddeafad)">
     <use style="fill:#fdb462;fill-opacity:0.9;" x="88.589752" xlink:href="#C0_0_208fc3915a" y="226.940322"/>
    </g>
    <g clip-path="url(#p462ddeafad)">
     <use style="fill:#ffed6f;fill-opacity:0.9;" x="88.589752" xlink:href="#C0_0_208fc3915a" y="284.731096"/>
    </g>
    <g clip-path="url(#p462ddeafad)">
     <use style="fill:#80b1d3;fill-opacity:0.9;" x="162.374876" xlink:href="#C0_0_208fc3915a" y="135.964039"/>
    </g>
    <g clip-path="url(#p462ddeafad)">
     <use style="fill:#80b1d3;fill-opacity:0.9;" x="162.374876" xlink:href="#C0_0_208fc3915a" y="202.335057"/>
    </g>
    <g clip-path="url(#p462ddeafad)">
     <use style="fill:#80b1d3;fill-opacity:0.9;" x="162.374876" xlink:href="#C0_0_208fc3915a" y="69.593021"/>
    </g>
    <g clip-path="url(#p462ddeafad)">
     <use style="fill:#80b1d3;fill-opacity:0.9;" x="162.374876" xlink:href="#C0_0_208fc3915a" y="268.706075"/>
    </g>
    <g clip-path="url(#p462ddeafad)">
     <use style="fill:#80b1d3;fill-opacity:0.9;" x="236.16" xlink:href="#C0_0_208fc3915a" y="218.927811"/>
    </g>
    <g clip-path="url(#p462ddeafad)">
     <use style="fill:#80b1d3;fill-opacity:0.9;" x="236.16" xlink:href="#C0_0_208fc3915a" y="119.371285"/>
    </g>
    <g clip-path="url(#p462ddeafad)">
     <use style="fill:#80b1d3;fill-opacity:0.9;" x="309.945124" xlink:href="#C0_0_208fc3915a" y="119.371285"/>
    </g>
    <g clip-path="url(#p462ddeafad)">
     <use style="fill:#80b1d3;fill-opacity:0.9;" x="309.945124" xlink:href="#C0_0_208fc3915a" y="218.927811"/>
    </g>
    <g clip-path="url(#p462ddeafad)">
     <use style="fill:#b3de69;fill-opacity:0.9;" x="383.730248" xlink:href="#C0_0_208fc3915a" y="90.252867"/>
    </g>
    <g clip-path="url(#p462ddeafad)">
     <use style="fill:#b3de69;fill-opacity:0.9;" x="383.730248" xlink:href="#C0_0_208fc3915a" y="169.149548"/>
    </g>
    <g clip-path="url(#p462ddeafad)">
     <use style="fill:#b3de69;fill-opacity:0.9;" x="383.730248" xlink:href="#C0_0_208fc3915a" y="248.046229"/>
    </g>
   </g>
  </g>
 </g>
 <defs>
  <clipPath id="p462ddeafad">
   <rect height="266.112" width="357.12" x="57.6" y="41.472"/>
  </clipPath>
 </defs>
</svg>
