<?xml version="1.0" encoding="utf-8" standalone="no"?>
<!DOCTYPE svg PUBLIC "-//W3C//DTD SVG 1.1//EN"
  "http://www.w3.org/Graphics/SVG/1.1/DTD/svg11.dtd">
<!-- Created with matplotlib (https://matplotlib.org/) -->
<svg height="345.6pt" version="1.1" viewBox="0 0 460.8 345.6" width="460.8pt" xmlns="http://www.w3.org/2000/svg" xmlns:xlink="http://www.w3.org/1999/xlink">
 <defs>
  <style type="text/css">
*{stroke-linecap:butt;stroke-linejoin:round;}
  </style>
 </defs>
 <g id="figure_1">
  <g id="patch_1">
   <path d="M 0 345.6 
L 460.8 345.6 
L 460.8 0 
L 0 0 
z
" style="fill:#ffffff;"/>
  </g>
  <g id="axes_1">
   <g id="patch_2">
    <path d="M 57.6 307.584 
L 414.72 307.584 
L 414.72 41.472 
L 57.6 41.472 
z
" style="fill:#ffffff;"/>
   </g>
   <g id="PolyCollection_1">
    <path clip-path="url(#p4812eda722)" d="M 73.832727 205.353872 
L 73.832727 205.353872 
L 75.464157 205.353872 
L 77.095587 205.353872 
L 78.727017 205.353872 
L 80.358447 205.353872 
L 81.989877 205.353872 
L 83.621307 205.353872 
L 85.252736 205.353872 
L 86.884166 205.353872 
L 88.515596 205.353872 
L 90.147026 205.353872 
L 91.778456 205.353872 
L 93.409886 205.353872 
L 95.041316 205.353872 
L 96.672746 205.353872 
L 98.304175 205.353872 
L 99.935605 205.353872 
L 101.567035 205.353872 
L 103.198465 205.353872 
L 104.829895 205.353872 
L 106.461325 205.353872 
L 108.092755 205.353872 
L 109.724185 205.353872 
L 111.355614 205.353872 
L 112.987044 205.353872 
L 114.618474 205.353872 
L 116.249904 205.353872 
L 117.881334 205.353872 
L 119.512764 205.353872 
L 121.144194 205.353872 
L 122.775624 205.353872 
L 124.407053 205.353872 
L 126.038483 205.353872 
L 127.669913 205.353872 
L 129.301343 205.353872 
L 130.932773 205.353872 
L 132.564203 205.353872 
L 134.195633 205.353872 
L 135.827063 205.353872 
L 137.458492 205.353872 
L 139.089922 205.353872 
L 140.721352 205.353872 
L 142.352782 205.353872 
L 143.984212 205.353872 
L 145.615642 205.353872 
L 147.247072 205.353872 
L 148.878502 205.353872 
L 150.509931 205.353872 
L 152.141361 205.353872 
L 153.772791 205.353872 
L 155.404221 205.353872 
L 157.035651 205.353872 
L 158.667081 205.353872 
L 160.298511 205.353872 
L 161.929941 205.353872 
L 163.56137 205.353872 
L 165.1928 205.353872 
L 166.82423 205.353872 
L 168.45566 205.353872 
L 170.08709 205.353872 
L 171.71852 205.353872 
L 173.34995 205.353872 
L 174.98138 205.353872 
L 176.61281 205.353872 
L 178.244239 205.353872 
L 179.875669 205.353872 
L 181.507099 205.353872 
L 183.138529 205.353872 
L 184.769959 205.353872 
L 186.401389 205.353872 
L 188.032819 205.353872 
L 189.664249 205.353872 
L 191.295678 205.353872 
L 192.927108 205.353872 
L 194.558538 205.353872 
L 196.189968 205.353872 
L 197.821398 205.353872 
L 199.452828 205.353872 
L 201.084258 205.353872 
L 202.715688 205.353872 
L 204.347117 205.353872 
L 205.978547 205.353872 
L 207.609977 205.353872 
L 209.241407 205.353872 
L 210.872837 205.353872 
L 212.504267 205.353872 
L 214.135697 205.353872 
L 215.767127 205.353872 
L 217.398556 205.353872 
L 219.029986 205.353872 
L 220.661416 205.353872 
L 222.292846 205.353872 
L 223.924276 205.353872 
L 225.555706 205.353872 
L 227.187136 205.353872 
L 228.818566 205.353872 
L 230.449995 205.353872 
L 232.081425 205.353872 
L 233.712855 205.353872 
L 235.344285 205.353872 
L 236.975715 205.353872 
L 238.607145 205.353872 
L 240.238575 205.353872 
L 241.870005 205.353872 
L 243.501434 205.353872 
L 245.132864 205.353872 
L 246.764294 205.353872 
L 248.395724 205.353872 
L 250.027154 205.353872 
L 251.658584 205.353872 
L 253.290014 205.353872 
L 254.921444 205.353872 
L 256.552873 205.353872 
L 258.184303 205.353872 
L 259.815733 205.353872 
L 261.447163 205.353872 
L 263.078593 205.353872 
L 264.710023 205.353872 
L 266.341453 205.353872 
L 267.972883 205.353872 
L 269.604312 205.353872 
L 271.235742 205.353872 
L 272.867172 205.353872 
L 274.498602 205.353872 
L 276.130032 205.353872 
L 277.761462 205.353872 
L 279.392892 205.353872 
L 281.024322 205.353872 
L 282.655751 205.353872 
L 284.287181 205.353872 
L 285.918611 205.353872 
L 287.550041 205.353872 
L 289.181471 205.353872 
L 290.812901 205.353872 
L 292.444331 205.353872 
L 294.075761 205.353872 
L 295.70719 205.353872 
L 297.33862 205.353872 
L 298.97005 205.353872 
L 300.60148 205.353872 
L 302.23291 205.353872 
L 303.86434 205.353872 
L 305.49577 205.353872 
L 307.1272 205.353872 
L 308.75863 205.353872 
L 310.390059 205.353872 
L 312.021489 205.353872 
L 313.652919 205.353872 
L 315.284349 205.353872 
L 316.915779 205.353872 
L 318.547209 205.353872 
L 320.178639 205.353872 
L 321.810069 205.353872 
L 323.441498 205.353872 
L 325.072928 205.353872 
L 326.704358 205.353872 
L 328.335788 205.353872 
L 329.967218 205.353872 
L 331.598648 205.353872 
L 333.230078 205.353872 
L 334.861508 205.353872 
L 336.492937 204.00186 
L 338.124367 205.353872 
L 339.755797 205.353872 
L 341.387227 205.353872 
L 343.018657 205.353872 
L 344.650087 178.399849 
L 346.281517 187.41718 
L 347.912947 194.718045 
L 349.544376 204.00186 
L 351.175806 205.353872 
L 352.807236 202.199177 
L 354.438666 187.41718 
L 356.070096 182.640072 
L 357.701526 205.353872 
L 359.332956 204.993335 
L 360.964386 205.353872 
L 362.595815 205.353872 
L 364.227245 203.551189 
L 365.858675 189.167527 
L 367.490105 203.551189 
L 369.121535 205.353872 
L 370.752965 205.353872 
L 372.384395 205.353872 
L 374.015825 205.353872 
L 375.647254 205.083469 
L 377.278684 205.353872 
L 378.910114 205.353872 
L 380.541544 205.353872 
L 382.172974 186.478966 
L 383.804404 205.353872 
L 385.435834 188.769192 
L 387.067264 196.700996 
L 388.698693 193.005496 
L 390.330123 190.301472 
L 391.961553 193.275899 
L 393.592983 205.353872 
L 395.224413 193.370539 
L 396.855843 203.551189 
L 398.487273 205.353872 
L 398.487273 116.585276 
L 398.487273 116.585276 
L 396.855843 117.022426 
L 395.224413 115.668912 
L 393.592983 151.183261 
L 391.961553 119.365914 
L 390.330123 119.72645 
L 388.698693 115.58028 
L 387.067264 149.20031 
L 385.435834 115.940817 
L 383.804404 117.382963 
L 382.172974 118.825109 
L 380.541544 116.301353 
L 378.910114 153.707016 
L 377.278684 118.374438 
L 375.647254 120.627791 
L 374.015825 121.512328 
L 372.384395 117.022426 
L 370.752965 154.87876 
L 369.121535 115.58028 
L 367.490105 119.546182 
L 365.858675 119.185645 
L 364.227245 119.906718 
L 362.595815 126.035839 
L 360.964386 120.627791 
L 359.332956 119.906718 
L 357.701526 117.382963 
L 356.070096 142.800787 
L 354.438666 122.430474 
L 352.807236 116.301353 
L 351.175806 138.29408 
L 349.544376 116.301353 
L 347.912947 148.028566 
L 346.281517 159.153693 
L 344.650087 135.770325 
L 343.018657 133.967642 
L 341.387227 170.102844 
L 339.755797 121.277706 
L 338.124367 141.899446 
L 336.492937 131.894557 
L 334.861508 168.804483 
L 333.230078 185.8849 
L 331.598648 178.935988 
L 329.967218 169.536286 
L 328.335788 116.301353 
L 326.704358 145.685079 
L 325.072928 149.110176 
L 323.441498 165.759752 
L 321.810069 162.720429 
L 320.178639 164.613246 
L 318.547209 130.362277 
L 316.915779 170.38183 
L 315.284349 170.264656 
L 313.652919 185.163827 
L 312.021489 168.592024 
L 310.390059 126.035839 
L 308.75863 122.160072 
L 307.1272 186.876376 
L 305.49577 183.361145 
L 303.86434 182.640072 
L 302.23291 146.766689 
L 300.60148 172.905586 
L 298.97005 203.100519 
L 297.33862 120.267255 
L 295.70719 125.675303 
L 294.075761 180.837389 
L 292.444331 183.361145 
L 290.812901 190.301472 
L 289.181471 185.8849 
L 287.550041 181.73873 
L 285.918611 185.8849 
L 284.287181 171.059982 
L 282.655751 205.353872 
L 281.024322 189.400131 
L 279.392892 169.029818 
L 277.761462 203.551189 
L 276.130032 189.490265 
L 274.498602 190.571875 
L 272.867172 169.160513 
L 271.235742 169.660757 
L 269.604312 203.551189 
L 267.972883 205.353872 
L 266.341453 203.551189 
L 264.710023 201.838641 
L 263.078593 201.38797 
L 261.447163 205.353872 
L 259.815733 205.353872 
L 258.184303 205.353872 
L 256.552873 205.353872 
L 254.921444 205.353872 
L 253.290014 205.353872 
L 251.658584 205.353872 
L 250.027154 205.353872 
L 248.395724 205.353872 
L 246.764294 205.353872 
L 245.132864 205.353872 
L 243.501434 205.353872 
L 241.870005 205.353872 
L 240.238575 205.353872 
L 238.607145 205.353872 
L 236.975715 205.353872 
L 235.344285 205.353872 
L 233.712855 205.353872 
L 232.081425 205.353872 
L 230.449995 205.353872 
L 228.818566 205.353872 
L 227.187136 205.353872 
L 225.555706 205.353872 
L 223.924276 205.353872 
L 222.292846 205.353872 
L 220.661416 205.353872 
L 219.029986 205.353872 
L 217.398556 205.353872 
L 215.767127 205.353872 
L 214.135697 205.353872 
L 212.504267 205.353872 
L 210.872837 205.353872 
L 209.241407 205.353872 
L 207.609977 205.353872 
L 205.978547 205.353872 
L 204.347117 205.353872 
L 202.715688 205.353872 
L 201.084258 205.353872 
L 199.452828 205.353872 
L 197.821398 205.353872 
L 196.189968 205.353872 
L 194.558538 205.353872 
L 192.927108 205.353872 
L 191.295678 205.353872 
L 189.664249 205.353872 
L 188.032819 205.353872 
L 186.401389 205.353872 
L 184.769959 205.353872 
L 183.138529 205.353872 
L 181.507099 205.353872 
L 179.875669 205.353872 
L 178.244239 205.353872 
L 176.61281 205.353872 
L 174.98138 205.353872 
L 173.34995 205.353872 
L 171.71852 205.353872 
L 170.08709 205.353872 
L 168.45566 205.353872 
L 166.82423 205.353872 
L 165.1928 205.353872 
L 163.56137 205.353872 
L 161.929941 205.353872 
L 160.298511 205.353872 
L 158.667081 205.353872 
L 157.035651 205.353872 
L 155.404221 205.353872 
L 153.772791 205.353872 
L 152.141361 205.353872 
L 150.509931 205.353872 
L 148.878502 205.353872 
L 147.247072 205.353872 
L 145.615642 205.353872 
L 143.984212 205.353872 
L 142.352782 205.353872 
L 140.721352 205.353872 
L 139.089922 205.353872 
L 137.458492 205.353872 
L 135.827063 205.353872 
L 134.195633 205.353872 
L 132.564203 205.353872 
L 130.932773 205.353872 
L 129.301343 205.353872 
L 127.669913 205.353872 
L 126.038483 205.353872 
L 124.407053 205.353872 
L 122.775624 205.353872 
L 121.144194 205.353872 
L 119.512764 205.353872 
L 117.881334 205.353872 
L 116.249904 205.353872 
L 114.618474 205.353872 
L 112.987044 205.353872 
L 111.355614 205.353872 
L 109.724185 205.353872 
L 108.092755 205.353872 
L 106.461325 205.353872 
L 104.829895 205.353872 
L 103.198465 205.353872 
L 101.567035 205.353872 
L 99.935605 205.353872 
L 98.304175 205.353872 
L 96.672746 205.353872 
L 95.041316 205.353872 
L 93.409886 205.353872 
L 91.778456 205.353872 
L 90.147026 205.353872 
L 88.515596 205.353872 
L 86.884166 205.353872 
L 85.252736 205.353872 
L 83.621307 205.353872 
L 81.989877 205.353872 
L 80.358447 205.353872 
L 78.727017 205.353872 
L 77.095587 205.353872 
L 75.464157 205.353872 
L 73.832727 205.353872 
z
" style="fill:#1f77b4;fill-opacity:0.2;"/>
   </g>
   <g id="PolyCollection_2">
    <path clip-path="url(#p4812eda722)" d="M 73.832727 205.353872 
L 73.832727 205.353872 
L 75.464157 205.353872 
L 77.095587 205.353872 
L 78.727017 205.353872 
L 80.358447 205.353872 
L 81.989877 205.353872 
L 83.621307 205.353872 
L 85.252736 205.353872 
L 86.884166 205.353872 
L 88.515596 205.353872 
L 90.147026 205.353872 
L 91.778456 205.353872 
L 93.409886 205.353872 
L 95.041316 205.353872 
L 96.672746 205.353872 
L 98.304175 205.353872 
L 99.935605 205.353872 
L 101.567035 205.353872 
L 103.198465 205.353872 
L 104.829895 205.353872 
L 106.461325 205.353872 
L 108.092755 205.353872 
L 109.724185 205.353872 
L 111.355614 205.353872 
L 112.987044 205.353872 
L 114.618474 205.353872 
L 116.249904 205.353872 
L 117.881334 205.353872 
L 119.512764 205.353872 
L 121.144194 205.353872 
L 122.775624 205.353872 
L 124.407053 205.353872 
L 126.038483 205.353872 
L 127.669913 205.353872 
L 129.301343 205.353872 
L 130.932773 205.353872 
L 132.564203 205.353872 
L 134.195633 205.353872 
L 135.827063 205.353872 
L 137.458492 205.353872 
L 139.089922 205.353872 
L 140.721352 205.353872 
L 142.352782 205.353872 
L 143.984212 205.353872 
L 145.615642 205.353872 
L 147.247072 205.353872 
L 148.878502 205.353872 
L 150.509931 205.353872 
L 152.141361 205.353872 
L 153.772791 205.353872 
L 155.404221 205.353872 
L 157.035651 205.353872 
L 158.667081 205.353872 
L 160.298511 205.353872 
L 161.929941 205.353872 
L 163.56137 205.353872 
L 165.1928 205.353872 
L 166.82423 205.353872 
L 168.45566 205.353872 
L 170.08709 205.353872 
L 171.71852 205.353872 
L 173.34995 205.353872 
L 174.98138 205.353872 
L 176.61281 205.353872 
L 178.244239 205.353872 
L 179.875669 205.353872 
L 181.507099 205.353872 
L 183.138529 205.353872 
L 184.769959 205.353872 
L 186.401389 205.353872 
L 188.032819 205.353872 
L 189.664249 205.353872 
L 191.295678 205.353872 
L 192.927108 205.353872 
L 194.558538 205.353872 
L 196.189968 205.353872 
L 197.821398 205.353872 
L 199.452828 205.353872 
L 201.084258 205.353872 
L 202.715688 205.353872 
L 204.347117 205.353872 
L 205.978547 205.353872 
L 207.609977 205.353872 
L 209.241407 205.353872 
L 210.872837 205.353872 
L 212.504267 205.353872 
L 214.135697 205.353872 
L 215.767127 205.353872 
L 217.398556 205.353872 
L 219.029986 205.353872 
L 220.661416 205.353872 
L 222.292846 205.353872 
L 223.924276 205.353872 
L 225.555706 205.353872 
L 227.187136 205.353872 
L 228.818566 205.353872 
L 230.449995 205.353872 
L 232.081425 205.353872 
L 233.712855 205.353872 
L 235.344285 205.353872 
L 236.975715 205.353872 
L 238.607145 205.353872 
L 240.238575 205.353872 
L 241.870005 205.353872 
L 243.501434 205.353872 
L 245.132864 205.353872 
L 246.764294 205.353872 
L 248.395724 205.353872 
L 250.027154 205.353872 
L 251.658584 274.576882 
L 253.290014 205.353872 
L 254.921444 277.461174 
L 256.552873 287.556197 
L 258.184303 282.869222 
L 259.815733 279.263857 
L 261.447163 289.719416 
L 263.078593 287.556197 
L 264.710023 285.753514 
L 266.341453 276.740101 
L 267.972883 284.311368 
L 269.604312 283.229759 
L 271.235742 286.114051 
L 272.867172 266.284542 
L 274.498602 220.135869 
L 276.130032 279.98493 
L 277.761462 289.719416 
L 279.392892 274.576882 
L 281.024322 245.733961 
L 282.655751 236.360012 
L 284.287181 291.161562 
L 285.918611 293.685317 
L 287.550041 230.591428 
L 289.181471 293.685317 
L 290.812901 217.97265 
L 292.444331 212.564602 
L 294.075761 220.135869 
L 295.70719 223.020161 
L 297.33862 287.19566 
L 298.97005 289.719416 
L 300.60148 275.297955 
L 302.23291 295.488 
L 303.86434 295.488 
L 305.49577 295.488 
L 307.1272 295.488 
L 308.75863 279.98493 
L 310.390059 283.590295 
L 312.021489 285.032441 
L 313.652919 290.801025 
L 315.284349 254.747374 
L 316.915779 225.543917 
L 318.547209 280.345466 
L 320.178639 229.870355 
L 321.810069 277.461174 
L 323.441498 290.079952 
L 325.072928 257.27113 
L 326.704358 267.726689 
L 328.335788 291.522098 
L 329.967218 234.196793 
L 331.598648 285.032441 
L 333.230078 291.161562 
L 334.861508 285.753514 
L 336.492937 261.237031 
L 338.124367 287.556197 
L 339.755797 288.637806 
L 341.387227 215.448894 
L 343.018657 227.346599 
L 344.650087 205.353872 
L 346.281517 246.455034 
L 347.912947 225.904453 
L 349.544376 271.69259 
L 351.175806 247.176107 
L 352.807236 231.312501 
L 354.438666 254.747374 
L 356.070096 233.836256 
L 357.701526 278.542784 
L 359.332956 259.434349 
L 360.964386 259.794885 
L 362.595815 236.720548 
L 364.227245 273.134736 
L 365.858675 237.441621 
L 367.490105 231.312501 
L 369.121535 233.47572 
L 370.752965 271.332054 
L 372.384395 250.781472 
L 374.015825 237.802158 
L 375.647254 287.916733 
L 377.278684 264.48186 
L 378.910114 288.27727 
L 380.541544 227.707136 
L 382.172974 269.168835 
L 383.804404 224.822844 
L 385.435834 230.230891 
L 387.067264 206.796018 
L 388.698693 205.353872 
L 390.330123 249.699863 
L 391.961553 273.134736 
L 393.592983 284.671905 
L 395.224413 205.353872 
L 396.855843 205.353872 
L 398.487273 287.916733 
L 398.487273 97.553455 
L 398.487273 97.553455 
L 396.855843 101.879893 
L 395.224413 71.594826 
L 393.592983 106.154826 
L 391.961553 105.405139 
L 390.330123 100.437747 
L 388.698693 77.723946 
L 387.067264 94.669162 
L 385.435834 83.853067 
L 383.804404 96.832382 
L 382.172974 94.669162 
L 380.541544 53.568 
L 378.910114 92.86648 
L 377.278684 97.553455 
L 375.647254 102.869057 
L 374.015825 78.084483 
L 372.384395 94.669162 
L 370.752965 94.669162 
L 369.121535 56.091756 
L 367.490105 97.913991 
L 365.858675 79.166092 
L 364.227245 93.26307 
L 362.595815 91.424334 
L 360.964386 93.587553 
L 359.332956 92.86648 
L 357.701526 88.179505 
L 356.070096 102.787911 
L 354.438666 102.850568 
L 352.807236 80.968775 
L 351.175806 99.608513 
L 349.544376 73.036972 
L 347.912947 102.207653 
L 346.281517 103.098849 
L 344.650087 78.445019 
L 343.018657 95.390235 
L 341.387227 86.376823 
L 339.755797 78.445019 
L 338.124367 103.322039 
L 336.492937 93.227016 
L 334.861508 105.286963 
L 333.230078 77.723946 
L 331.598648 105.134209 
L 329.967218 98.995601 
L 328.335788 100.798283 
L 326.704358 105.351344 
L 325.072928 82.050385 
L 323.441498 74.479118 
L 321.810069 105.879595 
L 320.178639 105.776013 
L 318.547209 74.479118 
L 316.915779 94.308626 
L 315.284349 95.390235 
L 313.652919 101.879893 
L 312.021489 106.594601 
L 310.390059 93.227016 
L 308.75863 66.186778 
L 307.1272 87.458432 
L 305.49577 106.566867 
L 303.86434 96.865158 
L 302.23291 96.454677 
L 300.60148 91.78487 
L 298.97005 99.049681 
L 297.33862 102.506913 
L 295.70719 100.76223 
L 294.075761 97.553455 
L 292.444331 102.132268 
L 290.812901 111.848727 
L 289.181471 111.974915 
L 287.550041 125.675303 
L 285.918611 115.58028 
L 284.287181 119.185645 
L 282.655751 120.988328 
L 281.024322 119.185645 
L 279.392892 125.639249 
L 277.761462 151.994468 
L 276.130032 160.750355 
L 274.498602 159.205198 
L 272.867172 115.219744 
L 271.235742 115.940817 
L 269.604312 116.301353 
L 267.972883 117.022426 
L 266.341453 115.219744 
L 264.710023 116.301353 
L 263.078593 115.219744 
L 261.447163 116.66189 
L 259.815733 117.022426 
L 258.184303 117.022426 
L 256.552873 187.29427 
L 254.921444 182.640072 
L 253.290014 186.371624 
L 251.658584 199.945824 
L 250.027154 205.353872 
L 248.395724 205.353872 
L 246.764294 205.353872 
L 245.132864 205.353872 
L 243.501434 205.353872 
L 241.870005 205.353872 
L 240.238575 205.353872 
L 238.607145 205.353872 
L 236.975715 205.353872 
L 235.344285 205.353872 
L 233.712855 205.353872 
L 232.081425 205.353872 
L 230.449995 205.353872 
L 228.818566 205.353872 
L 227.187136 205.353872 
L 225.555706 205.353872 
L 223.924276 205.353872 
L 222.292846 205.353872 
L 220.661416 205.353872 
L 219.029986 205.353872 
L 217.398556 205.353872 
L 215.767127 205.353872 
L 214.135697 205.353872 
L 212.504267 205.353872 
L 210.872837 205.353872 
L 209.241407 205.353872 
L 207.609977 205.353872 
L 205.978547 205.353872 
L 204.347117 205.353872 
L 202.715688 205.353872 
L 201.084258 205.353872 
L 199.452828 205.353872 
L 197.821398 205.353872 
L 196.189968 205.353872 
L 194.558538 205.353872 
L 192.927108 205.353872 
L 191.295678 205.353872 
L 189.664249 205.353872 
L 188.032819 205.353872 
L 186.401389 205.353872 
L 184.769959 205.353872 
L 183.138529 205.353872 
L 181.507099 205.353872 
L 179.875669 205.353872 
L 178.244239 205.353872 
L 176.61281 205.353872 
L 174.98138 205.353872 
L 173.34995 205.353872 
L 171.71852 205.353872 
L 170.08709 205.353872 
L 168.45566 205.353872 
L 166.82423 205.353872 
L 165.1928 205.353872 
L 163.56137 205.353872 
L 161.929941 205.353872 
L 160.298511 205.353872 
L 158.667081 205.353872 
L 157.035651 205.353872 
L 155.404221 205.353872 
L 153.772791 205.353872 
L 152.141361 205.353872 
L 150.509931 205.353872 
L 148.878502 205.353872 
L 147.247072 205.353872 
L 145.615642 205.353872 
L 143.984212 205.353872 
L 142.352782 205.353872 
L 140.721352 205.353872 
L 139.089922 205.353872 
L 137.458492 205.353872 
L 135.827063 205.353872 
L 134.195633 205.353872 
L 132.564203 205.353872 
L 130.932773 205.353872 
L 129.301343 205.353872 
L 127.669913 205.353872 
L 126.038483 205.353872 
L 124.407053 205.353872 
L 122.775624 205.353872 
L 121.144194 205.353872 
L 119.512764 205.353872 
L 117.881334 205.353872 
L 116.249904 205.353872 
L 114.618474 205.353872 
L 112.987044 205.353872 
L 111.355614 205.353872 
L 109.724185 205.353872 
L 108.092755 205.353872 
L 106.461325 205.353872 
L 104.829895 205.353872 
L 103.198465 205.353872 
L 101.567035 205.353872 
L 99.935605 205.353872 
L 98.304175 205.353872 
L 96.672746 205.353872 
L 95.041316 205.353872 
L 93.409886 205.353872 
L 91.778456 205.353872 
L 90.147026 205.353872 
L 88.515596 205.353872 
L 86.884166 205.353872 
L 85.252736 205.353872 
L 83.621307 205.353872 
L 81.989877 205.353872 
L 80.358447 205.353872 
L 78.727017 205.353872 
L 77.095587 205.353872 
L 75.464157 205.353872 
L 73.832727 205.353872 
z
" style="fill:#1f77b4;fill-opacity:0.1;"/>
   </g>
   <g id="matplotlib.axis_1">
    <g id="xtick_1">
     <g id="line2d_1">
      <defs>
       <path d="M 0 0 
L 0 3.5 
" id="m321fb716e5" style="stroke:#000000;stroke-width:0.8;"/>
      </defs>
      <g>
       <use style="stroke:#000000;stroke-width:0.8;" x="73.832727" xlink:href="#m321fb716e5" y="307.584"/>
      </g>
     </g>
     <g id="text_1">
      <!-- 0 -->
      <defs>
       <path d="M 31.78125 66.40625 
Q 24.171875 66.40625 20.328125 58.90625 
Q 16.5 51.421875 16.5 36.375 
Q 16.5 21.390625 20.328125 13.890625 
Q 24.171875 6.390625 31.78125 6.390625 
Q 39.453125 6.390625 43.28125 13.890625 
Q 47.125 21.390625 47.125 36.375 
Q 47.125 51.421875 43.28125 58.90625 
Q 39.453125 66.40625 31.78125 66.40625 
z
M 31.78125 74.21875 
Q 44.046875 74.21875 50.515625 64.515625 
Q 56.984375 54.828125 56.984375 36.375 
Q 56.984375 17.96875 50.515625 8.265625 
Q 44.046875 -1.421875 31.78125 -1.421875 
Q 19.53125 -1.421875 13.0625 8.265625 
Q 6.59375 17.96875 6.59375 36.375 
Q 6.59375 54.828125 13.0625 64.515625 
Q 19.53125 74.21875 31.78125 74.21875 
z
" id="DejaVuSans-48"/>
      </defs>
      <g transform="translate(70.651477 322.182437)scale(0.1 -0.1)">
       <use xlink:href="#DejaVuSans-48"/>
      </g>
     </g>
    </g>
    <g id="xtick_2">
     <g id="line2d_2">
      <g>
       <use style="stroke:#000000;stroke-width:0.8;" x="114.618474" xlink:href="#m321fb716e5" y="307.584"/>
      </g>
     </g>
     <g id="text_2">
      <!-- 25 -->
      <defs>
       <path d="M 19.1875 8.296875 
L 53.609375 8.296875 
L 53.609375 0 
L 7.328125 0 
L 7.328125 8.296875 
Q 12.9375 14.109375 22.625 23.890625 
Q 32.328125 33.6875 34.8125 36.53125 
Q 39.546875 41.84375 41.421875 45.53125 
Q 43.3125 49.21875 43.3125 52.78125 
Q 43.3125 58.59375 39.234375 62.25 
Q 35.15625 65.921875 28.609375 65.921875 
Q 23.96875 65.921875 18.8125 64.3125 
Q 13.671875 62.703125 7.8125 59.421875 
L 7.8125 69.390625 
Q 13.765625 71.78125 18.9375 73 
Q 24.125 74.21875 28.421875 74.21875 
Q 39.75 74.21875 46.484375 68.546875 
Q 53.21875 62.890625 53.21875 53.421875 
Q 53.21875 48.921875 51.53125 44.890625 
Q 49.859375 40.875 45.40625 35.40625 
Q 44.1875 33.984375 37.640625 27.21875 
Q 31.109375 20.453125 19.1875 8.296875 
z
" id="DejaVuSans-50"/>
       <path d="M 10.796875 72.90625 
L 49.515625 72.90625 
L 49.515625 64.59375 
L 19.828125 64.59375 
L 19.828125 46.734375 
Q 21.96875 47.46875 24.109375 47.828125 
Q 26.265625 48.1875 28.421875 48.1875 
Q 40.625 48.1875 47.75 41.5 
Q 54.890625 34.8125 54.890625 23.390625 
Q 54.890625 11.625 47.5625 5.09375 
Q 40.234375 -1.421875 26.90625 -1.421875 
Q 22.3125 -1.421875 17.546875 -0.640625 
Q 12.796875 0.140625 7.71875 1.703125 
L 7.71875 11.625 
Q 12.109375 9.234375 16.796875 8.0625 
Q 21.484375 6.890625 26.703125 6.890625 
Q 35.15625 6.890625 40.078125 11.328125 
Q 45.015625 15.765625 45.015625 23.390625 
Q 45.015625 31 40.078125 35.4375 
Q 35.15625 39.890625 26.703125 39.890625 
Q 22.75 39.890625 18.8125 39.015625 
Q 14.890625 38.140625 10.796875 36.28125 
z
" id="DejaVuSans-53"/>
      </defs>
      <g transform="translate(108.255974 322.182437)scale(0.1 -0.1)">
       <use xlink:href="#DejaVuSans-50"/>
       <use x="63.623047" xlink:href="#DejaVuSans-53"/>
      </g>
     </g>
    </g>
    <g id="xtick_3">
     <g id="line2d_3">
      <g>
       <use style="stroke:#000000;stroke-width:0.8;" x="155.404221" xlink:href="#m321fb716e5" y="307.584"/>
      </g>
     </g>
     <g id="text_3">
      <!-- 50 -->
      <g transform="translate(149.041721 322.182437)scale(0.1 -0.1)">
       <use xlink:href="#DejaVuSans-53"/>
       <use x="63.623047" xlink:href="#DejaVuSans-48"/>
      </g>
     </g>
    </g>
    <g id="xtick_4">
     <g id="line2d_4">
      <g>
       <use style="stroke:#000000;stroke-width:0.8;" x="196.189968" xlink:href="#m321fb716e5" y="307.584"/>
      </g>
     </g>
     <g id="text_4">
      <!-- 75 -->
      <defs>
       <path d="M 8.203125 72.90625 
L 55.078125 72.90625 
L 55.078125 68.703125 
L 28.609375 0 
L 18.3125 0 
L 43.21875 64.59375 
L 8.203125 64.59375 
z
" id="DejaVuSans-55"/>
      </defs>
      <g transform="translate(189.827468 322.182437)scale(0.1 -0.1)">
       <use xlink:href="#DejaVuSans-55"/>
       <use x="63.623047" xlink:href="#DejaVuSans-53"/>
      </g>
     </g>
    </g>
    <g id="xtick_5">
     <g id="line2d_5">
      <g>
       <use style="stroke:#000000;stroke-width:0.8;" x="236.975715" xlink:href="#m321fb716e5" y="307.584"/>
      </g>
     </g>
     <g id="text_5">
      <!-- 100 -->
      <defs>
       <path d="M 12.40625 8.296875 
L 28.515625 8.296875 
L 28.515625 63.921875 
L 10.984375 60.40625 
L 10.984375 69.390625 
L 28.421875 72.90625 
L 38.28125 72.90625 
L 38.28125 8.296875 
L 54.390625 8.296875 
L 54.390625 0 
L 12.40625 0 
z
" id="DejaVuSans-49"/>
      </defs>
      <g transform="translate(227.431965 322.182437)scale(0.1 -0.1)">
       <use xlink:href="#DejaVuSans-49"/>
       <use x="63.623047" xlink:href="#DejaVuSans-48"/>
       <use x="127.246094" xlink:href="#DejaVuSans-48"/>
      </g>
     </g>
    </g>
    <g id="xtick_6">
     <g id="line2d_6">
      <g>
       <use style="stroke:#000000;stroke-width:0.8;" x="277.761462" xlink:href="#m321fb716e5" y="307.584"/>
      </g>
     </g>
     <g id="text_6">
      <!-- 125 -->
      <g transform="translate(268.217712 322.182437)scale(0.1 -0.1)">
       <use xlink:href="#DejaVuSans-49"/>
       <use x="63.623047" xlink:href="#DejaVuSans-50"/>
       <use x="127.246094" xlink:href="#DejaVuSans-53"/>
      </g>
     </g>
    </g>
    <g id="xtick_7">
     <g id="line2d_7">
      <g>
       <use style="stroke:#000000;stroke-width:0.8;" x="318.547209" xlink:href="#m321fb716e5" y="307.584"/>
      </g>
     </g>
     <g id="text_7">
      <!-- 150 -->
      <g transform="translate(309.003459 322.182437)scale(0.1 -0.1)">
       <use xlink:href="#DejaVuSans-49"/>
       <use x="63.623047" xlink:href="#DejaVuSans-53"/>
       <use x="127.246094" xlink:href="#DejaVuSans-48"/>
      </g>
     </g>
    </g>
    <g id="xtick_8">
     <g id="line2d_8">
      <g>
       <use style="stroke:#000000;stroke-width:0.8;" x="359.332956" xlink:href="#m321fb716e5" y="307.584"/>
      </g>
     </g>
     <g id="text_8">
      <!-- 175 -->
      <g transform="translate(349.789206 322.182437)scale(0.1 -0.1)">
       <use xlink:href="#DejaVuSans-49"/>
       <use x="63.623047" xlink:href="#DejaVuSans-55"/>
       <use x="127.246094" xlink:href="#DejaVuSans-53"/>
      </g>
     </g>
    </g>
    <g id="xtick_9">
     <g id="line2d_9">
      <g>
       <use style="stroke:#000000;stroke-width:0.8;" x="400.118703" xlink:href="#m321fb716e5" y="307.584"/>
      </g>
     </g>
     <g id="text_9">
      <!-- 200 -->
      <g transform="translate(390.574953 322.182437)scale(0.1 -0.1)">
       <use xlink:href="#DejaVuSans-50"/>
       <use x="63.623047" xlink:href="#DejaVuSans-48"/>
       <use x="127.246094" xlink:href="#DejaVuSans-48"/>
      </g>
     </g>
    </g>
   </g>
   <g id="matplotlib.axis_2">
    <g id="ytick_1">
     <g id="line2d_10">
      <defs>
       <path d="M 0 0 
L -3.5 0 
" id="mfa5ced862d" style="stroke:#000000;stroke-width:0.8;"/>
      </defs>
      <g>
       <use style="stroke:#000000;stroke-width:0.8;" x="57.6" xlink:href="#mfa5ced862d" y="295.488"/>
      </g>
     </g>
     <g id="text_10">
      <!-- 0.0 -->
      <defs>
       <path d="M 10.6875 12.40625 
L 21 12.40625 
L 21 0 
L 10.6875 0 
z
" id="DejaVuSans-46"/>
      </defs>
      <g transform="translate(34.696875 299.287219)scale(0.1 -0.1)">
       <use xlink:href="#DejaVuSans-48"/>
       <use x="63.623047" xlink:href="#DejaVuSans-46"/>
       <use x="95.410156" xlink:href="#DejaVuSans-48"/>
      </g>
     </g>
    </g>
    <g id="ytick_2">
     <g id="line2d_11">
      <g>
       <use style="stroke:#000000;stroke-width:0.8;" x="57.6" xlink:href="#mfa5ced862d" y="241.407523"/>
      </g>
     </g>
     <g id="text_11">
      <!-- 0.2 -->
      <g transform="translate(34.696875 245.206742)scale(0.1 -0.1)">
       <use xlink:href="#DejaVuSans-48"/>
       <use x="63.623047" xlink:href="#DejaVuSans-46"/>
       <use x="95.410156" xlink:href="#DejaVuSans-50"/>
      </g>
     </g>
    </g>
    <g id="ytick_3">
     <g id="line2d_12">
      <g>
       <use style="stroke:#000000;stroke-width:0.8;" x="57.6" xlink:href="#mfa5ced862d" y="187.327046"/>
      </g>
     </g>
     <g id="text_12">
      <!-- 0.4 -->
      <defs>
       <path d="M 37.796875 64.3125 
L 12.890625 25.390625 
L 37.796875 25.390625 
z
M 35.203125 72.90625 
L 47.609375 72.90625 
L 47.609375 25.390625 
L 58.015625 25.390625 
L 58.015625 17.1875 
L 47.609375 17.1875 
L 47.609375 0 
L 37.796875 0 
L 37.796875 17.1875 
L 4.890625 17.1875 
L 4.890625 26.703125 
z
" id="DejaVuSans-52"/>
      </defs>
      <g transform="translate(34.696875 191.126265)scale(0.1 -0.1)">
       <use xlink:href="#DejaVuSans-48"/>
       <use x="63.623047" xlink:href="#DejaVuSans-46"/>
       <use x="95.410156" xlink:href="#DejaVuSans-52"/>
      </g>
     </g>
    </g>
    <g id="ytick_4">
     <g id="line2d_13">
      <g>
       <use style="stroke:#000000;stroke-width:0.8;" x="57.6" xlink:href="#mfa5ced862d" y="133.246569"/>
      </g>
     </g>
     <g id="text_13">
      <!-- 0.6 -->
      <defs>
       <path d="M 33.015625 40.375 
Q 26.375 40.375 22.484375 35.828125 
Q 18.609375 31.296875 18.609375 23.390625 
Q 18.609375 15.53125 22.484375 10.953125 
Q 26.375 6.390625 33.015625 6.390625 
Q 39.65625 6.390625 43.53125 10.953125 
Q 47.40625 15.53125 47.40625 23.390625 
Q 47.40625 31.296875 43.53125 35.828125 
Q 39.65625 40.375 33.015625 40.375 
z
M 52.59375 71.296875 
L 52.59375 62.3125 
Q 48.875 64.0625 45.09375 64.984375 
Q 41.3125 65.921875 37.59375 65.921875 
Q 27.828125 65.921875 22.671875 59.328125 
Q 17.53125 52.734375 16.796875 39.40625 
Q 19.671875 43.65625 24.015625 45.921875 
Q 28.375 48.1875 33.59375 48.1875 
Q 44.578125 48.1875 50.953125 41.515625 
Q 57.328125 34.859375 57.328125 23.390625 
Q 57.328125 12.15625 50.6875 5.359375 
Q 44.046875 -1.421875 33.015625 -1.421875 
Q 20.359375 -1.421875 13.671875 8.265625 
Q 6.984375 17.96875 6.984375 36.375 
Q 6.984375 53.65625 15.1875 63.9375 
Q 23.390625 74.21875 37.203125 74.21875 
Q 40.921875 74.21875 44.703125 73.484375 
Q 48.484375 72.75 52.59375 71.296875 
z
" id="DejaVuSans-54"/>
      </defs>
      <g transform="translate(34.696875 137.045788)scale(0.1 -0.1)">
       <use xlink:href="#DejaVuSans-48"/>
       <use x="63.623047" xlink:href="#DejaVuSans-46"/>
       <use x="95.410156" xlink:href="#DejaVuSans-54"/>
      </g>
     </g>
    </g>
    <g id="ytick_5">
     <g id="line2d_14">
      <g>
       <use style="stroke:#000000;stroke-width:0.8;" x="57.6" xlink:href="#mfa5ced862d" y="79.166092"/>
      </g>
     </g>
     <g id="text_14">
      <!-- 0.8 -->
      <defs>
       <path d="M 31.78125 34.625 
Q 24.75 34.625 20.71875 30.859375 
Q 16.703125 27.09375 16.703125 20.515625 
Q 16.703125 13.921875 20.71875 10.15625 
Q 24.75 6.390625 31.78125 6.390625 
Q 38.8125 6.390625 42.859375 10.171875 
Q 46.921875 13.96875 46.921875 20.515625 
Q 46.921875 27.09375 42.890625 30.859375 
Q 38.875 34.625 31.78125 34.625 
z
M 21.921875 38.8125 
Q 15.578125 40.375 12.03125 44.71875 
Q 8.5 49.078125 8.5 55.328125 
Q 8.5 64.0625 14.71875 69.140625 
Q 20.953125 74.21875 31.78125 74.21875 
Q 42.671875 74.21875 48.875 69.140625 
Q 55.078125 64.0625 55.078125 55.328125 
Q 55.078125 49.078125 51.53125 44.71875 
Q 48 40.375 41.703125 38.8125 
Q 48.828125 37.15625 52.796875 32.3125 
Q 56.78125 27.484375 56.78125 20.515625 
Q 56.78125 9.90625 50.3125 4.234375 
Q 43.84375 -1.421875 31.78125 -1.421875 
Q 19.734375 -1.421875 13.25 4.234375 
Q 6.78125 9.90625 6.78125 20.515625 
Q 6.78125 27.484375 10.78125 32.3125 
Q 14.796875 37.15625 21.921875 38.8125 
z
M 18.3125 54.390625 
Q 18.3125 48.734375 21.84375 45.5625 
Q 25.390625 42.390625 31.78125 42.390625 
Q 38.140625 42.390625 41.71875 45.5625 
Q 45.3125 48.734375 45.3125 54.390625 
Q 45.3125 60.0625 41.71875 63.234375 
Q 38.140625 66.40625 31.78125 66.40625 
Q 25.390625 66.40625 21.84375 63.234375 
Q 18.3125 60.0625 18.3125 54.390625 
z
" id="DejaVuSans-56"/>
      </defs>
      <g transform="translate(34.696875 82.965311)scale(0.1 -0.1)">
       <use xlink:href="#DejaVuSans-48"/>
       <use x="63.623047" xlink:href="#DejaVuSans-46"/>
       <use x="95.410156" xlink:href="#DejaVuSans-56"/>
      </g>
     </g>
    </g>
   </g>
   <g id="line2d_15">
    <path clip-path="url(#p4812eda722)" d="M 73.832727 205.353872 
L 282.655751 205.353872 
L 284.287181 204.272262 
L 285.918611 205.353872 
L 294.075761 205.353872 
L 295.70719 191.653484 
L 297.33862 205.353872 
L 300.60148 205.353872 
L 302.23291 204.993335 
L 303.86434 205.353872 
L 307.1272 205.353872 
L 308.75863 199.945824 
L 310.390059 187.687583 
L 312.021489 205.353872 
L 313.652919 205.353872 
L 315.284349 203.551189 
L 316.915779 205.353872 
L 318.547209 205.353872 
L 320.178639 202.289311 
L 321.810069 185.524364 
L 323.441498 205.353872 
L 325.072928 185.524364 
L 326.704358 191.292948 
L 328.335788 173.987195 
L 329.967218 190.571875 
L 331.598648 205.353872 
L 333.230078 205.353872 
L 334.861508 204.091994 
L 336.492937 187.327046 
L 338.124367 183.361145 
L 339.755797 183.180876 
L 341.387227 205.353872 
L 343.018657 189.490265 
L 344.650087 141.178373 
L 346.281517 169.660757 
L 347.912947 156.320906 
L 349.544376 165.302713 
L 351.175806 187.687583 
L 352.807236 174.708268 
L 354.438666 155.599833 
L 356.070096 166.415928 
L 357.701526 172.905586 
L 359.332956 172.184513 
L 360.964386 183.361145 
L 362.595815 192.138344 
L 364.227245 167.677806 
L 365.858675 154.518224 
L 367.490105 170.38183 
L 369.121535 162.450027 
L 370.752965 189.490265 
L 372.384395 163.531636 
L 374.015825 177.232024 
L 375.647254 185.163827 
L 377.278684 146.225884 
L 378.910114 188.769192 
L 380.541544 166.620779 
L 382.172974 159.205198 
L 383.804404 187.319208 
L 385.435834 168.038343 
L 387.067264 167.137001 
L 388.698693 144.062665 
L 390.330123 178.02177 
L 391.961553 180.116316 
L 393.592983 198.143142 
L 395.224413 146.766689 
L 396.855843 172.905586 
L 398.487273 179.755779 
L 398.487273 179.755779 
" style="fill:none;stroke:#1f77b4;stroke-linecap:square;stroke-width:0.25;"/>
   </g>
   <g id="line2d_16">
    <path clip-path="url(#p4812eda722)" d="M 73.832727 205.353872 
L 250.027154 205.353872 
L 251.658584 206.630171 
L 253.290014 205.164049 
L 254.921444 206.598581 
L 256.552873 205.503708 
L 258.184303 202.538636 
L 259.815733 198.496241 
L 261.447163 199.202022 
L 263.078593 199.023031 
L 264.710023 199.040701 
L 266.341453 200.261657 
L 267.972883 202.7415 
L 269.604312 194.931343 
L 271.235742 190.430384 
L 272.867172 193.178916 
L 274.498602 197.884088 
L 276.130032 200.323529 
L 277.761462 200.456483 
L 279.392892 194.323461 
L 281.024322 192.15142 
L 282.655751 196.727669 
L 284.287181 186.47061 
L 285.918611 193.310086 
L 287.550041 194.55327 
L 289.181471 194.691887 
L 290.812901 189.299023 
L 292.444331 186.196597 
L 294.075761 185.056404 
L 295.70719 173.14408 
L 297.33862 173.63857 
L 298.97005 190.120736 
L 300.60148 181.208864 
L 302.23291 182.286118 
L 303.86434 189.834403 
L 305.49577 192.078781 
L 307.1272 190.615678 
L 308.75863 169.947876 
L 310.390059 174.184566 
L 312.021489 185.873292 
L 313.652919 191.395297 
L 315.284349 186.280866 
L 316.915779 179.601826 
L 318.547209 175.959504 
L 320.178639 180.583094 
L 321.810069 175.302895 
L 323.441498 182.595612 
L 325.072928 173.363983 
L 326.704358 179.645207 
L 328.335788 166.072871 
L 329.967218 179.197088 
L 331.598648 189.171895 
L 333.230078 190.418034 
L 334.861508 188.110859 
L 336.492937 169.567394 
L 338.124367 169.78777 
L 339.755797 167.198821 
L 341.387227 178.122498 
L 343.018657 175.176754 
L 344.650087 153.949752 
L 346.281517 169.466556 
L 347.912947 166.312506 
L 349.544376 165.888317 
L 351.175806 177.156725 
L 352.807236 165.495508 
L 354.438666 155.960661 
L 356.070096 164.34856 
L 359.332956 162.935159 
L 360.964386 167.3296 
L 362.595815 169.420664 
L 364.227245 166.578598 
L 365.858675 156.192352 
L 367.490105 163.05037 
L 369.121535 158.766741 
L 370.752965 173.008571 
L 372.384395 162.765067 
L 374.015825 171.40268 
L 375.647254 171.046825 
L 377.278684 156.901278 
L 378.910114 172.52662 
L 380.541544 158.595562 
L 382.172974 155.510553 
L 383.804404 167.632345 
L 385.435834 156.713426 
L 387.067264 166.303794 
L 388.698693 150.364446 
L 390.330123 165.255779 
L 391.961553 166.805733 
L 393.592983 178.935432 
L 395.224413 152.977075 
L 396.855843 158.301012 
L 398.487273 171.697662 
L 398.487273 171.697662 
" style="fill:none;stroke:#2ca02c;stroke-linecap:square;stroke-width:0.75;"/>
   </g>
   <g id="patch_3">
    <path d="M 57.6 307.584 
L 57.6 41.472 
" style="fill:none;stroke:#000000;stroke-linecap:square;stroke-linejoin:miter;stroke-width:0.8;"/>
   </g>
   <g id="patch_4">
    <path d="M 414.72 307.584 
L 414.72 41.472 
" style="fill:none;stroke:#000000;stroke-linecap:square;stroke-linejoin:miter;stroke-width:0.8;"/>
   </g>
   <g id="patch_5">
    <path d="M 57.6 307.584 
L 414.72 307.584 
" style="fill:none;stroke:#000000;stroke-linecap:square;stroke-linejoin:miter;stroke-width:0.8;"/>
   </g>
   <g id="patch_6">
    <path d="M 57.6 41.472 
L 414.72 41.472 
" style="fill:none;stroke:#000000;stroke-linecap:square;stroke-linejoin:miter;stroke-width:0.8;"/>
   </g>
   <g id="legend_1">
    <g id="patch_7">
     <path d="M 338.234063 78.82825 
L 407.72 78.82825 
Q 409.72 78.82825 409.72 76.82825 
L 409.72 48.472 
Q 409.72 46.472 407.72 46.472 
L 338.234063 46.472 
Q 336.234063 46.472 336.234063 48.472 
L 336.234063 76.82825 
Q 336.234063 78.82825 338.234063 78.82825 
z
" style="fill:#ffffff;opacity:0.8;stroke:#cccccc;stroke-linejoin:miter;"/>
    </g>
    <g id="line2d_17">
     <path d="M 340.234063 54.570437 
L 360.234063 54.570437 
" style="fill:none;stroke:#1f77b4;stroke-linecap:square;stroke-width:0.25;"/>
    </g>
    <g id="line2d_18"/>
    <g id="text_15">
     <!-- median -->
     <defs>
      <path d="M 52 44.1875 
Q 55.375 50.25 60.0625 53.125 
Q 64.75 56 71.09375 56 
Q 79.640625 56 84.28125 50.015625 
Q 88.921875 44.046875 88.921875 33.015625 
L 88.921875 0 
L 79.890625 0 
L 79.890625 32.71875 
Q 79.890625 40.578125 77.09375 44.375 
Q 74.3125 48.1875 68.609375 48.1875 
Q 61.625 48.1875 57.5625 43.546875 
Q 53.515625 38.921875 53.515625 30.90625 
L 53.515625 0 
L 44.484375 0 
L 44.484375 32.71875 
Q 44.484375 40.625 41.703125 44.40625 
Q 38.921875 48.1875 33.109375 48.1875 
Q 26.21875 48.1875 22.15625 43.53125 
Q 18.109375 38.875 18.109375 30.90625 
L 18.109375 0 
L 9.078125 0 
L 9.078125 54.6875 
L 18.109375 54.6875 
L 18.109375 46.1875 
Q 21.1875 51.21875 25.484375 53.609375 
Q 29.78125 56 35.6875 56 
Q 41.65625 56 45.828125 52.96875 
Q 50 49.953125 52 44.1875 
z
" id="DejaVuSans-109"/>
      <path d="M 56.203125 29.59375 
L 56.203125 25.203125 
L 14.890625 25.203125 
Q 15.484375 15.921875 20.484375 11.0625 
Q 25.484375 6.203125 34.421875 6.203125 
Q 39.59375 6.203125 44.453125 7.46875 
Q 49.3125 8.734375 54.109375 11.28125 
L 54.109375 2.78125 
Q 49.265625 0.734375 44.1875 -0.34375 
Q 39.109375 -1.421875 33.890625 -1.421875 
Q 20.796875 -1.421875 13.15625 6.1875 
Q 5.515625 13.8125 5.515625 26.8125 
Q 5.515625 40.234375 12.765625 48.109375 
Q 20.015625 56 32.328125 56 
Q 43.359375 56 49.78125 48.890625 
Q 56.203125 41.796875 56.203125 29.59375 
z
M 47.21875 32.234375 
Q 47.125 39.59375 43.09375 43.984375 
Q 39.0625 48.390625 32.421875 48.390625 
Q 24.90625 48.390625 20.390625 44.140625 
Q 15.875 39.890625 15.1875 32.171875 
z
" id="DejaVuSans-101"/>
      <path d="M 45.40625 46.390625 
L 45.40625 75.984375 
L 54.390625 75.984375 
L 54.390625 0 
L 45.40625 0 
L 45.40625 8.203125 
Q 42.578125 3.328125 38.25 0.953125 
Q 33.9375 -1.421875 27.875 -1.421875 
Q 17.96875 -1.421875 11.734375 6.484375 
Q 5.515625 14.40625 5.515625 27.296875 
Q 5.515625 40.1875 11.734375 48.09375 
Q 17.96875 56 27.875 56 
Q 33.9375 56 38.25 53.625 
Q 42.578125 51.265625 45.40625 46.390625 
z
M 14.796875 27.296875 
Q 14.796875 17.390625 18.875 11.75 
Q 22.953125 6.109375 30.078125 6.109375 
Q 37.203125 6.109375 41.296875 11.75 
Q 45.40625 17.390625 45.40625 27.296875 
Q 45.40625 37.203125 41.296875 42.84375 
Q 37.203125 48.484375 30.078125 48.484375 
Q 22.953125 48.484375 18.875 42.84375 
Q 14.796875 37.203125 14.796875 27.296875 
z
" id="DejaVuSans-100"/>
      <path d="M 9.421875 54.6875 
L 18.40625 54.6875 
L 18.40625 0 
L 9.421875 0 
z
M 9.421875 75.984375 
L 18.40625 75.984375 
L 18.40625 64.59375 
L 9.421875 64.59375 
z
" id="DejaVuSans-105"/>
      <path d="M 34.28125 27.484375 
Q 23.390625 27.484375 19.1875 25 
Q 14.984375 22.515625 14.984375 16.5 
Q 14.984375 11.71875 18.140625 8.90625 
Q 21.296875 6.109375 26.703125 6.109375 
Q 34.1875 6.109375 38.703125 11.40625 
Q 43.21875 16.703125 43.21875 25.484375 
L 43.21875 27.484375 
z
M 52.203125 31.203125 
L 52.203125 0 
L 43.21875 0 
L 43.21875 8.296875 
Q 40.140625 3.328125 35.546875 0.953125 
Q 30.953125 -1.421875 24.3125 -1.421875 
Q 15.921875 -1.421875 10.953125 3.296875 
Q 6 8.015625 6 15.921875 
Q 6 25.140625 12.171875 29.828125 
Q 18.359375 34.515625 30.609375 34.515625 
L 43.21875 34.515625 
L 43.21875 35.40625 
Q 43.21875 41.609375 39.140625 45 
Q 35.0625 48.390625 27.6875 48.390625 
Q 23 48.390625 18.546875 47.265625 
Q 14.109375 46.140625 10.015625 43.890625 
L 10.015625 52.203125 
Q 14.9375 54.109375 19.578125 55.046875 
Q 24.21875 56 28.609375 56 
Q 40.484375 56 46.34375 49.84375 
Q 52.203125 43.703125 52.203125 31.203125 
z
" id="DejaVuSans-97"/>
      <path d="M 54.890625 33.015625 
L 54.890625 0 
L 45.90625 0 
L 45.90625 32.71875 
Q 45.90625 40.484375 42.875 44.328125 
Q 39.84375 48.1875 33.796875 48.1875 
Q 26.515625 48.1875 22.3125 43.546875 
Q 18.109375 38.921875 18.109375 30.90625 
L 18.109375 0 
L 9.078125 0 
L 9.078125 54.6875 
L 18.109375 54.6875 
L 18.109375 46.1875 
Q 21.34375 51.125 25.703125 53.5625 
Q 30.078125 56 35.796875 56 
Q 45.21875 56 50.046875 50.171875 
Q 54.890625 44.34375 54.890625 33.015625 
z
" id="DejaVuSans-110"/>
     </defs>
     <g transform="translate(368.234063 58.070437)scale(0.1 -0.1)">
      <use xlink:href="#DejaVuSans-109"/>
      <use x="97.412109" xlink:href="#DejaVuSans-101"/>
      <use x="158.935547" xlink:href="#DejaVuSans-100"/>
      <use x="222.412109" xlink:href="#DejaVuSans-105"/>
      <use x="250.195312" xlink:href="#DejaVuSans-97"/>
      <use x="311.474609" xlink:href="#DejaVuSans-110"/>
     </g>
    </g>
    <g id="line2d_19">
     <path d="M 340.234063 69.248562 
L 360.234063 69.248562 
" style="fill:none;stroke:#2ca02c;stroke-linecap:square;stroke-width:0.75;"/>
    </g>
    <g id="line2d_20"/>
    <g id="text_16">
     <!-- mean -->
     <g transform="translate(368.234063 72.748562)scale(0.1 -0.1)">
      <use xlink:href="#DejaVuSans-109"/>
      <use x="97.412109" xlink:href="#DejaVuSans-101"/>
      <use x="158.935547" xlink:href="#DejaVuSans-97"/>
      <use x="220.214844" xlink:href="#DejaVuSans-110"/>
     </g>
    </g>
   </g>
  </g>
  <g id="text_17">
   <!-- accuracy.mean over generations -->
   <defs>
    <path d="M 48.78125 52.59375 
L 48.78125 44.1875 
Q 44.96875 46.296875 41.140625 47.34375 
Q 37.3125 48.390625 33.40625 48.390625 
Q 24.65625 48.390625 19.8125 42.84375 
Q 14.984375 37.3125 14.984375 27.296875 
Q 14.984375 17.28125 19.8125 11.734375 
Q 24.65625 6.203125 33.40625 6.203125 
Q 37.3125 6.203125 41.140625 7.25 
Q 44.96875 8.296875 48.78125 10.40625 
L 48.78125 2.09375 
Q 45.015625 0.34375 40.984375 -0.53125 
Q 36.96875 -1.421875 32.421875 -1.421875 
Q 20.0625 -1.421875 12.78125 6.34375 
Q 5.515625 14.109375 5.515625 27.296875 
Q 5.515625 40.671875 12.859375 48.328125 
Q 20.21875 56 33.015625 56 
Q 37.15625 56 41.109375 55.140625 
Q 45.0625 54.296875 48.78125 52.59375 
z
" id="DejaVuSans-99"/>
    <path d="M 8.5 21.578125 
L 8.5 54.6875 
L 17.484375 54.6875 
L 17.484375 21.921875 
Q 17.484375 14.15625 20.5 10.265625 
Q 23.53125 6.390625 29.59375 6.390625 
Q 36.859375 6.390625 41.078125 11.03125 
Q 45.3125 15.671875 45.3125 23.6875 
L 45.3125 54.6875 
L 54.296875 54.6875 
L 54.296875 0 
L 45.3125 0 
L 45.3125 8.40625 
Q 42.046875 3.421875 37.71875 1 
Q 33.40625 -1.421875 27.6875 -1.421875 
Q 18.265625 -1.421875 13.375 4.4375 
Q 8.5 10.296875 8.5 21.578125 
z
M 31.109375 56 
z
" id="DejaVuSans-117"/>
    <path d="M 41.109375 46.296875 
Q 39.59375 47.171875 37.8125 47.578125 
Q 36.03125 48 33.890625 48 
Q 26.265625 48 22.1875 43.046875 
Q 18.109375 38.09375 18.109375 28.8125 
L 18.109375 0 
L 9.078125 0 
L 9.078125 54.6875 
L 18.109375 54.6875 
L 18.109375 46.1875 
Q 20.953125 51.171875 25.484375 53.578125 
Q 30.03125 56 36.53125 56 
Q 37.453125 56 38.578125 55.875 
Q 39.703125 55.765625 41.0625 55.515625 
z
" id="DejaVuSans-114"/>
    <path d="M 32.171875 -5.078125 
Q 28.375 -14.84375 24.75 -17.8125 
Q 21.140625 -20.796875 15.09375 -20.796875 
L 7.90625 -20.796875 
L 7.90625 -13.28125 
L 13.1875 -13.28125 
Q 16.890625 -13.28125 18.9375 -11.515625 
Q 21 -9.765625 23.484375 -3.21875 
L 25.09375 0.875 
L 2.984375 54.6875 
L 12.5 54.6875 
L 29.59375 11.921875 
L 46.6875 54.6875 
L 56.203125 54.6875 
z
" id="DejaVuSans-121"/>
    <path id="DejaVuSans-32"/>
    <path d="M 30.609375 48.390625 
Q 23.390625 48.390625 19.1875 42.75 
Q 14.984375 37.109375 14.984375 27.296875 
Q 14.984375 17.484375 19.15625 11.84375 
Q 23.34375 6.203125 30.609375 6.203125 
Q 37.796875 6.203125 41.984375 11.859375 
Q 46.1875 17.53125 46.1875 27.296875 
Q 46.1875 37.015625 41.984375 42.703125 
Q 37.796875 48.390625 30.609375 48.390625 
z
M 30.609375 56 
Q 42.328125 56 49.015625 48.375 
Q 55.71875 40.765625 55.71875 27.296875 
Q 55.71875 13.875 49.015625 6.21875 
Q 42.328125 -1.421875 30.609375 -1.421875 
Q 18.84375 -1.421875 12.171875 6.21875 
Q 5.515625 13.875 5.515625 27.296875 
Q 5.515625 40.765625 12.171875 48.375 
Q 18.84375 56 30.609375 56 
z
" id="DejaVuSans-111"/>
    <path d="M 2.984375 54.6875 
L 12.5 54.6875 
L 29.59375 8.796875 
L 46.6875 54.6875 
L 56.203125 54.6875 
L 35.6875 0 
L 23.484375 0 
z
" id="DejaVuSans-118"/>
    <path d="M 45.40625 27.984375 
Q 45.40625 37.75 41.375 43.109375 
Q 37.359375 48.484375 30.078125 48.484375 
Q 22.859375 48.484375 18.828125 43.109375 
Q 14.796875 37.75 14.796875 27.984375 
Q 14.796875 18.265625 18.828125 12.890625 
Q 22.859375 7.515625 30.078125 7.515625 
Q 37.359375 7.515625 41.375 12.890625 
Q 45.40625 18.265625 45.40625 27.984375 
z
M 54.390625 6.78125 
Q 54.390625 -7.171875 48.1875 -13.984375 
Q 42 -20.796875 29.203125 -20.796875 
Q 24.46875 -20.796875 20.265625 -20.09375 
Q 16.0625 -19.390625 12.109375 -17.921875 
L 12.109375 -9.1875 
Q 16.0625 -11.328125 19.921875 -12.34375 
Q 23.78125 -13.375 27.78125 -13.375 
Q 36.625 -13.375 41.015625 -8.765625 
Q 45.40625 -4.15625 45.40625 5.171875 
L 45.40625 9.625 
Q 42.625 4.78125 38.28125 2.390625 
Q 33.9375 0 27.875 0 
Q 17.828125 0 11.671875 7.65625 
Q 5.515625 15.328125 5.515625 27.984375 
Q 5.515625 40.671875 11.671875 48.328125 
Q 17.828125 56 27.875 56 
Q 33.9375 56 38.28125 53.609375 
Q 42.625 51.21875 45.40625 46.390625 
L 45.40625 54.6875 
L 54.390625 54.6875 
z
" id="DejaVuSans-103"/>
    <path d="M 18.3125 70.21875 
L 18.3125 54.6875 
L 36.8125 54.6875 
L 36.8125 47.703125 
L 18.3125 47.703125 
L 18.3125 18.015625 
Q 18.3125 11.328125 20.140625 9.421875 
Q 21.96875 7.515625 27.59375 7.515625 
L 36.8125 7.515625 
L 36.8125 0 
L 27.59375 0 
Q 17.1875 0 13.234375 3.875 
Q 9.28125 7.765625 9.28125 18.015625 
L 9.28125 47.703125 
L 2.6875 47.703125 
L 2.6875 54.6875 
L 9.28125 54.6875 
L 9.28125 70.21875 
z
" id="DejaVuSans-116"/>
    <path d="M 44.28125 53.078125 
L 44.28125 44.578125 
Q 40.484375 46.53125 36.375 47.5 
Q 32.28125 48.484375 27.875 48.484375 
Q 21.1875 48.484375 17.84375 46.4375 
Q 14.5 44.390625 14.5 40.28125 
Q 14.5 37.15625 16.890625 35.375 
Q 19.28125 33.59375 26.515625 31.984375 
L 29.59375 31.296875 
Q 39.15625 29.25 43.1875 25.515625 
Q 47.21875 21.78125 47.21875 15.09375 
Q 47.21875 7.46875 41.1875 3.015625 
Q 35.15625 -1.421875 24.609375 -1.421875 
Q 20.21875 -1.421875 15.453125 -0.5625 
Q 10.6875 0.296875 5.421875 2 
L 5.421875 11.28125 
Q 10.40625 8.6875 15.234375 7.390625 
Q 20.0625 6.109375 24.8125 6.109375 
Q 31.15625 6.109375 34.5625 8.28125 
Q 37.984375 10.453125 37.984375 14.40625 
Q 37.984375 18.0625 35.515625 20.015625 
Q 33.0625 21.96875 24.703125 23.78125 
L 21.578125 24.515625 
Q 13.234375 26.265625 9.515625 29.90625 
Q 5.8125 33.546875 5.8125 39.890625 
Q 5.8125 47.609375 11.28125 51.796875 
Q 16.75 56 26.8125 56 
Q 31.78125 56 36.171875 55.265625 
Q 40.578125 54.546875 44.28125 53.078125 
z
" id="DejaVuSans-115"/>
   </defs>
   <g transform="translate(132.309375 16.030125)scale(0.12 -0.12)">
    <use xlink:href="#DejaVuSans-97"/>
    <use x="61.279297" xlink:href="#DejaVuSans-99"/>
    <use x="116.259766" xlink:href="#DejaVuSans-99"/>
    <use x="171.240234" xlink:href="#DejaVuSans-117"/>
    <use x="234.619141" xlink:href="#DejaVuSans-114"/>
    <use x="275.732422" xlink:href="#DejaVuSans-97"/>
    <use x="337.011719" xlink:href="#DejaVuSans-99"/>
    <use x="391.992188" xlink:href="#DejaVuSans-121"/>
    <use x="436.921875" xlink:href="#DejaVuSans-46"/>
    <use x="468.708984" xlink:href="#DejaVuSans-109"/>
    <use x="566.121094" xlink:href="#DejaVuSans-101"/>
    <use x="627.644531" xlink:href="#DejaVuSans-97"/>
    <use x="688.923828" xlink:href="#DejaVuSans-110"/>
    <use x="752.302734" xlink:href="#DejaVuSans-32"/>
    <use x="784.089844" xlink:href="#DejaVuSans-111"/>
    <use x="845.271484" xlink:href="#DejaVuSans-118"/>
    <use x="904.451172" xlink:href="#DejaVuSans-101"/>
    <use x="965.974609" xlink:href="#DejaVuSans-114"/>
    <use x="1007.087891" xlink:href="#DejaVuSans-32"/>
    <use x="1038.875" xlink:href="#DejaVuSans-103"/>
    <use x="1102.351562" xlink:href="#DejaVuSans-101"/>
    <use x="1163.875" xlink:href="#DejaVuSans-110"/>
    <use x="1227.253906" xlink:href="#DejaVuSans-101"/>
    <use x="1288.777344" xlink:href="#DejaVuSans-114"/>
    <use x="1329.890625" xlink:href="#DejaVuSans-97"/>
    <use x="1391.169922" xlink:href="#DejaVuSans-116"/>
    <use x="1430.378906" xlink:href="#DejaVuSans-105"/>
    <use x="1458.162109" xlink:href="#DejaVuSans-111"/>
    <use x="1519.34375" xlink:href="#DejaVuSans-110"/>
    <use x="1582.722656" xlink:href="#DejaVuSans-115"/>
   </g>
  </g>
 </g>
 <defs>
  <clipPath id="p4812eda722">
   <rect height="266.112" width="357.12" x="57.6" y="41.472"/>
  </clipPath>
 </defs>
</svg>
