<?xml version="1.0" encoding="utf-8" standalone="no"?>
<!DOCTYPE svg PUBLIC "-//W3C//DTD SVG 1.1//EN"
  "http://www.w3.org/Graphics/SVG/1.1/DTD/svg11.dtd">
<!-- Created with matplotlib (https://matplotlib.org/) -->
<svg height="345.6pt" version="1.1" viewBox="0 0 460.8 345.6" width="460.8pt" xmlns="http://www.w3.org/2000/svg" xmlns:xlink="http://www.w3.org/1999/xlink">
 <defs>
  <style type="text/css">
*{stroke-linecap:butt;stroke-linejoin:round;}
  </style>
 </defs>
 <g id="figure_1">
  <g id="patch_1">
   <path d="M 0 345.6 
L 460.8 345.6 
L 460.8 0 
L 0 0 
z
" style="fill:#ffffff;"/>
  </g>
  <g id="axes_1">
   <g id="patch_2">
    <path d="M 57.6 307.584 
L 414.72 307.584 
L 414.72 41.472 
L 57.6 41.472 
z
" style="fill:#ffffff;"/>
   </g>
   <g id="PolyCollection_1">
    <path clip-path="url(#p635f17c312)" d="M 73.832727 288.721937 
L 73.832727 289.565278 
L 75.464157 289.565278 
L 77.095587 289.565278 
L 78.727017 289.565599 
L 80.358447 289.664316 
L 81.989877 289.642313 
L 83.621307 289.596171 
L 85.252736 289.665292 
L 86.884166 289.706579 
L 88.515596 289.641074 
L 90.147026 289.663964 
L 91.778456 289.590965 
L 93.409886 289.660701 
L 95.041316 289.666368 
L 96.672746 289.645534 
L 98.304175 289.74512 
L 99.935605 289.676856 
L 101.567035 289.744838 
L 103.198465 289.618176 
L 104.829895 289.667401 
L 106.461325 289.752926 
L 108.092755 289.603572 
L 109.724185 289.612628 
L 111.355614 289.659602 
L 112.987044 289.803276 
L 114.618474 289.592313 
L 116.249904 289.735088 
L 117.881334 289.620797 
L 119.512764 289.646387 
L 121.144194 289.777064 
L 122.775624 289.138838 
L 124.407053 288.980316 
L 126.038483 289.650054 
L 127.669913 289.634641 
L 129.301343 289.644066 
L 130.932773 289.7459 
L 132.564203 289.609639 
L 134.195633 289.634779 
L 135.827063 289.678699 
L 137.458492 288.834963 
L 139.089922 289.654111 
L 140.721352 289.776609 
L 142.352782 289.679694 
L 143.984212 289.73411 
L 145.615642 289.742067 
L 147.247072 289.789051 
L 148.878502 289.657195 
L 150.509931 289.663171 
L 152.141361 289.066426 
L 153.772791 289.583458 
L 155.404221 289.654101 
L 157.035651 289.772971 
L 158.667081 289.700228 
L 160.298511 289.669417 
L 161.929941 289.69926 
L 163.56137 289.615066 
L 165.1928 289.804048 
L 166.82423 289.655436 
L 168.45566 289.697336 
L 170.08709 289.588327 
L 171.71852 289.617815 
L 173.34995 289.67353 
L 174.98138 290.625683 
L 176.61281 290.425069 
L 178.244239 290.354797 
L 179.875669 289.660848 
L 181.507099 290.194537 
L 183.138529 291.913515 
L 184.769959 292.224411 
L 186.401389 292.423554 
L 188.032819 291.165063 
L 189.664249 292.854762 
L 191.295678 292.058715 
L 192.927108 292.333042 
L 194.558538 290.803638 
L 196.189968 289.796582 
L 197.821398 291.411623 
L 199.452828 289.743352 
L 201.084258 290.944418 
L 202.715688 293.798434 
L 204.347117 289.951446 
L 205.978547 289.631058 
L 207.609977 291.912749 
L 209.241407 289.668253 
L 210.872837 290.50631 
L 212.504267 292.278721 
L 214.135697 291.011229 
L 215.767127 293.878893 
L 217.398556 291.596616 
L 219.029986 294.094047 
L 220.661416 294.688338 
L 222.292846 289.815901 
L 223.924276 293.262968 
L 225.555706 294.433508 
L 227.187136 292.249915 
L 228.818566 293.128383 
L 230.449995 291.987655 
L 232.081425 289.761095 
L 233.712855 290.30295 
L 235.344285 294.543378 
L 236.975715 290.313396 
L 238.607145 294.643137 
L 240.238575 289.683603 
L 241.870005 292.274574 
L 243.501434 293.228683 
L 245.132864 291.99439 
L 246.764294 289.670908 
L 248.395724 291.450232 
L 250.027154 289.720229 
L 251.658584 291.911228 
L 253.290014 289.609808 
L 254.921444 289.664403 
L 256.552873 292.23843 
L 258.184303 289.691761 
L 259.815733 290.405657 
L 261.447163 291.683554 
L 263.078593 292.061356 
L 264.710023 294.600088 
L 266.341453 292.715093 
L 267.972883 294.329917 
L 269.604312 289.680618 
L 271.235742 295.045665 
L 272.867172 293.749928 
L 274.498602 293.25923 
L 276.130032 292.39486 
L 277.761462 294.861653 
L 279.392892 294.339348 
L 281.024322 293.437825 
L 282.655751 292.066447 
L 284.287181 291.490425 
L 285.918611 291.831456 
L 287.550041 294.309599 
L 289.181471 294.908644 
L 290.812901 294.55827 
L 292.444331 292.399718 
L 294.075761 292.954732 
L 295.70719 294.433791 
L 297.33862 292.402472 
L 298.97005 292.197623 
L 300.60148 294.862472 
L 302.23291 294.644676 
L 303.86434 294.758628 
L 305.49577 294.512738 
L 307.1272 292.533935 
L 308.75863 293.74009 
L 310.390059 291.928019 
L 312.021489 292.460686 
L 313.652919 294.680251 
L 315.284349 294.574948 
L 316.915779 291.616416 
L 318.547209 292.457277 
L 320.178639 291.463421 
L 321.810069 292.421082 
L 323.441498 294.780788 
L 325.072928 293.259347 
L 326.704358 291.418553 
L 328.335788 292.025563 
L 329.967218 294.963419 
L 331.598648 293.167465 
L 333.230078 291.405333 
L 334.861508 289.612827 
L 336.492937 289.67644 
L 338.124367 294.653867 
L 339.755797 292.350433 
L 341.387227 290.117301 
L 343.018657 289.707515 
L 344.650087 289.684025 
L 346.281517 291.46307 
L 347.912947 294.926802 
L 349.544376 292.371608 
L 351.175806 292.959603 
L 352.807236 292.863685 
L 354.438666 295.053313 
L 356.070096 294.983456 
L 357.701526 291.474436 
L 359.332956 294.312282 
L 360.964386 292.368562 
L 362.595815 289.703283 
L 364.227245 289.784077 
L 365.858675 292.547592 
L 367.490105 295.071119 
L 369.121535 295.084791 
L 370.752965 294.670307 
L 372.384395 293.217008 
L 374.015825 291.648789 
L 375.647254 291.395963 
L 377.278684 293.227379 
L 378.910114 291.375126 
L 380.541544 293.64668 
L 382.172974 294.813174 
L 383.804404 292.371524 
L 385.435834 291.331362 
L 387.067264 291.500233 
L 388.698693 291.290342 
L 390.330123 292.639645 
L 391.961553 292.177617 
L 393.592983 291.722547 
L 395.224413 290.245576 
L 396.855843 289.646236 
L 398.487273 289.69541 
L 398.487273 263.425326 
L 398.487273 263.425326 
L 396.855843 244.039398 
L 395.224413 239.367508 
L 393.592983 256.936408 
L 391.961553 253.010183 
L 390.330123 237.369798 
L 388.698693 230.520375 
L 387.067264 240.856626 
L 385.435834 254.337108 
L 383.804404 247.332706 
L 382.172974 248.919162 
L 380.541544 249.115529 
L 378.910114 235.792017 
L 377.278684 255.336081 
L 375.647254 245.743543 
L 374.015825 254.185778 
L 372.384395 258.45983 
L 370.752965 270.040345 
L 369.121535 272.562827 
L 367.490105 254.855839 
L 365.858675 255.964744 
L 364.227245 257.818155 
L 362.595815 246.748712 
L 360.964386 257.765578 
L 359.332956 268.071189 
L 357.701526 235.610652 
L 356.070096 257.653981 
L 354.438666 256.962329 
L 352.807236 260.625265 
L 351.175806 264.37325 
L 349.544376 256.421873 
L 347.912947 251.995547 
L 346.281517 243.356867 
L 344.650087 245.351863 
L 343.018657 264.150727 
L 341.387227 248.47587 
L 339.755797 250.294316 
L 338.124367 247.920612 
L 336.492937 248.737837 
L 334.861508 234.835704 
L 333.230078 255.550532 
L 331.598648 259.400624 
L 329.967218 253.119995 
L 328.335788 248.701952 
L 326.704358 244.630802 
L 325.072928 248.003649 
L 323.441498 263.308782 
L 321.810069 241.313657 
L 320.178639 252.31656 
L 318.547209 241.106163 
L 316.915779 267.236413 
L 315.284349 262.555975 
L 313.652919 266.333916 
L 312.021489 252.487295 
L 310.390059 245.950994 
L 308.75863 269.202595 
L 307.1272 257.279646 
L 305.49577 264.291786 
L 303.86434 265.387018 
L 302.23291 255.901317 
L 300.60148 260.006976 
L 298.97005 254.504297 
L 297.33862 256.467687 
L 295.70719 272.476729 
L 294.075761 237.491993 
L 292.444331 242.910878 
L 290.812901 252.306302 
L 289.181471 261.226057 
L 287.550041 251.096922 
L 285.918611 241.408758 
L 284.287181 247.059576 
L 282.655751 217.49906 
L 281.024322 243.598916 
L 279.392892 259.892059 
L 277.761462 254.305761 
L 276.130032 264.088366 
L 274.498602 247.051988 
L 272.867172 228.5708 
L 271.235742 251.518587 
L 269.604312 257.437687 
L 267.972883 258.16521 
L 266.341453 251.87946 
L 264.710023 238.306478 
L 263.078593 274.427056 
L 261.447163 262.812995 
L 259.815733 251.912733 
L 258.184303 259.503311 
L 256.552873 271.824679 
L 254.921444 256.385442 
L 253.290014 240.351759 
L 251.658584 235.043916 
L 250.027154 256.987809 
L 248.395724 243.170816 
L 246.764294 263.190821 
L 245.132864 245.344207 
L 243.501434 225.760449 
L 241.870005 257.886267 
L 240.238575 254.111417 
L 238.607145 254.048933 
L 236.975715 276.161239 
L 235.344285 238.887842 
L 233.712855 248.007038 
L 232.081425 262.651468 
L 230.449995 249.925574 
L 228.818566 230.164225 
L 227.187136 246.086404 
L 225.555706 228.117127 
L 223.924276 268.474634 
L 222.292846 262.684946 
L 220.661416 249.168946 
L 219.029986 259.558649 
L 217.398556 260.515262 
L 215.767127 221.783652 
L 214.135697 252.877572 
L 212.504267 253.329827 
L 210.872837 254.698548 
L 209.241407 236.332364 
L 207.609977 245.013431 
L 205.978547 256.959228 
L 204.347117 251.298847 
L 202.715688 241.633613 
L 201.084258 250.828632 
L 199.452828 268.55182 
L 197.821398 254.373092 
L 196.189968 245.386855 
L 194.558538 248.918927 
L 192.927108 255.616006 
L 191.295678 241.564342 
L 189.664249 262.344515 
L 188.032819 245.412251 
L 186.401389 240.176865 
L 184.769959 260.401449 
L 183.138529 260.947274 
L 181.507099 268.187323 
L 179.875669 247.865577 
L 178.244239 262.991258 
L 176.61281 262.695483 
L 174.98138 258.835057 
L 173.34995 256.66947 
L 171.71852 239.357277 
L 170.08709 233.749917 
L 168.45566 243.842608 
L 166.82423 230.467673 
L 165.1928 240.229438 
L 163.56137 235.095004 
L 161.929941 257.737927 
L 160.298511 239.194534 
L 158.667081 252.780779 
L 157.035651 254.343917 
L 155.404221 250.809793 
L 153.772791 248.224941 
L 152.141361 254.815344 
L 150.509931 258.087478 
L 148.878502 258.820628 
L 147.247072 266.125009 
L 145.615642 261.655708 
L 143.984212 259.309133 
L 142.352782 256.834546 
L 140.721352 266.59178 
L 139.089922 249.536996 
L 137.458492 237.746367 
L 135.827063 249.702932 
L 134.195633 241.969863 
L 132.564203 253.753376 
L 130.932773 268.415185 
L 129.301343 256.272098 
L 127.669913 260.744989 
L 126.038483 263.599197 
L 124.407053 239.930009 
L 122.775624 249.946333 
L 121.144194 272.385557 
L 119.512764 242.403043 
L 117.881334 246.490551 
L 116.249904 267.331182 
L 114.618474 257.669512 
L 112.987044 268.540197 
L 111.355614 266.404821 
L 109.724185 265.943033 
L 108.092755 263.073277 
L 106.461325 285.480778 
L 104.829895 288.347677 
L 103.198465 262.2102 
L 101.567035 289.015549 
L 99.935605 288.994411 
L 98.304175 289.164141 
L 96.672746 288.98381 
L 95.041316 289.01283 
L 93.409886 288.981822 
L 91.778456 288.915494 
L 90.147026 288.970286 
L 88.515596 288.980785 
L 86.884166 288.669025 
L 85.252736 289.031123 
L 83.621307 289.293291 
L 81.989877 288.7643 
L 80.358447 288.999891 
L 78.727017 288.888744 
L 77.095587 288.721937 
L 75.464157 288.721937 
L 73.832727 288.721937 
z
" style="fill:#1f77b4;fill-opacity:0.2;"/>
   </g>
   <g id="PolyCollection_2">
    <path clip-path="url(#p635f17c312)" d="M 73.832727 288.721937 
L 73.832727 289.565278 
L 75.464157 289.565379 
L 77.095587 289.676052 
L 78.727017 289.67652 
L 80.358447 289.675966 
L 81.989877 289.674501 
L 83.621307 289.673254 
L 85.252736 289.68134 
L 86.884166 289.71619 
L 88.515596 289.675271 
L 90.147026 289.677419 
L 91.778456 289.684549 
L 93.409886 289.66946 
L 95.041316 289.792673 
L 96.672746 289.78972 
L 98.304175 289.856828 
L 99.935605 289.810368 
L 101.567035 289.852131 
L 103.198465 289.796941 
L 104.829895 289.79948 
L 106.461325 290.289862 
L 108.092755 290.299145 
L 109.724185 290.58693 
L 111.355614 290.586714 
L 112.987044 290.714 
L 114.618474 290.318602 
L 116.249904 290.61353 
L 117.881334 290.609173 
L 119.512764 290.625228 
L 121.144194 290.811832 
L 122.775624 290.61941 
L 124.407053 290.613061 
L 126.038483 290.61104 
L 127.669913 290.608083 
L 129.301343 290.605923 
L 130.932773 290.698124 
L 132.564203 290.612639 
L 134.195633 290.607289 
L 135.827063 290.611854 
L 137.458492 290.605113 
L 139.089922 290.604194 
L 140.721352 290.699997 
L 142.352782 290.596602 
L 143.984212 290.602875 
L 145.615642 290.6767 
L 147.247072 290.754096 
L 148.878502 290.721838 
L 150.509931 290.928947 
L 152.141361 291.827708 
L 153.772791 291.835211 
L 155.404221 291.820802 
L 157.035651 292.636338 
L 158.667081 292.634777 
L 160.298511 292.627295 
L 161.929941 292.692095 
L 163.56137 292.610859 
L 165.1928 292.634721 
L 166.82423 292.705133 
L 168.45566 292.93321 
L 170.08709 292.920546 
L 171.71852 292.908365 
L 173.34995 293.224185 
L 174.98138 293.083366 
L 176.61281 293.162366 
L 178.244239 293.584065 
L 179.875669 293.655407 
L 181.507099 293.754617 
L 183.138529 293.603099 
L 184.769959 293.875279 
L 186.401389 293.639846 
L 188.032819 293.635369 
L 189.664249 293.712876 
L 191.295678 293.756446 
L 192.927108 293.753504 
L 194.558538 293.994728 
L 196.189968 294.645632 
L 197.821398 294.632599 
L 199.452828 294.866025 
L 201.084258 294.900073 
L 202.715688 294.774045 
L 204.347117 294.761569 
L 205.978547 295.028705 
L 207.609977 294.767953 
L 209.241407 294.764366 
L 210.872837 294.882608 
L 212.504267 295.013442 
L 214.135697 294.861645 
L 215.767127 294.808961 
L 217.398556 295.037628 
L 219.029986 295.084331 
L 220.661416 294.797825 
L 222.292846 294.792861 
L 223.924276 295.237232 
L 225.555706 294.795289 
L 227.187136 294.786473 
L 228.818566 294.778007 
L 230.449995 294.768789 
L 232.081425 294.762428 
L 233.712855 294.894724 
L 235.344285 294.724406 
L 236.975715 294.928522 
L 238.607145 294.729747 
L 240.238575 295.148902 
L 241.870005 295.085338 
L 243.501434 295.166717 
L 245.132864 294.770474 
L 246.764294 295.374143 
L 248.395724 294.82009 
L 250.027154 294.783842 
L 251.658584 294.772761 
L 253.290014 294.770112 
L 254.921444 294.974971 
L 256.552873 294.768035 
L 258.184303 294.834674 
L 259.815733 295.015945 
L 261.447163 294.902649 
L 263.078593 294.960921 
L 264.710023 294.819246 
L 266.341453 294.868354 
L 267.972883 294.818233 
L 269.604312 294.939378 
L 271.235742 295.061075 
L 272.867172 294.809182 
L 274.498602 295.075364 
L 276.130032 295.167398 
L 277.761462 294.917197 
L 279.392892 294.764804 
L 281.024322 294.748367 
L 282.655751 294.744093 
L 284.287181 294.989185 
L 285.918611 294.983366 
L 287.550041 294.976094 
L 289.181471 295.212994 
L 290.812901 295.076155 
L 292.444331 295.071174 
L 294.075761 295.067374 
L 295.70719 295.047671 
L 297.33862 295.125981 
L 298.97005 295.125406 
L 300.60148 295.227397 
L 302.23291 295.15563 
L 303.86434 295.214665 
L 305.49577 295.017852 
L 307.1272 294.987264 
L 308.75863 295.00307 
L 310.390059 295.11432 
L 312.021489 295.31287 
L 313.652919 295.378659 
L 315.284349 295.072955 
L 316.915779 295.070348 
L 318.547209 295.066429 
L 320.178639 295.113091 
L 321.810069 295.066419 
L 323.441498 295.381733 
L 325.072928 295.052855 
L 326.704358 295.068224 
L 328.335788 295.211603 
L 329.967218 295.047681 
L 331.598648 295.222076 
L 333.230078 295.048375 
L 334.861508 295.128373 
L 336.492937 295.051246 
L 338.124367 295.044254 
L 339.755797 295.04179 
L 341.387227 295.027851 
L 343.018657 295.020759 
L 344.650087 295.114846 
L 346.281517 295.112741 
L 347.912947 295.111824 
L 349.544376 295.075949 
L 351.175806 295.128994 
L 352.807236 295.098694 
L 354.438666 295.124384 
L 356.070096 295.353375 
L 357.701526 295.028601 
L 359.332956 295.02282 
L 360.964386 295.188192 
L 362.595815 295.077714 
L 364.227245 295.065322 
L 365.858675 295.10333 
L 367.490105 295.132537 
L 369.121535 295.488 
L 370.752965 295.067827 
L 372.384395 295.249889 
L 374.015825 295.055299 
L 375.647254 295.054859 
L 377.278684 295.204816 
L 378.910114 295.024796 
L 380.541544 295.284425 
L 382.172974 295.049944 
L 383.804404 295.108724 
L 385.435834 295.102643 
L 387.067264 295.092108 
L 388.698693 295.181257 
L 390.330123 295.323545 
L 391.961553 295.054631 
L 393.592983 295.229958 
L 395.224413 295.084504 
L 396.855843 295.082481 
L 398.487273 295.209851 
L 398.487273 163.035888 
L 398.487273 163.035888 
L 396.855843 134.818172 
L 395.224413 136.153456 
L 393.592983 134.818172 
L 391.961553 162.998936 
L 390.330123 134.818172 
L 388.698693 134.818172 
L 387.067264 155.148829 
L 385.435834 134.818172 
L 383.804404 152.520363 
L 382.172974 135.982831 
L 380.541544 134.818172 
L 378.910114 134.818172 
L 377.278684 134.818172 
L 375.647254 134.818172 
L 374.015825 162.924582 
L 372.384395 134.818172 
L 370.752965 166.142415 
L 369.121535 134.817089 
L 367.490105 134.818172 
L 365.858675 134.818172 
L 364.227245 162.766485 
L 362.595815 110.069623 
L 360.964386 107.363193 
L 359.332956 130.682526 
L 357.701526 64.761411 
L 356.070096 134.818172 
L 354.438666 148.941415 
L 352.807236 134.818172 
L 351.175806 134.818172 
L 349.544376 134.818172 
L 347.912947 70.944226 
L 346.281517 65.754328 
L 344.650087 134.818172 
L 343.018657 166.352211 
L 341.387227 164.503391 
L 339.755797 138.516117 
L 338.124367 134.818172 
L 336.492937 161.001058 
L 334.861508 134.818172 
L 333.230078 160.311611 
L 331.598648 94.210205 
L 329.967218 134.818172 
L 328.335788 134.818172 
L 326.704358 134.818172 
L 325.072928 134.818172 
L 323.441498 134.818172 
L 321.810069 158.00628 
L 320.178639 134.818172 
L 318.547209 131.927633 
L 316.915779 140.755431 
L 315.284349 163.296582 
L 313.652919 134.370201 
L 312.021489 134.818172 
L 310.390059 134.818172 
L 308.75863 158.783205 
L 307.1272 191.381641 
L 305.49577 134.818848 
L 303.86434 134.818172 
L 302.23291 134.818172 
L 300.60148 145.19911 
L 298.97005 134.818172 
L 297.33862 62.79729 
L 295.70719 199.563873 
L 294.075761 134.818172 
L 292.444331 134.453205 
L 290.812901 62.99302 
L 289.181471 146.806048 
L 287.550041 154.572787 
L 285.918611 134.818172 
L 284.287181 134.818172 
L 282.655751 70.468036 
L 281.024322 146.817559 
L 279.392892 135.784083 
L 277.761462 134.542037 
L 276.130032 134.818172 
L 274.498602 134.466004 
L 272.867172 134.818171 
L 271.235742 131.629459 
L 269.604312 134.818172 
L 267.972883 160.427832 
L 266.341453 134.818172 
L 264.710023 132.115695 
L 263.078593 177.499672 
L 261.447163 158.542481 
L 259.815733 132.38424 
L 258.184303 165.149515 
L 256.552873 174.858612 
L 254.921444 137.365722 
L 253.290014 132.585564 
L 251.658584 53.568 
L 250.027154 152.365342 
L 248.395724 134.506712 
L 246.764294 134.818172 
L 245.132864 132.017475 
L 243.501434 53.568 
L 241.870005 134.818172 
L 240.238575 134.818172 
L 238.607145 132.034369 
L 236.975715 134.818172 
L 235.344285 134.818172 
L 233.712855 134.818172 
L 232.081425 177.846228 
L 230.449995 135.217596 
L 228.818566 132.214826 
L 227.187136 150.127299 
L 225.555706 134.818172 
L 223.924276 134.818172 
L 222.292846 175.147989 
L 220.661416 140.209247 
L 219.029986 134.818172 
L 217.398556 140.196872 
L 215.767127 134.818172 
L 214.135697 152.190466 
L 212.504267 134.440913 
L 210.872837 134.817993 
L 209.241407 134.818172 
L 207.609977 138.085581 
L 205.978547 134.818172 
L 204.347117 161.888622 
L 202.715688 133.080927 
L 201.084258 64.713031 
L 199.452828 141.610867 
L 197.821398 162.327753 
L 196.189968 134.818172 
L 194.558538 134.818172 
L 192.927108 139.088306 
L 191.295678 134.818172 
L 189.664249 191.461138 
L 188.032819 134.818172 
L 186.401389 134.818172 
L 184.769959 134.257875 
L 183.138529 159.249553 
L 181.507099 158.323399 
L 179.875669 134.564315 
L 178.244239 149.975882 
L 176.61281 134.818172 
L 174.98138 128.528672 
L 173.34995 134.818172 
L 171.71852 83.014709 
L 170.08709 134.802308 
L 168.45566 134.818172 
L 166.82423 138.721442 
L 165.1928 134.818172 
L 163.56137 134.818172 
L 161.929941 156.864445 
L 160.298511 134.818172 
L 158.667081 134.818172 
L 157.035651 151.712043 
L 155.404221 134.897916 
L 153.772791 135.789774 
L 152.141361 134.818172 
L 150.509931 168.766421 
L 148.878502 171.063131 
L 147.247072 169.803531 
L 145.615642 152.548338 
L 143.984212 134.841055 
L 142.352782 162.319995 
L 140.721352 208.225361 
L 139.089922 146.705141 
L 137.458492 148.850757 
L 135.827063 154.192977 
L 134.195633 151.592338 
L 132.564203 150.632471 
L 130.932773 175.558552 
L 129.301343 134.829992 
L 127.669913 134.94196 
L 126.038483 138.146702 
L 124.407053 134.818172 
L 122.775624 152.799226 
L 121.144194 199.205258 
L 119.512764 161.82032 
L 117.881334 134.818172 
L 116.249904 190.75719 
L 114.618474 173.708146 
L 112.987044 147.404564 
L 111.355614 149.231937 
L 109.724185 150.369383 
L 108.092755 134.818172 
L 106.461325 230.44987 
L 104.829895 159.17559 
L 103.198465 178.339305 
L 101.567035 205.120892 
L 99.935605 198.907159 
L 98.304175 227.028646 
L 96.672746 166.612334 
L 95.041316 233.096142 
L 93.409886 179.031611 
L 91.778456 150.992488 
L 90.147026 182.956624 
L 88.515596 230.621004 
L 86.884166 222.365039 
L 85.252736 197.608859 
L 83.621307 156.817685 
L 81.989877 181.721043 
L 80.358447 185.711802 
L 78.727017 182.965835 
L 77.095587 202.976244 
L 75.464157 188.9605 
L 73.832727 288.721937 
z
" style="fill:#1f77b4;fill-opacity:0.1;"/>
   </g>
   <g id="matplotlib.axis_1">
    <g id="xtick_1">
     <g id="line2d_1">
      <defs>
       <path d="M 0 0 
L 0 3.5 
" id="md14bbc1269" style="stroke:#000000;stroke-width:0.8;"/>
      </defs>
      <g>
       <use style="stroke:#000000;stroke-width:0.8;" x="73.832727" xlink:href="#md14bbc1269" y="307.584"/>
      </g>
     </g>
     <g id="text_1">
      <!-- 0 -->
      <defs>
       <path d="M 31.78125 66.40625 
Q 24.171875 66.40625 20.328125 58.90625 
Q 16.5 51.421875 16.5 36.375 
Q 16.5 21.390625 20.328125 13.890625 
Q 24.171875 6.390625 31.78125 6.390625 
Q 39.453125 6.390625 43.28125 13.890625 
Q 47.125 21.390625 47.125 36.375 
Q 47.125 51.421875 43.28125 58.90625 
Q 39.453125 66.40625 31.78125 66.40625 
z
M 31.78125 74.21875 
Q 44.046875 74.21875 50.515625 64.515625 
Q 56.984375 54.828125 56.984375 36.375 
Q 56.984375 17.96875 50.515625 8.265625 
Q 44.046875 -1.421875 31.78125 -1.421875 
Q 19.53125 -1.421875 13.0625 8.265625 
Q 6.59375 17.96875 6.59375 36.375 
Q 6.59375 54.828125 13.0625 64.515625 
Q 19.53125 74.21875 31.78125 74.21875 
z
" id="DejaVuSans-48"/>
      </defs>
      <g transform="translate(70.651477 322.182437)scale(0.1 -0.1)">
       <use xlink:href="#DejaVuSans-48"/>
      </g>
     </g>
    </g>
    <g id="xtick_2">
     <g id="line2d_2">
      <g>
       <use style="stroke:#000000;stroke-width:0.8;" x="114.618474" xlink:href="#md14bbc1269" y="307.584"/>
      </g>
     </g>
     <g id="text_2">
      <!-- 25 -->
      <defs>
       <path d="M 19.1875 8.296875 
L 53.609375 8.296875 
L 53.609375 0 
L 7.328125 0 
L 7.328125 8.296875 
Q 12.9375 14.109375 22.625 23.890625 
Q 32.328125 33.6875 34.8125 36.53125 
Q 39.546875 41.84375 41.421875 45.53125 
Q 43.3125 49.21875 43.3125 52.78125 
Q 43.3125 58.59375 39.234375 62.25 
Q 35.15625 65.921875 28.609375 65.921875 
Q 23.96875 65.921875 18.8125 64.3125 
Q 13.671875 62.703125 7.8125 59.421875 
L 7.8125 69.390625 
Q 13.765625 71.78125 18.9375 73 
Q 24.125 74.21875 28.421875 74.21875 
Q 39.75 74.21875 46.484375 68.546875 
Q 53.21875 62.890625 53.21875 53.421875 
Q 53.21875 48.921875 51.53125 44.890625 
Q 49.859375 40.875 45.40625 35.40625 
Q 44.1875 33.984375 37.640625 27.21875 
Q 31.109375 20.453125 19.1875 8.296875 
z
" id="DejaVuSans-50"/>
       <path d="M 10.796875 72.90625 
L 49.515625 72.90625 
L 49.515625 64.59375 
L 19.828125 64.59375 
L 19.828125 46.734375 
Q 21.96875 47.46875 24.109375 47.828125 
Q 26.265625 48.1875 28.421875 48.1875 
Q 40.625 48.1875 47.75 41.5 
Q 54.890625 34.8125 54.890625 23.390625 
Q 54.890625 11.625 47.5625 5.09375 
Q 40.234375 -1.421875 26.90625 -1.421875 
Q 22.3125 -1.421875 17.546875 -0.640625 
Q 12.796875 0.140625 7.71875 1.703125 
L 7.71875 11.625 
Q 12.109375 9.234375 16.796875 8.0625 
Q 21.484375 6.890625 26.703125 6.890625 
Q 35.15625 6.890625 40.078125 11.328125 
Q 45.015625 15.765625 45.015625 23.390625 
Q 45.015625 31 40.078125 35.4375 
Q 35.15625 39.890625 26.703125 39.890625 
Q 22.75 39.890625 18.8125 39.015625 
Q 14.890625 38.140625 10.796875 36.28125 
z
" id="DejaVuSans-53"/>
      </defs>
      <g transform="translate(108.255974 322.182437)scale(0.1 -0.1)">
       <use xlink:href="#DejaVuSans-50"/>
       <use x="63.623047" xlink:href="#DejaVuSans-53"/>
      </g>
     </g>
    </g>
    <g id="xtick_3">
     <g id="line2d_3">
      <g>
       <use style="stroke:#000000;stroke-width:0.8;" x="155.404221" xlink:href="#md14bbc1269" y="307.584"/>
      </g>
     </g>
     <g id="text_3">
      <!-- 50 -->
      <g transform="translate(149.041721 322.182437)scale(0.1 -0.1)">
       <use xlink:href="#DejaVuSans-53"/>
       <use x="63.623047" xlink:href="#DejaVuSans-48"/>
      </g>
     </g>
    </g>
    <g id="xtick_4">
     <g id="line2d_4">
      <g>
       <use style="stroke:#000000;stroke-width:0.8;" x="196.189968" xlink:href="#md14bbc1269" y="307.584"/>
      </g>
     </g>
     <g id="text_4">
      <!-- 75 -->
      <defs>
       <path d="M 8.203125 72.90625 
L 55.078125 72.90625 
L 55.078125 68.703125 
L 28.609375 0 
L 18.3125 0 
L 43.21875 64.59375 
L 8.203125 64.59375 
z
" id="DejaVuSans-55"/>
      </defs>
      <g transform="translate(189.827468 322.182437)scale(0.1 -0.1)">
       <use xlink:href="#DejaVuSans-55"/>
       <use x="63.623047" xlink:href="#DejaVuSans-53"/>
      </g>
     </g>
    </g>
    <g id="xtick_5">
     <g id="line2d_5">
      <g>
       <use style="stroke:#000000;stroke-width:0.8;" x="236.975715" xlink:href="#md14bbc1269" y="307.584"/>
      </g>
     </g>
     <g id="text_5">
      <!-- 100 -->
      <defs>
       <path d="M 12.40625 8.296875 
L 28.515625 8.296875 
L 28.515625 63.921875 
L 10.984375 60.40625 
L 10.984375 69.390625 
L 28.421875 72.90625 
L 38.28125 72.90625 
L 38.28125 8.296875 
L 54.390625 8.296875 
L 54.390625 0 
L 12.40625 0 
z
" id="DejaVuSans-49"/>
      </defs>
      <g transform="translate(227.431965 322.182437)scale(0.1 -0.1)">
       <use xlink:href="#DejaVuSans-49"/>
       <use x="63.623047" xlink:href="#DejaVuSans-48"/>
       <use x="127.246094" xlink:href="#DejaVuSans-48"/>
      </g>
     </g>
    </g>
    <g id="xtick_6">
     <g id="line2d_6">
      <g>
       <use style="stroke:#000000;stroke-width:0.8;" x="277.761462" xlink:href="#md14bbc1269" y="307.584"/>
      </g>
     </g>
     <g id="text_6">
      <!-- 125 -->
      <g transform="translate(268.217712 322.182437)scale(0.1 -0.1)">
       <use xlink:href="#DejaVuSans-49"/>
       <use x="63.623047" xlink:href="#DejaVuSans-50"/>
       <use x="127.246094" xlink:href="#DejaVuSans-53"/>
      </g>
     </g>
    </g>
    <g id="xtick_7">
     <g id="line2d_7">
      <g>
       <use style="stroke:#000000;stroke-width:0.8;" x="318.547209" xlink:href="#md14bbc1269" y="307.584"/>
      </g>
     </g>
     <g id="text_7">
      <!-- 150 -->
      <g transform="translate(309.003459 322.182437)scale(0.1 -0.1)">
       <use xlink:href="#DejaVuSans-49"/>
       <use x="63.623047" xlink:href="#DejaVuSans-53"/>
       <use x="127.246094" xlink:href="#DejaVuSans-48"/>
      </g>
     </g>
    </g>
    <g id="xtick_8">
     <g id="line2d_8">
      <g>
       <use style="stroke:#000000;stroke-width:0.8;" x="359.332956" xlink:href="#md14bbc1269" y="307.584"/>
      </g>
     </g>
     <g id="text_8">
      <!-- 175 -->
      <g transform="translate(349.789206 322.182437)scale(0.1 -0.1)">
       <use xlink:href="#DejaVuSans-49"/>
       <use x="63.623047" xlink:href="#DejaVuSans-55"/>
       <use x="127.246094" xlink:href="#DejaVuSans-53"/>
      </g>
     </g>
    </g>
    <g id="xtick_9">
     <g id="line2d_9">
      <g>
       <use style="stroke:#000000;stroke-width:0.8;" x="400.118703" xlink:href="#md14bbc1269" y="307.584"/>
      </g>
     </g>
     <g id="text_9">
      <!-- 200 -->
      <g transform="translate(390.574953 322.182437)scale(0.1 -0.1)">
       <use xlink:href="#DejaVuSans-50"/>
       <use x="63.623047" xlink:href="#DejaVuSans-48"/>
       <use x="127.246094" xlink:href="#DejaVuSans-48"/>
      </g>
     </g>
    </g>
   </g>
   <g id="matplotlib.axis_2">
    <g id="ytick_1">
     <g id="line2d_10">
      <defs>
       <path d="M 0 0 
L -3.5 0 
" id="madeb00cb71" style="stroke:#000000;stroke-width:0.8;"/>
      </defs>
      <g>
       <use style="stroke:#000000;stroke-width:0.8;" x="57.6" xlink:href="#madeb00cb71" y="297.318515"/>
      </g>
     </g>
     <g id="text_10">
      <!-- 0 -->
      <g transform="translate(44.2375 301.117734)scale(0.1 -0.1)">
       <use xlink:href="#DejaVuSans-48"/>
      </g>
     </g>
    </g>
    <g id="ytick_2">
     <g id="line2d_11">
      <g>
       <use style="stroke:#000000;stroke-width:0.8;" x="57.6" xlink:href="#madeb00cb71" y="262.032014"/>
      </g>
     </g>
     <g id="text_11">
      <!-- 5 -->
      <g transform="translate(44.2375 265.831233)scale(0.1 -0.1)">
       <use xlink:href="#DejaVuSans-53"/>
      </g>
     </g>
    </g>
    <g id="ytick_3">
     <g id="line2d_12">
      <g>
       <use style="stroke:#000000;stroke-width:0.8;" x="57.6" xlink:href="#madeb00cb71" y="226.745513"/>
      </g>
     </g>
     <g id="text_12">
      <!-- 10 -->
      <g transform="translate(37.875 230.544731)scale(0.1 -0.1)">
       <use xlink:href="#DejaVuSans-49"/>
       <use x="63.623047" xlink:href="#DejaVuSans-48"/>
      </g>
     </g>
    </g>
    <g id="ytick_4">
     <g id="line2d_13">
      <g>
       <use style="stroke:#000000;stroke-width:0.8;" x="57.6" xlink:href="#madeb00cb71" y="191.459011"/>
      </g>
     </g>
     <g id="text_13">
      <!-- 15 -->
      <g transform="translate(37.875 195.25823)scale(0.1 -0.1)">
       <use xlink:href="#DejaVuSans-49"/>
       <use x="63.623047" xlink:href="#DejaVuSans-53"/>
      </g>
     </g>
    </g>
    <g id="ytick_5">
     <g id="line2d_14">
      <g>
       <use style="stroke:#000000;stroke-width:0.8;" x="57.6" xlink:href="#madeb00cb71" y="156.17251"/>
      </g>
     </g>
     <g id="text_14">
      <!-- 20 -->
      <g transform="translate(37.875 159.971729)scale(0.1 -0.1)">
       <use xlink:href="#DejaVuSans-50"/>
       <use x="63.623047" xlink:href="#DejaVuSans-48"/>
      </g>
     </g>
    </g>
    <g id="ytick_6">
     <g id="line2d_15">
      <g>
       <use style="stroke:#000000;stroke-width:0.8;" x="57.6" xlink:href="#madeb00cb71" y="120.886009"/>
      </g>
     </g>
     <g id="text_15">
      <!-- 25 -->
      <g transform="translate(37.875 124.685228)scale(0.1 -0.1)">
       <use xlink:href="#DejaVuSans-50"/>
       <use x="63.623047" xlink:href="#DejaVuSans-53"/>
      </g>
     </g>
    </g>
    <g id="ytick_7">
     <g id="line2d_16">
      <g>
       <use style="stroke:#000000;stroke-width:0.8;" x="57.6" xlink:href="#madeb00cb71" y="85.599508"/>
      </g>
     </g>
     <g id="text_16">
      <!-- 30 -->
      <defs>
       <path d="M 40.578125 39.3125 
Q 47.65625 37.796875 51.625 33 
Q 55.609375 28.21875 55.609375 21.1875 
Q 55.609375 10.40625 48.1875 4.484375 
Q 40.765625 -1.421875 27.09375 -1.421875 
Q 22.515625 -1.421875 17.65625 -0.515625 
Q 12.796875 0.390625 7.625 2.203125 
L 7.625 11.71875 
Q 11.71875 9.328125 16.59375 8.109375 
Q 21.484375 6.890625 26.8125 6.890625 
Q 36.078125 6.890625 40.9375 10.546875 
Q 45.796875 14.203125 45.796875 21.1875 
Q 45.796875 27.640625 41.28125 31.265625 
Q 36.765625 34.90625 28.71875 34.90625 
L 20.21875 34.90625 
L 20.21875 43.015625 
L 29.109375 43.015625 
Q 36.375 43.015625 40.234375 45.921875 
Q 44.09375 48.828125 44.09375 54.296875 
Q 44.09375 59.90625 40.109375 62.90625 
Q 36.140625 65.921875 28.71875 65.921875 
Q 24.65625 65.921875 20.015625 65.03125 
Q 15.375 64.15625 9.8125 62.3125 
L 9.8125 71.09375 
Q 15.4375 72.65625 20.34375 73.4375 
Q 25.25 74.21875 29.59375 74.21875 
Q 40.828125 74.21875 47.359375 69.109375 
Q 53.90625 64.015625 53.90625 55.328125 
Q 53.90625 49.265625 50.4375 45.09375 
Q 46.96875 40.921875 40.578125 39.3125 
z
" id="DejaVuSans-51"/>
      </defs>
      <g transform="translate(37.875 89.398727)scale(0.1 -0.1)">
       <use xlink:href="#DejaVuSans-51"/>
       <use x="63.623047" xlink:href="#DejaVuSans-48"/>
      </g>
     </g>
    </g>
    <g id="ytick_8">
     <g id="line2d_17">
      <g>
       <use style="stroke:#000000;stroke-width:0.8;" x="57.6" xlink:href="#madeb00cb71" y="50.313007"/>
      </g>
     </g>
     <g id="text_17">
      <!-- 35 -->
      <g transform="translate(37.875 54.112225)scale(0.1 -0.1)">
       <use xlink:href="#DejaVuSans-51"/>
       <use x="63.623047" xlink:href="#DejaVuSans-53"/>
      </g>
     </g>
    </g>
   </g>
   <g id="line2d_18">
    <path clip-path="url(#p635f17c312)" d="M 73.832727 289.359926 
L 75.464157 289.565278 
L 96.672746 289.628382 
L 101.567035 289.68328 
L 103.198465 289.565402 
L 106.461325 289.5993 
L 108.092755 288.697132 
L 109.724185 288.943158 
L 111.355614 271.06701 
L 112.987044 289.638375 
L 114.618474 288.904296 
L 116.249904 289.135233 
L 117.881334 288.687832 
L 119.512764 288.076362 
L 121.144194 288.317392 
L 122.775624 264.311901 
L 124.407053 262.759431 
L 126.038483 288.867699 
L 127.669913 288.971568 
L 129.301343 288.944252 
L 130.932773 288.763725 
L 132.564203 262.427185 
L 134.195633 287.628467 
L 135.827063 288.842401 
L 137.458492 249.2035 
L 139.089922 267.224936 
L 140.721352 274.684345 
L 142.352782 288.985469 
L 143.984212 282.148498 
L 145.615642 271.912426 
L 147.247072 274.193641 
L 148.878502 272.996568 
L 150.509931 289.006238 
L 152.141361 267.845321 
L 153.772791 262.702008 
L 155.404221 287.375074 
L 157.035651 276.909404 
L 158.667081 273.453887 
L 160.298511 288.856999 
L 161.929941 287.452077 
L 163.56137 253.659477 
L 165.1928 289.533148 
L 166.82423 258.803361 
L 168.45566 274.194575 
L 170.08709 260.311311 
L 171.71852 288.842818 
L 173.34995 288.144289 
L 174.98138 288.289991 
L 176.61281 275.121455 
L 178.244239 275.712632 
L 179.875669 273.180116 
L 181.507099 278.236564 
L 183.138529 271.003707 
L 184.769959 289.613816 
L 186.401389 289.603401 
L 188.032819 259.852852 
L 189.664249 289.737743 
L 191.295678 289.623247 
L 192.927108 289.676111 
L 194.558538 289.003977 
L 196.189968 289.602766 
L 197.821398 289.678733 
L 199.452828 288.875619 
L 201.084258 287.111852 
L 202.715688 289.615443 
L 204.347117 268.615693 
L 205.978547 288.666958 
L 207.609977 266.787469 
L 209.241407 255.78851 
L 210.872837 268.196928 
L 212.504267 289.56792 
L 214.135697 265.611562 
L 215.767127 268.826703 
L 217.398556 270.637128 
L 219.029986 289.637435 
L 220.661416 289.672023 
L 222.292846 289.038784 
L 223.924276 289.68555 
L 225.555706 289.565285 
L 227.187136 258.669012 
L 228.818566 257.966099 
L 230.449995 289.190282 
L 232.081425 272.610128 
L 233.712855 257.546157 
L 235.344285 289.579006 
L 236.975715 289.677375 
L 238.607145 289.611474 
L 240.238575 288.76431 
L 241.870005 272.09774 
L 243.501434 288.921004 
L 245.132864 289.183604 
L 246.764294 277.220634 
L 248.395724 288.945237 
L 250.027154 289.580557 
L 251.658584 289.575239 
L 253.290014 261.504388 
L 254.921444 288.501541 
L 256.552873 289.70254 
L 258.184303 267.53842 
L 259.815733 267.352961 
L 261.447163 289.665775 
L 263.078593 289.173472 
L 264.710023 289.61612 
L 266.341453 288.889075 
L 267.972883 289.658112 
L 269.604312 289.569229 
L 279.392892 289.674395 
L 281.024322 289.034672 
L 282.655751 288.792289 
L 284.287181 289.616362 
L 290.812901 289.654347 
L 292.444331 288.092501 
L 294.075761 285.16068 
L 295.70719 289.81363 
L 297.33862 289.20768 
L 298.97005 289.566975 
L 300.60148 291.408394 
L 302.23291 289.633315 
L 303.86434 289.635364 
L 305.49577 291.331354 
L 307.1272 289.695881 
L 310.390059 289.62245 
L 313.652919 289.6117 
L 315.284349 289.76469 
L 316.915779 289.596824 
L 320.178639 289.56545 
L 321.810069 264.063127 
L 323.441498 277.755207 
L 325.072928 289.370325 
L 326.704358 264.654763 
L 328.335788 289.502004 
L 329.967218 290.526028 
L 331.598648 289.32752 
L 333.230078 264.190386 
L 334.861508 258.847203 
L 336.492937 261.316344 
L 338.124367 289.666789 
L 339.755797 289.573614 
L 341.387227 289.65695 
L 343.018657 289.627157 
L 344.650087 289.263685 
L 346.281517 252.267997 
L 347.912947 289.56856 
L 357.701526 289.575309 
L 359.332956 289.787464 
L 360.964386 289.671843 
L 362.595815 288.911721 
L 364.227245 288.965218 
L 365.858675 289.566788 
L 370.752965 289.671711 
L 372.384395 289.566953 
L 377.278684 289.666505 
L 378.910114 260.494536 
L 380.541544 260.334386 
L 382.172974 289.669006 
L 383.804404 274.608637 
L 385.435834 289.565417 
L 393.592983 289.650203 
L 395.224413 288.974157 
L 396.855843 257.12686 
L 398.487273 274.626226 
L 398.487273 274.626226 
" style="fill:none;stroke:#1f77b4;stroke-linecap:square;stroke-width:0.25;"/>
   </g>
   <g id="line2d_19">
    <path clip-path="url(#p635f17c312)" d="M 73.832727 289.131506 
L 75.464157 286.921647 
L 77.095587 283.98976 
L 78.727017 285.267351 
L 80.358447 280.016999 
L 81.989877 277.825495 
L 83.621307 282.410506 
L 85.252736 282.178107 
L 86.884166 284.421688 
L 88.515596 284.445025 
L 90.147026 276.976619 
L 91.778456 275.922418 
L 93.409886 279.768072 
L 95.041316 282.426345 
L 96.672746 279.391362 
L 98.304175 284.802007 
L 101.567035 281.986062 
L 103.198465 270.529151 
L 104.829895 280.81859 
L 106.461325 284.99617 
L 108.092755 265.539628 
L 109.724185 270.888368 
L 111.355614 269.914482 
L 112.987044 273.684219 
L 114.618474 269.461254 
L 116.249904 277.653098 
L 117.881334 258.967589 
L 119.512764 265.388584 
L 121.144194 277.727662 
L 122.775624 261.44977 
L 124.407053 256.724752 
L 126.038483 273.818181 
L 127.669913 271.547711 
L 129.301343 267.066172 
L 130.932773 274.196055 
L 132.564203 262.866284 
L 134.195633 263.201812 
L 135.827063 267.461755 
L 137.458492 254.197476 
L 139.089922 259.402382 
L 140.721352 274.622147 
L 142.352782 268.579042 
L 143.984212 269.217014 
L 145.615642 269.374102 
L 148.878502 270.946382 
L 150.509931 272.137544 
L 152.141361 254.635817 
L 153.772791 258.095361 
L 155.404221 264.202742 
L 157.035651 266.709528 
L 158.667081 261.692959 
L 160.298511 253.895952 
L 161.929941 268.138462 
L 163.56137 248.576602 
L 165.1928 258.518605 
L 166.82423 250.110455 
L 168.45566 251.630144 
L 170.08709 250.298552 
L 171.71852 251.143004 
L 173.34995 260.659861 
L 174.98138 264.502177 
L 176.61281 263.347249 
L 178.244239 265.287511 
L 179.875669 262.154459 
L 181.507099 271.716466 
L 183.138529 270.79856 
L 184.769959 267.763759 
L 186.401389 259.894057 
L 188.032819 256.611222 
L 189.664249 272.6653 
L 191.295678 262.529364 
L 192.927108 269.408252 
L 194.558538 260.806231 
L 196.189968 256.993843 
L 197.821398 269.641329 
L 199.452828 275.641476 
L 201.084258 258.41435 
L 202.715688 258.47384 
L 204.347117 261.003168 
L 205.978547 265.991684 
L 207.609977 255.838748 
L 209.241407 248.911327 
L 210.872837 261.55026 
L 212.504267 264.30544 
L 214.135697 259.073876 
L 215.767127 250.063253 
L 217.398556 264.233424 
L 219.029986 267.651108 
L 220.661416 261.402354 
L 222.292846 271.679126 
L 223.924276 273.288564 
L 225.555706 251.840192 
L 227.187136 255.131823 
L 228.818566 249.920241 
L 230.449995 265.843681 
L 232.081425 269.613181 
L 233.712855 252.584643 
L 235.344285 255.044802 
L 236.975715 275.767024 
L 240.238575 259.717542 
L 241.870005 257.342606 
L 243.501434 247.026189 
L 245.132864 258.719977 
L 246.764294 266.433481 
L 248.395724 257.265327 
L 250.027154 269.099371 
L 251.658584 258.633769 
L 253.290014 252.745884 
L 254.921444 264.860181 
L 256.552873 277.89572 
L 258.184303 262.840944 
L 259.815733 255.183025 
L 261.447163 272.484065 
L 263.078593 276.986165 
L 264.710023 255.728306 
L 266.341453 260.338363 
L 267.972883 267.353881 
L 269.604312 265.16894 
L 271.235742 260.12352 
L 272.867172 261.238061 
L 274.498602 259.921972 
L 276.130032 270.47566 
L 277.761462 266.499511 
L 279.392892 268.963397 
L 281.024322 266.648021 
L 282.655751 250.101636 
L 284.287181 265.868263 
L 285.918611 267.00792 
L 287.550041 271.389009 
L 289.181471 272.634197 
L 290.812901 269.234302 
L 292.444331 259.6296 
L 294.075761 255.46984 
L 295.70719 281.280912 
L 297.33862 265.304101 
L 298.97005 270.67318 
L 300.60148 271.357509 
L 302.23291 269.047808 
L 303.86434 275.412061 
L 305.49577 274.183915 
L 307.1272 273.409589 
L 308.75863 275.254989 
L 310.390059 264.092453 
L 312.021489 263.818376 
L 313.652919 275.80026 
L 315.284349 276.680051 
L 316.915779 268.43969 
L 318.547209 265.292816 
L 320.178639 267.092671 
L 321.810069 258.512956 
L 323.441498 266.001696 
L 325.072928 265.187675 
L 326.704358 259.014401 
L 328.335788 267.133618 
L 329.967218 266.15636 
L 331.598648 267.149456 
L 333.230078 266.846489 
L 334.861508 252.091024 
L 336.492937 262.519732 
L 338.124367 270.706153 
L 339.755797 267.587102 
L 341.387227 271.527773 
L 343.018657 276.515799 
L 344.650087 263.401682 
L 346.281517 251.997863 
L 347.912947 263.783843 
L 349.544376 268.148278 
L 351.175806 274.302931 
L 352.807236 269.159451 
L 354.438666 274.331959 
L 356.070096 273.213294 
L 357.701526 260.615591 
L 359.332956 273.647601 
L 360.964386 269.099007 
L 362.595815 260.996836 
L 364.227245 265.251048 
L 365.858675 270.914789 
L 367.490105 268.82204 
L 369.121535 275.718004 
L 370.752965 277.426367 
L 372.384395 267.727389 
L 374.015825 271.539082 
L 375.647254 261.566341 
L 377.278684 269.819265 
L 378.910114 254.277109 
L 380.541544 258.836506 
L 382.172974 260.913558 
L 383.804404 262.30238 
L 385.435834 269.133196 
L 387.067264 262.109184 
L 388.698693 256.37542 
L 390.330123 264.000845 
L 391.961553 273.536139 
L 393.592983 265.443461 
L 395.224413 261.11925 
L 396.855843 259.006805 
L 398.487273 270.597412 
L 398.487273 270.597412 
" style="fill:none;stroke:#2ca02c;stroke-linecap:square;stroke-width:0.75;"/>
   </g>
   <g id="patch_3">
    <path d="M 57.6 307.584 
L 57.6 41.472 
" style="fill:none;stroke:#000000;stroke-linecap:square;stroke-linejoin:miter;stroke-width:0.8;"/>
   </g>
   <g id="patch_4">
    <path d="M 414.72 307.584 
L 414.72 41.472 
" style="fill:none;stroke:#000000;stroke-linecap:square;stroke-linejoin:miter;stroke-width:0.8;"/>
   </g>
   <g id="patch_5">
    <path d="M 57.6 307.584 
L 414.72 307.584 
" style="fill:none;stroke:#000000;stroke-linecap:square;stroke-linejoin:miter;stroke-width:0.8;"/>
   </g>
   <g id="patch_6">
    <path d="M 57.6 41.472 
L 414.72 41.472 
" style="fill:none;stroke:#000000;stroke-linecap:square;stroke-linejoin:miter;stroke-width:0.8;"/>
   </g>
   <g id="legend_1">
    <g id="patch_7">
     <path d="M 338.234063 78.82825 
L 407.72 78.82825 
Q 409.72 78.82825 409.72 76.82825 
L 409.72 48.472 
Q 409.72 46.472 407.72 46.472 
L 338.234063 46.472 
Q 336.234063 46.472 336.234063 48.472 
L 336.234063 76.82825 
Q 336.234063 78.82825 338.234063 78.82825 
z
" style="fill:#ffffff;opacity:0.8;stroke:#cccccc;stroke-linejoin:miter;"/>
    </g>
    <g id="line2d_20">
     <path d="M 340.234063 54.570437 
L 360.234063 54.570437 
" style="fill:none;stroke:#1f77b4;stroke-linecap:square;stroke-width:0.25;"/>
    </g>
    <g id="line2d_21"/>
    <g id="text_18">
     <!-- median -->
     <defs>
      <path d="M 52 44.1875 
Q 55.375 50.25 60.0625 53.125 
Q 64.75 56 71.09375 56 
Q 79.640625 56 84.28125 50.015625 
Q 88.921875 44.046875 88.921875 33.015625 
L 88.921875 0 
L 79.890625 0 
L 79.890625 32.71875 
Q 79.890625 40.578125 77.09375 44.375 
Q 74.3125 48.1875 68.609375 48.1875 
Q 61.625 48.1875 57.5625 43.546875 
Q 53.515625 38.921875 53.515625 30.90625 
L 53.515625 0 
L 44.484375 0 
L 44.484375 32.71875 
Q 44.484375 40.625 41.703125 44.40625 
Q 38.921875 48.1875 33.109375 48.1875 
Q 26.21875 48.1875 22.15625 43.53125 
Q 18.109375 38.875 18.109375 30.90625 
L 18.109375 0 
L 9.078125 0 
L 9.078125 54.6875 
L 18.109375 54.6875 
L 18.109375 46.1875 
Q 21.1875 51.21875 25.484375 53.609375 
Q 29.78125 56 35.6875 56 
Q 41.65625 56 45.828125 52.96875 
Q 50 49.953125 52 44.1875 
z
" id="DejaVuSans-109"/>
      <path d="M 56.203125 29.59375 
L 56.203125 25.203125 
L 14.890625 25.203125 
Q 15.484375 15.921875 20.484375 11.0625 
Q 25.484375 6.203125 34.421875 6.203125 
Q 39.59375 6.203125 44.453125 7.46875 
Q 49.3125 8.734375 54.109375 11.28125 
L 54.109375 2.78125 
Q 49.265625 0.734375 44.1875 -0.34375 
Q 39.109375 -1.421875 33.890625 -1.421875 
Q 20.796875 -1.421875 13.15625 6.1875 
Q 5.515625 13.8125 5.515625 26.8125 
Q 5.515625 40.234375 12.765625 48.109375 
Q 20.015625 56 32.328125 56 
Q 43.359375 56 49.78125 48.890625 
Q 56.203125 41.796875 56.203125 29.59375 
z
M 47.21875 32.234375 
Q 47.125 39.59375 43.09375 43.984375 
Q 39.0625 48.390625 32.421875 48.390625 
Q 24.90625 48.390625 20.390625 44.140625 
Q 15.875 39.890625 15.1875 32.171875 
z
" id="DejaVuSans-101"/>
      <path d="M 45.40625 46.390625 
L 45.40625 75.984375 
L 54.390625 75.984375 
L 54.390625 0 
L 45.40625 0 
L 45.40625 8.203125 
Q 42.578125 3.328125 38.25 0.953125 
Q 33.9375 -1.421875 27.875 -1.421875 
Q 17.96875 -1.421875 11.734375 6.484375 
Q 5.515625 14.40625 5.515625 27.296875 
Q 5.515625 40.1875 11.734375 48.09375 
Q 17.96875 56 27.875 56 
Q 33.9375 56 38.25 53.625 
Q 42.578125 51.265625 45.40625 46.390625 
z
M 14.796875 27.296875 
Q 14.796875 17.390625 18.875 11.75 
Q 22.953125 6.109375 30.078125 6.109375 
Q 37.203125 6.109375 41.296875 11.75 
Q 45.40625 17.390625 45.40625 27.296875 
Q 45.40625 37.203125 41.296875 42.84375 
Q 37.203125 48.484375 30.078125 48.484375 
Q 22.953125 48.484375 18.875 42.84375 
Q 14.796875 37.203125 14.796875 27.296875 
z
" id="DejaVuSans-100"/>
      <path d="M 9.421875 54.6875 
L 18.40625 54.6875 
L 18.40625 0 
L 9.421875 0 
z
M 9.421875 75.984375 
L 18.40625 75.984375 
L 18.40625 64.59375 
L 9.421875 64.59375 
z
" id="DejaVuSans-105"/>
      <path d="M 34.28125 27.484375 
Q 23.390625 27.484375 19.1875 25 
Q 14.984375 22.515625 14.984375 16.5 
Q 14.984375 11.71875 18.140625 8.90625 
Q 21.296875 6.109375 26.703125 6.109375 
Q 34.1875 6.109375 38.703125 11.40625 
Q 43.21875 16.703125 43.21875 25.484375 
L 43.21875 27.484375 
z
M 52.203125 31.203125 
L 52.203125 0 
L 43.21875 0 
L 43.21875 8.296875 
Q 40.140625 3.328125 35.546875 0.953125 
Q 30.953125 -1.421875 24.3125 -1.421875 
Q 15.921875 -1.421875 10.953125 3.296875 
Q 6 8.015625 6 15.921875 
Q 6 25.140625 12.171875 29.828125 
Q 18.359375 34.515625 30.609375 34.515625 
L 43.21875 34.515625 
L 43.21875 35.40625 
Q 43.21875 41.609375 39.140625 45 
Q 35.0625 48.390625 27.6875 48.390625 
Q 23 48.390625 18.546875 47.265625 
Q 14.109375 46.140625 10.015625 43.890625 
L 10.015625 52.203125 
Q 14.9375 54.109375 19.578125 55.046875 
Q 24.21875 56 28.609375 56 
Q 40.484375 56 46.34375 49.84375 
Q 52.203125 43.703125 52.203125 31.203125 
z
" id="DejaVuSans-97"/>
      <path d="M 54.890625 33.015625 
L 54.890625 0 
L 45.90625 0 
L 45.90625 32.71875 
Q 45.90625 40.484375 42.875 44.328125 
Q 39.84375 48.1875 33.796875 48.1875 
Q 26.515625 48.1875 22.3125 43.546875 
Q 18.109375 38.921875 18.109375 30.90625 
L 18.109375 0 
L 9.078125 0 
L 9.078125 54.6875 
L 18.109375 54.6875 
L 18.109375 46.1875 
Q 21.34375 51.125 25.703125 53.5625 
Q 30.078125 56 35.796875 56 
Q 45.21875 56 50.046875 50.171875 
Q 54.890625 44.34375 54.890625 33.015625 
z
" id="DejaVuSans-110"/>
     </defs>
     <g transform="translate(368.234063 58.070437)scale(0.1 -0.1)">
      <use xlink:href="#DejaVuSans-109"/>
      <use x="97.412109" xlink:href="#DejaVuSans-101"/>
      <use x="158.935547" xlink:href="#DejaVuSans-100"/>
      <use x="222.412109" xlink:href="#DejaVuSans-105"/>
      <use x="250.195312" xlink:href="#DejaVuSans-97"/>
      <use x="311.474609" xlink:href="#DejaVuSans-110"/>
     </g>
    </g>
    <g id="line2d_22">
     <path d="M 340.234063 69.248562 
L 360.234063 69.248562 
" style="fill:none;stroke:#2ca02c;stroke-linecap:square;stroke-width:0.75;"/>
    </g>
    <g id="line2d_23"/>
    <g id="text_19">
     <!-- mean -->
     <g transform="translate(368.234063 72.748562)scale(0.1 -0.1)">
      <use xlink:href="#DejaVuSans-109"/>
      <use x="97.412109" xlink:href="#DejaVuSans-101"/>
      <use x="158.935547" xlink:href="#DejaVuSans-97"/>
      <use x="220.214844" xlink:href="#DejaVuSans-110"/>
     </g>
    </g>
   </g>
  </g>
  <g id="text_20">
   <!-- log_loss.mean over generations -->
   <defs>
    <path d="M 9.421875 75.984375 
L 18.40625 75.984375 
L 18.40625 0 
L 9.421875 0 
z
" id="DejaVuSans-108"/>
    <path d="M 30.609375 48.390625 
Q 23.390625 48.390625 19.1875 42.75 
Q 14.984375 37.109375 14.984375 27.296875 
Q 14.984375 17.484375 19.15625 11.84375 
Q 23.34375 6.203125 30.609375 6.203125 
Q 37.796875 6.203125 41.984375 11.859375 
Q 46.1875 17.53125 46.1875 27.296875 
Q 46.1875 37.015625 41.984375 42.703125 
Q 37.796875 48.390625 30.609375 48.390625 
z
M 30.609375 56 
Q 42.328125 56 49.015625 48.375 
Q 55.71875 40.765625 55.71875 27.296875 
Q 55.71875 13.875 49.015625 6.21875 
Q 42.328125 -1.421875 30.609375 -1.421875 
Q 18.84375 -1.421875 12.171875 6.21875 
Q 5.515625 13.875 5.515625 27.296875 
Q 5.515625 40.765625 12.171875 48.375 
Q 18.84375 56 30.609375 56 
z
" id="DejaVuSans-111"/>
    <path d="M 45.40625 27.984375 
Q 45.40625 37.75 41.375 43.109375 
Q 37.359375 48.484375 30.078125 48.484375 
Q 22.859375 48.484375 18.828125 43.109375 
Q 14.796875 37.75 14.796875 27.984375 
Q 14.796875 18.265625 18.828125 12.890625 
Q 22.859375 7.515625 30.078125 7.515625 
Q 37.359375 7.515625 41.375 12.890625 
Q 45.40625 18.265625 45.40625 27.984375 
z
M 54.390625 6.78125 
Q 54.390625 -7.171875 48.1875 -13.984375 
Q 42 -20.796875 29.203125 -20.796875 
Q 24.46875 -20.796875 20.265625 -20.09375 
Q 16.0625 -19.390625 12.109375 -17.921875 
L 12.109375 -9.1875 
Q 16.0625 -11.328125 19.921875 -12.34375 
Q 23.78125 -13.375 27.78125 -13.375 
Q 36.625 -13.375 41.015625 -8.765625 
Q 45.40625 -4.15625 45.40625 5.171875 
L 45.40625 9.625 
Q 42.625 4.78125 38.28125 2.390625 
Q 33.9375 0 27.875 0 
Q 17.828125 0 11.671875 7.65625 
Q 5.515625 15.328125 5.515625 27.984375 
Q 5.515625 40.671875 11.671875 48.328125 
Q 17.828125 56 27.875 56 
Q 33.9375 56 38.28125 53.609375 
Q 42.625 51.21875 45.40625 46.390625 
L 45.40625 54.6875 
L 54.390625 54.6875 
z
" id="DejaVuSans-103"/>
    <path d="M 50.984375 -16.609375 
L 50.984375 -23.578125 
L -0.984375 -23.578125 
L -0.984375 -16.609375 
z
" id="DejaVuSans-95"/>
    <path d="M 44.28125 53.078125 
L 44.28125 44.578125 
Q 40.484375 46.53125 36.375 47.5 
Q 32.28125 48.484375 27.875 48.484375 
Q 21.1875 48.484375 17.84375 46.4375 
Q 14.5 44.390625 14.5 40.28125 
Q 14.5 37.15625 16.890625 35.375 
Q 19.28125 33.59375 26.515625 31.984375 
L 29.59375 31.296875 
Q 39.15625 29.25 43.1875 25.515625 
Q 47.21875 21.78125 47.21875 15.09375 
Q 47.21875 7.46875 41.1875 3.015625 
Q 35.15625 -1.421875 24.609375 -1.421875 
Q 20.21875 -1.421875 15.453125 -0.5625 
Q 10.6875 0.296875 5.421875 2 
L 5.421875 11.28125 
Q 10.40625 8.6875 15.234375 7.390625 
Q 20.0625 6.109375 24.8125 6.109375 
Q 31.15625 6.109375 34.5625 8.28125 
Q 37.984375 10.453125 37.984375 14.40625 
Q 37.984375 18.0625 35.515625 20.015625 
Q 33.0625 21.96875 24.703125 23.78125 
L 21.578125 24.515625 
Q 13.234375 26.265625 9.515625 29.90625 
Q 5.8125 33.546875 5.8125 39.890625 
Q 5.8125 47.609375 11.28125 51.796875 
Q 16.75 56 26.8125 56 
Q 31.78125 56 36.171875 55.265625 
Q 40.578125 54.546875 44.28125 53.078125 
z
" id="DejaVuSans-115"/>
    <path d="M 10.6875 12.40625 
L 21 12.40625 
L 21 0 
L 10.6875 0 
z
" id="DejaVuSans-46"/>
    <path id="DejaVuSans-32"/>
    <path d="M 2.984375 54.6875 
L 12.5 54.6875 
L 29.59375 8.796875 
L 46.6875 54.6875 
L 56.203125 54.6875 
L 35.6875 0 
L 23.484375 0 
z
" id="DejaVuSans-118"/>
    <path d="M 41.109375 46.296875 
Q 39.59375 47.171875 37.8125 47.578125 
Q 36.03125 48 33.890625 48 
Q 26.265625 48 22.1875 43.046875 
Q 18.109375 38.09375 18.109375 28.8125 
L 18.109375 0 
L 9.078125 0 
L 9.078125 54.6875 
L 18.109375 54.6875 
L 18.109375 46.1875 
Q 20.953125 51.171875 25.484375 53.578125 
Q 30.03125 56 36.53125 56 
Q 37.453125 56 38.578125 55.875 
Q 39.703125 55.765625 41.0625 55.515625 
z
" id="DejaVuSans-114"/>
    <path d="M 18.3125 70.21875 
L 18.3125 54.6875 
L 36.8125 54.6875 
L 36.8125 47.703125 
L 18.3125 47.703125 
L 18.3125 18.015625 
Q 18.3125 11.328125 20.140625 9.421875 
Q 21.96875 7.515625 27.59375 7.515625 
L 36.8125 7.515625 
L 36.8125 0 
L 27.59375 0 
Q 17.1875 0 13.234375 3.875 
Q 9.28125 7.765625 9.28125 18.015625 
L 9.28125 47.703125 
L 2.6875 47.703125 
L 2.6875 54.6875 
L 9.28125 54.6875 
L 9.28125 70.21875 
z
" id="DejaVuSans-116"/>
   </defs>
   <g transform="translate(134.789062 16.030125)scale(0.12 -0.12)">
    <use xlink:href="#DejaVuSans-108"/>
    <use x="27.783203" xlink:href="#DejaVuSans-111"/>
    <use x="88.964844" xlink:href="#DejaVuSans-103"/>
    <use x="152.441406" xlink:href="#DejaVuSans-95"/>
    <use x="202.441406" xlink:href="#DejaVuSans-108"/>
    <use x="230.224609" xlink:href="#DejaVuSans-111"/>
    <use x="291.40625" xlink:href="#DejaVuSans-115"/>
    <use x="343.505859" xlink:href="#DejaVuSans-115"/>
    <use x="395.605469" xlink:href="#DejaVuSans-46"/>
    <use x="427.392578" xlink:href="#DejaVuSans-109"/>
    <use x="524.804688" xlink:href="#DejaVuSans-101"/>
    <use x="586.328125" xlink:href="#DejaVuSans-97"/>
    <use x="647.607422" xlink:href="#DejaVuSans-110"/>
    <use x="710.986328" xlink:href="#DejaVuSans-32"/>
    <use x="742.773438" xlink:href="#DejaVuSans-111"/>
    <use x="803.955078" xlink:href="#DejaVuSans-118"/>
    <use x="863.134766" xlink:href="#DejaVuSans-101"/>
    <use x="924.658203" xlink:href="#DejaVuSans-114"/>
    <use x="965.771484" xlink:href="#DejaVuSans-32"/>
    <use x="997.558594" xlink:href="#DejaVuSans-103"/>
    <use x="1061.035156" xlink:href="#DejaVuSans-101"/>
    <use x="1122.558594" xlink:href="#DejaVuSans-110"/>
    <use x="1185.9375" xlink:href="#DejaVuSans-101"/>
    <use x="1247.460938" xlink:href="#DejaVuSans-114"/>
    <use x="1288.574219" xlink:href="#DejaVuSans-97"/>
    <use x="1349.853516" xlink:href="#DejaVuSans-116"/>
    <use x="1389.0625" xlink:href="#DejaVuSans-105"/>
    <use x="1416.845703" xlink:href="#DejaVuSans-111"/>
    <use x="1478.027344" xlink:href="#DejaVuSans-110"/>
    <use x="1541.40625" xlink:href="#DejaVuSans-115"/>
   </g>
  </g>
 </g>
 <defs>
  <clipPath id="p635f17c312">
   <rect height="266.112" width="357.12" x="57.6" y="41.472"/>
  </clipPath>
 </defs>
</svg>
