<?xml version="1.0" encoding="utf-8" standalone="no"?>
<!DOCTYPE svg PUBLIC "-//W3C//DTD SVG 1.1//EN"
  "http://www.w3.org/Graphics/SVG/1.1/DTD/svg11.dtd">
<!-- Created with matplotlib (https://matplotlib.org/) -->
<svg height="345.6pt" version="1.1" viewBox="0 0 460.8 345.6" width="460.8pt" xmlns="http://www.w3.org/2000/svg" xmlns:xlink="http://www.w3.org/1999/xlink">
 <defs>
  <style type="text/css">
*{stroke-linecap:butt;stroke-linejoin:round;}
  </style>
 </defs>
 <g id="figure_1">
  <g id="patch_1">
   <path d="M 0 345.6 
L 460.8 345.6 
L 460.8 0 
L 0 0 
z
" style="fill:#ffffff;"/>
  </g>
  <g id="axes_1">
   <g id="patch_2">
    <path d="M 57.6 307.584 
L 414.72 307.584 
L 414.72 41.472 
L 57.6 41.472 
z
" style="fill:#ffffff;"/>
   </g>
   <g id="PolyCollection_1">
    <path clip-path="url(#p40e84f404e)" d="M 73.832727 211.163939 
L 73.832727 211.163939 
L 75.464157 211.163939 
L 77.095587 211.163939 
L 78.727017 211.163939 
L 80.358447 211.163939 
L 81.989877 211.163939 
L 83.621307 211.163939 
L 85.252736 211.163939 
L 86.884166 211.163939 
L 88.515596 211.163939 
L 90.147026 211.163939 
L 91.778456 211.163939 
L 93.409886 211.163939 
L 95.041316 211.163939 
L 96.672746 211.163939 
L 98.304175 211.163939 
L 99.935605 211.163939 
L 101.567035 211.163939 
L 103.198465 211.163939 
L 104.829895 211.163939 
L 106.461325 211.163939 
L 108.092755 211.163939 
L 109.724185 211.163939 
L 111.355614 211.163939 
L 112.987044 211.163939 
L 114.618474 211.163939 
L 116.249904 211.163939 
L 117.881334 211.163939 
L 119.512764 211.163939 
L 121.144194 211.163939 
L 122.775624 211.163939 
L 124.407053 211.163939 
L 126.038483 211.163939 
L 127.669913 211.163939 
L 129.301343 211.163939 
L 130.932773 211.163939 
L 132.564203 211.163939 
L 134.195633 211.163939 
L 135.827063 211.163939 
L 137.458492 211.163939 
L 139.089922 211.163939 
L 140.721352 211.163939 
L 142.352782 211.163939 
L 143.984212 211.163939 
L 145.615642 211.163939 
L 147.247072 211.163939 
L 148.878502 211.163939 
L 150.509931 211.163939 
L 152.141361 211.163939 
L 153.772791 211.163939 
L 155.404221 211.163939 
L 157.035651 211.163939 
L 158.667081 211.163939 
L 160.298511 211.163939 
L 161.929941 211.163939 
L 163.56137 211.163939 
L 165.1928 211.163939 
L 166.82423 211.163939 
L 168.45566 211.163939 
L 170.08709 211.163939 
L 171.71852 211.163939 
L 173.34995 211.163939 
L 174.98138 211.163939 
L 176.61281 211.163939 
L 178.244239 211.163939 
L 179.875669 211.163939 
L 181.507099 211.163939 
L 183.138529 211.163939 
L 184.769959 211.163939 
L 186.401389 211.163939 
L 188.032819 211.163939 
L 189.664249 211.163939 
L 191.295678 211.163939 
L 192.927108 211.163939 
L 194.558538 211.163939 
L 196.189968 211.163939 
L 197.821398 211.163939 
L 199.452828 211.163939 
L 201.084258 211.163939 
L 202.715688 211.163939 
L 204.347117 211.163939 
L 205.978547 211.163939 
L 207.609977 211.163939 
L 209.241407 211.163939 
L 210.872837 211.163939 
L 212.504267 211.163939 
L 214.135697 211.163939 
L 215.767127 211.163939 
L 217.398556 211.163939 
L 219.029986 211.163939 
L 220.661416 211.163939 
L 222.292846 211.163939 
L 223.924276 211.163939 
L 225.555706 211.163939 
L 227.187136 211.163939 
L 228.818566 200.981604 
L 230.449995 211.163939 
L 232.081425 181.179777 
L 233.712855 201.953787 
L 235.344285 209.014904 
L 236.975715 189.059574 
L 238.607145 190.7213 
L 240.238575 190.669024 
L 241.870005 194.984772 
L 243.501434 211.163939 
L 245.132864 205.433178 
L 246.764294 199.702416 
L 248.395724 205.433178 
L 250.027154 208.298558 
L 251.658584 202.260792 
L 253.290014 205.433178 
L 254.921444 207.070538 
L 256.552873 205.433178 
L 258.184303 191.515614 
L 259.815733 208.298558 
L 261.447163 205.023838 
L 263.078593 200.725767 
L 264.710023 205.16199 
L 266.341453 177.291046 
L 267.972883 196.939371 
L 269.604312 190.696934 
L 271.235742 211.163939 
L 272.867172 208.298558 
L 274.498602 209.321909 
L 276.130032 211.163939 
L 277.761462 199.395411 
L 279.392892 205.433178 
L 281.024322 211.163939 
L 282.655751 195.413721 
L 284.287181 190.696934 
L 285.918611 204.205157 
L 287.550041 205.433178 
L 289.181471 211.163939 
L 290.812901 194.939186 
L 292.444331 202.567797 
L 294.075761 208.605563 
L 295.70719 211.163939 
L 297.33862 211.163939 
L 298.97005 170.229929 
L 300.60148 196.427695 
L 302.23291 187.831553 
L 303.86434 190.696934 
L 305.49577 191.069061 
L 307.1272 203.181807 
L 308.75863 208.298558 
L 310.390059 211.163939 
L 312.021489 184.966173 
L 313.652919 211.163939 
L 315.284349 190.696934 
L 316.915779 184.966173 
L 318.547209 195.499858 
L 320.178639 211.163939 
L 321.810069 208.298558 
L 323.441498 202.567797 
L 325.072928 195.979371 
L 326.704358 211.163939 
L 328.335788 205.433178 
L 329.967218 198.781401 
L 331.598648 190.696934 
L 333.230078 205.433178 
L 334.861508 191.208609 
L 336.492937 174.425665 
L 338.124367 205.433178 
L 339.755797 193.152975 
L 341.387227 187.831553 
L 343.018657 199.293076 
L 344.650087 199.702416 
L 346.281517 192.538964 
L 347.912947 208.298558 
L 349.544376 194.086782 
L 351.175806 202.567797 
L 352.807236 196.098867 
L 354.438666 205.433178 
L 356.070096 205.433178 
L 357.701526 204.819168 
L 359.332956 199.293076 
L 360.964386 172.699924 
L 362.595815 190.901604 
L 364.227245 194.012589 
L 365.858675 208.298558 
L 367.490105 194.277676 
L 369.121535 211.163939 
L 370.752965 205.433178 
L 372.384395 190.696934 
L 374.015825 190.696934 
L 375.647254 157.540386 
L 377.278684 169.615919 
L 378.910114 200.214091 
L 380.541544 170.639269 
L 382.172974 193.454275 
L 383.804404 208.298558 
L 385.435834 211.163939 
L 387.067264 211.163939 
L 388.698693 190.389929 
L 390.330123 205.433178 
L 391.961553 175.223878 
L 393.592983 208.298558 
L 395.224413 193.562315 
L 396.855843 187.831553 
L 398.487273 208.298558 
L 398.487273 152.218964 
L 398.487273 152.218964 
L 396.855843 131.854294 
L 395.224413 105.265794 
L 393.592983 132.57064 
L 391.961553 114.764345 
L 390.330123 129.801198 
L 388.698693 129.295919 
L 387.067264 169.411249 
L 385.435834 176.37003 
L 383.804404 137.482721 
L 382.172974 120.426883 
L 380.541544 111.284954 
L 378.910114 119.050721 
L 377.278684 119.881096 
L 375.647254 127.146883 
L 374.015825 133.79866 
L 372.384395 128.477239 
L 370.752965 92.966985 
L 369.121535 176.779371 
L 367.490105 119.705665 
L 365.858675 146.385868 
L 364.227245 128.067898 
L 362.595815 170.229929 
L 360.964386 108.828914 
L 359.332956 170.229929 
L 357.701526 170.229929 
L 356.070096 131.751959 
L 354.438666 158.256731 
L 352.807236 133.189766 
L 351.175806 130.364389 
L 349.544376 139.879722 
L 347.912947 128.983797 
L 346.281517 127.863228 
L 344.650087 127.965563 
L 343.018657 150.888609 
L 341.387227 126.451005 
L 339.755797 166.955208 
L 338.124367 107.907898 
L 336.492937 111.284954 
L 334.861508 127.658558 
L 333.230078 142.190132 
L 331.598648 149.762924 
L 329.967218 152.3213 
L 328.335788 129.295919 
L 326.704358 205.023838 
L 325.072928 130.523939 
L 323.441498 146.032812 
L 321.810069 165.931858 
L 320.178639 155.80069 
L 318.547209 163.987492 
L 316.915779 140.17267 
L 315.284349 136.664041 
L 313.652919 177.188711 
L 312.021489 144.850843 
L 310.390059 176.101401 
L 308.75863 160.815107 
L 307.1272 168.183228 
L 305.49577 150.581604 
L 303.86434 127.556223 
L 302.23291 141.892026 
L 300.60148 146.999878 
L 298.97005 116.197036 
L 297.33862 135.121706 
L 295.70719 166.238863 
L 294.075761 162.554802 
L 292.444331 114.559675 
L 290.812901 161.122112 
L 289.181471 173.09531 
L 287.550041 154.675005 
L 285.918611 173.516458 
L 284.287181 149.762924 
L 282.655751 141.547127 
L 281.024322 170.229929 
L 279.392892 170.025259 
L 277.761462 139.975602 
L 276.130032 188.957239 
L 274.498602 175.34668 
L 272.867172 174.32333 
L 271.235742 169.411249 
L 269.604312 139.427086 
L 267.972883 151.195614 
L 266.341453 131.342619 
L 264.710023 157.540386 
L 263.078593 156.414701 
L 261.447163 148.023228 
L 259.815733 177.188711 
L 258.184303 150.172264 
L 256.552873 132.97998 
L 254.921444 168.183228 
L 253.290014 170.229929 
L 251.658584 180.463431 
L 250.027154 166.955208 
L 248.395724 170.127594 
L 246.764294 190.696934 
L 245.132864 162.043127 
L 243.501434 172.174294 
L 241.870005 154.140072 
L 240.238575 150.172264 
L 238.607145 165.727188 
L 236.975715 155.821157 
L 235.344285 188.777129 
L 233.712855 156.312365 
L 232.081425 160.815107 
L 230.449995 177.225259 
L 228.818566 176.5133 
L 227.187136 190.696934 
L 225.555706 195.657746 
L 223.924276 211.163939 
L 222.292846 211.163939 
L 220.661416 211.163939 
L 219.029986 211.163939 
L 217.398556 211.163939 
L 215.767127 211.163939 
L 214.135697 211.163939 
L 212.504267 211.163939 
L 210.872837 211.163939 
L 209.241407 211.163939 
L 207.609977 211.163939 
L 205.978547 211.163939 
L 204.347117 211.163939 
L 202.715688 211.163939 
L 201.084258 211.163939 
L 199.452828 211.163939 
L 197.821398 211.163939 
L 196.189968 211.163939 
L 194.558538 211.163939 
L 192.927108 211.163939 
L 191.295678 211.163939 
L 189.664249 211.163939 
L 188.032819 211.163939 
L 186.401389 211.163939 
L 184.769959 211.163939 
L 183.138529 211.163939 
L 181.507099 211.163939 
L 179.875669 211.163939 
L 178.244239 211.163939 
L 176.61281 211.163939 
L 174.98138 211.163939 
L 173.34995 211.163939 
L 171.71852 211.163939 
L 170.08709 211.163939 
L 168.45566 211.163939 
L 166.82423 211.163939 
L 165.1928 211.163939 
L 163.56137 211.163939 
L 161.929941 211.163939 
L 160.298511 211.163939 
L 158.667081 211.163939 
L 157.035651 211.163939 
L 155.404221 211.163939 
L 153.772791 211.163939 
L 152.141361 211.163939 
L 150.509931 211.163939 
L 148.878502 211.163939 
L 147.247072 211.163939 
L 145.615642 211.163939 
L 143.984212 211.163939 
L 142.352782 211.163939 
L 140.721352 211.163939 
L 139.089922 211.163939 
L 137.458492 211.163939 
L 135.827063 211.163939 
L 134.195633 211.163939 
L 132.564203 211.163939 
L 130.932773 211.163939 
L 129.301343 211.163939 
L 127.669913 211.163939 
L 126.038483 211.163939 
L 124.407053 211.163939 
L 122.775624 211.163939 
L 121.144194 211.163939 
L 119.512764 211.163939 
L 117.881334 211.163939 
L 116.249904 211.163939 
L 114.618474 211.163939 
L 112.987044 211.163939 
L 111.355614 211.163939 
L 109.724185 211.163939 
L 108.092755 211.163939 
L 106.461325 211.163939 
L 104.829895 211.163939 
L 103.198465 211.163939 
L 101.567035 211.163939 
L 99.935605 211.163939 
L 98.304175 211.163939 
L 96.672746 211.163939 
L 95.041316 211.163939 
L 93.409886 211.163939 
L 91.778456 211.163939 
L 90.147026 211.163939 
L 88.515596 211.163939 
L 86.884166 211.163939 
L 85.252736 211.163939 
L 83.621307 211.163939 
L 81.989877 211.163939 
L 80.358447 211.163939 
L 78.727017 211.163939 
L 77.095587 211.163939 
L 75.464157 211.163939 
L 73.832727 211.163939 
z
" style="fill:#1f77b4;fill-opacity:0.2;"/>
   </g>
   <g id="PolyCollection_2">
    <path clip-path="url(#p40e84f404e)" d="M 73.832727 211.163939 
L 73.832727 211.163939 
L 75.464157 211.163939 
L 77.095587 211.163939 
L 78.727017 211.163939 
L 80.358447 211.163939 
L 81.989877 211.163939 
L 83.621307 211.163939 
L 85.252736 211.163939 
L 86.884166 211.163939 
L 88.515596 211.163939 
L 90.147026 211.163939 
L 91.778456 211.163939 
L 93.409886 211.163939 
L 95.041316 211.163939 
L 96.672746 211.163939 
L 98.304175 211.163939 
L 99.935605 211.163939 
L 101.567035 211.163939 
L 103.198465 211.163939 
L 104.829895 211.163939 
L 106.461325 211.163939 
L 108.092755 211.163939 
L 109.724185 211.163939 
L 111.355614 211.163939 
L 112.987044 211.163939 
L 114.618474 211.163939 
L 116.249904 211.163939 
L 117.881334 211.163939 
L 119.512764 211.163939 
L 121.144194 211.163939 
L 122.775624 211.163939 
L 124.407053 211.163939 
L 126.038483 211.163939 
L 127.669913 211.163939 
L 129.301343 211.163939 
L 130.932773 211.163939 
L 132.564203 211.163939 
L 134.195633 211.163939 
L 135.827063 211.163939 
L 137.458492 211.163939 
L 139.089922 211.163939 
L 140.721352 211.163939 
L 142.352782 211.163939 
L 143.984212 211.163939 
L 145.615642 211.163939 
L 147.247072 211.163939 
L 148.878502 211.163939 
L 150.509931 211.163939 
L 152.141361 211.163939 
L 153.772791 211.163939 
L 155.404221 211.163939 
L 157.035651 211.163939 
L 158.667081 211.163939 
L 160.298511 211.163939 
L 161.929941 211.163939 
L 163.56137 211.163939 
L 165.1928 211.163939 
L 166.82423 211.163939 
L 168.45566 211.163939 
L 170.08709 211.163939 
L 171.71852 211.163939 
L 173.34995 211.163939 
L 174.98138 211.163939 
L 176.61281 211.163939 
L 178.244239 211.163939 
L 179.875669 211.163939 
L 181.507099 211.163939 
L 183.138529 211.163939 
L 184.769959 211.163939 
L 186.401389 211.163939 
L 188.032819 211.163939 
L 189.664249 211.163939 
L 191.295678 211.163939 
L 192.927108 211.163939 
L 194.558538 211.163939 
L 196.189968 211.163939 
L 197.821398 211.163939 
L 199.452828 211.163939 
L 201.084258 211.163939 
L 202.715688 231.630944 
L 204.347117 248.004548 
L 205.978547 231.630944 
L 207.609977 231.221604 
L 209.241407 211.163939 
L 210.872837 211.163939 
L 212.504267 271.336934 
L 214.135697 211.163939 
L 215.767127 211.163939 
L 217.398556 211.163939 
L 219.029986 211.163939 
L 220.661416 211.163939 
L 222.292846 211.163939 
L 223.924276 211.163939 
L 225.555706 250.460589 
L 227.187136 247.185868 
L 228.818566 212.391959 
L 230.449995 220.169421 
L 232.081425 240.636426 
L 233.712855 280.342416 
L 235.344285 247.185868 
L 236.975715 250.460589 
L 238.607145 272.974294 
L 240.238575 271.746274 
L 241.870005 255.78201 
L 243.501434 252.097949 
L 245.132864 238.589726 
L 246.764294 243.911147 
L 248.395724 211.163939 
L 250.027154 211.163939 
L 251.658584 211.163939 
L 253.290014 211.163939 
L 254.921444 272.155614 
L 256.552873 211.163939 
L 258.184303 235.724345 
L 259.815733 284.845157 
L 261.447163 213.21064 
L 263.078593 240.636426 
L 264.710023 229.993584 
L 266.341453 232.858964 
L 267.972883 268.880893 
L 269.604312 241.045767 
L 271.235742 286.482518 
L 272.867172 228.765563 
L 274.498602 214.02932 
L 276.130032 211.573279 
L 277.761462 260.284751 
L 279.392892 250.460589 
L 281.024322 211.163939 
L 282.655751 225.081503 
L 284.287181 250.460589 
L 285.918611 232.858964 
L 287.550041 249.641909 
L 289.181471 228.356223 
L 290.812901 279.933076 
L 292.444331 211.163939 
L 294.075761 254.96333 
L 295.70719 211.163939 
L 297.33862 252.097949 
L 298.97005 248.413888 
L 300.60148 249.641909 
L 302.23291 251.279269 
L 303.86434 251.688609 
L 305.49577 269.290234 
L 307.1272 211.163939 
L 308.75863 231.221604 
L 310.390059 290.166579 
L 312.021489 241.045767 
L 313.652919 260.284751 
L 315.284349 213.21064 
L 316.915779 269.699574 
L 318.547209 243.092467 
L 320.178639 295.488 
L 321.810069 225.490843 
L 323.441498 247.185868 
L 325.072928 232.449624 
L 326.704358 254.14465 
L 328.335788 211.163939 
L 329.967218 218.532061 
L 331.598648 211.163939 
L 333.230078 258.647391 
L 334.861508 225.900183 
L 336.492937 255.78201 
L 338.124367 231.630944 
L 339.755797 223.853482 
L 341.387227 233.268305 
L 343.018657 211.163939 
L 344.650087 211.163939 
L 346.281517 214.848 
L 347.912947 211.163939 
L 349.544376 231.630944 
L 351.175806 219.760081 
L 352.807236 266.424853 
L 354.438666 235.724345 
L 356.070096 227.537543 
L 357.701526 233.268305 
L 359.332956 229.174904 
L 360.964386 256.19135 
L 362.595815 211.163939 
L 364.227245 253.32597 
L 365.858675 251.279269 
L 367.490105 211.163939 
L 369.121535 211.163939 
L 370.752965 221.397442 
L 372.384395 246.367188 
L 374.015825 216.48536 
L 375.647254 236.543025 
L 377.278684 238.999066 
L 378.910114 211.163939 
L 380.541544 217.713381 
L 382.172974 235.315005 
L 383.804404 259.875411 
L 385.435834 219.350741 
L 387.067264 212.8013 
L 388.698693 258.647391 
L 390.330123 233.677645 
L 391.961553 231.630944 
L 393.592983 211.163939 
L 395.224413 231.630944 
L 396.855843 213.21064 
L 398.487273 211.163939 
L 398.487273 115.229504 
L 398.487273 115.229504 
L 396.855843 104.735513 
L 395.224413 69.532264 
L 393.592983 105.749117 
L 391.961553 90.817949 
L 390.330123 98.595411 
L 388.698693 121.109117 
L 387.067264 114.723411 
L 385.435834 119.881096 
L 383.804404 111.694294 
L 382.172974 104.735513 
L 380.541544 80.584447 
L 378.910114 73.625665 
L 377.278684 93.68333 
L 375.647254 99.414091 
L 374.015825 117.797183 
L 372.384395 117.13267 
L 370.752965 71.988305 
L 369.121535 123.676796 
L 367.490105 97.776731 
L 365.858675 122.112 
L 364.227245 95.32069 
L 362.595815 130.173076 
L 360.964386 53.568 
L 359.332956 131.463905 
L 357.701526 129.972904 
L 356.070096 94.50201 
L 354.438666 125.141117 
L 352.807236 115.378355 
L 351.175806 94.91135 
L 349.544376 120.011341 
L 347.912947 79.765767 
L 346.281517 105.554193 
L 344.650087 61.754802 
L 343.018657 118.332723 
L 341.387227 116.197036 
L 339.755797 116.898761 
L 338.124367 75.263025 
L 336.492937 94.50201 
L 334.861508 95.32069 
L 333.230078 112.512975 
L 331.598648 129.787127 
L 329.967218 115.378355 
L 328.335788 110.466274 
L 326.704358 139.650707 
L 325.072928 110.875614 
L 323.441498 123.155817 
L 321.810069 137.892061 
L 320.178639 139.529421 
L 318.547209 140.065798 
L 316.915779 132.161299 
L 315.284349 114.150335 
L 313.652919 140.30087 
L 312.021489 123.565157 
L 310.390059 138.932467 
L 308.75863 137.162368 
L 307.1272 135.659297 
L 305.49577 128.067898 
L 303.86434 85.905868 
L 302.23291 124.793178 
L 300.60148 117.834396 
L 298.97005 91.227289 
L 297.33862 105.144853 
L 295.70719 132.738097 
L 294.075761 132.512162 
L 292.444331 82.631147 
L 290.812901 119.062416 
L 289.181471 132.97998 
L 287.550041 133.538171 
L 285.918611 110.875614 
L 284.287181 133.675858 
L 282.655751 80.584447 
L 281.024322 130.933279 
L 279.392892 133.79866 
L 277.761462 92.04597 
L 276.130032 127.334497 
L 274.498602 124.633001 
L 272.867172 124.42105 
L 271.235742 122.239675 
L 269.604312 116.606376 
L 267.972883 114.559675 
L 266.341453 108.419574 
L 264.710023 125.52999 
L 263.078593 122.746477 
L 261.447163 111.284954 
L 259.815733 139.331354 
L 258.184303 103.098152 
L 256.552873 110.056934 
L 254.921444 138.301401 
L 253.290014 137.073381 
L 251.658584 137.892061 
L 250.027154 137.957555 
L 248.395724 106.782213 
L 246.764294 130.114599 
L 245.132864 123.974497 
L 243.501434 135.397036 
L 241.870005 111.694294 
L 240.238575 135.02668 
L 238.607145 138.03533 
L 236.975715 126.021198 
L 235.344285 140.020629 
L 233.712855 115.378355 
L 232.081425 109.647594 
L 230.449995 132.161299 
L 228.818566 128.067898 
L 227.187136 155.084345 
L 225.555706 130.523939 
L 223.924276 189.673584 
L 222.292846 190.696934 
L 220.661416 198.981198 
L 219.029986 139.120081 
L 217.398556 150.990944 
L 215.767127 143.320267 
L 214.135697 125.611858 
L 212.504267 142.141401 
L 210.872837 140.716508 
L 209.241407 108.828914 
L 207.609977 168.592569 
L 205.978547 183.758619 
L 204.347117 211.163939 
L 202.715688 211.163939 
L 201.084258 211.163939 
L 199.452828 211.163939 
L 197.821398 211.163939 
L 196.189968 211.163939 
L 194.558538 211.163939 
L 192.927108 211.163939 
L 191.295678 211.163939 
L 189.664249 211.163939 
L 188.032819 211.163939 
L 186.401389 211.163939 
L 184.769959 211.163939 
L 183.138529 211.163939 
L 181.507099 211.163939 
L 179.875669 211.163939 
L 178.244239 211.163939 
L 176.61281 211.163939 
L 174.98138 211.163939 
L 173.34995 211.163939 
L 171.71852 211.163939 
L 170.08709 211.163939 
L 168.45566 211.163939 
L 166.82423 211.163939 
L 165.1928 211.163939 
L 163.56137 211.163939 
L 161.929941 211.163939 
L 160.298511 211.163939 
L 158.667081 211.163939 
L 157.035651 211.163939 
L 155.404221 211.163939 
L 153.772791 211.163939 
L 152.141361 211.163939 
L 150.509931 211.163939 
L 148.878502 211.163939 
L 147.247072 211.163939 
L 145.615642 211.163939 
L 143.984212 211.163939 
L 142.352782 211.163939 
L 140.721352 211.163939 
L 139.089922 211.163939 
L 137.458492 211.163939 
L 135.827063 211.163939 
L 134.195633 211.163939 
L 132.564203 211.163939 
L 130.932773 211.163939 
L 129.301343 211.163939 
L 127.669913 211.163939 
L 126.038483 211.163939 
L 124.407053 211.163939 
L 122.775624 211.163939 
L 121.144194 211.163939 
L 119.512764 211.163939 
L 117.881334 211.163939 
L 116.249904 211.163939 
L 114.618474 211.163939 
L 112.987044 211.163939 
L 111.355614 211.163939 
L 109.724185 211.163939 
L 108.092755 211.163939 
L 106.461325 211.163939 
L 104.829895 211.163939 
L 103.198465 211.163939 
L 101.567035 211.163939 
L 99.935605 211.163939 
L 98.304175 211.163939 
L 96.672746 211.163939 
L 95.041316 211.163939 
L 93.409886 211.163939 
L 91.778456 211.163939 
L 90.147026 211.163939 
L 88.515596 211.163939 
L 86.884166 211.163939 
L 85.252736 211.163939 
L 83.621307 211.163939 
L 81.989877 211.163939 
L 80.358447 211.163939 
L 78.727017 211.163939 
L 77.095587 211.163939 
L 75.464157 211.163939 
L 73.832727 211.163939 
z
" style="fill:#1f77b4;fill-opacity:0.1;"/>
   </g>
   <g id="matplotlib.axis_1">
    <g id="xtick_1">
     <g id="line2d_1">
      <defs>
       <path d="M 0 0 
L 0 3.5 
" id="m0d89017b3c" style="stroke:#000000;stroke-width:0.8;"/>
      </defs>
      <g>
       <use style="stroke:#000000;stroke-width:0.8;" x="73.832727" xlink:href="#m0d89017b3c" y="307.584"/>
      </g>
     </g>
     <g id="text_1">
      <!-- 0 -->
      <defs>
       <path d="M 31.78125 66.40625 
Q 24.171875 66.40625 20.328125 58.90625 
Q 16.5 51.421875 16.5 36.375 
Q 16.5 21.390625 20.328125 13.890625 
Q 24.171875 6.390625 31.78125 6.390625 
Q 39.453125 6.390625 43.28125 13.890625 
Q 47.125 21.390625 47.125 36.375 
Q 47.125 51.421875 43.28125 58.90625 
Q 39.453125 66.40625 31.78125 66.40625 
z
M 31.78125 74.21875 
Q 44.046875 74.21875 50.515625 64.515625 
Q 56.984375 54.828125 56.984375 36.375 
Q 56.984375 17.96875 50.515625 8.265625 
Q 44.046875 -1.421875 31.78125 -1.421875 
Q 19.53125 -1.421875 13.0625 8.265625 
Q 6.59375 17.96875 6.59375 36.375 
Q 6.59375 54.828125 13.0625 64.515625 
Q 19.53125 74.21875 31.78125 74.21875 
z
" id="DejaVuSans-48"/>
      </defs>
      <g transform="translate(70.651477 322.182437)scale(0.1 -0.1)">
       <use xlink:href="#DejaVuSans-48"/>
      </g>
     </g>
    </g>
    <g id="xtick_2">
     <g id="line2d_2">
      <g>
       <use style="stroke:#000000;stroke-width:0.8;" x="114.618474" xlink:href="#m0d89017b3c" y="307.584"/>
      </g>
     </g>
     <g id="text_2">
      <!-- 25 -->
      <defs>
       <path d="M 19.1875 8.296875 
L 53.609375 8.296875 
L 53.609375 0 
L 7.328125 0 
L 7.328125 8.296875 
Q 12.9375 14.109375 22.625 23.890625 
Q 32.328125 33.6875 34.8125 36.53125 
Q 39.546875 41.84375 41.421875 45.53125 
Q 43.3125 49.21875 43.3125 52.78125 
Q 43.3125 58.59375 39.234375 62.25 
Q 35.15625 65.921875 28.609375 65.921875 
Q 23.96875 65.921875 18.8125 64.3125 
Q 13.671875 62.703125 7.8125 59.421875 
L 7.8125 69.390625 
Q 13.765625 71.78125 18.9375 73 
Q 24.125 74.21875 28.421875 74.21875 
Q 39.75 74.21875 46.484375 68.546875 
Q 53.21875 62.890625 53.21875 53.421875 
Q 53.21875 48.921875 51.53125 44.890625 
Q 49.859375 40.875 45.40625 35.40625 
Q 44.1875 33.984375 37.640625 27.21875 
Q 31.109375 20.453125 19.1875 8.296875 
z
" id="DejaVuSans-50"/>
       <path d="M 10.796875 72.90625 
L 49.515625 72.90625 
L 49.515625 64.59375 
L 19.828125 64.59375 
L 19.828125 46.734375 
Q 21.96875 47.46875 24.109375 47.828125 
Q 26.265625 48.1875 28.421875 48.1875 
Q 40.625 48.1875 47.75 41.5 
Q 54.890625 34.8125 54.890625 23.390625 
Q 54.890625 11.625 47.5625 5.09375 
Q 40.234375 -1.421875 26.90625 -1.421875 
Q 22.3125 -1.421875 17.546875 -0.640625 
Q 12.796875 0.140625 7.71875 1.703125 
L 7.71875 11.625 
Q 12.109375 9.234375 16.796875 8.0625 
Q 21.484375 6.890625 26.703125 6.890625 
Q 35.15625 6.890625 40.078125 11.328125 
Q 45.015625 15.765625 45.015625 23.390625 
Q 45.015625 31 40.078125 35.4375 
Q 35.15625 39.890625 26.703125 39.890625 
Q 22.75 39.890625 18.8125 39.015625 
Q 14.890625 38.140625 10.796875 36.28125 
z
" id="DejaVuSans-53"/>
      </defs>
      <g transform="translate(108.255974 322.182437)scale(0.1 -0.1)">
       <use xlink:href="#DejaVuSans-50"/>
       <use x="63.623047" xlink:href="#DejaVuSans-53"/>
      </g>
     </g>
    </g>
    <g id="xtick_3">
     <g id="line2d_3">
      <g>
       <use style="stroke:#000000;stroke-width:0.8;" x="155.404221" xlink:href="#m0d89017b3c" y="307.584"/>
      </g>
     </g>
     <g id="text_3">
      <!-- 50 -->
      <g transform="translate(149.041721 322.182437)scale(0.1 -0.1)">
       <use xlink:href="#DejaVuSans-53"/>
       <use x="63.623047" xlink:href="#DejaVuSans-48"/>
      </g>
     </g>
    </g>
    <g id="xtick_4">
     <g id="line2d_4">
      <g>
       <use style="stroke:#000000;stroke-width:0.8;" x="196.189968" xlink:href="#m0d89017b3c" y="307.584"/>
      </g>
     </g>
     <g id="text_4">
      <!-- 75 -->
      <defs>
       <path d="M 8.203125 72.90625 
L 55.078125 72.90625 
L 55.078125 68.703125 
L 28.609375 0 
L 18.3125 0 
L 43.21875 64.59375 
L 8.203125 64.59375 
z
" id="DejaVuSans-55"/>
      </defs>
      <g transform="translate(189.827468 322.182437)scale(0.1 -0.1)">
       <use xlink:href="#DejaVuSans-55"/>
       <use x="63.623047" xlink:href="#DejaVuSans-53"/>
      </g>
     </g>
    </g>
    <g id="xtick_5">
     <g id="line2d_5">
      <g>
       <use style="stroke:#000000;stroke-width:0.8;" x="236.975715" xlink:href="#m0d89017b3c" y="307.584"/>
      </g>
     </g>
     <g id="text_5">
      <!-- 100 -->
      <defs>
       <path d="M 12.40625 8.296875 
L 28.515625 8.296875 
L 28.515625 63.921875 
L 10.984375 60.40625 
L 10.984375 69.390625 
L 28.421875 72.90625 
L 38.28125 72.90625 
L 38.28125 8.296875 
L 54.390625 8.296875 
L 54.390625 0 
L 12.40625 0 
z
" id="DejaVuSans-49"/>
      </defs>
      <g transform="translate(227.431965 322.182437)scale(0.1 -0.1)">
       <use xlink:href="#DejaVuSans-49"/>
       <use x="63.623047" xlink:href="#DejaVuSans-48"/>
       <use x="127.246094" xlink:href="#DejaVuSans-48"/>
      </g>
     </g>
    </g>
    <g id="xtick_6">
     <g id="line2d_6">
      <g>
       <use style="stroke:#000000;stroke-width:0.8;" x="277.761462" xlink:href="#m0d89017b3c" y="307.584"/>
      </g>
     </g>
     <g id="text_6">
      <!-- 125 -->
      <g transform="translate(268.217712 322.182437)scale(0.1 -0.1)">
       <use xlink:href="#DejaVuSans-49"/>
       <use x="63.623047" xlink:href="#DejaVuSans-50"/>
       <use x="127.246094" xlink:href="#DejaVuSans-53"/>
      </g>
     </g>
    </g>
    <g id="xtick_7">
     <g id="line2d_7">
      <g>
       <use style="stroke:#000000;stroke-width:0.8;" x="318.547209" xlink:href="#m0d89017b3c" y="307.584"/>
      </g>
     </g>
     <g id="text_7">
      <!-- 150 -->
      <g transform="translate(309.003459 322.182437)scale(0.1 -0.1)">
       <use xlink:href="#DejaVuSans-49"/>
       <use x="63.623047" xlink:href="#DejaVuSans-53"/>
       <use x="127.246094" xlink:href="#DejaVuSans-48"/>
      </g>
     </g>
    </g>
    <g id="xtick_8">
     <g id="line2d_8">
      <g>
       <use style="stroke:#000000;stroke-width:0.8;" x="359.332956" xlink:href="#m0d89017b3c" y="307.584"/>
      </g>
     </g>
     <g id="text_8">
      <!-- 175 -->
      <g transform="translate(349.789206 322.182437)scale(0.1 -0.1)">
       <use xlink:href="#DejaVuSans-49"/>
       <use x="63.623047" xlink:href="#DejaVuSans-55"/>
       <use x="127.246094" xlink:href="#DejaVuSans-53"/>
      </g>
     </g>
    </g>
    <g id="xtick_9">
     <g id="line2d_9">
      <g>
       <use style="stroke:#000000;stroke-width:0.8;" x="400.118703" xlink:href="#m0d89017b3c" y="307.584"/>
      </g>
     </g>
     <g id="text_9">
      <!-- 200 -->
      <g transform="translate(390.574953 322.182437)scale(0.1 -0.1)">
       <use xlink:href="#DejaVuSans-50"/>
       <use x="63.623047" xlink:href="#DejaVuSans-48"/>
       <use x="127.246094" xlink:href="#DejaVuSans-48"/>
      </g>
     </g>
    </g>
   </g>
   <g id="matplotlib.axis_2">
    <g id="ytick_1">
     <g id="line2d_10">
      <defs>
       <path d="M 0 0 
L -3.5 0 
" id="mb3488462c5" style="stroke:#000000;stroke-width:0.8;"/>
      </defs>
      <g>
       <use style="stroke:#000000;stroke-width:0.8;" x="57.6" xlink:href="#mb3488462c5" y="282.798457"/>
      </g>
     </g>
     <g id="text_10">
      <!-- 0.1 -->
      <defs>
       <path d="M 10.6875 12.40625 
L 21 12.40625 
L 21 0 
L 10.6875 0 
z
" id="DejaVuSans-46"/>
      </defs>
      <g transform="translate(34.696875 286.597676)scale(0.1 -0.1)">
       <use xlink:href="#DejaVuSans-48"/>
       <use x="63.623047" xlink:href="#DejaVuSans-46"/>
       <use x="95.410156" xlink:href="#DejaVuSans-49"/>
      </g>
     </g>
    </g>
    <g id="ytick_2">
     <g id="line2d_11">
      <g>
       <use style="stroke:#000000;stroke-width:0.8;" x="57.6" xlink:href="#mb3488462c5" y="252.097949"/>
      </g>
     </g>
     <g id="text_11">
      <!-- 0.2 -->
      <g transform="translate(34.696875 255.897168)scale(0.1 -0.1)">
       <use xlink:href="#DejaVuSans-48"/>
       <use x="63.623047" xlink:href="#DejaVuSans-46"/>
       <use x="95.410156" xlink:href="#DejaVuSans-50"/>
      </g>
     </g>
    </g>
    <g id="ytick_3">
     <g id="line2d_12">
      <g>
       <use style="stroke:#000000;stroke-width:0.8;" x="57.6" xlink:href="#mb3488462c5" y="221.397442"/>
      </g>
     </g>
     <g id="text_12">
      <!-- 0.3 -->
      <defs>
       <path d="M 40.578125 39.3125 
Q 47.65625 37.796875 51.625 33 
Q 55.609375 28.21875 55.609375 21.1875 
Q 55.609375 10.40625 48.1875 4.484375 
Q 40.765625 -1.421875 27.09375 -1.421875 
Q 22.515625 -1.421875 17.65625 -0.515625 
Q 12.796875 0.390625 7.625 2.203125 
L 7.625 11.71875 
Q 11.71875 9.328125 16.59375 8.109375 
Q 21.484375 6.890625 26.8125 6.890625 
Q 36.078125 6.890625 40.9375 10.546875 
Q 45.796875 14.203125 45.796875 21.1875 
Q 45.796875 27.640625 41.28125 31.265625 
Q 36.765625 34.90625 28.71875 34.90625 
L 20.21875 34.90625 
L 20.21875 43.015625 
L 29.109375 43.015625 
Q 36.375 43.015625 40.234375 45.921875 
Q 44.09375 48.828125 44.09375 54.296875 
Q 44.09375 59.90625 40.109375 62.90625 
Q 36.140625 65.921875 28.71875 65.921875 
Q 24.65625 65.921875 20.015625 65.03125 
Q 15.375 64.15625 9.8125 62.3125 
L 9.8125 71.09375 
Q 15.4375 72.65625 20.34375 73.4375 
Q 25.25 74.21875 29.59375 74.21875 
Q 40.828125 74.21875 47.359375 69.109375 
Q 53.90625 64.015625 53.90625 55.328125 
Q 53.90625 49.265625 50.4375 45.09375 
Q 46.96875 40.921875 40.578125 39.3125 
z
" id="DejaVuSans-51"/>
      </defs>
      <g transform="translate(34.696875 225.19666)scale(0.1 -0.1)">
       <use xlink:href="#DejaVuSans-48"/>
       <use x="63.623047" xlink:href="#DejaVuSans-46"/>
       <use x="95.410156" xlink:href="#DejaVuSans-51"/>
      </g>
     </g>
    </g>
    <g id="ytick_4">
     <g id="line2d_13">
      <g>
       <use style="stroke:#000000;stroke-width:0.8;" x="57.6" xlink:href="#mb3488462c5" y="190.696934"/>
      </g>
     </g>
     <g id="text_13">
      <!-- 0.4 -->
      <defs>
       <path d="M 37.796875 64.3125 
L 12.890625 25.390625 
L 37.796875 25.390625 
z
M 35.203125 72.90625 
L 47.609375 72.90625 
L 47.609375 25.390625 
L 58.015625 25.390625 
L 58.015625 17.1875 
L 47.609375 17.1875 
L 47.609375 0 
L 37.796875 0 
L 37.796875 17.1875 
L 4.890625 17.1875 
L 4.890625 26.703125 
z
" id="DejaVuSans-52"/>
      </defs>
      <g transform="translate(34.696875 194.496153)scale(0.1 -0.1)">
       <use xlink:href="#DejaVuSans-48"/>
       <use x="63.623047" xlink:href="#DejaVuSans-46"/>
       <use x="95.410156" xlink:href="#DejaVuSans-52"/>
      </g>
     </g>
    </g>
    <g id="ytick_5">
     <g id="line2d_14">
      <g>
       <use style="stroke:#000000;stroke-width:0.8;" x="57.6" xlink:href="#mb3488462c5" y="159.996426"/>
      </g>
     </g>
     <g id="text_14">
      <!-- 0.5 -->
      <g transform="translate(34.696875 163.795645)scale(0.1 -0.1)">
       <use xlink:href="#DejaVuSans-48"/>
       <use x="63.623047" xlink:href="#DejaVuSans-46"/>
       <use x="95.410156" xlink:href="#DejaVuSans-53"/>
      </g>
     </g>
    </g>
    <g id="ytick_6">
     <g id="line2d_15">
      <g>
       <use style="stroke:#000000;stroke-width:0.8;" x="57.6" xlink:href="#mb3488462c5" y="129.295919"/>
      </g>
     </g>
     <g id="text_15">
      <!-- 0.6 -->
      <defs>
       <path d="M 33.015625 40.375 
Q 26.375 40.375 22.484375 35.828125 
Q 18.609375 31.296875 18.609375 23.390625 
Q 18.609375 15.53125 22.484375 10.953125 
Q 26.375 6.390625 33.015625 6.390625 
Q 39.65625 6.390625 43.53125 10.953125 
Q 47.40625 15.53125 47.40625 23.390625 
Q 47.40625 31.296875 43.53125 35.828125 
Q 39.65625 40.375 33.015625 40.375 
z
M 52.59375 71.296875 
L 52.59375 62.3125 
Q 48.875 64.0625 45.09375 64.984375 
Q 41.3125 65.921875 37.59375 65.921875 
Q 27.828125 65.921875 22.671875 59.328125 
Q 17.53125 52.734375 16.796875 39.40625 
Q 19.671875 43.65625 24.015625 45.921875 
Q 28.375 48.1875 33.59375 48.1875 
Q 44.578125 48.1875 50.953125 41.515625 
Q 57.328125 34.859375 57.328125 23.390625 
Q 57.328125 12.15625 50.6875 5.359375 
Q 44.046875 -1.421875 33.015625 -1.421875 
Q 20.359375 -1.421875 13.671875 8.265625 
Q 6.984375 17.96875 6.984375 36.375 
Q 6.984375 53.65625 15.1875 63.9375 
Q 23.390625 74.21875 37.203125 74.21875 
Q 40.921875 74.21875 44.703125 73.484375 
Q 48.484375 72.75 52.59375 71.296875 
z
" id="DejaVuSans-54"/>
      </defs>
      <g transform="translate(34.696875 133.095138)scale(0.1 -0.1)">
       <use xlink:href="#DejaVuSans-48"/>
       <use x="63.623047" xlink:href="#DejaVuSans-46"/>
       <use x="95.410156" xlink:href="#DejaVuSans-54"/>
      </g>
     </g>
    </g>
    <g id="ytick_7">
     <g id="line2d_16">
      <g>
       <use style="stroke:#000000;stroke-width:0.8;" x="57.6" xlink:href="#mb3488462c5" y="98.595411"/>
      </g>
     </g>
     <g id="text_16">
      <!-- 0.7 -->
      <g transform="translate(34.696875 102.39463)scale(0.1 -0.1)">
       <use xlink:href="#DejaVuSans-48"/>
       <use x="63.623047" xlink:href="#DejaVuSans-46"/>
       <use x="95.410156" xlink:href="#DejaVuSans-55"/>
      </g>
     </g>
    </g>
    <g id="ytick_8">
     <g id="line2d_17">
      <g>
       <use style="stroke:#000000;stroke-width:0.8;" x="57.6" xlink:href="#mb3488462c5" y="67.894904"/>
      </g>
     </g>
     <g id="text_17">
      <!-- 0.8 -->
      <defs>
       <path d="M 31.78125 34.625 
Q 24.75 34.625 20.71875 30.859375 
Q 16.703125 27.09375 16.703125 20.515625 
Q 16.703125 13.921875 20.71875 10.15625 
Q 24.75 6.390625 31.78125 6.390625 
Q 38.8125 6.390625 42.859375 10.171875 
Q 46.921875 13.96875 46.921875 20.515625 
Q 46.921875 27.09375 42.890625 30.859375 
Q 38.875 34.625 31.78125 34.625 
z
M 21.921875 38.8125 
Q 15.578125 40.375 12.03125 44.71875 
Q 8.5 49.078125 8.5 55.328125 
Q 8.5 64.0625 14.71875 69.140625 
Q 20.953125 74.21875 31.78125 74.21875 
Q 42.671875 74.21875 48.875 69.140625 
Q 55.078125 64.0625 55.078125 55.328125 
Q 55.078125 49.078125 51.53125 44.71875 
Q 48 40.375 41.703125 38.8125 
Q 48.828125 37.15625 52.796875 32.3125 
Q 56.78125 27.484375 56.78125 20.515625 
Q 56.78125 9.90625 50.3125 4.234375 
Q 43.84375 -1.421875 31.78125 -1.421875 
Q 19.734375 -1.421875 13.25 4.234375 
Q 6.78125 9.90625 6.78125 20.515625 
Q 6.78125 27.484375 10.78125 32.3125 
Q 14.796875 37.15625 21.921875 38.8125 
z
M 18.3125 54.390625 
Q 18.3125 48.734375 21.84375 45.5625 
Q 25.390625 42.390625 31.78125 42.390625 
Q 38.140625 42.390625 41.71875 45.5625 
Q 45.3125 48.734375 45.3125 54.390625 
Q 45.3125 60.0625 41.71875 63.234375 
Q 38.140625 66.40625 31.78125 66.40625 
Q 25.390625 66.40625 21.84375 63.234375 
Q 18.3125 60.0625 18.3125 54.390625 
z
" id="DejaVuSans-56"/>
      </defs>
      <g transform="translate(34.696875 71.694122)scale(0.1 -0.1)">
       <use xlink:href="#DejaVuSans-48"/>
       <use x="63.623047" xlink:href="#DejaVuSans-46"/>
       <use x="95.410156" xlink:href="#DejaVuSans-56"/>
      </g>
     </g>
    </g>
   </g>
   <g id="line2d_18">
    <path clip-path="url(#p40e84f404e)" d="M 73.832727 211.163939 
L 225.555706 211.163939 
L 227.187136 203.386477 
L 228.818566 189.264244 
L 230.449995 193.971655 
L 232.081425 170.229929 
L 233.712855 190.287594 
L 235.344285 192.538964 
L 236.975715 173.70932 
L 238.607145 179.644751 
L 240.238575 170.229929 
L 241.870005 191.730518 
L 243.501434 205.433178 
L 245.132864 174.93734 
L 246.764294 191.106274 
L 248.395724 195.881909 
L 250.027154 192.334294 
L 251.658584 191.271959 
L 253.290014 178.007391 
L 254.921444 190.696934 
L 256.552873 171.867289 
L 258.184303 171.457949 
L 259.815733 197.942254 
L 261.447163 172.276629 
L 263.078593 182.100792 
L 264.710023 171.048609 
L 266.341453 153.037645 
L 267.972883 189.752303 
L 269.604312 158.791147 
L 271.235742 194.135391 
L 272.867172 208.298558 
L 274.498602 190.696934 
L 276.130032 208.298558 
L 277.761462 176.349563 
L 279.392892 189.878254 
L 281.024322 187.831553 
L 282.655751 182.510132 
L 284.287181 179.088049 
L 285.918611 202.567797 
L 287.550041 187.831553 
L 289.181471 190.696934 
L 290.812901 189.878254 
L 294.075761 191.515614 
L 295.70719 191.515614 
L 297.33862 174.93734 
L 298.97005 139.734091 
L 300.60148 178.826071 
L 302.23291 156.943431 
L 303.86434 141.047391 
L 305.49577 171.662619 
L 307.1272 180.463431 
L 308.75863 180.054091 
L 310.390059 190.696934 
L 312.021489 169.206579 
L 313.652919 198.065056 
L 315.284349 190.696934 
L 316.915779 149.762924 
L 318.547209 174.93734 
L 320.178639 177.393381 
L 321.810069 186.398863 
L 323.441498 160.344919 
L 325.072928 166.955208 
L 326.704358 211.163939 
L 328.335788 153.651655 
L 329.967218 186.603533 
L 331.598648 167.978558 
L 333.230078 158.359066 
L 334.861508 146.343228 
L 336.492937 160.815107 
L 338.124367 147.243365 
L 339.755797 192.538964 
L 341.387227 148.125563 
L 343.018657 191.135513 
L 344.650087 167.350433 
L 346.281517 171.894579 
L 347.912947 182.100792 
L 349.544376 170.639269 
L 351.175806 179.235411 
L 352.807236 170.229929 
L 354.438666 170.843939 
L 356.070096 158.563736 
L 357.701526 183.738152 
L 359.332956 179.440081 
L 360.964386 136.610648 
L 362.595815 187.431959 
L 364.227245 152.832975 
L 365.858675 179.235411 
L 367.490105 170.639269 
L 369.121535 190.794396 
L 370.752965 146.897543 
L 372.384395 155.084345 
L 374.015825 162.452467 
L 375.647254 136.612285 
L 377.278684 136.349593 
L 378.910114 145.669523 
L 380.541544 128.477239 
L 382.172974 177.188711 
L 383.804404 191.310944 
L 385.435834 179.644751 
L 387.067264 172.4813 
L 388.698693 173.50465 
L 390.330123 154.675005 
L 391.961553 145.874193 
L 393.592983 158.563736 
L 395.224413 136.459371 
L 396.855843 161.633787 
L 398.487273 178.212061 
L 398.487273 178.212061 
" style="fill:none;stroke:#1f77b4;stroke-linecap:square;stroke-width:0.25;"/>
   </g>
   <g id="line2d_19">
    <path clip-path="url(#p40e84f404e)" d="M 73.832727 211.163939 
L 201.084258 211.163939 
L 202.715688 211.39276 
L 204.347117 212.533669 
L 209.241407 210.091468 
L 210.872837 209.739026 
L 212.504267 206.456041 
L 214.135697 206.807922 
L 215.767127 206.899683 
L 217.398556 210.357539 
L 219.029986 207.499322 
L 220.661416 211.009364 
L 222.292846 210.111935 
L 223.924276 210.082463 
L 225.555706 202.775703 
L 227.187136 199.848724 
L 228.818566 188.18536 
L 230.449995 190.112593 
L 232.081425 176.242929 
L 233.712855 184.932874 
L 235.344285 194.654534 
L 236.975715 175.180261 
L 238.607145 181.753302 
L 240.238575 172.937768 
L 241.870005 179.737596 
L 243.501434 192.789758 
L 245.132864 181.959969 
L 246.764294 191.093793 
L 248.395724 182.745581 
L 250.027154 187.335862 
L 251.658584 187.038134 
L 253.290014 181.762817 
L 254.921444 187.180872 
L 256.552873 170.933646 
L 258.184303 170.801945 
L 259.815733 193.786192 
L 261.447163 172.008805 
L 263.078593 178.187771 
L 264.710023 179.98842 
L 266.341453 156.4664 
L 267.972883 176.849734 
L 269.604312 163.828543 
L 271.235742 188.550623 
L 272.867172 193.375524 
L 274.498602 188.82627 
L 276.130032 195.848103 
L 277.761462 167.567279 
L 279.392892 184.346837 
L 281.024322 184.399137 
L 282.655751 171.846771 
L 284.287181 176.195667 
L 285.918611 188.391036 
L 287.550041 183.223314 
L 289.181471 191.629683 
L 290.812901 180.64299 
L 292.444331 167.048802 
L 294.075761 185.888377 
L 295.70719 186.597573 
L 297.33862 169.553885 
L 298.97005 147.143283 
L 300.60148 173.733474 
L 302.23291 165.165267 
L 303.86434 154.011954 
L 305.49577 173.934882 
L 307.1272 180.253431 
L 308.75863 182.24486 
L 310.390059 192.798409 
L 312.021489 169.407146 
L 313.652919 193.305885 
L 315.284349 171.186708 
L 316.915779 160.591855 
L 318.547209 179.125006 
L 320.178639 183.310368 
L 321.810069 183.975002 
L 323.441498 174.589646 
L 325.072928 168.546488 
L 326.704358 204.861385 
L 328.335788 164.363845 
L 329.967218 176.677717 
L 331.598648 168.523947 
L 333.230078 166.998989 
L 334.861508 153.978324 
L 336.492937 153.907847 
L 338.124367 150.54644 
L 339.755797 180.980369 
L 341.387227 157.675144 
L 343.018657 180.464121 
L 344.650087 157.781852 
L 346.281517 164.189405 
L 347.912947 161.53062 
L 349.544376 170.90888 
L 351.175806 166.501372 
L 352.807236 167.23339 
L 354.438666 179.430462 
L 356.070096 162.039755 
L 357.701526 184.002603 
L 359.332956 182.620418 
L 360.964386 139.238988 
L 362.595815 184.571642 
L 364.227245 158.554215 
L 365.858675 176.845726 
L 367.490105 160.242273 
L 369.121535 190.777281 
L 370.752965 146.168679 
L 372.384395 161.351415 
L 374.015825 164.528845 
L 375.647254 147.807092 
L 377.278684 148.483269 
L 378.910114 152.056753 
L 380.541544 142.290913 
L 382.172974 165.400602 
L 383.804404 177.843492 
L 385.435834 186.911673 
L 387.067264 184.629002 
L 388.698693 165.623677 
L 390.330123 164.375772 
L 391.961553 150.12512 
L 393.592983 166.474753 
L 395.224413 145.991769 
L 396.855843 160.428221 
L 398.487273 177.16096 
L 398.487273 177.16096 
" style="fill:none;stroke:#2ca02c;stroke-linecap:square;stroke-width:0.75;"/>
   </g>
   <g id="patch_3">
    <path d="M 57.6 307.584 
L 57.6 41.472 
" style="fill:none;stroke:#000000;stroke-linecap:square;stroke-linejoin:miter;stroke-width:0.8;"/>
   </g>
   <g id="patch_4">
    <path d="M 414.72 307.584 
L 414.72 41.472 
" style="fill:none;stroke:#000000;stroke-linecap:square;stroke-linejoin:miter;stroke-width:0.8;"/>
   </g>
   <g id="patch_5">
    <path d="M 57.6 307.584 
L 414.72 307.584 
" style="fill:none;stroke:#000000;stroke-linecap:square;stroke-linejoin:miter;stroke-width:0.8;"/>
   </g>
   <g id="patch_6">
    <path d="M 57.6 41.472 
L 414.72 41.472 
" style="fill:none;stroke:#000000;stroke-linecap:square;stroke-linejoin:miter;stroke-width:0.8;"/>
   </g>
   <g id="legend_1">
    <g id="patch_7">
     <path d="M 338.234063 78.82825 
L 407.72 78.82825 
Q 409.72 78.82825 409.72 76.82825 
L 409.72 48.472 
Q 409.72 46.472 407.72 46.472 
L 338.234063 46.472 
Q 336.234063 46.472 336.234063 48.472 
L 336.234063 76.82825 
Q 336.234063 78.82825 338.234063 78.82825 
z
" style="fill:#ffffff;opacity:0.8;stroke:#cccccc;stroke-linejoin:miter;"/>
    </g>
    <g id="line2d_20">
     <path d="M 340.234063 54.570437 
L 360.234063 54.570437 
" style="fill:none;stroke:#1f77b4;stroke-linecap:square;stroke-width:0.25;"/>
    </g>
    <g id="line2d_21"/>
    <g id="text_18">
     <!-- median -->
     <defs>
      <path d="M 52 44.1875 
Q 55.375 50.25 60.0625 53.125 
Q 64.75 56 71.09375 56 
Q 79.640625 56 84.28125 50.015625 
Q 88.921875 44.046875 88.921875 33.015625 
L 88.921875 0 
L 79.890625 0 
L 79.890625 32.71875 
Q 79.890625 40.578125 77.09375 44.375 
Q 74.3125 48.1875 68.609375 48.1875 
Q 61.625 48.1875 57.5625 43.546875 
Q 53.515625 38.921875 53.515625 30.90625 
L 53.515625 0 
L 44.484375 0 
L 44.484375 32.71875 
Q 44.484375 40.625 41.703125 44.40625 
Q 38.921875 48.1875 33.109375 48.1875 
Q 26.21875 48.1875 22.15625 43.53125 
Q 18.109375 38.875 18.109375 30.90625 
L 18.109375 0 
L 9.078125 0 
L 9.078125 54.6875 
L 18.109375 54.6875 
L 18.109375 46.1875 
Q 21.1875 51.21875 25.484375 53.609375 
Q 29.78125 56 35.6875 56 
Q 41.65625 56 45.828125 52.96875 
Q 50 49.953125 52 44.1875 
z
" id="DejaVuSans-109"/>
      <path d="M 56.203125 29.59375 
L 56.203125 25.203125 
L 14.890625 25.203125 
Q 15.484375 15.921875 20.484375 11.0625 
Q 25.484375 6.203125 34.421875 6.203125 
Q 39.59375 6.203125 44.453125 7.46875 
Q 49.3125 8.734375 54.109375 11.28125 
L 54.109375 2.78125 
Q 49.265625 0.734375 44.1875 -0.34375 
Q 39.109375 -1.421875 33.890625 -1.421875 
Q 20.796875 -1.421875 13.15625 6.1875 
Q 5.515625 13.8125 5.515625 26.8125 
Q 5.515625 40.234375 12.765625 48.109375 
Q 20.015625 56 32.328125 56 
Q 43.359375 56 49.78125 48.890625 
Q 56.203125 41.796875 56.203125 29.59375 
z
M 47.21875 32.234375 
Q 47.125 39.59375 43.09375 43.984375 
Q 39.0625 48.390625 32.421875 48.390625 
Q 24.90625 48.390625 20.390625 44.140625 
Q 15.875 39.890625 15.1875 32.171875 
z
" id="DejaVuSans-101"/>
      <path d="M 45.40625 46.390625 
L 45.40625 75.984375 
L 54.390625 75.984375 
L 54.390625 0 
L 45.40625 0 
L 45.40625 8.203125 
Q 42.578125 3.328125 38.25 0.953125 
Q 33.9375 -1.421875 27.875 -1.421875 
Q 17.96875 -1.421875 11.734375 6.484375 
Q 5.515625 14.40625 5.515625 27.296875 
Q 5.515625 40.1875 11.734375 48.09375 
Q 17.96875 56 27.875 56 
Q 33.9375 56 38.25 53.625 
Q 42.578125 51.265625 45.40625 46.390625 
z
M 14.796875 27.296875 
Q 14.796875 17.390625 18.875 11.75 
Q 22.953125 6.109375 30.078125 6.109375 
Q 37.203125 6.109375 41.296875 11.75 
Q 45.40625 17.390625 45.40625 27.296875 
Q 45.40625 37.203125 41.296875 42.84375 
Q 37.203125 48.484375 30.078125 48.484375 
Q 22.953125 48.484375 18.875 42.84375 
Q 14.796875 37.203125 14.796875 27.296875 
z
" id="DejaVuSans-100"/>
      <path d="M 9.421875 54.6875 
L 18.40625 54.6875 
L 18.40625 0 
L 9.421875 0 
z
M 9.421875 75.984375 
L 18.40625 75.984375 
L 18.40625 64.59375 
L 9.421875 64.59375 
z
" id="DejaVuSans-105"/>
      <path d="M 34.28125 27.484375 
Q 23.390625 27.484375 19.1875 25 
Q 14.984375 22.515625 14.984375 16.5 
Q 14.984375 11.71875 18.140625 8.90625 
Q 21.296875 6.109375 26.703125 6.109375 
Q 34.1875 6.109375 38.703125 11.40625 
Q 43.21875 16.703125 43.21875 25.484375 
L 43.21875 27.484375 
z
M 52.203125 31.203125 
L 52.203125 0 
L 43.21875 0 
L 43.21875 8.296875 
Q 40.140625 3.328125 35.546875 0.953125 
Q 30.953125 -1.421875 24.3125 -1.421875 
Q 15.921875 -1.421875 10.953125 3.296875 
Q 6 8.015625 6 15.921875 
Q 6 25.140625 12.171875 29.828125 
Q 18.359375 34.515625 30.609375 34.515625 
L 43.21875 34.515625 
L 43.21875 35.40625 
Q 43.21875 41.609375 39.140625 45 
Q 35.0625 48.390625 27.6875 48.390625 
Q 23 48.390625 18.546875 47.265625 
Q 14.109375 46.140625 10.015625 43.890625 
L 10.015625 52.203125 
Q 14.9375 54.109375 19.578125 55.046875 
Q 24.21875 56 28.609375 56 
Q 40.484375 56 46.34375 49.84375 
Q 52.203125 43.703125 52.203125 31.203125 
z
" id="DejaVuSans-97"/>
      <path d="M 54.890625 33.015625 
L 54.890625 0 
L 45.90625 0 
L 45.90625 32.71875 
Q 45.90625 40.484375 42.875 44.328125 
Q 39.84375 48.1875 33.796875 48.1875 
Q 26.515625 48.1875 22.3125 43.546875 
Q 18.109375 38.921875 18.109375 30.90625 
L 18.109375 0 
L 9.078125 0 
L 9.078125 54.6875 
L 18.109375 54.6875 
L 18.109375 46.1875 
Q 21.34375 51.125 25.703125 53.5625 
Q 30.078125 56 35.796875 56 
Q 45.21875 56 50.046875 50.171875 
Q 54.890625 44.34375 54.890625 33.015625 
z
" id="DejaVuSans-110"/>
     </defs>
     <g transform="translate(368.234063 58.070437)scale(0.1 -0.1)">
      <use xlink:href="#DejaVuSans-109"/>
      <use x="97.412109" xlink:href="#DejaVuSans-101"/>
      <use x="158.935547" xlink:href="#DejaVuSans-100"/>
      <use x="222.412109" xlink:href="#DejaVuSans-105"/>
      <use x="250.195312" xlink:href="#DejaVuSans-97"/>
      <use x="311.474609" xlink:href="#DejaVuSans-110"/>
     </g>
    </g>
    <g id="line2d_22">
     <path d="M 340.234063 69.248562 
L 360.234063 69.248562 
" style="fill:none;stroke:#2ca02c;stroke-linecap:square;stroke-width:0.75;"/>
    </g>
    <g id="line2d_23"/>
    <g id="text_19">
     <!-- mean -->
     <g transform="translate(368.234063 72.748562)scale(0.1 -0.1)">
      <use xlink:href="#DejaVuSans-109"/>
      <use x="97.412109" xlink:href="#DejaVuSans-101"/>
      <use x="158.935547" xlink:href="#DejaVuSans-97"/>
      <use x="220.214844" xlink:href="#DejaVuSans-110"/>
     </g>
    </g>
   </g>
  </g>
  <g id="text_20">
   <!-- accuracy.mean over generations -->
   <defs>
    <path d="M 48.78125 52.59375 
L 48.78125 44.1875 
Q 44.96875 46.296875 41.140625 47.34375 
Q 37.3125 48.390625 33.40625 48.390625 
Q 24.65625 48.390625 19.8125 42.84375 
Q 14.984375 37.3125 14.984375 27.296875 
Q 14.984375 17.28125 19.8125 11.734375 
Q 24.65625 6.203125 33.40625 6.203125 
Q 37.3125 6.203125 41.140625 7.25 
Q 44.96875 8.296875 48.78125 10.40625 
L 48.78125 2.09375 
Q 45.015625 0.34375 40.984375 -0.53125 
Q 36.96875 -1.421875 32.421875 -1.421875 
Q 20.0625 -1.421875 12.78125 6.34375 
Q 5.515625 14.109375 5.515625 27.296875 
Q 5.515625 40.671875 12.859375 48.328125 
Q 20.21875 56 33.015625 56 
Q 37.15625 56 41.109375 55.140625 
Q 45.0625 54.296875 48.78125 52.59375 
z
" id="DejaVuSans-99"/>
    <path d="M 8.5 21.578125 
L 8.5 54.6875 
L 17.484375 54.6875 
L 17.484375 21.921875 
Q 17.484375 14.15625 20.5 10.265625 
Q 23.53125 6.390625 29.59375 6.390625 
Q 36.859375 6.390625 41.078125 11.03125 
Q 45.3125 15.671875 45.3125 23.6875 
L 45.3125 54.6875 
L 54.296875 54.6875 
L 54.296875 0 
L 45.3125 0 
L 45.3125 8.40625 
Q 42.046875 3.421875 37.71875 1 
Q 33.40625 -1.421875 27.6875 -1.421875 
Q 18.265625 -1.421875 13.375 4.4375 
Q 8.5 10.296875 8.5 21.578125 
z
M 31.109375 56 
z
" id="DejaVuSans-117"/>
    <path d="M 41.109375 46.296875 
Q 39.59375 47.171875 37.8125 47.578125 
Q 36.03125 48 33.890625 48 
Q 26.265625 48 22.1875 43.046875 
Q 18.109375 38.09375 18.109375 28.8125 
L 18.109375 0 
L 9.078125 0 
L 9.078125 54.6875 
L 18.109375 54.6875 
L 18.109375 46.1875 
Q 20.953125 51.171875 25.484375 53.578125 
Q 30.03125 56 36.53125 56 
Q 37.453125 56 38.578125 55.875 
Q 39.703125 55.765625 41.0625 55.515625 
z
" id="DejaVuSans-114"/>
    <path d="M 32.171875 -5.078125 
Q 28.375 -14.84375 24.75 -17.8125 
Q 21.140625 -20.796875 15.09375 -20.796875 
L 7.90625 -20.796875 
L 7.90625 -13.28125 
L 13.1875 -13.28125 
Q 16.890625 -13.28125 18.9375 -11.515625 
Q 21 -9.765625 23.484375 -3.21875 
L 25.09375 0.875 
L 2.984375 54.6875 
L 12.5 54.6875 
L 29.59375 11.921875 
L 46.6875 54.6875 
L 56.203125 54.6875 
z
" id="DejaVuSans-121"/>
    <path id="DejaVuSans-32"/>
    <path d="M 30.609375 48.390625 
Q 23.390625 48.390625 19.1875 42.75 
Q 14.984375 37.109375 14.984375 27.296875 
Q 14.984375 17.484375 19.15625 11.84375 
Q 23.34375 6.203125 30.609375 6.203125 
Q 37.796875 6.203125 41.984375 11.859375 
Q 46.1875 17.53125 46.1875 27.296875 
Q 46.1875 37.015625 41.984375 42.703125 
Q 37.796875 48.390625 30.609375 48.390625 
z
M 30.609375 56 
Q 42.328125 56 49.015625 48.375 
Q 55.71875 40.765625 55.71875 27.296875 
Q 55.71875 13.875 49.015625 6.21875 
Q 42.328125 -1.421875 30.609375 -1.421875 
Q 18.84375 -1.421875 12.171875 6.21875 
Q 5.515625 13.875 5.515625 27.296875 
Q 5.515625 40.765625 12.171875 48.375 
Q 18.84375 56 30.609375 56 
z
" id="DejaVuSans-111"/>
    <path d="M 2.984375 54.6875 
L 12.5 54.6875 
L 29.59375 8.796875 
L 46.6875 54.6875 
L 56.203125 54.6875 
L 35.6875 0 
L 23.484375 0 
z
" id="DejaVuSans-118"/>
    <path d="M 45.40625 27.984375 
Q 45.40625 37.75 41.375 43.109375 
Q 37.359375 48.484375 30.078125 48.484375 
Q 22.859375 48.484375 18.828125 43.109375 
Q 14.796875 37.75 14.796875 27.984375 
Q 14.796875 18.265625 18.828125 12.890625 
Q 22.859375 7.515625 30.078125 7.515625 
Q 37.359375 7.515625 41.375 12.890625 
Q 45.40625 18.265625 45.40625 27.984375 
z
M 54.390625 6.78125 
Q 54.390625 -7.171875 48.1875 -13.984375 
Q 42 -20.796875 29.203125 -20.796875 
Q 24.46875 -20.796875 20.265625 -20.09375 
Q 16.0625 -19.390625 12.109375 -17.921875 
L 12.109375 -9.1875 
Q 16.0625 -11.328125 19.921875 -12.34375 
Q 23.78125 -13.375 27.78125 -13.375 
Q 36.625 -13.375 41.015625 -8.765625 
Q 45.40625 -4.15625 45.40625 5.171875 
L 45.40625 9.625 
Q 42.625 4.78125 38.28125 2.390625 
Q 33.9375 0 27.875 0 
Q 17.828125 0 11.671875 7.65625 
Q 5.515625 15.328125 5.515625 27.984375 
Q 5.515625 40.671875 11.671875 48.328125 
Q 17.828125 56 27.875 56 
Q 33.9375 56 38.28125 53.609375 
Q 42.625 51.21875 45.40625 46.390625 
L 45.40625 54.6875 
L 54.390625 54.6875 
z
" id="DejaVuSans-103"/>
    <path d="M 18.3125 70.21875 
L 18.3125 54.6875 
L 36.8125 54.6875 
L 36.8125 47.703125 
L 18.3125 47.703125 
L 18.3125 18.015625 
Q 18.3125 11.328125 20.140625 9.421875 
Q 21.96875 7.515625 27.59375 7.515625 
L 36.8125 7.515625 
L 36.8125 0 
L 27.59375 0 
Q 17.1875 0 13.234375 3.875 
Q 9.28125 7.765625 9.28125 18.015625 
L 9.28125 47.703125 
L 2.6875 47.703125 
L 2.6875 54.6875 
L 9.28125 54.6875 
L 9.28125 70.21875 
z
" id="DejaVuSans-116"/>
    <path d="M 44.28125 53.078125 
L 44.28125 44.578125 
Q 40.484375 46.53125 36.375 47.5 
Q 32.28125 48.484375 27.875 48.484375 
Q 21.1875 48.484375 17.84375 46.4375 
Q 14.5 44.390625 14.5 40.28125 
Q 14.5 37.15625 16.890625 35.375 
Q 19.28125 33.59375 26.515625 31.984375 
L 29.59375 31.296875 
Q 39.15625 29.25 43.1875 25.515625 
Q 47.21875 21.78125 47.21875 15.09375 
Q 47.21875 7.46875 41.1875 3.015625 
Q 35.15625 -1.421875 24.609375 -1.421875 
Q 20.21875 -1.421875 15.453125 -0.5625 
Q 10.6875 0.296875 5.421875 2 
L 5.421875 11.28125 
Q 10.40625 8.6875 15.234375 7.390625 
Q 20.0625 6.109375 24.8125 6.109375 
Q 31.15625 6.109375 34.5625 8.28125 
Q 37.984375 10.453125 37.984375 14.40625 
Q 37.984375 18.0625 35.515625 20.015625 
Q 33.0625 21.96875 24.703125 23.78125 
L 21.578125 24.515625 
Q 13.234375 26.265625 9.515625 29.90625 
Q 5.8125 33.546875 5.8125 39.890625 
Q 5.8125 47.609375 11.28125 51.796875 
Q 16.75 56 26.8125 56 
Q 31.78125 56 36.171875 55.265625 
Q 40.578125 54.546875 44.28125 53.078125 
z
" id="DejaVuSans-115"/>
   </defs>
   <g transform="translate(132.309375 16.030125)scale(0.12 -0.12)">
    <use xlink:href="#DejaVuSans-97"/>
    <use x="61.279297" xlink:href="#DejaVuSans-99"/>
    <use x="116.259766" xlink:href="#DejaVuSans-99"/>
    <use x="171.240234" xlink:href="#DejaVuSans-117"/>
    <use x="234.619141" xlink:href="#DejaVuSans-114"/>
    <use x="275.732422" xlink:href="#DejaVuSans-97"/>
    <use x="337.011719" xlink:href="#DejaVuSans-99"/>
    <use x="391.992188" xlink:href="#DejaVuSans-121"/>
    <use x="436.921875" xlink:href="#DejaVuSans-46"/>
    <use x="468.708984" xlink:href="#DejaVuSans-109"/>
    <use x="566.121094" xlink:href="#DejaVuSans-101"/>
    <use x="627.644531" xlink:href="#DejaVuSans-97"/>
    <use x="688.923828" xlink:href="#DejaVuSans-110"/>
    <use x="752.302734" xlink:href="#DejaVuSans-32"/>
    <use x="784.089844" xlink:href="#DejaVuSans-111"/>
    <use x="845.271484" xlink:href="#DejaVuSans-118"/>
    <use x="904.451172" xlink:href="#DejaVuSans-101"/>
    <use x="965.974609" xlink:href="#DejaVuSans-114"/>
    <use x="1007.087891" xlink:href="#DejaVuSans-32"/>
    <use x="1038.875" xlink:href="#DejaVuSans-103"/>
    <use x="1102.351562" xlink:href="#DejaVuSans-101"/>
    <use x="1163.875" xlink:href="#DejaVuSans-110"/>
    <use x="1227.253906" xlink:href="#DejaVuSans-101"/>
    <use x="1288.777344" xlink:href="#DejaVuSans-114"/>
    <use x="1329.890625" xlink:href="#DejaVuSans-97"/>
    <use x="1391.169922" xlink:href="#DejaVuSans-116"/>
    <use x="1430.378906" xlink:href="#DejaVuSans-105"/>
    <use x="1458.162109" xlink:href="#DejaVuSans-111"/>
    <use x="1519.34375" xlink:href="#DejaVuSans-110"/>
    <use x="1582.722656" xlink:href="#DejaVuSans-115"/>
   </g>
  </g>
 </g>
 <defs>
  <clipPath id="p40e84f404e">
   <rect height="266.112" width="357.12" x="57.6" y="41.472"/>
  </clipPath>
 </defs>
</svg>
