<?xml version="1.0" encoding="utf-8" standalone="no"?>
<!DOCTYPE svg PUBLIC "-//W3C//DTD SVG 1.1//EN"
  "http://www.w3.org/Graphics/SVG/1.1/DTD/svg11.dtd">
<!-- Created with matplotlib (https://matplotlib.org/) -->
<svg height="345.6pt" version="1.1" viewBox="0 0 460.8 345.6" width="460.8pt" xmlns="http://www.w3.org/2000/svg" xmlns:xlink="http://www.w3.org/1999/xlink">
 <defs>
  <style type="text/css">
*{stroke-linecap:butt;stroke-linejoin:round;}
  </style>
 </defs>
 <g id="figure_1">
  <g id="patch_1">
   <path d="M 0 345.6 
L 460.8 345.6 
L 460.8 0 
L 0 0 
z
" style="fill:#ffffff;"/>
  </g>
  <g id="axes_1">
   <g id="patch_2">
    <path d="M 57.6 307.584 
L 414.72 307.584 
L 414.72 41.472 
L 57.6 41.472 
z
" style="fill:#ffffff;"/>
   </g>
   <g id="PolyCollection_1">
    <path clip-path="url(#paf276179e3)" d="M 73.832727 232.540736 
L 73.832727 257.389605 
L 75.87458 253.063883 
L 77.916432 245.646072 
L 79.958285 218.326735 
L 82.000137 226.869234 
L 84.04199 244.220185 
L 86.083842 213.2352 
L 88.125695 237.491285 
L 90.167547 238.90115 
L 92.2094 218.20177 
L 94.251252 220.941393 
L 96.293105 223.681017 
L 98.334957 204.824074 
L 100.37681 218.842617 
L 102.418662 219.980122 
L 104.460515 223.616932 
L 106.502367 210.591703 
L 108.54422 200.546416 
L 110.586072 206.330066 
L 112.627925 204.247311 
L 114.669777 197.566474 
L 116.71163 198.59183 
L 118.753482 194.346215 
L 120.795334 189.780175 
L 122.837187 195.515762 
L 124.879039 208.559542 
L 126.920892 198.858183 
L 128.962744 196.541118 
L 131.004597 203.013679 
L 133.046449 208.973563 
L 135.088302 212.550294 
L 137.130154 203.974951 
L 139.172007 207.820037 
L 141.213859 245.565966 
L 143.255712 237.811709 
L 145.297564 208.589054 
L 147.339417 206.346087 
L 149.381269 216.231163 
L 151.423122 216.807926 
L 153.464974 214.004217 
L 155.506827 222.070887 
L 157.548679 223.072212 
L 159.590532 223.088233 
L 161.632384 211.232551 
L 163.674237 201.748005 
L 165.716089 206.025664 
L 167.757942 205.128477 
L 169.799794 202.889879 
L 171.841647 202.117828 
L 173.883499 208.316694 
L 175.925352 197.902919 
L 177.967204 208.012291 
L 180.009057 196.983303 
L 182.050909 201.619836 
L 184.092762 204.440456 
L 186.134614 202.997658 
L 188.176467 199.633208 
L 190.218319 192.519799 
L 192.260172 199.617187 
L 194.302024 203.494315 
L 196.343877 203.757997 
L 198.385729 208.845393 
L 200.427581 213.603687 
L 202.469434 214.693128 
L 204.511286 252.999799 
L 206.553139 251.381658 
L 208.594991 253.143989 
L 210.636844 202.974962 
L 212.678696 248.85031 
L 214.720549 200.402225 
L 216.762401 208.012291 
L 218.804254 202.645192 
L 220.846106 202.88551 
L 222.887959 242.682151 
L 224.929811 241.096053 
L 226.971664 198.655915 
L 229.013516 208.733245 
L 231.055369 214.292599 
L 233.097221 208.348736 
L 235.139074 212.882734 
L 237.180926 216.59965 
L 239.222779 213.603687 
L 241.264631 207.964228 
L 243.306484 211.665123 
L 245.348336 206.137812 
L 247.390189 203.574421 
L 249.432041 206.986935 
L 251.473894 208.012291 
L 253.515746 203.117817 
L 255.557599 204.391502 
L 257.599451 207.371444 
L 259.641304 201.732785 
L 261.683156 202.116493 
L 263.725009 205.064392 
L 265.766861 212.810638 
L 267.808714 206.634469 
L 269.850566 202.067428 
L 271.892419 199.617187 
L 273.934271 204.23129 
L 275.976123 200.770713 
L 278.017976 200.06578 
L 280.059828 205.192562 
L 282.101681 201.555751 
L 284.143533 200.986999 
L 286.185386 199.681271 
L 288.227238 210.479555 
L 290.269091 210.139906 
L 292.310943 200.925139 
L 294.352796 214.484853 
L 296.394648 200.563669 
L 298.436501 198.623873 
L 300.478353 205.801367 
L 302.520206 198.367534 
L 304.562058 205.70524 
L 306.603911 204.567735 
L 308.645763 203.474022 
L 310.687616 203.798718 
L 312.729468 198.511724 
L 314.771321 207.211232 
L 316.813173 219.675719 
L 318.855026 216.407396 
L 320.896878 219.69174 
L 322.938731 219.14702 
L 324.980583 206.261976 
L 327.022436 203.718612 
L 329.064288 207.980249 
L 331.106141 204.423544 
L 333.147993 201.924238 
L 335.189846 205.593091 
L 337.231698 204.10312 
L 339.273551 202.965616 
L 341.315403 200.891673 
L 343.357256 209.678495 
L 345.399108 209.101732 
L 347.440961 206.954893 
L 349.482813 215.958803 
L 351.524666 215.285913 
L 353.566518 210.960191 
L 355.60837 207.691868 
L 357.650223 208.156482 
L 359.692075 205.061188 
L 361.733928 207.05102 
L 363.77578 210.14311 
L 365.817633 204.888159 
L 367.859485 208.344159 
L 369.901338 201.731984 
L 371.94319 196.893584 
L 373.985043 201.283391 
L 376.026895 202.581107 
L 378.068748 205.256646 
L 380.1106 196.3008 
L 382.152453 203.141849 
L 384.194305 202.725298 
L 386.236158 190.965743 
L 388.27801 195.772101 
L 390.319863 198.207322 
L 392.361715 197.886898 
L 394.403568 197.438305 
L 396.44542 182.009897 
L 398.487273 194.105897 
L 398.487273 79.458246 
L 398.487273 79.458246 
L 396.44542 77.055068 
L 394.403568 71.395581 
L 392.361715 76.270029 
L 390.319863 70.870887 
L 388.27801 82.854739 
L 386.236158 77.279364 
L 384.194305 79.314056 
L 382.152453 78.753314 
L 380.1106 83.239248 
L 378.068748 84.382311 
L 376.026895 75.353617 
L 373.985043 87.340673 
L 371.94319 80.163179 
L 369.901338 82.918824 
L 367.859485 86.507571 
L 365.817633 81.637128 
L 363.77578 86.571656 
L 361.733928 80.163179 
L 359.692075 83.030972 
L 357.650223 78.625144 
L 355.60837 66.056519 
L 353.566518 72.601176 
L 351.524666 91.361992 
L 349.482813 94.389997 
L 347.440961 97.017473 
L 345.399108 94.325913 
L 343.357256 93.108302 
L 341.315403 91.826607 
L 339.273551 79.842755 
L 337.231698 86.379401 
L 335.189846 92.467454 
L 333.147993 98.811846 
L 331.106141 101.725196 
L 329.064288 102.89725 
L 327.022436 102.849187 
L 324.980583 95.543523 
L 322.938731 88.494199 
L 320.896878 88.430114 
L 318.855026 95.607608 
L 316.813173 97.38596 
L 314.771321 91.570268 
L 312.729468 74.587804 
L 310.687616 73.930935 
L 308.645763 69.781446 
L 306.603911 86.63574 
L 304.562058 78.512996 
L 302.520206 151.745865 
L 300.478353 81.621107 
L 298.436501 79.125807 
L 296.394648 83.623756 
L 294.352796 80.755963 
L 292.310943 95.912011 
L 290.269091 91.730479 
L 288.227238 94.197743 
L 286.185386 86.315317 
L 284.143533 87.965499 
L 282.101681 90.80125 
L 280.059828 88.862686 
L 278.017976 87.132397 
L 275.976123 87.212503 
L 273.934271 86.924122 
L 271.892419 83.559672 
L 269.850566 94.838591 
L 267.808714 90.66507 
L 265.766861 105.460641 
L 263.725009 97.850575 
L 261.683156 90.272551 
L 259.641304 86.123062 
L 257.599451 90.480826 
L 255.557599 93.845277 
L 253.515746 101.743725 
L 251.473894 87.132397 
L 249.432041 99.80516 
L 247.390189 98.875931 
L 245.348336 162.512106 
L 243.306484 163.729717 
L 241.264631 105.188281 
L 239.222779 161.038156 
L 237.180926 163.729717 
L 235.139074 166.677616 
L 233.097221 166.805785 
L 231.055369 157.257155 
L 229.013516 113.663491 
L 226.971664 108.344456 
L 224.929811 106.245679 
L 222.887959 112.109436 
L 220.846106 110.026681 
L 218.804254 106.502019 
L 216.762401 122.92374 
L 214.720549 101.567491 
L 212.678696 116.114734 
L 210.636844 108.66488 
L 208.594991 183.473491 
L 206.553139 112.638135 
L 204.511286 154.757849 
L 202.469434 162.576191 
L 200.427581 147.131762 
L 198.385729 171.630834 
L 196.343877 152.963475 
L 194.302024 157.962087 
L 192.260172 175.056699 
L 190.218319 154.50151 
L 188.176467 161.807173 
L 186.134614 161.294495 
L 184.092762 167.254379 
L 182.050909 153.091645 
L 180.009057 157.484656 
L 177.967204 164.17831 
L 175.925352 161.871258 
L 173.883499 179.142103 
L 171.841647 164.114225 
L 169.799794 173.481616 
L 167.757942 158.154342 
L 165.716089 161.326538 
L 163.674237 152.466819 
L 161.632384 155.655036 
L 159.590532 166.677616 
L 157.548679 158.474766 
L 155.506827 158.218427 
L 153.464974 191.045849 
L 151.423122 192.950714 
L 149.381269 181.547492 
L 147.339417 159.607464 
L 145.297564 162.432 
L 143.255712 156.872646 
L 141.213859 159.227762 
L 139.172007 162.768445 
L 137.130154 167.702972 
L 135.088302 181.481197 
L 133.046449 170.010024 
L 131.004597 167.446633 
L 128.962744 173.005987 
L 126.920892 176.562691 
L 124.879039 174.672191 
L 122.837187 169.56143 
L 120.795334 179.174146 
L 118.753482 188.482458 
L 116.71163 188.466437 
L 114.669777 189.0432 
L 112.627925 189.940387 
L 110.586072 191.270146 
L 108.54422 178.69351 
L 106.502367 187.505166 
L 104.460515 203.942909 
L 102.418662 192.952371 
L 100.37681 193.657303 
L 98.334957 187.69742 
L 96.293105 186.479809 
L 94.251252 195.675974 
L 92.2094 202.044397 
L 90.167547 197.181966 
L 88.125695 196.092525 
L 86.083842 196.637245 
L 84.04199 206.458236 
L 82.000137 199.232678 
L 79.958285 190.004472 
L 77.916432 196.97369 
L 75.87458 226.660959 
L 73.832727 232.540736 
z
" style="fill:#1f77b4;fill-opacity:0.2;"/>
   </g>
   <g id="PolyCollection_2">
    <path clip-path="url(#paf276179e3)" d="M 73.832727 177.828366 
L 73.832727 295.488 
L 75.87458 279.659062 
L 77.916432 273.250585 
L 79.958285 271.007618 
L 82.000137 269.213245 
L 84.04199 275.493552 
L 86.083842 269.725923 
L 88.125695 265.496328 
L 90.167547 270.879449 
L 92.2094 250.885001 
L 94.251252 257.998411 
L 96.293105 271.520297 
L 98.334957 268.059719 
L 100.37681 274.724535 
L 102.418662 258.639258 
L 104.460515 287.797828 
L 106.502367 274.340026 
L 108.54422 241.128095 
L 110.586072 269.790008 
L 112.627925 269.725923 
L 114.669777 249.92373 
L 116.71163 240.182845 
L 118.753482 272.866077 
L 120.795334 259.60053 
L 122.837187 274.980874 
L 124.879039 268.059719 
L 126.920892 273.058331 
L 128.962744 273.571009 
L 131.004597 278.313282 
L 133.046449 269.213245 
L 135.088302 256.973054 
L 137.130154 272.161144 
L 139.172007 260.049123 
L 141.213859 273.378755 
L 143.255712 271.648466 
L 145.297564 276.198485 
L 147.339417 273.955518 
L 149.381269 256.204037 
L 151.423122 243.515253 
L 153.464974 275.557637 
L 155.506827 270.302686 
L 157.548679 255.947698 
L 159.590532 252.871629 
L 161.632384 267.675211 
L 163.674237 264.150548 
L 165.716089 254.281494 
L 167.757942 252.61529 
L 169.799794 238.77298 
L 171.841647 265.688583 
L 173.883499 247.808932 
L 175.925352 244.989203 
L 177.967204 262.099836 
L 180.009057 234.175741 
L 182.050909 235.440572 
L 184.092762 257.998411 
L 186.134614 263.76604 
L 188.176467 245.950474 
L 190.218319 235.889166 
L 192.260172 245.822305 
L 194.302024 250.692747 
L 196.343877 258.447004 
L 198.385729 271.007618 
L 200.427581 272.609738 
L 202.469434 274.211857 
L 204.511286 278.890045 
L 206.553139 273.635094 
L 208.594991 274.916789 
L 210.636844 272.866077 
L 212.678696 268.572397 
L 214.720549 261.907581 
L 216.762401 269.27733 
L 218.804254 269.213245 
L 220.846106 265.880837 
L 222.887959 259.856869 
L 224.929811 260.113208 
L 226.971664 238.644811 
L 229.013516 248.770204 
L 231.055369 264.663226 
L 233.097221 261.779412 
L 235.139074 246.847661 
L 237.180926 263.509701 
L 239.222779 244.156101 
L 241.264631 247.424424 
L 243.306484 243.06666 
L 245.348336 241.849049 
L 247.390189 249.731476 
L 249.432041 246.847661 
L 251.473894 261.394903 
L 253.515746 245.501881 
L 255.557599 237.875793 
L 257.599451 266.521685 
L 259.641304 252.679375 
L 261.683156 250.180069 
L 263.725009 253.192053 
L 265.766861 263.573785 
L 267.808714 254.281494 
L 269.850566 252.230781 
L 271.892419 259.536445 
L 273.934271 255.883613 
L 275.976123 266.073091 
L 278.017976 262.484344 
L 280.059828 251.846273 
L 282.101681 263.445616 
L 284.143533 242.233558 
L 286.185386 234.863809 
L 288.227238 260.81814 
L 290.269091 264.470972 
L 292.310943 236.145505 
L 294.352796 270.751279 
L 296.394648 248.57795 
L 298.436501 239.221573 
L 300.478353 256.588546 
L 302.520206 263.701955 
L 304.562058 257.806156 
L 306.603911 266.32943 
L 308.645763 244.925118 
L 310.687616 238.516641 
L 312.729468 253.704731 
L 314.771321 261.971666 
L 316.813173 253.896985 
L 318.855026 263.63787 
L 320.896878 265.304074 
L 322.938731 266.521685 
L 324.980583 243.130744 
L 327.022436 254.666003 
L 329.064288 261.138564 
L 331.106141 258.190665 
L 333.147993 256.011783 
L 335.189846 261.330819 
L 337.231698 241.656795 
L 339.273551 266.713939 
L 341.315403 264.342803 
L 343.357256 242.105388 
L 345.399108 233.518029 
L 347.440961 261.651242 
L 349.482813 269.597754 
L 351.524666 249.282882 
L 353.566518 266.970278 
L 355.60837 255.755444 
L 357.650223 262.548429 
L 359.692075 263.445616 
L 361.733928 259.920954 
L 363.77578 248.898373 
L 365.817633 253.256138 
L 367.859485 246.206813 
L 369.901338 250.692747 
L 371.94319 247.168085 
L 373.985043 254.281494 
L 376.026895 256.396291 
L 378.068748 259.856869 
L 380.1106 263.63787 
L 382.152453 262.16392 
L 384.194305 265.624498 
L 386.236158 225.699687 
L 388.27801 265.175905 
L 390.319863 246.591322 
L 392.361715 256.332207 
L 394.403568 255.30685 
L 396.44542 229.288434 
L 398.487273 257.870241 
L 398.487273 65.002554 
L 398.487273 65.002554 
L 396.44542 64.163348 
L 394.403568 59.745772 
L 392.361715 54.721526 
L 390.319863 53.568 
L 388.27801 60.02454 
L 386.236158 65.167343 
L 384.194305 66.628476 
L 382.152453 65.872275 
L 380.1106 71.154691 
L 378.068748 69.396938 
L 376.026895 66.320869 
L 373.985043 69.509086 
L 371.94319 64.59058 
L 369.901338 57.092662 
L 367.859485 64.797076 
L 365.817633 64.374294 
L 363.77578 64.709595 
L 361.733928 54.401102 
L 359.692075 54.080678 
L 357.650223 61.834935 
L 355.60837 58.310273 
L 353.566518 57.541256 
L 351.524666 64.71875 
L 349.482813 67.474395 
L 347.440961 66.961717 
L 345.399108 65.808191 
L 343.357256 66.368932 
L 341.315403 56.25956 
L 339.273551 56.067306 
L 337.231698 58.118019 
L 335.189846 53.888424 
L 333.147993 62.219444 
L 331.106141 65.34678 
L 329.064288 64.31822 
L 327.022436 62.668037 
L 324.980583 66.833547 
L 322.938731 65.423682 
L 320.896878 62.732122 
L 318.855026 70.23004 
L 316.813173 68.75609 
L 314.771321 58.374358 
L 312.729468 59.335629 
L 310.687616 64.911004 
L 308.645763 62.988461 
L 306.603911 75.713865 
L 304.562058 72.473007 
L 302.520206 64.141987 
L 300.478353 74.26738 
L 298.436501 72.857515 
L 296.394648 77.151195 
L 294.352796 73.690617 
L 292.310943 84.594183 
L 290.269091 79.330077 
L 288.227238 82.585583 
L 286.185386 77.343449 
L 284.143533 77.407534 
L 282.101681 82.149807 
L 280.059828 79.90684 
L 278.017976 76.446262 
L 275.976123 81.060366 
L 273.934271 77.08711 
L 271.892419 75.164567 
L 269.850566 79.394162 
L 267.808714 82.918824 
L 265.766861 94.069574 
L 263.725009 87.404758 
L 261.683156 80.163179 
L 259.641304 79.650501 
L 257.599451 82.5984 
L 255.557599 85.777005 
L 253.515746 85.081685 
L 251.473894 80.227264 
L 249.432041 90.689102 
L 247.390189 93.044217 
L 245.348336 87.597012 
L 243.306484 91.442098 
L 241.264631 98.619592 
L 239.222779 93.044217 
L 237.180926 100.314278 
L 235.139074 97.209727 
L 233.097221 93.044217 
L 231.055369 91.890691 
L 229.013516 100.785657 
L 226.971664 98.154977 
L 224.929811 97.337897 
L 222.887959 102.977356 
L 220.846106 99.837203 
L 218.804254 103.105526 
L 216.762401 106.245679 
L 214.720549 93.813234 
L 212.678696 98.651634 
L 210.636844 100.157627 
L 208.594991 105.284408 
L 206.553139 105.028069 
L 204.511286 100.734389 
L 202.469434 115.858395 
L 200.427581 100.734389 
L 198.385729 111.308376 
L 196.343877 99.13227 
L 194.302024 117.973192 
L 192.260172 126.240127 
L 190.218319 118.61404 
L 188.176467 122.459126 
L 186.134614 132.45635 
L 184.092762 132.994662 
L 182.050909 123.868991 
L 180.009057 127.073229 
L 177.967204 131.703354 
L 175.925352 133.545791 
L 173.883499 150.902082 
L 171.841647 115.089377 
L 169.799794 148.466861 
L 167.757942 139.31342 
L 165.716089 146.186511 
L 163.674237 135.404249 
L 161.632384 135.083825 
L 159.590532 151.130094 
L 157.548679 107.719629 
L 155.506827 125.086601 
L 153.464974 147.003592 
L 151.423122 150.831814 
L 149.381269 150.015576 
L 147.339417 120.985176 
L 145.297564 138.159894 
L 143.255712 143.927523 
L 141.213859 148.028948 
L 139.172007 141.455682 
L 137.130154 137.134538 
L 135.088302 141.492302 
L 133.046449 139.890183 
L 131.004597 138.288064 
L 128.962744 142.773997 
L 126.920892 149.539518 
L 124.879039 148.904774 
L 122.837187 147.862328 
L 120.795334 120.344329 
L 118.753482 148.349372 
L 116.71163 148.349372 
L 114.669777 151.745865 
L 112.627925 162.512106 
L 110.586072 137.454962 
L 108.54422 161.35858 
L 106.502367 173.791025 
L 104.460515 179.824148 
L 102.418662 147.195846 
L 100.37681 159.564207 
L 98.334957 156.936731 
L 96.293105 158.218427 
L 94.251252 173.919195 
L 92.2094 163.665632 
L 90.167547 172.317075 
L 88.125695 161.102241 
L 86.083842 164.562819 
L 84.04199 176.418501 
L 82.000137 181.788804 
L 79.958285 173.919195 
L 77.916432 179.430485 
L 75.87458 187.56925 
L 73.832727 177.828366 
z
" style="fill:#1f77b4;fill-opacity:0.1;"/>
   </g>
   <g id="matplotlib.axis_1">
    <g id="xtick_1">
     <g id="line2d_1">
      <defs>
       <path d="M 0 0 
L 0 3.5 
" id="mf13e2cc67f" style="stroke:#000000;stroke-width:0.8;"/>
      </defs>
      <g>
       <use style="stroke:#000000;stroke-width:0.8;" x="73.832727" xlink:href="#mf13e2cc67f" y="307.584"/>
      </g>
     </g>
     <g id="text_1">
      <!-- 0 -->
      <defs>
       <path d="M 31.78125 66.40625 
Q 24.171875 66.40625 20.328125 58.90625 
Q 16.5 51.421875 16.5 36.375 
Q 16.5 21.390625 20.328125 13.890625 
Q 24.171875 6.390625 31.78125 6.390625 
Q 39.453125 6.390625 43.28125 13.890625 
Q 47.125 21.390625 47.125 36.375 
Q 47.125 51.421875 43.28125 58.90625 
Q 39.453125 66.40625 31.78125 66.40625 
z
M 31.78125 74.21875 
Q 44.046875 74.21875 50.515625 64.515625 
Q 56.984375 54.828125 56.984375 36.375 
Q 56.984375 17.96875 50.515625 8.265625 
Q 44.046875 -1.421875 31.78125 -1.421875 
Q 19.53125 -1.421875 13.0625 8.265625 
Q 6.59375 17.96875 6.59375 36.375 
Q 6.59375 54.828125 13.0625 64.515625 
Q 19.53125 74.21875 31.78125 74.21875 
z
" id="DejaVuSans-48"/>
      </defs>
      <g transform="translate(70.651477 322.182437)scale(0.1 -0.1)">
       <use xlink:href="#DejaVuSans-48"/>
      </g>
     </g>
    </g>
    <g id="xtick_2">
     <g id="line2d_2">
      <g>
       <use style="stroke:#000000;stroke-width:0.8;" x="114.669777" xlink:href="#mf13e2cc67f" y="307.584"/>
      </g>
     </g>
     <g id="text_2">
      <!-- 20 -->
      <defs>
       <path d="M 19.1875 8.296875 
L 53.609375 8.296875 
L 53.609375 0 
L 7.328125 0 
L 7.328125 8.296875 
Q 12.9375 14.109375 22.625 23.890625 
Q 32.328125 33.6875 34.8125 36.53125 
Q 39.546875 41.84375 41.421875 45.53125 
Q 43.3125 49.21875 43.3125 52.78125 
Q 43.3125 58.59375 39.234375 62.25 
Q 35.15625 65.921875 28.609375 65.921875 
Q 23.96875 65.921875 18.8125 64.3125 
Q 13.671875 62.703125 7.8125 59.421875 
L 7.8125 69.390625 
Q 13.765625 71.78125 18.9375 73 
Q 24.125 74.21875 28.421875 74.21875 
Q 39.75 74.21875 46.484375 68.546875 
Q 53.21875 62.890625 53.21875 53.421875 
Q 53.21875 48.921875 51.53125 44.890625 
Q 49.859375 40.875 45.40625 35.40625 
Q 44.1875 33.984375 37.640625 27.21875 
Q 31.109375 20.453125 19.1875 8.296875 
z
" id="DejaVuSans-50"/>
      </defs>
      <g transform="translate(108.307277 322.182437)scale(0.1 -0.1)">
       <use xlink:href="#DejaVuSans-50"/>
       <use x="63.623047" xlink:href="#DejaVuSans-48"/>
      </g>
     </g>
    </g>
    <g id="xtick_3">
     <g id="line2d_3">
      <g>
       <use style="stroke:#000000;stroke-width:0.8;" x="155.506827" xlink:href="#mf13e2cc67f" y="307.584"/>
      </g>
     </g>
     <g id="text_3">
      <!-- 40 -->
      <defs>
       <path d="M 37.796875 64.3125 
L 12.890625 25.390625 
L 37.796875 25.390625 
z
M 35.203125 72.90625 
L 47.609375 72.90625 
L 47.609375 25.390625 
L 58.015625 25.390625 
L 58.015625 17.1875 
L 47.609375 17.1875 
L 47.609375 0 
L 37.796875 0 
L 37.796875 17.1875 
L 4.890625 17.1875 
L 4.890625 26.703125 
z
" id="DejaVuSans-52"/>
      </defs>
      <g transform="translate(149.144327 322.182437)scale(0.1 -0.1)">
       <use xlink:href="#DejaVuSans-52"/>
       <use x="63.623047" xlink:href="#DejaVuSans-48"/>
      </g>
     </g>
    </g>
    <g id="xtick_4">
     <g id="line2d_4">
      <g>
       <use style="stroke:#000000;stroke-width:0.8;" x="196.343877" xlink:href="#mf13e2cc67f" y="307.584"/>
      </g>
     </g>
     <g id="text_4">
      <!-- 60 -->
      <defs>
       <path d="M 33.015625 40.375 
Q 26.375 40.375 22.484375 35.828125 
Q 18.609375 31.296875 18.609375 23.390625 
Q 18.609375 15.53125 22.484375 10.953125 
Q 26.375 6.390625 33.015625 6.390625 
Q 39.65625 6.390625 43.53125 10.953125 
Q 47.40625 15.53125 47.40625 23.390625 
Q 47.40625 31.296875 43.53125 35.828125 
Q 39.65625 40.375 33.015625 40.375 
z
M 52.59375 71.296875 
L 52.59375 62.3125 
Q 48.875 64.0625 45.09375 64.984375 
Q 41.3125 65.921875 37.59375 65.921875 
Q 27.828125 65.921875 22.671875 59.328125 
Q 17.53125 52.734375 16.796875 39.40625 
Q 19.671875 43.65625 24.015625 45.921875 
Q 28.375 48.1875 33.59375 48.1875 
Q 44.578125 48.1875 50.953125 41.515625 
Q 57.328125 34.859375 57.328125 23.390625 
Q 57.328125 12.15625 50.6875 5.359375 
Q 44.046875 -1.421875 33.015625 -1.421875 
Q 20.359375 -1.421875 13.671875 8.265625 
Q 6.984375 17.96875 6.984375 36.375 
Q 6.984375 53.65625 15.1875 63.9375 
Q 23.390625 74.21875 37.203125 74.21875 
Q 40.921875 74.21875 44.703125 73.484375 
Q 48.484375 72.75 52.59375 71.296875 
z
" id="DejaVuSans-54"/>
      </defs>
      <g transform="translate(189.981377 322.182437)scale(0.1 -0.1)">
       <use xlink:href="#DejaVuSans-54"/>
       <use x="63.623047" xlink:href="#DejaVuSans-48"/>
      </g>
     </g>
    </g>
    <g id="xtick_5">
     <g id="line2d_5">
      <g>
       <use style="stroke:#000000;stroke-width:0.8;" x="237.180926" xlink:href="#mf13e2cc67f" y="307.584"/>
      </g>
     </g>
     <g id="text_5">
      <!-- 80 -->
      <defs>
       <path d="M 31.78125 34.625 
Q 24.75 34.625 20.71875 30.859375 
Q 16.703125 27.09375 16.703125 20.515625 
Q 16.703125 13.921875 20.71875 10.15625 
Q 24.75 6.390625 31.78125 6.390625 
Q 38.8125 6.390625 42.859375 10.171875 
Q 46.921875 13.96875 46.921875 20.515625 
Q 46.921875 27.09375 42.890625 30.859375 
Q 38.875 34.625 31.78125 34.625 
z
M 21.921875 38.8125 
Q 15.578125 40.375 12.03125 44.71875 
Q 8.5 49.078125 8.5 55.328125 
Q 8.5 64.0625 14.71875 69.140625 
Q 20.953125 74.21875 31.78125 74.21875 
Q 42.671875 74.21875 48.875 69.140625 
Q 55.078125 64.0625 55.078125 55.328125 
Q 55.078125 49.078125 51.53125 44.71875 
Q 48 40.375 41.703125 38.8125 
Q 48.828125 37.15625 52.796875 32.3125 
Q 56.78125 27.484375 56.78125 20.515625 
Q 56.78125 9.90625 50.3125 4.234375 
Q 43.84375 -1.421875 31.78125 -1.421875 
Q 19.734375 -1.421875 13.25 4.234375 
Q 6.78125 9.90625 6.78125 20.515625 
Q 6.78125 27.484375 10.78125 32.3125 
Q 14.796875 37.15625 21.921875 38.8125 
z
M 18.3125 54.390625 
Q 18.3125 48.734375 21.84375 45.5625 
Q 25.390625 42.390625 31.78125 42.390625 
Q 38.140625 42.390625 41.71875 45.5625 
Q 45.3125 48.734375 45.3125 54.390625 
Q 45.3125 60.0625 41.71875 63.234375 
Q 38.140625 66.40625 31.78125 66.40625 
Q 25.390625 66.40625 21.84375 63.234375 
Q 18.3125 60.0625 18.3125 54.390625 
z
" id="DejaVuSans-56"/>
      </defs>
      <g transform="translate(230.818426 322.182437)scale(0.1 -0.1)">
       <use xlink:href="#DejaVuSans-56"/>
       <use x="63.623047" xlink:href="#DejaVuSans-48"/>
      </g>
     </g>
    </g>
    <g id="xtick_6">
     <g id="line2d_6">
      <g>
       <use style="stroke:#000000;stroke-width:0.8;" x="278.017976" xlink:href="#mf13e2cc67f" y="307.584"/>
      </g>
     </g>
     <g id="text_6">
      <!-- 100 -->
      <defs>
       <path d="M 12.40625 8.296875 
L 28.515625 8.296875 
L 28.515625 63.921875 
L 10.984375 60.40625 
L 10.984375 69.390625 
L 28.421875 72.90625 
L 38.28125 72.90625 
L 38.28125 8.296875 
L 54.390625 8.296875 
L 54.390625 0 
L 12.40625 0 
z
" id="DejaVuSans-49"/>
      </defs>
      <g transform="translate(268.474226 322.182437)scale(0.1 -0.1)">
       <use xlink:href="#DejaVuSans-49"/>
       <use x="63.623047" xlink:href="#DejaVuSans-48"/>
       <use x="127.246094" xlink:href="#DejaVuSans-48"/>
      </g>
     </g>
    </g>
    <g id="xtick_7">
     <g id="line2d_7">
      <g>
       <use style="stroke:#000000;stroke-width:0.8;" x="318.855026" xlink:href="#mf13e2cc67f" y="307.584"/>
      </g>
     </g>
     <g id="text_7">
      <!-- 120 -->
      <g transform="translate(309.311276 322.182437)scale(0.1 -0.1)">
       <use xlink:href="#DejaVuSans-49"/>
       <use x="63.623047" xlink:href="#DejaVuSans-50"/>
       <use x="127.246094" xlink:href="#DejaVuSans-48"/>
      </g>
     </g>
    </g>
    <g id="xtick_8">
     <g id="line2d_8">
      <g>
       <use style="stroke:#000000;stroke-width:0.8;" x="359.692075" xlink:href="#mf13e2cc67f" y="307.584"/>
      </g>
     </g>
     <g id="text_8">
      <!-- 140 -->
      <g transform="translate(350.148325 322.182437)scale(0.1 -0.1)">
       <use xlink:href="#DejaVuSans-49"/>
       <use x="63.623047" xlink:href="#DejaVuSans-52"/>
       <use x="127.246094" xlink:href="#DejaVuSans-48"/>
      </g>
     </g>
    </g>
    <g id="xtick_9">
     <g id="line2d_9">
      <g>
       <use style="stroke:#000000;stroke-width:0.8;" x="400.529125" xlink:href="#mf13e2cc67f" y="307.584"/>
      </g>
     </g>
     <g id="text_9">
      <!-- 160 -->
      <g transform="translate(390.985375 322.182437)scale(0.1 -0.1)">
       <use xlink:href="#DejaVuSans-49"/>
       <use x="63.623047" xlink:href="#DejaVuSans-54"/>
       <use x="127.246094" xlink:href="#DejaVuSans-48"/>
      </g>
     </g>
    </g>
   </g>
   <g id="matplotlib.axis_2">
    <g id="ytick_1">
     <g id="line2d_10">
      <defs>
       <path d="M 0 0 
L -3.5 0 
" id="m71173c12cb" style="stroke:#000000;stroke-width:0.8;"/>
      </defs>
      <g>
       <use style="stroke:#000000;stroke-width:0.8;" x="57.6" xlink:href="#m71173c12cb" y="283.440064"/>
      </g>
     </g>
     <g id="text_10">
      <!-- 0.05 -->
      <defs>
       <path d="M 10.6875 12.40625 
L 21 12.40625 
L 21 0 
L 10.6875 0 
z
" id="DejaVuSans-46"/>
       <path d="M 10.796875 72.90625 
L 49.515625 72.90625 
L 49.515625 64.59375 
L 19.828125 64.59375 
L 19.828125 46.734375 
Q 21.96875 47.46875 24.109375 47.828125 
Q 26.265625 48.1875 28.421875 48.1875 
Q 40.625 48.1875 47.75 41.5 
Q 54.890625 34.8125 54.890625 23.390625 
Q 54.890625 11.625 47.5625 5.09375 
Q 40.234375 -1.421875 26.90625 -1.421875 
Q 22.3125 -1.421875 17.546875 -0.640625 
Q 12.796875 0.140625 7.71875 1.703125 
L 7.71875 11.625 
Q 12.109375 9.234375 16.796875 8.0625 
Q 21.484375 6.890625 26.703125 6.890625 
Q 35.15625 6.890625 40.078125 11.328125 
Q 45.015625 15.765625 45.015625 23.390625 
Q 45.015625 31 40.078125 35.4375 
Q 35.15625 39.890625 26.703125 39.890625 
Q 22.75 39.890625 18.8125 39.015625 
Q 14.890625 38.140625 10.796875 36.28125 
z
" id="DejaVuSans-53"/>
      </defs>
      <g transform="translate(28.334375 287.239282)scale(0.1 -0.1)">
       <use xlink:href="#DejaVuSans-48"/>
       <use x="63.623047" xlink:href="#DejaVuSans-46"/>
       <use x="95.410156" xlink:href="#DejaVuSans-48"/>
       <use x="159.033203" xlink:href="#DejaVuSans-53"/>
      </g>
     </g>
    </g>
    <g id="ytick_2">
     <g id="line2d_11">
      <g>
       <use style="stroke:#000000;stroke-width:0.8;" x="57.6" xlink:href="#m71173c12cb" y="244.989203"/>
      </g>
     </g>
     <g id="text_11">
      <!-- 0.10 -->
      <g transform="translate(28.334375 248.788421)scale(0.1 -0.1)">
       <use xlink:href="#DejaVuSans-48"/>
       <use x="63.623047" xlink:href="#DejaVuSans-46"/>
       <use x="95.410156" xlink:href="#DejaVuSans-49"/>
       <use x="159.033203" xlink:href="#DejaVuSans-48"/>
      </g>
     </g>
    </g>
    <g id="ytick_3">
     <g id="line2d_12">
      <g>
       <use style="stroke:#000000;stroke-width:0.8;" x="57.6" xlink:href="#m71173c12cb" y="206.538342"/>
      </g>
     </g>
     <g id="text_12">
      <!-- 0.15 -->
      <g transform="translate(28.334375 210.33756)scale(0.1 -0.1)">
       <use xlink:href="#DejaVuSans-48"/>
       <use x="63.623047" xlink:href="#DejaVuSans-46"/>
       <use x="95.410156" xlink:href="#DejaVuSans-49"/>
       <use x="159.033203" xlink:href="#DejaVuSans-53"/>
      </g>
     </g>
    </g>
    <g id="ytick_4">
     <g id="line2d_13">
      <g>
       <use style="stroke:#000000;stroke-width:0.8;" x="57.6" xlink:href="#m71173c12cb" y="168.087481"/>
      </g>
     </g>
     <g id="text_13">
      <!-- 0.20 -->
      <g transform="translate(28.334375 171.8867)scale(0.1 -0.1)">
       <use xlink:href="#DejaVuSans-48"/>
       <use x="63.623047" xlink:href="#DejaVuSans-46"/>
       <use x="95.410156" xlink:href="#DejaVuSans-50"/>
       <use x="159.033203" xlink:href="#DejaVuSans-48"/>
      </g>
     </g>
    </g>
    <g id="ytick_5">
     <g id="line2d_14">
      <g>
       <use style="stroke:#000000;stroke-width:0.8;" x="57.6" xlink:href="#m71173c12cb" y="129.63662"/>
      </g>
     </g>
     <g id="text_14">
      <!-- 0.25 -->
      <g transform="translate(28.334375 133.435839)scale(0.1 -0.1)">
       <use xlink:href="#DejaVuSans-48"/>
       <use x="63.623047" xlink:href="#DejaVuSans-46"/>
       <use x="95.410156" xlink:href="#DejaVuSans-50"/>
       <use x="159.033203" xlink:href="#DejaVuSans-53"/>
      </g>
     </g>
    </g>
    <g id="ytick_6">
     <g id="line2d_15">
      <g>
       <use style="stroke:#000000;stroke-width:0.8;" x="57.6" xlink:href="#m71173c12cb" y="91.185759"/>
      </g>
     </g>
     <g id="text_15">
      <!-- 0.30 -->
      <defs>
       <path d="M 40.578125 39.3125 
Q 47.65625 37.796875 51.625 33 
Q 55.609375 28.21875 55.609375 21.1875 
Q 55.609375 10.40625 48.1875 4.484375 
Q 40.765625 -1.421875 27.09375 -1.421875 
Q 22.515625 -1.421875 17.65625 -0.515625 
Q 12.796875 0.390625 7.625 2.203125 
L 7.625 11.71875 
Q 11.71875 9.328125 16.59375 8.109375 
Q 21.484375 6.890625 26.8125 6.890625 
Q 36.078125 6.890625 40.9375 10.546875 
Q 45.796875 14.203125 45.796875 21.1875 
Q 45.796875 27.640625 41.28125 31.265625 
Q 36.765625 34.90625 28.71875 34.90625 
L 20.21875 34.90625 
L 20.21875 43.015625 
L 29.109375 43.015625 
Q 36.375 43.015625 40.234375 45.921875 
Q 44.09375 48.828125 44.09375 54.296875 
Q 44.09375 59.90625 40.109375 62.90625 
Q 36.140625 65.921875 28.71875 65.921875 
Q 24.65625 65.921875 20.015625 65.03125 
Q 15.375 64.15625 9.8125 62.3125 
L 9.8125 71.09375 
Q 15.4375 72.65625 20.34375 73.4375 
Q 25.25 74.21875 29.59375 74.21875 
Q 40.828125 74.21875 47.359375 69.109375 
Q 53.90625 64.015625 53.90625 55.328125 
Q 53.90625 49.265625 50.4375 45.09375 
Q 46.96875 40.921875 40.578125 39.3125 
z
" id="DejaVuSans-51"/>
      </defs>
      <g transform="translate(28.334375 94.984978)scale(0.1 -0.1)">
       <use xlink:href="#DejaVuSans-48"/>
       <use x="63.623047" xlink:href="#DejaVuSans-46"/>
       <use x="95.410156" xlink:href="#DejaVuSans-51"/>
       <use x="159.033203" xlink:href="#DejaVuSans-48"/>
      </g>
     </g>
    </g>
    <g id="ytick_7">
     <g id="line2d_16">
      <g>
       <use style="stroke:#000000;stroke-width:0.8;" x="57.6" xlink:href="#m71173c12cb" y="52.734898"/>
      </g>
     </g>
     <g id="text_16">
      <!-- 0.35 -->
      <g transform="translate(28.334375 56.534117)scale(0.1 -0.1)">
       <use xlink:href="#DejaVuSans-48"/>
       <use x="63.623047" xlink:href="#DejaVuSans-46"/>
       <use x="95.410156" xlink:href="#DejaVuSans-51"/>
       <use x="159.033203" xlink:href="#DejaVuSans-53"/>
      </g>
     </g>
    </g>
   </g>
   <g id="line2d_17">
    <path clip-path="url(#paf276179e3)" d="M 73.832727 245.918432 
L 75.87458 241.400456 
L 77.916432 225.827857 
L 79.958285 198.784085 
L 82.000137 206.658501 
L 84.04199 238.356429 
L 86.083842 202.468959 
L 88.125695 207.371444 
L 90.167547 213.90809 
L 92.2094 208.52497 
L 94.251252 205.064392 
L 96.293105 196.829499 
L 98.334957 190.645319 
L 100.37681 200.770713 
L 102.418662 201.956281 
L 104.460515 210.095046 
L 106.502367 193.465049 
L 108.54422 188.979115 
L 110.586072 203.205934 
L 112.627925 194.426321 
L 114.669777 192.920328 
L 116.71163 192.984413 
L 118.753482 191.382294 
L 120.795334 186.22347 
L 122.837187 189.265971 
L 124.879039 190.741446 
L 126.920892 188.146013 
L 128.962744 186.255513 
L 131.004597 186.543894 
L 133.046449 189.828238 
L 135.088302 204.423544 
L 137.130154 197.630559 
L 139.172007 201.603815 
L 141.213859 198.143237 
L 143.255712 205.641155 
L 145.297564 200.450289 
L 147.339417 200.546416 
L 149.381269 204.10312 
L 151.423122 204.551714 
L 153.464974 196.765415 
L 155.506827 202.372832 
L 157.548679 209.838707 
L 159.590532 215.830633 
L 161.632384 196.220694 
L 163.674237 193.465049 
L 165.716089 194.874914 
L 167.757942 197.310135 
L 169.799794 198.015068 
L 171.841647 192.760117 
L 173.883499 196.183722 
L 175.925352 193.465049 
L 177.967204 194.458363 
L 180.009057 180.423799 
L 182.050909 180.84035 
L 184.092762 185.15005 
L 186.134614 191.350252 
L 188.176467 178.917807 
L 190.218319 175.457229 
L 192.260172 186.864318 
L 194.302024 176.738925 
L 196.343877 196.156609 
L 198.385729 203.5584 
L 200.427581 205.57707 
L 202.469434 204.295375 
L 204.511286 202.244662 
L 206.553139 198.239364 
L 208.594991 207.820037 
L 210.636844 129.957044 
L 212.678696 200.19395 
L 214.720549 170.394532 
L 216.762401 154.129818 
L 218.804254 115.954522 
L 220.846106 194.810829 
L 222.887959 203.654527 
L 224.929811 194.066988 
L 226.971664 167.831142 
L 229.013516 173.534686 
L 231.055369 198.527746 
L 233.097221 198.792095 
L 235.139074 204.039036 
L 237.180926 208.973563 
L 239.222779 201.123179 
L 241.264631 165.235709 
L 243.306484 201.667899 
L 245.348336 174.111449 
L 247.390189 195.768095 
L 249.432041 199.168593 
L 251.473894 199.553102 
L 253.515746 173.72694 
L 255.557599 172.701584 
L 257.599451 201.796069 
L 259.641304 96.825219 
L 261.683156 156.250326 
L 263.725009 197.816405 
L 265.766861 205.064392 
L 267.808714 200.386204 
L 269.850566 192.952371 
L 271.892419 98.363253 
L 273.934271 202.821425 
L 275.976123 195.772101 
L 278.017976 193.272795 
L 280.059828 202.853468 
L 282.101681 102.023094 
L 284.143533 101.717022 
L 286.185386 185.774877 
L 288.227238 107.623502 
L 290.269091 199.52106 
L 292.310943 102.977356 
L 294.352796 95.76782 
L 296.394648 99.484736 
L 298.436501 89.807936 
L 300.478353 179.045976 
L 302.520206 179.814993 
L 304.562058 191.286167 
L 306.603911 194.041812 
L 308.645763 86.144424 
L 310.687616 195.259422 
L 312.729468 191.702718 
L 314.771321 193.016456 
L 316.813173 202.501001 
L 318.855026 204.646239 
L 320.896878 202.565086 
L 322.938731 199.296763 
L 324.980583 201.347475 
L 327.022436 198.880212 
L 329.064288 106.534061 
L 331.106141 196.316821 
L 333.147993 189.732654 
L 335.189846 199.681271 
L 337.231698 94.229785 
L 339.273551 94.678379 
L 341.315403 101.054813 
L 343.357256 202.432911 
L 345.399108 201.667899 
L 347.440961 199.232678 
L 349.482813 208.973563 
L 351.524666 203.270019 
L 353.566518 202.637181 
L 355.60837 198.749906 
L 357.650223 206.666511 
L 359.692075 88.91075 
L 361.733928 199.360848 
L 363.77578 202.308747 
L 365.817633 198.944297 
L 367.859485 202.08445 
L 369.901338 198.162171 
L 371.94319 189.812217 
L 373.985043 197.310135 
L 376.026895 183.788249 
L 378.068748 188.594607 
L 380.1106 190.292853 
L 382.152453 92.942495 
L 384.194305 91.996331 
L 386.236158 89.551597 
L 388.27801 186.447767 
L 390.319863 179.558654 
L 392.361715 92.868455 
L 394.403568 184.589309 
L 396.44542 91.249844 
L 398.487273 188.402352 
L 398.487273 188.402352 
" style="fill:none;stroke:#1f77b4;stroke-linecap:square;stroke-width:0.25;"/>
   </g>
   <g id="line2d_18">
    <path clip-path="url(#paf276179e3)" d="M 73.832727 244.476725 
L 75.87458 237.626013 
L 77.916432 223.360944 
L 79.958285 205.739545 
L 82.000137 213.556178 
L 84.04199 223.500448 
L 86.083842 206.467642 
L 88.125695 214.212106 
L 90.167547 215.833447 
L 92.2094 212.595874 
L 94.251252 209.718418 
L 96.293105 204.800566 
L 98.334957 196.335304 
L 100.37681 209.233482 
L 102.418662 207.435882 
L 104.460515 214.669287 
L 106.502367 198.058092 
L 108.54422 190.956233 
L 110.586072 200.049284 
L 112.627925 196.586853 
L 114.669777 191.323501 
L 116.71163 193.21525 
L 118.753482 190.395388 
L 120.795334 185.651169 
L 122.837187 187.127222 
L 124.879039 196.1928 
L 126.920892 190.982186 
L 128.962744 187.401964 
L 131.004597 185.591037 
L 133.046449 190.132347 
L 135.088302 200.593256 
L 137.130154 192.39833 
L 139.172007 195.702161 
L 141.213859 204.429471 
L 143.255712 198.35128 
L 145.297564 193.810543 
L 147.339417 191.772694 
L 149.381269 199.247456 
L 151.423122 201.269908 
L 155.506827 191.880493 
L 157.548679 194.912922 
L 159.590532 199.91531 
L 161.632384 188.759421 
L 163.674237 183.632373 
L 165.716089 189.412195 
L 167.757942 187.458903 
L 169.799794 188.704292 
L 171.841647 186.625984 
L 173.883499 193.03056 
L 175.925352 184.750916 
L 177.967204 186.449038 
L 180.009057 176.187957 
L 182.050909 175.410082 
L 184.092762 184.974451 
L 186.134614 183.409713 
L 188.176467 176.507878 
L 190.218319 172.863644 
L 192.260172 186.971041 
L 194.302024 177.93881 
L 196.343877 181.102737 
L 198.385729 185.471398 
L 200.427581 188.089616 
L 202.469434 194.463277 
L 204.511286 196.198348 
L 206.553139 182.663487 
L 208.594991 201.294194 
L 210.636844 159.473872 
L 212.678696 187.891184 
L 214.720549 160.890168 
L 216.762401 170.558537 
L 218.804254 155.985938 
L 220.846106 172.881575 
L 222.887959 184.671484 
L 226.971664 163.424236 
L 231.055369 178.428857 
L 233.097221 177.625756 
L 237.180926 186.743281 
L 239.222779 184.496583 
L 241.264631 163.0917 
L 243.306484 181.034563 
L 245.348336 170.805707 
L 247.390189 161.350928 
L 249.432041 167.588044 
L 251.473894 158.379781 
L 253.515746 161.510084 
L 255.557599 157.898391 
L 257.599451 162.652116 
L 259.641304 138.81054 
L 261.683156 146.86363 
L 263.725009 161.664913 
L 265.766861 174.007333 
L 267.808714 163.905344 
L 269.850566 160.047884 
L 271.892419 136.141896 
L 273.934271 162.17042 
L 275.976123 160.453007 
L 278.017976 153.074311 
L 280.059828 162.941254 
L 282.101681 140.273283 
L 284.143533 139.359176 
L 286.185386 148.971909 
L 288.227238 149.606543 
L 290.269091 167.551752 
L 292.310943 144.96204 
L 294.352796 144.717045 
L 296.394648 138.446573 
L 298.436501 131.05133 
L 300.478353 154.977629 
L 302.520206 163.713772 
L 304.562058 156.841028 
L 306.603911 158.995799 
L 308.645763 132.980064 
L 310.687616 155.504187 
L 312.729468 146.320904 
L 314.771321 159.770715 
L 316.813173 164.429553 
L 318.855026 164.173668 
L 320.896878 165.154215 
L 322.938731 155.736212 
L 324.980583 158.864167 
L 327.022436 158.894811 
L 329.064288 143.212536 
L 331.106141 166.459327 
L 333.147993 149.726337 
L 335.189846 153.238741 
L 337.231698 132.542833 
L 339.273551 133.331941 
L 341.315403 138.424517 
L 343.357256 156.922033 
L 345.399108 165.040008 
L 347.440961 160.814904 
L 349.482813 168.441349 
L 351.524666 166.509151 
L 353.566518 153.22116 
L 355.60837 156.046177 
L 357.650223 162.476056 
L 359.692075 133.512273 
L 361.733928 159.121764 
L 363.77578 163.919756 
L 365.817633 156.642 
L 367.859485 157.037071 
L 369.901338 156.85978 
L 371.94319 151.192885 
L 373.985043 162.9331 
L 376.026895 153.719049 
L 378.068748 160.439271 
L 380.1106 151.909522 
L 382.152453 135.371118 
L 384.194305 138.023218 
L 386.236158 129.251627 
L 388.27801 153.138695 
L 390.319863 142.680115 
L 392.361715 132.823019 
L 394.403568 151.674229 
L 396.44542 126.994787 
L 398.487273 151.07979 
L 398.487273 151.07979 
" style="fill:none;stroke:#2ca02c;stroke-linecap:square;stroke-width:0.75;"/>
   </g>
   <g id="patch_3">
    <path d="M 57.6 307.584 
L 57.6 41.472 
" style="fill:none;stroke:#000000;stroke-linecap:square;stroke-linejoin:miter;stroke-width:0.8;"/>
   </g>
   <g id="patch_4">
    <path d="M 414.72 307.584 
L 414.72 41.472 
" style="fill:none;stroke:#000000;stroke-linecap:square;stroke-linejoin:miter;stroke-width:0.8;"/>
   </g>
   <g id="patch_5">
    <path d="M 57.6 307.584 
L 414.72 307.584 
" style="fill:none;stroke:#000000;stroke-linecap:square;stroke-linejoin:miter;stroke-width:0.8;"/>
   </g>
   <g id="patch_6">
    <path d="M 57.6 41.472 
L 414.72 41.472 
" style="fill:none;stroke:#000000;stroke-linecap:square;stroke-linejoin:miter;stroke-width:0.8;"/>
   </g>
   <g id="legend_1">
    <g id="patch_7">
     <path d="M 338.234063 78.82825 
L 407.72 78.82825 
Q 409.72 78.82825 409.72 76.82825 
L 409.72 48.472 
Q 409.72 46.472 407.72 46.472 
L 338.234063 46.472 
Q 336.234063 46.472 336.234063 48.472 
L 336.234063 76.82825 
Q 336.234063 78.82825 338.234063 78.82825 
z
" style="fill:#ffffff;opacity:0.8;stroke:#cccccc;stroke-linejoin:miter;"/>
    </g>
    <g id="line2d_19">
     <path d="M 340.234063 54.570437 
L 360.234063 54.570437 
" style="fill:none;stroke:#1f77b4;stroke-linecap:square;stroke-width:0.25;"/>
    </g>
    <g id="line2d_20"/>
    <g id="text_17">
     <!-- median -->
     <defs>
      <path d="M 52 44.1875 
Q 55.375 50.25 60.0625 53.125 
Q 64.75 56 71.09375 56 
Q 79.640625 56 84.28125 50.015625 
Q 88.921875 44.046875 88.921875 33.015625 
L 88.921875 0 
L 79.890625 0 
L 79.890625 32.71875 
Q 79.890625 40.578125 77.09375 44.375 
Q 74.3125 48.1875 68.609375 48.1875 
Q 61.625 48.1875 57.5625 43.546875 
Q 53.515625 38.921875 53.515625 30.90625 
L 53.515625 0 
L 44.484375 0 
L 44.484375 32.71875 
Q 44.484375 40.625 41.703125 44.40625 
Q 38.921875 48.1875 33.109375 48.1875 
Q 26.21875 48.1875 22.15625 43.53125 
Q 18.109375 38.875 18.109375 30.90625 
L 18.109375 0 
L 9.078125 0 
L 9.078125 54.6875 
L 18.109375 54.6875 
L 18.109375 46.1875 
Q 21.1875 51.21875 25.484375 53.609375 
Q 29.78125 56 35.6875 56 
Q 41.65625 56 45.828125 52.96875 
Q 50 49.953125 52 44.1875 
z
" id="DejaVuSans-109"/>
      <path d="M 56.203125 29.59375 
L 56.203125 25.203125 
L 14.890625 25.203125 
Q 15.484375 15.921875 20.484375 11.0625 
Q 25.484375 6.203125 34.421875 6.203125 
Q 39.59375 6.203125 44.453125 7.46875 
Q 49.3125 8.734375 54.109375 11.28125 
L 54.109375 2.78125 
Q 49.265625 0.734375 44.1875 -0.34375 
Q 39.109375 -1.421875 33.890625 -1.421875 
Q 20.796875 -1.421875 13.15625 6.1875 
Q 5.515625 13.8125 5.515625 26.8125 
Q 5.515625 40.234375 12.765625 48.109375 
Q 20.015625 56 32.328125 56 
Q 43.359375 56 49.78125 48.890625 
Q 56.203125 41.796875 56.203125 29.59375 
z
M 47.21875 32.234375 
Q 47.125 39.59375 43.09375 43.984375 
Q 39.0625 48.390625 32.421875 48.390625 
Q 24.90625 48.390625 20.390625 44.140625 
Q 15.875 39.890625 15.1875 32.171875 
z
" id="DejaVuSans-101"/>
      <path d="M 45.40625 46.390625 
L 45.40625 75.984375 
L 54.390625 75.984375 
L 54.390625 0 
L 45.40625 0 
L 45.40625 8.203125 
Q 42.578125 3.328125 38.25 0.953125 
Q 33.9375 -1.421875 27.875 -1.421875 
Q 17.96875 -1.421875 11.734375 6.484375 
Q 5.515625 14.40625 5.515625 27.296875 
Q 5.515625 40.1875 11.734375 48.09375 
Q 17.96875 56 27.875 56 
Q 33.9375 56 38.25 53.625 
Q 42.578125 51.265625 45.40625 46.390625 
z
M 14.796875 27.296875 
Q 14.796875 17.390625 18.875 11.75 
Q 22.953125 6.109375 30.078125 6.109375 
Q 37.203125 6.109375 41.296875 11.75 
Q 45.40625 17.390625 45.40625 27.296875 
Q 45.40625 37.203125 41.296875 42.84375 
Q 37.203125 48.484375 30.078125 48.484375 
Q 22.953125 48.484375 18.875 42.84375 
Q 14.796875 37.203125 14.796875 27.296875 
z
" id="DejaVuSans-100"/>
      <path d="M 9.421875 54.6875 
L 18.40625 54.6875 
L 18.40625 0 
L 9.421875 0 
z
M 9.421875 75.984375 
L 18.40625 75.984375 
L 18.40625 64.59375 
L 9.421875 64.59375 
z
" id="DejaVuSans-105"/>
      <path d="M 34.28125 27.484375 
Q 23.390625 27.484375 19.1875 25 
Q 14.984375 22.515625 14.984375 16.5 
Q 14.984375 11.71875 18.140625 8.90625 
Q 21.296875 6.109375 26.703125 6.109375 
Q 34.1875 6.109375 38.703125 11.40625 
Q 43.21875 16.703125 43.21875 25.484375 
L 43.21875 27.484375 
z
M 52.203125 31.203125 
L 52.203125 0 
L 43.21875 0 
L 43.21875 8.296875 
Q 40.140625 3.328125 35.546875 0.953125 
Q 30.953125 -1.421875 24.3125 -1.421875 
Q 15.921875 -1.421875 10.953125 3.296875 
Q 6 8.015625 6 15.921875 
Q 6 25.140625 12.171875 29.828125 
Q 18.359375 34.515625 30.609375 34.515625 
L 43.21875 34.515625 
L 43.21875 35.40625 
Q 43.21875 41.609375 39.140625 45 
Q 35.0625 48.390625 27.6875 48.390625 
Q 23 48.390625 18.546875 47.265625 
Q 14.109375 46.140625 10.015625 43.890625 
L 10.015625 52.203125 
Q 14.9375 54.109375 19.578125 55.046875 
Q 24.21875 56 28.609375 56 
Q 40.484375 56 46.34375 49.84375 
Q 52.203125 43.703125 52.203125 31.203125 
z
" id="DejaVuSans-97"/>
      <path d="M 54.890625 33.015625 
L 54.890625 0 
L 45.90625 0 
L 45.90625 32.71875 
Q 45.90625 40.484375 42.875 44.328125 
Q 39.84375 48.1875 33.796875 48.1875 
Q 26.515625 48.1875 22.3125 43.546875 
Q 18.109375 38.921875 18.109375 30.90625 
L 18.109375 0 
L 9.078125 0 
L 9.078125 54.6875 
L 18.109375 54.6875 
L 18.109375 46.1875 
Q 21.34375 51.125 25.703125 53.5625 
Q 30.078125 56 35.796875 56 
Q 45.21875 56 50.046875 50.171875 
Q 54.890625 44.34375 54.890625 33.015625 
z
" id="DejaVuSans-110"/>
     </defs>
     <g transform="translate(368.234063 58.070437)scale(0.1 -0.1)">
      <use xlink:href="#DejaVuSans-109"/>
      <use x="97.412109" xlink:href="#DejaVuSans-101"/>
      <use x="158.935547" xlink:href="#DejaVuSans-100"/>
      <use x="222.412109" xlink:href="#DejaVuSans-105"/>
      <use x="250.195312" xlink:href="#DejaVuSans-97"/>
      <use x="311.474609" xlink:href="#DejaVuSans-110"/>
     </g>
    </g>
    <g id="line2d_21">
     <path d="M 340.234063 69.248562 
L 360.234063 69.248562 
" style="fill:none;stroke:#2ca02c;stroke-linecap:square;stroke-width:0.75;"/>
    </g>
    <g id="line2d_22"/>
    <g id="text_18">
     <!-- mean -->
     <g transform="translate(368.234063 72.748562)scale(0.1 -0.1)">
      <use xlink:href="#DejaVuSans-109"/>
      <use x="97.412109" xlink:href="#DejaVuSans-101"/>
      <use x="158.935547" xlink:href="#DejaVuSans-97"/>
      <use x="220.214844" xlink:href="#DejaVuSans-110"/>
     </g>
    </g>
   </g>
  </g>
  <g id="text_19">
   <!-- accuracy.mean over generations -->
   <defs>
    <path d="M 48.78125 52.59375 
L 48.78125 44.1875 
Q 44.96875 46.296875 41.140625 47.34375 
Q 37.3125 48.390625 33.40625 48.390625 
Q 24.65625 48.390625 19.8125 42.84375 
Q 14.984375 37.3125 14.984375 27.296875 
Q 14.984375 17.28125 19.8125 11.734375 
Q 24.65625 6.203125 33.40625 6.203125 
Q 37.3125 6.203125 41.140625 7.25 
Q 44.96875 8.296875 48.78125 10.40625 
L 48.78125 2.09375 
Q 45.015625 0.34375 40.984375 -0.53125 
Q 36.96875 -1.421875 32.421875 -1.421875 
Q 20.0625 -1.421875 12.78125 6.34375 
Q 5.515625 14.109375 5.515625 27.296875 
Q 5.515625 40.671875 12.859375 48.328125 
Q 20.21875 56 33.015625 56 
Q 37.15625 56 41.109375 55.140625 
Q 45.0625 54.296875 48.78125 52.59375 
z
" id="DejaVuSans-99"/>
    <path d="M 8.5 21.578125 
L 8.5 54.6875 
L 17.484375 54.6875 
L 17.484375 21.921875 
Q 17.484375 14.15625 20.5 10.265625 
Q 23.53125 6.390625 29.59375 6.390625 
Q 36.859375 6.390625 41.078125 11.03125 
Q 45.3125 15.671875 45.3125 23.6875 
L 45.3125 54.6875 
L 54.296875 54.6875 
L 54.296875 0 
L 45.3125 0 
L 45.3125 8.40625 
Q 42.046875 3.421875 37.71875 1 
Q 33.40625 -1.421875 27.6875 -1.421875 
Q 18.265625 -1.421875 13.375 4.4375 
Q 8.5 10.296875 8.5 21.578125 
z
M 31.109375 56 
z
" id="DejaVuSans-117"/>
    <path d="M 41.109375 46.296875 
Q 39.59375 47.171875 37.8125 47.578125 
Q 36.03125 48 33.890625 48 
Q 26.265625 48 22.1875 43.046875 
Q 18.109375 38.09375 18.109375 28.8125 
L 18.109375 0 
L 9.078125 0 
L 9.078125 54.6875 
L 18.109375 54.6875 
L 18.109375 46.1875 
Q 20.953125 51.171875 25.484375 53.578125 
Q 30.03125 56 36.53125 56 
Q 37.453125 56 38.578125 55.875 
Q 39.703125 55.765625 41.0625 55.515625 
z
" id="DejaVuSans-114"/>
    <path d="M 32.171875 -5.078125 
Q 28.375 -14.84375 24.75 -17.8125 
Q 21.140625 -20.796875 15.09375 -20.796875 
L 7.90625 -20.796875 
L 7.90625 -13.28125 
L 13.1875 -13.28125 
Q 16.890625 -13.28125 18.9375 -11.515625 
Q 21 -9.765625 23.484375 -3.21875 
L 25.09375 0.875 
L 2.984375 54.6875 
L 12.5 54.6875 
L 29.59375 11.921875 
L 46.6875 54.6875 
L 56.203125 54.6875 
z
" id="DejaVuSans-121"/>
    <path id="DejaVuSans-32"/>
    <path d="M 30.609375 48.390625 
Q 23.390625 48.390625 19.1875 42.75 
Q 14.984375 37.109375 14.984375 27.296875 
Q 14.984375 17.484375 19.15625 11.84375 
Q 23.34375 6.203125 30.609375 6.203125 
Q 37.796875 6.203125 41.984375 11.859375 
Q 46.1875 17.53125 46.1875 27.296875 
Q 46.1875 37.015625 41.984375 42.703125 
Q 37.796875 48.390625 30.609375 48.390625 
z
M 30.609375 56 
Q 42.328125 56 49.015625 48.375 
Q 55.71875 40.765625 55.71875 27.296875 
Q 55.71875 13.875 49.015625 6.21875 
Q 42.328125 -1.421875 30.609375 -1.421875 
Q 18.84375 -1.421875 12.171875 6.21875 
Q 5.515625 13.875 5.515625 27.296875 
Q 5.515625 40.765625 12.171875 48.375 
Q 18.84375 56 30.609375 56 
z
" id="DejaVuSans-111"/>
    <path d="M 2.984375 54.6875 
L 12.5 54.6875 
L 29.59375 8.796875 
L 46.6875 54.6875 
L 56.203125 54.6875 
L 35.6875 0 
L 23.484375 0 
z
" id="DejaVuSans-118"/>
    <path d="M 45.40625 27.984375 
Q 45.40625 37.75 41.375 43.109375 
Q 37.359375 48.484375 30.078125 48.484375 
Q 22.859375 48.484375 18.828125 43.109375 
Q 14.796875 37.75 14.796875 27.984375 
Q 14.796875 18.265625 18.828125 12.890625 
Q 22.859375 7.515625 30.078125 7.515625 
Q 37.359375 7.515625 41.375 12.890625 
Q 45.40625 18.265625 45.40625 27.984375 
z
M 54.390625 6.78125 
Q 54.390625 -7.171875 48.1875 -13.984375 
Q 42 -20.796875 29.203125 -20.796875 
Q 24.46875 -20.796875 20.265625 -20.09375 
Q 16.0625 -19.390625 12.109375 -17.921875 
L 12.109375 -9.1875 
Q 16.0625 -11.328125 19.921875 -12.34375 
Q 23.78125 -13.375 27.78125 -13.375 
Q 36.625 -13.375 41.015625 -8.765625 
Q 45.40625 -4.15625 45.40625 5.171875 
L 45.40625 9.625 
Q 42.625 4.78125 38.28125 2.390625 
Q 33.9375 0 27.875 0 
Q 17.828125 0 11.671875 7.65625 
Q 5.515625 15.328125 5.515625 27.984375 
Q 5.515625 40.671875 11.671875 48.328125 
Q 17.828125 56 27.875 56 
Q 33.9375 56 38.28125 53.609375 
Q 42.625 51.21875 45.40625 46.390625 
L 45.40625 54.6875 
L 54.390625 54.6875 
z
" id="DejaVuSans-103"/>
    <path d="M 18.3125 70.21875 
L 18.3125 54.6875 
L 36.8125 54.6875 
L 36.8125 47.703125 
L 18.3125 47.703125 
L 18.3125 18.015625 
Q 18.3125 11.328125 20.140625 9.421875 
Q 21.96875 7.515625 27.59375 7.515625 
L 36.8125 7.515625 
L 36.8125 0 
L 27.59375 0 
Q 17.1875 0 13.234375 3.875 
Q 9.28125 7.765625 9.28125 18.015625 
L 9.28125 47.703125 
L 2.6875 47.703125 
L 2.6875 54.6875 
L 9.28125 54.6875 
L 9.28125 70.21875 
z
" id="DejaVuSans-116"/>
    <path d="M 44.28125 53.078125 
L 44.28125 44.578125 
Q 40.484375 46.53125 36.375 47.5 
Q 32.28125 48.484375 27.875 48.484375 
Q 21.1875 48.484375 17.84375 46.4375 
Q 14.5 44.390625 14.5 40.28125 
Q 14.5 37.15625 16.890625 35.375 
Q 19.28125 33.59375 26.515625 31.984375 
L 29.59375 31.296875 
Q 39.15625 29.25 43.1875 25.515625 
Q 47.21875 21.78125 47.21875 15.09375 
Q 47.21875 7.46875 41.1875 3.015625 
Q 35.15625 -1.421875 24.609375 -1.421875 
Q 20.21875 -1.421875 15.453125 -0.5625 
Q 10.6875 0.296875 5.421875 2 
L 5.421875 11.28125 
Q 10.40625 8.6875 15.234375 7.390625 
Q 20.0625 6.109375 24.8125 6.109375 
Q 31.15625 6.109375 34.5625 8.28125 
Q 37.984375 10.453125 37.984375 14.40625 
Q 37.984375 18.0625 35.515625 20.015625 
Q 33.0625 21.96875 24.703125 23.78125 
L 21.578125 24.515625 
Q 13.234375 26.265625 9.515625 29.90625 
Q 5.8125 33.546875 5.8125 39.890625 
Q 5.8125 47.609375 11.28125 51.796875 
Q 16.75 56 26.8125 56 
Q 31.78125 56 36.171875 55.265625 
Q 40.578125 54.546875 44.28125 53.078125 
z
" id="DejaVuSans-115"/>
   </defs>
   <g transform="translate(132.309375 16.030125)scale(0.12 -0.12)">
    <use xlink:href="#DejaVuSans-97"/>
    <use x="61.279297" xlink:href="#DejaVuSans-99"/>
    <use x="116.259766" xlink:href="#DejaVuSans-99"/>
    <use x="171.240234" xlink:href="#DejaVuSans-117"/>
    <use x="234.619141" xlink:href="#DejaVuSans-114"/>
    <use x="275.732422" xlink:href="#DejaVuSans-97"/>
    <use x="337.011719" xlink:href="#DejaVuSans-99"/>
    <use x="391.992188" xlink:href="#DejaVuSans-121"/>
    <use x="436.921875" xlink:href="#DejaVuSans-46"/>
    <use x="468.708984" xlink:href="#DejaVuSans-109"/>
    <use x="566.121094" xlink:href="#DejaVuSans-101"/>
    <use x="627.644531" xlink:href="#DejaVuSans-97"/>
    <use x="688.923828" xlink:href="#DejaVuSans-110"/>
    <use x="752.302734" xlink:href="#DejaVuSans-32"/>
    <use x="784.089844" xlink:href="#DejaVuSans-111"/>
    <use x="845.271484" xlink:href="#DejaVuSans-118"/>
    <use x="904.451172" xlink:href="#DejaVuSans-101"/>
    <use x="965.974609" xlink:href="#DejaVuSans-114"/>
    <use x="1007.087891" xlink:href="#DejaVuSans-32"/>
    <use x="1038.875" xlink:href="#DejaVuSans-103"/>
    <use x="1102.351562" xlink:href="#DejaVuSans-101"/>
    <use x="1163.875" xlink:href="#DejaVuSans-110"/>
    <use x="1227.253906" xlink:href="#DejaVuSans-101"/>
    <use x="1288.777344" xlink:href="#DejaVuSans-114"/>
    <use x="1329.890625" xlink:href="#DejaVuSans-97"/>
    <use x="1391.169922" xlink:href="#DejaVuSans-116"/>
    <use x="1430.378906" xlink:href="#DejaVuSans-105"/>
    <use x="1458.162109" xlink:href="#DejaVuSans-111"/>
    <use x="1519.34375" xlink:href="#DejaVuSans-110"/>
    <use x="1582.722656" xlink:href="#DejaVuSans-115"/>
   </g>
  </g>
 </g>
 <defs>
  <clipPath id="paf276179e3">
   <rect height="266.112" width="357.12" x="57.6" y="41.472"/>
  </clipPath>
 </defs>
</svg>
