<?xml version="1.0" encoding="utf-8" standalone="no"?>
<!DOCTYPE svg PUBLIC "-//W3C//DTD SVG 1.1//EN"
  "http://www.w3.org/Graphics/SVG/1.1/DTD/svg11.dtd">
<!-- Created with matplotlib (https://matplotlib.org/) -->
<svg height="345.6pt" version="1.1" viewBox="0 0 460.8 345.6" width="460.8pt" xmlns="http://www.w3.org/2000/svg" xmlns:xlink="http://www.w3.org/1999/xlink">
 <defs>
  <style type="text/css">
*{stroke-linecap:butt;stroke-linejoin:round;}
  </style>
 </defs>
 <g id="figure_1">
  <g id="patch_1">
   <path d="M 0 345.6 
L 460.8 345.6 
L 460.8 0 
L 0 0 
z
" style="fill:#ffffff;"/>
  </g>
  <g id="axes_1">
   <g id="patch_2">
    <path d="M 57.6 307.584 
L 414.72 307.584 
L 414.72 41.472 
L 57.6 41.472 
z
" style="fill:#ffffff;"/>
   </g>
   <g id="PolyCollection_1">
    <path clip-path="url(#pf81e02a9df)" d="M 73.832727 211.356603 
L 73.832727 211.356603 
L 75.464157 211.356603 
L 77.095587 211.356603 
L 78.727017 211.356603 
L 80.358447 211.356603 
L 81.989877 211.356603 
L 83.621307 211.356603 
L 85.252736 212.370235 
L 86.884166 211.356603 
L 88.515596 211.356603 
L 90.147026 211.356603 
L 91.778456 211.356603 
L 93.409886 211.356603 
L 95.041316 211.356603 
L 96.672746 211.356603 
L 98.304175 198.855151 
L 99.935605 211.356603 
L 101.567035 211.356603 
L 103.198465 211.356603 
L 104.829895 211.356603 
L 106.461325 211.356603 
L 108.092755 211.356603 
L 109.724185 211.356603 
L 111.355614 211.356603 
L 112.987044 211.356603 
L 114.618474 211.356603 
L 116.249904 211.356603 
L 117.881334 211.356603 
L 119.512764 211.356603 
L 121.144194 211.356603 
L 122.775624 211.356603 
L 124.407053 209.751687 
L 126.038483 199.739855 
L 127.669913 207.639955 
L 129.301343 211.356603 
L 130.932773 198.078446 
L 132.564203 211.356603 
L 134.195633 211.356603 
L 135.827063 204.345654 
L 137.458492 210.849788 
L 139.089922 199.696004 
L 140.721352 211.356603 
L 142.352782 196.236603 
L 143.984212 194.462749 
L 145.615642 211.356603 
L 147.247072 202.40286 
L 148.878502 211.356603 
L 150.509931 211.018726 
L 152.141361 200.544536 
L 153.772791 211.356603 
L 155.404221 175.203754 
L 157.035651 211.356603 
L 158.667081 211.356603 
L 160.298511 211.356603 
L 161.929941 208.23124 
L 163.56137 201.389229 
L 165.1928 211.356603 
L 166.82423 196.827888 
L 168.45566 211.356603 
L 170.08709 211.356603 
L 171.71852 199.784313 
L 173.34995 209.751687 
L 174.98138 198.650011 
L 176.61281 181.080402 
L 178.244239 198.354369 
L 179.875669 210.089564 
L 181.507099 185.793385 
L 183.138529 211.356603 
L 184.769959 194.462749 
L 186.401389 194.462749 
L 188.032819 198.179397 
L 189.664249 187.789676 
L 191.295678 193.449117 
L 192.927108 180.523035 
L 194.558538 211.356603 
L 196.189968 190.746101 
L 197.821398 207.302078 
L 199.452828 208.991464 
L 201.084258 183.849184 
L 202.715688 162.364425 
L 204.347117 211.356603 
L 205.978547 211.356603 
L 207.609977 211.356603 
L 209.241407 197.84152 
L 210.872837 211.356603 
L 212.504267 211.356603 
L 214.135697 211.356603 
L 215.767127 211.356603 
L 217.398556 198.346927 
L 219.029986 195.814257 
L 220.661416 198.045807 
L 222.292846 201.547609 
L 223.924276 211.356603 
L 225.555706 203.923307 
L 227.187136 211.356603 
L 228.818566 197.165765 
L 230.449995 197.929661 
L 232.081425 183.566212 
L 233.712855 174.865877 
L 235.344285 193.449117 
L 236.975715 198.517274 
L 238.607145 173.514369 
L 240.238575 197.165765 
L 241.870005 177.772388 
L 243.501434 176.217385 
L 245.132864 198.179397 
L 246.764294 211.356603 
L 248.395724 195.814257 
L 250.027154 195.307441 
L 251.658584 198.686212 
L 253.290014 199.868782 
L 254.921444 171.217454 
L 256.552873 195.983196 
L 258.184303 193.11124 
L 259.815733 183.312804 
L 261.447163 182.63705 
L 263.078593 201.896045 
L 264.710023 211.356603 
L 266.341453 202.909676 
L 267.972883 162.617832 
L 269.604312 180.947665 
L 271.235742 183.312804 
L 272.867172 182.045765 
L 274.498602 172.798391 
L 276.130032 211.356603 
L 277.761462 197.165765 
L 279.392892 171.487106 
L 281.024322 168.784089 
L 282.655751 198.263866 
L 284.287181 198.323812 
L 285.918611 199.925095 
L 287.550041 193.11124 
L 289.181471 202.909676 
L 290.812901 196.827888 
L 292.444331 196.152134 
L 294.075761 173.514369 
L 295.70719 192.435486 
L 297.33862 211.356603 
L 298.97005 211.356603 
L 300.60148 207.555486 
L 302.23291 211.356603 
L 303.86434 203.416492 
L 305.49577 211.356603 
L 307.1272 211.356603 
L 308.75863 207.808894 
L 310.390059 211.356603 
L 312.021489 211.356603 
L 313.652919 211.356603 
L 315.284349 211.356603 
L 316.915779 197.970235 
L 318.547209 189.479061 
L 320.178639 197.959042 
L 321.810069 202.571799 
L 323.441498 196.193387 
L 325.072928 194.415174 
L 326.704358 172.927307 
L 328.335788 177.906771 
L 329.967218 199.193028 
L 331.598648 196.405542 
L 333.230078 175.068603 
L 334.861508 175.976045 
L 336.492937 178.304983 
L 338.124367 194.124872 
L 339.755797 197.165765 
L 341.387227 197.171861 
L 343.018657 172.572067 
L 344.650087 201.642637 
L 346.281517 198.179397 
L 347.912947 173.852246 
L 349.544376 211.356603 
L 351.175806 211.356603 
L 352.807236 211.356603 
L 354.438666 211.356603 
L 356.070096 197.664536 
L 357.701526 211.356603 
L 359.332956 187.874145 
L 360.964386 211.356603 
L 362.595815 208.062302 
L 364.227245 190.746101 
L 365.858675 198.270654 
L 367.490105 210.849788 
L 369.121535 211.356603 
L 370.752965 207.977832 
L 372.384395 195.47638 
L 374.015825 211.356603 
L 375.647254 211.356603 
L 377.278684 209.582749 
L 378.910114 211.356603 
L 380.541544 211.356603 
L 382.172974 211.356603 
L 383.804404 196.152134 
L 385.435834 203.58543 
L 387.067264 211.356603 
L 388.698693 211.356603 
L 390.330123 211.356603 
L 391.961553 210.849788 
L 393.592983 197.165765 
L 395.224413 211.356603 
L 396.855843 202.994145 
L 398.487273 211.356603 
L 398.487273 100.368201 
L 398.487273 100.368201 
L 396.855843 86.675732 
L 395.224413 93.449564 
L 393.592983 82.130265 
L 391.961553 89.720849 
L 390.330123 104.925318 
L 388.698693 118.102525 
L 387.067264 102.644648 
L 385.435834 127.140737 
L 383.804404 81.949676 
L 382.172974 126.88733 
L 380.541544 137.023642 
L 378.910114 92.337226 
L 377.278684 93.63057 
L 375.647254 91.651575 
L 374.015825 94.17587 
L 372.384395 105.094257 
L 370.752965 121.734704 
L 369.121535 128.238838 
L 367.490105 128.238838 
L 365.858675 130.266101 
L 364.227245 88.200402 
L 362.595815 108.641966 
L 360.964386 116.751017 
L 359.332956 141.078168 
L 357.701526 128.576715 
L 356.070096 101.884425 
L 354.438666 130.941855 
L 352.807236 115.568447 
L 351.175806 97.779376 
L 349.544376 134.911911 
L 347.912947 104.249564 
L 346.281517 87.800091 
L 344.650087 128.069899 
L 343.018657 113.034369 
L 341.387227 126.88733 
L 339.755797 84.314816 
L 338.124367 125.958168 
L 336.492937 96.478391 
L 334.861508 100.815888 
L 333.230078 89.382972 
L 331.598648 123.33962 
L 329.967218 88.031464 
L 328.335788 95.9743 
L 326.704358 91.784313 
L 325.072928 92.291102 
L 323.441498 142.683084 
L 321.810069 103.235933 
L 320.178639 120.552134 
L 318.547209 108.557497 
L 316.915779 125.113475 
L 315.284349 125.620291 
L 313.652919 126.88733 
L 312.021489 139.388782 
L 310.390059 127.225207 
L 308.75863 137.783866 
L 307.1272 127.900961 
L 305.49577 123.086212 
L 303.86434 129.336939 
L 302.23291 132.969117 
L 300.60148 138.375151 
L 298.97005 142.514145 
L 297.33862 128.745654 
L 295.70719 127.478615 
L 294.075761 127.563084 
L 292.444331 118.271464 
L 290.812901 95.815307 
L 289.181471 127.225207 
L 287.550041 91.012022 
L 285.918611 128.238838 
L 284.287181 139.557721 
L 282.655751 120.129788 
L 281.024322 89.991855 
L 279.392892 83.60105 
L 277.761462 102.560179 
L 276.130032 128.745654 
L 274.498602 104.249564 
L 272.867172 123.255151 
L 271.235742 106.344402 
L 269.604312 96.43133 
L 267.972883 92.727187 
L 266.341453 99.460156 
L 264.710023 93.753607 
L 263.078593 127.732022 
L 261.447163 135.503196 
L 259.815733 116.666547 
L 258.184303 96.676049 
L 256.552873 119.707441 
L 254.921444 97.154145 
L 253.290014 129.421408 
L 251.658584 120.298726 
L 250.027154 97.424447 
L 248.395724 104.350927 
L 246.764294 130.519508 
L 245.132864 119.116156 
L 243.501434 116.244201 
L 241.870005 122.410458 
L 240.238575 97.200557 
L 238.607145 96.132067 
L 236.975715 100.245721 
L 235.344285 111.68286 
L 233.712855 100.532916 
L 232.081425 126.380514 
L 230.449995 126.88733 
L 228.818566 127.140737 
L 227.187136 127.900961 
L 225.555706 121.650235 
L 223.924276 122.24152 
L 222.292846 127.225207 
L 220.661416 115.061631 
L 219.029986 104.587441 
L 217.398556 125.197944 
L 215.767127 118.862749 
L 214.135697 144.372469 
L 212.504267 127.900961 
L 210.872837 126.88733 
L 209.241407 126.633922 
L 207.609977 131.279732 
L 205.978547 138.375151 
L 204.347117 146.737609 
L 202.715688 99.181408 
L 201.084258 100.532916 
L 199.452828 96.127844 
L 197.821398 103.57381 
L 196.189968 106.952581 
L 194.558538 107.290458 
L 192.927108 95.46476 
L 191.295678 121.819173 
L 189.664249 130.266101 
L 188.032819 131.195263 
L 186.401389 137.530458 
L 184.769959 139.156492 
L 183.138529 105.579955 
L 181.507099 117.088894 
L 179.875669 103.911687 
L 178.244239 119.622972 
L 176.61281 104.249564 
L 174.98138 136.770235 
L 173.34995 128.914592 
L 171.71852 127.225207 
L 170.08709 126.211575 
L 168.45566 130.772916 
L 166.82423 107.290458 
L 165.1928 145.165073 
L 163.56137 132.969117 
L 161.929941 130.266101 
L 160.298511 136.916136 
L 158.667081 127.225207 
L 157.035651 127.225207 
L 155.404221 131.617609 
L 153.772791 141.116179 
L 152.141361 145.140372 
L 150.509931 140.291799 
L 148.878502 134.320626 
L 147.247072 137.560022 
L 145.615642 128.492246 
L 143.984212 134.320626 
L 142.352782 142.541393 
L 140.721352 144.794816 
L 139.089922 144.925607 
L 137.458492 151.824963 
L 135.827063 140.469989 
L 134.195633 150.200849 
L 132.564203 170.811352 
L 130.932773 140.740291 
L 129.301343 138.290682 
L 127.669913 126.88733 
L 126.038483 131.955486 
L 124.407053 142.767553 
L 122.775624 138.936872 
L 121.144194 135.334257 
L 119.512764 109.439732 
L 117.881334 151.736654 
L 116.249904 127.090056 
L 114.618474 127.211128 
L 112.987044 126.88733 
L 111.355614 127.386466 
L 109.724185 127.221184 
L 108.092755 128.053006 
L 106.461325 126.88733 
L 104.829895 127.619746 
L 103.198465 126.88733 
L 101.567035 131.53314 
L 99.935605 126.948147 
L 98.304175 126.88733 
L 96.672746 148.410101 
L 95.041316 127.225207 
L 93.409886 168.277274 
L 91.778456 152.059173 
L 90.147026 161.519732 
L 88.515596 173.095862 
L 86.884166 159.408 
L 85.252736 210.934257 
L 83.621307 211.356603 
L 81.989877 198.517274 
L 80.358447 194.800626 
L 78.727017 205.95057 
L 77.095587 211.356603 
L 75.464157 211.356603 
L 73.832727 211.356603 
z
" style="fill:#1f77b4;fill-opacity:0.2;"/>
   </g>
   <g id="PolyCollection_2">
    <path clip-path="url(#pf81e02a9df)" d="M 73.832727 211.356603 
L 73.832727 211.356603 
L 75.464157 211.356603 
L 77.095587 211.356603 
L 78.727017 228.250458 
L 80.358447 227.896492 
L 81.989877 220.479285 
L 83.621307 257.645765 
L 85.252736 260.348782 
L 86.884166 265.416939 
L 88.515596 260.348782 
L 90.147026 242.779173 
L 91.778456 279.945654 
L 93.409886 229.939844 
L 95.041316 295.488 
L 96.672746 278.932022 
L 98.304175 233.318615 
L 99.935605 231.291352 
L 101.567035 227.912581 
L 103.198465 235.903374 
L 104.829895 227.236827 
L 106.461325 232.304983 
L 108.092755 233.318615 
L 109.724185 228.588335 
L 111.355614 239.400402 
L 112.987044 228.926212 
L 114.618474 228.926212 
L 116.249904 239.738279 
L 117.881334 281.635039 
L 119.512764 282.310793 
L 121.144194 256.970011 
L 122.775624 293.798615 
L 124.407053 227.236827 
L 126.038483 227.912581 
L 127.669913 237.711017 
L 129.301343 226.223196 
L 130.932773 279.269899 
L 132.564203 237.035263 
L 134.195633 229.601966 
L 135.827063 241.427665 
L 137.458492 284.675933 
L 139.089922 249.536715 
L 140.721352 227.236827 
L 142.352782 294.136492 
L 143.984212 235.008 
L 145.615642 242.103419 
L 147.247072 232.304983 
L 148.878502 235.008 
L 150.509931 226.223196 
L 152.141361 241.427665 
L 153.772791 293.798615 
L 155.404221 239.400402 
L 157.035651 231.629229 
L 158.667081 295.150123 
L 160.298511 238.724648 
L 161.929941 226.223196 
L 163.56137 237.035263 
L 165.1928 274.53962 
L 166.82423 227.236827 
L 168.45566 236.697385 
L 170.08709 229.601966 
L 171.71852 244.806436 
L 173.34995 264.741184 
L 174.98138 229.601966 
L 176.61281 240.751911 
L 178.244239 231.629229 
L 179.875669 279.607777 
L 181.507099 245.820067 
L 183.138529 295.488 
L 184.769959 278.256268 
L 186.401389 237.711017 
L 188.032819 237.711017 
L 189.664249 283.324425 
L 191.295678 264.741184 
L 192.927108 231.629229 
L 194.558538 294.136492 
L 196.189968 228.926212 
L 197.821398 232.304983 
L 199.452828 232.304983 
L 201.084258 237.035263 
L 202.715688 233.876112 
L 204.347117 247.509453 
L 205.978547 258.997274 
L 207.609977 246.495821 
L 209.241407 233.318615 
L 210.872837 229.939844 
L 212.504267 226.223196 
L 214.135697 254.604872 
L 215.767127 233.318615 
L 217.398556 241.765542 
L 219.029986 226.223196 
L 220.661416 226.223196 
L 222.292846 237.035263 
L 223.924276 244.806436 
L 225.555706 242.103419 
L 227.187136 228.588335 
L 228.818566 240.076156 
L 230.449995 228.250458 
L 232.081425 229.939844 
L 233.712855 243.792804 
L 235.344285 237.711017 
L 236.975715 236.697385 
L 238.607145 236.359508 
L 240.238575 228.926212 
L 241.870005 216.762637 
L 243.501434 233.994369 
L 245.132864 240.076156 
L 246.764294 240.751911 
L 248.395724 246.833698 
L 250.027154 228.926212 
L 251.658584 242.103419 
L 253.290014 237.035263 
L 254.921444 235.345877 
L 256.552873 235.683754 
L 258.184303 226.223196 
L 259.815733 226.223196 
L 261.447163 246.157944 
L 263.078593 246.495821 
L 264.710023 228.926212 
L 266.341453 225.209564 
L 267.972883 244.806436 
L 269.604312 229.939844 
L 271.235742 226.223196 
L 272.867172 228.926212 
L 274.498602 240.414034 
L 276.130032 229.601966 
L 277.761462 264.403307 
L 279.392892 226.223196 
L 281.024322 234.332246 
L 282.655751 238.048894 
L 284.287181 238.724648 
L 285.918611 233.318615 
L 287.550041 227.912581 
L 289.181471 228.250458 
L 290.812901 239.400402 
L 292.444331 248.860961 
L 294.075761 212.370235 
L 295.70719 250.212469 
L 297.33862 237.711017 
L 298.97005 249.536715 
L 300.60148 258.32152 
L 302.23291 240.414034 
L 303.86434 244.130682 
L 305.49577 227.912581 
L 307.1272 229.939844 
L 308.75863 257.983642 
L 310.390059 272.512358 
L 312.021489 218.789899 
L 313.652919 263.389676 
L 315.284349 245.820067 
L 316.915779 227.912581 
L 318.547209 226.223196 
L 320.178639 238.048894 
L 321.810069 233.994369 
L 323.441498 265.416939 
L 325.072928 227.236827 
L 326.704358 233.994369 
L 328.335788 235.345877 
L 329.967218 236.021631 
L 331.598648 249.874592 
L 333.230078 211.356603 
L 334.861508 235.683754 
L 336.492937 263.389676 
L 338.124367 225.885318 
L 339.755797 228.926212 
L 341.387227 227.236827 
L 343.018657 242.103419 
L 344.650087 233.318615 
L 346.281517 211.356603 
L 347.912947 235.008 
L 349.544376 239.738279 
L 351.175806 227.236827 
L 352.807236 225.209564 
L 354.438666 237.035263 
L 356.070096 231.291352 
L 357.701526 228.250458 
L 359.332956 254.942749 
L 360.964386 228.926212 
L 362.595815 237.711017 
L 364.227245 211.356603 
L 365.858675 261.700291 
L 367.490105 237.035263 
L 369.121535 232.304983 
L 370.752965 227.236827 
L 372.384395 230.615598 
L 374.015825 225.209564 
L 375.647254 236.021631 
L 377.278684 233.994369 
L 378.910114 228.926212 
L 380.541544 235.683754 
L 382.172974 270.485095 
L 383.804404 227.912581 
L 385.435834 243.11705 
L 387.067264 255.280626 
L 388.698693 238.724648 
L 390.330123 226.89895 
L 391.961553 226.223196 
L 393.592983 236.359508 
L 395.224413 228.926212 
L 396.855843 228.926212 
L 398.487273 235.345877 
L 398.487273 77.219397 
L 398.487273 77.219397 
L 396.855843 69.786101 
L 395.224413 66.40733 
L 393.592983 70.799732 
L 391.961553 72.15124 
L 390.330123 82.02476 
L 388.698693 81.728756 
L 387.067264 81.368527 
L 385.435834 81.175374 
L 383.804404 71.475486 
L 382.172974 78.570905 
L 380.541544 80.694704 
L 378.910114 66.745207 
L 377.278684 82.287553 
L 375.647254 75.867888 
L 374.015825 70.799732 
L 372.384395 79.584536 
L 370.752965 59.987665 
L 369.121535 76.88152 
L 367.490105 82.304447 
L 365.858675 85.220941 
L 364.227245 76.88152 
L 362.595815 82.816404 
L 360.964386 64.380067 
L 359.332956 82.931128 
L 357.701526 55.595263 
L 356.070096 81.692246 
L 354.438666 81.273922 
L 352.807236 70.799732 
L 351.175806 67.758838 
L 349.544376 79.246659 
L 347.912947 84.431773 
L 346.281517 64.717944 
L 344.650087 76.88152 
L 343.018657 85.299066 
L 341.387227 77.895151 
L 339.755797 73.164872 
L 338.124367 85.466101 
L 336.492937 83.976939 
L 334.861508 78.908782 
L 333.230078 64.04219 
L 331.598648 78.50333 
L 329.967218 71.475486 
L 328.335788 74.51638 
L 326.704358 83.639061 
L 325.072928 62.352804 
L 323.441498 91.087716 
L 321.810069 88.224536 
L 320.178639 84.99057 
L 318.547209 74.854257 
L 316.915779 82.62543 
L 315.284349 89.923575 
L 313.652919 74.854257 
L 312.021489 89.485804 
L 310.390059 66.745207 
L 308.75863 89.608223 
L 307.1272 77.219397 
L 305.49577 76.205765 
L 303.86434 93.775374 
L 302.23291 93.498929 
L 300.60148 91.044201 
L 298.97005 90.338682 
L 297.33862 89.80035 
L 295.70719 85.891575 
L 294.075761 70.461855 
L 292.444331 85.548802 
L 290.812901 61.339173 
L 289.181471 53.568 
L 287.550041 78.908782 
L 285.918611 86.629274 
L 284.287181 80.936045 
L 282.655751 84.618905 
L 281.024322 74.178503 
L 279.392892 59.649788 
L 277.761462 67.758838 
L 276.130032 87.017832 
L 274.498602 89.015714 
L 272.867172 72.15124 
L 271.235742 67.758838 
L 269.604312 70.799732 
L 267.972883 72.826994 
L 266.341453 64.717944 
L 264.710023 63.028559 
L 263.078593 89.145207 
L 261.447163 87.836535 
L 259.815733 68.096715 
L 258.184303 77.557274 
L 256.552873 85.666324 
L 254.921444 79.246659 
L 253.290014 84.258503 
L 251.658584 84.151703 
L 250.027154 69.786101 
L 248.395724 70.461855 
L 246.764294 78.570905 
L 245.132864 83.841788 
L 243.501434 83.681296 
L 241.870005 71.475486 
L 240.238575 80.598168 
L 238.607145 83.478168 
L 236.975715 82.963307 
L 235.344285 85.64943 
L 233.712855 85.987307 
L 232.081425 67.420961 
L 230.449995 65.055821 
L 228.818566 82.963307 
L 227.187136 82.963307 
L 225.555706 87.913207 
L 223.924276 88.31058 
L 222.292846 87.186771 
L 220.661416 65.731575 
L 219.029986 77.557274 
L 217.398556 89.923575 
L 215.767127 75.530011 
L 214.135697 87.243084 
L 212.504267 76.543642 
L 210.872837 59.987665 
L 209.241407 83.976939 
L 207.609977 88.496045 
L 205.978547 72.15124 
L 204.347117 88.952947 
L 202.715688 75.192134 
L 201.084258 88.960626 
L 199.452828 88.707218 
L 197.821398 95.762092 
L 196.189968 95.563307 
L 194.558538 95.068121 
L 192.927108 83.976939 
L 191.295678 73.840626 
L 189.664249 95.853318 
L 188.032819 104.537754 
L 186.401389 104.034552 
L 184.769959 103.763866 
L 183.138529 99.583642 
L 181.507099 85.666324 
L 179.875669 103.317489 
L 178.244239 94.789006 
L 176.61281 102.053363 
L 174.98138 98.167777 
L 173.34995 102.123754 
L 171.71852 86.342078 
L 170.08709 98.843531 
L 168.45566 93.775374 
L 166.82423 101.749274 
L 165.1928 87.693587 
L 163.56137 102.222302 
L 161.929941 105.46886 
L 160.298511 100.532916 
L 158.667081 100.532916 
L 157.035651 94.451128 
L 155.404221 82.963307 
L 153.772791 97.234592 
L 152.141361 96.681117 
L 150.509931 106.614704 
L 148.878502 89.720849 
L 147.247072 98.505654 
L 145.615642 81.611799 
L 143.984212 89.720849 
L 142.352782 100.532916 
L 140.721352 108.686037 
L 139.089922 78.908782 
L 137.458492 95.802637 
L 135.827063 102.222302 
L 134.195633 96.140514 
L 132.564203 99.181408 
L 130.932773 102.222302 
L 129.301343 107.435263 
L 127.669913 95.126883 
L 126.038483 103.911687 
L 124.407053 97.445948 
L 122.775624 97.089788 
L 121.144194 96.833162 
L 119.512764 90.058726 
L 117.881334 98.505654 
L 116.249904 84.652693 
L 114.618474 100.532916 
L 112.987044 98.843531 
L 111.355614 100.870793 
L 109.724185 101.621631 
L 108.092755 101.572538 
L 106.461325 98.066413 
L 104.829895 100.997497 
L 103.198465 100.415394 
L 101.567035 99.519285 
L 99.935605 98.940067 
L 98.304175 95.802637 
L 96.672746 116.751017 
L 95.041316 100.195039 
L 93.409886 116.751017 
L 91.778456 98.167777 
L 90.147026 128.238838 
L 88.515596 128.373989 
L 86.884166 128.238838 
L 85.252736 127.900961 
L 83.621307 130.654659 
L 81.989877 193.786994 
L 80.358447 159.323531 
L 78.727017 199.162312 
L 77.095587 198.517274 
L 75.464157 198.855151 
L 73.832727 211.356603 
z
" style="fill:#1f77b4;fill-opacity:0.1;"/>
   </g>
   <g id="matplotlib.axis_1">
    <g id="xtick_1">
     <g id="line2d_1">
      <defs>
       <path d="M 0 0 
L 0 3.5 
" id="m0d97ca4a4c" style="stroke:#000000;stroke-width:0.8;"/>
      </defs>
      <g>
       <use style="stroke:#000000;stroke-width:0.8;" x="73.832727" xlink:href="#m0d97ca4a4c" y="307.584"/>
      </g>
     </g>
     <g id="text_1">
      <!-- 0 -->
      <defs>
       <path d="M 31.78125 66.40625 
Q 24.171875 66.40625 20.328125 58.90625 
Q 16.5 51.421875 16.5 36.375 
Q 16.5 21.390625 20.328125 13.890625 
Q 24.171875 6.390625 31.78125 6.390625 
Q 39.453125 6.390625 43.28125 13.890625 
Q 47.125 21.390625 47.125 36.375 
Q 47.125 51.421875 43.28125 58.90625 
Q 39.453125 66.40625 31.78125 66.40625 
z
M 31.78125 74.21875 
Q 44.046875 74.21875 50.515625 64.515625 
Q 56.984375 54.828125 56.984375 36.375 
Q 56.984375 17.96875 50.515625 8.265625 
Q 44.046875 -1.421875 31.78125 -1.421875 
Q 19.53125 -1.421875 13.0625 8.265625 
Q 6.59375 17.96875 6.59375 36.375 
Q 6.59375 54.828125 13.0625 64.515625 
Q 19.53125 74.21875 31.78125 74.21875 
z
" id="DejaVuSans-48"/>
      </defs>
      <g transform="translate(70.651477 322.182437)scale(0.1 -0.1)">
       <use xlink:href="#DejaVuSans-48"/>
      </g>
     </g>
    </g>
    <g id="xtick_2">
     <g id="line2d_2">
      <g>
       <use style="stroke:#000000;stroke-width:0.8;" x="114.618474" xlink:href="#m0d97ca4a4c" y="307.584"/>
      </g>
     </g>
     <g id="text_2">
      <!-- 25 -->
      <defs>
       <path d="M 19.1875 8.296875 
L 53.609375 8.296875 
L 53.609375 0 
L 7.328125 0 
L 7.328125 8.296875 
Q 12.9375 14.109375 22.625 23.890625 
Q 32.328125 33.6875 34.8125 36.53125 
Q 39.546875 41.84375 41.421875 45.53125 
Q 43.3125 49.21875 43.3125 52.78125 
Q 43.3125 58.59375 39.234375 62.25 
Q 35.15625 65.921875 28.609375 65.921875 
Q 23.96875 65.921875 18.8125 64.3125 
Q 13.671875 62.703125 7.8125 59.421875 
L 7.8125 69.390625 
Q 13.765625 71.78125 18.9375 73 
Q 24.125 74.21875 28.421875 74.21875 
Q 39.75 74.21875 46.484375 68.546875 
Q 53.21875 62.890625 53.21875 53.421875 
Q 53.21875 48.921875 51.53125 44.890625 
Q 49.859375 40.875 45.40625 35.40625 
Q 44.1875 33.984375 37.640625 27.21875 
Q 31.109375 20.453125 19.1875 8.296875 
z
" id="DejaVuSans-50"/>
       <path d="M 10.796875 72.90625 
L 49.515625 72.90625 
L 49.515625 64.59375 
L 19.828125 64.59375 
L 19.828125 46.734375 
Q 21.96875 47.46875 24.109375 47.828125 
Q 26.265625 48.1875 28.421875 48.1875 
Q 40.625 48.1875 47.75 41.5 
Q 54.890625 34.8125 54.890625 23.390625 
Q 54.890625 11.625 47.5625 5.09375 
Q 40.234375 -1.421875 26.90625 -1.421875 
Q 22.3125 -1.421875 17.546875 -0.640625 
Q 12.796875 0.140625 7.71875 1.703125 
L 7.71875 11.625 
Q 12.109375 9.234375 16.796875 8.0625 
Q 21.484375 6.890625 26.703125 6.890625 
Q 35.15625 6.890625 40.078125 11.328125 
Q 45.015625 15.765625 45.015625 23.390625 
Q 45.015625 31 40.078125 35.4375 
Q 35.15625 39.890625 26.703125 39.890625 
Q 22.75 39.890625 18.8125 39.015625 
Q 14.890625 38.140625 10.796875 36.28125 
z
" id="DejaVuSans-53"/>
      </defs>
      <g transform="translate(108.255974 322.182437)scale(0.1 -0.1)">
       <use xlink:href="#DejaVuSans-50"/>
       <use x="63.623047" xlink:href="#DejaVuSans-53"/>
      </g>
     </g>
    </g>
    <g id="xtick_3">
     <g id="line2d_3">
      <g>
       <use style="stroke:#000000;stroke-width:0.8;" x="155.404221" xlink:href="#m0d97ca4a4c" y="307.584"/>
      </g>
     </g>
     <g id="text_3">
      <!-- 50 -->
      <g transform="translate(149.041721 322.182437)scale(0.1 -0.1)">
       <use xlink:href="#DejaVuSans-53"/>
       <use x="63.623047" xlink:href="#DejaVuSans-48"/>
      </g>
     </g>
    </g>
    <g id="xtick_4">
     <g id="line2d_4">
      <g>
       <use style="stroke:#000000;stroke-width:0.8;" x="196.189968" xlink:href="#m0d97ca4a4c" y="307.584"/>
      </g>
     </g>
     <g id="text_4">
      <!-- 75 -->
      <defs>
       <path d="M 8.203125 72.90625 
L 55.078125 72.90625 
L 55.078125 68.703125 
L 28.609375 0 
L 18.3125 0 
L 43.21875 64.59375 
L 8.203125 64.59375 
z
" id="DejaVuSans-55"/>
      </defs>
      <g transform="translate(189.827468 322.182437)scale(0.1 -0.1)">
       <use xlink:href="#DejaVuSans-55"/>
       <use x="63.623047" xlink:href="#DejaVuSans-53"/>
      </g>
     </g>
    </g>
    <g id="xtick_5">
     <g id="line2d_5">
      <g>
       <use style="stroke:#000000;stroke-width:0.8;" x="236.975715" xlink:href="#m0d97ca4a4c" y="307.584"/>
      </g>
     </g>
     <g id="text_5">
      <!-- 100 -->
      <defs>
       <path d="M 12.40625 8.296875 
L 28.515625 8.296875 
L 28.515625 63.921875 
L 10.984375 60.40625 
L 10.984375 69.390625 
L 28.421875 72.90625 
L 38.28125 72.90625 
L 38.28125 8.296875 
L 54.390625 8.296875 
L 54.390625 0 
L 12.40625 0 
z
" id="DejaVuSans-49"/>
      </defs>
      <g transform="translate(227.431965 322.182437)scale(0.1 -0.1)">
       <use xlink:href="#DejaVuSans-49"/>
       <use x="63.623047" xlink:href="#DejaVuSans-48"/>
       <use x="127.246094" xlink:href="#DejaVuSans-48"/>
      </g>
     </g>
    </g>
    <g id="xtick_6">
     <g id="line2d_6">
      <g>
       <use style="stroke:#000000;stroke-width:0.8;" x="277.761462" xlink:href="#m0d97ca4a4c" y="307.584"/>
      </g>
     </g>
     <g id="text_6">
      <!-- 125 -->
      <g transform="translate(268.217712 322.182437)scale(0.1 -0.1)">
       <use xlink:href="#DejaVuSans-49"/>
       <use x="63.623047" xlink:href="#DejaVuSans-50"/>
       <use x="127.246094" xlink:href="#DejaVuSans-53"/>
      </g>
     </g>
    </g>
    <g id="xtick_7">
     <g id="line2d_7">
      <g>
       <use style="stroke:#000000;stroke-width:0.8;" x="318.547209" xlink:href="#m0d97ca4a4c" y="307.584"/>
      </g>
     </g>
     <g id="text_7">
      <!-- 150 -->
      <g transform="translate(309.003459 322.182437)scale(0.1 -0.1)">
       <use xlink:href="#DejaVuSans-49"/>
       <use x="63.623047" xlink:href="#DejaVuSans-53"/>
       <use x="127.246094" xlink:href="#DejaVuSans-48"/>
      </g>
     </g>
    </g>
    <g id="xtick_8">
     <g id="line2d_8">
      <g>
       <use style="stroke:#000000;stroke-width:0.8;" x="359.332956" xlink:href="#m0d97ca4a4c" y="307.584"/>
      </g>
     </g>
     <g id="text_8">
      <!-- 175 -->
      <g transform="translate(349.789206 322.182437)scale(0.1 -0.1)">
       <use xlink:href="#DejaVuSans-49"/>
       <use x="63.623047" xlink:href="#DejaVuSans-55"/>
       <use x="127.246094" xlink:href="#DejaVuSans-53"/>
      </g>
     </g>
    </g>
    <g id="xtick_9">
     <g id="line2d_9">
      <g>
       <use style="stroke:#000000;stroke-width:0.8;" x="400.118703" xlink:href="#m0d97ca4a4c" y="307.584"/>
      </g>
     </g>
     <g id="text_9">
      <!-- 200 -->
      <g transform="translate(390.574953 322.182437)scale(0.1 -0.1)">
       <use xlink:href="#DejaVuSans-50"/>
       <use x="63.623047" xlink:href="#DejaVuSans-48"/>
       <use x="127.246094" xlink:href="#DejaVuSans-48"/>
      </g>
     </g>
    </g>
   </g>
   <g id="matplotlib.axis_2">
    <g id="ytick_1">
     <g id="line2d_10">
      <defs>
       <path d="M 0 0 
L -3.5 0 
" id="mfa3f6d489a" style="stroke:#000000;stroke-width:0.8;"/>
      </defs>
      <g>
       <use style="stroke:#000000;stroke-width:0.8;" x="57.6" xlink:href="#mfa3f6d489a" y="278.932022"/>
      </g>
     </g>
     <g id="text_10">
      <!-- −0.4 -->
      <defs>
       <path d="M 10.59375 35.5 
L 73.1875 35.5 
L 73.1875 27.203125 
L 10.59375 27.203125 
z
" id="DejaVuSans-8722"/>
       <path d="M 10.6875 12.40625 
L 21 12.40625 
L 21 0 
L 10.6875 0 
z
" id="DejaVuSans-46"/>
       <path d="M 37.796875 64.3125 
L 12.890625 25.390625 
L 37.796875 25.390625 
z
M 35.203125 72.90625 
L 47.609375 72.90625 
L 47.609375 25.390625 
L 58.015625 25.390625 
L 58.015625 17.1875 
L 47.609375 17.1875 
L 47.609375 0 
L 37.796875 0 
L 37.796875 17.1875 
L 4.890625 17.1875 
L 4.890625 26.703125 
z
" id="DejaVuSans-52"/>
      </defs>
      <g transform="translate(26.317187 282.731241)scale(0.1 -0.1)">
       <use xlink:href="#DejaVuSans-8722"/>
       <use x="83.789062" xlink:href="#DejaVuSans-48"/>
       <use x="147.412109" xlink:href="#DejaVuSans-46"/>
       <use x="179.199219" xlink:href="#DejaVuSans-52"/>
      </g>
     </g>
    </g>
    <g id="ytick_2">
     <g id="line2d_11">
      <g>
       <use style="stroke:#000000;stroke-width:0.8;" x="57.6" xlink:href="#mfa3f6d489a" y="245.144313"/>
      </g>
     </g>
     <g id="text_11">
      <!-- −0.2 -->
      <g transform="translate(26.317187 248.943532)scale(0.1 -0.1)">
       <use xlink:href="#DejaVuSans-8722"/>
       <use x="83.789062" xlink:href="#DejaVuSans-48"/>
       <use x="147.412109" xlink:href="#DejaVuSans-46"/>
       <use x="179.199219" xlink:href="#DejaVuSans-50"/>
      </g>
     </g>
    </g>
    <g id="ytick_3">
     <g id="line2d_12">
      <g>
       <use style="stroke:#000000;stroke-width:0.8;" x="57.6" xlink:href="#mfa3f6d489a" y="211.356603"/>
      </g>
     </g>
     <g id="text_12">
      <!-- 0.0 -->
      <g transform="translate(34.696875 215.155822)scale(0.1 -0.1)">
       <use xlink:href="#DejaVuSans-48"/>
       <use x="63.623047" xlink:href="#DejaVuSans-46"/>
       <use x="95.410156" xlink:href="#DejaVuSans-48"/>
      </g>
     </g>
    </g>
    <g id="ytick_4">
     <g id="line2d_13">
      <g>
       <use style="stroke:#000000;stroke-width:0.8;" x="57.6" xlink:href="#mfa3f6d489a" y="177.568894"/>
      </g>
     </g>
     <g id="text_13">
      <!-- 0.2 -->
      <g transform="translate(34.696875 181.368113)scale(0.1 -0.1)">
       <use xlink:href="#DejaVuSans-48"/>
       <use x="63.623047" xlink:href="#DejaVuSans-46"/>
       <use x="95.410156" xlink:href="#DejaVuSans-50"/>
      </g>
     </g>
    </g>
    <g id="ytick_5">
     <g id="line2d_14">
      <g>
       <use style="stroke:#000000;stroke-width:0.8;" x="57.6" xlink:href="#mfa3f6d489a" y="143.781184"/>
      </g>
     </g>
     <g id="text_14">
      <!-- 0.4 -->
      <g transform="translate(34.696875 147.580403)scale(0.1 -0.1)">
       <use xlink:href="#DejaVuSans-48"/>
       <use x="63.623047" xlink:href="#DejaVuSans-46"/>
       <use x="95.410156" xlink:href="#DejaVuSans-52"/>
      </g>
     </g>
    </g>
    <g id="ytick_6">
     <g id="line2d_15">
      <g>
       <use style="stroke:#000000;stroke-width:0.8;" x="57.6" xlink:href="#mfa3f6d489a" y="109.993475"/>
      </g>
     </g>
     <g id="text_15">
      <!-- 0.6 -->
      <defs>
       <path d="M 33.015625 40.375 
Q 26.375 40.375 22.484375 35.828125 
Q 18.609375 31.296875 18.609375 23.390625 
Q 18.609375 15.53125 22.484375 10.953125 
Q 26.375 6.390625 33.015625 6.390625 
Q 39.65625 6.390625 43.53125 10.953125 
Q 47.40625 15.53125 47.40625 23.390625 
Q 47.40625 31.296875 43.53125 35.828125 
Q 39.65625 40.375 33.015625 40.375 
z
M 52.59375 71.296875 
L 52.59375 62.3125 
Q 48.875 64.0625 45.09375 64.984375 
Q 41.3125 65.921875 37.59375 65.921875 
Q 27.828125 65.921875 22.671875 59.328125 
Q 17.53125 52.734375 16.796875 39.40625 
Q 19.671875 43.65625 24.015625 45.921875 
Q 28.375 48.1875 33.59375 48.1875 
Q 44.578125 48.1875 50.953125 41.515625 
Q 57.328125 34.859375 57.328125 23.390625 
Q 57.328125 12.15625 50.6875 5.359375 
Q 44.046875 -1.421875 33.015625 -1.421875 
Q 20.359375 -1.421875 13.671875 8.265625 
Q 6.984375 17.96875 6.984375 36.375 
Q 6.984375 53.65625 15.1875 63.9375 
Q 23.390625 74.21875 37.203125 74.21875 
Q 40.921875 74.21875 44.703125 73.484375 
Q 48.484375 72.75 52.59375 71.296875 
z
" id="DejaVuSans-54"/>
      </defs>
      <g transform="translate(34.696875 113.792694)scale(0.1 -0.1)">
       <use xlink:href="#DejaVuSans-48"/>
       <use x="63.623047" xlink:href="#DejaVuSans-46"/>
       <use x="95.410156" xlink:href="#DejaVuSans-54"/>
      </g>
     </g>
    </g>
    <g id="ytick_7">
     <g id="line2d_16">
      <g>
       <use style="stroke:#000000;stroke-width:0.8;" x="57.6" xlink:href="#mfa3f6d489a" y="76.205765"/>
      </g>
     </g>
     <g id="text_16">
      <!-- 0.8 -->
      <defs>
       <path d="M 31.78125 34.625 
Q 24.75 34.625 20.71875 30.859375 
Q 16.703125 27.09375 16.703125 20.515625 
Q 16.703125 13.921875 20.71875 10.15625 
Q 24.75 6.390625 31.78125 6.390625 
Q 38.8125 6.390625 42.859375 10.171875 
Q 46.921875 13.96875 46.921875 20.515625 
Q 46.921875 27.09375 42.890625 30.859375 
Q 38.875 34.625 31.78125 34.625 
z
M 21.921875 38.8125 
Q 15.578125 40.375 12.03125 44.71875 
Q 8.5 49.078125 8.5 55.328125 
Q 8.5 64.0625 14.71875 69.140625 
Q 20.953125 74.21875 31.78125 74.21875 
Q 42.671875 74.21875 48.875 69.140625 
Q 55.078125 64.0625 55.078125 55.328125 
Q 55.078125 49.078125 51.53125 44.71875 
Q 48 40.375 41.703125 38.8125 
Q 48.828125 37.15625 52.796875 32.3125 
Q 56.78125 27.484375 56.78125 20.515625 
Q 56.78125 9.90625 50.3125 4.234375 
Q 43.84375 -1.421875 31.78125 -1.421875 
Q 19.734375 -1.421875 13.25 4.234375 
Q 6.78125 9.90625 6.78125 20.515625 
Q 6.78125 27.484375 10.78125 32.3125 
Q 14.796875 37.15625 21.921875 38.8125 
z
M 18.3125 54.390625 
Q 18.3125 48.734375 21.84375 45.5625 
Q 25.390625 42.390625 31.78125 42.390625 
Q 38.140625 42.390625 41.71875 45.5625 
Q 45.3125 48.734375 45.3125 54.390625 
Q 45.3125 60.0625 41.71875 63.234375 
Q 38.140625 66.40625 31.78125 66.40625 
Q 25.390625 66.40625 21.84375 63.234375 
Q 18.3125 60.0625 18.3125 54.390625 
z
" id="DejaVuSans-56"/>
      </defs>
      <g transform="translate(34.696875 80.004984)scale(0.1 -0.1)">
       <use xlink:href="#DejaVuSans-48"/>
       <use x="63.623047" xlink:href="#DejaVuSans-46"/>
       <use x="95.410156" xlink:href="#DejaVuSans-56"/>
      </g>
     </g>
    </g>
    <g id="ytick_8">
     <g id="line2d_17">
      <g>
       <use style="stroke:#000000;stroke-width:0.8;" x="57.6" xlink:href="#mfa3f6d489a" y="42.418056"/>
      </g>
     </g>
     <g id="text_17">
      <!-- 1.0 -->
      <g transform="translate(34.696875 46.217275)scale(0.1 -0.1)">
       <use xlink:href="#DejaVuSans-49"/>
       <use x="63.623047" xlink:href="#DejaVuSans-46"/>
       <use x="95.410156" xlink:href="#DejaVuSans-48"/>
      </g>
     </g>
    </g>
   </g>
   <g id="line2d_18">
    <path clip-path="url(#pf81e02a9df)" d="M 73.832727 211.356603 
L 77.095587 211.356603 
L 78.727017 211.15267 
L 80.358447 211.356603 
L 85.252736 211.356603 
L 86.884166 197.84152 
L 88.515596 211.356603 
L 90.147026 199.530905 
L 91.778456 201.220291 
L 93.409886 210.511911 
L 95.041316 198.379051 
L 96.672746 211.187665 
L 98.304175 156.620514 
L 99.935605 192.097609 
L 101.567035 196.152134 
L 103.198465 196.827888 
L 104.829895 196.827888 
L 108.092755 179.934034 
L 109.724185 193.155039 
L 111.355614 173.852246 
L 112.987044 178.891275 
L 114.618474 185.00219 
L 116.249904 181.623419 
L 117.881334 200.544536 
L 119.512764 174.190123 
L 121.144194 184.495374 
L 122.775624 180.947665 
L 124.407053 173.514369 
L 126.038483 162.364425 
L 127.669913 154.255374 
L 129.301343 189.732469 
L 130.932773 165.405318 
L 132.564203 194.124872 
L 134.195633 170.980291 
L 135.827063 163.378056 
L 137.458492 176.386324 
L 139.089922 170.473475 
L 140.721352 192.773363 
L 142.352782 176.555263 
L 143.984212 150.914998 
L 147.247072 180.609788 
L 148.878502 156.282637 
L 150.509931 173.852246 
L 152.141361 169.628782 
L 153.772791 178.244648 
L 155.404221 154.255374 
L 157.035651 180.609788 
L 158.667081 161.012916 
L 160.298511 158.985654 
L 161.929941 179.596156 
L 163.56137 141.753922 
L 165.1928 200.206659 
L 166.82423 147.159955 
L 168.45566 178.413587 
L 170.08709 162.364425 
L 171.71852 158.647777 
L 173.34995 183.650682 
L 174.98138 176.217385 
L 176.61281 138.297074 
L 178.244239 145.954348 
L 179.875669 145.47057 
L 181.507099 150.070306 
L 183.138529 143.354816 
L 184.769959 170.56808 
L 186.401389 151.393658 
L 188.032819 172.500737 
L 189.664249 159.830346 
L 191.295678 135.841073 
L 192.927108 132.293363 
L 194.558538 136.423911 
L 196.189968 141.078168 
L 197.821398 142.091799 
L 199.452828 149.686688 
L 201.084258 129.252469 
L 202.715688 131.955486 
L 204.347117 175.71057 
L 205.978547 196.827888 
L 207.609977 181.285542 
L 209.241407 155.437944 
L 210.872837 162.364425 
L 212.504267 177.906771 
L 214.135697 178.582525 
L 215.767127 174.439691 
L 217.398556 139.050905 
L 219.029986 160.675039 
L 220.661416 144.456939 
L 222.292846 163.715933 
L 223.924276 151.21448 
L 225.555706 162.364425 
L 227.187136 175.006659 
L 228.818566 154.931128 
L 230.449995 145.977385 
L 232.081425 133.475933 
L 233.712855 137.023642 
L 235.344285 143.443307 
L 236.975715 137.868335 
L 238.607145 135.165318 
L 240.238575 134.489564 
L 241.870005 130.603978 
L 243.501434 137.868335 
L 245.132864 161.012916 
L 246.764294 162.364425 
L 248.395724 141.416045 
L 250.027154 131.955486 
L 251.658584 144.794816 
L 253.290014 165.574257 
L 254.921444 130.266101 
L 256.552873 137.192581 
L 258.184303 142.091799 
L 259.815733 136.685765 
L 261.447163 162.533363 
L 264.710023 144.119061 
L 266.341453 152.228112 
L 267.972883 133.644872 
L 269.604312 138.206212 
L 271.235742 149.356156 
L 272.867172 134.827441 
L 274.498602 144.456939 
L 276.130032 170.135598 
L 277.761462 147.328894 
L 279.392892 128.914592 
L 281.024322 128.745654 
L 282.655751 142.767553 
L 284.287181 160.506101 
L 285.918611 156.282637 
L 287.550041 139.895598 
L 289.181471 162.364425 
L 290.812901 154.593251 
L 292.444331 162.364425 
L 294.075761 157.634145 
L 295.70719 143.10543 
L 297.33862 167.094704 
L 298.97005 169.763933 
L 300.60148 163.918659 
L 302.23291 164.05381 
L 303.86434 160.675039 
L 305.49577 133.81381 
L 307.1272 178.582525 
L 308.75863 155.606883 
L 310.390059 162.364425 
L 312.021489 168.108335 
L 313.652919 167.589006 
L 315.284349 151.21448 
L 316.915779 149.694034 
L 318.547209 168.953028 
L 320.178639 155.269006 
L 321.810069 162.364425 
L 323.441498 170.557944 
L 325.072928 128.576715 
L 326.704358 136.685765 
L 328.335788 136.010011 
L 329.967218 131.279732 
L 331.598648 143.10543 
L 333.230078 130.772916 
L 334.861508 156.620514 
L 336.492937 129.252469 
L 338.124367 156.282637 
L 339.755797 152.228112 
L 341.387227 165.574257 
L 343.018657 140.064536 
L 344.650087 168.784089 
L 346.281517 131.955486 
L 347.912947 142.260737 
L 349.544376 187.900645 
L 351.175806 147.835709 
L 352.807236 183.650682 
L 354.438666 168.662454 
L 356.070096 159.999285 
L 357.701526 173.514369 
L 359.332956 156.451575 
L 360.964386 156.282637 
L 362.595815 172.640038 
L 364.227245 132.800179 
L 365.858675 165.743196 
L 367.490105 163.715933 
L 369.121535 168.478391 
L 370.752965 139.388782 
L 372.384395 150.031911 
L 374.015825 128.914592 
L 375.647254 134.320626 
L 377.278684 145.132693 
L 378.910114 137.36152 
L 380.541544 179.427218 
L 382.172974 160.675039 
L 383.804404 134.320626 
L 385.435834 152.228112 
L 387.067264 140.571352 
L 388.698693 152.565989 
L 390.330123 167.432581 
L 391.961553 141.584983 
L 393.592983 137.868335 
L 395.224413 153.57962 
L 396.855843 137.868335 
L 398.487273 142.429676 
L 398.487273 142.429676 
" style="fill:none;stroke:#1f77b4;stroke-linecap:square;stroke-width:0.25;"/>
   </g>
   <g id="line2d_19">
    <path clip-path="url(#pf81e02a9df)" d="M 73.832727 211.356603 
L 75.464157 211.231589 
L 77.095587 209.771799 
L 78.727017 209.444282 
L 80.358447 203.385075 
L 81.989877 206.405847 
L 83.621307 209.01786 
L 85.252736 204.027477 
L 86.884166 186.124978 
L 88.515596 191.409382 
L 90.147026 191.184787 
L 91.778456 187.031519 
L 93.409886 185.162038 
L 95.041316 178.775484 
L 96.672746 186.337711 
L 98.304175 162.772185 
L 99.935605 171.291355 
L 101.567035 173.430615 
L 103.198465 175.022851 
L 104.829895 177.210405 
L 106.461325 170.10226 
L 108.092755 170.442804 
L 109.724185 172.50851 
L 111.355614 168.570866 
L 112.987044 166.806492 
L 114.618474 170.771946 
L 116.249904 169.526642 
L 117.881334 182.213901 
L 119.512764 158.991095 
L 121.144194 177.455794 
L 122.775624 170.322365 
L 124.407053 173.269393 
L 126.038483 168.441905 
L 127.669913 160.580752 
L 129.301343 175.388292 
L 130.932773 165.334331 
L 132.564203 184.964348 
L 134.195633 175.518892 
L 135.827063 170.093238 
L 137.458492 177.446884 
L 139.089922 169.381585 
L 140.721352 180.036457 
L 143.984212 160.440423 
L 145.615642 169.741798 
L 147.247072 169.186589 
L 148.878502 168.353521 
L 150.509931 171.170088 
L 152.141361 171.945675 
L 153.772791 174.441655 
L 155.404221 156.539461 
L 157.035651 171.476435 
L 158.667081 166.156301 
L 160.298511 168.056501 
L 161.929941 166.402607 
L 163.56137 159.252073 
L 165.1928 179.030045 
L 166.82423 156.978695 
L 168.45566 169.009452 
L 170.08709 161.599207 
L 171.71852 158.307312 
L 173.34995 169.230994 
L 174.98138 168.003494 
L 176.61281 149.249953 
L 178.244239 152.095564 
L 179.875669 156.829285 
L 181.507099 151.571353 
L 183.138529 155.245879 
L 184.769959 168.674893 
L 186.401389 161.332346 
L 188.032819 167.344 
L 189.664249 159.273541 
L 191.295678 152.347129 
L 192.927108 142.930235 
L 194.558538 153.465586 
L 196.189968 150.284697 
L 197.821398 151.944251 
L 199.452828 150.692571 
L 201.084258 140.372716 
L 202.715688 137.130485 
L 204.347117 177.673245 
L 205.978547 172.150703 
L 207.609977 171.394431 
L 209.241407 156.695927 
L 210.872837 163.467581 
L 212.504267 170.732644 
L 214.135697 175.269789 
L 215.767127 160.640633 
L 219.029986 149.728653 
L 220.661416 149.412747 
L 222.292846 159.09357 
L 223.924276 161.751845 
L 225.555706 159.718159 
L 227.187136 164.639201 
L 228.818566 154.460593 
L 230.449995 150.56687 
L 232.081425 149.580247 
L 233.712855 145.406751 
L 235.344285 153.912667 
L 236.975715 152.380673 
L 238.607145 144.65664 
L 240.238575 148.043904 
L 241.870005 141.638657 
L 243.501434 149.423316 
L 245.132864 159.441539 
L 246.764294 164.184757 
L 248.395724 149.205584 
L 250.027154 142.85186 
L 251.658584 154.041562 
L 253.290014 162.111413 
L 254.921444 139.11238 
L 256.552873 151.848763 
L 258.184303 144.877507 
L 259.815733 147.352483 
L 261.447163 162.014394 
L 263.078593 161.164512 
L 264.710023 149.177743 
L 266.341453 151.333677 
L 267.972883 136.968245 
L 269.604312 144.792612 
L 271.235742 146.824253 
L 272.867172 149.691418 
L 274.498602 143.186163 
L 276.130032 162.06438 
L 277.761462 148.212631 
L 279.392892 132.017299 
L 281.024322 134.742538 
L 282.655751 152.259002 
L 284.287181 161.97752 
L 285.918611 156.682872 
L 287.550041 144.598711 
L 289.181471 159.351993 
L 290.812901 147.58265 
L 292.444331 156.747206 
L 294.075761 148.45545 
L 295.70719 156.82207 
L 297.33862 168.298225 
L 298.97005 172.001076 
L 300.60148 173.573603 
L 302.23291 166.356387 
L 303.86434 167.012226 
L 305.49577 148.78874 
L 307.1272 168.085516 
L 310.390059 162.014354 
L 312.021489 161.098053 
L 313.652919 161.803069 
L 315.284349 162.201538 
L 316.915779 151.733569 
L 318.547209 155.258785 
L 320.178639 152.393475 
L 321.810069 156.260434 
L 323.441498 169.391474 
L 325.072928 143.380604 
L 326.704358 143.839265 
L 328.335788 140.221432 
L 331.598648 152.559026 
L 333.230078 138.268142 
L 334.861508 146.756358 
L 336.492937 143.305947 
L 338.124367 157.262646 
L 339.755797 143.595222 
L 341.387227 157.651655 
L 343.018657 143.583213 
L 344.650087 158.229622 
L 346.281517 141.997792 
L 347.912947 146.696438 
L 349.544376 170.812267 
L 351.175806 149.384271 
L 352.807236 163.3579 
L 354.438666 165.186935 
L 356.070096 155.216695 
L 357.701526 165.224308 
L 359.332956 160.538664 
L 360.964386 154.726074 
L 362.595815 161.577156 
L 364.227245 141.381494 
L 365.858675 163.353712 
L 367.490105 164.231477 
L 369.121535 166.924206 
L 370.752965 150.73798 
L 372.384395 151.05904 
L 374.015825 143.711432 
L 375.647254 144.327704 
L 377.278684 150.738615 
L 378.910114 147.295552 
L 380.541544 172.766622 
L 382.172974 157.650388 
L 383.804404 139.198609 
L 385.435834 158.471735 
L 387.067264 152.28651 
L 388.698693 158.42922 
L 390.330123 159.0331 
L 391.961553 146.81221 
L 393.592983 142.225798 
L 395.224413 148.229195 
L 396.855843 143.825085 
L 398.487273 153.462744 
L 398.487273 153.462744 
" style="fill:none;stroke:#2ca02c;stroke-linecap:square;stroke-width:0.75;"/>
   </g>
   <g id="patch_3">
    <path d="M 57.6 307.584 
L 57.6 41.472 
" style="fill:none;stroke:#000000;stroke-linecap:square;stroke-linejoin:miter;stroke-width:0.8;"/>
   </g>
   <g id="patch_4">
    <path d="M 414.72 307.584 
L 414.72 41.472 
" style="fill:none;stroke:#000000;stroke-linecap:square;stroke-linejoin:miter;stroke-width:0.8;"/>
   </g>
   <g id="patch_5">
    <path d="M 57.6 307.584 
L 414.72 307.584 
" style="fill:none;stroke:#000000;stroke-linecap:square;stroke-linejoin:miter;stroke-width:0.8;"/>
   </g>
   <g id="patch_6">
    <path d="M 57.6 41.472 
L 414.72 41.472 
" style="fill:none;stroke:#000000;stroke-linecap:square;stroke-linejoin:miter;stroke-width:0.8;"/>
   </g>
   <g id="legend_1">
    <g id="patch_7">
     <path d="M 338.234063 78.82825 
L 407.72 78.82825 
Q 409.72 78.82825 409.72 76.82825 
L 409.72 48.472 
Q 409.72 46.472 407.72 46.472 
L 338.234063 46.472 
Q 336.234063 46.472 336.234063 48.472 
L 336.234063 76.82825 
Q 336.234063 78.82825 338.234063 78.82825 
z
" style="fill:#ffffff;opacity:0.8;stroke:#cccccc;stroke-linejoin:miter;"/>
    </g>
    <g id="line2d_20">
     <path d="M 340.234063 54.570437 
L 360.234063 54.570437 
" style="fill:none;stroke:#1f77b4;stroke-linecap:square;stroke-width:0.25;"/>
    </g>
    <g id="line2d_21"/>
    <g id="text_18">
     <!-- median -->
     <defs>
      <path d="M 52 44.1875 
Q 55.375 50.25 60.0625 53.125 
Q 64.75 56 71.09375 56 
Q 79.640625 56 84.28125 50.015625 
Q 88.921875 44.046875 88.921875 33.015625 
L 88.921875 0 
L 79.890625 0 
L 79.890625 32.71875 
Q 79.890625 40.578125 77.09375 44.375 
Q 74.3125 48.1875 68.609375 48.1875 
Q 61.625 48.1875 57.5625 43.546875 
Q 53.515625 38.921875 53.515625 30.90625 
L 53.515625 0 
L 44.484375 0 
L 44.484375 32.71875 
Q 44.484375 40.625 41.703125 44.40625 
Q 38.921875 48.1875 33.109375 48.1875 
Q 26.21875 48.1875 22.15625 43.53125 
Q 18.109375 38.875 18.109375 30.90625 
L 18.109375 0 
L 9.078125 0 
L 9.078125 54.6875 
L 18.109375 54.6875 
L 18.109375 46.1875 
Q 21.1875 51.21875 25.484375 53.609375 
Q 29.78125 56 35.6875 56 
Q 41.65625 56 45.828125 52.96875 
Q 50 49.953125 52 44.1875 
z
" id="DejaVuSans-109"/>
      <path d="M 56.203125 29.59375 
L 56.203125 25.203125 
L 14.890625 25.203125 
Q 15.484375 15.921875 20.484375 11.0625 
Q 25.484375 6.203125 34.421875 6.203125 
Q 39.59375 6.203125 44.453125 7.46875 
Q 49.3125 8.734375 54.109375 11.28125 
L 54.109375 2.78125 
Q 49.265625 0.734375 44.1875 -0.34375 
Q 39.109375 -1.421875 33.890625 -1.421875 
Q 20.796875 -1.421875 13.15625 6.1875 
Q 5.515625 13.8125 5.515625 26.8125 
Q 5.515625 40.234375 12.765625 48.109375 
Q 20.015625 56 32.328125 56 
Q 43.359375 56 49.78125 48.890625 
Q 56.203125 41.796875 56.203125 29.59375 
z
M 47.21875 32.234375 
Q 47.125 39.59375 43.09375 43.984375 
Q 39.0625 48.390625 32.421875 48.390625 
Q 24.90625 48.390625 20.390625 44.140625 
Q 15.875 39.890625 15.1875 32.171875 
z
" id="DejaVuSans-101"/>
      <path d="M 45.40625 46.390625 
L 45.40625 75.984375 
L 54.390625 75.984375 
L 54.390625 0 
L 45.40625 0 
L 45.40625 8.203125 
Q 42.578125 3.328125 38.25 0.953125 
Q 33.9375 -1.421875 27.875 -1.421875 
Q 17.96875 -1.421875 11.734375 6.484375 
Q 5.515625 14.40625 5.515625 27.296875 
Q 5.515625 40.1875 11.734375 48.09375 
Q 17.96875 56 27.875 56 
Q 33.9375 56 38.25 53.625 
Q 42.578125 51.265625 45.40625 46.390625 
z
M 14.796875 27.296875 
Q 14.796875 17.390625 18.875 11.75 
Q 22.953125 6.109375 30.078125 6.109375 
Q 37.203125 6.109375 41.296875 11.75 
Q 45.40625 17.390625 45.40625 27.296875 
Q 45.40625 37.203125 41.296875 42.84375 
Q 37.203125 48.484375 30.078125 48.484375 
Q 22.953125 48.484375 18.875 42.84375 
Q 14.796875 37.203125 14.796875 27.296875 
z
" id="DejaVuSans-100"/>
      <path d="M 9.421875 54.6875 
L 18.40625 54.6875 
L 18.40625 0 
L 9.421875 0 
z
M 9.421875 75.984375 
L 18.40625 75.984375 
L 18.40625 64.59375 
L 9.421875 64.59375 
z
" id="DejaVuSans-105"/>
      <path d="M 34.28125 27.484375 
Q 23.390625 27.484375 19.1875 25 
Q 14.984375 22.515625 14.984375 16.5 
Q 14.984375 11.71875 18.140625 8.90625 
Q 21.296875 6.109375 26.703125 6.109375 
Q 34.1875 6.109375 38.703125 11.40625 
Q 43.21875 16.703125 43.21875 25.484375 
L 43.21875 27.484375 
z
M 52.203125 31.203125 
L 52.203125 0 
L 43.21875 0 
L 43.21875 8.296875 
Q 40.140625 3.328125 35.546875 0.953125 
Q 30.953125 -1.421875 24.3125 -1.421875 
Q 15.921875 -1.421875 10.953125 3.296875 
Q 6 8.015625 6 15.921875 
Q 6 25.140625 12.171875 29.828125 
Q 18.359375 34.515625 30.609375 34.515625 
L 43.21875 34.515625 
L 43.21875 35.40625 
Q 43.21875 41.609375 39.140625 45 
Q 35.0625 48.390625 27.6875 48.390625 
Q 23 48.390625 18.546875 47.265625 
Q 14.109375 46.140625 10.015625 43.890625 
L 10.015625 52.203125 
Q 14.9375 54.109375 19.578125 55.046875 
Q 24.21875 56 28.609375 56 
Q 40.484375 56 46.34375 49.84375 
Q 52.203125 43.703125 52.203125 31.203125 
z
" id="DejaVuSans-97"/>
      <path d="M 54.890625 33.015625 
L 54.890625 0 
L 45.90625 0 
L 45.90625 32.71875 
Q 45.90625 40.484375 42.875 44.328125 
Q 39.84375 48.1875 33.796875 48.1875 
Q 26.515625 48.1875 22.3125 43.546875 
Q 18.109375 38.921875 18.109375 30.90625 
L 18.109375 0 
L 9.078125 0 
L 9.078125 54.6875 
L 18.109375 54.6875 
L 18.109375 46.1875 
Q 21.34375 51.125 25.703125 53.5625 
Q 30.078125 56 35.796875 56 
Q 45.21875 56 50.046875 50.171875 
Q 54.890625 44.34375 54.890625 33.015625 
z
" id="DejaVuSans-110"/>
     </defs>
     <g transform="translate(368.234063 58.070437)scale(0.1 -0.1)">
      <use xlink:href="#DejaVuSans-109"/>
      <use x="97.412109" xlink:href="#DejaVuSans-101"/>
      <use x="158.935547" xlink:href="#DejaVuSans-100"/>
      <use x="222.412109" xlink:href="#DejaVuSans-105"/>
      <use x="250.195312" xlink:href="#DejaVuSans-97"/>
      <use x="311.474609" xlink:href="#DejaVuSans-110"/>
     </g>
    </g>
    <g id="line2d_22">
     <path d="M 340.234063 69.248562 
L 360.234063 69.248562 
" style="fill:none;stroke:#2ca02c;stroke-linecap:square;stroke-width:0.75;"/>
    </g>
    <g id="line2d_23"/>
    <g id="text_19">
     <!-- mean -->
     <g transform="translate(368.234063 72.748562)scale(0.1 -0.1)">
      <use xlink:href="#DejaVuSans-109"/>
      <use x="97.412109" xlink:href="#DejaVuSans-101"/>
      <use x="158.935547" xlink:href="#DejaVuSans-97"/>
      <use x="220.214844" xlink:href="#DejaVuSans-110"/>
     </g>
    </g>
   </g>
  </g>
  <g id="text_20">
   <!-- kappa.mean over generations -->
   <defs>
    <path d="M 9.078125 75.984375 
L 18.109375 75.984375 
L 18.109375 31.109375 
L 44.921875 54.6875 
L 56.390625 54.6875 
L 27.390625 29.109375 
L 57.625 0 
L 45.90625 0 
L 18.109375 26.703125 
L 18.109375 0 
L 9.078125 0 
z
" id="DejaVuSans-107"/>
    <path d="M 18.109375 8.203125 
L 18.109375 -20.796875 
L 9.078125 -20.796875 
L 9.078125 54.6875 
L 18.109375 54.6875 
L 18.109375 46.390625 
Q 20.953125 51.265625 25.265625 53.625 
Q 29.59375 56 35.59375 56 
Q 45.5625 56 51.78125 48.09375 
Q 58.015625 40.1875 58.015625 27.296875 
Q 58.015625 14.40625 51.78125 6.484375 
Q 45.5625 -1.421875 35.59375 -1.421875 
Q 29.59375 -1.421875 25.265625 0.953125 
Q 20.953125 3.328125 18.109375 8.203125 
z
M 48.6875 27.296875 
Q 48.6875 37.203125 44.609375 42.84375 
Q 40.53125 48.484375 33.40625 48.484375 
Q 26.265625 48.484375 22.1875 42.84375 
Q 18.109375 37.203125 18.109375 27.296875 
Q 18.109375 17.390625 22.1875 11.75 
Q 26.265625 6.109375 33.40625 6.109375 
Q 40.53125 6.109375 44.609375 11.75 
Q 48.6875 17.390625 48.6875 27.296875 
z
" id="DejaVuSans-112"/>
    <path id="DejaVuSans-32"/>
    <path d="M 30.609375 48.390625 
Q 23.390625 48.390625 19.1875 42.75 
Q 14.984375 37.109375 14.984375 27.296875 
Q 14.984375 17.484375 19.15625 11.84375 
Q 23.34375 6.203125 30.609375 6.203125 
Q 37.796875 6.203125 41.984375 11.859375 
Q 46.1875 17.53125 46.1875 27.296875 
Q 46.1875 37.015625 41.984375 42.703125 
Q 37.796875 48.390625 30.609375 48.390625 
z
M 30.609375 56 
Q 42.328125 56 49.015625 48.375 
Q 55.71875 40.765625 55.71875 27.296875 
Q 55.71875 13.875 49.015625 6.21875 
Q 42.328125 -1.421875 30.609375 -1.421875 
Q 18.84375 -1.421875 12.171875 6.21875 
Q 5.515625 13.875 5.515625 27.296875 
Q 5.515625 40.765625 12.171875 48.375 
Q 18.84375 56 30.609375 56 
z
" id="DejaVuSans-111"/>
    <path d="M 2.984375 54.6875 
L 12.5 54.6875 
L 29.59375 8.796875 
L 46.6875 54.6875 
L 56.203125 54.6875 
L 35.6875 0 
L 23.484375 0 
z
" id="DejaVuSans-118"/>
    <path d="M 41.109375 46.296875 
Q 39.59375 47.171875 37.8125 47.578125 
Q 36.03125 48 33.890625 48 
Q 26.265625 48 22.1875 43.046875 
Q 18.109375 38.09375 18.109375 28.8125 
L 18.109375 0 
L 9.078125 0 
L 9.078125 54.6875 
L 18.109375 54.6875 
L 18.109375 46.1875 
Q 20.953125 51.171875 25.484375 53.578125 
Q 30.03125 56 36.53125 56 
Q 37.453125 56 38.578125 55.875 
Q 39.703125 55.765625 41.0625 55.515625 
z
" id="DejaVuSans-114"/>
    <path d="M 45.40625 27.984375 
Q 45.40625 37.75 41.375 43.109375 
Q 37.359375 48.484375 30.078125 48.484375 
Q 22.859375 48.484375 18.828125 43.109375 
Q 14.796875 37.75 14.796875 27.984375 
Q 14.796875 18.265625 18.828125 12.890625 
Q 22.859375 7.515625 30.078125 7.515625 
Q 37.359375 7.515625 41.375 12.890625 
Q 45.40625 18.265625 45.40625 27.984375 
z
M 54.390625 6.78125 
Q 54.390625 -7.171875 48.1875 -13.984375 
Q 42 -20.796875 29.203125 -20.796875 
Q 24.46875 -20.796875 20.265625 -20.09375 
Q 16.0625 -19.390625 12.109375 -17.921875 
L 12.109375 -9.1875 
Q 16.0625 -11.328125 19.921875 -12.34375 
Q 23.78125 -13.375 27.78125 -13.375 
Q 36.625 -13.375 41.015625 -8.765625 
Q 45.40625 -4.15625 45.40625 5.171875 
L 45.40625 9.625 
Q 42.625 4.78125 38.28125 2.390625 
Q 33.9375 0 27.875 0 
Q 17.828125 0 11.671875 7.65625 
Q 5.515625 15.328125 5.515625 27.984375 
Q 5.515625 40.671875 11.671875 48.328125 
Q 17.828125 56 27.875 56 
Q 33.9375 56 38.28125 53.609375 
Q 42.625 51.21875 45.40625 46.390625 
L 45.40625 54.6875 
L 54.390625 54.6875 
z
" id="DejaVuSans-103"/>
    <path d="M 18.3125 70.21875 
L 18.3125 54.6875 
L 36.8125 54.6875 
L 36.8125 47.703125 
L 18.3125 47.703125 
L 18.3125 18.015625 
Q 18.3125 11.328125 20.140625 9.421875 
Q 21.96875 7.515625 27.59375 7.515625 
L 36.8125 7.515625 
L 36.8125 0 
L 27.59375 0 
Q 17.1875 0 13.234375 3.875 
Q 9.28125 7.765625 9.28125 18.015625 
L 9.28125 47.703125 
L 2.6875 47.703125 
L 2.6875 54.6875 
L 9.28125 54.6875 
L 9.28125 70.21875 
z
" id="DejaVuSans-116"/>
    <path d="M 44.28125 53.078125 
L 44.28125 44.578125 
Q 40.484375 46.53125 36.375 47.5 
Q 32.28125 48.484375 27.875 48.484375 
Q 21.1875 48.484375 17.84375 46.4375 
Q 14.5 44.390625 14.5 40.28125 
Q 14.5 37.15625 16.890625 35.375 
Q 19.28125 33.59375 26.515625 31.984375 
L 29.59375 31.296875 
Q 39.15625 29.25 43.1875 25.515625 
Q 47.21875 21.78125 47.21875 15.09375 
Q 47.21875 7.46875 41.1875 3.015625 
Q 35.15625 -1.421875 24.609375 -1.421875 
Q 20.21875 -1.421875 15.453125 -0.5625 
Q 10.6875 0.296875 5.421875 2 
L 5.421875 11.28125 
Q 10.40625 8.6875 15.234375 7.390625 
Q 20.0625 6.109375 24.8125 6.109375 
Q 31.15625 6.109375 34.5625 8.28125 
Q 37.984375 10.453125 37.984375 14.40625 
Q 37.984375 18.0625 35.515625 20.015625 
Q 33.0625 21.96875 24.703125 23.78125 
L 21.578125 24.515625 
Q 13.234375 26.265625 9.515625 29.90625 
Q 5.8125 33.546875 5.8125 39.890625 
Q 5.8125 47.609375 11.28125 51.796875 
Q 16.75 56 26.8125 56 
Q 31.78125 56 36.171875 55.265625 
Q 40.578125 54.546875 44.28125 53.078125 
z
" id="DejaVuSans-115"/>
   </defs>
   <g transform="translate(140.184375 16.030125)scale(0.12 -0.12)">
    <use xlink:href="#DejaVuSans-107"/>
    <use x="56.160156" xlink:href="#DejaVuSans-97"/>
    <use x="117.439453" xlink:href="#DejaVuSans-112"/>
    <use x="180.916016" xlink:href="#DejaVuSans-112"/>
    <use x="244.392578" xlink:href="#DejaVuSans-97"/>
    <use x="305.671875" xlink:href="#DejaVuSans-46"/>
    <use x="337.458984" xlink:href="#DejaVuSans-109"/>
    <use x="434.871094" xlink:href="#DejaVuSans-101"/>
    <use x="496.394531" xlink:href="#DejaVuSans-97"/>
    <use x="557.673828" xlink:href="#DejaVuSans-110"/>
    <use x="621.052734" xlink:href="#DejaVuSans-32"/>
    <use x="652.839844" xlink:href="#DejaVuSans-111"/>
    <use x="714.021484" xlink:href="#DejaVuSans-118"/>
    <use x="773.201172" xlink:href="#DejaVuSans-101"/>
    <use x="834.724609" xlink:href="#DejaVuSans-114"/>
    <use x="875.837891" xlink:href="#DejaVuSans-32"/>
    <use x="907.625" xlink:href="#DejaVuSans-103"/>
    <use x="971.101562" xlink:href="#DejaVuSans-101"/>
    <use x="1032.625" xlink:href="#DejaVuSans-110"/>
    <use x="1096.003906" xlink:href="#DejaVuSans-101"/>
    <use x="1157.527344" xlink:href="#DejaVuSans-114"/>
    <use x="1198.640625" xlink:href="#DejaVuSans-97"/>
    <use x="1259.919922" xlink:href="#DejaVuSans-116"/>
    <use x="1299.128906" xlink:href="#DejaVuSans-105"/>
    <use x="1326.912109" xlink:href="#DejaVuSans-111"/>
    <use x="1388.09375" xlink:href="#DejaVuSans-110"/>
    <use x="1451.472656" xlink:href="#DejaVuSans-115"/>
   </g>
  </g>
 </g>
 <defs>
  <clipPath id="pf81e02a9df">
   <rect height="266.112" width="357.12" x="57.6" y="41.472"/>
  </clipPath>
 </defs>
</svg>
