<?xml version="1.0" encoding="utf-8" standalone="no"?>
<!DOCTYPE svg PUBLIC "-//W3C//DTD SVG 1.1//EN"
  "http://www.w3.org/Graphics/SVG/1.1/DTD/svg11.dtd">
<!-- Created with matplotlib (https://matplotlib.org/) -->
<svg height="345.6pt" version="1.1" viewBox="0 0 460.8 345.6" width="460.8pt" xmlns="http://www.w3.org/2000/svg" xmlns:xlink="http://www.w3.org/1999/xlink">
 <defs>
  <style type="text/css">
*{stroke-linecap:butt;stroke-linejoin:round;}
  </style>
 </defs>
 <g id="figure_1">
  <g id="patch_1">
   <path d="M 0 345.6 
L 460.8 345.6 
L 460.8 0 
L 0 0 
z
" style="fill:#ffffff;"/>
  </g>
  <g id="axes_1">
   <g id="patch_2">
    <path clip-path="url(#p5f21efefc6)" d="M 88.589752 64.564364 
Q 116.581623 81.115228 144.573494 97.666092 
" style="fill:none;stroke:#000000;stroke-linecap:round;stroke-opacity:0.9;stroke-width:0.4;"/>
   </g>
   <g id="patch_3">
    <path clip-path="url(#p5f21efefc6)" d="M 88.589752 64.564364 
Q 175.630889 118.614102 262.672025 172.66384 
" style="fill:none;stroke:#000000;stroke-linecap:round;stroke-opacity:0.9;stroke-width:0.4;"/>
   </g>
   <g id="patch_4">
    <path clip-path="url(#p5f21efefc6)" d="M 88.589752 119.546182 
Q 116.430306 110.075447 144.27086 100.604712 
" style="fill:none;stroke:#000000;stroke-linecap:round;stroke-opacity:0.9;stroke-width:0.4;"/>
   </g>
   <g id="patch_5">
    <path clip-path="url(#p5f21efefc6)" d="M 88.589752 119.546182 
Q 234.396885 109.626116 380.204018 99.70605 
" style="fill:none;stroke:#000000;stroke-linecap:round;stroke-opacity:0.9;stroke-width:0.4;"/>
   </g>
   <g id="patch_6">
    <path clip-path="url(#p5f21efefc6)" d="M 88.589752 174.528 
Q 117.011256 138.386384 145.43276 102.244767 
" style="fill:none;stroke:#000000;stroke-linecap:round;stroke-opacity:0.9;stroke-width:0.4;"/>
   </g>
   <g id="patch_7">
    <path clip-path="url(#p5f21efefc6)" d="M 88.589752 229.509818 
Q 116.430306 238.980553 144.27086 248.451288 
" style="fill:none;stroke:#000000;stroke-linecap:round;stroke-opacity:0.9;stroke-width:0.4;"/>
   </g>
   <g id="patch_8">
    <path clip-path="url(#p5f21efefc6)" d="M 88.589752 229.509818 
Q 116.808599 203.225328 145.027446 176.940837 
" style="fill:none;stroke:#000000;stroke-linecap:round;stroke-opacity:0.9;stroke-width:0.4;"/>
   </g>
   <g id="patch_9">
    <path clip-path="url(#p5f21efefc6)" d="M 88.589752 229.509818 
Q 145.875903 239.253553 203.162053 248.997287 
" style="fill:none;stroke:#000000;stroke-linecap:round;stroke-opacity:0.9;stroke-width:0.4;"/>
   </g>
   <g id="patch_10">
    <path clip-path="url(#p5f21efefc6)" d="M 88.589752 229.509818 
Q 234.423906 202.342327 380.25806 175.174835 
" style="fill:none;stroke:#000000;stroke-linecap:round;stroke-opacity:0.9;stroke-width:0.4;"/>
   </g>
   <g id="patch_11">
    <path clip-path="url(#p5f21efefc6)" d="M 88.589752 229.509818 
Q 234.396885 239.429884 380.204018 249.34995 
" style="fill:none;stroke:#000000;stroke-linecap:round;stroke-opacity:0.9;stroke-width:0.4;"/>
   </g>
   <g id="patch_12">
    <path clip-path="url(#p5f21efefc6)" d="M 88.589752 284.491636 
Q 117.566536 193.662966 146.543319 102.834296 
" style="fill:none;stroke:#000000;stroke-linecap:round;stroke-opacity:0.9;stroke-width:0.4;"/>
   </g>
   <g id="patch_13">
    <path clip-path="url(#p5f21efefc6)" d="M 88.589752 284.491636 
Q 234.661465 192.91833 380.733178 101.345024 
" style="fill:none;stroke:#000000;stroke-linecap:round;stroke-opacity:0.9;stroke-width:0.4;"/>
   </g>
   <g id="patch_14">
    <path clip-path="url(#p5f21efefc6)" d="M 88.589752 284.491636 
Q 234.504969 230.126451 380.420185 175.761265 
" style="fill:none;stroke:#000000;stroke-linecap:round;stroke-opacity:0.9;stroke-width:0.4;"/>
   </g>
   <g id="patch_15">
    <path clip-path="url(#p5f21efefc6)" d="M 147.617851 99.466141 
Q 176.039355 135.607757 204.460859 171.749373 
" style="fill:none;stroke:#000000;stroke-linecap:round;stroke-opacity:0.9;stroke-width:0.4;"/>
   </g>
   <g id="patch_16">
    <path clip-path="url(#p5f21efefc6)" d="M 147.617851 99.466141 
Q 175.364733 99.466141 203.111614 99.466141 
" style="fill:none;stroke:#000000;stroke-linecap:round;stroke-opacity:0.9;stroke-width:0.4;"/>
   </g>
   <g id="patch_17">
    <path clip-path="url(#p5f21efefc6)" d="M 147.617851 99.466141 
Q 234.53199 136.306995 321.446128 173.14785 
" style="fill:none;stroke:#000000;stroke-linecap:round;stroke-opacity:0.9;stroke-width:0.4;"/>
   </g>
   <g id="patch_18">
    <path clip-path="url(#p5f21efefc6)" d="M 147.617851 249.589859 
Q 175.364733 249.589859 203.111614 249.589859 
" style="fill:none;stroke:#000000;stroke-linecap:round;stroke-opacity:0.9;stroke-width:0.4;"/>
   </g>
   <g id="patch_19">
    <path clip-path="url(#p5f21efefc6)" d="M 147.617851 249.589859 
Q 263.906881 249.589859 380.195912 249.589859 
" style="fill:none;stroke:#000000;stroke-linecap:round;stroke-opacity:0.9;stroke-width:0.4;"/>
   </g>
   <g id="patch_20">
    <path clip-path="url(#p5f21efefc6)" d="M 147.617851 174.528 
Q 263.989746 137.532523 380.36164 100.537046 
" style="fill:none;stroke:#000000;stroke-linecap:round;stroke-opacity:0.9;stroke-width:0.4;"/>
   </g>
   <g id="patch_21">
    <path clip-path="url(#p5f21efefc6)" d="M 206.64595 174.528 
Q 293.560089 211.368854 380.474227 248.209709 
" style="fill:none;stroke:#000000;stroke-linecap:round;stroke-opacity:0.9;stroke-width:0.4;"/>
   </g>
   <g id="patch_22">
    <path clip-path="url(#p5f21efefc6)" d="M 206.64595 99.466141 
Q 235.067454 135.607757 263.488958 171.749373 
" style="fill:none;stroke:#000000;stroke-linecap:round;stroke-opacity:0.9;stroke-width:0.4;"/>
   </g>
   <g id="patch_23">
    <path clip-path="url(#p5f21efefc6)" d="M 206.64595 99.466141 
Q 293.41958 99.466141 380.19321 99.466141 
" style="fill:none;stroke:#000000;stroke-linecap:round;stroke-opacity:0.9;stroke-width:0.4;"/>
   </g>
   <g id="patch_24">
    <path clip-path="url(#p5f21efefc6)" d="M 206.64595 99.466141 
Q 293.560089 136.306995 380.474227 173.14785 
" style="fill:none;stroke:#000000;stroke-linecap:round;stroke-opacity:0.9;stroke-width:0.4;"/>
   </g>
   <g id="patch_25">
    <path clip-path="url(#p5f21efefc6)" d="M 206.64595 249.589859 
Q 293.560089 212.749005 380.474227 175.90815 
" style="fill:none;stroke:#000000;stroke-linecap:round;stroke-opacity:0.9;stroke-width:0.4;"/>
   </g>
   <g id="patch_26">
    <path clip-path="url(#p5f21efefc6)" d="M 265.67405 174.528 
Q 293.420931 174.528 321.167812 174.528 
" style="fill:none;stroke:#000000;stroke-linecap:round;stroke-opacity:0.9;stroke-width:0.4;"/>
   </g>
   <g id="patch_27">
    <path clip-path="url(#p5f21efefc6)" d="M 324.702149 174.528 
Q 353.123653 138.386384 381.545156 102.244767 
" style="fill:none;stroke:#000000;stroke-linecap:round;stroke-opacity:0.9;stroke-width:0.4;"/>
   </g>
   <g id="PathCollection_1">
    <defs>
     <path d="M 0 3.535534 
C 0.937635 3.535534 1.836992 3.163008 2.5 2.5 
C 3.163008 1.836992 3.535534 0.937635 3.535534 0 
C 3.535534 -0.937635 3.163008 -1.836992 2.5 -2.5 
C 1.836992 -3.163008 0.937635 -3.535534 0 -3.535534 
C -0.937635 -3.535534 -1.836992 -3.163008 -2.5 -2.5 
C -3.163008 -1.836992 -3.535534 -0.937635 -3.535534 0 
C -3.535534 0.937635 -3.163008 1.836992 -2.5 2.5 
C -1.836992 3.163008 -0.937635 3.535534 0 3.535534 
z
" id="C0_0_64479a8859"/>
    </defs>
    <g clip-path="url(#p5f21efefc6)">
     <use style="fill:#fdb462;fill-opacity:0.9;" x="88.589752" xlink:href="#C0_0_64479a8859" y="64.564364"/>
    </g>
    <g clip-path="url(#p5f21efefc6)">
     <use style="fill:#fdb462;fill-opacity:0.9;" x="88.589752" xlink:href="#C0_0_64479a8859" y="119.546182"/>
    </g>
    <g clip-path="url(#p5f21efefc6)">
     <use style="fill:#fdb462;fill-opacity:0.9;" x="88.589752" xlink:href="#C0_0_64479a8859" y="174.528"/>
    </g>
    <g clip-path="url(#p5f21efefc6)">
     <use style="fill:#fdb462;fill-opacity:0.9;" x="88.589752" xlink:href="#C0_0_64479a8859" y="229.509818"/>
    </g>
    <g clip-path="url(#p5f21efefc6)">
     <use style="fill:#ffed6f;fill-opacity:0.9;" x="88.589752" xlink:href="#C0_0_64479a8859" y="284.491636"/>
    </g>
    <g clip-path="url(#p5f21efefc6)">
     <use style="fill:#80b1d3;fill-opacity:0.9;" x="147.617851" xlink:href="#C0_0_64479a8859" y="99.466141"/>
    </g>
    <g clip-path="url(#p5f21efefc6)">
     <use style="fill:#80b1d3;fill-opacity:0.9;" x="147.617851" xlink:href="#C0_0_64479a8859" y="249.589859"/>
    </g>
    <g clip-path="url(#p5f21efefc6)">
     <use style="fill:#80b1d3;fill-opacity:0.9;" x="147.617851" xlink:href="#C0_0_64479a8859" y="174.528"/>
    </g>
    <g clip-path="url(#p5f21efefc6)">
     <use style="fill:#80b1d3;fill-opacity:0.9;" x="206.64595" xlink:href="#C0_0_64479a8859" y="174.528"/>
    </g>
    <g clip-path="url(#p5f21efefc6)">
     <use style="fill:#80b1d3;fill-opacity:0.9;" x="206.64595" xlink:href="#C0_0_64479a8859" y="99.466141"/>
    </g>
    <g clip-path="url(#p5f21efefc6)">
     <use style="fill:#80b1d3;fill-opacity:0.9;" x="206.64595" xlink:href="#C0_0_64479a8859" y="249.589859"/>
    </g>
    <g clip-path="url(#p5f21efefc6)">
     <use style="fill:#80b1d3;fill-opacity:0.9;" x="265.67405" xlink:href="#C0_0_64479a8859" y="174.528"/>
    </g>
    <g clip-path="url(#p5f21efefc6)">
     <use style="fill:#80b1d3;fill-opacity:0.9;" x="324.702149" xlink:href="#C0_0_64479a8859" y="174.528"/>
    </g>
    <g clip-path="url(#p5f21efefc6)">
     <use style="fill:#b3de69;fill-opacity:0.9;" x="383.730248" xlink:href="#C0_0_64479a8859" y="99.466141"/>
    </g>
    <g clip-path="url(#p5f21efefc6)">
     <use style="fill:#b3de69;fill-opacity:0.9;" x="383.730248" xlink:href="#C0_0_64479a8859" y="174.528"/>
    </g>
    <g clip-path="url(#p5f21efefc6)">
     <use style="fill:#b3de69;fill-opacity:0.9;" x="383.730248" xlink:href="#C0_0_64479a8859" y="249.589859"/>
    </g>
   </g>
  </g>
 </g>
 <defs>
  <clipPath id="p5f21efefc6">
   <rect height="266.112" width="357.12" x="57.6" y="41.472"/>
  </clipPath>
 </defs>
</svg>
