<?xml version="1.0" encoding="utf-8" standalone="no"?>
<!DOCTYPE svg PUBLIC "-//W3C//DTD SVG 1.1//EN"
  "http://www.w3.org/Graphics/SVG/1.1/DTD/svg11.dtd">
<!-- Created with matplotlib (https://matplotlib.org/) -->
<svg height="345.6pt" version="1.1" viewBox="0 0 460.8 345.6" width="460.8pt" xmlns="http://www.w3.org/2000/svg" xmlns:xlink="http://www.w3.org/1999/xlink">
 <defs>
  <style type="text/css">
*{stroke-linecap:butt;stroke-linejoin:round;}
  </style>
 </defs>
 <g id="figure_1">
  <g id="patch_1">
   <path d="M 0 345.6 
L 460.8 345.6 
L 460.8 0 
L 0 0 
z
" style="fill:#ffffff;"/>
  </g>
  <g id="axes_1">
   <g id="patch_2">
    <path d="M 57.6 307.584 
L 414.72 307.584 
L 414.72 41.472 
L 57.6 41.472 
z
" style="fill:#ffffff;"/>
   </g>
   <g id="PolyCollection_1">
    <path clip-path="url(#pad23a36e47)" d="M 73.832727 287.598048 
L 73.832727 288.845555 
L 75.464157 288.845555 
L 77.095587 288.845555 
L 78.727017 288.845555 
L 80.358447 288.845555 
L 81.989877 288.845555 
L 83.621307 288.845555 
L 85.252736 288.845555 
L 86.884166 288.845555 
L 88.515596 288.845555 
L 90.147026 288.845555 
L 91.778456 288.845555 
L 93.409886 288.845555 
L 95.041316 288.845555 
L 96.672746 288.845555 
L 98.304175 288.845555 
L 99.935605 288.845555 
L 101.567035 288.845555 
L 103.198465 288.845555 
L 104.829895 288.845555 
L 106.461325 288.845555 
L 108.092755 288.845555 
L 109.724185 288.845555 
L 111.355614 288.845555 
L 112.987044 288.845555 
L 114.618474 288.845555 
L 116.249904 288.845555 
L 117.881334 288.845555 
L 119.512764 288.845555 
L 121.144194 288.845555 
L 122.775624 288.845555 
L 124.407053 288.845555 
L 126.038483 288.845555 
L 127.669913 288.845555 
L 129.301343 288.845555 
L 130.932773 288.845555 
L 132.564203 288.845555 
L 134.195633 288.845555 
L 135.827063 288.845555 
L 137.458492 288.845555 
L 139.089922 288.845555 
L 140.721352 288.845555 
L 142.352782 288.845555 
L 143.984212 288.845555 
L 145.615642 288.845555 
L 147.247072 288.845555 
L 148.878502 288.845555 
L 150.509931 288.845555 
L 152.141361 288.845555 
L 153.772791 288.845555 
L 155.404221 288.845555 
L 157.035651 288.845555 
L 158.667081 288.845555 
L 160.298511 288.845555 
L 161.929941 288.845555 
L 163.56137 288.845555 
L 165.1928 288.845555 
L 166.82423 288.845555 
L 168.45566 288.845555 
L 170.08709 288.845555 
L 171.71852 288.845555 
L 173.34995 288.845555 
L 174.98138 288.845555 
L 176.61281 288.845555 
L 178.244239 288.845555 
L 179.875669 288.845555 
L 181.507099 288.845555 
L 183.138529 288.845555 
L 184.769959 288.845555 
L 186.401389 288.845555 
L 188.032819 288.845555 
L 189.664249 288.845555 
L 191.295678 288.845555 
L 192.927108 288.845555 
L 194.558538 288.845555 
L 196.189968 288.845555 
L 197.821398 288.845555 
L 199.452828 288.845555 
L 201.084258 288.845555 
L 202.715688 288.845555 
L 204.347117 288.845555 
L 205.978547 288.845555 
L 207.609977 288.845555 
L 209.241407 288.659721 
L 210.872837 288.900032 
L 212.504267 289.09133 
L 214.135697 289.063219 
L 215.767127 289.146633 
L 217.398556 289.327601 
L 219.029986 291.102743 
L 220.661416 291.122663 
L 222.292846 290.769934 
L 223.924276 291.705673 
L 225.555706 293.716857 
L 227.187136 293.752263 
L 228.818566 293.09645 
L 230.449995 293.722757 
L 232.081425 292.853845 
L 233.712855 293.935161 
L 235.344285 293.775672 
L 236.975715 293.262424 
L 238.607145 292.652542 
L 240.238575 293.665624 
L 241.870005 293.76923 
L 243.501434 291.909573 
L 245.132864 293.004191 
L 246.764294 293.792993 
L 248.395724 292.850557 
L 250.027154 293.494974 
L 251.658584 290.654489 
L 253.290014 293.461741 
L 254.921444 293.710412 
L 256.552873 293.840582 
L 258.184303 290.552825 
L 259.815733 292.15641 
L 261.447163 293.662494 
L 263.078593 293.857534 
L 264.710023 292.463267 
L 266.341453 291.693215 
L 267.972883 292.894003 
L 269.604312 292.752184 
L 271.235742 293.851078 
L 272.867172 293.425704 
L 274.498602 293.790772 
L 276.130032 294.185176 
L 277.761462 292.727405 
L 279.392892 293.86184 
L 281.024322 292.976731 
L 282.655751 293.738077 
L 284.287181 292.851685 
L 285.918611 292.333393 
L 287.550041 294.04322 
L 289.181471 292.888079 
L 290.812901 293.608793 
L 292.444331 294.807842 
L 294.075761 293.239959 
L 295.70719 292.316812 
L 297.33862 293.895489 
L 298.97005 293.894571 
L 300.60148 293.987378 
L 302.23291 294.164355 
L 303.86434 293.963487 
L 305.49577 293.503224 
L 307.1272 293.804909 
L 308.75863 293.292881 
L 310.390059 294.145414 
L 312.021489 293.547304 
L 313.652919 292.731742 
L 315.284349 294.171516 
L 316.915779 290.864441 
L 318.547209 290.942668 
L 320.178639 290.814218 
L 321.810069 293.616355 
L 323.441498 292.643945 
L 325.072928 294.150946 
L 326.704358 293.051782 
L 328.335788 293.383107 
L 329.967218 293.011037 
L 331.598648 292.732841 
L 333.230078 293.107124 
L 334.861508 294.322703 
L 336.492937 292.465416 
L 338.124367 292.840639 
L 339.755797 294.017395 
L 341.387227 293.714444 
L 343.018657 293.312458 
L 344.650087 293.532521 
L 346.281517 291.369675 
L 347.912947 293.681512 
L 349.544376 293.390052 
L 351.175806 292.500514 
L 352.807236 293.668754 
L 354.438666 293.85961 
L 356.070096 293.634105 
L 357.701526 293.568556 
L 359.332956 291.689723 
L 360.964386 293.008763 
L 362.595815 293.172724 
L 364.227245 290.914 
L 365.858675 293.331952 
L 367.490105 294.050119 
L 369.121535 292.550341 
L 370.752965 291.746033 
L 372.384395 290.035721 
L 374.015825 293.469521 
L 375.647254 293.500404 
L 377.278684 294.160528 
L 378.910114 293.875254 
L 380.541544 293.645851 
L 382.172974 294.297658 
L 383.804404 293.817065 
L 385.435834 294.569068 
L 387.067264 294.000898 
L 388.698693 293.188774 
L 390.330123 294.377086 
L 391.961553 294.458417 
L 393.592983 294.197522 
L 395.224413 293.699825 
L 396.855843 293.73367 
L 398.487273 290.08998 
L 398.487273 268.726865 
L 398.487273 268.726865 
L 396.855843 275.506645 
L 395.224413 284.973789 
L 393.592983 281.524452 
L 391.961553 271.798517 
L 390.330123 284.774116 
L 388.698693 283.016276 
L 387.067264 278.587303 
L 385.435834 281.681673 
L 383.804404 285.103153 
L 382.172974 278.525601 
L 380.541544 274.438035 
L 378.910114 275.776406 
L 377.278684 283.0148 
L 375.647254 278.156579 
L 374.015825 279.336818 
L 372.384395 279.351372 
L 370.752965 285.17244 
L 369.121535 281.943485 
L 367.490105 281.967757 
L 365.858675 281.141308 
L 364.227245 274.659355 
L 362.595815 283.676679 
L 360.964386 279.330463 
L 359.332956 274.809514 
L 357.701526 285.793423 
L 356.070096 282.07923 
L 354.438666 274.12235 
L 352.807236 276.149442 
L 351.175806 277.411647 
L 349.544376 277.872845 
L 347.912947 273.132877 
L 346.281517 280.75921 
L 344.650087 278.496857 
L 343.018657 279.839618 
L 341.387227 268.5195 
L 339.755797 262.8227 
L 338.124367 274.583362 
L 336.492937 282.757927 
L 334.861508 280.46922 
L 333.230078 277.819744 
L 331.598648 279.219 
L 329.967218 271.379346 
L 328.335788 275.190679 
L 326.704358 275.437958 
L 325.072928 278.522527 
L 323.441498 281.219026 
L 321.810069 278.718502 
L 320.178639 276.472951 
L 318.547209 272.410772 
L 316.915779 275.949149 
L 315.284349 274.769611 
L 313.652919 278.827686 
L 312.021489 288.504174 
L 310.390059 282.203547 
L 308.75863 285.172158 
L 307.1272 273.982758 
L 305.49577 275.42933 
L 303.86434 266.756507 
L 302.23291 276.558304 
L 300.60148 280.821032 
L 298.97005 272.74281 
L 297.33862 269.026628 
L 295.70719 281.114992 
L 294.075761 284.151168 
L 292.444331 269.289824 
L 290.812901 278.554168 
L 289.181471 285.758107 
L 287.550041 281.853277 
L 285.918611 288.795132 
L 284.287181 281.461441 
L 282.655751 275.904709 
L 281.024322 282.599928 
L 279.392892 278.584187 
L 277.761462 285.787768 
L 276.130032 277.443201 
L 274.498602 266.817554 
L 272.867172 282.513682 
L 271.235742 266.269401 
L 269.604312 264.381416 
L 267.972883 279.218757 
L 266.341453 278.884221 
L 264.710023 276.368499 
L 263.078593 277.453173 
L 261.447163 263.890768 
L 259.815733 279.639781 
L 258.184303 269.187499 
L 256.552873 262.821882 
L 254.921444 269.193649 
L 253.290014 272.061428 
L 251.658584 277.6167 
L 250.027154 276.760352 
L 248.395724 285.009388 
L 246.764294 270.794633 
L 245.132864 284.064014 
L 243.501434 283.986005 
L 241.870005 272.872855 
L 240.238575 275.667291 
L 238.607145 283.115966 
L 236.975715 276.907147 
L 235.344285 283.290911 
L 233.712855 273.855797 
L 232.081425 279.556688 
L 230.449995 265.562295 
L 228.818566 265.045836 
L 227.187136 261.934391 
L 225.555706 275.408623 
L 223.924276 264.764405 
L 222.292846 264.10844 
L 220.661416 284.695951 
L 219.029986 275.86319 
L 217.398556 281.291593 
L 215.767127 277.780591 
L 214.135697 277.89369 
L 212.504267 287.988117 
L 210.872837 288.103404 
L 209.241407 288.135341 
L 207.609977 287.598048 
L 205.978547 287.66525 
L 204.347117 287.598048 
L 202.715688 287.598048 
L 201.084258 287.598048 
L 199.452828 288.54179 
L 197.821398 287.598048 
L 196.189968 287.598048 
L 194.558538 288.305854 
L 192.927108 287.598048 
L 191.295678 287.598048 
L 189.664249 287.598048 
L 188.032819 287.598048 
L 186.401389 287.598048 
L 184.769959 287.598048 
L 183.138529 287.598048 
L 181.507099 287.598048 
L 179.875669 287.598048 
L 178.244239 287.598048 
L 176.61281 287.598048 
L 174.98138 287.598048 
L 173.34995 287.598048 
L 171.71852 288.54179 
L 170.08709 287.598048 
L 168.45566 287.598048 
L 166.82423 288.54179 
L 165.1928 287.598048 
L 163.56137 287.598048 
L 161.929941 287.598048 
L 160.298511 287.598048 
L 158.667081 287.598048 
L 157.035651 287.598048 
L 155.404221 287.598048 
L 153.772791 287.598048 
L 152.141361 287.598048 
L 150.509931 287.598048 
L 148.878502 287.598048 
L 147.247072 287.598048 
L 145.615642 287.598048 
L 143.984212 287.598048 
L 142.352782 287.598048 
L 140.721352 287.598048 
L 139.089922 287.598048 
L 137.458492 287.598048 
L 135.827063 287.598048 
L 134.195633 287.598048 
L 132.564203 287.598048 
L 130.932773 287.598048 
L 129.301343 287.598048 
L 127.669913 287.598048 
L 126.038483 287.598048 
L 124.407053 287.598048 
L 122.775624 287.598048 
L 121.144194 287.598048 
L 119.512764 287.598048 
L 117.881334 287.598048 
L 116.249904 287.598048 
L 114.618474 287.598048 
L 112.987044 287.598048 
L 111.355614 287.598048 
L 109.724185 287.598048 
L 108.092755 287.598048 
L 106.461325 287.598048 
L 104.829895 287.598048 
L 103.198465 287.598048 
L 101.567035 287.598048 
L 99.935605 287.598048 
L 98.304175 287.598048 
L 96.672746 287.598048 
L 95.041316 287.598048 
L 93.409886 287.598048 
L 91.778456 287.598048 
L 90.147026 287.598048 
L 88.515596 287.598048 
L 86.884166 287.598048 
L 85.252736 287.598048 
L 83.621307 287.598048 
L 81.989877 287.598048 
L 80.358447 287.598048 
L 78.727017 287.598048 
L 77.095587 287.598048 
L 75.464157 287.598048 
L 73.832727 287.598048 
z
" style="fill:#1f77b4;fill-opacity:0.2;"/>
   </g>
   <g id="PolyCollection_2">
    <path clip-path="url(#pad23a36e47)" d="M 73.832727 287.598048 
L 73.832727 288.845555 
L 75.464157 288.845555 
L 77.095587 288.845555 
L 78.727017 288.845555 
L 80.358447 288.845555 
L 81.989877 288.845555 
L 83.621307 288.845555 
L 85.252736 288.845555 
L 86.884166 288.845555 
L 88.515596 288.845555 
L 90.147026 288.845555 
L 91.778456 288.845555 
L 93.409886 288.845555 
L 95.041316 288.845555 
L 96.672746 288.845555 
L 98.304175 288.845555 
L 99.935605 288.845555 
L 101.567035 288.845555 
L 103.198465 288.845555 
L 104.829895 288.845555 
L 106.461325 288.845555 
L 108.092755 288.845555 
L 109.724185 288.845555 
L 111.355614 288.845555 
L 112.987044 288.845555 
L 114.618474 288.845555 
L 116.249904 288.845555 
L 117.881334 288.845555 
L 119.512764 288.845555 
L 121.144194 288.845555 
L 122.775624 288.845555 
L 124.407053 288.845555 
L 126.038483 288.845555 
L 127.669913 288.845555 
L 129.301343 288.845555 
L 130.932773 288.845555 
L 132.564203 288.845555 
L 134.195633 288.845555 
L 135.827063 288.845555 
L 137.458492 288.845555 
L 139.089922 288.845555 
L 140.721352 288.845555 
L 142.352782 288.845555 
L 143.984212 288.845555 
L 145.615642 288.845555 
L 147.247072 288.845555 
L 148.878502 288.845555 
L 150.509931 288.845555 
L 152.141361 288.845555 
L 153.772791 288.845555 
L 155.404221 288.845555 
L 157.035651 288.845555 
L 158.667081 288.845555 
L 160.298511 288.845555 
L 161.929941 288.845555 
L 163.56137 288.845555 
L 165.1928 288.845555 
L 166.82423 288.845555 
L 168.45566 288.845555 
L 170.08709 288.845555 
L 171.71852 288.845555 
L 173.34995 288.845555 
L 174.98138 288.845555 
L 176.61281 288.845555 
L 178.244239 288.845555 
L 179.875669 288.845555 
L 181.507099 288.845555 
L 183.138529 288.845555 
L 184.769959 288.845555 
L 186.401389 288.845555 
L 188.032819 288.845555 
L 189.664249 288.845555 
L 191.295678 288.845555 
L 192.927108 288.845555 
L 194.558538 288.845555 
L 196.189968 288.845555 
L 197.821398 288.845555 
L 199.452828 288.845555 
L 201.084258 288.845555 
L 202.715688 288.845555 
L 204.347117 288.845555 
L 205.978547 288.845555 
L 207.609977 288.976396 
L 209.241407 289.347742 
L 210.872837 289.337186 
L 212.504267 289.443217 
L 214.135697 289.442837 
L 215.767127 290.125958 
L 217.398556 290.92743 
L 219.029986 293.68191 
L 220.661416 293.686948 
L 222.292846 294.581565 
L 223.924276 294.429228 
L 225.555706 294.357407 
L 227.187136 294.603972 
L 228.818566 294.048094 
L 230.449995 294.588493 
L 232.081425 294.01853 
L 233.712855 294.323796 
L 235.344285 294.021651 
L 236.975715 293.992611 
L 238.607145 293.941233 
L 240.238575 294.094082 
L 241.870005 293.929439 
L 243.501434 293.86012 
L 245.132864 293.958626 
L 246.764294 294.404276 
L 248.395724 293.820874 
L 250.027154 293.900031 
L 251.658584 293.772631 
L 253.290014 293.927472 
L 254.921444 294.667613 
L 256.552873 294.849878 
L 258.184303 294.072155 
L 259.815733 294.014385 
L 261.447163 294.43484 
L 263.078593 294.025202 
L 264.710023 293.963961 
L 266.341453 293.888569 
L 267.972883 293.853569 
L 269.604312 293.814258 
L 271.235742 294.715948 
L 272.867172 293.831252 
L 274.498602 294.487905 
L 276.130032 294.228232 
L 277.761462 293.932034 
L 279.392892 293.989149 
L 281.024322 293.893226 
L 282.655751 293.887687 
L 284.287181 293.847707 
L 285.918611 293.791743 
L 287.550041 294.112188 
L 289.181471 293.796551 
L 290.812901 293.789393 
L 292.444331 294.845372 
L 294.075761 293.811025 
L 295.70719 293.753885 
L 297.33862 294.028418 
L 298.97005 294.160009 
L 300.60148 294.019479 
L 302.23291 294.202449 
L 303.86434 294.642607 
L 305.49577 293.953633 
L 307.1272 294.209104 
L 308.75863 294.188689 
L 310.390059 294.683041 
L 312.021489 294.116266 
L 313.652919 294.064325 
L 315.284349 294.569738 
L 316.915779 294.733822 
L 318.547209 294.239383 
L 320.178639 294.866504 
L 321.810069 294.169071 
L 323.441498 294.755256 
L 325.072928 294.903703 
L 326.704358 294.35667 
L 328.335788 294.338138 
L 329.967218 294.285326 
L 331.598648 294.228909 
L 333.230078 294.209584 
L 334.861508 295.472494 
L 336.492937 294.581904 
L 338.124367 294.82168 
L 339.755797 294.608912 
L 341.387227 294.862696 
L 343.018657 294.572452 
L 344.650087 294.557261 
L 346.281517 294.489779 
L 347.912947 295.202312 
L 349.544376 294.611293 
L 351.175806 294.546417 
L 352.807236 294.534706 
L 354.438666 294.507976 
L 356.070096 295.422092 
L 357.701526 294.700011 
L 359.332956 295.324127 
L 360.964386 295.140285 
L 362.595815 294.61977 
L 364.227245 295.294933 
L 365.858675 294.717084 
L 367.490105 294.963232 
L 369.121535 294.544827 
L 370.752965 294.452117 
L 372.384395 294.61209 
L 374.015825 294.573155 
L 375.647254 295.333585 
L 377.278684 295.305301 
L 378.910114 294.990678 
L 380.541544 294.974201 
L 382.172974 294.981436 
L 383.804404 295.155937 
L 385.435834 295.322875 
L 387.067264 294.654071 
L 388.698693 294.806122 
L 390.330123 294.928171 
L 391.961553 295.452709 
L 393.592983 295.24363 
L 395.224413 294.833142 
L 396.855843 295.481931 
L 398.487273 295.488 
L 398.487273 53.696753 
L 398.487273 53.696753 
L 396.855843 53.568 
L 395.224413 176.404623 
L 393.592983 154.934073 
L 391.961553 99.466989 
L 390.330123 231.090811 
L 388.698693 186.435918 
L 387.067264 141.440119 
L 385.435834 115.087844 
L 383.804404 181.172418 
L 382.172974 183.698518 
L 380.541544 130.445013 
L 378.910114 101.221818 
L 377.278684 164.915097 
L 375.647254 146.509814 
L 374.015825 147.172817 
L 372.384395 171.732274 
L 370.752965 202.69133 
L 369.121535 192.595302 
L 367.490105 154.456056 
L 365.858675 193.98899 
L 364.227245 96.155631 
L 362.595815 211.534519 
L 360.964386 163.826316 
L 359.332956 55.134215 
L 357.701526 202.748474 
L 356.070096 59.936869 
L 354.438666 106.933699 
L 352.807236 112.537111 
L 351.175806 151.049713 
L 349.544376 173.631093 
L 347.912947 98.10098 
L 346.281517 217.221914 
L 344.650087 138.042198 
L 343.018657 187.250195 
L 341.387227 99.275434 
L 339.755797 117.945076 
L 338.124367 118.141292 
L 336.492937 189.425216 
L 334.861508 118.085638 
L 333.230078 223.902827 
L 331.598648 146.921305 
L 329.967218 180.483614 
L 328.335788 163.071378 
L 326.704358 180.651685 
L 325.072928 101.335784 
L 323.441498 69.304931 
L 321.810069 150.802254 
L 320.178639 122.348271 
L 318.547209 152.108633 
L 316.915779 142.016528 
L 315.284349 100.364257 
L 313.652919 169.327245 
L 312.021489 198.504426 
L 310.390059 168.305084 
L 308.75863 138.96146 
L 307.1272 105.170835 
L 305.49577 159.888032 
L 303.86434 112.686233 
L 302.23291 122.330571 
L 300.60148 155.878382 
L 298.97005 75.825178 
L 297.33862 137.668977 
L 295.70719 195.767965 
L 294.075761 189.092238 
L 292.444331 96.798759 
L 290.812901 148.037434 
L 289.181471 202.266481 
L 287.550041 154.137246 
L 285.918611 231.559007 
L 284.287181 178.940031 
L 282.655751 160.345406 
L 281.024322 188.774675 
L 279.392892 145.247045 
L 277.761462 208.673379 
L 276.130032 159.427626 
L 274.498602 117.479269 
L 272.867172 105.756746 
L 271.235742 94.438959 
L 269.604312 155.029761 
L 267.972883 197.349979 
L 266.341453 237.998876 
L 264.710023 189.37116 
L 263.078593 141.529965 
L 261.447163 132.935107 
L 259.815733 195.080747 
L 258.184303 159.057359 
L 256.552873 111.720935 
L 254.921444 68.066066 
L 253.290014 164.503584 
L 251.658584 193.352055 
L 250.027154 136.7525 
L 248.395724 203.605009 
L 246.764294 95.339089 
L 245.132864 179.010323 
L 243.501434 200.2165 
L 241.870005 163.5388 
L 240.238575 145.690419 
L 238.607145 224.189261 
L 236.975715 179.690985 
L 235.344285 217.89747 
L 233.712855 91.253639 
L 232.081425 190.162743 
L 230.449995 119.174607 
L 228.818566 131.278434 
L 227.187136 119.257637 
L 225.555706 72.500467 
L 223.924276 121.963033 
L 222.292846 169.043541 
L 220.661416 236.867054 
L 219.029986 176.468091 
L 217.398556 169.234863 
L 215.767127 138.102611 
L 214.135697 133.711971 
L 212.504267 181.72915 
L 210.872837 200.391294 
L 209.241407 270.292468 
L 207.609977 280.78671 
L 205.978547 217.910179 
L 204.347117 181.87251 
L 202.715688 214.967571 
L 201.084258 98.382627 
L 199.452828 134.185271 
L 197.821398 287.598048 
L 196.189968 287.598048 
L 194.558538 287.598048 
L 192.927108 287.598048 
L 191.295678 287.598048 
L 189.664249 287.598048 
L 188.032819 287.598048 
L 186.401389 287.598048 
L 184.769959 287.598048 
L 183.138529 287.598048 
L 181.507099 287.598048 
L 179.875669 287.598048 
L 178.244239 287.598048 
L 176.61281 287.598048 
L 174.98138 287.598048 
L 173.34995 287.598048 
L 171.71852 287.598048 
L 170.08709 287.598048 
L 168.45566 287.598048 
L 166.82423 287.598048 
L 165.1928 287.598048 
L 163.56137 287.598048 
L 161.929941 287.598048 
L 160.298511 287.598048 
L 158.667081 287.598048 
L 157.035651 287.598048 
L 155.404221 287.598048 
L 153.772791 287.598048 
L 152.141361 287.598048 
L 150.509931 287.598048 
L 148.878502 287.598048 
L 147.247072 287.598048 
L 145.615642 287.598048 
L 143.984212 287.598048 
L 142.352782 287.598048 
L 140.721352 287.598048 
L 139.089922 287.598048 
L 137.458492 287.598048 
L 135.827063 287.598048 
L 134.195633 287.598048 
L 132.564203 287.598048 
L 130.932773 287.598048 
L 129.301343 287.598048 
L 127.669913 287.598048 
L 126.038483 287.598048 
L 124.407053 287.598048 
L 122.775624 287.598048 
L 121.144194 287.598048 
L 119.512764 287.598048 
L 117.881334 287.598048 
L 116.249904 287.598048 
L 114.618474 287.598048 
L 112.987044 287.598048 
L 111.355614 287.598048 
L 109.724185 287.598048 
L 108.092755 287.598048 
L 106.461325 287.598048 
L 104.829895 287.598048 
L 103.198465 287.598048 
L 101.567035 287.598048 
L 99.935605 287.598048 
L 98.304175 287.598048 
L 96.672746 287.598048 
L 95.041316 287.598048 
L 93.409886 287.598048 
L 91.778456 287.598048 
L 90.147026 287.598048 
L 88.515596 287.598048 
L 86.884166 287.598048 
L 85.252736 287.598048 
L 83.621307 287.598048 
L 81.989877 287.598048 
L 80.358447 287.598048 
L 78.727017 287.598048 
L 77.095587 287.598048 
L 75.464157 287.598048 
L 73.832727 287.598048 
z
" style="fill:#1f77b4;fill-opacity:0.1;"/>
   </g>
   <g id="matplotlib.axis_1">
    <g id="xtick_1">
     <g id="line2d_1">
      <defs>
       <path d="M 0 0 
L 0 3.5 
" id="m576d8f3d88" style="stroke:#000000;stroke-width:0.8;"/>
      </defs>
      <g>
       <use style="stroke:#000000;stroke-width:0.8;" x="73.832727" xlink:href="#m576d8f3d88" y="307.584"/>
      </g>
     </g>
     <g id="text_1">
      <!-- 0 -->
      <defs>
       <path d="M 31.78125 66.40625 
Q 24.171875 66.40625 20.328125 58.90625 
Q 16.5 51.421875 16.5 36.375 
Q 16.5 21.390625 20.328125 13.890625 
Q 24.171875 6.390625 31.78125 6.390625 
Q 39.453125 6.390625 43.28125 13.890625 
Q 47.125 21.390625 47.125 36.375 
Q 47.125 51.421875 43.28125 58.90625 
Q 39.453125 66.40625 31.78125 66.40625 
z
M 31.78125 74.21875 
Q 44.046875 74.21875 50.515625 64.515625 
Q 56.984375 54.828125 56.984375 36.375 
Q 56.984375 17.96875 50.515625 8.265625 
Q 44.046875 -1.421875 31.78125 -1.421875 
Q 19.53125 -1.421875 13.0625 8.265625 
Q 6.59375 17.96875 6.59375 36.375 
Q 6.59375 54.828125 13.0625 64.515625 
Q 19.53125 74.21875 31.78125 74.21875 
z
" id="DejaVuSans-48"/>
      </defs>
      <g transform="translate(70.651477 322.182437)scale(0.1 -0.1)">
       <use xlink:href="#DejaVuSans-48"/>
      </g>
     </g>
    </g>
    <g id="xtick_2">
     <g id="line2d_2">
      <g>
       <use style="stroke:#000000;stroke-width:0.8;" x="114.618474" xlink:href="#m576d8f3d88" y="307.584"/>
      </g>
     </g>
     <g id="text_2">
      <!-- 25 -->
      <defs>
       <path d="M 19.1875 8.296875 
L 53.609375 8.296875 
L 53.609375 0 
L 7.328125 0 
L 7.328125 8.296875 
Q 12.9375 14.109375 22.625 23.890625 
Q 32.328125 33.6875 34.8125 36.53125 
Q 39.546875 41.84375 41.421875 45.53125 
Q 43.3125 49.21875 43.3125 52.78125 
Q 43.3125 58.59375 39.234375 62.25 
Q 35.15625 65.921875 28.609375 65.921875 
Q 23.96875 65.921875 18.8125 64.3125 
Q 13.671875 62.703125 7.8125 59.421875 
L 7.8125 69.390625 
Q 13.765625 71.78125 18.9375 73 
Q 24.125 74.21875 28.421875 74.21875 
Q 39.75 74.21875 46.484375 68.546875 
Q 53.21875 62.890625 53.21875 53.421875 
Q 53.21875 48.921875 51.53125 44.890625 
Q 49.859375 40.875 45.40625 35.40625 
Q 44.1875 33.984375 37.640625 27.21875 
Q 31.109375 20.453125 19.1875 8.296875 
z
" id="DejaVuSans-50"/>
       <path d="M 10.796875 72.90625 
L 49.515625 72.90625 
L 49.515625 64.59375 
L 19.828125 64.59375 
L 19.828125 46.734375 
Q 21.96875 47.46875 24.109375 47.828125 
Q 26.265625 48.1875 28.421875 48.1875 
Q 40.625 48.1875 47.75 41.5 
Q 54.890625 34.8125 54.890625 23.390625 
Q 54.890625 11.625 47.5625 5.09375 
Q 40.234375 -1.421875 26.90625 -1.421875 
Q 22.3125 -1.421875 17.546875 -0.640625 
Q 12.796875 0.140625 7.71875 1.703125 
L 7.71875 11.625 
Q 12.109375 9.234375 16.796875 8.0625 
Q 21.484375 6.890625 26.703125 6.890625 
Q 35.15625 6.890625 40.078125 11.328125 
Q 45.015625 15.765625 45.015625 23.390625 
Q 45.015625 31 40.078125 35.4375 
Q 35.15625 39.890625 26.703125 39.890625 
Q 22.75 39.890625 18.8125 39.015625 
Q 14.890625 38.140625 10.796875 36.28125 
z
" id="DejaVuSans-53"/>
      </defs>
      <g transform="translate(108.255974 322.182437)scale(0.1 -0.1)">
       <use xlink:href="#DejaVuSans-50"/>
       <use x="63.623047" xlink:href="#DejaVuSans-53"/>
      </g>
     </g>
    </g>
    <g id="xtick_3">
     <g id="line2d_3">
      <g>
       <use style="stroke:#000000;stroke-width:0.8;" x="155.404221" xlink:href="#m576d8f3d88" y="307.584"/>
      </g>
     </g>
     <g id="text_3">
      <!-- 50 -->
      <g transform="translate(149.041721 322.182437)scale(0.1 -0.1)">
       <use xlink:href="#DejaVuSans-53"/>
       <use x="63.623047" xlink:href="#DejaVuSans-48"/>
      </g>
     </g>
    </g>
    <g id="xtick_4">
     <g id="line2d_4">
      <g>
       <use style="stroke:#000000;stroke-width:0.8;" x="196.189968" xlink:href="#m576d8f3d88" y="307.584"/>
      </g>
     </g>
     <g id="text_4">
      <!-- 75 -->
      <defs>
       <path d="M 8.203125 72.90625 
L 55.078125 72.90625 
L 55.078125 68.703125 
L 28.609375 0 
L 18.3125 0 
L 43.21875 64.59375 
L 8.203125 64.59375 
z
" id="DejaVuSans-55"/>
      </defs>
      <g transform="translate(189.827468 322.182437)scale(0.1 -0.1)">
       <use xlink:href="#DejaVuSans-55"/>
       <use x="63.623047" xlink:href="#DejaVuSans-53"/>
      </g>
     </g>
    </g>
    <g id="xtick_5">
     <g id="line2d_5">
      <g>
       <use style="stroke:#000000;stroke-width:0.8;" x="236.975715" xlink:href="#m576d8f3d88" y="307.584"/>
      </g>
     </g>
     <g id="text_5">
      <!-- 100 -->
      <defs>
       <path d="M 12.40625 8.296875 
L 28.515625 8.296875 
L 28.515625 63.921875 
L 10.984375 60.40625 
L 10.984375 69.390625 
L 28.421875 72.90625 
L 38.28125 72.90625 
L 38.28125 8.296875 
L 54.390625 8.296875 
L 54.390625 0 
L 12.40625 0 
z
" id="DejaVuSans-49"/>
      </defs>
      <g transform="translate(227.431965 322.182437)scale(0.1 -0.1)">
       <use xlink:href="#DejaVuSans-49"/>
       <use x="63.623047" xlink:href="#DejaVuSans-48"/>
       <use x="127.246094" xlink:href="#DejaVuSans-48"/>
      </g>
     </g>
    </g>
    <g id="xtick_6">
     <g id="line2d_6">
      <g>
       <use style="stroke:#000000;stroke-width:0.8;" x="277.761462" xlink:href="#m576d8f3d88" y="307.584"/>
      </g>
     </g>
     <g id="text_6">
      <!-- 125 -->
      <g transform="translate(268.217712 322.182437)scale(0.1 -0.1)">
       <use xlink:href="#DejaVuSans-49"/>
       <use x="63.623047" xlink:href="#DejaVuSans-50"/>
       <use x="127.246094" xlink:href="#DejaVuSans-53"/>
      </g>
     </g>
    </g>
    <g id="xtick_7">
     <g id="line2d_7">
      <g>
       <use style="stroke:#000000;stroke-width:0.8;" x="318.547209" xlink:href="#m576d8f3d88" y="307.584"/>
      </g>
     </g>
     <g id="text_7">
      <!-- 150 -->
      <g transform="translate(309.003459 322.182437)scale(0.1 -0.1)">
       <use xlink:href="#DejaVuSans-49"/>
       <use x="63.623047" xlink:href="#DejaVuSans-53"/>
       <use x="127.246094" xlink:href="#DejaVuSans-48"/>
      </g>
     </g>
    </g>
    <g id="xtick_8">
     <g id="line2d_8">
      <g>
       <use style="stroke:#000000;stroke-width:0.8;" x="359.332956" xlink:href="#m576d8f3d88" y="307.584"/>
      </g>
     </g>
     <g id="text_8">
      <!-- 175 -->
      <g transform="translate(349.789206 322.182437)scale(0.1 -0.1)">
       <use xlink:href="#DejaVuSans-49"/>
       <use x="63.623047" xlink:href="#DejaVuSans-55"/>
       <use x="127.246094" xlink:href="#DejaVuSans-53"/>
      </g>
     </g>
    </g>
    <g id="xtick_9">
     <g id="line2d_9">
      <g>
       <use style="stroke:#000000;stroke-width:0.8;" x="400.118703" xlink:href="#m576d8f3d88" y="307.584"/>
      </g>
     </g>
     <g id="text_9">
      <!-- 200 -->
      <g transform="translate(390.574953 322.182437)scale(0.1 -0.1)">
       <use xlink:href="#DejaVuSans-50"/>
       <use x="63.623047" xlink:href="#DejaVuSans-48"/>
       <use x="127.246094" xlink:href="#DejaVuSans-48"/>
      </g>
     </g>
    </g>
   </g>
   <g id="matplotlib.axis_2">
    <g id="ytick_1">
     <g id="line2d_10">
      <defs>
       <path d="M 0 0 
L -3.5 0 
" id="m6078091130" style="stroke:#000000;stroke-width:0.8;"/>
      </defs>
      <g>
       <use style="stroke:#000000;stroke-width:0.8;" x="57.6" xlink:href="#m6078091130" y="300.314482"/>
      </g>
     </g>
     <g id="text_10">
      <!-- 0 -->
      <g transform="translate(44.2375 304.113701)scale(0.1 -0.1)">
       <use xlink:href="#DejaVuSans-48"/>
      </g>
     </g>
    </g>
    <g id="ytick_2">
     <g id="line2d_11">
      <g>
       <use style="stroke:#000000;stroke-width:0.8;" x="57.6" xlink:href="#m6078091130" y="248.117147"/>
      </g>
     </g>
     <g id="text_11">
      <!-- 5 -->
      <g transform="translate(44.2375 251.916365)scale(0.1 -0.1)">
       <use xlink:href="#DejaVuSans-53"/>
      </g>
     </g>
    </g>
    <g id="ytick_3">
     <g id="line2d_12">
      <g>
       <use style="stroke:#000000;stroke-width:0.8;" x="57.6" xlink:href="#m6078091130" y="195.919811"/>
      </g>
     </g>
     <g id="text_12">
      <!-- 10 -->
      <g transform="translate(37.875 199.71903)scale(0.1 -0.1)">
       <use xlink:href="#DejaVuSans-49"/>
       <use x="63.623047" xlink:href="#DejaVuSans-48"/>
      </g>
     </g>
    </g>
    <g id="ytick_4">
     <g id="line2d_13">
      <g>
       <use style="stroke:#000000;stroke-width:0.8;" x="57.6" xlink:href="#m6078091130" y="143.722476"/>
      </g>
     </g>
     <g id="text_13">
      <!-- 15 -->
      <g transform="translate(37.875 147.521695)scale(0.1 -0.1)">
       <use xlink:href="#DejaVuSans-49"/>
       <use x="63.623047" xlink:href="#DejaVuSans-53"/>
      </g>
     </g>
    </g>
    <g id="ytick_5">
     <g id="line2d_14">
      <g>
       <use style="stroke:#000000;stroke-width:0.8;" x="57.6" xlink:href="#m6078091130" y="91.52514"/>
      </g>
     </g>
     <g id="text_14">
      <!-- 20 -->
      <g transform="translate(37.875 95.324359)scale(0.1 -0.1)">
       <use xlink:href="#DejaVuSans-50"/>
       <use x="63.623047" xlink:href="#DejaVuSans-48"/>
      </g>
     </g>
    </g>
   </g>
   <g id="line2d_15">
    <path clip-path="url(#pad23a36e47)" d="M 73.832727 288.54179 
L 75.464157 288.845555 
L 78.727017 288.845555 
L 80.358447 288.54179 
L 81.989877 288.845555 
L 90.147026 288.845555 
L 91.778456 288.54179 
L 93.409886 288.845555 
L 99.935605 288.845555 
L 101.567035 288.54179 
L 103.198465 288.845555 
L 109.724185 288.845555 
L 111.355614 288.54179 
L 112.987044 288.845555 
L 119.512764 288.845555 
L 121.144194 288.693672 
L 122.775624 288.845555 
L 130.932773 288.845555 
L 132.564203 288.54179 
L 134.195633 288.54179 
L 135.827063 288.845555 
L 137.458492 288.845555 
L 139.089922 288.54179 
L 140.721352 288.845555 
L 142.352782 288.845555 
L 143.984212 288.54179 
L 147.247072 288.845555 
L 148.878502 288.54179 
L 150.509931 288.54179 
L 152.141361 288.845555 
L 161.929941 288.845555 
L 163.56137 288.693672 
L 165.1928 288.845555 
L 173.34995 288.845555 
L 174.98138 288.54179 
L 178.244239 288.54179 
L 179.875669 288.845555 
L 181.507099 288.54179 
L 183.138529 288.845555 
L 188.032819 288.845555 
L 189.664249 288.54179 
L 191.295678 288.845555 
L 192.927108 288.54179 
L 194.558538 288.845555 
L 199.452828 288.845555 
L 201.084258 288.54179 
L 202.715688 288.845555 
L 204.347117 288.845555 
L 205.978547 288.277232 
L 207.609977 288.544507 
L 209.241407 288.479165 
L 210.872837 288.543441 
L 212.504267 288.944768 
L 214.135697 288.580245 
L 215.767127 287.426656 
L 217.398556 288.236876 
L 219.029986 283.267293 
L 220.661416 288.876963 
L 222.292846 277.244959 
L 223.924276 277.972081 
L 225.555706 283.526102 
L 227.187136 276.826897 
L 228.818566 279.715362 
L 230.449995 288.04551 
L 232.081425 289.1343 
L 233.712855 289.174628 
L 235.344285 288.263589 
L 236.975715 284.516944 
L 238.607145 289.430599 
L 240.238575 288.569309 
L 241.870005 283.117259 
L 243.501434 288.788277 
L 245.132864 289.926634 
L 246.764294 288.304286 
L 248.395724 289.657975 
L 250.027154 284.740651 
L 251.658584 284.582736 
L 253.290014 283.397775 
L 254.921444 278.704298 
L 256.552873 287.745329 
L 258.184303 281.916571 
L 259.815733 288.061861 
L 261.447163 279.202045 
L 263.078593 288.938717 
L 264.710023 288.840976 
L 266.341453 284.978683 
L 267.972883 286.708528 
L 269.604312 287.581519 
L 271.235742 289.615283 
L 272.867172 291.16678 
L 274.498602 288.180155 
L 276.130032 293.398615 
L 277.761462 291.748511 
L 279.392892 290.733198 
L 281.024322 292.320155 
L 282.655751 290.17527 
L 284.287181 291.168695 
L 285.918611 291.956218 
L 287.550041 293.264372 
L 289.181471 292.141153 
L 290.812901 290.879163 
L 292.444331 290.663306 
L 294.075761 291.111503 
L 295.70719 290.974684 
L 297.33862 289.876448 
L 298.97005 289.051061 
L 300.60148 291.494081 
L 302.23291 293.477407 
L 303.86434 290.57838 
L 305.49577 290.054964 
L 307.1272 289.656159 
L 308.75863 291.664943 
L 310.390059 290.980362 
L 312.021489 292.217856 
L 313.652919 289.991983 
L 315.284349 290.785511 
L 316.915779 289.439861 
L 318.547209 288.820873 
L 320.178639 288.4876 
L 321.810069 290.416251 
L 323.441498 290.202893 
L 325.072928 289.226351 
L 326.704358 289.169905 
L 328.335788 288.589016 
L 329.967218 284.844167 
L 331.598648 288.188518 
L 333.230078 289.4745 
L 334.861508 291.037106 
L 336.492937 289.72031 
L 338.124367 289.807759 
L 339.755797 288.228559 
L 341.387227 287.802978 
L 343.018657 290.448888 
L 344.650087 290.003073 
L 346.281517 288.127072 
L 347.912947 285.534137 
L 349.544376 284.924134 
L 351.175806 285.735161 
L 352.807236 287.047714 
L 354.438666 280.861937 
L 356.070096 289.099716 
L 357.701526 291.090009 
L 359.332956 279.983063 
L 360.964386 284.474507 
L 362.595815 286.821955 
L 364.227245 281.201481 
L 365.858675 290.314994 
L 367.490105 289.473359 
L 369.121535 288.814922 
L 370.752965 287.586062 
L 372.384395 284.850389 
L 374.015825 284.617494 
L 375.647254 285.283994 
L 377.278684 289.087541 
L 378.910114 284.585507 
L 380.541544 281.64593 
L 382.172974 287.571258 
L 383.804404 289.40576 
L 385.435834 290.357771 
L 387.067264 288.924995 
L 388.698693 289.465626 
L 390.330123 288.299776 
L 391.961553 280.613912 
L 393.592983 286.318982 
L 395.224413 289.656938 
L 396.855843 282.689929 
L 398.487273 274.520372 
L 398.487273 274.520372 
" style="fill:none;stroke:#1f77b4;stroke-linecap:square;stroke-width:0.25;"/>
   </g>
   <g id="line2d_16">
    <path clip-path="url(#pad23a36e47)" d="M 73.832727 288.342424 
L 78.727017 288.437565 
L 80.358447 288.29795 
L 81.989877 288.303376 
L 83.621307 288.447002 
L 88.515596 288.387664 
L 91.778456 288.395037 
L 132.564203 288.370087 
L 139.089922 288.291875 
L 142.352782 288.457413 
L 145.615642 288.3728 
L 163.56137 288.391675 
L 166.82423 288.53769 
L 168.45566 288.328651 
L 171.71852 288.488438 
L 174.98138 288.404475 
L 178.244239 288.3229 
L 179.875669 288.425738 
L 181.507099 288.300663 
L 183.138529 288.391351 
L 184.769959 288.341126 
L 186.401389 288.463164 
L 192.927108 288.369763 
L 194.558538 288.494189 
L 197.821398 288.422376 
L 199.452828 286.966412 
L 201.084258 283.802263 
L 202.715688 287.158013 
L 204.347117 286.625637 
L 205.978547 287.02882 
L 207.609977 288.259025 
L 210.872837 285.789783 
L 212.504267 283.109797 
L 214.135697 282.379203 
L 215.767127 279.12349 
L 217.398556 280.941229 
L 219.029986 276.961159 
L 220.661416 285.740349 
L 222.292846 266.551649 
L 223.924276 270.583542 
L 225.555706 275.391224 
L 227.187136 258.547701 
L 228.818566 268.192865 
L 230.449995 271.194058 
L 232.081425 280.940803 
L 233.712855 277.818848 
L 235.344285 283.919847 
L 236.975715 281.478767 
L 238.607145 284.050752 
L 240.238575 274.514542 
L 241.870005 274.719068 
L 243.501434 284.045919 
L 245.132864 284.527219 
L 246.764294 270.89765 
L 248.395724 286.560475 
L 250.027154 276.218156 
L 251.658584 276.994102 
L 253.290014 273.69271 
L 254.921444 264.648493 
L 256.552873 268.586951 
L 258.184303 273.028066 
L 259.815733 282.266603 
L 261.447163 264.771905 
L 263.078593 275.560875 
L 266.341453 281.346511 
L 267.972883 279.310245 
L 269.604312 268.064566 
L 271.235742 263.091625 
L 272.867172 278.421751 
L 274.498602 271.764978 
L 276.130032 277.2327 
L 277.761462 285.748046 
L 279.392892 276.262815 
L 281.024322 281.732156 
L 282.655751 276.69769 
L 284.287181 284.212073 
L 285.918611 288.331117 
L 287.550041 282.940833 
L 289.181471 285.532887 
L 290.812901 275.160955 
L 292.444331 271.89992 
L 294.075761 285.080051 
L 295.70719 280.652805 
L 297.33862 274.673866 
L 298.97005 274.081077 
L 300.60148 280.888692 
L 302.23291 277.89557 
L 303.86434 273.002634 
L 305.49577 277.123648 
L 307.1272 273.135843 
L 308.75863 285.48427 
L 310.390059 282.334715 
L 312.021489 286.75379 
L 313.652919 278.243369 
L 316.915779 276.628265 
L 318.547209 274.681473 
L 320.178639 272.459711 
L 321.810069 281.291497 
L 323.441498 275.846681 
L 325.072928 273.689037 
L 326.704358 276.515505 
L 328.335788 275.285324 
L 329.967218 273.310756 
L 331.598648 277.872274 
L 333.230078 281.846012 
L 334.861508 276.095894 
L 336.492937 282.389793 
L 338.124367 277.756874 
L 339.755797 265.054709 
L 341.387227 265.068891 
L 343.018657 283.304323 
L 344.650087 279.353753 
L 346.281517 283.8224 
L 347.912947 271.58139 
L 349.544376 276.618553 
L 351.175806 274.97877 
L 352.807236 271.813425 
L 354.438666 274.277589 
L 356.070096 274.518173 
L 357.701526 285.524834 
L 359.332956 271.936431 
L 360.964386 278.121918 
L 362.595815 282.999755 
L 364.227245 266.83741 
L 365.858675 281.060106 
L 367.490105 279.962384 
L 369.121535 280.768033 
L 370.752965 283.437395 
L 372.384395 280.334512 
L 374.015825 273.813395 
L 375.647254 274.752244 
L 377.278684 284.28975 
L 378.910114 273.919554 
L 380.541544 270.403566 
L 382.172974 281.004598 
L 383.804404 283.486859 
L 385.435834 277.797668 
L 387.067264 276.349723 
L 388.698693 282.558192 
L 390.330123 284.88573 
L 391.961553 270.183191 
L 393.592983 278.624416 
L 395.224413 284.468723 
L 396.855843 268.144724 
L 398.487273 256.749243 
L 398.487273 256.749243 
" style="fill:none;stroke:#2ca02c;stroke-linecap:square;stroke-width:0.75;"/>
   </g>
   <g id="patch_3">
    <path d="M 57.6 307.584 
L 57.6 41.472 
" style="fill:none;stroke:#000000;stroke-linecap:square;stroke-linejoin:miter;stroke-width:0.8;"/>
   </g>
   <g id="patch_4">
    <path d="M 414.72 307.584 
L 414.72 41.472 
" style="fill:none;stroke:#000000;stroke-linecap:square;stroke-linejoin:miter;stroke-width:0.8;"/>
   </g>
   <g id="patch_5">
    <path d="M 57.6 307.584 
L 414.72 307.584 
" style="fill:none;stroke:#000000;stroke-linecap:square;stroke-linejoin:miter;stroke-width:0.8;"/>
   </g>
   <g id="patch_6">
    <path d="M 57.6 41.472 
L 414.72 41.472 
" style="fill:none;stroke:#000000;stroke-linecap:square;stroke-linejoin:miter;stroke-width:0.8;"/>
   </g>
   <g id="legend_1">
    <g id="patch_7">
     <path d="M 338.234063 78.82825 
L 407.72 78.82825 
Q 409.72 78.82825 409.72 76.82825 
L 409.72 48.472 
Q 409.72 46.472 407.72 46.472 
L 338.234063 46.472 
Q 336.234063 46.472 336.234063 48.472 
L 336.234063 76.82825 
Q 336.234063 78.82825 338.234063 78.82825 
z
" style="fill:#ffffff;opacity:0.8;stroke:#cccccc;stroke-linejoin:miter;"/>
    </g>
    <g id="line2d_17">
     <path d="M 340.234063 54.570437 
L 360.234063 54.570437 
" style="fill:none;stroke:#1f77b4;stroke-linecap:square;stroke-width:0.25;"/>
    </g>
    <g id="line2d_18"/>
    <g id="text_15">
     <!-- median -->
     <defs>
      <path d="M 52 44.1875 
Q 55.375 50.25 60.0625 53.125 
Q 64.75 56 71.09375 56 
Q 79.640625 56 84.28125 50.015625 
Q 88.921875 44.046875 88.921875 33.015625 
L 88.921875 0 
L 79.890625 0 
L 79.890625 32.71875 
Q 79.890625 40.578125 77.09375 44.375 
Q 74.3125 48.1875 68.609375 48.1875 
Q 61.625 48.1875 57.5625 43.546875 
Q 53.515625 38.921875 53.515625 30.90625 
L 53.515625 0 
L 44.484375 0 
L 44.484375 32.71875 
Q 44.484375 40.625 41.703125 44.40625 
Q 38.921875 48.1875 33.109375 48.1875 
Q 26.21875 48.1875 22.15625 43.53125 
Q 18.109375 38.875 18.109375 30.90625 
L 18.109375 0 
L 9.078125 0 
L 9.078125 54.6875 
L 18.109375 54.6875 
L 18.109375 46.1875 
Q 21.1875 51.21875 25.484375 53.609375 
Q 29.78125 56 35.6875 56 
Q 41.65625 56 45.828125 52.96875 
Q 50 49.953125 52 44.1875 
z
" id="DejaVuSans-109"/>
      <path d="M 56.203125 29.59375 
L 56.203125 25.203125 
L 14.890625 25.203125 
Q 15.484375 15.921875 20.484375 11.0625 
Q 25.484375 6.203125 34.421875 6.203125 
Q 39.59375 6.203125 44.453125 7.46875 
Q 49.3125 8.734375 54.109375 11.28125 
L 54.109375 2.78125 
Q 49.265625 0.734375 44.1875 -0.34375 
Q 39.109375 -1.421875 33.890625 -1.421875 
Q 20.796875 -1.421875 13.15625 6.1875 
Q 5.515625 13.8125 5.515625 26.8125 
Q 5.515625 40.234375 12.765625 48.109375 
Q 20.015625 56 32.328125 56 
Q 43.359375 56 49.78125 48.890625 
Q 56.203125 41.796875 56.203125 29.59375 
z
M 47.21875 32.234375 
Q 47.125 39.59375 43.09375 43.984375 
Q 39.0625 48.390625 32.421875 48.390625 
Q 24.90625 48.390625 20.390625 44.140625 
Q 15.875 39.890625 15.1875 32.171875 
z
" id="DejaVuSans-101"/>
      <path d="M 45.40625 46.390625 
L 45.40625 75.984375 
L 54.390625 75.984375 
L 54.390625 0 
L 45.40625 0 
L 45.40625 8.203125 
Q 42.578125 3.328125 38.25 0.953125 
Q 33.9375 -1.421875 27.875 -1.421875 
Q 17.96875 -1.421875 11.734375 6.484375 
Q 5.515625 14.40625 5.515625 27.296875 
Q 5.515625 40.1875 11.734375 48.09375 
Q 17.96875 56 27.875 56 
Q 33.9375 56 38.25 53.625 
Q 42.578125 51.265625 45.40625 46.390625 
z
M 14.796875 27.296875 
Q 14.796875 17.390625 18.875 11.75 
Q 22.953125 6.109375 30.078125 6.109375 
Q 37.203125 6.109375 41.296875 11.75 
Q 45.40625 17.390625 45.40625 27.296875 
Q 45.40625 37.203125 41.296875 42.84375 
Q 37.203125 48.484375 30.078125 48.484375 
Q 22.953125 48.484375 18.875 42.84375 
Q 14.796875 37.203125 14.796875 27.296875 
z
" id="DejaVuSans-100"/>
      <path d="M 9.421875 54.6875 
L 18.40625 54.6875 
L 18.40625 0 
L 9.421875 0 
z
M 9.421875 75.984375 
L 18.40625 75.984375 
L 18.40625 64.59375 
L 9.421875 64.59375 
z
" id="DejaVuSans-105"/>
      <path d="M 34.28125 27.484375 
Q 23.390625 27.484375 19.1875 25 
Q 14.984375 22.515625 14.984375 16.5 
Q 14.984375 11.71875 18.140625 8.90625 
Q 21.296875 6.109375 26.703125 6.109375 
Q 34.1875 6.109375 38.703125 11.40625 
Q 43.21875 16.703125 43.21875 25.484375 
L 43.21875 27.484375 
z
M 52.203125 31.203125 
L 52.203125 0 
L 43.21875 0 
L 43.21875 8.296875 
Q 40.140625 3.328125 35.546875 0.953125 
Q 30.953125 -1.421875 24.3125 -1.421875 
Q 15.921875 -1.421875 10.953125 3.296875 
Q 6 8.015625 6 15.921875 
Q 6 25.140625 12.171875 29.828125 
Q 18.359375 34.515625 30.609375 34.515625 
L 43.21875 34.515625 
L 43.21875 35.40625 
Q 43.21875 41.609375 39.140625 45 
Q 35.0625 48.390625 27.6875 48.390625 
Q 23 48.390625 18.546875 47.265625 
Q 14.109375 46.140625 10.015625 43.890625 
L 10.015625 52.203125 
Q 14.9375 54.109375 19.578125 55.046875 
Q 24.21875 56 28.609375 56 
Q 40.484375 56 46.34375 49.84375 
Q 52.203125 43.703125 52.203125 31.203125 
z
" id="DejaVuSans-97"/>
      <path d="M 54.890625 33.015625 
L 54.890625 0 
L 45.90625 0 
L 45.90625 32.71875 
Q 45.90625 40.484375 42.875 44.328125 
Q 39.84375 48.1875 33.796875 48.1875 
Q 26.515625 48.1875 22.3125 43.546875 
Q 18.109375 38.921875 18.109375 30.90625 
L 18.109375 0 
L 9.078125 0 
L 9.078125 54.6875 
L 18.109375 54.6875 
L 18.109375 46.1875 
Q 21.34375 51.125 25.703125 53.5625 
Q 30.078125 56 35.796875 56 
Q 45.21875 56 50.046875 50.171875 
Q 54.890625 44.34375 54.890625 33.015625 
z
" id="DejaVuSans-110"/>
     </defs>
     <g transform="translate(368.234063 58.070437)scale(0.1 -0.1)">
      <use xlink:href="#DejaVuSans-109"/>
      <use x="97.412109" xlink:href="#DejaVuSans-101"/>
      <use x="158.935547" xlink:href="#DejaVuSans-100"/>
      <use x="222.412109" xlink:href="#DejaVuSans-105"/>
      <use x="250.195312" xlink:href="#DejaVuSans-97"/>
      <use x="311.474609" xlink:href="#DejaVuSans-110"/>
     </g>
    </g>
    <g id="line2d_19">
     <path d="M 340.234063 69.248562 
L 360.234063 69.248562 
" style="fill:none;stroke:#2ca02c;stroke-linecap:square;stroke-width:0.75;"/>
    </g>
    <g id="line2d_20"/>
    <g id="text_16">
     <!-- mean -->
     <g transform="translate(368.234063 72.748562)scale(0.1 -0.1)">
      <use xlink:href="#DejaVuSans-109"/>
      <use x="97.412109" xlink:href="#DejaVuSans-101"/>
      <use x="158.935547" xlink:href="#DejaVuSans-97"/>
      <use x="220.214844" xlink:href="#DejaVuSans-110"/>
     </g>
    </g>
   </g>
  </g>
  <g id="text_17">
   <!-- log_loss.mean over generations -->
   <defs>
    <path d="M 9.421875 75.984375 
L 18.40625 75.984375 
L 18.40625 0 
L 9.421875 0 
z
" id="DejaVuSans-108"/>
    <path d="M 30.609375 48.390625 
Q 23.390625 48.390625 19.1875 42.75 
Q 14.984375 37.109375 14.984375 27.296875 
Q 14.984375 17.484375 19.15625 11.84375 
Q 23.34375 6.203125 30.609375 6.203125 
Q 37.796875 6.203125 41.984375 11.859375 
Q 46.1875 17.53125 46.1875 27.296875 
Q 46.1875 37.015625 41.984375 42.703125 
Q 37.796875 48.390625 30.609375 48.390625 
z
M 30.609375 56 
Q 42.328125 56 49.015625 48.375 
Q 55.71875 40.765625 55.71875 27.296875 
Q 55.71875 13.875 49.015625 6.21875 
Q 42.328125 -1.421875 30.609375 -1.421875 
Q 18.84375 -1.421875 12.171875 6.21875 
Q 5.515625 13.875 5.515625 27.296875 
Q 5.515625 40.765625 12.171875 48.375 
Q 18.84375 56 30.609375 56 
z
" id="DejaVuSans-111"/>
    <path d="M 45.40625 27.984375 
Q 45.40625 37.75 41.375 43.109375 
Q 37.359375 48.484375 30.078125 48.484375 
Q 22.859375 48.484375 18.828125 43.109375 
Q 14.796875 37.75 14.796875 27.984375 
Q 14.796875 18.265625 18.828125 12.890625 
Q 22.859375 7.515625 30.078125 7.515625 
Q 37.359375 7.515625 41.375 12.890625 
Q 45.40625 18.265625 45.40625 27.984375 
z
M 54.390625 6.78125 
Q 54.390625 -7.171875 48.1875 -13.984375 
Q 42 -20.796875 29.203125 -20.796875 
Q 24.46875 -20.796875 20.265625 -20.09375 
Q 16.0625 -19.390625 12.109375 -17.921875 
L 12.109375 -9.1875 
Q 16.0625 -11.328125 19.921875 -12.34375 
Q 23.78125 -13.375 27.78125 -13.375 
Q 36.625 -13.375 41.015625 -8.765625 
Q 45.40625 -4.15625 45.40625 5.171875 
L 45.40625 9.625 
Q 42.625 4.78125 38.28125 2.390625 
Q 33.9375 0 27.875 0 
Q 17.828125 0 11.671875 7.65625 
Q 5.515625 15.328125 5.515625 27.984375 
Q 5.515625 40.671875 11.671875 48.328125 
Q 17.828125 56 27.875 56 
Q 33.9375 56 38.28125 53.609375 
Q 42.625 51.21875 45.40625 46.390625 
L 45.40625 54.6875 
L 54.390625 54.6875 
z
" id="DejaVuSans-103"/>
    <path d="M 50.984375 -16.609375 
L 50.984375 -23.578125 
L -0.984375 -23.578125 
L -0.984375 -16.609375 
z
" id="DejaVuSans-95"/>
    <path d="M 44.28125 53.078125 
L 44.28125 44.578125 
Q 40.484375 46.53125 36.375 47.5 
Q 32.28125 48.484375 27.875 48.484375 
Q 21.1875 48.484375 17.84375 46.4375 
Q 14.5 44.390625 14.5 40.28125 
Q 14.5 37.15625 16.890625 35.375 
Q 19.28125 33.59375 26.515625 31.984375 
L 29.59375 31.296875 
Q 39.15625 29.25 43.1875 25.515625 
Q 47.21875 21.78125 47.21875 15.09375 
Q 47.21875 7.46875 41.1875 3.015625 
Q 35.15625 -1.421875 24.609375 -1.421875 
Q 20.21875 -1.421875 15.453125 -0.5625 
Q 10.6875 0.296875 5.421875 2 
L 5.421875 11.28125 
Q 10.40625 8.6875 15.234375 7.390625 
Q 20.0625 6.109375 24.8125 6.109375 
Q 31.15625 6.109375 34.5625 8.28125 
Q 37.984375 10.453125 37.984375 14.40625 
Q 37.984375 18.0625 35.515625 20.015625 
Q 33.0625 21.96875 24.703125 23.78125 
L 21.578125 24.515625 
Q 13.234375 26.265625 9.515625 29.90625 
Q 5.8125 33.546875 5.8125 39.890625 
Q 5.8125 47.609375 11.28125 51.796875 
Q 16.75 56 26.8125 56 
Q 31.78125 56 36.171875 55.265625 
Q 40.578125 54.546875 44.28125 53.078125 
z
" id="DejaVuSans-115"/>
    <path d="M 10.6875 12.40625 
L 21 12.40625 
L 21 0 
L 10.6875 0 
z
" id="DejaVuSans-46"/>
    <path id="DejaVuSans-32"/>
    <path d="M 2.984375 54.6875 
L 12.5 54.6875 
L 29.59375 8.796875 
L 46.6875 54.6875 
L 56.203125 54.6875 
L 35.6875 0 
L 23.484375 0 
z
" id="DejaVuSans-118"/>
    <path d="M 41.109375 46.296875 
Q 39.59375 47.171875 37.8125 47.578125 
Q 36.03125 48 33.890625 48 
Q 26.265625 48 22.1875 43.046875 
Q 18.109375 38.09375 18.109375 28.8125 
L 18.109375 0 
L 9.078125 0 
L 9.078125 54.6875 
L 18.109375 54.6875 
L 18.109375 46.1875 
Q 20.953125 51.171875 25.484375 53.578125 
Q 30.03125 56 36.53125 56 
Q 37.453125 56 38.578125 55.875 
Q 39.703125 55.765625 41.0625 55.515625 
z
" id="DejaVuSans-114"/>
    <path d="M 18.3125 70.21875 
L 18.3125 54.6875 
L 36.8125 54.6875 
L 36.8125 47.703125 
L 18.3125 47.703125 
L 18.3125 18.015625 
Q 18.3125 11.328125 20.140625 9.421875 
Q 21.96875 7.515625 27.59375 7.515625 
L 36.8125 7.515625 
L 36.8125 0 
L 27.59375 0 
Q 17.1875 0 13.234375 3.875 
Q 9.28125 7.765625 9.28125 18.015625 
L 9.28125 47.703125 
L 2.6875 47.703125 
L 2.6875 54.6875 
L 9.28125 54.6875 
L 9.28125 70.21875 
z
" id="DejaVuSans-116"/>
   </defs>
   <g transform="translate(134.789062 16.030125)scale(0.12 -0.12)">
    <use xlink:href="#DejaVuSans-108"/>
    <use x="27.783203" xlink:href="#DejaVuSans-111"/>
    <use x="88.964844" xlink:href="#DejaVuSans-103"/>
    <use x="152.441406" xlink:href="#DejaVuSans-95"/>
    <use x="202.441406" xlink:href="#DejaVuSans-108"/>
    <use x="230.224609" xlink:href="#DejaVuSans-111"/>
    <use x="291.40625" xlink:href="#DejaVuSans-115"/>
    <use x="343.505859" xlink:href="#DejaVuSans-115"/>
    <use x="395.605469" xlink:href="#DejaVuSans-46"/>
    <use x="427.392578" xlink:href="#DejaVuSans-109"/>
    <use x="524.804688" xlink:href="#DejaVuSans-101"/>
    <use x="586.328125" xlink:href="#DejaVuSans-97"/>
    <use x="647.607422" xlink:href="#DejaVuSans-110"/>
    <use x="710.986328" xlink:href="#DejaVuSans-32"/>
    <use x="742.773438" xlink:href="#DejaVuSans-111"/>
    <use x="803.955078" xlink:href="#DejaVuSans-118"/>
    <use x="863.134766" xlink:href="#DejaVuSans-101"/>
    <use x="924.658203" xlink:href="#DejaVuSans-114"/>
    <use x="965.771484" xlink:href="#DejaVuSans-32"/>
    <use x="997.558594" xlink:href="#DejaVuSans-103"/>
    <use x="1061.035156" xlink:href="#DejaVuSans-101"/>
    <use x="1122.558594" xlink:href="#DejaVuSans-110"/>
    <use x="1185.9375" xlink:href="#DejaVuSans-101"/>
    <use x="1247.460938" xlink:href="#DejaVuSans-114"/>
    <use x="1288.574219" xlink:href="#DejaVuSans-97"/>
    <use x="1349.853516" xlink:href="#DejaVuSans-116"/>
    <use x="1389.0625" xlink:href="#DejaVuSans-105"/>
    <use x="1416.845703" xlink:href="#DejaVuSans-111"/>
    <use x="1478.027344" xlink:href="#DejaVuSans-110"/>
    <use x="1541.40625" xlink:href="#DejaVuSans-115"/>
   </g>
  </g>
 </g>
 <defs>
  <clipPath id="pad23a36e47">
   <rect height="266.112" width="357.12" x="57.6" y="41.472"/>
  </clipPath>
 </defs>
</svg>
