<?xml version="1.0" encoding="utf-8" standalone="no"?>
<!DOCTYPE svg PUBLIC "-//W3C//DTD SVG 1.1//EN"
  "http://www.w3.org/Graphics/SVG/1.1/DTD/svg11.dtd">
<!-- Created with matplotlib (https://matplotlib.org/) -->
<svg height="345.6pt" version="1.1" viewBox="0 0 460.8 345.6" width="460.8pt" xmlns="http://www.w3.org/2000/svg" xmlns:xlink="http://www.w3.org/1999/xlink">
 <defs>
  <style type="text/css">
*{stroke-linecap:butt;stroke-linejoin:round;}
  </style>
 </defs>
 <g id="figure_1">
  <g id="patch_1">
   <path d="M 0 345.6 
L 460.8 345.6 
L 460.8 0 
L 0 0 
z
" style="fill:#ffffff;"/>
  </g>
  <g id="axes_1">
   <g id="patch_2">
    <path clip-path="url(#p94d16085aa)" d="M 88.589752 64.564364 
Q 116.390675 71.744945 144.191599 78.925527 
" style="fill:none;stroke:#000000;stroke-linecap:round;stroke-opacity:0.9;stroke-width:0.4;"/>
   </g>
   <g id="patch_3">
    <path clip-path="url(#p94d16085aa)" d="M 88.589752 64.564364 
Q 175.809227 142.050493 263.028702 219.536623 
" style="fill:none;stroke:#000000;stroke-linecap:round;stroke-opacity:0.9;stroke-width:0.4;"/>
   </g>
   <g id="patch_4">
    <path clip-path="url(#p94d16085aa)" d="M 88.589752 119.546182 
Q 175.601166 169.831829 262.612579 220.117475 
" style="fill:none;stroke:#000000;stroke-linecap:round;stroke-opacity:0.9;stroke-width:0.4;"/>
   </g>
   <g id="patch_5">
    <path clip-path="url(#p94d16085aa)" d="M 88.589752 174.528 
Q 116.545595 159.575188 144.501439 144.622377 
" style="fill:none;stroke:#000000;stroke-linecap:round;stroke-opacity:0.9;stroke-width:0.4;"/>
   </g>
   <g id="patch_6">
    <path clip-path="url(#p94d16085aa)" d="M 88.589752 229.509818 
Q 116.459128 218.457406 144.328505 207.404993 
" style="fill:none;stroke:#000000;stroke-linecap:round;stroke-opacity:0.9;stroke-width:0.4;"/>
   </g>
   <g id="patch_7">
    <path clip-path="url(#p94d16085aa)" d="M 88.589752 229.509818 
Q 234.423906 202.342327 380.25806 175.174835 
" style="fill:none;stroke:#000000;stroke-linecap:round;stroke-opacity:0.9;stroke-width:0.4;"/>
   </g>
   <g id="patch_8">
    <path clip-path="url(#p94d16085aa)" d="M 88.589752 229.509818 
Q 234.396885 239.429884 380.204018 249.34995 
" style="fill:none;stroke:#000000;stroke-linecap:round;stroke-opacity:0.9;stroke-width:0.4;"/>
   </g>
   <g id="patch_9">
    <path clip-path="url(#p94d16085aa)" d="M 88.589752 284.491636 
Q 116.390675 277.311055 144.191599 270.130473 
" style="fill:none;stroke:#000000;stroke-linecap:round;stroke-opacity:0.9;stroke-width:0.4;"/>
   </g>
   <g id="patch_10">
    <path clip-path="url(#p94d16085aa)" d="M 147.617851 206.100507 
Q 204.893193 213.759258 262.168536 221.41801 
" style="fill:none;stroke:#000000;stroke-linecap:round;stroke-opacity:0.9;stroke-width:0.4;"/>
   </g>
   <g id="patch_11">
    <path clip-path="url(#p94d16085aa)" d="M 147.617851 142.955493 
Q 175.573694 157.908305 203.529538 172.861117 
" style="fill:none;stroke:#000000;stroke-linecap:round;stroke-opacity:0.9;stroke-width:0.4;"/>
   </g>
   <g id="patch_12">
    <path clip-path="url(#p94d16085aa)" d="M 147.617851 142.955493 
Q 263.935704 121.531001 380.253556 100.10651 
" style="fill:none;stroke:#000000;stroke-linecap:round;stroke-opacity:0.9;stroke-width:0.4;"/>
   </g>
   <g id="patch_13">
    <path clip-path="url(#p94d16085aa)" d="M 147.617851 142.955493 
Q 264.061801 195.544544 380.505752 248.133595 
" style="fill:none;stroke:#000000;stroke-linecap:round;stroke-opacity:0.9;stroke-width:0.4;"/>
   </g>
   <g id="patch_14">
    <path clip-path="url(#p94d16085aa)" d="M 147.617851 79.810479 
Q 205.515575 149.488255 263.413299 219.166031 
" style="fill:none;stroke:#000000;stroke-linecap:round;stroke-opacity:0.9;stroke-width:0.4;"/>
   </g>
   <g id="patch_15">
    <path clip-path="url(#p94d16085aa)" d="M 147.617851 269.245521 
Q 205.00488 246.224463 262.391909 223.203406 
" style="fill:none;stroke:#000000;stroke-linecap:round;stroke-opacity:0.9;stroke-width:0.4;"/>
   </g>
   <g id="patch_16">
    <path clip-path="url(#p94d16085aa)" d="M 206.64595 174.528 
Q 234.781933 197.101745 262.917916 219.67549 
" style="fill:none;stroke:#000000;stroke-linecap:round;stroke-opacity:0.9;stroke-width:0.4;"/>
   </g>
   <g id="patch_17">
    <path clip-path="url(#p94d16085aa)" d="M 206.64595 174.528 
Q 234.781933 151.954255 262.917916 129.38051 
" style="fill:none;stroke:#000000;stroke-linecap:round;stroke-opacity:0.9;stroke-width:0.4;"/>
   </g>
   <g id="patch_18">
    <path clip-path="url(#p94d16085aa)" d="M 265.67405 221.88676 
Q 323.474498 161.949486 381.274947 102.012212 
" style="fill:none;stroke:#000000;stroke-linecap:round;stroke-opacity:0.9;stroke-width:0.4;"/>
   </g>
   <g id="patch_19">
    <path clip-path="url(#p94d16085aa)" d="M 265.67405 127.16924 
Q 293.810032 149.742985 321.946015 172.31673 
" style="fill:none;stroke:#000000;stroke-linecap:round;stroke-opacity:0.9;stroke-width:0.4;"/>
   </g>
   <g id="patch_20">
    <path clip-path="url(#p94d16085aa)" d="M 324.702149 174.528 
Q 353.123653 138.386384 381.545156 102.244767 
" style="fill:none;stroke:#000000;stroke-linecap:round;stroke-opacity:0.9;stroke-width:0.4;"/>
   </g>
   <g id="PathCollection_1">
    <defs>
     <path d="M 0 3.535534 
C 0.937635 3.535534 1.836992 3.163008 2.5 2.5 
C 3.163008 1.836992 3.535534 0.937635 3.535534 0 
C 3.535534 -0.937635 3.163008 -1.836992 2.5 -2.5 
C 1.836992 -3.163008 0.937635 -3.535534 0 -3.535534 
C -0.937635 -3.535534 -1.836992 -3.163008 -2.5 -2.5 
C -3.163008 -1.836992 -3.535534 -0.937635 -3.535534 0 
C -3.535534 0.937635 -3.163008 1.836992 -2.5 2.5 
C -1.836992 3.163008 -0.937635 3.535534 0 3.535534 
z
" id="C0_0_107d73041a"/>
    </defs>
    <g clip-path="url(#p94d16085aa)">
     <use style="fill:#fdb462;fill-opacity:0.9;" x="88.589752" xlink:href="#C0_0_107d73041a" y="64.564364"/>
    </g>
    <g clip-path="url(#p94d16085aa)">
     <use style="fill:#fdb462;fill-opacity:0.9;" x="88.589752" xlink:href="#C0_0_107d73041a" y="119.546182"/>
    </g>
    <g clip-path="url(#p94d16085aa)">
     <use style="fill:#fdb462;fill-opacity:0.9;" x="88.589752" xlink:href="#C0_0_107d73041a" y="174.528"/>
    </g>
    <g clip-path="url(#p94d16085aa)">
     <use style="fill:#fdb462;fill-opacity:0.9;" x="88.589752" xlink:href="#C0_0_107d73041a" y="229.509818"/>
    </g>
    <g clip-path="url(#p94d16085aa)">
     <use style="fill:#ffed6f;fill-opacity:0.9;" x="88.589752" xlink:href="#C0_0_107d73041a" y="284.491636"/>
    </g>
    <g clip-path="url(#p94d16085aa)">
     <use style="fill:#80b1d3;fill-opacity:0.9;" x="147.617851" xlink:href="#C0_0_107d73041a" y="206.100507"/>
    </g>
    <g clip-path="url(#p94d16085aa)">
     <use style="fill:#80b1d3;fill-opacity:0.9;" x="147.617851" xlink:href="#C0_0_107d73041a" y="142.955493"/>
    </g>
    <g clip-path="url(#p94d16085aa)">
     <use style="fill:#80b1d3;fill-opacity:0.9;" x="147.617851" xlink:href="#C0_0_107d73041a" y="79.810479"/>
    </g>
    <g clip-path="url(#p94d16085aa)">
     <use style="fill:#80b1d3;fill-opacity:0.9;" x="147.617851" xlink:href="#C0_0_107d73041a" y="269.245521"/>
    </g>
    <g clip-path="url(#p94d16085aa)">
     <use style="fill:#80b1d3;fill-opacity:0.9;" x="206.64595" xlink:href="#C0_0_107d73041a" y="174.528"/>
    </g>
    <g clip-path="url(#p94d16085aa)">
     <use style="fill:#80b1d3;fill-opacity:0.9;" x="265.67405" xlink:href="#C0_0_107d73041a" y="221.88676"/>
    </g>
    <g clip-path="url(#p94d16085aa)">
     <use style="fill:#80b1d3;fill-opacity:0.9;" x="265.67405" xlink:href="#C0_0_107d73041a" y="127.16924"/>
    </g>
    <g clip-path="url(#p94d16085aa)">
     <use style="fill:#80b1d3;fill-opacity:0.9;" x="324.702149" xlink:href="#C0_0_107d73041a" y="174.528"/>
    </g>
    <g clip-path="url(#p94d16085aa)">
     <use style="fill:#b3de69;fill-opacity:0.9;" x="383.730248" xlink:href="#C0_0_107d73041a" y="99.466141"/>
    </g>
    <g clip-path="url(#p94d16085aa)">
     <use style="fill:#b3de69;fill-opacity:0.9;" x="383.730248" xlink:href="#C0_0_107d73041a" y="174.528"/>
    </g>
    <g clip-path="url(#p94d16085aa)">
     <use style="fill:#b3de69;fill-opacity:0.9;" x="383.730248" xlink:href="#C0_0_107d73041a" y="249.589859"/>
    </g>
   </g>
  </g>
 </g>
 <defs>
  <clipPath id="p94d16085aa">
   <rect height="266.112" width="357.12" x="57.6" y="41.472"/>
  </clipPath>
 </defs>
</svg>
