<?xml version="1.0" encoding="utf-8" standalone="no"?>
<!DOCTYPE svg PUBLIC "-//W3C//DTD SVG 1.1//EN"
  "http://www.w3.org/Graphics/SVG/1.1/DTD/svg11.dtd">
<!-- Created with matplotlib (https://matplotlib.org/) -->
<svg height="345.6pt" version="1.1" viewBox="0 0 460.8 345.6" width="460.8pt" xmlns="http://www.w3.org/2000/svg" xmlns:xlink="http://www.w3.org/1999/xlink">
 <defs>
  <style type="text/css">
*{stroke-linecap:butt;stroke-linejoin:round;}
  </style>
 </defs>
 <g id="figure_1">
  <g id="patch_1">
   <path d="M 0 345.6 
L 460.8 345.6 
L 460.8 0 
L 0 0 
z
" style="fill:#ffffff;"/>
  </g>
  <g id="axes_1">
   <g id="patch_2">
    <path clip-path="url(#paa2e51e5fb)" d="M 88.589752 64.564364 
Q 116.581623 81.115228 144.573494 97.666092 
" style="fill:none;stroke:#000000;stroke-linecap:round;stroke-opacity:0.9;stroke-width:0.4;"/>
   </g>
   <g id="patch_3">
    <path clip-path="url(#paa2e51e5fb)" d="M 88.589752 64.564364 
Q 175.809227 142.050493 263.028702 219.536623 
" style="fill:none;stroke:#000000;stroke-linecap:round;stroke-opacity:0.9;stroke-width:0.4;"/>
   </g>
   <g id="patch_4">
    <path clip-path="url(#paa2e51e5fb)" d="M 88.589752 119.546182 
Q 175.601166 169.831829 262.612579 220.117475 
" style="fill:none;stroke:#000000;stroke-linecap:round;stroke-opacity:0.9;stroke-width:0.4;"/>
   </g>
   <g id="patch_5">
    <path clip-path="url(#paa2e51e5fb)" d="M 88.589752 174.528 
Q 116.336634 174.528 144.083515 174.528 
" style="fill:none;stroke:#000000;stroke-linecap:round;stroke-opacity:0.9;stroke-width:0.4;"/>
   </g>
   <g id="patch_6">
    <path clip-path="url(#paa2e51e5fb)" d="M 88.589752 229.509818 
Q 116.430306 238.980553 144.27086 248.451288 
" style="fill:none;stroke:#000000;stroke-linecap:round;stroke-opacity:0.9;stroke-width:0.4;"/>
   </g>
   <g id="patch_7">
    <path clip-path="url(#paa2e51e5fb)" d="M 88.589752 229.509818 
Q 234.423906 202.342327 380.25806 175.174835 
" style="fill:none;stroke:#000000;stroke-linecap:round;stroke-opacity:0.9;stroke-width:0.4;"/>
   </g>
   <g id="patch_8">
    <path clip-path="url(#paa2e51e5fb)" d="M 88.589752 229.509818 
Q 234.396885 239.429884 380.204018 249.34995 
" style="fill:none;stroke:#000000;stroke-linecap:round;stroke-opacity:0.9;stroke-width:0.4;"/>
   </g>
   <g id="patch_9">
    <path clip-path="url(#paa2e51e5fb)" d="M 88.589752 284.491636 
Q 146.056042 254.017421 203.522332 223.543207 
" style="fill:none;stroke:#000000;stroke-linecap:round;stroke-opacity:0.9;stroke-width:0.4;"/>
   </g>
   <g id="patch_10">
    <path clip-path="url(#paa2e51e5fb)" d="M 147.617851 249.589859 
Q 175.530461 236.489898 203.443071 223.389938 
" style="fill:none;stroke:#000000;stroke-linecap:round;stroke-opacity:0.9;stroke-width:0.4;"/>
   </g>
   <g id="patch_11">
    <path clip-path="url(#paa2e51e5fb)" d="M 147.617851 249.589859 
Q 204.925619 236.142003 262.233386 222.694147 
" style="fill:none;stroke:#000000;stroke-linecap:round;stroke-opacity:0.9;stroke-width:0.4;"/>
   </g>
   <g id="patch_12">
    <path clip-path="url(#paa2e51e5fb)" d="M 147.617851 174.528 
Q 175.753834 151.954255 203.889817 129.38051 
" style="fill:none;stroke:#000000;stroke-linecap:round;stroke-opacity:0.9;stroke-width:0.4;"/>
   </g>
   <g id="patch_13">
    <path clip-path="url(#paa2e51e5fb)" d="M 147.617851 174.528 
Q 263.989746 137.532523 380.36164 100.537046 
" style="fill:none;stroke:#000000;stroke-linecap:round;stroke-opacity:0.9;stroke-width:0.4;"/>
   </g>
   <g id="patch_14">
    <path clip-path="url(#paa2e51e5fb)" d="M 147.617851 99.466141 
Q 205.4183 159.403415 263.218749 219.340689 
" style="fill:none;stroke:#000000;stroke-linecap:round;stroke-opacity:0.9;stroke-width:0.4;"/>
   </g>
   <g id="patch_15">
    <path clip-path="url(#paa2e51e5fb)" d="M 206.64595 127.16924 
Q 235.224175 173.02636 263.802401 218.88348 
" style="fill:none;stroke:#000000;stroke-linecap:round;stroke-opacity:0.9;stroke-width:0.4;"/>
   </g>
   <g id="patch_16">
    <path clip-path="url(#paa2e51e5fb)" d="M 206.64595 127.16924 
Q 234.392832 127.16924 262.139713 127.16924 
" style="fill:none;stroke:#000000;stroke-linecap:round;stroke-opacity:0.9;stroke-width:0.4;"/>
   </g>
   <g id="patch_17">
    <path clip-path="url(#paa2e51e5fb)" d="M 206.64595 221.88676 
Q 234.392832 221.88676 262.139713 221.88676 
" style="fill:none;stroke:#000000;stroke-linecap:round;stroke-opacity:0.9;stroke-width:0.4;"/>
   </g>
   <g id="patch_18">
    <path clip-path="url(#paa2e51e5fb)" d="M 265.67405 221.88676 
Q 323.474498 161.949486 381.274947 102.012212 
" style="fill:none;stroke:#000000;stroke-linecap:round;stroke-opacity:0.9;stroke-width:0.4;"/>
   </g>
   <g id="patch_19">
    <path clip-path="url(#paa2e51e5fb)" d="M 265.67405 127.16924 
Q 293.810032 149.742985 321.946015 172.31673 
" style="fill:none;stroke:#000000;stroke-linecap:round;stroke-opacity:0.9;stroke-width:0.4;"/>
   </g>
   <g id="patch_20">
    <path clip-path="url(#paa2e51e5fb)" d="M 324.702149 174.528 
Q 353.123653 138.386384 381.545156 102.244767 
" style="fill:none;stroke:#000000;stroke-linecap:round;stroke-opacity:0.9;stroke-width:0.4;"/>
   </g>
   <g id="PathCollection_1">
    <defs>
     <path d="M 0 3.535534 
C 0.937635 3.535534 1.836992 3.163008 2.5 2.5 
C 3.163008 1.836992 3.535534 0.937635 3.535534 0 
C 3.535534 -0.937635 3.163008 -1.836992 2.5 -2.5 
C 1.836992 -3.163008 0.937635 -3.535534 0 -3.535534 
C -0.937635 -3.535534 -1.836992 -3.163008 -2.5 -2.5 
C -3.163008 -1.836992 -3.535534 -0.937635 -3.535534 0 
C -3.535534 0.937635 -3.163008 1.836992 -2.5 2.5 
C -1.836992 3.163008 -0.937635 3.535534 0 3.535534 
z
" id="C0_0_4c26e7be63"/>
    </defs>
    <g clip-path="url(#paa2e51e5fb)">
     <use style="fill:#fdb462;fill-opacity:0.9;" x="88.589752" xlink:href="#C0_0_4c26e7be63" y="64.564364"/>
    </g>
    <g clip-path="url(#paa2e51e5fb)">
     <use style="fill:#fdb462;fill-opacity:0.9;" x="88.589752" xlink:href="#C0_0_4c26e7be63" y="119.546182"/>
    </g>
    <g clip-path="url(#paa2e51e5fb)">
     <use style="fill:#fdb462;fill-opacity:0.9;" x="88.589752" xlink:href="#C0_0_4c26e7be63" y="174.528"/>
    </g>
    <g clip-path="url(#paa2e51e5fb)">
     <use style="fill:#fdb462;fill-opacity:0.9;" x="88.589752" xlink:href="#C0_0_4c26e7be63" y="229.509818"/>
    </g>
    <g clip-path="url(#paa2e51e5fb)">
     <use style="fill:#ffed6f;fill-opacity:0.9;" x="88.589752" xlink:href="#C0_0_4c26e7be63" y="284.491636"/>
    </g>
    <g clip-path="url(#paa2e51e5fb)">
     <use style="fill:#80b1d3;fill-opacity:0.9;" x="147.617851" xlink:href="#C0_0_4c26e7be63" y="249.589859"/>
    </g>
    <g clip-path="url(#paa2e51e5fb)">
     <use style="fill:#80b1d3;fill-opacity:0.9;" x="147.617851" xlink:href="#C0_0_4c26e7be63" y="174.528"/>
    </g>
    <g clip-path="url(#paa2e51e5fb)">
     <use style="fill:#80b1d3;fill-opacity:0.9;" x="147.617851" xlink:href="#C0_0_4c26e7be63" y="99.466141"/>
    </g>
    <g clip-path="url(#paa2e51e5fb)">
     <use style="fill:#80b1d3;fill-opacity:0.9;" x="206.64595" xlink:href="#C0_0_4c26e7be63" y="127.16924"/>
    </g>
    <g clip-path="url(#paa2e51e5fb)">
     <use style="fill:#80b1d3;fill-opacity:0.9;" x="206.64595" xlink:href="#C0_0_4c26e7be63" y="221.88676"/>
    </g>
    <g clip-path="url(#paa2e51e5fb)">
     <use style="fill:#80b1d3;fill-opacity:0.9;" x="265.67405" xlink:href="#C0_0_4c26e7be63" y="221.88676"/>
    </g>
    <g clip-path="url(#paa2e51e5fb)">
     <use style="fill:#80b1d3;fill-opacity:0.9;" x="265.67405" xlink:href="#C0_0_4c26e7be63" y="127.16924"/>
    </g>
    <g clip-path="url(#paa2e51e5fb)">
     <use style="fill:#80b1d3;fill-opacity:0.9;" x="324.702149" xlink:href="#C0_0_4c26e7be63" y="174.528"/>
    </g>
    <g clip-path="url(#paa2e51e5fb)">
     <use style="fill:#b3de69;fill-opacity:0.9;" x="383.730248" xlink:href="#C0_0_4c26e7be63" y="99.466141"/>
    </g>
    <g clip-path="url(#paa2e51e5fb)">
     <use style="fill:#b3de69;fill-opacity:0.9;" x="383.730248" xlink:href="#C0_0_4c26e7be63" y="174.528"/>
    </g>
    <g clip-path="url(#paa2e51e5fb)">
     <use style="fill:#b3de69;fill-opacity:0.9;" x="383.730248" xlink:href="#C0_0_4c26e7be63" y="249.589859"/>
    </g>
   </g>
  </g>
 </g>
 <defs>
  <clipPath id="paa2e51e5fb">
   <rect height="266.112" width="357.12" x="57.6" y="41.472"/>
  </clipPath>
 </defs>
</svg>
