<?xml version="1.0" encoding="utf-8" standalone="no"?>
<!DOCTYPE svg PUBLIC "-//W3C//DTD SVG 1.1//EN"
  "http://www.w3.org/Graphics/SVG/1.1/DTD/svg11.dtd">
<!-- Created with matplotlib (https://matplotlib.org/) -->
<svg height="345.6pt" version="1.1" viewBox="0 0 460.8 345.6" width="460.8pt" xmlns="http://www.w3.org/2000/svg" xmlns:xlink="http://www.w3.org/1999/xlink">
 <defs>
  <style type="text/css">
*{stroke-linecap:butt;stroke-linejoin:round;}
  </style>
 </defs>
 <g id="figure_1">
  <g id="patch_1">
   <path d="M 0 345.6 
L 460.8 345.6 
L 460.8 0 
L 0 0 
z
" style="fill:#ffffff;"/>
  </g>
  <g id="axes_1">
   <g id="patch_2">
    <path d="M 57.6 307.584 
L 414.72 307.584 
L 414.72 41.472 
L 57.6 41.472 
z
" style="fill:#ffffff;"/>
   </g>
   <g id="PolyCollection_1">
    <path clip-path="url(#p22dbb9bfc3)" d="M 73.832727 181.159078 
L 73.832727 181.159078 
L 75.464157 181.159078 
L 77.095587 181.159078 
L 78.727017 181.159078 
L 80.358447 181.159078 
L 81.989877 181.159078 
L 83.621307 181.159078 
L 85.252736 181.159078 
L 86.884166 181.159078 
L 88.515596 181.159078 
L 90.147026 181.159078 
L 91.778456 181.159078 
L 93.409886 181.159078 
L 95.041316 181.159078 
L 96.672746 181.159078 
L 98.304175 181.159078 
L 99.935605 181.159078 
L 101.567035 181.159078 
L 103.198465 181.159078 
L 104.829895 181.159078 
L 106.461325 181.159078 
L 108.092755 181.159078 
L 109.724185 181.159078 
L 111.355614 181.159078 
L 112.987044 181.159078 
L 114.618474 181.159078 
L 116.249904 181.159078 
L 117.881334 181.159078 
L 119.512764 181.159078 
L 121.144194 181.159078 
L 122.775624 181.159078 
L 124.407053 181.159078 
L 126.038483 181.159078 
L 127.669913 181.159078 
L 129.301343 181.159078 
L 130.932773 181.159078 
L 132.564203 181.159078 
L 134.195633 181.159078 
L 135.827063 181.159078 
L 137.458492 181.159078 
L 139.089922 181.159078 
L 140.721352 181.159078 
L 142.352782 181.159078 
L 143.984212 181.159078 
L 145.615642 181.159078 
L 147.247072 181.159078 
L 148.878502 181.159078 
L 150.509931 181.159078 
L 152.141361 181.159078 
L 153.772791 181.159078 
L 155.404221 181.159078 
L 157.035651 181.159078 
L 158.667081 181.159078 
L 160.298511 181.159078 
L 161.929941 181.159078 
L 163.56137 181.159078 
L 165.1928 181.159078 
L 166.82423 181.159078 
L 168.45566 181.159078 
L 170.08709 181.159078 
L 171.71852 181.159078 
L 173.34995 181.159078 
L 174.98138 181.159078 
L 176.61281 181.159078 
L 178.244239 181.159078 
L 179.875669 181.159078 
L 181.507099 181.159078 
L 183.138529 181.159078 
L 184.769959 181.159078 
L 186.401389 181.159078 
L 188.032819 181.159078 
L 189.664249 181.159078 
L 191.295678 181.159078 
L 192.927108 181.159078 
L 194.558538 181.159078 
L 196.189968 181.159078 
L 197.821398 181.159078 
L 199.452828 181.159078 
L 201.084258 181.159078 
L 202.715688 181.159078 
L 204.347117 181.159078 
L 205.978547 181.159078 
L 207.609977 181.159078 
L 209.241407 181.159078 
L 210.872837 181.159078 
L 212.504267 181.159078 
L 214.135697 181.159078 
L 215.767127 181.159078 
L 217.398556 181.159078 
L 219.029986 181.159078 
L 220.661416 181.159078 
L 222.292846 181.159078 
L 223.924276 181.159078 
L 225.555706 181.159078 
L 227.187136 181.159078 
L 228.818566 181.159078 
L 230.449995 181.159078 
L 232.081425 181.159078 
L 233.712855 181.159078 
L 235.344285 181.159078 
L 236.975715 181.159078 
L 238.607145 181.159078 
L 240.238575 181.159078 
L 241.870005 159.207924 
L 243.501434 181.159078 
L 245.132864 181.159078 
L 246.764294 170.755146 
L 248.395724 180.244446 
L 250.027154 179.329815 
L 251.658584 158.864938 
L 253.290014 157.035675 
L 254.921444 165.806336 
L 256.552873 166.185351 
L 258.184303 164.238397 
L 259.815733 152.805505 
L 261.447163 181.159078 
L 263.078593 177.500552 
L 264.710023 181.159078 
L 266.341453 181.159078 
L 267.972883 167.896922 
L 269.604312 170.755146 
L 271.235742 168.460401 
L 272.867172 167.341611 
L 274.498602 162.86645 
L 276.130032 181.159078 
L 277.761462 158.293293 
L 279.392892 161.037187 
L 281.024322 166.004662 
L 282.655751 181.159078 
L 284.287181 181.159078 
L 285.918611 181.159078 
L 287.550041 181.159078 
L 289.181471 169.726185 
L 290.812901 167.325278 
L 292.444331 181.159078 
L 294.075761 181.159078 
L 295.70719 176.814578 
L 297.33862 167.200061 
L 298.97005 171.555448 
L 300.60148 181.159078 
L 302.23291 158.750609 
L 303.86434 158.293293 
L 305.49577 180.244446 
L 307.1272 181.159078 
L 308.75863 179.329815 
L 310.390059 157.378662 
L 312.021489 181.159078 
L 313.652919 159.322253 
L 315.284349 168.65721 
L 316.915779 181.159078 
L 318.547209 180.358775 
L 320.178639 181.159078 
L 321.810069 169.211705 
L 323.441498 160.6942 
L 325.072928 181.159078 
L 326.704358 181.159078 
L 328.335788 172.154314 
L 329.967218 181.159078 
L 331.598648 180.244446 
L 333.230078 158.407622 
L 334.861508 181.159078 
L 336.492937 159.207924 
L 338.124367 181.159078 
L 339.755797 181.159078 
L 341.387227 181.159078 
L 343.018657 181.159078 
L 344.650087 181.159078 
L 346.281517 181.159078 
L 347.912947 181.159078 
L 349.544376 159.207924 
L 351.175806 181.159078 
L 352.807236 168.029692 
L 354.438666 133.826904 
L 356.070096 159.207924 
L 357.701526 171.098132 
L 359.332956 181.159078 
L 360.964386 181.159078 
L 362.595815 181.159078 
L 364.227245 158.293293 
L 365.858675 147.775032 
L 367.490105 166.263652 
L 369.121535 181.159078 
L 370.752965 175.579826 
L 372.384395 181.159078 
L 374.015825 159.779569 
L 375.647254 177.72921 
L 377.278684 181.159078 
L 378.910114 159.207924 
L 380.541544 181.159078 
L 382.172974 136.34214 
L 383.804404 141.372612 
L 385.435834 181.159078 
L 387.067264 181.159078 
L 388.698693 175.899947 
L 390.330123 164.712468 
L 391.961553 163.552423 
L 393.592983 181.159078 
L 395.224413 181.159078 
L 396.855843 180.701762 
L 398.487273 181.159078 
L 398.487273 138.628718 
L 398.487273 138.628718 
L 396.855843 98.384938 
L 395.224413 149.832953 
L 393.592983 133.598246 
L 391.961553 95.412386 
L 390.330123 106.61662 
L 388.698693 100.208484 
L 387.067264 158.293293 
L 385.435834 134.855864 
L 383.804404 116.22025 
L 382.172974 110.035599 
L 380.541544 113.476355 
L 378.910114 89.69594 
L 377.278684 89.69594 
L 375.647254 89.69594 
L 374.015825 111.647093 
L 372.384395 137.485429 
L 370.752965 158.293293 
L 369.121535 112.561724 
L 367.490105 112.561724 
L 365.858675 89.69594 
L 364.227245 112.561724 
L 362.595815 113.705013 
L 360.964386 181.159078 
L 359.332956 158.293293 
L 357.701526 135.427509 
L 356.070096 113.247698 
L 354.438666 92.78282 
L 352.807236 158.293293 
L 351.175806 135.427509 
L 349.544376 122.940711 
L 347.912947 158.293293 
L 346.281517 181.159078 
L 344.650087 146.517414 
L 343.018657 135.427509 
L 341.387227 158.293293 
L 339.755797 135.427509 
L 338.124367 112.561724 
L 336.492937 112.561724 
L 334.861508 112.561724 
L 333.230078 135.427509 
L 331.598648 135.427509 
L 329.967218 158.293293 
L 328.335788 158.293293 
L 326.704358 158.293293 
L 325.072928 89.69594 
L 323.441498 158.293293 
L 321.810069 91.067887 
L 320.178639 159.207924 
L 318.547209 124.788348 
L 316.915779 135.427509 
L 315.284349 121.793725 
L 313.652919 119.04646 
L 312.021489 136.34214 
L 310.390059 89.581611 
L 308.75863 158.293293 
L 307.1272 139.429021 
L 305.49577 135.541837 
L 303.86434 135.427509 
L 302.23291 89.69594 
L 300.60148 135.427509 
L 298.97005 112.561724 
L 297.33862 134.376771 
L 295.70719 113.476355 
L 294.075761 122.965656 
L 292.444331 115.820098 
L 290.812901 158.293293 
L 289.181471 158.293293 
L 287.550041 135.427509 
L 285.918611 129.916854 
L 284.287181 181.159078 
L 282.655751 158.293293 
L 281.024322 108.78887 
L 279.392892 126.407548 
L 277.761462 135.427509 
L 276.130032 114.276658 
L 274.498602 135.427509 
L 272.867172 146.174427 
L 271.235742 158.293293 
L 269.604312 135.427509 
L 267.972883 127.65363 
L 266.341453 158.293293 
L 264.710023 135.427509 
L 263.078593 113.01904 
L 261.447163 89.69594 
L 259.815733 112.561724 
L 258.184303 120.336091 
L 256.552873 120.947502 
L 254.921444 136.685127 
L 253.290014 98.15628 
L 251.658584 90.153255 
L 250.027154 117.632212 
L 248.395724 114.83197 
L 246.764294 158.293293 
L 245.132864 160.579871 
L 243.501434 180.701762 
L 241.870005 128.567773 
L 240.238575 174.756658 
L 238.607145 164.973369 
L 236.975715 148.575335 
L 235.344285 158.750609 
L 233.712855 158.293293 
L 232.081425 158.293293 
L 230.449995 171.098132 
L 228.818566 179.329815 
L 227.187136 135.867675 
L 225.555706 147.955509 
L 223.924276 140.457981 
L 222.292846 150.061611 
L 220.661416 175.213974 
L 219.029986 156.258238 
L 217.398556 181.044749 
L 215.767127 181.159078 
L 214.135697 181.159078 
L 212.504267 181.159078 
L 210.872837 181.159078 
L 209.241407 181.159078 
L 207.609977 181.159078 
L 205.978547 181.159078 
L 204.347117 181.159078 
L 202.715688 181.159078 
L 201.084258 181.159078 
L 199.452828 181.159078 
L 197.821398 181.159078 
L 196.189968 181.159078 
L 194.558538 181.159078 
L 192.927108 181.159078 
L 191.295678 181.159078 
L 189.664249 181.159078 
L 188.032819 181.159078 
L 186.401389 181.159078 
L 184.769959 181.159078 
L 183.138529 181.159078 
L 181.507099 181.159078 
L 179.875669 181.159078 
L 178.244239 181.159078 
L 176.61281 181.159078 
L 174.98138 181.159078 
L 173.34995 181.159078 
L 171.71852 181.159078 
L 170.08709 181.159078 
L 168.45566 181.159078 
L 166.82423 181.159078 
L 165.1928 181.159078 
L 163.56137 181.159078 
L 161.929941 181.159078 
L 160.298511 181.159078 
L 158.667081 181.159078 
L 157.035651 181.159078 
L 155.404221 181.159078 
L 153.772791 181.159078 
L 152.141361 181.159078 
L 150.509931 181.159078 
L 148.878502 181.159078 
L 147.247072 181.159078 
L 145.615642 181.159078 
L 143.984212 181.159078 
L 142.352782 181.159078 
L 140.721352 181.159078 
L 139.089922 181.159078 
L 137.458492 181.159078 
L 135.827063 181.159078 
L 134.195633 181.159078 
L 132.564203 181.159078 
L 130.932773 181.159078 
L 129.301343 181.159078 
L 127.669913 181.159078 
L 126.038483 181.159078 
L 124.407053 181.159078 
L 122.775624 181.159078 
L 121.144194 181.159078 
L 119.512764 181.159078 
L 117.881334 181.159078 
L 116.249904 181.159078 
L 114.618474 181.159078 
L 112.987044 181.159078 
L 111.355614 181.159078 
L 109.724185 181.159078 
L 108.092755 181.159078 
L 106.461325 181.159078 
L 104.829895 181.159078 
L 103.198465 181.159078 
L 101.567035 181.159078 
L 99.935605 181.159078 
L 98.304175 181.159078 
L 96.672746 181.159078 
L 95.041316 181.159078 
L 93.409886 181.159078 
L 91.778456 181.159078 
L 90.147026 181.159078 
L 88.515596 181.159078 
L 86.884166 181.159078 
L 85.252736 181.159078 
L 83.621307 181.159078 
L 81.989877 181.159078 
L 80.358447 181.159078 
L 78.727017 181.159078 
L 77.095587 181.159078 
L 75.464157 181.159078 
L 73.832727 181.159078 
z
" style="fill:#1f77b4;fill-opacity:0.2;"/>
   </g>
   <g id="PolyCollection_2">
    <path clip-path="url(#p22dbb9bfc3)" d="M 73.832727 181.159078 
L 73.832727 181.159078 
L 75.464157 181.159078 
L 77.095587 181.159078 
L 78.727017 181.159078 
L 80.358447 181.159078 
L 81.989877 181.159078 
L 83.621307 181.159078 
L 85.252736 181.159078 
L 86.884166 181.159078 
L 88.515596 181.159078 
L 90.147026 181.159078 
L 91.778456 181.159078 
L 93.409886 181.159078 
L 95.041316 181.159078 
L 96.672746 181.159078 
L 98.304175 181.159078 
L 99.935605 181.159078 
L 101.567035 181.159078 
L 103.198465 181.159078 
L 104.829895 181.159078 
L 106.461325 181.159078 
L 108.092755 181.159078 
L 109.724185 181.159078 
L 111.355614 181.159078 
L 112.987044 181.159078 
L 114.618474 181.159078 
L 116.249904 181.159078 
L 117.881334 181.159078 
L 119.512764 181.159078 
L 121.144194 181.159078 
L 122.775624 181.159078 
L 124.407053 181.159078 
L 126.038483 181.159078 
L 127.669913 181.159078 
L 129.301343 181.159078 
L 130.932773 181.159078 
L 132.564203 181.159078 
L 134.195633 181.159078 
L 135.827063 181.159078 
L 137.458492 181.159078 
L 139.089922 181.159078 
L 140.721352 181.159078 
L 142.352782 181.159078 
L 143.984212 181.159078 
L 145.615642 181.159078 
L 147.247072 181.159078 
L 148.878502 181.159078 
L 150.509931 181.159078 
L 152.141361 181.159078 
L 153.772791 181.159078 
L 155.404221 181.159078 
L 157.035651 181.159078 
L 158.667081 181.159078 
L 160.298511 181.159078 
L 161.929941 181.159078 
L 163.56137 181.159078 
L 165.1928 181.159078 
L 166.82423 181.159078 
L 168.45566 181.159078 
L 170.08709 181.159078 
L 171.71852 181.159078 
L 173.34995 181.159078 
L 174.98138 181.159078 
L 176.61281 181.159078 
L 178.244239 181.159078 
L 179.875669 181.159078 
L 181.507099 181.159078 
L 183.138529 181.159078 
L 184.769959 181.159078 
L 186.401389 181.159078 
L 188.032819 181.159078 
L 189.664249 181.159078 
L 191.295678 181.159078 
L 192.927108 181.159078 
L 194.558538 181.159078 
L 196.189968 181.159078 
L 197.821398 181.159078 
L 199.452828 181.159078 
L 201.084258 181.159078 
L 202.715688 193.003554 
L 204.347117 204.024862 
L 205.978547 205.396809 
L 207.609977 195.967395 
L 209.241407 204.024862 
L 210.872837 204.024862 
L 212.504267 214.085807 
L 214.135697 222.31749 
L 215.767127 249.299115 
L 217.398556 184.360287 
L 219.029986 204.024862 
L 220.661416 223.689437 
L 222.292846 226.890647 
L 223.924276 225.518699 
L 225.555706 204.024862 
L 227.187136 204.024862 
L 228.818566 181.159078 
L 230.449995 192.59197 
L 232.081425 226.890647 
L 233.712855 204.024862 
L 235.344285 226.890647 
L 236.975715 209.055335 
L 238.607145 204.024862 
L 240.238575 226.890647 
L 241.870005 295.488 
L 243.501434 204.024862 
L 245.132864 203.567546 
L 246.764294 181.159078 
L 248.395724 202.652915 
L 250.027154 181.159078 
L 251.658584 181.159078 
L 253.290014 206.31144 
L 254.921444 181.159078 
L 256.552873 193.049285 
L 258.184303 210.427282 
L 259.815733 181.159078 
L 261.447163 181.159078 
L 263.078593 182.325233 
L 264.710023 194.878548 
L 266.341453 203.567546 
L 267.972883 194.421233 
L 269.604312 181.159078 
L 271.235742 253.414957 
L 272.867172 272.622216 
L 274.498602 181.616393 
L 276.130032 213.628491 
L 277.761462 181.159078 
L 279.392892 199.451705 
L 281.024322 196.250495 
L 282.655751 214.543123 
L 284.287181 223.689437 
L 285.918611 204.024862 
L 287.550041 181.159078 
L 289.181471 192.59197 
L 290.812901 181.159078 
L 292.444331 204.024862 
L 294.075761 183.902972 
L 295.70719 249.756431 
L 297.33862 188.933444 
L 298.97005 181.159078 
L 300.60148 226.890647 
L 302.23291 181.616393 
L 303.86434 204.024862 
L 305.49577 199.451705 
L 307.1272 249.756431 
L 308.75863 257.530798 
L 310.390059 188.476129 
L 312.021489 181.159078 
L 313.652919 194.878548 
L 315.284349 181.159078 
L 316.915779 185.732234 
L 318.547209 201.280968 
L 320.178639 226.890647 
L 321.810069 204.024862 
L 323.441498 266.677112 
L 325.072928 181.159078 
L 326.704358 204.482178 
L 328.335788 181.159078 
L 329.967218 236.494276 
L 331.598648 228.719909 
L 333.230078 233.293066 
L 334.861508 181.159078 
L 336.492937 199.909021 
L 338.124367 237.866223 
L 339.755797 220.488227 
L 341.387227 272.622216 
L 343.018657 243.354011 
L 344.650087 247.927168 
L 346.281517 269.421006 
L 347.912947 226.890647 
L 349.544376 206.768756 
L 351.175806 229.634541 
L 352.807236 184.817603 
L 354.438666 216.372386 
L 356.070096 181.159078 
L 357.701526 182.531025 
L 359.332956 244.725958 
L 360.964386 216.829701 
L 362.595815 182.879456 
L 364.227245 181.159078 
L 365.858675 181.159078 
L 367.490105 235.122329 
L 369.121535 236.494276 
L 370.752965 231.463803 
L 372.384395 208.598019 
L 374.015825 200.366336 
L 375.647254 245.64059 
L 377.278684 210.427282 
L 378.910114 200.823652 
L 380.541544 225.518699 
L 382.172974 204.024862 
L 383.804404 182.531025 
L 385.435834 187.561497 
L 387.067264 204.024862 
L 388.698693 210.884597 
L 390.330123 181.159078 
L 391.961553 195.79318 
L 393.592983 239.466828 
L 395.224413 224.604068 
L 396.855843 198.994389 
L 398.487273 272.622216 
L 398.487273 86.054352 
L 398.487273 86.054352 
L 396.855843 53.568 
L 395.224413 80.72309 
L 393.592983 78.638699 
L 391.961553 77.53473 
L 390.330123 76.926278 
L 388.698693 59.513104 
L 387.067264 76.37662 
L 385.435834 73.133158 
L 383.804404 71.98535 
L 382.172974 70.42335 
L 380.541544 68.682284 
L 378.910114 71.860628 
L 377.278684 69.574049 
L 375.647254 57.226526 
L 374.015825 89.238624 
L 372.384395 110.233571 
L 370.752965 109.469399 
L 369.121535 57.226526 
L 367.490105 93.811781 
L 365.858675 89.69594 
L 364.227245 111.647093 
L 362.595815 110.732461 
L 360.964386 114.072854 
L 359.332956 111.02348 
L 357.701526 109.040393 
L 356.070096 109.086125 
L 354.438666 89.238624 
L 352.807236 100.671516 
L 351.175806 123.177981 
L 349.544376 110.732461 
L 347.912947 113.476355 
L 346.281517 122.484612 
L 344.650087 121.356257 
L 343.018657 121.08035 
L 341.387227 120.793406 
L 339.755797 120.028103 
L 338.124367 112.561724 
L 336.492937 111.647093 
L 334.861508 85.580098 
L 333.230078 118.964144 
L 331.598648 118.27817 
L 329.967218 117.532547 
L 328.335788 115.679786 
L 326.704358 113.650571 
L 325.072928 89.69594 
L 323.441498 117.252141 
L 321.810069 86.952045 
L 320.178639 116.887683 
L 318.547209 89.69594 
L 316.915779 116.481573 
L 315.284349 112.561724 
L 313.652919 112.561724 
L 312.021489 116.134503 
L 310.390059 66.830155 
L 308.75863 117.134881 
L 307.1272 115.715625 
L 305.49577 109.086125 
L 303.86434 108.941308 
L 302.23291 89.69594 
L 300.60148 108.612179 
L 298.97005 107.11749 
L 297.33862 86.037414 
L 295.70719 102.500779 
L 294.075761 112.561724 
L 292.444331 89.69594 
L 290.812901 119.782498 
L 289.181471 97.927622 
L 287.550041 117.592197 
L 285.918611 89.69594 
L 284.287181 97.012991 
L 282.655751 111.608983 
L 281.024322 89.69594 
L 279.392892 66.830155 
L 277.761462 112.561724 
L 276.130032 111.418435 
L 274.498602 105.701989 
L 272.867172 89.69594 
L 271.235742 116.95899 
L 269.604312 115.305618 
L 267.972883 89.69594 
L 266.341453 115.544218 
L 264.710023 113.601078 
L 263.078593 112.561724 
L 261.447163 89.69594 
L 259.815733 112.561724 
L 258.184303 112.561724 
L 256.552873 89.69594 
L 254.921444 115.206202 
L 253.290014 66.830155 
L 251.658584 89.238624 
L 250.027154 112.561724 
L 248.395724 89.69594 
L 246.764294 112.561724 
L 245.132864 120.107433 
L 243.501434 117.592197 
L 241.870005 105.701989 
L 240.238575 155.549399 
L 238.607145 155.549399 
L 236.975715 110.732461 
L 235.344285 112.561724 
L 233.712855 127.195826 
L 232.081425 112.561724 
L 230.449995 134.512877 
L 228.818566 112.561724 
L 227.187136 113.01904 
L 225.555706 112.561724 
L 223.924276 113.476355 
L 222.292846 89.69594 
L 220.661416 133.554692 
L 219.029986 115.762934 
L 217.398556 138.171403 
L 215.767127 147.317716 
L 214.135697 179.329815 
L 212.504267 140.915297 
L 210.872837 153.26282 
L 209.241407 159.207924 
L 207.609977 179.878594 
L 205.978547 159.207924 
L 204.347117 181.159078 
L 202.715688 181.159078 
L 201.084258 181.159078 
L 199.452828 181.159078 
L 197.821398 181.159078 
L 196.189968 181.159078 
L 194.558538 181.159078 
L 192.927108 181.159078 
L 191.295678 181.159078 
L 189.664249 181.159078 
L 188.032819 181.159078 
L 186.401389 181.159078 
L 184.769959 181.159078 
L 183.138529 181.159078 
L 181.507099 181.159078 
L 179.875669 181.159078 
L 178.244239 181.159078 
L 176.61281 181.159078 
L 174.98138 181.159078 
L 173.34995 181.159078 
L 171.71852 181.159078 
L 170.08709 181.159078 
L 168.45566 181.159078 
L 166.82423 181.159078 
L 165.1928 181.159078 
L 163.56137 181.159078 
L 161.929941 181.159078 
L 160.298511 181.159078 
L 158.667081 181.159078 
L 157.035651 181.159078 
L 155.404221 181.159078 
L 153.772791 181.159078 
L 152.141361 181.159078 
L 150.509931 181.159078 
L 148.878502 181.159078 
L 147.247072 181.159078 
L 145.615642 181.159078 
L 143.984212 181.159078 
L 142.352782 181.159078 
L 140.721352 181.159078 
L 139.089922 181.159078 
L 137.458492 181.159078 
L 135.827063 181.159078 
L 134.195633 181.159078 
L 132.564203 181.159078 
L 130.932773 181.159078 
L 129.301343 181.159078 
L 127.669913 181.159078 
L 126.038483 181.159078 
L 124.407053 181.159078 
L 122.775624 181.159078 
L 121.144194 181.159078 
L 119.512764 181.159078 
L 117.881334 181.159078 
L 116.249904 181.159078 
L 114.618474 181.159078 
L 112.987044 181.159078 
L 111.355614 181.159078 
L 109.724185 181.159078 
L 108.092755 181.159078 
L 106.461325 181.159078 
L 104.829895 181.159078 
L 103.198465 181.159078 
L 101.567035 181.159078 
L 99.935605 181.159078 
L 98.304175 181.159078 
L 96.672746 181.159078 
L 95.041316 181.159078 
L 93.409886 181.159078 
L 91.778456 181.159078 
L 90.147026 181.159078 
L 88.515596 181.159078 
L 86.884166 181.159078 
L 85.252736 181.159078 
L 83.621307 181.159078 
L 81.989877 181.159078 
L 80.358447 181.159078 
L 78.727017 181.159078 
L 77.095587 181.159078 
L 75.464157 181.159078 
L 73.832727 181.159078 
z
" style="fill:#1f77b4;fill-opacity:0.1;"/>
   </g>
   <g id="matplotlib.axis_1">
    <g id="xtick_1">
     <g id="line2d_1">
      <defs>
       <path d="M 0 0 
L 0 3.5 
" id="m15ca25946e" style="stroke:#000000;stroke-width:0.8;"/>
      </defs>
      <g>
       <use style="stroke:#000000;stroke-width:0.8;" x="73.832727" xlink:href="#m15ca25946e" y="307.584"/>
      </g>
     </g>
     <g id="text_1">
      <!-- 0 -->
      <defs>
       <path d="M 31.78125 66.40625 
Q 24.171875 66.40625 20.328125 58.90625 
Q 16.5 51.421875 16.5 36.375 
Q 16.5 21.390625 20.328125 13.890625 
Q 24.171875 6.390625 31.78125 6.390625 
Q 39.453125 6.390625 43.28125 13.890625 
Q 47.125 21.390625 47.125 36.375 
Q 47.125 51.421875 43.28125 58.90625 
Q 39.453125 66.40625 31.78125 66.40625 
z
M 31.78125 74.21875 
Q 44.046875 74.21875 50.515625 64.515625 
Q 56.984375 54.828125 56.984375 36.375 
Q 56.984375 17.96875 50.515625 8.265625 
Q 44.046875 -1.421875 31.78125 -1.421875 
Q 19.53125 -1.421875 13.0625 8.265625 
Q 6.59375 17.96875 6.59375 36.375 
Q 6.59375 54.828125 13.0625 64.515625 
Q 19.53125 74.21875 31.78125 74.21875 
z
" id="DejaVuSans-48"/>
      </defs>
      <g transform="translate(70.651477 322.182437)scale(0.1 -0.1)">
       <use xlink:href="#DejaVuSans-48"/>
      </g>
     </g>
    </g>
    <g id="xtick_2">
     <g id="line2d_2">
      <g>
       <use style="stroke:#000000;stroke-width:0.8;" x="114.618474" xlink:href="#m15ca25946e" y="307.584"/>
      </g>
     </g>
     <g id="text_2">
      <!-- 25 -->
      <defs>
       <path d="M 19.1875 8.296875 
L 53.609375 8.296875 
L 53.609375 0 
L 7.328125 0 
L 7.328125 8.296875 
Q 12.9375 14.109375 22.625 23.890625 
Q 32.328125 33.6875 34.8125 36.53125 
Q 39.546875 41.84375 41.421875 45.53125 
Q 43.3125 49.21875 43.3125 52.78125 
Q 43.3125 58.59375 39.234375 62.25 
Q 35.15625 65.921875 28.609375 65.921875 
Q 23.96875 65.921875 18.8125 64.3125 
Q 13.671875 62.703125 7.8125 59.421875 
L 7.8125 69.390625 
Q 13.765625 71.78125 18.9375 73 
Q 24.125 74.21875 28.421875 74.21875 
Q 39.75 74.21875 46.484375 68.546875 
Q 53.21875 62.890625 53.21875 53.421875 
Q 53.21875 48.921875 51.53125 44.890625 
Q 49.859375 40.875 45.40625 35.40625 
Q 44.1875 33.984375 37.640625 27.21875 
Q 31.109375 20.453125 19.1875 8.296875 
z
" id="DejaVuSans-50"/>
       <path d="M 10.796875 72.90625 
L 49.515625 72.90625 
L 49.515625 64.59375 
L 19.828125 64.59375 
L 19.828125 46.734375 
Q 21.96875 47.46875 24.109375 47.828125 
Q 26.265625 48.1875 28.421875 48.1875 
Q 40.625 48.1875 47.75 41.5 
Q 54.890625 34.8125 54.890625 23.390625 
Q 54.890625 11.625 47.5625 5.09375 
Q 40.234375 -1.421875 26.90625 -1.421875 
Q 22.3125 -1.421875 17.546875 -0.640625 
Q 12.796875 0.140625 7.71875 1.703125 
L 7.71875 11.625 
Q 12.109375 9.234375 16.796875 8.0625 
Q 21.484375 6.890625 26.703125 6.890625 
Q 35.15625 6.890625 40.078125 11.328125 
Q 45.015625 15.765625 45.015625 23.390625 
Q 45.015625 31 40.078125 35.4375 
Q 35.15625 39.890625 26.703125 39.890625 
Q 22.75 39.890625 18.8125 39.015625 
Q 14.890625 38.140625 10.796875 36.28125 
z
" id="DejaVuSans-53"/>
      </defs>
      <g transform="translate(108.255974 322.182437)scale(0.1 -0.1)">
       <use xlink:href="#DejaVuSans-50"/>
       <use x="63.623047" xlink:href="#DejaVuSans-53"/>
      </g>
     </g>
    </g>
    <g id="xtick_3">
     <g id="line2d_3">
      <g>
       <use style="stroke:#000000;stroke-width:0.8;" x="155.404221" xlink:href="#m15ca25946e" y="307.584"/>
      </g>
     </g>
     <g id="text_3">
      <!-- 50 -->
      <g transform="translate(149.041721 322.182437)scale(0.1 -0.1)">
       <use xlink:href="#DejaVuSans-53"/>
       <use x="63.623047" xlink:href="#DejaVuSans-48"/>
      </g>
     </g>
    </g>
    <g id="xtick_4">
     <g id="line2d_4">
      <g>
       <use style="stroke:#000000;stroke-width:0.8;" x="196.189968" xlink:href="#m15ca25946e" y="307.584"/>
      </g>
     </g>
     <g id="text_4">
      <!-- 75 -->
      <defs>
       <path d="M 8.203125 72.90625 
L 55.078125 72.90625 
L 55.078125 68.703125 
L 28.609375 0 
L 18.3125 0 
L 43.21875 64.59375 
L 8.203125 64.59375 
z
" id="DejaVuSans-55"/>
      </defs>
      <g transform="translate(189.827468 322.182437)scale(0.1 -0.1)">
       <use xlink:href="#DejaVuSans-55"/>
       <use x="63.623047" xlink:href="#DejaVuSans-53"/>
      </g>
     </g>
    </g>
    <g id="xtick_5">
     <g id="line2d_5">
      <g>
       <use style="stroke:#000000;stroke-width:0.8;" x="236.975715" xlink:href="#m15ca25946e" y="307.584"/>
      </g>
     </g>
     <g id="text_5">
      <!-- 100 -->
      <defs>
       <path d="M 12.40625 8.296875 
L 28.515625 8.296875 
L 28.515625 63.921875 
L 10.984375 60.40625 
L 10.984375 69.390625 
L 28.421875 72.90625 
L 38.28125 72.90625 
L 38.28125 8.296875 
L 54.390625 8.296875 
L 54.390625 0 
L 12.40625 0 
z
" id="DejaVuSans-49"/>
      </defs>
      <g transform="translate(227.431965 322.182437)scale(0.1 -0.1)">
       <use xlink:href="#DejaVuSans-49"/>
       <use x="63.623047" xlink:href="#DejaVuSans-48"/>
       <use x="127.246094" xlink:href="#DejaVuSans-48"/>
      </g>
     </g>
    </g>
    <g id="xtick_6">
     <g id="line2d_6">
      <g>
       <use style="stroke:#000000;stroke-width:0.8;" x="277.761462" xlink:href="#m15ca25946e" y="307.584"/>
      </g>
     </g>
     <g id="text_6">
      <!-- 125 -->
      <g transform="translate(268.217712 322.182437)scale(0.1 -0.1)">
       <use xlink:href="#DejaVuSans-49"/>
       <use x="63.623047" xlink:href="#DejaVuSans-50"/>
       <use x="127.246094" xlink:href="#DejaVuSans-53"/>
      </g>
     </g>
    </g>
    <g id="xtick_7">
     <g id="line2d_7">
      <g>
       <use style="stroke:#000000;stroke-width:0.8;" x="318.547209" xlink:href="#m15ca25946e" y="307.584"/>
      </g>
     </g>
     <g id="text_7">
      <!-- 150 -->
      <g transform="translate(309.003459 322.182437)scale(0.1 -0.1)">
       <use xlink:href="#DejaVuSans-49"/>
       <use x="63.623047" xlink:href="#DejaVuSans-53"/>
       <use x="127.246094" xlink:href="#DejaVuSans-48"/>
      </g>
     </g>
    </g>
    <g id="xtick_8">
     <g id="line2d_8">
      <g>
       <use style="stroke:#000000;stroke-width:0.8;" x="359.332956" xlink:href="#m15ca25946e" y="307.584"/>
      </g>
     </g>
     <g id="text_8">
      <!-- 175 -->
      <g transform="translate(349.789206 322.182437)scale(0.1 -0.1)">
       <use xlink:href="#DejaVuSans-49"/>
       <use x="63.623047" xlink:href="#DejaVuSans-55"/>
       <use x="127.246094" xlink:href="#DejaVuSans-53"/>
      </g>
     </g>
    </g>
    <g id="xtick_9">
     <g id="line2d_9">
      <g>
       <use style="stroke:#000000;stroke-width:0.8;" x="400.118703" xlink:href="#m15ca25946e" y="307.584"/>
      </g>
     </g>
     <g id="text_9">
      <!-- 200 -->
      <g transform="translate(390.574953 322.182437)scale(0.1 -0.1)">
       <use xlink:href="#DejaVuSans-50"/>
       <use x="63.623047" xlink:href="#DejaVuSans-48"/>
       <use x="127.246094" xlink:href="#DejaVuSans-48"/>
      </g>
     </g>
    </g>
   </g>
   <g id="matplotlib.axis_2">
    <g id="ytick_1">
     <g id="line2d_10">
      <defs>
       <path d="M 0 0 
L -3.5 0 
" id="m58396cce97" style="stroke:#000000;stroke-width:0.8;"/>
      </defs>
      <g>
       <use style="stroke:#000000;stroke-width:0.8;" x="57.6" xlink:href="#m58396cce97" y="272.622216"/>
      </g>
     </g>
     <g id="text_10">
      <!-- −0.4 -->
      <defs>
       <path d="M 10.59375 35.5 
L 73.1875 35.5 
L 73.1875 27.203125 
L 10.59375 27.203125 
z
" id="DejaVuSans-8722"/>
       <path d="M 10.6875 12.40625 
L 21 12.40625 
L 21 0 
L 10.6875 0 
z
" id="DejaVuSans-46"/>
       <path d="M 37.796875 64.3125 
L 12.890625 25.390625 
L 37.796875 25.390625 
z
M 35.203125 72.90625 
L 47.609375 72.90625 
L 47.609375 25.390625 
L 58.015625 25.390625 
L 58.015625 17.1875 
L 47.609375 17.1875 
L 47.609375 0 
L 37.796875 0 
L 37.796875 17.1875 
L 4.890625 17.1875 
L 4.890625 26.703125 
z
" id="DejaVuSans-52"/>
      </defs>
      <g transform="translate(26.317187 276.421434)scale(0.1 -0.1)">
       <use xlink:href="#DejaVuSans-8722"/>
       <use x="83.789062" xlink:href="#DejaVuSans-48"/>
       <use x="147.412109" xlink:href="#DejaVuSans-46"/>
       <use x="179.199219" xlink:href="#DejaVuSans-52"/>
      </g>
     </g>
    </g>
    <g id="ytick_2">
     <g id="line2d_11">
      <g>
       <use style="stroke:#000000;stroke-width:0.8;" x="57.6" xlink:href="#m58396cce97" y="226.890647"/>
      </g>
     </g>
     <g id="text_11">
      <!-- −0.2 -->
      <g transform="translate(26.317187 230.689865)scale(0.1 -0.1)">
       <use xlink:href="#DejaVuSans-8722"/>
       <use x="83.789062" xlink:href="#DejaVuSans-48"/>
       <use x="147.412109" xlink:href="#DejaVuSans-46"/>
       <use x="179.199219" xlink:href="#DejaVuSans-50"/>
      </g>
     </g>
    </g>
    <g id="ytick_3">
     <g id="line2d_12">
      <g>
       <use style="stroke:#000000;stroke-width:0.8;" x="57.6" xlink:href="#m58396cce97" y="181.159078"/>
      </g>
     </g>
     <g id="text_12">
      <!-- 0.0 -->
      <g transform="translate(34.696875 184.958296)scale(0.1 -0.1)">
       <use xlink:href="#DejaVuSans-48"/>
       <use x="63.623047" xlink:href="#DejaVuSans-46"/>
       <use x="95.410156" xlink:href="#DejaVuSans-48"/>
      </g>
     </g>
    </g>
    <g id="ytick_4">
     <g id="line2d_13">
      <g>
       <use style="stroke:#000000;stroke-width:0.8;" x="57.6" xlink:href="#m58396cce97" y="135.427509"/>
      </g>
     </g>
     <g id="text_13">
      <!-- 0.2 -->
      <g transform="translate(34.696875 139.226727)scale(0.1 -0.1)">
       <use xlink:href="#DejaVuSans-48"/>
       <use x="63.623047" xlink:href="#DejaVuSans-46"/>
       <use x="95.410156" xlink:href="#DejaVuSans-50"/>
      </g>
     </g>
    </g>
    <g id="ytick_5">
     <g id="line2d_14">
      <g>
       <use style="stroke:#000000;stroke-width:0.8;" x="57.6" xlink:href="#m58396cce97" y="89.69594"/>
      </g>
     </g>
     <g id="text_14">
      <!-- 0.4 -->
      <g transform="translate(34.696875 93.495158)scale(0.1 -0.1)">
       <use xlink:href="#DejaVuSans-48"/>
       <use x="63.623047" xlink:href="#DejaVuSans-46"/>
       <use x="95.410156" xlink:href="#DejaVuSans-52"/>
      </g>
     </g>
    </g>
    <g id="ytick_6">
     <g id="line2d_15">
      <g>
       <use style="stroke:#000000;stroke-width:0.8;" x="57.6" xlink:href="#m58396cce97" y="43.964371"/>
      </g>
     </g>
     <g id="text_15">
      <!-- 0.6 -->
      <defs>
       <path d="M 33.015625 40.375 
Q 26.375 40.375 22.484375 35.828125 
Q 18.609375 31.296875 18.609375 23.390625 
Q 18.609375 15.53125 22.484375 10.953125 
Q 26.375 6.390625 33.015625 6.390625 
Q 39.65625 6.390625 43.53125 10.953125 
Q 47.40625 15.53125 47.40625 23.390625 
Q 47.40625 31.296875 43.53125 35.828125 
Q 39.65625 40.375 33.015625 40.375 
z
M 52.59375 71.296875 
L 52.59375 62.3125 
Q 48.875 64.0625 45.09375 64.984375 
Q 41.3125 65.921875 37.59375 65.921875 
Q 27.828125 65.921875 22.671875 59.328125 
Q 17.53125 52.734375 16.796875 39.40625 
Q 19.671875 43.65625 24.015625 45.921875 
Q 28.375 48.1875 33.59375 48.1875 
Q 44.578125 48.1875 50.953125 41.515625 
Q 57.328125 34.859375 57.328125 23.390625 
Q 57.328125 12.15625 50.6875 5.359375 
Q 44.046875 -1.421875 33.015625 -1.421875 
Q 20.359375 -1.421875 13.671875 8.265625 
Q 6.984375 17.96875 6.984375 36.375 
Q 6.984375 53.65625 15.1875 63.9375 
Q 23.390625 74.21875 37.203125 74.21875 
Q 40.921875 74.21875 44.703125 73.484375 
Q 48.484375 72.75 52.59375 71.296875 
z
" id="DejaVuSans-54"/>
      </defs>
      <g transform="translate(34.696875 47.763589)scale(0.1 -0.1)">
       <use xlink:href="#DejaVuSans-48"/>
       <use x="63.623047" xlink:href="#DejaVuSans-46"/>
       <use x="95.410156" xlink:href="#DejaVuSans-54"/>
      </g>
     </g>
    </g>
   </g>
   <g id="line2d_16">
    <path clip-path="url(#p22dbb9bfc3)" d="M 73.832727 181.159078 
L 222.292846 181.159078 
L 223.924276 161.265845 
L 225.555706 161.494503 
L 227.187136 158.293293 
L 228.818566 181.159078 
L 230.449995 181.159078 
L 232.081425 158.750609 
L 233.712855 173.077928 
L 235.344285 181.159078 
L 236.975715 159.893898 
L 238.607145 173.722253 
L 240.238575 181.159078 
L 241.870005 134.055561 
L 243.501434 181.159078 
L 245.132864 181.159078 
L 246.764294 159.207924 
L 248.395724 169.875996 
L 250.027154 164.15608 
L 251.658584 117.058662 
L 253.290014 114.903616 
L 254.921444 158.293293 
L 256.552873 143.659191 
L 258.184303 157.378662 
L 259.815733 119.878775 
L 263.078593 152.576847 
L 264.710023 149.146979 
L 266.341453 174.756658 
L 267.972883 138.171403 
L 269.604312 156.006715 
L 271.235742 158.293293 
L 272.867172 158.293293 
L 274.498602 137.028113 
L 276.130032 164.213543 
L 277.761462 137.028113 
L 279.392892 158.293293 
L 281.024322 153.720136 
L 282.655751 163.662179 
L 284.287181 181.159078 
L 285.918611 180.244446 
L 287.550041 166.99847 
L 289.181471 158.293293 
L 290.812901 162.86645 
L 292.444331 179.78713 
L 294.075761 171.555448 
L 295.70719 124.451932 
L 297.33862 158.293293 
L 298.97005 128.453444 
L 300.60148 156.46403 
L 302.23291 127.891154 
L 303.86434 158.293293 
L 305.49577 165.095864 
L 307.1272 181.159078 
L 308.75863 166.06766 
L 310.390059 134.512877 
L 312.021489 155.320741 
L 313.652919 158.293293 
L 315.284349 140.915297 
L 316.915779 150.747584 
L 318.547209 178.415183 
L 320.178639 181.159078 
L 321.810069 136.34214 
L 323.441498 158.293293 
L 325.072928 162.533857 
L 326.704358 158.293293 
L 328.335788 158.293293 
L 329.967218 167.080701 
L 331.598648 138.857376 
L 333.230078 152.119531 
L 336.492937 129.558624 
L 338.124367 168.492438 
L 339.755797 180.701762 
L 341.387227 170.488378 
L 343.018657 149.375637 
L 344.650087 179.329815 
L 346.281517 181.159078 
L 347.912947 159.436582 
L 349.544376 140.915297 
L 351.175806 141.372612 
L 352.807236 158.750609 
L 354.438666 115.762934 
L 356.070096 157.607319 
L 357.701526 157.835977 
L 359.332956 159.207924 
L 360.964386 181.159078 
L 362.595815 143.201875 
L 364.227245 135.427509 
L 365.858675 122.470231 
L 367.490105 120.296457 
L 369.121535 180.244446 
L 370.752965 162.409134 
L 372.384395 176.814578 
L 374.015825 128.110457 
L 375.647254 158.293293 
L 377.278684 162.86645 
L 378.910114 122.00922 
L 380.541544 140.915297 
L 382.172974 117.134881 
L 383.804404 134.512877 
L 385.435834 158.064635 
L 387.067264 172.927395 
L 388.698693 113.786677 
L 390.330123 125.67144 
L 391.961553 122.165353 
L 393.592983 163.43265 
L 395.224413 167.013472 
L 396.855843 168.354238 
L 398.487273 177.957868 
L 398.487273 177.957868 
" style="fill:none;stroke:#1f77b4;stroke-linecap:square;stroke-width:0.25;"/>
   </g>
   <g id="line2d_17">
    <path clip-path="url(#p22dbb9bfc3)" d="M 73.832727 181.159078 
L 201.084258 181.159078 
L 202.715688 181.395967 
L 204.347117 182.737339 
L 205.978547 183.302688 
L 207.609977 181.517586 
L 209.241407 182.080946 
L 210.872837 180.964109 
L 212.504267 181.776547 
L 214.135697 183.049901 
L 215.767127 182.404885 
L 217.398556 177.184302 
L 219.029986 169.518346 
L 220.661416 175.273525 
L 222.292846 167.278288 
L 223.924276 164.298497 
L 225.555706 162.829247 
L 227.187136 156.868363 
L 228.818566 174.773414 
L 230.449995 172.992879 
L 232.081425 164.99951 
L 233.712855 170.235075 
L 235.344285 174.700071 
L 236.975715 164.355457 
L 238.607145 172.451426 
L 240.238575 179.142262 
L 241.870005 142.371333 
L 243.501434 177.429449 
L 245.132864 170.153881 
L 246.764294 158.849404 
L 248.395724 150.480313 
L 250.027154 152.791321 
L 251.658584 128.033644 
L 253.290014 121.057957 
L 254.921444 155.564235 
L 256.552873 141.454682 
L 258.184303 148.909644 
L 259.815733 131.801416 
L 261.447163 138.057316 
L 263.078593 145.670653 
L 264.710023 156.383946 
L 266.341453 169.054585 
L 267.972883 141.631815 
L 269.604312 156.920414 
L 271.235742 164.439814 
L 272.867172 152.812701 
L 274.498602 147.963526 
L 276.130032 151.472741 
L 277.761462 148.460357 
L 279.392892 141.902728 
L 281.024322 139.892947 
L 282.655751 166.812033 
L 284.287181 175.622154 
L 285.918611 155.812551 
L 287.550041 158.577736 
L 289.181471 158.57248 
L 290.812901 161.528828 
L 292.444331 151.042444 
L 294.075761 157.85983 
L 295.70719 140.470097 
L 297.33862 148.361474 
L 298.97005 139.912499 
L 300.60148 157.76143 
L 302.23291 130.082396 
L 303.86434 153.786193 
L 305.49577 157.721245 
L 307.1272 168.260431 
L 308.75863 167.801426 
L 310.390059 126.413646 
L 312.021489 155.876992 
L 313.652919 147.034668 
L 315.284349 145.00449 
L 316.915779 155.78567 
L 318.547209 156.629835 
L 320.178639 170.281154 
L 321.810069 135.039492 
L 323.441498 162.78244 
L 325.072928 141.610195 
L 326.704358 163.678207 
L 328.335788 162.172827 
L 329.967218 167.606163 
L 331.598648 154.652349 
L 333.230078 151.003269 
L 334.861508 146.212227 
L 336.492937 137.36236 
L 338.124367 151.610202 
L 339.755797 163.332377 
L 341.387227 169.692932 
L 343.018657 156.765747 
L 344.650087 166.511496 
L 346.281517 177.010646 
L 347.912947 165.116587 
L 349.544376 142.437656 
L 351.175806 154.85681 
L 352.807236 161.707131 
L 354.438666 121.432879 
L 356.070096 142.643066 
L 357.701526 152.813658 
L 359.332956 164.099458 
L 360.964386 176.858996 
L 362.595815 147.500537 
L 364.227245 137.531324 
L 365.858675 122.158283 
L 367.490105 134.2121 
L 369.121535 142.623416 
L 370.752965 162.733113 
L 372.384395 162.695347 
L 374.015825 135.693845 
L 375.647254 135.241696 
L 377.278684 139.166416 
L 378.910114 125.702866 
L 380.541544 145.244978 
L 382.172974 127.414753 
L 383.804404 134.906488 
L 385.435834 153.89931 
L 387.067264 165.95311 
L 388.698693 128.096506 
L 390.330123 134.266394 
L 391.961553 129.941157 
L 393.592983 151.845088 
L 395.224413 163.367894 
L 396.855843 140.985538 
L 398.487273 164.560019 
L 398.487273 164.560019 
" style="fill:none;stroke:#2ca02c;stroke-linecap:square;stroke-width:0.75;"/>
   </g>
   <g id="patch_3">
    <path d="M 57.6 307.584 
L 57.6 41.472 
" style="fill:none;stroke:#000000;stroke-linecap:square;stroke-linejoin:miter;stroke-width:0.8;"/>
   </g>
   <g id="patch_4">
    <path d="M 414.72 307.584 
L 414.72 41.472 
" style="fill:none;stroke:#000000;stroke-linecap:square;stroke-linejoin:miter;stroke-width:0.8;"/>
   </g>
   <g id="patch_5">
    <path d="M 57.6 307.584 
L 414.72 307.584 
" style="fill:none;stroke:#000000;stroke-linecap:square;stroke-linejoin:miter;stroke-width:0.8;"/>
   </g>
   <g id="patch_6">
    <path d="M 57.6 41.472 
L 414.72 41.472 
" style="fill:none;stroke:#000000;stroke-linecap:square;stroke-linejoin:miter;stroke-width:0.8;"/>
   </g>
   <g id="legend_1">
    <g id="patch_7">
     <path d="M 338.234063 78.82825 
L 407.72 78.82825 
Q 409.72 78.82825 409.72 76.82825 
L 409.72 48.472 
Q 409.72 46.472 407.72 46.472 
L 338.234063 46.472 
Q 336.234063 46.472 336.234063 48.472 
L 336.234063 76.82825 
Q 336.234063 78.82825 338.234063 78.82825 
z
" style="fill:#ffffff;opacity:0.8;stroke:#cccccc;stroke-linejoin:miter;"/>
    </g>
    <g id="line2d_18">
     <path d="M 340.234063 54.570437 
L 360.234063 54.570437 
" style="fill:none;stroke:#1f77b4;stroke-linecap:square;stroke-width:0.25;"/>
    </g>
    <g id="line2d_19"/>
    <g id="text_16">
     <!-- median -->
     <defs>
      <path d="M 52 44.1875 
Q 55.375 50.25 60.0625 53.125 
Q 64.75 56 71.09375 56 
Q 79.640625 56 84.28125 50.015625 
Q 88.921875 44.046875 88.921875 33.015625 
L 88.921875 0 
L 79.890625 0 
L 79.890625 32.71875 
Q 79.890625 40.578125 77.09375 44.375 
Q 74.3125 48.1875 68.609375 48.1875 
Q 61.625 48.1875 57.5625 43.546875 
Q 53.515625 38.921875 53.515625 30.90625 
L 53.515625 0 
L 44.484375 0 
L 44.484375 32.71875 
Q 44.484375 40.625 41.703125 44.40625 
Q 38.921875 48.1875 33.109375 48.1875 
Q 26.21875 48.1875 22.15625 43.53125 
Q 18.109375 38.875 18.109375 30.90625 
L 18.109375 0 
L 9.078125 0 
L 9.078125 54.6875 
L 18.109375 54.6875 
L 18.109375 46.1875 
Q 21.1875 51.21875 25.484375 53.609375 
Q 29.78125 56 35.6875 56 
Q 41.65625 56 45.828125 52.96875 
Q 50 49.953125 52 44.1875 
z
" id="DejaVuSans-109"/>
      <path d="M 56.203125 29.59375 
L 56.203125 25.203125 
L 14.890625 25.203125 
Q 15.484375 15.921875 20.484375 11.0625 
Q 25.484375 6.203125 34.421875 6.203125 
Q 39.59375 6.203125 44.453125 7.46875 
Q 49.3125 8.734375 54.109375 11.28125 
L 54.109375 2.78125 
Q 49.265625 0.734375 44.1875 -0.34375 
Q 39.109375 -1.421875 33.890625 -1.421875 
Q 20.796875 -1.421875 13.15625 6.1875 
Q 5.515625 13.8125 5.515625 26.8125 
Q 5.515625 40.234375 12.765625 48.109375 
Q 20.015625 56 32.328125 56 
Q 43.359375 56 49.78125 48.890625 
Q 56.203125 41.796875 56.203125 29.59375 
z
M 47.21875 32.234375 
Q 47.125 39.59375 43.09375 43.984375 
Q 39.0625 48.390625 32.421875 48.390625 
Q 24.90625 48.390625 20.390625 44.140625 
Q 15.875 39.890625 15.1875 32.171875 
z
" id="DejaVuSans-101"/>
      <path d="M 45.40625 46.390625 
L 45.40625 75.984375 
L 54.390625 75.984375 
L 54.390625 0 
L 45.40625 0 
L 45.40625 8.203125 
Q 42.578125 3.328125 38.25 0.953125 
Q 33.9375 -1.421875 27.875 -1.421875 
Q 17.96875 -1.421875 11.734375 6.484375 
Q 5.515625 14.40625 5.515625 27.296875 
Q 5.515625 40.1875 11.734375 48.09375 
Q 17.96875 56 27.875 56 
Q 33.9375 56 38.25 53.625 
Q 42.578125 51.265625 45.40625 46.390625 
z
M 14.796875 27.296875 
Q 14.796875 17.390625 18.875 11.75 
Q 22.953125 6.109375 30.078125 6.109375 
Q 37.203125 6.109375 41.296875 11.75 
Q 45.40625 17.390625 45.40625 27.296875 
Q 45.40625 37.203125 41.296875 42.84375 
Q 37.203125 48.484375 30.078125 48.484375 
Q 22.953125 48.484375 18.875 42.84375 
Q 14.796875 37.203125 14.796875 27.296875 
z
" id="DejaVuSans-100"/>
      <path d="M 9.421875 54.6875 
L 18.40625 54.6875 
L 18.40625 0 
L 9.421875 0 
z
M 9.421875 75.984375 
L 18.40625 75.984375 
L 18.40625 64.59375 
L 9.421875 64.59375 
z
" id="DejaVuSans-105"/>
      <path d="M 34.28125 27.484375 
Q 23.390625 27.484375 19.1875 25 
Q 14.984375 22.515625 14.984375 16.5 
Q 14.984375 11.71875 18.140625 8.90625 
Q 21.296875 6.109375 26.703125 6.109375 
Q 34.1875 6.109375 38.703125 11.40625 
Q 43.21875 16.703125 43.21875 25.484375 
L 43.21875 27.484375 
z
M 52.203125 31.203125 
L 52.203125 0 
L 43.21875 0 
L 43.21875 8.296875 
Q 40.140625 3.328125 35.546875 0.953125 
Q 30.953125 -1.421875 24.3125 -1.421875 
Q 15.921875 -1.421875 10.953125 3.296875 
Q 6 8.015625 6 15.921875 
Q 6 25.140625 12.171875 29.828125 
Q 18.359375 34.515625 30.609375 34.515625 
L 43.21875 34.515625 
L 43.21875 35.40625 
Q 43.21875 41.609375 39.140625 45 
Q 35.0625 48.390625 27.6875 48.390625 
Q 23 48.390625 18.546875 47.265625 
Q 14.109375 46.140625 10.015625 43.890625 
L 10.015625 52.203125 
Q 14.9375 54.109375 19.578125 55.046875 
Q 24.21875 56 28.609375 56 
Q 40.484375 56 46.34375 49.84375 
Q 52.203125 43.703125 52.203125 31.203125 
z
" id="DejaVuSans-97"/>
      <path d="M 54.890625 33.015625 
L 54.890625 0 
L 45.90625 0 
L 45.90625 32.71875 
Q 45.90625 40.484375 42.875 44.328125 
Q 39.84375 48.1875 33.796875 48.1875 
Q 26.515625 48.1875 22.3125 43.546875 
Q 18.109375 38.921875 18.109375 30.90625 
L 18.109375 0 
L 9.078125 0 
L 9.078125 54.6875 
L 18.109375 54.6875 
L 18.109375 46.1875 
Q 21.34375 51.125 25.703125 53.5625 
Q 30.078125 56 35.796875 56 
Q 45.21875 56 50.046875 50.171875 
Q 54.890625 44.34375 54.890625 33.015625 
z
" id="DejaVuSans-110"/>
     </defs>
     <g transform="translate(368.234063 58.070437)scale(0.1 -0.1)">
      <use xlink:href="#DejaVuSans-109"/>
      <use x="97.412109" xlink:href="#DejaVuSans-101"/>
      <use x="158.935547" xlink:href="#DejaVuSans-100"/>
      <use x="222.412109" xlink:href="#DejaVuSans-105"/>
      <use x="250.195312" xlink:href="#DejaVuSans-97"/>
      <use x="311.474609" xlink:href="#DejaVuSans-110"/>
     </g>
    </g>
    <g id="line2d_20">
     <path d="M 340.234063 69.248562 
L 360.234063 69.248562 
" style="fill:none;stroke:#2ca02c;stroke-linecap:square;stroke-width:0.75;"/>
    </g>
    <g id="line2d_21"/>
    <g id="text_17">
     <!-- mean -->
     <g transform="translate(368.234063 72.748562)scale(0.1 -0.1)">
      <use xlink:href="#DejaVuSans-109"/>
      <use x="97.412109" xlink:href="#DejaVuSans-101"/>
      <use x="158.935547" xlink:href="#DejaVuSans-97"/>
      <use x="220.214844" xlink:href="#DejaVuSans-110"/>
     </g>
    </g>
   </g>
  </g>
  <g id="text_18">
   <!-- kappa.mean over generations -->
   <defs>
    <path d="M 9.078125 75.984375 
L 18.109375 75.984375 
L 18.109375 31.109375 
L 44.921875 54.6875 
L 56.390625 54.6875 
L 27.390625 29.109375 
L 57.625 0 
L 45.90625 0 
L 18.109375 26.703125 
L 18.109375 0 
L 9.078125 0 
z
" id="DejaVuSans-107"/>
    <path d="M 18.109375 8.203125 
L 18.109375 -20.796875 
L 9.078125 -20.796875 
L 9.078125 54.6875 
L 18.109375 54.6875 
L 18.109375 46.390625 
Q 20.953125 51.265625 25.265625 53.625 
Q 29.59375 56 35.59375 56 
Q 45.5625 56 51.78125 48.09375 
Q 58.015625 40.1875 58.015625 27.296875 
Q 58.015625 14.40625 51.78125 6.484375 
Q 45.5625 -1.421875 35.59375 -1.421875 
Q 29.59375 -1.421875 25.265625 0.953125 
Q 20.953125 3.328125 18.109375 8.203125 
z
M 48.6875 27.296875 
Q 48.6875 37.203125 44.609375 42.84375 
Q 40.53125 48.484375 33.40625 48.484375 
Q 26.265625 48.484375 22.1875 42.84375 
Q 18.109375 37.203125 18.109375 27.296875 
Q 18.109375 17.390625 22.1875 11.75 
Q 26.265625 6.109375 33.40625 6.109375 
Q 40.53125 6.109375 44.609375 11.75 
Q 48.6875 17.390625 48.6875 27.296875 
z
" id="DejaVuSans-112"/>
    <path id="DejaVuSans-32"/>
    <path d="M 30.609375 48.390625 
Q 23.390625 48.390625 19.1875 42.75 
Q 14.984375 37.109375 14.984375 27.296875 
Q 14.984375 17.484375 19.15625 11.84375 
Q 23.34375 6.203125 30.609375 6.203125 
Q 37.796875 6.203125 41.984375 11.859375 
Q 46.1875 17.53125 46.1875 27.296875 
Q 46.1875 37.015625 41.984375 42.703125 
Q 37.796875 48.390625 30.609375 48.390625 
z
M 30.609375 56 
Q 42.328125 56 49.015625 48.375 
Q 55.71875 40.765625 55.71875 27.296875 
Q 55.71875 13.875 49.015625 6.21875 
Q 42.328125 -1.421875 30.609375 -1.421875 
Q 18.84375 -1.421875 12.171875 6.21875 
Q 5.515625 13.875 5.515625 27.296875 
Q 5.515625 40.765625 12.171875 48.375 
Q 18.84375 56 30.609375 56 
z
" id="DejaVuSans-111"/>
    <path d="M 2.984375 54.6875 
L 12.5 54.6875 
L 29.59375 8.796875 
L 46.6875 54.6875 
L 56.203125 54.6875 
L 35.6875 0 
L 23.484375 0 
z
" id="DejaVuSans-118"/>
    <path d="M 41.109375 46.296875 
Q 39.59375 47.171875 37.8125 47.578125 
Q 36.03125 48 33.890625 48 
Q 26.265625 48 22.1875 43.046875 
Q 18.109375 38.09375 18.109375 28.8125 
L 18.109375 0 
L 9.078125 0 
L 9.078125 54.6875 
L 18.109375 54.6875 
L 18.109375 46.1875 
Q 20.953125 51.171875 25.484375 53.578125 
Q 30.03125 56 36.53125 56 
Q 37.453125 56 38.578125 55.875 
Q 39.703125 55.765625 41.0625 55.515625 
z
" id="DejaVuSans-114"/>
    <path d="M 45.40625 27.984375 
Q 45.40625 37.75 41.375 43.109375 
Q 37.359375 48.484375 30.078125 48.484375 
Q 22.859375 48.484375 18.828125 43.109375 
Q 14.796875 37.75 14.796875 27.984375 
Q 14.796875 18.265625 18.828125 12.890625 
Q 22.859375 7.515625 30.078125 7.515625 
Q 37.359375 7.515625 41.375 12.890625 
Q 45.40625 18.265625 45.40625 27.984375 
z
M 54.390625 6.78125 
Q 54.390625 -7.171875 48.1875 -13.984375 
Q 42 -20.796875 29.203125 -20.796875 
Q 24.46875 -20.796875 20.265625 -20.09375 
Q 16.0625 -19.390625 12.109375 -17.921875 
L 12.109375 -9.1875 
Q 16.0625 -11.328125 19.921875 -12.34375 
Q 23.78125 -13.375 27.78125 -13.375 
Q 36.625 -13.375 41.015625 -8.765625 
Q 45.40625 -4.15625 45.40625 5.171875 
L 45.40625 9.625 
Q 42.625 4.78125 38.28125 2.390625 
Q 33.9375 0 27.875 0 
Q 17.828125 0 11.671875 7.65625 
Q 5.515625 15.328125 5.515625 27.984375 
Q 5.515625 40.671875 11.671875 48.328125 
Q 17.828125 56 27.875 56 
Q 33.9375 56 38.28125 53.609375 
Q 42.625 51.21875 45.40625 46.390625 
L 45.40625 54.6875 
L 54.390625 54.6875 
z
" id="DejaVuSans-103"/>
    <path d="M 18.3125 70.21875 
L 18.3125 54.6875 
L 36.8125 54.6875 
L 36.8125 47.703125 
L 18.3125 47.703125 
L 18.3125 18.015625 
Q 18.3125 11.328125 20.140625 9.421875 
Q 21.96875 7.515625 27.59375 7.515625 
L 36.8125 7.515625 
L 36.8125 0 
L 27.59375 0 
Q 17.1875 0 13.234375 3.875 
Q 9.28125 7.765625 9.28125 18.015625 
L 9.28125 47.703125 
L 2.6875 47.703125 
L 2.6875 54.6875 
L 9.28125 54.6875 
L 9.28125 70.21875 
z
" id="DejaVuSans-116"/>
    <path d="M 44.28125 53.078125 
L 44.28125 44.578125 
Q 40.484375 46.53125 36.375 47.5 
Q 32.28125 48.484375 27.875 48.484375 
Q 21.1875 48.484375 17.84375 46.4375 
Q 14.5 44.390625 14.5 40.28125 
Q 14.5 37.15625 16.890625 35.375 
Q 19.28125 33.59375 26.515625 31.984375 
L 29.59375 31.296875 
Q 39.15625 29.25 43.1875 25.515625 
Q 47.21875 21.78125 47.21875 15.09375 
Q 47.21875 7.46875 41.1875 3.015625 
Q 35.15625 -1.421875 24.609375 -1.421875 
Q 20.21875 -1.421875 15.453125 -0.5625 
Q 10.6875 0.296875 5.421875 2 
L 5.421875 11.28125 
Q 10.40625 8.6875 15.234375 7.390625 
Q 20.0625 6.109375 24.8125 6.109375 
Q 31.15625 6.109375 34.5625 8.28125 
Q 37.984375 10.453125 37.984375 14.40625 
Q 37.984375 18.0625 35.515625 20.015625 
Q 33.0625 21.96875 24.703125 23.78125 
L 21.578125 24.515625 
Q 13.234375 26.265625 9.515625 29.90625 
Q 5.8125 33.546875 5.8125 39.890625 
Q 5.8125 47.609375 11.28125 51.796875 
Q 16.75 56 26.8125 56 
Q 31.78125 56 36.171875 55.265625 
Q 40.578125 54.546875 44.28125 53.078125 
z
" id="DejaVuSans-115"/>
   </defs>
   <g transform="translate(140.184375 16.030125)scale(0.12 -0.12)">
    <use xlink:href="#DejaVuSans-107"/>
    <use x="56.160156" xlink:href="#DejaVuSans-97"/>
    <use x="117.439453" xlink:href="#DejaVuSans-112"/>
    <use x="180.916016" xlink:href="#DejaVuSans-112"/>
    <use x="244.392578" xlink:href="#DejaVuSans-97"/>
    <use x="305.671875" xlink:href="#DejaVuSans-46"/>
    <use x="337.458984" xlink:href="#DejaVuSans-109"/>
    <use x="434.871094" xlink:href="#DejaVuSans-101"/>
    <use x="496.394531" xlink:href="#DejaVuSans-97"/>
    <use x="557.673828" xlink:href="#DejaVuSans-110"/>
    <use x="621.052734" xlink:href="#DejaVuSans-32"/>
    <use x="652.839844" xlink:href="#DejaVuSans-111"/>
    <use x="714.021484" xlink:href="#DejaVuSans-118"/>
    <use x="773.201172" xlink:href="#DejaVuSans-101"/>
    <use x="834.724609" xlink:href="#DejaVuSans-114"/>
    <use x="875.837891" xlink:href="#DejaVuSans-32"/>
    <use x="907.625" xlink:href="#DejaVuSans-103"/>
    <use x="971.101562" xlink:href="#DejaVuSans-101"/>
    <use x="1032.625" xlink:href="#DejaVuSans-110"/>
    <use x="1096.003906" xlink:href="#DejaVuSans-101"/>
    <use x="1157.527344" xlink:href="#DejaVuSans-114"/>
    <use x="1198.640625" xlink:href="#DejaVuSans-97"/>
    <use x="1259.919922" xlink:href="#DejaVuSans-116"/>
    <use x="1299.128906" xlink:href="#DejaVuSans-105"/>
    <use x="1326.912109" xlink:href="#DejaVuSans-111"/>
    <use x="1388.09375" xlink:href="#DejaVuSans-110"/>
    <use x="1451.472656" xlink:href="#DejaVuSans-115"/>
   </g>
  </g>
 </g>
 <defs>
  <clipPath id="p22dbb9bfc3">
   <rect height="266.112" width="357.12" x="57.6" y="41.472"/>
  </clipPath>
 </defs>
</svg>
