<?xml version="1.0" encoding="utf-8" standalone="no"?>
<!DOCTYPE svg PUBLIC "-//W3C//DTD SVG 1.1//EN"
  "http://www.w3.org/Graphics/SVG/1.1/DTD/svg11.dtd">
<!-- Created with matplotlib (https://matplotlib.org/) -->
<svg height="345.6pt" version="1.1" viewBox="0 0 460.8 345.6" width="460.8pt" xmlns="http://www.w3.org/2000/svg" xmlns:xlink="http://www.w3.org/1999/xlink">
 <defs>
  <style type="text/css">
*{stroke-linecap:butt;stroke-linejoin:round;}
  </style>
 </defs>
 <g id="figure_1">
  <g id="patch_1">
   <path d="M 0 345.6 
L 460.8 345.6 
L 460.8 0 
L 0 0 
z
" style="fill:#ffffff;"/>
  </g>
  <g id="axes_1">
   <g id="patch_2">
    <path d="M 57.6 307.584 
L 414.72 307.584 
L 414.72 41.472 
L 57.6 41.472 
z
" style="fill:#ffffff;"/>
   </g>
   <g id="PolyCollection_1">
    <path clip-path="url(#p39c50b1322)" d="M 73.832727 288.036894 
L 73.832727 288.426779 
L 75.464157 288.426779 
L 77.095587 288.426779 
L 78.727017 288.426779 
L 80.358447 288.426779 
L 81.989877 288.426779 
L 83.621307 288.426779 
L 85.252736 288.426779 
L 86.884166 288.426779 
L 88.515596 288.426779 
L 90.147026 288.426779 
L 91.778456 288.426779 
L 93.409886 288.426779 
L 95.041316 288.426779 
L 96.672746 288.426779 
L 98.304175 288.426779 
L 99.935605 288.426779 
L 101.567035 288.426779 
L 103.198465 288.426779 
L 104.829895 288.426779 
L 106.461325 288.426779 
L 108.092755 288.426779 
L 109.724185 288.426779 
L 111.355614 288.426779 
L 112.987044 288.426779 
L 114.618474 288.426779 
L 116.249904 288.426779 
L 117.881334 288.426779 
L 119.512764 288.426779 
L 121.144194 288.426779 
L 122.775624 288.426779 
L 124.407053 288.426779 
L 126.038483 288.426779 
L 127.669913 288.426779 
L 129.301343 288.426779 
L 130.932773 288.426779 
L 132.564203 288.426779 
L 134.195633 288.426779 
L 135.827063 288.426779 
L 137.458492 288.426779 
L 139.089922 288.426779 
L 140.721352 288.426779 
L 142.352782 288.426779 
L 143.984212 288.426779 
L 145.615642 288.426779 
L 147.247072 288.426779 
L 148.878502 288.426779 
L 150.509931 288.426779 
L 152.141361 288.426779 
L 153.772791 288.426779 
L 155.404221 288.426779 
L 157.035651 288.426779 
L 158.667081 288.426779 
L 160.298511 288.426779 
L 161.929941 288.426779 
L 163.56137 288.426779 
L 165.1928 288.426779 
L 166.82423 288.426779 
L 168.45566 288.426779 
L 170.08709 288.426779 
L 171.71852 288.426779 
L 173.34995 288.426779 
L 174.98138 288.426779 
L 176.61281 288.426779 
L 178.244239 288.426779 
L 179.875669 288.426779 
L 181.507099 288.426779 
L 183.138529 288.426779 
L 184.769959 288.426779 
L 186.401389 288.426779 
L 188.032819 288.426779 
L 189.664249 288.426779 
L 191.295678 288.426779 
L 192.927108 288.426779 
L 194.558538 288.426779 
L 196.189968 288.426779 
L 197.821398 288.426779 
L 199.452828 288.426779 
L 201.084258 288.426779 
L 202.715688 288.426779 
L 204.347117 288.307515 
L 205.978547 288.426779 
L 207.609977 288.234472 
L 209.241407 288.339869 
L 210.872837 288.426779 
L 212.504267 288.426779 
L 214.135697 288.251632 
L 215.767127 288.426779 
L 217.398556 288.175914 
L 219.029986 288.438935 
L 220.661416 288.57918 
L 222.292846 288.822212 
L 223.924276 288.648242 
L 225.555706 288.708506 
L 227.187136 288.756851 
L 228.818566 288.770649 
L 230.449995 289.087213 
L 232.081425 288.391961 
L 233.712855 288.833115 
L 235.344285 288.425205 
L 236.975715 289.837188 
L 238.607145 288.867169 
L 240.238575 288.657964 
L 241.870005 289.128264 
L 243.501434 288.719331 
L 245.132864 288.712236 
L 246.764294 288.033923 
L 248.395724 290.25343 
L 250.027154 291.317642 
L 251.658584 293.417809 
L 253.290014 290.987761 
L 254.921444 289.454676 
L 256.552873 290.221396 
L 258.184303 290.862676 
L 259.815733 291.149804 
L 261.447163 292.517777 
L 263.078593 291.320272 
L 264.710023 291.132864 
L 266.341453 289.659477 
L 267.972883 291.03339 
L 269.604312 290.533468 
L 271.235742 289.262467 
L 272.867172 286.710135 
L 274.498602 289.955455 
L 276.130032 291.904467 
L 277.761462 290.351311 
L 279.392892 289.804924 
L 281.024322 291.974099 
L 282.655751 289.873855 
L 284.287181 288.426779 
L 285.918611 288.349718 
L 287.550041 291.200305 
L 289.181471 289.551981 
L 290.812901 289.304776 
L 292.444331 289.319829 
L 294.075761 290.26183 
L 295.70719 290.244696 
L 297.33862 288.240002 
L 298.97005 291.408905 
L 300.60148 291.358526 
L 302.23291 292.064254 
L 303.86434 290.058916 
L 305.49577 288.43623 
L 307.1272 290.352822 
L 308.75863 289.390944 
L 310.390059 291.418648 
L 312.021489 290.07199 
L 313.652919 291.777373 
L 315.284349 291.306575 
L 316.915779 291.837438 
L 318.547209 290.758722 
L 320.178639 288.52794 
L 321.810069 291.736516 
L 323.441498 288.973621 
L 325.072928 292.279543 
L 326.704358 289.941615 
L 328.335788 289.415453 
L 329.967218 289.812374 
L 331.598648 291.160254 
L 333.230078 290.874115 
L 334.861508 291.914829 
L 336.492937 291.083583 
L 338.124367 291.903901 
L 339.755797 291.105004 
L 341.387227 290.063179 
L 343.018657 291.322792 
L 344.650087 290.825145 
L 346.281517 288.535504 
L 347.912947 289.574081 
L 349.544376 291.18318 
L 351.175806 291.170791 
L 352.807236 289.478774 
L 354.438666 291.822865 
L 356.070096 292.102888 
L 357.701526 291.0594 
L 359.332956 290.059007 
L 360.964386 288.448767 
L 362.595815 291.210683 
L 364.227245 290.949176 
L 365.858675 292.467163 
L 367.490105 291.533799 
L 369.121535 291.7915 
L 370.752965 288.913048 
L 372.384395 289.35371 
L 374.015825 290.84009 
L 375.647254 290.650521 
L 377.278684 291.612778 
L 378.910114 289.603539 
L 380.541544 290.975249 
L 382.172974 290.735517 
L 383.804404 290.014411 
L 385.435834 290.968214 
L 387.067264 289.386839 
L 388.698693 292.430292 
L 390.330123 291.900263 
L 391.961553 291.199818 
L 393.592983 291.307513 
L 395.224413 289.908864 
L 396.855843 292.549634 
L 398.487273 290.156636 
L 398.487273 287.076811 
L 398.487273 287.076811 
L 396.855843 279.612515 
L 395.224413 286.793609 
L 393.592983 282.692459 
L 391.961553 285.8538 
L 390.330123 287.323549 
L 388.698693 286.699296 
L 387.067264 283.754719 
L 385.435834 275.00016 
L 383.804404 288.567007 
L 382.172974 289.056481 
L 380.541544 279.966905 
L 378.910114 274.57132 
L 377.278684 280.028013 
L 375.647254 267.562693 
L 374.015825 285.576875 
L 372.384395 282.757703 
L 370.752965 288.177876 
L 369.121535 272.700966 
L 367.490105 286.537898 
L 365.858675 286.547146 
L 364.227245 280.464283 
L 362.595815 278.375312 
L 360.964386 288.426779 
L 359.332956 282.837957 
L 357.701526 283.018208 
L 356.070096 278.219893 
L 354.438666 284.033105 
L 352.807236 288.700431 
L 351.175806 285.451035 
L 349.544376 281.837661 
L 347.912947 285.600716 
L 346.281517 288.426779 
L 344.650087 281.651425 
L 343.018657 281.010447 
L 341.387227 280.663711 
L 339.755797 283.4979 
L 338.124367 268.222516 
L 336.492937 288.854476 
L 334.861508 281.212476 
L 333.230078 288.09743 
L 331.598648 286.561298 
L 329.967218 286.579969 
L 328.335788 288.456811 
L 326.704358 286.671367 
L 325.072928 259.533401 
L 323.441498 288.59918 
L 321.810069 284.233676 
L 320.178639 288.022714 
L 318.547209 274.7872 
L 316.915779 280.710749 
L 315.284349 282.895143 
L 313.652919 276.148506 
L 312.021489 286.76432 
L 310.390059 282.795736 
L 308.75863 287.587212 
L 307.1272 279.344747 
L 305.49577 276.159944 
L 303.86434 280.655834 
L 302.23291 275.6165 
L 300.60148 282.556108 
L 298.97005 278.719808 
L 297.33862 274.498188 
L 295.70719 287.997542 
L 294.075761 277.133733 
L 292.444331 271.148423 
L 290.812901 288.486093 
L 289.181471 288.715806 
L 287.550041 281.300478 
L 285.918611 265.659535 
L 284.287181 288.426779 
L 282.655751 286.230357 
L 281.024322 282.186079 
L 279.392892 274.525988 
L 277.761462 287.928183 
L 276.130032 273.38902 
L 274.498602 288.910064 
L 272.867172 262.911172 
L 271.235742 287.892978 
L 269.604312 286.616303 
L 267.972883 283.546711 
L 266.341453 285.923705 
L 264.710023 277.039473 
L 263.078593 286.191096 
L 261.447163 271.683784 
L 259.815733 288.414983 
L 258.184303 279.598699 
L 256.552873 284.879858 
L 254.921444 287.505379 
L 253.290014 285.422978 
L 251.658584 275.805743 
L 250.027154 281.420474 
L 248.395724 277.776031 
L 246.764294 279.263764 
L 245.132864 285.965373 
L 243.501434 285.324722 
L 241.870005 283.797701 
L 240.238575 283.380842 
L 238.607145 284.387364 
L 236.975715 287.536591 
L 235.344285 282.417118 
L 233.712855 282.60624 
L 232.081425 279.333561 
L 230.449995 284.744754 
L 228.818566 286.467574 
L 227.187136 283.810407 
L 225.555706 287.163698 
L 223.924276 284.5153 
L 222.292846 286.067048 
L 220.661416 285.50266 
L 219.029986 282.801237 
L 217.398556 286.846102 
L 215.767127 287.182155 
L 214.135697 275.513376 
L 212.504267 284.822454 
L 210.872837 282.3577 
L 209.241407 287.385656 
L 207.609977 287.116225 
L 205.978547 287.239396 
L 204.347117 286.825596 
L 202.715688 286.825596 
L 201.084258 287.682537 
L 199.452828 287.158366 
L 197.821398 287.786306 
L 196.189968 287.786306 
L 194.558538 287.786306 
L 192.927108 286.825596 
L 191.295678 288.426779 
L 189.664249 287.786306 
L 188.032819 287.786306 
L 186.401389 287.786306 
L 184.769959 287.786306 
L 183.138529 287.786306 
L 181.507099 287.466069 
L 179.875669 286.825596 
L 178.244239 288.106542 
L 176.61281 287.786306 
L 174.98138 287.786306 
L 173.34995 288.426779 
L 171.71852 287.466069 
L 170.08709 287.786306 
L 168.45566 287.786306 
L 166.82423 287.466069 
L 165.1928 287.145833 
L 163.56137 287.786306 
L 161.929941 287.466069 
L 160.298511 287.145833 
L 158.667081 288.036894 
L 157.035651 287.466069 
L 155.404221 287.145833 
L 153.772791 287.466069 
L 152.141361 287.466069 
L 150.509931 287.786306 
L 148.878502 287.786306 
L 147.247072 287.786306 
L 145.615642 288.036894 
L 143.984212 287.466069 
L 142.352782 287.786306 
L 140.721352 288.036894 
L 139.089922 287.145833 
L 137.458492 287.145833 
L 135.827063 287.145833 
L 134.195633 287.786306 
L 132.564203 287.466069 
L 130.932773 287.786306 
L 129.301343 288.036894 
L 127.669913 287.466069 
L 126.038483 287.145833 
L 124.407053 288.036894 
L 122.775624 287.145833 
L 121.144194 288.036894 
L 119.512764 287.145833 
L 117.881334 288.036894 
L 116.249904 287.786306 
L 114.618474 287.466069 
L 112.987044 286.825596 
L 111.355614 288.036894 
L 109.724185 287.786306 
L 108.092755 287.466069 
L 106.461325 287.466069 
L 104.829895 287.466069 
L 103.198465 288.106542 
L 101.567035 287.145833 
L 99.935605 287.466069 
L 98.304175 287.786306 
L 96.672746 287.786306 
L 95.041316 287.466069 
L 93.409886 287.786306 
L 91.778456 288.106542 
L 90.147026 288.08913 
L 88.515596 287.466069 
L 86.884166 288.036894 
L 85.252736 288.036894 
L 83.621307 287.466069 
L 81.989877 287.145833 
L 80.358447 287.466069 
L 78.727017 287.466069 
L 77.095587 287.786306 
L 75.464157 287.466069 
L 73.832727 288.036894 
z
" style="fill:#1f77b4;fill-opacity:0.2;"/>
   </g>
   <g id="PolyCollection_2">
    <path clip-path="url(#p39c50b1322)" d="M 73.832727 286.825596 
L 73.832727 288.426779 
L 75.464157 288.426779 
L 77.095587 288.426779 
L 78.727017 288.426779 
L 80.358447 288.426779 
L 81.989877 288.426779 
L 83.621307 288.426779 
L 85.252736 288.426779 
L 86.884166 288.426779 
L 88.515596 288.426779 
L 90.147026 288.426779 
L 91.778456 288.426779 
L 93.409886 288.426779 
L 95.041316 288.426779 
L 96.672746 288.426779 
L 98.304175 288.426779 
L 99.935605 288.426779 
L 101.567035 288.426779 
L 103.198465 288.426779 
L 104.829895 288.426779 
L 106.461325 288.426779 
L 108.092755 288.426779 
L 109.724185 288.426779 
L 111.355614 288.426779 
L 112.987044 288.426779 
L 114.618474 288.426779 
L 116.249904 288.426779 
L 117.881334 288.426779 
L 119.512764 288.426779 
L 121.144194 288.426779 
L 122.775624 288.426779 
L 124.407053 288.426779 
L 126.038483 288.426779 
L 127.669913 288.426779 
L 129.301343 288.426779 
L 130.932773 288.426779 
L 132.564203 288.426779 
L 134.195633 288.426779 
L 135.827063 288.426779 
L 137.458492 288.426779 
L 139.089922 288.426779 
L 140.721352 288.426779 
L 142.352782 288.426779 
L 143.984212 288.426779 
L 145.615642 288.426779 
L 147.247072 288.426779 
L 148.878502 288.426779 
L 150.509931 288.426779 
L 152.141361 288.426779 
L 153.772791 288.426779 
L 155.404221 288.426779 
L 157.035651 288.426779 
L 158.667081 288.426779 
L 160.298511 288.426779 
L 161.929941 288.426779 
L 163.56137 288.426779 
L 165.1928 288.426779 
L 166.82423 288.426779 
L 168.45566 288.426779 
L 170.08709 288.426779 
L 171.71852 288.426779 
L 173.34995 288.426779 
L 174.98138 288.426779 
L 176.61281 288.426779 
L 178.244239 288.426779 
L 179.875669 288.426779 
L 181.507099 288.426779 
L 183.138529 288.426779 
L 184.769959 288.426779 
L 186.401389 288.426779 
L 188.032819 288.426779 
L 189.664249 288.426779 
L 191.295678 288.426779 
L 192.927108 288.426779 
L 194.558538 288.426779 
L 196.189968 288.426779 
L 197.821398 288.426779 
L 199.452828 288.426779 
L 201.084258 288.426779 
L 202.715688 288.426779 
L 204.347117 288.700929 
L 205.978547 288.700101 
L 207.609977 288.957085 
L 209.241407 289.109441 
L 210.872837 289.408861 
L 212.504267 289.410015 
L 214.135697 289.488253 
L 215.767127 289.403586 
L 217.398556 289.403226 
L 219.029986 289.470113 
L 220.661416 289.62519 
L 222.292846 289.740418 
L 223.924276 289.505083 
L 225.555706 289.493858 
L 227.187136 289.473223 
L 228.818566 289.469705 
L 230.449995 289.867836 
L 232.081425 289.876766 
L 233.712855 289.915663 
L 235.344285 289.835736 
L 236.975715 290.67957 
L 238.607145 289.961683 
L 240.238575 289.33911 
L 241.870005 289.73787 
L 243.501434 291.330255 
L 245.132864 291.729951 
L 246.764294 291.821495 
L 248.395724 293.471701 
L 250.027154 292.24006 
L 251.658584 294.067996 
L 253.290014 292.740862 
L 254.921444 291.815147 
L 256.552873 292.506668 
L 258.184303 292.198866 
L 259.815733 291.821908 
L 261.447163 295.019469 
L 263.078593 292.538847 
L 264.710023 292.505574 
L 266.341453 292.398587 
L 267.972883 293.006554 
L 269.604312 292.034748 
L 271.235742 291.928444 
L 272.867172 293.960988 
L 274.498602 291.912817 
L 276.130032 293.42352 
L 277.761462 292.168325 
L 279.392892 295.081692 
L 281.024322 293.553328 
L 282.655751 292.165719 
L 284.287181 291.995767 
L 285.918611 295.062931 
L 287.550041 292.023042 
L 289.181471 291.880019 
L 290.812901 291.745336 
L 292.444331 295.013782 
L 294.075761 292.447602 
L 295.70719 292.368764 
L 297.33862 294.006689 
L 298.97005 293.027823 
L 300.60148 292.939925 
L 302.23291 294.382566 
L 303.86434 292.910775 
L 305.49577 293.014318 
L 307.1272 292.576449 
L 308.75863 292.44688 
L 310.390059 294.471517 
L 312.021489 292.434128 
L 313.652919 292.702489 
L 315.284349 292.555035 
L 316.915779 292.269516 
L 318.547209 294.96717 
L 320.178639 292.218722 
L 321.810069 293.050941 
L 323.441498 292.127341 
L 325.072928 295.488 
L 326.704358 292.942521 
L 328.335788 292.783103 
L 329.967218 292.670192 
L 331.598648 292.618005 
L 333.230078 292.552645 
L 334.861508 293.543079 
L 336.492937 292.537873 
L 338.124367 293.749745 
L 339.755797 292.046501 
L 341.387227 291.963234 
L 343.018657 292.162578 
L 344.650087 292.14597 
L 346.281517 291.976916 
L 347.912947 291.89881 
L 349.544376 292.301533 
L 351.175806 292.286121 
L 352.807236 292.16098 
L 354.438666 292.256605 
L 356.070096 293.000632 
L 357.701526 292.020472 
L 359.332956 291.949654 
L 360.964386 291.796485 
L 362.595815 291.981032 
L 364.227245 291.807492 
L 365.858675 293.120427 
L 367.490105 291.988967 
L 369.121535 295.239577 
L 370.752965 291.584174 
L 372.384395 291.561882 
L 374.015825 292.078181 
L 375.647254 293.912464 
L 377.278684 294.438881 
L 378.910114 294.14401 
L 380.541544 293.621616 
L 382.172974 293.48495 
L 383.804404 293.358505 
L 385.435834 293.352251 
L 387.067264 293.258137 
L 388.698693 293.300543 
L 390.330123 293.190951 
L 391.961553 293.106039 
L 393.592983 293.104112 
L 395.224413 292.984275 
L 396.855843 294.363036 
L 398.487273 292.9197 
L 398.487273 223.704071 
L 398.487273 223.704071 
L 396.855843 252.801048 
L 395.224413 187.114078 
L 393.592983 253.396142 
L 391.961553 268.715531 
L 390.330123 259.761943 
L 388.698693 179.672561 
L 387.067264 202.245016 
L 385.435834 242.981518 
L 383.804404 262.617803 
L 382.172974 277.13759 
L 380.541544 232.269321 
L 378.910114 166.302984 
L 377.278684 211.735989 
L 375.647254 186.221686 
L 374.015825 218.027602 
L 372.384395 238.953972 
L 370.752965 175.19849 
L 369.121535 221.567142 
L 367.490105 270.242317 
L 365.858675 234.814669 
L 364.227245 230.280403 
L 362.595815 238.99587 
L 360.964386 121.312413 
L 359.332956 265.812425 
L 357.701526 253.878171 
L 356.070096 195.06721 
L 354.438666 228.263753 
L 352.807236 263.515572 
L 351.175806 255.053574 
L 349.544376 246.998998 
L 347.912947 225.373331 
L 346.281517 205.96353 
L 344.650087 189.023126 
L 343.018657 246.977914 
L 341.387227 236.003913 
L 339.755797 214.370613 
L 338.124367 202.650717 
L 336.492937 253.229754 
L 334.861508 231.076757 
L 333.230078 260.390701 
L 331.598648 259.891901 
L 329.967218 249.49433 
L 328.335788 251.543976 
L 326.704358 258.294344 
L 325.072928 53.568 
L 323.441498 228.13212 
L 321.810069 263.8046 
L 320.178639 272.726478 
L 318.547209 226.390064 
L 316.915779 170.904532 
L 315.284349 232.631691 
L 313.652919 171.753081 
L 312.021489 250.693798 
L 310.390059 264.858053 
L 308.75863 249.068335 
L 307.1272 223.86869 
L 305.49577 233.840277 
L 303.86434 263.773735 
L 302.23291 228.913122 
L 300.60148 240.107065 
L 298.97005 171.906332 
L 297.33862 234.163622 
L 295.70719 268.900382 
L 294.075761 240.810883 
L 292.444331 223.947134 
L 290.812901 253.281733 
L 289.181471 264.017523 
L 287.550041 251.628993 
L 285.918611 236.970769 
L 284.287181 258.293176 
L 282.655751 200.714595 
L 281.024322 256.753403 
L 279.392892 238.444536 
L 277.761462 263.549647 
L 276.130032 185.465201 
L 274.498602 263.782745 
L 272.867172 180.431889 
L 271.235742 158.102852 
L 269.604312 227.795008 
L 267.972883 228.149001 
L 266.341453 201.708626 
L 264.710023 151.02144 
L 263.078593 254.463051 
L 261.447163 204.526702 
L 259.815733 233.439565 
L 258.184303 231.398002 
L 256.552873 265.886697 
L 254.921444 216.260759 
L 253.290014 264.96906 
L 251.658584 213.330167 
L 250.027154 262.447428 
L 248.395724 246.670139 
L 246.764294 251.221753 
L 245.132864 249.935338 
L 243.501434 271.015654 
L 241.870005 263.73336 
L 240.238575 253.833991 
L 238.607145 260.894242 
L 236.975715 262.549398 
L 235.344285 227.349462 
L 233.712855 268.968533 
L 232.081425 261.970896 
L 230.449995 258.017677 
L 228.818566 270.716233 
L 227.187136 265.257242 
L 225.555706 272.242519 
L 223.924276 258.529681 
L 222.292846 252.440929 
L 220.661416 257.393786 
L 219.029986 256.291699 
L 217.398556 267.031547 
L 215.767127 272.287591 
L 214.135697 220.575878 
L 212.504267 257.455906 
L 210.872837 258.386614 
L 209.241407 272.324541 
L 207.609977 271.567918 
L 205.978547 264.307972 
L 204.347117 257.173189 
L 202.715688 251.244438 
L 201.084258 272.064026 
L 199.452828 269.656302 
L 197.821398 286.825596 
L 196.189968 286.825596 
L 194.558538 286.825596 
L 192.927108 286.825596 
L 191.295678 286.825596 
L 189.664249 286.825596 
L 188.032819 286.825596 
L 186.401389 286.825596 
L 184.769959 286.825596 
L 183.138529 286.825596 
L 181.507099 286.825596 
L 179.875669 286.825596 
L 178.244239 286.825596 
L 176.61281 286.825596 
L 174.98138 286.825596 
L 173.34995 286.825596 
L 171.71852 286.825596 
L 170.08709 286.825596 
L 168.45566 286.825596 
L 166.82423 286.825596 
L 165.1928 286.825596 
L 163.56137 286.825596 
L 161.929941 286.825596 
L 160.298511 286.825596 
L 158.667081 286.825596 
L 157.035651 286.825596 
L 155.404221 286.825596 
L 153.772791 286.825596 
L 152.141361 286.825596 
L 150.509931 286.825596 
L 148.878502 286.825596 
L 147.247072 286.825596 
L 145.615642 286.825596 
L 143.984212 286.825596 
L 142.352782 286.825596 
L 140.721352 286.825596 
L 139.089922 286.825596 
L 137.458492 286.825596 
L 135.827063 286.825596 
L 134.195633 286.825596 
L 132.564203 286.825596 
L 130.932773 286.825596 
L 129.301343 286.825596 
L 127.669913 286.825596 
L 126.038483 286.825596 
L 124.407053 286.825596 
L 122.775624 286.825596 
L 121.144194 286.825596 
L 119.512764 286.825596 
L 117.881334 286.825596 
L 116.249904 286.825596 
L 114.618474 286.825596 
L 112.987044 286.825596 
L 111.355614 286.825596 
L 109.724185 286.825596 
L 108.092755 286.825596 
L 106.461325 286.825596 
L 104.829895 286.825596 
L 103.198465 286.825596 
L 101.567035 286.825596 
L 99.935605 286.825596 
L 98.304175 286.825596 
L 96.672746 286.825596 
L 95.041316 286.825596 
L 93.409886 286.825596 
L 91.778456 286.825596 
L 90.147026 286.825596 
L 88.515596 286.825596 
L 86.884166 286.825596 
L 85.252736 286.825596 
L 83.621307 286.825596 
L 81.989877 286.825596 
L 80.358447 286.825596 
L 78.727017 286.825596 
L 77.095587 286.825596 
L 75.464157 286.825596 
L 73.832727 286.825596 
z
" style="fill:#1f77b4;fill-opacity:0.1;"/>
   </g>
   <g id="matplotlib.axis_1">
    <g id="xtick_1">
     <g id="line2d_1">
      <defs>
       <path d="M 0 0 
L 0 3.5 
" id="mef57909a52" style="stroke:#000000;stroke-width:0.8;"/>
      </defs>
      <g>
       <use style="stroke:#000000;stroke-width:0.8;" x="73.832727" xlink:href="#mef57909a52" y="307.584"/>
      </g>
     </g>
     <g id="text_1">
      <!-- 0 -->
      <defs>
       <path d="M 31.78125 66.40625 
Q 24.171875 66.40625 20.328125 58.90625 
Q 16.5 51.421875 16.5 36.375 
Q 16.5 21.390625 20.328125 13.890625 
Q 24.171875 6.390625 31.78125 6.390625 
Q 39.453125 6.390625 43.28125 13.890625 
Q 47.125 21.390625 47.125 36.375 
Q 47.125 51.421875 43.28125 58.90625 
Q 39.453125 66.40625 31.78125 66.40625 
z
M 31.78125 74.21875 
Q 44.046875 74.21875 50.515625 64.515625 
Q 56.984375 54.828125 56.984375 36.375 
Q 56.984375 17.96875 50.515625 8.265625 
Q 44.046875 -1.421875 31.78125 -1.421875 
Q 19.53125 -1.421875 13.0625 8.265625 
Q 6.59375 17.96875 6.59375 36.375 
Q 6.59375 54.828125 13.0625 64.515625 
Q 19.53125 74.21875 31.78125 74.21875 
z
" id="DejaVuSans-48"/>
      </defs>
      <g transform="translate(70.651477 322.182437)scale(0.1 -0.1)">
       <use xlink:href="#DejaVuSans-48"/>
      </g>
     </g>
    </g>
    <g id="xtick_2">
     <g id="line2d_2">
      <g>
       <use style="stroke:#000000;stroke-width:0.8;" x="114.618474" xlink:href="#mef57909a52" y="307.584"/>
      </g>
     </g>
     <g id="text_2">
      <!-- 25 -->
      <defs>
       <path d="M 19.1875 8.296875 
L 53.609375 8.296875 
L 53.609375 0 
L 7.328125 0 
L 7.328125 8.296875 
Q 12.9375 14.109375 22.625 23.890625 
Q 32.328125 33.6875 34.8125 36.53125 
Q 39.546875 41.84375 41.421875 45.53125 
Q 43.3125 49.21875 43.3125 52.78125 
Q 43.3125 58.59375 39.234375 62.25 
Q 35.15625 65.921875 28.609375 65.921875 
Q 23.96875 65.921875 18.8125 64.3125 
Q 13.671875 62.703125 7.8125 59.421875 
L 7.8125 69.390625 
Q 13.765625 71.78125 18.9375 73 
Q 24.125 74.21875 28.421875 74.21875 
Q 39.75 74.21875 46.484375 68.546875 
Q 53.21875 62.890625 53.21875 53.421875 
Q 53.21875 48.921875 51.53125 44.890625 
Q 49.859375 40.875 45.40625 35.40625 
Q 44.1875 33.984375 37.640625 27.21875 
Q 31.109375 20.453125 19.1875 8.296875 
z
" id="DejaVuSans-50"/>
       <path d="M 10.796875 72.90625 
L 49.515625 72.90625 
L 49.515625 64.59375 
L 19.828125 64.59375 
L 19.828125 46.734375 
Q 21.96875 47.46875 24.109375 47.828125 
Q 26.265625 48.1875 28.421875 48.1875 
Q 40.625 48.1875 47.75 41.5 
Q 54.890625 34.8125 54.890625 23.390625 
Q 54.890625 11.625 47.5625 5.09375 
Q 40.234375 -1.421875 26.90625 -1.421875 
Q 22.3125 -1.421875 17.546875 -0.640625 
Q 12.796875 0.140625 7.71875 1.703125 
L 7.71875 11.625 
Q 12.109375 9.234375 16.796875 8.0625 
Q 21.484375 6.890625 26.703125 6.890625 
Q 35.15625 6.890625 40.078125 11.328125 
Q 45.015625 15.765625 45.015625 23.390625 
Q 45.015625 31 40.078125 35.4375 
Q 35.15625 39.890625 26.703125 39.890625 
Q 22.75 39.890625 18.8125 39.015625 
Q 14.890625 38.140625 10.796875 36.28125 
z
" id="DejaVuSans-53"/>
      </defs>
      <g transform="translate(108.255974 322.182437)scale(0.1 -0.1)">
       <use xlink:href="#DejaVuSans-50"/>
       <use x="63.623047" xlink:href="#DejaVuSans-53"/>
      </g>
     </g>
    </g>
    <g id="xtick_3">
     <g id="line2d_3">
      <g>
       <use style="stroke:#000000;stroke-width:0.8;" x="155.404221" xlink:href="#mef57909a52" y="307.584"/>
      </g>
     </g>
     <g id="text_3">
      <!-- 50 -->
      <g transform="translate(149.041721 322.182437)scale(0.1 -0.1)">
       <use xlink:href="#DejaVuSans-53"/>
       <use x="63.623047" xlink:href="#DejaVuSans-48"/>
      </g>
     </g>
    </g>
    <g id="xtick_4">
     <g id="line2d_4">
      <g>
       <use style="stroke:#000000;stroke-width:0.8;" x="196.189968" xlink:href="#mef57909a52" y="307.584"/>
      </g>
     </g>
     <g id="text_4">
      <!-- 75 -->
      <defs>
       <path d="M 8.203125 72.90625 
L 55.078125 72.90625 
L 55.078125 68.703125 
L 28.609375 0 
L 18.3125 0 
L 43.21875 64.59375 
L 8.203125 64.59375 
z
" id="DejaVuSans-55"/>
      </defs>
      <g transform="translate(189.827468 322.182437)scale(0.1 -0.1)">
       <use xlink:href="#DejaVuSans-55"/>
       <use x="63.623047" xlink:href="#DejaVuSans-53"/>
      </g>
     </g>
    </g>
    <g id="xtick_5">
     <g id="line2d_5">
      <g>
       <use style="stroke:#000000;stroke-width:0.8;" x="236.975715" xlink:href="#mef57909a52" y="307.584"/>
      </g>
     </g>
     <g id="text_5">
      <!-- 100 -->
      <defs>
       <path d="M 12.40625 8.296875 
L 28.515625 8.296875 
L 28.515625 63.921875 
L 10.984375 60.40625 
L 10.984375 69.390625 
L 28.421875 72.90625 
L 38.28125 72.90625 
L 38.28125 8.296875 
L 54.390625 8.296875 
L 54.390625 0 
L 12.40625 0 
z
" id="DejaVuSans-49"/>
      </defs>
      <g transform="translate(227.431965 322.182437)scale(0.1 -0.1)">
       <use xlink:href="#DejaVuSans-49"/>
       <use x="63.623047" xlink:href="#DejaVuSans-48"/>
       <use x="127.246094" xlink:href="#DejaVuSans-48"/>
      </g>
     </g>
    </g>
    <g id="xtick_6">
     <g id="line2d_6">
      <g>
       <use style="stroke:#000000;stroke-width:0.8;" x="277.761462" xlink:href="#mef57909a52" y="307.584"/>
      </g>
     </g>
     <g id="text_6">
      <!-- 125 -->
      <g transform="translate(268.217712 322.182437)scale(0.1 -0.1)">
       <use xlink:href="#DejaVuSans-49"/>
       <use x="63.623047" xlink:href="#DejaVuSans-50"/>
       <use x="127.246094" xlink:href="#DejaVuSans-53"/>
      </g>
     </g>
    </g>
    <g id="xtick_7">
     <g id="line2d_7">
      <g>
       <use style="stroke:#000000;stroke-width:0.8;" x="318.547209" xlink:href="#mef57909a52" y="307.584"/>
      </g>
     </g>
     <g id="text_7">
      <!-- 150 -->
      <g transform="translate(309.003459 322.182437)scale(0.1 -0.1)">
       <use xlink:href="#DejaVuSans-49"/>
       <use x="63.623047" xlink:href="#DejaVuSans-53"/>
       <use x="127.246094" xlink:href="#DejaVuSans-48"/>
      </g>
     </g>
    </g>
    <g id="xtick_8">
     <g id="line2d_8">
      <g>
       <use style="stroke:#000000;stroke-width:0.8;" x="359.332956" xlink:href="#mef57909a52" y="307.584"/>
      </g>
     </g>
     <g id="text_8">
      <!-- 175 -->
      <g transform="translate(349.789206 322.182437)scale(0.1 -0.1)">
       <use xlink:href="#DejaVuSans-49"/>
       <use x="63.623047" xlink:href="#DejaVuSans-55"/>
       <use x="127.246094" xlink:href="#DejaVuSans-53"/>
      </g>
     </g>
    </g>
    <g id="xtick_9">
     <g id="line2d_9">
      <g>
       <use style="stroke:#000000;stroke-width:0.8;" x="400.118703" xlink:href="#mef57909a52" y="307.584"/>
      </g>
     </g>
     <g id="text_9">
      <!-- 200 -->
      <g transform="translate(390.574953 322.182437)scale(0.1 -0.1)">
       <use xlink:href="#DejaVuSans-50"/>
       <use x="63.623047" xlink:href="#DejaVuSans-48"/>
       <use x="127.246094" xlink:href="#DejaVuSans-48"/>
      </g>
     </g>
    </g>
   </g>
   <g id="matplotlib.axis_2">
    <g id="ytick_1">
     <g id="line2d_10">
      <defs>
       <path d="M 0 0 
L -3.5 0 
" id="m33f9a44706" style="stroke:#000000;stroke-width:0.8;"/>
      </defs>
      <g>
       <use style="stroke:#000000;stroke-width:0.8;" x="57.6" xlink:href="#m33f9a44706" y="303.147212"/>
      </g>
     </g>
     <g id="text_10">
      <!-- 0.0 -->
      <defs>
       <path d="M 10.6875 12.40625 
L 21 12.40625 
L 21 0 
L 10.6875 0 
z
" id="DejaVuSans-46"/>
      </defs>
      <g transform="translate(34.696875 306.946431)scale(0.1 -0.1)">
       <use xlink:href="#DejaVuSans-48"/>
       <use x="63.623047" xlink:href="#DejaVuSans-46"/>
       <use x="95.410156" xlink:href="#DejaVuSans-48"/>
      </g>
     </g>
    </g>
    <g id="ytick_2">
     <g id="line2d_11">
      <g>
       <use style="stroke:#000000;stroke-width:0.8;" x="57.6" xlink:href="#m33f9a44706" y="269.649422"/>
      </g>
     </g>
     <g id="text_11">
      <!-- 2.5 -->
      <g transform="translate(34.696875 273.448641)scale(0.1 -0.1)">
       <use xlink:href="#DejaVuSans-50"/>
       <use x="63.623047" xlink:href="#DejaVuSans-46"/>
       <use x="95.410156" xlink:href="#DejaVuSans-53"/>
      </g>
     </g>
    </g>
    <g id="ytick_3">
     <g id="line2d_12">
      <g>
       <use style="stroke:#000000;stroke-width:0.8;" x="57.6" xlink:href="#m33f9a44706" y="236.151632"/>
      </g>
     </g>
     <g id="text_12">
      <!-- 5.0 -->
      <g transform="translate(34.696875 239.95085)scale(0.1 -0.1)">
       <use xlink:href="#DejaVuSans-53"/>
       <use x="63.623047" xlink:href="#DejaVuSans-46"/>
       <use x="95.410156" xlink:href="#DejaVuSans-48"/>
      </g>
     </g>
    </g>
    <g id="ytick_4">
     <g id="line2d_13">
      <g>
       <use style="stroke:#000000;stroke-width:0.8;" x="57.6" xlink:href="#m33f9a44706" y="202.653842"/>
      </g>
     </g>
     <g id="text_13">
      <!-- 7.5 -->
      <g transform="translate(34.696875 206.45306)scale(0.1 -0.1)">
       <use xlink:href="#DejaVuSans-55"/>
       <use x="63.623047" xlink:href="#DejaVuSans-46"/>
       <use x="95.410156" xlink:href="#DejaVuSans-53"/>
      </g>
     </g>
    </g>
    <g id="ytick_5">
     <g id="line2d_14">
      <g>
       <use style="stroke:#000000;stroke-width:0.8;" x="57.6" xlink:href="#m33f9a44706" y="169.156051"/>
      </g>
     </g>
     <g id="text_14">
      <!-- 10.0 -->
      <g transform="translate(28.334375 172.95527)scale(0.1 -0.1)">
       <use xlink:href="#DejaVuSans-49"/>
       <use x="63.623047" xlink:href="#DejaVuSans-48"/>
       <use x="127.246094" xlink:href="#DejaVuSans-46"/>
       <use x="159.033203" xlink:href="#DejaVuSans-48"/>
      </g>
     </g>
    </g>
    <g id="ytick_6">
     <g id="line2d_15">
      <g>
       <use style="stroke:#000000;stroke-width:0.8;" x="57.6" xlink:href="#m33f9a44706" y="135.658261"/>
      </g>
     </g>
     <g id="text_15">
      <!-- 12.5 -->
      <g transform="translate(28.334375 139.45748)scale(0.1 -0.1)">
       <use xlink:href="#DejaVuSans-49"/>
       <use x="63.623047" xlink:href="#DejaVuSans-50"/>
       <use x="127.246094" xlink:href="#DejaVuSans-46"/>
       <use x="159.033203" xlink:href="#DejaVuSans-53"/>
      </g>
     </g>
    </g>
    <g id="ytick_7">
     <g id="line2d_16">
      <g>
       <use style="stroke:#000000;stroke-width:0.8;" x="57.6" xlink:href="#m33f9a44706" y="102.160471"/>
      </g>
     </g>
     <g id="text_16">
      <!-- 15.0 -->
      <g transform="translate(28.334375 105.95969)scale(0.1 -0.1)">
       <use xlink:href="#DejaVuSans-49"/>
       <use x="63.623047" xlink:href="#DejaVuSans-53"/>
       <use x="127.246094" xlink:href="#DejaVuSans-46"/>
       <use x="159.033203" xlink:href="#DejaVuSans-48"/>
      </g>
     </g>
    </g>
    <g id="ytick_8">
     <g id="line2d_17">
      <g>
       <use style="stroke:#000000;stroke-width:0.8;" x="57.6" xlink:href="#m33f9a44706" y="68.662681"/>
      </g>
     </g>
     <g id="text_17">
      <!-- 17.5 -->
      <g transform="translate(28.334375 72.461899)scale(0.1 -0.1)">
       <use xlink:href="#DejaVuSans-49"/>
       <use x="63.623047" xlink:href="#DejaVuSans-55"/>
       <use x="127.246094" xlink:href="#DejaVuSans-46"/>
       <use x="159.033203" xlink:href="#DejaVuSans-53"/>
      </g>
     </g>
    </g>
   </g>
   <g id="line2d_18">
    <path clip-path="url(#p39c50b1322)" d="M 73.832727 288.426779 
L 78.727017 288.426779 
L 80.358447 288.036894 
L 81.989877 288.426779 
L 86.884166 288.426779 
L 88.515596 288.231836 
L 90.147026 288.426779 
L 103.198465 288.426779 
L 104.829895 288.036894 
L 106.461325 288.426779 
L 109.724185 288.426779 
L 111.355614 288.106542 
L 112.987044 288.426779 
L 114.618474 288.426779 
L 116.249904 288.231836 
L 117.881334 288.426779 
L 119.512764 288.036894 
L 121.144194 288.426779 
L 124.407053 288.426779 
L 126.038483 288.036894 
L 127.669913 288.036894 
L 129.301343 288.426779 
L 132.564203 288.426779 
L 134.195633 288.036894 
L 137.458492 288.426779 
L 153.772791 288.426779 
L 155.404221 288.036894 
L 157.035651 288.426779 
L 158.667081 288.426779 
L 160.298511 288.036894 
L 161.929941 288.036894 
L 163.56137 288.426779 
L 165.1928 288.036894 
L 166.82423 288.036894 
L 168.45566 288.426779 
L 174.98138 288.426779 
L 176.61281 288.231836 
L 178.244239 288.426779 
L 179.875669 288.036894 
L 181.507099 288.426779 
L 183.138529 288.036894 
L 188.032819 288.036894 
L 189.664249 288.426779 
L 199.452828 288.426779 
L 201.084258 288.036894 
L 202.715688 287.301278 
L 204.347117 287.466069 
L 205.978547 287.937484 
L 207.609977 287.677072 
L 209.241407 288.036894 
L 210.872837 287.145833 
L 212.504267 287.49598 
L 214.135697 287.145833 
L 215.767127 288.057793 
L 217.398556 287.728135 
L 219.029986 286.773309 
L 220.661416 288.377126 
L 222.292846 288.228783 
L 223.924276 285.969255 
L 225.555706 287.96409 
L 227.187136 286.141891 
L 228.818566 288.194357 
L 230.449995 288.357232 
L 232.081425 286.275336 
L 233.712855 287.003872 
L 235.344285 286.743185 
L 236.975715 288.891753 
L 238.607145 287.984273 
L 240.238575 287.471346 
L 241.870005 288.644362 
L 245.132864 287.391094 
L 246.764294 284.429635 
L 248.395724 286.585939 
L 250.027154 287.348951 
L 251.658584 287.937846 
L 253.290014 288.962054 
L 254.921444 288.945328 
L 256.552873 288.760693 
L 258.184303 287.297485 
L 259.815733 290.271323 
L 261.447163 286.296513 
L 263.078593 289.028869 
L 264.710023 285.363982 
L 266.341453 288.286678 
L 267.972883 288.087289 
L 269.604312 288.711402 
L 271.235742 288.807392 
L 272.867172 281.261626 
L 274.498602 289.707429 
L 276.130032 285.176498 
L 277.761462 289.467047 
L 279.392892 285.472686 
L 281.024322 287.781817 
L 282.655751 288.46073 
L 284.287181 288.426779 
L 285.918611 281.915389 
L 287.550041 287.226479 
L 289.181471 288.911378 
L 290.812901 288.771026 
L 292.444331 283.936179 
L 294.075761 286.208235 
L 295.70719 289.555437 
L 297.33862 285.674593 
L 298.97005 287.144731 
L 300.60148 288.077397 
L 302.23291 286.216836 
L 303.86434 286.683199 
L 305.49577 285.809124 
L 307.1272 286.815742 
L 308.75863 288.820354 
L 310.390059 289.127047 
L 312.021489 288.747136 
L 313.652919 285.582693 
L 315.284349 288.422705 
L 316.915779 289.13934 
L 318.547209 285.927717 
L 320.178639 288.429 
L 321.810069 288.92388 
L 323.441498 288.953607 
L 325.072928 282.214817 
L 326.704358 288.607839 
L 328.335788 289.126837 
L 329.967218 288.727088 
L 331.598648 289.281381 
L 333.230078 289.474223 
L 334.861508 287.278632 
L 336.492937 290.152272 
L 338.124367 284.64002 
L 339.755797 288.520858 
L 341.387227 286.812511 
L 343.018657 288.007354 
L 346.281517 288.426779 
L 347.912947 288.586775 
L 349.544376 288.25568 
L 351.175806 288.876378 
L 352.807236 289.103998 
L 354.438666 288.37289 
L 356.070096 286.075579 
L 357.701526 288.614927 
L 359.332956 287.702785 
L 360.964386 288.426779 
L 362.595815 288.535851 
L 364.227245 288.010538 
L 365.858675 290.518427 
L 367.490105 290.722882 
L 369.121535 285.599511 
L 370.752965 288.681061 
L 372.384395 287.003579 
L 374.015825 289.049614 
L 375.647254 284.102694 
L 377.278684 288.135923 
L 378.910114 284.427803 
L 380.541544 286.14459 
L 382.172974 290.014865 
L 383.804404 289.586301 
L 385.435834 285.674093 
L 387.067264 286.69361 
L 388.698693 290.09587 
L 390.330123 291.249502 
L 391.961553 289.043052 
L 393.592983 286.462537 
L 395.224413 288.549824 
L 396.855843 288.010381 
L 398.487273 288.691339 
L 398.487273 288.691339 
" style="fill:none;stroke:#1f77b4;stroke-linecap:square;stroke-width:0.25;"/>
   </g>
   <g id="line2d_19">
    <path clip-path="url(#p39c50b1322)" d="M 73.832727 288.015339 
L 80.358447 287.881536 
L 86.884166 288.084398 
L 88.515596 287.94809 
L 90.147026 288.118095 
L 91.778456 288.154434 
L 95.041316 287.972596 
L 99.935605 287.99 
L 101.567035 287.931381 
L 103.198465 288.082453 
L 104.829895 287.841299 
L 106.461325 287.943078 
L 108.092755 287.897828 
L 109.724185 288.070476 
L 111.355614 288.080779 
L 112.987044 287.871929 
L 114.618474 287.969393 
L 116.249904 287.942381 
L 117.881334 288.049172 
L 119.512764 287.812477 
L 121.144194 288.073262 
L 122.775624 287.912864 
L 124.407053 288.069363 
L 126.038483 287.855917 
L 129.301343 288.072565 
L 135.827063 287.886548 
L 139.089922 287.959506 
L 142.352782 288.036643 
L 143.984212 287.964101 
L 145.615642 288.069499 
L 152.141361 287.999047 
L 153.772791 288.035946 
L 155.404221 287.85912 
L 158.667081 288.172255 
L 160.298511 287.886548 
L 163.56137 287.990697 
L 165.1928 287.873042 
L 166.82423 287.884042 
L 170.08709 288.107231 
L 171.71852 287.943078 
L 173.34995 288.203862 
L 174.98138 288.008934 
L 178.244239 288.104173 
L 179.875669 287.803983 
L 181.507099 288.013946 
L 183.138529 287.973012 
L 184.769959 288.052791 
L 186.401389 287.93737 
L 189.664249 288.09178 
L 191.295678 288.233588 
L 192.927108 287.823894 
L 194.558538 288.125893 
L 196.189968 288.002113 
L 197.821398 288.063095 
L 199.452828 287.796888 
L 201.084258 287.664315 
L 202.715688 283.961145 
L 204.347117 284.886915 
L 205.978547 286.320125 
L 207.609977 286.146186 
L 209.241407 286.942497 
L 210.872837 284.210401 
L 212.504267 285.935133 
L 214.135697 280.79258 
L 215.767127 286.835607 
L 217.398556 286.499967 
L 219.029986 284.491906 
L 222.292846 286.649279 
L 223.924276 285.417893 
L 225.555706 287.134314 
L 227.187136 285.670693 
L 228.818566 286.999792 
L 230.449995 286.083575 
L 232.081425 283.158949 
L 233.712855 285.294081 
L 235.344285 283.34013 
L 236.975715 287.928551 
L 238.607145 285.589019 
L 240.238575 284.748101 
L 241.870005 285.937158 
L 243.501434 286.659486 
L 245.132864 285.762328 
L 246.764294 282.62938 
L 248.395724 282.26601 
L 250.027154 285.44587 
L 251.658584 281.217102 
L 253.290014 287.274202 
L 254.921444 285.66749 
L 256.552873 286.867906 
L 258.184303 283.857348 
L 259.815733 287.502767 
L 261.447163 279.824488 
L 263.078593 287.756933 
L 264.710023 277.347855 
L 266.341453 286.460139 
L 267.972883 285.796746 
L 269.604312 287.151586 
L 271.235742 285.654258 
L 272.867172 271.097662 
L 274.498602 287.983025 
L 276.130032 278.605352 
L 277.761462 288.760088 
L 279.392892 280.935724 
L 281.024322 285.196207 
L 282.655751 285.939139 
L 284.287181 287.558866 
L 285.918611 277.00847 
L 287.550041 284.810371 
L 289.181471 288.382175 
L 290.812901 287.739947 
L 292.444331 280.156667 
L 294.075761 281.52136 
L 295.70719 287.9309 
L 297.33862 281.136635 
L 298.97005 280.909931 
L 300.60148 285.567585 
L 302.23291 282.508776 
L 303.86434 284.885393 
L 305.49577 280.726293 
L 307.1272 281.832967 
L 308.75863 287.614854 
L 310.390059 286.511657 
L 312.021489 287.590496 
L 313.652919 282.461931 
L 315.284349 286.045699 
L 316.915779 281.086215 
L 318.547209 279.636415 
L 320.178639 287.381178 
L 321.810069 287.405828 
L 323.441498 286.893489 
L 325.072928 272.217154 
L 326.704358 287.695202 
L 328.335788 288.255818 
L 329.967218 287.023529 
L 333.230078 288.197209 
L 334.861508 284.186022 
L 336.492937 288.668232 
L 338.124367 276.407698 
L 339.755797 283.949286 
L 341.387227 284.424875 
L 343.018657 285.087713 
L 344.650087 281.321016 
L 346.281517 285.774317 
L 347.912947 286.39613 
L 349.544376 284.215833 
L 351.175806 286.739223 
L 352.807236 288.600873 
L 354.438666 285.69427 
L 356.070096 282.42521 
L 357.701526 284.918711 
L 359.332956 286.007515 
L 360.964386 283.757094 
L 362.595815 283.527667 
L 364.227245 283.902829 
L 365.858675 288.152125 
L 367.490105 288.091818 
L 369.121535 280.966649 
L 370.752965 284.955525 
L 372.384395 283.978158 
L 374.015825 284.835156 
L 375.647254 274.930745 
L 377.278684 281.754335 
L 378.910114 278.254671 
L 380.541544 283.258975 
L 382.172974 289.575285 
L 383.804404 288.274558 
L 385.435834 281.752429 
L 388.698693 287.185302 
L 390.330123 288.452129 
L 391.961553 288.066413 
L 393.592983 285.167108 
L 395.224413 286.235828 
L 396.855843 285.689291 
L 398.487273 286.27947 
L 398.487273 286.27947 
" style="fill:none;stroke:#2ca02c;stroke-linecap:square;stroke-width:0.75;"/>
   </g>
   <g id="patch_3">
    <path d="M 57.6 307.584 
L 57.6 41.472 
" style="fill:none;stroke:#000000;stroke-linecap:square;stroke-linejoin:miter;stroke-width:0.8;"/>
   </g>
   <g id="patch_4">
    <path d="M 414.72 307.584 
L 414.72 41.472 
" style="fill:none;stroke:#000000;stroke-linecap:square;stroke-linejoin:miter;stroke-width:0.8;"/>
   </g>
   <g id="patch_5">
    <path d="M 57.6 307.584 
L 414.72 307.584 
" style="fill:none;stroke:#000000;stroke-linecap:square;stroke-linejoin:miter;stroke-width:0.8;"/>
   </g>
   <g id="patch_6">
    <path d="M 57.6 41.472 
L 414.72 41.472 
" style="fill:none;stroke:#000000;stroke-linecap:square;stroke-linejoin:miter;stroke-width:0.8;"/>
   </g>
   <g id="legend_1">
    <g id="patch_7">
     <path d="M 338.234063 78.82825 
L 407.72 78.82825 
Q 409.72 78.82825 409.72 76.82825 
L 409.72 48.472 
Q 409.72 46.472 407.72 46.472 
L 338.234063 46.472 
Q 336.234063 46.472 336.234063 48.472 
L 336.234063 76.82825 
Q 336.234063 78.82825 338.234063 78.82825 
z
" style="fill:#ffffff;opacity:0.8;stroke:#cccccc;stroke-linejoin:miter;"/>
    </g>
    <g id="line2d_20">
     <path d="M 340.234063 54.570437 
L 360.234063 54.570437 
" style="fill:none;stroke:#1f77b4;stroke-linecap:square;stroke-width:0.25;"/>
    </g>
    <g id="line2d_21"/>
    <g id="text_18">
     <!-- median -->
     <defs>
      <path d="M 52 44.1875 
Q 55.375 50.25 60.0625 53.125 
Q 64.75 56 71.09375 56 
Q 79.640625 56 84.28125 50.015625 
Q 88.921875 44.046875 88.921875 33.015625 
L 88.921875 0 
L 79.890625 0 
L 79.890625 32.71875 
Q 79.890625 40.578125 77.09375 44.375 
Q 74.3125 48.1875 68.609375 48.1875 
Q 61.625 48.1875 57.5625 43.546875 
Q 53.515625 38.921875 53.515625 30.90625 
L 53.515625 0 
L 44.484375 0 
L 44.484375 32.71875 
Q 44.484375 40.625 41.703125 44.40625 
Q 38.921875 48.1875 33.109375 48.1875 
Q 26.21875 48.1875 22.15625 43.53125 
Q 18.109375 38.875 18.109375 30.90625 
L 18.109375 0 
L 9.078125 0 
L 9.078125 54.6875 
L 18.109375 54.6875 
L 18.109375 46.1875 
Q 21.1875 51.21875 25.484375 53.609375 
Q 29.78125 56 35.6875 56 
Q 41.65625 56 45.828125 52.96875 
Q 50 49.953125 52 44.1875 
z
" id="DejaVuSans-109"/>
      <path d="M 56.203125 29.59375 
L 56.203125 25.203125 
L 14.890625 25.203125 
Q 15.484375 15.921875 20.484375 11.0625 
Q 25.484375 6.203125 34.421875 6.203125 
Q 39.59375 6.203125 44.453125 7.46875 
Q 49.3125 8.734375 54.109375 11.28125 
L 54.109375 2.78125 
Q 49.265625 0.734375 44.1875 -0.34375 
Q 39.109375 -1.421875 33.890625 -1.421875 
Q 20.796875 -1.421875 13.15625 6.1875 
Q 5.515625 13.8125 5.515625 26.8125 
Q 5.515625 40.234375 12.765625 48.109375 
Q 20.015625 56 32.328125 56 
Q 43.359375 56 49.78125 48.890625 
Q 56.203125 41.796875 56.203125 29.59375 
z
M 47.21875 32.234375 
Q 47.125 39.59375 43.09375 43.984375 
Q 39.0625 48.390625 32.421875 48.390625 
Q 24.90625 48.390625 20.390625 44.140625 
Q 15.875 39.890625 15.1875 32.171875 
z
" id="DejaVuSans-101"/>
      <path d="M 45.40625 46.390625 
L 45.40625 75.984375 
L 54.390625 75.984375 
L 54.390625 0 
L 45.40625 0 
L 45.40625 8.203125 
Q 42.578125 3.328125 38.25 0.953125 
Q 33.9375 -1.421875 27.875 -1.421875 
Q 17.96875 -1.421875 11.734375 6.484375 
Q 5.515625 14.40625 5.515625 27.296875 
Q 5.515625 40.1875 11.734375 48.09375 
Q 17.96875 56 27.875 56 
Q 33.9375 56 38.25 53.625 
Q 42.578125 51.265625 45.40625 46.390625 
z
M 14.796875 27.296875 
Q 14.796875 17.390625 18.875 11.75 
Q 22.953125 6.109375 30.078125 6.109375 
Q 37.203125 6.109375 41.296875 11.75 
Q 45.40625 17.390625 45.40625 27.296875 
Q 45.40625 37.203125 41.296875 42.84375 
Q 37.203125 48.484375 30.078125 48.484375 
Q 22.953125 48.484375 18.875 42.84375 
Q 14.796875 37.203125 14.796875 27.296875 
z
" id="DejaVuSans-100"/>
      <path d="M 9.421875 54.6875 
L 18.40625 54.6875 
L 18.40625 0 
L 9.421875 0 
z
M 9.421875 75.984375 
L 18.40625 75.984375 
L 18.40625 64.59375 
L 9.421875 64.59375 
z
" id="DejaVuSans-105"/>
      <path d="M 34.28125 27.484375 
Q 23.390625 27.484375 19.1875 25 
Q 14.984375 22.515625 14.984375 16.5 
Q 14.984375 11.71875 18.140625 8.90625 
Q 21.296875 6.109375 26.703125 6.109375 
Q 34.1875 6.109375 38.703125 11.40625 
Q 43.21875 16.703125 43.21875 25.484375 
L 43.21875 27.484375 
z
M 52.203125 31.203125 
L 52.203125 0 
L 43.21875 0 
L 43.21875 8.296875 
Q 40.140625 3.328125 35.546875 0.953125 
Q 30.953125 -1.421875 24.3125 -1.421875 
Q 15.921875 -1.421875 10.953125 3.296875 
Q 6 8.015625 6 15.921875 
Q 6 25.140625 12.171875 29.828125 
Q 18.359375 34.515625 30.609375 34.515625 
L 43.21875 34.515625 
L 43.21875 35.40625 
Q 43.21875 41.609375 39.140625 45 
Q 35.0625 48.390625 27.6875 48.390625 
Q 23 48.390625 18.546875 47.265625 
Q 14.109375 46.140625 10.015625 43.890625 
L 10.015625 52.203125 
Q 14.9375 54.109375 19.578125 55.046875 
Q 24.21875 56 28.609375 56 
Q 40.484375 56 46.34375 49.84375 
Q 52.203125 43.703125 52.203125 31.203125 
z
" id="DejaVuSans-97"/>
      <path d="M 54.890625 33.015625 
L 54.890625 0 
L 45.90625 0 
L 45.90625 32.71875 
Q 45.90625 40.484375 42.875 44.328125 
Q 39.84375 48.1875 33.796875 48.1875 
Q 26.515625 48.1875 22.3125 43.546875 
Q 18.109375 38.921875 18.109375 30.90625 
L 18.109375 0 
L 9.078125 0 
L 9.078125 54.6875 
L 18.109375 54.6875 
L 18.109375 46.1875 
Q 21.34375 51.125 25.703125 53.5625 
Q 30.078125 56 35.796875 56 
Q 45.21875 56 50.046875 50.171875 
Q 54.890625 44.34375 54.890625 33.015625 
z
" id="DejaVuSans-110"/>
     </defs>
     <g transform="translate(368.234063 58.070437)scale(0.1 -0.1)">
      <use xlink:href="#DejaVuSans-109"/>
      <use x="97.412109" xlink:href="#DejaVuSans-101"/>
      <use x="158.935547" xlink:href="#DejaVuSans-100"/>
      <use x="222.412109" xlink:href="#DejaVuSans-105"/>
      <use x="250.195312" xlink:href="#DejaVuSans-97"/>
      <use x="311.474609" xlink:href="#DejaVuSans-110"/>
     </g>
    </g>
    <g id="line2d_22">
     <path d="M 340.234063 69.248562 
L 360.234063 69.248562 
" style="fill:none;stroke:#2ca02c;stroke-linecap:square;stroke-width:0.75;"/>
    </g>
    <g id="line2d_23"/>
    <g id="text_19">
     <!-- mean -->
     <g transform="translate(368.234063 72.748562)scale(0.1 -0.1)">
      <use xlink:href="#DejaVuSans-109"/>
      <use x="97.412109" xlink:href="#DejaVuSans-101"/>
      <use x="158.935547" xlink:href="#DejaVuSans-97"/>
      <use x="220.214844" xlink:href="#DejaVuSans-110"/>
     </g>
    </g>
   </g>
  </g>
  <g id="text_20">
   <!-- log_loss.mean over generations -->
   <defs>
    <path d="M 9.421875 75.984375 
L 18.40625 75.984375 
L 18.40625 0 
L 9.421875 0 
z
" id="DejaVuSans-108"/>
    <path d="M 30.609375 48.390625 
Q 23.390625 48.390625 19.1875 42.75 
Q 14.984375 37.109375 14.984375 27.296875 
Q 14.984375 17.484375 19.15625 11.84375 
Q 23.34375 6.203125 30.609375 6.203125 
Q 37.796875 6.203125 41.984375 11.859375 
Q 46.1875 17.53125 46.1875 27.296875 
Q 46.1875 37.015625 41.984375 42.703125 
Q 37.796875 48.390625 30.609375 48.390625 
z
M 30.609375 56 
Q 42.328125 56 49.015625 48.375 
Q 55.71875 40.765625 55.71875 27.296875 
Q 55.71875 13.875 49.015625 6.21875 
Q 42.328125 -1.421875 30.609375 -1.421875 
Q 18.84375 -1.421875 12.171875 6.21875 
Q 5.515625 13.875 5.515625 27.296875 
Q 5.515625 40.765625 12.171875 48.375 
Q 18.84375 56 30.609375 56 
z
" id="DejaVuSans-111"/>
    <path d="M 45.40625 27.984375 
Q 45.40625 37.75 41.375 43.109375 
Q 37.359375 48.484375 30.078125 48.484375 
Q 22.859375 48.484375 18.828125 43.109375 
Q 14.796875 37.75 14.796875 27.984375 
Q 14.796875 18.265625 18.828125 12.890625 
Q 22.859375 7.515625 30.078125 7.515625 
Q 37.359375 7.515625 41.375 12.890625 
Q 45.40625 18.265625 45.40625 27.984375 
z
M 54.390625 6.78125 
Q 54.390625 -7.171875 48.1875 -13.984375 
Q 42 -20.796875 29.203125 -20.796875 
Q 24.46875 -20.796875 20.265625 -20.09375 
Q 16.0625 -19.390625 12.109375 -17.921875 
L 12.109375 -9.1875 
Q 16.0625 -11.328125 19.921875 -12.34375 
Q 23.78125 -13.375 27.78125 -13.375 
Q 36.625 -13.375 41.015625 -8.765625 
Q 45.40625 -4.15625 45.40625 5.171875 
L 45.40625 9.625 
Q 42.625 4.78125 38.28125 2.390625 
Q 33.9375 0 27.875 0 
Q 17.828125 0 11.671875 7.65625 
Q 5.515625 15.328125 5.515625 27.984375 
Q 5.515625 40.671875 11.671875 48.328125 
Q 17.828125 56 27.875 56 
Q 33.9375 56 38.28125 53.609375 
Q 42.625 51.21875 45.40625 46.390625 
L 45.40625 54.6875 
L 54.390625 54.6875 
z
" id="DejaVuSans-103"/>
    <path d="M 50.984375 -16.609375 
L 50.984375 -23.578125 
L -0.984375 -23.578125 
L -0.984375 -16.609375 
z
" id="DejaVuSans-95"/>
    <path d="M 44.28125 53.078125 
L 44.28125 44.578125 
Q 40.484375 46.53125 36.375 47.5 
Q 32.28125 48.484375 27.875 48.484375 
Q 21.1875 48.484375 17.84375 46.4375 
Q 14.5 44.390625 14.5 40.28125 
Q 14.5 37.15625 16.890625 35.375 
Q 19.28125 33.59375 26.515625 31.984375 
L 29.59375 31.296875 
Q 39.15625 29.25 43.1875 25.515625 
Q 47.21875 21.78125 47.21875 15.09375 
Q 47.21875 7.46875 41.1875 3.015625 
Q 35.15625 -1.421875 24.609375 -1.421875 
Q 20.21875 -1.421875 15.453125 -0.5625 
Q 10.6875 0.296875 5.421875 2 
L 5.421875 11.28125 
Q 10.40625 8.6875 15.234375 7.390625 
Q 20.0625 6.109375 24.8125 6.109375 
Q 31.15625 6.109375 34.5625 8.28125 
Q 37.984375 10.453125 37.984375 14.40625 
Q 37.984375 18.0625 35.515625 20.015625 
Q 33.0625 21.96875 24.703125 23.78125 
L 21.578125 24.515625 
Q 13.234375 26.265625 9.515625 29.90625 
Q 5.8125 33.546875 5.8125 39.890625 
Q 5.8125 47.609375 11.28125 51.796875 
Q 16.75 56 26.8125 56 
Q 31.78125 56 36.171875 55.265625 
Q 40.578125 54.546875 44.28125 53.078125 
z
" id="DejaVuSans-115"/>
    <path id="DejaVuSans-32"/>
    <path d="M 2.984375 54.6875 
L 12.5 54.6875 
L 29.59375 8.796875 
L 46.6875 54.6875 
L 56.203125 54.6875 
L 35.6875 0 
L 23.484375 0 
z
" id="DejaVuSans-118"/>
    <path d="M 41.109375 46.296875 
Q 39.59375 47.171875 37.8125 47.578125 
Q 36.03125 48 33.890625 48 
Q 26.265625 48 22.1875 43.046875 
Q 18.109375 38.09375 18.109375 28.8125 
L 18.109375 0 
L 9.078125 0 
L 9.078125 54.6875 
L 18.109375 54.6875 
L 18.109375 46.1875 
Q 20.953125 51.171875 25.484375 53.578125 
Q 30.03125 56 36.53125 56 
Q 37.453125 56 38.578125 55.875 
Q 39.703125 55.765625 41.0625 55.515625 
z
" id="DejaVuSans-114"/>
    <path d="M 18.3125 70.21875 
L 18.3125 54.6875 
L 36.8125 54.6875 
L 36.8125 47.703125 
L 18.3125 47.703125 
L 18.3125 18.015625 
Q 18.3125 11.328125 20.140625 9.421875 
Q 21.96875 7.515625 27.59375 7.515625 
L 36.8125 7.515625 
L 36.8125 0 
L 27.59375 0 
Q 17.1875 0 13.234375 3.875 
Q 9.28125 7.765625 9.28125 18.015625 
L 9.28125 47.703125 
L 2.6875 47.703125 
L 2.6875 54.6875 
L 9.28125 54.6875 
L 9.28125 70.21875 
z
" id="DejaVuSans-116"/>
   </defs>
   <g transform="translate(134.789062 16.030125)scale(0.12 -0.12)">
    <use xlink:href="#DejaVuSans-108"/>
    <use x="27.783203" xlink:href="#DejaVuSans-111"/>
    <use x="88.964844" xlink:href="#DejaVuSans-103"/>
    <use x="152.441406" xlink:href="#DejaVuSans-95"/>
    <use x="202.441406" xlink:href="#DejaVuSans-108"/>
    <use x="230.224609" xlink:href="#DejaVuSans-111"/>
    <use x="291.40625" xlink:href="#DejaVuSans-115"/>
    <use x="343.505859" xlink:href="#DejaVuSans-115"/>
    <use x="395.605469" xlink:href="#DejaVuSans-46"/>
    <use x="427.392578" xlink:href="#DejaVuSans-109"/>
    <use x="524.804688" xlink:href="#DejaVuSans-101"/>
    <use x="586.328125" xlink:href="#DejaVuSans-97"/>
    <use x="647.607422" xlink:href="#DejaVuSans-110"/>
    <use x="710.986328" xlink:href="#DejaVuSans-32"/>
    <use x="742.773438" xlink:href="#DejaVuSans-111"/>
    <use x="803.955078" xlink:href="#DejaVuSans-118"/>
    <use x="863.134766" xlink:href="#DejaVuSans-101"/>
    <use x="924.658203" xlink:href="#DejaVuSans-114"/>
    <use x="965.771484" xlink:href="#DejaVuSans-32"/>
    <use x="997.558594" xlink:href="#DejaVuSans-103"/>
    <use x="1061.035156" xlink:href="#DejaVuSans-101"/>
    <use x="1122.558594" xlink:href="#DejaVuSans-110"/>
    <use x="1185.9375" xlink:href="#DejaVuSans-101"/>
    <use x="1247.460938" xlink:href="#DejaVuSans-114"/>
    <use x="1288.574219" xlink:href="#DejaVuSans-97"/>
    <use x="1349.853516" xlink:href="#DejaVuSans-116"/>
    <use x="1389.0625" xlink:href="#DejaVuSans-105"/>
    <use x="1416.845703" xlink:href="#DejaVuSans-111"/>
    <use x="1478.027344" xlink:href="#DejaVuSans-110"/>
    <use x="1541.40625" xlink:href="#DejaVuSans-115"/>
   </g>
  </g>
 </g>
 <defs>
  <clipPath id="p39c50b1322">
   <rect height="266.112" width="357.12" x="57.6" y="41.472"/>
  </clipPath>
 </defs>
</svg>
