<?xml version="1.0" encoding="utf-8" standalone="no"?>
<!DOCTYPE svg PUBLIC "-//W3C//DTD SVG 1.1//EN"
  "http://www.w3.org/Graphics/SVG/1.1/DTD/svg11.dtd">
<!-- Created with matplotlib (https://matplotlib.org/) -->
<svg height="345.6pt" version="1.1" viewBox="0 0 460.8 345.6" width="460.8pt" xmlns="http://www.w3.org/2000/svg" xmlns:xlink="http://www.w3.org/1999/xlink">
 <defs>
  <style type="text/css">
*{stroke-linecap:butt;stroke-linejoin:round;}
  </style>
 </defs>
 <g id="figure_1">
  <g id="patch_1">
   <path d="M 0 345.6 
L 460.8 345.6 
L 460.8 0 
L 0 0 
z
" style="fill:#ffffff;"/>
  </g>
  <g id="axes_1">
   <g id="patch_2">
    <path d="M 57.6 307.584 
L 414.72 307.584 
L 414.72 41.472 
L 57.6 41.472 
z
" style="fill:#ffffff;"/>
   </g>
   <g id="PolyCollection_1">
    <path clip-path="url(#p86fdfce2a4)" d="M 73.832727 206.359579 
L 73.832727 206.359579 
L 75.464157 206.359579 
L 77.095587 206.359579 
L 78.727017 206.359579 
L 80.358447 206.359579 
L 81.989877 206.359579 
L 83.621307 206.359579 
L 85.252736 206.359579 
L 86.884166 206.359579 
L 88.515596 206.359579 
L 90.147026 206.359579 
L 91.778456 206.359579 
L 93.409886 206.359579 
L 95.041316 206.359579 
L 96.672746 206.359579 
L 98.304175 206.359579 
L 99.935605 206.359579 
L 101.567035 206.359579 
L 103.198465 206.359579 
L 104.829895 206.359579 
L 106.461325 206.359579 
L 108.092755 206.359579 
L 109.724185 206.359579 
L 111.355614 206.359579 
L 112.987044 206.359579 
L 114.618474 206.359579 
L 116.249904 206.359579 
L 117.881334 206.359579 
L 119.512764 206.359579 
L 121.144194 206.359579 
L 122.775624 206.359579 
L 124.407053 206.359579 
L 126.038483 206.359579 
L 127.669913 206.359579 
L 129.301343 206.359579 
L 130.932773 206.359579 
L 132.564203 206.359579 
L 134.195633 206.359579 
L 135.827063 206.359579 
L 137.458492 206.359579 
L 139.089922 206.359579 
L 140.721352 206.359579 
L 142.352782 206.359579 
L 143.984212 206.359579 
L 145.615642 206.359579 
L 147.247072 206.359579 
L 148.878502 206.359579 
L 150.509931 206.359579 
L 152.141361 206.359579 
L 153.772791 206.359579 
L 155.404221 206.359579 
L 157.035651 206.359579 
L 158.667081 206.359579 
L 160.298511 206.359579 
L 161.929941 206.359579 
L 163.56137 206.359579 
L 165.1928 206.359579 
L 166.82423 206.359579 
L 168.45566 206.359579 
L 170.08709 206.359579 
L 171.71852 206.359579 
L 173.34995 206.359579 
L 174.98138 206.359579 
L 176.61281 206.359579 
L 178.244239 206.359579 
L 179.875669 206.359579 
L 181.507099 206.359579 
L 183.138529 206.359579 
L 184.769959 206.359579 
L 186.401389 206.359579 
L 188.032819 206.359579 
L 189.664249 206.359579 
L 191.295678 206.359579 
L 192.927108 206.359579 
L 194.558538 206.359579 
L 196.189968 206.359579 
L 197.821398 206.359579 
L 199.452828 206.359579 
L 201.084258 206.359579 
L 202.715688 206.359579 
L 204.347117 206.359579 
L 205.978547 206.359579 
L 207.609977 206.359579 
L 209.241407 206.359579 
L 210.872837 206.359579 
L 212.504267 206.359579 
L 214.135697 206.359579 
L 215.767127 206.359579 
L 217.398556 206.359579 
L 219.029986 206.359579 
L 220.661416 206.359579 
L 222.292846 193.626947 
L 223.924276 186.979765 
L 225.555706 187.635121 
L 227.187136 206.359579 
L 228.818566 204.487133 
L 230.449995 188.477721 
L 232.081425 163.386947 
L 233.712855 192.877969 
L 235.344285 175.276978 
L 236.975715 150.279827 
L 238.607145 177.711158 
L 240.238575 206.359579 
L 241.870005 161.420879 
L 243.501434 136.878464 
L 245.132864 188.00961 
L 246.764294 139.887752 
L 248.395724 206.359579 
L 250.027154 188.477721 
L 251.658584 206.359579 
L 253.290014 157.530873 
L 254.921444 170.970353 
L 256.552873 168.161684 
L 258.184303 173.498155 
L 259.815733 182.017783 
L 261.447163 188.384099 
L 263.078593 179.972136 
L 264.710023 189.413944 
L 266.341453 206.359579 
L 267.972883 130.900012 
L 269.604312 167.131839 
L 271.235742 172.09382 
L 272.867172 132.772458 
L 274.498602 170.783108 
L 276.130032 144.381622 
L 277.761462 167.412706 
L 279.392892 154.305585 
L 281.024322 156.735694 
L 282.655751 166.850972 
L 284.287181 177.430291 
L 285.918611 199.337907 
L 287.550041 170.03413 
L 289.181471 187.635121 
L 290.812901 180.707071 
L 292.444331 154.609858 
L 294.075761 186.137164 
L 295.70719 168.910663 
L 297.33862 198.120817 
L 298.97005 167.59995 
L 300.60148 189.975678 
L 302.23291 179.230392 
L 303.86434 167.061622 
L 305.49577 206.359579 
L 307.1272 176.025957 
L 308.75863 180.707071 
L 310.390059 172.772582 
L 312.021489 187.635121 
L 313.652919 174.528 
L 315.284349 206.359579 
L 316.915779 187.728743 
L 318.547209 171.415059 
L 320.178639 191.754502 
L 321.810069 187.635121 
L 323.441498 200.742241 
L 325.072928 206.359579 
L 326.704358 204.487133 
L 328.335788 206.359579 
L 329.967218 204.955245 
L 331.598648 179.302737 
L 333.230078 200.180508 
L 334.861508 188.00961 
L 336.492937 168.910663 
L 338.124367 194.844037 
L 339.755797 187.635121 
L 341.387227 187.635121 
L 343.018657 202.614687 
L 344.650087 167.506328 
L 346.281517 175.74509 
L 347.912947 187.822365 
L 349.544376 187.728743 
L 351.175806 168.910663 
L 352.807236 186.886142 
L 354.438666 172.000198 
L 356.070096 187.635121 
L 357.701526 189.413944 
L 359.332956 186.137164 
L 360.964386 206.359579 
L 362.595815 163.829053 
L 364.227245 176.400446 
L 365.858675 193.626947 
L 367.490105 168.629796 
L 369.121535 206.359579 
L 370.752965 206.359579 
L 372.384395 188.00961 
L 374.015825 200.742241 
L 375.647254 187.635121 
L 377.278684 188.196854 
L 378.910114 191.005523 
L 380.541544 164.416793 
L 382.172974 149.437226 
L 383.804404 187.635121 
L 385.435834 125.844409 
L 387.067264 141.947443 
L 388.698693 140.823975 
L 390.330123 155.429053 
L 391.961553 133.615059 
L 393.592983 132.833313 
L 395.224413 188.00961 
L 396.855843 150.186204 
L 398.487273 169.285152 
L 398.487273 118.176297 
L 398.487273 118.176297 
L 396.855843 125.844409 
L 395.224413 125.844409 
L 393.592983 104.685771 
L 391.961553 96.825957 
L 390.330123 112.737288 
L 388.698693 112.737288 
L 387.067264 113.111777 
L 385.435834 104.873015 
L 383.804404 125.844409 
L 382.172974 116.856669 
L 380.541544 131.461746 
L 378.910114 127.977597 
L 377.278684 129.315923 
L 375.647254 126.357994 
L 374.015825 127.803848 
L 372.384395 125.844409 
L 370.752965 112.737288 
L 369.121535 112.737288 
L 367.490105 127.964954 
L 365.858675 125.844409 
L 364.227245 143.445399 
L 362.595815 122.848495 
L 360.964386 131.461746 
L 359.332956 116.541697 
L 357.701526 113.860755 
L 356.070096 126.125276 
L 354.438666 131.836235 
L 352.807236 116.10769 
L 351.175806 125.750786 
L 349.544376 132.585214 
L 347.912947 125.844409 
L 346.281517 129.5893 
L 344.650087 117.699269 
L 343.018657 147.003046 
L 341.387227 125.844409 
L 339.755797 112.737288 
L 338.124367 129.963789 
L 336.492937 119.852582 
L 334.861508 131.461746 
L 333.230078 112.737288 
L 331.598648 125.563542 
L 329.967218 119.424594 
L 328.335788 125.844409 
L 326.704358 125.844409 
L 325.072928 118.729115 
L 323.441498 125.189053 
L 321.810069 113.049362 
L 320.178639 113.486266 
L 318.547209 128.928594 
L 316.915779 115.077845 
L 315.284349 112.737288 
L 313.652919 113.486266 
L 312.021489 112.737288 
L 310.390059 112.737288 
L 308.75863 113.860755 
L 307.1272 114.609734 
L 305.49577 112.914234 
L 303.86434 112.750663 
L 302.23291 112.737288 
L 300.60148 112.886269 
L 298.97005 112.737288 
L 297.33862 112.737288 
L 295.70719 113.486266 
L 294.075761 112.737288 
L 292.444331 112.737288 
L 290.812901 112.737288 
L 289.181471 116.10769 
L 287.550041 113.392644 
L 285.918611 112.737288 
L 284.287181 112.737288 
L 282.655751 118.073758 
L 281.024322 112.737288 
L 279.392892 114.878389 
L 277.761462 112.737288 
L 276.130032 116.48218 
L 274.498602 112.737288 
L 272.867172 112.737288 
L 271.235742 112.754842 
L 269.604312 113.111777 
L 267.972883 112.737288 
L 266.341453 112.737288 
L 264.710023 112.737288 
L 263.078593 112.737288 
L 261.447163 112.737288 
L 259.815733 113.111777 
L 258.184303 113.111777 
L 256.552873 114.984223 
L 254.921444 113.111777 
L 253.290014 113.050719 
L 251.658584 112.737288 
L 250.027154 112.822885 
L 248.395724 112.849635 
L 246.764294 113.111777 
L 245.132864 113.111777 
L 243.501434 113.111777 
L 241.870005 112.737288 
L 240.238575 112.737288 
L 238.607145 125.844409 
L 236.975715 113.111777 
L 235.344285 112.737288 
L 233.712855 114.235245 
L 232.081425 112.737288 
L 230.449995 112.737288 
L 228.818566 112.737288 
L 227.187136 112.849635 
L 225.555706 120.227071 
L 223.924276 125.844409 
L 222.292846 163.667814 
L 220.661416 180.571319 
L 219.029986 159.613756 
L 217.398556 202.962718 
L 215.767127 206.359579 
L 214.135697 206.359579 
L 212.504267 206.359579 
L 210.872837 206.359579 
L 209.241407 206.359579 
L 207.609977 206.359579 
L 205.978547 206.359579 
L 204.347117 206.359579 
L 202.715688 206.359579 
L 201.084258 206.359579 
L 199.452828 206.359579 
L 197.821398 206.359579 
L 196.189968 206.359579 
L 194.558538 206.359579 
L 192.927108 206.359579 
L 191.295678 206.359579 
L 189.664249 206.359579 
L 188.032819 206.359579 
L 186.401389 206.359579 
L 184.769959 206.359579 
L 183.138529 206.359579 
L 181.507099 206.359579 
L 179.875669 206.359579 
L 178.244239 206.359579 
L 176.61281 206.359579 
L 174.98138 206.359579 
L 173.34995 206.359579 
L 171.71852 206.359579 
L 170.08709 206.359579 
L 168.45566 206.359579 
L 166.82423 206.359579 
L 165.1928 206.359579 
L 163.56137 206.359579 
L 161.929941 206.359579 
L 160.298511 206.359579 
L 158.667081 206.359579 
L 157.035651 206.359579 
L 155.404221 206.359579 
L 153.772791 206.359579 
L 152.141361 206.359579 
L 150.509931 206.359579 
L 148.878502 206.359579 
L 147.247072 206.359579 
L 145.615642 206.359579 
L 143.984212 206.359579 
L 142.352782 206.359579 
L 140.721352 206.359579 
L 139.089922 206.359579 
L 137.458492 206.359579 
L 135.827063 206.359579 
L 134.195633 206.359579 
L 132.564203 206.359579 
L 130.932773 206.359579 
L 129.301343 206.359579 
L 127.669913 206.359579 
L 126.038483 206.359579 
L 124.407053 206.359579 
L 122.775624 206.359579 
L 121.144194 206.359579 
L 119.512764 206.359579 
L 117.881334 206.359579 
L 116.249904 206.359579 
L 114.618474 206.359579 
L 112.987044 206.359579 
L 111.355614 206.359579 
L 109.724185 206.359579 
L 108.092755 206.359579 
L 106.461325 206.359579 
L 104.829895 206.359579 
L 103.198465 206.359579 
L 101.567035 206.359579 
L 99.935605 206.359579 
L 98.304175 206.359579 
L 96.672746 206.359579 
L 95.041316 206.359579 
L 93.409886 206.359579 
L 91.778456 206.359579 
L 90.147026 206.359579 
L 88.515596 206.359579 
L 86.884166 206.359579 
L 85.252736 206.359579 
L 83.621307 206.359579 
L 81.989877 206.359579 
L 80.358447 206.359579 
L 78.727017 206.359579 
L 77.095587 206.359579 
L 75.464157 206.359579 
L 73.832727 206.359579 
z
" style="fill:#1f77b4;fill-opacity:0.2;"/>
   </g>
   <g id="PolyCollection_2">
    <path clip-path="url(#p86fdfce2a4)" d="M 73.832727 206.359579 
L 73.832727 206.359579 
L 75.464157 206.359579 
L 77.095587 206.359579 
L 78.727017 206.359579 
L 80.358447 206.359579 
L 81.989877 206.359579 
L 83.621307 206.359579 
L 85.252736 206.359579 
L 86.884166 206.359579 
L 88.515596 206.359579 
L 90.147026 206.359579 
L 91.778456 206.359579 
L 93.409886 206.359579 
L 95.041316 206.359579 
L 96.672746 206.359579 
L 98.304175 206.359579 
L 99.935605 206.359579 
L 101.567035 206.359579 
L 103.198465 206.359579 
L 104.829895 206.359579 
L 106.461325 206.359579 
L 108.092755 206.359579 
L 109.724185 206.359579 
L 111.355614 206.359579 
L 112.987044 206.359579 
L 114.618474 206.359579 
L 116.249904 206.359579 
L 117.881334 206.359579 
L 119.512764 206.359579 
L 121.144194 206.359579 
L 122.775624 206.359579 
L 124.407053 206.359579 
L 126.038483 206.359579 
L 127.669913 206.359579 
L 129.301343 206.359579 
L 130.932773 206.359579 
L 132.564203 206.359579 
L 134.195633 206.359579 
L 135.827063 206.359579 
L 137.458492 206.359579 
L 139.089922 206.359579 
L 140.721352 206.359579 
L 142.352782 206.359579 
L 143.984212 206.359579 
L 145.615642 206.359579 
L 147.247072 206.359579 
L 148.878502 206.359579 
L 150.509931 206.359579 
L 152.141361 206.359579 
L 153.772791 206.359579 
L 155.404221 206.359579 
L 157.035651 206.359579 
L 158.667081 206.359579 
L 160.298511 206.359579 
L 161.929941 206.359579 
L 163.56137 206.359579 
L 165.1928 206.359579 
L 166.82423 206.359579 
L 168.45566 206.359579 
L 170.08709 206.359579 
L 171.71852 206.359579 
L 173.34995 206.359579 
L 174.98138 206.359579 
L 176.61281 206.359579 
L 178.244239 206.359579 
L 179.875669 206.359579 
L 181.507099 206.359579 
L 183.138529 206.359579 
L 184.769959 206.359579 
L 186.401389 206.359579 
L 188.032819 206.359579 
L 189.664249 206.359579 
L 191.295678 206.359579 
L 192.927108 206.359579 
L 194.558538 206.359579 
L 196.189968 206.359579 
L 197.821398 206.359579 
L 199.452828 206.359579 
L 201.084258 206.359579 
L 202.715688 206.359579 
L 204.347117 206.359579 
L 205.978547 206.359579 
L 207.609977 206.359579 
L 209.241407 206.359579 
L 210.872837 206.359579 
L 212.504267 270.397226 
L 214.135697 295.488 
L 215.767127 256.541127 
L 217.398556 206.359579 
L 219.029986 289.121684 
L 220.661416 242.685028 
L 222.292846 206.359579 
L 223.924276 219.092211 
L 225.555706 206.359579 
L 227.187136 206.359579 
L 228.818566 206.359579 
L 230.449995 206.359579 
L 232.081425 206.359579 
L 233.712855 206.359579 
L 235.344285 206.359579 
L 236.975715 206.359579 
L 238.607145 225.458526 
L 240.238575 206.359579 
L 241.870005 219.4667 
L 243.501434 206.359579 
L 245.132864 219.4667 
L 246.764294 206.359579 
L 248.395724 206.359579 
L 250.027154 242.310539 
L 251.658584 219.4667 
L 253.290014 206.359579 
L 254.921444 206.359579 
L 256.552873 206.359579 
L 258.184303 217.968743 
L 259.815733 206.359579 
L 261.447163 206.359579 
L 263.078593 206.359579 
L 264.710023 206.359579 
L 266.341453 206.359579 
L 267.972883 206.359579 
L 269.604312 206.359579 
L 271.235742 206.359579 
L 272.867172 206.359579 
L 274.498602 219.4667 
L 276.130032 206.359579 
L 277.761462 213.474873 
L 279.392892 206.359579 
L 281.024322 206.359579 
L 282.655751 206.359579 
L 284.287181 206.359579 
L 285.918611 206.359579 
L 287.550041 206.359579 
L 289.181471 206.359579 
L 290.812901 206.359579 
L 292.444331 206.359579 
L 294.075761 206.359579 
L 295.70719 230.326885 
L 297.33862 206.359579 
L 298.97005 206.359579 
L 300.60148 206.359579 
L 302.23291 206.359579 
L 303.86434 206.359579 
L 305.49577 214.223851 
L 307.1272 206.359579 
L 308.75863 227.330972 
L 310.390059 206.359579 
L 312.021489 206.359579 
L 313.652919 206.359579 
L 315.284349 206.359579 
L 316.915779 206.359579 
L 318.547209 206.359579 
L 320.178639 206.359579 
L 321.810069 220.590167 
L 323.441498 281.257412 
L 325.072928 219.092211 
L 326.704358 206.359579 
L 328.335788 206.359579 
L 329.967218 208.981003 
L 331.598648 233.322799 
L 333.230078 206.359579 
L 334.861508 206.359579 
L 336.492937 206.359579 
L 338.124367 206.359579 
L 339.755797 206.359579 
L 341.387227 228.45444 
L 343.018657 206.359579 
L 344.650087 206.359579 
L 346.281517 273.393139 
L 347.912947 210.104471 
L 349.544376 206.359579 
L 351.175806 224.335059 
L 352.807236 208.232025 
L 354.438666 206.359579 
L 356.070096 212.351406 
L 357.701526 206.359579 
L 359.332956 206.359579 
L 360.964386 206.359579 
L 362.595815 208.232025 
L 364.227245 259.53704 
L 365.858675 206.359579 
L 367.490105 209.729981 
L 369.121535 240.063604 
L 370.752965 206.359579 
L 372.384395 206.359579 
L 374.015825 206.359579 
L 375.647254 207.483046 
L 377.278684 206.359579 
L 378.910114 208.232025 
L 380.541544 219.4667 
L 382.172974 221.339146 
L 383.804404 244.182985 
L 385.435834 206.359579 
L 387.067264 206.359579 
L 388.698693 219.4667 
L 390.330123 206.359579 
L 391.961553 206.359579 
L 393.592983 206.359579 
L 395.224413 206.359579 
L 396.855843 206.359579 
L 398.487273 206.359579 
L 398.487273 72.04904 
L 398.487273 72.04904 
L 396.855843 74.539393 
L 395.224413 78.369396 
L 393.592983 75.573697 
L 391.961553 53.568 
L 390.330123 78.587443 
L 388.698693 55.065957 
L 387.067264 89.088297 
L 385.435834 70.420012 
L 383.804404 98.5067 
L 382.172974 112.737288 
L 380.541544 112.737288 
L 378.910114 112.576793 
L 377.278684 112.138105 
L 375.647254 112.737288 
L 374.015825 112.737288 
L 372.384395 112.737288 
L 370.752965 58.810848 
L 369.121535 79.033263 
L 367.490105 112.737288 
L 365.858675 112.737288 
L 364.227245 112.737288 
L 362.595815 112.737288 
L 360.964386 112.737288 
L 359.332956 112.737288 
L 357.701526 112.737288 
L 356.070096 112.737288 
L 354.438666 112.737288 
L 352.807236 112.737288 
L 351.175806 112.737288 
L 349.544376 112.737288 
L 347.912947 112.737288 
L 346.281517 112.737288 
L 344.650087 112.737288 
L 343.018657 112.737288 
L 341.387227 112.737288 
L 339.755797 112.737288 
L 338.124367 112.737288 
L 336.492937 112.737288 
L 334.861508 112.737288 
L 333.230078 112.737288 
L 331.598648 112.737288 
L 329.967218 112.737288 
L 328.335788 112.737288 
L 326.704358 112.737288 
L 325.072928 112.737288 
L 323.441498 112.737288 
L 321.810069 112.737288 
L 320.178639 112.737288 
L 318.547209 112.737288 
L 316.915779 112.737288 
L 315.284349 112.737288 
L 313.652919 112.737288 
L 312.021489 112.737288 
L 310.390059 112.737288 
L 308.75863 112.737288 
L 307.1272 110.115864 
L 305.49577 112.737288 
L 303.86434 112.737288 
L 302.23291 112.737288 
L 300.60148 112.737288 
L 298.97005 112.737288 
L 297.33862 112.737288 
L 295.70719 112.737288 
L 294.075761 112.737288 
L 292.444331 112.737288 
L 290.812901 112.737288 
L 289.181471 112.737288 
L 287.550041 112.737288 
L 285.918611 112.737288 
L 284.287181 112.737288 
L 282.655751 112.737288 
L 281.024322 112.737288 
L 279.392892 112.737288 
L 277.761462 112.737288 
L 276.130032 112.737288 
L 274.498602 112.737288 
L 272.867172 112.737288 
L 271.235742 112.737288 
L 269.604312 110.115864 
L 267.972883 112.737288 
L 266.341453 112.737288 
L 264.710023 112.737288 
L 263.078593 112.737288 
L 261.447163 112.737288 
L 259.815733 112.737288 
L 258.184303 110.115864 
L 256.552873 112.737288 
L 254.921444 112.737288 
L 253.290014 112.737288 
L 251.658584 112.737288 
L 250.027154 112.737288 
L 248.395724 112.737288 
L 246.764294 100.379145 
L 245.132864 112.737288 
L 243.501434 112.737288 
L 241.870005 112.737288 
L 240.238575 112.737288 
L 238.607145 112.737288 
L 236.975715 112.737288 
L 235.344285 112.737288 
L 233.712855 112.737288 
L 232.081425 112.737288 
L 230.449995 112.737288 
L 228.818566 112.737288 
L 227.187136 112.737288 
L 225.555706 112.737288 
L 223.924276 112.737288 
L 222.292846 112.737288 
L 220.661416 125.844409 
L 219.029986 153.931096 
L 217.398556 153.182118 
L 215.767127 158.125375 
L 214.135697 136.704594 
L 212.504267 153.182118 
L 210.872837 159.136495 
L 209.241407 206.359579 
L 207.609977 206.359579 
L 205.978547 206.359579 
L 204.347117 206.359579 
L 202.715688 206.359579 
L 201.084258 206.359579 
L 199.452828 206.359579 
L 197.821398 206.359579 
L 196.189968 206.359579 
L 194.558538 206.359579 
L 192.927108 206.359579 
L 191.295678 206.359579 
L 189.664249 206.359579 
L 188.032819 206.359579 
L 186.401389 206.359579 
L 184.769959 206.359579 
L 183.138529 206.359579 
L 181.507099 206.359579 
L 179.875669 206.359579 
L 178.244239 206.359579 
L 176.61281 206.359579 
L 174.98138 206.359579 
L 173.34995 206.359579 
L 171.71852 206.359579 
L 170.08709 206.359579 
L 168.45566 206.359579 
L 166.82423 206.359579 
L 165.1928 206.359579 
L 163.56137 206.359579 
L 161.929941 206.359579 
L 160.298511 206.359579 
L 158.667081 206.359579 
L 157.035651 206.359579 
L 155.404221 206.359579 
L 153.772791 206.359579 
L 152.141361 206.359579 
L 150.509931 206.359579 
L 148.878502 206.359579 
L 147.247072 206.359579 
L 145.615642 206.359579 
L 143.984212 206.359579 
L 142.352782 206.359579 
L 140.721352 206.359579 
L 139.089922 206.359579 
L 137.458492 206.359579 
L 135.827063 206.359579 
L 134.195633 206.359579 
L 132.564203 206.359579 
L 130.932773 206.359579 
L 129.301343 206.359579 
L 127.669913 206.359579 
L 126.038483 206.359579 
L 124.407053 206.359579 
L 122.775624 206.359579 
L 121.144194 206.359579 
L 119.512764 206.359579 
L 117.881334 206.359579 
L 116.249904 206.359579 
L 114.618474 206.359579 
L 112.987044 206.359579 
L 111.355614 206.359579 
L 109.724185 206.359579 
L 108.092755 206.359579 
L 106.461325 206.359579 
L 104.829895 206.359579 
L 103.198465 206.359579 
L 101.567035 206.359579 
L 99.935605 206.359579 
L 98.304175 206.359579 
L 96.672746 206.359579 
L 95.041316 206.359579 
L 93.409886 206.359579 
L 91.778456 206.359579 
L 90.147026 206.359579 
L 88.515596 206.359579 
L 86.884166 206.359579 
L 85.252736 206.359579 
L 83.621307 206.359579 
L 81.989877 206.359579 
L 80.358447 206.359579 
L 78.727017 206.359579 
L 77.095587 206.359579 
L 75.464157 206.359579 
L 73.832727 206.359579 
z
" style="fill:#1f77b4;fill-opacity:0.1;"/>
   </g>
   <g id="matplotlib.axis_1">
    <g id="xtick_1">
     <g id="line2d_1">
      <defs>
       <path d="M 0 0 
L 0 3.5 
" id="mcb32606fda" style="stroke:#000000;stroke-width:0.8;"/>
      </defs>
      <g>
       <use style="stroke:#000000;stroke-width:0.8;" x="73.832727" xlink:href="#mcb32606fda" y="307.584"/>
      </g>
     </g>
     <g id="text_1">
      <!-- 0 -->
      <defs>
       <path d="M 31.78125 66.40625 
Q 24.171875 66.40625 20.328125 58.90625 
Q 16.5 51.421875 16.5 36.375 
Q 16.5 21.390625 20.328125 13.890625 
Q 24.171875 6.390625 31.78125 6.390625 
Q 39.453125 6.390625 43.28125 13.890625 
Q 47.125 21.390625 47.125 36.375 
Q 47.125 51.421875 43.28125 58.90625 
Q 39.453125 66.40625 31.78125 66.40625 
z
M 31.78125 74.21875 
Q 44.046875 74.21875 50.515625 64.515625 
Q 56.984375 54.828125 56.984375 36.375 
Q 56.984375 17.96875 50.515625 8.265625 
Q 44.046875 -1.421875 31.78125 -1.421875 
Q 19.53125 -1.421875 13.0625 8.265625 
Q 6.59375 17.96875 6.59375 36.375 
Q 6.59375 54.828125 13.0625 64.515625 
Q 19.53125 74.21875 31.78125 74.21875 
z
" id="DejaVuSans-48"/>
      </defs>
      <g transform="translate(70.651477 322.182437)scale(0.1 -0.1)">
       <use xlink:href="#DejaVuSans-48"/>
      </g>
     </g>
    </g>
    <g id="xtick_2">
     <g id="line2d_2">
      <g>
       <use style="stroke:#000000;stroke-width:0.8;" x="114.618474" xlink:href="#mcb32606fda" y="307.584"/>
      </g>
     </g>
     <g id="text_2">
      <!-- 25 -->
      <defs>
       <path d="M 19.1875 8.296875 
L 53.609375 8.296875 
L 53.609375 0 
L 7.328125 0 
L 7.328125 8.296875 
Q 12.9375 14.109375 22.625 23.890625 
Q 32.328125 33.6875 34.8125 36.53125 
Q 39.546875 41.84375 41.421875 45.53125 
Q 43.3125 49.21875 43.3125 52.78125 
Q 43.3125 58.59375 39.234375 62.25 
Q 35.15625 65.921875 28.609375 65.921875 
Q 23.96875 65.921875 18.8125 64.3125 
Q 13.671875 62.703125 7.8125 59.421875 
L 7.8125 69.390625 
Q 13.765625 71.78125 18.9375 73 
Q 24.125 74.21875 28.421875 74.21875 
Q 39.75 74.21875 46.484375 68.546875 
Q 53.21875 62.890625 53.21875 53.421875 
Q 53.21875 48.921875 51.53125 44.890625 
Q 49.859375 40.875 45.40625 35.40625 
Q 44.1875 33.984375 37.640625 27.21875 
Q 31.109375 20.453125 19.1875 8.296875 
z
" id="DejaVuSans-50"/>
       <path d="M 10.796875 72.90625 
L 49.515625 72.90625 
L 49.515625 64.59375 
L 19.828125 64.59375 
L 19.828125 46.734375 
Q 21.96875 47.46875 24.109375 47.828125 
Q 26.265625 48.1875 28.421875 48.1875 
Q 40.625 48.1875 47.75 41.5 
Q 54.890625 34.8125 54.890625 23.390625 
Q 54.890625 11.625 47.5625 5.09375 
Q 40.234375 -1.421875 26.90625 -1.421875 
Q 22.3125 -1.421875 17.546875 -0.640625 
Q 12.796875 0.140625 7.71875 1.703125 
L 7.71875 11.625 
Q 12.109375 9.234375 16.796875 8.0625 
Q 21.484375 6.890625 26.703125 6.890625 
Q 35.15625 6.890625 40.078125 11.328125 
Q 45.015625 15.765625 45.015625 23.390625 
Q 45.015625 31 40.078125 35.4375 
Q 35.15625 39.890625 26.703125 39.890625 
Q 22.75 39.890625 18.8125 39.015625 
Q 14.890625 38.140625 10.796875 36.28125 
z
" id="DejaVuSans-53"/>
      </defs>
      <g transform="translate(108.255974 322.182437)scale(0.1 -0.1)">
       <use xlink:href="#DejaVuSans-50"/>
       <use x="63.623047" xlink:href="#DejaVuSans-53"/>
      </g>
     </g>
    </g>
    <g id="xtick_3">
     <g id="line2d_3">
      <g>
       <use style="stroke:#000000;stroke-width:0.8;" x="155.404221" xlink:href="#mcb32606fda" y="307.584"/>
      </g>
     </g>
     <g id="text_3">
      <!-- 50 -->
      <g transform="translate(149.041721 322.182437)scale(0.1 -0.1)">
       <use xlink:href="#DejaVuSans-53"/>
       <use x="63.623047" xlink:href="#DejaVuSans-48"/>
      </g>
     </g>
    </g>
    <g id="xtick_4">
     <g id="line2d_4">
      <g>
       <use style="stroke:#000000;stroke-width:0.8;" x="196.189968" xlink:href="#mcb32606fda" y="307.584"/>
      </g>
     </g>
     <g id="text_4">
      <!-- 75 -->
      <defs>
       <path d="M 8.203125 72.90625 
L 55.078125 72.90625 
L 55.078125 68.703125 
L 28.609375 0 
L 18.3125 0 
L 43.21875 64.59375 
L 8.203125 64.59375 
z
" id="DejaVuSans-55"/>
      </defs>
      <g transform="translate(189.827468 322.182437)scale(0.1 -0.1)">
       <use xlink:href="#DejaVuSans-55"/>
       <use x="63.623047" xlink:href="#DejaVuSans-53"/>
      </g>
     </g>
    </g>
    <g id="xtick_5">
     <g id="line2d_5">
      <g>
       <use style="stroke:#000000;stroke-width:0.8;" x="236.975715" xlink:href="#mcb32606fda" y="307.584"/>
      </g>
     </g>
     <g id="text_5">
      <!-- 100 -->
      <defs>
       <path d="M 12.40625 8.296875 
L 28.515625 8.296875 
L 28.515625 63.921875 
L 10.984375 60.40625 
L 10.984375 69.390625 
L 28.421875 72.90625 
L 38.28125 72.90625 
L 38.28125 8.296875 
L 54.390625 8.296875 
L 54.390625 0 
L 12.40625 0 
z
" id="DejaVuSans-49"/>
      </defs>
      <g transform="translate(227.431965 322.182437)scale(0.1 -0.1)">
       <use xlink:href="#DejaVuSans-49"/>
       <use x="63.623047" xlink:href="#DejaVuSans-48"/>
       <use x="127.246094" xlink:href="#DejaVuSans-48"/>
      </g>
     </g>
    </g>
    <g id="xtick_6">
     <g id="line2d_6">
      <g>
       <use style="stroke:#000000;stroke-width:0.8;" x="277.761462" xlink:href="#mcb32606fda" y="307.584"/>
      </g>
     </g>
     <g id="text_6">
      <!-- 125 -->
      <g transform="translate(268.217712 322.182437)scale(0.1 -0.1)">
       <use xlink:href="#DejaVuSans-49"/>
       <use x="63.623047" xlink:href="#DejaVuSans-50"/>
       <use x="127.246094" xlink:href="#DejaVuSans-53"/>
      </g>
     </g>
    </g>
    <g id="xtick_7">
     <g id="line2d_7">
      <g>
       <use style="stroke:#000000;stroke-width:0.8;" x="318.547209" xlink:href="#mcb32606fda" y="307.584"/>
      </g>
     </g>
     <g id="text_7">
      <!-- 150 -->
      <g transform="translate(309.003459 322.182437)scale(0.1 -0.1)">
       <use xlink:href="#DejaVuSans-49"/>
       <use x="63.623047" xlink:href="#DejaVuSans-53"/>
       <use x="127.246094" xlink:href="#DejaVuSans-48"/>
      </g>
     </g>
    </g>
    <g id="xtick_8">
     <g id="line2d_8">
      <g>
       <use style="stroke:#000000;stroke-width:0.8;" x="359.332956" xlink:href="#mcb32606fda" y="307.584"/>
      </g>
     </g>
     <g id="text_8">
      <!-- 175 -->
      <g transform="translate(349.789206 322.182437)scale(0.1 -0.1)">
       <use xlink:href="#DejaVuSans-49"/>
       <use x="63.623047" xlink:href="#DejaVuSans-55"/>
       <use x="127.246094" xlink:href="#DejaVuSans-53"/>
      </g>
     </g>
    </g>
    <g id="xtick_9">
     <g id="line2d_9">
      <g>
       <use style="stroke:#000000;stroke-width:0.8;" x="400.118703" xlink:href="#mcb32606fda" y="307.584"/>
      </g>
     </g>
     <g id="text_9">
      <!-- 200 -->
      <g transform="translate(390.574953 322.182437)scale(0.1 -0.1)">
       <use xlink:href="#DejaVuSans-50"/>
       <use x="63.623047" xlink:href="#DejaVuSans-48"/>
       <use x="127.246094" xlink:href="#DejaVuSans-48"/>
      </g>
     </g>
    </g>
   </g>
   <g id="matplotlib.axis_2">
    <g id="ytick_1">
     <g id="line2d_10">
      <defs>
       <path d="M 0 0 
L -3.5 0 
" id="m5f19493f85" style="stroke:#000000;stroke-width:0.8;"/>
      </defs>
      <g>
       <use style="stroke:#000000;stroke-width:0.8;" x="57.6" xlink:href="#m5f19493f85" y="299.98187"/>
      </g>
     </g>
     <g id="text_10">
      <!-- 0.0 -->
      <defs>
       <path d="M 10.6875 12.40625 
L 21 12.40625 
L 21 0 
L 10.6875 0 
z
" id="DejaVuSans-46"/>
      </defs>
      <g transform="translate(34.696875 303.781089)scale(0.1 -0.1)">
       <use xlink:href="#DejaVuSans-48"/>
       <use x="63.623047" xlink:href="#DejaVuSans-46"/>
       <use x="95.410156" xlink:href="#DejaVuSans-48"/>
      </g>
     </g>
    </g>
    <g id="ytick_2">
     <g id="line2d_11">
      <g>
       <use style="stroke:#000000;stroke-width:0.8;" x="57.6" xlink:href="#m5f19493f85" y="243.808495"/>
      </g>
     </g>
     <g id="text_11">
      <!-- 0.2 -->
      <g transform="translate(34.696875 247.607714)scale(0.1 -0.1)">
       <use xlink:href="#DejaVuSans-48"/>
       <use x="63.623047" xlink:href="#DejaVuSans-46"/>
       <use x="95.410156" xlink:href="#DejaVuSans-50"/>
      </g>
     </g>
    </g>
    <g id="ytick_3">
     <g id="line2d_12">
      <g>
       <use style="stroke:#000000;stroke-width:0.8;" x="57.6" xlink:href="#m5f19493f85" y="187.635121"/>
      </g>
     </g>
     <g id="text_12">
      <!-- 0.4 -->
      <defs>
       <path d="M 37.796875 64.3125 
L 12.890625 25.390625 
L 37.796875 25.390625 
z
M 35.203125 72.90625 
L 47.609375 72.90625 
L 47.609375 25.390625 
L 58.015625 25.390625 
L 58.015625 17.1875 
L 47.609375 17.1875 
L 47.609375 0 
L 37.796875 0 
L 37.796875 17.1875 
L 4.890625 17.1875 
L 4.890625 26.703125 
z
" id="DejaVuSans-52"/>
      </defs>
      <g transform="translate(34.696875 191.434339)scale(0.1 -0.1)">
       <use xlink:href="#DejaVuSans-48"/>
       <use x="63.623047" xlink:href="#DejaVuSans-46"/>
       <use x="95.410156" xlink:href="#DejaVuSans-52"/>
      </g>
     </g>
    </g>
    <g id="ytick_4">
     <g id="line2d_13">
      <g>
       <use style="stroke:#000000;stroke-width:0.8;" x="57.6" xlink:href="#m5f19493f85" y="131.461746"/>
      </g>
     </g>
     <g id="text_13">
      <!-- 0.6 -->
      <defs>
       <path d="M 33.015625 40.375 
Q 26.375 40.375 22.484375 35.828125 
Q 18.609375 31.296875 18.609375 23.390625 
Q 18.609375 15.53125 22.484375 10.953125 
Q 26.375 6.390625 33.015625 6.390625 
Q 39.65625 6.390625 43.53125 10.953125 
Q 47.40625 15.53125 47.40625 23.390625 
Q 47.40625 31.296875 43.53125 35.828125 
Q 39.65625 40.375 33.015625 40.375 
z
M 52.59375 71.296875 
L 52.59375 62.3125 
Q 48.875 64.0625 45.09375 64.984375 
Q 41.3125 65.921875 37.59375 65.921875 
Q 27.828125 65.921875 22.671875 59.328125 
Q 17.53125 52.734375 16.796875 39.40625 
Q 19.671875 43.65625 24.015625 45.921875 
Q 28.375 48.1875 33.59375 48.1875 
Q 44.578125 48.1875 50.953125 41.515625 
Q 57.328125 34.859375 57.328125 23.390625 
Q 57.328125 12.15625 50.6875 5.359375 
Q 44.046875 -1.421875 33.015625 -1.421875 
Q 20.359375 -1.421875 13.671875 8.265625 
Q 6.984375 17.96875 6.984375 36.375 
Q 6.984375 53.65625 15.1875 63.9375 
Q 23.390625 74.21875 37.203125 74.21875 
Q 40.921875 74.21875 44.703125 73.484375 
Q 48.484375 72.75 52.59375 71.296875 
z
" id="DejaVuSans-54"/>
      </defs>
      <g transform="translate(34.696875 135.260965)scale(0.1 -0.1)">
       <use xlink:href="#DejaVuSans-48"/>
       <use x="63.623047" xlink:href="#DejaVuSans-46"/>
       <use x="95.410156" xlink:href="#DejaVuSans-54"/>
      </g>
     </g>
    </g>
    <g id="ytick_5">
     <g id="line2d_14">
      <g>
       <use style="stroke:#000000;stroke-width:0.8;" x="57.6" xlink:href="#m5f19493f85" y="75.288372"/>
      </g>
     </g>
     <g id="text_14">
      <!-- 0.8 -->
      <defs>
       <path d="M 31.78125 34.625 
Q 24.75 34.625 20.71875 30.859375 
Q 16.703125 27.09375 16.703125 20.515625 
Q 16.703125 13.921875 20.71875 10.15625 
Q 24.75 6.390625 31.78125 6.390625 
Q 38.8125 6.390625 42.859375 10.171875 
Q 46.921875 13.96875 46.921875 20.515625 
Q 46.921875 27.09375 42.890625 30.859375 
Q 38.875 34.625 31.78125 34.625 
z
M 21.921875 38.8125 
Q 15.578125 40.375 12.03125 44.71875 
Q 8.5 49.078125 8.5 55.328125 
Q 8.5 64.0625 14.71875 69.140625 
Q 20.953125 74.21875 31.78125 74.21875 
Q 42.671875 74.21875 48.875 69.140625 
Q 55.078125 64.0625 55.078125 55.328125 
Q 55.078125 49.078125 51.53125 44.71875 
Q 48 40.375 41.703125 38.8125 
Q 48.828125 37.15625 52.796875 32.3125 
Q 56.78125 27.484375 56.78125 20.515625 
Q 56.78125 9.90625 50.3125 4.234375 
Q 43.84375 -1.421875 31.78125 -1.421875 
Q 19.734375 -1.421875 13.25 4.234375 
Q 6.78125 9.90625 6.78125 20.515625 
Q 6.78125 27.484375 10.78125 32.3125 
Q 14.796875 37.15625 21.921875 38.8125 
z
M 18.3125 54.390625 
Q 18.3125 48.734375 21.84375 45.5625 
Q 25.390625 42.390625 31.78125 42.390625 
Q 38.140625 42.390625 41.71875 45.5625 
Q 45.3125 48.734375 45.3125 54.390625 
Q 45.3125 60.0625 41.71875 63.234375 
Q 38.140625 66.40625 31.78125 66.40625 
Q 25.390625 66.40625 21.84375 63.234375 
Q 18.3125 60.0625 18.3125 54.390625 
z
" id="DejaVuSans-56"/>
      </defs>
      <g transform="translate(34.696875 79.08759)scale(0.1 -0.1)">
       <use xlink:href="#DejaVuSans-48"/>
       <use x="63.623047" xlink:href="#DejaVuSans-46"/>
       <use x="95.410156" xlink:href="#DejaVuSans-56"/>
      </g>
     </g>
    </g>
   </g>
   <g id="line2d_15">
    <path clip-path="url(#p86fdfce2a4)" d="M 73.832727 206.359579 
L 220.661416 206.359579 
L 222.292846 175.838712 
L 223.924276 171.157598 
L 225.555706 138.57704 
L 227.187136 125.844409 
L 228.818566 119.602923 
L 230.449995 120.60156 
L 232.081425 125.844409 
L 233.712855 125.844409 
L 235.344285 114.609734 
L 236.975715 124.679926 
L 238.607145 150.186204 
L 240.238575 125.844409 
L 241.870005 125.844409 
L 243.501434 118.167381 
L 245.132864 126.986601 
L 246.764294 125.844409 
L 248.395724 125.844409 
L 250.027154 134.08317 
L 251.658584 121.725028 
L 253.290014 115.358712 
L 254.921444 131.461746 
L 256.552873 149.99896 
L 258.184303 137.453573 
L 259.815733 137.453573 
L 261.447163 125.844409 
L 263.078593 131.740384 
L 264.710023 114.609734 
L 266.341453 125.22026 
L 267.972883 114.506749 
L 269.604312 125.844409 
L 271.235742 125.844409 
L 272.867172 114.434119 
L 274.498602 120.291269 
L 276.130032 123.784718 
L 277.761462 131.461746 
L 279.392892 129.214811 
L 281.024322 112.821548 
L 282.655751 129.776545 
L 284.287181 120.639009 
L 285.918611 120.262737 
L 287.550041 131.461746 
L 289.181471 130.338279 
L 290.812901 125.844409 
L 292.444331 125.844409 
L 294.075761 118.309687 
L 295.70719 125.844409 
L 297.33862 118.729115 
L 298.97005 125.844409 
L 300.60148 171.282427 
L 302.23291 133.708681 
L 303.86434 127.661602 
L 305.49577 150.052458 
L 307.1272 131.461746 
L 308.75863 125.938031 
L 312.021489 125.844409 
L 313.652919 139.326019 
L 315.284349 125.844409 
L 316.915779 159.66078 
L 318.547209 152.433139 
L 320.178639 159.914411 
L 321.810069 160.378822 
L 323.441498 131.461746 
L 326.704358 177.523913 
L 328.335788 172.655554 
L 329.967218 157.488743 
L 331.598648 137.453573 
L 333.230078 149.455059 
L 334.861508 154.305585 
L 336.492937 154.567728 
L 338.124367 168.910663 
L 339.755797 146.815802 
L 341.387227 142.321932 
L 343.018657 169.846885 
L 344.650087 149.55091 
L 346.281517 141.760198 
L 347.912947 140.262241 
L 349.544376 152.433139 
L 351.175806 147.56478 
L 352.807236 135.581127 
L 354.438666 149.99896 
L 356.070096 157.488743 
L 357.701526 126.800352 
L 359.332956 141.947443 
L 360.964386 150.186204 
L 362.595815 131.461746 
L 364.227245 150.186204 
L 365.858675 149.249981 
L 367.490105 147.377536 
L 369.121535 126.147125 
L 370.752965 123.80174 
L 372.384395 169.097907 
L 375.647254 131.836235 
L 377.278684 150.186204 
L 378.910114 137.453573 
L 380.541544 145.343379 
L 382.172974 128.840322 
L 383.804404 145.71574 
L 385.435834 113.486266 
L 387.067264 125.844409 
L 388.698693 125.685251 
L 390.330123 125.844409 
L 391.961553 112.737288 
L 395.224413 139.406266 
L 396.855843 130.057412 
L 398.487273 131.461746 
L 398.487273 131.461746 
" style="fill:none;stroke:#1f77b4;stroke-linecap:square;stroke-width:0.25;"/>
   </g>
   <g id="line2d_16">
    <path clip-path="url(#p86fdfce2a4)" d="M 73.832727 206.359579 
L 209.241407 206.359579 
L 212.504267 203.742381 
L 214.135697 205.345605 
L 215.767127 201.841111 
L 217.398556 195.75245 
L 219.029986 191.615642 
L 220.661416 195.863588 
L 222.292846 174.536925 
L 223.924276 164.100881 
L 225.555706 152.588869 
L 227.187136 151.231507 
L 228.818566 145.610106 
L 230.449995 142.615291 
L 232.081425 142.019072 
L 233.712855 149.768556 
L 235.344285 138.767788 
L 236.975715 137.544388 
L 238.607145 154.357745 
L 240.238575 143.696453 
L 241.870005 142.223107 
L 243.501434 135.573972 
L 245.132864 148.129848 
L 246.764294 136.380734 
L 248.395724 152.174864 
L 250.027154 147.27311 
L 251.658584 145.823668 
L 253.290014 138.773473 
L 256.552873 150.763527 
L 258.184303 147.889604 
L 259.815733 147.274073 
L 261.447163 145.539369 
L 263.078593 149.380525 
L 264.710023 143.350077 
L 266.341453 147.038459 
L 267.972883 135.551303 
L 269.604312 143.194702 
L 271.235742 144.222363 
L 272.867172 136.913536 
L 274.498602 143.019435 
L 276.130032 138.733591 
L 277.761462 143.993377 
L 279.392892 142.673629 
L 281.024322 137.364587 
L 282.655751 145.706359 
L 284.287181 143.705249 
L 285.918611 142.540602 
L 287.550041 142.891789 
L 289.181471 147.911833 
L 290.812901 145.111671 
L 292.444331 139.689687 
L 294.075761 144.07336 
L 295.70719 143.853547 
L 297.33862 143.472997 
L 298.97005 143.833562 
L 300.60148 158.74655 
L 302.23291 150.222327 
L 303.86434 145.291349 
L 305.49577 152.038303 
L 307.1272 145.864211 
L 308.75863 149.373168 
L 310.390059 146.357557 
L 312.021489 145.658159 
L 313.652919 149.542052 
L 315.284349 148.989199 
L 316.915779 156.498767 
L 318.547209 152.250587 
L 320.178639 156.452317 
L 321.810069 157.946351 
L 323.441498 155.278945 
L 325.072928 160.754125 
L 326.704358 165.808863 
L 328.335788 166.665998 
L 329.967218 157.592831 
L 331.598648 151.572875 
L 333.230078 154.330285 
L 334.861508 158.171377 
L 336.492937 153.72062 
L 338.124367 166.358309 
L 339.755797 150.822024 
L 341.387227 153.010038 
L 343.018657 169.654843 
L 344.650087 148.62921 
L 346.281517 152.950828 
L 347.912947 153.683378 
L 349.544376 158.149704 
L 351.175806 148.37897 
L 352.807236 151.020639 
L 354.438666 155.249062 
L 356.070096 157.738526 
L 357.701526 147.461099 
L 359.332956 150.723003 
L 360.964386 163.222256 
L 362.595815 148.42467 
L 364.227245 160.379624 
L 365.858675 155.877874 
L 367.490105 150.825511 
L 369.121535 150.090524 
L 370.752965 141.357841 
L 372.384395 159.899413 
L 374.015825 156.736191 
L 375.647254 153.200113 
L 377.278684 156.504664 
L 378.910114 153.244354 
L 380.541544 152.457342 
L 382.172974 142.869381 
L 383.804404 152.951363 
L 385.435834 122.39462 
L 387.067264 134.1295 
L 388.698693 128.333479 
L 390.330123 135.596008 
L 391.961553 120.839607 
L 393.592983 127.63022 
L 395.224413 153.982351 
L 396.855843 138.210673 
L 398.487273 141.081031 
L 398.487273 141.081031 
" style="fill:none;stroke:#2ca02c;stroke-linecap:square;stroke-width:0.75;"/>
   </g>
   <g id="patch_3">
    <path d="M 57.6 307.584 
L 57.6 41.472 
" style="fill:none;stroke:#000000;stroke-linecap:square;stroke-linejoin:miter;stroke-width:0.8;"/>
   </g>
   <g id="patch_4">
    <path d="M 414.72 307.584 
L 414.72 41.472 
" style="fill:none;stroke:#000000;stroke-linecap:square;stroke-linejoin:miter;stroke-width:0.8;"/>
   </g>
   <g id="patch_5">
    <path d="M 57.6 307.584 
L 414.72 307.584 
" style="fill:none;stroke:#000000;stroke-linecap:square;stroke-linejoin:miter;stroke-width:0.8;"/>
   </g>
   <g id="patch_6">
    <path d="M 57.6 41.472 
L 414.72 41.472 
" style="fill:none;stroke:#000000;stroke-linecap:square;stroke-linejoin:miter;stroke-width:0.8;"/>
   </g>
   <g id="legend_1">
    <g id="patch_7">
     <path d="M 338.234063 78.82825 
L 407.72 78.82825 
Q 409.72 78.82825 409.72 76.82825 
L 409.72 48.472 
Q 409.72 46.472 407.72 46.472 
L 338.234063 46.472 
Q 336.234063 46.472 336.234063 48.472 
L 336.234063 76.82825 
Q 336.234063 78.82825 338.234063 78.82825 
z
" style="fill:#ffffff;opacity:0.8;stroke:#cccccc;stroke-linejoin:miter;"/>
    </g>
    <g id="line2d_17">
     <path d="M 340.234063 54.570437 
L 360.234063 54.570437 
" style="fill:none;stroke:#1f77b4;stroke-linecap:square;stroke-width:0.25;"/>
    </g>
    <g id="line2d_18"/>
    <g id="text_15">
     <!-- median -->
     <defs>
      <path d="M 52 44.1875 
Q 55.375 50.25 60.0625 53.125 
Q 64.75 56 71.09375 56 
Q 79.640625 56 84.28125 50.015625 
Q 88.921875 44.046875 88.921875 33.015625 
L 88.921875 0 
L 79.890625 0 
L 79.890625 32.71875 
Q 79.890625 40.578125 77.09375 44.375 
Q 74.3125 48.1875 68.609375 48.1875 
Q 61.625 48.1875 57.5625 43.546875 
Q 53.515625 38.921875 53.515625 30.90625 
L 53.515625 0 
L 44.484375 0 
L 44.484375 32.71875 
Q 44.484375 40.625 41.703125 44.40625 
Q 38.921875 48.1875 33.109375 48.1875 
Q 26.21875 48.1875 22.15625 43.53125 
Q 18.109375 38.875 18.109375 30.90625 
L 18.109375 0 
L 9.078125 0 
L 9.078125 54.6875 
L 18.109375 54.6875 
L 18.109375 46.1875 
Q 21.1875 51.21875 25.484375 53.609375 
Q 29.78125 56 35.6875 56 
Q 41.65625 56 45.828125 52.96875 
Q 50 49.953125 52 44.1875 
z
" id="DejaVuSans-109"/>
      <path d="M 56.203125 29.59375 
L 56.203125 25.203125 
L 14.890625 25.203125 
Q 15.484375 15.921875 20.484375 11.0625 
Q 25.484375 6.203125 34.421875 6.203125 
Q 39.59375 6.203125 44.453125 7.46875 
Q 49.3125 8.734375 54.109375 11.28125 
L 54.109375 2.78125 
Q 49.265625 0.734375 44.1875 -0.34375 
Q 39.109375 -1.421875 33.890625 -1.421875 
Q 20.796875 -1.421875 13.15625 6.1875 
Q 5.515625 13.8125 5.515625 26.8125 
Q 5.515625 40.234375 12.765625 48.109375 
Q 20.015625 56 32.328125 56 
Q 43.359375 56 49.78125 48.890625 
Q 56.203125 41.796875 56.203125 29.59375 
z
M 47.21875 32.234375 
Q 47.125 39.59375 43.09375 43.984375 
Q 39.0625 48.390625 32.421875 48.390625 
Q 24.90625 48.390625 20.390625 44.140625 
Q 15.875 39.890625 15.1875 32.171875 
z
" id="DejaVuSans-101"/>
      <path d="M 45.40625 46.390625 
L 45.40625 75.984375 
L 54.390625 75.984375 
L 54.390625 0 
L 45.40625 0 
L 45.40625 8.203125 
Q 42.578125 3.328125 38.25 0.953125 
Q 33.9375 -1.421875 27.875 -1.421875 
Q 17.96875 -1.421875 11.734375 6.484375 
Q 5.515625 14.40625 5.515625 27.296875 
Q 5.515625 40.1875 11.734375 48.09375 
Q 17.96875 56 27.875 56 
Q 33.9375 56 38.25 53.625 
Q 42.578125 51.265625 45.40625 46.390625 
z
M 14.796875 27.296875 
Q 14.796875 17.390625 18.875 11.75 
Q 22.953125 6.109375 30.078125 6.109375 
Q 37.203125 6.109375 41.296875 11.75 
Q 45.40625 17.390625 45.40625 27.296875 
Q 45.40625 37.203125 41.296875 42.84375 
Q 37.203125 48.484375 30.078125 48.484375 
Q 22.953125 48.484375 18.875 42.84375 
Q 14.796875 37.203125 14.796875 27.296875 
z
" id="DejaVuSans-100"/>
      <path d="M 9.421875 54.6875 
L 18.40625 54.6875 
L 18.40625 0 
L 9.421875 0 
z
M 9.421875 75.984375 
L 18.40625 75.984375 
L 18.40625 64.59375 
L 9.421875 64.59375 
z
" id="DejaVuSans-105"/>
      <path d="M 34.28125 27.484375 
Q 23.390625 27.484375 19.1875 25 
Q 14.984375 22.515625 14.984375 16.5 
Q 14.984375 11.71875 18.140625 8.90625 
Q 21.296875 6.109375 26.703125 6.109375 
Q 34.1875 6.109375 38.703125 11.40625 
Q 43.21875 16.703125 43.21875 25.484375 
L 43.21875 27.484375 
z
M 52.203125 31.203125 
L 52.203125 0 
L 43.21875 0 
L 43.21875 8.296875 
Q 40.140625 3.328125 35.546875 0.953125 
Q 30.953125 -1.421875 24.3125 -1.421875 
Q 15.921875 -1.421875 10.953125 3.296875 
Q 6 8.015625 6 15.921875 
Q 6 25.140625 12.171875 29.828125 
Q 18.359375 34.515625 30.609375 34.515625 
L 43.21875 34.515625 
L 43.21875 35.40625 
Q 43.21875 41.609375 39.140625 45 
Q 35.0625 48.390625 27.6875 48.390625 
Q 23 48.390625 18.546875 47.265625 
Q 14.109375 46.140625 10.015625 43.890625 
L 10.015625 52.203125 
Q 14.9375 54.109375 19.578125 55.046875 
Q 24.21875 56 28.609375 56 
Q 40.484375 56 46.34375 49.84375 
Q 52.203125 43.703125 52.203125 31.203125 
z
" id="DejaVuSans-97"/>
      <path d="M 54.890625 33.015625 
L 54.890625 0 
L 45.90625 0 
L 45.90625 32.71875 
Q 45.90625 40.484375 42.875 44.328125 
Q 39.84375 48.1875 33.796875 48.1875 
Q 26.515625 48.1875 22.3125 43.546875 
Q 18.109375 38.921875 18.109375 30.90625 
L 18.109375 0 
L 9.078125 0 
L 9.078125 54.6875 
L 18.109375 54.6875 
L 18.109375 46.1875 
Q 21.34375 51.125 25.703125 53.5625 
Q 30.078125 56 35.796875 56 
Q 45.21875 56 50.046875 50.171875 
Q 54.890625 44.34375 54.890625 33.015625 
z
" id="DejaVuSans-110"/>
     </defs>
     <g transform="translate(368.234063 58.070437)scale(0.1 -0.1)">
      <use xlink:href="#DejaVuSans-109"/>
      <use x="97.412109" xlink:href="#DejaVuSans-101"/>
      <use x="158.935547" xlink:href="#DejaVuSans-100"/>
      <use x="222.412109" xlink:href="#DejaVuSans-105"/>
      <use x="250.195312" xlink:href="#DejaVuSans-97"/>
      <use x="311.474609" xlink:href="#DejaVuSans-110"/>
     </g>
    </g>
    <g id="line2d_19">
     <path d="M 340.234063 69.248562 
L 360.234063 69.248562 
" style="fill:none;stroke:#2ca02c;stroke-linecap:square;stroke-width:0.75;"/>
    </g>
    <g id="line2d_20"/>
    <g id="text_16">
     <!-- mean -->
     <g transform="translate(368.234063 72.748562)scale(0.1 -0.1)">
      <use xlink:href="#DejaVuSans-109"/>
      <use x="97.412109" xlink:href="#DejaVuSans-101"/>
      <use x="158.935547" xlink:href="#DejaVuSans-97"/>
      <use x="220.214844" xlink:href="#DejaVuSans-110"/>
     </g>
    </g>
   </g>
  </g>
  <g id="text_17">
   <!-- accuracy.mean over generations -->
   <defs>
    <path d="M 48.78125 52.59375 
L 48.78125 44.1875 
Q 44.96875 46.296875 41.140625 47.34375 
Q 37.3125 48.390625 33.40625 48.390625 
Q 24.65625 48.390625 19.8125 42.84375 
Q 14.984375 37.3125 14.984375 27.296875 
Q 14.984375 17.28125 19.8125 11.734375 
Q 24.65625 6.203125 33.40625 6.203125 
Q 37.3125 6.203125 41.140625 7.25 
Q 44.96875 8.296875 48.78125 10.40625 
L 48.78125 2.09375 
Q 45.015625 0.34375 40.984375 -0.53125 
Q 36.96875 -1.421875 32.421875 -1.421875 
Q 20.0625 -1.421875 12.78125 6.34375 
Q 5.515625 14.109375 5.515625 27.296875 
Q 5.515625 40.671875 12.859375 48.328125 
Q 20.21875 56 33.015625 56 
Q 37.15625 56 41.109375 55.140625 
Q 45.0625 54.296875 48.78125 52.59375 
z
" id="DejaVuSans-99"/>
    <path d="M 8.5 21.578125 
L 8.5 54.6875 
L 17.484375 54.6875 
L 17.484375 21.921875 
Q 17.484375 14.15625 20.5 10.265625 
Q 23.53125 6.390625 29.59375 6.390625 
Q 36.859375 6.390625 41.078125 11.03125 
Q 45.3125 15.671875 45.3125 23.6875 
L 45.3125 54.6875 
L 54.296875 54.6875 
L 54.296875 0 
L 45.3125 0 
L 45.3125 8.40625 
Q 42.046875 3.421875 37.71875 1 
Q 33.40625 -1.421875 27.6875 -1.421875 
Q 18.265625 -1.421875 13.375 4.4375 
Q 8.5 10.296875 8.5 21.578125 
z
M 31.109375 56 
z
" id="DejaVuSans-117"/>
    <path d="M 41.109375 46.296875 
Q 39.59375 47.171875 37.8125 47.578125 
Q 36.03125 48 33.890625 48 
Q 26.265625 48 22.1875 43.046875 
Q 18.109375 38.09375 18.109375 28.8125 
L 18.109375 0 
L 9.078125 0 
L 9.078125 54.6875 
L 18.109375 54.6875 
L 18.109375 46.1875 
Q 20.953125 51.171875 25.484375 53.578125 
Q 30.03125 56 36.53125 56 
Q 37.453125 56 38.578125 55.875 
Q 39.703125 55.765625 41.0625 55.515625 
z
" id="DejaVuSans-114"/>
    <path d="M 32.171875 -5.078125 
Q 28.375 -14.84375 24.75 -17.8125 
Q 21.140625 -20.796875 15.09375 -20.796875 
L 7.90625 -20.796875 
L 7.90625 -13.28125 
L 13.1875 -13.28125 
Q 16.890625 -13.28125 18.9375 -11.515625 
Q 21 -9.765625 23.484375 -3.21875 
L 25.09375 0.875 
L 2.984375 54.6875 
L 12.5 54.6875 
L 29.59375 11.921875 
L 46.6875 54.6875 
L 56.203125 54.6875 
z
" id="DejaVuSans-121"/>
    <path id="DejaVuSans-32"/>
    <path d="M 30.609375 48.390625 
Q 23.390625 48.390625 19.1875 42.75 
Q 14.984375 37.109375 14.984375 27.296875 
Q 14.984375 17.484375 19.15625 11.84375 
Q 23.34375 6.203125 30.609375 6.203125 
Q 37.796875 6.203125 41.984375 11.859375 
Q 46.1875 17.53125 46.1875 27.296875 
Q 46.1875 37.015625 41.984375 42.703125 
Q 37.796875 48.390625 30.609375 48.390625 
z
M 30.609375 56 
Q 42.328125 56 49.015625 48.375 
Q 55.71875 40.765625 55.71875 27.296875 
Q 55.71875 13.875 49.015625 6.21875 
Q 42.328125 -1.421875 30.609375 -1.421875 
Q 18.84375 -1.421875 12.171875 6.21875 
Q 5.515625 13.875 5.515625 27.296875 
Q 5.515625 40.765625 12.171875 48.375 
Q 18.84375 56 30.609375 56 
z
" id="DejaVuSans-111"/>
    <path d="M 2.984375 54.6875 
L 12.5 54.6875 
L 29.59375 8.796875 
L 46.6875 54.6875 
L 56.203125 54.6875 
L 35.6875 0 
L 23.484375 0 
z
" id="DejaVuSans-118"/>
    <path d="M 45.40625 27.984375 
Q 45.40625 37.75 41.375 43.109375 
Q 37.359375 48.484375 30.078125 48.484375 
Q 22.859375 48.484375 18.828125 43.109375 
Q 14.796875 37.75 14.796875 27.984375 
Q 14.796875 18.265625 18.828125 12.890625 
Q 22.859375 7.515625 30.078125 7.515625 
Q 37.359375 7.515625 41.375 12.890625 
Q 45.40625 18.265625 45.40625 27.984375 
z
M 54.390625 6.78125 
Q 54.390625 -7.171875 48.1875 -13.984375 
Q 42 -20.796875 29.203125 -20.796875 
Q 24.46875 -20.796875 20.265625 -20.09375 
Q 16.0625 -19.390625 12.109375 -17.921875 
L 12.109375 -9.1875 
Q 16.0625 -11.328125 19.921875 -12.34375 
Q 23.78125 -13.375 27.78125 -13.375 
Q 36.625 -13.375 41.015625 -8.765625 
Q 45.40625 -4.15625 45.40625 5.171875 
L 45.40625 9.625 
Q 42.625 4.78125 38.28125 2.390625 
Q 33.9375 0 27.875 0 
Q 17.828125 0 11.671875 7.65625 
Q 5.515625 15.328125 5.515625 27.984375 
Q 5.515625 40.671875 11.671875 48.328125 
Q 17.828125 56 27.875 56 
Q 33.9375 56 38.28125 53.609375 
Q 42.625 51.21875 45.40625 46.390625 
L 45.40625 54.6875 
L 54.390625 54.6875 
z
" id="DejaVuSans-103"/>
    <path d="M 18.3125 70.21875 
L 18.3125 54.6875 
L 36.8125 54.6875 
L 36.8125 47.703125 
L 18.3125 47.703125 
L 18.3125 18.015625 
Q 18.3125 11.328125 20.140625 9.421875 
Q 21.96875 7.515625 27.59375 7.515625 
L 36.8125 7.515625 
L 36.8125 0 
L 27.59375 0 
Q 17.1875 0 13.234375 3.875 
Q 9.28125 7.765625 9.28125 18.015625 
L 9.28125 47.703125 
L 2.6875 47.703125 
L 2.6875 54.6875 
L 9.28125 54.6875 
L 9.28125 70.21875 
z
" id="DejaVuSans-116"/>
    <path d="M 44.28125 53.078125 
L 44.28125 44.578125 
Q 40.484375 46.53125 36.375 47.5 
Q 32.28125 48.484375 27.875 48.484375 
Q 21.1875 48.484375 17.84375 46.4375 
Q 14.5 44.390625 14.5 40.28125 
Q 14.5 37.15625 16.890625 35.375 
Q 19.28125 33.59375 26.515625 31.984375 
L 29.59375 31.296875 
Q 39.15625 29.25 43.1875 25.515625 
Q 47.21875 21.78125 47.21875 15.09375 
Q 47.21875 7.46875 41.1875 3.015625 
Q 35.15625 -1.421875 24.609375 -1.421875 
Q 20.21875 -1.421875 15.453125 -0.5625 
Q 10.6875 0.296875 5.421875 2 
L 5.421875 11.28125 
Q 10.40625 8.6875 15.234375 7.390625 
Q 20.0625 6.109375 24.8125 6.109375 
Q 31.15625 6.109375 34.5625 8.28125 
Q 37.984375 10.453125 37.984375 14.40625 
Q 37.984375 18.0625 35.515625 20.015625 
Q 33.0625 21.96875 24.703125 23.78125 
L 21.578125 24.515625 
Q 13.234375 26.265625 9.515625 29.90625 
Q 5.8125 33.546875 5.8125 39.890625 
Q 5.8125 47.609375 11.28125 51.796875 
Q 16.75 56 26.8125 56 
Q 31.78125 56 36.171875 55.265625 
Q 40.578125 54.546875 44.28125 53.078125 
z
" id="DejaVuSans-115"/>
   </defs>
   <g transform="translate(132.309375 16.030125)scale(0.12 -0.12)">
    <use xlink:href="#DejaVuSans-97"/>
    <use x="61.279297" xlink:href="#DejaVuSans-99"/>
    <use x="116.259766" xlink:href="#DejaVuSans-99"/>
    <use x="171.240234" xlink:href="#DejaVuSans-117"/>
    <use x="234.619141" xlink:href="#DejaVuSans-114"/>
    <use x="275.732422" xlink:href="#DejaVuSans-97"/>
    <use x="337.011719" xlink:href="#DejaVuSans-99"/>
    <use x="391.992188" xlink:href="#DejaVuSans-121"/>
    <use x="436.921875" xlink:href="#DejaVuSans-46"/>
    <use x="468.708984" xlink:href="#DejaVuSans-109"/>
    <use x="566.121094" xlink:href="#DejaVuSans-101"/>
    <use x="627.644531" xlink:href="#DejaVuSans-97"/>
    <use x="688.923828" xlink:href="#DejaVuSans-110"/>
    <use x="752.302734" xlink:href="#DejaVuSans-32"/>
    <use x="784.089844" xlink:href="#DejaVuSans-111"/>
    <use x="845.271484" xlink:href="#DejaVuSans-118"/>
    <use x="904.451172" xlink:href="#DejaVuSans-101"/>
    <use x="965.974609" xlink:href="#DejaVuSans-114"/>
    <use x="1007.087891" xlink:href="#DejaVuSans-32"/>
    <use x="1038.875" xlink:href="#DejaVuSans-103"/>
    <use x="1102.351562" xlink:href="#DejaVuSans-101"/>
    <use x="1163.875" xlink:href="#DejaVuSans-110"/>
    <use x="1227.253906" xlink:href="#DejaVuSans-101"/>
    <use x="1288.777344" xlink:href="#DejaVuSans-114"/>
    <use x="1329.890625" xlink:href="#DejaVuSans-97"/>
    <use x="1391.169922" xlink:href="#DejaVuSans-116"/>
    <use x="1430.378906" xlink:href="#DejaVuSans-105"/>
    <use x="1458.162109" xlink:href="#DejaVuSans-111"/>
    <use x="1519.34375" xlink:href="#DejaVuSans-110"/>
    <use x="1582.722656" xlink:href="#DejaVuSans-115"/>
   </g>
  </g>
 </g>
 <defs>
  <clipPath id="p86fdfce2a4">
   <rect height="266.112" width="357.12" x="57.6" y="41.472"/>
  </clipPath>
 </defs>
</svg>
