<?xml version="1.0" encoding="utf-8" standalone="no"?>
<!DOCTYPE svg PUBLIC "-//W3C//DTD SVG 1.1//EN"
  "http://www.w3.org/Graphics/SVG/1.1/DTD/svg11.dtd">
<!-- Created with matplotlib (https://matplotlib.org/) -->
<svg height="345.6pt" version="1.1" viewBox="0 0 460.8 345.6" width="460.8pt" xmlns="http://www.w3.org/2000/svg" xmlns:xlink="http://www.w3.org/1999/xlink">
 <defs>
  <style type="text/css">
*{stroke-linecap:butt;stroke-linejoin:round;}
  </style>
 </defs>
 <g id="figure_1">
  <g id="patch_1">
   <path d="M 0 345.6 
L 460.8 345.6 
L 460.8 0 
L 0 0 
z
" style="fill:#ffffff;"/>
  </g>
  <g id="axes_1">
   <g id="patch_2">
    <path d="M 57.6 307.584 
L 414.72 307.584 
L 414.72 41.472 
L 57.6 41.472 
z
" style="fill:#ffffff;"/>
   </g>
   <g id="PolyCollection_1">
    <path clip-path="url(#p8faa3f6b93)" d="M 73.832727 284.78183 
L 73.832727 286.138358 
L 75.464157 286.138358 
L 77.095587 286.138358 
L 78.727017 286.138358 
L 80.358447 286.138358 
L 81.989877 286.138358 
L 83.621307 286.138358 
L 85.252736 286.138358 
L 86.884166 286.138358 
L 88.515596 286.138358 
L 90.147026 286.138358 
L 91.778456 286.138358 
L 93.409886 286.138358 
L 95.041316 286.138358 
L 96.672746 286.138358 
L 98.304175 286.138358 
L 99.935605 286.138358 
L 101.567035 286.138358 
L 103.198465 286.138358 
L 104.829895 286.138358 
L 106.461325 286.138358 
L 108.092755 286.138358 
L 109.724185 286.138358 
L 111.355614 286.138358 
L 112.987044 286.138358 
L 114.618474 286.138358 
L 116.249904 286.138358 
L 117.881334 286.138358 
L 119.512764 286.138358 
L 121.144194 286.138358 
L 122.775624 286.138358 
L 124.407053 286.138358 
L 126.038483 286.138358 
L 127.669913 286.138358 
L 129.301343 286.138358 
L 130.932773 286.138358 
L 132.564203 286.138358 
L 134.195633 286.138358 
L 135.827063 286.138358 
L 137.458492 286.138358 
L 139.089922 286.138358 
L 140.721352 286.138358 
L 142.352782 286.138358 
L 143.984212 286.138358 
L 145.615642 286.138358 
L 147.247072 286.138358 
L 148.878502 286.138358 
L 150.509931 286.138358 
L 152.141361 286.138358 
L 153.772791 286.138358 
L 155.404221 286.138358 
L 157.035651 286.138358 
L 158.667081 286.138358 
L 160.298511 286.138358 
L 161.929941 286.138358 
L 163.56137 286.138358 
L 165.1928 286.138358 
L 166.82423 286.138358 
L 168.45566 286.138358 
L 170.08709 286.138358 
L 171.71852 286.138358 
L 173.34995 286.138358 
L 174.98138 286.138358 
L 176.61281 286.138358 
L 178.244239 286.138358 
L 179.875669 286.138358 
L 181.507099 286.138358 
L 183.138529 286.138358 
L 184.769959 286.138358 
L 186.401389 286.138358 
L 188.032819 286.138358 
L 189.664249 286.138358 
L 191.295678 286.138358 
L 192.927108 286.138358 
L 194.558538 286.138358 
L 196.189968 286.138358 
L 197.821398 286.138358 
L 199.452828 286.138358 
L 201.084258 286.138358 
L 202.715688 286.138358 
L 204.347117 286.138358 
L 205.978547 286.138358 
L 207.609977 286.138358 
L 209.241407 286.138358 
L 210.872837 286.138358 
L 212.504267 286.138358 
L 214.135697 286.138358 
L 215.767127 286.138358 
L 217.398556 286.138358 
L 219.029986 286.138358 
L 220.661416 286.138358 
L 222.292846 286.138358 
L 223.924276 286.138358 
L 225.555706 286.138358 
L 227.187136 286.138358 
L 228.818566 286.138358 
L 230.449995 286.138358 
L 232.081425 286.138358 
L 233.712855 286.138358 
L 235.344285 286.138358 
L 236.975715 286.138358 
L 238.607145 286.138358 
L 240.238575 286.138358 
L 241.870005 286.138358 
L 243.501434 286.138358 
L 245.132864 286.138358 
L 246.764294 286.138358 
L 248.395724 286.138358 
L 250.027154 286.138358 
L 251.658584 286.138358 
L 253.290014 286.138358 
L 254.921444 286.125089 
L 256.552873 286.566397 
L 258.184303 286.646674 
L 259.815733 286.701186 
L 261.447163 286.846359 
L 263.078593 287.09856 
L 264.710023 286.851813 
L 266.341453 286.667405 
L 267.972883 286.818997 
L 269.604312 287.111168 
L 271.235742 286.823901 
L 272.867172 288.119438 
L 274.498602 288.194517 
L 276.130032 286.644235 
L 277.761462 288.0959 
L 279.392892 288.329969 
L 281.024322 288.355912 
L 282.655751 287.907115 
L 284.287181 287.574764 
L 285.918611 288.389887 
L 287.550041 287.544304 
L 289.181471 287.68833 
L 290.812901 287.938359 
L 292.444331 287.874203 
L 294.075761 287.586413 
L 295.70719 288.730955 
L 297.33862 287.668345 
L 298.97005 287.899523 
L 300.60148 287.901119 
L 302.23291 288.097774 
L 303.86434 288.153125 
L 305.49577 287.69279 
L 307.1272 287.796145 
L 308.75863 287.500828 
L 310.390059 287.057549 
L 312.021489 286.873059 
L 313.652919 288.018125 
L 315.284349 287.75384 
L 316.915779 288.186652 
L 318.547209 287.555144 
L 320.178639 288.372369 
L 321.810069 289.090462 
L 323.441498 288.910815 
L 325.072928 288.834181 
L 326.704358 288.98277 
L 328.335788 289.642403 
L 329.967218 288.789773 
L 331.598648 289.322421 
L 333.230078 288.665635 
L 334.861508 288.666071 
L 336.492937 289.035501 
L 338.124367 289.736294 
L 339.755797 292.931675 
L 341.387227 293.272392 
L 343.018657 292.921543 
L 344.650087 288.961551 
L 346.281517 294.222735 
L 347.912947 294.008501 
L 349.544376 292.777561 
L 351.175806 293.11067 
L 352.807236 293.454526 
L 354.438666 292.398378 
L 356.070096 288.713823 
L 357.701526 293.023677 
L 359.332956 294.54714 
L 360.964386 293.717424 
L 362.595815 293.868014 
L 364.227245 294.268802 
L 365.858675 294.367789 
L 367.490105 294.293566 
L 369.121535 294.249476 
L 370.752965 293.568509 
L 372.384395 294.179674 
L 374.015825 294.421433 
L 375.647254 294.528515 
L 377.278684 293.496691 
L 378.910114 293.860715 
L 380.541544 293.182227 
L 382.172974 290.801758 
L 383.804404 288.882951 
L 385.435834 292.352234 
L 387.067264 292.113272 
L 388.698693 293.761958 
L 390.330123 291.127332 
L 391.961553 289.693767 
L 393.592983 293.418813 
L 395.224413 289.780373 
L 396.855843 290.882825 
L 398.487273 293.308073 
L 398.487273 284.963951 
L 398.487273 284.963951 
L 396.855843 282.842071 
L 395.224413 282.797524 
L 393.592983 284.734713 
L 391.961553 284.675249 
L 390.330123 286.197357 
L 388.698693 284.344985 
L 387.067264 286.7095 
L 385.435834 282.989357 
L 383.804404 284.253482 
L 382.172974 284.609647 
L 380.541544 285.938399 
L 378.910114 280.25716 
L 377.278684 282.529557 
L 375.647254 286.129307 
L 374.015825 286.026196 
L 372.384395 280.695059 
L 370.752965 283.179325 
L 369.121535 286.097079 
L 367.490105 284.380542 
L 365.858675 283.746298 
L 364.227245 284.634769 
L 362.595815 285.730424 
L 360.964386 286.067662 
L 359.332956 283.538533 
L 357.701526 282.791635 
L 356.070096 281.639512 
L 354.438666 283.982526 
L 352.807236 286.644136 
L 351.175806 286.645155 
L 349.544376 286.347197 
L 347.912947 281.606627 
L 346.281517 279.494767 
L 344.650087 284.308805 
L 343.018657 283.684602 
L 341.387227 281.678053 
L 339.755797 284.085767 
L 338.124367 280.970719 
L 336.492937 282.124719 
L 334.861508 280.779589 
L 333.230078 281.39223 
L 331.598648 282.61026 
L 329.967218 281.67303 
L 328.335788 282.51242 
L 326.704358 285.65408 
L 325.072928 282.917 
L 323.441498 283.177398 
L 321.810069 283.149797 
L 320.178639 284.007311 
L 318.547209 273.890285 
L 316.915779 284.273483 
L 315.284349 282.190999 
L 313.652919 282.430231 
L 312.021489 279.975252 
L 310.390059 278.480225 
L 308.75863 277.143949 
L 307.1272 282.581351 
L 305.49577 281.481948 
L 303.86434 283.388603 
L 302.23291 282.648068 
L 300.60148 282.392454 
L 298.97005 280.057999 
L 297.33862 281.518334 
L 295.70719 284.595816 
L 294.075761 280.155666 
L 292.444331 284.162517 
L 290.812901 279.748333 
L 289.181471 276.658065 
L 287.550041 278.345315 
L 285.918611 284.426688 
L 284.287181 279.493724 
L 282.655751 284.794119 
L 281.024322 285.88375 
L 279.392892 285.976543 
L 277.761462 284.75737 
L 276.130032 281.830973 
L 274.498602 285.547683 
L 272.867172 284.908555 
L 271.235742 284.971438 
L 269.604312 284.645257 
L 267.972883 284.111821 
L 266.341453 282.824174 
L 264.710023 282.624435 
L 263.078593 283.654396 
L 261.447163 284.348541 
L 259.815733 284.569724 
L 258.184303 285.32385 
L 256.552873 285.875602 
L 254.921444 285.207531 
L 253.290014 284.824571 
L 251.658584 284.78183 
L 250.027154 284.78183 
L 248.395724 284.78183 
L 246.764294 285.808046 
L 245.132864 284.78183 
L 243.501434 284.781842 
L 241.870005 285.551492 
L 240.238575 284.78183 
L 238.607145 284.78183 
L 236.975715 285.551492 
L 235.344285 284.78183 
L 233.712855 284.78183 
L 232.081425 284.78183 
L 230.449995 284.78183 
L 228.818566 284.839643 
L 227.187136 284.78183 
L 225.555706 284.78183 
L 223.924276 284.78183 
L 222.292846 284.78183 
L 220.661416 284.78183 
L 219.029986 284.78183 
L 217.398556 284.78183 
L 215.767127 284.78183 
L 214.135697 284.78183 
L 212.504267 284.78183 
L 210.872837 284.78183 
L 209.241407 284.78183 
L 207.609977 284.78183 
L 205.978547 284.88667 
L 204.347117 284.78183 
L 202.715688 284.78183 
L 201.084258 284.781833 
L 199.452828 284.78183 
L 197.821398 284.78183 
L 196.189968 284.78183 
L 194.558538 284.78183 
L 192.927108 284.78183 
L 191.295678 284.78183 
L 189.664249 284.78183 
L 188.032819 284.78183 
L 186.401389 284.78183 
L 184.769959 285.808046 
L 183.138529 284.78183 
L 181.507099 284.78183 
L 179.875669 284.78183 
L 178.244239 284.78183 
L 176.61281 284.78183 
L 174.98138 284.78183 
L 173.34995 284.78183 
L 171.71852 284.78183 
L 170.08709 284.78183 
L 168.45566 284.78183 
L 166.82423 284.78183 
L 165.1928 284.78183 
L 163.56137 284.78183 
L 161.929941 284.78183 
L 160.298511 284.78183 
L 158.667081 284.78183 
L 157.035651 284.78183 
L 155.404221 284.78183 
L 153.772791 284.78183 
L 152.141361 284.78183 
L 150.509931 284.78183 
L 148.878502 284.78183 
L 147.247072 284.78183 
L 145.615642 284.78183 
L 143.984212 284.78183 
L 142.352782 284.78183 
L 140.721352 284.78183 
L 139.089922 284.78183 
L 137.458492 284.78183 
L 135.827063 284.78183 
L 134.195633 284.78183 
L 132.564203 284.78183 
L 130.932773 284.78183 
L 129.301343 284.78183 
L 127.669913 284.78183 
L 126.038483 284.78183 
L 124.407053 284.78183 
L 122.775624 285.808046 
L 121.144194 284.78183 
L 119.512764 284.78183 
L 117.881334 284.78183 
L 116.249904 284.78183 
L 114.618474 285.551492 
L 112.987044 284.78183 
L 111.355614 284.78183 
L 109.724185 284.78183 
L 108.092755 284.78183 
L 106.461325 284.78183 
L 104.829895 284.78183 
L 103.198465 284.78183 
L 101.567035 284.78183 
L 99.935605 284.78183 
L 98.304175 284.78183 
L 96.672746 284.78183 
L 95.041316 284.78183 
L 93.409886 284.78183 
L 91.778456 284.78183 
L 90.147026 284.78183 
L 88.515596 284.78183 
L 86.884166 284.78183 
L 85.252736 284.78183 
L 83.621307 284.78183 
L 81.989877 284.78183 
L 80.358447 284.78183 
L 78.727017 284.78183 
L 77.095587 284.78183 
L 75.464157 284.78183 
L 73.832727 284.78183 
z
" style="fill:#1f77b4;fill-opacity:0.2;"/>
   </g>
   <g id="PolyCollection_2">
    <path clip-path="url(#p8faa3f6b93)" d="M 73.832727 284.78183 
L 73.832727 286.138358 
L 75.464157 286.138358 
L 77.095587 286.138358 
L 78.727017 286.138358 
L 80.358447 286.138358 
L 81.989877 286.138358 
L 83.621307 286.138358 
L 85.252736 286.138358 
L 86.884166 286.138358 
L 88.515596 286.138358 
L 90.147026 286.138358 
L 91.778456 286.138358 
L 93.409886 286.138358 
L 95.041316 286.138358 
L 96.672746 286.138358 
L 98.304175 286.138358 
L 99.935605 286.138358 
L 101.567035 286.138358 
L 103.198465 286.138358 
L 104.829895 286.138358 
L 106.461325 286.138358 
L 108.092755 286.138358 
L 109.724185 286.138358 
L 111.355614 286.138358 
L 112.987044 286.138358 
L 114.618474 286.138358 
L 116.249904 286.138358 
L 117.881334 286.138358 
L 119.512764 286.138358 
L 121.144194 286.138358 
L 122.775624 286.138358 
L 124.407053 286.138358 
L 126.038483 286.138358 
L 127.669913 286.138358 
L 129.301343 286.138358 
L 130.932773 286.138358 
L 132.564203 286.138358 
L 134.195633 286.138358 
L 135.827063 286.138358 
L 137.458492 286.138358 
L 139.089922 286.138358 
L 140.721352 286.138358 
L 142.352782 286.138358 
L 143.984212 286.138358 
L 145.615642 286.138358 
L 147.247072 286.138358 
L 148.878502 286.138358 
L 150.509931 286.138358 
L 152.141361 286.138358 
L 153.772791 286.138358 
L 155.404221 286.138358 
L 157.035651 286.138358 
L 158.667081 286.138358 
L 160.298511 286.138358 
L 161.929941 286.138358 
L 163.56137 286.138358 
L 165.1928 286.138358 
L 166.82423 286.138358 
L 168.45566 286.138358 
L 170.08709 286.138358 
L 171.71852 286.138358 
L 173.34995 286.138358 
L 174.98138 286.138358 
L 176.61281 286.138358 
L 178.244239 286.138358 
L 179.875669 286.138358 
L 181.507099 286.138358 
L 183.138529 286.138358 
L 184.769959 286.138358 
L 186.401389 286.138358 
L 188.032819 286.138358 
L 189.664249 286.138358 
L 191.295678 286.138358 
L 192.927108 286.138358 
L 194.558538 286.138358 
L 196.189968 286.138358 
L 197.821398 286.138358 
L 199.452828 286.138358 
L 201.084258 286.138358 
L 202.715688 286.138358 
L 204.347117 286.138358 
L 205.978547 286.138358 
L 207.609977 286.138358 
L 209.241407 286.138358 
L 210.872837 286.138358 
L 212.504267 286.138358 
L 214.135697 286.138358 
L 215.767127 286.138358 
L 217.398556 286.138358 
L 219.029986 286.138358 
L 220.661416 286.138358 
L 222.292846 286.138358 
L 223.924276 286.138358 
L 225.555706 286.138358 
L 227.187136 286.138358 
L 228.818566 286.138358 
L 230.449995 286.138358 
L 232.081425 286.138358 
L 233.712855 286.138358 
L 235.344285 286.138358 
L 236.975715 286.138358 
L 238.607145 286.138358 
L 240.238575 286.138358 
L 241.870005 286.138358 
L 243.501434 286.138358 
L 245.132864 286.138358 
L 246.764294 286.138358 
L 248.395724 286.138358 
L 250.027154 286.138358 
L 251.658584 286.180024 
L 253.290014 286.182389 
L 254.921444 286.652693 
L 256.552873 287.0631 
L 258.184303 287.102564 
L 259.815733 288.286723 
L 261.447163 288.286549 
L 263.078593 288.549317 
L 264.710023 288.540116 
L 266.341453 288.533001 
L 267.972883 288.530981 
L 269.604312 288.775927 
L 271.235742 288.777442 
L 272.867172 289.786928 
L 274.498602 289.792674 
L 276.130032 289.780187 
L 277.761462 289.783087 
L 279.392892 289.784337 
L 281.024322 289.784827 
L 282.655751 289.781787 
L 284.287181 289.772088 
L 285.918611 289.816585 
L 287.550041 289.814018 
L 289.181471 289.802247 
L 290.812901 289.797732 
L 292.444331 289.797438 
L 294.075761 289.790482 
L 295.70719 289.796704 
L 297.33862 289.761619 
L 298.97005 289.763891 
L 300.60148 289.766811 
L 302.23291 289.772112 
L 303.86434 289.777367 
L 305.49577 289.773285 
L 307.1272 289.778362 
L 308.75863 289.771062 
L 310.390059 289.803694 
L 312.021489 289.878671 
L 313.652919 289.880152 
L 315.284349 289.883634 
L 316.915779 290.094895 
L 318.547209 291.993852 
L 320.178639 292.55769 
L 321.810069 292.553006 
L 323.441498 292.539494 
L 325.072928 292.787708 
L 326.704358 292.747785 
L 328.335788 292.816488 
L 329.967218 292.799552 
L 331.598648 292.790315 
L 333.230078 293.899208 
L 334.861508 293.934823 
L 336.492937 294.059812 
L 338.124367 293.957134 
L 339.755797 294.311696 
L 341.387227 294.214704 
L 343.018657 294.252885 
L 344.650087 294.292621 
L 346.281517 295.317088 
L 347.912947 294.896363 
L 349.544376 294.440147 
L 351.175806 294.392098 
L 352.807236 294.367903 
L 354.438666 294.429651 
L 356.070096 295.061642 
L 357.701526 294.904582 
L 359.332956 295.256131 
L 360.964386 294.428026 
L 362.595815 294.372037 
L 364.227245 294.679628 
L 365.858675 295.05019 
L 367.490105 294.777347 
L 369.121535 294.549751 
L 370.752965 294.526564 
L 372.384395 295.488 
L 374.015825 294.960251 
L 375.647254 295.005037 
L 377.278684 294.583133 
L 378.910114 295.192035 
L 380.541544 294.559791 
L 382.172974 294.544536 
L 383.804404 294.526923 
L 385.435834 294.967887 
L 387.067264 294.496714 
L 388.698693 294.72321 
L 390.330123 294.48954 
L 391.961553 294.48514 
L 393.592983 294.48427 
L 395.224413 294.479159 
L 396.855843 294.471368 
L 398.487273 294.470355 
L 398.487273 151.502536 
L 398.487273 151.502536 
L 396.855843 182.78527 
L 395.224413 236.785491 
L 393.592983 129.396989 
L 391.961553 224.70875 
L 390.330123 219.568443 
L 388.698693 199.278892 
L 387.067264 235.905309 
L 385.435834 231.511964 
L 383.804404 232.516115 
L 382.172974 225.619929 
L 380.541544 215.027015 
L 378.910114 103.560573 
L 377.278684 89.215755 
L 375.647254 131.975133 
L 374.015825 155.009294 
L 372.384395 186.51384 
L 370.752965 194.977642 
L 369.121535 157.888617 
L 367.490105 148.224066 
L 365.858675 120.342313 
L 364.227245 128.222797 
L 362.595815 225.330598 
L 360.964386 174.913023 
L 359.332956 120.97101 
L 357.701526 121.284059 
L 356.070096 195.095345 
L 354.438666 238.641133 
L 352.807236 201.840191 
L 351.175806 237.507191 
L 349.544376 238.175481 
L 347.912947 109.386061 
L 346.281517 75.358299 
L 344.650087 211.467952 
L 343.018657 228.669452 
L 341.387227 190.487322 
L 339.755797 149.166283 
L 338.124367 162.67513 
L 336.492937 161.890245 
L 334.861508 136.679256 
L 333.230078 189.900286 
L 331.598648 186.312662 
L 329.967218 165.969177 
L 328.335788 154.659169 
L 326.704358 225.171195 
L 325.072928 182.054959 
L 323.441498 181.821416 
L 321.810069 216.05925 
L 320.178639 208.447334 
L 318.547209 53.568 
L 316.915779 222.786599 
L 315.284349 197.806227 
L 313.652919 226.733323 
L 312.021489 162.661174 
L 310.390059 62.589763 
L 308.75863 152.773876 
L 307.1272 197.310526 
L 305.49577 208.454553 
L 303.86434 210.165926 
L 302.23291 211.496675 
L 300.60148 205.293156 
L 298.97005 217.761403 
L 297.33862 143.24513 
L 295.70719 178.910052 
L 294.075761 153.394563 
L 292.444331 205.718071 
L 290.812901 212.334392 
L 289.181471 195.308391 
L 287.550041 183.671735 
L 285.918611 218.890262 
L 284.287181 224.695157 
L 282.655751 218.058696 
L 281.024322 257.359157 
L 279.392892 259.639125 
L 277.761462 221.934594 
L 276.130032 199.233441 
L 274.498602 251.082888 
L 272.867172 211.406366 
L 271.235742 209.712125 
L 269.604312 214.616995 
L 267.972883 203.196491 
L 266.341453 186.497145 
L 264.710023 183.809582 
L 263.078593 241.109592 
L 261.447163 206.619235 
L 259.815733 271.514865 
L 258.184303 255.705389 
L 256.552873 248.452382 
L 254.921444 271.61651 
L 253.290014 275.371218 
L 251.658584 238.691087 
L 250.027154 269.456644 
L 248.395724 271.88502 
L 246.764294 248.357767 
L 245.132864 251.010912 
L 243.501434 284.781821 
L 241.870005 252.927975 
L 240.238575 260.984015 
L 238.607145 282.45206 
L 236.975715 260.204716 
L 235.344285 284.78183 
L 233.712855 268.910607 
L 232.081425 247.803447 
L 230.449995 284.78183 
L 228.818566 239.60466 
L 227.187136 240.978991 
L 225.555706 284.768667 
L 223.924276 269.427485 
L 222.292846 251.79408 
L 220.661416 239.021057 
L 219.029986 249.575239 
L 217.398556 262.198511 
L 215.767127 257.080206 
L 214.135697 241.221346 
L 212.504267 240.643232 
L 210.872837 241.79997 
L 209.241407 243.555521 
L 207.609977 256.137791 
L 205.978547 245.727309 
L 204.347117 268.936221 
L 202.715688 252.260204 
L 201.084258 270.082868 
L 199.452828 274.119301 
L 197.821398 284.78183 
L 196.189968 284.78183 
L 194.558538 284.78183 
L 192.927108 284.78183 
L 191.295678 284.78183 
L 189.664249 284.78183 
L 188.032819 284.78183 
L 186.401389 284.78183 
L 184.769959 284.78183 
L 183.138529 284.78183 
L 181.507099 284.78183 
L 179.875669 284.78183 
L 178.244239 284.78183 
L 176.61281 284.78183 
L 174.98138 284.78183 
L 173.34995 284.78183 
L 171.71852 284.78183 
L 170.08709 284.78183 
L 168.45566 284.78183 
L 166.82423 284.78183 
L 165.1928 284.78183 
L 163.56137 284.78183 
L 161.929941 284.78183 
L 160.298511 284.78183 
L 158.667081 284.78183 
L 157.035651 284.78183 
L 155.404221 284.78183 
L 153.772791 284.78183 
L 152.141361 284.78183 
L 150.509931 284.78183 
L 148.878502 284.78183 
L 147.247072 284.78183 
L 145.615642 284.78183 
L 143.984212 284.78183 
L 142.352782 284.78183 
L 140.721352 284.78183 
L 139.089922 284.78183 
L 137.458492 284.78183 
L 135.827063 284.78183 
L 134.195633 284.78183 
L 132.564203 284.78183 
L 130.932773 284.78183 
L 129.301343 284.78183 
L 127.669913 284.78183 
L 126.038483 284.78183 
L 124.407053 284.78183 
L 122.775624 284.78183 
L 121.144194 284.78183 
L 119.512764 284.78183 
L 117.881334 284.78183 
L 116.249904 284.78183 
L 114.618474 284.78183 
L 112.987044 284.78183 
L 111.355614 284.78183 
L 109.724185 284.78183 
L 108.092755 284.78183 
L 106.461325 284.78183 
L 104.829895 284.78183 
L 103.198465 284.78183 
L 101.567035 284.78183 
L 99.935605 284.78183 
L 98.304175 284.78183 
L 96.672746 284.78183 
L 95.041316 284.78183 
L 93.409886 284.78183 
L 91.778456 284.78183 
L 90.147026 284.78183 
L 88.515596 284.78183 
L 86.884166 284.78183 
L 85.252736 284.78183 
L 83.621307 284.78183 
L 81.989877 284.78183 
L 80.358447 284.78183 
L 78.727017 284.78183 
L 77.095587 284.78183 
L 75.464157 284.78183 
L 73.832727 284.78183 
z
" style="fill:#1f77b4;fill-opacity:0.1;"/>
   </g>
   <g id="matplotlib.axis_1">
    <g id="xtick_1">
     <g id="line2d_1">
      <defs>
       <path d="M 0 0 
L 0 3.5 
" id="m283dfd11b1" style="stroke:#000000;stroke-width:0.8;"/>
      </defs>
      <g>
       <use style="stroke:#000000;stroke-width:0.8;" x="73.832727" xlink:href="#m283dfd11b1" y="307.584"/>
      </g>
     </g>
     <g id="text_1">
      <!-- 0 -->
      <defs>
       <path d="M 31.78125 66.40625 
Q 24.171875 66.40625 20.328125 58.90625 
Q 16.5 51.421875 16.5 36.375 
Q 16.5 21.390625 20.328125 13.890625 
Q 24.171875 6.390625 31.78125 6.390625 
Q 39.453125 6.390625 43.28125 13.890625 
Q 47.125 21.390625 47.125 36.375 
Q 47.125 51.421875 43.28125 58.90625 
Q 39.453125 66.40625 31.78125 66.40625 
z
M 31.78125 74.21875 
Q 44.046875 74.21875 50.515625 64.515625 
Q 56.984375 54.828125 56.984375 36.375 
Q 56.984375 17.96875 50.515625 8.265625 
Q 44.046875 -1.421875 31.78125 -1.421875 
Q 19.53125 -1.421875 13.0625 8.265625 
Q 6.59375 17.96875 6.59375 36.375 
Q 6.59375 54.828125 13.0625 64.515625 
Q 19.53125 74.21875 31.78125 74.21875 
z
" id="DejaVuSans-48"/>
      </defs>
      <g transform="translate(70.651477 322.182437)scale(0.1 -0.1)">
       <use xlink:href="#DejaVuSans-48"/>
      </g>
     </g>
    </g>
    <g id="xtick_2">
     <g id="line2d_2">
      <g>
       <use style="stroke:#000000;stroke-width:0.8;" x="114.618474" xlink:href="#m283dfd11b1" y="307.584"/>
      </g>
     </g>
     <g id="text_2">
      <!-- 25 -->
      <defs>
       <path d="M 19.1875 8.296875 
L 53.609375 8.296875 
L 53.609375 0 
L 7.328125 0 
L 7.328125 8.296875 
Q 12.9375 14.109375 22.625 23.890625 
Q 32.328125 33.6875 34.8125 36.53125 
Q 39.546875 41.84375 41.421875 45.53125 
Q 43.3125 49.21875 43.3125 52.78125 
Q 43.3125 58.59375 39.234375 62.25 
Q 35.15625 65.921875 28.609375 65.921875 
Q 23.96875 65.921875 18.8125 64.3125 
Q 13.671875 62.703125 7.8125 59.421875 
L 7.8125 69.390625 
Q 13.765625 71.78125 18.9375 73 
Q 24.125 74.21875 28.421875 74.21875 
Q 39.75 74.21875 46.484375 68.546875 
Q 53.21875 62.890625 53.21875 53.421875 
Q 53.21875 48.921875 51.53125 44.890625 
Q 49.859375 40.875 45.40625 35.40625 
Q 44.1875 33.984375 37.640625 27.21875 
Q 31.109375 20.453125 19.1875 8.296875 
z
" id="DejaVuSans-50"/>
       <path d="M 10.796875 72.90625 
L 49.515625 72.90625 
L 49.515625 64.59375 
L 19.828125 64.59375 
L 19.828125 46.734375 
Q 21.96875 47.46875 24.109375 47.828125 
Q 26.265625 48.1875 28.421875 48.1875 
Q 40.625 48.1875 47.75 41.5 
Q 54.890625 34.8125 54.890625 23.390625 
Q 54.890625 11.625 47.5625 5.09375 
Q 40.234375 -1.421875 26.90625 -1.421875 
Q 22.3125 -1.421875 17.546875 -0.640625 
Q 12.796875 0.140625 7.71875 1.703125 
L 7.71875 11.625 
Q 12.109375 9.234375 16.796875 8.0625 
Q 21.484375 6.890625 26.703125 6.890625 
Q 35.15625 6.890625 40.078125 11.328125 
Q 45.015625 15.765625 45.015625 23.390625 
Q 45.015625 31 40.078125 35.4375 
Q 35.15625 39.890625 26.703125 39.890625 
Q 22.75 39.890625 18.8125 39.015625 
Q 14.890625 38.140625 10.796875 36.28125 
z
" id="DejaVuSans-53"/>
      </defs>
      <g transform="translate(108.255974 322.182437)scale(0.1 -0.1)">
       <use xlink:href="#DejaVuSans-50"/>
       <use x="63.623047" xlink:href="#DejaVuSans-53"/>
      </g>
     </g>
    </g>
    <g id="xtick_3">
     <g id="line2d_3">
      <g>
       <use style="stroke:#000000;stroke-width:0.8;" x="155.404221" xlink:href="#m283dfd11b1" y="307.584"/>
      </g>
     </g>
     <g id="text_3">
      <!-- 50 -->
      <g transform="translate(149.041721 322.182437)scale(0.1 -0.1)">
       <use xlink:href="#DejaVuSans-53"/>
       <use x="63.623047" xlink:href="#DejaVuSans-48"/>
      </g>
     </g>
    </g>
    <g id="xtick_4">
     <g id="line2d_4">
      <g>
       <use style="stroke:#000000;stroke-width:0.8;" x="196.189968" xlink:href="#m283dfd11b1" y="307.584"/>
      </g>
     </g>
     <g id="text_4">
      <!-- 75 -->
      <defs>
       <path d="M 8.203125 72.90625 
L 55.078125 72.90625 
L 55.078125 68.703125 
L 28.609375 0 
L 18.3125 0 
L 43.21875 64.59375 
L 8.203125 64.59375 
z
" id="DejaVuSans-55"/>
      </defs>
      <g transform="translate(189.827468 322.182437)scale(0.1 -0.1)">
       <use xlink:href="#DejaVuSans-55"/>
       <use x="63.623047" xlink:href="#DejaVuSans-53"/>
      </g>
     </g>
    </g>
    <g id="xtick_5">
     <g id="line2d_5">
      <g>
       <use style="stroke:#000000;stroke-width:0.8;" x="236.975715" xlink:href="#m283dfd11b1" y="307.584"/>
      </g>
     </g>
     <g id="text_5">
      <!-- 100 -->
      <defs>
       <path d="M 12.40625 8.296875 
L 28.515625 8.296875 
L 28.515625 63.921875 
L 10.984375 60.40625 
L 10.984375 69.390625 
L 28.421875 72.90625 
L 38.28125 72.90625 
L 38.28125 8.296875 
L 54.390625 8.296875 
L 54.390625 0 
L 12.40625 0 
z
" id="DejaVuSans-49"/>
      </defs>
      <g transform="translate(227.431965 322.182437)scale(0.1 -0.1)">
       <use xlink:href="#DejaVuSans-49"/>
       <use x="63.623047" xlink:href="#DejaVuSans-48"/>
       <use x="127.246094" xlink:href="#DejaVuSans-48"/>
      </g>
     </g>
    </g>
    <g id="xtick_6">
     <g id="line2d_6">
      <g>
       <use style="stroke:#000000;stroke-width:0.8;" x="277.761462" xlink:href="#m283dfd11b1" y="307.584"/>
      </g>
     </g>
     <g id="text_6">
      <!-- 125 -->
      <g transform="translate(268.217712 322.182437)scale(0.1 -0.1)">
       <use xlink:href="#DejaVuSans-49"/>
       <use x="63.623047" xlink:href="#DejaVuSans-50"/>
       <use x="127.246094" xlink:href="#DejaVuSans-53"/>
      </g>
     </g>
    </g>
    <g id="xtick_7">
     <g id="line2d_7">
      <g>
       <use style="stroke:#000000;stroke-width:0.8;" x="318.547209" xlink:href="#m283dfd11b1" y="307.584"/>
      </g>
     </g>
     <g id="text_7">
      <!-- 150 -->
      <g transform="translate(309.003459 322.182437)scale(0.1 -0.1)">
       <use xlink:href="#DejaVuSans-49"/>
       <use x="63.623047" xlink:href="#DejaVuSans-53"/>
       <use x="127.246094" xlink:href="#DejaVuSans-48"/>
      </g>
     </g>
    </g>
    <g id="xtick_8">
     <g id="line2d_8">
      <g>
       <use style="stroke:#000000;stroke-width:0.8;" x="359.332956" xlink:href="#m283dfd11b1" y="307.584"/>
      </g>
     </g>
     <g id="text_8">
      <!-- 175 -->
      <g transform="translate(349.789206 322.182437)scale(0.1 -0.1)">
       <use xlink:href="#DejaVuSans-49"/>
       <use x="63.623047" xlink:href="#DejaVuSans-55"/>
       <use x="127.246094" xlink:href="#DejaVuSans-53"/>
      </g>
     </g>
    </g>
    <g id="xtick_9">
     <g id="line2d_9">
      <g>
       <use style="stroke:#000000;stroke-width:0.8;" x="400.118703" xlink:href="#m283dfd11b1" y="307.584"/>
      </g>
     </g>
     <g id="text_9">
      <!-- 200 -->
      <g transform="translate(390.574953 322.182437)scale(0.1 -0.1)">
       <use xlink:href="#DejaVuSans-50"/>
       <use x="63.623047" xlink:href="#DejaVuSans-48"/>
       <use x="127.246094" xlink:href="#DejaVuSans-48"/>
      </g>
     </g>
    </g>
   </g>
   <g id="matplotlib.axis_2">
    <g id="ytick_1">
     <g id="line2d_10">
      <defs>
       <path d="M 0 0 
L -3.5 0 
" id="me5720b348d" style="stroke:#000000;stroke-width:0.8;"/>
      </defs>
      <g>
       <use style="stroke:#000000;stroke-width:0.8;" x="57.6" xlink:href="#me5720b348d" y="298.609577"/>
      </g>
     </g>
     <g id="text_10">
      <!-- 0 -->
      <g transform="translate(44.2375 302.408795)scale(0.1 -0.1)">
       <use xlink:href="#DejaVuSans-48"/>
      </g>
     </g>
    </g>
    <g id="ytick_2">
     <g id="line2d_11">
      <g>
       <use style="stroke:#000000;stroke-width:0.8;" x="57.6" xlink:href="#me5720b348d" y="241.850617"/>
      </g>
     </g>
     <g id="text_11">
      <!-- 5 -->
      <g transform="translate(44.2375 245.649835)scale(0.1 -0.1)">
       <use xlink:href="#DejaVuSans-53"/>
      </g>
     </g>
    </g>
    <g id="ytick_3">
     <g id="line2d_12">
      <g>
       <use style="stroke:#000000;stroke-width:0.8;" x="57.6" xlink:href="#me5720b348d" y="185.091657"/>
      </g>
     </g>
     <g id="text_12">
      <!-- 10 -->
      <g transform="translate(37.875 188.890876)scale(0.1 -0.1)">
       <use xlink:href="#DejaVuSans-49"/>
       <use x="63.623047" xlink:href="#DejaVuSans-48"/>
      </g>
     </g>
    </g>
    <g id="ytick_4">
     <g id="line2d_13">
      <g>
       <use style="stroke:#000000;stroke-width:0.8;" x="57.6" xlink:href="#me5720b348d" y="128.332697"/>
      </g>
     </g>
     <g id="text_13">
      <!-- 15 -->
      <g transform="translate(37.875 132.131916)scale(0.1 -0.1)">
       <use xlink:href="#DejaVuSans-49"/>
       <use x="63.623047" xlink:href="#DejaVuSans-53"/>
      </g>
     </g>
    </g>
    <g id="ytick_5">
     <g id="line2d_14">
      <g>
       <use style="stroke:#000000;stroke-width:0.8;" x="57.6" xlink:href="#me5720b348d" y="71.573737"/>
      </g>
     </g>
     <g id="text_14">
      <!-- 20 -->
      <g transform="translate(37.875 75.372956)scale(0.1 -0.1)">
       <use xlink:href="#DejaVuSans-50"/>
       <use x="63.623047" xlink:href="#DejaVuSans-48"/>
      </g>
     </g>
    </g>
   </g>
   <g id="line2d_15">
    <path clip-path="url(#p8faa3f6b93)" d="M 73.832727 286.138358 
L 88.515596 286.138358 
L 90.147026 285.808046 
L 91.778456 286.138358 
L 96.672746 286.138358 
L 98.304175 285.808046 
L 99.935605 286.138358 
L 109.724185 286.138358 
L 111.355614 285.808046 
L 112.987044 286.138358 
L 124.407053 286.138358 
L 126.038483 285.808046 
L 127.669913 285.808046 
L 129.301343 286.138358 
L 139.089922 286.138358 
L 140.721352 285.808046 
L 142.352782 286.138358 
L 143.984212 285.808046 
L 145.615642 286.138358 
L 147.247072 286.138358 
L 148.878502 285.808046 
L 150.509931 286.138358 
L 152.141361 286.138358 
L 153.772791 285.973202 
L 155.404221 286.138358 
L 157.035651 285.808046 
L 158.667081 286.138358 
L 160.298511 285.808046 
L 161.929941 286.138358 
L 168.45566 286.138358 
L 170.08709 285.808046 
L 171.71852 285.808046 
L 173.34995 286.138358 
L 179.875669 286.138358 
L 181.507099 285.808046 
L 183.138529 286.138358 
L 184.769959 286.138358 
L 186.401389 285.973202 
L 188.032819 286.138358 
L 189.664249 286.138358 
L 191.295678 285.808046 
L 192.927108 286.138358 
L 194.558538 285.808046 
L 196.189968 286.138358 
L 199.452828 285.808046 
L 201.084258 286.138358 
L 202.715688 285.808046 
L 204.347117 285.808046 
L 205.978547 286.138358 
L 215.767127 286.138358 
L 217.398556 285.808046 
L 219.029986 286.138358 
L 222.292846 286.138358 
L 223.924276 285.808046 
L 225.555706 286.138358 
L 227.187136 285.973202 
L 228.818566 286.138358 
L 233.712855 286.138358 
L 235.344285 285.808046 
L 236.975715 286.138358 
L 246.764294 286.138358 
L 248.395724 285.808046 
L 250.027154 286.138358 
L 251.658584 285.831686 
L 254.921444 285.812247 
L 256.552873 286.364623 
L 258.184303 285.856793 
L 259.815733 285.650443 
L 261.447163 285.803883 
L 263.078593 285.43687 
L 264.710023 284.487197 
L 266.341453 284.093587 
L 267.972883 286.149722 
L 269.604312 285.834932 
L 271.235742 285.980336 
L 272.867172 286.821446 
L 274.498602 287.344459 
L 276.130032 285.013581 
L 277.761462 287.338383 
L 279.392892 287.890675 
L 281.024322 287.845277 
L 282.655751 287.133003 
L 284.287181 285.057738 
L 285.918611 287.130273 
L 287.550041 284.529495 
L 289.181471 285.191829 
L 290.812901 284.875756 
L 292.444331 286.69291 
L 294.075761 285.540217 
L 295.70719 287.758084 
L 297.33862 285.25186 
L 298.97005 286.028233 
L 300.60148 286.095186 
L 302.23291 285.775559 
L 303.86434 286.543752 
L 305.49577 285.462102 
L 307.1272 286.106899 
L 308.75863 283.438736 
L 310.390059 283.115986 
L 312.021489 283.913126 
L 313.652919 286.495752 
L 315.284349 285.393833 
L 316.915779 287.317727 
L 318.547209 281.991569 
L 320.178639 287.47161 
L 321.810069 287.663987 
L 323.441498 287.2653 
L 325.072928 287.336437 
L 326.704358 287.9779 
L 328.335788 287.259812 
L 329.967218 286.381195 
L 331.598648 287.386509 
L 333.230078 286.030602 
L 334.861508 285.637407 
L 336.492937 286.275463 
L 338.124367 285.836758 
L 339.755797 287.431727 
L 341.387227 287.795493 
L 344.650087 287.02584 
L 346.281517 287.49194 
L 347.912947 285.967282 
L 349.544376 289.329322 
L 351.175806 289.723186 
L 352.807236 289.72823 
L 354.438666 286.88685 
L 356.070096 285.537133 
L 357.701526 286.323092 
L 359.332956 289.307518 
L 360.964386 289.668129 
L 362.595815 289.621534 
L 364.227245 289.709771 
L 365.858675 287.593249 
L 367.490105 288.502001 
L 369.121535 288.523985 
L 370.752965 288.034313 
L 372.384395 288.426837 
L 374.015825 289.88282 
L 375.647254 289.830605 
L 377.278684 288.022648 
L 378.910114 285.71946 
L 380.541544 288.994853 
L 382.172974 287.967024 
L 383.804404 287.354279 
L 385.435834 286.908346 
L 387.067264 288.639885 
L 388.698693 288.10976 
L 390.330123 288.058016 
L 391.961553 287.690723 
L 393.592983 287.816591 
L 395.224413 287.666153 
L 396.855843 287.33729 
L 398.487273 288.616612 
L 398.487273 288.616612 
" style="fill:none;stroke:#1f77b4;stroke-linecap:square;stroke-width:0.25;"/>
   </g>
   <g id="line2d_16">
    <path clip-path="url(#p8faa3f6b93)" d="M 73.832727 285.658025 
L 83.621307 285.613674 
L 85.252736 285.736114 
L 86.884166 285.603411 
L 88.515596 285.671591 
L 90.147026 285.60742 
L 91.778456 285.699074 
L 101.567035 285.61733 
L 103.198465 285.721843 
L 108.092755 285.600108 
L 109.724185 285.716295 
L 111.355614 285.58029 
L 114.618474 285.756286 
L 116.249904 285.648116 
L 124.407053 285.681853 
L 127.669913 285.604117 
L 129.301343 285.692115 
L 137.458492 285.566019 
L 139.089922 285.691762 
L 143.984212 285.532635 
L 145.615642 285.739417 
L 150.509931 285.667935 
L 155.404221 285.664632 
L 160.298511 285.481677 
L 161.929941 285.630895 
L 171.71852 285.624641 
L 173.34995 285.698369 
L 174.98138 285.647763 
L 176.61281 285.721843 
L 178.244239 285.589846 
L 179.875669 285.692115 
L 181.507099 285.600814 
L 184.769959 285.80394 
L 188.032819 285.651066 
L 192.927108 285.630542 
L 194.558538 285.528626 
L 197.821398 285.614026 
L 199.452828 285.506685 
L 201.084258 285.543987 
L 202.715688 284.834881 
L 204.347117 285.459544 
L 205.978547 284.806651 
L 207.609977 285.094865 
L 209.241407 285.136939 
L 210.872837 284.863934 
L 212.504267 285.058687 
L 214.135697 285.047936 
L 215.767127 285.298765 
L 217.398556 285.048076 
L 219.029986 285.178528 
L 220.661416 284.464283 
L 222.292846 285.236571 
L 223.924276 285.387822 
L 225.555706 285.702886 
L 227.187136 285.011067 
L 228.818566 285.243023 
L 230.449995 285.652386 
L 232.081425 285.190023 
L 235.344285 285.570415 
L 236.975715 285.480786 
L 238.607145 285.67927 
L 240.238575 285.391961 
L 241.870005 285.312194 
L 243.501434 285.729452 
L 245.132864 285.094843 
L 246.764294 285.049053 
L 248.395724 285.32829 
L 250.027154 285.472299 
L 251.658584 284.797161 
L 253.290014 285.518646 
L 254.921444 285.254653 
L 256.552873 285.442479 
L 258.184303 285.168035 
L 259.815733 284.677099 
L 261.447163 282.189829 
L 263.078593 284.004031 
L 264.710023 281.129326 
L 266.341453 280.936341 
L 267.972883 281.135126 
L 269.604312 282.885465 
L 272.867172 283.821833 
L 274.498602 285.174357 
L 276.130032 281.918175 
L 277.761462 284.461642 
L 279.392892 285.992057 
L 281.024322 286.663627 
L 282.655751 283.875018 
L 284.287181 281.699358 
L 285.918611 283.607083 
L 287.550041 280.215947 
L 289.181471 278.096962 
L 290.812901 281.11191 
L 292.444331 282.675103 
L 294.075761 278.725851 
L 295.70719 281.962861 
L 297.33862 278.140647 
L 298.97005 280.98818 
L 300.60148 281.560071 
L 302.23291 281.939286 
L 303.86434 281.802616 
L 307.1272 282.936427 
L 308.75863 278.917063 
L 310.390059 276.134012 
L 312.021489 278.790777 
L 313.652919 282.856844 
L 315.284349 280.80029 
L 316.915779 284.499338 
L 318.547209 269.933406 
L 320.178639 282.742976 
L 321.810069 282.869382 
L 323.441498 281.831008 
L 325.072928 282.149001 
L 326.704358 284.101594 
L 328.335788 281.209494 
L 329.967218 281.163451 
L 331.598648 282.39954 
L 333.230078 280.834412 
L 334.861508 280.314566 
L 336.492937 282.590165 
L 338.124367 279.521848 
L 339.755797 285.16703 
L 341.387227 282.958992 
L 343.018657 285.210294 
L 344.650087 284.017622 
L 346.281517 281.857059 
L 347.912947 281.127363 
L 349.544376 285.772101 
L 351.175806 287.011559 
L 352.807236 286.829832 
L 354.438666 285.581145 
L 356.070096 283.047053 
L 357.701526 280.071018 
L 359.332956 283.218769 
L 360.964386 282.525163 
L 362.595815 286.325879 
L 364.227245 284.649647 
L 365.858675 284.135173 
L 367.490105 280.737228 
L 369.121535 284.25485 
L 370.752965 284.599744 
L 372.384395 283.184623 
L 374.015825 286.044858 
L 375.647254 285.912882 
L 377.278684 282.675933 
L 378.910114 281.165707 
L 380.541544 287.489242 
L 382.172974 286.184001 
L 383.804404 284.231363 
L 385.435834 285.253086 
L 387.067264 285.261778 
L 388.698693 285.083192 
L 390.330123 285.850817 
L 391.961553 285.130009 
L 393.592983 283.095055 
L 395.224413 285.789259 
L 396.855843 284.100441 
L 398.487273 281.987211 
L 398.487273 281.987211 
" style="fill:none;stroke:#2ca02c;stroke-linecap:square;stroke-width:0.75;"/>
   </g>
   <g id="patch_3">
    <path d="M 57.6 307.584 
L 57.6 41.472 
" style="fill:none;stroke:#000000;stroke-linecap:square;stroke-linejoin:miter;stroke-width:0.8;"/>
   </g>
   <g id="patch_4">
    <path d="M 414.72 307.584 
L 414.72 41.472 
" style="fill:none;stroke:#000000;stroke-linecap:square;stroke-linejoin:miter;stroke-width:0.8;"/>
   </g>
   <g id="patch_5">
    <path d="M 57.6 307.584 
L 414.72 307.584 
" style="fill:none;stroke:#000000;stroke-linecap:square;stroke-linejoin:miter;stroke-width:0.8;"/>
   </g>
   <g id="patch_6">
    <path d="M 57.6 41.472 
L 414.72 41.472 
" style="fill:none;stroke:#000000;stroke-linecap:square;stroke-linejoin:miter;stroke-width:0.8;"/>
   </g>
   <g id="legend_1">
    <g id="patch_7">
     <path d="M 338.234063 78.82825 
L 407.72 78.82825 
Q 409.72 78.82825 409.72 76.82825 
L 409.72 48.472 
Q 409.72 46.472 407.72 46.472 
L 338.234063 46.472 
Q 336.234063 46.472 336.234063 48.472 
L 336.234063 76.82825 
Q 336.234063 78.82825 338.234063 78.82825 
z
" style="fill:#ffffff;opacity:0.8;stroke:#cccccc;stroke-linejoin:miter;"/>
    </g>
    <g id="line2d_17">
     <path d="M 340.234063 54.570437 
L 360.234063 54.570437 
" style="fill:none;stroke:#1f77b4;stroke-linecap:square;stroke-width:0.25;"/>
    </g>
    <g id="line2d_18"/>
    <g id="text_15">
     <!-- median -->
     <defs>
      <path d="M 52 44.1875 
Q 55.375 50.25 60.0625 53.125 
Q 64.75 56 71.09375 56 
Q 79.640625 56 84.28125 50.015625 
Q 88.921875 44.046875 88.921875 33.015625 
L 88.921875 0 
L 79.890625 0 
L 79.890625 32.71875 
Q 79.890625 40.578125 77.09375 44.375 
Q 74.3125 48.1875 68.609375 48.1875 
Q 61.625 48.1875 57.5625 43.546875 
Q 53.515625 38.921875 53.515625 30.90625 
L 53.515625 0 
L 44.484375 0 
L 44.484375 32.71875 
Q 44.484375 40.625 41.703125 44.40625 
Q 38.921875 48.1875 33.109375 48.1875 
Q 26.21875 48.1875 22.15625 43.53125 
Q 18.109375 38.875 18.109375 30.90625 
L 18.109375 0 
L 9.078125 0 
L 9.078125 54.6875 
L 18.109375 54.6875 
L 18.109375 46.1875 
Q 21.1875 51.21875 25.484375 53.609375 
Q 29.78125 56 35.6875 56 
Q 41.65625 56 45.828125 52.96875 
Q 50 49.953125 52 44.1875 
z
" id="DejaVuSans-109"/>
      <path d="M 56.203125 29.59375 
L 56.203125 25.203125 
L 14.890625 25.203125 
Q 15.484375 15.921875 20.484375 11.0625 
Q 25.484375 6.203125 34.421875 6.203125 
Q 39.59375 6.203125 44.453125 7.46875 
Q 49.3125 8.734375 54.109375 11.28125 
L 54.109375 2.78125 
Q 49.265625 0.734375 44.1875 -0.34375 
Q 39.109375 -1.421875 33.890625 -1.421875 
Q 20.796875 -1.421875 13.15625 6.1875 
Q 5.515625 13.8125 5.515625 26.8125 
Q 5.515625 40.234375 12.765625 48.109375 
Q 20.015625 56 32.328125 56 
Q 43.359375 56 49.78125 48.890625 
Q 56.203125 41.796875 56.203125 29.59375 
z
M 47.21875 32.234375 
Q 47.125 39.59375 43.09375 43.984375 
Q 39.0625 48.390625 32.421875 48.390625 
Q 24.90625 48.390625 20.390625 44.140625 
Q 15.875 39.890625 15.1875 32.171875 
z
" id="DejaVuSans-101"/>
      <path d="M 45.40625 46.390625 
L 45.40625 75.984375 
L 54.390625 75.984375 
L 54.390625 0 
L 45.40625 0 
L 45.40625 8.203125 
Q 42.578125 3.328125 38.25 0.953125 
Q 33.9375 -1.421875 27.875 -1.421875 
Q 17.96875 -1.421875 11.734375 6.484375 
Q 5.515625 14.40625 5.515625 27.296875 
Q 5.515625 40.1875 11.734375 48.09375 
Q 17.96875 56 27.875 56 
Q 33.9375 56 38.25 53.625 
Q 42.578125 51.265625 45.40625 46.390625 
z
M 14.796875 27.296875 
Q 14.796875 17.390625 18.875 11.75 
Q 22.953125 6.109375 30.078125 6.109375 
Q 37.203125 6.109375 41.296875 11.75 
Q 45.40625 17.390625 45.40625 27.296875 
Q 45.40625 37.203125 41.296875 42.84375 
Q 37.203125 48.484375 30.078125 48.484375 
Q 22.953125 48.484375 18.875 42.84375 
Q 14.796875 37.203125 14.796875 27.296875 
z
" id="DejaVuSans-100"/>
      <path d="M 9.421875 54.6875 
L 18.40625 54.6875 
L 18.40625 0 
L 9.421875 0 
z
M 9.421875 75.984375 
L 18.40625 75.984375 
L 18.40625 64.59375 
L 9.421875 64.59375 
z
" id="DejaVuSans-105"/>
      <path d="M 34.28125 27.484375 
Q 23.390625 27.484375 19.1875 25 
Q 14.984375 22.515625 14.984375 16.5 
Q 14.984375 11.71875 18.140625 8.90625 
Q 21.296875 6.109375 26.703125 6.109375 
Q 34.1875 6.109375 38.703125 11.40625 
Q 43.21875 16.703125 43.21875 25.484375 
L 43.21875 27.484375 
z
M 52.203125 31.203125 
L 52.203125 0 
L 43.21875 0 
L 43.21875 8.296875 
Q 40.140625 3.328125 35.546875 0.953125 
Q 30.953125 -1.421875 24.3125 -1.421875 
Q 15.921875 -1.421875 10.953125 3.296875 
Q 6 8.015625 6 15.921875 
Q 6 25.140625 12.171875 29.828125 
Q 18.359375 34.515625 30.609375 34.515625 
L 43.21875 34.515625 
L 43.21875 35.40625 
Q 43.21875 41.609375 39.140625 45 
Q 35.0625 48.390625 27.6875 48.390625 
Q 23 48.390625 18.546875 47.265625 
Q 14.109375 46.140625 10.015625 43.890625 
L 10.015625 52.203125 
Q 14.9375 54.109375 19.578125 55.046875 
Q 24.21875 56 28.609375 56 
Q 40.484375 56 46.34375 49.84375 
Q 52.203125 43.703125 52.203125 31.203125 
z
" id="DejaVuSans-97"/>
      <path d="M 54.890625 33.015625 
L 54.890625 0 
L 45.90625 0 
L 45.90625 32.71875 
Q 45.90625 40.484375 42.875 44.328125 
Q 39.84375 48.1875 33.796875 48.1875 
Q 26.515625 48.1875 22.3125 43.546875 
Q 18.109375 38.921875 18.109375 30.90625 
L 18.109375 0 
L 9.078125 0 
L 9.078125 54.6875 
L 18.109375 54.6875 
L 18.109375 46.1875 
Q 21.34375 51.125 25.703125 53.5625 
Q 30.078125 56 35.796875 56 
Q 45.21875 56 50.046875 50.171875 
Q 54.890625 44.34375 54.890625 33.015625 
z
" id="DejaVuSans-110"/>
     </defs>
     <g transform="translate(368.234063 58.070437)scale(0.1 -0.1)">
      <use xlink:href="#DejaVuSans-109"/>
      <use x="97.412109" xlink:href="#DejaVuSans-101"/>
      <use x="158.935547" xlink:href="#DejaVuSans-100"/>
      <use x="222.412109" xlink:href="#DejaVuSans-105"/>
      <use x="250.195312" xlink:href="#DejaVuSans-97"/>
      <use x="311.474609" xlink:href="#DejaVuSans-110"/>
     </g>
    </g>
    <g id="line2d_19">
     <path d="M 340.234063 69.248562 
L 360.234063 69.248562 
" style="fill:none;stroke:#2ca02c;stroke-linecap:square;stroke-width:0.75;"/>
    </g>
    <g id="line2d_20"/>
    <g id="text_16">
     <!-- mean -->
     <g transform="translate(368.234063 72.748562)scale(0.1 -0.1)">
      <use xlink:href="#DejaVuSans-109"/>
      <use x="97.412109" xlink:href="#DejaVuSans-101"/>
      <use x="158.935547" xlink:href="#DejaVuSans-97"/>
      <use x="220.214844" xlink:href="#DejaVuSans-110"/>
     </g>
    </g>
   </g>
  </g>
  <g id="text_17">
   <!-- log_loss.mean over generations -->
   <defs>
    <path d="M 9.421875 75.984375 
L 18.40625 75.984375 
L 18.40625 0 
L 9.421875 0 
z
" id="DejaVuSans-108"/>
    <path d="M 30.609375 48.390625 
Q 23.390625 48.390625 19.1875 42.75 
Q 14.984375 37.109375 14.984375 27.296875 
Q 14.984375 17.484375 19.15625 11.84375 
Q 23.34375 6.203125 30.609375 6.203125 
Q 37.796875 6.203125 41.984375 11.859375 
Q 46.1875 17.53125 46.1875 27.296875 
Q 46.1875 37.015625 41.984375 42.703125 
Q 37.796875 48.390625 30.609375 48.390625 
z
M 30.609375 56 
Q 42.328125 56 49.015625 48.375 
Q 55.71875 40.765625 55.71875 27.296875 
Q 55.71875 13.875 49.015625 6.21875 
Q 42.328125 -1.421875 30.609375 -1.421875 
Q 18.84375 -1.421875 12.171875 6.21875 
Q 5.515625 13.875 5.515625 27.296875 
Q 5.515625 40.765625 12.171875 48.375 
Q 18.84375 56 30.609375 56 
z
" id="DejaVuSans-111"/>
    <path d="M 45.40625 27.984375 
Q 45.40625 37.75 41.375 43.109375 
Q 37.359375 48.484375 30.078125 48.484375 
Q 22.859375 48.484375 18.828125 43.109375 
Q 14.796875 37.75 14.796875 27.984375 
Q 14.796875 18.265625 18.828125 12.890625 
Q 22.859375 7.515625 30.078125 7.515625 
Q 37.359375 7.515625 41.375 12.890625 
Q 45.40625 18.265625 45.40625 27.984375 
z
M 54.390625 6.78125 
Q 54.390625 -7.171875 48.1875 -13.984375 
Q 42 -20.796875 29.203125 -20.796875 
Q 24.46875 -20.796875 20.265625 -20.09375 
Q 16.0625 -19.390625 12.109375 -17.921875 
L 12.109375 -9.1875 
Q 16.0625 -11.328125 19.921875 -12.34375 
Q 23.78125 -13.375 27.78125 -13.375 
Q 36.625 -13.375 41.015625 -8.765625 
Q 45.40625 -4.15625 45.40625 5.171875 
L 45.40625 9.625 
Q 42.625 4.78125 38.28125 2.390625 
Q 33.9375 0 27.875 0 
Q 17.828125 0 11.671875 7.65625 
Q 5.515625 15.328125 5.515625 27.984375 
Q 5.515625 40.671875 11.671875 48.328125 
Q 17.828125 56 27.875 56 
Q 33.9375 56 38.28125 53.609375 
Q 42.625 51.21875 45.40625 46.390625 
L 45.40625 54.6875 
L 54.390625 54.6875 
z
" id="DejaVuSans-103"/>
    <path d="M 50.984375 -16.609375 
L 50.984375 -23.578125 
L -0.984375 -23.578125 
L -0.984375 -16.609375 
z
" id="DejaVuSans-95"/>
    <path d="M 44.28125 53.078125 
L 44.28125 44.578125 
Q 40.484375 46.53125 36.375 47.5 
Q 32.28125 48.484375 27.875 48.484375 
Q 21.1875 48.484375 17.84375 46.4375 
Q 14.5 44.390625 14.5 40.28125 
Q 14.5 37.15625 16.890625 35.375 
Q 19.28125 33.59375 26.515625 31.984375 
L 29.59375 31.296875 
Q 39.15625 29.25 43.1875 25.515625 
Q 47.21875 21.78125 47.21875 15.09375 
Q 47.21875 7.46875 41.1875 3.015625 
Q 35.15625 -1.421875 24.609375 -1.421875 
Q 20.21875 -1.421875 15.453125 -0.5625 
Q 10.6875 0.296875 5.421875 2 
L 5.421875 11.28125 
Q 10.40625 8.6875 15.234375 7.390625 
Q 20.0625 6.109375 24.8125 6.109375 
Q 31.15625 6.109375 34.5625 8.28125 
Q 37.984375 10.453125 37.984375 14.40625 
Q 37.984375 18.0625 35.515625 20.015625 
Q 33.0625 21.96875 24.703125 23.78125 
L 21.578125 24.515625 
Q 13.234375 26.265625 9.515625 29.90625 
Q 5.8125 33.546875 5.8125 39.890625 
Q 5.8125 47.609375 11.28125 51.796875 
Q 16.75 56 26.8125 56 
Q 31.78125 56 36.171875 55.265625 
Q 40.578125 54.546875 44.28125 53.078125 
z
" id="DejaVuSans-115"/>
    <path d="M 10.6875 12.40625 
L 21 12.40625 
L 21 0 
L 10.6875 0 
z
" id="DejaVuSans-46"/>
    <path id="DejaVuSans-32"/>
    <path d="M 2.984375 54.6875 
L 12.5 54.6875 
L 29.59375 8.796875 
L 46.6875 54.6875 
L 56.203125 54.6875 
L 35.6875 0 
L 23.484375 0 
z
" id="DejaVuSans-118"/>
    <path d="M 41.109375 46.296875 
Q 39.59375 47.171875 37.8125 47.578125 
Q 36.03125 48 33.890625 48 
Q 26.265625 48 22.1875 43.046875 
Q 18.109375 38.09375 18.109375 28.8125 
L 18.109375 0 
L 9.078125 0 
L 9.078125 54.6875 
L 18.109375 54.6875 
L 18.109375 46.1875 
Q 20.953125 51.171875 25.484375 53.578125 
Q 30.03125 56 36.53125 56 
Q 37.453125 56 38.578125 55.875 
Q 39.703125 55.765625 41.0625 55.515625 
z
" id="DejaVuSans-114"/>
    <path d="M 18.3125 70.21875 
L 18.3125 54.6875 
L 36.8125 54.6875 
L 36.8125 47.703125 
L 18.3125 47.703125 
L 18.3125 18.015625 
Q 18.3125 11.328125 20.140625 9.421875 
Q 21.96875 7.515625 27.59375 7.515625 
L 36.8125 7.515625 
L 36.8125 0 
L 27.59375 0 
Q 17.1875 0 13.234375 3.875 
Q 9.28125 7.765625 9.28125 18.015625 
L 9.28125 47.703125 
L 2.6875 47.703125 
L 2.6875 54.6875 
L 9.28125 54.6875 
L 9.28125 70.21875 
z
" id="DejaVuSans-116"/>
   </defs>
   <g transform="translate(134.789062 16.030125)scale(0.12 -0.12)">
    <use xlink:href="#DejaVuSans-108"/>
    <use x="27.783203" xlink:href="#DejaVuSans-111"/>
    <use x="88.964844" xlink:href="#DejaVuSans-103"/>
    <use x="152.441406" xlink:href="#DejaVuSans-95"/>
    <use x="202.441406" xlink:href="#DejaVuSans-108"/>
    <use x="230.224609" xlink:href="#DejaVuSans-111"/>
    <use x="291.40625" xlink:href="#DejaVuSans-115"/>
    <use x="343.505859" xlink:href="#DejaVuSans-115"/>
    <use x="395.605469" xlink:href="#DejaVuSans-46"/>
    <use x="427.392578" xlink:href="#DejaVuSans-109"/>
    <use x="524.804688" xlink:href="#DejaVuSans-101"/>
    <use x="586.328125" xlink:href="#DejaVuSans-97"/>
    <use x="647.607422" xlink:href="#DejaVuSans-110"/>
    <use x="710.986328" xlink:href="#DejaVuSans-32"/>
    <use x="742.773438" xlink:href="#DejaVuSans-111"/>
    <use x="803.955078" xlink:href="#DejaVuSans-118"/>
    <use x="863.134766" xlink:href="#DejaVuSans-101"/>
    <use x="924.658203" xlink:href="#DejaVuSans-114"/>
    <use x="965.771484" xlink:href="#DejaVuSans-32"/>
    <use x="997.558594" xlink:href="#DejaVuSans-103"/>
    <use x="1061.035156" xlink:href="#DejaVuSans-101"/>
    <use x="1122.558594" xlink:href="#DejaVuSans-110"/>
    <use x="1185.9375" xlink:href="#DejaVuSans-101"/>
    <use x="1247.460938" xlink:href="#DejaVuSans-114"/>
    <use x="1288.574219" xlink:href="#DejaVuSans-97"/>
    <use x="1349.853516" xlink:href="#DejaVuSans-116"/>
    <use x="1389.0625" xlink:href="#DejaVuSans-105"/>
    <use x="1416.845703" xlink:href="#DejaVuSans-111"/>
    <use x="1478.027344" xlink:href="#DejaVuSans-110"/>
    <use x="1541.40625" xlink:href="#DejaVuSans-115"/>
   </g>
  </g>
 </g>
 <defs>
  <clipPath id="p8faa3f6b93">
   <rect height="266.112" width="357.12" x="57.6" y="41.472"/>
  </clipPath>
 </defs>
</svg>
