<?xml version="1.0" encoding="utf-8" standalone="no"?>
<!DOCTYPE svg PUBLIC "-//W3C//DTD SVG 1.1//EN"
  "http://www.w3.org/Graphics/SVG/1.1/DTD/svg11.dtd">
<!-- Created with matplotlib (https://matplotlib.org/) -->
<svg height="345.6pt" version="1.1" viewBox="0 0 460.8 345.6" width="460.8pt" xmlns="http://www.w3.org/2000/svg" xmlns:xlink="http://www.w3.org/1999/xlink">
 <defs>
  <style type="text/css">
*{stroke-linecap:butt;stroke-linejoin:round;}
  </style>
 </defs>
 <g id="figure_1">
  <g id="patch_1">
   <path d="M 0 345.6 
L 460.8 345.6 
L 460.8 0 
L 0 0 
z
" style="fill:#ffffff;"/>
  </g>
  <g id="axes_1">
   <g id="patch_2">
    <path d="M 57.6 307.584 
L 414.72 307.584 
L 414.72 41.472 
L 57.6 41.472 
z
" style="fill:#ffffff;"/>
   </g>
   <g id="PolyCollection_1">
    <path clip-path="url(#p0cecef87b4)" d="M 73.832727 211.018726 
L 73.832727 211.018726 
L 75.464157 211.018726 
L 77.095587 211.018726 
L 78.727017 211.018726 
L 80.358447 211.018726 
L 81.989877 211.018726 
L 83.621307 211.018726 
L 85.252736 211.018726 
L 86.884166 211.018726 
L 88.515596 211.018726 
L 90.147026 211.018726 
L 91.778456 211.018726 
L 93.409886 211.018726 
L 95.041316 211.018726 
L 96.672746 211.018726 
L 98.304175 211.018726 
L 99.935605 211.018726 
L 101.567035 211.018726 
L 103.198465 211.018726 
L 104.829895 211.018726 
L 106.461325 211.018726 
L 108.092755 211.018726 
L 109.724185 211.018726 
L 111.355614 211.018726 
L 112.987044 211.018726 
L 114.618474 211.018726 
L 116.249904 211.018726 
L 117.881334 211.018726 
L 119.512764 211.018726 
L 121.144194 211.018726 
L 122.775624 211.018726 
L 124.407053 211.018726 
L 126.038483 211.018726 
L 127.669913 211.018726 
L 129.301343 211.018726 
L 130.932773 211.018726 
L 132.564203 211.018726 
L 134.195633 211.018726 
L 135.827063 211.018726 
L 137.458492 211.018726 
L 139.089922 211.018726 
L 140.721352 211.018726 
L 142.352782 211.018726 
L 143.984212 211.018726 
L 145.615642 211.018726 
L 147.247072 211.018726 
L 148.878502 211.018726 
L 150.509931 211.018726 
L 152.141361 211.018726 
L 153.772791 211.018726 
L 155.404221 211.018726 
L 157.035651 211.018726 
L 158.667081 211.018726 
L 160.298511 211.018726 
L 161.929941 211.018726 
L 163.56137 211.018726 
L 165.1928 211.018726 
L 166.82423 211.018726 
L 168.45566 211.018726 
L 170.08709 211.018726 
L 171.71852 211.018726 
L 173.34995 211.018726 
L 174.98138 211.018726 
L 176.61281 211.018726 
L 178.244239 211.018726 
L 179.875669 211.018726 
L 181.507099 211.018726 
L 183.138529 211.018726 
L 184.769959 211.018726 
L 186.401389 211.018726 
L 188.032819 211.018726 
L 189.664249 211.018726 
L 191.295678 211.018726 
L 192.927108 211.018726 
L 194.558538 211.018726 
L 196.189968 211.018726 
L 197.821398 211.018726 
L 199.452828 211.018726 
L 201.084258 211.018726 
L 202.715688 211.018726 
L 204.347117 211.018726 
L 205.978547 211.018726 
L 207.609977 211.018726 
L 209.241407 211.018726 
L 210.872837 211.018726 
L 212.504267 211.018726 
L 214.135697 211.018726 
L 215.767127 211.018726 
L 217.398556 211.018726 
L 219.029986 211.018726 
L 220.661416 211.018726 
L 222.292846 211.018726 
L 223.924276 211.018726 
L 225.555706 193.871464 
L 227.187136 211.018726 
L 228.818566 196.726525 
L 230.449995 211.018726 
L 232.081425 201.558168 
L 233.712855 211.018726 
L 235.344285 211.018726 
L 236.975715 200.346217 
L 238.607145 211.018726 
L 240.238575 210.680849 
L 241.870005 211.018726 
L 243.501434 211.018726 
L 245.132864 211.018726 
L 246.764294 209.41381 
L 248.395724 206.288447 
L 250.027154 211.018726 
L 251.658584 199.868782 
L 253.290014 211.018726 
L 254.921444 211.018726 
L 256.552873 207.386547 
L 258.184303 210.765318 
L 259.815733 196.764536 
L 261.447163 211.018726 
L 263.078593 210.511911 
L 264.710023 204.261184 
L 266.341453 210.342972 
L 267.972883 203.58543 
L 269.604312 194.124872 
L 271.235742 202.812536 
L 272.867172 202.852961 
L 274.498602 203.263642 
L 276.130032 211.018726 
L 277.761462 211.018726 
L 279.392892 211.018726 
L 281.024322 211.018726 
L 282.655751 211.018726 
L 284.287181 211.018726 
L 285.918611 211.018726 
L 287.550041 202.352179 
L 289.181471 211.018726 
L 290.812901 211.018726 
L 292.444331 211.018726 
L 294.075761 211.018726 
L 295.70719 211.018726 
L 297.33862 211.018726 
L 298.97005 211.018726 
L 300.60148 211.018726 
L 302.23291 211.018726 
L 303.86434 211.018726 
L 305.49577 199.887553 
L 307.1272 211.018726 
L 308.75863 211.018726 
L 310.390059 211.018726 
L 312.021489 204.290749 
L 313.652919 211.018726 
L 315.284349 211.018726 
L 316.915779 202.664092 
L 318.547209 211.018726 
L 320.178639 211.018726 
L 321.810069 211.018726 
L 323.441498 210.342972 
L 325.072928 211.018726 
L 326.704358 211.018726 
L 328.335788 211.018726 
L 329.967218 211.018726 
L 331.598648 203.707447 
L 333.230078 211.018726 
L 334.861508 211.018726 
L 336.492937 211.018726 
L 338.124367 211.018726 
L 339.755797 211.018726 
L 341.387227 211.018726 
L 343.018657 211.018726 
L 344.650087 211.018726 
L 346.281517 211.018726 
L 347.912947 211.018726 
L 349.544376 211.018726 
L 351.175806 211.018726 
L 352.807236 211.018726 
L 354.438666 211.018726 
L 356.070096 211.018726 
L 357.701526 210.427441 
L 359.332956 211.018726 
L 360.964386 211.018726 
L 362.595815 210.511911 
L 364.227245 211.018726 
L 365.858675 210.511911 
L 367.490105 211.018726 
L 369.121535 211.018726 
L 370.752965 211.018726 
L 372.384395 211.018726 
L 374.015825 211.018726 
L 375.647254 211.018726 
L 377.278684 210.511911 
L 378.910114 199.723978 
L 380.541544 211.018726 
L 382.172974 211.018726 
L 383.804404 211.018726 
L 385.435834 195.138503 
L 387.067264 211.018726 
L 388.698693 209.667218 
L 390.330123 211.018726 
L 391.961553 211.018726 
L 393.592983 211.018726 
L 395.224413 211.018726 
L 396.855843 203.219525 
L 398.487273 211.018726 
L 398.487273 61.438233 
L 398.487273 61.438233 
L 396.855843 73.502749 
L 395.224413 76.965989 
L 393.592983 68.434592 
L 391.961553 126.549453 
L 390.330123 91.325765 
L 388.698693 73.418279 
L 387.067264 87.017832 
L 385.435834 90.058726 
L 383.804404 126.549453 
L 382.172974 100.955263 
L 380.541544 88.538279 
L 378.910114 98.505654 
L 377.278684 80.260291 
L 375.647254 84.946499 
L 374.015825 126.549453 
L 372.384395 77.219397 
L 370.752965 119.538503 
L 369.121535 118.129555 
L 367.490105 123.508559 
L 365.858675 115.652916 
L 364.227245 129.083531 
L 362.595815 118.621408 
L 360.964386 126.549453 
L 359.332956 126.549453 
L 357.701526 126.549453 
L 356.070096 126.549453 
L 354.438666 126.549453 
L 352.807236 125.366883 
L 351.175806 123.508559 
L 349.544376 111.344983 
L 347.912947 112.286816 
L 346.281517 126.549453 
L 344.650087 128.661184 
L 343.018657 172.24733 
L 341.387227 126.549453 
L 339.755797 97.829899 
L 338.124367 128.238838 
L 336.492937 126.549453 
L 334.861508 172.500737 
L 333.230078 126.549453 
L 331.598648 117.004425 
L 329.967218 126.549453 
L 328.335788 141.078168 
L 326.704358 118.778279 
L 325.072928 123.719732 
L 323.441498 128.058381 
L 321.810069 154.424313 
L 320.178639 126.549453 
L 318.547209 126.549453 
L 316.915779 126.296045 
L 315.284349 126.549453 
L 313.652919 131.617609 
L 312.021489 128.492246 
L 310.390059 180.789285 
L 308.75863 126.549453 
L 307.1272 165.743196 
L 305.49577 162.364425 
L 303.86434 136.09448 
L 302.23291 141.416045 
L 300.60148 139.388782 
L 298.97005 155.269006 
L 297.33862 155.353475 
L 295.70719 138.375151 
L 294.075761 143.189899 
L 292.444331 143.443307 
L 290.812901 201.36733 
L 289.181471 151.636827 
L 287.550041 151.890235 
L 285.918611 146.146324 
L 284.287181 142.176268 
L 282.655751 132.800179 
L 281.024322 149.862972 
L 279.392892 151.890235 
L 277.761462 151.890235 
L 276.130032 148.511464 
L 274.498602 160.675039 
L 272.867172 159.070123 
L 271.235742 168.784089 
L 269.604312 124.218868 
L 267.972883 152.228112 
L 266.341453 141.416045 
L 264.710023 151.552358 
L 263.078593 168.953028 
L 261.447163 191.823084 
L 259.815733 157.634145 
L 258.184303 154.593251 
L 256.552873 165.743196 
L 254.921444 158.985654 
L 253.290014 143.443307 
L 251.658584 151.21448 
L 250.027154 200.51382 
L 248.395724 186.523341 
L 246.764294 179.457934 
L 245.132864 177.568894 
L 243.501434 203.58543 
L 241.870005 194.462749 
L 240.238575 177.231017 
L 238.607145 199.446436 
L 236.975715 185.086659 
L 235.344285 211.018726 
L 233.712855 210.680849 
L 232.081425 153.161296 
L 230.449995 176.89314 
L 228.818566 162.95571 
L 227.187136 194.027732 
L 225.555706 163.715933 
L 223.924276 194.124872 
L 222.292846 211.018726 
L 220.661416 211.018726 
L 219.029986 211.018726 
L 217.398556 211.018726 
L 215.767127 211.018726 
L 214.135697 211.018726 
L 212.504267 211.018726 
L 210.872837 211.018726 
L 209.241407 211.018726 
L 207.609977 211.018726 
L 205.978547 211.018726 
L 204.347117 211.018726 
L 202.715688 211.018726 
L 201.084258 211.018726 
L 199.452828 211.018726 
L 197.821398 211.018726 
L 196.189968 211.018726 
L 194.558538 211.018726 
L 192.927108 211.018726 
L 191.295678 211.018726 
L 189.664249 211.018726 
L 188.032819 211.018726 
L 186.401389 211.018726 
L 184.769959 211.018726 
L 183.138529 211.018726 
L 181.507099 211.018726 
L 179.875669 211.018726 
L 178.244239 211.018726 
L 176.61281 211.018726 
L 174.98138 211.018726 
L 173.34995 211.018726 
L 171.71852 211.018726 
L 170.08709 211.018726 
L 168.45566 211.018726 
L 166.82423 211.018726 
L 165.1928 211.018726 
L 163.56137 211.018726 
L 161.929941 211.018726 
L 160.298511 211.018726 
L 158.667081 211.018726 
L 157.035651 211.018726 
L 155.404221 211.018726 
L 153.772791 211.018726 
L 152.141361 211.018726 
L 150.509931 211.018726 
L 148.878502 211.018726 
L 147.247072 211.018726 
L 145.615642 211.018726 
L 143.984212 211.018726 
L 142.352782 211.018726 
L 140.721352 211.018726 
L 139.089922 211.018726 
L 137.458492 211.018726 
L 135.827063 211.018726 
L 134.195633 211.018726 
L 132.564203 211.018726 
L 130.932773 211.018726 
L 129.301343 211.018726 
L 127.669913 211.018726 
L 126.038483 211.018726 
L 124.407053 211.018726 
L 122.775624 211.018726 
L 121.144194 211.018726 
L 119.512764 211.018726 
L 117.881334 211.018726 
L 116.249904 211.018726 
L 114.618474 211.018726 
L 112.987044 211.018726 
L 111.355614 211.018726 
L 109.724185 211.018726 
L 108.092755 211.018726 
L 106.461325 211.018726 
L 104.829895 211.018726 
L 103.198465 211.018726 
L 101.567035 211.018726 
L 99.935605 211.018726 
L 98.304175 211.018726 
L 96.672746 211.018726 
L 95.041316 211.018726 
L 93.409886 211.018726 
L 91.778456 211.018726 
L 90.147026 211.018726 
L 88.515596 211.018726 
L 86.884166 211.018726 
L 85.252736 211.018726 
L 83.621307 211.018726 
L 81.989877 211.018726 
L 80.358447 211.018726 
L 78.727017 211.018726 
L 77.095587 211.018726 
L 75.464157 211.018726 
L 73.832727 211.018726 
z
" style="fill:#1f77b4;fill-opacity:0.2;"/>
   </g>
   <g id="PolyCollection_2">
    <path clip-path="url(#p0cecef87b4)" d="M 73.832727 211.018726 
L 73.832727 211.018726 
L 75.464157 211.018726 
L 77.095587 211.018726 
L 78.727017 211.018726 
L 80.358447 211.018726 
L 81.989877 211.018726 
L 83.621307 211.018726 
L 85.252736 211.018726 
L 86.884166 211.018726 
L 88.515596 211.018726 
L 90.147026 211.018726 
L 91.778456 211.018726 
L 93.409886 211.018726 
L 95.041316 211.018726 
L 96.672746 211.018726 
L 98.304175 211.018726 
L 99.935605 211.018726 
L 101.567035 211.018726 
L 103.198465 211.018726 
L 104.829895 211.018726 
L 106.461325 211.018726 
L 108.092755 211.018726 
L 109.724185 211.018726 
L 111.355614 211.018726 
L 112.987044 211.018726 
L 114.618474 211.018726 
L 116.249904 211.018726 
L 117.881334 211.018726 
L 119.512764 211.018726 
L 121.144194 211.018726 
L 122.775624 211.018726 
L 124.407053 211.018726 
L 126.038483 211.018726 
L 127.669913 211.018726 
L 129.301343 211.018726 
L 130.932773 211.018726 
L 132.564203 211.018726 
L 134.195633 211.018726 
L 135.827063 211.018726 
L 137.458492 211.018726 
L 139.089922 211.018726 
L 140.721352 211.018726 
L 142.352782 211.018726 
L 143.984212 211.018726 
L 145.615642 211.018726 
L 147.247072 211.018726 
L 148.878502 211.018726 
L 150.509931 211.018726 
L 152.141361 211.018726 
L 153.772791 211.018726 
L 155.404221 211.018726 
L 157.035651 211.018726 
L 158.667081 211.018726 
L 160.298511 211.018726 
L 161.929941 211.018726 
L 163.56137 211.018726 
L 165.1928 211.018726 
L 166.82423 211.018726 
L 168.45566 211.018726 
L 170.08709 211.018726 
L 171.71852 211.018726 
L 173.34995 211.018726 
L 174.98138 211.018726 
L 176.61281 211.018726 
L 178.244239 211.018726 
L 179.875669 211.018726 
L 181.507099 211.018726 
L 183.138529 211.018726 
L 184.769959 211.018726 
L 186.401389 211.018726 
L 188.032819 211.018726 
L 189.664249 211.018726 
L 191.295678 211.018726 
L 192.927108 211.018726 
L 194.558538 211.018726 
L 196.189968 211.018726 
L 197.821398 211.018726 
L 199.452828 211.018726 
L 201.084258 211.018726 
L 202.715688 211.018726 
L 204.347117 231.291352 
L 205.978547 241.089788 
L 207.609977 268.79571 
L 209.241407 295.488 
L 210.872837 216.086883 
L 212.504267 227.912581 
L 214.135697 249.198838 
L 215.767127 246.833698 
L 217.398556 278.256268 
L 219.029986 225.885318 
L 220.661416 244.806436 
L 222.292846 211.69448 
L 223.924276 227.912581 
L 225.555706 295.150123 
L 227.187136 264.06543 
L 228.818566 269.471464 
L 230.449995 286.365318 
L 232.081425 272.850235 
L 233.712855 228.250458 
L 235.344285 278.256268 
L 236.975715 275.215374 
L 238.607145 282.986547 
L 240.238575 272.850235 
L 241.870005 280.959285 
L 243.501434 295.150123 
L 245.132864 281.635039 
L 246.764294 262.713922 
L 248.395724 278.594145 
L 250.027154 286.027441 
L 251.658584 286.703196 
L 253.290014 280.959285 
L 254.921444 295.488 
L 256.552873 258.659397 
L 258.184303 212.032358 
L 259.815733 274.53962 
L 261.447163 292.109229 
L 263.078593 260.348782 
L 264.710023 288.392581 
L 266.341453 211.018726 
L 267.972883 227.912581 
L 269.604312 271.160849 
L 271.235742 226.223196 
L 272.867172 277.242637 
L 274.498602 275.215374 
L 276.130032 295.488 
L 277.761462 291.771352 
L 279.392892 291.771352 
L 281.024322 295.488 
L 282.655751 291.433475 
L 284.287181 295.488 
L 285.918611 295.488 
L 287.550041 294.136492 
L 289.181471 295.488 
L 290.812901 211.018726 
L 292.444331 278.594145 
L 294.075761 294.474369 
L 295.70719 295.488 
L 297.33862 291.433475 
L 298.97005 295.488 
L 300.60148 295.488 
L 302.23291 295.488 
L 303.86434 295.488 
L 305.49577 227.912581 
L 307.1272 292.447106 
L 308.75863 211.018726 
L 310.390059 295.488 
L 312.021489 295.150123 
L 313.652919 295.150123 
L 315.284349 295.488 
L 316.915779 295.488 
L 318.547209 295.488 
L 320.178639 289.068335 
L 321.810069 285.01381 
L 323.441498 294.136492 
L 325.072928 295.488 
L 326.704358 285.351687 
L 328.335788 294.136492 
L 329.967218 295.488 
L 331.598648 295.488 
L 333.230078 261.700291 
L 334.861508 295.488 
L 336.492937 295.488 
L 338.124367 213.045989 
L 339.755797 211.018726 
L 341.387227 295.488 
L 343.018657 295.488 
L 344.650087 295.150123 
L 346.281517 294.812246 
L 347.912947 216.762637 
L 349.544376 211.018726 
L 351.175806 211.018726 
L 352.807236 295.488 
L 354.438666 295.488 
L 356.070096 295.488 
L 357.701526 295.488 
L 359.332956 295.488 
L 360.964386 295.488 
L 362.595815 211.69448 
L 364.227245 295.488 
L 365.858675 295.150123 
L 367.490105 295.488 
L 369.121535 261.700291 
L 370.752965 295.488 
L 372.384395 295.150123 
L 374.015825 295.488 
L 375.647254 295.488 
L 377.278684 227.912581 
L 378.910114 252.239732 
L 380.541544 213.045989 
L 382.172974 295.488 
L 383.804404 295.488 
L 385.435834 292.109229 
L 387.067264 291.433475 
L 388.698693 294.812246 
L 390.330123 291.771352 
L 391.961553 295.488 
L 393.592983 295.488 
L 395.224413 295.488 
L 396.855843 227.912581 
L 398.487273 295.488 
L 398.487273 54.378905 
L 398.487273 54.378905 
L 396.855843 61.709229 
L 395.224413 55.595263 
L 393.592983 60.663419 
L 391.961553 55.595263 
L 390.330123 61.906807 
L 388.698693 56.946771 
L 387.067264 59.649788 
L 385.435834 61.584902 
L 383.804404 53.568 
L 382.172974 54.919508 
L 380.541544 57.622525 
L 378.910114 61.427315 
L 377.278684 54.919508 
L 375.647254 54.243754 
L 374.015825 59.683575 
L 372.384395 54.243754 
L 370.752965 55.595263 
L 369.121535 54.31133 
L 367.490105 60.663419 
L 365.858675 57.284648 
L 364.227245 78.313475 
L 362.595815 71.475486 
L 360.964386 77.557274 
L 359.332956 72.489117 
L 357.701526 78.233028 
L 356.070096 75.867888 
L 354.438666 77.557274 
L 352.807236 77.557274 
L 351.175806 76.912236 
L 349.544376 75.867888 
L 347.912947 76.932201 
L 346.281517 91.494704 
L 344.650087 87.35571 
L 343.018657 83.301184 
L 341.387227 93.775374 
L 339.755797 87.35571 
L 338.124367 96.880626 
L 336.492937 87.693587 
L 334.861508 94.332872 
L 333.230078 100.414659 
L 331.598648 100.76943 
L 329.967218 110.246883 
L 328.335788 115.077721 
L 326.704358 110.868884 
L 325.072928 106.276827 
L 323.441498 110.973318 
L 321.810069 114.723754 
L 320.178639 112.696492 
L 318.547209 114.385877 
L 316.915779 115.737385 
L 315.284349 114.723754 
L 313.652919 115.703598 
L 312.021489 115.906324 
L 310.390059 115.938 
L 308.75863 90.058726 
L 307.1272 115.737385 
L 305.49577 114.339273 
L 303.86434 113.529117 
L 302.23291 113.284648 
L 300.60148 97.829899 
L 298.97005 110.770592 
L 297.33862 113.315933 
L 295.70719 95.802637 
L 294.075761 113.694765 
L 292.444331 102.898056 
L 290.812901 91.410235 
L 289.181471 118.102525 
L 287.550041 117.92733 
L 285.918611 96.478391 
L 284.287181 103.911687 
L 282.655751 105.601073 
L 281.024322 109.317721 
L 279.392892 117.6725 
L 277.761462 117.040626 
L 276.130032 92.085989 
L 274.498602 120.737966 
L 272.867172 119.756958 
L 271.235742 119.538503 
L 269.604312 118.295598 
L 267.972883 114.200045 
L 266.341453 110.331352 
L 264.710023 114.70686 
L 263.078593 117.441461 
L 261.447163 94.451129 
L 259.815733 115.678624 
L 258.184303 115.629879 
L 256.552873 114.997274 
L 254.921444 87.35571 
L 253.290014 90.058726 
L 251.658584 115.771173 
L 250.027154 141.078168 
L 248.395724 144.794816 
L 246.764294 152.228112 
L 245.132864 145.132693 
L 243.501434 144.119061 
L 241.870005 145.808447 
L 240.238575 166.41895 
L 238.607145 143.781184 
L 236.975715 176.217385 
L 235.344285 180.257832 
L 233.712855 157.972022 
L 232.081425 144.456939 
L 230.449995 130.941855 
L 228.818566 140.141327 
L 227.187136 139.614034 
L 225.555706 139.050905 
L 223.924276 126.549453 
L 222.292846 131.58543 
L 220.661416 131.769654 
L 219.029986 198.517274 
L 217.398556 204.629778 
L 215.767127 144.456939 
L 214.135697 203.990883 
L 212.504267 194.462749 
L 210.872837 211.018726 
L 209.241407 211.018726 
L 207.609977 211.018726 
L 205.978547 211.018726 
L 204.347117 211.018726 
L 202.715688 211.018726 
L 201.084258 211.018726 
L 199.452828 211.018726 
L 197.821398 211.018726 
L 196.189968 211.018726 
L 194.558538 211.018726 
L 192.927108 211.018726 
L 191.295678 211.018726 
L 189.664249 211.018726 
L 188.032819 211.018726 
L 186.401389 211.018726 
L 184.769959 211.018726 
L 183.138529 211.018726 
L 181.507099 211.018726 
L 179.875669 211.018726 
L 178.244239 211.018726 
L 176.61281 211.018726 
L 174.98138 211.018726 
L 173.34995 211.018726 
L 171.71852 211.018726 
L 170.08709 211.018726 
L 168.45566 211.018726 
L 166.82423 211.018726 
L 165.1928 211.018726 
L 163.56137 211.018726 
L 161.929941 211.018726 
L 160.298511 211.018726 
L 158.667081 211.018726 
L 157.035651 211.018726 
L 155.404221 211.018726 
L 153.772791 211.018726 
L 152.141361 211.018726 
L 150.509931 211.018726 
L 148.878502 211.018726 
L 147.247072 211.018726 
L 145.615642 211.018726 
L 143.984212 211.018726 
L 142.352782 211.018726 
L 140.721352 211.018726 
L 139.089922 211.018726 
L 137.458492 211.018726 
L 135.827063 211.018726 
L 134.195633 211.018726 
L 132.564203 211.018726 
L 130.932773 211.018726 
L 129.301343 211.018726 
L 127.669913 211.018726 
L 126.038483 211.018726 
L 124.407053 211.018726 
L 122.775624 211.018726 
L 121.144194 211.018726 
L 119.512764 211.018726 
L 117.881334 211.018726 
L 116.249904 211.018726 
L 114.618474 211.018726 
L 112.987044 211.018726 
L 111.355614 211.018726 
L 109.724185 211.018726 
L 108.092755 211.018726 
L 106.461325 211.018726 
L 104.829895 211.018726 
L 103.198465 211.018726 
L 101.567035 211.018726 
L 99.935605 211.018726 
L 98.304175 211.018726 
L 96.672746 211.018726 
L 95.041316 211.018726 
L 93.409886 211.018726 
L 91.778456 211.018726 
L 90.147026 211.018726 
L 88.515596 211.018726 
L 86.884166 211.018726 
L 85.252736 211.018726 
L 83.621307 211.018726 
L 81.989877 211.018726 
L 80.358447 211.018726 
L 78.727017 211.018726 
L 77.095587 211.018726 
L 75.464157 211.018726 
L 73.832727 211.018726 
z
" style="fill:#1f77b4;fill-opacity:0.1;"/>
   </g>
   <g id="matplotlib.axis_1">
    <g id="xtick_1">
     <g id="line2d_1">
      <defs>
       <path d="M 0 0 
L 0 3.5 
" id="m8615ebf577" style="stroke:#000000;stroke-width:0.8;"/>
      </defs>
      <g>
       <use style="stroke:#000000;stroke-width:0.8;" x="73.832727" xlink:href="#m8615ebf577" y="307.584"/>
      </g>
     </g>
     <g id="text_1">
      <!-- 0 -->
      <defs>
       <path d="M 31.78125 66.40625 
Q 24.171875 66.40625 20.328125 58.90625 
Q 16.5 51.421875 16.5 36.375 
Q 16.5 21.390625 20.328125 13.890625 
Q 24.171875 6.390625 31.78125 6.390625 
Q 39.453125 6.390625 43.28125 13.890625 
Q 47.125 21.390625 47.125 36.375 
Q 47.125 51.421875 43.28125 58.90625 
Q 39.453125 66.40625 31.78125 66.40625 
z
M 31.78125 74.21875 
Q 44.046875 74.21875 50.515625 64.515625 
Q 56.984375 54.828125 56.984375 36.375 
Q 56.984375 17.96875 50.515625 8.265625 
Q 44.046875 -1.421875 31.78125 -1.421875 
Q 19.53125 -1.421875 13.0625 8.265625 
Q 6.59375 17.96875 6.59375 36.375 
Q 6.59375 54.828125 13.0625 64.515625 
Q 19.53125 74.21875 31.78125 74.21875 
z
" id="DejaVuSans-48"/>
      </defs>
      <g transform="translate(70.651477 322.182437)scale(0.1 -0.1)">
       <use xlink:href="#DejaVuSans-48"/>
      </g>
     </g>
    </g>
    <g id="xtick_2">
     <g id="line2d_2">
      <g>
       <use style="stroke:#000000;stroke-width:0.8;" x="114.618474" xlink:href="#m8615ebf577" y="307.584"/>
      </g>
     </g>
     <g id="text_2">
      <!-- 25 -->
      <defs>
       <path d="M 19.1875 8.296875 
L 53.609375 8.296875 
L 53.609375 0 
L 7.328125 0 
L 7.328125 8.296875 
Q 12.9375 14.109375 22.625 23.890625 
Q 32.328125 33.6875 34.8125 36.53125 
Q 39.546875 41.84375 41.421875 45.53125 
Q 43.3125 49.21875 43.3125 52.78125 
Q 43.3125 58.59375 39.234375 62.25 
Q 35.15625 65.921875 28.609375 65.921875 
Q 23.96875 65.921875 18.8125 64.3125 
Q 13.671875 62.703125 7.8125 59.421875 
L 7.8125 69.390625 
Q 13.765625 71.78125 18.9375 73 
Q 24.125 74.21875 28.421875 74.21875 
Q 39.75 74.21875 46.484375 68.546875 
Q 53.21875 62.890625 53.21875 53.421875 
Q 53.21875 48.921875 51.53125 44.890625 
Q 49.859375 40.875 45.40625 35.40625 
Q 44.1875 33.984375 37.640625 27.21875 
Q 31.109375 20.453125 19.1875 8.296875 
z
" id="DejaVuSans-50"/>
       <path d="M 10.796875 72.90625 
L 49.515625 72.90625 
L 49.515625 64.59375 
L 19.828125 64.59375 
L 19.828125 46.734375 
Q 21.96875 47.46875 24.109375 47.828125 
Q 26.265625 48.1875 28.421875 48.1875 
Q 40.625 48.1875 47.75 41.5 
Q 54.890625 34.8125 54.890625 23.390625 
Q 54.890625 11.625 47.5625 5.09375 
Q 40.234375 -1.421875 26.90625 -1.421875 
Q 22.3125 -1.421875 17.546875 -0.640625 
Q 12.796875 0.140625 7.71875 1.703125 
L 7.71875 11.625 
Q 12.109375 9.234375 16.796875 8.0625 
Q 21.484375 6.890625 26.703125 6.890625 
Q 35.15625 6.890625 40.078125 11.328125 
Q 45.015625 15.765625 45.015625 23.390625 
Q 45.015625 31 40.078125 35.4375 
Q 35.15625 39.890625 26.703125 39.890625 
Q 22.75 39.890625 18.8125 39.015625 
Q 14.890625 38.140625 10.796875 36.28125 
z
" id="DejaVuSans-53"/>
      </defs>
      <g transform="translate(108.255974 322.182437)scale(0.1 -0.1)">
       <use xlink:href="#DejaVuSans-50"/>
       <use x="63.623047" xlink:href="#DejaVuSans-53"/>
      </g>
     </g>
    </g>
    <g id="xtick_3">
     <g id="line2d_3">
      <g>
       <use style="stroke:#000000;stroke-width:0.8;" x="155.404221" xlink:href="#m8615ebf577" y="307.584"/>
      </g>
     </g>
     <g id="text_3">
      <!-- 50 -->
      <g transform="translate(149.041721 322.182437)scale(0.1 -0.1)">
       <use xlink:href="#DejaVuSans-53"/>
       <use x="63.623047" xlink:href="#DejaVuSans-48"/>
      </g>
     </g>
    </g>
    <g id="xtick_4">
     <g id="line2d_4">
      <g>
       <use style="stroke:#000000;stroke-width:0.8;" x="196.189968" xlink:href="#m8615ebf577" y="307.584"/>
      </g>
     </g>
     <g id="text_4">
      <!-- 75 -->
      <defs>
       <path d="M 8.203125 72.90625 
L 55.078125 72.90625 
L 55.078125 68.703125 
L 28.609375 0 
L 18.3125 0 
L 43.21875 64.59375 
L 8.203125 64.59375 
z
" id="DejaVuSans-55"/>
      </defs>
      <g transform="translate(189.827468 322.182437)scale(0.1 -0.1)">
       <use xlink:href="#DejaVuSans-55"/>
       <use x="63.623047" xlink:href="#DejaVuSans-53"/>
      </g>
     </g>
    </g>
    <g id="xtick_5">
     <g id="line2d_5">
      <g>
       <use style="stroke:#000000;stroke-width:0.8;" x="236.975715" xlink:href="#m8615ebf577" y="307.584"/>
      </g>
     </g>
     <g id="text_5">
      <!-- 100 -->
      <defs>
       <path d="M 12.40625 8.296875 
L 28.515625 8.296875 
L 28.515625 63.921875 
L 10.984375 60.40625 
L 10.984375 69.390625 
L 28.421875 72.90625 
L 38.28125 72.90625 
L 38.28125 8.296875 
L 54.390625 8.296875 
L 54.390625 0 
L 12.40625 0 
z
" id="DejaVuSans-49"/>
      </defs>
      <g transform="translate(227.431965 322.182437)scale(0.1 -0.1)">
       <use xlink:href="#DejaVuSans-49"/>
       <use x="63.623047" xlink:href="#DejaVuSans-48"/>
       <use x="127.246094" xlink:href="#DejaVuSans-48"/>
      </g>
     </g>
    </g>
    <g id="xtick_6">
     <g id="line2d_6">
      <g>
       <use style="stroke:#000000;stroke-width:0.8;" x="277.761462" xlink:href="#m8615ebf577" y="307.584"/>
      </g>
     </g>
     <g id="text_6">
      <!-- 125 -->
      <g transform="translate(268.217712 322.182437)scale(0.1 -0.1)">
       <use xlink:href="#DejaVuSans-49"/>
       <use x="63.623047" xlink:href="#DejaVuSans-50"/>
       <use x="127.246094" xlink:href="#DejaVuSans-53"/>
      </g>
     </g>
    </g>
    <g id="xtick_7">
     <g id="line2d_7">
      <g>
       <use style="stroke:#000000;stroke-width:0.8;" x="318.547209" xlink:href="#m8615ebf577" y="307.584"/>
      </g>
     </g>
     <g id="text_7">
      <!-- 150 -->
      <g transform="translate(309.003459 322.182437)scale(0.1 -0.1)">
       <use xlink:href="#DejaVuSans-49"/>
       <use x="63.623047" xlink:href="#DejaVuSans-53"/>
       <use x="127.246094" xlink:href="#DejaVuSans-48"/>
      </g>
     </g>
    </g>
    <g id="xtick_8">
     <g id="line2d_8">
      <g>
       <use style="stroke:#000000;stroke-width:0.8;" x="359.332956" xlink:href="#m8615ebf577" y="307.584"/>
      </g>
     </g>
     <g id="text_8">
      <!-- 175 -->
      <g transform="translate(349.789206 322.182437)scale(0.1 -0.1)">
       <use xlink:href="#DejaVuSans-49"/>
       <use x="63.623047" xlink:href="#DejaVuSans-55"/>
       <use x="127.246094" xlink:href="#DejaVuSans-53"/>
      </g>
     </g>
    </g>
    <g id="xtick_9">
     <g id="line2d_9">
      <g>
       <use style="stroke:#000000;stroke-width:0.8;" x="400.118703" xlink:href="#m8615ebf577" y="307.584"/>
      </g>
     </g>
     <g id="text_9">
      <!-- 200 -->
      <g transform="translate(390.574953 322.182437)scale(0.1 -0.1)">
       <use xlink:href="#DejaVuSans-50"/>
       <use x="63.623047" xlink:href="#DejaVuSans-48"/>
       <use x="127.246094" xlink:href="#DejaVuSans-48"/>
      </g>
     </g>
    </g>
   </g>
   <g id="matplotlib.axis_2">
    <g id="ytick_1">
     <g id="line2d_10">
      <defs>
       <path d="M 0 0 
L -3.5 0 
" id="m264289c16f" style="stroke:#000000;stroke-width:0.8;"/>
      </defs>
      <g>
       <use style="stroke:#000000;stroke-width:0.8;" x="57.6" xlink:href="#m264289c16f" y="295.488"/>
      </g>
     </g>
     <g id="text_10">
      <!-- 0.0 -->
      <defs>
       <path d="M 10.6875 12.40625 
L 21 12.40625 
L 21 0 
L 10.6875 0 
z
" id="DejaVuSans-46"/>
      </defs>
      <g transform="translate(34.696875 299.287219)scale(0.1 -0.1)">
       <use xlink:href="#DejaVuSans-48"/>
       <use x="63.623047" xlink:href="#DejaVuSans-46"/>
       <use x="95.410156" xlink:href="#DejaVuSans-48"/>
      </g>
     </g>
    </g>
    <g id="ytick_2">
     <g id="line2d_11">
      <g>
       <use style="stroke:#000000;stroke-width:0.8;" x="57.6" xlink:href="#m264289c16f" y="244.806436"/>
      </g>
     </g>
     <g id="text_11">
      <!-- 0.2 -->
      <g transform="translate(34.696875 248.605655)scale(0.1 -0.1)">
       <use xlink:href="#DejaVuSans-48"/>
       <use x="63.623047" xlink:href="#DejaVuSans-46"/>
       <use x="95.410156" xlink:href="#DejaVuSans-50"/>
      </g>
     </g>
    </g>
    <g id="ytick_3">
     <g id="line2d_12">
      <g>
       <use style="stroke:#000000;stroke-width:0.8;" x="57.6" xlink:href="#m264289c16f" y="194.124872"/>
      </g>
     </g>
     <g id="text_12">
      <!-- 0.4 -->
      <defs>
       <path d="M 37.796875 64.3125 
L 12.890625 25.390625 
L 37.796875 25.390625 
z
M 35.203125 72.90625 
L 47.609375 72.90625 
L 47.609375 25.390625 
L 58.015625 25.390625 
L 58.015625 17.1875 
L 47.609375 17.1875 
L 47.609375 0 
L 37.796875 0 
L 37.796875 17.1875 
L 4.890625 17.1875 
L 4.890625 26.703125 
z
" id="DejaVuSans-52"/>
      </defs>
      <g transform="translate(34.696875 197.92409)scale(0.1 -0.1)">
       <use xlink:href="#DejaVuSans-48"/>
       <use x="63.623047" xlink:href="#DejaVuSans-46"/>
       <use x="95.410156" xlink:href="#DejaVuSans-52"/>
      </g>
     </g>
    </g>
    <g id="ytick_4">
     <g id="line2d_13">
      <g>
       <use style="stroke:#000000;stroke-width:0.8;" x="57.6" xlink:href="#m264289c16f" y="143.443307"/>
      </g>
     </g>
     <g id="text_13">
      <!-- 0.6 -->
      <defs>
       <path d="M 33.015625 40.375 
Q 26.375 40.375 22.484375 35.828125 
Q 18.609375 31.296875 18.609375 23.390625 
Q 18.609375 15.53125 22.484375 10.953125 
Q 26.375 6.390625 33.015625 6.390625 
Q 39.65625 6.390625 43.53125 10.953125 
Q 47.40625 15.53125 47.40625 23.390625 
Q 47.40625 31.296875 43.53125 35.828125 
Q 39.65625 40.375 33.015625 40.375 
z
M 52.59375 71.296875 
L 52.59375 62.3125 
Q 48.875 64.0625 45.09375 64.984375 
Q 41.3125 65.921875 37.59375 65.921875 
Q 27.828125 65.921875 22.671875 59.328125 
Q 17.53125 52.734375 16.796875 39.40625 
Q 19.671875 43.65625 24.015625 45.921875 
Q 28.375 48.1875 33.59375 48.1875 
Q 44.578125 48.1875 50.953125 41.515625 
Q 57.328125 34.859375 57.328125 23.390625 
Q 57.328125 12.15625 50.6875 5.359375 
Q 44.046875 -1.421875 33.015625 -1.421875 
Q 20.359375 -1.421875 13.671875 8.265625 
Q 6.984375 17.96875 6.984375 36.375 
Q 6.984375 53.65625 15.1875 63.9375 
Q 23.390625 74.21875 37.203125 74.21875 
Q 40.921875 74.21875 44.703125 73.484375 
Q 48.484375 72.75 52.59375 71.296875 
z
" id="DejaVuSans-54"/>
      </defs>
      <g transform="translate(34.696875 147.242526)scale(0.1 -0.1)">
       <use xlink:href="#DejaVuSans-48"/>
       <use x="63.623047" xlink:href="#DejaVuSans-46"/>
       <use x="95.410156" xlink:href="#DejaVuSans-54"/>
      </g>
     </g>
    </g>
    <g id="ytick_5">
     <g id="line2d_14">
      <g>
       <use style="stroke:#000000;stroke-width:0.8;" x="57.6" xlink:href="#m264289c16f" y="92.761743"/>
      </g>
     </g>
     <g id="text_14">
      <!-- 0.8 -->
      <defs>
       <path d="M 31.78125 34.625 
Q 24.75 34.625 20.71875 30.859375 
Q 16.703125 27.09375 16.703125 20.515625 
Q 16.703125 13.921875 20.71875 10.15625 
Q 24.75 6.390625 31.78125 6.390625 
Q 38.8125 6.390625 42.859375 10.171875 
Q 46.921875 13.96875 46.921875 20.515625 
Q 46.921875 27.09375 42.890625 30.859375 
Q 38.875 34.625 31.78125 34.625 
z
M 21.921875 38.8125 
Q 15.578125 40.375 12.03125 44.71875 
Q 8.5 49.078125 8.5 55.328125 
Q 8.5 64.0625 14.71875 69.140625 
Q 20.953125 74.21875 31.78125 74.21875 
Q 42.671875 74.21875 48.875 69.140625 
Q 55.078125 64.0625 55.078125 55.328125 
Q 55.078125 49.078125 51.53125 44.71875 
Q 48 40.375 41.703125 38.8125 
Q 48.828125 37.15625 52.796875 32.3125 
Q 56.78125 27.484375 56.78125 20.515625 
Q 56.78125 9.90625 50.3125 4.234375 
Q 43.84375 -1.421875 31.78125 -1.421875 
Q 19.734375 -1.421875 13.25 4.234375 
Q 6.78125 9.90625 6.78125 20.515625 
Q 6.78125 27.484375 10.78125 32.3125 
Q 14.796875 37.15625 21.921875 38.8125 
z
M 18.3125 54.390625 
Q 18.3125 48.734375 21.84375 45.5625 
Q 25.390625 42.390625 31.78125 42.390625 
Q 38.140625 42.390625 41.71875 45.5625 
Q 45.3125 48.734375 45.3125 54.390625 
Q 45.3125 60.0625 41.71875 63.234375 
Q 38.140625 66.40625 31.78125 66.40625 
Q 25.390625 66.40625 21.84375 63.234375 
Q 18.3125 60.0625 18.3125 54.390625 
z
" id="DejaVuSans-56"/>
      </defs>
      <g transform="translate(34.696875 96.560962)scale(0.1 -0.1)">
       <use xlink:href="#DejaVuSans-48"/>
       <use x="63.623047" xlink:href="#DejaVuSans-46"/>
       <use x="95.410156" xlink:href="#DejaVuSans-56"/>
      </g>
     </g>
    </g>
    <g id="ytick_6">
     <g id="line2d_15">
      <g>
       <use style="stroke:#000000;stroke-width:0.8;" x="57.6" xlink:href="#m264289c16f" y="42.080179"/>
      </g>
     </g>
     <g id="text_15">
      <!-- 1.0 -->
      <g transform="translate(34.696875 45.879398)scale(0.1 -0.1)">
       <use xlink:href="#DejaVuSans-49"/>
       <use x="63.623047" xlink:href="#DejaVuSans-46"/>
       <use x="95.410156" xlink:href="#DejaVuSans-48"/>
      </g>
     </g>
    </g>
   </g>
   <g id="line2d_16">
    <path clip-path="url(#p0cecef87b4)" d="M 73.832727 211.018726 
L 223.924276 211.018726 
L 225.555706 173.514369 
L 227.187136 211.018726 
L 228.818566 185.00219 
L 230.449995 189.842279 
L 232.081425 162.702302 
L 233.712855 211.018726 
L 235.344285 211.018726 
L 236.975715 186.015821 
L 238.607145 211.018726 
L 240.238575 184.913698 
L 241.870005 210.342972 
L 243.501434 211.018726 
L 245.132864 197.503642 
L 246.764294 194.124872 
L 248.395724 197.84152 
L 250.027154 211.018726 
L 251.658584 193.403043 
L 253.290014 198.355374 
L 254.921444 196.827888 
L 256.552873 181.285542 
L 258.184303 194.316847 
L 259.815733 193.618056 
L 261.447163 211.018726 
L 263.078593 194.29381 
L 264.710023 187.738994 
L 266.341453 177.231017 
L 267.972883 181.919061 
L 269.604312 181.57776 
L 272.867172 193.499799 
L 274.498602 177.231017 
L 276.130032 211.018726 
L 277.761462 211.018726 
L 279.392892 198.128715 
L 281.024322 209.667218 
L 282.655751 211.018726 
L 285.918611 211.018726 
L 287.550041 194.124872 
L 289.181471 211.018726 
L 290.812901 211.018726 
L 292.444331 203.842511 
L 294.075761 198.010458 
L 295.70719 211.018726 
L 297.33862 201.558168 
L 298.97005 202.889564 
L 300.60148 211.018726 
L 302.23291 210.342972 
L 303.86434 211.018726 
L 305.49577 196.996827 
L 307.1272 204.261184 
L 308.75863 205.95313 
L 310.390059 210.342972 
L 312.021489 194.124872 
L 313.652919 203.348916 
L 315.284349 127.176939 
L 316.915779 152.903866 
L 318.547209 126.549453 
L 320.178639 201.613457 
L 321.810069 211.018726 
L 323.441498 196.152134 
L 325.072928 184.326436 
L 326.704358 209.225674 
L 328.335788 201.558168 
L 329.967218 211.018726 
L 331.598648 192.773363 
L 333.230078 211.018726 
L 334.861508 211.018726 
L 336.492937 205.948491 
L 338.124367 211.018726 
L 339.755797 135.165318 
L 341.387227 210.342972 
L 343.018657 210.342972 
L 344.650087 195.138503 
L 346.281517 177.231017 
L 347.912947 175.203754 
L 349.544376 208.714754 
L 351.175806 211.018726 
L 354.438666 211.018726 
L 356.070096 209.498279 
L 357.701526 193.449117 
L 359.332956 210.342972 
L 360.964386 211.018726 
L 362.595815 150.707665 
L 364.227245 199.193028 
L 365.858675 129.252469 
L 367.490105 129.421408 
L 369.121535 166.587888 
L 370.752965 211.018726 
L 372.384395 208.116055 
L 374.015825 199.868782 
L 375.647254 211.018726 
L 377.278684 195.814257 
L 378.910114 169.966659 
L 380.541544 203.424939 
L 382.172974 211.018726 
L 383.804404 211.018726 
L 385.435834 166.756827 
L 387.067264 205.755235 
L 388.698693 194.462749 
L 390.330123 200.830997 
L 391.961553 211.018726 
L 393.592983 194.462749 
L 395.224413 210.005095 
L 396.855843 194.124872 
L 398.487273 211.018726 
L 398.487273 211.018726 
" style="fill:none;stroke:#1f77b4;stroke-linecap:square;stroke-width:0.25;"/>
   </g>
   <g id="line2d_17">
    <path clip-path="url(#p0cecef87b4)" d="M 73.832727 211.018726 
L 202.715688 211.018726 
L 204.347117 211.221453 
L 205.978547 211.620147 
L 207.609977 213.617001 
L 209.241407 215.24219 
L 210.872837 211.069408 
L 212.504267 211.704617 
L 214.135697 212.063442 
L 215.767127 211.955458 
L 217.398556 213.604984 
L 219.029986 210.746948 
L 220.661416 210.525257 
L 222.292846 209.136715 
L 223.924276 199.384101 
L 225.555706 182.359443 
L 227.187136 200.818371 
L 228.818566 182.520946 
L 230.449995 187.577354 
L 232.081425 177.129482 
L 233.712855 207.499327 
L 235.344285 210.796687 
L 236.975715 193.552198 
L 238.607145 205.779199 
L 240.238575 192.77396 
L 241.870005 203.381872 
L 243.501434 208.447488 
L 245.132864 196.798587 
L 246.764294 194.438563 
L 248.395724 193.973253 
L 250.027154 199.760271 
L 251.658584 181.935923 
L 253.290014 182.656807 
L 254.921444 187.428692 
L 256.552873 181.604609 
L 258.184303 181.961847 
L 259.815733 179.891294 
L 261.447163 193.605509 
L 263.078593 189.340641 
L 264.710023 178.86928 
L 266.341453 174.620586 
L 267.972883 175.927405 
L 269.604312 170.05018 
L 271.235742 182.444352 
L 272.867172 180.156736 
L 274.498602 181.149507 
L 276.130032 187.071383 
L 277.761462 189.988001 
L 279.392892 186.867627 
L 281.024322 188.681993 
L 282.655751 176.443528 
L 284.287181 179.48543 
L 285.918611 186.607459 
L 287.550041 180.525005 
L 289.181471 190.755427 
L 290.812901 193.955026 
L 292.444331 178.088055 
L 294.075761 179.127718 
L 295.70719 183.575951 
L 297.33862 183.892272 
L 298.97005 187.698449 
L 300.60148 184.233797 
L 302.23291 183.640726 
L 303.86434 185.506002 
L 305.49577 182.581426 
L 307.1272 188.904128 
L 308.75863 172.108141 
L 310.390059 188.888967 
L 312.021489 179.167015 
L 313.652919 184.787567 
L 315.284349 164.400488 
L 316.915779 161.687901 
L 318.547209 162.958248 
L 320.178639 172.140124 
L 321.810069 189.161305 
L 323.441498 178.801771 
L 325.072928 169.466753 
L 326.704358 174.535831 
L 328.335788 180.384612 
L 329.967218 178.092187 
L 331.598648 169.681157 
L 333.230078 179.854744 
L 334.861508 188.231592 
L 336.492937 168.86971 
L 338.124367 179.360972 
L 339.755797 153.521238 
L 341.387227 172.749637 
L 343.018657 188.804328 
L 344.650087 182.367993 
L 346.281517 166.96324 
L 347.912947 162.361744 
L 349.544376 166.546381 
L 351.175806 173.340003 
L 352.807236 176.081523 
L 354.438666 171.303884 
L 356.070096 168.084189 
L 357.701526 164.050689 
L 359.332956 171.944132 
L 360.964386 171.32543 
L 362.595815 158.41693 
L 364.227245 182.360821 
L 365.858675 154.6427 
L 367.490105 154.404206 
L 369.121535 161.297939 
L 370.752965 169.617348 
L 372.384395 158.664864 
L 374.015825 167.889642 
L 375.647254 164.210675 
L 377.278684 154.301796 
L 378.910114 153.039864 
L 380.541544 158.995702 
L 382.172974 160.781153 
L 383.804404 170.877667 
L 385.435834 151.072498 
L 387.067264 158.241903 
L 388.698693 154.817556 
L 390.330123 164.706207 
L 391.961553 169.974639 
L 393.592983 156.022972 
L 395.224413 159.302158 
L 396.855843 152.169406 
L 398.487273 154.897131 
L 398.487273 154.897131 
" style="fill:none;stroke:#2ca02c;stroke-linecap:square;stroke-width:0.75;"/>
   </g>
   <g id="patch_3">
    <path d="M 57.6 307.584 
L 57.6 41.472 
" style="fill:none;stroke:#000000;stroke-linecap:square;stroke-linejoin:miter;stroke-width:0.8;"/>
   </g>
   <g id="patch_4">
    <path d="M 414.72 307.584 
L 414.72 41.472 
" style="fill:none;stroke:#000000;stroke-linecap:square;stroke-linejoin:miter;stroke-width:0.8;"/>
   </g>
   <g id="patch_5">
    <path d="M 57.6 307.584 
L 414.72 307.584 
" style="fill:none;stroke:#000000;stroke-linecap:square;stroke-linejoin:miter;stroke-width:0.8;"/>
   </g>
   <g id="patch_6">
    <path d="M 57.6 41.472 
L 414.72 41.472 
" style="fill:none;stroke:#000000;stroke-linecap:square;stroke-linejoin:miter;stroke-width:0.8;"/>
   </g>
   <g id="legend_1">
    <g id="patch_7">
     <path d="M 338.234063 78.82825 
L 407.72 78.82825 
Q 409.72 78.82825 409.72 76.82825 
L 409.72 48.472 
Q 409.72 46.472 407.72 46.472 
L 338.234063 46.472 
Q 336.234063 46.472 336.234063 48.472 
L 336.234063 76.82825 
Q 336.234063 78.82825 338.234063 78.82825 
z
" style="fill:#ffffff;opacity:0.8;stroke:#cccccc;stroke-linejoin:miter;"/>
    </g>
    <g id="line2d_18">
     <path d="M 340.234063 54.570437 
L 360.234063 54.570437 
" style="fill:none;stroke:#1f77b4;stroke-linecap:square;stroke-width:0.25;"/>
    </g>
    <g id="line2d_19"/>
    <g id="text_16">
     <!-- median -->
     <defs>
      <path d="M 52 44.1875 
Q 55.375 50.25 60.0625 53.125 
Q 64.75 56 71.09375 56 
Q 79.640625 56 84.28125 50.015625 
Q 88.921875 44.046875 88.921875 33.015625 
L 88.921875 0 
L 79.890625 0 
L 79.890625 32.71875 
Q 79.890625 40.578125 77.09375 44.375 
Q 74.3125 48.1875 68.609375 48.1875 
Q 61.625 48.1875 57.5625 43.546875 
Q 53.515625 38.921875 53.515625 30.90625 
L 53.515625 0 
L 44.484375 0 
L 44.484375 32.71875 
Q 44.484375 40.625 41.703125 44.40625 
Q 38.921875 48.1875 33.109375 48.1875 
Q 26.21875 48.1875 22.15625 43.53125 
Q 18.109375 38.875 18.109375 30.90625 
L 18.109375 0 
L 9.078125 0 
L 9.078125 54.6875 
L 18.109375 54.6875 
L 18.109375 46.1875 
Q 21.1875 51.21875 25.484375 53.609375 
Q 29.78125 56 35.6875 56 
Q 41.65625 56 45.828125 52.96875 
Q 50 49.953125 52 44.1875 
z
" id="DejaVuSans-109"/>
      <path d="M 56.203125 29.59375 
L 56.203125 25.203125 
L 14.890625 25.203125 
Q 15.484375 15.921875 20.484375 11.0625 
Q 25.484375 6.203125 34.421875 6.203125 
Q 39.59375 6.203125 44.453125 7.46875 
Q 49.3125 8.734375 54.109375 11.28125 
L 54.109375 2.78125 
Q 49.265625 0.734375 44.1875 -0.34375 
Q 39.109375 -1.421875 33.890625 -1.421875 
Q 20.796875 -1.421875 13.15625 6.1875 
Q 5.515625 13.8125 5.515625 26.8125 
Q 5.515625 40.234375 12.765625 48.109375 
Q 20.015625 56 32.328125 56 
Q 43.359375 56 49.78125 48.890625 
Q 56.203125 41.796875 56.203125 29.59375 
z
M 47.21875 32.234375 
Q 47.125 39.59375 43.09375 43.984375 
Q 39.0625 48.390625 32.421875 48.390625 
Q 24.90625 48.390625 20.390625 44.140625 
Q 15.875 39.890625 15.1875 32.171875 
z
" id="DejaVuSans-101"/>
      <path d="M 45.40625 46.390625 
L 45.40625 75.984375 
L 54.390625 75.984375 
L 54.390625 0 
L 45.40625 0 
L 45.40625 8.203125 
Q 42.578125 3.328125 38.25 0.953125 
Q 33.9375 -1.421875 27.875 -1.421875 
Q 17.96875 -1.421875 11.734375 6.484375 
Q 5.515625 14.40625 5.515625 27.296875 
Q 5.515625 40.1875 11.734375 48.09375 
Q 17.96875 56 27.875 56 
Q 33.9375 56 38.25 53.625 
Q 42.578125 51.265625 45.40625 46.390625 
z
M 14.796875 27.296875 
Q 14.796875 17.390625 18.875 11.75 
Q 22.953125 6.109375 30.078125 6.109375 
Q 37.203125 6.109375 41.296875 11.75 
Q 45.40625 17.390625 45.40625 27.296875 
Q 45.40625 37.203125 41.296875 42.84375 
Q 37.203125 48.484375 30.078125 48.484375 
Q 22.953125 48.484375 18.875 42.84375 
Q 14.796875 37.203125 14.796875 27.296875 
z
" id="DejaVuSans-100"/>
      <path d="M 9.421875 54.6875 
L 18.40625 54.6875 
L 18.40625 0 
L 9.421875 0 
z
M 9.421875 75.984375 
L 18.40625 75.984375 
L 18.40625 64.59375 
L 9.421875 64.59375 
z
" id="DejaVuSans-105"/>
      <path d="M 34.28125 27.484375 
Q 23.390625 27.484375 19.1875 25 
Q 14.984375 22.515625 14.984375 16.5 
Q 14.984375 11.71875 18.140625 8.90625 
Q 21.296875 6.109375 26.703125 6.109375 
Q 34.1875 6.109375 38.703125 11.40625 
Q 43.21875 16.703125 43.21875 25.484375 
L 43.21875 27.484375 
z
M 52.203125 31.203125 
L 52.203125 0 
L 43.21875 0 
L 43.21875 8.296875 
Q 40.140625 3.328125 35.546875 0.953125 
Q 30.953125 -1.421875 24.3125 -1.421875 
Q 15.921875 -1.421875 10.953125 3.296875 
Q 6 8.015625 6 15.921875 
Q 6 25.140625 12.171875 29.828125 
Q 18.359375 34.515625 30.609375 34.515625 
L 43.21875 34.515625 
L 43.21875 35.40625 
Q 43.21875 41.609375 39.140625 45 
Q 35.0625 48.390625 27.6875 48.390625 
Q 23 48.390625 18.546875 47.265625 
Q 14.109375 46.140625 10.015625 43.890625 
L 10.015625 52.203125 
Q 14.9375 54.109375 19.578125 55.046875 
Q 24.21875 56 28.609375 56 
Q 40.484375 56 46.34375 49.84375 
Q 52.203125 43.703125 52.203125 31.203125 
z
" id="DejaVuSans-97"/>
      <path d="M 54.890625 33.015625 
L 54.890625 0 
L 45.90625 0 
L 45.90625 32.71875 
Q 45.90625 40.484375 42.875 44.328125 
Q 39.84375 48.1875 33.796875 48.1875 
Q 26.515625 48.1875 22.3125 43.546875 
Q 18.109375 38.921875 18.109375 30.90625 
L 18.109375 0 
L 9.078125 0 
L 9.078125 54.6875 
L 18.109375 54.6875 
L 18.109375 46.1875 
Q 21.34375 51.125 25.703125 53.5625 
Q 30.078125 56 35.796875 56 
Q 45.21875 56 50.046875 50.171875 
Q 54.890625 44.34375 54.890625 33.015625 
z
" id="DejaVuSans-110"/>
     </defs>
     <g transform="translate(368.234063 58.070437)scale(0.1 -0.1)">
      <use xlink:href="#DejaVuSans-109"/>
      <use x="97.412109" xlink:href="#DejaVuSans-101"/>
      <use x="158.935547" xlink:href="#DejaVuSans-100"/>
      <use x="222.412109" xlink:href="#DejaVuSans-105"/>
      <use x="250.195312" xlink:href="#DejaVuSans-97"/>
      <use x="311.474609" xlink:href="#DejaVuSans-110"/>
     </g>
    </g>
    <g id="line2d_20">
     <path d="M 340.234063 69.248562 
L 360.234063 69.248562 
" style="fill:none;stroke:#2ca02c;stroke-linecap:square;stroke-width:0.75;"/>
    </g>
    <g id="line2d_21"/>
    <g id="text_17">
     <!-- mean -->
     <g transform="translate(368.234063 72.748562)scale(0.1 -0.1)">
      <use xlink:href="#DejaVuSans-109"/>
      <use x="97.412109" xlink:href="#DejaVuSans-101"/>
      <use x="158.935547" xlink:href="#DejaVuSans-97"/>
      <use x="220.214844" xlink:href="#DejaVuSans-110"/>
     </g>
    </g>
   </g>
  </g>
  <g id="text_18">
   <!-- accuracy.mean over generations -->
   <defs>
    <path d="M 48.78125 52.59375 
L 48.78125 44.1875 
Q 44.96875 46.296875 41.140625 47.34375 
Q 37.3125 48.390625 33.40625 48.390625 
Q 24.65625 48.390625 19.8125 42.84375 
Q 14.984375 37.3125 14.984375 27.296875 
Q 14.984375 17.28125 19.8125 11.734375 
Q 24.65625 6.203125 33.40625 6.203125 
Q 37.3125 6.203125 41.140625 7.25 
Q 44.96875 8.296875 48.78125 10.40625 
L 48.78125 2.09375 
Q 45.015625 0.34375 40.984375 -0.53125 
Q 36.96875 -1.421875 32.421875 -1.421875 
Q 20.0625 -1.421875 12.78125 6.34375 
Q 5.515625 14.109375 5.515625 27.296875 
Q 5.515625 40.671875 12.859375 48.328125 
Q 20.21875 56 33.015625 56 
Q 37.15625 56 41.109375 55.140625 
Q 45.0625 54.296875 48.78125 52.59375 
z
" id="DejaVuSans-99"/>
    <path d="M 8.5 21.578125 
L 8.5 54.6875 
L 17.484375 54.6875 
L 17.484375 21.921875 
Q 17.484375 14.15625 20.5 10.265625 
Q 23.53125 6.390625 29.59375 6.390625 
Q 36.859375 6.390625 41.078125 11.03125 
Q 45.3125 15.671875 45.3125 23.6875 
L 45.3125 54.6875 
L 54.296875 54.6875 
L 54.296875 0 
L 45.3125 0 
L 45.3125 8.40625 
Q 42.046875 3.421875 37.71875 1 
Q 33.40625 -1.421875 27.6875 -1.421875 
Q 18.265625 -1.421875 13.375 4.4375 
Q 8.5 10.296875 8.5 21.578125 
z
M 31.109375 56 
z
" id="DejaVuSans-117"/>
    <path d="M 41.109375 46.296875 
Q 39.59375 47.171875 37.8125 47.578125 
Q 36.03125 48 33.890625 48 
Q 26.265625 48 22.1875 43.046875 
Q 18.109375 38.09375 18.109375 28.8125 
L 18.109375 0 
L 9.078125 0 
L 9.078125 54.6875 
L 18.109375 54.6875 
L 18.109375 46.1875 
Q 20.953125 51.171875 25.484375 53.578125 
Q 30.03125 56 36.53125 56 
Q 37.453125 56 38.578125 55.875 
Q 39.703125 55.765625 41.0625 55.515625 
z
" id="DejaVuSans-114"/>
    <path d="M 32.171875 -5.078125 
Q 28.375 -14.84375 24.75 -17.8125 
Q 21.140625 -20.796875 15.09375 -20.796875 
L 7.90625 -20.796875 
L 7.90625 -13.28125 
L 13.1875 -13.28125 
Q 16.890625 -13.28125 18.9375 -11.515625 
Q 21 -9.765625 23.484375 -3.21875 
L 25.09375 0.875 
L 2.984375 54.6875 
L 12.5 54.6875 
L 29.59375 11.921875 
L 46.6875 54.6875 
L 56.203125 54.6875 
z
" id="DejaVuSans-121"/>
    <path id="DejaVuSans-32"/>
    <path d="M 30.609375 48.390625 
Q 23.390625 48.390625 19.1875 42.75 
Q 14.984375 37.109375 14.984375 27.296875 
Q 14.984375 17.484375 19.15625 11.84375 
Q 23.34375 6.203125 30.609375 6.203125 
Q 37.796875 6.203125 41.984375 11.859375 
Q 46.1875 17.53125 46.1875 27.296875 
Q 46.1875 37.015625 41.984375 42.703125 
Q 37.796875 48.390625 30.609375 48.390625 
z
M 30.609375 56 
Q 42.328125 56 49.015625 48.375 
Q 55.71875 40.765625 55.71875 27.296875 
Q 55.71875 13.875 49.015625 6.21875 
Q 42.328125 -1.421875 30.609375 -1.421875 
Q 18.84375 -1.421875 12.171875 6.21875 
Q 5.515625 13.875 5.515625 27.296875 
Q 5.515625 40.765625 12.171875 48.375 
Q 18.84375 56 30.609375 56 
z
" id="DejaVuSans-111"/>
    <path d="M 2.984375 54.6875 
L 12.5 54.6875 
L 29.59375 8.796875 
L 46.6875 54.6875 
L 56.203125 54.6875 
L 35.6875 0 
L 23.484375 0 
z
" id="DejaVuSans-118"/>
    <path d="M 45.40625 27.984375 
Q 45.40625 37.75 41.375 43.109375 
Q 37.359375 48.484375 30.078125 48.484375 
Q 22.859375 48.484375 18.828125 43.109375 
Q 14.796875 37.75 14.796875 27.984375 
Q 14.796875 18.265625 18.828125 12.890625 
Q 22.859375 7.515625 30.078125 7.515625 
Q 37.359375 7.515625 41.375 12.890625 
Q 45.40625 18.265625 45.40625 27.984375 
z
M 54.390625 6.78125 
Q 54.390625 -7.171875 48.1875 -13.984375 
Q 42 -20.796875 29.203125 -20.796875 
Q 24.46875 -20.796875 20.265625 -20.09375 
Q 16.0625 -19.390625 12.109375 -17.921875 
L 12.109375 -9.1875 
Q 16.0625 -11.328125 19.921875 -12.34375 
Q 23.78125 -13.375 27.78125 -13.375 
Q 36.625 -13.375 41.015625 -8.765625 
Q 45.40625 -4.15625 45.40625 5.171875 
L 45.40625 9.625 
Q 42.625 4.78125 38.28125 2.390625 
Q 33.9375 0 27.875 0 
Q 17.828125 0 11.671875 7.65625 
Q 5.515625 15.328125 5.515625 27.984375 
Q 5.515625 40.671875 11.671875 48.328125 
Q 17.828125 56 27.875 56 
Q 33.9375 56 38.28125 53.609375 
Q 42.625 51.21875 45.40625 46.390625 
L 45.40625 54.6875 
L 54.390625 54.6875 
z
" id="DejaVuSans-103"/>
    <path d="M 18.3125 70.21875 
L 18.3125 54.6875 
L 36.8125 54.6875 
L 36.8125 47.703125 
L 18.3125 47.703125 
L 18.3125 18.015625 
Q 18.3125 11.328125 20.140625 9.421875 
Q 21.96875 7.515625 27.59375 7.515625 
L 36.8125 7.515625 
L 36.8125 0 
L 27.59375 0 
Q 17.1875 0 13.234375 3.875 
Q 9.28125 7.765625 9.28125 18.015625 
L 9.28125 47.703125 
L 2.6875 47.703125 
L 2.6875 54.6875 
L 9.28125 54.6875 
L 9.28125 70.21875 
z
" id="DejaVuSans-116"/>
    <path d="M 44.28125 53.078125 
L 44.28125 44.578125 
Q 40.484375 46.53125 36.375 47.5 
Q 32.28125 48.484375 27.875 48.484375 
Q 21.1875 48.484375 17.84375 46.4375 
Q 14.5 44.390625 14.5 40.28125 
Q 14.5 37.15625 16.890625 35.375 
Q 19.28125 33.59375 26.515625 31.984375 
L 29.59375 31.296875 
Q 39.15625 29.25 43.1875 25.515625 
Q 47.21875 21.78125 47.21875 15.09375 
Q 47.21875 7.46875 41.1875 3.015625 
Q 35.15625 -1.421875 24.609375 -1.421875 
Q 20.21875 -1.421875 15.453125 -0.5625 
Q 10.6875 0.296875 5.421875 2 
L 5.421875 11.28125 
Q 10.40625 8.6875 15.234375 7.390625 
Q 20.0625 6.109375 24.8125 6.109375 
Q 31.15625 6.109375 34.5625 8.28125 
Q 37.984375 10.453125 37.984375 14.40625 
Q 37.984375 18.0625 35.515625 20.015625 
Q 33.0625 21.96875 24.703125 23.78125 
L 21.578125 24.515625 
Q 13.234375 26.265625 9.515625 29.90625 
Q 5.8125 33.546875 5.8125 39.890625 
Q 5.8125 47.609375 11.28125 51.796875 
Q 16.75 56 26.8125 56 
Q 31.78125 56 36.171875 55.265625 
Q 40.578125 54.546875 44.28125 53.078125 
z
" id="DejaVuSans-115"/>
   </defs>
   <g transform="translate(132.309375 16.030125)scale(0.12 -0.12)">
    <use xlink:href="#DejaVuSans-97"/>
    <use x="61.279297" xlink:href="#DejaVuSans-99"/>
    <use x="116.259766" xlink:href="#DejaVuSans-99"/>
    <use x="171.240234" xlink:href="#DejaVuSans-117"/>
    <use x="234.619141" xlink:href="#DejaVuSans-114"/>
    <use x="275.732422" xlink:href="#DejaVuSans-97"/>
    <use x="337.011719" xlink:href="#DejaVuSans-99"/>
    <use x="391.992188" xlink:href="#DejaVuSans-121"/>
    <use x="436.921875" xlink:href="#DejaVuSans-46"/>
    <use x="468.708984" xlink:href="#DejaVuSans-109"/>
    <use x="566.121094" xlink:href="#DejaVuSans-101"/>
    <use x="627.644531" xlink:href="#DejaVuSans-97"/>
    <use x="688.923828" xlink:href="#DejaVuSans-110"/>
    <use x="752.302734" xlink:href="#DejaVuSans-32"/>
    <use x="784.089844" xlink:href="#DejaVuSans-111"/>
    <use x="845.271484" xlink:href="#DejaVuSans-118"/>
    <use x="904.451172" xlink:href="#DejaVuSans-101"/>
    <use x="965.974609" xlink:href="#DejaVuSans-114"/>
    <use x="1007.087891" xlink:href="#DejaVuSans-32"/>
    <use x="1038.875" xlink:href="#DejaVuSans-103"/>
    <use x="1102.351562" xlink:href="#DejaVuSans-101"/>
    <use x="1163.875" xlink:href="#DejaVuSans-110"/>
    <use x="1227.253906" xlink:href="#DejaVuSans-101"/>
    <use x="1288.777344" xlink:href="#DejaVuSans-114"/>
    <use x="1329.890625" xlink:href="#DejaVuSans-97"/>
    <use x="1391.169922" xlink:href="#DejaVuSans-116"/>
    <use x="1430.378906" xlink:href="#DejaVuSans-105"/>
    <use x="1458.162109" xlink:href="#DejaVuSans-111"/>
    <use x="1519.34375" xlink:href="#DejaVuSans-110"/>
    <use x="1582.722656" xlink:href="#DejaVuSans-115"/>
   </g>
  </g>
 </g>
 <defs>
  <clipPath id="p0cecef87b4">
   <rect height="266.112" width="357.12" x="57.6" y="41.472"/>
  </clipPath>
 </defs>
</svg>
