<?xml version="1.0" encoding="utf-8" standalone="no"?>
<!DOCTYPE svg PUBLIC "-//W3C//DTD SVG 1.1//EN"
  "http://www.w3.org/Graphics/SVG/1.1/DTD/svg11.dtd">
<!-- Created with matplotlib (https://matplotlib.org/) -->
<svg height="345.6pt" version="1.1" viewBox="0 0 460.8 345.6" width="460.8pt" xmlns="http://www.w3.org/2000/svg" xmlns:xlink="http://www.w3.org/1999/xlink">
 <defs>
  <style type="text/css">
*{stroke-linecap:butt;stroke-linejoin:round;}
  </style>
 </defs>
 <g id="figure_1">
  <g id="patch_1">
   <path d="M 0 345.6 
L 460.8 345.6 
L 460.8 0 
L 0 0 
z
" style="fill:#ffffff;"/>
  </g>
  <g id="axes_1">
   <g id="patch_2">
    <path d="M 57.6 307.584 
L 414.72 307.584 
L 414.72 41.472 
L 57.6 41.472 
z
" style="fill:#ffffff;"/>
   </g>
   <g id="PolyCollection_1">
    <path clip-path="url(#p54d518f860)" d="M 73.832727 285.313578 
L 73.832727 286.583797 
L 75.464157 286.583797 
L 77.095587 286.583797 
L 78.727017 286.583797 
L 80.358447 286.583797 
L 81.989877 286.583797 
L 83.621307 286.583797 
L 85.252736 286.583797 
L 86.884166 286.583797 
L 88.515596 286.583797 
L 90.147026 286.583797 
L 91.778456 286.583797 
L 93.409886 286.583797 
L 95.041316 286.583797 
L 96.672746 286.583797 
L 98.304175 286.583797 
L 99.935605 286.583797 
L 101.567035 286.583797 
L 103.198465 286.583797 
L 104.829895 286.583797 
L 106.461325 286.583797 
L 108.092755 286.583797 
L 109.724185 286.583797 
L 111.355614 286.583797 
L 112.987044 286.583797 
L 114.618474 286.583797 
L 116.249904 286.583797 
L 117.881334 286.583797 
L 119.512764 286.583797 
L 121.144194 286.583797 
L 122.775624 286.583797 
L 124.407053 286.583797 
L 126.038483 286.583797 
L 127.669913 286.583797 
L 129.301343 286.583797 
L 130.932773 286.583797 
L 132.564203 286.583797 
L 134.195633 286.583797 
L 135.827063 286.583797 
L 137.458492 286.583797 
L 139.089922 286.583797 
L 140.721352 286.583797 
L 142.352782 286.583797 
L 143.984212 286.583797 
L 145.615642 286.583797 
L 147.247072 286.583797 
L 148.878502 286.583797 
L 150.509931 286.583797 
L 152.141361 286.583797 
L 153.772791 286.583797 
L 155.404221 286.583797 
L 157.035651 286.583797 
L 158.667081 286.583797 
L 160.298511 286.583797 
L 161.929941 286.583797 
L 163.56137 286.583797 
L 165.1928 286.583797 
L 166.82423 286.583797 
L 168.45566 286.583797 
L 170.08709 286.583797 
L 171.71852 286.583797 
L 173.34995 286.583797 
L 174.98138 286.583797 
L 176.61281 286.583797 
L 178.244239 286.583797 
L 179.875669 286.583797 
L 181.507099 286.583797 
L 183.138529 286.583797 
L 184.769959 286.583797 
L 186.401389 286.583797 
L 188.032819 286.583797 
L 189.664249 286.583797 
L 191.295678 286.583797 
L 192.927108 286.583797 
L 194.558538 286.583797 
L 196.189968 286.583797 
L 197.821398 286.583797 
L 199.452828 286.583797 
L 201.084258 286.583797 
L 202.715688 286.583797 
L 204.347117 286.583797 
L 205.978547 286.583797 
L 207.609977 286.424171 
L 209.241407 286.583598 
L 210.872837 286.583797 
L 212.504267 286.274501 
L 214.135697 286.385884 
L 215.767127 286.274501 
L 217.398556 286.486515 
L 219.029986 286.583797 
L 220.661416 286.583797 
L 222.292846 286.516736 
L 223.924276 286.60177 
L 225.555706 287.77055 
L 227.187136 287.518529 
L 228.818566 287.67265 
L 230.449995 288.012234 
L 232.081425 287.879711 
L 233.712855 286.604384 
L 235.344285 286.392788 
L 236.975715 286.933587 
L 238.607145 287.325224 
L 240.238575 287.554878 
L 241.870005 287.703856 
L 243.501434 287.722628 
L 245.132864 287.730107 
L 246.764294 287.808886 
L 248.395724 287.964117 
L 250.027154 286.838544 
L 251.658584 288.291626 
L 253.290014 287.910537 
L 254.921444 288.281215 
L 256.552873 287.403622 
L 258.184303 287.7639 
L 259.815733 287.663922 
L 261.447163 286.743029 
L 263.078593 287.372186 
L 264.710023 287.96274 
L 266.341453 288.122102 
L 267.972883 287.879607 
L 269.604312 290.051225 
L 271.235742 287.546196 
L 272.867172 288.075278 
L 274.498602 288.160297 
L 276.130032 281.072026 
L 277.761462 284.81818 
L 279.392892 282.31943 
L 281.024322 284.131589 
L 282.655751 287.389398 
L 284.287181 289.688963 
L 285.918611 281.814399 
L 287.550041 286.914109 
L 289.181471 285.933464 
L 290.812901 278.429153 
L 292.444331 286.805461 
L 294.075761 289.052779 
L 295.70719 285.924563 
L 297.33862 287.009866 
L 298.97005 280.524409 
L 300.60148 281.719731 
L 302.23291 286.788927 
L 303.86434 287.39963 
L 305.49577 284.120255 
L 307.1272 282.731735 
L 308.75863 290.433158 
L 310.390059 281.62539 
L 312.021489 287.258585 
L 313.652919 282.032234 
L 315.284349 292.833752 
L 316.915779 290.755595 
L 318.547209 293.397375 
L 320.178639 286.738563 
L 321.810069 278.982897 
L 323.441498 284.558491 
L 325.072928 288.214769 
L 326.704358 284.157325 
L 328.335788 290.796367 
L 329.967218 290.517077 
L 331.598648 292.171837 
L 333.230078 282.050528 
L 334.861508 282.345728 
L 336.492937 286.583797 
L 338.124367 286.62059 
L 339.755797 293.575903 
L 341.387227 285.485999 
L 343.018657 282.070539 
L 344.650087 281.306243 
L 346.281517 290.412773 
L 347.912947 291.89082 
L 349.544376 292.181326 
L 351.175806 289.046785 
L 352.807236 289.497523 
L 354.438666 289.120506 
L 356.070096 289.03858 
L 357.701526 289.81179 
L 359.332956 289.452277 
L 360.964386 289.936623 
L 362.595815 289.916715 
L 364.227245 286.583797 
L 365.858675 289.994538 
L 367.490105 288.854283 
L 369.121535 290.835007 
L 370.752965 293.398121 
L 372.384395 292.970596 
L 374.015825 290.491477 
L 375.647254 293.995558 
L 377.278684 293.190096 
L 378.910114 291.54323 
L 380.541544 293.248857 
L 382.172974 293.6269 
L 383.804404 287.856263 
L 385.435834 291.893184 
L 387.067264 293.250865 
L 388.698693 293.841684 
L 390.330123 291.549499 
L 391.961553 290.386069 
L 393.592983 293.874306 
L 395.224413 294.359019 
L 396.855843 293.794433 
L 398.487273 295.01037 
L 398.487273 240.088012 
L 398.487273 240.088012 
L 396.855843 261.351828 
L 395.224413 243.954391 
L 393.592983 261.343357 
L 391.961553 240.321133 
L 390.330123 253.676807 
L 388.698693 267.59911 
L 387.067264 251.401181 
L 385.435834 270.504905 
L 383.804404 252.874849 
L 382.172974 244.493956 
L 380.541544 265.074113 
L 378.910114 272.215991 
L 377.278684 257.273011 
L 375.647254 257.979191 
L 374.015825 251.834355 
L 372.384395 271.036779 
L 370.752965 249.361187 
L 369.121535 245.825843 
L 367.490105 270.211491 
L 365.858675 266.33753 
L 364.227245 263.560805 
L 362.595815 251.406651 
L 360.964386 230.327618 
L 359.332956 241.561515 
L 357.701526 258.572357 
L 356.070096 266.626839 
L 354.438666 264.038335 
L 352.807236 252.507399 
L 351.175806 243.861826 
L 349.544376 233.293642 
L 347.912947 238.794822 
L 346.281517 276.359874 
L 344.650087 249.31808 
L 343.018657 249.391255 
L 341.387227 236.046336 
L 339.755797 257.256848 
L 338.124367 260.073656 
L 336.492937 238.66787 
L 334.861508 250.156424 
L 333.230078 251.879663 
L 331.598648 259.107156 
L 329.967218 250.132035 
L 328.335788 260.192513 
L 326.704358 229.351245 
L 325.072928 247.378238 
L 323.441498 256.830038 
L 321.810069 209.841943 
L 320.178639 246.212219 
L 318.547209 271.418402 
L 316.915779 257.749871 
L 315.284349 266.098828 
L 313.652919 252.309093 
L 312.021489 269.903486 
L 310.390059 247.910804 
L 308.75863 254.310707 
L 307.1272 263.229549 
L 305.49577 264.410838 
L 303.86434 262.932048 
L 302.23291 261.098556 
L 300.60148 244.172207 
L 298.97005 243.556933 
L 297.33862 251.531519 
L 295.70719 231.893587 
L 294.075761 262.047756 
L 292.444331 248.042667 
L 290.812901 233.809782 
L 289.181471 266.085099 
L 287.550041 256.546168 
L 285.918611 218.705939 
L 284.287181 258.357242 
L 282.655751 244.16146 
L 281.024322 244.387165 
L 279.392892 252.885441 
L 277.761462 251.033373 
L 276.130032 233.772946 
L 274.498602 279.769894 
L 272.867172 277.844804 
L 271.235742 276.592709 
L 269.604312 272.577563 
L 267.972883 266.25859 
L 266.341453 276.50708 
L 264.710023 266.930631 
L 263.078593 269.855035 
L 261.447163 260.45374 
L 259.815733 251.314442 
L 258.184303 259.746843 
L 256.552873 277.099668 
L 254.921444 277.975812 
L 253.290014 257.307171 
L 251.658584 277.127387 
L 250.027154 252.17087 
L 248.395724 282.918066 
L 246.764294 279.148361 
L 245.132864 284.685526 
L 243.501434 278.093521 
L 241.870005 271.132355 
L 240.238575 280.917432 
L 238.607145 276.45632 
L 236.975715 262.695267 
L 235.344285 245.619231 
L 233.712855 255.901991 
L 232.081425 286.50941 
L 230.449995 278.248482 
L 228.818566 286.338056 
L 227.187136 284.890521 
L 225.555706 286.65415 
L 223.924276 286.053551 
L 222.292846 286.207623 
L 220.661416 285.861416 
L 219.029986 285.313578 
L 217.398556 285.444036 
L 215.767127 285.66438 
L 214.135697 285.67119 
L 212.504267 285.582556 
L 210.872837 285.448019 
L 209.241407 285.314017 
L 207.609977 285.524637 
L 205.978547 285.526839 
L 204.347117 285.424584 
L 202.715688 285.313578 
L 201.084258 285.313578 
L 199.452828 286.274501 
L 197.821398 285.313578 
L 196.189968 285.313578 
L 194.558538 286.03427 
L 192.927108 285.313578 
L 191.295678 285.313578 
L 189.664249 285.313578 
L 188.032819 285.313578 
L 186.401389 285.313578 
L 184.769959 285.313578 
L 183.138529 285.313578 
L 181.507099 285.313578 
L 179.875669 285.313578 
L 178.244239 285.313578 
L 176.61281 285.313578 
L 174.98138 285.313578 
L 173.34995 285.313578 
L 171.71852 286.274501 
L 170.08709 285.313578 
L 168.45566 285.313578 
L 166.82423 286.274501 
L 165.1928 285.313578 
L 163.56137 285.313578 
L 161.929941 285.313578 
L 160.298511 285.313578 
L 158.667081 285.313578 
L 157.035651 285.313578 
L 155.404221 285.313578 
L 153.772791 285.313578 
L 152.141361 285.313578 
L 150.509931 285.313578 
L 148.878502 285.313578 
L 147.247072 285.313578 
L 145.615642 285.313578 
L 143.984212 285.313578 
L 142.352782 285.313578 
L 140.721352 285.313578 
L 139.089922 285.313578 
L 137.458492 285.313578 
L 135.827063 285.313578 
L 134.195633 285.313578 
L 132.564203 285.313578 
L 130.932773 285.313578 
L 129.301343 285.313578 
L 127.669913 285.313578 
L 126.038483 285.313578 
L 124.407053 285.313578 
L 122.775624 285.313578 
L 121.144194 285.313578 
L 119.512764 285.313578 
L 117.881334 285.313578 
L 116.249904 285.313578 
L 114.618474 285.313578 
L 112.987044 285.313578 
L 111.355614 285.313578 
L 109.724185 285.313578 
L 108.092755 285.313578 
L 106.461325 285.313578 
L 104.829895 285.313578 
L 103.198465 285.313578 
L 101.567035 285.313578 
L 99.935605 285.313578 
L 98.304175 285.313578 
L 96.672746 285.313578 
L 95.041316 285.313578 
L 93.409886 285.313578 
L 91.778456 285.313578 
L 90.147026 285.313578 
L 88.515596 285.313578 
L 86.884166 285.313578 
L 85.252736 285.313578 
L 83.621307 285.313578 
L 81.989877 285.313578 
L 80.358447 285.313578 
L 78.727017 285.313578 
L 77.095587 285.313578 
L 75.464157 285.313578 
L 73.832727 285.313578 
z
" style="fill:#1f77b4;fill-opacity:0.2;"/>
   </g>
   <g id="PolyCollection_2">
    <path clip-path="url(#p54d518f860)" d="M 73.832727 285.313578 
L 73.832727 286.583797 
L 75.464157 286.583797 
L 77.095587 286.583797 
L 78.727017 286.583797 
L 80.358447 286.583797 
L 81.989877 286.583797 
L 83.621307 286.583797 
L 85.252736 286.583797 
L 86.884166 286.583797 
L 88.515596 286.583797 
L 90.147026 286.583797 
L 91.778456 286.583797 
L 93.409886 286.583797 
L 95.041316 286.583797 
L 96.672746 286.583797 
L 98.304175 286.583797 
L 99.935605 286.583797 
L 101.567035 286.583797 
L 103.198465 286.583797 
L 104.829895 286.583797 
L 106.461325 286.583797 
L 108.092755 286.583797 
L 109.724185 286.583797 
L 111.355614 286.583797 
L 112.987044 286.583797 
L 114.618474 286.583797 
L 116.249904 286.583797 
L 117.881334 286.583797 
L 119.512764 286.583797 
L 121.144194 286.583797 
L 122.775624 286.583797 
L 124.407053 286.583797 
L 126.038483 286.583797 
L 127.669913 286.583797 
L 129.301343 286.583797 
L 130.932773 286.583797 
L 132.564203 286.583797 
L 134.195633 286.583797 
L 135.827063 286.583797 
L 137.458492 286.583797 
L 139.089922 286.583797 
L 140.721352 286.583797 
L 142.352782 286.583797 
L 143.984212 286.583797 
L 145.615642 286.583797 
L 147.247072 286.583797 
L 148.878502 286.583797 
L 150.509931 286.583797 
L 152.141361 286.583797 
L 153.772791 286.583797 
L 155.404221 286.583797 
L 157.035651 286.583797 
L 158.667081 286.583797 
L 160.298511 286.583797 
L 161.929941 286.583797 
L 163.56137 286.583797 
L 165.1928 286.583797 
L 166.82423 286.583797 
L 168.45566 286.583797 
L 170.08709 286.583797 
L 171.71852 286.583797 
L 173.34995 286.583797 
L 174.98138 286.583797 
L 176.61281 286.583797 
L 178.244239 286.583797 
L 179.875669 286.583797 
L 181.507099 286.583797 
L 183.138529 286.583797 
L 184.769959 286.583797 
L 186.401389 286.583797 
L 188.032819 286.583797 
L 189.664249 286.583797 
L 191.295678 286.583797 
L 192.927108 286.583797 
L 194.558538 286.583797 
L 196.189968 286.583797 
L 197.821398 286.583797 
L 199.452828 286.583797 
L 201.084258 286.583797 
L 202.715688 286.583797 
L 204.347117 286.583797 
L 205.978547 286.583797 
L 207.609977 286.583797 
L 209.241407 286.583797 
L 210.872837 286.583797 
L 212.504267 286.583797 
L 214.135697 286.583797 
L 215.767127 286.583797 
L 217.398556 286.583797 
L 219.029986 286.583797 
L 220.661416 286.583797 
L 222.292846 287.766419 
L 223.924276 287.872614 
L 225.555706 288.011713 
L 227.187136 288.037326 
L 228.818566 288.044915 
L 230.449995 288.349362 
L 232.081425 288.059671 
L 233.712855 288.047241 
L 235.344285 288.023951 
L 236.975715 288.021176 
L 238.607145 288.218347 
L 240.238575 288.09943 
L 241.870005 288.104714 
L 243.501434 288.192703 
L 245.132864 288.131354 
L 246.764294 288.200681 
L 248.395724 288.320934 
L 250.027154 289.297674 
L 251.658584 289.520711 
L 253.290014 289.885316 
L 254.921444 290.077598 
L 256.552873 289.501779 
L 258.184303 289.481561 
L 259.815733 290.302831 
L 261.447163 290.663079 
L 263.078593 290.60567 
L 264.710023 290.875118 
L 266.341453 290.654708 
L 267.972883 290.883002 
L 269.604312 290.846874 
L 271.235742 290.787265 
L 272.867172 290.757035 
L 274.498602 290.688826 
L 276.130032 292.274509 
L 277.761462 290.709839 
L 279.392892 290.672947 
L 281.024322 291.272016 
L 282.655751 291.114727 
L 284.287181 291.046348 
L 285.918611 292.11114 
L 287.550041 290.602941 
L 289.181471 290.553807 
L 290.812901 292.09981 
L 292.444331 291.54123 
L 294.075761 290.780097 
L 295.70719 291.893522 
L 297.33862 291.106782 
L 298.97005 291.92425 
L 300.60148 292.434355 
L 302.23291 292.486729 
L 303.86434 292.508151 
L 305.49577 292.474392 
L 307.1272 292.695786 
L 308.75863 293.184682 
L 310.390059 292.748699 
L 312.021489 292.837516 
L 313.652919 293.128643 
L 315.284349 293.644841 
L 316.915779 292.792574 
L 318.547209 293.531251 
L 320.178639 293.313286 
L 321.810069 292.961827 
L 323.441498 293.001701 
L 325.072928 293.233282 
L 326.704358 293.119028 
L 328.335788 292.943854 
L 329.967218 293.490672 
L 331.598648 292.980678 
L 333.230078 293.258182 
L 334.861508 293.481847 
L 336.492937 294.576735 
L 338.124367 293.313728 
L 339.755797 294.565787 
L 341.387227 293.858988 
L 343.018657 293.841394 
L 344.650087 293.839751 
L 346.281517 293.764753 
L 347.912947 294.418626 
L 349.544376 294.685949 
L 351.175806 294.728791 
L 352.807236 294.544976 
L 354.438666 294.028492 
L 356.070096 294.322413 
L 357.701526 293.770548 
L 359.332956 294.636238 
L 360.964386 295.088178 
L 362.595815 294.368641 
L 364.227245 294.079111 
L 365.858675 294.046336 
L 367.490105 294.453112 
L 369.121535 294.447322 
L 370.752965 295.183275 
L 372.384395 294.418099 
L 374.015825 294.667464 
L 375.647254 294.833323 
L 377.278684 294.47652 
L 378.910114 294.357126 
L 380.541544 294.325844 
L 382.172974 295.332378 
L 383.804404 294.907009 
L 385.435834 294.439547 
L 387.067264 294.434019 
L 388.698693 294.416043 
L 390.330123 294.386228 
L 391.961553 295.488 
L 393.592983 294.295125 
L 395.224413 294.886529 
L 396.855843 294.396227 
L 398.487273 295.400502 
L 398.487273 126.4438 
L 398.487273 126.4438 
L 396.855843 218.820783 
L 395.224413 178.984176 
L 393.592983 210.292035 
L 391.961553 150.67032 
L 390.330123 206.092753 
L 388.698693 216.328352 
L 387.067264 183.352287 
L 385.435834 213.124285 
L 383.804404 211.080304 
L 382.172974 157.435448 
L 380.541544 217.460594 
L 378.910114 247.874724 
L 377.278684 216.19943 
L 375.647254 134.300285 
L 374.015825 106.275969 
L 372.384395 227.744058 
L 370.752965 184.192451 
L 369.121535 161.679572 
L 367.490105 213.940009 
L 365.858675 230.699927 
L 364.227245 228.539817 
L 362.595815 199.821211 
L 360.964386 73.55308 
L 359.332956 140.355929 
L 357.701526 214.897935 
L 356.070096 205.730643 
L 354.438666 224.203866 
L 352.807236 194.881382 
L 351.175806 177.272085 
L 349.544376 154.958262 
L 347.912947 125.29567 
L 346.281517 227.971959 
L 344.650087 193.088733 
L 343.018657 183.889626 
L 341.387227 132.842947 
L 339.755797 93.647641 
L 338.124367 221.174165 
L 336.492937 152.055932 
L 334.861508 158.05726 
L 333.230078 157.505633 
L 331.598648 220.221613 
L 329.967218 107.689633 
L 328.335788 230.410228 
L 326.704358 53.735456 
L 325.072928 193.379789 
L 323.441498 194.121987 
L 321.810069 53.568 
L 320.178639 166.862612 
L 318.547209 184.093003 
L 316.915779 193.983305 
L 315.284349 206.613701 
L 313.652919 174.183605 
L 312.021489 219.325505 
L 310.390059 190.994721 
L 308.75863 187.218574 
L 307.1272 231.370418 
L 305.49577 227.385101 
L 303.86434 215.738754 
L 302.23291 214.045467 
L 300.60148 134.747973 
L 298.97005 174.868874 
L 297.33862 208.457993 
L 295.70719 111.875069 
L 294.075761 211.210124 
L 292.444331 177.980483 
L 290.812901 145.670843 
L 289.181471 222.937302 
L 287.550041 180.079429 
L 285.918611 83.058171 
L 284.287181 207.36499 
L 282.655751 158.130332 
L 281.024322 180.553145 
L 279.392892 209.746888 
L 277.761462 202.354539 
L 276.130032 168.447722 
L 274.498602 235.395155 
L 272.867172 214.462128 
L 271.235742 194.384997 
L 269.604312 191.912423 
L 267.972883 145.682505 
L 266.341453 207.819301 
L 264.710023 200.287617 
L 263.078593 180.428863 
L 261.447163 173.69968 
L 259.815733 164.900637 
L 258.184303 180.046392 
L 256.552873 226.464233 
L 254.921444 87.833797 
L 253.290014 97.217037 
L 251.658584 225.240743 
L 250.027154 186.366389 
L 248.395724 256.647418 
L 246.764294 213.293964 
L 245.132864 214.698404 
L 243.501434 177.759018 
L 241.870005 177.853955 
L 240.238575 234.019024 
L 238.607145 182.53812 
L 236.975715 207.150959 
L 235.344285 163.290445 
L 233.712855 201.978807 
L 232.081425 214.023269 
L 230.449995 196.771295 
L 228.818566 211.814528 
L 227.187136 238.066241 
L 225.555706 255.392353 
L 223.924276 267.567908 
L 222.292846 255.457752 
L 220.661416 256.250895 
L 219.029986 262.494537 
L 217.398556 211.829327 
L 215.767127 261.266661 
L 214.135697 283.753323 
L 212.504267 283.509176 
L 210.872837 237.674362 
L 209.241407 209.391379 
L 207.609977 239.377629 
L 205.978547 258.049381 
L 204.347117 257.744427 
L 202.715688 243.548128 
L 201.084258 187.459845 
L 199.452828 206.611397 
L 197.821398 285.313578 
L 196.189968 285.313578 
L 194.558538 285.313578 
L 192.927108 285.313578 
L 191.295678 285.313578 
L 189.664249 285.313578 
L 188.032819 285.313578 
L 186.401389 285.313578 
L 184.769959 285.313578 
L 183.138529 285.313578 
L 181.507099 285.313578 
L 179.875669 285.313578 
L 178.244239 285.313578 
L 176.61281 285.313578 
L 174.98138 285.313578 
L 173.34995 285.313578 
L 171.71852 285.313578 
L 170.08709 285.313578 
L 168.45566 285.313578 
L 166.82423 285.313578 
L 165.1928 285.313578 
L 163.56137 285.313578 
L 161.929941 285.313578 
L 160.298511 285.313578 
L 158.667081 285.313578 
L 157.035651 285.313578 
L 155.404221 285.313578 
L 153.772791 285.313578 
L 152.141361 285.313578 
L 150.509931 285.313578 
L 148.878502 285.313578 
L 147.247072 285.313578 
L 145.615642 285.313578 
L 143.984212 285.313578 
L 142.352782 285.313578 
L 140.721352 285.313578 
L 139.089922 285.313578 
L 137.458492 285.313578 
L 135.827063 285.313578 
L 134.195633 285.313578 
L 132.564203 285.313578 
L 130.932773 285.313578 
L 129.301343 285.313578 
L 127.669913 285.313578 
L 126.038483 285.313578 
L 124.407053 285.313578 
L 122.775624 285.313578 
L 121.144194 285.313578 
L 119.512764 285.313578 
L 117.881334 285.313578 
L 116.249904 285.313578 
L 114.618474 285.313578 
L 112.987044 285.313578 
L 111.355614 285.313578 
L 109.724185 285.313578 
L 108.092755 285.313578 
L 106.461325 285.313578 
L 104.829895 285.313578 
L 103.198465 285.313578 
L 101.567035 285.313578 
L 99.935605 285.313578 
L 98.304175 285.313578 
L 96.672746 285.313578 
L 95.041316 285.313578 
L 93.409886 285.313578 
L 91.778456 285.313578 
L 90.147026 285.313578 
L 88.515596 285.313578 
L 86.884166 285.313578 
L 85.252736 285.313578 
L 83.621307 285.313578 
L 81.989877 285.313578 
L 80.358447 285.313578 
L 78.727017 285.313578 
L 77.095587 285.313578 
L 75.464157 285.313578 
L 73.832727 285.313578 
z
" style="fill:#1f77b4;fill-opacity:0.1;"/>
   </g>
   <g id="matplotlib.axis_1">
    <g id="xtick_1">
     <g id="line2d_1">
      <defs>
       <path d="M 0 0 
L 0 3.5 
" id="m1769df4720" style="stroke:#000000;stroke-width:0.8;"/>
      </defs>
      <g>
       <use style="stroke:#000000;stroke-width:0.8;" x="73.832727" xlink:href="#m1769df4720" y="307.584"/>
      </g>
     </g>
     <g id="text_1">
      <!-- 0 -->
      <defs>
       <path d="M 31.78125 66.40625 
Q 24.171875 66.40625 20.328125 58.90625 
Q 16.5 51.421875 16.5 36.375 
Q 16.5 21.390625 20.328125 13.890625 
Q 24.171875 6.390625 31.78125 6.390625 
Q 39.453125 6.390625 43.28125 13.890625 
Q 47.125 21.390625 47.125 36.375 
Q 47.125 51.421875 43.28125 58.90625 
Q 39.453125 66.40625 31.78125 66.40625 
z
M 31.78125 74.21875 
Q 44.046875 74.21875 50.515625 64.515625 
Q 56.984375 54.828125 56.984375 36.375 
Q 56.984375 17.96875 50.515625 8.265625 
Q 44.046875 -1.421875 31.78125 -1.421875 
Q 19.53125 -1.421875 13.0625 8.265625 
Q 6.59375 17.96875 6.59375 36.375 
Q 6.59375 54.828125 13.0625 64.515625 
Q 19.53125 74.21875 31.78125 74.21875 
z
" id="DejaVuSans-48"/>
      </defs>
      <g transform="translate(70.651477 322.182437)scale(0.1 -0.1)">
       <use xlink:href="#DejaVuSans-48"/>
      </g>
     </g>
    </g>
    <g id="xtick_2">
     <g id="line2d_2">
      <g>
       <use style="stroke:#000000;stroke-width:0.8;" x="114.618474" xlink:href="#m1769df4720" y="307.584"/>
      </g>
     </g>
     <g id="text_2">
      <!-- 25 -->
      <defs>
       <path d="M 19.1875 8.296875 
L 53.609375 8.296875 
L 53.609375 0 
L 7.328125 0 
L 7.328125 8.296875 
Q 12.9375 14.109375 22.625 23.890625 
Q 32.328125 33.6875 34.8125 36.53125 
Q 39.546875 41.84375 41.421875 45.53125 
Q 43.3125 49.21875 43.3125 52.78125 
Q 43.3125 58.59375 39.234375 62.25 
Q 35.15625 65.921875 28.609375 65.921875 
Q 23.96875 65.921875 18.8125 64.3125 
Q 13.671875 62.703125 7.8125 59.421875 
L 7.8125 69.390625 
Q 13.765625 71.78125 18.9375 73 
Q 24.125 74.21875 28.421875 74.21875 
Q 39.75 74.21875 46.484375 68.546875 
Q 53.21875 62.890625 53.21875 53.421875 
Q 53.21875 48.921875 51.53125 44.890625 
Q 49.859375 40.875 45.40625 35.40625 
Q 44.1875 33.984375 37.640625 27.21875 
Q 31.109375 20.453125 19.1875 8.296875 
z
" id="DejaVuSans-50"/>
       <path d="M 10.796875 72.90625 
L 49.515625 72.90625 
L 49.515625 64.59375 
L 19.828125 64.59375 
L 19.828125 46.734375 
Q 21.96875 47.46875 24.109375 47.828125 
Q 26.265625 48.1875 28.421875 48.1875 
Q 40.625 48.1875 47.75 41.5 
Q 54.890625 34.8125 54.890625 23.390625 
Q 54.890625 11.625 47.5625 5.09375 
Q 40.234375 -1.421875 26.90625 -1.421875 
Q 22.3125 -1.421875 17.546875 -0.640625 
Q 12.796875 0.140625 7.71875 1.703125 
L 7.71875 11.625 
Q 12.109375 9.234375 16.796875 8.0625 
Q 21.484375 6.890625 26.703125 6.890625 
Q 35.15625 6.890625 40.078125 11.328125 
Q 45.015625 15.765625 45.015625 23.390625 
Q 45.015625 31 40.078125 35.4375 
Q 35.15625 39.890625 26.703125 39.890625 
Q 22.75 39.890625 18.8125 39.015625 
Q 14.890625 38.140625 10.796875 36.28125 
z
" id="DejaVuSans-53"/>
      </defs>
      <g transform="translate(108.255974 322.182437)scale(0.1 -0.1)">
       <use xlink:href="#DejaVuSans-50"/>
       <use x="63.623047" xlink:href="#DejaVuSans-53"/>
      </g>
     </g>
    </g>
    <g id="xtick_3">
     <g id="line2d_3">
      <g>
       <use style="stroke:#000000;stroke-width:0.8;" x="155.404221" xlink:href="#m1769df4720" y="307.584"/>
      </g>
     </g>
     <g id="text_3">
      <!-- 50 -->
      <g transform="translate(149.041721 322.182437)scale(0.1 -0.1)">
       <use xlink:href="#DejaVuSans-53"/>
       <use x="63.623047" xlink:href="#DejaVuSans-48"/>
      </g>
     </g>
    </g>
    <g id="xtick_4">
     <g id="line2d_4">
      <g>
       <use style="stroke:#000000;stroke-width:0.8;" x="196.189968" xlink:href="#m1769df4720" y="307.584"/>
      </g>
     </g>
     <g id="text_4">
      <!-- 75 -->
      <defs>
       <path d="M 8.203125 72.90625 
L 55.078125 72.90625 
L 55.078125 68.703125 
L 28.609375 0 
L 18.3125 0 
L 43.21875 64.59375 
L 8.203125 64.59375 
z
" id="DejaVuSans-55"/>
      </defs>
      <g transform="translate(189.827468 322.182437)scale(0.1 -0.1)">
       <use xlink:href="#DejaVuSans-55"/>
       <use x="63.623047" xlink:href="#DejaVuSans-53"/>
      </g>
     </g>
    </g>
    <g id="xtick_5">
     <g id="line2d_5">
      <g>
       <use style="stroke:#000000;stroke-width:0.8;" x="236.975715" xlink:href="#m1769df4720" y="307.584"/>
      </g>
     </g>
     <g id="text_5">
      <!-- 100 -->
      <defs>
       <path d="M 12.40625 8.296875 
L 28.515625 8.296875 
L 28.515625 63.921875 
L 10.984375 60.40625 
L 10.984375 69.390625 
L 28.421875 72.90625 
L 38.28125 72.90625 
L 38.28125 8.296875 
L 54.390625 8.296875 
L 54.390625 0 
L 12.40625 0 
z
" id="DejaVuSans-49"/>
      </defs>
      <g transform="translate(227.431965 322.182437)scale(0.1 -0.1)">
       <use xlink:href="#DejaVuSans-49"/>
       <use x="63.623047" xlink:href="#DejaVuSans-48"/>
       <use x="127.246094" xlink:href="#DejaVuSans-48"/>
      </g>
     </g>
    </g>
    <g id="xtick_6">
     <g id="line2d_6">
      <g>
       <use style="stroke:#000000;stroke-width:0.8;" x="277.761462" xlink:href="#m1769df4720" y="307.584"/>
      </g>
     </g>
     <g id="text_6">
      <!-- 125 -->
      <g transform="translate(268.217712 322.182437)scale(0.1 -0.1)">
       <use xlink:href="#DejaVuSans-49"/>
       <use x="63.623047" xlink:href="#DejaVuSans-50"/>
       <use x="127.246094" xlink:href="#DejaVuSans-53"/>
      </g>
     </g>
    </g>
    <g id="xtick_7">
     <g id="line2d_7">
      <g>
       <use style="stroke:#000000;stroke-width:0.8;" x="318.547209" xlink:href="#m1769df4720" y="307.584"/>
      </g>
     </g>
     <g id="text_7">
      <!-- 150 -->
      <g transform="translate(309.003459 322.182437)scale(0.1 -0.1)">
       <use xlink:href="#DejaVuSans-49"/>
       <use x="63.623047" xlink:href="#DejaVuSans-53"/>
       <use x="127.246094" xlink:href="#DejaVuSans-48"/>
      </g>
     </g>
    </g>
    <g id="xtick_8">
     <g id="line2d_8">
      <g>
       <use style="stroke:#000000;stroke-width:0.8;" x="359.332956" xlink:href="#m1769df4720" y="307.584"/>
      </g>
     </g>
     <g id="text_8">
      <!-- 175 -->
      <g transform="translate(349.789206 322.182437)scale(0.1 -0.1)">
       <use xlink:href="#DejaVuSans-49"/>
       <use x="63.623047" xlink:href="#DejaVuSans-55"/>
       <use x="127.246094" xlink:href="#DejaVuSans-53"/>
      </g>
     </g>
    </g>
    <g id="xtick_9">
     <g id="line2d_9">
      <g>
       <use style="stroke:#000000;stroke-width:0.8;" x="400.118703" xlink:href="#m1769df4720" y="307.584"/>
      </g>
     </g>
     <g id="text_9">
      <!-- 200 -->
      <g transform="translate(390.574953 322.182437)scale(0.1 -0.1)">
       <use xlink:href="#DejaVuSans-50"/>
       <use x="63.623047" xlink:href="#DejaVuSans-48"/>
       <use x="127.246094" xlink:href="#DejaVuSans-48"/>
      </g>
     </g>
    </g>
   </g>
   <g id="matplotlib.axis_2">
    <g id="ytick_1">
     <g id="line2d_10">
      <defs>
       <path d="M 0 0 
L -3.5 0 
" id="md4732e7f8c" style="stroke:#000000;stroke-width:0.8;"/>
      </defs>
      <g>
       <use style="stroke:#000000;stroke-width:0.8;" x="57.6" xlink:href="#md4732e7f8c" y="298.261523"/>
      </g>
     </g>
     <g id="text_10">
      <!-- 0 -->
      <g transform="translate(44.2375 302.060742)scale(0.1 -0.1)">
       <use xlink:href="#DejaVuSans-48"/>
      </g>
     </g>
    </g>
    <g id="ytick_2">
     <g id="line2d_11">
      <g>
       <use style="stroke:#000000;stroke-width:0.8;" x="57.6" xlink:href="#md4732e7f8c" y="245.1139"/>
      </g>
     </g>
     <g id="text_11">
      <!-- 5 -->
      <g transform="translate(44.2375 248.913119)scale(0.1 -0.1)">
       <use xlink:href="#DejaVuSans-53"/>
      </g>
     </g>
    </g>
    <g id="ytick_3">
     <g id="line2d_12">
      <g>
       <use style="stroke:#000000;stroke-width:0.8;" x="57.6" xlink:href="#md4732e7f8c" y="191.966278"/>
      </g>
     </g>
     <g id="text_12">
      <!-- 10 -->
      <g transform="translate(37.875 195.765496)scale(0.1 -0.1)">
       <use xlink:href="#DejaVuSans-49"/>
       <use x="63.623047" xlink:href="#DejaVuSans-48"/>
      </g>
     </g>
    </g>
    <g id="ytick_4">
     <g id="line2d_13">
      <g>
       <use style="stroke:#000000;stroke-width:0.8;" x="57.6" xlink:href="#md4732e7f8c" y="138.818655"/>
      </g>
     </g>
     <g id="text_13">
      <!-- 15 -->
      <g transform="translate(37.875 142.617874)scale(0.1 -0.1)">
       <use xlink:href="#DejaVuSans-49"/>
       <use x="63.623047" xlink:href="#DejaVuSans-53"/>
      </g>
     </g>
    </g>
    <g id="ytick_5">
     <g id="line2d_14">
      <g>
       <use style="stroke:#000000;stroke-width:0.8;" x="57.6" xlink:href="#md4732e7f8c" y="85.671032"/>
      </g>
     </g>
     <g id="text_14">
      <!-- 20 -->
      <g transform="translate(37.875 89.470251)scale(0.1 -0.1)">
       <use xlink:href="#DejaVuSans-50"/>
       <use x="63.623047" xlink:href="#DejaVuSans-48"/>
      </g>
     </g>
    </g>
   </g>
   <g id="line2d_15">
    <path clip-path="url(#p54d518f860)" d="M 73.832727 286.274501 
L 75.464157 286.583797 
L 78.727017 286.583797 
L 80.358447 286.274501 
L 81.989877 286.583797 
L 90.147026 286.583797 
L 91.778456 286.274501 
L 93.409886 286.583797 
L 99.935605 286.583797 
L 101.567035 286.274501 
L 103.198465 286.583797 
L 109.724185 286.583797 
L 111.355614 286.274501 
L 112.987044 286.583797 
L 119.512764 286.583797 
L 121.144194 286.429149 
L 122.775624 286.583797 
L 130.932773 286.583797 
L 132.564203 286.274501 
L 134.195633 286.274501 
L 135.827063 286.583797 
L 137.458492 286.583797 
L 139.089922 286.274501 
L 140.721352 286.583797 
L 142.352782 286.583797 
L 143.984212 286.274501 
L 147.247072 286.583797 
L 148.878502 286.274501 
L 150.509931 286.274501 
L 152.141361 286.583797 
L 161.929941 286.583797 
L 163.56137 286.429149 
L 165.1928 286.583797 
L 173.34995 286.583797 
L 174.98138 286.274501 
L 178.244239 286.274501 
L 179.875669 286.583797 
L 181.507099 286.274501 
L 183.138529 286.583797 
L 188.032819 286.583797 
L 189.664249 286.274501 
L 191.295678 286.583797 
L 192.927108 286.274501 
L 194.558538 286.583797 
L 199.452828 286.583797 
L 201.084258 286.274501 
L 202.715688 286.583797 
L 204.347117 286.352732 
L 205.978547 286.501508 
L 207.609977 285.605717 
L 210.872837 285.608512 
L 214.135697 285.813872 
L 217.398556 285.835 
L 219.029986 286.43063 
L 223.924276 286.44047 
L 225.555706 287.70877 
L 227.187136 287.056938 
L 228.818566 287.353432 
L 232.081425 287.420947 
L 233.712855 279.190666 
L 235.344285 282.954973 
L 236.975715 283.239047 
L 238.607145 285.837415 
L 240.238575 286.681803 
L 241.870005 283.956157 
L 243.501434 286.386974 
L 245.132864 286.769114 
L 246.764294 287.034433 
L 248.395724 287.03961 
L 250.027154 276.924421 
L 251.658584 287.11376 
L 253.290014 283.158965 
L 254.921444 287.448935 
L 256.552873 286.45961 
L 258.184303 286.912351 
L 259.815733 285.717967 
L 261.447163 273.935514 
L 263.078593 283.711378 
L 264.710023 281.471431 
L 266.341453 283.442135 
L 267.972883 278.038672 
L 269.604312 280.857806 
L 271.235742 280.819849 
L 272.867172 283.321392 
L 274.498602 285.047272 
L 276.130032 270.248209 
L 277.761462 275.106082 
L 279.392892 275.980162 
L 281.024322 276.608772 
L 282.655751 278.080646 
L 284.287181 280.362081 
L 285.918611 264.531322 
L 287.550041 277.836694 
L 289.181471 280.223773 
L 290.812901 266.708177 
L 292.444331 276.663844 
L 294.075761 281.709231 
L 295.70719 270.807812 
L 297.33862 273.70594 
L 298.97005 272.926167 
L 300.60148 270.509122 
L 302.23291 280.762511 
L 303.86434 280.911332 
L 305.49577 279.237485 
L 308.75863 279.380924 
L 310.390059 272.259847 
L 312.021489 281.936273 
L 313.652919 275.255809 
L 315.284349 282.362416 
L 316.915779 279.963958 
L 318.547209 286.793758 
L 320.178639 274.166091 
L 321.810069 260.517247 
L 323.441498 275.059215 
L 325.072928 272.222241 
L 326.704358 270.319338 
L 328.335788 279.504278 
L 329.967218 276.258349 
L 331.598648 281.468958 
L 333.230078 269.874215 
L 334.861508 273.534722 
L 336.492937 272.171628 
L 338.124367 278.758196 
L 339.755797 282.244835 
L 341.387227 274.048002 
L 343.018657 267.509136 
L 344.650087 274.018633 
L 346.281517 283.096036 
L 347.912947 275.271688 
L 349.544376 269.561821 
L 351.175806 273.394056 
L 352.807236 276.041205 
L 354.438666 282.291961 
L 356.070096 281.437524 
L 357.701526 281.445979 
L 359.332956 271.694493 
L 360.964386 266.106163 
L 362.595815 279.681217 
L 364.227245 277.541103 
L 365.858675 281.634735 
L 367.490105 281.302955 
L 369.121535 273.59525 
L 372.384395 282.198066 
L 374.015825 274.033538 
L 375.647254 278.509785 
L 377.278684 281.256552 
L 378.910114 283.542816 
L 380.541544 280.360905 
L 382.172974 276.311753 
L 383.804404 278.120398 
L 385.435834 281.620748 
L 387.067264 277.70911 
L 388.698693 282.417651 
L 390.330123 275.588105 
L 391.961553 270.682017 
L 393.592983 279.672706 
L 395.224413 276.894608 
L 396.855843 280.230611 
L 398.487273 278.418662 
L 398.487273 278.418662 
" style="fill:none;stroke:#1f77b4;stroke-linecap:square;stroke-width:0.25;"/>
   </g>
   <g id="line2d_16">
    <path clip-path="url(#p54d518f860)" d="M 73.832727 286.071506 
L 78.727017 286.168378 
L 80.358447 286.026222 
L 81.989877 286.031747 
L 83.621307 286.177988 
L 88.515596 286.11757 
L 91.778456 286.125077 
L 132.564203 286.099673 
L 139.089922 286.020036 
L 142.352782 286.188588 
L 145.615642 286.102435 
L 163.56137 286.121654 
L 166.82423 286.270326 
L 168.45566 286.057482 
L 171.71852 286.220178 
L 174.98138 286.134686 
L 178.244239 286.051626 
L 179.875669 286.156337 
L 181.507099 286.028985 
L 183.138529 286.121323 
L 184.769959 286.070184 
L 186.401389 286.194443 
L 192.927108 286.099342 
L 194.558538 286.226034 
L 197.821398 286.152914 
L 199.452828 285.44793 
L 201.084258 283.764384 
L 202.715688 285.477382 
L 204.347117 285.343025 
L 205.978547 285.65476 
L 207.609977 284.672965 
L 209.241407 283.474541 
L 210.872837 285.32201 
L 212.504267 285.833096 
L 214.135697 285.921217 
L 215.767127 285.716487 
L 217.398556 284.875977 
L 219.029986 285.449227 
L 220.661416 285.71453 
L 223.924276 285.476125 
L 225.555706 284.821055 
L 227.187136 280.052886 
L 228.818566 284.031381 
L 230.449995 277.634593 
L 232.081425 285.390702 
L 233.712855 266.515598 
L 235.344285 266.479508 
L 236.975715 273.718181 
L 238.607145 273.464811 
L 240.238575 280.969091 
L 241.870005 272.462462 
L 243.501434 277.92679 
L 245.132864 280.400012 
L 246.764294 279.007474 
L 248.395724 284.126714 
L 250.027154 268.707507 
L 251.658584 279.924477 
L 253.290014 266.899504 
L 254.921444 275.394076 
L 256.552873 280.295649 
L 258.184303 273.23303 
L 259.815733 269.538307 
L 261.447163 269.133039 
L 263.078593 275.930833 
L 264.710023 275.082457 
L 266.341453 278.403064 
L 267.972883 269.840227 
L 269.604312 275.274561 
L 271.235742 277.349855 
L 272.867172 278.849204 
L 274.498602 280.832498 
L 276.130032 255.939465 
L 277.761462 267.487957 
L 279.392892 266.870957 
L 281.024322 263.340096 
L 282.655751 263.218153 
L 284.287181 272.425517 
L 285.918611 245.816551 
L 287.550041 269.480383 
L 289.181471 273.846071 
L 290.812901 252.477674 
L 292.444331 266.50862 
L 294.075761 273.944019 
L 295.70719 255.278142 
L 297.33862 267.496511 
L 298.97005 261.419132 
L 300.60148 261.173045 
L 302.23291 272.587031 
L 303.86434 274.412352 
L 305.49577 273.082259 
L 307.1272 273.879529 
L 308.75863 269.431991 
L 310.390059 263.25579 
L 312.021489 276.353646 
L 313.652919 265.374714 
L 315.284349 276.928522 
L 316.915779 273.625488 
L 318.547209 276.972636 
L 320.178639 266.168043 
L 321.810069 243.929374 
L 323.441498 267.373491 
L 325.072928 264.236149 
L 326.704358 252.635074 
L 328.335788 273.83615 
L 329.967218 266.60129 
L 331.598648 274.698744 
L 333.230078 263.168755 
L 334.861508 263.455858 
L 336.492937 258.954383 
L 338.124367 272.104412 
L 339.755797 272.814978 
L 341.387227 257.672876 
L 343.018657 263.72672 
L 344.650087 264.111244 
L 346.281517 281.680753 
L 347.912947 258.837502 
L 349.544376 258.786403 
L 351.175806 263.229788 
L 352.807236 268.527032 
L 354.438666 275.718505 
L 356.070096 275.325459 
L 357.701526 272.268143 
L 359.332956 260.943887 
L 360.964386 256.250188 
L 362.595815 271.012842 
L 364.227245 273.111267 
L 365.858675 277.460568 
L 367.490105 275.682784 
L 369.121535 264.499648 
L 370.752965 267.830613 
L 372.384395 279.633697 
L 374.015825 268.308117 
L 375.647254 270.753205 
L 377.278684 274.630058 
L 378.910114 280.960866 
L 380.541544 276.226272 
L 382.172974 264.629731 
L 383.804404 270.109343 
L 385.435834 280.254143 
L 387.067264 268.955012 
L 388.698693 279.098171 
L 390.330123 267.827846 
L 391.961553 262.433571 
L 393.592983 273.52873 
L 395.224413 264.786441 
L 396.855843 275.008897 
L 398.487273 263.028512 
L 398.487273 263.028512 
" style="fill:none;stroke:#2ca02c;stroke-linecap:square;stroke-width:0.75;"/>
   </g>
   <g id="patch_3">
    <path d="M 57.6 307.584 
L 57.6 41.472 
" style="fill:none;stroke:#000000;stroke-linecap:square;stroke-linejoin:miter;stroke-width:0.8;"/>
   </g>
   <g id="patch_4">
    <path d="M 414.72 307.584 
L 414.72 41.472 
" style="fill:none;stroke:#000000;stroke-linecap:square;stroke-linejoin:miter;stroke-width:0.8;"/>
   </g>
   <g id="patch_5">
    <path d="M 57.6 307.584 
L 414.72 307.584 
" style="fill:none;stroke:#000000;stroke-linecap:square;stroke-linejoin:miter;stroke-width:0.8;"/>
   </g>
   <g id="patch_6">
    <path d="M 57.6 41.472 
L 414.72 41.472 
" style="fill:none;stroke:#000000;stroke-linecap:square;stroke-linejoin:miter;stroke-width:0.8;"/>
   </g>
   <g id="legend_1">
    <g id="patch_7">
     <path d="M 338.234063 78.82825 
L 407.72 78.82825 
Q 409.72 78.82825 409.72 76.82825 
L 409.72 48.472 
Q 409.72 46.472 407.72 46.472 
L 338.234063 46.472 
Q 336.234063 46.472 336.234063 48.472 
L 336.234063 76.82825 
Q 336.234063 78.82825 338.234063 78.82825 
z
" style="fill:#ffffff;opacity:0.8;stroke:#cccccc;stroke-linejoin:miter;"/>
    </g>
    <g id="line2d_17">
     <path d="M 340.234063 54.570437 
L 360.234063 54.570437 
" style="fill:none;stroke:#1f77b4;stroke-linecap:square;stroke-width:0.25;"/>
    </g>
    <g id="line2d_18"/>
    <g id="text_15">
     <!-- median -->
     <defs>
      <path d="M 52 44.1875 
Q 55.375 50.25 60.0625 53.125 
Q 64.75 56 71.09375 56 
Q 79.640625 56 84.28125 50.015625 
Q 88.921875 44.046875 88.921875 33.015625 
L 88.921875 0 
L 79.890625 0 
L 79.890625 32.71875 
Q 79.890625 40.578125 77.09375 44.375 
Q 74.3125 48.1875 68.609375 48.1875 
Q 61.625 48.1875 57.5625 43.546875 
Q 53.515625 38.921875 53.515625 30.90625 
L 53.515625 0 
L 44.484375 0 
L 44.484375 32.71875 
Q 44.484375 40.625 41.703125 44.40625 
Q 38.921875 48.1875 33.109375 48.1875 
Q 26.21875 48.1875 22.15625 43.53125 
Q 18.109375 38.875 18.109375 30.90625 
L 18.109375 0 
L 9.078125 0 
L 9.078125 54.6875 
L 18.109375 54.6875 
L 18.109375 46.1875 
Q 21.1875 51.21875 25.484375 53.609375 
Q 29.78125 56 35.6875 56 
Q 41.65625 56 45.828125 52.96875 
Q 50 49.953125 52 44.1875 
z
" id="DejaVuSans-109"/>
      <path d="M 56.203125 29.59375 
L 56.203125 25.203125 
L 14.890625 25.203125 
Q 15.484375 15.921875 20.484375 11.0625 
Q 25.484375 6.203125 34.421875 6.203125 
Q 39.59375 6.203125 44.453125 7.46875 
Q 49.3125 8.734375 54.109375 11.28125 
L 54.109375 2.78125 
Q 49.265625 0.734375 44.1875 -0.34375 
Q 39.109375 -1.421875 33.890625 -1.421875 
Q 20.796875 -1.421875 13.15625 6.1875 
Q 5.515625 13.8125 5.515625 26.8125 
Q 5.515625 40.234375 12.765625 48.109375 
Q 20.015625 56 32.328125 56 
Q 43.359375 56 49.78125 48.890625 
Q 56.203125 41.796875 56.203125 29.59375 
z
M 47.21875 32.234375 
Q 47.125 39.59375 43.09375 43.984375 
Q 39.0625 48.390625 32.421875 48.390625 
Q 24.90625 48.390625 20.390625 44.140625 
Q 15.875 39.890625 15.1875 32.171875 
z
" id="DejaVuSans-101"/>
      <path d="M 45.40625 46.390625 
L 45.40625 75.984375 
L 54.390625 75.984375 
L 54.390625 0 
L 45.40625 0 
L 45.40625 8.203125 
Q 42.578125 3.328125 38.25 0.953125 
Q 33.9375 -1.421875 27.875 -1.421875 
Q 17.96875 -1.421875 11.734375 6.484375 
Q 5.515625 14.40625 5.515625 27.296875 
Q 5.515625 40.1875 11.734375 48.09375 
Q 17.96875 56 27.875 56 
Q 33.9375 56 38.25 53.625 
Q 42.578125 51.265625 45.40625 46.390625 
z
M 14.796875 27.296875 
Q 14.796875 17.390625 18.875 11.75 
Q 22.953125 6.109375 30.078125 6.109375 
Q 37.203125 6.109375 41.296875 11.75 
Q 45.40625 17.390625 45.40625 27.296875 
Q 45.40625 37.203125 41.296875 42.84375 
Q 37.203125 48.484375 30.078125 48.484375 
Q 22.953125 48.484375 18.875 42.84375 
Q 14.796875 37.203125 14.796875 27.296875 
z
" id="DejaVuSans-100"/>
      <path d="M 9.421875 54.6875 
L 18.40625 54.6875 
L 18.40625 0 
L 9.421875 0 
z
M 9.421875 75.984375 
L 18.40625 75.984375 
L 18.40625 64.59375 
L 9.421875 64.59375 
z
" id="DejaVuSans-105"/>
      <path d="M 34.28125 27.484375 
Q 23.390625 27.484375 19.1875 25 
Q 14.984375 22.515625 14.984375 16.5 
Q 14.984375 11.71875 18.140625 8.90625 
Q 21.296875 6.109375 26.703125 6.109375 
Q 34.1875 6.109375 38.703125 11.40625 
Q 43.21875 16.703125 43.21875 25.484375 
L 43.21875 27.484375 
z
M 52.203125 31.203125 
L 52.203125 0 
L 43.21875 0 
L 43.21875 8.296875 
Q 40.140625 3.328125 35.546875 0.953125 
Q 30.953125 -1.421875 24.3125 -1.421875 
Q 15.921875 -1.421875 10.953125 3.296875 
Q 6 8.015625 6 15.921875 
Q 6 25.140625 12.171875 29.828125 
Q 18.359375 34.515625 30.609375 34.515625 
L 43.21875 34.515625 
L 43.21875 35.40625 
Q 43.21875 41.609375 39.140625 45 
Q 35.0625 48.390625 27.6875 48.390625 
Q 23 48.390625 18.546875 47.265625 
Q 14.109375 46.140625 10.015625 43.890625 
L 10.015625 52.203125 
Q 14.9375 54.109375 19.578125 55.046875 
Q 24.21875 56 28.609375 56 
Q 40.484375 56 46.34375 49.84375 
Q 52.203125 43.703125 52.203125 31.203125 
z
" id="DejaVuSans-97"/>
      <path d="M 54.890625 33.015625 
L 54.890625 0 
L 45.90625 0 
L 45.90625 32.71875 
Q 45.90625 40.484375 42.875 44.328125 
Q 39.84375 48.1875 33.796875 48.1875 
Q 26.515625 48.1875 22.3125 43.546875 
Q 18.109375 38.921875 18.109375 30.90625 
L 18.109375 0 
L 9.078125 0 
L 9.078125 54.6875 
L 18.109375 54.6875 
L 18.109375 46.1875 
Q 21.34375 51.125 25.703125 53.5625 
Q 30.078125 56 35.796875 56 
Q 45.21875 56 50.046875 50.171875 
Q 54.890625 44.34375 54.890625 33.015625 
z
" id="DejaVuSans-110"/>
     </defs>
     <g transform="translate(368.234063 58.070437)scale(0.1 -0.1)">
      <use xlink:href="#DejaVuSans-109"/>
      <use x="97.412109" xlink:href="#DejaVuSans-101"/>
      <use x="158.935547" xlink:href="#DejaVuSans-100"/>
      <use x="222.412109" xlink:href="#DejaVuSans-105"/>
      <use x="250.195312" xlink:href="#DejaVuSans-97"/>
      <use x="311.474609" xlink:href="#DejaVuSans-110"/>
     </g>
    </g>
    <g id="line2d_19">
     <path d="M 340.234063 69.248562 
L 360.234063 69.248562 
" style="fill:none;stroke:#2ca02c;stroke-linecap:square;stroke-width:0.75;"/>
    </g>
    <g id="line2d_20"/>
    <g id="text_16">
     <!-- mean -->
     <g transform="translate(368.234063 72.748562)scale(0.1 -0.1)">
      <use xlink:href="#DejaVuSans-109"/>
      <use x="97.412109" xlink:href="#DejaVuSans-101"/>
      <use x="158.935547" xlink:href="#DejaVuSans-97"/>
      <use x="220.214844" xlink:href="#DejaVuSans-110"/>
     </g>
    </g>
   </g>
  </g>
  <g id="text_17">
   <!-- log_loss.mean over generations -->
   <defs>
    <path d="M 9.421875 75.984375 
L 18.40625 75.984375 
L 18.40625 0 
L 9.421875 0 
z
" id="DejaVuSans-108"/>
    <path d="M 30.609375 48.390625 
Q 23.390625 48.390625 19.1875 42.75 
Q 14.984375 37.109375 14.984375 27.296875 
Q 14.984375 17.484375 19.15625 11.84375 
Q 23.34375 6.203125 30.609375 6.203125 
Q 37.796875 6.203125 41.984375 11.859375 
Q 46.1875 17.53125 46.1875 27.296875 
Q 46.1875 37.015625 41.984375 42.703125 
Q 37.796875 48.390625 30.609375 48.390625 
z
M 30.609375 56 
Q 42.328125 56 49.015625 48.375 
Q 55.71875 40.765625 55.71875 27.296875 
Q 55.71875 13.875 49.015625 6.21875 
Q 42.328125 -1.421875 30.609375 -1.421875 
Q 18.84375 -1.421875 12.171875 6.21875 
Q 5.515625 13.875 5.515625 27.296875 
Q 5.515625 40.765625 12.171875 48.375 
Q 18.84375 56 30.609375 56 
z
" id="DejaVuSans-111"/>
    <path d="M 45.40625 27.984375 
Q 45.40625 37.75 41.375 43.109375 
Q 37.359375 48.484375 30.078125 48.484375 
Q 22.859375 48.484375 18.828125 43.109375 
Q 14.796875 37.75 14.796875 27.984375 
Q 14.796875 18.265625 18.828125 12.890625 
Q 22.859375 7.515625 30.078125 7.515625 
Q 37.359375 7.515625 41.375 12.890625 
Q 45.40625 18.265625 45.40625 27.984375 
z
M 54.390625 6.78125 
Q 54.390625 -7.171875 48.1875 -13.984375 
Q 42 -20.796875 29.203125 -20.796875 
Q 24.46875 -20.796875 20.265625 -20.09375 
Q 16.0625 -19.390625 12.109375 -17.921875 
L 12.109375 -9.1875 
Q 16.0625 -11.328125 19.921875 -12.34375 
Q 23.78125 -13.375 27.78125 -13.375 
Q 36.625 -13.375 41.015625 -8.765625 
Q 45.40625 -4.15625 45.40625 5.171875 
L 45.40625 9.625 
Q 42.625 4.78125 38.28125 2.390625 
Q 33.9375 0 27.875 0 
Q 17.828125 0 11.671875 7.65625 
Q 5.515625 15.328125 5.515625 27.984375 
Q 5.515625 40.671875 11.671875 48.328125 
Q 17.828125 56 27.875 56 
Q 33.9375 56 38.28125 53.609375 
Q 42.625 51.21875 45.40625 46.390625 
L 45.40625 54.6875 
L 54.390625 54.6875 
z
" id="DejaVuSans-103"/>
    <path d="M 50.984375 -16.609375 
L 50.984375 -23.578125 
L -0.984375 -23.578125 
L -0.984375 -16.609375 
z
" id="DejaVuSans-95"/>
    <path d="M 44.28125 53.078125 
L 44.28125 44.578125 
Q 40.484375 46.53125 36.375 47.5 
Q 32.28125 48.484375 27.875 48.484375 
Q 21.1875 48.484375 17.84375 46.4375 
Q 14.5 44.390625 14.5 40.28125 
Q 14.5 37.15625 16.890625 35.375 
Q 19.28125 33.59375 26.515625 31.984375 
L 29.59375 31.296875 
Q 39.15625 29.25 43.1875 25.515625 
Q 47.21875 21.78125 47.21875 15.09375 
Q 47.21875 7.46875 41.1875 3.015625 
Q 35.15625 -1.421875 24.609375 -1.421875 
Q 20.21875 -1.421875 15.453125 -0.5625 
Q 10.6875 0.296875 5.421875 2 
L 5.421875 11.28125 
Q 10.40625 8.6875 15.234375 7.390625 
Q 20.0625 6.109375 24.8125 6.109375 
Q 31.15625 6.109375 34.5625 8.28125 
Q 37.984375 10.453125 37.984375 14.40625 
Q 37.984375 18.0625 35.515625 20.015625 
Q 33.0625 21.96875 24.703125 23.78125 
L 21.578125 24.515625 
Q 13.234375 26.265625 9.515625 29.90625 
Q 5.8125 33.546875 5.8125 39.890625 
Q 5.8125 47.609375 11.28125 51.796875 
Q 16.75 56 26.8125 56 
Q 31.78125 56 36.171875 55.265625 
Q 40.578125 54.546875 44.28125 53.078125 
z
" id="DejaVuSans-115"/>
    <path d="M 10.6875 12.40625 
L 21 12.40625 
L 21 0 
L 10.6875 0 
z
" id="DejaVuSans-46"/>
    <path id="DejaVuSans-32"/>
    <path d="M 2.984375 54.6875 
L 12.5 54.6875 
L 29.59375 8.796875 
L 46.6875 54.6875 
L 56.203125 54.6875 
L 35.6875 0 
L 23.484375 0 
z
" id="DejaVuSans-118"/>
    <path d="M 41.109375 46.296875 
Q 39.59375 47.171875 37.8125 47.578125 
Q 36.03125 48 33.890625 48 
Q 26.265625 48 22.1875 43.046875 
Q 18.109375 38.09375 18.109375 28.8125 
L 18.109375 0 
L 9.078125 0 
L 9.078125 54.6875 
L 18.109375 54.6875 
L 18.109375 46.1875 
Q 20.953125 51.171875 25.484375 53.578125 
Q 30.03125 56 36.53125 56 
Q 37.453125 56 38.578125 55.875 
Q 39.703125 55.765625 41.0625 55.515625 
z
" id="DejaVuSans-114"/>
    <path d="M 18.3125 70.21875 
L 18.3125 54.6875 
L 36.8125 54.6875 
L 36.8125 47.703125 
L 18.3125 47.703125 
L 18.3125 18.015625 
Q 18.3125 11.328125 20.140625 9.421875 
Q 21.96875 7.515625 27.59375 7.515625 
L 36.8125 7.515625 
L 36.8125 0 
L 27.59375 0 
Q 17.1875 0 13.234375 3.875 
Q 9.28125 7.765625 9.28125 18.015625 
L 9.28125 47.703125 
L 2.6875 47.703125 
L 2.6875 54.6875 
L 9.28125 54.6875 
L 9.28125 70.21875 
z
" id="DejaVuSans-116"/>
   </defs>
   <g transform="translate(134.789062 16.030125)scale(0.12 -0.12)">
    <use xlink:href="#DejaVuSans-108"/>
    <use x="27.783203" xlink:href="#DejaVuSans-111"/>
    <use x="88.964844" xlink:href="#DejaVuSans-103"/>
    <use x="152.441406" xlink:href="#DejaVuSans-95"/>
    <use x="202.441406" xlink:href="#DejaVuSans-108"/>
    <use x="230.224609" xlink:href="#DejaVuSans-111"/>
    <use x="291.40625" xlink:href="#DejaVuSans-115"/>
    <use x="343.505859" xlink:href="#DejaVuSans-115"/>
    <use x="395.605469" xlink:href="#DejaVuSans-46"/>
    <use x="427.392578" xlink:href="#DejaVuSans-109"/>
    <use x="524.804688" xlink:href="#DejaVuSans-101"/>
    <use x="586.328125" xlink:href="#DejaVuSans-97"/>
    <use x="647.607422" xlink:href="#DejaVuSans-110"/>
    <use x="710.986328" xlink:href="#DejaVuSans-32"/>
    <use x="742.773438" xlink:href="#DejaVuSans-111"/>
    <use x="803.955078" xlink:href="#DejaVuSans-118"/>
    <use x="863.134766" xlink:href="#DejaVuSans-101"/>
    <use x="924.658203" xlink:href="#DejaVuSans-114"/>
    <use x="965.771484" xlink:href="#DejaVuSans-32"/>
    <use x="997.558594" xlink:href="#DejaVuSans-103"/>
    <use x="1061.035156" xlink:href="#DejaVuSans-101"/>
    <use x="1122.558594" xlink:href="#DejaVuSans-110"/>
    <use x="1185.9375" xlink:href="#DejaVuSans-101"/>
    <use x="1247.460938" xlink:href="#DejaVuSans-114"/>
    <use x="1288.574219" xlink:href="#DejaVuSans-97"/>
    <use x="1349.853516" xlink:href="#DejaVuSans-116"/>
    <use x="1389.0625" xlink:href="#DejaVuSans-105"/>
    <use x="1416.845703" xlink:href="#DejaVuSans-111"/>
    <use x="1478.027344" xlink:href="#DejaVuSans-110"/>
    <use x="1541.40625" xlink:href="#DejaVuSans-115"/>
   </g>
  </g>
 </g>
 <defs>
  <clipPath id="p54d518f860">
   <rect height="266.112" width="357.12" x="57.6" y="41.472"/>
  </clipPath>
 </defs>
</svg>
