<?xml version="1.0" encoding="utf-8" standalone="no"?>
<!DOCTYPE svg PUBLIC "-//W3C//DTD SVG 1.1//EN"
  "http://www.w3.org/Graphics/SVG/1.1/DTD/svg11.dtd">
<!-- Created with matplotlib (https://matplotlib.org/) -->
<svg height="345.6pt" version="1.1" viewBox="0 0 460.8 345.6" width="460.8pt" xmlns="http://www.w3.org/2000/svg" xmlns:xlink="http://www.w3.org/1999/xlink">
 <defs>
  <style type="text/css">
*{stroke-linecap:butt;stroke-linejoin:round;}
  </style>
 </defs>
 <g id="figure_1">
  <g id="patch_1">
   <path d="M 0 345.6 
L 460.8 345.6 
L 460.8 0 
L 0 0 
z
" style="fill:#ffffff;"/>
  </g>
  <g id="axes_1">
   <g id="patch_2">
    <path d="M 57.6 307.584 
L 414.72 307.584 
L 414.72 41.472 
L 57.6 41.472 
z
" style="fill:#ffffff;"/>
   </g>
   <g id="PolyCollection_1">
    <path clip-path="url(#p4b2791ec9a)" d="M 73.832727 226.630315 
L 73.832727 226.630315 
L 75.464157 226.630315 
L 77.095587 226.630315 
L 78.727017 226.630315 
L 80.358447 226.630315 
L 81.989877 226.630315 
L 83.621307 226.630315 
L 85.252736 226.630315 
L 86.884166 226.630315 
L 88.515596 226.630315 
L 90.147026 226.630315 
L 91.778456 226.630315 
L 93.409886 226.630315 
L 95.041316 226.630315 
L 96.672746 226.630315 
L 98.304175 226.630315 
L 99.935605 226.630315 
L 101.567035 226.630315 
L 103.198465 226.630315 
L 104.829895 226.630315 
L 106.461325 226.630315 
L 108.092755 226.630315 
L 109.724185 226.630315 
L 111.355614 226.630315 
L 112.987044 226.630315 
L 114.618474 226.630315 
L 116.249904 226.630315 
L 117.881334 226.630315 
L 119.512764 226.630315 
L 121.144194 226.630315 
L 122.775624 226.630315 
L 124.407053 226.630315 
L 126.038483 226.630315 
L 127.669913 226.630315 
L 129.301343 226.630315 
L 130.932773 226.630315 
L 132.564203 226.630315 
L 134.195633 226.630315 
L 135.827063 226.630315 
L 137.458492 226.630315 
L 139.089922 226.630315 
L 140.721352 226.630315 
L 142.352782 226.630315 
L 143.984212 226.630315 
L 145.615642 226.630315 
L 147.247072 226.630315 
L 148.878502 226.630315 
L 150.509931 226.630315 
L 152.141361 226.630315 
L 153.772791 226.630315 
L 155.404221 226.630315 
L 157.035651 226.630315 
L 158.667081 226.630315 
L 160.298511 226.630315 
L 161.929941 226.630315 
L 163.56137 226.630315 
L 165.1928 226.630315 
L 166.82423 226.630315 
L 168.45566 226.630315 
L 170.08709 226.630315 
L 171.71852 226.630315 
L 173.34995 226.630315 
L 174.98138 226.630315 
L 176.61281 226.630315 
L 178.244239 226.630315 
L 179.875669 226.630315 
L 181.507099 226.630315 
L 183.138529 226.630315 
L 184.769959 226.630315 
L 186.401389 226.630315 
L 188.032819 226.630315 
L 189.664249 226.630315 
L 191.295678 226.630315 
L 192.927108 226.630315 
L 194.558538 226.630315 
L 196.189968 226.630315 
L 197.821398 226.630315 
L 199.452828 226.630315 
L 201.084258 226.630315 
L 202.715688 226.630315 
L 204.347117 226.630315 
L 205.978547 226.630315 
L 207.609977 226.630315 
L 209.241407 226.630315 
L 210.872837 226.630315 
L 212.504267 226.630315 
L 214.135697 226.630315 
L 215.767127 226.630315 
L 217.398556 226.630315 
L 219.029986 226.630315 
L 220.661416 226.630315 
L 222.292846 226.630315 
L 223.924276 226.630315 
L 225.555706 226.630315 
L 227.187136 226.630315 
L 228.818566 226.630315 
L 230.449995 226.630315 
L 232.081425 226.630315 
L 233.712855 226.630315 
L 235.344285 226.630315 
L 236.975715 226.630315 
L 238.607145 226.630315 
L 240.238575 226.630315 
L 241.870005 226.630315 
L 243.501434 226.630315 
L 245.132864 226.630315 
L 246.764294 226.630315 
L 248.395724 226.630315 
L 250.027154 226.630315 
L 251.658584 226.630315 
L 253.290014 226.630315 
L 254.921444 226.630315 
L 256.552873 226.630315 
L 258.184303 226.630315 
L 259.815733 226.630315 
L 261.447163 226.630315 
L 263.078593 226.630315 
L 264.710023 226.630315 
L 266.341453 226.630315 
L 267.972883 226.630315 
L 269.604312 226.630315 
L 271.235742 226.630315 
L 272.867172 226.630315 
L 274.498602 226.630315 
L 276.130032 226.630315 
L 277.761462 226.630315 
L 279.392892 226.630315 
L 281.024322 226.630315 
L 282.655751 226.630315 
L 284.287181 226.630315 
L 285.918611 226.630315 
L 287.550041 226.630315 
L 289.181471 224.335059 
L 290.812901 226.630315 
L 292.444331 226.630315 
L 294.075761 226.630315 
L 295.70719 210.219233 
L 297.33862 206.432061 
L 298.97005 204.825381 
L 300.60148 226.630315 
L 302.23291 207.809214 
L 303.86434 226.630315 
L 305.49577 226.630315 
L 307.1272 226.630315 
L 308.75863 194.739116 
L 310.390059 207.809214 
L 312.021489 226.286027 
L 313.652919 226.630315 
L 315.284349 200.607848 
L 316.915779 203.677753 
L 318.547209 207.120638 
L 320.178639 222.039803 
L 321.810069 180.953431 
L 323.441498 220.203598 
L 325.072928 213.547355 
L 326.704358 226.630315 
L 328.335788 206.317298 
L 329.967218 208.727317 
L 331.598648 200.923446 
L 333.230078 203.677753 
L 334.861508 189.906216 
L 336.492937 203.677753 
L 338.124367 208.727317 
L 339.755797 198.534945 
L 341.387227 206.891112 
L 343.018657 202.3006 
L 344.650087 226.630315 
L 346.281517 191.971947 
L 347.912947 186.692858 
L 349.544376 180.725192 
L 351.175806 203.333465 
L 352.807236 226.630315 
L 354.438666 199.316767 
L 356.070096 208.727317 
L 357.701526 203.333465 
L 359.332956 203.677753 
L 360.964386 201.841548 
L 362.595815 202.002216 
L 364.227245 211.022573 
L 365.858675 187.725723 
L 367.490105 219.744546 
L 369.121535 204.251567 
L 370.752965 201.841548 
L 372.384395 195.414831 
L 374.015825 203.448228 
L 375.647254 221.1217 
L 377.278684 213.317829 
L 378.910114 205.513958 
L 380.541544 213.317829 
L 382.172974 203.218702 
L 383.804404 222.039803 
L 385.435834 201.382497 
L 387.067264 201.382497 
L 388.698693 192.201472 
L 390.330123 214.350694 
L 391.961553 226.630315 
L 393.592983 222.039803 
L 395.224413 208.727317 
L 396.855843 193.509769 
L 398.487273 199.638922 
L 398.487273 161.44504 
L 398.487273 161.44504 
L 396.855843 171.544167 
L 395.224413 160.526937 
L 393.592983 170.030651 
L 391.961553 226.630315 
L 390.330123 184.841643 
L 388.698693 161.330277 
L 387.067264 158.920258 
L 385.435834 152.963025 
L 383.804404 153.558433 
L 382.172974 141.8206 
L 380.541544 194.726254 
L 378.910114 177.214931 
L 377.278684 182.102345 
L 375.647254 170.626065 
L 374.015825 172.232744 
L 372.384395 173.380372 
L 370.752965 162.805799 
L 369.121535 138.492478 
L 367.490105 114.162763 
L 365.858675 159.705236 
L 364.227245 176.019917 
L 362.595815 139.295818 
L 360.964386 167.412706 
L 359.332956 180.26614 
L 357.701526 166.035552 
L 356.070096 166.035552 
L 354.438666 165.11745 
L 352.807236 212.055438 
L 351.175806 184.856653 
L 349.544376 133.442915 
L 347.912947 140.558209 
L 346.281517 154.10022 
L 344.650087 165.576501 
L 343.018657 143.082991 
L 341.387227 174.298474 
L 339.755797 165.691264 
L 338.124367 161.215514 
L 336.492937 163.855059 
L 334.861508 124.720941 
L 333.230078 180.701283 
L 331.598648 117.142125 
L 329.967218 154.10022 
L 328.335788 137.855545 
L 326.704358 165.346975 
L 325.072928 158.57597 
L 323.441498 178.488956 
L 321.810069 124.996372 
L 320.178639 181.06948 
L 318.547209 162.363142 
L 316.915779 164.199347 
L 315.284349 161.674565 
L 313.652919 146.181586 
L 312.021489 183.135211 
L 310.390059 181.643294 
L 308.75863 156.96929 
L 307.1272 203.677753 
L 305.49577 171.572858 
L 303.86434 178.686786 
L 302.23291 188.529063 
L 300.60148 209.760182 
L 298.97005 154.559271 
L 297.33862 164.658398 
L 295.70719 187.955249 
L 294.075761 219.744546 
L 292.444331 161.44504 
L 290.812901 192.261349 
L 289.181471 203.677753 
L 287.550041 200.565407 
L 285.918611 190.824319 
L 284.287181 201.726786 
L 282.655751 196.677222 
L 281.024322 204.136805 
L 279.392892 226.630315 
L 277.761462 226.630315 
L 276.130032 194.791833 
L 274.498602 165.920789 
L 272.867172 185.589369 
L 271.235742 187.151909 
L 269.604312 188.070011 
L 267.972883 195.150877 
L 266.341453 199.890581 
L 264.710023 226.630315 
L 263.078593 161.330277 
L 261.447163 224.679347 
L 259.815733 203.218702 
L 258.184303 226.630315 
L 256.552873 226.630315 
L 254.921444 226.171264 
L 253.290014 226.630315 
L 251.658584 226.630315 
L 250.027154 226.630315 
L 248.395724 226.630315 
L 246.764294 226.630315 
L 245.132864 226.630315 
L 243.501434 226.630315 
L 241.870005 226.630315 
L 240.238575 226.630315 
L 238.607145 226.630315 
L 236.975715 226.630315 
L 235.344285 226.630315 
L 233.712855 226.630315 
L 232.081425 226.630315 
L 230.449995 226.630315 
L 228.818566 226.630315 
L 227.187136 226.630315 
L 225.555706 226.630315 
L 223.924276 226.630315 
L 222.292846 226.630315 
L 220.661416 226.630315 
L 219.029986 226.630315 
L 217.398556 226.630315 
L 215.767127 226.630315 
L 214.135697 226.630315 
L 212.504267 226.630315 
L 210.872837 226.630315 
L 209.241407 226.630315 
L 207.609977 226.630315 
L 205.978547 226.630315 
L 204.347117 226.630315 
L 202.715688 226.630315 
L 201.084258 226.630315 
L 199.452828 226.630315 
L 197.821398 226.630315 
L 196.189968 226.630315 
L 194.558538 226.630315 
L 192.927108 226.630315 
L 191.295678 226.630315 
L 189.664249 226.630315 
L 188.032819 226.630315 
L 186.401389 226.630315 
L 184.769959 226.630315 
L 183.138529 226.630315 
L 181.507099 226.630315 
L 179.875669 226.630315 
L 178.244239 226.630315 
L 176.61281 226.630315 
L 174.98138 226.630315 
L 173.34995 226.630315 
L 171.71852 226.630315 
L 170.08709 226.630315 
L 168.45566 226.630315 
L 166.82423 226.630315 
L 165.1928 226.630315 
L 163.56137 226.630315 
L 161.929941 226.630315 
L 160.298511 226.630315 
L 158.667081 226.630315 
L 157.035651 226.630315 
L 155.404221 226.630315 
L 153.772791 226.630315 
L 152.141361 226.630315 
L 150.509931 226.630315 
L 148.878502 226.630315 
L 147.247072 226.630315 
L 145.615642 226.630315 
L 143.984212 226.630315 
L 142.352782 226.630315 
L 140.721352 226.630315 
L 139.089922 226.630315 
L 137.458492 226.630315 
L 135.827063 226.630315 
L 134.195633 226.630315 
L 132.564203 226.630315 
L 130.932773 226.630315 
L 129.301343 226.630315 
L 127.669913 226.630315 
L 126.038483 226.630315 
L 124.407053 226.630315 
L 122.775624 226.630315 
L 121.144194 226.630315 
L 119.512764 226.630315 
L 117.881334 226.630315 
L 116.249904 226.630315 
L 114.618474 226.630315 
L 112.987044 226.630315 
L 111.355614 226.630315 
L 109.724185 226.630315 
L 108.092755 226.630315 
L 106.461325 226.630315 
L 104.829895 226.630315 
L 103.198465 226.630315 
L 101.567035 226.630315 
L 99.935605 226.630315 
L 98.304175 226.630315 
L 96.672746 226.630315 
L 95.041316 226.630315 
L 93.409886 226.630315 
L 91.778456 226.630315 
L 90.147026 226.630315 
L 88.515596 226.630315 
L 86.884166 226.630315 
L 85.252736 226.630315 
L 83.621307 226.630315 
L 81.989877 226.630315 
L 80.358447 226.630315 
L 78.727017 226.630315 
L 77.095587 226.630315 
L 75.464157 226.630315 
L 73.832727 226.630315 
z
" style="fill:#1f77b4;fill-opacity:0.2;"/>
   </g>
   <g id="PolyCollection_2">
    <path clip-path="url(#p4b2791ec9a)" d="M 73.832727 226.630315 
L 73.832727 226.630315 
L 75.464157 226.630315 
L 77.095587 226.630315 
L 78.727017 226.630315 
L 80.358447 226.630315 
L 81.989877 226.630315 
L 83.621307 226.630315 
L 85.252736 226.630315 
L 86.884166 226.630315 
L 88.515596 226.630315 
L 90.147026 226.630315 
L 91.778456 226.630315 
L 93.409886 226.630315 
L 95.041316 226.630315 
L 96.672746 226.630315 
L 98.304175 226.630315 
L 99.935605 226.630315 
L 101.567035 226.630315 
L 103.198465 226.630315 
L 104.829895 226.630315 
L 106.461325 226.630315 
L 108.092755 226.630315 
L 109.724185 226.630315 
L 111.355614 226.630315 
L 112.987044 226.630315 
L 114.618474 226.630315 
L 116.249904 226.630315 
L 117.881334 226.630315 
L 119.512764 226.630315 
L 121.144194 226.630315 
L 122.775624 226.630315 
L 124.407053 226.630315 
L 126.038483 226.630315 
L 127.669913 226.630315 
L 129.301343 226.630315 
L 130.932773 226.630315 
L 132.564203 226.630315 
L 134.195633 226.630315 
L 135.827063 226.630315 
L 137.458492 226.630315 
L 139.089922 226.630315 
L 140.721352 226.630315 
L 142.352782 226.630315 
L 143.984212 226.630315 
L 145.615642 226.630315 
L 147.247072 226.630315 
L 148.878502 226.630315 
L 150.509931 226.630315 
L 152.141361 226.630315 
L 153.772791 226.630315 
L 155.404221 226.630315 
L 157.035651 226.630315 
L 158.667081 226.630315 
L 160.298511 226.630315 
L 161.929941 226.630315 
L 163.56137 226.630315 
L 165.1928 226.630315 
L 166.82423 226.630315 
L 168.45566 226.630315 
L 170.08709 226.630315 
L 171.71852 226.630315 
L 173.34995 226.630315 
L 174.98138 226.630315 
L 176.61281 226.630315 
L 178.244239 226.630315 
L 179.875669 226.630315 
L 181.507099 226.630315 
L 183.138529 226.630315 
L 184.769959 226.630315 
L 186.401389 226.630315 
L 188.032819 226.630315 
L 189.664249 226.630315 
L 191.295678 226.630315 
L 192.927108 226.630315 
L 194.558538 226.630315 
L 196.189968 226.630315 
L 197.821398 226.630315 
L 199.452828 226.630315 
L 201.084258 226.630315 
L 202.715688 252.061753 
L 204.347117 271.617336 
L 205.978547 252.712771 
L 207.609977 226.630315 
L 209.241407 226.630315 
L 210.872837 226.630315 
L 212.504267 226.630315 
L 214.135697 226.630315 
L 215.767127 226.630315 
L 217.398556 226.630315 
L 219.029986 226.630315 
L 220.661416 226.630315 
L 222.292846 226.630315 
L 223.924276 248.664774 
L 225.555706 226.630315 
L 227.187136 226.630315 
L 228.818566 226.630315 
L 230.449995 226.630315 
L 232.081425 226.630315 
L 233.712855 228.007469 
L 235.344285 235.81134 
L 236.975715 230.761776 
L 238.607145 243.156159 
L 240.238575 226.630315 
L 241.870005 228.925571 
L 243.501434 260.600106 
L 245.132864 246.828569 
L 246.764294 248.664774 
L 248.395724 249.582877 
L 250.027154 226.758849 
L 251.658584 226.630315 
L 253.290014 251.419082 
L 254.921444 250.96003 
L 256.552873 226.630315 
L 258.184303 286.766027 
L 259.815733 250.041928 
L 261.447163 231.679879 
L 263.078593 240.401852 
L 264.710023 226.630315 
L 266.341453 227.250034 
L 267.972883 245.451416 
L 269.604312 293.192744 
L 271.235742 228.985447 
L 272.867172 242.697108 
L 274.498602 228.962295 
L 276.130032 226.630315 
L 277.761462 226.630315 
L 279.392892 286.306975 
L 281.024322 293.192744 
L 282.655751 260.141055 
L 284.287181 272.535438 
L 285.918611 281.257412 
L 287.550041 246.369518 
L 289.181471 249.582877 
L 290.812901 236.729442 
L 292.444331 269.781131 
L 294.075761 295.488 
L 295.70719 245.451416 
L 297.33862 226.630315 
L 298.97005 231.220827 
L 300.60148 244.533313 
L 302.23291 244.992364 
L 303.86434 226.630315 
L 305.49577 273.912592 
L 307.1272 272.535438 
L 308.75863 226.630315 
L 310.390059 245.910467 
L 312.021489 226.630315 
L 313.652919 292.274641 
L 315.284349 245.910467 
L 316.915779 226.630315 
L 318.547209 226.630315 
L 320.178639 235.352288 
L 321.810069 226.630315 
L 323.441498 237.647545 
L 325.072928 254.63244 
L 326.704358 250.500979 
L 328.335788 249.582877 
L 329.967218 236.270391 
L 331.598648 256.927696 
L 333.230078 226.630315 
L 334.861508 231.220827 
L 336.492937 228.925571 
L 338.124367 226.630315 
L 339.755797 266.567772 
L 341.387227 229.384622 
L 343.018657 226.630315 
L 344.650087 287.684129 
L 346.281517 226.630315 
L 347.912947 233.057032 
L 349.544376 226.630315 
L 351.175806 226.630315 
L 352.807236 249.582877 
L 354.438666 239.48375 
L 356.070096 226.630315 
L 357.701526 226.630315 
L 359.332956 269.781131 
L 360.964386 226.630315 
L 362.595815 226.630315 
L 364.227245 260.600106 
L 365.858675 228.46652 
L 367.490105 233.057032 
L 369.121535 235.352288 
L 370.752965 243.156159 
L 372.384395 226.630315 
L 374.015825 249.582877 
L 375.647254 233.975135 
L 377.278684 286.306975 
L 378.910114 227.548417 
L 380.541544 244.074262 
L 382.172974 256.927696 
L 383.804404 249.582877 
L 385.435834 226.630315 
L 387.067264 241.779006 
L 388.698693 233.516083 
L 390.330123 261.059157 
L 391.961553 289.979385 
L 393.592983 267.944926 
L 395.224413 277.585002 
L 396.855843 226.630315 
L 398.487273 263.813465 
L 398.487273 111.867507 
L 398.487273 111.867507 
L 396.855843 115.998968 
L 395.224413 143.012966 
L 393.592983 123.802839 
L 391.961553 124.26189 
L 390.330123 123.343787 
L 388.698693 115.080865 
L 387.067264 140.898247 
L 385.435834 116.458019 
L 383.804404 129.770505 
L 382.172974 136.197222 
L 380.541544 140.714286 
L 378.910114 132.065761 
L 377.278684 138.894148 
L 375.647254 123.343787 
L 374.015825 137.494541 
L 372.384395 133.727089 
L 370.752965 112.785609 
L 369.121535 96.259765 
L 367.490105 99.932175 
L 365.858675 96.718816 
L 364.227245 114.162763 
L 362.595815 104.981738 
L 360.964386 118.294224 
L 359.332956 112.326558 
L 357.701526 127.475249 
L 356.070096 115.998968 
L 354.438666 126.557146 
L 352.807236 111.867507 
L 351.175806 136.584546 
L 349.544376 102.227431 
L 347.912947 111.867507 
L 346.281517 75.602459 
L 344.650087 122.819157 
L 343.018657 93.505457 
L 341.387227 123.237853 
L 339.755797 97.889397 
L 338.124367 85.242535 
L 336.492937 121.966634 
L 334.861508 72.848152 
L 333.230078 120.370884 
L 331.598648 63.208076 
L 329.967218 109.113199 
L 328.335788 74.225306 
L 326.704358 118.79918 
L 325.072928 107.736046 
L 323.441498 119.54022 
L 321.810069 53.568 
L 320.178639 105.899841 
L 318.547209 112.326558 
L 316.915779 118.622118 
L 315.284349 115.998968 
L 313.652919 115.539917 
L 312.021489 156.510239 
L 310.390059 157.77263 
L 308.75863 120.130429 
L 307.1272 124.720941 
L 305.49577 138.492478 
L 303.86434 157.77263 
L 302.23291 173.380372 
L 300.60148 112.785609 
L 298.97005 114.621814 
L 297.33862 136.656273 
L 295.70719 143.542042 
L 294.075761 173.839423 
L 292.444331 125.639044 
L 290.812901 132.524812 
L 289.181471 144.285268 
L 287.550041 143.564994 
L 285.918611 134.361017 
L 284.287181 166.494603 
L 282.655751 145.837298 
L 281.024322 149.968759 
L 279.392892 119.671378 
L 277.761462 173.059036 
L 276.130032 157.77263 
L 274.498602 121.966634 
L 272.867172 138.779385 
L 271.235742 139.390622 
L 269.604312 101.309328 
L 267.972883 124.26189 
L 266.341453 142.141935 
L 264.710023 166.035552 
L 263.078593 117.376121 
L 261.447163 142.623939 
L 259.815733 114.162763 
L 258.184303 120.130429 
L 256.552873 120.130429 
L 254.921444 111.867507 
L 253.290014 133.901966 
L 251.658584 142.027173 
L 250.027154 145.378247 
L 248.395724 156.854528 
L 246.764294 152.723066 
L 245.132864 149.509708 
L 243.501434 157.77263 
L 241.870005 149.050657 
L 240.238575 133.442915 
L 238.607145 136.197222 
L 236.975715 177.511833 
L 235.344285 171.085116 
L 233.712855 181.184243 
L 232.081425 166.953655 
L 230.449995 160.985989 
L 228.818566 226.630315 
L 227.187136 202.759651 
L 225.555706 203.677753 
L 223.924276 203.677753 
L 222.292846 209.645419 
L 220.661416 226.630315 
L 219.029986 226.630315 
L 217.398556 203.677753 
L 215.767127 226.630315 
L 214.135697 226.630315 
L 212.504267 226.171264 
L 210.872837 226.630315 
L 209.241407 226.630315 
L 207.609977 203.677753 
L 205.978547 203.677753 
L 204.347117 226.630315 
L 202.715688 226.630315 
L 201.084258 226.630315 
L 199.452828 226.630315 
L 197.821398 226.630315 
L 196.189968 226.630315 
L 194.558538 226.630315 
L 192.927108 226.630315 
L 191.295678 226.630315 
L 189.664249 226.630315 
L 188.032819 226.630315 
L 186.401389 226.630315 
L 184.769959 226.630315 
L 183.138529 226.630315 
L 181.507099 226.630315 
L 179.875669 226.630315 
L 178.244239 226.630315 
L 176.61281 226.630315 
L 174.98138 226.630315 
L 173.34995 226.630315 
L 171.71852 226.630315 
L 170.08709 226.630315 
L 168.45566 226.630315 
L 166.82423 226.630315 
L 165.1928 226.630315 
L 163.56137 226.630315 
L 161.929941 226.630315 
L 160.298511 226.630315 
L 158.667081 226.630315 
L 157.035651 226.630315 
L 155.404221 226.630315 
L 153.772791 226.630315 
L 152.141361 226.630315 
L 150.509931 226.630315 
L 148.878502 226.630315 
L 147.247072 226.630315 
L 145.615642 226.630315 
L 143.984212 226.630315 
L 142.352782 226.630315 
L 140.721352 226.630315 
L 139.089922 226.630315 
L 137.458492 226.630315 
L 135.827063 226.630315 
L 134.195633 226.630315 
L 132.564203 226.630315 
L 130.932773 226.630315 
L 129.301343 226.630315 
L 127.669913 226.630315 
L 126.038483 226.630315 
L 124.407053 226.630315 
L 122.775624 226.630315 
L 121.144194 226.630315 
L 119.512764 226.630315 
L 117.881334 226.630315 
L 116.249904 226.630315 
L 114.618474 226.630315 
L 112.987044 226.630315 
L 111.355614 226.630315 
L 109.724185 226.630315 
L 108.092755 226.630315 
L 106.461325 226.630315 
L 104.829895 226.630315 
L 103.198465 226.630315 
L 101.567035 226.630315 
L 99.935605 226.630315 
L 98.304175 226.630315 
L 96.672746 226.630315 
L 95.041316 226.630315 
L 93.409886 226.630315 
L 91.778456 226.630315 
L 90.147026 226.630315 
L 88.515596 226.630315 
L 86.884166 226.630315 
L 85.252736 226.630315 
L 83.621307 226.630315 
L 81.989877 226.630315 
L 80.358447 226.630315 
L 78.727017 226.630315 
L 77.095587 226.630315 
L 75.464157 226.630315 
L 73.832727 226.630315 
z
" style="fill:#1f77b4;fill-opacity:0.1;"/>
   </g>
   <g id="matplotlib.axis_1">
    <g id="xtick_1">
     <g id="line2d_1">
      <defs>
       <path d="M 0 0 
L 0 3.5 
" id="mca96844d30" style="stroke:#000000;stroke-width:0.8;"/>
      </defs>
      <g>
       <use style="stroke:#000000;stroke-width:0.8;" x="73.832727" xlink:href="#mca96844d30" y="307.584"/>
      </g>
     </g>
     <g id="text_1">
      <!-- 0 -->
      <defs>
       <path d="M 31.78125 66.40625 
Q 24.171875 66.40625 20.328125 58.90625 
Q 16.5 51.421875 16.5 36.375 
Q 16.5 21.390625 20.328125 13.890625 
Q 24.171875 6.390625 31.78125 6.390625 
Q 39.453125 6.390625 43.28125 13.890625 
Q 47.125 21.390625 47.125 36.375 
Q 47.125 51.421875 43.28125 58.90625 
Q 39.453125 66.40625 31.78125 66.40625 
z
M 31.78125 74.21875 
Q 44.046875 74.21875 50.515625 64.515625 
Q 56.984375 54.828125 56.984375 36.375 
Q 56.984375 17.96875 50.515625 8.265625 
Q 44.046875 -1.421875 31.78125 -1.421875 
Q 19.53125 -1.421875 13.0625 8.265625 
Q 6.59375 17.96875 6.59375 36.375 
Q 6.59375 54.828125 13.0625 64.515625 
Q 19.53125 74.21875 31.78125 74.21875 
z
" id="DejaVuSans-48"/>
      </defs>
      <g transform="translate(70.651477 322.182437)scale(0.1 -0.1)">
       <use xlink:href="#DejaVuSans-48"/>
      </g>
     </g>
    </g>
    <g id="xtick_2">
     <g id="line2d_2">
      <g>
       <use style="stroke:#000000;stroke-width:0.8;" x="114.618474" xlink:href="#mca96844d30" y="307.584"/>
      </g>
     </g>
     <g id="text_2">
      <!-- 25 -->
      <defs>
       <path d="M 19.1875 8.296875 
L 53.609375 8.296875 
L 53.609375 0 
L 7.328125 0 
L 7.328125 8.296875 
Q 12.9375 14.109375 22.625 23.890625 
Q 32.328125 33.6875 34.8125 36.53125 
Q 39.546875 41.84375 41.421875 45.53125 
Q 43.3125 49.21875 43.3125 52.78125 
Q 43.3125 58.59375 39.234375 62.25 
Q 35.15625 65.921875 28.609375 65.921875 
Q 23.96875 65.921875 18.8125 64.3125 
Q 13.671875 62.703125 7.8125 59.421875 
L 7.8125 69.390625 
Q 13.765625 71.78125 18.9375 73 
Q 24.125 74.21875 28.421875 74.21875 
Q 39.75 74.21875 46.484375 68.546875 
Q 53.21875 62.890625 53.21875 53.421875 
Q 53.21875 48.921875 51.53125 44.890625 
Q 49.859375 40.875 45.40625 35.40625 
Q 44.1875 33.984375 37.640625 27.21875 
Q 31.109375 20.453125 19.1875 8.296875 
z
" id="DejaVuSans-50"/>
       <path d="M 10.796875 72.90625 
L 49.515625 72.90625 
L 49.515625 64.59375 
L 19.828125 64.59375 
L 19.828125 46.734375 
Q 21.96875 47.46875 24.109375 47.828125 
Q 26.265625 48.1875 28.421875 48.1875 
Q 40.625 48.1875 47.75 41.5 
Q 54.890625 34.8125 54.890625 23.390625 
Q 54.890625 11.625 47.5625 5.09375 
Q 40.234375 -1.421875 26.90625 -1.421875 
Q 22.3125 -1.421875 17.546875 -0.640625 
Q 12.796875 0.140625 7.71875 1.703125 
L 7.71875 11.625 
Q 12.109375 9.234375 16.796875 8.0625 
Q 21.484375 6.890625 26.703125 6.890625 
Q 35.15625 6.890625 40.078125 11.328125 
Q 45.015625 15.765625 45.015625 23.390625 
Q 45.015625 31 40.078125 35.4375 
Q 35.15625 39.890625 26.703125 39.890625 
Q 22.75 39.890625 18.8125 39.015625 
Q 14.890625 38.140625 10.796875 36.28125 
z
" id="DejaVuSans-53"/>
      </defs>
      <g transform="translate(108.255974 322.182437)scale(0.1 -0.1)">
       <use xlink:href="#DejaVuSans-50"/>
       <use x="63.623047" xlink:href="#DejaVuSans-53"/>
      </g>
     </g>
    </g>
    <g id="xtick_3">
     <g id="line2d_3">
      <g>
       <use style="stroke:#000000;stroke-width:0.8;" x="155.404221" xlink:href="#mca96844d30" y="307.584"/>
      </g>
     </g>
     <g id="text_3">
      <!-- 50 -->
      <g transform="translate(149.041721 322.182437)scale(0.1 -0.1)">
       <use xlink:href="#DejaVuSans-53"/>
       <use x="63.623047" xlink:href="#DejaVuSans-48"/>
      </g>
     </g>
    </g>
    <g id="xtick_4">
     <g id="line2d_4">
      <g>
       <use style="stroke:#000000;stroke-width:0.8;" x="196.189968" xlink:href="#mca96844d30" y="307.584"/>
      </g>
     </g>
     <g id="text_4">
      <!-- 75 -->
      <defs>
       <path d="M 8.203125 72.90625 
L 55.078125 72.90625 
L 55.078125 68.703125 
L 28.609375 0 
L 18.3125 0 
L 43.21875 64.59375 
L 8.203125 64.59375 
z
" id="DejaVuSans-55"/>
      </defs>
      <g transform="translate(189.827468 322.182437)scale(0.1 -0.1)">
       <use xlink:href="#DejaVuSans-55"/>
       <use x="63.623047" xlink:href="#DejaVuSans-53"/>
      </g>
     </g>
    </g>
    <g id="xtick_5">
     <g id="line2d_5">
      <g>
       <use style="stroke:#000000;stroke-width:0.8;" x="236.975715" xlink:href="#mca96844d30" y="307.584"/>
      </g>
     </g>
     <g id="text_5">
      <!-- 100 -->
      <defs>
       <path d="M 12.40625 8.296875 
L 28.515625 8.296875 
L 28.515625 63.921875 
L 10.984375 60.40625 
L 10.984375 69.390625 
L 28.421875 72.90625 
L 38.28125 72.90625 
L 38.28125 8.296875 
L 54.390625 8.296875 
L 54.390625 0 
L 12.40625 0 
z
" id="DejaVuSans-49"/>
      </defs>
      <g transform="translate(227.431965 322.182437)scale(0.1 -0.1)">
       <use xlink:href="#DejaVuSans-49"/>
       <use x="63.623047" xlink:href="#DejaVuSans-48"/>
       <use x="127.246094" xlink:href="#DejaVuSans-48"/>
      </g>
     </g>
    </g>
    <g id="xtick_6">
     <g id="line2d_6">
      <g>
       <use style="stroke:#000000;stroke-width:0.8;" x="277.761462" xlink:href="#mca96844d30" y="307.584"/>
      </g>
     </g>
     <g id="text_6">
      <!-- 125 -->
      <g transform="translate(268.217712 322.182437)scale(0.1 -0.1)">
       <use xlink:href="#DejaVuSans-49"/>
       <use x="63.623047" xlink:href="#DejaVuSans-50"/>
       <use x="127.246094" xlink:href="#DejaVuSans-53"/>
      </g>
     </g>
    </g>
    <g id="xtick_7">
     <g id="line2d_7">
      <g>
       <use style="stroke:#000000;stroke-width:0.8;" x="318.547209" xlink:href="#mca96844d30" y="307.584"/>
      </g>
     </g>
     <g id="text_7">
      <!-- 150 -->
      <g transform="translate(309.003459 322.182437)scale(0.1 -0.1)">
       <use xlink:href="#DejaVuSans-49"/>
       <use x="63.623047" xlink:href="#DejaVuSans-53"/>
       <use x="127.246094" xlink:href="#DejaVuSans-48"/>
      </g>
     </g>
    </g>
    <g id="xtick_8">
     <g id="line2d_8">
      <g>
       <use style="stroke:#000000;stroke-width:0.8;" x="359.332956" xlink:href="#mca96844d30" y="307.584"/>
      </g>
     </g>
     <g id="text_8">
      <!-- 175 -->
      <g transform="translate(349.789206 322.182437)scale(0.1 -0.1)">
       <use xlink:href="#DejaVuSans-49"/>
       <use x="63.623047" xlink:href="#DejaVuSans-55"/>
       <use x="127.246094" xlink:href="#DejaVuSans-53"/>
      </g>
     </g>
    </g>
    <g id="xtick_9">
     <g id="line2d_9">
      <g>
       <use style="stroke:#000000;stroke-width:0.8;" x="400.118703" xlink:href="#mca96844d30" y="307.584"/>
      </g>
     </g>
     <g id="text_9">
      <!-- 200 -->
      <g transform="translate(390.574953 322.182437)scale(0.1 -0.1)">
       <use xlink:href="#DejaVuSans-50"/>
       <use x="63.623047" xlink:href="#DejaVuSans-48"/>
       <use x="127.246094" xlink:href="#DejaVuSans-48"/>
      </g>
     </g>
    </g>
   </g>
   <g id="matplotlib.axis_2">
    <g id="ytick_1">
     <g id="line2d_10">
      <defs>
       <path d="M 0 0 
L -3.5 0 
" id="m7487b1a383" style="stroke:#000000;stroke-width:0.8;"/>
      </defs>
      <g>
       <use style="stroke:#000000;stroke-width:0.8;" x="57.6" xlink:href="#m7487b1a383" y="272.535438"/>
      </g>
     </g>
     <g id="text_10">
      <!-- −0.2 -->
      <defs>
       <path d="M 10.59375 35.5 
L 73.1875 35.5 
L 73.1875 27.203125 
L 10.59375 27.203125 
z
" id="DejaVuSans-8722"/>
       <path d="M 10.6875 12.40625 
L 21 12.40625 
L 21 0 
L 10.6875 0 
z
" id="DejaVuSans-46"/>
      </defs>
      <g transform="translate(26.317187 276.334657)scale(0.1 -0.1)">
       <use xlink:href="#DejaVuSans-8722"/>
       <use x="83.789062" xlink:href="#DejaVuSans-48"/>
       <use x="147.412109" xlink:href="#DejaVuSans-46"/>
       <use x="179.199219" xlink:href="#DejaVuSans-50"/>
      </g>
     </g>
    </g>
    <g id="ytick_2">
     <g id="line2d_11">
      <g>
       <use style="stroke:#000000;stroke-width:0.8;" x="57.6" xlink:href="#m7487b1a383" y="226.630315"/>
      </g>
     </g>
     <g id="text_11">
      <!-- 0.0 -->
      <g transform="translate(34.696875 230.429534)scale(0.1 -0.1)">
       <use xlink:href="#DejaVuSans-48"/>
       <use x="63.623047" xlink:href="#DejaVuSans-46"/>
       <use x="95.410156" xlink:href="#DejaVuSans-48"/>
      </g>
     </g>
    </g>
    <g id="ytick_3">
     <g id="line2d_12">
      <g>
       <use style="stroke:#000000;stroke-width:0.8;" x="57.6" xlink:href="#m7487b1a383" y="180.725192"/>
      </g>
     </g>
     <g id="text_12">
      <!-- 0.2 -->
      <g transform="translate(34.696875 184.52441)scale(0.1 -0.1)">
       <use xlink:href="#DejaVuSans-48"/>
       <use x="63.623047" xlink:href="#DejaVuSans-46"/>
       <use x="95.410156" xlink:href="#DejaVuSans-50"/>
      </g>
     </g>
    </g>
    <g id="ytick_4">
     <g id="line2d_13">
      <g>
       <use style="stroke:#000000;stroke-width:0.8;" x="57.6" xlink:href="#m7487b1a383" y="134.820068"/>
      </g>
     </g>
     <g id="text_13">
      <!-- 0.4 -->
      <defs>
       <path d="M 37.796875 64.3125 
L 12.890625 25.390625 
L 37.796875 25.390625 
z
M 35.203125 72.90625 
L 47.609375 72.90625 
L 47.609375 25.390625 
L 58.015625 25.390625 
L 58.015625 17.1875 
L 47.609375 17.1875 
L 47.609375 0 
L 37.796875 0 
L 37.796875 17.1875 
L 4.890625 17.1875 
L 4.890625 26.703125 
z
" id="DejaVuSans-52"/>
      </defs>
      <g transform="translate(34.696875 138.619287)scale(0.1 -0.1)">
       <use xlink:href="#DejaVuSans-48"/>
       <use x="63.623047" xlink:href="#DejaVuSans-46"/>
       <use x="95.410156" xlink:href="#DejaVuSans-52"/>
      </g>
     </g>
    </g>
    <g id="ytick_5">
     <g id="line2d_14">
      <g>
       <use style="stroke:#000000;stroke-width:0.8;" x="57.6" xlink:href="#m7487b1a383" y="88.914945"/>
      </g>
     </g>
     <g id="text_14">
      <!-- 0.6 -->
      <defs>
       <path d="M 33.015625 40.375 
Q 26.375 40.375 22.484375 35.828125 
Q 18.609375 31.296875 18.609375 23.390625 
Q 18.609375 15.53125 22.484375 10.953125 
Q 26.375 6.390625 33.015625 6.390625 
Q 39.65625 6.390625 43.53125 10.953125 
Q 47.40625 15.53125 47.40625 23.390625 
Q 47.40625 31.296875 43.53125 35.828125 
Q 39.65625 40.375 33.015625 40.375 
z
M 52.59375 71.296875 
L 52.59375 62.3125 
Q 48.875 64.0625 45.09375 64.984375 
Q 41.3125 65.921875 37.59375 65.921875 
Q 27.828125 65.921875 22.671875 59.328125 
Q 17.53125 52.734375 16.796875 39.40625 
Q 19.671875 43.65625 24.015625 45.921875 
Q 28.375 48.1875 33.59375 48.1875 
Q 44.578125 48.1875 50.953125 41.515625 
Q 57.328125 34.859375 57.328125 23.390625 
Q 57.328125 12.15625 50.6875 5.359375 
Q 44.046875 -1.421875 33.015625 -1.421875 
Q 20.359375 -1.421875 13.671875 8.265625 
Q 6.984375 17.96875 6.984375 36.375 
Q 6.984375 53.65625 15.1875 63.9375 
Q 23.390625 74.21875 37.203125 74.21875 
Q 40.921875 74.21875 44.703125 73.484375 
Q 48.484375 72.75 52.59375 71.296875 
z
" id="DejaVuSans-54"/>
      </defs>
      <g transform="translate(34.696875 92.714164)scale(0.1 -0.1)">
       <use xlink:href="#DejaVuSans-48"/>
       <use x="63.623047" xlink:href="#DejaVuSans-46"/>
       <use x="95.410156" xlink:href="#DejaVuSans-54"/>
      </g>
     </g>
    </g>
    <g id="ytick_6">
     <g id="line2d_15">
      <g>
       <use style="stroke:#000000;stroke-width:0.8;" x="57.6" xlink:href="#m7487b1a383" y="43.009822"/>
      </g>
     </g>
     <g id="text_15">
      <!-- 0.8 -->
      <defs>
       <path d="M 31.78125 34.625 
Q 24.75 34.625 20.71875 30.859375 
Q 16.703125 27.09375 16.703125 20.515625 
Q 16.703125 13.921875 20.71875 10.15625 
Q 24.75 6.390625 31.78125 6.390625 
Q 38.8125 6.390625 42.859375 10.171875 
Q 46.921875 13.96875 46.921875 20.515625 
Q 46.921875 27.09375 42.890625 30.859375 
Q 38.875 34.625 31.78125 34.625 
z
M 21.921875 38.8125 
Q 15.578125 40.375 12.03125 44.71875 
Q 8.5 49.078125 8.5 55.328125 
Q 8.5 64.0625 14.71875 69.140625 
Q 20.953125 74.21875 31.78125 74.21875 
Q 42.671875 74.21875 48.875 69.140625 
Q 55.078125 64.0625 55.078125 55.328125 
Q 55.078125 49.078125 51.53125 44.71875 
Q 48 40.375 41.703125 38.8125 
Q 48.828125 37.15625 52.796875 32.3125 
Q 56.78125 27.484375 56.78125 20.515625 
Q 56.78125 9.90625 50.3125 4.234375 
Q 43.84375 -1.421875 31.78125 -1.421875 
Q 19.734375 -1.421875 13.25 4.234375 
Q 6.78125 9.90625 6.78125 20.515625 
Q 6.78125 27.484375 10.78125 32.3125 
Q 14.796875 37.15625 21.921875 38.8125 
z
M 18.3125 54.390625 
Q 18.3125 48.734375 21.84375 45.5625 
Q 25.390625 42.390625 31.78125 42.390625 
Q 38.140625 42.390625 41.71875 45.5625 
Q 45.3125 48.734375 45.3125 54.390625 
Q 45.3125 60.0625 41.71875 63.234375 
Q 38.140625 66.40625 31.78125 66.40625 
Q 25.390625 66.40625 21.84375 63.234375 
Q 18.3125 60.0625 18.3125 54.390625 
z
" id="DejaVuSans-56"/>
      </defs>
      <g transform="translate(34.696875 46.80904)scale(0.1 -0.1)">
       <use xlink:href="#DejaVuSans-48"/>
       <use x="63.623047" xlink:href="#DejaVuSans-46"/>
       <use x="95.410156" xlink:href="#DejaVuSans-56"/>
      </g>
     </g>
    </g>
   </g>
   <g id="line2d_16">
    <path clip-path="url(#p4b2791ec9a)" d="M 73.832727 226.630315 
L 261.447163 226.630315 
L 263.078593 218.367393 
L 264.710023 226.630315 
L 266.341453 226.630315 
L 267.972883 207.350163 
L 269.604312 226.630315 
L 271.235742 218.826444 
L 272.867172 225.253161 
L 274.498602 184.604175 
L 276.130032 226.630315 
L 279.392892 226.630315 
L 281.024322 224.335059 
L 282.655751 226.630315 
L 285.918611 226.630315 
L 287.550041 222.039803 
L 289.181471 221.810277 
L 290.812901 224.335059 
L 292.444331 185.315704 
L 294.075761 219.744546 
L 295.70719 193.349101 
L 297.33862 198.698045 
L 298.97005 174.50614 
L 300.60148 224.335059 
L 302.23291 188.529063 
L 303.86434 180.26614 
L 305.49577 200.005343 
L 307.1272 211.022573 
L 308.75863 160.985989 
L 310.390059 202.071074 
L 312.021489 205.513958 
L 313.652919 204.136805 
L 315.284349 179.665843 
L 316.915779 185.774755 
L 318.547209 198.969199 
L 320.178639 222.039803 
L 321.810069 137.574376 
L 323.441498 203.677753 
L 325.072928 195.154007 
L 326.704358 222.039803 
L 328.335788 170.167013 
L 329.967218 185.774755 
L 331.598648 179.339057 
L 333.230078 201.382497 
L 334.861508 172.232744 
L 336.492937 199.970416 
L 338.124367 199.684008 
L 339.755797 185.774755 
L 341.387227 190.824319 
L 343.018657 182.561397 
L 344.650087 186.452402 
L 349.544376 157.480506 
L 351.175806 196.791985 
L 352.807236 226.630315 
L 354.438666 180.677936 
L 356.070096 195.644357 
L 357.701526 180.706065 
L 359.332956 196.791985 
L 360.964386 179.807089 
L 362.595815 178.221367 
L 364.227245 203.677753 
L 365.858675 165.576501 
L 367.490105 167.871757 
L 369.121535 159.193503 
L 370.752965 167.412706 
L 372.384395 187.61096 
L 374.015825 188.299537 
L 375.647254 206.891112 
L 377.278684 192.201472 
L 378.910114 204.595856 
L 380.541544 203.677753 
L 382.172974 167.412706 
L 383.804404 180.725192 
L 385.435834 187.840486 
L 387.067264 174.068949 
L 388.698693 177.012864 
L 390.330123 203.677753 
L 391.961553 226.630315 
L 393.592983 187.660857 
L 395.224413 186.463332 
L 396.855843 177.052782 
L 398.487273 179.807089 
L 398.487273 179.807089 
" style="fill:none;stroke:#1f77b4;stroke-linecap:square;stroke-width:0.25;"/>
   </g>
   <g id="line2d_17">
    <path clip-path="url(#p4b2791ec9a)" d="M 73.832727 226.630315 
L 201.084258 226.630315 
L 202.715688 227.336336 
L 204.347117 231.812348 
L 205.978547 228.501575 
L 207.609977 225.482687 
L 209.241407 226.630315 
L 215.767127 226.630315 
L 217.398556 225.712213 
L 219.029986 226.630315 
L 220.661416 226.630315 
L 222.292846 225.611221 
L 223.924276 225.216437 
L 225.555706 225.712213 
L 227.187136 225.198075 
L 228.818566 226.630315 
L 230.449995 225.560726 
L 232.081425 225.344972 
L 233.712855 224.596718 
L 235.344285 223.426137 
L 236.975715 223.62812 
L 238.607145 225.023636 
L 240.238575 223.233336 
L 241.870005 221.678759 
L 243.501434 225.456674 
L 245.132864 223.973869 
L 246.764294 224.662382 
L 248.395724 226.085383 
L 250.027154 225.277399 
L 251.658584 215.119157 
L 253.290014 214.186055 
L 254.921444 211.350292 
L 256.552873 213.863606 
L 258.184303 220.81066 
L 259.815733 209.107922 
L 261.447163 219.069938 
L 263.078593 199.807368 
L 264.710023 219.911499 
L 267.972883 201.500023 
L 269.604312 208.479205 
L 271.235742 205.22519 
L 272.867172 204.418508 
L 274.498602 189.232073 
L 276.130032 210.305114 
L 277.761462 223.7337 
L 279.392892 217.383484 
L 281.024322 214.548548 
L 282.655751 210.484992 
L 284.287181 214.24241 
L 285.918611 212.255694 
L 287.550041 212.816405 
L 289.181471 211.064774 
L 290.812901 207.676688 
L 292.444331 188.224246 
L 294.075761 219.833128 
L 295.70719 197.723766 
L 297.33862 187.541592 
L 298.97005 180.083312 
L 300.60148 218.048338 
L 302.23291 197.267006 
L 303.86434 192.610032 
L 305.49577 197.494297 
L 307.1272 210.695919 
L 308.75863 174.963686 
L 310.390059 195.126236 
L 312.021489 201.567777 
L 313.652919 189.073214 
L 315.284349 181.656743 
L 316.915779 184.151317 
L 318.547209 185.120583 
L 320.178639 200.483694 
L 321.810069 150.385991 
L 323.441498 195.566365 
L 325.072928 188.079042 
L 326.704358 196.561583 
L 328.335788 168.612838 
L 329.967218 182.236892 
L 331.598648 161.42794 
L 333.230078 192.119136 
L 334.861508 164.863884 
L 336.492937 188.767649 
L 338.124367 185.263375 
L 339.755797 184.401052 
L 341.387227 187.752658 
L 343.018657 173.926967 
L 344.650087 195.545398 
L 346.281517 173.022697 
L 347.912947 168.934457 
L 349.544376 164.008912 
L 351.175806 195.821529 
L 352.807236 210.529513 
L 354.438666 184.98492 
L 356.070096 186.769555 
L 357.701526 185.342424 
L 359.332956 194.367379 
L 360.964386 181.880631 
L 362.595815 172.01105 
L 364.227245 196.274075 
L 365.858675 174.262782 
L 367.490105 165.91241 
L 369.121535 167.547384 
L 370.752965 178.159816 
L 372.384395 183.815597 
L 375.647254 197.640952 
L 377.278684 197.310616 
L 378.910114 195.154999 
L 380.541544 202.078869 
L 382.172974 173.562018 
L 383.804404 181.48218 
L 385.435834 180.814759 
L 387.067264 180.654943 
L 388.698693 181.345623 
L 390.330123 196.708726 
L 391.961553 213.597873 
L 393.592983 192.098504 
L 395.224413 190.286976 
L 396.855843 180.388026 
L 398.487273 179.588897 
L 398.487273 179.588897 
" style="fill:none;stroke:#2ca02c;stroke-linecap:square;stroke-width:0.75;"/>
   </g>
   <g id="patch_3">
    <path d="M 57.6 307.584 
L 57.6 41.472 
" style="fill:none;stroke:#000000;stroke-linecap:square;stroke-linejoin:miter;stroke-width:0.8;"/>
   </g>
   <g id="patch_4">
    <path d="M 414.72 307.584 
L 414.72 41.472 
" style="fill:none;stroke:#000000;stroke-linecap:square;stroke-linejoin:miter;stroke-width:0.8;"/>
   </g>
   <g id="patch_5">
    <path d="M 57.6 307.584 
L 414.72 307.584 
" style="fill:none;stroke:#000000;stroke-linecap:square;stroke-linejoin:miter;stroke-width:0.8;"/>
   </g>
   <g id="patch_6">
    <path d="M 57.6 41.472 
L 414.72 41.472 
" style="fill:none;stroke:#000000;stroke-linecap:square;stroke-linejoin:miter;stroke-width:0.8;"/>
   </g>
   <g id="legend_1">
    <g id="patch_7">
     <path d="M 338.234063 78.82825 
L 407.72 78.82825 
Q 409.72 78.82825 409.72 76.82825 
L 409.72 48.472 
Q 409.72 46.472 407.72 46.472 
L 338.234063 46.472 
Q 336.234063 46.472 336.234063 48.472 
L 336.234063 76.82825 
Q 336.234063 78.82825 338.234063 78.82825 
z
" style="fill:#ffffff;opacity:0.8;stroke:#cccccc;stroke-linejoin:miter;"/>
    </g>
    <g id="line2d_18">
     <path d="M 340.234063 54.570437 
L 360.234063 54.570437 
" style="fill:none;stroke:#1f77b4;stroke-linecap:square;stroke-width:0.25;"/>
    </g>
    <g id="line2d_19"/>
    <g id="text_16">
     <!-- median -->
     <defs>
      <path d="M 52 44.1875 
Q 55.375 50.25 60.0625 53.125 
Q 64.75 56 71.09375 56 
Q 79.640625 56 84.28125 50.015625 
Q 88.921875 44.046875 88.921875 33.015625 
L 88.921875 0 
L 79.890625 0 
L 79.890625 32.71875 
Q 79.890625 40.578125 77.09375 44.375 
Q 74.3125 48.1875 68.609375 48.1875 
Q 61.625 48.1875 57.5625 43.546875 
Q 53.515625 38.921875 53.515625 30.90625 
L 53.515625 0 
L 44.484375 0 
L 44.484375 32.71875 
Q 44.484375 40.625 41.703125 44.40625 
Q 38.921875 48.1875 33.109375 48.1875 
Q 26.21875 48.1875 22.15625 43.53125 
Q 18.109375 38.875 18.109375 30.90625 
L 18.109375 0 
L 9.078125 0 
L 9.078125 54.6875 
L 18.109375 54.6875 
L 18.109375 46.1875 
Q 21.1875 51.21875 25.484375 53.609375 
Q 29.78125 56 35.6875 56 
Q 41.65625 56 45.828125 52.96875 
Q 50 49.953125 52 44.1875 
z
" id="DejaVuSans-109"/>
      <path d="M 56.203125 29.59375 
L 56.203125 25.203125 
L 14.890625 25.203125 
Q 15.484375 15.921875 20.484375 11.0625 
Q 25.484375 6.203125 34.421875 6.203125 
Q 39.59375 6.203125 44.453125 7.46875 
Q 49.3125 8.734375 54.109375 11.28125 
L 54.109375 2.78125 
Q 49.265625 0.734375 44.1875 -0.34375 
Q 39.109375 -1.421875 33.890625 -1.421875 
Q 20.796875 -1.421875 13.15625 6.1875 
Q 5.515625 13.8125 5.515625 26.8125 
Q 5.515625 40.234375 12.765625 48.109375 
Q 20.015625 56 32.328125 56 
Q 43.359375 56 49.78125 48.890625 
Q 56.203125 41.796875 56.203125 29.59375 
z
M 47.21875 32.234375 
Q 47.125 39.59375 43.09375 43.984375 
Q 39.0625 48.390625 32.421875 48.390625 
Q 24.90625 48.390625 20.390625 44.140625 
Q 15.875 39.890625 15.1875 32.171875 
z
" id="DejaVuSans-101"/>
      <path d="M 45.40625 46.390625 
L 45.40625 75.984375 
L 54.390625 75.984375 
L 54.390625 0 
L 45.40625 0 
L 45.40625 8.203125 
Q 42.578125 3.328125 38.25 0.953125 
Q 33.9375 -1.421875 27.875 -1.421875 
Q 17.96875 -1.421875 11.734375 6.484375 
Q 5.515625 14.40625 5.515625 27.296875 
Q 5.515625 40.1875 11.734375 48.09375 
Q 17.96875 56 27.875 56 
Q 33.9375 56 38.25 53.625 
Q 42.578125 51.265625 45.40625 46.390625 
z
M 14.796875 27.296875 
Q 14.796875 17.390625 18.875 11.75 
Q 22.953125 6.109375 30.078125 6.109375 
Q 37.203125 6.109375 41.296875 11.75 
Q 45.40625 17.390625 45.40625 27.296875 
Q 45.40625 37.203125 41.296875 42.84375 
Q 37.203125 48.484375 30.078125 48.484375 
Q 22.953125 48.484375 18.875 42.84375 
Q 14.796875 37.203125 14.796875 27.296875 
z
" id="DejaVuSans-100"/>
      <path d="M 9.421875 54.6875 
L 18.40625 54.6875 
L 18.40625 0 
L 9.421875 0 
z
M 9.421875 75.984375 
L 18.40625 75.984375 
L 18.40625 64.59375 
L 9.421875 64.59375 
z
" id="DejaVuSans-105"/>
      <path d="M 34.28125 27.484375 
Q 23.390625 27.484375 19.1875 25 
Q 14.984375 22.515625 14.984375 16.5 
Q 14.984375 11.71875 18.140625 8.90625 
Q 21.296875 6.109375 26.703125 6.109375 
Q 34.1875 6.109375 38.703125 11.40625 
Q 43.21875 16.703125 43.21875 25.484375 
L 43.21875 27.484375 
z
M 52.203125 31.203125 
L 52.203125 0 
L 43.21875 0 
L 43.21875 8.296875 
Q 40.140625 3.328125 35.546875 0.953125 
Q 30.953125 -1.421875 24.3125 -1.421875 
Q 15.921875 -1.421875 10.953125 3.296875 
Q 6 8.015625 6 15.921875 
Q 6 25.140625 12.171875 29.828125 
Q 18.359375 34.515625 30.609375 34.515625 
L 43.21875 34.515625 
L 43.21875 35.40625 
Q 43.21875 41.609375 39.140625 45 
Q 35.0625 48.390625 27.6875 48.390625 
Q 23 48.390625 18.546875 47.265625 
Q 14.109375 46.140625 10.015625 43.890625 
L 10.015625 52.203125 
Q 14.9375 54.109375 19.578125 55.046875 
Q 24.21875 56 28.609375 56 
Q 40.484375 56 46.34375 49.84375 
Q 52.203125 43.703125 52.203125 31.203125 
z
" id="DejaVuSans-97"/>
      <path d="M 54.890625 33.015625 
L 54.890625 0 
L 45.90625 0 
L 45.90625 32.71875 
Q 45.90625 40.484375 42.875 44.328125 
Q 39.84375 48.1875 33.796875 48.1875 
Q 26.515625 48.1875 22.3125 43.546875 
Q 18.109375 38.921875 18.109375 30.90625 
L 18.109375 0 
L 9.078125 0 
L 9.078125 54.6875 
L 18.109375 54.6875 
L 18.109375 46.1875 
Q 21.34375 51.125 25.703125 53.5625 
Q 30.078125 56 35.796875 56 
Q 45.21875 56 50.046875 50.171875 
Q 54.890625 44.34375 54.890625 33.015625 
z
" id="DejaVuSans-110"/>
     </defs>
     <g transform="translate(368.234063 58.070437)scale(0.1 -0.1)">
      <use xlink:href="#DejaVuSans-109"/>
      <use x="97.412109" xlink:href="#DejaVuSans-101"/>
      <use x="158.935547" xlink:href="#DejaVuSans-100"/>
      <use x="222.412109" xlink:href="#DejaVuSans-105"/>
      <use x="250.195312" xlink:href="#DejaVuSans-97"/>
      <use x="311.474609" xlink:href="#DejaVuSans-110"/>
     </g>
    </g>
    <g id="line2d_20">
     <path d="M 340.234063 69.248562 
L 360.234063 69.248562 
" style="fill:none;stroke:#2ca02c;stroke-linecap:square;stroke-width:0.75;"/>
    </g>
    <g id="line2d_21"/>
    <g id="text_17">
     <!-- mean -->
     <g transform="translate(368.234063 72.748562)scale(0.1 -0.1)">
      <use xlink:href="#DejaVuSans-109"/>
      <use x="97.412109" xlink:href="#DejaVuSans-101"/>
      <use x="158.935547" xlink:href="#DejaVuSans-97"/>
      <use x="220.214844" xlink:href="#DejaVuSans-110"/>
     </g>
    </g>
   </g>
  </g>
  <g id="text_18">
   <!-- kappa.mean over generations -->
   <defs>
    <path d="M 9.078125 75.984375 
L 18.109375 75.984375 
L 18.109375 31.109375 
L 44.921875 54.6875 
L 56.390625 54.6875 
L 27.390625 29.109375 
L 57.625 0 
L 45.90625 0 
L 18.109375 26.703125 
L 18.109375 0 
L 9.078125 0 
z
" id="DejaVuSans-107"/>
    <path d="M 18.109375 8.203125 
L 18.109375 -20.796875 
L 9.078125 -20.796875 
L 9.078125 54.6875 
L 18.109375 54.6875 
L 18.109375 46.390625 
Q 20.953125 51.265625 25.265625 53.625 
Q 29.59375 56 35.59375 56 
Q 45.5625 56 51.78125 48.09375 
Q 58.015625 40.1875 58.015625 27.296875 
Q 58.015625 14.40625 51.78125 6.484375 
Q 45.5625 -1.421875 35.59375 -1.421875 
Q 29.59375 -1.421875 25.265625 0.953125 
Q 20.953125 3.328125 18.109375 8.203125 
z
M 48.6875 27.296875 
Q 48.6875 37.203125 44.609375 42.84375 
Q 40.53125 48.484375 33.40625 48.484375 
Q 26.265625 48.484375 22.1875 42.84375 
Q 18.109375 37.203125 18.109375 27.296875 
Q 18.109375 17.390625 22.1875 11.75 
Q 26.265625 6.109375 33.40625 6.109375 
Q 40.53125 6.109375 44.609375 11.75 
Q 48.6875 17.390625 48.6875 27.296875 
z
" id="DejaVuSans-112"/>
    <path id="DejaVuSans-32"/>
    <path d="M 30.609375 48.390625 
Q 23.390625 48.390625 19.1875 42.75 
Q 14.984375 37.109375 14.984375 27.296875 
Q 14.984375 17.484375 19.15625 11.84375 
Q 23.34375 6.203125 30.609375 6.203125 
Q 37.796875 6.203125 41.984375 11.859375 
Q 46.1875 17.53125 46.1875 27.296875 
Q 46.1875 37.015625 41.984375 42.703125 
Q 37.796875 48.390625 30.609375 48.390625 
z
M 30.609375 56 
Q 42.328125 56 49.015625 48.375 
Q 55.71875 40.765625 55.71875 27.296875 
Q 55.71875 13.875 49.015625 6.21875 
Q 42.328125 -1.421875 30.609375 -1.421875 
Q 18.84375 -1.421875 12.171875 6.21875 
Q 5.515625 13.875 5.515625 27.296875 
Q 5.515625 40.765625 12.171875 48.375 
Q 18.84375 56 30.609375 56 
z
" id="DejaVuSans-111"/>
    <path d="M 2.984375 54.6875 
L 12.5 54.6875 
L 29.59375 8.796875 
L 46.6875 54.6875 
L 56.203125 54.6875 
L 35.6875 0 
L 23.484375 0 
z
" id="DejaVuSans-118"/>
    <path d="M 41.109375 46.296875 
Q 39.59375 47.171875 37.8125 47.578125 
Q 36.03125 48 33.890625 48 
Q 26.265625 48 22.1875 43.046875 
Q 18.109375 38.09375 18.109375 28.8125 
L 18.109375 0 
L 9.078125 0 
L 9.078125 54.6875 
L 18.109375 54.6875 
L 18.109375 46.1875 
Q 20.953125 51.171875 25.484375 53.578125 
Q 30.03125 56 36.53125 56 
Q 37.453125 56 38.578125 55.875 
Q 39.703125 55.765625 41.0625 55.515625 
z
" id="DejaVuSans-114"/>
    <path d="M 45.40625 27.984375 
Q 45.40625 37.75 41.375 43.109375 
Q 37.359375 48.484375 30.078125 48.484375 
Q 22.859375 48.484375 18.828125 43.109375 
Q 14.796875 37.75 14.796875 27.984375 
Q 14.796875 18.265625 18.828125 12.890625 
Q 22.859375 7.515625 30.078125 7.515625 
Q 37.359375 7.515625 41.375 12.890625 
Q 45.40625 18.265625 45.40625 27.984375 
z
M 54.390625 6.78125 
Q 54.390625 -7.171875 48.1875 -13.984375 
Q 42 -20.796875 29.203125 -20.796875 
Q 24.46875 -20.796875 20.265625 -20.09375 
Q 16.0625 -19.390625 12.109375 -17.921875 
L 12.109375 -9.1875 
Q 16.0625 -11.328125 19.921875 -12.34375 
Q 23.78125 -13.375 27.78125 -13.375 
Q 36.625 -13.375 41.015625 -8.765625 
Q 45.40625 -4.15625 45.40625 5.171875 
L 45.40625 9.625 
Q 42.625 4.78125 38.28125 2.390625 
Q 33.9375 0 27.875 0 
Q 17.828125 0 11.671875 7.65625 
Q 5.515625 15.328125 5.515625 27.984375 
Q 5.515625 40.671875 11.671875 48.328125 
Q 17.828125 56 27.875 56 
Q 33.9375 56 38.28125 53.609375 
Q 42.625 51.21875 45.40625 46.390625 
L 45.40625 54.6875 
L 54.390625 54.6875 
z
" id="DejaVuSans-103"/>
    <path d="M 18.3125 70.21875 
L 18.3125 54.6875 
L 36.8125 54.6875 
L 36.8125 47.703125 
L 18.3125 47.703125 
L 18.3125 18.015625 
Q 18.3125 11.328125 20.140625 9.421875 
Q 21.96875 7.515625 27.59375 7.515625 
L 36.8125 7.515625 
L 36.8125 0 
L 27.59375 0 
Q 17.1875 0 13.234375 3.875 
Q 9.28125 7.765625 9.28125 18.015625 
L 9.28125 47.703125 
L 2.6875 47.703125 
L 2.6875 54.6875 
L 9.28125 54.6875 
L 9.28125 70.21875 
z
" id="DejaVuSans-116"/>
    <path d="M 44.28125 53.078125 
L 44.28125 44.578125 
Q 40.484375 46.53125 36.375 47.5 
Q 32.28125 48.484375 27.875 48.484375 
Q 21.1875 48.484375 17.84375 46.4375 
Q 14.5 44.390625 14.5 40.28125 
Q 14.5 37.15625 16.890625 35.375 
Q 19.28125 33.59375 26.515625 31.984375 
L 29.59375 31.296875 
Q 39.15625 29.25 43.1875 25.515625 
Q 47.21875 21.78125 47.21875 15.09375 
Q 47.21875 7.46875 41.1875 3.015625 
Q 35.15625 -1.421875 24.609375 -1.421875 
Q 20.21875 -1.421875 15.453125 -0.5625 
Q 10.6875 0.296875 5.421875 2 
L 5.421875 11.28125 
Q 10.40625 8.6875 15.234375 7.390625 
Q 20.0625 6.109375 24.8125 6.109375 
Q 31.15625 6.109375 34.5625 8.28125 
Q 37.984375 10.453125 37.984375 14.40625 
Q 37.984375 18.0625 35.515625 20.015625 
Q 33.0625 21.96875 24.703125 23.78125 
L 21.578125 24.515625 
Q 13.234375 26.265625 9.515625 29.90625 
Q 5.8125 33.546875 5.8125 39.890625 
Q 5.8125 47.609375 11.28125 51.796875 
Q 16.75 56 26.8125 56 
Q 31.78125 56 36.171875 55.265625 
Q 40.578125 54.546875 44.28125 53.078125 
z
" id="DejaVuSans-115"/>
   </defs>
   <g transform="translate(140.184375 16.030125)scale(0.12 -0.12)">
    <use xlink:href="#DejaVuSans-107"/>
    <use x="56.160156" xlink:href="#DejaVuSans-97"/>
    <use x="117.439453" xlink:href="#DejaVuSans-112"/>
    <use x="180.916016" xlink:href="#DejaVuSans-112"/>
    <use x="244.392578" xlink:href="#DejaVuSans-97"/>
    <use x="305.671875" xlink:href="#DejaVuSans-46"/>
    <use x="337.458984" xlink:href="#DejaVuSans-109"/>
    <use x="434.871094" xlink:href="#DejaVuSans-101"/>
    <use x="496.394531" xlink:href="#DejaVuSans-97"/>
    <use x="557.673828" xlink:href="#DejaVuSans-110"/>
    <use x="621.052734" xlink:href="#DejaVuSans-32"/>
    <use x="652.839844" xlink:href="#DejaVuSans-111"/>
    <use x="714.021484" xlink:href="#DejaVuSans-118"/>
    <use x="773.201172" xlink:href="#DejaVuSans-101"/>
    <use x="834.724609" xlink:href="#DejaVuSans-114"/>
    <use x="875.837891" xlink:href="#DejaVuSans-32"/>
    <use x="907.625" xlink:href="#DejaVuSans-103"/>
    <use x="971.101562" xlink:href="#DejaVuSans-101"/>
    <use x="1032.625" xlink:href="#DejaVuSans-110"/>
    <use x="1096.003906" xlink:href="#DejaVuSans-101"/>
    <use x="1157.527344" xlink:href="#DejaVuSans-114"/>
    <use x="1198.640625" xlink:href="#DejaVuSans-97"/>
    <use x="1259.919922" xlink:href="#DejaVuSans-116"/>
    <use x="1299.128906" xlink:href="#DejaVuSans-105"/>
    <use x="1326.912109" xlink:href="#DejaVuSans-111"/>
    <use x="1388.09375" xlink:href="#DejaVuSans-110"/>
    <use x="1451.472656" xlink:href="#DejaVuSans-115"/>
   </g>
  </g>
 </g>
 <defs>
  <clipPath id="p4b2791ec9a">
   <rect height="266.112" width="357.12" x="57.6" y="41.472"/>
  </clipPath>
 </defs>
</svg>
