<?xml version="1.0" encoding="utf-8" standalone="no"?>
<!DOCTYPE svg PUBLIC "-//W3C//DTD SVG 1.1//EN"
  "http://www.w3.org/Graphics/SVG/1.1/DTD/svg11.dtd">
<!-- Created with matplotlib (https://matplotlib.org/) -->
<svg height="345.6pt" version="1.1" viewBox="0 0 460.8 345.6" width="460.8pt" xmlns="http://www.w3.org/2000/svg" xmlns:xlink="http://www.w3.org/1999/xlink">
 <defs>
  <style type="text/css">
*{stroke-linecap:butt;stroke-linejoin:round;}
  </style>
 </defs>
 <g id="figure_1">
  <g id="patch_1">
   <path d="M 0 345.6 
L 460.8 345.6 
L 460.8 0 
L 0 0 
z
" style="fill:#ffffff;"/>
  </g>
  <g id="axes_1">
   <g id="patch_2">
    <path clip-path="url(#p73fd7f5b8b)" d="M 88.589752 63.33361 
Q 197.853906 145.307588 307.11806 227.281565 
" style="fill:none;stroke:#000000;stroke-linecap:round;stroke-opacity:0.9;stroke-width:0.4;"/>
   </g>
   <g id="patch_3">
    <path clip-path="url(#p73fd7f5b8b)" d="M 88.589752 179.410805 
Q 124.276506 141.088171 159.963259 102.765536 
" style="fill:none;stroke:#000000;stroke-linecap:round;stroke-opacity:0.9;stroke-width:0.4;"/>
   </g>
   <g id="patch_4">
    <path clip-path="url(#p73fd7f5b8b)" d="M 88.589752 237.449403 
Q 123.782248 247.559228 158.974744 257.669054 
" style="fill:none;stroke:#000000;stroke-linecap:round;stroke-opacity:0.9;stroke-width:0.4;"/>
   </g>
   <g id="patch_5">
    <path clip-path="url(#p73fd7f5b8b)" d="M 88.589752 237.449403 
Q 124.091863 209.523818 159.593973 181.598234 
" style="fill:none;stroke:#000000;stroke-linecap:round;stroke-opacity:0.9;stroke-width:0.4;"/>
   </g>
   <g id="patch_6">
    <path clip-path="url(#p73fd7f5b8b)" d="M 88.589752 237.449403 
Q 197.499257 233.490245 306.408761 229.531088 
" style="fill:none;stroke:#000000;stroke-linecap:round;stroke-opacity:0.9;stroke-width:0.4;"/>
   </g>
   <g id="patch_7">
    <path clip-path="url(#p73fd7f5b8b)" d="M 88.589752 237.449403 
Q 234.396885 247.920987 380.204018 258.39257 
" style="fill:none;stroke:#000000;stroke-linecap:round;stroke-opacity:0.9;stroke-width:0.4;"/>
   </g>
   <g id="patch_8">
    <path clip-path="url(#p73fd7f5b8b)" d="M 162.374876 258.645817 
Q 198.390384 195.568514 234.405892 132.491211 
" style="fill:none;stroke:#000000;stroke-linecap:round;stroke-opacity:0.9;stroke-width:0.4;"/>
   </g>
   <g id="patch_9">
    <path clip-path="url(#p73fd7f5b8b)" d="M 162.374876 179.410805 
Q 271.284381 179.410805 380.193885 179.410805 
" style="fill:none;stroke:#000000;stroke-linecap:round;stroke-opacity:0.9;stroke-width:0.4;"/>
   </g>
   <g id="patch_10">
    <path clip-path="url(#p73fd7f5b8b)" d="M 162.374876 100.175793 
Q 198.390384 163.253096 234.405892 226.3304 
" style="fill:none;stroke:#000000;stroke-linecap:round;stroke-opacity:0.9;stroke-width:0.4;"/>
   </g>
   <g id="patch_11">
    <path clip-path="url(#p73fd7f5b8b)" d="M 236.16 229.402532 
Q 271.284944 229.402532 306.409887 229.402532 
" style="fill:none;stroke:#000000;stroke-linecap:round;stroke-opacity:0.9;stroke-width:0.4;"/>
   </g>
   <g id="patch_12">
    <path clip-path="url(#p73fd7f5b8b)" d="M 236.16 229.402532 
Q 308.272079 204.973439 380.384157 180.544346 
" style="fill:none;stroke:#000000;stroke-linecap:round;stroke-opacity:0.9;stroke-width:0.4;"/>
   </g>
   <g id="patch_13">
    <path clip-path="url(#p73fd7f5b8b)" d="M 236.16 129.419078 
Q 271.284944 129.419078 306.409887 129.419078 
" style="fill:none;stroke:#000000;stroke-linecap:round;stroke-opacity:0.9;stroke-width:0.4;"/>
   </g>
   <g id="patch_14">
    <path clip-path="url(#p73fd7f5b8b)" d="M 309.945124 229.402532 
Q 345.960632 166.325229 381.97614 103.247925 
" style="fill:none;stroke:#000000;stroke-linecap:round;stroke-opacity:0.9;stroke-width:0.4;"/>
   </g>
   <g id="patch_15">
    <path clip-path="url(#p73fd7f5b8b)" d="M 309.945124 129.419078 
Q 345.196165 115.44802 380.447206 101.476962 
" style="fill:none;stroke:#000000;stroke-linecap:round;stroke-opacity:0.9;stroke-width:0.4;"/>
   </g>
   <g id="PathCollection_1">
    <defs>
     <path d="M 0 3.535534 
C 0.937635 3.535534 1.836992 3.163008 2.5 2.5 
C 3.163008 1.836992 3.535534 0.937635 3.535534 0 
C 3.535534 -0.937635 3.163008 -1.836992 2.5 -2.5 
C 1.836992 -3.163008 0.937635 -3.535534 0 -3.535534 
C -0.937635 -3.535534 -1.836992 -3.163008 -2.5 -2.5 
C -3.163008 -1.836992 -3.535534 -0.937635 -3.535534 0 
C -3.535534 0.937635 -3.163008 1.836992 -2.5 2.5 
C -1.836992 3.163008 -0.937635 3.535534 0 3.535534 
z
" id="C0_0_3955da39f9"/>
    </defs>
    <g clip-path="url(#p73fd7f5b8b)">
     <use style="fill:#fdb462;fill-opacity:0.9;" x="88.589752" xlink:href="#C0_0_3955da39f9" y="63.33361"/>
    </g>
    <g clip-path="url(#p73fd7f5b8b)">
     <use style="fill:#fdb462;fill-opacity:0.9;" x="88.589752" xlink:href="#C0_0_3955da39f9" y="121.372208"/>
    </g>
    <g clip-path="url(#p73fd7f5b8b)">
     <use style="fill:#fdb462;fill-opacity:0.9;" x="88.589752" xlink:href="#C0_0_3955da39f9" y="179.410805"/>
    </g>
    <g clip-path="url(#p73fd7f5b8b)">
     <use style="fill:#fdb462;fill-opacity:0.9;" x="88.589752" xlink:href="#C0_0_3955da39f9" y="237.449403"/>
    </g>
    <g clip-path="url(#p73fd7f5b8b)">
     <use style="fill:#ffed6f;fill-opacity:0.9;" x="88.589752" xlink:href="#C0_0_3955da39f9" y="295.488"/>
    </g>
    <g clip-path="url(#p73fd7f5b8b)">
     <use style="fill:#80b1d3;fill-opacity:0.9;" x="162.374876" xlink:href="#C0_0_3955da39f9" y="258.645817"/>
    </g>
    <g clip-path="url(#p73fd7f5b8b)">
     <use style="fill:#80b1d3;fill-opacity:0.9;" x="162.374876" xlink:href="#C0_0_3955da39f9" y="179.410805"/>
    </g>
    <g clip-path="url(#p73fd7f5b8b)">
     <use style="fill:#80b1d3;fill-opacity:0.9;" x="162.374876" xlink:href="#C0_0_3955da39f9" y="100.175793"/>
    </g>
    <g clip-path="url(#p73fd7f5b8b)">
     <use style="fill:#80b1d3;fill-opacity:0.9;" x="236.16" xlink:href="#C0_0_3955da39f9" y="229.402532"/>
    </g>
    <g clip-path="url(#p73fd7f5b8b)">
     <use style="fill:#80b1d3;fill-opacity:0.9;" x="236.16" xlink:href="#C0_0_3955da39f9" y="129.419078"/>
    </g>
    <g clip-path="url(#p73fd7f5b8b)">
     <use style="fill:#80b1d3;fill-opacity:0.9;" x="309.945124" xlink:href="#C0_0_3955da39f9" y="229.402532"/>
    </g>
    <g clip-path="url(#p73fd7f5b8b)">
     <use style="fill:#80b1d3;fill-opacity:0.9;" x="309.945124" xlink:href="#C0_0_3955da39f9" y="129.419078"/>
    </g>
    <g clip-path="url(#p73fd7f5b8b)">
     <use style="fill:#b3de69;fill-opacity:0.9;" x="383.730248" xlink:href="#C0_0_3955da39f9" y="100.175793"/>
    </g>
    <g clip-path="url(#p73fd7f5b8b)">
     <use style="fill:#b3de69;fill-opacity:0.9;" x="383.730248" xlink:href="#C0_0_3955da39f9" y="179.410805"/>
    </g>
    <g clip-path="url(#p73fd7f5b8b)">
     <use style="fill:#b3de69;fill-opacity:0.9;" x="383.730248" xlink:href="#C0_0_3955da39f9" y="258.645817"/>
    </g>
   </g>
  </g>
 </g>
 <defs>
  <clipPath id="p73fd7f5b8b">
   <rect height="266.112" width="357.12" x="57.6" y="41.472"/>
  </clipPath>
 </defs>
</svg>
