<?xml version="1.0" encoding="utf-8" standalone="no"?>
<!DOCTYPE svg PUBLIC "-//W3C//DTD SVG 1.1//EN"
  "http://www.w3.org/Graphics/SVG/1.1/DTD/svg11.dtd">
<!-- Created with matplotlib (https://matplotlib.org/) -->
<svg height="345.6pt" version="1.1" viewBox="0 0 460.8 345.6" width="460.8pt" xmlns="http://www.w3.org/2000/svg" xmlns:xlink="http://www.w3.org/1999/xlink">
 <defs>
  <style type="text/css">
*{stroke-linecap:butt;stroke-linejoin:round;}
  </style>
 </defs>
 <g id="figure_1">
  <g id="patch_1">
   <path d="M 0 345.6 
L 460.8 345.6 
L 460.8 0 
L 0 0 
z
" style="fill:#ffffff;"/>
  </g>
  <g id="axes_1">
   <g id="patch_2">
    <path clip-path="url(#p3042839f25)" d="M 88.589752 63.33361 
Q 123.900464 80.964857 159.211177 98.596103 
" style="fill:none;stroke:#000000;stroke-linecap:round;stroke-opacity:0.9;stroke-width:0.4;"/>
   </g>
   <g id="patch_3">
    <path clip-path="url(#p3042839f25)" d="M 88.589752 179.410805 
Q 123.714696 179.410805 158.839639 179.410805 
" style="fill:none;stroke:#000000;stroke-linecap:round;stroke-opacity:0.9;stroke-width:0.4;"/>
   </g>
   <g id="patch_4">
    <path clip-path="url(#p3042839f25)" d="M 88.589752 237.449403 
Q 123.782248 247.559228 158.974744 257.669054 
" style="fill:none;stroke:#000000;stroke-linecap:round;stroke-opacity:0.9;stroke-width:0.4;"/>
   </g>
   <g id="patch_5">
    <path clip-path="url(#p3042839f25)" d="M 88.589752 237.449403 
Q 160.625272 247.796304 232.660791 258.143205 
" style="fill:none;stroke:#000000;stroke-linecap:round;stroke-opacity:0.9;stroke-width:0.4;"/>
   </g>
   <g id="patch_6">
    <path clip-path="url(#p3042839f25)" d="M 88.589752 237.449403 
Q 234.396885 247.920987 380.204018 258.39257 
" style="fill:none;stroke:#000000;stroke-linecap:round;stroke-opacity:0.9;stroke-width:0.4;"/>
   </g>
   <g id="patch_7">
    <path clip-path="url(#p3042839f25)" d="M 162.374876 179.410805 
Q 198.061629 141.088171 233.748383 102.765536 
" style="fill:none;stroke:#000000;stroke-linecap:round;stroke-opacity:0.9;stroke-width:0.4;"/>
   </g>
   <g id="patch_8">
    <path clip-path="url(#p3042839f25)" d="M 162.374876 258.645817 
Q 198.061629 220.323183 233.748383 182.000548 
" style="fill:none;stroke:#000000;stroke-linecap:round;stroke-opacity:0.9;stroke-width:0.4;"/>
   </g>
   <g id="patch_9">
    <path clip-path="url(#p3042839f25)" d="M 162.374876 100.175793 
Q 198.521548 177.80884 234.66822 255.441887 
" style="fill:none;stroke:#000000;stroke-linecap:round;stroke-opacity:0.9;stroke-width:0.4;"/>
   </g>
   <g id="patch_10">
    <path clip-path="url(#p3042839f25)" d="M 236.16 100.175793 
Q 308.177505 100.175793 380.195011 100.175793 
" style="fill:none;stroke:#000000;stroke-linecap:round;stroke-opacity:0.9;stroke-width:0.4;"/>
   </g>
   <g id="patch_11">
    <path clip-path="url(#p3042839f25)" d="M 236.16 258.645817 
Q 308.388043 219.864356 380.616087 181.082894 
" style="fill:none;stroke:#000000;stroke-linecap:round;stroke-opacity:0.9;stroke-width:0.4;"/>
   </g>
   <g id="patch_12">
    <path clip-path="url(#p3042839f25)" d="M 236.16 179.410805 
Q 271.284944 179.410805 306.409887 179.410805 
" style="fill:none;stroke:#000000;stroke-linecap:round;stroke-opacity:0.9;stroke-width:0.4;"/>
   </g>
   <g id="patch_13">
    <path clip-path="url(#p3042839f25)" d="M 309.945124 179.410805 
Q 345.631877 141.088171 381.318631 102.765536 
" style="fill:none;stroke:#000000;stroke-linecap:round;stroke-opacity:0.9;stroke-width:0.4;"/>
   </g>
   <g id="PathCollection_1">
    <defs>
     <path d="M 0 3.535534 
C 0.937635 3.535534 1.836992 3.163008 2.5 2.5 
C 3.163008 1.836992 3.535534 0.937635 3.535534 0 
C 3.535534 -0.937635 3.163008 -1.836992 2.5 -2.5 
C 1.836992 -3.163008 0.937635 -3.535534 0 -3.535534 
C -0.937635 -3.535534 -1.836992 -3.163008 -2.5 -2.5 
C -3.163008 -1.836992 -3.535534 -0.937635 -3.535534 0 
C -3.535534 0.937635 -3.163008 1.836992 -2.5 2.5 
C -1.836992 3.163008 -0.937635 3.535534 0 3.535534 
z
" id="C0_0_ed43270b26"/>
    </defs>
    <g clip-path="url(#p3042839f25)">
     <use style="fill:#fdb462;fill-opacity:0.9;" x="88.589752" xlink:href="#C0_0_ed43270b26" y="63.33361"/>
    </g>
    <g clip-path="url(#p3042839f25)">
     <use style="fill:#fdb462;fill-opacity:0.9;" x="88.589752" xlink:href="#C0_0_ed43270b26" y="121.372208"/>
    </g>
    <g clip-path="url(#p3042839f25)">
     <use style="fill:#fdb462;fill-opacity:0.9;" x="88.589752" xlink:href="#C0_0_ed43270b26" y="179.410805"/>
    </g>
    <g clip-path="url(#p3042839f25)">
     <use style="fill:#fdb462;fill-opacity:0.9;" x="88.589752" xlink:href="#C0_0_ed43270b26" y="237.449403"/>
    </g>
    <g clip-path="url(#p3042839f25)">
     <use style="fill:#ffed6f;fill-opacity:0.9;" x="88.589752" xlink:href="#C0_0_ed43270b26" y="295.488"/>
    </g>
    <g clip-path="url(#p3042839f25)">
     <use style="fill:#80b1d3;fill-opacity:0.9;" x="162.374876" xlink:href="#C0_0_ed43270b26" y="179.410805"/>
    </g>
    <g clip-path="url(#p3042839f25)">
     <use style="fill:#80b1d3;fill-opacity:0.9;" x="162.374876" xlink:href="#C0_0_ed43270b26" y="258.645817"/>
    </g>
    <g clip-path="url(#p3042839f25)">
     <use style="fill:#80b1d3;fill-opacity:0.9;" x="162.374876" xlink:href="#C0_0_ed43270b26" y="100.175793"/>
    </g>
    <g clip-path="url(#p3042839f25)">
     <use style="fill:#80b1d3;fill-opacity:0.9;" x="236.16" xlink:href="#C0_0_ed43270b26" y="100.175793"/>
    </g>
    <g clip-path="url(#p3042839f25)">
     <use style="fill:#80b1d3;fill-opacity:0.9;" x="236.16" xlink:href="#C0_0_ed43270b26" y="258.645817"/>
    </g>
    <g clip-path="url(#p3042839f25)">
     <use style="fill:#80b1d3;fill-opacity:0.9;" x="236.16" xlink:href="#C0_0_ed43270b26" y="179.410805"/>
    </g>
    <g clip-path="url(#p3042839f25)">
     <use style="fill:#80b1d3;fill-opacity:0.9;" x="309.945124" xlink:href="#C0_0_ed43270b26" y="179.410805"/>
    </g>
    <g clip-path="url(#p3042839f25)">
     <use style="fill:#b3de69;fill-opacity:0.9;" x="383.730248" xlink:href="#C0_0_ed43270b26" y="100.175793"/>
    </g>
    <g clip-path="url(#p3042839f25)">
     <use style="fill:#b3de69;fill-opacity:0.9;" x="383.730248" xlink:href="#C0_0_ed43270b26" y="179.410805"/>
    </g>
    <g clip-path="url(#p3042839f25)">
     <use style="fill:#b3de69;fill-opacity:0.9;" x="383.730248" xlink:href="#C0_0_ed43270b26" y="258.645817"/>
    </g>
   </g>
  </g>
 </g>
 <defs>
  <clipPath id="p3042839f25">
   <rect height="266.112" width="357.12" x="57.6" y="41.472"/>
  </clipPath>
 </defs>
</svg>
