<?xml version="1.0" encoding="utf-8" standalone="no"?>
<!DOCTYPE svg PUBLIC "-//W3C//DTD SVG 1.1//EN"
  "http://www.w3.org/Graphics/SVG/1.1/DTD/svg11.dtd">
<!-- Created with matplotlib (https://matplotlib.org/) -->
<svg height="345.6pt" version="1.1" viewBox="0 0 460.8 345.6" width="460.8pt" xmlns="http://www.w3.org/2000/svg" xmlns:xlink="http://www.w3.org/1999/xlink">
 <defs>
  <style type="text/css">
*{stroke-linecap:butt;stroke-linejoin:round;}
  </style>
 </defs>
 <g id="figure_1">
  <g id="patch_1">
   <path d="M 0 345.6 
L 460.8 345.6 
L 460.8 0 
L 0 0 
z
" style="fill:#ffffff;"/>
  </g>
  <g id="axes_1">
   <g id="patch_2">
    <path d="M 57.6 307.584 
L 414.72 307.584 
L 414.72 41.472 
L 57.6 41.472 
z
" style="fill:#ffffff;"/>
   </g>
   <g id="PolyCollection_1">
    <path clip-path="url(#p83a7408f3a)" d="M 73.832727 286.252021 
L 73.832727 287.505594 
L 75.464157 287.505594 
L 77.095587 287.505594 
L 78.727017 287.505594 
L 80.358447 287.505594 
L 81.989877 287.505594 
L 83.621307 287.505594 
L 85.252736 287.505594 
L 86.884166 287.505594 
L 88.515596 287.505594 
L 90.147026 287.505594 
L 91.778456 287.505594 
L 93.409886 287.505594 
L 95.041316 287.505594 
L 96.672746 287.505594 
L 98.304175 287.505594 
L 99.935605 287.505594 
L 101.567035 287.505594 
L 103.198465 287.505594 
L 104.829895 287.505594 
L 106.461325 287.505594 
L 108.092755 287.505594 
L 109.724185 287.505594 
L 111.355614 287.505594 
L 112.987044 287.505594 
L 114.618474 287.505594 
L 116.249904 287.505594 
L 117.881334 287.505594 
L 119.512764 287.505594 
L 121.144194 287.505594 
L 122.775624 287.505594 
L 124.407053 287.505594 
L 126.038483 287.505594 
L 127.669913 287.505594 
L 129.301343 287.505594 
L 130.932773 287.505594 
L 132.564203 287.505594 
L 134.195633 287.505594 
L 135.827063 287.505594 
L 137.458492 287.505594 
L 139.089922 287.505594 
L 140.721352 287.505594 
L 142.352782 287.505594 
L 143.984212 287.505594 
L 145.615642 287.505594 
L 147.247072 287.505594 
L 148.878502 287.505594 
L 150.509931 287.505594 
L 152.141361 287.505594 
L 153.772791 287.505594 
L 155.404221 287.505594 
L 157.035651 287.505594 
L 158.667081 287.505594 
L 160.298511 287.505594 
L 161.929941 287.505594 
L 163.56137 287.505594 
L 165.1928 287.505594 
L 166.82423 287.505594 
L 168.45566 287.505594 
L 170.08709 287.505594 
L 171.71852 287.505594 
L 173.34995 287.505594 
L 174.98138 287.505594 
L 176.61281 287.505594 
L 178.244239 287.505594 
L 179.875669 287.505594 
L 181.507099 287.505594 
L 183.138529 287.505594 
L 184.769959 287.505594 
L 186.401389 287.505594 
L 188.032819 287.505594 
L 189.664249 287.505594 
L 191.295678 287.505594 
L 192.927108 287.505594 
L 194.558538 287.505594 
L 196.189968 287.505594 
L 197.821398 287.505594 
L 199.452828 287.505594 
L 201.084258 287.505594 
L 202.715688 287.142961 
L 204.347117 287.504407 
L 205.978547 287.382914 
L 207.609977 286.764898 
L 209.241407 287.273598 
L 210.872837 287.565223 
L 212.504267 287.505594 
L 214.135697 287.374474 
L 215.767127 287.368824 
L 217.398556 288.194718 
L 219.029986 288.230844 
L 220.661416 288.09651 
L 222.292846 288.186982 
L 223.924276 287.158698 
L 225.555706 287.919029 
L 227.187136 290.144983 
L 228.818566 288.543471 
L 230.449995 287.578291 
L 232.081425 290.323162 
L 233.712855 289.463536 
L 235.344285 288.981071 
L 236.975715 289.317981 
L 238.607145 288.007268 
L 240.238575 286.972183 
L 241.870005 289.535002 
L 243.501434 290.431174 
L 245.132864 290.268862 
L 246.764294 289.558719 
L 248.395724 290.068168 
L 250.027154 289.691287 
L 251.658584 287.472505 
L 253.290014 289.386273 
L 254.921444 288.436416 
L 256.552873 287.653303 
L 258.184303 288.942503 
L 259.815733 290.08341 
L 261.447163 289.507797 
L 263.078593 291.19571 
L 264.710023 290.555926 
L 266.341453 289.311533 
L 267.972883 289.130512 
L 269.604312 288.726913 
L 271.235742 288.378121 
L 272.867172 289.787282 
L 274.498602 289.758768 
L 276.130032 288.724743 
L 277.761462 288.437548 
L 279.392892 289.279824 
L 281.024322 288.530431 
L 282.655751 289.961526 
L 284.287181 289.392935 
L 285.918611 290.649696 
L 287.550041 289.349859 
L 289.181471 289.803179 
L 290.812901 291.312499 
L 292.444331 288.986529 
L 294.075761 288.962681 
L 295.70719 289.265111 
L 297.33862 292.393449 
L 298.97005 291.275767 
L 300.60148 290.679298 
L 302.23291 289.202376 
L 303.86434 289.864725 
L 305.49577 289.730795 
L 307.1272 291.272871 
L 308.75863 289.658931 
L 310.390059 287.507897 
L 312.021489 290.532542 
L 313.652919 288.306905 
L 315.284349 289.045832 
L 316.915779 288.054432 
L 318.547209 290.203411 
L 320.178639 290.180542 
L 321.810069 292.025118 
L 323.441498 287.979399 
L 325.072928 289.900394 
L 326.704358 290.97788 
L 328.335788 289.743608 
L 329.967218 290.919648 
L 331.598648 290.232359 
L 333.230078 289.795638 
L 334.861508 291.057723 
L 336.492937 290.501179 
L 338.124367 288.972102 
L 339.755797 291.112513 
L 341.387227 292.570932 
L 343.018657 289.246422 
L 344.650087 290.596809 
L 346.281517 290.161544 
L 347.912947 290.760548 
L 349.544376 289.195326 
L 351.175806 290.579053 
L 352.807236 292.379613 
L 354.438666 289.488664 
L 356.070096 288.84322 
L 357.701526 290.523739 
L 359.332956 290.901008 
L 360.964386 290.594464 
L 362.595815 289.74264 
L 364.227245 290.157788 
L 365.858675 290.281651 
L 367.490105 290.218269 
L 369.121535 291.053872 
L 370.752965 290.812981 
L 372.384395 291.397891 
L 374.015825 292.304066 
L 375.647254 287.996506 
L 377.278684 290.206787 
L 378.910114 289.186092 
L 380.541544 288.49354 
L 382.172974 290.651989 
L 383.804404 289.155789 
L 385.435834 290.66651 
L 387.067264 290.301688 
L 388.698693 289.347924 
L 390.330123 290.518747 
L 391.961553 289.493717 
L 393.592983 288.95151 
L 395.224413 291.372674 
L 396.855843 290.462694 
L 398.487273 293.601231 
L 398.487273 217.779932 
L 398.487273 217.779932 
L 396.855843 286.271595 
L 395.224413 260.660639 
L 393.592983 287.478393 
L 391.961553 280.054996 
L 390.330123 287.250788 
L 388.698693 284.384102 
L 387.067264 287.505761 
L 385.435834 286.260084 
L 383.804404 281.696199 
L 382.172974 286.328951 
L 380.541544 286.854589 
L 378.910114 287.496551 
L 377.278684 287.583138 
L 375.647254 287.276035 
L 374.015825 280.319082 
L 372.384395 286.757282 
L 370.752965 286.701276 
L 369.121535 283.764649 
L 367.490105 282.350766 
L 365.858675 286.308051 
L 364.227245 285.001806 
L 362.595815 286.999964 
L 360.964386 285.218341 
L 359.332956 285.23427 
L 357.701526 281.26599 
L 356.070096 287.134918 
L 354.438666 285.750737 
L 352.807236 282.554844 
L 351.175806 284.944766 
L 349.544376 285.472011 
L 347.912947 283.095386 
L 346.281517 285.584003 
L 344.650087 285.038944 
L 343.018657 286.66993 
L 341.387227 285.807108 
L 339.755797 281.879092 
L 338.124367 287.275079 
L 336.492937 286.927346 
L 334.861508 285.465898 
L 333.230078 286.001488 
L 331.598648 285.789955 
L 329.967218 286.021002 
L 328.335788 286.722816 
L 326.704358 284.410312 
L 325.072928 287.082921 
L 323.441498 286.342357 
L 321.810069 286.246229 
L 320.178639 285.644213 
L 318.547209 284.652317 
L 316.915779 285.420036 
L 315.284349 285.735526 
L 313.652919 286.682975 
L 312.021489 284.751472 
L 310.390059 281.99814 
L 308.75863 286.453425 
L 307.1272 283.769 
L 305.49577 286.236179 
L 303.86434 283.531963 
L 302.23291 286.2942 
L 300.60148 287.073512 
L 298.97005 285.519948 
L 297.33862 286.119496 
L 295.70719 285.069984 
L 294.075761 286.067346 
L 292.444331 286.245772 
L 290.812901 283.373627 
L 289.181471 282.732403 
L 287.550041 285.839368 
L 285.918611 285.180788 
L 284.287181 286.451958 
L 282.655751 285.144884 
L 281.024322 285.562316 
L 279.392892 285.164106 
L 277.761462 287.163658 
L 276.130032 286.183982 
L 274.498602 285.940172 
L 272.867172 287.000317 
L 271.235742 285.607434 
L 269.604312 286.69638 
L 267.972883 284.955009 
L 266.341453 287.156471 
L 264.710023 286.961034 
L 263.078593 286.802376 
L 261.447163 284.174666 
L 259.815733 285.579232 
L 258.184303 285.105183 
L 256.552873 285.922998 
L 254.921444 286.308086 
L 253.290014 287.176195 
L 251.658584 286.501322 
L 250.027154 286.101323 
L 248.395724 286.747799 
L 246.764294 285.197049 
L 245.132864 284.719849 
L 243.501434 285.292466 
L 241.870005 285.514207 
L 240.238575 280.197229 
L 238.607145 286.513865 
L 236.975715 286.058128 
L 235.344285 286.833593 
L 233.712855 284.89885 
L 232.081425 284.678216 
L 230.449995 285.641125 
L 228.818566 286.133505 
L 227.187136 286.128658 
L 225.555706 287.140031 
L 223.924276 285.146618 
L 222.292846 285.117385 
L 220.661416 285.244332 
L 219.029986 280.837434 
L 217.398556 285.863189 
L 215.767127 274.668795 
L 214.135697 286.496365 
L 212.504267 283.270606 
L 210.872837 285.579707 
L 209.241407 282.453312 
L 207.609977 283.270458 
L 205.978547 285.526968 
L 204.347117 285.095044 
L 202.715688 282.630281 
L 201.084258 286.381982 
L 199.452828 286.252021 
L 197.821398 286.878807 
L 196.189968 286.565414 
L 194.558538 287.12404 
L 192.927108 286.878807 
L 191.295678 286.565414 
L 189.664249 286.878807 
L 188.032819 287.12404 
L 186.401389 287.12404 
L 184.769959 286.565414 
L 183.138529 286.878807 
L 181.507099 286.878807 
L 179.875669 286.878807 
L 178.244239 286.565414 
L 176.61281 285.938628 
L 174.98138 286.878807 
L 173.34995 287.12404 
L 171.71852 286.565414 
L 170.08709 287.192201 
L 168.45566 286.252021 
L 166.82423 286.878807 
L 165.1928 286.878807 
L 163.56137 286.878807 
L 161.929941 286.565414 
L 160.298511 287.12404 
L 158.667081 286.252021 
L 157.035651 286.252021 
L 155.404221 286.878807 
L 153.772791 286.565414 
L 152.141361 287.192201 
L 150.509931 286.252021 
L 148.878502 286.878807 
L 147.247072 287.12404 
L 145.615642 286.252021 
L 143.984212 286.878807 
L 142.352782 286.565414 
L 140.721352 286.565414 
L 139.089922 287.12404 
L 137.458492 287.12404 
L 135.827063 287.12404 
L 134.195633 286.878807 
L 132.564203 286.252021 
L 130.932773 286.252021 
L 129.301343 286.565414 
L 127.669913 286.565414 
L 126.038483 286.565414 
L 124.407053 286.565414 
L 122.775624 287.410205 
L 121.144194 286.906035 
L 119.512764 286.878807 
L 117.881334 286.252021 
L 116.249904 286.878807 
L 114.618474 287.192201 
L 112.987044 286.878807 
L 111.355614 286.565414 
L 109.724185 286.878807 
L 108.092755 286.906035 
L 106.461325 286.252021 
L 104.829895 287.12404 
L 103.198465 286.252021 
L 101.567035 287.12404 
L 99.935605 286.565414 
L 98.304175 286.565414 
L 96.672746 286.878807 
L 95.041316 287.192201 
L 93.409886 287.12404 
L 91.778456 287.192201 
L 90.147026 286.252021 
L 88.515596 286.878807 
L 86.884166 286.878807 
L 85.252736 286.878807 
L 83.621307 286.565414 
L 81.989877 287.12404 
L 80.358447 286.565414 
L 78.727017 286.565414 
L 77.095587 286.252021 
L 75.464157 286.878807 
L 73.832727 286.252021 
z
" style="fill:#1f77b4;fill-opacity:0.2;"/>
   </g>
   <g id="PolyCollection_2">
    <path clip-path="url(#p83a7408f3a)" d="M 73.832727 285.938628 
L 73.832727 287.505594 
L 75.464157 287.505594 
L 77.095587 287.505594 
L 78.727017 287.505594 
L 80.358447 287.505594 
L 81.989877 287.505594 
L 83.621307 287.505594 
L 85.252736 287.505594 
L 86.884166 287.505594 
L 88.515596 287.505594 
L 90.147026 287.505594 
L 91.778456 287.505594 
L 93.409886 287.505594 
L 95.041316 287.505594 
L 96.672746 287.505594 
L 98.304175 287.505594 
L 99.935605 287.505594 
L 101.567035 287.505594 
L 103.198465 287.505594 
L 104.829895 287.505594 
L 106.461325 287.505594 
L 108.092755 287.505594 
L 109.724185 287.505594 
L 111.355614 287.505594 
L 112.987044 287.505594 
L 114.618474 287.505594 
L 116.249904 287.505594 
L 117.881334 287.505594 
L 119.512764 287.505594 
L 121.144194 287.505594 
L 122.775624 287.505594 
L 124.407053 287.505594 
L 126.038483 287.505594 
L 127.669913 287.505594 
L 129.301343 287.505594 
L 130.932773 287.505594 
L 132.564203 287.505594 
L 134.195633 287.505594 
L 135.827063 287.505594 
L 137.458492 287.505594 
L 139.089922 287.505594 
L 140.721352 287.505594 
L 142.352782 287.505594 
L 143.984212 287.505594 
L 145.615642 287.505594 
L 147.247072 287.505594 
L 148.878502 287.505594 
L 150.509931 287.505594 
L 152.141361 287.505594 
L 153.772791 287.505594 
L 155.404221 287.505594 
L 157.035651 287.505594 
L 158.667081 287.505594 
L 160.298511 287.505594 
L 161.929941 287.505594 
L 163.56137 287.505594 
L 165.1928 287.505594 
L 166.82423 287.505594 
L 168.45566 287.505594 
L 170.08709 287.505594 
L 171.71852 287.505594 
L 173.34995 287.505594 
L 174.98138 287.505594 
L 176.61281 287.505594 
L 178.244239 287.505594 
L 179.875669 287.505594 
L 181.507099 287.505594 
L 183.138529 287.505594 
L 184.769959 287.505594 
L 186.401389 287.505594 
L 188.032819 287.505594 
L 189.664249 287.505594 
L 191.295678 287.505594 
L 192.927108 287.505594 
L 194.558538 287.505594 
L 196.189968 287.505594 
L 197.821398 287.505594 
L 199.452828 287.505594 
L 201.084258 287.505594 
L 202.715688 287.790283 
L 204.347117 287.511132 
L 205.978547 288.328015 
L 207.609977 288.315119 
L 209.241407 288.715143 
L 210.872837 289.792636 
L 212.504267 290.26215 
L 214.135697 290.193331 
L 215.767127 290.185106 
L 217.398556 290.192394 
L 219.029986 291.036991 
L 220.661416 289.893204 
L 222.292846 290.052627 
L 223.924276 290.095187 
L 225.555706 290.016648 
L 227.187136 292.200006 
L 228.818566 289.727091 
L 230.449995 289.6838 
L 232.081425 292.474384 
L 233.712855 290.28886 
L 235.344285 290.258902 
L 236.975715 290.45868 
L 238.607145 290.360639 
L 240.238575 293.072241 
L 241.870005 293.510895 
L 243.501434 292.832288 
L 245.132864 292.197906 
L 246.764294 291.636733 
L 248.395724 290.807283 
L 250.027154 290.762194 
L 251.658584 290.394572 
L 253.290014 290.68916 
L 254.921444 290.621245 
L 256.552873 290.524083 
L 258.184303 290.515716 
L 259.815733 291.802715 
L 261.447163 290.98101 
L 263.078593 292.939259 
L 264.710023 291.611564 
L 266.341453 290.91473 
L 267.972883 291.41322 
L 269.604312 290.868245 
L 271.235742 290.815941 
L 272.867172 290.922245 
L 274.498602 291.736409 
L 276.130032 291.152675 
L 277.761462 290.875313 
L 279.392892 290.983147 
L 281.024322 290.813719 
L 282.655751 291.95317 
L 284.287181 291.308602 
L 285.918611 292.332042 
L 287.550041 291.385194 
L 289.181471 291.23744 
L 290.812901 293.711929 
L 292.444331 291.319135 
L 294.075761 291.297674 
L 295.70719 291.275284 
L 297.33862 293.076182 
L 298.97005 292.641531 
L 300.60148 291.350205 
L 302.23291 291.310814 
L 303.86434 291.299298 
L 305.49577 291.529952 
L 307.1272 292.540169 
L 308.75863 291.523342 
L 310.390059 292.028237 
L 312.021489 292.478661 
L 313.652919 292.90462 
L 315.284349 291.507888 
L 316.915779 291.419815 
L 318.547209 292.780348 
L 320.178639 291.978585 
L 321.810069 292.687301 
L 323.441498 292.541435 
L 325.072928 292.496345 
L 326.704358 293.626405 
L 328.335788 291.632029 
L 329.967218 291.892774 
L 331.598648 291.70808 
L 333.230078 291.960252 
L 334.861508 292.885264 
L 336.492937 291.344691 
L 338.124367 290.901107 
L 339.755797 293.459322 
L 341.387227 293.388732 
L 343.018657 291.057419 
L 344.650087 292.256371 
L 346.281517 291.076361 
L 347.912947 292.733139 
L 349.544376 291.935863 
L 351.175806 292.362633 
L 352.807236 293.802876 
L 354.438666 291.208975 
L 356.070096 291.131592 
L 357.701526 292.986194 
L 359.332956 292.214681 
L 360.964386 292.505444 
L 362.595815 290.880645 
L 364.227245 290.869668 
L 365.858675 292.056431 
L 367.490105 291.859728 
L 369.121535 293.201843 
L 370.752965 292.468039 
L 372.384395 292.677743 
L 374.015825 295.488 
L 375.647254 290.923865 
L 377.278684 290.900504 
L 378.910114 290.841386 
L 380.541544 290.765323 
L 382.172974 291.525987 
L 383.804404 291.420626 
L 385.435834 292.62681 
L 387.067264 291.509042 
L 388.698693 291.442178 
L 390.330123 291.46918 
L 391.961553 291.310635 
L 393.592983 291.22613 
L 395.224413 293.297269 
L 396.855843 291.42328 
L 398.487273 295.146582 
L 398.487273 57.854245 
L 398.487273 57.854245 
L 396.855843 53.568 
L 395.224413 127.487975 
L 393.592983 168.96638 
L 391.961553 162.727497 
L 390.330123 184.332016 
L 388.698693 188.531358 
L 387.067264 133.831787 
L 385.435834 172.020365 
L 383.804404 184.421674 
L 382.172974 206.043946 
L 380.541544 246.205856 
L 378.910114 160.264551 
L 377.278684 240.610663 
L 375.647254 262.853485 
L 374.015825 57.483807 
L 372.384395 152.264936 
L 370.752965 208.588996 
L 369.121535 194.182232 
L 367.490105 179.245178 
L 365.858675 163.295095 
L 364.227245 172.676663 
L 362.595815 226.049572 
L 360.964386 161.125133 
L 359.332956 222.863634 
L 357.701526 138.196769 
L 356.070096 240.687376 
L 354.438666 235.528364 
L 352.807236 152.348392 
L 351.175806 223.522754 
L 349.544376 234.6033 
L 347.912947 168.616612 
L 346.281517 238.252472 
L 344.650087 247.740495 
L 343.018657 256.20262 
L 341.387227 231.518469 
L 339.755797 125.82422 
L 338.124367 264.173831 
L 336.492937 222.70949 
L 334.861508 228.69248 
L 333.230078 233.250368 
L 331.598648 171.554521 
L 329.967218 199.436022 
L 328.335788 210.049471 
L 326.704358 195.367168 
L 325.072928 223.145462 
L 323.441498 196.237229 
L 321.810069 211.75475 
L 320.178639 230.329281 
L 318.547209 249.947016 
L 316.915779 228.909807 
L 315.284349 195.041635 
L 313.652919 68.242784 
L 312.021489 167.194324 
L 310.390059 83.294538 
L 308.75863 154.840866 
L 307.1272 134.293027 
L 305.49577 192.694419 
L 303.86434 193.546062 
L 302.23291 194.737721 
L 300.60148 193.515845 
L 298.97005 175.14265 
L 297.33862 229.198262 
L 295.70719 207.847089 
L 294.075761 238.95292 
L 292.444331 242.191419 
L 290.812901 99.900252 
L 289.181471 172.50901 
L 287.550041 215.707452 
L 285.918611 164.690506 
L 284.287181 199.439483 
L 282.655751 222.319316 
L 281.024322 203.651232 
L 279.392892 218.03536 
L 277.761462 243.997686 
L 276.130032 233.559852 
L 274.498602 187.215662 
L 272.867172 228.860934 
L 271.235742 175.226701 
L 269.604312 226.171909 
L 267.972883 243.652817 
L 266.341453 145.521445 
L 264.710023 244.093858 
L 263.078593 201.51549 
L 261.447163 217.99506 
L 259.815733 230.938351 
L 258.184303 226.732005 
L 256.552873 200.278422 
L 254.921444 219.119027 
L 253.290014 264.503736 
L 251.658584 218.88523 
L 250.027154 233.953245 
L 248.395724 219.253641 
L 246.764294 194.59541 
L 245.132864 179.608104 
L 243.501434 203.096729 
L 241.870005 221.291319 
L 240.238575 128.486029 
L 238.607145 271.547267 
L 236.975715 206.470808 
L 235.344285 260.099445 
L 233.712855 184.88631 
L 232.081425 185.984801 
L 230.449995 224.155179 
L 228.818566 215.923196 
L 227.187136 179.261282 
L 225.555706 210.947674 
L 223.924276 168.111784 
L 222.292846 228.392999 
L 220.661416 249.087766 
L 219.029986 146.205503 
L 217.398556 255.808753 
L 215.767127 216.609566 
L 214.135697 255.01014 
L 212.504267 191.047645 
L 210.872837 217.510102 
L 209.241407 191.518315 
L 207.609977 228.080701 
L 205.978547 274.80319 
L 204.347117 236.03692 
L 202.715688 224.021164 
L 201.084258 230.245991 
L 199.452828 259.792258 
L 197.821398 285.938628 
L 196.189968 285.938628 
L 194.558538 285.938628 
L 192.927108 285.938628 
L 191.295678 285.938628 
L 189.664249 285.938628 
L 188.032819 285.938628 
L 186.401389 285.938628 
L 184.769959 285.938628 
L 183.138529 285.938628 
L 181.507099 285.938628 
L 179.875669 285.938628 
L 178.244239 285.938628 
L 176.61281 285.938628 
L 174.98138 285.938628 
L 173.34995 285.938628 
L 171.71852 285.938628 
L 170.08709 285.938628 
L 168.45566 285.938628 
L 166.82423 285.938628 
L 165.1928 285.938628 
L 163.56137 285.938628 
L 161.929941 285.938628 
L 160.298511 285.938628 
L 158.667081 285.938628 
L 157.035651 285.938628 
L 155.404221 285.938628 
L 153.772791 285.938628 
L 152.141361 285.938628 
L 150.509931 285.938628 
L 148.878502 285.938628 
L 147.247072 285.938628 
L 145.615642 285.938628 
L 143.984212 285.938628 
L 142.352782 285.938628 
L 140.721352 285.938628 
L 139.089922 285.938628 
L 137.458492 285.938628 
L 135.827063 285.938628 
L 134.195633 285.938628 
L 132.564203 285.938628 
L 130.932773 285.938628 
L 129.301343 285.938628 
L 127.669913 285.938628 
L 126.038483 285.938628 
L 124.407053 285.938628 
L 122.775624 285.938628 
L 121.144194 285.938628 
L 119.512764 285.938628 
L 117.881334 285.938628 
L 116.249904 285.938628 
L 114.618474 285.938628 
L 112.987044 285.938628 
L 111.355614 285.938628 
L 109.724185 285.938628 
L 108.092755 285.938628 
L 106.461325 285.938628 
L 104.829895 285.938628 
L 103.198465 285.938628 
L 101.567035 285.938628 
L 99.935605 285.938628 
L 98.304175 285.938628 
L 96.672746 285.938628 
L 95.041316 285.938628 
L 93.409886 285.938628 
L 91.778456 285.938628 
L 90.147026 285.938628 
L 88.515596 285.938628 
L 86.884166 285.938628 
L 85.252736 285.938628 
L 83.621307 285.938628 
L 81.989877 285.938628 
L 80.358447 285.938628 
L 78.727017 285.938628 
L 77.095587 285.938628 
L 75.464157 285.938628 
L 73.832727 285.938628 
z
" style="fill:#1f77b4;fill-opacity:0.1;"/>
   </g>
   <g id="matplotlib.axis_1">
    <g id="xtick_1">
     <g id="line2d_1">
      <defs>
       <path d="M 0 0 
L 0 3.5 
" id="md52ae4c895" style="stroke:#000000;stroke-width:0.8;"/>
      </defs>
      <g>
       <use style="stroke:#000000;stroke-width:0.8;" x="73.832727" xlink:href="#md52ae4c895" y="307.584"/>
      </g>
     </g>
     <g id="text_1">
      <!-- 0 -->
      <defs>
       <path d="M 31.78125 66.40625 
Q 24.171875 66.40625 20.328125 58.90625 
Q 16.5 51.421875 16.5 36.375 
Q 16.5 21.390625 20.328125 13.890625 
Q 24.171875 6.390625 31.78125 6.390625 
Q 39.453125 6.390625 43.28125 13.890625 
Q 47.125 21.390625 47.125 36.375 
Q 47.125 51.421875 43.28125 58.90625 
Q 39.453125 66.40625 31.78125 66.40625 
z
M 31.78125 74.21875 
Q 44.046875 74.21875 50.515625 64.515625 
Q 56.984375 54.828125 56.984375 36.375 
Q 56.984375 17.96875 50.515625 8.265625 
Q 44.046875 -1.421875 31.78125 -1.421875 
Q 19.53125 -1.421875 13.0625 8.265625 
Q 6.59375 17.96875 6.59375 36.375 
Q 6.59375 54.828125 13.0625 64.515625 
Q 19.53125 74.21875 31.78125 74.21875 
z
" id="DejaVuSans-48"/>
      </defs>
      <g transform="translate(70.651477 322.182437)scale(0.1 -0.1)">
       <use xlink:href="#DejaVuSans-48"/>
      </g>
     </g>
    </g>
    <g id="xtick_2">
     <g id="line2d_2">
      <g>
       <use style="stroke:#000000;stroke-width:0.8;" x="114.618474" xlink:href="#md52ae4c895" y="307.584"/>
      </g>
     </g>
     <g id="text_2">
      <!-- 25 -->
      <defs>
       <path d="M 19.1875 8.296875 
L 53.609375 8.296875 
L 53.609375 0 
L 7.328125 0 
L 7.328125 8.296875 
Q 12.9375 14.109375 22.625 23.890625 
Q 32.328125 33.6875 34.8125 36.53125 
Q 39.546875 41.84375 41.421875 45.53125 
Q 43.3125 49.21875 43.3125 52.78125 
Q 43.3125 58.59375 39.234375 62.25 
Q 35.15625 65.921875 28.609375 65.921875 
Q 23.96875 65.921875 18.8125 64.3125 
Q 13.671875 62.703125 7.8125 59.421875 
L 7.8125 69.390625 
Q 13.765625 71.78125 18.9375 73 
Q 24.125 74.21875 28.421875 74.21875 
Q 39.75 74.21875 46.484375 68.546875 
Q 53.21875 62.890625 53.21875 53.421875 
Q 53.21875 48.921875 51.53125 44.890625 
Q 49.859375 40.875 45.40625 35.40625 
Q 44.1875 33.984375 37.640625 27.21875 
Q 31.109375 20.453125 19.1875 8.296875 
z
" id="DejaVuSans-50"/>
       <path d="M 10.796875 72.90625 
L 49.515625 72.90625 
L 49.515625 64.59375 
L 19.828125 64.59375 
L 19.828125 46.734375 
Q 21.96875 47.46875 24.109375 47.828125 
Q 26.265625 48.1875 28.421875 48.1875 
Q 40.625 48.1875 47.75 41.5 
Q 54.890625 34.8125 54.890625 23.390625 
Q 54.890625 11.625 47.5625 5.09375 
Q 40.234375 -1.421875 26.90625 -1.421875 
Q 22.3125 -1.421875 17.546875 -0.640625 
Q 12.796875 0.140625 7.71875 1.703125 
L 7.71875 11.625 
Q 12.109375 9.234375 16.796875 8.0625 
Q 21.484375 6.890625 26.703125 6.890625 
Q 35.15625 6.890625 40.078125 11.328125 
Q 45.015625 15.765625 45.015625 23.390625 
Q 45.015625 31 40.078125 35.4375 
Q 35.15625 39.890625 26.703125 39.890625 
Q 22.75 39.890625 18.8125 39.015625 
Q 14.890625 38.140625 10.796875 36.28125 
z
" id="DejaVuSans-53"/>
      </defs>
      <g transform="translate(108.255974 322.182437)scale(0.1 -0.1)">
       <use xlink:href="#DejaVuSans-50"/>
       <use x="63.623047" xlink:href="#DejaVuSans-53"/>
      </g>
     </g>
    </g>
    <g id="xtick_3">
     <g id="line2d_3">
      <g>
       <use style="stroke:#000000;stroke-width:0.8;" x="155.404221" xlink:href="#md52ae4c895" y="307.584"/>
      </g>
     </g>
     <g id="text_3">
      <!-- 50 -->
      <g transform="translate(149.041721 322.182437)scale(0.1 -0.1)">
       <use xlink:href="#DejaVuSans-53"/>
       <use x="63.623047" xlink:href="#DejaVuSans-48"/>
      </g>
     </g>
    </g>
    <g id="xtick_4">
     <g id="line2d_4">
      <g>
       <use style="stroke:#000000;stroke-width:0.8;" x="196.189968" xlink:href="#md52ae4c895" y="307.584"/>
      </g>
     </g>
     <g id="text_4">
      <!-- 75 -->
      <defs>
       <path d="M 8.203125 72.90625 
L 55.078125 72.90625 
L 55.078125 68.703125 
L 28.609375 0 
L 18.3125 0 
L 43.21875 64.59375 
L 8.203125 64.59375 
z
" id="DejaVuSans-55"/>
      </defs>
      <g transform="translate(189.827468 322.182437)scale(0.1 -0.1)">
       <use xlink:href="#DejaVuSans-55"/>
       <use x="63.623047" xlink:href="#DejaVuSans-53"/>
      </g>
     </g>
    </g>
    <g id="xtick_5">
     <g id="line2d_5">
      <g>
       <use style="stroke:#000000;stroke-width:0.8;" x="236.975715" xlink:href="#md52ae4c895" y="307.584"/>
      </g>
     </g>
     <g id="text_5">
      <!-- 100 -->
      <defs>
       <path d="M 12.40625 8.296875 
L 28.515625 8.296875 
L 28.515625 63.921875 
L 10.984375 60.40625 
L 10.984375 69.390625 
L 28.421875 72.90625 
L 38.28125 72.90625 
L 38.28125 8.296875 
L 54.390625 8.296875 
L 54.390625 0 
L 12.40625 0 
z
" id="DejaVuSans-49"/>
      </defs>
      <g transform="translate(227.431965 322.182437)scale(0.1 -0.1)">
       <use xlink:href="#DejaVuSans-49"/>
       <use x="63.623047" xlink:href="#DejaVuSans-48"/>
       <use x="127.246094" xlink:href="#DejaVuSans-48"/>
      </g>
     </g>
    </g>
    <g id="xtick_6">
     <g id="line2d_6">
      <g>
       <use style="stroke:#000000;stroke-width:0.8;" x="277.761462" xlink:href="#md52ae4c895" y="307.584"/>
      </g>
     </g>
     <g id="text_6">
      <!-- 125 -->
      <g transform="translate(268.217712 322.182437)scale(0.1 -0.1)">
       <use xlink:href="#DejaVuSans-49"/>
       <use x="63.623047" xlink:href="#DejaVuSans-50"/>
       <use x="127.246094" xlink:href="#DejaVuSans-53"/>
      </g>
     </g>
    </g>
    <g id="xtick_7">
     <g id="line2d_7">
      <g>
       <use style="stroke:#000000;stroke-width:0.8;" x="318.547209" xlink:href="#md52ae4c895" y="307.584"/>
      </g>
     </g>
     <g id="text_7">
      <!-- 150 -->
      <g transform="translate(309.003459 322.182437)scale(0.1 -0.1)">
       <use xlink:href="#DejaVuSans-49"/>
       <use x="63.623047" xlink:href="#DejaVuSans-53"/>
       <use x="127.246094" xlink:href="#DejaVuSans-48"/>
      </g>
     </g>
    </g>
    <g id="xtick_8">
     <g id="line2d_8">
      <g>
       <use style="stroke:#000000;stroke-width:0.8;" x="359.332956" xlink:href="#md52ae4c895" y="307.584"/>
      </g>
     </g>
     <g id="text_8">
      <!-- 175 -->
      <g transform="translate(349.789206 322.182437)scale(0.1 -0.1)">
       <use xlink:href="#DejaVuSans-49"/>
       <use x="63.623047" xlink:href="#DejaVuSans-55"/>
       <use x="127.246094" xlink:href="#DejaVuSans-53"/>
      </g>
     </g>
    </g>
    <g id="xtick_9">
     <g id="line2d_9">
      <g>
       <use style="stroke:#000000;stroke-width:0.8;" x="400.118703" xlink:href="#md52ae4c895" y="307.584"/>
      </g>
     </g>
     <g id="text_9">
      <!-- 200 -->
      <g transform="translate(390.574953 322.182437)scale(0.1 -0.1)">
       <use xlink:href="#DejaVuSans-50"/>
       <use x="63.623047" xlink:href="#DejaVuSans-48"/>
       <use x="127.246094" xlink:href="#DejaVuSans-48"/>
      </g>
     </g>
    </g>
   </g>
   <g id="matplotlib.axis_2">
    <g id="ytick_1">
     <g id="line2d_10">
      <defs>
       <path d="M 0 0 
L -3.5 0 
" id="mefae55c8be" style="stroke:#000000;stroke-width:0.8;"/>
      </defs>
      <g>
       <use style="stroke:#000000;stroke-width:0.8;" x="57.6" xlink:href="#mefae55c8be" y="301.911464"/>
      </g>
     </g>
     <g id="text_10">
      <!-- 0.0 -->
      <defs>
       <path d="M 10.6875 12.40625 
L 21 12.40625 
L 21 0 
L 10.6875 0 
z
" id="DejaVuSans-46"/>
      </defs>
      <g transform="translate(34.696875 305.710683)scale(0.1 -0.1)">
       <use xlink:href="#DejaVuSans-48"/>
       <use x="63.623047" xlink:href="#DejaVuSans-46"/>
       <use x="95.410156" xlink:href="#DejaVuSans-48"/>
      </g>
     </g>
    </g>
    <g id="ytick_2">
     <g id="line2d_11">
      <g>
       <use style="stroke:#000000;stroke-width:0.8;" x="57.6" xlink:href="#mefae55c8be" y="269.129494"/>
      </g>
     </g>
     <g id="text_11">
      <!-- 2.5 -->
      <g transform="translate(34.696875 272.928712)scale(0.1 -0.1)">
       <use xlink:href="#DejaVuSans-50"/>
       <use x="63.623047" xlink:href="#DejaVuSans-46"/>
       <use x="95.410156" xlink:href="#DejaVuSans-53"/>
      </g>
     </g>
    </g>
    <g id="ytick_3">
     <g id="line2d_12">
      <g>
       <use style="stroke:#000000;stroke-width:0.8;" x="57.6" xlink:href="#mefae55c8be" y="236.347524"/>
      </g>
     </g>
     <g id="text_12">
      <!-- 5.0 -->
      <g transform="translate(34.696875 240.146742)scale(0.1 -0.1)">
       <use xlink:href="#DejaVuSans-53"/>
       <use x="63.623047" xlink:href="#DejaVuSans-46"/>
       <use x="95.410156" xlink:href="#DejaVuSans-48"/>
      </g>
     </g>
    </g>
    <g id="ytick_4">
     <g id="line2d_13">
      <g>
       <use style="stroke:#000000;stroke-width:0.8;" x="57.6" xlink:href="#mefae55c8be" y="203.565553"/>
      </g>
     </g>
     <g id="text_13">
      <!-- 7.5 -->
      <g transform="translate(34.696875 207.364772)scale(0.1 -0.1)">
       <use xlink:href="#DejaVuSans-55"/>
       <use x="63.623047" xlink:href="#DejaVuSans-46"/>
       <use x="95.410156" xlink:href="#DejaVuSans-53"/>
      </g>
     </g>
    </g>
    <g id="ytick_5">
     <g id="line2d_14">
      <g>
       <use style="stroke:#000000;stroke-width:0.8;" x="57.6" xlink:href="#mefae55c8be" y="170.783583"/>
      </g>
     </g>
     <g id="text_14">
      <!-- 10.0 -->
      <g transform="translate(28.334375 174.582802)scale(0.1 -0.1)">
       <use xlink:href="#DejaVuSans-49"/>
       <use x="63.623047" xlink:href="#DejaVuSans-48"/>
       <use x="127.246094" xlink:href="#DejaVuSans-46"/>
       <use x="159.033203" xlink:href="#DejaVuSans-48"/>
      </g>
     </g>
    </g>
    <g id="ytick_6">
     <g id="line2d_15">
      <g>
       <use style="stroke:#000000;stroke-width:0.8;" x="57.6" xlink:href="#mefae55c8be" y="138.001613"/>
      </g>
     </g>
     <g id="text_15">
      <!-- 12.5 -->
      <g transform="translate(28.334375 141.800832)scale(0.1 -0.1)">
       <use xlink:href="#DejaVuSans-49"/>
       <use x="63.623047" xlink:href="#DejaVuSans-50"/>
       <use x="127.246094" xlink:href="#DejaVuSans-46"/>
       <use x="159.033203" xlink:href="#DejaVuSans-53"/>
      </g>
     </g>
    </g>
    <g id="ytick_7">
     <g id="line2d_16">
      <g>
       <use style="stroke:#000000;stroke-width:0.8;" x="57.6" xlink:href="#mefae55c8be" y="105.219643"/>
      </g>
     </g>
     <g id="text_16">
      <!-- 15.0 -->
      <g transform="translate(28.334375 109.018862)scale(0.1 -0.1)">
       <use xlink:href="#DejaVuSans-49"/>
       <use x="63.623047" xlink:href="#DejaVuSans-53"/>
       <use x="127.246094" xlink:href="#DejaVuSans-46"/>
       <use x="159.033203" xlink:href="#DejaVuSans-48"/>
      </g>
     </g>
    </g>
    <g id="ytick_8">
     <g id="line2d_17">
      <g>
       <use style="stroke:#000000;stroke-width:0.8;" x="57.6" xlink:href="#mefae55c8be" y="72.437673"/>
      </g>
     </g>
     <g id="text_17">
      <!-- 17.5 -->
      <g transform="translate(28.334375 76.236892)scale(0.1 -0.1)">
       <use xlink:href="#DejaVuSans-49"/>
       <use x="63.623047" xlink:href="#DejaVuSans-55"/>
       <use x="127.246094" xlink:href="#DejaVuSans-46"/>
       <use x="159.033203" xlink:href="#DejaVuSans-53"/>
      </g>
     </g>
    </g>
   </g>
   <g id="line2d_18">
    <path clip-path="url(#p83a7408f3a)" d="M 73.832727 287.505594 
L 75.464157 287.505594 
L 77.095587 287.12404 
L 78.727017 287.505594 
L 86.884166 287.505594 
L 88.515596 287.314817 
L 90.147026 287.505594 
L 96.672746 287.505594 
L 98.304175 287.12404 
L 99.935605 287.505594 
L 101.567035 287.192201 
L 103.198465 287.505594 
L 108.092755 287.505594 
L 109.724185 287.314817 
L 111.355614 287.505594 
L 112.987044 287.12404 
L 114.618474 287.505594 
L 117.881334 287.505594 
L 119.512764 287.12404 
L 121.144194 287.505594 
L 124.407053 287.505594 
L 126.038483 287.314817 
L 127.669913 287.314817 
L 129.301343 287.505594 
L 130.932773 287.505594 
L 132.564203 287.314817 
L 134.195633 287.505594 
L 178.244239 287.505594 
L 179.875669 287.12404 
L 181.507099 287.12404 
L 184.769959 287.505594 
L 189.664249 287.505594 
L 191.295678 287.12404 
L 192.927108 287.505594 
L 194.558538 287.505594 
L 196.189968 287.12404 
L 197.821398 287.12404 
L 199.452828 287.505594 
L 201.084258 287.192201 
L 202.715688 286.412044 
L 205.978547 286.299632 
L 207.609977 285.735067 
L 209.241407 286.814687 
L 210.872837 286.660465 
L 212.504267 287.165343 
L 214.135697 287.123897 
L 215.767127 285.84822 
L 217.398556 287.33659 
L 219.029986 285.744013 
L 220.661416 287.303539 
L 223.924276 286.127284 
L 225.555706 287.722766 
L 227.187136 287.968704 
L 228.818566 287.575882 
L 230.449995 286.635998 
L 232.081425 287.144756 
L 233.712855 287.377299 
L 235.344285 287.936232 
L 236.975715 288.141923 
L 238.607145 287.5907 
L 240.238575 282.902552 
L 241.870005 286.815137 
L 245.132864 287.422099 
L 246.764294 286.839291 
L 248.395724 288.872107 
L 250.027154 288.332495 
L 251.658584 286.990401 
L 253.290014 288.041681 
L 254.921444 287.206489 
L 256.552873 286.774041 
L 258.184303 287.205918 
L 259.815733 287.505594 
L 261.447163 286.030891 
L 263.078593 287.629348 
L 264.710023 289.47271 
L 266.341453 288.171258 
L 267.972883 287.445891 
L 272.867172 287.682079 
L 274.498602 287.300564 
L 277.761462 287.623086 
L 279.392892 286.767587 
L 281.024322 287.483356 
L 282.655751 287.497546 
L 284.287181 287.197861 
L 285.918611 287.213312 
L 287.550041 286.865668 
L 289.181471 287.842411 
L 290.812901 285.985657 
L 292.444331 287.500252 
L 295.70719 287.265077 
L 297.33862 290.636882 
L 298.97005 287.426993 
L 300.60148 289.21684 
L 302.23291 287.720178 
L 303.86434 286.817342 
L 305.49577 287.664149 
L 307.1272 287.509529 
L 308.75863 288.435957 
L 310.390059 286.998308 
L 312.021489 287.505376 
L 313.652919 287.503819 
L 315.284349 286.40844 
L 316.915779 286.313263 
L 318.547209 286.678693 
L 320.178639 286.657135 
L 321.810069 287.997316 
L 323.441498 287.122782 
L 325.072928 288.279165 
L 326.704358 285.901265 
L 328.335788 288.870389 
L 329.967218 287.690449 
L 331.598648 288.250545 
L 333.230078 287.566873 
L 334.861508 287.058852 
L 336.492937 288.970207 
L 338.124367 288.24181 
L 339.755797 286.659437 
L 341.387227 290.52462 
L 343.018657 287.540098 
L 344.650087 286.582191 
L 346.281517 288.128086 
L 347.912947 285.293384 
L 349.544376 286.819426 
L 351.175806 287.322036 
L 352.807236 290.301689 
L 354.438666 287.002419 
L 356.070096 287.754938 
L 357.701526 285.769523 
L 359.332956 287.37499 
L 360.964386 286.851619 
L 362.595815 287.714358 
L 364.227245 287.492907 
L 367.490105 287.389496 
L 369.121535 287.533077 
L 370.752965 288.081859 
L 372.384395 288.374931 
L 374.015825 287.506023 
L 375.647254 287.757234 
L 377.278684 289.297427 
L 378.910114 288.271335 
L 380.541544 288.166496 
L 382.172974 289.663688 
L 383.804404 287.505697 
L 385.435834 287.504344 
L 387.067264 289.482839 
L 388.698693 287.486138 
L 390.330123 289.893256 
L 391.961553 287.515254 
L 393.592983 288.281282 
L 395.224413 287.785944 
L 396.855843 287.505587 
L 398.487273 287.505594 
L 398.487273 287.505594 
" style="fill:none;stroke:#1f77b4;stroke-linecap:square;stroke-width:0.25;"/>
   </g>
   <g id="line2d_19">
    <path clip-path="url(#p83a7408f3a)" d="M 73.832727 287.054715 
L 75.464157 287.135649 
L 77.095587 286.892973 
L 78.727017 287.099813 
L 80.358447 287.015878 
L 81.989877 287.235253 
L 83.621307 286.993807 
L 85.252736 287.162491 
L 90.147026 287.074741 
L 91.778456 287.177346 
L 93.409886 287.139872 
L 95.041316 287.272861 
L 96.672746 287.071607 
L 98.304175 286.999527 
L 101.567035 287.105399 
L 103.198465 287.033593 
L 104.829895 287.156631 
L 106.461325 287.005113 
L 109.724185 287.099813 
L 112.987044 286.982768 
L 114.618474 287.244248 
L 117.881334 287.035637 
L 121.144194 287.080735 
L 122.775624 287.267956 
L 124.407053 287.010973 
L 127.669913 287.048307 
L 129.301343 287.086595 
L 132.564203 286.953199 
L 134.195633 287.168626 
L 143.984212 287.110985 
L 145.615642 286.955926 
L 148.878502 287.177753 
L 150.509931 287.090411 
L 152.141361 287.158542 
L 153.772791 287.078149 
L 155.404221 287.149956 
L 158.667081 286.952792 
L 160.298511 287.223125 
L 161.929941 287.091092 
L 165.1928 287.121069 
L 166.82423 287.104991 
L 168.45566 286.906057 
L 170.08709 287.203506 
L 171.71852 287.030459 
L 173.34995 287.140961 
L 174.98138 287.137012 
L 176.61281 286.977863 
L 178.244239 287.072015 
L 179.875669 286.958786 
L 183.138529 287.092863 
L 184.769959 287.042994 
L 189.664249 287.147229 
L 191.295678 286.974048 
L 194.558538 287.226667 
L 196.189968 286.96778 
L 197.821398 287.035363 
L 199.452828 286.473843 
L 201.084258 285.107474 
L 202.715688 281.658327 
L 204.347117 285.116217 
L 205.978547 285.379608 
L 207.609977 283.12335 
L 209.241407 282.031639 
L 210.872837 283.863609 
L 212.504267 281.571965 
L 214.135697 285.037396 
L 215.767127 279.411452 
L 217.398556 284.447685 
L 219.029986 276.486447 
L 220.661416 285.635486 
L 222.292846 283.653602 
L 223.924276 281.392161 
L 225.555706 285.953912 
L 227.187136 282.685382 
L 228.818566 284.94397 
L 230.449995 282.970188 
L 232.081425 281.847762 
L 233.712855 283.6201 
L 235.344285 286.436328 
L 236.975715 283.860895 
L 238.607145 286.957902 
L 240.238575 275.95057 
L 241.870005 284.961537 
L 243.501434 282.336712 
L 245.132864 283.037314 
L 246.764294 283.454644 
L 248.395724 284.131357 
L 250.027154 286.17333 
L 251.658584 285.768677 
L 253.290014 287.02321 
L 254.921444 285.727851 
L 256.552873 283.723212 
L 258.184303 283.388428 
L 259.815733 284.81747 
L 261.447163 283.295554 
L 263.078593 284.064291 
L 264.710023 285.484292 
L 266.341453 280.808357 
L 267.972883 283.951953 
L 269.604312 284.313033 
L 271.235742 283.078697 
L 272.867172 286.643509 
L 274.498602 283.19533 
L 276.130032 284.30624 
L 277.761462 286.468552 
L 279.392892 284.158512 
L 281.024322 283.122333 
L 282.655751 282.387233 
L 284.287181 285.211538 
L 285.918611 281.340063 
L 287.550041 284.393528 
L 289.181471 280.126785 
L 290.812901 281.386918 
L 292.444331 285.377808 
L 294.075761 286.213208 
L 295.70719 281.796358 
L 297.33862 286.235367 
L 298.97005 281.895945 
L 300.60148 286.4836 
L 302.23291 283.306236 
L 303.86434 279.025778 
L 305.49577 283.291797 
L 307.1272 279.014727 
L 308.75863 284.860176 
L 310.390059 267.992688 
L 312.021489 279.926609 
L 313.652919 282.550196 
L 315.284349 282.031251 
L 316.915779 283.160095 
L 318.547209 285.398991 
L 320.178639 285.298813 
L 321.810069 285.60248 
L 323.441498 283.718666 
L 325.072928 286.711689 
L 326.704358 283.816299 
L 328.335788 285.687071 
L 329.967218 284.301996 
L 331.598648 284.67312 
L 333.230078 284.779674 
L 334.861508 283.850401 
L 336.492937 287.068656 
L 338.124367 287.454526 
L 339.755797 282.606299 
L 341.387227 285.807159 
L 343.018657 287.274296 
L 344.650087 284.137665 
L 346.281517 285.563082 
L 347.912947 280.174135 
L 349.544376 283.893096 
L 351.175806 283.752374 
L 352.807236 280.928505 
L 354.438666 285.37997 
L 356.070096 286.616472 
L 357.701526 281.327558 
L 359.332956 284.826648 
L 360.964386 282.514678 
L 362.595815 286.230619 
L 364.227245 283.384413 
L 365.858675 284.179566 
L 367.490105 283.483823 
L 369.121535 279.004634 
L 370.752965 282.347309 
L 372.384395 285.391215 
L 374.015825 278.158817 
L 375.647254 286.776894 
L 377.278684 287.959889 
L 378.910114 284.833841 
L 380.541544 285.101972 
L 382.172974 280.400774 
L 383.804404 283.235326 
L 385.435834 278.361289 
L 387.067264 280.539333 
L 388.698693 280.805203 
L 390.330123 283.637012 
L 391.961553 279.469345 
L 393.592983 283.598131 
L 395.224413 271.086979 
L 396.855843 278.104043 
L 398.487273 260.017312 
L 398.487273 260.017312 
" style="fill:none;stroke:#2ca02c;stroke-linecap:square;stroke-width:0.75;"/>
   </g>
   <g id="patch_3">
    <path d="M 57.6 307.584 
L 57.6 41.472 
" style="fill:none;stroke:#000000;stroke-linecap:square;stroke-linejoin:miter;stroke-width:0.8;"/>
   </g>
   <g id="patch_4">
    <path d="M 414.72 307.584 
L 414.72 41.472 
" style="fill:none;stroke:#000000;stroke-linecap:square;stroke-linejoin:miter;stroke-width:0.8;"/>
   </g>
   <g id="patch_5">
    <path d="M 57.6 307.584 
L 414.72 307.584 
" style="fill:none;stroke:#000000;stroke-linecap:square;stroke-linejoin:miter;stroke-width:0.8;"/>
   </g>
   <g id="patch_6">
    <path d="M 57.6 41.472 
L 414.72 41.472 
" style="fill:none;stroke:#000000;stroke-linecap:square;stroke-linejoin:miter;stroke-width:0.8;"/>
   </g>
   <g id="legend_1">
    <g id="patch_7">
     <path d="M 338.234063 78.82825 
L 407.72 78.82825 
Q 409.72 78.82825 409.72 76.82825 
L 409.72 48.472 
Q 409.72 46.472 407.72 46.472 
L 338.234063 46.472 
Q 336.234063 46.472 336.234063 48.472 
L 336.234063 76.82825 
Q 336.234063 78.82825 338.234063 78.82825 
z
" style="fill:#ffffff;opacity:0.8;stroke:#cccccc;stroke-linejoin:miter;"/>
    </g>
    <g id="line2d_20">
     <path d="M 340.234063 54.570437 
L 360.234063 54.570437 
" style="fill:none;stroke:#1f77b4;stroke-linecap:square;stroke-width:0.25;"/>
    </g>
    <g id="line2d_21"/>
    <g id="text_18">
     <!-- median -->
     <defs>
      <path d="M 52 44.1875 
Q 55.375 50.25 60.0625 53.125 
Q 64.75 56 71.09375 56 
Q 79.640625 56 84.28125 50.015625 
Q 88.921875 44.046875 88.921875 33.015625 
L 88.921875 0 
L 79.890625 0 
L 79.890625 32.71875 
Q 79.890625 40.578125 77.09375 44.375 
Q 74.3125 48.1875 68.609375 48.1875 
Q 61.625 48.1875 57.5625 43.546875 
Q 53.515625 38.921875 53.515625 30.90625 
L 53.515625 0 
L 44.484375 0 
L 44.484375 32.71875 
Q 44.484375 40.625 41.703125 44.40625 
Q 38.921875 48.1875 33.109375 48.1875 
Q 26.21875 48.1875 22.15625 43.53125 
Q 18.109375 38.875 18.109375 30.90625 
L 18.109375 0 
L 9.078125 0 
L 9.078125 54.6875 
L 18.109375 54.6875 
L 18.109375 46.1875 
Q 21.1875 51.21875 25.484375 53.609375 
Q 29.78125 56 35.6875 56 
Q 41.65625 56 45.828125 52.96875 
Q 50 49.953125 52 44.1875 
z
" id="DejaVuSans-109"/>
      <path d="M 56.203125 29.59375 
L 56.203125 25.203125 
L 14.890625 25.203125 
Q 15.484375 15.921875 20.484375 11.0625 
Q 25.484375 6.203125 34.421875 6.203125 
Q 39.59375 6.203125 44.453125 7.46875 
Q 49.3125 8.734375 54.109375 11.28125 
L 54.109375 2.78125 
Q 49.265625 0.734375 44.1875 -0.34375 
Q 39.109375 -1.421875 33.890625 -1.421875 
Q 20.796875 -1.421875 13.15625 6.1875 
Q 5.515625 13.8125 5.515625 26.8125 
Q 5.515625 40.234375 12.765625 48.109375 
Q 20.015625 56 32.328125 56 
Q 43.359375 56 49.78125 48.890625 
Q 56.203125 41.796875 56.203125 29.59375 
z
M 47.21875 32.234375 
Q 47.125 39.59375 43.09375 43.984375 
Q 39.0625 48.390625 32.421875 48.390625 
Q 24.90625 48.390625 20.390625 44.140625 
Q 15.875 39.890625 15.1875 32.171875 
z
" id="DejaVuSans-101"/>
      <path d="M 45.40625 46.390625 
L 45.40625 75.984375 
L 54.390625 75.984375 
L 54.390625 0 
L 45.40625 0 
L 45.40625 8.203125 
Q 42.578125 3.328125 38.25 0.953125 
Q 33.9375 -1.421875 27.875 -1.421875 
Q 17.96875 -1.421875 11.734375 6.484375 
Q 5.515625 14.40625 5.515625 27.296875 
Q 5.515625 40.1875 11.734375 48.09375 
Q 17.96875 56 27.875 56 
Q 33.9375 56 38.25 53.625 
Q 42.578125 51.265625 45.40625 46.390625 
z
M 14.796875 27.296875 
Q 14.796875 17.390625 18.875 11.75 
Q 22.953125 6.109375 30.078125 6.109375 
Q 37.203125 6.109375 41.296875 11.75 
Q 45.40625 17.390625 45.40625 27.296875 
Q 45.40625 37.203125 41.296875 42.84375 
Q 37.203125 48.484375 30.078125 48.484375 
Q 22.953125 48.484375 18.875 42.84375 
Q 14.796875 37.203125 14.796875 27.296875 
z
" id="DejaVuSans-100"/>
      <path d="M 9.421875 54.6875 
L 18.40625 54.6875 
L 18.40625 0 
L 9.421875 0 
z
M 9.421875 75.984375 
L 18.40625 75.984375 
L 18.40625 64.59375 
L 9.421875 64.59375 
z
" id="DejaVuSans-105"/>
      <path d="M 34.28125 27.484375 
Q 23.390625 27.484375 19.1875 25 
Q 14.984375 22.515625 14.984375 16.5 
Q 14.984375 11.71875 18.140625 8.90625 
Q 21.296875 6.109375 26.703125 6.109375 
Q 34.1875 6.109375 38.703125 11.40625 
Q 43.21875 16.703125 43.21875 25.484375 
L 43.21875 27.484375 
z
M 52.203125 31.203125 
L 52.203125 0 
L 43.21875 0 
L 43.21875 8.296875 
Q 40.140625 3.328125 35.546875 0.953125 
Q 30.953125 -1.421875 24.3125 -1.421875 
Q 15.921875 -1.421875 10.953125 3.296875 
Q 6 8.015625 6 15.921875 
Q 6 25.140625 12.171875 29.828125 
Q 18.359375 34.515625 30.609375 34.515625 
L 43.21875 34.515625 
L 43.21875 35.40625 
Q 43.21875 41.609375 39.140625 45 
Q 35.0625 48.390625 27.6875 48.390625 
Q 23 48.390625 18.546875 47.265625 
Q 14.109375 46.140625 10.015625 43.890625 
L 10.015625 52.203125 
Q 14.9375 54.109375 19.578125 55.046875 
Q 24.21875 56 28.609375 56 
Q 40.484375 56 46.34375 49.84375 
Q 52.203125 43.703125 52.203125 31.203125 
z
" id="DejaVuSans-97"/>
      <path d="M 54.890625 33.015625 
L 54.890625 0 
L 45.90625 0 
L 45.90625 32.71875 
Q 45.90625 40.484375 42.875 44.328125 
Q 39.84375 48.1875 33.796875 48.1875 
Q 26.515625 48.1875 22.3125 43.546875 
Q 18.109375 38.921875 18.109375 30.90625 
L 18.109375 0 
L 9.078125 0 
L 9.078125 54.6875 
L 18.109375 54.6875 
L 18.109375 46.1875 
Q 21.34375 51.125 25.703125 53.5625 
Q 30.078125 56 35.796875 56 
Q 45.21875 56 50.046875 50.171875 
Q 54.890625 44.34375 54.890625 33.015625 
z
" id="DejaVuSans-110"/>
     </defs>
     <g transform="translate(368.234063 58.070437)scale(0.1 -0.1)">
      <use xlink:href="#DejaVuSans-109"/>
      <use x="97.412109" xlink:href="#DejaVuSans-101"/>
      <use x="158.935547" xlink:href="#DejaVuSans-100"/>
      <use x="222.412109" xlink:href="#DejaVuSans-105"/>
      <use x="250.195312" xlink:href="#DejaVuSans-97"/>
      <use x="311.474609" xlink:href="#DejaVuSans-110"/>
     </g>
    </g>
    <g id="line2d_22">
     <path d="M 340.234063 69.248562 
L 360.234063 69.248562 
" style="fill:none;stroke:#2ca02c;stroke-linecap:square;stroke-width:0.75;"/>
    </g>
    <g id="line2d_23"/>
    <g id="text_19">
     <!-- mean -->
     <g transform="translate(368.234063 72.748562)scale(0.1 -0.1)">
      <use xlink:href="#DejaVuSans-109"/>
      <use x="97.412109" xlink:href="#DejaVuSans-101"/>
      <use x="158.935547" xlink:href="#DejaVuSans-97"/>
      <use x="220.214844" xlink:href="#DejaVuSans-110"/>
     </g>
    </g>
   </g>
  </g>
  <g id="text_20">
   <!-- log_loss.mean over generations -->
   <defs>
    <path d="M 9.421875 75.984375 
L 18.40625 75.984375 
L 18.40625 0 
L 9.421875 0 
z
" id="DejaVuSans-108"/>
    <path d="M 30.609375 48.390625 
Q 23.390625 48.390625 19.1875 42.75 
Q 14.984375 37.109375 14.984375 27.296875 
Q 14.984375 17.484375 19.15625 11.84375 
Q 23.34375 6.203125 30.609375 6.203125 
Q 37.796875 6.203125 41.984375 11.859375 
Q 46.1875 17.53125 46.1875 27.296875 
Q 46.1875 37.015625 41.984375 42.703125 
Q 37.796875 48.390625 30.609375 48.390625 
z
M 30.609375 56 
Q 42.328125 56 49.015625 48.375 
Q 55.71875 40.765625 55.71875 27.296875 
Q 55.71875 13.875 49.015625 6.21875 
Q 42.328125 -1.421875 30.609375 -1.421875 
Q 18.84375 -1.421875 12.171875 6.21875 
Q 5.515625 13.875 5.515625 27.296875 
Q 5.515625 40.765625 12.171875 48.375 
Q 18.84375 56 30.609375 56 
z
" id="DejaVuSans-111"/>
    <path d="M 45.40625 27.984375 
Q 45.40625 37.75 41.375 43.109375 
Q 37.359375 48.484375 30.078125 48.484375 
Q 22.859375 48.484375 18.828125 43.109375 
Q 14.796875 37.75 14.796875 27.984375 
Q 14.796875 18.265625 18.828125 12.890625 
Q 22.859375 7.515625 30.078125 7.515625 
Q 37.359375 7.515625 41.375 12.890625 
Q 45.40625 18.265625 45.40625 27.984375 
z
M 54.390625 6.78125 
Q 54.390625 -7.171875 48.1875 -13.984375 
Q 42 -20.796875 29.203125 -20.796875 
Q 24.46875 -20.796875 20.265625 -20.09375 
Q 16.0625 -19.390625 12.109375 -17.921875 
L 12.109375 -9.1875 
Q 16.0625 -11.328125 19.921875 -12.34375 
Q 23.78125 -13.375 27.78125 -13.375 
Q 36.625 -13.375 41.015625 -8.765625 
Q 45.40625 -4.15625 45.40625 5.171875 
L 45.40625 9.625 
Q 42.625 4.78125 38.28125 2.390625 
Q 33.9375 0 27.875 0 
Q 17.828125 0 11.671875 7.65625 
Q 5.515625 15.328125 5.515625 27.984375 
Q 5.515625 40.671875 11.671875 48.328125 
Q 17.828125 56 27.875 56 
Q 33.9375 56 38.28125 53.609375 
Q 42.625 51.21875 45.40625 46.390625 
L 45.40625 54.6875 
L 54.390625 54.6875 
z
" id="DejaVuSans-103"/>
    <path d="M 50.984375 -16.609375 
L 50.984375 -23.578125 
L -0.984375 -23.578125 
L -0.984375 -16.609375 
z
" id="DejaVuSans-95"/>
    <path d="M 44.28125 53.078125 
L 44.28125 44.578125 
Q 40.484375 46.53125 36.375 47.5 
Q 32.28125 48.484375 27.875 48.484375 
Q 21.1875 48.484375 17.84375 46.4375 
Q 14.5 44.390625 14.5 40.28125 
Q 14.5 37.15625 16.890625 35.375 
Q 19.28125 33.59375 26.515625 31.984375 
L 29.59375 31.296875 
Q 39.15625 29.25 43.1875 25.515625 
Q 47.21875 21.78125 47.21875 15.09375 
Q 47.21875 7.46875 41.1875 3.015625 
Q 35.15625 -1.421875 24.609375 -1.421875 
Q 20.21875 -1.421875 15.453125 -0.5625 
Q 10.6875 0.296875 5.421875 2 
L 5.421875 11.28125 
Q 10.40625 8.6875 15.234375 7.390625 
Q 20.0625 6.109375 24.8125 6.109375 
Q 31.15625 6.109375 34.5625 8.28125 
Q 37.984375 10.453125 37.984375 14.40625 
Q 37.984375 18.0625 35.515625 20.015625 
Q 33.0625 21.96875 24.703125 23.78125 
L 21.578125 24.515625 
Q 13.234375 26.265625 9.515625 29.90625 
Q 5.8125 33.546875 5.8125 39.890625 
Q 5.8125 47.609375 11.28125 51.796875 
Q 16.75 56 26.8125 56 
Q 31.78125 56 36.171875 55.265625 
Q 40.578125 54.546875 44.28125 53.078125 
z
" id="DejaVuSans-115"/>
    <path id="DejaVuSans-32"/>
    <path d="M 2.984375 54.6875 
L 12.5 54.6875 
L 29.59375 8.796875 
L 46.6875 54.6875 
L 56.203125 54.6875 
L 35.6875 0 
L 23.484375 0 
z
" id="DejaVuSans-118"/>
    <path d="M 41.109375 46.296875 
Q 39.59375 47.171875 37.8125 47.578125 
Q 36.03125 48 33.890625 48 
Q 26.265625 48 22.1875 43.046875 
Q 18.109375 38.09375 18.109375 28.8125 
L 18.109375 0 
L 9.078125 0 
L 9.078125 54.6875 
L 18.109375 54.6875 
L 18.109375 46.1875 
Q 20.953125 51.171875 25.484375 53.578125 
Q 30.03125 56 36.53125 56 
Q 37.453125 56 38.578125 55.875 
Q 39.703125 55.765625 41.0625 55.515625 
z
" id="DejaVuSans-114"/>
    <path d="M 18.3125 70.21875 
L 18.3125 54.6875 
L 36.8125 54.6875 
L 36.8125 47.703125 
L 18.3125 47.703125 
L 18.3125 18.015625 
Q 18.3125 11.328125 20.140625 9.421875 
Q 21.96875 7.515625 27.59375 7.515625 
L 36.8125 7.515625 
L 36.8125 0 
L 27.59375 0 
Q 17.1875 0 13.234375 3.875 
Q 9.28125 7.765625 9.28125 18.015625 
L 9.28125 47.703125 
L 2.6875 47.703125 
L 2.6875 54.6875 
L 9.28125 54.6875 
L 9.28125 70.21875 
z
" id="DejaVuSans-116"/>
   </defs>
   <g transform="translate(134.789062 16.030125)scale(0.12 -0.12)">
    <use xlink:href="#DejaVuSans-108"/>
    <use x="27.783203" xlink:href="#DejaVuSans-111"/>
    <use x="88.964844" xlink:href="#DejaVuSans-103"/>
    <use x="152.441406" xlink:href="#DejaVuSans-95"/>
    <use x="202.441406" xlink:href="#DejaVuSans-108"/>
    <use x="230.224609" xlink:href="#DejaVuSans-111"/>
    <use x="291.40625" xlink:href="#DejaVuSans-115"/>
    <use x="343.505859" xlink:href="#DejaVuSans-115"/>
    <use x="395.605469" xlink:href="#DejaVuSans-46"/>
    <use x="427.392578" xlink:href="#DejaVuSans-109"/>
    <use x="524.804688" xlink:href="#DejaVuSans-101"/>
    <use x="586.328125" xlink:href="#DejaVuSans-97"/>
    <use x="647.607422" xlink:href="#DejaVuSans-110"/>
    <use x="710.986328" xlink:href="#DejaVuSans-32"/>
    <use x="742.773438" xlink:href="#DejaVuSans-111"/>
    <use x="803.955078" xlink:href="#DejaVuSans-118"/>
    <use x="863.134766" xlink:href="#DejaVuSans-101"/>
    <use x="924.658203" xlink:href="#DejaVuSans-114"/>
    <use x="965.771484" xlink:href="#DejaVuSans-32"/>
    <use x="997.558594" xlink:href="#DejaVuSans-103"/>
    <use x="1061.035156" xlink:href="#DejaVuSans-101"/>
    <use x="1122.558594" xlink:href="#DejaVuSans-110"/>
    <use x="1185.9375" xlink:href="#DejaVuSans-101"/>
    <use x="1247.460938" xlink:href="#DejaVuSans-114"/>
    <use x="1288.574219" xlink:href="#DejaVuSans-97"/>
    <use x="1349.853516" xlink:href="#DejaVuSans-116"/>
    <use x="1389.0625" xlink:href="#DejaVuSans-105"/>
    <use x="1416.845703" xlink:href="#DejaVuSans-111"/>
    <use x="1478.027344" xlink:href="#DejaVuSans-110"/>
    <use x="1541.40625" xlink:href="#DejaVuSans-115"/>
   </g>
  </g>
 </g>
 <defs>
  <clipPath id="p83a7408f3a">
   <rect height="266.112" width="357.12" x="57.6" y="41.472"/>
  </clipPath>
 </defs>
</svg>
