<?xml version="1.0" encoding="utf-8" standalone="no"?>
<!DOCTYPE svg PUBLIC "-//W3C//DTD SVG 1.1//EN"
  "http://www.w3.org/Graphics/SVG/1.1/DTD/svg11.dtd">
<!-- Created with matplotlib (https://matplotlib.org/) -->
<svg height="345.6pt" version="1.1" viewBox="0 0 460.8 345.6" width="460.8pt" xmlns="http://www.w3.org/2000/svg" xmlns:xlink="http://www.w3.org/1999/xlink">
 <defs>
  <style type="text/css">
*{stroke-linecap:butt;stroke-linejoin:round;}
  </style>
 </defs>
 <g id="figure_1">
  <g id="patch_1">
   <path d="M 0 345.6 
L 460.8 345.6 
L 460.8 0 
L 0 0 
z
" style="fill:#ffffff;"/>
  </g>
  <g id="axes_1">
   <g id="patch_2">
    <path d="M 57.6 307.584 
L 414.72 307.584 
L 414.72 41.472 
L 57.6 41.472 
z
" style="fill:#ffffff;"/>
   </g>
   <g id="PolyCollection_1">
    <path clip-path="url(#p3b8914ceb0)" d="M 73.832727 210.304901 
L 73.832727 210.304901 
L 75.464157 210.304901 
L 77.095587 210.304901 
L 78.727017 210.304901 
L 80.358447 210.304901 
L 81.989877 210.304901 
L 83.621307 210.304901 
L 85.252736 210.304901 
L 86.884166 210.304901 
L 88.515596 210.304901 
L 90.147026 210.304901 
L 91.778456 210.304901 
L 93.409886 210.304901 
L 95.041316 210.304901 
L 96.672746 210.304901 
L 98.304175 210.304901 
L 99.935605 210.304901 
L 101.567035 210.304901 
L 103.198465 210.304901 
L 104.829895 210.304901 
L 106.461325 210.304901 
L 108.092755 210.304901 
L 109.724185 210.304901 
L 111.355614 210.304901 
L 112.987044 210.304901 
L 114.618474 210.304901 
L 116.249904 210.304901 
L 117.881334 210.304901 
L 119.512764 210.304901 
L 121.144194 210.304901 
L 122.775624 210.304901 
L 124.407053 210.304901 
L 126.038483 210.304901 
L 127.669913 210.304901 
L 129.301343 210.304901 
L 130.932773 210.304901 
L 132.564203 210.304901 
L 134.195633 210.304901 
L 135.827063 210.304901 
L 137.458492 210.304901 
L 139.089922 210.304901 
L 140.721352 210.304901 
L 142.352782 210.304901 
L 143.984212 210.304901 
L 145.615642 210.304901 
L 147.247072 210.304901 
L 148.878502 210.304901 
L 150.509931 210.304901 
L 152.141361 210.304901 
L 153.772791 210.304901 
L 155.404221 210.304901 
L 157.035651 210.304901 
L 158.667081 210.304901 
L 160.298511 210.304901 
L 161.929941 210.304901 
L 163.56137 210.304901 
L 165.1928 210.304901 
L 166.82423 210.304901 
L 168.45566 210.304901 
L 170.08709 210.304901 
L 171.71852 210.304901 
L 173.34995 210.304901 
L 174.98138 210.304901 
L 176.61281 210.304901 
L 178.244239 210.304901 
L 179.875669 210.304901 
L 181.507099 210.304901 
L 183.138529 210.304901 
L 184.769959 210.304901 
L 186.401389 210.304901 
L 188.032819 210.304901 
L 189.664249 210.304901 
L 191.295678 210.304901 
L 192.927108 210.304901 
L 194.558538 210.304901 
L 196.189968 210.304901 
L 197.821398 210.304901 
L 199.452828 210.304901 
L 201.084258 210.304901 
L 202.715688 210.304901 
L 204.347117 210.304901 
L 205.978547 210.304901 
L 207.609977 210.304901 
L 209.241407 210.304901 
L 210.872837 210.304901 
L 212.504267 210.304901 
L 214.135697 210.304901 
L 215.767127 210.304901 
L 217.398556 210.304901 
L 219.029986 210.304901 
L 220.661416 210.304901 
L 222.292846 210.304901 
L 223.924276 210.304901 
L 225.555706 210.304901 
L 227.187136 210.304901 
L 228.818566 210.304901 
L 230.449995 210.304901 
L 232.081425 210.304901 
L 233.712855 210.304901 
L 235.344285 210.304901 
L 236.975715 208.601239 
L 238.607145 210.304901 
L 240.238575 208.601239 
L 241.870005 210.304901 
L 243.501434 210.304901 
L 245.132864 210.304901 
L 246.764294 210.304901 
L 248.395724 210.304901 
L 250.027154 210.304901 
L 251.658584 200.764394 
L 253.290014 210.304901 
L 254.921444 210.304901 
L 256.552873 206.727211 
L 258.184303 207.919775 
L 259.815733 210.304901 
L 261.447163 200.764394 
L 263.078593 210.304901 
L 264.710023 210.304901 
L 266.341453 210.304901 
L 267.972883 210.304901 
L 269.604312 210.304901 
L 271.235742 210.304901 
L 272.867172 210.304901 
L 274.498602 210.304901 
L 276.130032 210.304901 
L 277.761462 207.919775 
L 279.392892 210.304901 
L 281.024322 207.919775 
L 282.655751 210.304901 
L 284.287181 209.538254 
L 285.918611 203.541363 
L 287.550041 193.268282 
L 289.181471 203.490254 
L 290.812901 210.304901 
L 292.444331 210.304901 
L 294.075761 206.13093 
L 295.70719 210.304901 
L 297.33862 189.09431 
L 298.97005 200.764394 
L 300.60148 197.148372 
L 302.23291 207.579042 
L 303.86434 207.919775 
L 305.49577 203.620056 
L 307.1272 198.379268 
L 308.75863 206.386479 
L 310.390059 203.181972 
L 312.021489 209.793803 
L 313.652919 189.860958 
L 315.284349 207.919775 
L 316.915779 203.149521 
L 318.547209 207.919775 
L 320.178639 205.534648 
L 321.810069 207.919775 
L 323.441498 198.131462 
L 325.072928 190.372056 
L 326.704358 202.127324 
L 328.335788 182.101552 
L 329.967218 206.727211 
L 331.598648 212.312789 
L 333.230078 210.304901 
L 334.861508 190.20169 
L 336.492937 210.304901 
L 338.124367 210.304901 
L 339.755797 210.304901 
L 341.387227 197.519085 
L 343.018657 210.304901 
L 344.650087 207.408676 
L 346.281517 203.149521 
L 347.912947 199.202704 
L 349.544376 199.276732 
L 351.175806 204.546524 
L 352.807236 207.919775 
L 354.438666 188.498028 
L 356.070096 205.534648 
L 357.701526 207.919775 
L 359.332956 205.534648 
L 360.964386 210.304901 
L 362.595815 210.304901 
L 364.227245 210.304901 
L 365.858675 210.304901 
L 367.490105 207.919775 
L 369.121535 197.11369 
L 370.752965 200.764394 
L 372.384395 205.534648 
L 374.015825 203.149521 
L 375.647254 203.149521 
L 377.278684 186.112901 
L 378.910114 207.919775 
L 380.541544 187.135099 
L 382.172974 162.261634 
L 383.804404 210.304901 
L 385.435834 207.919775 
L 387.067264 202.30053 
L 388.698693 188.498028 
L 390.330123 200.423662 
L 391.961553 200.668823 
L 393.592983 192.501634 
L 395.224413 203.149521 
L 396.855843 199.602807 
L 398.487273 194.205296 
L 398.487273 177.253859 
L 398.487273 177.253859 
L 396.855843 176.231662 
L 395.224413 136.110423 
L 393.592983 179.809352 
L 391.961553 181.68338 
L 390.330123 183.387042 
L 388.698693 139.091831 
L 387.067264 127.762479 
L 385.435834 181.68338 
L 383.804404 202.468056 
L 382.172974 101.526085 
L 380.541544 127.762479 
L 378.910114 184.409239 
L 377.278684 108.596282 
L 375.647254 136.110423 
L 374.015825 133.214197 
L 372.384395 152.635944 
L 370.752965 102.633465 
L 369.121535 147.96791 
L 367.490105 183.301859 
L 365.858675 154.869948 
L 364.227245 192.672 
L 362.595815 154.765521 
L 360.964386 210.304901 
L 359.332956 159.535775 
L 357.701526 183.387042 
L 356.070096 156.469183 
L 354.438666 153.738152 
L 352.807236 183.387042 
L 351.175806 181.68338 
L 349.544376 155.962344 
L 347.912947 178.957521 
L 346.281517 129.892056 
L 344.650087 159.109859 
L 343.018657 178.276056 
L 341.387227 95.818817 
L 339.755797 210.304901 
L 338.124367 152.779538 
L 336.492937 152.845352 
L 334.861508 125.121803 
L 333.230078 153.061859 
L 331.598648 142.848406 
L 329.967218 102.548282 
L 328.335788 146.439799 
L 326.704358 185.431437 
L 325.072928 163.283831 
L 323.441498 102.974197 
L 321.810069 178.957521 
L 320.178639 153.061859 
L 318.547209 183.387042 
L 316.915779 131.595718 
L 315.284349 178.957521 
L 313.652919 147.610141 
L 312.021489 132.232086 
L 310.390059 144.854468 
L 308.75863 133.08169 
L 307.1272 112.855437 
L 305.49577 159.195042 
L 303.86434 183.387042 
L 302.23291 157.150648 
L 300.60148 180.478648 
L 298.97005 134.443268 
L 297.33862 143.589499 
L 295.70719 190.20169 
L 294.075761 156.469183 
L 292.444331 171.205859 
L 290.812901 203.222535 
L 289.181471 153.779363 
L 287.550041 176.913127 
L 285.918611 159.450592 
L 284.287181 189.860958 
L 282.655751 164.740462 
L 281.024322 183.642592 
L 279.392892 147.15325 
L 277.761462 183.387042 
L 276.130032 158.246412 
L 274.498602 198.72 
L 272.867172 150.898949 
L 271.235742 210.304901 
L 269.604312 177.424225 
L 267.972883 168.394817 
L 266.341453 210.304901 
L 264.710023 179.298254 
L 263.078593 194.290479 
L 261.447163 148.97307 
L 259.815733 176.231662 
L 258.184303 192.246085 
L 256.552873 179.298254 
L 254.921444 193.268282 
L 253.290014 179.979718 
L 251.658584 175.465014 
L 250.027154 180.653439 
L 248.395724 210.304901 
L 246.764294 184.749972 
L 245.132864 159.535775 
L 243.501434 179.917683 
L 241.870005 193.268282 
L 240.238575 190.883155 
L 238.607145 178.531606 
L 236.975715 147.416543 
L 235.344285 175.550197 
L 233.712855 143.139245 
L 232.081425 178.616789 
L 230.449995 199.909521 
L 228.818566 176.231662 
L 227.187136 189.520225 
L 225.555706 210.304901 
L 223.924276 165.328225 
L 222.292846 210.304901 
L 220.661416 210.304901 
L 219.029986 156.809915 
L 217.398556 210.304901 
L 215.767127 210.304901 
L 214.135697 210.304901 
L 212.504267 210.304901 
L 210.872837 210.304901 
L 209.241407 210.304901 
L 207.609977 210.304901 
L 205.978547 210.304901 
L 204.347117 210.304901 
L 202.715688 210.304901 
L 201.084258 210.304901 
L 199.452828 210.304901 
L 197.821398 210.304901 
L 196.189968 210.304901 
L 194.558538 210.304901 
L 192.927108 210.304901 
L 191.295678 210.304901 
L 189.664249 210.304901 
L 188.032819 210.304901 
L 186.401389 210.304901 
L 184.769959 210.304901 
L 183.138529 210.304901 
L 181.507099 210.304901 
L 179.875669 210.304901 
L 178.244239 210.304901 
L 176.61281 210.304901 
L 174.98138 210.304901 
L 173.34995 210.304901 
L 171.71852 210.304901 
L 170.08709 210.304901 
L 168.45566 210.304901 
L 166.82423 210.304901 
L 165.1928 210.304901 
L 163.56137 210.304901 
L 161.929941 210.304901 
L 160.298511 210.304901 
L 158.667081 210.304901 
L 157.035651 210.304901 
L 155.404221 210.304901 
L 153.772791 210.304901 
L 152.141361 210.304901 
L 150.509931 210.304901 
L 148.878502 210.304901 
L 147.247072 210.304901 
L 145.615642 210.304901 
L 143.984212 210.304901 
L 142.352782 210.304901 
L 140.721352 210.304901 
L 139.089922 210.304901 
L 137.458492 210.304901 
L 135.827063 210.304901 
L 134.195633 210.304901 
L 132.564203 210.304901 
L 130.932773 210.304901 
L 129.301343 210.304901 
L 127.669913 210.304901 
L 126.038483 210.304901 
L 124.407053 210.304901 
L 122.775624 210.304901 
L 121.144194 210.304901 
L 119.512764 210.304901 
L 117.881334 210.304901 
L 116.249904 210.304901 
L 114.618474 210.304901 
L 112.987044 210.304901 
L 111.355614 210.304901 
L 109.724185 210.304901 
L 108.092755 210.304901 
L 106.461325 210.304901 
L 104.829895 210.304901 
L 103.198465 210.304901 
L 101.567035 210.304901 
L 99.935605 210.304901 
L 98.304175 210.304901 
L 96.672746 210.304901 
L 95.041316 210.304901 
L 93.409886 210.304901 
L 91.778456 210.304901 
L 90.147026 210.304901 
L 88.515596 210.304901 
L 86.884166 210.304901 
L 85.252736 210.304901 
L 83.621307 210.304901 
L 81.989877 210.304901 
L 80.358447 210.304901 
L 78.727017 210.304901 
L 77.095587 210.304901 
L 75.464157 210.304901 
L 73.832727 210.304901 
z
" style="fill:#1f77b4;fill-opacity:0.2;"/>
   </g>
   <g id="PolyCollection_2">
    <path clip-path="url(#p3b8914ceb0)" d="M 73.832727 210.304901 
L 73.832727 210.304901 
L 75.464157 210.304901 
L 77.095587 210.304901 
L 78.727017 210.304901 
L 80.358447 210.304901 
L 81.989877 210.304901 
L 83.621307 210.304901 
L 85.252736 210.304901 
L 86.884166 210.304901 
L 88.515596 210.304901 
L 90.147026 210.304901 
L 91.778456 210.304901 
L 93.409886 210.304901 
L 95.041316 210.304901 
L 96.672746 210.304901 
L 98.304175 210.304901 
L 99.935605 210.304901 
L 101.567035 210.304901 
L 103.198465 210.304901 
L 104.829895 210.304901 
L 106.461325 210.304901 
L 108.092755 210.304901 
L 109.724185 210.304901 
L 111.355614 210.304901 
L 112.987044 210.304901 
L 114.618474 210.304901 
L 116.249904 210.304901 
L 117.881334 210.304901 
L 119.512764 210.304901 
L 121.144194 210.304901 
L 122.775624 210.304901 
L 124.407053 210.304901 
L 126.038483 210.304901 
L 127.669913 210.304901 
L 129.301343 210.304901 
L 130.932773 210.304901 
L 132.564203 210.304901 
L 134.195633 210.304901 
L 135.827063 210.304901 
L 137.458492 210.304901 
L 139.089922 210.304901 
L 140.721352 210.304901 
L 142.352782 210.304901 
L 143.984212 210.304901 
L 145.615642 210.304901 
L 147.247072 210.304901 
L 148.878502 210.304901 
L 150.509931 210.304901 
L 152.141361 210.304901 
L 153.772791 210.304901 
L 155.404221 210.304901 
L 157.035651 210.304901 
L 158.667081 210.304901 
L 160.298511 210.304901 
L 161.929941 210.304901 
L 163.56137 210.304901 
L 165.1928 210.304901 
L 166.82423 210.304901 
L 168.45566 210.304901 
L 170.08709 210.304901 
L 171.71852 210.304901 
L 173.34995 210.304901 
L 174.98138 210.304901 
L 176.61281 210.304901 
L 178.244239 210.304901 
L 179.875669 210.304901 
L 181.507099 210.304901 
L 183.138529 210.304901 
L 184.769959 210.304901 
L 186.401389 210.304901 
L 188.032819 210.304901 
L 189.664249 210.304901 
L 191.295678 210.304901 
L 192.927108 210.304901 
L 194.558538 210.304901 
L 196.189968 210.304901 
L 197.821398 210.304901 
L 199.452828 210.304901 
L 201.084258 210.304901 
L 202.715688 210.304901 
L 204.347117 210.304901 
L 205.978547 244.037408 
L 207.609977 227.341521 
L 209.241407 233.815437 
L 210.872837 211.327099 
L 212.504267 210.304901 
L 214.135697 255.281577 
L 215.767127 271.296 
L 217.398556 244.378141 
L 219.029986 276.406986 
L 220.661416 210.304901 
L 222.292846 219.521713 
L 223.924276 259.711099 
L 225.555706 227.341521 
L 227.187136 223.252732 
L 228.818566 218.823211 
L 230.449995 258.007437 
L 232.081425 224.27493 
L 233.712855 243.696676 
L 235.344285 233.474704 
L 236.975715 232.111775 
L 238.607145 261.414761 
L 240.238575 255.963042 
L 241.870005 227.341521 
L 243.501434 212.349296 
L 245.132864 213.712225 
L 246.764294 212.008563 
L 248.395724 216.097352 
L 250.027154 211.327099 
L 251.658584 210.304901 
L 253.290014 244.378141 
L 254.921444 210.304901 
L 256.552873 210.304901 
L 258.184303 210.304901 
L 259.815733 216.097352 
L 261.447163 215.075155 
L 263.078593 214.734423 
L 264.710023 226.319324 
L 266.341453 210.304901 
L 267.972883 210.304901 
L 269.604312 210.304901 
L 271.235742 210.645634 
L 272.867172 213.030761 
L 274.498602 210.645634 
L 276.130032 219.845408 
L 277.761462 216.097352 
L 279.392892 210.304901 
L 281.024322 210.645634 
L 282.655751 210.304901 
L 284.287181 210.304901 
L 285.918611 210.304901 
L 287.550041 211.327099 
L 289.181471 210.304901 
L 290.812901 215.075155 
L 292.444331 221.889803 
L 294.075761 210.304901 
L 295.70719 223.593465 
L 297.33862 246.763268 
L 298.97005 210.304901 
L 300.60148 210.304901 
L 302.23291 240.630085 
L 303.86434 243.696676 
L 305.49577 215.075155 
L 307.1272 262.096225 
L 308.75863 216.097352 
L 310.390059 210.304901 
L 312.021489 210.304901 
L 313.652919 210.304901 
L 315.284349 210.304901 
L 316.915779 211.327099 
L 318.547209 225.297127 
L 320.178639 210.304901 
L 321.810069 227.000789 
L 323.441498 210.304901 
L 325.072928 210.304901 
L 326.704358 243.015211 
L 328.335788 229.726648 
L 329.967218 248.46693 
L 331.598648 244.378141 
L 333.230078 210.304901 
L 334.861508 211.327099 
L 336.492937 217.460282 
L 338.124367 230.748845 
L 339.755797 240.970817 
L 341.387227 210.304901 
L 343.018657 225.297127 
L 344.650087 210.304901 
L 346.281517 210.304901 
L 347.912947 227.000789 
L 349.544376 240.289352 
L 351.175806 218.141746 
L 352.807236 225.637859 
L 354.438666 234.496901 
L 356.070096 210.304901 
L 357.701526 227.341521 
L 359.332956 226.660056 
L 360.964386 295.488 
L 362.595815 210.304901 
L 364.227245 259.370366 
L 365.858675 210.304901 
L 367.490105 215.075155 
L 369.121535 229.045183 
L 370.752965 210.304901 
L 372.384395 210.304901 
L 374.015825 210.304901 
L 375.647254 210.304901 
L 377.278684 210.304901 
L 378.910114 210.304901 
L 380.541544 215.75662 
L 382.172974 220.186141 
L 383.804404 216.097352 
L 385.435834 211.327099 
L 387.067264 210.304901 
L 388.698693 210.304901 
L 390.330123 210.304901 
L 391.961553 213.371493 
L 393.592983 233.815437 
L 395.224413 210.304901 
L 396.855843 227.000789 
L 398.487273 216.778817 
L 398.487273 155.65824 
L 398.487273 155.65824 
L 396.855843 155.266189 
L 395.224413 124.440338 
L 393.592983 142.158423 
L 391.961553 132.617915 
L 390.330123 145.93893 
L 388.698693 124.440338 
L 387.067264 116.944225 
L 385.435834 146.669719 
L 383.804404 145.210817 
L 382.172974 87.300507 
L 380.541544 104.677859 
L 378.910114 139.773296 
L 377.278684 93.774423 
L 375.647254 120.692282 
L 374.015825 115.581296 
L 372.384395 143.294197 
L 370.752965 87.300507 
L 369.121535 113.536901 
L 367.490105 146.198535 
L 365.858675 114.899831 
L 364.227245 146.312737 
L 362.595815 144.897911 
L 360.964386 144.813296 
L 359.332956 141.965835 
L 357.701526 141.476958 
L 356.070096 139.72462 
L 354.438666 131.936451 
L 352.807236 146.174935 
L 351.175806 145.171775 
L 349.544376 144.103895 
L 347.912947 144.009735 
L 346.281517 117.62569 
L 344.650087 143.703887 
L 343.018657 143.458254 
L 341.387227 68.560225 
L 339.755797 144.829765 
L 338.124367 133.980845 
L 336.492937 142.454712 
L 334.861508 113.536901 
L 333.230078 143.553803 
L 331.598648 116.603493 
L 329.967218 83.893183 
L 328.335788 114.899831 
L 326.704358 135.565647 
L 325.072928 134.345915 
L 323.441498 83.552451 
L 321.810069 134.943414 
L 320.178639 133.814847 
L 318.547209 133.48768 
L 316.915779 116.262761 
L 315.284349 132.703099 
L 313.652919 131.381544 
L 312.021489 66.515831 
L 310.390059 116.603493 
L 308.75863 83.552451 
L 307.1272 53.568 
L 305.49577 115.581296 
L 303.86434 138.610106 
L 302.23291 137.169127 
L 300.60148 136.782423 
L 298.97005 84.91538 
L 297.33862 113.877634 
L 295.70719 138.183211 
L 294.075761 136.410415 
L 292.444331 135.901337 
L 290.812901 135.343775 
L 289.181471 131.629792 
L 287.550041 151.049915 
L 285.918611 114.899831 
L 284.287181 149.709052 
L 282.655751 146.247211 
L 281.024322 148.824926 
L 279.392892 84.91538 
L 277.761462 150.172448 
L 276.130032 115.922028 
L 274.498602 150.143412 
L 272.867172 101.270535 
L 271.235742 149.751887 
L 269.604312 146.724237 
L 267.972883 129.551324 
L 266.341453 163.002356 
L 264.710023 156.469183 
L 263.078593 161.060958 
L 261.447163 133.980845 
L 259.815733 166.469679 
L 258.184303 170.698817 
L 256.552873 169.6896 
L 254.921444 173.556913 
L 253.290014 172.736 
L 251.658584 148.291606 
L 250.027154 172.142873 
L 248.395724 173.108282 
L 246.764294 171.491037 
L 245.132864 142.158423 
L 243.501434 144.6746 
L 241.870005 143.521352 
L 240.238575 145.594141 
L 238.607145 142.158423 
L 236.975715 105.700056 
L 235.344285 117.203831 
L 233.712855 112.514704 
L 232.081425 130.113532 
L 230.449995 141.233577 
L 228.818566 140.948823 
L 227.187136 148.121239 
L 225.555706 143.521352 
L 223.924276 165.328225 
L 222.292846 142.158423 
L 220.661416 172.398423 
L 219.029986 156.809915 
L 217.398556 179.298254 
L 215.767127 181.68338 
L 214.135697 182.927054 
L 212.504267 191.700913 
L 210.872837 165.668958 
L 209.241407 178.616789 
L 207.609977 162.602366 
L 205.978547 179.298254 
L 204.347117 210.304901 
L 202.715688 210.304901 
L 201.084258 210.304901 
L 199.452828 210.304901 
L 197.821398 210.304901 
L 196.189968 210.304901 
L 194.558538 210.304901 
L 192.927108 210.304901 
L 191.295678 210.304901 
L 189.664249 210.304901 
L 188.032819 210.304901 
L 186.401389 210.304901 
L 184.769959 210.304901 
L 183.138529 210.304901 
L 181.507099 210.304901 
L 179.875669 210.304901 
L 178.244239 210.304901 
L 176.61281 210.304901 
L 174.98138 210.304901 
L 173.34995 210.304901 
L 171.71852 210.304901 
L 170.08709 210.304901 
L 168.45566 210.304901 
L 166.82423 210.304901 
L 165.1928 210.304901 
L 163.56137 210.304901 
L 161.929941 210.304901 
L 160.298511 210.304901 
L 158.667081 210.304901 
L 157.035651 210.304901 
L 155.404221 210.304901 
L 153.772791 210.304901 
L 152.141361 210.304901 
L 150.509931 210.304901 
L 148.878502 210.304901 
L 147.247072 210.304901 
L 145.615642 210.304901 
L 143.984212 210.304901 
L 142.352782 210.304901 
L 140.721352 210.304901 
L 139.089922 210.304901 
L 137.458492 210.304901 
L 135.827063 210.304901 
L 134.195633 210.304901 
L 132.564203 210.304901 
L 130.932773 210.304901 
L 129.301343 210.304901 
L 127.669913 210.304901 
L 126.038483 210.304901 
L 124.407053 210.304901 
L 122.775624 210.304901 
L 121.144194 210.304901 
L 119.512764 210.304901 
L 117.881334 210.304901 
L 116.249904 210.304901 
L 114.618474 210.304901 
L 112.987044 210.304901 
L 111.355614 210.304901 
L 109.724185 210.304901 
L 108.092755 210.304901 
L 106.461325 210.304901 
L 104.829895 210.304901 
L 103.198465 210.304901 
L 101.567035 210.304901 
L 99.935605 210.304901 
L 98.304175 210.304901 
L 96.672746 210.304901 
L 95.041316 210.304901 
L 93.409886 210.304901 
L 91.778456 210.304901 
L 90.147026 210.304901 
L 88.515596 210.304901 
L 86.884166 210.304901 
L 85.252736 210.304901 
L 83.621307 210.304901 
L 81.989877 210.304901 
L 80.358447 210.304901 
L 78.727017 210.304901 
L 77.095587 210.304901 
L 75.464157 210.304901 
L 73.832727 210.304901 
z
" style="fill:#1f77b4;fill-opacity:0.1;"/>
   </g>
   <g id="matplotlib.axis_1">
    <g id="xtick_1">
     <g id="line2d_1">
      <defs>
       <path d="M 0 0 
L 0 3.5 
" id="mb3082782a0" style="stroke:#000000;stroke-width:0.8;"/>
      </defs>
      <g>
       <use style="stroke:#000000;stroke-width:0.8;" x="73.832727" xlink:href="#mb3082782a0" y="307.584"/>
      </g>
     </g>
     <g id="text_1">
      <!-- 0 -->
      <defs>
       <path d="M 31.78125 66.40625 
Q 24.171875 66.40625 20.328125 58.90625 
Q 16.5 51.421875 16.5 36.375 
Q 16.5 21.390625 20.328125 13.890625 
Q 24.171875 6.390625 31.78125 6.390625 
Q 39.453125 6.390625 43.28125 13.890625 
Q 47.125 21.390625 47.125 36.375 
Q 47.125 51.421875 43.28125 58.90625 
Q 39.453125 66.40625 31.78125 66.40625 
z
M 31.78125 74.21875 
Q 44.046875 74.21875 50.515625 64.515625 
Q 56.984375 54.828125 56.984375 36.375 
Q 56.984375 17.96875 50.515625 8.265625 
Q 44.046875 -1.421875 31.78125 -1.421875 
Q 19.53125 -1.421875 13.0625 8.265625 
Q 6.59375 17.96875 6.59375 36.375 
Q 6.59375 54.828125 13.0625 64.515625 
Q 19.53125 74.21875 31.78125 74.21875 
z
" id="DejaVuSans-48"/>
      </defs>
      <g transform="translate(70.651477 322.182437)scale(0.1 -0.1)">
       <use xlink:href="#DejaVuSans-48"/>
      </g>
     </g>
    </g>
    <g id="xtick_2">
     <g id="line2d_2">
      <g>
       <use style="stroke:#000000;stroke-width:0.8;" x="114.618474" xlink:href="#mb3082782a0" y="307.584"/>
      </g>
     </g>
     <g id="text_2">
      <!-- 25 -->
      <defs>
       <path d="M 19.1875 8.296875 
L 53.609375 8.296875 
L 53.609375 0 
L 7.328125 0 
L 7.328125 8.296875 
Q 12.9375 14.109375 22.625 23.890625 
Q 32.328125 33.6875 34.8125 36.53125 
Q 39.546875 41.84375 41.421875 45.53125 
Q 43.3125 49.21875 43.3125 52.78125 
Q 43.3125 58.59375 39.234375 62.25 
Q 35.15625 65.921875 28.609375 65.921875 
Q 23.96875 65.921875 18.8125 64.3125 
Q 13.671875 62.703125 7.8125 59.421875 
L 7.8125 69.390625 
Q 13.765625 71.78125 18.9375 73 
Q 24.125 74.21875 28.421875 74.21875 
Q 39.75 74.21875 46.484375 68.546875 
Q 53.21875 62.890625 53.21875 53.421875 
Q 53.21875 48.921875 51.53125 44.890625 
Q 49.859375 40.875 45.40625 35.40625 
Q 44.1875 33.984375 37.640625 27.21875 
Q 31.109375 20.453125 19.1875 8.296875 
z
" id="DejaVuSans-50"/>
       <path d="M 10.796875 72.90625 
L 49.515625 72.90625 
L 49.515625 64.59375 
L 19.828125 64.59375 
L 19.828125 46.734375 
Q 21.96875 47.46875 24.109375 47.828125 
Q 26.265625 48.1875 28.421875 48.1875 
Q 40.625 48.1875 47.75 41.5 
Q 54.890625 34.8125 54.890625 23.390625 
Q 54.890625 11.625 47.5625 5.09375 
Q 40.234375 -1.421875 26.90625 -1.421875 
Q 22.3125 -1.421875 17.546875 -0.640625 
Q 12.796875 0.140625 7.71875 1.703125 
L 7.71875 11.625 
Q 12.109375 9.234375 16.796875 8.0625 
Q 21.484375 6.890625 26.703125 6.890625 
Q 35.15625 6.890625 40.078125 11.328125 
Q 45.015625 15.765625 45.015625 23.390625 
Q 45.015625 31 40.078125 35.4375 
Q 35.15625 39.890625 26.703125 39.890625 
Q 22.75 39.890625 18.8125 39.015625 
Q 14.890625 38.140625 10.796875 36.28125 
z
" id="DejaVuSans-53"/>
      </defs>
      <g transform="translate(108.255974 322.182437)scale(0.1 -0.1)">
       <use xlink:href="#DejaVuSans-50"/>
       <use x="63.623047" xlink:href="#DejaVuSans-53"/>
      </g>
     </g>
    </g>
    <g id="xtick_3">
     <g id="line2d_3">
      <g>
       <use style="stroke:#000000;stroke-width:0.8;" x="155.404221" xlink:href="#mb3082782a0" y="307.584"/>
      </g>
     </g>
     <g id="text_3">
      <!-- 50 -->
      <g transform="translate(149.041721 322.182437)scale(0.1 -0.1)">
       <use xlink:href="#DejaVuSans-53"/>
       <use x="63.623047" xlink:href="#DejaVuSans-48"/>
      </g>
     </g>
    </g>
    <g id="xtick_4">
     <g id="line2d_4">
      <g>
       <use style="stroke:#000000;stroke-width:0.8;" x="196.189968" xlink:href="#mb3082782a0" y="307.584"/>
      </g>
     </g>
     <g id="text_4">
      <!-- 75 -->
      <defs>
       <path d="M 8.203125 72.90625 
L 55.078125 72.90625 
L 55.078125 68.703125 
L 28.609375 0 
L 18.3125 0 
L 43.21875 64.59375 
L 8.203125 64.59375 
z
" id="DejaVuSans-55"/>
      </defs>
      <g transform="translate(189.827468 322.182437)scale(0.1 -0.1)">
       <use xlink:href="#DejaVuSans-55"/>
       <use x="63.623047" xlink:href="#DejaVuSans-53"/>
      </g>
     </g>
    </g>
    <g id="xtick_5">
     <g id="line2d_5">
      <g>
       <use style="stroke:#000000;stroke-width:0.8;" x="236.975715" xlink:href="#mb3082782a0" y="307.584"/>
      </g>
     </g>
     <g id="text_5">
      <!-- 100 -->
      <defs>
       <path d="M 12.40625 8.296875 
L 28.515625 8.296875 
L 28.515625 63.921875 
L 10.984375 60.40625 
L 10.984375 69.390625 
L 28.421875 72.90625 
L 38.28125 72.90625 
L 38.28125 8.296875 
L 54.390625 8.296875 
L 54.390625 0 
L 12.40625 0 
z
" id="DejaVuSans-49"/>
      </defs>
      <g transform="translate(227.431965 322.182437)scale(0.1 -0.1)">
       <use xlink:href="#DejaVuSans-49"/>
       <use x="63.623047" xlink:href="#DejaVuSans-48"/>
       <use x="127.246094" xlink:href="#DejaVuSans-48"/>
      </g>
     </g>
    </g>
    <g id="xtick_6">
     <g id="line2d_6">
      <g>
       <use style="stroke:#000000;stroke-width:0.8;" x="277.761462" xlink:href="#mb3082782a0" y="307.584"/>
      </g>
     </g>
     <g id="text_6">
      <!-- 125 -->
      <g transform="translate(268.217712 322.182437)scale(0.1 -0.1)">
       <use xlink:href="#DejaVuSans-49"/>
       <use x="63.623047" xlink:href="#DejaVuSans-50"/>
       <use x="127.246094" xlink:href="#DejaVuSans-53"/>
      </g>
     </g>
    </g>
    <g id="xtick_7">
     <g id="line2d_7">
      <g>
       <use style="stroke:#000000;stroke-width:0.8;" x="318.547209" xlink:href="#mb3082782a0" y="307.584"/>
      </g>
     </g>
     <g id="text_7">
      <!-- 150 -->
      <g transform="translate(309.003459 322.182437)scale(0.1 -0.1)">
       <use xlink:href="#DejaVuSans-49"/>
       <use x="63.623047" xlink:href="#DejaVuSans-53"/>
       <use x="127.246094" xlink:href="#DejaVuSans-48"/>
      </g>
     </g>
    </g>
    <g id="xtick_8">
     <g id="line2d_8">
      <g>
       <use style="stroke:#000000;stroke-width:0.8;" x="359.332956" xlink:href="#mb3082782a0" y="307.584"/>
      </g>
     </g>
     <g id="text_8">
      <!-- 175 -->
      <g transform="translate(349.789206 322.182437)scale(0.1 -0.1)">
       <use xlink:href="#DejaVuSans-49"/>
       <use x="63.623047" xlink:href="#DejaVuSans-55"/>
       <use x="127.246094" xlink:href="#DejaVuSans-53"/>
      </g>
     </g>
    </g>
    <g id="xtick_9">
     <g id="line2d_9">
      <g>
       <use style="stroke:#000000;stroke-width:0.8;" x="400.118703" xlink:href="#mb3082782a0" y="307.584"/>
      </g>
     </g>
     <g id="text_9">
      <!-- 200 -->
      <g transform="translate(390.574953 322.182437)scale(0.1 -0.1)">
       <use xlink:href="#DejaVuSans-50"/>
       <use x="63.623047" xlink:href="#DejaVuSans-48"/>
       <use x="127.246094" xlink:href="#DejaVuSans-48"/>
      </g>
     </g>
    </g>
   </g>
   <g id="matplotlib.axis_2">
    <g id="ytick_1">
     <g id="line2d_10">
      <defs>
       <path d="M 0 0 
L -3.5 0 
" id="m4981afa222" style="stroke:#000000;stroke-width:0.8;"/>
      </defs>
      <g>
       <use style="stroke:#000000;stroke-width:0.8;" x="57.6" xlink:href="#m4981afa222" y="278.45138"/>
      </g>
     </g>
     <g id="text_10">
      <!-- −0.4 -->
      <defs>
       <path d="M 10.59375 35.5 
L 73.1875 35.5 
L 73.1875 27.203125 
L 10.59375 27.203125 
z
" id="DejaVuSans-8722"/>
       <path d="M 10.6875 12.40625 
L 21 12.40625 
L 21 0 
L 10.6875 0 
z
" id="DejaVuSans-46"/>
       <path d="M 37.796875 64.3125 
L 12.890625 25.390625 
L 37.796875 25.390625 
z
M 35.203125 72.90625 
L 47.609375 72.90625 
L 47.609375 25.390625 
L 58.015625 25.390625 
L 58.015625 17.1875 
L 47.609375 17.1875 
L 47.609375 0 
L 37.796875 0 
L 37.796875 17.1875 
L 4.890625 17.1875 
L 4.890625 26.703125 
z
" id="DejaVuSans-52"/>
      </defs>
      <g transform="translate(26.317187 282.250599)scale(0.1 -0.1)">
       <use xlink:href="#DejaVuSans-8722"/>
       <use x="83.789062" xlink:href="#DejaVuSans-48"/>
       <use x="147.412109" xlink:href="#DejaVuSans-46"/>
       <use x="179.199219" xlink:href="#DejaVuSans-52"/>
      </g>
     </g>
    </g>
    <g id="ytick_2">
     <g id="line2d_11">
      <g>
       <use style="stroke:#000000;stroke-width:0.8;" x="57.6" xlink:href="#m4981afa222" y="244.378141"/>
      </g>
     </g>
     <g id="text_11">
      <!-- −0.2 -->
      <g transform="translate(26.317187 248.17736)scale(0.1 -0.1)">
       <use xlink:href="#DejaVuSans-8722"/>
       <use x="83.789062" xlink:href="#DejaVuSans-48"/>
       <use x="147.412109" xlink:href="#DejaVuSans-46"/>
       <use x="179.199219" xlink:href="#DejaVuSans-50"/>
      </g>
     </g>
    </g>
    <g id="ytick_3">
     <g id="line2d_12">
      <g>
       <use style="stroke:#000000;stroke-width:0.8;" x="57.6" xlink:href="#m4981afa222" y="210.304901"/>
      </g>
     </g>
     <g id="text_12">
      <!-- 0.0 -->
      <g transform="translate(34.696875 214.10412)scale(0.1 -0.1)">
       <use xlink:href="#DejaVuSans-48"/>
       <use x="63.623047" xlink:href="#DejaVuSans-46"/>
       <use x="95.410156" xlink:href="#DejaVuSans-48"/>
      </g>
     </g>
    </g>
    <g id="ytick_4">
     <g id="line2d_13">
      <g>
       <use style="stroke:#000000;stroke-width:0.8;" x="57.6" xlink:href="#m4981afa222" y="176.231662"/>
      </g>
     </g>
     <g id="text_13">
      <!-- 0.2 -->
      <g transform="translate(34.696875 180.030881)scale(0.1 -0.1)">
       <use xlink:href="#DejaVuSans-48"/>
       <use x="63.623047" xlink:href="#DejaVuSans-46"/>
       <use x="95.410156" xlink:href="#DejaVuSans-50"/>
      </g>
     </g>
    </g>
    <g id="ytick_5">
     <g id="line2d_14">
      <g>
       <use style="stroke:#000000;stroke-width:0.8;" x="57.6" xlink:href="#m4981afa222" y="142.158423"/>
      </g>
     </g>
     <g id="text_14">
      <!-- 0.4 -->
      <g transform="translate(34.696875 145.957641)scale(0.1 -0.1)">
       <use xlink:href="#DejaVuSans-48"/>
       <use x="63.623047" xlink:href="#DejaVuSans-46"/>
       <use x="95.410156" xlink:href="#DejaVuSans-52"/>
      </g>
     </g>
    </g>
    <g id="ytick_6">
     <g id="line2d_15">
      <g>
       <use style="stroke:#000000;stroke-width:0.8;" x="57.6" xlink:href="#m4981afa222" y="108.085183"/>
      </g>
     </g>
     <g id="text_15">
      <!-- 0.6 -->
      <defs>
       <path d="M 33.015625 40.375 
Q 26.375 40.375 22.484375 35.828125 
Q 18.609375 31.296875 18.609375 23.390625 
Q 18.609375 15.53125 22.484375 10.953125 
Q 26.375 6.390625 33.015625 6.390625 
Q 39.65625 6.390625 43.53125 10.953125 
Q 47.40625 15.53125 47.40625 23.390625 
Q 47.40625 31.296875 43.53125 35.828125 
Q 39.65625 40.375 33.015625 40.375 
z
M 52.59375 71.296875 
L 52.59375 62.3125 
Q 48.875 64.0625 45.09375 64.984375 
Q 41.3125 65.921875 37.59375 65.921875 
Q 27.828125 65.921875 22.671875 59.328125 
Q 17.53125 52.734375 16.796875 39.40625 
Q 19.671875 43.65625 24.015625 45.921875 
Q 28.375 48.1875 33.59375 48.1875 
Q 44.578125 48.1875 50.953125 41.515625 
Q 57.328125 34.859375 57.328125 23.390625 
Q 57.328125 12.15625 50.6875 5.359375 
Q 44.046875 -1.421875 33.015625 -1.421875 
Q 20.359375 -1.421875 13.671875 8.265625 
Q 6.984375 17.96875 6.984375 36.375 
Q 6.984375 53.65625 15.1875 63.9375 
Q 23.390625 74.21875 37.203125 74.21875 
Q 40.921875 74.21875 44.703125 73.484375 
Q 48.484375 72.75 52.59375 71.296875 
z
" id="DejaVuSans-54"/>
      </defs>
      <g transform="translate(34.696875 111.884402)scale(0.1 -0.1)">
       <use xlink:href="#DejaVuSans-48"/>
       <use x="63.623047" xlink:href="#DejaVuSans-46"/>
       <use x="95.410156" xlink:href="#DejaVuSans-54"/>
      </g>
     </g>
    </g>
    <g id="ytick_7">
     <g id="line2d_16">
      <g>
       <use style="stroke:#000000;stroke-width:0.8;" x="57.6" xlink:href="#m4981afa222" y="74.011944"/>
      </g>
     </g>
     <g id="text_16">
      <!-- 0.8 -->
      <defs>
       <path d="M 31.78125 34.625 
Q 24.75 34.625 20.71875 30.859375 
Q 16.703125 27.09375 16.703125 20.515625 
Q 16.703125 13.921875 20.71875 10.15625 
Q 24.75 6.390625 31.78125 6.390625 
Q 38.8125 6.390625 42.859375 10.171875 
Q 46.921875 13.96875 46.921875 20.515625 
Q 46.921875 27.09375 42.890625 30.859375 
Q 38.875 34.625 31.78125 34.625 
z
M 21.921875 38.8125 
Q 15.578125 40.375 12.03125 44.71875 
Q 8.5 49.078125 8.5 55.328125 
Q 8.5 64.0625 14.71875 69.140625 
Q 20.953125 74.21875 31.78125 74.21875 
Q 42.671875 74.21875 48.875 69.140625 
Q 55.078125 64.0625 55.078125 55.328125 
Q 55.078125 49.078125 51.53125 44.71875 
Q 48 40.375 41.703125 38.8125 
Q 48.828125 37.15625 52.796875 32.3125 
Q 56.78125 27.484375 56.78125 20.515625 
Q 56.78125 9.90625 50.3125 4.234375 
Q 43.84375 -1.421875 31.78125 -1.421875 
Q 19.734375 -1.421875 13.25 4.234375 
Q 6.78125 9.90625 6.78125 20.515625 
Q 6.78125 27.484375 10.78125 32.3125 
Q 14.796875 37.15625 21.921875 38.8125 
z
M 18.3125 54.390625 
Q 18.3125 48.734375 21.84375 45.5625 
Q 25.390625 42.390625 31.78125 42.390625 
Q 38.140625 42.390625 41.71875 45.5625 
Q 45.3125 48.734375 45.3125 54.390625 
Q 45.3125 60.0625 41.71875 63.234375 
Q 38.140625 66.40625 31.78125 66.40625 
Q 25.390625 66.40625 21.84375 63.234375 
Q 18.3125 60.0625 18.3125 54.390625 
z
" id="DejaVuSans-56"/>
      </defs>
      <g transform="translate(34.696875 77.811162)scale(0.1 -0.1)">
       <use xlink:href="#DejaVuSans-48"/>
       <use x="63.623047" xlink:href="#DejaVuSans-46"/>
       <use x="95.410156" xlink:href="#DejaVuSans-56"/>
      </g>
     </g>
    </g>
   </g>
   <g id="line2d_17">
    <path clip-path="url(#p3b8914ceb0)" d="M 73.832727 210.304901 
L 225.555706 210.304901 
L 227.187136 197.861199 
L 228.818566 199.307763 
L 230.449995 207.919775 
L 232.081425 203.149521 
L 233.712855 193.609014 
L 235.344285 196.854084 
L 236.975715 185.241413 
L 238.607145 196.675606 
L 240.238575 193.268282 
L 241.870005 207.919775 
L 243.501434 203.149521 
L 245.132864 200.764394 
L 248.395724 210.304901 
L 250.027154 199.157273 
L 251.658584 186.112901 
L 253.290014 205.534648 
L 254.921444 197.496461 
L 256.552873 190.883155 
L 258.184303 193.609014 
L 259.815733 203.165746 
L 261.447163 166.691155 
L 263.078593 201.360676 
L 264.710023 205.534648 
L 266.341453 210.304901 
L 267.972883 199.731975 
L 271.235742 210.304901 
L 272.867172 200.764394 
L 274.498602 205.534648 
L 276.130032 203.149521 
L 277.761462 193.609014 
L 279.392892 200.764394 
L 281.024322 202.717663 
L 282.655751 188.838761 
L 284.287181 205.341566 
L 285.918611 193.268282 
L 287.550041 182.996447 
L 289.181471 176.913127 
L 290.812901 209.623437 
L 292.444331 182.671099 
L 294.075761 179.979718 
L 295.70719 193.268282 
L 297.33862 165.260079 
L 298.97005 161.580169 
L 300.60148 193.268282 
L 302.23291 181.342648 
L 303.86434 194.120113 
L 305.49577 203.149521 
L 307.1272 142.158423 
L 308.75863 157.942851 
L 310.390059 167.713352 
L 312.021489 183.727775 
L 313.652919 169.076282 
L 315.284349 194.120113 
L 316.915779 163.283831 
L 318.547209 196.845972 
L 320.178639 191.394254 
L 321.810069 194.971944 
L 323.441498 142.328789 
L 325.072928 176.572394 
L 326.704358 187.475831 
L 328.335788 166.471328 
L 329.967218 150.676732 
L 331.598648 172.653972 
L 333.230078 172.142873 
L 334.861508 164.987493 
L 336.492937 189.179493 
L 338.124367 170.098479 
L 339.755797 210.304901 
L 341.387227 140.965859 
L 343.018657 184.068507 
L 344.650087 175.720563 
L 346.281517 159.195042 
L 347.912947 183.387042 
L 349.544376 176.231662 
L 351.175806 193.268282 
L 352.807236 193.268282 
L 354.438666 167.713352 
L 356.070096 179.809352 
L 357.701526 193.438648 
L 359.332956 176.231662 
L 360.964386 210.304901 
L 362.595815 179.298254 
L 364.227245 205.881465 
L 365.858675 203.149521 
L 369.121535 191.56462 
L 370.752965 151.950775 
L 372.384395 176.572394 
L 374.015825 164.646761 
L 375.647254 159.365408 
L 377.278684 148.291606 
L 378.910114 196.334873 
L 380.541544 154.066583 
L 382.172974 142.158423 
L 383.804404 209.623437 
L 385.435834 195.994141 
L 387.067264 158.539132 
L 388.698693 159.535775 
L 390.330123 193.268282 
L 391.961553 185.431437 
L 393.592983 185.090704 
L 395.224413 159.897803 
L 396.855843 182.024113 
L 398.487273 189.349859 
L 398.487273 189.349859 
" style="fill:none;stroke:#1f77b4;stroke-linecap:square;stroke-width:0.25;"/>
   </g>
   <g id="line2d_18">
    <path clip-path="url(#p3b8914ceb0)" d="M 73.832727 210.304901 
L 204.347117 210.304901 
L 205.978547 209.436034 
L 207.609977 209.248631 
L 209.241407 209.906245 
L 210.872837 208.976045 
L 212.504267 210.075418 
L 214.135697 209.810093 
L 215.767127 210.331123 
L 217.398556 210.226761 
L 219.029986 195.653834 
L 220.661416 204.201842 
L 222.292846 207.570848 
L 223.924276 197.917475 
L 225.555706 205.16596 
L 227.187136 197.683848 
L 228.818566 192.796279 
L 230.449995 201.315312 
L 232.081425 191.934451 
L 233.712855 181.195473 
L 235.344285 189.619842 
L 236.975715 177.373938 
L 238.607145 190.245583 
L 241.870005 201.308707 
L 243.501434 195.032084 
L 245.132864 187.429892 
L 246.764294 198.522796 
L 248.395724 208.190068 
L 250.027154 194.838532 
L 251.658584 186.286914 
L 253.290014 197.653704 
L 254.921444 199.586222 
L 256.552873 192.538135 
L 258.184303 198.441046 
L 259.815733 194.308758 
L 261.447163 174.153097 
L 263.078593 200.480759 
L 264.710023 195.635813 
L 266.341453 207.849684 
L 267.972883 186.340559 
L 269.604312 193.570551 
L 271.235742 207.329065 
L 272.867172 180.997639 
L 274.498602 202.316133 
L 276.130032 182.424384 
L 277.761462 195.11272 
L 279.392892 174.036753 
L 281.024322 197.099002 
L 282.655751 183.386717 
L 284.287181 198.167795 
L 285.918611 180.789953 
L 287.550041 185.81332 
L 289.181471 178.093913 
L 290.812901 203.840832 
L 292.444331 186.821358 
L 294.075761 181.422738 
L 295.70719 195.052213 
L 297.33862 167.360898 
L 298.97005 158.387726 
L 300.60148 190.646617 
L 302.23291 183.267021 
L 303.86434 194.569064 
L 305.49577 180.955665 
L 307.1272 148.037579 
L 308.75863 161.638124 
L 310.390059 171.767481 
L 312.021489 160.991127 
L 313.652919 170.50931 
L 315.284349 191.869597 
L 316.915779 166.443183 
L 318.547209 194.889205 
L 320.178639 183.150723 
L 321.810069 193.282711 
L 323.441498 144.468368 
L 325.072928 178.021027 
L 326.704358 191.71668 
L 328.335788 164.781243 
L 329.967218 151.109808 
L 331.598648 176.461582 
L 333.230078 177.196595 
L 334.861508 162.558205 
L 336.492937 184.389622 
L 338.124367 177.362465 
L 339.755797 206.946138 
L 341.387227 142.69381 
L 343.018657 190.133724 
L 344.650087 180.423911 
L 346.281517 164.957479 
L 347.912947 188.131834 
L 349.544376 176.771525 
L 351.175806 190.053217 
L 352.807236 193.018015 
L 354.438666 170.115439 
L 356.070096 180.851425 
L 357.701526 192.510943 
L 359.332956 180.024238 
L 360.964386 207.17252 
L 362.595815 183.534561 
L 364.227245 197.886691 
L 365.858675 180.92491 
L 367.490105 194.590143 
L 369.121535 171.485817 
L 370.752965 154.61269 
L 372.384395 175.612219 
L 374.015825 166.981737 
L 375.647254 167.467764 
L 377.278684 153.864938 
L 378.910114 193.75682 
L 380.541544 157.734897 
L 382.172974 141.600973 
L 383.804404 203.162883 
L 385.435834 193.14444 
L 387.067264 160.484036 
L 388.698693 165.002048 
L 390.330123 189.938821 
L 391.961553 188.901359 
L 393.592983 184.665653 
L 395.224413 167.261604 
L 396.855843 186.561288 
L 398.487273 187.69573 
L 398.487273 187.69573 
" style="fill:none;stroke:#2ca02c;stroke-linecap:square;stroke-width:0.75;"/>
   </g>
   <g id="patch_3">
    <path d="M 57.6 307.584 
L 57.6 41.472 
" style="fill:none;stroke:#000000;stroke-linecap:square;stroke-linejoin:miter;stroke-width:0.8;"/>
   </g>
   <g id="patch_4">
    <path d="M 414.72 307.584 
L 414.72 41.472 
" style="fill:none;stroke:#000000;stroke-linecap:square;stroke-linejoin:miter;stroke-width:0.8;"/>
   </g>
   <g id="patch_5">
    <path d="M 57.6 307.584 
L 414.72 307.584 
" style="fill:none;stroke:#000000;stroke-linecap:square;stroke-linejoin:miter;stroke-width:0.8;"/>
   </g>
   <g id="patch_6">
    <path d="M 57.6 41.472 
L 414.72 41.472 
" style="fill:none;stroke:#000000;stroke-linecap:square;stroke-linejoin:miter;stroke-width:0.8;"/>
   </g>
   <g id="legend_1">
    <g id="patch_7">
     <path d="M 338.234063 78.82825 
L 407.72 78.82825 
Q 409.72 78.82825 409.72 76.82825 
L 409.72 48.472 
Q 409.72 46.472 407.72 46.472 
L 338.234063 46.472 
Q 336.234063 46.472 336.234063 48.472 
L 336.234063 76.82825 
Q 336.234063 78.82825 338.234063 78.82825 
z
" style="fill:#ffffff;opacity:0.8;stroke:#cccccc;stroke-linejoin:miter;"/>
    </g>
    <g id="line2d_19">
     <path d="M 340.234063 54.570437 
L 360.234063 54.570437 
" style="fill:none;stroke:#1f77b4;stroke-linecap:square;stroke-width:0.25;"/>
    </g>
    <g id="line2d_20"/>
    <g id="text_17">
     <!-- median -->
     <defs>
      <path d="M 52 44.1875 
Q 55.375 50.25 60.0625 53.125 
Q 64.75 56 71.09375 56 
Q 79.640625 56 84.28125 50.015625 
Q 88.921875 44.046875 88.921875 33.015625 
L 88.921875 0 
L 79.890625 0 
L 79.890625 32.71875 
Q 79.890625 40.578125 77.09375 44.375 
Q 74.3125 48.1875 68.609375 48.1875 
Q 61.625 48.1875 57.5625 43.546875 
Q 53.515625 38.921875 53.515625 30.90625 
L 53.515625 0 
L 44.484375 0 
L 44.484375 32.71875 
Q 44.484375 40.625 41.703125 44.40625 
Q 38.921875 48.1875 33.109375 48.1875 
Q 26.21875 48.1875 22.15625 43.53125 
Q 18.109375 38.875 18.109375 30.90625 
L 18.109375 0 
L 9.078125 0 
L 9.078125 54.6875 
L 18.109375 54.6875 
L 18.109375 46.1875 
Q 21.1875 51.21875 25.484375 53.609375 
Q 29.78125 56 35.6875 56 
Q 41.65625 56 45.828125 52.96875 
Q 50 49.953125 52 44.1875 
z
" id="DejaVuSans-109"/>
      <path d="M 56.203125 29.59375 
L 56.203125 25.203125 
L 14.890625 25.203125 
Q 15.484375 15.921875 20.484375 11.0625 
Q 25.484375 6.203125 34.421875 6.203125 
Q 39.59375 6.203125 44.453125 7.46875 
Q 49.3125 8.734375 54.109375 11.28125 
L 54.109375 2.78125 
Q 49.265625 0.734375 44.1875 -0.34375 
Q 39.109375 -1.421875 33.890625 -1.421875 
Q 20.796875 -1.421875 13.15625 6.1875 
Q 5.515625 13.8125 5.515625 26.8125 
Q 5.515625 40.234375 12.765625 48.109375 
Q 20.015625 56 32.328125 56 
Q 43.359375 56 49.78125 48.890625 
Q 56.203125 41.796875 56.203125 29.59375 
z
M 47.21875 32.234375 
Q 47.125 39.59375 43.09375 43.984375 
Q 39.0625 48.390625 32.421875 48.390625 
Q 24.90625 48.390625 20.390625 44.140625 
Q 15.875 39.890625 15.1875 32.171875 
z
" id="DejaVuSans-101"/>
      <path d="M 45.40625 46.390625 
L 45.40625 75.984375 
L 54.390625 75.984375 
L 54.390625 0 
L 45.40625 0 
L 45.40625 8.203125 
Q 42.578125 3.328125 38.25 0.953125 
Q 33.9375 -1.421875 27.875 -1.421875 
Q 17.96875 -1.421875 11.734375 6.484375 
Q 5.515625 14.40625 5.515625 27.296875 
Q 5.515625 40.1875 11.734375 48.09375 
Q 17.96875 56 27.875 56 
Q 33.9375 56 38.25 53.625 
Q 42.578125 51.265625 45.40625 46.390625 
z
M 14.796875 27.296875 
Q 14.796875 17.390625 18.875 11.75 
Q 22.953125 6.109375 30.078125 6.109375 
Q 37.203125 6.109375 41.296875 11.75 
Q 45.40625 17.390625 45.40625 27.296875 
Q 45.40625 37.203125 41.296875 42.84375 
Q 37.203125 48.484375 30.078125 48.484375 
Q 22.953125 48.484375 18.875 42.84375 
Q 14.796875 37.203125 14.796875 27.296875 
z
" id="DejaVuSans-100"/>
      <path d="M 9.421875 54.6875 
L 18.40625 54.6875 
L 18.40625 0 
L 9.421875 0 
z
M 9.421875 75.984375 
L 18.40625 75.984375 
L 18.40625 64.59375 
L 9.421875 64.59375 
z
" id="DejaVuSans-105"/>
      <path d="M 34.28125 27.484375 
Q 23.390625 27.484375 19.1875 25 
Q 14.984375 22.515625 14.984375 16.5 
Q 14.984375 11.71875 18.140625 8.90625 
Q 21.296875 6.109375 26.703125 6.109375 
Q 34.1875 6.109375 38.703125 11.40625 
Q 43.21875 16.703125 43.21875 25.484375 
L 43.21875 27.484375 
z
M 52.203125 31.203125 
L 52.203125 0 
L 43.21875 0 
L 43.21875 8.296875 
Q 40.140625 3.328125 35.546875 0.953125 
Q 30.953125 -1.421875 24.3125 -1.421875 
Q 15.921875 -1.421875 10.953125 3.296875 
Q 6 8.015625 6 15.921875 
Q 6 25.140625 12.171875 29.828125 
Q 18.359375 34.515625 30.609375 34.515625 
L 43.21875 34.515625 
L 43.21875 35.40625 
Q 43.21875 41.609375 39.140625 45 
Q 35.0625 48.390625 27.6875 48.390625 
Q 23 48.390625 18.546875 47.265625 
Q 14.109375 46.140625 10.015625 43.890625 
L 10.015625 52.203125 
Q 14.9375 54.109375 19.578125 55.046875 
Q 24.21875 56 28.609375 56 
Q 40.484375 56 46.34375 49.84375 
Q 52.203125 43.703125 52.203125 31.203125 
z
" id="DejaVuSans-97"/>
      <path d="M 54.890625 33.015625 
L 54.890625 0 
L 45.90625 0 
L 45.90625 32.71875 
Q 45.90625 40.484375 42.875 44.328125 
Q 39.84375 48.1875 33.796875 48.1875 
Q 26.515625 48.1875 22.3125 43.546875 
Q 18.109375 38.921875 18.109375 30.90625 
L 18.109375 0 
L 9.078125 0 
L 9.078125 54.6875 
L 18.109375 54.6875 
L 18.109375 46.1875 
Q 21.34375 51.125 25.703125 53.5625 
Q 30.078125 56 35.796875 56 
Q 45.21875 56 50.046875 50.171875 
Q 54.890625 44.34375 54.890625 33.015625 
z
" id="DejaVuSans-110"/>
     </defs>
     <g transform="translate(368.234063 58.070437)scale(0.1 -0.1)">
      <use xlink:href="#DejaVuSans-109"/>
      <use x="97.412109" xlink:href="#DejaVuSans-101"/>
      <use x="158.935547" xlink:href="#DejaVuSans-100"/>
      <use x="222.412109" xlink:href="#DejaVuSans-105"/>
      <use x="250.195312" xlink:href="#DejaVuSans-97"/>
      <use x="311.474609" xlink:href="#DejaVuSans-110"/>
     </g>
    </g>
    <g id="line2d_21">
     <path d="M 340.234063 69.248562 
L 360.234063 69.248562 
" style="fill:none;stroke:#2ca02c;stroke-linecap:square;stroke-width:0.75;"/>
    </g>
    <g id="line2d_22"/>
    <g id="text_18">
     <!-- mean -->
     <g transform="translate(368.234063 72.748562)scale(0.1 -0.1)">
      <use xlink:href="#DejaVuSans-109"/>
      <use x="97.412109" xlink:href="#DejaVuSans-101"/>
      <use x="158.935547" xlink:href="#DejaVuSans-97"/>
      <use x="220.214844" xlink:href="#DejaVuSans-110"/>
     </g>
    </g>
   </g>
  </g>
  <g id="text_19">
   <!-- kappa.mean over generations -->
   <defs>
    <path d="M 9.078125 75.984375 
L 18.109375 75.984375 
L 18.109375 31.109375 
L 44.921875 54.6875 
L 56.390625 54.6875 
L 27.390625 29.109375 
L 57.625 0 
L 45.90625 0 
L 18.109375 26.703125 
L 18.109375 0 
L 9.078125 0 
z
" id="DejaVuSans-107"/>
    <path d="M 18.109375 8.203125 
L 18.109375 -20.796875 
L 9.078125 -20.796875 
L 9.078125 54.6875 
L 18.109375 54.6875 
L 18.109375 46.390625 
Q 20.953125 51.265625 25.265625 53.625 
Q 29.59375 56 35.59375 56 
Q 45.5625 56 51.78125 48.09375 
Q 58.015625 40.1875 58.015625 27.296875 
Q 58.015625 14.40625 51.78125 6.484375 
Q 45.5625 -1.421875 35.59375 -1.421875 
Q 29.59375 -1.421875 25.265625 0.953125 
Q 20.953125 3.328125 18.109375 8.203125 
z
M 48.6875 27.296875 
Q 48.6875 37.203125 44.609375 42.84375 
Q 40.53125 48.484375 33.40625 48.484375 
Q 26.265625 48.484375 22.1875 42.84375 
Q 18.109375 37.203125 18.109375 27.296875 
Q 18.109375 17.390625 22.1875 11.75 
Q 26.265625 6.109375 33.40625 6.109375 
Q 40.53125 6.109375 44.609375 11.75 
Q 48.6875 17.390625 48.6875 27.296875 
z
" id="DejaVuSans-112"/>
    <path id="DejaVuSans-32"/>
    <path d="M 30.609375 48.390625 
Q 23.390625 48.390625 19.1875 42.75 
Q 14.984375 37.109375 14.984375 27.296875 
Q 14.984375 17.484375 19.15625 11.84375 
Q 23.34375 6.203125 30.609375 6.203125 
Q 37.796875 6.203125 41.984375 11.859375 
Q 46.1875 17.53125 46.1875 27.296875 
Q 46.1875 37.015625 41.984375 42.703125 
Q 37.796875 48.390625 30.609375 48.390625 
z
M 30.609375 56 
Q 42.328125 56 49.015625 48.375 
Q 55.71875 40.765625 55.71875 27.296875 
Q 55.71875 13.875 49.015625 6.21875 
Q 42.328125 -1.421875 30.609375 -1.421875 
Q 18.84375 -1.421875 12.171875 6.21875 
Q 5.515625 13.875 5.515625 27.296875 
Q 5.515625 40.765625 12.171875 48.375 
Q 18.84375 56 30.609375 56 
z
" id="DejaVuSans-111"/>
    <path d="M 2.984375 54.6875 
L 12.5 54.6875 
L 29.59375 8.796875 
L 46.6875 54.6875 
L 56.203125 54.6875 
L 35.6875 0 
L 23.484375 0 
z
" id="DejaVuSans-118"/>
    <path d="M 41.109375 46.296875 
Q 39.59375 47.171875 37.8125 47.578125 
Q 36.03125 48 33.890625 48 
Q 26.265625 48 22.1875 43.046875 
Q 18.109375 38.09375 18.109375 28.8125 
L 18.109375 0 
L 9.078125 0 
L 9.078125 54.6875 
L 18.109375 54.6875 
L 18.109375 46.1875 
Q 20.953125 51.171875 25.484375 53.578125 
Q 30.03125 56 36.53125 56 
Q 37.453125 56 38.578125 55.875 
Q 39.703125 55.765625 41.0625 55.515625 
z
" id="DejaVuSans-114"/>
    <path d="M 45.40625 27.984375 
Q 45.40625 37.75 41.375 43.109375 
Q 37.359375 48.484375 30.078125 48.484375 
Q 22.859375 48.484375 18.828125 43.109375 
Q 14.796875 37.75 14.796875 27.984375 
Q 14.796875 18.265625 18.828125 12.890625 
Q 22.859375 7.515625 30.078125 7.515625 
Q 37.359375 7.515625 41.375 12.890625 
Q 45.40625 18.265625 45.40625 27.984375 
z
M 54.390625 6.78125 
Q 54.390625 -7.171875 48.1875 -13.984375 
Q 42 -20.796875 29.203125 -20.796875 
Q 24.46875 -20.796875 20.265625 -20.09375 
Q 16.0625 -19.390625 12.109375 -17.921875 
L 12.109375 -9.1875 
Q 16.0625 -11.328125 19.921875 -12.34375 
Q 23.78125 -13.375 27.78125 -13.375 
Q 36.625 -13.375 41.015625 -8.765625 
Q 45.40625 -4.15625 45.40625 5.171875 
L 45.40625 9.625 
Q 42.625 4.78125 38.28125 2.390625 
Q 33.9375 0 27.875 0 
Q 17.828125 0 11.671875 7.65625 
Q 5.515625 15.328125 5.515625 27.984375 
Q 5.515625 40.671875 11.671875 48.328125 
Q 17.828125 56 27.875 56 
Q 33.9375 56 38.28125 53.609375 
Q 42.625 51.21875 45.40625 46.390625 
L 45.40625 54.6875 
L 54.390625 54.6875 
z
" id="DejaVuSans-103"/>
    <path d="M 18.3125 70.21875 
L 18.3125 54.6875 
L 36.8125 54.6875 
L 36.8125 47.703125 
L 18.3125 47.703125 
L 18.3125 18.015625 
Q 18.3125 11.328125 20.140625 9.421875 
Q 21.96875 7.515625 27.59375 7.515625 
L 36.8125 7.515625 
L 36.8125 0 
L 27.59375 0 
Q 17.1875 0 13.234375 3.875 
Q 9.28125 7.765625 9.28125 18.015625 
L 9.28125 47.703125 
L 2.6875 47.703125 
L 2.6875 54.6875 
L 9.28125 54.6875 
L 9.28125 70.21875 
z
" id="DejaVuSans-116"/>
    <path d="M 44.28125 53.078125 
L 44.28125 44.578125 
Q 40.484375 46.53125 36.375 47.5 
Q 32.28125 48.484375 27.875 48.484375 
Q 21.1875 48.484375 17.84375 46.4375 
Q 14.5 44.390625 14.5 40.28125 
Q 14.5 37.15625 16.890625 35.375 
Q 19.28125 33.59375 26.515625 31.984375 
L 29.59375 31.296875 
Q 39.15625 29.25 43.1875 25.515625 
Q 47.21875 21.78125 47.21875 15.09375 
Q 47.21875 7.46875 41.1875 3.015625 
Q 35.15625 -1.421875 24.609375 -1.421875 
Q 20.21875 -1.421875 15.453125 -0.5625 
Q 10.6875 0.296875 5.421875 2 
L 5.421875 11.28125 
Q 10.40625 8.6875 15.234375 7.390625 
Q 20.0625 6.109375 24.8125 6.109375 
Q 31.15625 6.109375 34.5625 8.28125 
Q 37.984375 10.453125 37.984375 14.40625 
Q 37.984375 18.0625 35.515625 20.015625 
Q 33.0625 21.96875 24.703125 23.78125 
L 21.578125 24.515625 
Q 13.234375 26.265625 9.515625 29.90625 
Q 5.8125 33.546875 5.8125 39.890625 
Q 5.8125 47.609375 11.28125 51.796875 
Q 16.75 56 26.8125 56 
Q 31.78125 56 36.171875 55.265625 
Q 40.578125 54.546875 44.28125 53.078125 
z
" id="DejaVuSans-115"/>
   </defs>
   <g transform="translate(140.184375 16.030125)scale(0.12 -0.12)">
    <use xlink:href="#DejaVuSans-107"/>
    <use x="56.160156" xlink:href="#DejaVuSans-97"/>
    <use x="117.439453" xlink:href="#DejaVuSans-112"/>
    <use x="180.916016" xlink:href="#DejaVuSans-112"/>
    <use x="244.392578" xlink:href="#DejaVuSans-97"/>
    <use x="305.671875" xlink:href="#DejaVuSans-46"/>
    <use x="337.458984" xlink:href="#DejaVuSans-109"/>
    <use x="434.871094" xlink:href="#DejaVuSans-101"/>
    <use x="496.394531" xlink:href="#DejaVuSans-97"/>
    <use x="557.673828" xlink:href="#DejaVuSans-110"/>
    <use x="621.052734" xlink:href="#DejaVuSans-32"/>
    <use x="652.839844" xlink:href="#DejaVuSans-111"/>
    <use x="714.021484" xlink:href="#DejaVuSans-118"/>
    <use x="773.201172" xlink:href="#DejaVuSans-101"/>
    <use x="834.724609" xlink:href="#DejaVuSans-114"/>
    <use x="875.837891" xlink:href="#DejaVuSans-32"/>
    <use x="907.625" xlink:href="#DejaVuSans-103"/>
    <use x="971.101562" xlink:href="#DejaVuSans-101"/>
    <use x="1032.625" xlink:href="#DejaVuSans-110"/>
    <use x="1096.003906" xlink:href="#DejaVuSans-101"/>
    <use x="1157.527344" xlink:href="#DejaVuSans-114"/>
    <use x="1198.640625" xlink:href="#DejaVuSans-97"/>
    <use x="1259.919922" xlink:href="#DejaVuSans-116"/>
    <use x="1299.128906" xlink:href="#DejaVuSans-105"/>
    <use x="1326.912109" xlink:href="#DejaVuSans-111"/>
    <use x="1388.09375" xlink:href="#DejaVuSans-110"/>
    <use x="1451.472656" xlink:href="#DejaVuSans-115"/>
   </g>
  </g>
 </g>
 <defs>
  <clipPath id="p3b8914ceb0">
   <rect height="266.112" width="357.12" x="57.6" y="41.472"/>
  </clipPath>
 </defs>
</svg>
