<?xml version="1.0" encoding="utf-8" standalone="no"?>
<!DOCTYPE svg PUBLIC "-//W3C//DTD SVG 1.1//EN"
  "http://www.w3.org/Graphics/SVG/1.1/DTD/svg11.dtd">
<!-- Created with matplotlib (https://matplotlib.org/) -->
<svg height="345.6pt" version="1.1" viewBox="0 0 460.8 345.6" width="460.8pt" xmlns="http://www.w3.org/2000/svg" xmlns:xlink="http://www.w3.org/1999/xlink">
 <defs>
  <style type="text/css">
*{stroke-linecap:butt;stroke-linejoin:round;}
  </style>
 </defs>
 <g id="figure_1">
  <g id="patch_1">
   <path d="M 0 345.6 
L 460.8 345.6 
L 460.8 0 
L 0 0 
z
" style="fill:#ffffff;"/>
  </g>
  <g id="axes_1">
   <g id="patch_2">
    <path d="M 57.6 307.584 
L 414.72 307.584 
L 414.72 41.472 
L 57.6 41.472 
z
" style="fill:#ffffff;"/>
   </g>
   <g id="PolyCollection_1">
    <path clip-path="url(#p475ce8b14d)" d="M 73.832727 284.670269 
L 73.832727 285.798408 
L 75.464157 285.798408 
L 77.095587 285.798408 
L 78.727017 285.798408 
L 80.358447 285.798408 
L 81.989877 285.798408 
L 83.621307 285.798408 
L 85.252736 285.798408 
L 86.884166 285.798408 
L 88.515596 285.798408 
L 90.147026 285.798408 
L 91.778456 285.798408 
L 93.409886 285.798408 
L 95.041316 285.798408 
L 96.672746 285.798408 
L 98.304175 285.798408 
L 99.935605 285.798408 
L 101.567035 285.798408 
L 103.198465 285.798408 
L 104.829895 285.798408 
L 106.461325 285.798408 
L 108.092755 285.798408 
L 109.724185 285.798408 
L 111.355614 285.798408 
L 112.987044 285.798408 
L 114.618474 285.798408 
L 116.249904 285.798408 
L 117.881334 285.798408 
L 119.512764 285.798408 
L 121.144194 285.798408 
L 122.775624 285.798408 
L 124.407053 285.798408 
L 126.038483 285.798408 
L 127.669913 285.798408 
L 129.301343 285.798408 
L 130.932773 285.798408 
L 132.564203 285.798408 
L 134.195633 285.798408 
L 135.827063 285.798408 
L 137.458492 285.798408 
L 139.089922 285.798408 
L 140.721352 285.798408 
L 142.352782 285.798408 
L 143.984212 285.798408 
L 145.615642 285.798408 
L 147.247072 285.798408 
L 148.878502 285.798408 
L 150.509931 285.798408 
L 152.141361 285.798408 
L 153.772791 285.798408 
L 155.404221 285.798408 
L 157.035651 285.798408 
L 158.667081 285.798408 
L 160.298511 285.798408 
L 161.929941 285.798408 
L 163.56137 285.798408 
L 165.1928 285.798408 
L 166.82423 285.798408 
L 168.45566 285.798408 
L 170.08709 285.798408 
L 171.71852 285.798408 
L 173.34995 285.798408 
L 174.98138 285.798408 
L 176.61281 285.798408 
L 178.244239 285.798408 
L 179.875669 285.798408 
L 181.507099 285.798408 
L 183.138529 285.798408 
L 184.769959 285.798408 
L 186.401389 285.798408 
L 188.032819 285.798408 
L 189.664249 285.798408 
L 191.295678 285.798408 
L 192.927108 285.798408 
L 194.558538 285.798408 
L 196.189968 285.798408 
L 197.821398 285.798408 
L 199.452828 285.798408 
L 201.084258 285.798408 
L 202.715688 285.798408 
L 204.347117 285.798408 
L 205.978547 285.455033 
L 207.609977 285.041592 
L 209.241407 285.798408 
L 210.872837 285.798408 
L 212.504267 285.798408 
L 214.135697 285.455033 
L 215.767127 285.739679 
L 217.398556 285.633879 
L 219.029986 284.813004 
L 220.661416 285.424927 
L 222.292846 285.929373 
L 223.924276 285.454041 
L 225.555706 285.729981 
L 227.187136 285.177459 
L 228.818566 286.975863 
L 230.449995 285.268809 
L 232.081425 285.848977 
L 233.712855 289.229087 
L 235.344285 285.874399 
L 236.975715 288.727934 
L 238.607145 286.877781 
L 240.238575 285.704971 
L 241.870005 285.806378 
L 243.501434 286.769299 
L 245.132864 286.069149 
L 246.764294 284.733061 
L 248.395724 285.789153 
L 250.027154 285.83604 
L 251.658584 286.157665 
L 253.290014 285.714263 
L 254.921444 286.26484 
L 256.552873 286.287821 
L 258.184303 287.134751 
L 259.815733 287.621209 
L 261.447163 287.499322 
L 263.078593 286.070459 
L 264.710023 285.794688 
L 266.341453 285.822991 
L 267.972883 284.783093 
L 269.604312 285.667009 
L 271.235742 285.793593 
L 272.867172 285.727594 
L 274.498602 286.029912 
L 276.130032 289.304873 
L 277.761462 287.350863 
L 279.392892 288.053128 
L 281.024322 287.291983 
L 282.655751 288.258345 
L 284.287181 287.025969 
L 285.918611 287.441673 
L 287.550041 288.075706 
L 289.181471 289.479672 
L 290.812901 285.983624 
L 292.444331 288.55433 
L 294.075761 289.289554 
L 295.70719 287.160632 
L 297.33862 289.880709 
L 298.97005 290.349012 
L 300.60148 287.82374 
L 302.23291 289.148402 
L 303.86434 287.337262 
L 305.49577 286.677184 
L 307.1272 291.550804 
L 308.75863 289.709263 
L 310.390059 289.765879 
L 312.021489 289.660331 
L 313.652919 289.538778 
L 315.284349 287.815266 
L 316.915779 291.252093 
L 318.547209 287.684383 
L 320.178639 289.224762 
L 321.810069 287.802783 
L 323.441498 292.935612 
L 325.072928 288.762436 
L 326.704358 287.166631 
L 328.335788 289.593093 
L 329.967218 292.647952 
L 331.598648 290.029464 
L 333.230078 289.177569 
L 334.861508 290.08745 
L 336.492937 289.209224 
L 338.124367 289.213042 
L 339.755797 285.773514 
L 341.387227 293.250284 
L 343.018657 287.622052 
L 344.650087 288.577689 
L 346.281517 289.517554 
L 347.912947 287.894008 
L 349.544376 289.470672 
L 351.175806 287.644953 
L 352.807236 287.747178 
L 354.438666 289.42886 
L 356.070096 289.572935 
L 357.701526 287.750499 
L 359.332956 288.819403 
L 360.964386 285.798411 
L 362.595815 289.295522 
L 364.227245 287.320872 
L 365.858675 289.417057 
L 367.490105 287.544076 
L 369.121535 289.824125 
L 370.752965 293.181353 
L 372.384395 289.135727 
L 374.015825 290.043555 
L 375.647254 290.350907 
L 377.278684 292.183489 
L 378.910114 287.596142 
L 380.541544 290.791798 
L 382.172974 292.530632 
L 383.804404 286.019399 
L 385.435834 287.82034 
L 387.067264 291.109946 
L 388.698693 290.577908 
L 390.330123 287.689899 
L 391.961553 287.684105 
L 393.592983 288.044543 
L 395.224413 290.766074 
L 396.855843 287.838837 
L 398.487273 287.764356 
L 398.487273 285.782086 
L 398.487273 285.782086 
L 396.855843 285.582912 
L 395.224413 282.570506 
L 393.592983 285.922486 
L 391.961553 284.937566 
L 390.330123 283.357289 
L 388.698693 283.524997 
L 387.067264 282.836984 
L 385.435834 283.060009 
L 383.804404 285.41284 
L 382.172974 284.635141 
L 380.541544 281.634588 
L 378.910114 284.220065 
L 377.278684 284.355165 
L 375.647254 283.912153 
L 374.015825 283.484031 
L 372.384395 285.650208 
L 370.752965 283.006479 
L 369.121535 284.753256 
L 367.490105 285.036698 
L 365.858675 280.831818 
L 364.227245 281.413341 
L 362.595815 284.465832 
L 360.964386 285.798408 
L 359.332956 285.875849 
L 357.701526 283.321606 
L 356.070096 283.400837 
L 354.438666 283.045953 
L 352.807236 282.662765 
L 351.175806 284.390106 
L 349.544376 277.718478 
L 347.912947 284.464913 
L 346.281517 283.254063 
L 344.650087 283.802171 
L 343.018657 284.289057 
L 341.387227 266.066551 
L 339.755797 284.836945 
L 338.124367 284.924752 
L 336.492937 284.761049 
L 334.861508 283.850727 
L 333.230078 285.525363 
L 331.598648 285.407166 
L 329.967218 284.100149 
L 328.335788 283.159476 
L 326.704358 285.198994 
L 325.072928 283.687934 
L 323.441498 284.041626 
L 321.810069 284.175071 
L 320.178639 284.745181 
L 318.547209 284.738664 
L 316.915779 282.158098 
L 315.284349 284.297923 
L 313.652919 281.941633 
L 312.021489 278.945949 
L 310.390059 281.727069 
L 308.75863 281.060555 
L 307.1272 279.798431 
L 305.49577 282.450639 
L 303.86434 284.740237 
L 302.23291 282.440144 
L 300.60148 284.018494 
L 298.97005 279.737694 
L 297.33862 283.688719 
L 295.70719 285.394819 
L 294.075761 268.579799 
L 292.444331 283.093538 
L 290.812901 285.592248 
L 289.181471 284.311948 
L 287.550041 284.622318 
L 285.918611 282.647365 
L 284.287181 285.15736 
L 282.655751 281.006203 
L 281.024322 285.014785 
L 279.392892 277.7235 
L 277.761462 285.203577 
L 276.130032 284.238769 
L 274.498602 285.014845 
L 272.867172 279.866091 
L 271.235742 285.563224 
L 269.604312 280.124113 
L 267.972883 279.451304 
L 266.341453 285.775161 
L 264.710023 275.22783 
L 263.078593 285.031433 
L 261.447163 279.15062 
L 259.815733 280.065322 
L 258.184303 285.174261 
L 256.552873 284.664208 
L 254.921444 284.758853 
L 253.290014 280.594284 
L 251.658584 280.473157 
L 250.027154 282.251203 
L 248.395724 285.310934 
L 246.764294 281.058909 
L 245.132864 273.502279 
L 243.501434 282.227772 
L 241.870005 276.068818 
L 240.238575 282.304328 
L 238.607145 282.496824 
L 236.975715 280.176495 
L 235.344285 282.051537 
L 233.712855 280.275824 
L 232.081425 282.776337 
L 230.449995 282.433353 
L 228.818566 283.773792 
L 227.187136 281.257046 
L 225.555706 280.111489 
L 223.924276 280.389156 
L 222.292846 284.389479 
L 220.661416 283.881292 
L 219.029986 280.554733 
L 217.398556 284.529464 
L 215.767127 283.421325 
L 214.135697 283.071241 
L 212.504267 284.388234 
L 210.872837 284.388234 
L 209.241407 272.207809 
L 207.609977 267.669814 
L 205.978547 273.113919 
L 204.347117 284.952303 
L 202.715688 285.455033 
L 201.084258 284.952303 
L 199.452828 285.234338 
L 197.821398 285.234338 
L 196.189968 284.952303 
L 194.558538 285.234338 
L 192.927108 284.670269 
L 191.295678 284.952303 
L 189.664249 285.234338 
L 188.032819 285.234338 
L 186.401389 285.516373 
L 184.769959 285.798408 
L 183.138529 284.670269 
L 181.507099 285.234338 
L 179.875669 284.952303 
L 178.244239 284.952303 
L 176.61281 285.234338 
L 174.98138 285.516373 
L 173.34995 284.952303 
L 171.71852 284.952303 
L 170.08709 285.455033 
L 168.45566 284.670269 
L 166.82423 284.670269 
L 165.1928 284.952303 
L 163.56137 285.455033 
L 161.929941 284.670269 
L 160.298511 285.234338 
L 158.667081 285.234338 
L 157.035651 284.952303 
L 155.404221 285.455033 
L 153.772791 284.670269 
L 152.141361 285.455033 
L 150.509931 285.455033 
L 148.878502 284.952303 
L 147.247072 284.952303 
L 145.615642 284.670269 
L 143.984212 285.455033 
L 142.352782 284.952303 
L 140.721352 284.952303 
L 139.089922 285.455033 
L 137.458492 284.670269 
L 135.827063 284.952303 
L 134.195633 285.329351 
L 132.564203 284.952303 
L 130.932773 285.516373 
L 129.301343 285.234338 
L 127.669913 284.670269 
L 126.038483 284.952303 
L 124.407053 284.670269 
L 122.775624 285.234338 
L 121.144194 284.670269 
L 119.512764 285.234338 
L 117.881334 284.952303 
L 116.249904 285.455033 
L 114.618474 284.670269 
L 112.987044 285.234338 
L 111.355614 285.234338 
L 109.724185 284.952303 
L 108.092755 284.670269 
L 106.461325 285.234338 
L 104.829895 285.455033 
L 103.198465 285.234338 
L 101.567035 285.234338 
L 99.935605 284.670269 
L 98.304175 284.670269 
L 96.672746 285.455033 
L 95.041316 285.455033 
L 93.409886 285.234338 
L 91.778456 285.234338 
L 90.147026 284.670269 
L 88.515596 285.455033 
L 86.884166 285.455033 
L 85.252736 285.234338 
L 83.621307 284.670269 
L 81.989877 284.952303 
L 80.358447 284.952303 
L 78.727017 285.329351 
L 77.095587 284.952303 
L 75.464157 285.234338 
L 73.832727 284.670269 
z
" style="fill:#1f77b4;fill-opacity:0.2;"/>
   </g>
   <g id="PolyCollection_2">
    <path clip-path="url(#p475ce8b14d)" d="M 73.832727 284.388234 
L 73.832727 285.798408 
L 75.464157 285.798408 
L 77.095587 285.798408 
L 78.727017 285.798408 
L 80.358447 285.798408 
L 81.989877 285.798408 
L 83.621307 285.798408 
L 85.252736 285.798408 
L 86.884166 285.798408 
L 88.515596 285.798408 
L 90.147026 285.798408 
L 91.778456 285.798408 
L 93.409886 285.798408 
L 95.041316 285.798408 
L 96.672746 285.798408 
L 98.304175 285.798408 
L 99.935605 285.798408 
L 101.567035 285.798408 
L 103.198465 285.798408 
L 104.829895 285.798408 
L 106.461325 285.798408 
L 108.092755 285.798408 
L 109.724185 285.798408 
L 111.355614 285.798408 
L 112.987044 285.798408 
L 114.618474 285.798408 
L 116.249904 285.798408 
L 117.881334 285.798408 
L 119.512764 285.798408 
L 121.144194 285.798408 
L 122.775624 285.798408 
L 124.407053 285.798408 
L 126.038483 285.798408 
L 127.669913 285.798408 
L 129.301343 285.798408 
L 130.932773 285.798408 
L 132.564203 285.798408 
L 134.195633 285.798408 
L 135.827063 285.798408 
L 137.458492 285.798408 
L 139.089922 285.798408 
L 140.721352 285.798408 
L 142.352782 285.798408 
L 143.984212 285.798408 
L 145.615642 285.798408 
L 147.247072 285.798408 
L 148.878502 285.798408 
L 150.509931 285.798408 
L 152.141361 285.798408 
L 153.772791 285.798408 
L 155.404221 285.798408 
L 157.035651 285.798408 
L 158.667081 285.798408 
L 160.298511 285.798408 
L 161.929941 285.798408 
L 163.56137 285.798408 
L 165.1928 285.798408 
L 166.82423 285.798408 
L 168.45566 285.798408 
L 170.08709 285.798408 
L 171.71852 285.798408 
L 173.34995 285.798408 
L 174.98138 285.798408 
L 176.61281 285.798408 
L 178.244239 285.798408 
L 179.875669 285.798408 
L 181.507099 285.798408 
L 183.138529 285.798408 
L 184.769959 285.798408 
L 186.401389 285.798408 
L 188.032819 285.798408 
L 189.664249 285.798408 
L 191.295678 285.798408 
L 192.927108 285.798408 
L 194.558538 285.798408 
L 196.189968 285.798408 
L 197.821398 285.798408 
L 199.452828 285.798408 
L 201.084258 285.798408 
L 202.715688 285.798408 
L 204.347117 285.798408 
L 205.978547 285.798408 
L 207.609977 285.798408 
L 209.241407 285.798408 
L 210.872837 285.798408 
L 212.504267 285.798408 
L 214.135697 285.798408 
L 215.767127 285.835539 
L 217.398556 286.797784 
L 219.029986 286.948167 
L 220.661416 286.993977 
L 222.292846 287.04656 
L 223.924276 286.882187 
L 225.555706 288.67594 
L 227.187136 288.665124 
L 228.818566 289.188121 
L 230.449995 289.323314 
L 232.081425 289.609182 
L 233.712855 290.652512 
L 235.344285 290.012966 
L 236.975715 290.135453 
L 238.607145 290.365491 
L 240.238575 289.964727 
L 241.870005 290.046995 
L 243.501434 290.115176 
L 245.132864 290.219376 
L 246.764294 288.531463 
L 248.395724 288.268127 
L 250.027154 288.268617 
L 251.658584 288.282082 
L 253.290014 288.501983 
L 254.921444 288.372891 
L 256.552873 288.730558 
L 258.184303 288.665545 
L 259.815733 289.068333 
L 261.447163 291.571158 
L 263.078593 289.155865 
L 264.710023 289.44916 
L 266.341453 289.022643 
L 267.972883 291.469504 
L 269.604312 289.86637 
L 271.235742 289.681243 
L 272.867172 292.560637 
L 274.498602 289.388057 
L 276.130032 291.105988 
L 277.761462 289.390994 
L 279.392892 293.807423 
L 281.024322 289.509572 
L 282.655751 290.169058 
L 284.287181 289.451037 
L 285.918611 291.588898 
L 287.550041 289.435839 
L 289.181471 290.498703 
L 290.812901 290.281404 
L 292.444331 290.260473 
L 294.075761 290.240895 
L 295.70719 290.118236 
L 297.33862 292.03535 
L 298.97005 293.935337 
L 300.60148 290.262472 
L 302.23291 290.23987 
L 303.86434 290.14122 
L 305.49577 291.617083 
L 307.1272 295.488 
L 308.75863 293.335326 
L 310.390059 291.356208 
L 312.021489 294.65137 
L 313.652919 290.590653 
L 315.284349 290.513654 
L 316.915779 291.91389 
L 318.547209 290.477288 
L 320.178639 290.449312 
L 321.810069 290.383559 
L 323.441498 293.613012 
L 325.072928 290.421812 
L 326.704358 290.345625 
L 328.335788 291.532993 
L 329.967218 293.666211 
L 331.598648 291.485234 
L 333.230078 289.930492 
L 334.861508 291.377954 
L 336.492937 289.972766 
L 338.124367 290.480003 
L 339.755797 290.247897 
L 341.387227 293.797473 
L 343.018657 289.890946 
L 344.650087 289.86829 
L 346.281517 291.686519 
L 347.912947 289.863066 
L 349.544376 289.861537 
L 351.175806 289.794105 
L 352.807236 289.735865 
L 354.438666 290.946293 
L 356.070096 290.147781 
L 357.701526 290.044459 
L 359.332956 289.995537 
L 360.964386 289.820656 
L 362.595815 289.807134 
L 364.227245 289.729362 
L 365.858675 292.0217 
L 367.490105 289.764843 
L 369.121535 291.698576 
L 370.752965 293.39456 
L 372.384395 290.008996 
L 374.015825 291.040435 
L 375.647254 290.577474 
L 377.278684 292.66512 
L 378.910114 290.163324 
L 380.541544 292.02805 
L 382.172974 292.995562 
L 383.804404 289.951224 
L 385.435834 289.867638 
L 387.067264 291.336295 
L 388.698693 290.927168 
L 390.330123 289.763194 
L 391.961553 289.673963 
L 393.592983 289.615108 
L 395.224413 291.366379 
L 396.855843 289.399559 
L 398.487273 289.37003 
L 398.487273 203.419726 
L 398.487273 203.419726 
L 396.855843 191.859809 
L 395.224413 132.376285 
L 393.592983 209.512686 
L 391.961553 233.688018 
L 390.330123 233.747232 
L 388.698693 167.584629 
L 387.067264 166.154678 
L 385.435834 123.952378 
L 383.804404 154.324343 
L 382.172974 105.733468 
L 380.541544 109.9717 
L 378.910114 87.162426 
L 377.278684 186.91694 
L 375.647254 193.906632 
L 374.015825 106.759605 
L 372.384395 154.742159 
L 370.752965 159.995177 
L 369.121535 136.108083 
L 367.490105 208.248165 
L 365.858675 105.151606 
L 364.227245 71.241973 
L 362.595815 106.138554 
L 360.964386 92.804747 
L 359.332956 166.363944 
L 357.701526 63.916032 
L 356.070096 131.245481 
L 354.438666 128.011154 
L 352.807236 154.154447 
L 351.175806 61.250134 
L 349.544376 119.142379 
L 347.912947 138.550649 
L 346.281517 130.649802 
L 344.650087 148.984063 
L 343.018657 116.664428 
L 341.387227 188.746989 
L 339.755797 259.775963 
L 338.124367 162.725493 
L 336.492937 143.706752 
L 334.861508 128.369541 
L 333.230078 170.164377 
L 331.598648 148.414786 
L 329.967218 83.824138 
L 328.335788 72.049579 
L 326.704358 204.631312 
L 325.072928 219.581904 
L 323.441498 75.935781 
L 321.810069 53.568 
L 320.178639 152.900992 
L 318.547209 109.74583 
L 316.915779 108.753655 
L 315.284349 234.047 
L 313.652919 148.77082 
L 312.021489 73.015136 
L 310.390059 161.487754 
L 308.75863 144.558502 
L 307.1272 56.789951 
L 305.49577 119.884111 
L 303.86434 153.795144 
L 302.23291 179.27303 
L 300.60148 84.837289 
L 298.97005 81.066124 
L 297.33862 131.710892 
L 295.70719 263.531442 
L 294.075761 182.295591 
L 292.444331 157.288386 
L 290.812901 123.635326 
L 289.181471 182.624787 
L 287.550041 222.284673 
L 285.918611 152.597803 
L 284.287181 94.105866 
L 282.655751 160.579052 
L 281.024322 198.457398 
L 279.392892 78.792774 
L 277.761462 88.107914 
L 276.130032 175.659953 
L 274.498602 176.963662 
L 272.867172 132.093491 
L 271.235742 160.245915 
L 269.604312 84.164603 
L 267.972883 130.544182 
L 266.341453 157.221382 
L 264.710023 71.275677 
L 263.078593 205.564744 
L 261.447163 122.422132 
L 259.815733 106.429179 
L 258.184303 125.901581 
L 256.552873 216.417963 
L 254.921444 275.624124 
L 253.290014 157.516565 
L 251.658584 136.683149 
L 250.027154 186.588722 
L 248.395724 144.345369 
L 246.764294 163.301401 
L 245.132864 105.846262 
L 243.501434 134.434815 
L 241.870005 118.661142 
L 240.238575 216.910728 
L 238.607145 134.40633 
L 236.975715 195.379041 
L 235.344285 189.343782 
L 233.712855 132.04004 
L 232.081425 130.906162 
L 230.449995 149.49839 
L 228.818566 176.984819 
L 227.187136 161.320639 
L 225.555706 225.477736 
L 223.924276 215.628346 
L 222.292846 245.827964 
L 220.661416 197.950607 
L 219.029986 177.618184 
L 217.398556 251.797941 
L 215.767127 252.819797 
L 214.135697 258.763262 
L 212.504267 240.916062 
L 210.872837 234.031874 
L 209.241407 235.168458 
L 207.609977 237.66065 
L 205.978547 235.479142 
L 204.347117 250.807995 
L 202.715688 253.361416 
L 201.084258 245.470706 
L 199.452828 239.681743 
L 197.821398 284.388234 
L 196.189968 284.388234 
L 194.558538 284.388234 
L 192.927108 284.388234 
L 191.295678 284.388234 
L 189.664249 284.388234 
L 188.032819 284.388234 
L 186.401389 284.388234 
L 184.769959 284.388234 
L 183.138529 284.388234 
L 181.507099 284.388234 
L 179.875669 284.388234 
L 178.244239 284.388234 
L 176.61281 284.388234 
L 174.98138 284.388234 
L 173.34995 284.388234 
L 171.71852 284.388234 
L 170.08709 284.388234 
L 168.45566 284.388234 
L 166.82423 284.388234 
L 165.1928 284.388234 
L 163.56137 284.388234 
L 161.929941 284.388234 
L 160.298511 284.388234 
L 158.667081 284.388234 
L 157.035651 284.388234 
L 155.404221 284.388234 
L 153.772791 284.388234 
L 152.141361 284.388234 
L 150.509931 284.388234 
L 148.878502 284.388234 
L 147.247072 284.388234 
L 145.615642 284.388234 
L 143.984212 284.388234 
L 142.352782 284.388234 
L 140.721352 284.388234 
L 139.089922 284.388234 
L 137.458492 284.388234 
L 135.827063 284.388234 
L 134.195633 284.388234 
L 132.564203 284.388234 
L 130.932773 284.388234 
L 129.301343 284.388234 
L 127.669913 284.388234 
L 126.038483 284.388234 
L 124.407053 284.388234 
L 122.775624 284.388234 
L 121.144194 284.388234 
L 119.512764 284.388234 
L 117.881334 284.388234 
L 116.249904 284.388234 
L 114.618474 284.388234 
L 112.987044 284.388234 
L 111.355614 284.388234 
L 109.724185 284.388234 
L 108.092755 284.388234 
L 106.461325 284.388234 
L 104.829895 284.388234 
L 103.198465 284.388234 
L 101.567035 284.388234 
L 99.935605 284.388234 
L 98.304175 284.388234 
L 96.672746 284.388234 
L 95.041316 284.388234 
L 93.409886 284.388234 
L 91.778456 284.388234 
L 90.147026 284.388234 
L 88.515596 284.388234 
L 86.884166 284.388234 
L 85.252736 284.388234 
L 83.621307 284.388234 
L 81.989877 284.388234 
L 80.358447 284.388234 
L 78.727017 284.388234 
L 77.095587 284.388234 
L 75.464157 284.388234 
L 73.832727 284.388234 
z
" style="fill:#1f77b4;fill-opacity:0.1;"/>
   </g>
   <g id="matplotlib.axis_1">
    <g id="xtick_1">
     <g id="line2d_1">
      <defs>
       <path d="M 0 0 
L 0 3.5 
" id="m3c8e8a4d6b" style="stroke:#000000;stroke-width:0.8;"/>
      </defs>
      <g>
       <use style="stroke:#000000;stroke-width:0.8;" x="73.832727" xlink:href="#m3c8e8a4d6b" y="307.584"/>
      </g>
     </g>
     <g id="text_1">
      <!-- 0 -->
      <defs>
       <path d="M 31.78125 66.40625 
Q 24.171875 66.40625 20.328125 58.90625 
Q 16.5 51.421875 16.5 36.375 
Q 16.5 21.390625 20.328125 13.890625 
Q 24.171875 6.390625 31.78125 6.390625 
Q 39.453125 6.390625 43.28125 13.890625 
Q 47.125 21.390625 47.125 36.375 
Q 47.125 51.421875 43.28125 58.90625 
Q 39.453125 66.40625 31.78125 66.40625 
z
M 31.78125 74.21875 
Q 44.046875 74.21875 50.515625 64.515625 
Q 56.984375 54.828125 56.984375 36.375 
Q 56.984375 17.96875 50.515625 8.265625 
Q 44.046875 -1.421875 31.78125 -1.421875 
Q 19.53125 -1.421875 13.0625 8.265625 
Q 6.59375 17.96875 6.59375 36.375 
Q 6.59375 54.828125 13.0625 64.515625 
Q 19.53125 74.21875 31.78125 74.21875 
z
" id="DejaVuSans-48"/>
      </defs>
      <g transform="translate(70.651477 322.182437)scale(0.1 -0.1)">
       <use xlink:href="#DejaVuSans-48"/>
      </g>
     </g>
    </g>
    <g id="xtick_2">
     <g id="line2d_2">
      <g>
       <use style="stroke:#000000;stroke-width:0.8;" x="114.618474" xlink:href="#m3c8e8a4d6b" y="307.584"/>
      </g>
     </g>
     <g id="text_2">
      <!-- 25 -->
      <defs>
       <path d="M 19.1875 8.296875 
L 53.609375 8.296875 
L 53.609375 0 
L 7.328125 0 
L 7.328125 8.296875 
Q 12.9375 14.109375 22.625 23.890625 
Q 32.328125 33.6875 34.8125 36.53125 
Q 39.546875 41.84375 41.421875 45.53125 
Q 43.3125 49.21875 43.3125 52.78125 
Q 43.3125 58.59375 39.234375 62.25 
Q 35.15625 65.921875 28.609375 65.921875 
Q 23.96875 65.921875 18.8125 64.3125 
Q 13.671875 62.703125 7.8125 59.421875 
L 7.8125 69.390625 
Q 13.765625 71.78125 18.9375 73 
Q 24.125 74.21875 28.421875 74.21875 
Q 39.75 74.21875 46.484375 68.546875 
Q 53.21875 62.890625 53.21875 53.421875 
Q 53.21875 48.921875 51.53125 44.890625 
Q 49.859375 40.875 45.40625 35.40625 
Q 44.1875 33.984375 37.640625 27.21875 
Q 31.109375 20.453125 19.1875 8.296875 
z
" id="DejaVuSans-50"/>
       <path d="M 10.796875 72.90625 
L 49.515625 72.90625 
L 49.515625 64.59375 
L 19.828125 64.59375 
L 19.828125 46.734375 
Q 21.96875 47.46875 24.109375 47.828125 
Q 26.265625 48.1875 28.421875 48.1875 
Q 40.625 48.1875 47.75 41.5 
Q 54.890625 34.8125 54.890625 23.390625 
Q 54.890625 11.625 47.5625 5.09375 
Q 40.234375 -1.421875 26.90625 -1.421875 
Q 22.3125 -1.421875 17.546875 -0.640625 
Q 12.796875 0.140625 7.71875 1.703125 
L 7.71875 11.625 
Q 12.109375 9.234375 16.796875 8.0625 
Q 21.484375 6.890625 26.703125 6.890625 
Q 35.15625 6.890625 40.078125 11.328125 
Q 45.015625 15.765625 45.015625 23.390625 
Q 45.015625 31 40.078125 35.4375 
Q 35.15625 39.890625 26.703125 39.890625 
Q 22.75 39.890625 18.8125 39.015625 
Q 14.890625 38.140625 10.796875 36.28125 
z
" id="DejaVuSans-53"/>
      </defs>
      <g transform="translate(108.255974 322.182437)scale(0.1 -0.1)">
       <use xlink:href="#DejaVuSans-50"/>
       <use x="63.623047" xlink:href="#DejaVuSans-53"/>
      </g>
     </g>
    </g>
    <g id="xtick_3">
     <g id="line2d_3">
      <g>
       <use style="stroke:#000000;stroke-width:0.8;" x="155.404221" xlink:href="#m3c8e8a4d6b" y="307.584"/>
      </g>
     </g>
     <g id="text_3">
      <!-- 50 -->
      <g transform="translate(149.041721 322.182437)scale(0.1 -0.1)">
       <use xlink:href="#DejaVuSans-53"/>
       <use x="63.623047" xlink:href="#DejaVuSans-48"/>
      </g>
     </g>
    </g>
    <g id="xtick_4">
     <g id="line2d_4">
      <g>
       <use style="stroke:#000000;stroke-width:0.8;" x="196.189968" xlink:href="#m3c8e8a4d6b" y="307.584"/>
      </g>
     </g>
     <g id="text_4">
      <!-- 75 -->
      <defs>
       <path d="M 8.203125 72.90625 
L 55.078125 72.90625 
L 55.078125 68.703125 
L 28.609375 0 
L 18.3125 0 
L 43.21875 64.59375 
L 8.203125 64.59375 
z
" id="DejaVuSans-55"/>
      </defs>
      <g transform="translate(189.827468 322.182437)scale(0.1 -0.1)">
       <use xlink:href="#DejaVuSans-55"/>
       <use x="63.623047" xlink:href="#DejaVuSans-53"/>
      </g>
     </g>
    </g>
    <g id="xtick_5">
     <g id="line2d_5">
      <g>
       <use style="stroke:#000000;stroke-width:0.8;" x="236.975715" xlink:href="#m3c8e8a4d6b" y="307.584"/>
      </g>
     </g>
     <g id="text_5">
      <!-- 100 -->
      <defs>
       <path d="M 12.40625 8.296875 
L 28.515625 8.296875 
L 28.515625 63.921875 
L 10.984375 60.40625 
L 10.984375 69.390625 
L 28.421875 72.90625 
L 38.28125 72.90625 
L 38.28125 8.296875 
L 54.390625 8.296875 
L 54.390625 0 
L 12.40625 0 
z
" id="DejaVuSans-49"/>
      </defs>
      <g transform="translate(227.431965 322.182437)scale(0.1 -0.1)">
       <use xlink:href="#DejaVuSans-49"/>
       <use x="63.623047" xlink:href="#DejaVuSans-48"/>
       <use x="127.246094" xlink:href="#DejaVuSans-48"/>
      </g>
     </g>
    </g>
    <g id="xtick_6">
     <g id="line2d_6">
      <g>
       <use style="stroke:#000000;stroke-width:0.8;" x="277.761462" xlink:href="#m3c8e8a4d6b" y="307.584"/>
      </g>
     </g>
     <g id="text_6">
      <!-- 125 -->
      <g transform="translate(268.217712 322.182437)scale(0.1 -0.1)">
       <use xlink:href="#DejaVuSans-49"/>
       <use x="63.623047" xlink:href="#DejaVuSans-50"/>
       <use x="127.246094" xlink:href="#DejaVuSans-53"/>
      </g>
     </g>
    </g>
    <g id="xtick_7">
     <g id="line2d_7">
      <g>
       <use style="stroke:#000000;stroke-width:0.8;" x="318.547209" xlink:href="#m3c8e8a4d6b" y="307.584"/>
      </g>
     </g>
     <g id="text_7">
      <!-- 150 -->
      <g transform="translate(309.003459 322.182437)scale(0.1 -0.1)">
       <use xlink:href="#DejaVuSans-49"/>
       <use x="63.623047" xlink:href="#DejaVuSans-53"/>
       <use x="127.246094" xlink:href="#DejaVuSans-48"/>
      </g>
     </g>
    </g>
    <g id="xtick_8">
     <g id="line2d_8">
      <g>
       <use style="stroke:#000000;stroke-width:0.8;" x="359.332956" xlink:href="#m3c8e8a4d6b" y="307.584"/>
      </g>
     </g>
     <g id="text_8">
      <!-- 175 -->
      <g transform="translate(349.789206 322.182437)scale(0.1 -0.1)">
       <use xlink:href="#DejaVuSans-49"/>
       <use x="63.623047" xlink:href="#DejaVuSans-55"/>
       <use x="127.246094" xlink:href="#DejaVuSans-53"/>
      </g>
     </g>
    </g>
    <g id="xtick_9">
     <g id="line2d_9">
      <g>
       <use style="stroke:#000000;stroke-width:0.8;" x="400.118703" xlink:href="#m3c8e8a4d6b" y="307.584"/>
      </g>
     </g>
     <g id="text_9">
      <!-- 200 -->
      <g transform="translate(390.574953 322.182437)scale(0.1 -0.1)">
       <use xlink:href="#DejaVuSans-50"/>
       <use x="63.623047" xlink:href="#DejaVuSans-48"/>
       <use x="127.246094" xlink:href="#DejaVuSans-48"/>
      </g>
     </g>
    </g>
   </g>
   <g id="matplotlib.axis_2">
    <g id="ytick_1">
     <g id="line2d_10">
      <defs>
       <path d="M 0 0 
L -3.5 0 
" id="mcfed19a95f" style="stroke:#000000;stroke-width:0.8;"/>
      </defs>
      <g>
       <use style="stroke:#000000;stroke-width:0.8;" x="57.6" xlink:href="#mcfed19a95f" y="298.762816"/>
      </g>
     </g>
     <g id="text_10">
      <!-- 0 -->
      <g transform="translate(44.2375 302.562035)scale(0.1 -0.1)">
       <use xlink:href="#DejaVuSans-48"/>
      </g>
     </g>
    </g>
    <g id="ytick_2">
     <g id="line2d_11">
      <g>
       <use style="stroke:#000000;stroke-width:0.8;" x="57.6" xlink:href="#mcfed19a95f" y="239.759253"/>
      </g>
     </g>
     <g id="text_11">
      <!-- 5 -->
      <g transform="translate(44.2375 243.558471)scale(0.1 -0.1)">
       <use xlink:href="#DejaVuSans-53"/>
      </g>
     </g>
    </g>
    <g id="ytick_3">
     <g id="line2d_12">
      <g>
       <use style="stroke:#000000;stroke-width:0.8;" x="57.6" xlink:href="#mcfed19a95f" y="180.755689"/>
      </g>
     </g>
     <g id="text_12">
      <!-- 10 -->
      <g transform="translate(37.875 184.554908)scale(0.1 -0.1)">
       <use xlink:href="#DejaVuSans-49"/>
       <use x="63.623047" xlink:href="#DejaVuSans-48"/>
      </g>
     </g>
    </g>
    <g id="ytick_4">
     <g id="line2d_13">
      <g>
       <use style="stroke:#000000;stroke-width:0.8;" x="57.6" xlink:href="#mcfed19a95f" y="121.752126"/>
      </g>
     </g>
     <g id="text_13">
      <!-- 15 -->
      <g transform="translate(37.875 125.551345)scale(0.1 -0.1)">
       <use xlink:href="#DejaVuSans-49"/>
       <use x="63.623047" xlink:href="#DejaVuSans-53"/>
      </g>
     </g>
    </g>
    <g id="ytick_5">
     <g id="line2d_14">
      <g>
       <use style="stroke:#000000;stroke-width:0.8;" x="57.6" xlink:href="#mcfed19a95f" y="62.748563"/>
      </g>
     </g>
     <g id="text_14">
      <!-- 20 -->
      <g transform="translate(37.875 66.547782)scale(0.1 -0.1)">
       <use xlink:href="#DejaVuSans-50"/>
       <use x="63.623047" xlink:href="#DejaVuSans-48"/>
      </g>
     </g>
    </g>
   </g>
   <g id="line2d_15">
    <path clip-path="url(#p475ce8b14d)" d="M 73.832727 285.798408 
L 75.464157 285.455033 
L 77.095587 285.798408 
L 78.727017 285.798408 
L 80.358447 285.455033 
L 81.989877 285.798408 
L 91.778456 285.798408 
L 93.409886 285.455033 
L 95.041316 285.798408 
L 96.672746 285.516373 
L 98.304175 285.798408 
L 101.567035 285.798408 
L 103.198465 285.455033 
L 104.829895 285.516373 
L 106.461325 285.798408 
L 134.195633 285.798408 
L 135.827063 285.455033 
L 137.458492 285.798408 
L 143.984212 285.798408 
L 145.615642 285.626721 
L 147.247072 285.798408 
L 152.141361 285.798408 
L 153.772791 285.626721 
L 155.404221 285.798408 
L 163.56137 285.798408 
L 165.1928 285.455033 
L 166.82423 285.798408 
L 170.08709 285.798408 
L 171.71852 285.455033 
L 173.34995 285.455033 
L 174.98138 285.798408 
L 178.244239 285.798408 
L 179.875669 285.455033 
L 181.507099 285.798408 
L 184.769959 285.798408 
L 186.401389 285.516373 
L 188.032819 285.798408 
L 191.295678 285.798408 
L 194.558538 285.455033 
L 196.189968 285.798408 
L 197.821398 285.626721 
L 199.452828 285.798408 
L 204.347117 285.798408 
L 207.609977 282.29789 
L 209.241407 283.753026 
L 210.872837 285.455033 
L 212.504267 285.455033 
L 214.135697 284.892447 
L 215.767127 285.251638 
L 217.398556 285.319385 
L 219.029986 281.590841 
L 220.661416 284.92557 
L 222.292846 285.437252 
L 223.924276 284.422126 
L 225.555706 283.862095 
L 227.187136 284.544167 
L 228.818566 285.713214 
L 230.449995 284.540318 
L 233.712855 285.623715 
L 235.344285 285.071468 
L 236.975715 285.775925 
L 238.607145 284.873369 
L 240.238575 284.958805 
L 241.870005 285.365114 
L 243.501434 285.266535 
L 245.132864 284.803235 
L 246.764294 283.532763 
L 248.395724 285.656113 
L 250.027154 285.076506 
L 251.658584 284.250521 
L 253.290014 284.820883 
L 254.921444 286.01482 
L 256.552873 285.806561 
L 258.184303 286.090043 
L 259.815733 285.207446 
L 261.447163 285.146595 
L 263.078593 285.735019 
L 264.710023 284.567103 
L 266.341453 285.798408 
L 267.972883 283.272671 
L 269.604312 283.213583 
L 271.235742 285.750843 
L 272.867172 284.406572 
L 274.498602 285.774315 
L 276.130032 285.521355 
L 277.761462 286.10918 
L 279.392892 282.715798 
L 281.024322 285.771759 
L 282.655751 284.424696 
L 284.287181 286.300899 
L 285.918611 285.530011 
L 289.181471 285.975784 
L 290.812901 285.859584 
L 294.075761 284.12799 
L 295.70719 286.313511 
L 297.33862 285.688354 
L 298.97005 283.571719 
L 300.60148 285.444861 
L 302.23291 285.738782 
L 305.49577 285.713099 
L 307.1272 283.976204 
L 308.75863 286.151406 
L 310.390059 284.698867 
L 312.021489 285.017972 
L 313.652919 284.748313 
L 315.284349 285.443272 
L 316.915779 285.425881 
L 318.547209 285.804317 
L 320.178639 286.307703 
L 321.810069 285.438525 
L 323.441498 287.742622 
L 325.072928 286.211424 
L 326.704358 286.525313 
L 328.335788 285.543064 
L 329.967218 287.594386 
L 331.598648 285.864396 
L 333.230078 286.039608 
L 334.861508 285.40229 
L 338.124367 285.834394 
L 339.755797 285.616162 
L 341.387227 288.746276 
L 343.018657 285.785427 
L 344.650087 285.912645 
L 346.281517 285.730089 
L 347.912947 287.410754 
L 349.544376 285.706407 
L 351.175806 286.094737 
L 352.807236 285.297952 
L 354.438666 285.248596 
L 356.070096 285.719353 
L 357.701526 285.238922 
L 359.332956 286.804343 
L 360.964386 285.798408 
L 362.595815 286.021149 
L 364.227245 285.570142 
L 365.858675 283.988519 
L 367.490105 286.065448 
L 369.121535 286.955032 
L 370.752965 285.924555 
L 372.384395 286.779325 
L 374.015825 285.751449 
L 375.647254 288.49997 
L 377.278684 286.794069 
L 378.910114 285.632636 
L 380.541544 288.67622 
L 382.172974 289.411603 
L 383.804404 285.91612 
L 385.435834 284.781084 
L 387.067264 288.852269 
L 388.698693 285.592302 
L 390.330123 286.015331 
L 391.961553 287.488051 
L 393.592983 287.474527 
L 395.224413 286.931176 
L 396.855843 286.664491 
L 398.487273 286.576476 
L 398.487273 286.576476 
" style="fill:none;stroke:#1f77b4;stroke-linecap:square;stroke-width:0.25;"/>
   </g>
   <g id="line2d_16">
    <path clip-path="url(#p475ce8b14d)" d="M 73.832727 285.303127 
L 75.464157 285.429796 
L 85.252736 285.451012 
L 88.515596 285.478355 
L 90.147026 285.354507 
L 91.778456 285.46266 
L 93.409886 285.411647 
L 95.041316 285.516247 
L 98.304175 285.405886 
L 99.935605 285.38369 
L 101.567035 285.486696 
L 103.198465 285.378663 
L 104.829895 285.494664 
L 106.461325 285.468667 
L 108.092755 285.310361 
L 111.355614 285.443898 
L 112.987044 285.448558 
L 114.618474 285.300553 
L 116.249904 285.51686 
L 121.144194 285.318209 
L 122.775624 285.462047 
L 127.669913 285.307174 
L 130.932773 285.619373 
L 132.564203 285.392151 
L 134.195633 285.501531 
L 135.827063 285.294052 
L 137.458492 285.327283 
L 139.089922 285.484609 
L 142.352782 285.373389 
L 143.984212 285.463273 
L 145.615642 285.304107 
L 150.509931 285.515633 
L 152.141361 285.479335 
L 153.772791 285.240099 
L 155.404221 285.514406 
L 158.667081 285.43789 
L 160.298511 285.49393 
L 161.929941 285.323236 
L 163.56137 285.457633 
L 165.1928 285.32949 
L 170.08709 285.527281 
L 173.34995 285.347392 
L 174.98138 285.520907 
L 179.875669 285.351193 
L 181.507099 285.478602 
L 183.138529 285.35328 
L 184.769959 285.584182 
L 191.295678 285.366155 
L 197.821398 285.431023 
L 199.452828 283.224251 
L 201.084258 284.315485 
L 202.715688 284.669062 
L 204.347117 284.444724 
L 205.978547 279.279712 
L 207.609977 276.240406 
L 209.241407 278.441529 
L 210.872837 283.04402 
L 212.504267 284.080629 
L 214.135697 283.785654 
L 215.767127 283.706239 
L 217.398556 284.286275 
L 219.029986 278.994457 
L 220.661416 281.537565 
L 222.292846 282.09596 
L 223.924276 278.593533 
L 225.555706 280.408752 
L 227.187136 275.112041 
L 228.818566 280.20056 
L 230.449995 275.68039 
L 232.081425 277.052071 
L 233.712855 278.888584 
L 235.344285 278.12574 
L 236.975715 278.653975 
L 238.607145 275.724351 
L 240.238575 277.780563 
L 241.870005 270.022499 
L 243.501434 276.383097 
L 245.132864 264.974233 
L 246.764294 273.999107 
L 248.395724 281.031806 
L 250.027154 278.282561 
L 251.658584 273.247476 
L 253.290014 273.534986 
L 254.921444 284.761796 
L 256.552873 280.521092 
L 258.184303 283.068761 
L 259.815733 275.109769 
L 261.447163 275.504228 
L 263.078593 282.096687 
L 264.710023 272.135744 
L 266.341453 284.373779 
L 267.972883 269.355924 
L 269.604312 271.343244 
L 271.235742 283.168058 
L 272.867172 267.114174 
L 274.498602 283.118727 
L 276.130032 279.104584 
L 277.761462 283.039645 
L 279.392892 266.588124 
L 281.024322 282.473027 
L 282.655751 273.667443 
L 284.287181 280.902442 
L 285.918611 273.487376 
L 287.550041 281.993549 
L 289.181471 277.777625 
L 290.812901 280.767317 
L 292.444331 273.862562 
L 294.075761 271.705555 
L 295.70719 284.733208 
L 297.33862 275.272433 
L 298.97005 268.727967 
L 300.60148 280.288146 
L 302.23291 277.307127 
L 303.86434 282.028444 
L 305.49577 274.692109 
L 307.1272 273.48443 
L 308.75863 273.511195 
L 310.390059 274.634553 
L 312.021489 269.697199 
L 313.652919 278.033892 
L 315.284349 282.056079 
L 316.915779 278.176298 
L 318.547209 279.874534 
L 320.178639 283.366847 
L 321.810069 277.853758 
L 323.441498 276.758596 
L 325.072928 282.689171 
L 326.704358 283.893338 
L 328.335788 270.397222 
L 329.967218 272.354028 
L 331.598648 281.743702 
L 333.230078 279.664142 
L 334.861508 279.636204 
L 336.492937 280.541635 
L 338.124367 281.708165 
L 339.755797 284.585504 
L 341.387227 276.806865 
L 343.018657 280.417727 
L 344.650087 281.243932 
L 346.281517 279.705568 
L 347.912947 280.987278 
L 349.544376 273.707327 
L 352.807236 279.533575 
L 354.438666 279.024361 
L 356.070096 280.183958 
L 357.701526 276.440647 
L 359.332956 281.997535 
L 360.964386 283.864791 
L 362.595815 278.896545 
L 364.227245 278.35244 
L 365.858675 271.390637 
L 367.490105 282.478389 
L 369.121535 280.707533 
L 370.752965 281.11237 
L 372.384395 282.962958 
L 374.015825 278.822608 
L 375.647254 280.24807 
L 377.278684 283.734063 
L 378.910114 281.398645 
L 380.541544 274.389337 
L 382.172974 281.685647 
L 383.804404 281.782392 
L 385.435834 278.29486 
L 387.067264 280.942661 
L 388.698693 279.679639 
L 391.961553 284.436426 
L 393.592983 282.771504 
L 395.224413 278.511328 
L 396.855843 282.797073 
L 398.487273 283.940746 
L 398.487273 283.940746 
" style="fill:none;stroke:#2ca02c;stroke-linecap:square;stroke-width:0.75;"/>
   </g>
   <g id="patch_3">
    <path d="M 57.6 307.584 
L 57.6 41.472 
" style="fill:none;stroke:#000000;stroke-linecap:square;stroke-linejoin:miter;stroke-width:0.8;"/>
   </g>
   <g id="patch_4">
    <path d="M 414.72 307.584 
L 414.72 41.472 
" style="fill:none;stroke:#000000;stroke-linecap:square;stroke-linejoin:miter;stroke-width:0.8;"/>
   </g>
   <g id="patch_5">
    <path d="M 57.6 307.584 
L 414.72 307.584 
" style="fill:none;stroke:#000000;stroke-linecap:square;stroke-linejoin:miter;stroke-width:0.8;"/>
   </g>
   <g id="patch_6">
    <path d="M 57.6 41.472 
L 414.72 41.472 
" style="fill:none;stroke:#000000;stroke-linecap:square;stroke-linejoin:miter;stroke-width:0.8;"/>
   </g>
   <g id="legend_1">
    <g id="patch_7">
     <path d="M 338.234063 78.82825 
L 407.72 78.82825 
Q 409.72 78.82825 409.72 76.82825 
L 409.72 48.472 
Q 409.72 46.472 407.72 46.472 
L 338.234063 46.472 
Q 336.234063 46.472 336.234063 48.472 
L 336.234063 76.82825 
Q 336.234063 78.82825 338.234063 78.82825 
z
" style="fill:#ffffff;opacity:0.8;stroke:#cccccc;stroke-linejoin:miter;"/>
    </g>
    <g id="line2d_17">
     <path d="M 340.234063 54.570437 
L 360.234063 54.570437 
" style="fill:none;stroke:#1f77b4;stroke-linecap:square;stroke-width:0.25;"/>
    </g>
    <g id="line2d_18"/>
    <g id="text_15">
     <!-- median -->
     <defs>
      <path d="M 52 44.1875 
Q 55.375 50.25 60.0625 53.125 
Q 64.75 56 71.09375 56 
Q 79.640625 56 84.28125 50.015625 
Q 88.921875 44.046875 88.921875 33.015625 
L 88.921875 0 
L 79.890625 0 
L 79.890625 32.71875 
Q 79.890625 40.578125 77.09375 44.375 
Q 74.3125 48.1875 68.609375 48.1875 
Q 61.625 48.1875 57.5625 43.546875 
Q 53.515625 38.921875 53.515625 30.90625 
L 53.515625 0 
L 44.484375 0 
L 44.484375 32.71875 
Q 44.484375 40.625 41.703125 44.40625 
Q 38.921875 48.1875 33.109375 48.1875 
Q 26.21875 48.1875 22.15625 43.53125 
Q 18.109375 38.875 18.109375 30.90625 
L 18.109375 0 
L 9.078125 0 
L 9.078125 54.6875 
L 18.109375 54.6875 
L 18.109375 46.1875 
Q 21.1875 51.21875 25.484375 53.609375 
Q 29.78125 56 35.6875 56 
Q 41.65625 56 45.828125 52.96875 
Q 50 49.953125 52 44.1875 
z
" id="DejaVuSans-109"/>
      <path d="M 56.203125 29.59375 
L 56.203125 25.203125 
L 14.890625 25.203125 
Q 15.484375 15.921875 20.484375 11.0625 
Q 25.484375 6.203125 34.421875 6.203125 
Q 39.59375 6.203125 44.453125 7.46875 
Q 49.3125 8.734375 54.109375 11.28125 
L 54.109375 2.78125 
Q 49.265625 0.734375 44.1875 -0.34375 
Q 39.109375 -1.421875 33.890625 -1.421875 
Q 20.796875 -1.421875 13.15625 6.1875 
Q 5.515625 13.8125 5.515625 26.8125 
Q 5.515625 40.234375 12.765625 48.109375 
Q 20.015625 56 32.328125 56 
Q 43.359375 56 49.78125 48.890625 
Q 56.203125 41.796875 56.203125 29.59375 
z
M 47.21875 32.234375 
Q 47.125 39.59375 43.09375 43.984375 
Q 39.0625 48.390625 32.421875 48.390625 
Q 24.90625 48.390625 20.390625 44.140625 
Q 15.875 39.890625 15.1875 32.171875 
z
" id="DejaVuSans-101"/>
      <path d="M 45.40625 46.390625 
L 45.40625 75.984375 
L 54.390625 75.984375 
L 54.390625 0 
L 45.40625 0 
L 45.40625 8.203125 
Q 42.578125 3.328125 38.25 0.953125 
Q 33.9375 -1.421875 27.875 -1.421875 
Q 17.96875 -1.421875 11.734375 6.484375 
Q 5.515625 14.40625 5.515625 27.296875 
Q 5.515625 40.1875 11.734375 48.09375 
Q 17.96875 56 27.875 56 
Q 33.9375 56 38.25 53.625 
Q 42.578125 51.265625 45.40625 46.390625 
z
M 14.796875 27.296875 
Q 14.796875 17.390625 18.875 11.75 
Q 22.953125 6.109375 30.078125 6.109375 
Q 37.203125 6.109375 41.296875 11.75 
Q 45.40625 17.390625 45.40625 27.296875 
Q 45.40625 37.203125 41.296875 42.84375 
Q 37.203125 48.484375 30.078125 48.484375 
Q 22.953125 48.484375 18.875 42.84375 
Q 14.796875 37.203125 14.796875 27.296875 
z
" id="DejaVuSans-100"/>
      <path d="M 9.421875 54.6875 
L 18.40625 54.6875 
L 18.40625 0 
L 9.421875 0 
z
M 9.421875 75.984375 
L 18.40625 75.984375 
L 18.40625 64.59375 
L 9.421875 64.59375 
z
" id="DejaVuSans-105"/>
      <path d="M 34.28125 27.484375 
Q 23.390625 27.484375 19.1875 25 
Q 14.984375 22.515625 14.984375 16.5 
Q 14.984375 11.71875 18.140625 8.90625 
Q 21.296875 6.109375 26.703125 6.109375 
Q 34.1875 6.109375 38.703125 11.40625 
Q 43.21875 16.703125 43.21875 25.484375 
L 43.21875 27.484375 
z
M 52.203125 31.203125 
L 52.203125 0 
L 43.21875 0 
L 43.21875 8.296875 
Q 40.140625 3.328125 35.546875 0.953125 
Q 30.953125 -1.421875 24.3125 -1.421875 
Q 15.921875 -1.421875 10.953125 3.296875 
Q 6 8.015625 6 15.921875 
Q 6 25.140625 12.171875 29.828125 
Q 18.359375 34.515625 30.609375 34.515625 
L 43.21875 34.515625 
L 43.21875 35.40625 
Q 43.21875 41.609375 39.140625 45 
Q 35.0625 48.390625 27.6875 48.390625 
Q 23 48.390625 18.546875 47.265625 
Q 14.109375 46.140625 10.015625 43.890625 
L 10.015625 52.203125 
Q 14.9375 54.109375 19.578125 55.046875 
Q 24.21875 56 28.609375 56 
Q 40.484375 56 46.34375 49.84375 
Q 52.203125 43.703125 52.203125 31.203125 
z
" id="DejaVuSans-97"/>
      <path d="M 54.890625 33.015625 
L 54.890625 0 
L 45.90625 0 
L 45.90625 32.71875 
Q 45.90625 40.484375 42.875 44.328125 
Q 39.84375 48.1875 33.796875 48.1875 
Q 26.515625 48.1875 22.3125 43.546875 
Q 18.109375 38.921875 18.109375 30.90625 
L 18.109375 0 
L 9.078125 0 
L 9.078125 54.6875 
L 18.109375 54.6875 
L 18.109375 46.1875 
Q 21.34375 51.125 25.703125 53.5625 
Q 30.078125 56 35.796875 56 
Q 45.21875 56 50.046875 50.171875 
Q 54.890625 44.34375 54.890625 33.015625 
z
" id="DejaVuSans-110"/>
     </defs>
     <g transform="translate(368.234063 58.070437)scale(0.1 -0.1)">
      <use xlink:href="#DejaVuSans-109"/>
      <use x="97.412109" xlink:href="#DejaVuSans-101"/>
      <use x="158.935547" xlink:href="#DejaVuSans-100"/>
      <use x="222.412109" xlink:href="#DejaVuSans-105"/>
      <use x="250.195312" xlink:href="#DejaVuSans-97"/>
      <use x="311.474609" xlink:href="#DejaVuSans-110"/>
     </g>
    </g>
    <g id="line2d_19">
     <path d="M 340.234063 69.248562 
L 360.234063 69.248562 
" style="fill:none;stroke:#2ca02c;stroke-linecap:square;stroke-width:0.75;"/>
    </g>
    <g id="line2d_20"/>
    <g id="text_16">
     <!-- mean -->
     <g transform="translate(368.234063 72.748562)scale(0.1 -0.1)">
      <use xlink:href="#DejaVuSans-109"/>
      <use x="97.412109" xlink:href="#DejaVuSans-101"/>
      <use x="158.935547" xlink:href="#DejaVuSans-97"/>
      <use x="220.214844" xlink:href="#DejaVuSans-110"/>
     </g>
    </g>
   </g>
  </g>
  <g id="text_17">
   <!-- log_loss.mean over generations -->
   <defs>
    <path d="M 9.421875 75.984375 
L 18.40625 75.984375 
L 18.40625 0 
L 9.421875 0 
z
" id="DejaVuSans-108"/>
    <path d="M 30.609375 48.390625 
Q 23.390625 48.390625 19.1875 42.75 
Q 14.984375 37.109375 14.984375 27.296875 
Q 14.984375 17.484375 19.15625 11.84375 
Q 23.34375 6.203125 30.609375 6.203125 
Q 37.796875 6.203125 41.984375 11.859375 
Q 46.1875 17.53125 46.1875 27.296875 
Q 46.1875 37.015625 41.984375 42.703125 
Q 37.796875 48.390625 30.609375 48.390625 
z
M 30.609375 56 
Q 42.328125 56 49.015625 48.375 
Q 55.71875 40.765625 55.71875 27.296875 
Q 55.71875 13.875 49.015625 6.21875 
Q 42.328125 -1.421875 30.609375 -1.421875 
Q 18.84375 -1.421875 12.171875 6.21875 
Q 5.515625 13.875 5.515625 27.296875 
Q 5.515625 40.765625 12.171875 48.375 
Q 18.84375 56 30.609375 56 
z
" id="DejaVuSans-111"/>
    <path d="M 45.40625 27.984375 
Q 45.40625 37.75 41.375 43.109375 
Q 37.359375 48.484375 30.078125 48.484375 
Q 22.859375 48.484375 18.828125 43.109375 
Q 14.796875 37.75 14.796875 27.984375 
Q 14.796875 18.265625 18.828125 12.890625 
Q 22.859375 7.515625 30.078125 7.515625 
Q 37.359375 7.515625 41.375 12.890625 
Q 45.40625 18.265625 45.40625 27.984375 
z
M 54.390625 6.78125 
Q 54.390625 -7.171875 48.1875 -13.984375 
Q 42 -20.796875 29.203125 -20.796875 
Q 24.46875 -20.796875 20.265625 -20.09375 
Q 16.0625 -19.390625 12.109375 -17.921875 
L 12.109375 -9.1875 
Q 16.0625 -11.328125 19.921875 -12.34375 
Q 23.78125 -13.375 27.78125 -13.375 
Q 36.625 -13.375 41.015625 -8.765625 
Q 45.40625 -4.15625 45.40625 5.171875 
L 45.40625 9.625 
Q 42.625 4.78125 38.28125 2.390625 
Q 33.9375 0 27.875 0 
Q 17.828125 0 11.671875 7.65625 
Q 5.515625 15.328125 5.515625 27.984375 
Q 5.515625 40.671875 11.671875 48.328125 
Q 17.828125 56 27.875 56 
Q 33.9375 56 38.28125 53.609375 
Q 42.625 51.21875 45.40625 46.390625 
L 45.40625 54.6875 
L 54.390625 54.6875 
z
" id="DejaVuSans-103"/>
    <path d="M 50.984375 -16.609375 
L 50.984375 -23.578125 
L -0.984375 -23.578125 
L -0.984375 -16.609375 
z
" id="DejaVuSans-95"/>
    <path d="M 44.28125 53.078125 
L 44.28125 44.578125 
Q 40.484375 46.53125 36.375 47.5 
Q 32.28125 48.484375 27.875 48.484375 
Q 21.1875 48.484375 17.84375 46.4375 
Q 14.5 44.390625 14.5 40.28125 
Q 14.5 37.15625 16.890625 35.375 
Q 19.28125 33.59375 26.515625 31.984375 
L 29.59375 31.296875 
Q 39.15625 29.25 43.1875 25.515625 
Q 47.21875 21.78125 47.21875 15.09375 
Q 47.21875 7.46875 41.1875 3.015625 
Q 35.15625 -1.421875 24.609375 -1.421875 
Q 20.21875 -1.421875 15.453125 -0.5625 
Q 10.6875 0.296875 5.421875 2 
L 5.421875 11.28125 
Q 10.40625 8.6875 15.234375 7.390625 
Q 20.0625 6.109375 24.8125 6.109375 
Q 31.15625 6.109375 34.5625 8.28125 
Q 37.984375 10.453125 37.984375 14.40625 
Q 37.984375 18.0625 35.515625 20.015625 
Q 33.0625 21.96875 24.703125 23.78125 
L 21.578125 24.515625 
Q 13.234375 26.265625 9.515625 29.90625 
Q 5.8125 33.546875 5.8125 39.890625 
Q 5.8125 47.609375 11.28125 51.796875 
Q 16.75 56 26.8125 56 
Q 31.78125 56 36.171875 55.265625 
Q 40.578125 54.546875 44.28125 53.078125 
z
" id="DejaVuSans-115"/>
    <path d="M 10.6875 12.40625 
L 21 12.40625 
L 21 0 
L 10.6875 0 
z
" id="DejaVuSans-46"/>
    <path id="DejaVuSans-32"/>
    <path d="M 2.984375 54.6875 
L 12.5 54.6875 
L 29.59375 8.796875 
L 46.6875 54.6875 
L 56.203125 54.6875 
L 35.6875 0 
L 23.484375 0 
z
" id="DejaVuSans-118"/>
    <path d="M 41.109375 46.296875 
Q 39.59375 47.171875 37.8125 47.578125 
Q 36.03125 48 33.890625 48 
Q 26.265625 48 22.1875 43.046875 
Q 18.109375 38.09375 18.109375 28.8125 
L 18.109375 0 
L 9.078125 0 
L 9.078125 54.6875 
L 18.109375 54.6875 
L 18.109375 46.1875 
Q 20.953125 51.171875 25.484375 53.578125 
Q 30.03125 56 36.53125 56 
Q 37.453125 56 38.578125 55.875 
Q 39.703125 55.765625 41.0625 55.515625 
z
" id="DejaVuSans-114"/>
    <path d="M 18.3125 70.21875 
L 18.3125 54.6875 
L 36.8125 54.6875 
L 36.8125 47.703125 
L 18.3125 47.703125 
L 18.3125 18.015625 
Q 18.3125 11.328125 20.140625 9.421875 
Q 21.96875 7.515625 27.59375 7.515625 
L 36.8125 7.515625 
L 36.8125 0 
L 27.59375 0 
Q 17.1875 0 13.234375 3.875 
Q 9.28125 7.765625 9.28125 18.015625 
L 9.28125 47.703125 
L 2.6875 47.703125 
L 2.6875 54.6875 
L 9.28125 54.6875 
L 9.28125 70.21875 
z
" id="DejaVuSans-116"/>
   </defs>
   <g transform="translate(134.789062 16.030125)scale(0.12 -0.12)">
    <use xlink:href="#DejaVuSans-108"/>
    <use x="27.783203" xlink:href="#DejaVuSans-111"/>
    <use x="88.964844" xlink:href="#DejaVuSans-103"/>
    <use x="152.441406" xlink:href="#DejaVuSans-95"/>
    <use x="202.441406" xlink:href="#DejaVuSans-108"/>
    <use x="230.224609" xlink:href="#DejaVuSans-111"/>
    <use x="291.40625" xlink:href="#DejaVuSans-115"/>
    <use x="343.505859" xlink:href="#DejaVuSans-115"/>
    <use x="395.605469" xlink:href="#DejaVuSans-46"/>
    <use x="427.392578" xlink:href="#DejaVuSans-109"/>
    <use x="524.804688" xlink:href="#DejaVuSans-101"/>
    <use x="586.328125" xlink:href="#DejaVuSans-97"/>
    <use x="647.607422" xlink:href="#DejaVuSans-110"/>
    <use x="710.986328" xlink:href="#DejaVuSans-32"/>
    <use x="742.773438" xlink:href="#DejaVuSans-111"/>
    <use x="803.955078" xlink:href="#DejaVuSans-118"/>
    <use x="863.134766" xlink:href="#DejaVuSans-101"/>
    <use x="924.658203" xlink:href="#DejaVuSans-114"/>
    <use x="965.771484" xlink:href="#DejaVuSans-32"/>
    <use x="997.558594" xlink:href="#DejaVuSans-103"/>
    <use x="1061.035156" xlink:href="#DejaVuSans-101"/>
    <use x="1122.558594" xlink:href="#DejaVuSans-110"/>
    <use x="1185.9375" xlink:href="#DejaVuSans-101"/>
    <use x="1247.460938" xlink:href="#DejaVuSans-114"/>
    <use x="1288.574219" xlink:href="#DejaVuSans-97"/>
    <use x="1349.853516" xlink:href="#DejaVuSans-116"/>
    <use x="1389.0625" xlink:href="#DejaVuSans-105"/>
    <use x="1416.845703" xlink:href="#DejaVuSans-111"/>
    <use x="1478.027344" xlink:href="#DejaVuSans-110"/>
    <use x="1541.40625" xlink:href="#DejaVuSans-115"/>
   </g>
  </g>
 </g>
 <defs>
  <clipPath id="p475ce8b14d">
   <rect height="266.112" width="357.12" x="57.6" y="41.472"/>
  </clipPath>
 </defs>
</svg>
