<?xml version="1.0" encoding="utf-8" standalone="no"?>
<!DOCTYPE svg PUBLIC "-//W3C//DTD SVG 1.1//EN"
  "http://www.w3.org/Graphics/SVG/1.1/DTD/svg11.dtd">
<!-- Created with matplotlib (https://matplotlib.org/) -->
<svg height="345.6pt" version="1.1" viewBox="0 0 460.8 345.6" width="460.8pt" xmlns="http://www.w3.org/2000/svg" xmlns:xlink="http://www.w3.org/1999/xlink">
 <defs>
  <style type="text/css">
*{stroke-linecap:butt;stroke-linejoin:round;}
  </style>
 </defs>
 <g id="figure_1">
  <g id="patch_1">
   <path d="M 0 345.6 
L 460.8 345.6 
L 460.8 0 
L 0 0 
z
" style="fill:#ffffff;"/>
  </g>
  <g id="axes_1">
   <g id="patch_2">
    <path clip-path="url(#p166ee13823)" d="M 88.589752 63.33361 
Q 234.513976 120.724835 380.438199 178.11606 
" style="fill:none;stroke:#000000;stroke-linecap:round;stroke-opacity:0.9;stroke-width:0.4;"/>
   </g>
   <g id="patch_3">
    <path clip-path="url(#p166ee13823)" d="M 88.589752 237.449403 
Q 116.843726 209.669056 145.0977 181.88871 
" style="fill:none;stroke:#000000;stroke-linecap:round;stroke-opacity:0.9;stroke-width:0.4;"/>
   </g>
   <g id="patch_4">
    <path clip-path="url(#p166ee13823)" d="M 147.617851 179.410805 
Q 175.782656 155.557636 203.947461 131.704467 
" style="fill:none;stroke:#000000;stroke-linecap:round;stroke-opacity:0.9;stroke-width:0.4;"/>
   </g>
   <g id="patch_5">
    <path clip-path="url(#p166ee13823)" d="M 147.617851 179.410805 
Q 175.782656 203.263974 203.947461 227.117144 
" style="fill:none;stroke:#000000;stroke-linecap:round;stroke-opacity:0.9;stroke-width:0.4;"/>
   </g>
   <g id="patch_6">
    <path clip-path="url(#p166ee13823)" d="M 147.617851 179.410805 
Q 263.996951 218.465508 380.376051 257.52021 
" style="fill:none;stroke:#000000;stroke-linecap:round;stroke-opacity:0.9;stroke-width:0.4;"/>
   </g>
   <g id="patch_7">
    <path clip-path="url(#p166ee13823)" d="M 206.64595 129.419078 
Q 293.443899 115.085469 380.241847 100.751859 
" style="fill:none;stroke:#000000;stroke-linecap:round;stroke-opacity:0.9;stroke-width:0.4;"/>
   </g>
   <g id="patch_8">
    <path clip-path="url(#p166ee13823)" d="M 206.64595 229.402532 
Q 234.810755 205.549363 262.97556 181.696194 
" style="fill:none;stroke:#000000;stroke-linecap:round;stroke-opacity:0.9;stroke-width:0.4;"/>
   </g>
   <g id="patch_9">
    <path clip-path="url(#p166ee13823)" d="M 265.67405 179.410805 
Q 293.420931 179.410805 321.167812 179.410805 
" style="fill:none;stroke:#000000;stroke-linecap:round;stroke-opacity:0.9;stroke-width:0.4;"/>
   </g>
   <g id="patch_10">
    <path clip-path="url(#p166ee13823)" d="M 324.702149 179.410805 
Q 353.15968 217.610119 381.617212 255.809432 
" style="fill:none;stroke:#000000;stroke-linecap:round;stroke-opacity:0.9;stroke-width:0.4;"/>
   </g>
   <g id="PathCollection_1">
    <defs>
     <path d="M 0 3.535534 
C 0.937635 3.535534 1.836992 3.163008 2.5 2.5 
C 3.163008 1.836992 3.535534 0.937635 3.535534 0 
C 3.535534 -0.937635 3.163008 -1.836992 2.5 -2.5 
C 1.836992 -3.163008 0.937635 -3.535534 0 -3.535534 
C -0.937635 -3.535534 -1.836992 -3.163008 -2.5 -2.5 
C -3.163008 -1.836992 -3.535534 -0.937635 -3.535534 0 
C -3.535534 0.937635 -3.163008 1.836992 -2.5 2.5 
C -1.836992 3.163008 -0.937635 3.535534 0 3.535534 
z
" id="C0_0_46c8c71231"/>
    </defs>
    <g clip-path="url(#p166ee13823)">
     <use style="fill:#fdb462;fill-opacity:0.9;" x="88.589752" xlink:href="#C0_0_46c8c71231" y="63.33361"/>
    </g>
    <g clip-path="url(#p166ee13823)">
     <use style="fill:#fdb462;fill-opacity:0.9;" x="88.589752" xlink:href="#C0_0_46c8c71231" y="121.372208"/>
    </g>
    <g clip-path="url(#p166ee13823)">
     <use style="fill:#fdb462;fill-opacity:0.9;" x="88.589752" xlink:href="#C0_0_46c8c71231" y="179.410805"/>
    </g>
    <g clip-path="url(#p166ee13823)">
     <use style="fill:#fdb462;fill-opacity:0.9;" x="88.589752" xlink:href="#C0_0_46c8c71231" y="237.449403"/>
    </g>
    <g clip-path="url(#p166ee13823)">
     <use style="fill:#ffed6f;fill-opacity:0.9;" x="88.589752" xlink:href="#C0_0_46c8c71231" y="295.488"/>
    </g>
    <g clip-path="url(#p166ee13823)">
     <use style="fill:#80b1d3;fill-opacity:0.9;" x="147.617851" xlink:href="#C0_0_46c8c71231" y="179.410805"/>
    </g>
    <g clip-path="url(#p166ee13823)">
     <use style="fill:#80b1d3;fill-opacity:0.9;" x="206.64595" xlink:href="#C0_0_46c8c71231" y="129.419078"/>
    </g>
    <g clip-path="url(#p166ee13823)">
     <use style="fill:#80b1d3;fill-opacity:0.9;" x="206.64595" xlink:href="#C0_0_46c8c71231" y="229.402532"/>
    </g>
    <g clip-path="url(#p166ee13823)">
     <use style="fill:#80b1d3;fill-opacity:0.9;" x="265.67405" xlink:href="#C0_0_46c8c71231" y="179.410805"/>
    </g>
    <g clip-path="url(#p166ee13823)">
     <use style="fill:#80b1d3;fill-opacity:0.9;" x="324.702149" xlink:href="#C0_0_46c8c71231" y="179.410805"/>
    </g>
    <g clip-path="url(#p166ee13823)">
     <use style="fill:#b3de69;fill-opacity:0.9;" x="383.730248" xlink:href="#C0_0_46c8c71231" y="100.175793"/>
    </g>
    <g clip-path="url(#p166ee13823)">
     <use style="fill:#b3de69;fill-opacity:0.9;" x="383.730248" xlink:href="#C0_0_46c8c71231" y="179.410805"/>
    </g>
    <g clip-path="url(#p166ee13823)">
     <use style="fill:#b3de69;fill-opacity:0.9;" x="383.730248" xlink:href="#C0_0_46c8c71231" y="258.645817"/>
    </g>
   </g>
  </g>
 </g>
 <defs>
  <clipPath id="p166ee13823">
   <rect height="266.112" width="357.12" x="57.6" y="41.472"/>
  </clipPath>
 </defs>
</svg>
