<?xml version="1.0" encoding="utf-8" standalone="no"?>
<!DOCTYPE svg PUBLIC "-//W3C//DTD SVG 1.1//EN"
  "http://www.w3.org/Graphics/SVG/1.1/DTD/svg11.dtd">
<!-- Created with matplotlib (https://matplotlib.org/) -->
<svg height="345.6pt" version="1.1" viewBox="0 0 460.8 345.6" width="460.8pt" xmlns="http://www.w3.org/2000/svg" xmlns:xlink="http://www.w3.org/1999/xlink">
 <defs>
  <style type="text/css">
*{stroke-linecap:butt;stroke-linejoin:round;}
  </style>
 </defs>
 <g id="figure_1">
  <g id="patch_1">
   <path d="M 0 345.6 
L 460.8 345.6 
L 460.8 0 
L 0 0 
z
" style="fill:#ffffff;"/>
  </g>
  <g id="axes_1">
   <g id="patch_2">
    <path clip-path="url(#p0b3331cf51)" d="M 88.589752 169.645195 
Q 145.850683 169.645195 203.111614 169.645195 
" style="fill:none;stroke:#000000;stroke-linecap:round;stroke-opacity:0.9;stroke-width:0.4;"/>
   </g>
   <g id="patch_3">
    <path clip-path="url(#p0b3331cf51)" d="M 88.589752 169.645195 
Q 234.392382 169.645195 380.195011 169.645195 
" style="fill:none;stroke:#000000;stroke-linecap:round;stroke-opacity:0.9;stroke-width:0.4;"/>
   </g>
   <g id="patch_4">
    <path clip-path="url(#p0b3331cf51)" d="M 88.589752 227.683792 
Q 117.405761 160.670325 146.22177 93.656858 
" style="fill:none;stroke:#000000;stroke-linecap:round;stroke-opacity:0.9;stroke-width:0.4;"/>
   </g>
   <g id="patch_5">
    <path clip-path="url(#p0b3331cf51)" d="M 88.589752 227.683792 
Q 234.559011 159.791628 380.528269 91.899464 
" style="fill:none;stroke:#000000;stroke-linecap:round;stroke-opacity:0.9;stroke-width:0.4;"/>
   </g>
   <g id="patch_6">
    <path clip-path="url(#p0b3331cf51)" d="M 88.589752 227.683792 
Q 234.423906 199.005892 380.25806 170.327991 
" style="fill:none;stroke:#000000;stroke-linecap:round;stroke-opacity:0.9;stroke-width:0.4;"/>
   </g>
   <g id="patch_7">
    <path clip-path="url(#p0b3331cf51)" d="M 88.589752 285.72239 
Q 117.303082 229.258387 146.016411 172.794384 
" style="fill:none;stroke:#000000;stroke-linecap:round;stroke-opacity:0.9;stroke-width:0.4;"/>
   </g>
   <g id="patch_8">
    <path clip-path="url(#p0b3331cf51)" d="M 88.589752 285.72239 
Q 116.60324 268.237869 144.616728 250.753348 
" style="fill:none;stroke:#000000;stroke-linecap:round;stroke-opacity:0.9;stroke-width:0.4;"/>
   </g>
   <g id="patch_9">
    <path clip-path="url(#p0b3331cf51)" d="M 147.617851 90.410183 
Q 234.5455 129.305293 321.473149 168.200404 
" style="fill:none;stroke:#000000;stroke-linecap:round;stroke-opacity:0.9;stroke-width:0.4;"/>
   </g>
   <g id="patch_10">
    <path clip-path="url(#p0b3331cf51)" d="M 147.617851 90.410183 
Q 264.205913 168.659835 380.793975 246.909488 
" style="fill:none;stroke:#000000;stroke-linecap:round;stroke-opacity:0.9;stroke-width:0.4;"/>
   </g>
   <g id="patch_11">
    <path clip-path="url(#p0b3331cf51)" d="M 147.617851 169.645195 
Q 234.391481 169.645195 321.16511 169.645195 
" style="fill:none;stroke:#000000;stroke-linecap:round;stroke-opacity:0.9;stroke-width:0.4;"/>
   </g>
   <g id="patch_12">
    <path clip-path="url(#p0b3331cf51)" d="M 147.617851 248.880207 
Q 176.075383 210.680894 204.532915 172.48158 
" style="fill:none;stroke:#000000;stroke-linecap:round;stroke-opacity:0.9;stroke-width:0.4;"/>
   </g>
   <g id="patch_13">
    <path clip-path="url(#p0b3331cf51)" d="M 206.64595 169.645195 
Q 234.392832 169.645195 262.139713 169.645195 
" style="fill:none;stroke:#000000;stroke-linecap:round;stroke-opacity:0.9;stroke-width:0.4;"/>
   </g>
   <g id="patch_14">
    <path clip-path="url(#p0b3331cf51)" d="M 265.67405 169.645195 
Q 293.420931 169.645195 321.167812 169.645195 
" style="fill:none;stroke:#000000;stroke-linecap:round;stroke-opacity:0.9;stroke-width:0.4;"/>
   </g>
   <g id="patch_15">
    <path clip-path="url(#p0b3331cf51)" d="M 324.702149 169.645195 
Q 352.44903 169.645195 380.195912 169.645195 
" style="fill:none;stroke:#000000;stroke-linecap:round;stroke-opacity:0.9;stroke-width:0.4;"/>
   </g>
   <g id="patch_16">
    <path clip-path="url(#p0b3331cf51)" d="M 324.702149 169.645195 
Q 353.15968 207.844508 381.617212 246.043822 
" style="fill:none;stroke:#000000;stroke-linecap:round;stroke-opacity:0.9;stroke-width:0.4;"/>
   </g>
   <g id="PathCollection_1">
    <defs>
     <path d="M 0 3.535534 
C 0.937635 3.535534 1.836992 3.163008 2.5 2.5 
C 3.163008 1.836992 3.535534 0.937635 3.535534 0 
C 3.535534 -0.937635 3.163008 -1.836992 2.5 -2.5 
C 1.836992 -3.163008 0.937635 -3.535534 0 -3.535534 
C -0.937635 -3.535534 -1.836992 -3.163008 -2.5 -2.5 
C -3.163008 -1.836992 -3.535534 -0.937635 -3.535534 0 
C -3.535534 0.937635 -3.163008 1.836992 -2.5 2.5 
C -1.836992 3.163008 -0.937635 3.535534 0 3.535534 
z
" id="C0_0_efb58712ff"/>
    </defs>
    <g clip-path="url(#p0b3331cf51)">
     <use style="fill:#fdb462;fill-opacity:0.9;" x="88.589752" xlink:href="#C0_0_efb58712ff" y="53.568"/>
    </g>
    <g clip-path="url(#p0b3331cf51)">
     <use style="fill:#fdb462;fill-opacity:0.9;" x="88.589752" xlink:href="#C0_0_efb58712ff" y="111.606597"/>
    </g>
    <g clip-path="url(#p0b3331cf51)">
     <use style="fill:#fdb462;fill-opacity:0.9;" x="88.589752" xlink:href="#C0_0_efb58712ff" y="169.645195"/>
    </g>
    <g clip-path="url(#p0b3331cf51)">
     <use style="fill:#fdb462;fill-opacity:0.9;" x="88.589752" xlink:href="#C0_0_efb58712ff" y="227.683792"/>
    </g>
    <g clip-path="url(#p0b3331cf51)">
     <use style="fill:#ffed6f;fill-opacity:0.9;" x="88.589752" xlink:href="#C0_0_efb58712ff" y="285.72239"/>
    </g>
    <g clip-path="url(#p0b3331cf51)">
     <use style="fill:#80b1d3;fill-opacity:0.9;" x="147.617851" xlink:href="#C0_0_efb58712ff" y="90.410183"/>
    </g>
    <g clip-path="url(#p0b3331cf51)">
     <use style="fill:#80b1d3;fill-opacity:0.9;" x="147.617851" xlink:href="#C0_0_efb58712ff" y="169.645195"/>
    </g>
    <g clip-path="url(#p0b3331cf51)">
     <use style="fill:#80b1d3;fill-opacity:0.9;" x="147.617851" xlink:href="#C0_0_efb58712ff" y="248.880207"/>
    </g>
    <g clip-path="url(#p0b3331cf51)">
     <use style="fill:#80b1d3;fill-opacity:0.9;" x="206.64595" xlink:href="#C0_0_efb58712ff" y="169.645195"/>
    </g>
    <g clip-path="url(#p0b3331cf51)">
     <use style="fill:#80b1d3;fill-opacity:0.9;" x="265.67405" xlink:href="#C0_0_efb58712ff" y="169.645195"/>
    </g>
    <g clip-path="url(#p0b3331cf51)">
     <use style="fill:#80b1d3;fill-opacity:0.9;" x="324.702149" xlink:href="#C0_0_efb58712ff" y="169.645195"/>
    </g>
    <g clip-path="url(#p0b3331cf51)">
     <use style="fill:#b3de69;fill-opacity:0.9;" x="383.730248" xlink:href="#C0_0_efb58712ff" y="90.410183"/>
    </g>
    <g clip-path="url(#p0b3331cf51)">
     <use style="fill:#b3de69;fill-opacity:0.9;" x="383.730248" xlink:href="#C0_0_efb58712ff" y="169.645195"/>
    </g>
    <g clip-path="url(#p0b3331cf51)">
     <use style="fill:#b3de69;fill-opacity:0.9;" x="383.730248" xlink:href="#C0_0_efb58712ff" y="248.880207"/>
    </g>
   </g>
  </g>
 </g>
 <defs>
  <clipPath id="p0b3331cf51">
   <rect height="266.112" width="357.12" x="57.6" y="41.472"/>
  </clipPath>
 </defs>
</svg>
