<?xml version="1.0" encoding="utf-8" standalone="no"?>
<!DOCTYPE svg PUBLIC "-//W3C//DTD SVG 1.1//EN"
  "http://www.w3.org/Graphics/SVG/1.1/DTD/svg11.dtd">
<!-- Created with matplotlib (https://matplotlib.org/) -->
<svg height="345.6pt" version="1.1" viewBox="0 0 460.8 345.6" width="460.8pt" xmlns="http://www.w3.org/2000/svg" xmlns:xlink="http://www.w3.org/1999/xlink">
 <defs>
  <style type="text/css">
*{stroke-linecap:butt;stroke-linejoin:round;}
  </style>
 </defs>
 <g id="figure_1">
  <g id="patch_1">
   <path d="M 0 345.6 
L 460.8 345.6 
L 460.8 0 
L 0 0 
z
" style="fill:#ffffff;"/>
  </g>
  <g id="axes_1">
   <g id="patch_2">
    <path clip-path="url(#pa95f6bf1fd)" d="M 88.589752 169.645195 
Q 136.012967 169.645195 183.436182 169.645195 
" style="fill:none;stroke:#000000;stroke-linecap:round;stroke-opacity:0.9;stroke-width:0.4;"/>
   </g>
   <g id="patch_3">
    <path clip-path="url(#pa95f6bf1fd)" d="M 88.589752 169.645195 
Q 234.392382 169.645195 380.195011 169.645195 
" style="fill:none;stroke:#000000;stroke-linecap:round;stroke-opacity:0.9;stroke-width:0.4;"/>
   </g>
   <g id="patch_4">
    <path clip-path="url(#pa95f6bf1fd)" d="M 88.589752 227.683792 
Q 112.452977 175.275832 136.316202 122.867871 
" style="fill:none;stroke:#000000;stroke-linecap:round;stroke-opacity:0.9;stroke-width:0.4;"/>
   </g>
   <g id="patch_5">
    <path clip-path="url(#pa95f6bf1fd)" d="M 88.589752 227.683792 
Q 234.559011 159.791628 380.528269 91.899464 
" style="fill:none;stroke:#000000;stroke-linecap:round;stroke-opacity:0.9;stroke-width:0.4;"/>
   </g>
   <g id="patch_6">
    <path clip-path="url(#pa95f6bf1fd)" d="M 88.589752 227.683792 
Q 234.423906 199.005892 380.25806 170.327991 
" style="fill:none;stroke:#000000;stroke-linecap:round;stroke-opacity:0.9;stroke-width:0.4;"/>
   </g>
   <g id="patch_7">
    <path clip-path="url(#pa95f6bf1fd)" d="M 88.589752 285.72239 
Q 112.128726 254.098452 135.6677 222.474515 
" style="fill:none;stroke:#000000;stroke-linecap:round;stroke-opacity:0.9;stroke-width:0.4;"/>
   </g>
   <g id="patch_8">
    <path clip-path="url(#pa95f6bf1fd)" d="M 88.589752 285.72239 
Q 185.293119 253.242838 281.996486 220.763287 
" style="fill:none;stroke:#000000;stroke-linecap:round;stroke-opacity:0.9;stroke-width:0.4;"/>
   </g>
   <g id="patch_9">
    <path clip-path="url(#pa95f6bf1fd)" d="M 137.779835 119.653468 
Q 234.447174 144.214147 331.114513 168.774825 
" style="fill:none;stroke:#000000;stroke-linecap:round;stroke-opacity:0.9;stroke-width:0.4;"/>
   </g>
   <g id="patch_10">
    <path clip-path="url(#pa95f6bf1fd)" d="M 137.779835 119.653468 
Q 259.191956 183.445565 380.604078 247.237661 
" style="fill:none;stroke:#000000;stroke-linecap:round;stroke-opacity:0.9;stroke-width:0.4;"/>
   </g>
   <g id="patch_11">
    <path clip-path="url(#pa95f6bf1fd)" d="M 137.779835 219.636922 
Q 161.136417 195.8997 184.493 172.162478 
" style="fill:none;stroke:#000000;stroke-linecap:round;stroke-opacity:0.9;stroke-width:0.4;"/>
   </g>
   <g id="patch_12">
    <path clip-path="url(#pa95f6bf1fd)" d="M 186.969917 169.645195 
Q 209.798091 169.645195 232.626264 169.645195 
" style="fill:none;stroke:#000000;stroke-linecap:round;stroke-opacity:0.9;stroke-width:0.4;"/>
   </g>
   <g id="patch_13">
    <path clip-path="url(#pa95f6bf1fd)" d="M 236.16 169.645195 
Q 259.516583 193.382416 282.873165 217.119638 
" style="fill:none;stroke:#000000;stroke-linecap:round;stroke-opacity:0.9;stroke-width:0.4;"/>
   </g>
   <g id="patch_14">
    <path clip-path="url(#pa95f6bf1fd)" d="M 236.16 169.645195 
Q 259.516583 145.907973 282.873165 122.170752 
" style="fill:none;stroke:#000000;stroke-linecap:round;stroke-opacity:0.9;stroke-width:0.4;"/>
   </g>
   <g id="patch_15">
    <path clip-path="url(#pa95f6bf1fd)" d="M 285.350083 219.636922 
Q 308.706665 195.8997 332.063248 172.162478 
" style="fill:none;stroke:#000000;stroke-linecap:round;stroke-opacity:0.9;stroke-width:0.4;"/>
   </g>
   <g id="patch_16">
    <path clip-path="url(#pa95f6bf1fd)" d="M 285.350083 119.653468 
Q 308.706665 143.39069 332.063248 167.127911 
" style="fill:none;stroke:#000000;stroke-linecap:round;stroke-opacity:0.9;stroke-width:0.4;"/>
   </g>
   <g id="patch_17">
    <path clip-path="url(#pa95f6bf1fd)" d="M 334.540165 169.645195 
Q 357.368339 169.645195 380.196512 169.645195 
" style="fill:none;stroke:#000000;stroke-linecap:round;stroke-opacity:0.9;stroke-width:0.4;"/>
   </g>
   <g id="patch_18">
    <path clip-path="url(#pa95f6bf1fd)" d="M 334.540165 169.645195 
Q 358.202234 207.759876 381.864303 245.874558 
" style="fill:none;stroke:#000000;stroke-linecap:round;stroke-opacity:0.9;stroke-width:0.4;"/>
   </g>
   <g id="PathCollection_1">
    <defs>
     <path d="M 0 3.535534 
C 0.937635 3.535534 1.836992 3.163008 2.5 2.5 
C 3.163008 1.836992 3.535534 0.937635 3.535534 0 
C 3.535534 -0.937635 3.163008 -1.836992 2.5 -2.5 
C 1.836992 -3.163008 0.937635 -3.535534 0 -3.535534 
C -0.937635 -3.535534 -1.836992 -3.163008 -2.5 -2.5 
C -3.163008 -1.836992 -3.535534 -0.937635 -3.535534 0 
C -3.535534 0.937635 -3.163008 1.836992 -2.5 2.5 
C -1.836992 3.163008 -0.937635 3.535534 0 3.535534 
z
" id="C0_0_90b56758c3"/>
    </defs>
    <g clip-path="url(#pa95f6bf1fd)">
     <use style="fill:#fdb462;fill-opacity:0.9;" x="88.589752" xlink:href="#C0_0_90b56758c3" y="53.568"/>
    </g>
    <g clip-path="url(#pa95f6bf1fd)">
     <use style="fill:#fdb462;fill-opacity:0.9;" x="88.589752" xlink:href="#C0_0_90b56758c3" y="111.606597"/>
    </g>
    <g clip-path="url(#pa95f6bf1fd)">
     <use style="fill:#fdb462;fill-opacity:0.9;" x="88.589752" xlink:href="#C0_0_90b56758c3" y="169.645195"/>
    </g>
    <g clip-path="url(#pa95f6bf1fd)">
     <use style="fill:#fdb462;fill-opacity:0.9;" x="88.589752" xlink:href="#C0_0_90b56758c3" y="227.683792"/>
    </g>
    <g clip-path="url(#pa95f6bf1fd)">
     <use style="fill:#ffed6f;fill-opacity:0.9;" x="88.589752" xlink:href="#C0_0_90b56758c3" y="285.72239"/>
    </g>
    <g clip-path="url(#pa95f6bf1fd)">
     <use style="fill:#80b1d3;fill-opacity:0.9;" x="137.779835" xlink:href="#C0_0_90b56758c3" y="119.653468"/>
    </g>
    <g clip-path="url(#pa95f6bf1fd)">
     <use style="fill:#80b1d3;fill-opacity:0.9;" x="137.779835" xlink:href="#C0_0_90b56758c3" y="219.636922"/>
    </g>
    <g clip-path="url(#pa95f6bf1fd)">
     <use style="fill:#80b1d3;fill-opacity:0.9;" x="186.969917" xlink:href="#C0_0_90b56758c3" y="169.645195"/>
    </g>
    <g clip-path="url(#pa95f6bf1fd)">
     <use style="fill:#80b1d3;fill-opacity:0.9;" x="236.16" xlink:href="#C0_0_90b56758c3" y="169.645195"/>
    </g>
    <g clip-path="url(#pa95f6bf1fd)">
     <use style="fill:#80b1d3;fill-opacity:0.9;" x="285.350083" xlink:href="#C0_0_90b56758c3" y="219.636922"/>
    </g>
    <g clip-path="url(#pa95f6bf1fd)">
     <use style="fill:#80b1d3;fill-opacity:0.9;" x="285.350083" xlink:href="#C0_0_90b56758c3" y="119.653468"/>
    </g>
    <g clip-path="url(#pa95f6bf1fd)">
     <use style="fill:#80b1d3;fill-opacity:0.9;" x="334.540165" xlink:href="#C0_0_90b56758c3" y="169.645195"/>
    </g>
    <g clip-path="url(#pa95f6bf1fd)">
     <use style="fill:#b3de69;fill-opacity:0.9;" x="383.730248" xlink:href="#C0_0_90b56758c3" y="90.410183"/>
    </g>
    <g clip-path="url(#pa95f6bf1fd)">
     <use style="fill:#b3de69;fill-opacity:0.9;" x="383.730248" xlink:href="#C0_0_90b56758c3" y="169.645195"/>
    </g>
    <g clip-path="url(#pa95f6bf1fd)">
     <use style="fill:#b3de69;fill-opacity:0.9;" x="383.730248" xlink:href="#C0_0_90b56758c3" y="248.880207"/>
    </g>
   </g>
  </g>
 </g>
 <defs>
  <clipPath id="pa95f6bf1fd">
   <rect height="266.112" width="357.12" x="57.6" y="41.472"/>
  </clipPath>
 </defs>
</svg>
