<?xml version="1.0" encoding="utf-8" standalone="no"?>
<!DOCTYPE svg PUBLIC "-//W3C//DTD SVG 1.1//EN"
  "http://www.w3.org/Graphics/SVG/1.1/DTD/svg11.dtd">
<!-- Created with matplotlib (https://matplotlib.org/) -->
<svg height="345.6pt" version="1.1" viewBox="0 0 460.8 345.6" width="460.8pt" xmlns="http://www.w3.org/2000/svg" xmlns:xlink="http://www.w3.org/1999/xlink">
 <defs>
  <style type="text/css">
*{stroke-linecap:butt;stroke-linejoin:round;}
  </style>
 </defs>
 <g id="figure_1">
  <g id="patch_1">
   <path d="M 0 345.6 
L 460.8 345.6 
L 460.8 0 
L 0 0 
z
" style="fill:#ffffff;"/>
  </g>
  <g id="axes_1">
   <g id="patch_2">
    <path d="M 57.6 307.584 
L 414.72 307.584 
L 414.72 41.472 
L 57.6 41.472 
z
" style="fill:#ffffff;"/>
   </g>
   <g id="PolyCollection_1">
    <path clip-path="url(#pe8f4fb768e)" d="M 73.832727 277.471853 
L 73.832727 278.404881 
L 75.464157 278.404881 
L 77.095587 278.404881 
L 78.727017 278.404881 
L 80.358447 278.404881 
L 81.989877 278.404881 
L 83.621307 278.404881 
L 85.252736 278.404881 
L 86.884166 278.404881 
L 88.515596 278.404881 
L 90.147026 278.404881 
L 91.778456 278.404881 
L 93.409886 278.404881 
L 95.041316 278.404881 
L 96.672746 278.404881 
L 98.304175 278.404881 
L 99.935605 278.404881 
L 101.567035 278.404881 
L 103.198465 278.404881 
L 104.829895 278.404881 
L 106.461325 278.404881 
L 108.092755 278.404881 
L 109.724185 278.404881 
L 111.355614 278.404881 
L 112.987044 278.404881 
L 114.618474 278.404881 
L 116.249904 278.404881 
L 117.881334 278.404881 
L 119.512764 278.404881 
L 121.144194 278.404881 
L 122.775624 278.404881 
L 124.407053 278.404881 
L 126.038483 278.404881 
L 127.669913 278.404881 
L 129.301343 278.404881 
L 130.932773 278.404881 
L 132.564203 278.404881 
L 134.195633 278.404881 
L 135.827063 278.404881 
L 137.458492 278.404881 
L 139.089922 278.404881 
L 140.721352 278.404881 
L 142.352782 278.404881 
L 143.984212 278.404881 
L 145.615642 278.404881 
L 147.247072 278.404881 
L 148.878502 278.404881 
L 150.509931 278.404881 
L 152.141361 278.404881 
L 153.772791 278.404881 
L 155.404221 278.404881 
L 157.035651 278.404881 
L 158.667081 278.404881 
L 160.298511 278.404881 
L 161.929941 278.404881 
L 163.56137 278.404881 
L 165.1928 278.404881 
L 166.82423 278.404881 
L 168.45566 278.404881 
L 170.08709 278.404881 
L 171.71852 278.404881 
L 173.34995 278.404881 
L 174.98138 278.404881 
L 176.61281 278.404881 
L 178.244239 278.404881 
L 179.875669 278.404881 
L 181.507099 278.404881 
L 183.138529 278.404881 
L 184.769959 278.404881 
L 186.401389 278.404881 
L 188.032819 278.404881 
L 189.664249 278.404881 
L 191.295678 278.404881 
L 192.927108 278.404881 
L 194.558538 278.404881 
L 196.189968 278.404881 
L 197.821398 278.404881 
L 199.452828 278.404881 
L 201.084258 278.404881 
L 202.715688 279.220429 
L 204.347117 279.124839 
L 205.978547 279.280066 
L 207.609977 279.483996 
L 209.241407 279.309141 
L 210.872837 280.787896 
L 212.504267 279.569198 
L 214.135697 279.988604 
L 215.767127 279.952641 
L 217.398556 279.970235 
L 219.029986 280.13627 
L 220.661416 279.687574 
L 222.292846 280.803368 
L 223.924276 279.810957 
L 225.555706 280.745179 
L 227.187136 280.776955 
L 228.818566 280.66285 
L 230.449995 280.33133 
L 232.081425 281.423459 
L 233.712855 281.924038 
L 235.344285 280.800403 
L 236.975715 281.930748 
L 238.607145 282.354026 
L 240.238575 281.916544 
L 241.870005 281.707336 
L 243.501434 282.069052 
L 245.132864 283.196974 
L 246.764294 279.705307 
L 248.395724 280.191364 
L 250.027154 281.16468 
L 251.658584 280.476026 
L 253.290014 280.477426 
L 254.921444 282.137167 
L 256.552873 281.98844 
L 258.184303 282.651924 
L 259.815733 283.583804 
L 261.447163 283.687081 
L 263.078593 281.389369 
L 264.710023 282.164349 
L 266.341453 283.977456 
L 267.972883 281.285848 
L 269.604312 280.880804 
L 271.235742 280.683812 
L 272.867172 285.024147 
L 274.498602 282.953769 
L 276.130032 288.265788 
L 277.761462 277.719039 
L 279.392892 279.644618 
L 281.024322 281.147469 
L 282.655751 279.909326 
L 284.287181 282.74792 
L 285.918611 280.876818 
L 287.550041 281.797709 
L 289.181471 282.943469 
L 290.812901 282.960047 
L 292.444331 281.861741 
L 294.075761 282.352403 
L 295.70719 279.707266 
L 297.33862 282.562224 
L 298.97005 282.406536 
L 300.60148 283.661832 
L 302.23291 279.659867 
L 303.86434 284.13559 
L 305.49577 281.000541 
L 307.1272 282.952175 
L 308.75863 280.472621 
L 310.390059 283.116312 
L 312.021489 279.308884 
L 313.652919 280.597272 
L 315.284349 287.571056 
L 316.915779 288.974884 
L 318.547209 281.775672 
L 320.178639 280.360843 
L 321.810069 283.678776 
L 323.441498 284.082616 
L 325.072928 281.173278 
L 326.704358 285.095435 
L 328.335788 278.404881 
L 329.967218 288.289764 
L 331.598648 278.404881 
L 333.230078 278.361216 
L 334.861508 286.366596 
L 336.492937 281.766729 
L 338.124367 289.234931 
L 339.755797 284.199855 
L 341.387227 284.170695 
L 343.018657 282.209251 
L 344.650087 284.46585 
L 346.281517 281.437311 
L 347.912947 279.513534 
L 349.544376 283.710113 
L 351.175806 282.120728 
L 352.807236 282.837337 
L 354.438666 287.393698 
L 356.070096 281.677894 
L 357.701526 277.895896 
L 359.332956 285.374407 
L 360.964386 282.567885 
L 362.595815 280.72119 
L 364.227245 283.386035 
L 365.858675 282.395757 
L 367.490105 285.736244 
L 369.121535 282.160398 
L 370.752965 280.700135 
L 372.384395 286.819368 
L 374.015825 282.655064 
L 375.647254 283.950558 
L 377.278684 286.220226 
L 378.910114 278.448177 
L 380.541544 282.809488 
L 382.172974 282.500389 
L 383.804404 283.183703 
L 385.435834 281.498462 
L 387.067264 281.596007 
L 388.698693 281.764257 
L 390.330123 281.084167 
L 391.961553 282.027016 
L 393.592983 279.545985 
L 395.224413 285.584026 
L 396.855843 283.835093 
L 398.487273 284.232662 
L 398.487273 278.600298 
L 398.487273 278.600298 
L 396.855843 279.409137 
L 395.224413 280.22608 
L 393.592983 276.525494 
L 391.961553 278.621949 
L 390.330123 277.633666 
L 388.698693 278.254249 
L 387.067264 277.959951 
L 385.435834 278.336622 
L 383.804404 278.9196 
L 382.172974 278.495921 
L 380.541544 278.585506 
L 378.910114 275.244199 
L 377.278684 279.77403 
L 375.647254 279.511079 
L 374.015825 278.426309 
L 372.384395 280.488706 
L 370.752965 277.770775 
L 369.121535 278.096902 
L 367.490105 280.966342 
L 365.858675 277.267941 
L 364.227245 279.351374 
L 362.595815 278.340529 
L 360.964386 279.354354 
L 359.332956 279.725447 
L 357.701526 277.08449 
L 356.070096 278.327345 
L 354.438666 280.460193 
L 352.807236 279.588271 
L 351.175806 278.821488 
L 349.544376 279.567254 
L 347.912947 278.200746 
L 346.281517 278.137239 
L 344.650087 280.677994 
L 343.018657 278.263027 
L 341.387227 280.117441 
L 339.755797 280.526242 
L 338.124367 282.546804 
L 336.492937 279.345169 
L 334.861508 279.826391 
L 333.230078 274.977434 
L 331.598648 276.924176 
L 329.967218 282.224347 
L 328.335788 277.471932 
L 326.704358 280.557217 
L 325.072928 277.685201 
L 323.441498 280.33677 
L 321.810069 280.537725 
L 320.178639 277.875617 
L 318.547209 277.557989 
L 316.915779 280.003497 
L 315.284349 280.957793 
L 313.652919 278.226783 
L 312.021489 276.863616 
L 310.390059 280.022084 
L 308.75863 277.275379 
L 307.1272 279.147367 
L 305.49577 277.987056 
L 303.86434 279.128827 
L 302.23291 277.2106 
L 300.60148 280.36955 
L 298.97005 277.770807 
L 297.33862 279.214095 
L 295.70719 277.835377 
L 294.075761 279.514542 
L 292.444331 278.451965 
L 290.812901 279.576182 
L 289.181471 279.533931 
L 287.550041 278.823509 
L 285.918611 278.70037 
L 284.287181 279.242478 
L 282.655751 276.337359 
L 281.024322 277.381104 
L 279.392892 277.059273 
L 277.761462 276.320929 
L 276.130032 281.363592 
L 274.498602 278.354788 
L 272.867172 281.116605 
L 271.235742 277.5291 
L 269.604312 276.690882 
L 267.972883 278.441662 
L 266.341453 279.713718 
L 264.710023 279.260147 
L 263.078593 278.679506 
L 261.447163 280.745656 
L 259.815733 279.974808 
L 258.184303 279.420552 
L 256.552873 278.845171 
L 254.921444 278.433687 
L 253.290014 277.75328 
L 251.658584 277.500253 
L 250.027154 277.942963 
L 248.395724 276.767163 
L 246.764294 275.289686 
L 245.132864 279.317758 
L 243.501434 278.911758 
L 241.870005 278.989756 
L 240.238575 278.62513 
L 238.607145 279.880651 
L 236.975715 278.915323 
L 235.344285 276.163866 
L 233.712855 277.644497 
L 232.081425 277.713437 
L 230.449995 277.108341 
L 228.818566 278.336293 
L 227.187136 278.028159 
L 225.555706 276.709359 
L 223.924276 277.462906 
L 222.292846 277.564633 
L 220.661416 277.362653 
L 219.029986 275.959693 
L 217.398556 277.063193 
L 215.767127 276.946925 
L 214.135697 277.268113 
L 212.504267 276.850935 
L 210.872837 276.492348 
L 209.241407 277.626809 
L 207.609977 276.872174 
L 205.978547 276.953798 
L 204.347117 276.840842 
L 202.715688 277.033757 
L 201.084258 276.600946 
L 199.452828 277.142676 
L 197.821398 276.105821 
L 196.189968 276.105821 
L 194.558538 276.105821 
L 192.927108 276.105821 
L 191.295678 276.872174 
L 189.664249 276.105821 
L 188.032819 276.872174 
L 186.401389 276.872174 
L 184.769959 278.404881 
L 183.138529 276.105821 
L 181.507099 275.339467 
L 179.875669 276.105821 
L 178.244239 276.872174 
L 176.61281 276.872174 
L 174.98138 276.872174 
L 173.34995 276.105821 
L 171.71852 276.105821 
L 170.08709 276.105821 
L 168.45566 275.339467 
L 166.82423 275.339467 
L 165.1928 276.872174 
L 163.56137 276.872174 
L 161.929941 276.105821 
L 160.298511 277.596859 
L 158.667081 277.130345 
L 157.035651 275.339467 
L 155.404221 275.339467 
L 153.772791 276.872174 
L 152.141361 276.105821 
L 150.509931 275.339467 
L 148.878502 277.321933 
L 147.247072 276.105821 
L 145.615642 277.471853 
L 143.984212 276.872174 
L 142.352782 276.872174 
L 140.721352 276.872174 
L 139.089922 275.339467 
L 137.458492 276.872174 
L 135.827063 276.105821 
L 134.195633 277.471853 
L 132.564203 276.105821 
L 130.932773 276.872174 
L 129.301343 276.872174 
L 127.669913 276.105821 
L 126.038483 277.471853 
L 124.407053 276.872174 
L 122.775624 276.872174 
L 121.144194 277.130345 
L 119.512764 276.105821 
L 117.881334 277.596859 
L 116.249904 276.872174 
L 114.618474 277.471853 
L 112.987044 276.105821 
L 111.355614 276.105821 
L 109.724185 277.471853 
L 108.092755 277.471853 
L 106.461325 275.339467 
L 104.829895 275.339467 
L 103.198465 276.105821 
L 101.567035 275.339467 
L 99.935605 276.872174 
L 98.304175 276.105821 
L 96.672746 277.471853 
L 95.041316 276.105821 
L 93.409886 275.339467 
L 91.778456 275.339467 
L 90.147026 275.339467 
L 88.515596 276.872174 
L 86.884166 276.872174 
L 85.252736 276.872174 
L 83.621307 276.105821 
L 81.989877 276.872174 
L 80.358447 277.471853 
L 78.727017 276.105821 
L 77.095587 277.471853 
L 75.464157 276.872174 
L 73.832727 277.471853 
z
" style="fill:#1f77b4;fill-opacity:0.2;"/>
   </g>
   <g id="PolyCollection_2">
    <path clip-path="url(#pe8f4fb768e)" d="M 73.832727 274.573114 
L 73.832727 278.404881 
L 75.464157 278.404881 
L 77.095587 278.404881 
L 78.727017 278.404881 
L 80.358447 278.404881 
L 81.989877 278.404881 
L 83.621307 278.404881 
L 85.252736 278.404881 
L 86.884166 278.404881 
L 88.515596 278.404881 
L 90.147026 278.404881 
L 91.778456 278.404881 
L 93.409886 278.404881 
L 95.041316 278.404881 
L 96.672746 278.404881 
L 98.304175 278.404881 
L 99.935605 278.404881 
L 101.567035 278.404881 
L 103.198465 278.404881 
L 104.829895 278.404881 
L 106.461325 278.404881 
L 108.092755 278.404881 
L 109.724185 278.404881 
L 111.355614 278.404881 
L 112.987044 278.404881 
L 114.618474 278.404881 
L 116.249904 278.404881 
L 117.881334 278.404881 
L 119.512764 278.404881 
L 121.144194 278.404881 
L 122.775624 278.404881 
L 124.407053 278.404881 
L 126.038483 278.404881 
L 127.669913 278.404881 
L 129.301343 278.404881 
L 130.932773 278.404881 
L 132.564203 278.404881 
L 134.195633 278.404881 
L 135.827063 278.404881 
L 137.458492 278.404881 
L 139.089922 278.404881 
L 140.721352 278.404881 
L 142.352782 278.404881 
L 143.984212 278.404881 
L 145.615642 278.404881 
L 147.247072 278.404881 
L 148.878502 278.404881 
L 150.509931 278.404881 
L 152.141361 278.404881 
L 153.772791 278.404881 
L 155.404221 278.404881 
L 157.035651 278.404881 
L 158.667081 278.404881 
L 160.298511 278.404881 
L 161.929941 278.404881 
L 163.56137 278.404881 
L 165.1928 278.404881 
L 166.82423 278.404881 
L 168.45566 278.404881 
L 170.08709 278.404881 
L 171.71852 278.404881 
L 173.34995 278.404881 
L 174.98138 278.404881 
L 176.61281 278.404881 
L 178.244239 278.404881 
L 179.875669 278.404881 
L 181.507099 278.404881 
L 183.138529 278.404881 
L 184.769959 278.404881 
L 186.401389 278.404881 
L 188.032819 278.404881 
L 189.664249 278.404881 
L 191.295678 278.404881 
L 192.927108 278.404881 
L 194.558538 278.404881 
L 196.189968 278.404881 
L 197.821398 278.404881 
L 199.452828 278.404881 
L 201.084258 280.262024 
L 202.715688 280.848194 
L 204.347117 280.45596 
L 205.978547 280.741327 
L 207.609977 280.69121 
L 209.241407 280.84874 
L 210.872837 282.454732 
L 212.504267 280.826277 
L 214.135697 280.854727 
L 215.767127 280.829991 
L 217.398556 281.090788 
L 219.029986 282.285223 
L 220.661416 282.240272 
L 222.292846 282.495122 
L 223.924276 280.980826 
L 225.555706 281.511735 
L 227.187136 281.554465 
L 228.818566 283.325431 
L 230.449995 282.887621 
L 232.081425 284.229841 
L 233.712855 283.747226 
L 235.344285 283.150326 
L 236.975715 283.495144 
L 238.607145 284.136267 
L 240.238575 283.352649 
L 241.870005 283.30414 
L 243.501434 283.28349 
L 245.132864 285.270569 
L 246.764294 283.806497 
L 248.395724 284.661508 
L 250.027154 284.642667 
L 251.658584 284.700121 
L 253.290014 284.777551 
L 254.921444 285.238915 
L 256.552873 285.224212 
L 258.184303 285.452236 
L 259.815733 285.682615 
L 261.447163 286.64475 
L 263.078593 285.553066 
L 264.710023 286.356204 
L 266.341453 286.376133 
L 267.972883 286.350767 
L 269.604312 286.192168 
L 271.235742 286.099063 
L 272.867172 287.770244 
L 274.498602 286.183594 
L 276.130032 291.118057 
L 277.761462 282.585094 
L 279.392892 282.766696 
L 281.024322 282.52162 
L 282.655751 282.474356 
L 284.287181 284.318611 
L 285.918611 282.967298 
L 287.550041 283.468609 
L 289.181471 285.336124 
L 290.812901 286.8789 
L 292.444331 283.857283 
L 294.075761 285.68623 
L 295.70719 285.398079 
L 297.33862 286.597214 
L 298.97005 284.95826 
L 300.60148 285.590282 
L 302.23291 284.6935 
L 303.86434 286.351873 
L 305.49577 284.629501 
L 307.1272 284.610547 
L 308.75863 284.417669 
L 310.390059 284.394044 
L 312.021489 284.194965 
L 313.652919 284.083606 
L 315.284349 295.488 
L 316.915779 291.220381 
L 318.547209 285.022151 
L 320.178639 284.819486 
L 321.810069 284.810769 
L 323.441498 288.450621 
L 325.072928 284.80453 
L 326.704358 286.797869 
L 328.335788 284.64175 
L 329.967218 292.35945 
L 331.598648 284.095536 
L 333.230078 283.833335 
L 334.861508 287.008376 
L 336.492937 284.528891 
L 338.124367 295.345619 
L 339.755797 285.085441 
L 341.387227 285.067506 
L 343.018657 284.915101 
L 344.650087 286.321271 
L 346.281517 284.659447 
L 347.912947 284.441128 
L 349.544376 284.501601 
L 351.175806 284.350559 
L 352.807236 284.321863 
L 354.438666 290.908502 
L 356.070096 284.737801 
L 357.701526 284.414237 
L 359.332956 285.786421 
L 360.964386 284.228082 
L 362.595815 284.114314 
L 364.227245 285.5293 
L 365.858675 284.483767 
L 367.490105 288.155177 
L 369.121535 284.550844 
L 370.752965 284.394532 
L 372.384395 290.034387 
L 374.015825 285.062342 
L 375.647254 285.064239 
L 377.278684 286.713546 
L 378.910114 284.633485 
L 380.541544 284.5876 
L 382.172974 284.5748 
L 383.804404 284.554034 
L 385.435834 284.478477 
L 387.067264 284.386437 
L 388.698693 284.320271 
L 390.330123 284.219182 
L 391.961553 284.168028 
L 393.592983 284.027391 
L 395.224413 291.588601 
L 396.855843 286.493134 
L 398.487273 284.966195 
L 398.487273 261.875543 
L 398.487273 261.875543 
L 396.855843 249.363789 
L 395.224413 157.781142 
L 393.592983 273.13988 
L 391.961553 265.826034 
L 390.330123 257.395366 
L 388.698693 268.118445 
L 387.067264 217.918707 
L 385.435834 252.098259 
L 383.804404 245.896316 
L 382.172974 248.545727 
L 380.541544 256.655289 
L 378.910114 261.24303 
L 377.278684 235.439205 
L 375.647254 239.474135 
L 374.015825 234.656615 
L 372.384395 241.865172 
L 370.752965 245.837243 
L 369.121535 228.415769 
L 367.490105 252.855925 
L 365.858675 200.768738 
L 364.227245 196.895939 
L 362.595815 260.091866 
L 360.964386 258.516038 
L 359.332956 238.972729 
L 357.701526 265.794603 
L 356.070096 251.626755 
L 354.438666 187.585422 
L 352.807236 245.086309 
L 351.175806 250.421049 
L 349.544376 247.684094 
L 347.912947 274.368235 
L 346.281517 273.036491 
L 344.650087 197.459776 
L 343.018657 238.531981 
L 341.387227 258.514076 
L 339.755797 238.16092 
L 338.124367 233.622656 
L 336.492937 271.952078 
L 334.861508 200.198094 
L 333.230078 270.580164 
L 331.598648 271.909528 
L 329.967218 157.661138 
L 328.335788 227.431804 
L 326.704358 247.289088 
L 325.072928 245.053427 
L 323.441498 242.057905 
L 321.810069 260.09055 
L 320.178639 267.965843 
L 318.547209 237.516885 
L 316.915779 106.785462 
L 315.284349 53.568 
L 313.652919 270.946136 
L 312.021489 257.620643 
L 310.390059 265.32601 
L 308.75863 233.54826 
L 307.1272 255.99234 
L 305.49577 196.57248 
L 303.86434 223.056774 
L 302.23291 225.787089 
L 300.60148 240.261759 
L 298.97005 253.421441 
L 297.33862 216.428401 
L 295.70719 256.194034 
L 294.075761 265.131945 
L 292.444331 229.093068 
L 290.812901 229.605221 
L 289.181471 242.339688 
L 287.550041 243.671038 
L 285.918611 243.141838 
L 284.287181 189.372343 
L 282.655751 250.918101 
L 281.024322 233.714637 
L 279.392892 272.854561 
L 277.761462 205.379001 
L 276.130032 147.38712 
L 274.498602 233.356198 
L 272.867172 244.866719 
L 271.235742 268.769142 
L 269.604312 191.983566 
L 267.972883 269.075558 
L 266.341453 255.760508 
L 264.710023 249.079551 
L 263.078593 259.959204 
L 261.447163 273.434573 
L 259.815733 258.015635 
L 258.184303 242.063836 
L 256.552873 267.410301 
L 254.921444 254.176152 
L 253.290014 269.568403 
L 251.658584 259.690052 
L 250.027154 269.08805 
L 248.395724 255.149764 
L 246.764294 236.578512 
L 245.132864 243.181846 
L 243.501434 243.014919 
L 241.870005 259.456479 
L 240.238575 249.727849 
L 238.607145 266.364985 
L 236.975715 232.489438 
L 235.344285 235.614725 
L 233.712855 239.123332 
L 232.081425 256.008232 
L 230.449995 249.863568 
L 228.818566 232.166681 
L 227.187136 258.325661 
L 225.555706 235.992779 
L 223.924276 265.356397 
L 222.292846 231.650931 
L 220.661416 252.306822 
L 219.029986 242.774912 
L 217.398556 246.558212 
L 215.767127 241.283451 
L 214.135697 263.215729 
L 212.504267 256.514862 
L 210.872837 256.603776 
L 209.241407 275.008235 
L 207.609977 211.695614 
L 205.978547 273.867861 
L 204.347117 260.300374 
L 202.715688 250.695874 
L 201.084258 273.424069 
L 199.452828 274.573114 
L 197.821398 274.573114 
L 196.189968 274.573114 
L 194.558538 274.573114 
L 192.927108 274.573114 
L 191.295678 274.573114 
L 189.664249 274.573114 
L 188.032819 274.573114 
L 186.401389 274.573114 
L 184.769959 274.573114 
L 183.138529 274.573114 
L 181.507099 274.573114 
L 179.875669 274.573114 
L 178.244239 274.573114 
L 176.61281 274.573114 
L 174.98138 274.573114 
L 173.34995 274.573114 
L 171.71852 274.573114 
L 170.08709 274.573114 
L 168.45566 274.573114 
L 166.82423 274.573114 
L 165.1928 274.573114 
L 163.56137 274.573114 
L 161.929941 274.573114 
L 160.298511 274.573114 
L 158.667081 274.573114 
L 157.035651 274.573114 
L 155.404221 274.573114 
L 153.772791 274.573114 
L 152.141361 274.573114 
L 150.509931 274.573114 
L 148.878502 274.573114 
L 147.247072 274.573114 
L 145.615642 274.573114 
L 143.984212 274.573114 
L 142.352782 274.573114 
L 140.721352 274.573114 
L 139.089922 274.573114 
L 137.458492 274.573114 
L 135.827063 274.573114 
L 134.195633 274.573114 
L 132.564203 274.573114 
L 130.932773 274.573114 
L 129.301343 274.573114 
L 127.669913 274.573114 
L 126.038483 274.573114 
L 124.407053 274.573114 
L 122.775624 274.573114 
L 121.144194 274.573114 
L 119.512764 274.573114 
L 117.881334 274.573114 
L 116.249904 274.573114 
L 114.618474 274.573114 
L 112.987044 274.573114 
L 111.355614 274.573114 
L 109.724185 274.573114 
L 108.092755 274.573114 
L 106.461325 274.573114 
L 104.829895 274.573114 
L 103.198465 274.573114 
L 101.567035 274.573114 
L 99.935605 274.573114 
L 98.304175 274.573114 
L 96.672746 274.573114 
L 95.041316 274.573114 
L 93.409886 274.573114 
L 91.778456 274.573114 
L 90.147026 274.573114 
L 88.515596 274.573114 
L 86.884166 274.573114 
L 85.252736 274.573114 
L 83.621307 274.573114 
L 81.989877 274.573114 
L 80.358447 274.573114 
L 78.727017 274.573114 
L 77.095587 274.573114 
L 75.464157 274.573114 
L 73.832727 274.573114 
z
" style="fill:#1f77b4;fill-opacity:0.1;"/>
   </g>
   <g id="matplotlib.axis_1">
    <g id="xtick_1">
     <g id="line2d_1">
      <defs>
       <path d="M 0 0 
L 0 3.5 
" id="m0c7bb7a47d" style="stroke:#000000;stroke-width:0.8;"/>
      </defs>
      <g>
       <use style="stroke:#000000;stroke-width:0.8;" x="73.832727" xlink:href="#m0c7bb7a47d" y="307.584"/>
      </g>
     </g>
     <g id="text_1">
      <!-- 0 -->
      <defs>
       <path d="M 31.78125 66.40625 
Q 24.171875 66.40625 20.328125 58.90625 
Q 16.5 51.421875 16.5 36.375 
Q 16.5 21.390625 20.328125 13.890625 
Q 24.171875 6.390625 31.78125 6.390625 
Q 39.453125 6.390625 43.28125 13.890625 
Q 47.125 21.390625 47.125 36.375 
Q 47.125 51.421875 43.28125 58.90625 
Q 39.453125 66.40625 31.78125 66.40625 
z
M 31.78125 74.21875 
Q 44.046875 74.21875 50.515625 64.515625 
Q 56.984375 54.828125 56.984375 36.375 
Q 56.984375 17.96875 50.515625 8.265625 
Q 44.046875 -1.421875 31.78125 -1.421875 
Q 19.53125 -1.421875 13.0625 8.265625 
Q 6.59375 17.96875 6.59375 36.375 
Q 6.59375 54.828125 13.0625 64.515625 
Q 19.53125 74.21875 31.78125 74.21875 
z
" id="DejaVuSans-48"/>
      </defs>
      <g transform="translate(70.651477 322.182437)scale(0.1 -0.1)">
       <use xlink:href="#DejaVuSans-48"/>
      </g>
     </g>
    </g>
    <g id="xtick_2">
     <g id="line2d_2">
      <g>
       <use style="stroke:#000000;stroke-width:0.8;" x="114.618474" xlink:href="#m0c7bb7a47d" y="307.584"/>
      </g>
     </g>
     <g id="text_2">
      <!-- 25 -->
      <defs>
       <path d="M 19.1875 8.296875 
L 53.609375 8.296875 
L 53.609375 0 
L 7.328125 0 
L 7.328125 8.296875 
Q 12.9375 14.109375 22.625 23.890625 
Q 32.328125 33.6875 34.8125 36.53125 
Q 39.546875 41.84375 41.421875 45.53125 
Q 43.3125 49.21875 43.3125 52.78125 
Q 43.3125 58.59375 39.234375 62.25 
Q 35.15625 65.921875 28.609375 65.921875 
Q 23.96875 65.921875 18.8125 64.3125 
Q 13.671875 62.703125 7.8125 59.421875 
L 7.8125 69.390625 
Q 13.765625 71.78125 18.9375 73 
Q 24.125 74.21875 28.421875 74.21875 
Q 39.75 74.21875 46.484375 68.546875 
Q 53.21875 62.890625 53.21875 53.421875 
Q 53.21875 48.921875 51.53125 44.890625 
Q 49.859375 40.875 45.40625 35.40625 
Q 44.1875 33.984375 37.640625 27.21875 
Q 31.109375 20.453125 19.1875 8.296875 
z
" id="DejaVuSans-50"/>
       <path d="M 10.796875 72.90625 
L 49.515625 72.90625 
L 49.515625 64.59375 
L 19.828125 64.59375 
L 19.828125 46.734375 
Q 21.96875 47.46875 24.109375 47.828125 
Q 26.265625 48.1875 28.421875 48.1875 
Q 40.625 48.1875 47.75 41.5 
Q 54.890625 34.8125 54.890625 23.390625 
Q 54.890625 11.625 47.5625 5.09375 
Q 40.234375 -1.421875 26.90625 -1.421875 
Q 22.3125 -1.421875 17.546875 -0.640625 
Q 12.796875 0.140625 7.71875 1.703125 
L 7.71875 11.625 
Q 12.109375 9.234375 16.796875 8.0625 
Q 21.484375 6.890625 26.703125 6.890625 
Q 35.15625 6.890625 40.078125 11.328125 
Q 45.015625 15.765625 45.015625 23.390625 
Q 45.015625 31 40.078125 35.4375 
Q 35.15625 39.890625 26.703125 39.890625 
Q 22.75 39.890625 18.8125 39.015625 
Q 14.890625 38.140625 10.796875 36.28125 
z
" id="DejaVuSans-53"/>
      </defs>
      <g transform="translate(108.255974 322.182437)scale(0.1 -0.1)">
       <use xlink:href="#DejaVuSans-50"/>
       <use x="63.623047" xlink:href="#DejaVuSans-53"/>
      </g>
     </g>
    </g>
    <g id="xtick_3">
     <g id="line2d_3">
      <g>
       <use style="stroke:#000000;stroke-width:0.8;" x="155.404221" xlink:href="#m0c7bb7a47d" y="307.584"/>
      </g>
     </g>
     <g id="text_3">
      <!-- 50 -->
      <g transform="translate(149.041721 322.182437)scale(0.1 -0.1)">
       <use xlink:href="#DejaVuSans-53"/>
       <use x="63.623047" xlink:href="#DejaVuSans-48"/>
      </g>
     </g>
    </g>
    <g id="xtick_4">
     <g id="line2d_4">
      <g>
       <use style="stroke:#000000;stroke-width:0.8;" x="196.189968" xlink:href="#m0c7bb7a47d" y="307.584"/>
      </g>
     </g>
     <g id="text_4">
      <!-- 75 -->
      <defs>
       <path d="M 8.203125 72.90625 
L 55.078125 72.90625 
L 55.078125 68.703125 
L 28.609375 0 
L 18.3125 0 
L 43.21875 64.59375 
L 8.203125 64.59375 
z
" id="DejaVuSans-55"/>
      </defs>
      <g transform="translate(189.827468 322.182437)scale(0.1 -0.1)">
       <use xlink:href="#DejaVuSans-55"/>
       <use x="63.623047" xlink:href="#DejaVuSans-53"/>
      </g>
     </g>
    </g>
    <g id="xtick_5">
     <g id="line2d_5">
      <g>
       <use style="stroke:#000000;stroke-width:0.8;" x="236.975715" xlink:href="#m0c7bb7a47d" y="307.584"/>
      </g>
     </g>
     <g id="text_5">
      <!-- 100 -->
      <defs>
       <path d="M 12.40625 8.296875 
L 28.515625 8.296875 
L 28.515625 63.921875 
L 10.984375 60.40625 
L 10.984375 69.390625 
L 28.421875 72.90625 
L 38.28125 72.90625 
L 38.28125 8.296875 
L 54.390625 8.296875 
L 54.390625 0 
L 12.40625 0 
z
" id="DejaVuSans-49"/>
      </defs>
      <g transform="translate(227.431965 322.182437)scale(0.1 -0.1)">
       <use xlink:href="#DejaVuSans-49"/>
       <use x="63.623047" xlink:href="#DejaVuSans-48"/>
       <use x="127.246094" xlink:href="#DejaVuSans-48"/>
      </g>
     </g>
    </g>
    <g id="xtick_6">
     <g id="line2d_6">
      <g>
       <use style="stroke:#000000;stroke-width:0.8;" x="277.761462" xlink:href="#m0c7bb7a47d" y="307.584"/>
      </g>
     </g>
     <g id="text_6">
      <!-- 125 -->
      <g transform="translate(268.217712 322.182437)scale(0.1 -0.1)">
       <use xlink:href="#DejaVuSans-49"/>
       <use x="63.623047" xlink:href="#DejaVuSans-50"/>
       <use x="127.246094" xlink:href="#DejaVuSans-53"/>
      </g>
     </g>
    </g>
    <g id="xtick_7">
     <g id="line2d_7">
      <g>
       <use style="stroke:#000000;stroke-width:0.8;" x="318.547209" xlink:href="#m0c7bb7a47d" y="307.584"/>
      </g>
     </g>
     <g id="text_7">
      <!-- 150 -->
      <g transform="translate(309.003459 322.182437)scale(0.1 -0.1)">
       <use xlink:href="#DejaVuSans-49"/>
       <use x="63.623047" xlink:href="#DejaVuSans-53"/>
       <use x="127.246094" xlink:href="#DejaVuSans-48"/>
      </g>
     </g>
    </g>
    <g id="xtick_8">
     <g id="line2d_8">
      <g>
       <use style="stroke:#000000;stroke-width:0.8;" x="359.332956" xlink:href="#m0c7bb7a47d" y="307.584"/>
      </g>
     </g>
     <g id="text_8">
      <!-- 175 -->
      <g transform="translate(349.789206 322.182437)scale(0.1 -0.1)">
       <use xlink:href="#DejaVuSans-49"/>
       <use x="63.623047" xlink:href="#DejaVuSans-55"/>
       <use x="127.246094" xlink:href="#DejaVuSans-53"/>
      </g>
     </g>
    </g>
    <g id="xtick_9">
     <g id="line2d_9">
      <g>
       <use style="stroke:#000000;stroke-width:0.8;" x="400.118703" xlink:href="#m0c7bb7a47d" y="307.584"/>
      </g>
     </g>
     <g id="text_9">
      <!-- 200 -->
      <g transform="translate(390.574953 322.182437)scale(0.1 -0.1)">
       <use xlink:href="#DejaVuSans-50"/>
       <use x="63.623047" xlink:href="#DejaVuSans-48"/>
       <use x="127.246094" xlink:href="#DejaVuSans-48"/>
      </g>
     </g>
    </g>
   </g>
   <g id="matplotlib.axis_2">
    <g id="ytick_1">
     <g id="line2d_10">
      <defs>
       <path d="M 0 0 
L -3.5 0 
" id="ma7064e0642" style="stroke:#000000;stroke-width:0.8;"/>
      </defs>
      <g>
       <use style="stroke:#000000;stroke-width:0.8;" x="57.6" xlink:href="#ma7064e0642" y="281.566908"/>
      </g>
     </g>
     <g id="text_10">
      <!-- 1 -->
      <g transform="translate(44.2375 285.366127)scale(0.1 -0.1)">
       <use xlink:href="#DejaVuSans-49"/>
      </g>
     </g>
    </g>
    <g id="ytick_2">
     <g id="line2d_11">
      <g>
       <use style="stroke:#000000;stroke-width:0.8;" x="57.6" xlink:href="#ma7064e0642" y="249.501667"/>
      </g>
     </g>
     <g id="text_11">
      <!-- 2 -->
      <g transform="translate(44.2375 253.300886)scale(0.1 -0.1)">
       <use xlink:href="#DejaVuSans-50"/>
      </g>
     </g>
    </g>
    <g id="ytick_3">
     <g id="line2d_12">
      <g>
       <use style="stroke:#000000;stroke-width:0.8;" x="57.6" xlink:href="#ma7064e0642" y="217.436426"/>
      </g>
     </g>
     <g id="text_12">
      <!-- 3 -->
      <defs>
       <path d="M 40.578125 39.3125 
Q 47.65625 37.796875 51.625 33 
Q 55.609375 28.21875 55.609375 21.1875 
Q 55.609375 10.40625 48.1875 4.484375 
Q 40.765625 -1.421875 27.09375 -1.421875 
Q 22.515625 -1.421875 17.65625 -0.515625 
Q 12.796875 0.390625 7.625 2.203125 
L 7.625 11.71875 
Q 11.71875 9.328125 16.59375 8.109375 
Q 21.484375 6.890625 26.8125 6.890625 
Q 36.078125 6.890625 40.9375 10.546875 
Q 45.796875 14.203125 45.796875 21.1875 
Q 45.796875 27.640625 41.28125 31.265625 
Q 36.765625 34.90625 28.71875 34.90625 
L 20.21875 34.90625 
L 20.21875 43.015625 
L 29.109375 43.015625 
Q 36.375 43.015625 40.234375 45.921875 
Q 44.09375 48.828125 44.09375 54.296875 
Q 44.09375 59.90625 40.109375 62.90625 
Q 36.140625 65.921875 28.71875 65.921875 
Q 24.65625 65.921875 20.015625 65.03125 
Q 15.375 64.15625 9.8125 62.3125 
L 9.8125 71.09375 
Q 15.4375 72.65625 20.34375 73.4375 
Q 25.25 74.21875 29.59375 74.21875 
Q 40.828125 74.21875 47.359375 69.109375 
Q 53.90625 64.015625 53.90625 55.328125 
Q 53.90625 49.265625 50.4375 45.09375 
Q 46.96875 40.921875 40.578125 39.3125 
z
" id="DejaVuSans-51"/>
      </defs>
      <g transform="translate(44.2375 221.235645)scale(0.1 -0.1)">
       <use xlink:href="#DejaVuSans-51"/>
      </g>
     </g>
    </g>
    <g id="ytick_4">
     <g id="line2d_13">
      <g>
       <use style="stroke:#000000;stroke-width:0.8;" x="57.6" xlink:href="#ma7064e0642" y="185.371185"/>
      </g>
     </g>
     <g id="text_13">
      <!-- 4 -->
      <defs>
       <path d="M 37.796875 64.3125 
L 12.890625 25.390625 
L 37.796875 25.390625 
z
M 35.203125 72.90625 
L 47.609375 72.90625 
L 47.609375 25.390625 
L 58.015625 25.390625 
L 58.015625 17.1875 
L 47.609375 17.1875 
L 47.609375 0 
L 37.796875 0 
L 37.796875 17.1875 
L 4.890625 17.1875 
L 4.890625 26.703125 
z
" id="DejaVuSans-52"/>
      </defs>
      <g transform="translate(44.2375 189.170404)scale(0.1 -0.1)">
       <use xlink:href="#DejaVuSans-52"/>
      </g>
     </g>
    </g>
    <g id="ytick_5">
     <g id="line2d_14">
      <g>
       <use style="stroke:#000000;stroke-width:0.8;" x="57.6" xlink:href="#ma7064e0642" y="153.305944"/>
      </g>
     </g>
     <g id="text_14">
      <!-- 5 -->
      <g transform="translate(44.2375 157.105163)scale(0.1 -0.1)">
       <use xlink:href="#DejaVuSans-53"/>
      </g>
     </g>
    </g>
    <g id="ytick_6">
     <g id="line2d_15">
      <g>
       <use style="stroke:#000000;stroke-width:0.8;" x="57.6" xlink:href="#ma7064e0642" y="121.240703"/>
      </g>
     </g>
     <g id="text_15">
      <!-- 6 -->
      <defs>
       <path d="M 33.015625 40.375 
Q 26.375 40.375 22.484375 35.828125 
Q 18.609375 31.296875 18.609375 23.390625 
Q 18.609375 15.53125 22.484375 10.953125 
Q 26.375 6.390625 33.015625 6.390625 
Q 39.65625 6.390625 43.53125 10.953125 
Q 47.40625 15.53125 47.40625 23.390625 
Q 47.40625 31.296875 43.53125 35.828125 
Q 39.65625 40.375 33.015625 40.375 
z
M 52.59375 71.296875 
L 52.59375 62.3125 
Q 48.875 64.0625 45.09375 64.984375 
Q 41.3125 65.921875 37.59375 65.921875 
Q 27.828125 65.921875 22.671875 59.328125 
Q 17.53125 52.734375 16.796875 39.40625 
Q 19.671875 43.65625 24.015625 45.921875 
Q 28.375 48.1875 33.59375 48.1875 
Q 44.578125 48.1875 50.953125 41.515625 
Q 57.328125 34.859375 57.328125 23.390625 
Q 57.328125 12.15625 50.6875 5.359375 
Q 44.046875 -1.421875 33.015625 -1.421875 
Q 20.359375 -1.421875 13.671875 8.265625 
Q 6.984375 17.96875 6.984375 36.375 
Q 6.984375 53.65625 15.1875 63.9375 
Q 23.390625 74.21875 37.203125 74.21875 
Q 40.921875 74.21875 44.703125 73.484375 
Q 48.484375 72.75 52.59375 71.296875 
z
" id="DejaVuSans-54"/>
      </defs>
      <g transform="translate(44.2375 125.039922)scale(0.1 -0.1)">
       <use xlink:href="#DejaVuSans-54"/>
      </g>
     </g>
    </g>
    <g id="ytick_7">
     <g id="line2d_16">
      <g>
       <use style="stroke:#000000;stroke-width:0.8;" x="57.6" xlink:href="#ma7064e0642" y="89.175462"/>
      </g>
     </g>
     <g id="text_16">
      <!-- 7 -->
      <g transform="translate(44.2375 92.974681)scale(0.1 -0.1)">
       <use xlink:href="#DejaVuSans-55"/>
      </g>
     </g>
    </g>
    <g id="ytick_8">
     <g id="line2d_17">
      <g>
       <use style="stroke:#000000;stroke-width:0.8;" x="57.6" xlink:href="#ma7064e0642" y="57.110221"/>
      </g>
     </g>
     <g id="text_17">
      <!-- 8 -->
      <defs>
       <path d="M 31.78125 34.625 
Q 24.75 34.625 20.71875 30.859375 
Q 16.703125 27.09375 16.703125 20.515625 
Q 16.703125 13.921875 20.71875 10.15625 
Q 24.75 6.390625 31.78125 6.390625 
Q 38.8125 6.390625 42.859375 10.171875 
Q 46.921875 13.96875 46.921875 20.515625 
Q 46.921875 27.09375 42.890625 30.859375 
Q 38.875 34.625 31.78125 34.625 
z
M 21.921875 38.8125 
Q 15.578125 40.375 12.03125 44.71875 
Q 8.5 49.078125 8.5 55.328125 
Q 8.5 64.0625 14.71875 69.140625 
Q 20.953125 74.21875 31.78125 74.21875 
Q 42.671875 74.21875 48.875 69.140625 
Q 55.078125 64.0625 55.078125 55.328125 
Q 55.078125 49.078125 51.53125 44.71875 
Q 48 40.375 41.703125 38.8125 
Q 48.828125 37.15625 52.796875 32.3125 
Q 56.78125 27.484375 56.78125 20.515625 
Q 56.78125 9.90625 50.3125 4.234375 
Q 43.84375 -1.421875 31.78125 -1.421875 
Q 19.734375 -1.421875 13.25 4.234375 
Q 6.78125 9.90625 6.78125 20.515625 
Q 6.78125 27.484375 10.78125 32.3125 
Q 14.796875 37.15625 21.921875 38.8125 
z
M 18.3125 54.390625 
Q 18.3125 48.734375 21.84375 45.5625 
Q 25.390625 42.390625 31.78125 42.390625 
Q 38.140625 42.390625 41.71875 45.5625 
Q 45.3125 48.734375 45.3125 54.390625 
Q 45.3125 60.0625 41.71875 63.234375 
Q 38.140625 66.40625 31.78125 66.40625 
Q 25.390625 66.40625 21.84375 63.234375 
Q 18.3125 60.0625 18.3125 54.390625 
z
" id="DejaVuSans-56"/>
      </defs>
      <g transform="translate(44.2375 60.90944)scale(0.1 -0.1)">
       <use xlink:href="#DejaVuSans-56"/>
      </g>
     </g>
    </g>
   </g>
   <g id="line2d_18">
    <path clip-path="url(#pe8f4fb768e)" d="M 73.832727 278.404881 
L 77.095587 278.404881 
L 78.727017 277.471853 
L 80.358447 278.404881 
L 83.621307 278.404881 
L 85.252736 277.471853 
L 86.884166 278.404881 
L 88.515596 277.938367 
L 90.147026 278.404881 
L 98.304175 278.404881 
L 99.935605 277.938367 
L 101.567035 278.404881 
L 114.618474 278.404881 
L 116.249904 277.938367 
L 117.881334 278.404881 
L 122.775624 278.404881 
L 124.407053 277.471853 
L 126.038483 277.638528 
L 127.669913 278.404881 
L 132.564203 278.404881 
L 134.195633 277.638528 
L 135.827063 278.404881 
L 137.458492 277.471853 
L 139.089922 277.471853 
L 140.721352 278.404881 
L 142.352782 277.938367 
L 143.984212 278.404881 
L 145.615642 277.638528 
L 147.247072 278.404881 
L 153.772791 278.404881 
L 155.404221 277.471853 
L 157.035651 277.471853 
L 158.667081 278.404881 
L 163.56137 278.404881 
L 165.1928 277.471853 
L 166.82423 278.404881 
L 168.45566 278.404881 
L 170.08709 277.471853 
L 171.71852 278.404881 
L 173.34995 278.404881 
L 174.98138 277.938367 
L 176.61281 278.404881 
L 178.244239 278.404881 
L 179.875669 277.471853 
L 181.507099 278.404881 
L 186.401389 278.404881 
L 188.032819 277.471853 
L 189.664249 278.404881 
L 191.295678 278.404881 
L 192.927108 277.471853 
L 194.558538 278.404881 
L 201.084258 278.404881 
L 202.715688 278.224136 
L 205.978547 277.475801 
L 207.609977 278.619763 
L 209.241407 278.297397 
L 210.872837 278.327467 
L 212.504267 278.913676 
L 214.135697 278.435168 
L 215.767127 279.003452 
L 217.398556 278.450682 
L 219.029986 278.49139 
L 220.661416 278.1273 
L 222.292846 279.357 
L 223.924276 278.69437 
L 225.555706 278.764169 
L 227.187136 279.342708 
L 228.818566 279.752087 
L 230.449995 279.28659 
L 232.081425 279.324727 
L 233.712855 280.400194 
L 235.344285 278.373287 
L 236.975715 280.465966 
L 238.607145 280.960612 
L 240.238575 279.695703 
L 241.870005 280.631086 
L 243.501434 280.490549 
L 245.132864 281.744135 
L 246.764294 279.105535 
L 248.395724 278.674258 
L 250.027154 280.045756 
L 251.658584 278.987705 
L 254.921444 279.70107 
L 256.552873 279.789891 
L 258.184303 280.941803 
L 259.815733 281.52727 
L 261.447163 282.645996 
L 263.078593 279.343369 
L 264.710023 280.486775 
L 266.341453 281.426115 
L 267.972883 279.306709 
L 271.235742 279.216223 
L 272.867172 282.406666 
L 274.498602 281.09602 
L 276.130032 284.895813 
L 277.761462 277.085189 
L 279.392892 279.173262 
L 281.024322 279.540757 
L 282.655751 278.467923 
L 284.287181 281.347314 
L 285.918611 279.78801 
L 287.550041 280.372627 
L 289.181471 281.283913 
L 290.812901 281.437747 
L 292.444331 279.952808 
L 294.075761 281.090014 
L 295.70719 278.376893 
L 297.33862 281.064427 
L 298.97005 280.878096 
L 300.60148 281.541831 
L 302.23291 277.821178 
L 303.86434 280.69009 
L 305.49577 279.612923 
L 307.1272 280.917518 
L 308.75863 279.175025 
L 310.390059 281.755549 
L 312.021489 278.375526 
L 313.652919 279.425546 
L 315.284349 284.207922 
L 316.915779 283.092305 
L 318.547209 279.512298 
L 320.178639 279.293707 
L 321.810069 282.126649 
L 323.441498 282.532778 
L 325.072928 279.430527 
L 326.704358 282.786959 
L 328.335788 278.230491 
L 329.967218 284.446007 
L 331.598648 278.286523 
L 333.230078 277.694668 
L 334.861508 282.75461 
L 336.492937 281.076809 
L 338.124367 284.948498 
L 339.755797 282.355649 
L 341.387227 282.596356 
L 343.018657 281.062875 
L 344.650087 282.156641 
L 346.281517 279.225676 
L 347.912947 278.613786 
L 349.544376 281.556217 
L 351.175806 281.320425 
L 352.807236 280.664977 
L 354.438666 283.163352 
L 356.070096 280.66925 
L 357.701526 277.61819 
L 359.332956 282.049984 
L 360.964386 281.208746 
L 362.595815 279.972407 
L 364.227245 281.224344 
L 365.858675 280.923223 
L 367.490105 282.123225 
L 369.121535 280.550438 
L 370.752965 280.065342 
L 372.384395 282.531262 
L 374.015825 280.873183 
L 375.647254 281.484688 
L 377.278684 283.391452 
L 378.910114 278.207209 
L 380.541544 281.740616 
L 382.172974 280.315353 
L 383.804404 282.132263 
L 385.435834 280.455651 
L 387.067264 280.865326 
L 388.698693 280.712669 
L 390.330123 280.176266 
L 391.961553 280.765554 
L 393.592983 278.50772 
L 395.224413 282.849676 
L 396.855843 280.86451 
L 398.487273 280.078922 
L 398.487273 280.078922 
" style="fill:none;stroke:#1f77b4;stroke-linecap:square;stroke-width:0.25;"/>
   </g>
   <g id="line2d_19">
    <path clip-path="url(#pe8f4fb768e)" d="M 73.832727 277.535224 
L 75.464157 277.48225 
L 77.095587 277.632187 
L 78.727017 277.227016 
L 80.358447 277.494243 
L 81.989877 277.598199 
L 83.621307 277.254011 
L 85.252736 277.280661 
L 86.884166 277.522234 
L 88.515596 277.470583 
L 90.147026 277.132391 
L 93.409886 277.311315 
L 95.041316 277.278994 
L 96.672746 277.662688 
L 98.304175 277.309992 
L 99.935605 277.452592 
L 101.567035 277.051425 
L 103.198465 277.238683 
L 104.829895 277.201362 
L 106.461325 276.972127 
L 108.092755 277.650177 
L 109.724185 277.847513 
L 111.355614 277.285661 
L 114.618474 277.5139 
L 116.249904 277.215693 
L 117.881334 277.757467 
L 119.512764 277.331642 
L 121.144194 277.459586 
L 126.038483 277.375957 
L 127.669913 277.122064 
L 129.301343 277.556548 
L 130.932773 277.629524 
L 132.564203 277.399618 
L 134.195633 277.406611 
L 135.827063 277.197703 
L 139.089922 277.149711 
L 140.721352 277.550551 
L 142.352782 277.151721 
L 143.984212 277.524898 
L 145.615642 277.436269 
L 147.247072 277.459259 
L 148.878502 277.670505 
L 150.509931 277.304322 
L 152.141361 277.349633 
L 153.772791 277.607856 
L 155.404221 276.928809 
L 157.035651 276.998107 
L 158.667081 277.570209 
L 160.298511 277.643184 
L 161.929941 277.299992 
L 163.56137 277.696829 
L 165.1928 277.478246 
L 166.82423 277.122064 
L 168.45566 277.247344 
L 170.08709 277.155381 
L 171.71852 277.323309 
L 173.34995 277.137391 
L 176.61281 277.511237 
L 179.875669 277.032765 
L 181.507099 277.391284 
L 183.138529 277.189369 
L 184.769959 277.862093 
L 188.032819 277.171378 
L 191.295678 277.613526 
L 192.927108 277.077079 
L 196.189968 277.492577 
L 197.821398 277.401611 
L 205.978547 277.696041 
L 207.609977 276.428482 
L 209.241407 278.245212 
L 210.872837 277.379183 
L 212.504267 278.060993 
L 214.135697 278.292504 
L 217.398556 277.517616 
L 219.029986 276.319363 
L 220.661416 277.86797 
L 222.292846 276.922963 
L 223.924276 278.370707 
L 225.555706 277.267162 
L 227.187136 278.892994 
L 228.818566 278.609061 
L 230.449995 277.887894 
L 232.081425 278.901487 
L 233.712855 277.655862 
L 235.344285 277.418314 
L 236.975715 279.397868 
L 238.607145 280.57044 
L 240.238575 279.464256 
L 241.870005 279.734121 
L 243.501434 279.223769 
L 245.132864 279.802666 
L 246.764294 277.708029 
L 250.027154 279.170816 
L 251.658584 279.2149 
L 253.290014 279.045561 
L 254.921444 279.801067 
L 256.552873 280.074987 
L 258.184303 279.931771 
L 259.815733 280.674485 
L 261.447163 282.170353 
L 263.078593 279.542824 
L 264.710023 280.169323 
L 266.341453 280.554905 
L 267.972883 279.626654 
L 269.604312 277.126625 
L 271.235742 279.256929 
L 272.867172 281.987835 
L 274.498602 278.944606 
L 276.130032 280.304046 
L 277.761462 276.27621 
L 279.392892 278.705342 
L 281.024322 277.73965 
L 282.655751 277.397436 
L 284.287181 278.575321 
L 285.918611 279.070446 
L 289.181471 279.123185 
L 290.812901 277.572565 
L 292.444331 279.368517 
L 294.075761 280.443044 
L 295.70719 278.48436 
L 297.33862 278.173709 
L 298.97005 278.318813 
L 300.60148 280.496964 
L 302.23291 277.871177 
L 303.86434 279.611187 
L 305.49577 276.960963 
L 307.1272 280.098215 
L 308.75863 277.965373 
L 310.390059 281.237468 
L 312.021489 277.710497 
L 313.652919 279.122235 
L 315.284349 275.327321 
L 316.915779 280.525534 
L 318.547209 277.679652 
L 320.178639 279.004684 
L 321.810069 281.396341 
L 323.441498 281.079744 
L 325.072928 278.669499 
L 326.704358 281.233818 
L 328.335788 277.645513 
L 329.967218 280.687092 
L 331.598648 277.938593 
L 333.230078 277.190569 
L 334.861508 280.156471 
L 336.492937 280.077065 
L 338.124367 284.580664 
L 339.755797 280.941793 
L 341.387227 281.372301 
L 343.018657 279.788766 
L 344.650087 280.568487 
L 346.281517 279.366992 
L 347.912947 278.825438 
L 349.544376 280.854548 
L 351.175806 279.619031 
L 352.807236 280.070236 
L 354.438666 280.873959 
L 356.070096 279.373701 
L 357.701526 277.648462 
L 359.332956 280.507253 
L 360.964386 280.311773 
L 362.595815 279.509823 
L 364.227245 276.975199 
L 365.858675 277.457997 
L 367.490105 281.188851 
L 369.121535 278.391722 
L 370.752965 278.507726 
L 372.384395 281.164761 
L 374.015825 278.871941 
L 375.647254 279.621538 
L 377.278684 280.727212 
L 378.910114 277.456146 
L 380.541544 279.827251 
L 382.172974 278.361813 
L 383.804404 280.031653 
L 387.067264 278.636886 
L 388.698693 279.975278 
L 390.330123 279.158047 
L 391.961553 279.821931 
L 393.592983 278.24414 
L 395.224413 279.772813 
L 396.855843 279.90328 
L 398.487273 280.165526 
L 398.487273 280.165526 
" style="fill:none;stroke:#2ca02c;stroke-linecap:square;stroke-width:0.75;"/>
   </g>
   <g id="patch_3">
    <path d="M 57.6 307.584 
L 57.6 41.472 
" style="fill:none;stroke:#000000;stroke-linecap:square;stroke-linejoin:miter;stroke-width:0.8;"/>
   </g>
   <g id="patch_4">
    <path d="M 414.72 307.584 
L 414.72 41.472 
" style="fill:none;stroke:#000000;stroke-linecap:square;stroke-linejoin:miter;stroke-width:0.8;"/>
   </g>
   <g id="patch_5">
    <path d="M 57.6 307.584 
L 414.72 307.584 
" style="fill:none;stroke:#000000;stroke-linecap:square;stroke-linejoin:miter;stroke-width:0.8;"/>
   </g>
   <g id="patch_6">
    <path d="M 57.6 41.472 
L 414.72 41.472 
" style="fill:none;stroke:#000000;stroke-linecap:square;stroke-linejoin:miter;stroke-width:0.8;"/>
   </g>
   <g id="legend_1">
    <g id="patch_7">
     <path d="M 338.234063 78.82825 
L 407.72 78.82825 
Q 409.72 78.82825 409.72 76.82825 
L 409.72 48.472 
Q 409.72 46.472 407.72 46.472 
L 338.234063 46.472 
Q 336.234063 46.472 336.234063 48.472 
L 336.234063 76.82825 
Q 336.234063 78.82825 338.234063 78.82825 
z
" style="fill:#ffffff;opacity:0.8;stroke:#cccccc;stroke-linejoin:miter;"/>
    </g>
    <g id="line2d_20">
     <path d="M 340.234063 54.570437 
L 360.234063 54.570437 
" style="fill:none;stroke:#1f77b4;stroke-linecap:square;stroke-width:0.25;"/>
    </g>
    <g id="line2d_21"/>
    <g id="text_18">
     <!-- median -->
     <defs>
      <path d="M 52 44.1875 
Q 55.375 50.25 60.0625 53.125 
Q 64.75 56 71.09375 56 
Q 79.640625 56 84.28125 50.015625 
Q 88.921875 44.046875 88.921875 33.015625 
L 88.921875 0 
L 79.890625 0 
L 79.890625 32.71875 
Q 79.890625 40.578125 77.09375 44.375 
Q 74.3125 48.1875 68.609375 48.1875 
Q 61.625 48.1875 57.5625 43.546875 
Q 53.515625 38.921875 53.515625 30.90625 
L 53.515625 0 
L 44.484375 0 
L 44.484375 32.71875 
Q 44.484375 40.625 41.703125 44.40625 
Q 38.921875 48.1875 33.109375 48.1875 
Q 26.21875 48.1875 22.15625 43.53125 
Q 18.109375 38.875 18.109375 30.90625 
L 18.109375 0 
L 9.078125 0 
L 9.078125 54.6875 
L 18.109375 54.6875 
L 18.109375 46.1875 
Q 21.1875 51.21875 25.484375 53.609375 
Q 29.78125 56 35.6875 56 
Q 41.65625 56 45.828125 52.96875 
Q 50 49.953125 52 44.1875 
z
" id="DejaVuSans-109"/>
      <path d="M 56.203125 29.59375 
L 56.203125 25.203125 
L 14.890625 25.203125 
Q 15.484375 15.921875 20.484375 11.0625 
Q 25.484375 6.203125 34.421875 6.203125 
Q 39.59375 6.203125 44.453125 7.46875 
Q 49.3125 8.734375 54.109375 11.28125 
L 54.109375 2.78125 
Q 49.265625 0.734375 44.1875 -0.34375 
Q 39.109375 -1.421875 33.890625 -1.421875 
Q 20.796875 -1.421875 13.15625 6.1875 
Q 5.515625 13.8125 5.515625 26.8125 
Q 5.515625 40.234375 12.765625 48.109375 
Q 20.015625 56 32.328125 56 
Q 43.359375 56 49.78125 48.890625 
Q 56.203125 41.796875 56.203125 29.59375 
z
M 47.21875 32.234375 
Q 47.125 39.59375 43.09375 43.984375 
Q 39.0625 48.390625 32.421875 48.390625 
Q 24.90625 48.390625 20.390625 44.140625 
Q 15.875 39.890625 15.1875 32.171875 
z
" id="DejaVuSans-101"/>
      <path d="M 45.40625 46.390625 
L 45.40625 75.984375 
L 54.390625 75.984375 
L 54.390625 0 
L 45.40625 0 
L 45.40625 8.203125 
Q 42.578125 3.328125 38.25 0.953125 
Q 33.9375 -1.421875 27.875 -1.421875 
Q 17.96875 -1.421875 11.734375 6.484375 
Q 5.515625 14.40625 5.515625 27.296875 
Q 5.515625 40.1875 11.734375 48.09375 
Q 17.96875 56 27.875 56 
Q 33.9375 56 38.25 53.625 
Q 42.578125 51.265625 45.40625 46.390625 
z
M 14.796875 27.296875 
Q 14.796875 17.390625 18.875 11.75 
Q 22.953125 6.109375 30.078125 6.109375 
Q 37.203125 6.109375 41.296875 11.75 
Q 45.40625 17.390625 45.40625 27.296875 
Q 45.40625 37.203125 41.296875 42.84375 
Q 37.203125 48.484375 30.078125 48.484375 
Q 22.953125 48.484375 18.875 42.84375 
Q 14.796875 37.203125 14.796875 27.296875 
z
" id="DejaVuSans-100"/>
      <path d="M 9.421875 54.6875 
L 18.40625 54.6875 
L 18.40625 0 
L 9.421875 0 
z
M 9.421875 75.984375 
L 18.40625 75.984375 
L 18.40625 64.59375 
L 9.421875 64.59375 
z
" id="DejaVuSans-105"/>
      <path d="M 34.28125 27.484375 
Q 23.390625 27.484375 19.1875 25 
Q 14.984375 22.515625 14.984375 16.5 
Q 14.984375 11.71875 18.140625 8.90625 
Q 21.296875 6.109375 26.703125 6.109375 
Q 34.1875 6.109375 38.703125 11.40625 
Q 43.21875 16.703125 43.21875 25.484375 
L 43.21875 27.484375 
z
M 52.203125 31.203125 
L 52.203125 0 
L 43.21875 0 
L 43.21875 8.296875 
Q 40.140625 3.328125 35.546875 0.953125 
Q 30.953125 -1.421875 24.3125 -1.421875 
Q 15.921875 -1.421875 10.953125 3.296875 
Q 6 8.015625 6 15.921875 
Q 6 25.140625 12.171875 29.828125 
Q 18.359375 34.515625 30.609375 34.515625 
L 43.21875 34.515625 
L 43.21875 35.40625 
Q 43.21875 41.609375 39.140625 45 
Q 35.0625 48.390625 27.6875 48.390625 
Q 23 48.390625 18.546875 47.265625 
Q 14.109375 46.140625 10.015625 43.890625 
L 10.015625 52.203125 
Q 14.9375 54.109375 19.578125 55.046875 
Q 24.21875 56 28.609375 56 
Q 40.484375 56 46.34375 49.84375 
Q 52.203125 43.703125 52.203125 31.203125 
z
" id="DejaVuSans-97"/>
      <path d="M 54.890625 33.015625 
L 54.890625 0 
L 45.90625 0 
L 45.90625 32.71875 
Q 45.90625 40.484375 42.875 44.328125 
Q 39.84375 48.1875 33.796875 48.1875 
Q 26.515625 48.1875 22.3125 43.546875 
Q 18.109375 38.921875 18.109375 30.90625 
L 18.109375 0 
L 9.078125 0 
L 9.078125 54.6875 
L 18.109375 54.6875 
L 18.109375 46.1875 
Q 21.34375 51.125 25.703125 53.5625 
Q 30.078125 56 35.796875 56 
Q 45.21875 56 50.046875 50.171875 
Q 54.890625 44.34375 54.890625 33.015625 
z
" id="DejaVuSans-110"/>
     </defs>
     <g transform="translate(368.234063 58.070437)scale(0.1 -0.1)">
      <use xlink:href="#DejaVuSans-109"/>
      <use x="97.412109" xlink:href="#DejaVuSans-101"/>
      <use x="158.935547" xlink:href="#DejaVuSans-100"/>
      <use x="222.412109" xlink:href="#DejaVuSans-105"/>
      <use x="250.195312" xlink:href="#DejaVuSans-97"/>
      <use x="311.474609" xlink:href="#DejaVuSans-110"/>
     </g>
    </g>
    <g id="line2d_22">
     <path d="M 340.234063 69.248562 
L 360.234063 69.248562 
" style="fill:none;stroke:#2ca02c;stroke-linecap:square;stroke-width:0.75;"/>
    </g>
    <g id="line2d_23"/>
    <g id="text_19">
     <!-- mean -->
     <g transform="translate(368.234063 72.748562)scale(0.1 -0.1)">
      <use xlink:href="#DejaVuSans-109"/>
      <use x="97.412109" xlink:href="#DejaVuSans-101"/>
      <use x="158.935547" xlink:href="#DejaVuSans-97"/>
      <use x="220.214844" xlink:href="#DejaVuSans-110"/>
     </g>
    </g>
   </g>
  </g>
  <g id="text_20">
   <!-- log_loss.mean over generations -->
   <defs>
    <path d="M 9.421875 75.984375 
L 18.40625 75.984375 
L 18.40625 0 
L 9.421875 0 
z
" id="DejaVuSans-108"/>
    <path d="M 30.609375 48.390625 
Q 23.390625 48.390625 19.1875 42.75 
Q 14.984375 37.109375 14.984375 27.296875 
Q 14.984375 17.484375 19.15625 11.84375 
Q 23.34375 6.203125 30.609375 6.203125 
Q 37.796875 6.203125 41.984375 11.859375 
Q 46.1875 17.53125 46.1875 27.296875 
Q 46.1875 37.015625 41.984375 42.703125 
Q 37.796875 48.390625 30.609375 48.390625 
z
M 30.609375 56 
Q 42.328125 56 49.015625 48.375 
Q 55.71875 40.765625 55.71875 27.296875 
Q 55.71875 13.875 49.015625 6.21875 
Q 42.328125 -1.421875 30.609375 -1.421875 
Q 18.84375 -1.421875 12.171875 6.21875 
Q 5.515625 13.875 5.515625 27.296875 
Q 5.515625 40.765625 12.171875 48.375 
Q 18.84375 56 30.609375 56 
z
" id="DejaVuSans-111"/>
    <path d="M 45.40625 27.984375 
Q 45.40625 37.75 41.375 43.109375 
Q 37.359375 48.484375 30.078125 48.484375 
Q 22.859375 48.484375 18.828125 43.109375 
Q 14.796875 37.75 14.796875 27.984375 
Q 14.796875 18.265625 18.828125 12.890625 
Q 22.859375 7.515625 30.078125 7.515625 
Q 37.359375 7.515625 41.375 12.890625 
Q 45.40625 18.265625 45.40625 27.984375 
z
M 54.390625 6.78125 
Q 54.390625 -7.171875 48.1875 -13.984375 
Q 42 -20.796875 29.203125 -20.796875 
Q 24.46875 -20.796875 20.265625 -20.09375 
Q 16.0625 -19.390625 12.109375 -17.921875 
L 12.109375 -9.1875 
Q 16.0625 -11.328125 19.921875 -12.34375 
Q 23.78125 -13.375 27.78125 -13.375 
Q 36.625 -13.375 41.015625 -8.765625 
Q 45.40625 -4.15625 45.40625 5.171875 
L 45.40625 9.625 
Q 42.625 4.78125 38.28125 2.390625 
Q 33.9375 0 27.875 0 
Q 17.828125 0 11.671875 7.65625 
Q 5.515625 15.328125 5.515625 27.984375 
Q 5.515625 40.671875 11.671875 48.328125 
Q 17.828125 56 27.875 56 
Q 33.9375 56 38.28125 53.609375 
Q 42.625 51.21875 45.40625 46.390625 
L 45.40625 54.6875 
L 54.390625 54.6875 
z
" id="DejaVuSans-103"/>
    <path d="M 50.984375 -16.609375 
L 50.984375 -23.578125 
L -0.984375 -23.578125 
L -0.984375 -16.609375 
z
" id="DejaVuSans-95"/>
    <path d="M 44.28125 53.078125 
L 44.28125 44.578125 
Q 40.484375 46.53125 36.375 47.5 
Q 32.28125 48.484375 27.875 48.484375 
Q 21.1875 48.484375 17.84375 46.4375 
Q 14.5 44.390625 14.5 40.28125 
Q 14.5 37.15625 16.890625 35.375 
Q 19.28125 33.59375 26.515625 31.984375 
L 29.59375 31.296875 
Q 39.15625 29.25 43.1875 25.515625 
Q 47.21875 21.78125 47.21875 15.09375 
Q 47.21875 7.46875 41.1875 3.015625 
Q 35.15625 -1.421875 24.609375 -1.421875 
Q 20.21875 -1.421875 15.453125 -0.5625 
Q 10.6875 0.296875 5.421875 2 
L 5.421875 11.28125 
Q 10.40625 8.6875 15.234375 7.390625 
Q 20.0625 6.109375 24.8125 6.109375 
Q 31.15625 6.109375 34.5625 8.28125 
Q 37.984375 10.453125 37.984375 14.40625 
Q 37.984375 18.0625 35.515625 20.015625 
Q 33.0625 21.96875 24.703125 23.78125 
L 21.578125 24.515625 
Q 13.234375 26.265625 9.515625 29.90625 
Q 5.8125 33.546875 5.8125 39.890625 
Q 5.8125 47.609375 11.28125 51.796875 
Q 16.75 56 26.8125 56 
Q 31.78125 56 36.171875 55.265625 
Q 40.578125 54.546875 44.28125 53.078125 
z
" id="DejaVuSans-115"/>
    <path d="M 10.6875 12.40625 
L 21 12.40625 
L 21 0 
L 10.6875 0 
z
" id="DejaVuSans-46"/>
    <path id="DejaVuSans-32"/>
    <path d="M 2.984375 54.6875 
L 12.5 54.6875 
L 29.59375 8.796875 
L 46.6875 54.6875 
L 56.203125 54.6875 
L 35.6875 0 
L 23.484375 0 
z
" id="DejaVuSans-118"/>
    <path d="M 41.109375 46.296875 
Q 39.59375 47.171875 37.8125 47.578125 
Q 36.03125 48 33.890625 48 
Q 26.265625 48 22.1875 43.046875 
Q 18.109375 38.09375 18.109375 28.8125 
L 18.109375 0 
L 9.078125 0 
L 9.078125 54.6875 
L 18.109375 54.6875 
L 18.109375 46.1875 
Q 20.953125 51.171875 25.484375 53.578125 
Q 30.03125 56 36.53125 56 
Q 37.453125 56 38.578125 55.875 
Q 39.703125 55.765625 41.0625 55.515625 
z
" id="DejaVuSans-114"/>
    <path d="M 18.3125 70.21875 
L 18.3125 54.6875 
L 36.8125 54.6875 
L 36.8125 47.703125 
L 18.3125 47.703125 
L 18.3125 18.015625 
Q 18.3125 11.328125 20.140625 9.421875 
Q 21.96875 7.515625 27.59375 7.515625 
L 36.8125 7.515625 
L 36.8125 0 
L 27.59375 0 
Q 17.1875 0 13.234375 3.875 
Q 9.28125 7.765625 9.28125 18.015625 
L 9.28125 47.703125 
L 2.6875 47.703125 
L 2.6875 54.6875 
L 9.28125 54.6875 
L 9.28125 70.21875 
z
" id="DejaVuSans-116"/>
   </defs>
   <g transform="translate(134.789062 16.030125)scale(0.12 -0.12)">
    <use xlink:href="#DejaVuSans-108"/>
    <use x="27.783203" xlink:href="#DejaVuSans-111"/>
    <use x="88.964844" xlink:href="#DejaVuSans-103"/>
    <use x="152.441406" xlink:href="#DejaVuSans-95"/>
    <use x="202.441406" xlink:href="#DejaVuSans-108"/>
    <use x="230.224609" xlink:href="#DejaVuSans-111"/>
    <use x="291.40625" xlink:href="#DejaVuSans-115"/>
    <use x="343.505859" xlink:href="#DejaVuSans-115"/>
    <use x="395.605469" xlink:href="#DejaVuSans-46"/>
    <use x="427.392578" xlink:href="#DejaVuSans-109"/>
    <use x="524.804688" xlink:href="#DejaVuSans-101"/>
    <use x="586.328125" xlink:href="#DejaVuSans-97"/>
    <use x="647.607422" xlink:href="#DejaVuSans-110"/>
    <use x="710.986328" xlink:href="#DejaVuSans-32"/>
    <use x="742.773438" xlink:href="#DejaVuSans-111"/>
    <use x="803.955078" xlink:href="#DejaVuSans-118"/>
    <use x="863.134766" xlink:href="#DejaVuSans-101"/>
    <use x="924.658203" xlink:href="#DejaVuSans-114"/>
    <use x="965.771484" xlink:href="#DejaVuSans-32"/>
    <use x="997.558594" xlink:href="#DejaVuSans-103"/>
    <use x="1061.035156" xlink:href="#DejaVuSans-101"/>
    <use x="1122.558594" xlink:href="#DejaVuSans-110"/>
    <use x="1185.9375" xlink:href="#DejaVuSans-101"/>
    <use x="1247.460938" xlink:href="#DejaVuSans-114"/>
    <use x="1288.574219" xlink:href="#DejaVuSans-97"/>
    <use x="1349.853516" xlink:href="#DejaVuSans-116"/>
    <use x="1389.0625" xlink:href="#DejaVuSans-105"/>
    <use x="1416.845703" xlink:href="#DejaVuSans-111"/>
    <use x="1478.027344" xlink:href="#DejaVuSans-110"/>
    <use x="1541.40625" xlink:href="#DejaVuSans-115"/>
   </g>
  </g>
 </g>
 <defs>
  <clipPath id="pe8f4fb768e">
   <rect height="266.112" width="357.12" x="57.6" y="41.472"/>
  </clipPath>
 </defs>
</svg>
