<?xml version="1.0" encoding="utf-8" standalone="no"?>
<!DOCTYPE svg PUBLIC "-//W3C//DTD SVG 1.1//EN"
  "http://www.w3.org/Graphics/SVG/1.1/DTD/svg11.dtd">
<!-- Created with matplotlib (https://matplotlib.org/) -->
<svg height="345.6pt" version="1.1" viewBox="0 0 460.8 345.6" width="460.8pt" xmlns="http://www.w3.org/2000/svg" xmlns:xlink="http://www.w3.org/1999/xlink">
 <defs>
  <style type="text/css">
*{stroke-linecap:butt;stroke-linejoin:round;}
  </style>
 </defs>
 <g id="figure_1">
  <g id="patch_1">
   <path d="M 0 345.6 
L 460.8 345.6 
L 460.8 0 
L 0 0 
z
" style="fill:#ffffff;"/>
  </g>
  <g id="axes_1">
   <g id="patch_2">
    <path clip-path="url(#pfe44827da7)" d="M 88.589752 111.606597 
Q 136.018971 115.486005 183.448191 119.365413 
" style="fill:none;stroke:#000000;stroke-linecap:round;stroke-opacity:0.9;stroke-width:0.4;"/>
   </g>
   <g id="patch_3">
    <path clip-path="url(#pfe44827da7)" d="M 88.589752 111.606597 
Q 185.275105 140.125976 281.960458 168.645354 
" style="fill:none;stroke:#000000;stroke-linecap:round;stroke-opacity:0.9;stroke-width:0.4;"/>
   </g>
   <g id="patch_4">
    <path clip-path="url(#pfe44827da7)" d="M 88.589752 169.645195 
Q 136.205116 193.840867 183.820479 218.036539 
" style="fill:none;stroke:#000000;stroke-linecap:round;stroke-opacity:0.9;stroke-width:0.4;"/>
   </g>
   <g id="patch_5">
    <path clip-path="url(#pfe44827da7)" d="M 88.589752 227.683792 
Q 136.018971 223.804384 183.448191 219.924976 
" style="fill:none;stroke:#000000;stroke-linecap:round;stroke-opacity:0.9;stroke-width:0.4;"/>
   </g>
   <g id="patch_6">
    <path clip-path="url(#pfe44827da7)" d="M 88.589752 227.683792 
Q 185.212056 238.09263 281.834361 248.501469 
" style="fill:none;stroke:#000000;stroke-linecap:round;stroke-opacity:0.9;stroke-width:0.4;"/>
   </g>
   <g id="patch_7">
    <path clip-path="url(#pfe44827da7)" d="M 88.589752 285.72239 
Q 185.446238 228.582675 282.302723 171.44296 
" style="fill:none;stroke:#000000;stroke-linecap:round;stroke-opacity:0.9;stroke-width:0.4;"/>
   </g>
   <g id="patch_8">
    <path clip-path="url(#pfe44827da7)" d="M 186.969917 219.636922 
Q 234.585281 195.441249 282.200644 171.245577 
" style="fill:none;stroke:#000000;stroke-linecap:round;stroke-opacity:0.9;stroke-width:0.4;"/>
   </g>
   <g id="patch_9">
    <path clip-path="url(#pfe44827da7)" d="M 186.969917 219.636922 
Q 235.089671 156.429477 283.209425 93.222032 
" style="fill:none;stroke:#000000;stroke-linecap:round;stroke-opacity:0.9;stroke-width:0.4;"/>
   </g>
   <g id="patch_10">
    <path clip-path="url(#pfe44827da7)" d="M 186.969917 219.636922 
Q 283.871438 155.994685 380.772958 92.352448 
" style="fill:none;stroke:#000000;stroke-linecap:round;stroke-opacity:0.9;stroke-width:0.4;"/>
   </g>
   <g id="patch_11">
    <path clip-path="url(#pfe44827da7)" d="M 186.969917 219.636922 
Q 283.637257 195.076243 380.304596 170.515565 
" style="fill:none;stroke:#000000;stroke-linecap:round;stroke-opacity:0.9;stroke-width:0.4;"/>
   </g>
   <g id="patch_12">
    <path clip-path="url(#pfe44827da7)" d="M 186.969917 119.653468 
Q 235.089671 182.860913 283.209425 246.068358 
" style="fill:none;stroke:#000000;stroke-linecap:round;stroke-opacity:0.9;stroke-width:0.4;"/>
   </g>
   <g id="patch_13">
    <path clip-path="url(#pfe44827da7)" d="M 186.969917 119.653468 
Q 283.601229 105.291747 380.23254 90.930026 
" style="fill:none;stroke:#000000;stroke-linecap:round;stroke-opacity:0.9;stroke-width:0.4;"/>
   </g>
   <g id="patch_14">
    <path clip-path="url(#pfe44827da7)" d="M 285.350083 169.645195 
Q 333.1636 131.13637 380.977116 92.627544 
" style="fill:none;stroke:#000000;stroke-linecap:round;stroke-opacity:0.9;stroke-width:0.4;"/>
   </g>
   <g id="patch_15">
    <path clip-path="url(#pfe44827da7)" d="M 285.350083 248.880207 
Q 332.773297 248.880207 380.196512 248.880207 
" style="fill:none;stroke:#000000;stroke-linecap:round;stroke-opacity:0.9;stroke-width:0.4;"/>
   </g>
   <g id="patch_16">
    <path clip-path="url(#pfe44827da7)" d="M 285.350083 90.410183 
Q 332.773297 90.410183 380.196512 90.410183 
" style="fill:none;stroke:#000000;stroke-linecap:round;stroke-opacity:0.9;stroke-width:0.4;"/>
   </g>
   <g id="patch_17">
    <path clip-path="url(#pfe44827da7)" d="M 285.350083 90.410183 
Q 333.607193 168.14237 381.864303 245.874558 
" style="fill:none;stroke:#000000;stroke-linecap:round;stroke-opacity:0.9;stroke-width:0.4;"/>
   </g>
   <g id="PathCollection_1">
    <defs>
     <path d="M 0 3.535534 
C 0.937635 3.535534 1.836992 3.163008 2.5 2.5 
C 3.163008 1.836992 3.535534 0.937635 3.535534 0 
C 3.535534 -0.937635 3.163008 -1.836992 2.5 -2.5 
C 1.836992 -3.163008 0.937635 -3.535534 0 -3.535534 
C -0.937635 -3.535534 -1.836992 -3.163008 -2.5 -2.5 
C -3.163008 -1.836992 -3.535534 -0.937635 -3.535534 0 
C -3.535534 0.937635 -3.163008 1.836992 -2.5 2.5 
C -1.836992 3.163008 -0.937635 3.535534 0 3.535534 
z
" id="C0_0_426fc168fe"/>
    </defs>
    <g clip-path="url(#pfe44827da7)">
     <use style="fill:#fdb462;fill-opacity:0.9;" x="88.589752" xlink:href="#C0_0_426fc168fe" y="53.568"/>
    </g>
    <g clip-path="url(#pfe44827da7)">
     <use style="fill:#fdb462;fill-opacity:0.9;" x="88.589752" xlink:href="#C0_0_426fc168fe" y="111.606597"/>
    </g>
    <g clip-path="url(#pfe44827da7)">
     <use style="fill:#fdb462;fill-opacity:0.9;" x="88.589752" xlink:href="#C0_0_426fc168fe" y="169.645195"/>
    </g>
    <g clip-path="url(#pfe44827da7)">
     <use style="fill:#fdb462;fill-opacity:0.9;" x="88.589752" xlink:href="#C0_0_426fc168fe" y="227.683792"/>
    </g>
    <g clip-path="url(#pfe44827da7)">
     <use style="fill:#ffed6f;fill-opacity:0.9;" x="88.589752" xlink:href="#C0_0_426fc168fe" y="285.72239"/>
    </g>
    <g clip-path="url(#pfe44827da7)">
     <use style="fill:#80b1d3;fill-opacity:0.9;" x="186.969917" xlink:href="#C0_0_426fc168fe" y="219.636922"/>
    </g>
    <g clip-path="url(#pfe44827da7)">
     <use style="fill:#80b1d3;fill-opacity:0.9;" x="186.969917" xlink:href="#C0_0_426fc168fe" y="119.653468"/>
    </g>
    <g clip-path="url(#pfe44827da7)">
     <use style="fill:#80b1d3;fill-opacity:0.9;" x="285.350083" xlink:href="#C0_0_426fc168fe" y="169.645195"/>
    </g>
    <g clip-path="url(#pfe44827da7)">
     <use style="fill:#80b1d3;fill-opacity:0.9;" x="285.350083" xlink:href="#C0_0_426fc168fe" y="248.880207"/>
    </g>
    <g clip-path="url(#pfe44827da7)">
     <use style="fill:#80b1d3;fill-opacity:0.9;" x="285.350083" xlink:href="#C0_0_426fc168fe" y="90.410183"/>
    </g>
    <g clip-path="url(#pfe44827da7)">
     <use style="fill:#b3de69;fill-opacity:0.9;" x="383.730248" xlink:href="#C0_0_426fc168fe" y="90.410183"/>
    </g>
    <g clip-path="url(#pfe44827da7)">
     <use style="fill:#b3de69;fill-opacity:0.9;" x="383.730248" xlink:href="#C0_0_426fc168fe" y="169.645195"/>
    </g>
    <g clip-path="url(#pfe44827da7)">
     <use style="fill:#b3de69;fill-opacity:0.9;" x="383.730248" xlink:href="#C0_0_426fc168fe" y="248.880207"/>
    </g>
   </g>
  </g>
 </g>
 <defs>
  <clipPath id="pfe44827da7">
   <rect height="266.112" width="357.12" x="57.6" y="41.472"/>
  </clipPath>
 </defs>
</svg>
