<?xml version="1.0" encoding="utf-8" standalone="no"?>
<!DOCTYPE svg PUBLIC "-//W3C//DTD SVG 1.1//EN"
  "http://www.w3.org/Graphics/SVG/1.1/DTD/svg11.dtd">
<!-- Created with matplotlib (https://matplotlib.org/) -->
<svg height="345.6pt" version="1.1" viewBox="0 0 460.8 345.6" width="460.8pt" xmlns="http://www.w3.org/2000/svg" xmlns:xlink="http://www.w3.org/1999/xlink">
 <defs>
  <style type="text/css">
*{stroke-linecap:butt;stroke-linejoin:round;}
  </style>
 </defs>
 <g id="figure_1">
  <g id="patch_1">
   <path d="M 0 345.6 
L 460.8 345.6 
L 460.8 0 
L 0 0 
z
" style="fill:#ffffff;"/>
  </g>
  <g id="axes_1">
   <g id="patch_2">
    <path d="M 57.6 307.584 
L 414.72 307.584 
L 414.72 41.472 
L 57.6 41.472 
z
" style="fill:#ffffff;"/>
   </g>
   <g id="PolyCollection_1">
    <path clip-path="url(#pce30c5b5b2)" d="M 73.832727 210.782118 
L 73.832727 210.782118 
L 75.464157 210.782118 
L 77.095587 210.782118 
L 78.727017 210.782118 
L 80.358447 210.782118 
L 81.989877 210.782118 
L 83.621307 210.782118 
L 85.252736 210.782118 
L 86.884166 210.782118 
L 88.515596 210.782118 
L 90.147026 210.782118 
L 91.778456 210.782118 
L 93.409886 210.782118 
L 95.041316 210.782118 
L 96.672746 210.782118 
L 98.304175 210.782118 
L 99.935605 210.782118 
L 101.567035 210.782118 
L 103.198465 210.782118 
L 104.829895 210.782118 
L 106.461325 210.782118 
L 108.092755 210.782118 
L 109.724185 210.782118 
L 111.355614 210.782118 
L 112.987044 210.782118 
L 114.618474 210.782118 
L 116.249904 210.782118 
L 117.881334 210.782118 
L 119.512764 210.782118 
L 121.144194 210.782118 
L 122.775624 210.782118 
L 124.407053 210.782118 
L 126.038483 210.782118 
L 127.669913 210.782118 
L 129.301343 210.782118 
L 130.932773 210.782118 
L 132.564203 210.782118 
L 134.195633 210.782118 
L 135.827063 210.782118 
L 137.458492 210.782118 
L 139.089922 210.782118 
L 140.721352 210.782118 
L 142.352782 210.782118 
L 143.984212 210.782118 
L 145.615642 210.782118 
L 147.247072 210.782118 
L 148.878502 210.782118 
L 150.509931 210.782118 
L 152.141361 210.782118 
L 153.772791 210.782118 
L 155.404221 210.782118 
L 157.035651 210.782118 
L 158.667081 210.782118 
L 160.298511 210.782118 
L 161.929941 210.782118 
L 163.56137 210.782118 
L 165.1928 210.782118 
L 166.82423 210.782118 
L 168.45566 210.782118 
L 170.08709 210.782118 
L 171.71852 210.782118 
L 173.34995 210.782118 
L 174.98138 210.782118 
L 176.61281 210.782118 
L 178.244239 210.782118 
L 179.875669 210.782118 
L 181.507099 210.782118 
L 183.138529 210.782118 
L 184.769959 210.782118 
L 186.401389 210.782118 
L 188.032819 210.782118 
L 189.664249 210.782118 
L 191.295678 210.782118 
L 192.927108 210.782118 
L 194.558538 210.782118 
L 196.189968 210.782118 
L 197.821398 210.782118 
L 199.452828 210.782118 
L 201.084258 210.782118 
L 202.715688 210.782118 
L 204.347117 210.782118 
L 205.978547 210.782118 
L 207.609977 210.782118 
L 209.241407 210.782118 
L 210.872837 210.782118 
L 212.504267 210.782118 
L 214.135697 210.782118 
L 215.767127 209.765647 
L 217.398556 194.518588 
L 219.029986 210.782118 
L 220.661416 196.212706 
L 222.292846 210.782118 
L 223.924276 210.782118 
L 225.555706 210.782118 
L 227.187136 210.782118 
L 228.818566 210.782118 
L 230.449995 210.782118 
L 232.081425 210.782118 
L 233.712855 199.262118 
L 235.344285 203.582118 
L 236.975715 210.782118 
L 238.607145 210.782118 
L 240.238575 199.346824 
L 241.870005 197.568 
L 243.501434 210.782118 
L 245.132864 209.426824 
L 246.764294 210.782118 
L 248.395724 200.730353 
L 250.027154 210.782118 
L 251.658584 189.92907 
L 253.290014 193.840941 
L 254.921444 194.891294 
L 256.552873 184.015059 
L 258.184303 203.243294 
L 259.815733 209.088 
L 261.447163 210.782118 
L 263.078593 210.782118 
L 264.710023 210.782118 
L 266.341453 210.782118 
L 267.972883 195.873882 
L 269.604312 186.725647 
L 271.235742 196.890353 
L 272.867172 210.443294 
L 274.498602 197.059765 
L 276.130032 210.019765 
L 277.761462 205.699765 
L 279.392892 210.782118 
L 281.024322 202.396235 
L 282.655751 210.782118 
L 284.287181 181.982118 
L 285.918611 210.443294 
L 287.550041 185.455059 
L 289.181471 189.02357 
L 290.812901 196.212706 
L 292.444331 199.092706 
L 294.075761 207.478588 
L 295.70719 188.51702 
L 297.33862 190.798895 
L 298.97005 188.758588 
L 300.60148 195.196235 
L 302.23291 209.088 
L 303.86434 193.840941 
L 305.49577 197.568 
L 307.1272 196.636235 
L 308.75863 193.514218 
L 310.390059 204.598588 
L 312.021489 171.986824 
L 313.652919 172.156235 
L 315.284349 190.876235 
L 316.915779 184.353882 
L 318.547209 197.568 
L 320.178639 210.782118 
L 321.810069 199.262118 
L 323.441498 184.353882 
L 325.072928 203.158588 
L 326.704358 196.890353 
L 328.335788 190.31644 
L 329.967218 192.485647 
L 331.598648 198.923294 
L 333.230078 204.344471 
L 334.861508 196.043294 
L 336.492937 186.048 
L 338.124367 196.413882 
L 339.755797 195.535059 
L 341.387227 176.052706 
L 343.018657 180.288 
L 344.650087 182.829176 
L 346.281517 210.443294 
L 347.912947 205.699765 
L 349.544376 205.699765 
L 351.175806 204.090353 
L 352.807236 183.036706 
L 354.438666 195.196235 
L 356.070096 194.603294 
L 357.701526 196.890353 
L 359.332956 210.782118 
L 360.964386 199.262118 
L 362.595815 198.415059 
L 364.227245 192.909176 
L 365.858675 204.683294 
L 367.490105 186.810353 
L 369.121535 190.622118 
L 370.752965 207.732706 
L 372.384395 191.469176 
L 374.015825 192.485647 
L 375.647254 207.393882 
L 377.278684 187.657412 
L 378.910114 181.859765 
L 380.541544 179.644235 
L 382.172974 179.695059 
L 383.804404 200.871529 
L 385.435834 195.873882 
L 387.067264 192.146824 
L 388.698693 169.445647 
L 390.330123 186.800188 
L 391.961553 195.873882 
L 393.592983 180.965647 
L 395.224413 179.949176 
L 396.855843 188.743857 
L 398.487273 196.297412 
L 398.487273 156.193412 
L 398.487273 156.193412 
L 396.855843 126.503615 
L 395.224413 75.930353 
L 393.592983 75.930353 
L 391.961553 126.076235 
L 390.330123 162.330353 
L 388.698693 157.078588 
L 387.067264 138.916008 
L 385.435834 71.598252 
L 383.804404 126.076235 
L 382.172974 83.130353 
L 380.541544 60.683294 
L 378.910114 58.242958 
L 377.278684 69.492706 
L 375.647254 185.398588 
L 374.015825 154.537412 
L 372.384395 69.492706 
L 370.752965 184.249366 
L 369.121535 91.346824 
L 367.490105 158.264471 
L 365.858675 126.330353 
L 364.227245 168.768 
L 362.595815 76.791074 
L 360.964386 60.852706 
L 359.332956 171.817412 
L 357.701526 139.968 
L 356.070096 77.273098 
L 354.438666 166.057412 
L 352.807236 59.243294 
L 351.175806 126.076235 
L 349.544376 126.076235 
L 347.912947 145.558588 
L 346.281517 184.891581 
L 344.650087 139.629176 
L 343.018657 125.398588 
L 341.387227 137.257412 
L 339.755797 167.158588 
L 338.124367 171.478588 
L 336.492937 77.624471 
L 334.861508 184.269176 
L 333.230078 161.652706 
L 331.598648 59.988706 
L 329.967218 132.090353 
L 328.335788 172.020706 
L 326.704358 180.118588 
L 325.072928 126.693378 
L 323.441498 157.248 
L 321.810069 153.605647 
L 320.178639 139.629176 
L 318.547209 161.652706 
L 316.915779 134.123294 
L 315.284349 126.076235 
L 313.652919 147.252706 
L 312.021489 125.906824 
L 310.390059 176.350637 
L 308.75863 175.865143 
L 307.1272 159.870494 
L 305.49577 174.273882 
L 303.86434 158.809535 
L 302.23291 161.521797 
L 300.60148 179.393064 
L 298.97005 162.190588 
L 297.33862 160.975059 
L 295.70719 154.876235 
L 294.075761 180.139765 
L 292.444331 167.751529 
L 290.812901 178.593882 
L 289.181471 139.290353 
L 287.550041 156.520299 
L 285.918611 161.652706 
L 284.287181 127.571963 
L 282.655751 167.412706 
L 281.024322 173.850353 
L 279.392892 172.240941 
L 277.761462 179.587548 
L 276.130032 161.652706 
L 274.498602 156.570353 
L 272.867172 161.652706 
L 271.235742 153.573882 
L 269.604312 159.789176 
L 267.972883 158.603294 
L 266.341453 161.178353 
L 264.710023 167.751529 
L 263.078593 167.751529 
L 261.447163 171.478588 
L 259.815733 162.330353 
L 258.184303 174.528 
L 256.552873 167.497412 
L 254.921444 164.024471 
L 253.290014 167.751529 
L 251.658584 164.363294 
L 250.027154 205.699765 
L 248.395724 169.106824 
L 246.764294 209.088 
L 245.132864 169.699765 
L 243.501434 181.982118 
L 241.870005 176.899765 
L 240.238575 178.593882 
L 238.607145 183.676235 
L 236.975715 209.088 
L 235.344285 171.817412 
L 233.712855 190.186487 
L 232.081425 176.222118 
L 230.449995 183.676235 
L 228.818566 197.568 
L 227.187136 178.932706 
L 225.555706 204.005647 
L 223.924276 205.699765 
L 222.292846 207.393882 
L 220.661416 148.608 
L 219.029986 130.771361 
L 217.398556 150.810353 
L 215.767127 176.984471 
L 214.135697 199.262118 
L 212.504267 206.665412 
L 210.872837 210.782118 
L 209.241407 210.782118 
L 207.609977 210.782118 
L 205.978547 210.782118 
L 204.347117 210.782118 
L 202.715688 210.782118 
L 201.084258 210.782118 
L 199.452828 210.782118 
L 197.821398 210.782118 
L 196.189968 210.782118 
L 194.558538 210.782118 
L 192.927108 210.782118 
L 191.295678 210.782118 
L 189.664249 210.782118 
L 188.032819 210.782118 
L 186.401389 210.782118 
L 184.769959 210.782118 
L 183.138529 210.782118 
L 181.507099 210.782118 
L 179.875669 210.782118 
L 178.244239 210.782118 
L 176.61281 210.782118 
L 174.98138 210.782118 
L 173.34995 210.782118 
L 171.71852 210.782118 
L 170.08709 210.782118 
L 168.45566 210.782118 
L 166.82423 210.782118 
L 165.1928 210.782118 
L 163.56137 210.782118 
L 161.929941 210.782118 
L 160.298511 210.782118 
L 158.667081 210.782118 
L 157.035651 210.782118 
L 155.404221 210.782118 
L 153.772791 210.782118 
L 152.141361 210.782118 
L 150.509931 210.782118 
L 148.878502 210.782118 
L 147.247072 210.782118 
L 145.615642 210.782118 
L 143.984212 210.782118 
L 142.352782 210.782118 
L 140.721352 210.782118 
L 139.089922 210.782118 
L 137.458492 210.782118 
L 135.827063 210.782118 
L 134.195633 210.782118 
L 132.564203 210.782118 
L 130.932773 210.782118 
L 129.301343 210.782118 
L 127.669913 210.782118 
L 126.038483 210.782118 
L 124.407053 210.782118 
L 122.775624 210.782118 
L 121.144194 210.782118 
L 119.512764 210.782118 
L 117.881334 210.782118 
L 116.249904 210.782118 
L 114.618474 210.782118 
L 112.987044 210.782118 
L 111.355614 210.782118 
L 109.724185 210.782118 
L 108.092755 210.782118 
L 106.461325 210.782118 
L 104.829895 210.782118 
L 103.198465 210.782118 
L 101.567035 210.782118 
L 99.935605 210.782118 
L 98.304175 210.782118 
L 96.672746 210.782118 
L 95.041316 210.782118 
L 93.409886 210.782118 
L 91.778456 210.782118 
L 90.147026 210.782118 
L 88.515596 210.782118 
L 86.884166 210.782118 
L 85.252736 210.782118 
L 83.621307 210.782118 
L 81.989877 210.782118 
L 80.358447 210.782118 
L 78.727017 210.782118 
L 77.095587 210.782118 
L 75.464157 210.782118 
L 73.832727 210.782118 
z
" style="fill:#1f77b4;fill-opacity:0.2;"/>
   </g>
   <g id="PolyCollection_2">
    <path clip-path="url(#pce30c5b5b2)" d="M 73.832727 210.782118 
L 73.832727 210.782118 
L 75.464157 210.782118 
L 77.095587 210.782118 
L 78.727017 210.782118 
L 80.358447 210.782118 
L 81.989877 210.782118 
L 83.621307 210.782118 
L 85.252736 210.782118 
L 86.884166 210.782118 
L 88.515596 210.782118 
L 90.147026 210.782118 
L 91.778456 210.782118 
L 93.409886 210.782118 
L 95.041316 210.782118 
L 96.672746 210.782118 
L 98.304175 210.782118 
L 99.935605 210.782118 
L 101.567035 210.782118 
L 103.198465 210.782118 
L 104.829895 210.782118 
L 106.461325 210.782118 
L 108.092755 210.782118 
L 109.724185 210.782118 
L 111.355614 210.782118 
L 112.987044 210.782118 
L 114.618474 210.782118 
L 116.249904 210.782118 
L 117.881334 210.782118 
L 119.512764 210.782118 
L 121.144194 210.782118 
L 122.775624 210.782118 
L 124.407053 210.782118 
L 126.038483 210.782118 
L 127.669913 210.782118 
L 129.301343 210.782118 
L 130.932773 210.782118 
L 132.564203 210.782118 
L 134.195633 210.782118 
L 135.827063 210.782118 
L 137.458492 210.782118 
L 139.089922 210.782118 
L 140.721352 210.782118 
L 142.352782 210.782118 
L 143.984212 210.782118 
L 145.615642 210.782118 
L 147.247072 210.782118 
L 148.878502 210.782118 
L 150.509931 210.782118 
L 152.141361 210.782118 
L 153.772791 210.782118 
L 155.404221 210.782118 
L 157.035651 210.782118 
L 158.667081 210.782118 
L 160.298511 210.782118 
L 161.929941 210.782118 
L 163.56137 210.782118 
L 165.1928 210.782118 
L 166.82423 210.782118 
L 168.45566 210.782118 
L 170.08709 210.782118 
L 171.71852 210.782118 
L 173.34995 210.782118 
L 174.98138 210.782118 
L 176.61281 210.782118 
L 178.244239 210.782118 
L 179.875669 210.782118 
L 181.507099 210.782118 
L 183.138529 210.782118 
L 184.769959 210.782118 
L 186.401389 210.782118 
L 188.032819 210.782118 
L 189.664249 210.782118 
L 191.295678 210.782118 
L 192.927108 210.782118 
L 194.558538 210.782118 
L 196.189968 210.782118 
L 197.821398 210.782118 
L 199.452828 210.782118 
L 201.084258 210.782118 
L 202.715688 210.782118 
L 204.347117 210.782118 
L 205.978547 244.664471 
L 207.609977 278.546824 
L 209.241407 278.208 
L 210.872837 225.690353 
L 212.504267 226.706824 
L 214.135697 248.052706 
L 215.767127 227.384471 
L 217.398556 222.302118 
L 219.029986 246.019765 
L 220.661416 225.012706 
L 222.292846 210.782118 
L 223.924276 210.782118 
L 225.555706 210.782118 
L 227.187136 210.782118 
L 228.818566 210.782118 
L 230.449995 210.782118 
L 232.081425 210.782118 
L 233.712855 212.137412 
L 235.344285 214.509176 
L 236.975715 210.782118 
L 238.607145 210.782118 
L 240.238575 213.831529 
L 241.870005 210.782118 
L 243.501434 239.920941 
L 245.132864 253.135059 
L 246.764294 210.782118 
L 248.395724 264.993882 
L 250.027154 243.648 
L 251.658584 210.782118 
L 253.290014 210.782118 
L 254.921444 210.782118 
L 256.552873 210.782118 
L 258.184303 210.782118 
L 259.815733 215.864471 
L 261.447163 210.782118 
L 263.078593 210.782118 
L 264.710023 210.782118 
L 266.341453 210.782118 
L 267.972883 211.798588 
L 269.604312 228.739765 
L 271.235742 210.782118 
L 272.867172 210.782118 
L 274.498602 210.782118 
L 276.130032 215.525647 
L 277.761462 235.516235 
L 279.392892 210.782118 
L 281.024322 210.782118 
L 282.655751 210.782118 
L 284.287181 228.400941 
L 285.918611 210.782118 
L 287.550041 214.509176 
L 289.181471 264.655059 
L 290.812901 227.723294 
L 292.444331 225.012706 
L 294.075761 226.029176 
L 295.70719 210.782118 
L 297.33862 263.977412 
L 298.97005 240.598588 
L 300.60148 295.149176 
L 302.23291 210.782118 
L 303.86434 233.822118 
L 305.49577 210.782118 
L 307.1272 216.203294 
L 308.75863 214.509176 
L 310.390059 227.723294 
L 312.021489 277.530353 
L 313.652919 219.252706 
L 315.284349 295.488 
L 316.915779 295.488 
L 318.547209 223.996235 
L 320.178639 295.488 
L 321.810069 214.509176 
L 323.441498 210.782118 
L 325.072928 278.546824 
L 326.704358 210.782118 
L 328.335788 211.120941 
L 329.967218 214.170353 
L 331.598648 210.782118 
L 333.230078 210.782118 
L 334.861508 210.782118 
L 336.492937 210.782118 
L 338.124367 295.488 
L 339.755797 227.723294 
L 341.387227 210.782118 
L 343.018657 219.930353 
L 344.650087 210.782118 
L 346.281517 210.782118 
L 347.912947 210.782118 
L 349.544376 239.582118 
L 351.175806 210.782118 
L 352.807236 216.542118 
L 354.438666 230.772706 
L 356.070096 292.438588 
L 357.701526 222.640941 
L 359.332956 210.782118 
L 360.964386 219.252706 
L 362.595815 210.782118 
L 364.227245 239.582118 
L 365.858675 232.805647 
L 367.490105 219.252706 
L 369.121535 210.782118 
L 370.752965 210.782118 
L 372.384395 246.697412 
L 374.015825 210.782118 
L 375.647254 294.810353 
L 377.278684 210.782118 
L 378.910114 210.782118 
L 380.541544 210.782118 
L 382.172974 210.782118 
L 383.804404 295.149176 
L 385.435834 224.335059 
L 387.067264 210.782118 
L 388.698693 210.782118 
L 390.330123 261.605647 
L 391.961553 210.782118 
L 393.592983 238.904471 
L 395.224413 210.782118 
L 396.855843 210.782118 
L 398.487273 210.782118 
L 398.487273 54.923294 
L 398.487273 54.923294 
L 396.855843 58.650353 
L 395.224413 55.262118 
L 393.592983 54.245647 
L 391.961553 54.245647 
L 390.330123 56.956235 
L 388.698693 55.262118 
L 387.067264 58.711957 
L 385.435834 54.923294 
L 383.804404 54.923294 
L 382.172974 55.229849 
L 380.541544 54.245647 
L 378.910114 54.245647 
L 377.278684 54.923294 
L 375.647254 54.923294 
L 374.015825 54.923294 
L 372.384395 56.617412 
L 370.752965 54.584471 
L 369.121535 54.923294 
L 367.490105 57.754891 
L 365.858675 53.568 
L 364.227245 57.790262 
L 362.595815 56.811025 
L 360.964386 54.923294 
L 359.332956 54.923294 
L 357.701526 57.433668 
L 356.070096 54.923294 
L 354.438666 54.923294 
L 352.807236 54.923294 
L 351.175806 54.245647 
L 349.544376 54.923294 
L 347.912947 54.923294 
L 346.281517 54.923294 
L 344.650087 54.923294 
L 343.018657 61.881277 
L 341.387227 54.923294 
L 339.755797 60.227186 
L 338.124367 54.923294 
L 336.492937 54.923294 
L 334.861508 54.923294 
L 333.230078 54.245647 
L 331.598648 54.923294 
L 329.967218 54.923294 
L 328.335788 54.245647 
L 326.704358 63.50169 
L 325.072928 54.245647 
L 323.441498 54.923294 
L 321.810069 63.329345 
L 320.178639 54.923294 
L 318.547209 54.923294 
L 316.915779 54.923294 
L 315.284349 53.568 
L 313.652919 55.939765 
L 312.021489 56.617412 
L 310.390059 60.005647 
L 308.75863 63.809711 
L 307.1272 63.474555 
L 305.49577 55.262118 
L 303.86434 62.58716 
L 302.23291 54.923294 
L 300.60148 55.262118 
L 298.97005 64.918588 
L 297.33862 64.297412 
L 295.70719 63.427765 
L 294.075761 62.733176 
L 292.444331 63.376941 
L 290.812901 68.750521 
L 289.181471 67.781647 
L 287.550041 79.589647 
L 285.918611 76.946824 
L 284.287181 85.925647 
L 282.655751 116.589176 
L 281.024322 126.913882 
L 279.392892 126.937815 
L 277.761462 126.93326 
L 276.130032 78.640941 
L 274.498602 126.076235 
L 272.867172 114.556235 
L 271.235742 78.302118 
L 269.604312 126.964187 
L 267.972883 123.365647 
L 266.341453 110.829176 
L 264.710023 94.904471 
L 263.078593 84.739765 
L 261.447163 126.923294 
L 259.815733 81.690353 
L 258.184303 126.923294 
L 256.552873 114.556235 
L 254.921444 90.160941 
L 253.290014 92.532706 
L 251.658584 127.431529 
L 250.027154 127.366992 
L 248.395724 127.431529 
L 246.764294 126.076235 
L 245.132864 164.363294 
L 243.501434 181.982118 
L 241.870005 165.379765 
L 240.238575 173.511529 
L 238.607145 183.676235 
L 236.975715 187.112874 
L 235.344285 168.429176 
L 233.712855 174.189176 
L 232.081425 176.222118 
L 230.449995 183.614631 
L 228.818566 183.611697 
L 227.187136 178.932706 
L 225.555706 189.568818 
L 223.924276 188.912599 
L 222.292846 188.11321 
L 220.661416 126.076235 
L 219.029986 126.076235 
L 217.398556 126.076235 
L 215.767127 126.415059 
L 214.135697 129.295059 
L 212.504267 178.255059 
L 210.872837 178.932706 
L 209.241407 198.906353 
L 207.609977 198.923294 
L 205.978547 210.782118 
L 204.347117 210.782118 
L 202.715688 210.782118 
L 201.084258 210.782118 
L 199.452828 210.782118 
L 197.821398 210.782118 
L 196.189968 210.782118 
L 194.558538 210.782118 
L 192.927108 210.782118 
L 191.295678 210.782118 
L 189.664249 210.782118 
L 188.032819 210.782118 
L 186.401389 210.782118 
L 184.769959 210.782118 
L 183.138529 210.782118 
L 181.507099 210.782118 
L 179.875669 210.782118 
L 178.244239 210.782118 
L 176.61281 210.782118 
L 174.98138 210.782118 
L 173.34995 210.782118 
L 171.71852 210.782118 
L 170.08709 210.782118 
L 168.45566 210.782118 
L 166.82423 210.782118 
L 165.1928 210.782118 
L 163.56137 210.782118 
L 161.929941 210.782118 
L 160.298511 210.782118 
L 158.667081 210.782118 
L 157.035651 210.782118 
L 155.404221 210.782118 
L 153.772791 210.782118 
L 152.141361 210.782118 
L 150.509931 210.782118 
L 148.878502 210.782118 
L 147.247072 210.782118 
L 145.615642 210.782118 
L 143.984212 210.782118 
L 142.352782 210.782118 
L 140.721352 210.782118 
L 139.089922 210.782118 
L 137.458492 210.782118 
L 135.827063 210.782118 
L 134.195633 210.782118 
L 132.564203 210.782118 
L 130.932773 210.782118 
L 129.301343 210.782118 
L 127.669913 210.782118 
L 126.038483 210.782118 
L 124.407053 210.782118 
L 122.775624 210.782118 
L 121.144194 210.782118 
L 119.512764 210.782118 
L 117.881334 210.782118 
L 116.249904 210.782118 
L 114.618474 210.782118 
L 112.987044 210.782118 
L 111.355614 210.782118 
L 109.724185 210.782118 
L 108.092755 210.782118 
L 106.461325 210.782118 
L 104.829895 210.782118 
L 103.198465 210.782118 
L 101.567035 210.782118 
L 99.935605 210.782118 
L 98.304175 210.782118 
L 96.672746 210.782118 
L 95.041316 210.782118 
L 93.409886 210.782118 
L 91.778456 210.782118 
L 90.147026 210.782118 
L 88.515596 210.782118 
L 86.884166 210.782118 
L 85.252736 210.782118 
L 83.621307 210.782118 
L 81.989877 210.782118 
L 80.358447 210.782118 
L 78.727017 210.782118 
L 77.095587 210.782118 
L 75.464157 210.782118 
L 73.832727 210.782118 
z
" style="fill:#1f77b4;fill-opacity:0.1;"/>
   </g>
   <g id="matplotlib.axis_1">
    <g id="xtick_1">
     <g id="line2d_1">
      <defs>
       <path d="M 0 0 
L 0 3.5 
" id="m42f4b421b5" style="stroke:#000000;stroke-width:0.8;"/>
      </defs>
      <g>
       <use style="stroke:#000000;stroke-width:0.8;" x="73.832727" xlink:href="#m42f4b421b5" y="307.584"/>
      </g>
     </g>
     <g id="text_1">
      <!-- 0 -->
      <defs>
       <path d="M 31.78125 66.40625 
Q 24.171875 66.40625 20.328125 58.90625 
Q 16.5 51.421875 16.5 36.375 
Q 16.5 21.390625 20.328125 13.890625 
Q 24.171875 6.390625 31.78125 6.390625 
Q 39.453125 6.390625 43.28125 13.890625 
Q 47.125 21.390625 47.125 36.375 
Q 47.125 51.421875 43.28125 58.90625 
Q 39.453125 66.40625 31.78125 66.40625 
z
M 31.78125 74.21875 
Q 44.046875 74.21875 50.515625 64.515625 
Q 56.984375 54.828125 56.984375 36.375 
Q 56.984375 17.96875 50.515625 8.265625 
Q 44.046875 -1.421875 31.78125 -1.421875 
Q 19.53125 -1.421875 13.0625 8.265625 
Q 6.59375 17.96875 6.59375 36.375 
Q 6.59375 54.828125 13.0625 64.515625 
Q 19.53125 74.21875 31.78125 74.21875 
z
" id="DejaVuSans-48"/>
      </defs>
      <g transform="translate(70.651477 322.182437)scale(0.1 -0.1)">
       <use xlink:href="#DejaVuSans-48"/>
      </g>
     </g>
    </g>
    <g id="xtick_2">
     <g id="line2d_2">
      <g>
       <use style="stroke:#000000;stroke-width:0.8;" x="114.618474" xlink:href="#m42f4b421b5" y="307.584"/>
      </g>
     </g>
     <g id="text_2">
      <!-- 25 -->
      <defs>
       <path d="M 19.1875 8.296875 
L 53.609375 8.296875 
L 53.609375 0 
L 7.328125 0 
L 7.328125 8.296875 
Q 12.9375 14.109375 22.625 23.890625 
Q 32.328125 33.6875 34.8125 36.53125 
Q 39.546875 41.84375 41.421875 45.53125 
Q 43.3125 49.21875 43.3125 52.78125 
Q 43.3125 58.59375 39.234375 62.25 
Q 35.15625 65.921875 28.609375 65.921875 
Q 23.96875 65.921875 18.8125 64.3125 
Q 13.671875 62.703125 7.8125 59.421875 
L 7.8125 69.390625 
Q 13.765625 71.78125 18.9375 73 
Q 24.125 74.21875 28.421875 74.21875 
Q 39.75 74.21875 46.484375 68.546875 
Q 53.21875 62.890625 53.21875 53.421875 
Q 53.21875 48.921875 51.53125 44.890625 
Q 49.859375 40.875 45.40625 35.40625 
Q 44.1875 33.984375 37.640625 27.21875 
Q 31.109375 20.453125 19.1875 8.296875 
z
" id="DejaVuSans-50"/>
       <path d="M 10.796875 72.90625 
L 49.515625 72.90625 
L 49.515625 64.59375 
L 19.828125 64.59375 
L 19.828125 46.734375 
Q 21.96875 47.46875 24.109375 47.828125 
Q 26.265625 48.1875 28.421875 48.1875 
Q 40.625 48.1875 47.75 41.5 
Q 54.890625 34.8125 54.890625 23.390625 
Q 54.890625 11.625 47.5625 5.09375 
Q 40.234375 -1.421875 26.90625 -1.421875 
Q 22.3125 -1.421875 17.546875 -0.640625 
Q 12.796875 0.140625 7.71875 1.703125 
L 7.71875 11.625 
Q 12.109375 9.234375 16.796875 8.0625 
Q 21.484375 6.890625 26.703125 6.890625 
Q 35.15625 6.890625 40.078125 11.328125 
Q 45.015625 15.765625 45.015625 23.390625 
Q 45.015625 31 40.078125 35.4375 
Q 35.15625 39.890625 26.703125 39.890625 
Q 22.75 39.890625 18.8125 39.015625 
Q 14.890625 38.140625 10.796875 36.28125 
z
" id="DejaVuSans-53"/>
      </defs>
      <g transform="translate(108.255974 322.182437)scale(0.1 -0.1)">
       <use xlink:href="#DejaVuSans-50"/>
       <use x="63.623047" xlink:href="#DejaVuSans-53"/>
      </g>
     </g>
    </g>
    <g id="xtick_3">
     <g id="line2d_3">
      <g>
       <use style="stroke:#000000;stroke-width:0.8;" x="155.404221" xlink:href="#m42f4b421b5" y="307.584"/>
      </g>
     </g>
     <g id="text_3">
      <!-- 50 -->
      <g transform="translate(149.041721 322.182437)scale(0.1 -0.1)">
       <use xlink:href="#DejaVuSans-53"/>
       <use x="63.623047" xlink:href="#DejaVuSans-48"/>
      </g>
     </g>
    </g>
    <g id="xtick_4">
     <g id="line2d_4">
      <g>
       <use style="stroke:#000000;stroke-width:0.8;" x="196.189968" xlink:href="#m42f4b421b5" y="307.584"/>
      </g>
     </g>
     <g id="text_4">
      <!-- 75 -->
      <defs>
       <path d="M 8.203125 72.90625 
L 55.078125 72.90625 
L 55.078125 68.703125 
L 28.609375 0 
L 18.3125 0 
L 43.21875 64.59375 
L 8.203125 64.59375 
z
" id="DejaVuSans-55"/>
      </defs>
      <g transform="translate(189.827468 322.182437)scale(0.1 -0.1)">
       <use xlink:href="#DejaVuSans-55"/>
       <use x="63.623047" xlink:href="#DejaVuSans-53"/>
      </g>
     </g>
    </g>
    <g id="xtick_5">
     <g id="line2d_5">
      <g>
       <use style="stroke:#000000;stroke-width:0.8;" x="236.975715" xlink:href="#m42f4b421b5" y="307.584"/>
      </g>
     </g>
     <g id="text_5">
      <!-- 100 -->
      <defs>
       <path d="M 12.40625 8.296875 
L 28.515625 8.296875 
L 28.515625 63.921875 
L 10.984375 60.40625 
L 10.984375 69.390625 
L 28.421875 72.90625 
L 38.28125 72.90625 
L 38.28125 8.296875 
L 54.390625 8.296875 
L 54.390625 0 
L 12.40625 0 
z
" id="DejaVuSans-49"/>
      </defs>
      <g transform="translate(227.431965 322.182437)scale(0.1 -0.1)">
       <use xlink:href="#DejaVuSans-49"/>
       <use x="63.623047" xlink:href="#DejaVuSans-48"/>
       <use x="127.246094" xlink:href="#DejaVuSans-48"/>
      </g>
     </g>
    </g>
    <g id="xtick_6">
     <g id="line2d_6">
      <g>
       <use style="stroke:#000000;stroke-width:0.8;" x="277.761462" xlink:href="#m42f4b421b5" y="307.584"/>
      </g>
     </g>
     <g id="text_6">
      <!-- 125 -->
      <g transform="translate(268.217712 322.182437)scale(0.1 -0.1)">
       <use xlink:href="#DejaVuSans-49"/>
       <use x="63.623047" xlink:href="#DejaVuSans-50"/>
       <use x="127.246094" xlink:href="#DejaVuSans-53"/>
      </g>
     </g>
    </g>
    <g id="xtick_7">
     <g id="line2d_7">
      <g>
       <use style="stroke:#000000;stroke-width:0.8;" x="318.547209" xlink:href="#m42f4b421b5" y="307.584"/>
      </g>
     </g>
     <g id="text_7">
      <!-- 150 -->
      <g transform="translate(309.003459 322.182437)scale(0.1 -0.1)">
       <use xlink:href="#DejaVuSans-49"/>
       <use x="63.623047" xlink:href="#DejaVuSans-53"/>
       <use x="127.246094" xlink:href="#DejaVuSans-48"/>
      </g>
     </g>
    </g>
    <g id="xtick_8">
     <g id="line2d_8">
      <g>
       <use style="stroke:#000000;stroke-width:0.8;" x="359.332956" xlink:href="#m42f4b421b5" y="307.584"/>
      </g>
     </g>
     <g id="text_8">
      <!-- 175 -->
      <g transform="translate(349.789206 322.182437)scale(0.1 -0.1)">
       <use xlink:href="#DejaVuSans-49"/>
       <use x="63.623047" xlink:href="#DejaVuSans-55"/>
       <use x="127.246094" xlink:href="#DejaVuSans-53"/>
      </g>
     </g>
    </g>
    <g id="xtick_9">
     <g id="line2d_9">
      <g>
       <use style="stroke:#000000;stroke-width:0.8;" x="400.118703" xlink:href="#m42f4b421b5" y="307.584"/>
      </g>
     </g>
     <g id="text_9">
      <!-- 200 -->
      <g transform="translate(390.574953 322.182437)scale(0.1 -0.1)">
       <use xlink:href="#DejaVuSans-50"/>
       <use x="63.623047" xlink:href="#DejaVuSans-48"/>
       <use x="127.246094" xlink:href="#DejaVuSans-48"/>
      </g>
     </g>
    </g>
   </g>
   <g id="matplotlib.axis_2">
    <g id="ytick_1">
     <g id="line2d_10">
      <defs>
       <path d="M 0 0 
L -3.5 0 
" id="m23af679c8f" style="stroke:#000000;stroke-width:0.8;"/>
      </defs>
      <g>
       <use style="stroke:#000000;stroke-width:0.8;" x="57.6" xlink:href="#m23af679c8f" y="278.546824"/>
      </g>
     </g>
     <g id="text_10">
      <!-- −0.4 -->
      <defs>
       <path d="M 10.59375 35.5 
L 73.1875 35.5 
L 73.1875 27.203125 
L 10.59375 27.203125 
z
" id="DejaVuSans-8722"/>
       <path d="M 10.6875 12.40625 
L 21 12.40625 
L 21 0 
L 10.6875 0 
z
" id="DejaVuSans-46"/>
       <path d="M 37.796875 64.3125 
L 12.890625 25.390625 
L 37.796875 25.390625 
z
M 35.203125 72.90625 
L 47.609375 72.90625 
L 47.609375 25.390625 
L 58.015625 25.390625 
L 58.015625 17.1875 
L 47.609375 17.1875 
L 47.609375 0 
L 37.796875 0 
L 37.796875 17.1875 
L 4.890625 17.1875 
L 4.890625 26.703125 
z
" id="DejaVuSans-52"/>
      </defs>
      <g transform="translate(26.317187 282.346042)scale(0.1 -0.1)">
       <use xlink:href="#DejaVuSans-8722"/>
       <use x="83.789062" xlink:href="#DejaVuSans-48"/>
       <use x="147.412109" xlink:href="#DejaVuSans-46"/>
       <use x="179.199219" xlink:href="#DejaVuSans-52"/>
      </g>
     </g>
    </g>
    <g id="ytick_2">
     <g id="line2d_11">
      <g>
       <use style="stroke:#000000;stroke-width:0.8;" x="57.6" xlink:href="#m23af679c8f" y="244.664471"/>
      </g>
     </g>
     <g id="text_11">
      <!-- −0.2 -->
      <g transform="translate(26.317187 248.463689)scale(0.1 -0.1)">
       <use xlink:href="#DejaVuSans-8722"/>
       <use x="83.789062" xlink:href="#DejaVuSans-48"/>
       <use x="147.412109" xlink:href="#DejaVuSans-46"/>
       <use x="179.199219" xlink:href="#DejaVuSans-50"/>
      </g>
     </g>
    </g>
    <g id="ytick_3">
     <g id="line2d_12">
      <g>
       <use style="stroke:#000000;stroke-width:0.8;" x="57.6" xlink:href="#m23af679c8f" y="210.782118"/>
      </g>
     </g>
     <g id="text_12">
      <!-- 0.0 -->
      <g transform="translate(34.696875 214.581336)scale(0.1 -0.1)">
       <use xlink:href="#DejaVuSans-48"/>
       <use x="63.623047" xlink:href="#DejaVuSans-46"/>
       <use x="95.410156" xlink:href="#DejaVuSans-48"/>
      </g>
     </g>
    </g>
    <g id="ytick_4">
     <g id="line2d_13">
      <g>
       <use style="stroke:#000000;stroke-width:0.8;" x="57.6" xlink:href="#m23af679c8f" y="176.899765"/>
      </g>
     </g>
     <g id="text_13">
      <!-- 0.2 -->
      <g transform="translate(34.696875 180.698983)scale(0.1 -0.1)">
       <use xlink:href="#DejaVuSans-48"/>
       <use x="63.623047" xlink:href="#DejaVuSans-46"/>
       <use x="95.410156" xlink:href="#DejaVuSans-50"/>
      </g>
     </g>
    </g>
    <g id="ytick_5">
     <g id="line2d_14">
      <g>
       <use style="stroke:#000000;stroke-width:0.8;" x="57.6" xlink:href="#m23af679c8f" y="143.017412"/>
      </g>
     </g>
     <g id="text_14">
      <!-- 0.4 -->
      <g transform="translate(34.696875 146.816631)scale(0.1 -0.1)">
       <use xlink:href="#DejaVuSans-48"/>
       <use x="63.623047" xlink:href="#DejaVuSans-46"/>
       <use x="95.410156" xlink:href="#DejaVuSans-52"/>
      </g>
     </g>
    </g>
    <g id="ytick_6">
     <g id="line2d_15">
      <g>
       <use style="stroke:#000000;stroke-width:0.8;" x="57.6" xlink:href="#m23af679c8f" y="109.135059"/>
      </g>
     </g>
     <g id="text_15">
      <!-- 0.6 -->
      <defs>
       <path d="M 33.015625 40.375 
Q 26.375 40.375 22.484375 35.828125 
Q 18.609375 31.296875 18.609375 23.390625 
Q 18.609375 15.53125 22.484375 10.953125 
Q 26.375 6.390625 33.015625 6.390625 
Q 39.65625 6.390625 43.53125 10.953125 
Q 47.40625 15.53125 47.40625 23.390625 
Q 47.40625 31.296875 43.53125 35.828125 
Q 39.65625 40.375 33.015625 40.375 
z
M 52.59375 71.296875 
L 52.59375 62.3125 
Q 48.875 64.0625 45.09375 64.984375 
Q 41.3125 65.921875 37.59375 65.921875 
Q 27.828125 65.921875 22.671875 59.328125 
Q 17.53125 52.734375 16.796875 39.40625 
Q 19.671875 43.65625 24.015625 45.921875 
Q 28.375 48.1875 33.59375 48.1875 
Q 44.578125 48.1875 50.953125 41.515625 
Q 57.328125 34.859375 57.328125 23.390625 
Q 57.328125 12.15625 50.6875 5.359375 
Q 44.046875 -1.421875 33.015625 -1.421875 
Q 20.359375 -1.421875 13.671875 8.265625 
Q 6.984375 17.96875 6.984375 36.375 
Q 6.984375 53.65625 15.1875 63.9375 
Q 23.390625 74.21875 37.203125 74.21875 
Q 40.921875 74.21875 44.703125 73.484375 
Q 48.484375 72.75 52.59375 71.296875 
z
" id="DejaVuSans-54"/>
      </defs>
      <g transform="translate(34.696875 112.934278)scale(0.1 -0.1)">
       <use xlink:href="#DejaVuSans-48"/>
       <use x="63.623047" xlink:href="#DejaVuSans-46"/>
       <use x="95.410156" xlink:href="#DejaVuSans-54"/>
      </g>
     </g>
    </g>
    <g id="ytick_7">
     <g id="line2d_16">
      <g>
       <use style="stroke:#000000;stroke-width:0.8;" x="57.6" xlink:href="#m23af679c8f" y="75.252706"/>
      </g>
     </g>
     <g id="text_16">
      <!-- 0.8 -->
      <defs>
       <path d="M 31.78125 34.625 
Q 24.75 34.625 20.71875 30.859375 
Q 16.703125 27.09375 16.703125 20.515625 
Q 16.703125 13.921875 20.71875 10.15625 
Q 24.75 6.390625 31.78125 6.390625 
Q 38.8125 6.390625 42.859375 10.171875 
Q 46.921875 13.96875 46.921875 20.515625 
Q 46.921875 27.09375 42.890625 30.859375 
Q 38.875 34.625 31.78125 34.625 
z
M 21.921875 38.8125 
Q 15.578125 40.375 12.03125 44.71875 
Q 8.5 49.078125 8.5 55.328125 
Q 8.5 64.0625 14.71875 69.140625 
Q 20.953125 74.21875 31.78125 74.21875 
Q 42.671875 74.21875 48.875 69.140625 
Q 55.078125 64.0625 55.078125 55.328125 
Q 55.078125 49.078125 51.53125 44.71875 
Q 48 40.375 41.703125 38.8125 
Q 48.828125 37.15625 52.796875 32.3125 
Q 56.78125 27.484375 56.78125 20.515625 
Q 56.78125 9.90625 50.3125 4.234375 
Q 43.84375 -1.421875 31.78125 -1.421875 
Q 19.734375 -1.421875 13.25 4.234375 
Q 6.78125 9.90625 6.78125 20.515625 
Q 6.78125 27.484375 10.78125 32.3125 
Q 14.796875 37.15625 21.921875 38.8125 
z
M 18.3125 54.390625 
Q 18.3125 48.734375 21.84375 45.5625 
Q 25.390625 42.390625 31.78125 42.390625 
Q 38.140625 42.390625 41.71875 45.5625 
Q 45.3125 48.734375 45.3125 54.390625 
Q 45.3125 60.0625 41.71875 63.234375 
Q 38.140625 66.40625 31.78125 66.40625 
Q 25.390625 66.40625 21.84375 63.234375 
Q 18.3125 60.0625 18.3125 54.390625 
z
" id="DejaVuSans-56"/>
      </defs>
      <g transform="translate(34.696875 79.051925)scale(0.1 -0.1)">
       <use xlink:href="#DejaVuSans-48"/>
       <use x="63.623047" xlink:href="#DejaVuSans-46"/>
       <use x="95.410156" xlink:href="#DejaVuSans-56"/>
      </g>
     </g>
    </g>
   </g>
   <g id="line2d_17">
    <path clip-path="url(#pce30c5b5b2)" d="M 73.832727 210.782118 
L 214.135697 210.782118 
L 215.767127 193.840941 
L 217.398556 180.118588 
L 219.029986 207.393882 
L 220.661416 179.102118 
L 222.292846 207.393882 
L 223.924276 205.699765 
L 225.555706 205.869176 
L 227.187136 189.139765 
L 228.818566 197.568 
L 230.449995 185.216342 
L 232.081425 191.935059 
L 233.712855 191.130353 
L 235.344285 183.337412 
L 236.975715 210.443294 
L 238.607145 209.088 
L 240.238575 188.613378 
L 241.870005 187.825129 
L 243.501434 209.088 
L 245.132864 193.840941 
L 246.764294 209.088 
L 248.395724 189.571765 
L 250.027154 209.765647 
L 251.658584 175.019294 
L 253.290014 189.915008 
L 254.921444 188.758588 
L 256.552873 182.659765 
L 258.184303 180.626824 
L 259.815733 195.196235 
L 261.447163 205.699765 
L 263.078593 201.972706 
L 264.710023 207.393882 
L 266.341453 192.485647 
L 267.972883 173.511529 
L 269.604312 173.511529 
L 271.235742 186.451361 
L 272.867172 201.633882 
L 274.498602 190.791529 
L 276.130032 191.130353 
L 277.761462 199.600941 
L 279.392892 201.295059 
L 281.024322 190.201725 
L 282.655751 185.878588 
L 284.287181 161.652706 
L 285.918611 200.617412 
L 287.550041 171.309176 
L 289.181471 167.582118 
L 290.812901 190.097748 
L 292.444331 191.354439 
L 294.075761 199.770353 
L 295.70719 166.057412 
L 297.33862 178.607257 
L 298.97005 176.560941 
L 300.60148 190.791529 
L 302.23291 207.732706 
L 303.86434 177.238588 
L 305.49577 191.638588 
L 307.1272 181.982118 
L 308.75863 180.457412 
L 310.390059 193.840941 
L 312.021489 145.219765 
L 313.652919 161.652706 
L 315.284349 171.817412 
L 316.915779 167.243294 
L 318.547209 186.217412 
L 320.178639 207.393882 
L 321.810069 193.840941 
L 323.441498 176.899765 
L 325.072928 181.982118 
L 326.704358 192.146824 
L 328.335788 187.064471 
L 329.967218 175.567812 
L 331.598648 176.222118 
L 333.230078 192.519529 
L 334.861508 193.502118 
L 336.492937 167.412706 
L 338.124367 183.676235 
L 339.755797 193.502118 
L 341.387227 161.652706 
L 343.018657 159.958588 
L 344.650087 171.478588 
L 346.281517 193.502118 
L 347.912947 195.353098 
L 349.544376 204.683294 
L 351.175806 178.255059 
L 352.807236 175.255664 
L 354.438666 195.196235 
L 356.070096 168.429176 
L 357.701526 191.130353 
L 359.332956 209.088 
L 360.964386 181.643294 
L 362.595815 173.511529 
L 364.227245 178.593882 
L 365.858675 165.040941 
L 367.490105 175.883294 
L 369.121535 182.021647 
L 370.752965 193.840941 
L 372.384395 163.177412 
L 374.015825 174.189176 
L 375.647254 207.393882 
L 377.278684 178.255059 
L 378.910114 177.577412 
L 380.541544 167.412706 
L 382.172974 174.866824 
L 383.804404 179.755563 
L 385.435834 184.015059 
L 387.067264 182.564729 
L 388.698693 164.363294 
L 390.330123 179.376714 
L 391.961553 185.370353 
L 393.592983 158.603294 
L 395.224413 136.749176 
L 396.855843 178.627765 
L 398.487273 195.873882 
L 398.487273 195.873882 
" style="fill:none;stroke:#1f77b4;stroke-linecap:square;stroke-width:0.25;"/>
   </g>
   <g id="line2d_18">
    <path clip-path="url(#pce30c5b5b2)" d="M 73.832727 210.782118 
L 204.347117 210.782118 
L 205.978547 211.456376 
L 207.609977 214.593882 
L 209.241407 212.329694 
L 210.872837 210.781432 
L 212.504267 206.326009 
L 214.135697 204.389793 
L 215.767127 186.295832 
L 217.398556 175.435994 
L 219.029986 183.057103 
L 220.661416 172.926045 
L 222.292846 206.273327 
L 223.924276 206.21412 
L 225.555706 205.694502 
L 227.187136 192.71808 
L 228.818566 202.313275 
L 230.449995 194.683237 
L 232.081425 194.605351 
L 233.712855 194.146125 
L 235.344285 186.306574 
L 236.975715 208.261476 
L 240.238575 189.956205 
L 241.870005 189.304244 
L 243.501434 199.247668 
L 245.132864 190.515634 
L 246.764294 203.721571 
L 248.395724 186.716891 
L 250.027154 202.600822 
L 251.658584 176.927713 
L 253.290014 182.259745 
L 254.921444 178.770297 
L 256.552873 178.028658 
L 258.184303 184.510043 
L 259.815733 183.730156 
L 261.447163 191.392843 
L 263.078593 186.894947 
L 264.710023 188.23604 
L 266.341453 179.491649 
L 267.972883 176.028812 
L 269.604312 173.886225 
L 271.235742 175.497868 
L 272.867172 184.972674 
L 274.498602 177.936554 
L 276.130032 183.302303 
L 277.761462 191.061117 
L 279.392892 190.578597 
L 281.024322 185.8906 
L 282.655751 185.499937 
L 284.287181 160.138182 
L 285.918611 180.949666 
L 287.550041 164.353558 
L 289.181471 163.459045 
L 290.812901 184.155696 
L 292.444331 177.821455 
L 294.075761 184.071151 
L 295.70719 164.510646 
L 297.33862 171.465507 
L 298.97005 169.042131 
L 300.60148 174.760666 
L 302.23291 173.189628 
L 303.86434 166.388694 
L 305.49577 175.967483 
L 307.1272 170.180733 
L 308.75863 169.703954 
L 310.390059 173.990945 
L 312.021489 145.307218 
L 313.652919 153.138639 
L 315.284349 157.109562 
L 316.915779 155.229513 
L 318.547209 173.756588 
L 320.178639 169.897541 
L 321.810069 176.568286 
L 323.441498 169.132265 
L 325.072928 160.436978 
L 326.704358 175.370254 
L 328.335788 168.007126 
L 329.967218 158.227969 
L 331.598648 145.360549 
L 333.230078 168.4478 
L 334.861508 174.747161 
L 336.492937 145.026378 
L 338.124367 174.245049 
L 339.755797 173.035684 
L 341.387227 150.199132 
L 343.018657 155.311537 
L 344.650087 156.320301 
L 346.281517 174.644541 
L 347.912947 169.308626 
L 349.544376 164.91539 
L 351.175806 156.400055 
L 352.807236 145.328317 
L 354.438666 172.39403 
L 356.070096 144.490772 
L 357.701526 162.896092 
L 359.332956 174.832495 
L 360.964386 147.491166 
L 362.595815 149.81061 
L 364.227245 172.052588 
L 365.858675 155.841985 
L 367.490105 162.171749 
L 369.121535 150.119068 
L 370.752965 178.013947 
L 372.384395 143.251961 
L 374.015825 158.386755 
L 375.647254 181.424223 
L 377.278684 147.352719 
L 378.910114 141.704674 
L 380.541544 139.702124 
L 382.172974 144.930121 
L 383.804404 159.215509 
L 385.435834 152.433234 
L 387.067264 158.808415 
L 388.698693 154.907236 
L 390.330123 167.121409 
L 391.961553 156.871055 
L 393.592983 141.600791 
L 395.224413 130.333551 
L 396.855843 160.991574 
L 398.487273 172.379442 
L 398.487273 172.379442 
" style="fill:none;stroke:#2ca02c;stroke-linecap:square;stroke-width:0.75;"/>
   </g>
   <g id="patch_3">
    <path d="M 57.6 307.584 
L 57.6 41.472 
" style="fill:none;stroke:#000000;stroke-linecap:square;stroke-linejoin:miter;stroke-width:0.8;"/>
   </g>
   <g id="patch_4">
    <path d="M 414.72 307.584 
L 414.72 41.472 
" style="fill:none;stroke:#000000;stroke-linecap:square;stroke-linejoin:miter;stroke-width:0.8;"/>
   </g>
   <g id="patch_5">
    <path d="M 57.6 307.584 
L 414.72 307.584 
" style="fill:none;stroke:#000000;stroke-linecap:square;stroke-linejoin:miter;stroke-width:0.8;"/>
   </g>
   <g id="patch_6">
    <path d="M 57.6 41.472 
L 414.72 41.472 
" style="fill:none;stroke:#000000;stroke-linecap:square;stroke-linejoin:miter;stroke-width:0.8;"/>
   </g>
   <g id="legend_1">
    <g id="patch_7">
     <path d="M 338.234063 78.82825 
L 407.72 78.82825 
Q 409.72 78.82825 409.72 76.82825 
L 409.72 48.472 
Q 409.72 46.472 407.72 46.472 
L 338.234063 46.472 
Q 336.234063 46.472 336.234063 48.472 
L 336.234063 76.82825 
Q 336.234063 78.82825 338.234063 78.82825 
z
" style="fill:#ffffff;opacity:0.8;stroke:#cccccc;stroke-linejoin:miter;"/>
    </g>
    <g id="line2d_19">
     <path d="M 340.234063 54.570437 
L 360.234063 54.570437 
" style="fill:none;stroke:#1f77b4;stroke-linecap:square;stroke-width:0.25;"/>
    </g>
    <g id="line2d_20"/>
    <g id="text_17">
     <!-- median -->
     <defs>
      <path d="M 52 44.1875 
Q 55.375 50.25 60.0625 53.125 
Q 64.75 56 71.09375 56 
Q 79.640625 56 84.28125 50.015625 
Q 88.921875 44.046875 88.921875 33.015625 
L 88.921875 0 
L 79.890625 0 
L 79.890625 32.71875 
Q 79.890625 40.578125 77.09375 44.375 
Q 74.3125 48.1875 68.609375 48.1875 
Q 61.625 48.1875 57.5625 43.546875 
Q 53.515625 38.921875 53.515625 30.90625 
L 53.515625 0 
L 44.484375 0 
L 44.484375 32.71875 
Q 44.484375 40.625 41.703125 44.40625 
Q 38.921875 48.1875 33.109375 48.1875 
Q 26.21875 48.1875 22.15625 43.53125 
Q 18.109375 38.875 18.109375 30.90625 
L 18.109375 0 
L 9.078125 0 
L 9.078125 54.6875 
L 18.109375 54.6875 
L 18.109375 46.1875 
Q 21.1875 51.21875 25.484375 53.609375 
Q 29.78125 56 35.6875 56 
Q 41.65625 56 45.828125 52.96875 
Q 50 49.953125 52 44.1875 
z
" id="DejaVuSans-109"/>
      <path d="M 56.203125 29.59375 
L 56.203125 25.203125 
L 14.890625 25.203125 
Q 15.484375 15.921875 20.484375 11.0625 
Q 25.484375 6.203125 34.421875 6.203125 
Q 39.59375 6.203125 44.453125 7.46875 
Q 49.3125 8.734375 54.109375 11.28125 
L 54.109375 2.78125 
Q 49.265625 0.734375 44.1875 -0.34375 
Q 39.109375 -1.421875 33.890625 -1.421875 
Q 20.796875 -1.421875 13.15625 6.1875 
Q 5.515625 13.8125 5.515625 26.8125 
Q 5.515625 40.234375 12.765625 48.109375 
Q 20.015625 56 32.328125 56 
Q 43.359375 56 49.78125 48.890625 
Q 56.203125 41.796875 56.203125 29.59375 
z
M 47.21875 32.234375 
Q 47.125 39.59375 43.09375 43.984375 
Q 39.0625 48.390625 32.421875 48.390625 
Q 24.90625 48.390625 20.390625 44.140625 
Q 15.875 39.890625 15.1875 32.171875 
z
" id="DejaVuSans-101"/>
      <path d="M 45.40625 46.390625 
L 45.40625 75.984375 
L 54.390625 75.984375 
L 54.390625 0 
L 45.40625 0 
L 45.40625 8.203125 
Q 42.578125 3.328125 38.25 0.953125 
Q 33.9375 -1.421875 27.875 -1.421875 
Q 17.96875 -1.421875 11.734375 6.484375 
Q 5.515625 14.40625 5.515625 27.296875 
Q 5.515625 40.1875 11.734375 48.09375 
Q 17.96875 56 27.875 56 
Q 33.9375 56 38.25 53.625 
Q 42.578125 51.265625 45.40625 46.390625 
z
M 14.796875 27.296875 
Q 14.796875 17.390625 18.875 11.75 
Q 22.953125 6.109375 30.078125 6.109375 
Q 37.203125 6.109375 41.296875 11.75 
Q 45.40625 17.390625 45.40625 27.296875 
Q 45.40625 37.203125 41.296875 42.84375 
Q 37.203125 48.484375 30.078125 48.484375 
Q 22.953125 48.484375 18.875 42.84375 
Q 14.796875 37.203125 14.796875 27.296875 
z
" id="DejaVuSans-100"/>
      <path d="M 9.421875 54.6875 
L 18.40625 54.6875 
L 18.40625 0 
L 9.421875 0 
z
M 9.421875 75.984375 
L 18.40625 75.984375 
L 18.40625 64.59375 
L 9.421875 64.59375 
z
" id="DejaVuSans-105"/>
      <path d="M 34.28125 27.484375 
Q 23.390625 27.484375 19.1875 25 
Q 14.984375 22.515625 14.984375 16.5 
Q 14.984375 11.71875 18.140625 8.90625 
Q 21.296875 6.109375 26.703125 6.109375 
Q 34.1875 6.109375 38.703125 11.40625 
Q 43.21875 16.703125 43.21875 25.484375 
L 43.21875 27.484375 
z
M 52.203125 31.203125 
L 52.203125 0 
L 43.21875 0 
L 43.21875 8.296875 
Q 40.140625 3.328125 35.546875 0.953125 
Q 30.953125 -1.421875 24.3125 -1.421875 
Q 15.921875 -1.421875 10.953125 3.296875 
Q 6 8.015625 6 15.921875 
Q 6 25.140625 12.171875 29.828125 
Q 18.359375 34.515625 30.609375 34.515625 
L 43.21875 34.515625 
L 43.21875 35.40625 
Q 43.21875 41.609375 39.140625 45 
Q 35.0625 48.390625 27.6875 48.390625 
Q 23 48.390625 18.546875 47.265625 
Q 14.109375 46.140625 10.015625 43.890625 
L 10.015625 52.203125 
Q 14.9375 54.109375 19.578125 55.046875 
Q 24.21875 56 28.609375 56 
Q 40.484375 56 46.34375 49.84375 
Q 52.203125 43.703125 52.203125 31.203125 
z
" id="DejaVuSans-97"/>
      <path d="M 54.890625 33.015625 
L 54.890625 0 
L 45.90625 0 
L 45.90625 32.71875 
Q 45.90625 40.484375 42.875 44.328125 
Q 39.84375 48.1875 33.796875 48.1875 
Q 26.515625 48.1875 22.3125 43.546875 
Q 18.109375 38.921875 18.109375 30.90625 
L 18.109375 0 
L 9.078125 0 
L 9.078125 54.6875 
L 18.109375 54.6875 
L 18.109375 46.1875 
Q 21.34375 51.125 25.703125 53.5625 
Q 30.078125 56 35.796875 56 
Q 45.21875 56 50.046875 50.171875 
Q 54.890625 44.34375 54.890625 33.015625 
z
" id="DejaVuSans-110"/>
     </defs>
     <g transform="translate(368.234063 58.070437)scale(0.1 -0.1)">
      <use xlink:href="#DejaVuSans-109"/>
      <use x="97.412109" xlink:href="#DejaVuSans-101"/>
      <use x="158.935547" xlink:href="#DejaVuSans-100"/>
      <use x="222.412109" xlink:href="#DejaVuSans-105"/>
      <use x="250.195312" xlink:href="#DejaVuSans-97"/>
      <use x="311.474609" xlink:href="#DejaVuSans-110"/>
     </g>
    </g>
    <g id="line2d_21">
     <path d="M 340.234063 69.248562 
L 360.234063 69.248562 
" style="fill:none;stroke:#2ca02c;stroke-linecap:square;stroke-width:0.75;"/>
    </g>
    <g id="line2d_22"/>
    <g id="text_18">
     <!-- mean -->
     <g transform="translate(368.234063 72.748562)scale(0.1 -0.1)">
      <use xlink:href="#DejaVuSans-109"/>
      <use x="97.412109" xlink:href="#DejaVuSans-101"/>
      <use x="158.935547" xlink:href="#DejaVuSans-97"/>
      <use x="220.214844" xlink:href="#DejaVuSans-110"/>
     </g>
    </g>
   </g>
  </g>
  <g id="text_19">
   <!-- kappa.mean over generations -->
   <defs>
    <path d="M 9.078125 75.984375 
L 18.109375 75.984375 
L 18.109375 31.109375 
L 44.921875 54.6875 
L 56.390625 54.6875 
L 27.390625 29.109375 
L 57.625 0 
L 45.90625 0 
L 18.109375 26.703125 
L 18.109375 0 
L 9.078125 0 
z
" id="DejaVuSans-107"/>
    <path d="M 18.109375 8.203125 
L 18.109375 -20.796875 
L 9.078125 -20.796875 
L 9.078125 54.6875 
L 18.109375 54.6875 
L 18.109375 46.390625 
Q 20.953125 51.265625 25.265625 53.625 
Q 29.59375 56 35.59375 56 
Q 45.5625 56 51.78125 48.09375 
Q 58.015625 40.1875 58.015625 27.296875 
Q 58.015625 14.40625 51.78125 6.484375 
Q 45.5625 -1.421875 35.59375 -1.421875 
Q 29.59375 -1.421875 25.265625 0.953125 
Q 20.953125 3.328125 18.109375 8.203125 
z
M 48.6875 27.296875 
Q 48.6875 37.203125 44.609375 42.84375 
Q 40.53125 48.484375 33.40625 48.484375 
Q 26.265625 48.484375 22.1875 42.84375 
Q 18.109375 37.203125 18.109375 27.296875 
Q 18.109375 17.390625 22.1875 11.75 
Q 26.265625 6.109375 33.40625 6.109375 
Q 40.53125 6.109375 44.609375 11.75 
Q 48.6875 17.390625 48.6875 27.296875 
z
" id="DejaVuSans-112"/>
    <path id="DejaVuSans-32"/>
    <path d="M 30.609375 48.390625 
Q 23.390625 48.390625 19.1875 42.75 
Q 14.984375 37.109375 14.984375 27.296875 
Q 14.984375 17.484375 19.15625 11.84375 
Q 23.34375 6.203125 30.609375 6.203125 
Q 37.796875 6.203125 41.984375 11.859375 
Q 46.1875 17.53125 46.1875 27.296875 
Q 46.1875 37.015625 41.984375 42.703125 
Q 37.796875 48.390625 30.609375 48.390625 
z
M 30.609375 56 
Q 42.328125 56 49.015625 48.375 
Q 55.71875 40.765625 55.71875 27.296875 
Q 55.71875 13.875 49.015625 6.21875 
Q 42.328125 -1.421875 30.609375 -1.421875 
Q 18.84375 -1.421875 12.171875 6.21875 
Q 5.515625 13.875 5.515625 27.296875 
Q 5.515625 40.765625 12.171875 48.375 
Q 18.84375 56 30.609375 56 
z
" id="DejaVuSans-111"/>
    <path d="M 2.984375 54.6875 
L 12.5 54.6875 
L 29.59375 8.796875 
L 46.6875 54.6875 
L 56.203125 54.6875 
L 35.6875 0 
L 23.484375 0 
z
" id="DejaVuSans-118"/>
    <path d="M 41.109375 46.296875 
Q 39.59375 47.171875 37.8125 47.578125 
Q 36.03125 48 33.890625 48 
Q 26.265625 48 22.1875 43.046875 
Q 18.109375 38.09375 18.109375 28.8125 
L 18.109375 0 
L 9.078125 0 
L 9.078125 54.6875 
L 18.109375 54.6875 
L 18.109375 46.1875 
Q 20.953125 51.171875 25.484375 53.578125 
Q 30.03125 56 36.53125 56 
Q 37.453125 56 38.578125 55.875 
Q 39.703125 55.765625 41.0625 55.515625 
z
" id="DejaVuSans-114"/>
    <path d="M 45.40625 27.984375 
Q 45.40625 37.75 41.375 43.109375 
Q 37.359375 48.484375 30.078125 48.484375 
Q 22.859375 48.484375 18.828125 43.109375 
Q 14.796875 37.75 14.796875 27.984375 
Q 14.796875 18.265625 18.828125 12.890625 
Q 22.859375 7.515625 30.078125 7.515625 
Q 37.359375 7.515625 41.375 12.890625 
Q 45.40625 18.265625 45.40625 27.984375 
z
M 54.390625 6.78125 
Q 54.390625 -7.171875 48.1875 -13.984375 
Q 42 -20.796875 29.203125 -20.796875 
Q 24.46875 -20.796875 20.265625 -20.09375 
Q 16.0625 -19.390625 12.109375 -17.921875 
L 12.109375 -9.1875 
Q 16.0625 -11.328125 19.921875 -12.34375 
Q 23.78125 -13.375 27.78125 -13.375 
Q 36.625 -13.375 41.015625 -8.765625 
Q 45.40625 -4.15625 45.40625 5.171875 
L 45.40625 9.625 
Q 42.625 4.78125 38.28125 2.390625 
Q 33.9375 0 27.875 0 
Q 17.828125 0 11.671875 7.65625 
Q 5.515625 15.328125 5.515625 27.984375 
Q 5.515625 40.671875 11.671875 48.328125 
Q 17.828125 56 27.875 56 
Q 33.9375 56 38.28125 53.609375 
Q 42.625 51.21875 45.40625 46.390625 
L 45.40625 54.6875 
L 54.390625 54.6875 
z
" id="DejaVuSans-103"/>
    <path d="M 18.3125 70.21875 
L 18.3125 54.6875 
L 36.8125 54.6875 
L 36.8125 47.703125 
L 18.3125 47.703125 
L 18.3125 18.015625 
Q 18.3125 11.328125 20.140625 9.421875 
Q 21.96875 7.515625 27.59375 7.515625 
L 36.8125 7.515625 
L 36.8125 0 
L 27.59375 0 
Q 17.1875 0 13.234375 3.875 
Q 9.28125 7.765625 9.28125 18.015625 
L 9.28125 47.703125 
L 2.6875 47.703125 
L 2.6875 54.6875 
L 9.28125 54.6875 
L 9.28125 70.21875 
z
" id="DejaVuSans-116"/>
    <path d="M 44.28125 53.078125 
L 44.28125 44.578125 
Q 40.484375 46.53125 36.375 47.5 
Q 32.28125 48.484375 27.875 48.484375 
Q 21.1875 48.484375 17.84375 46.4375 
Q 14.5 44.390625 14.5 40.28125 
Q 14.5 37.15625 16.890625 35.375 
Q 19.28125 33.59375 26.515625 31.984375 
L 29.59375 31.296875 
Q 39.15625 29.25 43.1875 25.515625 
Q 47.21875 21.78125 47.21875 15.09375 
Q 47.21875 7.46875 41.1875 3.015625 
Q 35.15625 -1.421875 24.609375 -1.421875 
Q 20.21875 -1.421875 15.453125 -0.5625 
Q 10.6875 0.296875 5.421875 2 
L 5.421875 11.28125 
Q 10.40625 8.6875 15.234375 7.390625 
Q 20.0625 6.109375 24.8125 6.109375 
Q 31.15625 6.109375 34.5625 8.28125 
Q 37.984375 10.453125 37.984375 14.40625 
Q 37.984375 18.0625 35.515625 20.015625 
Q 33.0625 21.96875 24.703125 23.78125 
L 21.578125 24.515625 
Q 13.234375 26.265625 9.515625 29.90625 
Q 5.8125 33.546875 5.8125 39.890625 
Q 5.8125 47.609375 11.28125 51.796875 
Q 16.75 56 26.8125 56 
Q 31.78125 56 36.171875 55.265625 
Q 40.578125 54.546875 44.28125 53.078125 
z
" id="DejaVuSans-115"/>
   </defs>
   <g transform="translate(140.184375 16.030125)scale(0.12 -0.12)">
    <use xlink:href="#DejaVuSans-107"/>
    <use x="56.160156" xlink:href="#DejaVuSans-97"/>
    <use x="117.439453" xlink:href="#DejaVuSans-112"/>
    <use x="180.916016" xlink:href="#DejaVuSans-112"/>
    <use x="244.392578" xlink:href="#DejaVuSans-97"/>
    <use x="305.671875" xlink:href="#DejaVuSans-46"/>
    <use x="337.458984" xlink:href="#DejaVuSans-109"/>
    <use x="434.871094" xlink:href="#DejaVuSans-101"/>
    <use x="496.394531" xlink:href="#DejaVuSans-97"/>
    <use x="557.673828" xlink:href="#DejaVuSans-110"/>
    <use x="621.052734" xlink:href="#DejaVuSans-32"/>
    <use x="652.839844" xlink:href="#DejaVuSans-111"/>
    <use x="714.021484" xlink:href="#DejaVuSans-118"/>
    <use x="773.201172" xlink:href="#DejaVuSans-101"/>
    <use x="834.724609" xlink:href="#DejaVuSans-114"/>
    <use x="875.837891" xlink:href="#DejaVuSans-32"/>
    <use x="907.625" xlink:href="#DejaVuSans-103"/>
    <use x="971.101562" xlink:href="#DejaVuSans-101"/>
    <use x="1032.625" xlink:href="#DejaVuSans-110"/>
    <use x="1096.003906" xlink:href="#DejaVuSans-101"/>
    <use x="1157.527344" xlink:href="#DejaVuSans-114"/>
    <use x="1198.640625" xlink:href="#DejaVuSans-97"/>
    <use x="1259.919922" xlink:href="#DejaVuSans-116"/>
    <use x="1299.128906" xlink:href="#DejaVuSans-105"/>
    <use x="1326.912109" xlink:href="#DejaVuSans-111"/>
    <use x="1388.09375" xlink:href="#DejaVuSans-110"/>
    <use x="1451.472656" xlink:href="#DejaVuSans-115"/>
   </g>
  </g>
 </g>
 <defs>
  <clipPath id="pce30c5b5b2">
   <rect height="266.112" width="357.12" x="57.6" y="41.472"/>
  </clipPath>
 </defs>
</svg>
