<?xml version="1.0" encoding="utf-8" standalone="no"?>
<!DOCTYPE svg PUBLIC "-//W3C//DTD SVG 1.1//EN"
  "http://www.w3.org/Graphics/SVG/1.1/DTD/svg11.dtd">
<!-- Created with matplotlib (https://matplotlib.org/) -->
<svg height="345.6pt" version="1.1" viewBox="0 0 460.8 345.6" width="460.8pt" xmlns="http://www.w3.org/2000/svg" xmlns:xlink="http://www.w3.org/1999/xlink">
 <defs>
  <style type="text/css">
*{stroke-linecap:butt;stroke-linejoin:round;}
  </style>
 </defs>
 <g id="figure_1">
  <g id="patch_1">
   <path d="M 0 345.6 
L 460.8 345.6 
L 460.8 0 
L 0 0 
z
" style="fill:#ffffff;"/>
  </g>
  <g id="axes_1">
   <g id="patch_2">
    <path d="M 57.6 307.584 
L 414.72 307.584 
L 414.72 41.472 
L 57.6 41.472 
z
" style="fill:#ffffff;"/>
   </g>
   <g id="PolyCollection_1">
    <path clip-path="url(#pc3a26da240)" d="M 73.832727 289.177161 
L 73.832727 289.709487 
L 75.464157 289.709487 
L 77.095587 289.709487 
L 78.727017 289.709487 
L 80.358447 289.709487 
L 81.989877 289.709487 
L 83.621307 289.709487 
L 85.252736 289.709487 
L 86.884166 289.709487 
L 88.515596 289.709487 
L 90.147026 289.709487 
L 91.778456 289.709487 
L 93.409886 289.709487 
L 95.041316 289.709487 
L 96.672746 289.709487 
L 98.304175 289.709487 
L 99.935605 289.709487 
L 101.567035 289.709487 
L 103.198465 289.709487 
L 104.829895 289.709487 
L 106.461325 289.709487 
L 108.092755 289.709487 
L 109.724185 289.709487 
L 111.355614 289.709487 
L 112.987044 289.709487 
L 114.618474 289.709487 
L 116.249904 289.709487 
L 117.881334 289.709487 
L 119.512764 289.709487 
L 121.144194 289.709487 
L 122.775624 289.709487 
L 124.407053 289.709487 
L 126.038483 289.709487 
L 127.669913 289.709487 
L 129.301343 289.709487 
L 130.932773 289.709487 
L 132.564203 289.709487 
L 134.195633 289.709487 
L 135.827063 289.709487 
L 137.458492 289.709487 
L 139.089922 289.709487 
L 140.721352 289.709487 
L 142.352782 289.709487 
L 143.984212 289.709487 
L 145.615642 289.709487 
L 147.247072 289.709487 
L 148.878502 289.709487 
L 150.509931 289.709487 
L 152.141361 289.709487 
L 153.772791 289.709487 
L 155.404221 289.709487 
L 157.035651 289.709487 
L 158.667081 289.709487 
L 160.298511 289.709487 
L 161.929941 289.709487 
L 163.56137 289.709487 
L 165.1928 289.709487 
L 166.82423 289.709487 
L 168.45566 289.709487 
L 170.08709 289.709487 
L 171.71852 289.709487 
L 173.34995 289.709487 
L 174.98138 289.709487 
L 176.61281 289.709487 
L 178.244239 289.709487 
L 179.875669 289.709487 
L 181.507099 289.709487 
L 183.138529 289.709487 
L 184.769959 289.709487 
L 186.401389 289.709487 
L 188.032819 289.709487 
L 189.664249 289.709487 
L 191.295678 289.709487 
L 192.927108 289.709487 
L 194.558538 289.709487 
L 196.189968 289.709487 
L 197.821398 289.709487 
L 199.452828 289.709487 
L 201.084258 289.709487 
L 202.715688 289.709487 
L 204.347117 289.709487 
L 205.978547 289.709487 
L 207.609977 289.537123 
L 209.241407 289.066561 
L 210.872837 289.419105 
L 212.504267 289.450606 
L 214.135697 289.582369 
L 215.767127 289.691925 
L 217.398556 289.761465 
L 219.029986 289.251433 
L 220.661416 290.332254 
L 222.292846 289.759551 
L 223.924276 289.882725 
L 225.555706 290.201462 
L 227.187136 289.988559 
L 228.818566 290.371755 
L 230.449995 291.081503 
L 232.081425 290.853543 
L 233.712855 291.406912 
L 235.344285 290.328318 
L 236.975715 290.738189 
L 238.607145 289.753763 
L 240.238575 289.842217 
L 241.870005 290.802488 
L 243.501434 290.362325 
L 245.132864 289.792201 
L 246.764294 289.713216 
L 248.395724 290.596462 
L 250.027154 289.734223 
L 251.658584 289.706966 
L 253.290014 289.709562 
L 254.921444 290.130545 
L 256.552873 290.285422 
L 258.184303 290.253602 
L 259.815733 291.469805 
L 261.447163 289.710467 
L 263.078593 289.988498 
L 264.710023 290.757969 
L 266.341453 289.709474 
L 267.972883 289.894452 
L 269.604312 293.479254 
L 271.235742 289.702365 
L 272.867172 291.682831 
L 274.498602 290.635011 
L 276.130032 291.329606 
L 277.761462 290.002885 
L 279.392892 290.608464 
L 281.024322 289.573711 
L 282.655751 290.639252 
L 284.287181 289.706166 
L 285.918611 290.595801 
L 287.550041 289.71001 
L 289.181471 291.074416 
L 290.812901 293.644005 
L 292.444331 292.677572 
L 294.075761 290.714997 
L 295.70719 290.887296 
L 297.33862 292.081487 
L 298.97005 292.919919 
L 300.60148 294.130512 
L 302.23291 289.688987 
L 303.86434 290.425125 
L 305.49577 290.199601 
L 307.1272 290.007933 
L 308.75863 290.512287 
L 310.390059 290.309733 
L 312.021489 290.122594 
L 313.652919 293.562299 
L 315.284349 291.162448 
L 316.915779 291.258902 
L 318.547209 290.172101 
L 320.178639 290.686787 
L 321.810069 289.910241 
L 323.441498 289.168785 
L 325.072928 290.004982 
L 326.704358 291.134641 
L 328.335788 289.709489 
L 329.967218 291.082478 
L 331.598648 290.885502 
L 333.230078 289.776508 
L 334.861508 289.522911 
L 336.492937 289.731183 
L 338.124367 289.765718 
L 339.755797 290.143151 
L 341.387227 290.512758 
L 343.018657 292.240155 
L 344.650087 291.249089 
L 346.281517 290.27263 
L 347.912947 291.63231 
L 349.544376 289.830828 
L 351.175806 290.580245 
L 352.807236 290.131842 
L 354.438666 290.501397 
L 356.070096 289.808047 
L 357.701526 290.205836 
L 359.332956 290.782084 
L 360.964386 291.369804 
L 362.595815 291.230982 
L 364.227245 289.733344 
L 365.858675 290.014124 
L 367.490105 289.852275 
L 369.121535 289.678583 
L 370.752965 291.591868 
L 372.384395 291.1702 
L 374.015825 290.344799 
L 375.647254 291.245 
L 377.278684 290.616109 
L 378.910114 290.726638 
L 380.541544 291.19284 
L 382.172974 290.586751 
L 383.804404 289.717992 
L 385.435834 290.054126 
L 387.067264 289.754009 
L 388.698693 288.729104 
L 390.330123 292.476376 
L 391.961553 290.189989 
L 393.592983 290.990075 
L 395.224413 289.840118 
L 396.855843 290.57055 
L 398.487273 290.427237 
L 398.487273 288.063614 
L 398.487273 288.063614 
L 396.855843 283.254793 
L 395.224413 282.215628 
L 393.592983 279.793015 
L 391.961553 235.975687 
L 390.330123 288.783903 
L 388.698693 260.570993 
L 387.067264 288.667621 
L 385.435834 283.792042 
L 383.804404 284.828621 
L 382.172974 273.015009 
L 380.541544 279.738506 
L 378.910114 266.25757 
L 377.278684 288.453992 
L 375.647254 278.971881 
L 374.015825 282.074914 
L 372.384395 282.784012 
L 370.752965 283.192337 
L 369.121535 285.093911 
L 367.490105 283.456091 
L 365.858675 283.533174 
L 364.227245 284.965263 
L 362.595815 279.365737 
L 360.964386 254.727343 
L 359.332956 281.790026 
L 357.701526 288.719226 
L 356.070096 283.634966 
L 354.438666 284.989284 
L 352.807236 278.737053 
L 351.175806 284.376039 
L 349.544376 280.616671 
L 347.912947 283.246885 
L 346.281517 276.24207 
L 344.650087 281.1669 
L 343.018657 271.818319 
L 341.387227 284.219156 
L 339.755797 288.325655 
L 338.124367 285.069575 
L 336.492937 286.82878 
L 334.861508 287.613963 
L 333.230078 275.458711 
L 331.598648 285.363402 
L 329.967218 277.621457 
L 328.335788 284.401517 
L 326.704358 283.844376 
L 325.072928 285.994854 
L 323.441498 281.329441 
L 321.810069 274.058597 
L 320.178639 283.966619 
L 318.547209 287.000718 
L 316.915779 275.66248 
L 315.284349 283.807773 
L 313.652919 285.941178 
L 312.021489 284.903617 
L 310.390059 281.313329 
L 308.75863 284.312389 
L 307.1272 267.674991 
L 305.49577 282.655406 
L 303.86434 285.675047 
L 302.23291 285.668448 
L 300.60148 284.240052 
L 298.97005 284.914396 
L 297.33862 286.062546 
L 295.70719 280.760912 
L 294.075761 284.367445 
L 292.444331 276.201697 
L 290.812901 279.375323 
L 289.181471 283.761632 
L 287.550041 288.513709 
L 285.918611 261.112682 
L 284.287181 288.431132 
L 282.655751 284.717507 
L 281.024322 288.140889 
L 279.392892 287.685613 
L 277.761462 286.354704 
L 276.130032 288.651888 
L 274.498602 278.981195 
L 272.867172 288.798341 
L 271.235742 283.588364 
L 269.604312 281.307672 
L 267.972883 284.78251 
L 266.341453 283.08817 
L 264.710023 275.180494 
L 263.078593 286.638608 
L 261.447163 286.331159 
L 259.815733 283.117197 
L 258.184303 282.854161 
L 256.552873 284.664143 
L 254.921444 275.258739 
L 253.290014 288.066417 
L 251.658584 278.646049 
L 250.027154 284.891628 
L 248.395724 284.354187 
L 246.764294 278.495967 
L 245.132864 287.582203 
L 243.501434 272.938125 
L 241.870005 285.211929 
L 240.238575 283.057398 
L 238.607145 282.052368 
L 236.975715 280.269913 
L 235.344285 287.051707 
L 233.712855 285.036581 
L 232.081425 284.225421 
L 230.449995 289.272091 
L 228.818566 286.848341 
L 227.187136 286.773487 
L 225.555706 283.458783 
L 223.924276 279.747323 
L 222.292846 286.145394 
L 220.661416 287.46258 
L 219.029986 280.360171 
L 217.398556 285.140669 
L 215.767127 286.024395 
L 214.135697 287.409746 
L 212.504267 285.743966 
L 210.872837 276.663702 
L 209.241407 284.983207 
L 207.609977 288.282709 
L 205.978547 268.357685 
L 204.347117 288.378671 
L 202.715688 288.910997 
L 201.084258 288.378671 
L 199.452828 289.027913 
L 197.821398 288.910997 
L 196.189968 289.385436 
L 194.558538 289.177161 
L 192.927108 289.177161 
L 191.295678 289.177161 
L 189.664249 289.385436 
L 188.032819 289.385436 
L 186.401389 289.385436 
L 184.769959 289.177161 
L 183.138529 288.644834 
L 181.507099 288.644834 
L 179.875669 288.644834 
L 178.244239 288.910997 
L 176.61281 289.177161 
L 174.98138 288.910997 
L 173.34995 289.385436 
L 171.71852 288.910997 
L 170.08709 288.644834 
L 168.45566 288.910997 
L 166.82423 289.177161 
L 165.1928 289.385436 
L 163.56137 288.644834 
L 161.929941 289.177161 
L 160.298511 288.644834 
L 158.667081 289.177161 
L 157.035651 289.177161 
L 155.404221 289.177161 
L 153.772791 289.177161 
L 152.141361 288.910997 
L 150.509931 289.385436 
L 148.878502 289.385436 
L 147.247072 288.910997 
L 145.615642 289.443324 
L 143.984212 289.385436 
L 142.352782 288.910997 
L 140.721352 289.177161 
L 139.089922 289.385436 
L 137.458492 289.177161 
L 135.827063 288.378671 
L 134.195633 289.177161 
L 132.564203 288.910997 
L 130.932773 288.910997 
L 129.301343 289.428852 
L 127.669913 289.177161 
L 126.038483 288.644834 
L 124.407053 289.385436 
L 122.775624 289.385436 
L 121.144194 288.644834 
L 119.512764 289.385436 
L 117.881334 288.910997 
L 116.249904 289.385436 
L 114.618474 289.177161 
L 112.987044 289.385436 
L 111.355614 289.177161 
L 109.724185 289.385436 
L 108.092755 288.910997 
L 106.461325 288.910997 
L 104.829895 289.177161 
L 103.198465 288.644834 
L 101.567035 289.385436 
L 99.935605 288.910997 
L 98.304175 289.177161 
L 96.672746 289.177161 
L 95.041316 288.644834 
L 93.409886 289.385436 
L 91.778456 289.177161 
L 90.147026 288.644834 
L 88.515596 288.910997 
L 86.884166 289.177161 
L 85.252736 289.385436 
L 83.621307 289.177161 
L 81.989877 289.177161 
L 80.358447 288.910997 
L 78.727017 289.177161 
L 77.095587 288.910997 
L 75.464157 289.385436 
L 73.832727 289.177161 
z
" style="fill:#1f77b4;fill-opacity:0.2;"/>
   </g>
   <g id="PolyCollection_2">
    <path clip-path="url(#pc3a26da240)" d="M 73.832727 288.378671 
L 73.832727 289.709487 
L 75.464157 289.709487 
L 77.095587 289.709487 
L 78.727017 289.709487 
L 80.358447 289.709487 
L 81.989877 289.709487 
L 83.621307 289.709487 
L 85.252736 289.709487 
L 86.884166 289.709487 
L 88.515596 289.709487 
L 90.147026 289.709487 
L 91.778456 289.709487 
L 93.409886 289.709487 
L 95.041316 289.709487 
L 96.672746 289.709487 
L 98.304175 289.709487 
L 99.935605 289.709487 
L 101.567035 289.709487 
L 103.198465 289.709487 
L 104.829895 289.709487 
L 106.461325 289.709487 
L 108.092755 289.709487 
L 109.724185 289.709487 
L 111.355614 289.709487 
L 112.987044 289.709487 
L 114.618474 289.709487 
L 116.249904 289.709487 
L 117.881334 289.709487 
L 119.512764 289.709487 
L 121.144194 289.709487 
L 122.775624 289.709487 
L 124.407053 289.709487 
L 126.038483 289.709487 
L 127.669913 289.709487 
L 129.301343 289.709487 
L 130.932773 289.709487 
L 132.564203 289.709487 
L 134.195633 289.709487 
L 135.827063 289.709487 
L 137.458492 289.709487 
L 139.089922 289.709487 
L 140.721352 289.709487 
L 142.352782 289.709487 
L 143.984212 289.709487 
L 145.615642 289.709487 
L 147.247072 289.709487 
L 148.878502 289.709487 
L 150.509931 289.709487 
L 152.141361 289.709487 
L 153.772791 289.709487 
L 155.404221 289.709487 
L 157.035651 289.709487 
L 158.667081 289.709487 
L 160.298511 289.709487 
L 161.929941 289.709487 
L 163.56137 289.709487 
L 165.1928 289.709487 
L 166.82423 289.709487 
L 168.45566 289.709487 
L 170.08709 289.709487 
L 171.71852 289.709487 
L 173.34995 289.709487 
L 174.98138 289.709487 
L 176.61281 289.709487 
L 178.244239 289.709487 
L 179.875669 289.709487 
L 181.507099 289.709487 
L 183.138529 289.709487 
L 184.769959 289.709487 
L 186.401389 289.709487 
L 188.032819 289.709487 
L 189.664249 289.709487 
L 191.295678 289.709487 
L 192.927108 289.709487 
L 194.558538 289.709487 
L 196.189968 289.709487 
L 197.821398 289.709487 
L 199.452828 289.709487 
L 201.084258 289.709487 
L 202.715688 289.709487 
L 204.347117 289.709487 
L 205.978547 289.709487 
L 207.609977 289.876812 
L 209.241407 289.709487 
L 210.872837 289.709487 
L 212.504267 289.709487 
L 214.135697 290.14138 
L 215.767127 290.620338 
L 217.398556 291.61393 
L 219.029986 292.22333 
L 220.661416 292.19588 
L 222.292846 292.593146 
L 223.924276 292.349174 
L 225.555706 292.25389 
L 227.187136 292.171093 
L 228.818566 293.428186 
L 230.449995 293.501433 
L 232.081425 293.452687 
L 233.712855 293.621268 
L 235.344285 293.436633 
L 236.975715 294.081517 
L 238.607145 294.050409 
L 240.238575 294.40475 
L 241.870005 294.815958 
L 243.501434 295.192965 
L 245.132864 294.435141 
L 246.764294 294.431163 
L 248.395724 294.384368 
L 250.027154 294.357728 
L 251.658584 294.344327 
L 253.290014 294.776618 
L 254.921444 295.038939 
L 256.552873 294.747357 
L 258.184303 294.286054 
L 259.815733 294.279278 
L 261.447163 294.22744 
L 263.078593 294.56541 
L 264.710023 294.436467 
L 266.341453 294.290508 
L 267.972883 294.139101 
L 269.604312 294.742105 
L 271.235742 294.178573 
L 272.867172 294.159816 
L 274.498602 295.191453 
L 276.130032 294.550164 
L 277.761462 294.507142 
L 279.392892 294.846443 
L 281.024322 294.196411 
L 282.655751 294.179624 
L 284.287181 294.159371 
L 285.918611 294.150789 
L 287.550041 294.134996 
L 289.181471 294.511824 
L 290.812901 294.896963 
L 292.444331 295.028891 
L 294.075761 294.580993 
L 295.70719 294.566691 
L 297.33862 294.449687 
L 298.97005 294.414079 
L 300.60148 295.313008 
L 302.23291 294.989315 
L 303.86434 294.482294 
L 305.49577 295.317077 
L 307.1272 295.065827 
L 308.75863 294.26891 
L 310.390059 294.755492 
L 312.021489 295.211389 
L 313.652919 294.257048 
L 315.284349 295.009931 
L 316.915779 295.030659 
L 318.547209 294.236996 
L 320.178639 294.193294 
L 321.810069 294.143406 
L 323.441498 294.067059 
L 325.072928 294.066895 
L 326.704358 294.907709 
L 328.335788 294.869021 
L 329.967218 295.29674 
L 331.598648 294.474981 
L 333.230078 294.995471 
L 334.861508 294.685116 
L 336.492937 294.548624 
L 338.124367 294.547259 
L 339.755797 294.54668 
L 341.387227 294.480615 
L 343.018657 295.485503 
L 344.650087 295.488 
L 346.281517 295.24316 
L 347.912947 294.700287 
L 349.544376 294.414877 
L 351.175806 294.916454 
L 352.807236 294.70215 
L 354.438666 294.403045 
L 356.070096 294.929657 
L 357.701526 294.648562 
L 359.332956 294.523397 
L 360.964386 295.449553 
L 362.595815 294.661329 
L 364.227245 295.406465 
L 365.858675 294.646846 
L 367.490105 294.596686 
L 369.121535 294.562879 
L 370.752965 294.545256 
L 372.384395 294.50905 
L 374.015825 295.211172 
L 375.647254 294.690848 
L 377.278684 294.647535 
L 378.910114 295.419192 
L 380.541544 294.674132 
L 382.172974 294.667002 
L 383.804404 294.65575 
L 385.435834 294.592317 
L 387.067264 294.652767 
L 388.698693 294.281746 
L 390.330123 294.266522 
L 391.961553 294.427843 
L 393.592983 295.464588 
L 395.224413 294.777516 
L 396.855843 294.855202 
L 398.487273 294.356513 
L 398.487273 143.67019 
L 398.487273 143.67019 
L 396.855843 124.685266 
L 395.224413 145.020109 
L 393.592983 117.586699 
L 391.961553 149.183334 
L 390.330123 117.747013 
L 388.698693 184.17441 
L 387.067264 86.271835 
L 385.435834 170.860555 
L 383.804404 125.02677 
L 382.172974 112.623397 
L 380.541544 169.308789 
L 378.910114 104.444483 
L 377.278684 109.247029 
L 375.647254 132.246598 
L 374.015825 131.605335 
L 372.384395 135.646552 
L 370.752965 132.195812 
L 369.121535 148.521805 
L 367.490105 165.746089 
L 365.858675 166.739403 
L 364.227245 70.521107 
L 362.595815 95.773938 
L 360.964386 109.493892 
L 359.332956 180.568308 
L 357.701526 88.463651 
L 356.070096 141.352846 
L 354.438666 141.16826 
L 352.807236 148.851403 
L 351.175806 157.655731 
L 349.544376 174.16553 
L 347.912947 110.805948 
L 346.281517 93.669919 
L 344.650087 119.450507 
L 343.018657 94.087129 
L 341.387227 120.654496 
L 339.755797 121.110613 
L 338.124367 103.664327 
L 336.492937 106.170985 
L 334.861508 71.979793 
L 333.230078 106.400002 
L 331.598648 53.568 
L 329.967218 94.087129 
L 328.335788 117.768134 
L 326.704358 114.691546 
L 325.072928 220.19222 
L 323.441498 162.500251 
L 321.810069 127.435944 
L 320.178639 150.670073 
L 318.547209 181.814473 
L 316.915779 95.758025 
L 315.284349 120.992708 
L 313.652919 158.979849 
L 312.021489 102.530507 
L 310.390059 125.737263 
L 308.75863 168.065032 
L 307.1272 104.366508 
L 305.49577 95.940167 
L 303.86434 186.729429 
L 302.23291 239.805786 
L 300.60148 119.434828 
L 298.97005 153.222528 
L 297.33862 139.53591 
L 295.70719 116.523547 
L 294.075761 164.497863 
L 292.444331 119.35554 
L 290.812901 94.741774 
L 289.181471 109.862493 
L 287.550041 111.571388 
L 285.918611 152.446839 
L 284.287181 93.531153 
L 282.655751 143.657949 
L 281.024322 165.591017 
L 279.392892 180.583762 
L 277.761462 206.621958 
L 276.130032 149.642201 
L 274.498602 94.534969 
L 272.867172 157.502955 
L 271.235742 176.682265 
L 269.604312 166.125673 
L 267.972883 166.782806 
L 266.341453 136.612253 
L 264.710023 94.340921 
L 263.078593 108.795276 
L 261.447163 193.652699 
L 259.815733 114.622708 
L 258.184303 192.006959 
L 256.552873 164.529442 
L 254.921444 96.786944 
L 253.290014 151.989518 
L 251.658584 148.698576 
L 250.027154 198.388927 
L 248.395724 136.0153 
L 246.764294 130.598008 
L 245.132864 174.001445 
L 243.501434 113.658745 
L 241.870005 191.2329 
L 240.238575 178.040177 
L 238.607145 175.562665 
L 236.975715 182.215075 
L 235.344285 68.411382 
L 233.712855 181.23137 
L 232.081425 182.487826 
L 230.449995 254.436926 
L 228.818566 192.31365 
L 227.187136 170.192015 
L 225.555706 148.630722 
L 223.924276 185.645096 
L 222.292846 178.428298 
L 220.661416 215.651231 
L 219.029986 172.556395 
L 217.398556 219.531715 
L 215.767127 197.974791 
L 214.135697 210.252323 
L 212.504267 234.547961 
L 210.872837 200.391461 
L 209.241407 258.78222 
L 207.609977 159.296793 
L 205.978547 196.663048 
L 204.347117 219.729078 
L 202.715688 163.429152 
L 201.084258 254.856396 
L 199.452828 270.573614 
L 197.821398 288.378671 
L 196.189968 288.378671 
L 194.558538 288.378671 
L 192.927108 288.378671 
L 191.295678 288.378671 
L 189.664249 288.378671 
L 188.032819 288.378671 
L 186.401389 288.378671 
L 184.769959 288.378671 
L 183.138529 288.378671 
L 181.507099 288.378671 
L 179.875669 288.378671 
L 178.244239 288.378671 
L 176.61281 288.378671 
L 174.98138 288.378671 
L 173.34995 288.378671 
L 171.71852 288.378671 
L 170.08709 288.378671 
L 168.45566 288.378671 
L 166.82423 288.378671 
L 165.1928 288.378671 
L 163.56137 288.378671 
L 161.929941 288.378671 
L 160.298511 288.378671 
L 158.667081 288.378671 
L 157.035651 288.378671 
L 155.404221 288.378671 
L 153.772791 288.378671 
L 152.141361 288.378671 
L 150.509931 288.378671 
L 148.878502 288.378671 
L 147.247072 288.378671 
L 145.615642 288.378671 
L 143.984212 288.378671 
L 142.352782 288.378671 
L 140.721352 288.378671 
L 139.089922 288.378671 
L 137.458492 288.378671 
L 135.827063 288.378671 
L 134.195633 288.378671 
L 132.564203 288.378671 
L 130.932773 288.378671 
L 129.301343 288.378671 
L 127.669913 288.378671 
L 126.038483 288.378671 
L 124.407053 288.378671 
L 122.775624 288.378671 
L 121.144194 288.378671 
L 119.512764 288.378671 
L 117.881334 288.378671 
L 116.249904 288.378671 
L 114.618474 288.378671 
L 112.987044 288.378671 
L 111.355614 288.378671 
L 109.724185 288.378671 
L 108.092755 288.378671 
L 106.461325 288.378671 
L 104.829895 288.378671 
L 103.198465 288.378671 
L 101.567035 288.378671 
L 99.935605 288.378671 
L 98.304175 288.378671 
L 96.672746 288.378671 
L 95.041316 288.378671 
L 93.409886 288.378671 
L 91.778456 288.378671 
L 90.147026 288.378671 
L 88.515596 288.378671 
L 86.884166 288.378671 
L 85.252736 288.378671 
L 83.621307 288.378671 
L 81.989877 288.378671 
L 80.358447 288.378671 
L 78.727017 288.378671 
L 77.095587 288.378671 
L 75.464157 288.378671 
L 73.832727 288.378671 
z
" style="fill:#1f77b4;fill-opacity:0.1;"/>
   </g>
   <g id="matplotlib.axis_1">
    <g id="xtick_1">
     <g id="line2d_1">
      <defs>
       <path d="M 0 0 
L 0 3.5 
" id="m69a45a96a9" style="stroke:#000000;stroke-width:0.8;"/>
      </defs>
      <g>
       <use style="stroke:#000000;stroke-width:0.8;" x="73.832727" xlink:href="#m69a45a96a9" y="307.584"/>
      </g>
     </g>
     <g id="text_1">
      <!-- 0 -->
      <defs>
       <path d="M 31.78125 66.40625 
Q 24.171875 66.40625 20.328125 58.90625 
Q 16.5 51.421875 16.5 36.375 
Q 16.5 21.390625 20.328125 13.890625 
Q 24.171875 6.390625 31.78125 6.390625 
Q 39.453125 6.390625 43.28125 13.890625 
Q 47.125 21.390625 47.125 36.375 
Q 47.125 51.421875 43.28125 58.90625 
Q 39.453125 66.40625 31.78125 66.40625 
z
M 31.78125 74.21875 
Q 44.046875 74.21875 50.515625 64.515625 
Q 56.984375 54.828125 56.984375 36.375 
Q 56.984375 17.96875 50.515625 8.265625 
Q 44.046875 -1.421875 31.78125 -1.421875 
Q 19.53125 -1.421875 13.0625 8.265625 
Q 6.59375 17.96875 6.59375 36.375 
Q 6.59375 54.828125 13.0625 64.515625 
Q 19.53125 74.21875 31.78125 74.21875 
z
" id="DejaVuSans-48"/>
      </defs>
      <g transform="translate(70.651477 322.182437)scale(0.1 -0.1)">
       <use xlink:href="#DejaVuSans-48"/>
      </g>
     </g>
    </g>
    <g id="xtick_2">
     <g id="line2d_2">
      <g>
       <use style="stroke:#000000;stroke-width:0.8;" x="114.618474" xlink:href="#m69a45a96a9" y="307.584"/>
      </g>
     </g>
     <g id="text_2">
      <!-- 25 -->
      <defs>
       <path d="M 19.1875 8.296875 
L 53.609375 8.296875 
L 53.609375 0 
L 7.328125 0 
L 7.328125 8.296875 
Q 12.9375 14.109375 22.625 23.890625 
Q 32.328125 33.6875 34.8125 36.53125 
Q 39.546875 41.84375 41.421875 45.53125 
Q 43.3125 49.21875 43.3125 52.78125 
Q 43.3125 58.59375 39.234375 62.25 
Q 35.15625 65.921875 28.609375 65.921875 
Q 23.96875 65.921875 18.8125 64.3125 
Q 13.671875 62.703125 7.8125 59.421875 
L 7.8125 69.390625 
Q 13.765625 71.78125 18.9375 73 
Q 24.125 74.21875 28.421875 74.21875 
Q 39.75 74.21875 46.484375 68.546875 
Q 53.21875 62.890625 53.21875 53.421875 
Q 53.21875 48.921875 51.53125 44.890625 
Q 49.859375 40.875 45.40625 35.40625 
Q 44.1875 33.984375 37.640625 27.21875 
Q 31.109375 20.453125 19.1875 8.296875 
z
" id="DejaVuSans-50"/>
       <path d="M 10.796875 72.90625 
L 49.515625 72.90625 
L 49.515625 64.59375 
L 19.828125 64.59375 
L 19.828125 46.734375 
Q 21.96875 47.46875 24.109375 47.828125 
Q 26.265625 48.1875 28.421875 48.1875 
Q 40.625 48.1875 47.75 41.5 
Q 54.890625 34.8125 54.890625 23.390625 
Q 54.890625 11.625 47.5625 5.09375 
Q 40.234375 -1.421875 26.90625 -1.421875 
Q 22.3125 -1.421875 17.546875 -0.640625 
Q 12.796875 0.140625 7.71875 1.703125 
L 7.71875 11.625 
Q 12.109375 9.234375 16.796875 8.0625 
Q 21.484375 6.890625 26.703125 6.890625 
Q 35.15625 6.890625 40.078125 11.328125 
Q 45.015625 15.765625 45.015625 23.390625 
Q 45.015625 31 40.078125 35.4375 
Q 35.15625 39.890625 26.703125 39.890625 
Q 22.75 39.890625 18.8125 39.015625 
Q 14.890625 38.140625 10.796875 36.28125 
z
" id="DejaVuSans-53"/>
      </defs>
      <g transform="translate(108.255974 322.182437)scale(0.1 -0.1)">
       <use xlink:href="#DejaVuSans-50"/>
       <use x="63.623047" xlink:href="#DejaVuSans-53"/>
      </g>
     </g>
    </g>
    <g id="xtick_3">
     <g id="line2d_3">
      <g>
       <use style="stroke:#000000;stroke-width:0.8;" x="155.404221" xlink:href="#m69a45a96a9" y="307.584"/>
      </g>
     </g>
     <g id="text_3">
      <!-- 50 -->
      <g transform="translate(149.041721 322.182437)scale(0.1 -0.1)">
       <use xlink:href="#DejaVuSans-53"/>
       <use x="63.623047" xlink:href="#DejaVuSans-48"/>
      </g>
     </g>
    </g>
    <g id="xtick_4">
     <g id="line2d_4">
      <g>
       <use style="stroke:#000000;stroke-width:0.8;" x="196.189968" xlink:href="#m69a45a96a9" y="307.584"/>
      </g>
     </g>
     <g id="text_4">
      <!-- 75 -->
      <defs>
       <path d="M 8.203125 72.90625 
L 55.078125 72.90625 
L 55.078125 68.703125 
L 28.609375 0 
L 18.3125 0 
L 43.21875 64.59375 
L 8.203125 64.59375 
z
" id="DejaVuSans-55"/>
      </defs>
      <g transform="translate(189.827468 322.182437)scale(0.1 -0.1)">
       <use xlink:href="#DejaVuSans-55"/>
       <use x="63.623047" xlink:href="#DejaVuSans-53"/>
      </g>
     </g>
    </g>
    <g id="xtick_5">
     <g id="line2d_5">
      <g>
       <use style="stroke:#000000;stroke-width:0.8;" x="236.975715" xlink:href="#m69a45a96a9" y="307.584"/>
      </g>
     </g>
     <g id="text_5">
      <!-- 100 -->
      <defs>
       <path d="M 12.40625 8.296875 
L 28.515625 8.296875 
L 28.515625 63.921875 
L 10.984375 60.40625 
L 10.984375 69.390625 
L 28.421875 72.90625 
L 38.28125 72.90625 
L 38.28125 8.296875 
L 54.390625 8.296875 
L 54.390625 0 
L 12.40625 0 
z
" id="DejaVuSans-49"/>
      </defs>
      <g transform="translate(227.431965 322.182437)scale(0.1 -0.1)">
       <use xlink:href="#DejaVuSans-49"/>
       <use x="63.623047" xlink:href="#DejaVuSans-48"/>
       <use x="127.246094" xlink:href="#DejaVuSans-48"/>
      </g>
     </g>
    </g>
    <g id="xtick_6">
     <g id="line2d_6">
      <g>
       <use style="stroke:#000000;stroke-width:0.8;" x="277.761462" xlink:href="#m69a45a96a9" y="307.584"/>
      </g>
     </g>
     <g id="text_6">
      <!-- 125 -->
      <g transform="translate(268.217712 322.182437)scale(0.1 -0.1)">
       <use xlink:href="#DejaVuSans-49"/>
       <use x="63.623047" xlink:href="#DejaVuSans-50"/>
       <use x="127.246094" xlink:href="#DejaVuSans-53"/>
      </g>
     </g>
    </g>
    <g id="xtick_7">
     <g id="line2d_7">
      <g>
       <use style="stroke:#000000;stroke-width:0.8;" x="318.547209" xlink:href="#m69a45a96a9" y="307.584"/>
      </g>
     </g>
     <g id="text_7">
      <!-- 150 -->
      <g transform="translate(309.003459 322.182437)scale(0.1 -0.1)">
       <use xlink:href="#DejaVuSans-49"/>
       <use x="63.623047" xlink:href="#DejaVuSans-53"/>
       <use x="127.246094" xlink:href="#DejaVuSans-48"/>
      </g>
     </g>
    </g>
    <g id="xtick_8">
     <g id="line2d_8">
      <g>
       <use style="stroke:#000000;stroke-width:0.8;" x="359.332956" xlink:href="#m69a45a96a9" y="307.584"/>
      </g>
     </g>
     <g id="text_8">
      <!-- 175 -->
      <g transform="translate(349.789206 322.182437)scale(0.1 -0.1)">
       <use xlink:href="#DejaVuSans-49"/>
       <use x="63.623047" xlink:href="#DejaVuSans-55"/>
       <use x="127.246094" xlink:href="#DejaVuSans-53"/>
      </g>
     </g>
    </g>
    <g id="xtick_9">
     <g id="line2d_9">
      <g>
       <use style="stroke:#000000;stroke-width:0.8;" x="400.118703" xlink:href="#m69a45a96a9" y="307.584"/>
      </g>
     </g>
     <g id="text_9">
      <!-- 200 -->
      <g transform="translate(390.574953 322.182437)scale(0.1 -0.1)">
       <use xlink:href="#DejaVuSans-50"/>
       <use x="63.623047" xlink:href="#DejaVuSans-48"/>
       <use x="127.246094" xlink:href="#DejaVuSans-48"/>
      </g>
     </g>
    </g>
   </g>
   <g id="matplotlib.axis_2">
    <g id="ytick_1">
     <g id="line2d_10">
      <defs>
       <path d="M 0 0 
L -3.5 0 
" id="m2f41a7e5f7" style="stroke:#000000;stroke-width:0.8;"/>
      </defs>
      <g>
       <use style="stroke:#000000;stroke-width:0.8;" x="57.6" xlink:href="#m2f41a7e5f7" y="301.94431"/>
      </g>
     </g>
     <g id="text_10">
      <!-- 0 -->
      <g transform="translate(44.2375 305.743529)scale(0.1 -0.1)">
       <use xlink:href="#DejaVuSans-48"/>
      </g>
     </g>
    </g>
    <g id="ytick_2">
     <g id="line2d_11">
      <g>
       <use style="stroke:#000000;stroke-width:0.8;" x="57.6" xlink:href="#m2f41a7e5f7" y="246.261229"/>
      </g>
     </g>
     <g id="text_11">
      <!-- 5 -->
      <g transform="translate(44.2375 250.060447)scale(0.1 -0.1)">
       <use xlink:href="#DejaVuSans-53"/>
      </g>
     </g>
    </g>
    <g id="ytick_3">
     <g id="line2d_12">
      <g>
       <use style="stroke:#000000;stroke-width:0.8;" x="57.6" xlink:href="#m2f41a7e5f7" y="190.578147"/>
      </g>
     </g>
     <g id="text_12">
      <!-- 10 -->
      <g transform="translate(37.875 194.377366)scale(0.1 -0.1)">
       <use xlink:href="#DejaVuSans-49"/>
       <use x="63.623047" xlink:href="#DejaVuSans-48"/>
      </g>
     </g>
    </g>
    <g id="ytick_4">
     <g id="line2d_13">
      <g>
       <use style="stroke:#000000;stroke-width:0.8;" x="57.6" xlink:href="#m2f41a7e5f7" y="134.895065"/>
      </g>
     </g>
     <g id="text_13">
      <!-- 15 -->
      <g transform="translate(37.875 138.694284)scale(0.1 -0.1)">
       <use xlink:href="#DejaVuSans-49"/>
       <use x="63.623047" xlink:href="#DejaVuSans-53"/>
      </g>
     </g>
    </g>
    <g id="ytick_5">
     <g id="line2d_14">
      <g>
       <use style="stroke:#000000;stroke-width:0.8;" x="57.6" xlink:href="#m2f41a7e5f7" y="79.211984"/>
      </g>
     </g>
     <g id="text_14">
      <!-- 20 -->
      <g transform="translate(37.875 83.011203)scale(0.1 -0.1)">
       <use xlink:href="#DejaVuSans-50"/>
       <use x="63.623047" xlink:href="#DejaVuSans-48"/>
      </g>
     </g>
    </g>
   </g>
   <g id="line2d_15">
    <path clip-path="url(#pc3a26da240)" d="M 73.832727 289.709487 
L 78.727017 289.709487 
L 81.989877 289.385436 
L 83.621307 289.709487 
L 90.147026 289.709487 
L 91.778456 289.385436 
L 93.409886 289.709487 
L 98.304175 289.709487 
L 99.935605 289.385436 
L 101.567035 289.709487 
L 103.198465 289.709487 
L 104.829895 289.385436 
L 106.461325 289.709487 
L 108.092755 289.385436 
L 109.724185 289.443324 
L 111.355614 289.709487 
L 112.987044 289.709487 
L 114.618474 289.385436 
L 116.249904 289.709487 
L 117.881334 289.385436 
L 119.512764 289.709487 
L 121.144194 289.385436 
L 122.775624 289.709487 
L 126.038483 289.709487 
L 127.669913 289.385436 
L 129.301343 289.709487 
L 140.721352 289.709487 
L 142.352782 289.385436 
L 143.984212 289.709487 
L 147.247072 289.709487 
L 148.878502 289.443324 
L 153.772791 289.385436 
L 155.404221 289.709487 
L 158.667081 289.385436 
L 160.298511 289.709487 
L 161.929941 289.709487 
L 163.56137 289.385436 
L 165.1928 289.443324 
L 166.82423 289.709487 
L 168.45566 289.385436 
L 170.08709 289.709487 
L 171.71852 289.709487 
L 173.34995 289.576405 
L 174.98138 289.709487 
L 178.244239 289.709487 
L 179.875669 289.385436 
L 181.507099 289.709487 
L 183.138529 289.385436 
L 184.769959 289.385436 
L 186.401389 289.709487 
L 192.927108 289.709487 
L 194.558538 289.385436 
L 196.189968 289.443324 
L 197.821398 289.709487 
L 199.452828 289.709487 
L 201.084258 289.385436 
L 202.715688 289.709487 
L 204.347117 288.644834 
L 205.978547 288.489994 
L 209.241407 288.727394 
L 210.872837 288.450335 
L 212.504267 288.665381 
L 214.135697 289.401571 
L 215.767127 289.456347 
L 217.398556 289.246499 
L 219.029986 282.212663 
L 220.661416 289.144757 
L 222.292846 289.290767 
L 223.924276 287.129771 
L 225.555706 289.456329 
L 227.187136 289.377952 
L 228.818566 289.880133 
L 230.449995 290.145597 
L 232.081425 288.827732 
L 233.712855 289.346802 
L 235.344285 289.708235 
L 236.975715 288.739105 
L 238.607145 286.009515 
L 240.238575 286.5253 
L 241.870005 289.092063 
L 243.501434 288.710662 
L 245.132864 289.487784 
L 246.764294 288.774669 
L 248.395724 288.232508 
L 250.027154 289.312875 
L 251.658584 283.527246 
L 253.290014 289.672696 
L 254.921444 289.145536 
L 256.552873 289.005602 
L 258.184303 289.027918 
L 259.815733 289.690373 
L 261.447163 289.250115 
L 263.078593 289.157156 
L 264.710023 289.6998 
L 266.341453 289.063219 
L 267.972883 289.688881 
L 269.604312 289.709486 
L 271.235742 289.326234 
L 272.867172 289.706379 
L 274.498602 289.494069 
L 276.130032 289.70962 
L 279.392892 289.709622 
L 281.024322 288.683887 
L 282.655751 289.064154 
L 284.287181 289.676457 
L 285.918611 286.466959 
L 287.550041 289.391681 
L 289.181471 288.923792 
L 290.812901 289.017306 
L 292.444331 289.349558 
L 294.075761 289.284625 
L 295.70719 289.58624 
L 297.33862 289.303424 
L 298.97005 289.196928 
L 300.60148 289.388322 
L 302.23291 288.711136 
L 303.86434 289.560913 
L 305.49577 285.028091 
L 307.1272 288.132945 
L 308.75863 286.053013 
L 310.390059 284.861924 
L 312.021489 289.494077 
L 313.652919 289.809811 
L 315.284349 289.231472 
L 316.915779 289.495091 
L 318.547209 289.030759 
L 320.178639 286.787817 
L 321.810069 280.033081 
L 325.072928 288.300293 
L 326.704358 289.709411 
L 328.335788 289.709487 
L 329.967218 286.888626 
L 331.598648 289.380378 
L 333.230078 288.325616 
L 338.124367 289.063275 
L 339.755797 289.063241 
L 341.387227 288.466121 
L 343.018657 287.446415 
L 344.650087 287.931204 
L 346.281517 285.877726 
L 347.912947 289.695162 
L 349.544376 289.634619 
L 352.807236 289.155291 
L 354.438666 289.334975 
L 357.701526 289.238246 
L 359.332956 284.530077 
L 360.964386 289.012481 
L 362.595815 288.746284 
L 364.227245 288.824031 
L 365.858675 289.02162 
L 367.490105 288.339124 
L 369.121535 289.058158 
L 370.752965 289.157522 
L 372.384395 289.37352 
L 374.015825 286.633362 
L 375.647254 288.97162 
L 377.278684 289.603442 
L 378.910114 275.817287 
L 380.541544 288.506788 
L 382.172974 288.234864 
L 383.804404 286.155972 
L 385.435834 286.435759 
L 387.067264 289.120504 
L 388.698693 281.089229 
L 390.330123 289.689704 
L 391.961553 284.341139 
L 393.592983 281.736614 
L 395.224413 289.125732 
L 396.855843 289.204181 
L 398.487273 289.708939 
L 398.487273 289.708939 
" style="fill:none;stroke:#1f77b4;stroke-linecap:square;stroke-width:0.25;"/>
   </g>
   <g id="line2d_16">
    <path clip-path="url(#pc3a26da240)" d="M 73.832727 289.319265 
L 75.464157 289.430242 
L 80.358447 289.327596 
L 86.884166 289.365671 
L 90.147026 289.317296 
L 96.672746 289.360115 
L 98.304175 289.39761 
L 99.935605 289.26395 
L 101.567035 289.507429 
L 103.198465 289.287326 
L 108.092755 289.326206 
L 109.724185 289.425844 
L 117.881334 289.319611 
L 119.512764 289.423994 
L 121.144194 289.194515 
L 122.775624 289.402701 
L 124.407053 289.424919 
L 127.669913 289.315446 
L 129.301343 289.464497 
L 132.564203 289.363355 
L 134.195633 289.4314 
L 135.827063 289.255153 
L 137.458492 289.425152 
L 139.089922 289.339401 
L 140.721352 289.436144 
L 142.352782 289.25365 
L 143.984212 289.439385 
L 145.615642 289.481046 
L 147.247072 289.300055 
L 150.509931 289.359536 
L 152.141361 289.257815 
L 158.667081 289.301213 
L 160.298511 289.288251 
L 161.929941 289.423994 
L 163.56137 289.227612 
L 165.1928 289.437648 
L 173.34995 289.343566 
L 181.507099 289.328987 
L 183.138529 289.194169 
L 186.401389 289.472017 
L 197.821398 289.32019 
L 199.452828 288.977563 
L 201.084258 288.770143 
L 202.715688 286.604752 
L 204.347117 282.658207 
L 205.978547 278.304843 
L 207.609977 285.051541 
L 209.241407 286.744251 
L 210.872837 279.963386 
L 212.504267 286.02638 
L 214.135697 285.506631 
L 215.767127 284.603028 
L 217.398556 285.180959 
L 219.029986 277.742648 
L 220.661416 284.931255 
L 222.292846 281.331428 
L 223.924276 275.384723 
L 225.555706 280.641178 
L 227.187136 282.989219 
L 228.818566 286.258283 
L 230.449995 289.161167 
L 232.081425 275.170835 
L 233.712855 280.17981 
L 235.344285 285.679579 
L 236.975715 280.413858 
L 238.607145 274.263701 
L 240.238575 278.869092 
L 241.870005 283.098211 
L 243.501434 260.236293 
L 245.132864 283.930458 
L 246.764294 270.728393 
L 248.395724 281.334625 
L 250.027154 281.81912 
L 251.658584 268.91938 
L 253.290014 282.394239 
L 254.921444 272.049866 
L 256.552873 279.242584 
L 258.184303 277.359178 
L 259.815733 277.291028 
L 261.447163 280.131167 
L 263.078593 278.053766 
L 264.710023 268.051404 
L 266.341453 273.482765 
L 267.972883 278.179836 
L 269.604312 281.059756 
L 271.235742 280.679884 
L 272.867172 285.956427 
L 274.498602 270.276416 
L 276.130032 286.904899 
L 277.761462 282.161395 
L 279.392892 284.034664 
L 281.024322 283.171198 
L 282.655751 280.71137 
L 284.287181 285.580327 
L 285.918611 275.13157 
L 287.550041 277.17214 
L 289.181471 277.755745 
L 290.812901 276.83783 
L 292.444331 270.461137 
L 294.075761 279.741651 
L 295.70719 276.970232 
L 298.97005 283.863251 
L 300.60148 277.966147 
L 302.23291 283.249129 
L 303.86434 283.216109 
L 307.1272 264.069964 
L 308.75863 274.816224 
L 310.390059 272.691796 
L 312.021489 271.434235 
L 313.652919 276.127307 
L 315.284349 276.123644 
L 316.915779 266.032481 
L 318.547209 283.895989 
L 320.178639 273.438832 
L 321.810069 262.250932 
L 323.441498 276.795097 
L 325.072928 283.935671 
L 326.704358 279.92001 
L 328.335788 268.47935 
L 329.967218 263.937324 
L 331.598648 271.856605 
L 333.230078 259.335021 
L 334.861508 283.46362 
L 336.492937 281.081155 
L 338.124367 277.875206 
L 339.755797 282.267197 
L 341.387227 275.351251 
L 343.018657 256.040602 
L 344.650087 268.481976 
L 346.281517 263.971658 
L 347.912947 274.722563 
L 349.544376 275.762095 
L 351.175806 279.648588 
L 352.807236 271.936323 
L 354.438666 275.671752 
L 356.070096 273.915189 
L 357.701526 283.833921 
L 359.332956 272.599634 
L 360.964386 257.737955 
L 362.595815 264.645034 
L 364.227245 279.419797 
L 365.858675 280.788786 
L 367.490105 276.348881 
L 369.121535 280.486556 
L 370.752965 272.767371 
L 372.384395 274.455873 
L 374.015825 272.035337 
L 375.647254 271.547359 
L 377.278684 280.829619 
L 378.910114 258.698737 
L 380.541544 275.436872 
L 382.172974 274.338387 
L 383.804404 275.118837 
L 385.435834 276.046898 
L 387.067264 284.309828 
L 388.698693 269.245763 
L 390.330123 282.653642 
L 391.961553 262.168859 
L 393.592983 273.116298 
L 395.224413 279.455333 
L 396.855843 271.425458 
L 398.487273 279.80144 
L 398.487273 279.80144 
" style="fill:none;stroke:#2ca02c;stroke-linecap:square;stroke-width:0.75;"/>
   </g>
   <g id="patch_3">
    <path d="M 57.6 307.584 
L 57.6 41.472 
" style="fill:none;stroke:#000000;stroke-linecap:square;stroke-linejoin:miter;stroke-width:0.8;"/>
   </g>
   <g id="patch_4">
    <path d="M 414.72 307.584 
L 414.72 41.472 
" style="fill:none;stroke:#000000;stroke-linecap:square;stroke-linejoin:miter;stroke-width:0.8;"/>
   </g>
   <g id="patch_5">
    <path d="M 57.6 307.584 
L 414.72 307.584 
" style="fill:none;stroke:#000000;stroke-linecap:square;stroke-linejoin:miter;stroke-width:0.8;"/>
   </g>
   <g id="patch_6">
    <path d="M 57.6 41.472 
L 414.72 41.472 
" style="fill:none;stroke:#000000;stroke-linecap:square;stroke-linejoin:miter;stroke-width:0.8;"/>
   </g>
   <g id="legend_1">
    <g id="patch_7">
     <path d="M 338.234063 78.82825 
L 407.72 78.82825 
Q 409.72 78.82825 409.72 76.82825 
L 409.72 48.472 
Q 409.72 46.472 407.72 46.472 
L 338.234063 46.472 
Q 336.234063 46.472 336.234063 48.472 
L 336.234063 76.82825 
Q 336.234063 78.82825 338.234063 78.82825 
z
" style="fill:#ffffff;opacity:0.8;stroke:#cccccc;stroke-linejoin:miter;"/>
    </g>
    <g id="line2d_17">
     <path d="M 340.234063 54.570437 
L 360.234063 54.570437 
" style="fill:none;stroke:#1f77b4;stroke-linecap:square;stroke-width:0.25;"/>
    </g>
    <g id="line2d_18"/>
    <g id="text_15">
     <!-- median -->
     <defs>
      <path d="M 52 44.1875 
Q 55.375 50.25 60.0625 53.125 
Q 64.75 56 71.09375 56 
Q 79.640625 56 84.28125 50.015625 
Q 88.921875 44.046875 88.921875 33.015625 
L 88.921875 0 
L 79.890625 0 
L 79.890625 32.71875 
Q 79.890625 40.578125 77.09375 44.375 
Q 74.3125 48.1875 68.609375 48.1875 
Q 61.625 48.1875 57.5625 43.546875 
Q 53.515625 38.921875 53.515625 30.90625 
L 53.515625 0 
L 44.484375 0 
L 44.484375 32.71875 
Q 44.484375 40.625 41.703125 44.40625 
Q 38.921875 48.1875 33.109375 48.1875 
Q 26.21875 48.1875 22.15625 43.53125 
Q 18.109375 38.875 18.109375 30.90625 
L 18.109375 0 
L 9.078125 0 
L 9.078125 54.6875 
L 18.109375 54.6875 
L 18.109375 46.1875 
Q 21.1875 51.21875 25.484375 53.609375 
Q 29.78125 56 35.6875 56 
Q 41.65625 56 45.828125 52.96875 
Q 50 49.953125 52 44.1875 
z
" id="DejaVuSans-109"/>
      <path d="M 56.203125 29.59375 
L 56.203125 25.203125 
L 14.890625 25.203125 
Q 15.484375 15.921875 20.484375 11.0625 
Q 25.484375 6.203125 34.421875 6.203125 
Q 39.59375 6.203125 44.453125 7.46875 
Q 49.3125 8.734375 54.109375 11.28125 
L 54.109375 2.78125 
Q 49.265625 0.734375 44.1875 -0.34375 
Q 39.109375 -1.421875 33.890625 -1.421875 
Q 20.796875 -1.421875 13.15625 6.1875 
Q 5.515625 13.8125 5.515625 26.8125 
Q 5.515625 40.234375 12.765625 48.109375 
Q 20.015625 56 32.328125 56 
Q 43.359375 56 49.78125 48.890625 
Q 56.203125 41.796875 56.203125 29.59375 
z
M 47.21875 32.234375 
Q 47.125 39.59375 43.09375 43.984375 
Q 39.0625 48.390625 32.421875 48.390625 
Q 24.90625 48.390625 20.390625 44.140625 
Q 15.875 39.890625 15.1875 32.171875 
z
" id="DejaVuSans-101"/>
      <path d="M 45.40625 46.390625 
L 45.40625 75.984375 
L 54.390625 75.984375 
L 54.390625 0 
L 45.40625 0 
L 45.40625 8.203125 
Q 42.578125 3.328125 38.25 0.953125 
Q 33.9375 -1.421875 27.875 -1.421875 
Q 17.96875 -1.421875 11.734375 6.484375 
Q 5.515625 14.40625 5.515625 27.296875 
Q 5.515625 40.1875 11.734375 48.09375 
Q 17.96875 56 27.875 56 
Q 33.9375 56 38.25 53.625 
Q 42.578125 51.265625 45.40625 46.390625 
z
M 14.796875 27.296875 
Q 14.796875 17.390625 18.875 11.75 
Q 22.953125 6.109375 30.078125 6.109375 
Q 37.203125 6.109375 41.296875 11.75 
Q 45.40625 17.390625 45.40625 27.296875 
Q 45.40625 37.203125 41.296875 42.84375 
Q 37.203125 48.484375 30.078125 48.484375 
Q 22.953125 48.484375 18.875 42.84375 
Q 14.796875 37.203125 14.796875 27.296875 
z
" id="DejaVuSans-100"/>
      <path d="M 9.421875 54.6875 
L 18.40625 54.6875 
L 18.40625 0 
L 9.421875 0 
z
M 9.421875 75.984375 
L 18.40625 75.984375 
L 18.40625 64.59375 
L 9.421875 64.59375 
z
" id="DejaVuSans-105"/>
      <path d="M 34.28125 27.484375 
Q 23.390625 27.484375 19.1875 25 
Q 14.984375 22.515625 14.984375 16.5 
Q 14.984375 11.71875 18.140625 8.90625 
Q 21.296875 6.109375 26.703125 6.109375 
Q 34.1875 6.109375 38.703125 11.40625 
Q 43.21875 16.703125 43.21875 25.484375 
L 43.21875 27.484375 
z
M 52.203125 31.203125 
L 52.203125 0 
L 43.21875 0 
L 43.21875 8.296875 
Q 40.140625 3.328125 35.546875 0.953125 
Q 30.953125 -1.421875 24.3125 -1.421875 
Q 15.921875 -1.421875 10.953125 3.296875 
Q 6 8.015625 6 15.921875 
Q 6 25.140625 12.171875 29.828125 
Q 18.359375 34.515625 30.609375 34.515625 
L 43.21875 34.515625 
L 43.21875 35.40625 
Q 43.21875 41.609375 39.140625 45 
Q 35.0625 48.390625 27.6875 48.390625 
Q 23 48.390625 18.546875 47.265625 
Q 14.109375 46.140625 10.015625 43.890625 
L 10.015625 52.203125 
Q 14.9375 54.109375 19.578125 55.046875 
Q 24.21875 56 28.609375 56 
Q 40.484375 56 46.34375 49.84375 
Q 52.203125 43.703125 52.203125 31.203125 
z
" id="DejaVuSans-97"/>
      <path d="M 54.890625 33.015625 
L 54.890625 0 
L 45.90625 0 
L 45.90625 32.71875 
Q 45.90625 40.484375 42.875 44.328125 
Q 39.84375 48.1875 33.796875 48.1875 
Q 26.515625 48.1875 22.3125 43.546875 
Q 18.109375 38.921875 18.109375 30.90625 
L 18.109375 0 
L 9.078125 0 
L 9.078125 54.6875 
L 18.109375 54.6875 
L 18.109375 46.1875 
Q 21.34375 51.125 25.703125 53.5625 
Q 30.078125 56 35.796875 56 
Q 45.21875 56 50.046875 50.171875 
Q 54.890625 44.34375 54.890625 33.015625 
z
" id="DejaVuSans-110"/>
     </defs>
     <g transform="translate(368.234063 58.070437)scale(0.1 -0.1)">
      <use xlink:href="#DejaVuSans-109"/>
      <use x="97.412109" xlink:href="#DejaVuSans-101"/>
      <use x="158.935547" xlink:href="#DejaVuSans-100"/>
      <use x="222.412109" xlink:href="#DejaVuSans-105"/>
      <use x="250.195312" xlink:href="#DejaVuSans-97"/>
      <use x="311.474609" xlink:href="#DejaVuSans-110"/>
     </g>
    </g>
    <g id="line2d_19">
     <path d="M 340.234063 69.248562 
L 360.234063 69.248562 
" style="fill:none;stroke:#2ca02c;stroke-linecap:square;stroke-width:0.75;"/>
    </g>
    <g id="line2d_20"/>
    <g id="text_16">
     <!-- mean -->
     <g transform="translate(368.234063 72.748562)scale(0.1 -0.1)">
      <use xlink:href="#DejaVuSans-109"/>
      <use x="97.412109" xlink:href="#DejaVuSans-101"/>
      <use x="158.935547" xlink:href="#DejaVuSans-97"/>
      <use x="220.214844" xlink:href="#DejaVuSans-110"/>
     </g>
    </g>
   </g>
  </g>
  <g id="text_17">
   <!-- log_loss.mean over generations -->
   <defs>
    <path d="M 9.421875 75.984375 
L 18.40625 75.984375 
L 18.40625 0 
L 9.421875 0 
z
" id="DejaVuSans-108"/>
    <path d="M 30.609375 48.390625 
Q 23.390625 48.390625 19.1875 42.75 
Q 14.984375 37.109375 14.984375 27.296875 
Q 14.984375 17.484375 19.15625 11.84375 
Q 23.34375 6.203125 30.609375 6.203125 
Q 37.796875 6.203125 41.984375 11.859375 
Q 46.1875 17.53125 46.1875 27.296875 
Q 46.1875 37.015625 41.984375 42.703125 
Q 37.796875 48.390625 30.609375 48.390625 
z
M 30.609375 56 
Q 42.328125 56 49.015625 48.375 
Q 55.71875 40.765625 55.71875 27.296875 
Q 55.71875 13.875 49.015625 6.21875 
Q 42.328125 -1.421875 30.609375 -1.421875 
Q 18.84375 -1.421875 12.171875 6.21875 
Q 5.515625 13.875 5.515625 27.296875 
Q 5.515625 40.765625 12.171875 48.375 
Q 18.84375 56 30.609375 56 
z
" id="DejaVuSans-111"/>
    <path d="M 45.40625 27.984375 
Q 45.40625 37.75 41.375 43.109375 
Q 37.359375 48.484375 30.078125 48.484375 
Q 22.859375 48.484375 18.828125 43.109375 
Q 14.796875 37.75 14.796875 27.984375 
Q 14.796875 18.265625 18.828125 12.890625 
Q 22.859375 7.515625 30.078125 7.515625 
Q 37.359375 7.515625 41.375 12.890625 
Q 45.40625 18.265625 45.40625 27.984375 
z
M 54.390625 6.78125 
Q 54.390625 -7.171875 48.1875 -13.984375 
Q 42 -20.796875 29.203125 -20.796875 
Q 24.46875 -20.796875 20.265625 -20.09375 
Q 16.0625 -19.390625 12.109375 -17.921875 
L 12.109375 -9.1875 
Q 16.0625 -11.328125 19.921875 -12.34375 
Q 23.78125 -13.375 27.78125 -13.375 
Q 36.625 -13.375 41.015625 -8.765625 
Q 45.40625 -4.15625 45.40625 5.171875 
L 45.40625 9.625 
Q 42.625 4.78125 38.28125 2.390625 
Q 33.9375 0 27.875 0 
Q 17.828125 0 11.671875 7.65625 
Q 5.515625 15.328125 5.515625 27.984375 
Q 5.515625 40.671875 11.671875 48.328125 
Q 17.828125 56 27.875 56 
Q 33.9375 56 38.28125 53.609375 
Q 42.625 51.21875 45.40625 46.390625 
L 45.40625 54.6875 
L 54.390625 54.6875 
z
" id="DejaVuSans-103"/>
    <path d="M 50.984375 -16.609375 
L 50.984375 -23.578125 
L -0.984375 -23.578125 
L -0.984375 -16.609375 
z
" id="DejaVuSans-95"/>
    <path d="M 44.28125 53.078125 
L 44.28125 44.578125 
Q 40.484375 46.53125 36.375 47.5 
Q 32.28125 48.484375 27.875 48.484375 
Q 21.1875 48.484375 17.84375 46.4375 
Q 14.5 44.390625 14.5 40.28125 
Q 14.5 37.15625 16.890625 35.375 
Q 19.28125 33.59375 26.515625 31.984375 
L 29.59375 31.296875 
Q 39.15625 29.25 43.1875 25.515625 
Q 47.21875 21.78125 47.21875 15.09375 
Q 47.21875 7.46875 41.1875 3.015625 
Q 35.15625 -1.421875 24.609375 -1.421875 
Q 20.21875 -1.421875 15.453125 -0.5625 
Q 10.6875 0.296875 5.421875 2 
L 5.421875 11.28125 
Q 10.40625 8.6875 15.234375 7.390625 
Q 20.0625 6.109375 24.8125 6.109375 
Q 31.15625 6.109375 34.5625 8.28125 
Q 37.984375 10.453125 37.984375 14.40625 
Q 37.984375 18.0625 35.515625 20.015625 
Q 33.0625 21.96875 24.703125 23.78125 
L 21.578125 24.515625 
Q 13.234375 26.265625 9.515625 29.90625 
Q 5.8125 33.546875 5.8125 39.890625 
Q 5.8125 47.609375 11.28125 51.796875 
Q 16.75 56 26.8125 56 
Q 31.78125 56 36.171875 55.265625 
Q 40.578125 54.546875 44.28125 53.078125 
z
" id="DejaVuSans-115"/>
    <path d="M 10.6875 12.40625 
L 21 12.40625 
L 21 0 
L 10.6875 0 
z
" id="DejaVuSans-46"/>
    <path id="DejaVuSans-32"/>
    <path d="M 2.984375 54.6875 
L 12.5 54.6875 
L 29.59375 8.796875 
L 46.6875 54.6875 
L 56.203125 54.6875 
L 35.6875 0 
L 23.484375 0 
z
" id="DejaVuSans-118"/>
    <path d="M 41.109375 46.296875 
Q 39.59375 47.171875 37.8125 47.578125 
Q 36.03125 48 33.890625 48 
Q 26.265625 48 22.1875 43.046875 
Q 18.109375 38.09375 18.109375 28.8125 
L 18.109375 0 
L 9.078125 0 
L 9.078125 54.6875 
L 18.109375 54.6875 
L 18.109375 46.1875 
Q 20.953125 51.171875 25.484375 53.578125 
Q 30.03125 56 36.53125 56 
Q 37.453125 56 38.578125 55.875 
Q 39.703125 55.765625 41.0625 55.515625 
z
" id="DejaVuSans-114"/>
    <path d="M 18.3125 70.21875 
L 18.3125 54.6875 
L 36.8125 54.6875 
L 36.8125 47.703125 
L 18.3125 47.703125 
L 18.3125 18.015625 
Q 18.3125 11.328125 20.140625 9.421875 
Q 21.96875 7.515625 27.59375 7.515625 
L 36.8125 7.515625 
L 36.8125 0 
L 27.59375 0 
Q 17.1875 0 13.234375 3.875 
Q 9.28125 7.765625 9.28125 18.015625 
L 9.28125 47.703125 
L 2.6875 47.703125 
L 2.6875 54.6875 
L 9.28125 54.6875 
L 9.28125 70.21875 
z
" id="DejaVuSans-116"/>
   </defs>
   <g transform="translate(134.789062 16.030125)scale(0.12 -0.12)">
    <use xlink:href="#DejaVuSans-108"/>
    <use x="27.783203" xlink:href="#DejaVuSans-111"/>
    <use x="88.964844" xlink:href="#DejaVuSans-103"/>
    <use x="152.441406" xlink:href="#DejaVuSans-95"/>
    <use x="202.441406" xlink:href="#DejaVuSans-108"/>
    <use x="230.224609" xlink:href="#DejaVuSans-111"/>
    <use x="291.40625" xlink:href="#DejaVuSans-115"/>
    <use x="343.505859" xlink:href="#DejaVuSans-115"/>
    <use x="395.605469" xlink:href="#DejaVuSans-46"/>
    <use x="427.392578" xlink:href="#DejaVuSans-109"/>
    <use x="524.804688" xlink:href="#DejaVuSans-101"/>
    <use x="586.328125" xlink:href="#DejaVuSans-97"/>
    <use x="647.607422" xlink:href="#DejaVuSans-110"/>
    <use x="710.986328" xlink:href="#DejaVuSans-32"/>
    <use x="742.773438" xlink:href="#DejaVuSans-111"/>
    <use x="803.955078" xlink:href="#DejaVuSans-118"/>
    <use x="863.134766" xlink:href="#DejaVuSans-101"/>
    <use x="924.658203" xlink:href="#DejaVuSans-114"/>
    <use x="965.771484" xlink:href="#DejaVuSans-32"/>
    <use x="997.558594" xlink:href="#DejaVuSans-103"/>
    <use x="1061.035156" xlink:href="#DejaVuSans-101"/>
    <use x="1122.558594" xlink:href="#DejaVuSans-110"/>
    <use x="1185.9375" xlink:href="#DejaVuSans-101"/>
    <use x="1247.460938" xlink:href="#DejaVuSans-114"/>
    <use x="1288.574219" xlink:href="#DejaVuSans-97"/>
    <use x="1349.853516" xlink:href="#DejaVuSans-116"/>
    <use x="1389.0625" xlink:href="#DejaVuSans-105"/>
    <use x="1416.845703" xlink:href="#DejaVuSans-111"/>
    <use x="1478.027344" xlink:href="#DejaVuSans-110"/>
    <use x="1541.40625" xlink:href="#DejaVuSans-115"/>
   </g>
  </g>
 </g>
 <defs>
  <clipPath id="pc3a26da240">
   <rect height="266.112" width="357.12" x="57.6" y="41.472"/>
  </clipPath>
 </defs>
</svg>
