<?xml version="1.0" encoding="utf-8" standalone="no"?>
<!DOCTYPE svg PUBLIC "-//W3C//DTD SVG 1.1//EN"
  "http://www.w3.org/Graphics/SVG/1.1/DTD/svg11.dtd">
<!-- Created with matplotlib (https://matplotlib.org/) -->
<svg height="345.6pt" version="1.1" viewBox="0 0 460.8 345.6" width="460.8pt" xmlns="http://www.w3.org/2000/svg" xmlns:xlink="http://www.w3.org/1999/xlink">
 <defs>
  <style type="text/css">
*{stroke-linecap:butt;stroke-linejoin:round;}
  </style>
 </defs>
 <g id="figure_1">
  <g id="patch_1">
   <path d="M 0 345.6 
L 460.8 345.6 
L 460.8 0 
L 0 0 
z
" style="fill:#ffffff;"/>
  </g>
  <g id="axes_1">
   <g id="patch_2">
    <path clip-path="url(#p128558d350)" d="M 88.589752 119.546182 
Q 234.423906 146.713673 380.25806 173.881165 
" style="fill:none;stroke:#000000;stroke-linecap:round;stroke-opacity:0.9;stroke-width:0.4;"/>
   </g>
   <g id="patch_3">
    <path clip-path="url(#p128558d350)" d="M 88.589752 229.509818 
Q 124.064842 203.075155 159.539931 176.640491 
" style="fill:none;stroke:#000000;stroke-linecap:round;stroke-opacity:0.9;stroke-width:0.4;"/>
   </g>
   <g id="patch_4">
    <path clip-path="url(#p128558d350)" d="M 162.374876 174.528 
Q 198.2823 228.041645 234.189725 281.55529 
" style="fill:none;stroke:#000000;stroke-linecap:round;stroke-opacity:0.9;stroke-width:0.4;"/>
   </g>
   <g id="patch_5">
    <path clip-path="url(#p128558d350)" d="M 162.374876 174.528 
Q 197.49982 174.528 232.624763 174.528 
" style="fill:none;stroke:#000000;stroke-linecap:round;stroke-opacity:0.9;stroke-width:0.4;"/>
   </g>
   <g id="patch_6">
    <path clip-path="url(#p128558d350)" d="M 162.374876 174.528 
Q 197.849966 200.962664 233.325055 227.397327 
" style="fill:none;stroke:#000000;stroke-linecap:round;stroke-opacity:0.9;stroke-width:0.4;"/>
   </g>
   <g id="patch_7">
    <path clip-path="url(#p128558d350)" d="M 162.374876 174.528 
Q 198.2823 121.014355 234.189725 67.50071 
" style="fill:none;stroke:#000000;stroke-linecap:round;stroke-opacity:0.9;stroke-width:0.4;"/>
   </g>
   <g id="patch_8">
    <path clip-path="url(#p128558d350)" d="M 162.374876 174.528 
Q 197.849966 148.093336 233.325055 121.658673 
" style="fill:none;stroke:#000000;stroke-linecap:round;stroke-opacity:0.9;stroke-width:0.4;"/>
   </g>
   <g id="patch_9">
    <path clip-path="url(#p128558d350)" d="M 236.16 284.491636 
Q 271.704894 254.332662 307.249787 224.173688 
" style="fill:none;stroke:#000000;stroke-linecap:round;stroke-opacity:0.9;stroke-width:0.4;"/>
   </g>
   <g id="patch_10">
    <path clip-path="url(#p128558d350)" d="M 236.16 174.528 
Q 308.37003 137.798245 380.580059 101.06849 
" style="fill:none;stroke:#000000;stroke-linecap:round;stroke-opacity:0.9;stroke-width:0.4;"/>
   </g>
   <g id="patch_11">
    <path clip-path="url(#p128558d350)" d="M 236.16 174.528 
Q 308.177505 174.528 380.195011 174.528 
" style="fill:none;stroke:#000000;stroke-linecap:round;stroke-opacity:0.9;stroke-width:0.4;"/>
   </g>
   <g id="patch_12">
    <path clip-path="url(#p128558d350)" d="M 236.16 229.509818 
Q 272.017886 179.774633 307.875772 130.039448 
" style="fill:none;stroke:#000000;stroke-linecap:round;stroke-opacity:0.9;stroke-width:0.4;"/>
   </g>
   <g id="patch_13">
    <path clip-path="url(#p128558d350)" d="M 236.16 64.564364 
Q 308.227044 81.60891 380.294088 98.653456 
" style="fill:none;stroke:#000000;stroke-linecap:round;stroke-opacity:0.9;stroke-width:0.4;"/>
   </g>
   <g id="patch_14">
    <path clip-path="url(#p128558d350)" d="M 236.16 119.546182 
Q 308.195519 109.744232 380.231039 99.942282 
" style="fill:none;stroke:#000000;stroke-linecap:round;stroke-opacity:0.9;stroke-width:0.4;"/>
   </g>
   <g id="patch_15">
    <path clip-path="url(#p128558d350)" d="M 309.945124 127.16924 
Q 345.35041 149.894016 380.755695 172.618792 
" style="fill:none;stroke:#000000;stroke-linecap:round;stroke-opacity:0.9;stroke-width:0.4;"/>
   </g>
   <g id="patch_16">
    <path clip-path="url(#p128558d350)" d="M 309.945124 221.88676 
Q 345.182655 235.116918 380.420185 248.347075 
" style="fill:none;stroke:#000000;stroke-linecap:round;stroke-opacity:0.9;stroke-width:0.4;"/>
   </g>
   <g id="PathCollection_1">
    <defs>
     <path d="M 0 3.535534 
C 0.937635 3.535534 1.836992 3.163008 2.5 2.5 
C 3.163008 1.836992 3.535534 0.937635 3.535534 0 
C 3.535534 -0.937635 3.163008 -1.836992 2.5 -2.5 
C 1.836992 -3.163008 0.937635 -3.535534 0 -3.535534 
C -0.937635 -3.535534 -1.836992 -3.163008 -2.5 -2.5 
C -3.163008 -1.836992 -3.535534 -0.937635 -3.535534 0 
C -3.535534 0.937635 -3.163008 1.836992 -2.5 2.5 
C -1.836992 3.163008 -0.937635 3.535534 0 3.535534 
z
" id="C0_0_9feca9a9fd"/>
    </defs>
    <g clip-path="url(#p128558d350)">
     <use style="fill:#fdb462;fill-opacity:0.9;" x="88.589752" xlink:href="#C0_0_9feca9a9fd" y="64.564364"/>
    </g>
    <g clip-path="url(#p128558d350)">
     <use style="fill:#fdb462;fill-opacity:0.9;" x="88.589752" xlink:href="#C0_0_9feca9a9fd" y="119.546182"/>
    </g>
    <g clip-path="url(#p128558d350)">
     <use style="fill:#fdb462;fill-opacity:0.9;" x="88.589752" xlink:href="#C0_0_9feca9a9fd" y="174.528"/>
    </g>
    <g clip-path="url(#p128558d350)">
     <use style="fill:#fdb462;fill-opacity:0.9;" x="88.589752" xlink:href="#C0_0_9feca9a9fd" y="229.509818"/>
    </g>
    <g clip-path="url(#p128558d350)">
     <use style="fill:#ffed6f;fill-opacity:0.9;" x="88.589752" xlink:href="#C0_0_9feca9a9fd" y="284.491636"/>
    </g>
    <g clip-path="url(#p128558d350)">
     <use style="fill:#80b1d3;fill-opacity:0.9;" x="162.374876" xlink:href="#C0_0_9feca9a9fd" y="174.528"/>
    </g>
    <g clip-path="url(#p128558d350)">
     <use style="fill:#80b1d3;fill-opacity:0.9;" x="236.16" xlink:href="#C0_0_9feca9a9fd" y="284.491636"/>
    </g>
    <g clip-path="url(#p128558d350)">
     <use style="fill:#80b1d3;fill-opacity:0.9;" x="236.16" xlink:href="#C0_0_9feca9a9fd" y="174.528"/>
    </g>
    <g clip-path="url(#p128558d350)">
     <use style="fill:#80b1d3;fill-opacity:0.9;" x="236.16" xlink:href="#C0_0_9feca9a9fd" y="229.509818"/>
    </g>
    <g clip-path="url(#p128558d350)">
     <use style="fill:#80b1d3;fill-opacity:0.9;" x="236.16" xlink:href="#C0_0_9feca9a9fd" y="64.564364"/>
    </g>
    <g clip-path="url(#p128558d350)">
     <use style="fill:#80b1d3;fill-opacity:0.9;" x="236.16" xlink:href="#C0_0_9feca9a9fd" y="119.546182"/>
    </g>
    <g clip-path="url(#p128558d350)">
     <use style="fill:#80b1d3;fill-opacity:0.9;" x="309.945124" xlink:href="#C0_0_9feca9a9fd" y="127.16924"/>
    </g>
    <g clip-path="url(#p128558d350)">
     <use style="fill:#80b1d3;fill-opacity:0.9;" x="309.945124" xlink:href="#C0_0_9feca9a9fd" y="221.88676"/>
    </g>
    <g clip-path="url(#p128558d350)">
     <use style="fill:#b3de69;fill-opacity:0.9;" x="383.730248" xlink:href="#C0_0_9feca9a9fd" y="99.466141"/>
    </g>
    <g clip-path="url(#p128558d350)">
     <use style="fill:#b3de69;fill-opacity:0.9;" x="383.730248" xlink:href="#C0_0_9feca9a9fd" y="174.528"/>
    </g>
    <g clip-path="url(#p128558d350)">
     <use style="fill:#b3de69;fill-opacity:0.9;" x="383.730248" xlink:href="#C0_0_9feca9a9fd" y="249.589859"/>
    </g>
   </g>
  </g>
 </g>
 <defs>
  <clipPath id="p128558d350">
   <rect height="266.112" width="357.12" x="57.6" y="41.472"/>
  </clipPath>
 </defs>
</svg>
