<?xml version="1.0" encoding="utf-8" standalone="no"?>
<!DOCTYPE svg PUBLIC "-//W3C//DTD SVG 1.1//EN"
  "http://www.w3.org/Graphics/SVG/1.1/DTD/svg11.dtd">
<!-- Created with matplotlib (https://matplotlib.org/) -->
<svg height="345.6pt" version="1.1" viewBox="0 0 460.8 345.6" width="460.8pt" xmlns="http://www.w3.org/2000/svg" xmlns:xlink="http://www.w3.org/1999/xlink">
 <defs>
  <style type="text/css">
*{stroke-linecap:butt;stroke-linejoin:round;}
  </style>
 </defs>
 <g id="figure_1">
  <g id="patch_1">
   <path d="M 0 345.6 
L 460.8 345.6 
L 460.8 0 
L 0 0 
z
" style="fill:#ffffff;"/>
  </g>
  <g id="axes_1">
   <g id="patch_2">
    <path clip-path="url(#p04e75c3696)" d="M 88.589752 63.33361 
Q 160.984425 120.278493 233.379097 177.223376 
" style="fill:none;stroke:#000000;stroke-linecap:round;stroke-opacity:0.9;stroke-width:0.4;"/>
   </g>
   <g id="patch_3">
    <path clip-path="url(#p04e75c3696)" d="M 88.589752 121.372208 
Q 142.167169 125.267578 195.744586 129.162948 
" style="fill:none;stroke:#000000;stroke-linecap:round;stroke-opacity:0.9;stroke-width:0.4;"/>
   </g>
   <g id="patch_4">
    <path clip-path="url(#p04e75c3696)" d="M 88.589752 121.372208 
Q 215.989728 150.004057 343.389704 178.635906 
" style="fill:none;stroke:#000000;stroke-linecap:round;stroke-opacity:0.9;stroke-width:0.4;"/>
   </g>
   <g id="patch_5">
    <path clip-path="url(#p04e75c3696)" d="M 88.589752 237.449403 
Q 105.308946 233.802673 122.02814 230.155944 
" style="fill:none;stroke:#000000;stroke-linecap:round;stroke-opacity:0.9;stroke-width:0.4;"/>
   </g>
   <g id="patch_6">
    <path clip-path="url(#p04e75c3696)" d="M 88.589752 237.449403 
Q 106.464653 185.107379 124.339554 132.765355 
" style="fill:none;stroke:#000000;stroke-linecap:round;stroke-opacity:0.9;stroke-width:0.4;"/>
   </g>
   <g id="patch_7">
    <path clip-path="url(#p04e75c3696)" d="M 88.589752 237.449403 
Q 234.396885 247.920987 380.204018 258.39257 
" style="fill:none;stroke:#000000;stroke-linecap:round;stroke-opacity:0.9;stroke-width:0.4;"/>
   </g>
   <g id="patch_8">
    <path clip-path="url(#p04e75c3696)" d="M 125.482314 229.402532 
Q 142.878157 205.830078 160.274 182.257624 
" style="fill:none;stroke:#000000;stroke-linecap:round;stroke-opacity:0.9;stroke-width:0.4;"/>
   </g>
   <g id="patch_9">
    <path clip-path="url(#p04e75c3696)" d="M 125.482314 229.402532 
Q 234.435728 204.796085 343.389141 180.189637 
" style="fill:none;stroke:#000000;stroke-linecap:round;stroke-opacity:0.9;stroke-width:0.4;"/>
   </g>
   <g id="patch_10">
    <path clip-path="url(#p04e75c3696)" d="M 125.482314 129.419078 
Q 252.850766 114.996225 380.219217 100.573372 
" style="fill:none;stroke:#000000;stroke-linecap:round;stroke-opacity:0.9;stroke-width:0.4;"/>
   </g>
   <g id="patch_11">
    <path clip-path="url(#p04e75c3696)" d="M 162.374876 179.410805 
Q 179.770719 202.983259 197.166562 226.555713 
" style="fill:none;stroke:#000000;stroke-linecap:round;stroke-opacity:0.9;stroke-width:0.4;"/>
   </g>
   <g id="patch_12">
    <path clip-path="url(#p04e75c3696)" d="M 162.374876 179.410805 
Q 179.770719 155.838351 197.166562 132.265897 
" style="fill:none;stroke:#000000;stroke-linecap:round;stroke-opacity:0.9;stroke-width:0.4;"/>
   </g>
   <g id="patch_13">
    <path clip-path="url(#p04e75c3696)" d="M 199.267438 229.402532 
Q 289.79174 204.869315 380.316042 180.336098 
" style="fill:none;stroke:#000000;stroke-linecap:round;stroke-opacity:0.9;stroke-width:0.4;"/>
   </g>
   <g id="patch_14">
    <path clip-path="url(#p04e75c3696)" d="M 199.267438 129.419078 
Q 216.663281 152.991532 234.059124 176.563986 
" style="fill:none;stroke:#000000;stroke-linecap:round;stroke-opacity:0.9;stroke-width:0.4;"/>
   </g>
   <g id="patch_15">
    <path clip-path="url(#p04e75c3696)" d="M 199.267438 129.419078 
Q 271.379517 153.848172 343.491595 178.277265 
" style="fill:none;stroke:#000000;stroke-linecap:round;stroke-opacity:0.9;stroke-width:0.4;"/>
   </g>
   <g id="patch_16">
    <path clip-path="url(#p04e75c3696)" d="M 236.16 179.410805 
Q 252.838663 179.410805 269.517325 179.410805 
" style="fill:none;stroke:#000000;stroke-linecap:round;stroke-opacity:0.9;stroke-width:0.4;"/>
   </g>
   <g id="patch_17">
    <path clip-path="url(#p04e75c3696)" d="M 273.052562 179.410805 
Q 289.731224 179.410805 306.409887 179.410805 
" style="fill:none;stroke:#000000;stroke-linecap:round;stroke-opacity:0.9;stroke-width:0.4;"/>
   </g>
   <g id="patch_18">
    <path clip-path="url(#p04e75c3696)" d="M 309.945124 179.410805 
Q 326.623786 179.410805 343.302449 179.410805 
" style="fill:none;stroke:#000000;stroke-linecap:round;stroke-opacity:0.9;stroke-width:0.4;"/>
   </g>
   <g id="patch_19">
    <path clip-path="url(#p04e75c3696)" d="M 346.837686 179.410805 
Q 364.538077 141.395264 382.238468 103.379723 
" style="fill:none;stroke:#000000;stroke-linecap:round;stroke-opacity:0.9;stroke-width:0.4;"/>
   </g>
   <g id="patch_20">
    <path clip-path="url(#p04e75c3696)" d="M 346.837686 179.410805 
Q 364.538077 217.426346 382.238468 255.441887 
" style="fill:none;stroke:#000000;stroke-linecap:round;stroke-opacity:0.9;stroke-width:0.4;"/>
   </g>
   <g id="PathCollection_1">
    <defs>
     <path d="M 0 3.535534 
C 0.937635 3.535534 1.836992 3.163008 2.5 2.5 
C 3.163008 1.836992 3.535534 0.937635 3.535534 0 
C 3.535534 -0.937635 3.163008 -1.836992 2.5 -2.5 
C 1.836992 -3.163008 0.937635 -3.535534 0 -3.535534 
C -0.937635 -3.535534 -1.836992 -3.163008 -2.5 -2.5 
C -3.163008 -1.836992 -3.535534 -0.937635 -3.535534 0 
C -3.535534 0.937635 -3.163008 1.836992 -2.5 2.5 
C -1.836992 3.163008 -0.937635 3.535534 0 3.535534 
z
" id="C0_0_7858b18dce"/>
    </defs>
    <g clip-path="url(#p04e75c3696)">
     <use style="fill:#fdb462;fill-opacity:0.9;" x="88.589752" xlink:href="#C0_0_7858b18dce" y="63.33361"/>
    </g>
    <g clip-path="url(#p04e75c3696)">
     <use style="fill:#fdb462;fill-opacity:0.9;" x="88.589752" xlink:href="#C0_0_7858b18dce" y="121.372208"/>
    </g>
    <g clip-path="url(#p04e75c3696)">
     <use style="fill:#fdb462;fill-opacity:0.9;" x="88.589752" xlink:href="#C0_0_7858b18dce" y="179.410805"/>
    </g>
    <g clip-path="url(#p04e75c3696)">
     <use style="fill:#fdb462;fill-opacity:0.9;" x="88.589752" xlink:href="#C0_0_7858b18dce" y="237.449403"/>
    </g>
    <g clip-path="url(#p04e75c3696)">
     <use style="fill:#ffed6f;fill-opacity:0.9;" x="88.589752" xlink:href="#C0_0_7858b18dce" y="295.488"/>
    </g>
    <g clip-path="url(#p04e75c3696)">
     <use style="fill:#80b1d3;fill-opacity:0.9;" x="125.482314" xlink:href="#C0_0_7858b18dce" y="229.402532"/>
    </g>
    <g clip-path="url(#p04e75c3696)">
     <use style="fill:#80b1d3;fill-opacity:0.9;" x="125.482314" xlink:href="#C0_0_7858b18dce" y="129.419078"/>
    </g>
    <g clip-path="url(#p04e75c3696)">
     <use style="fill:#80b1d3;fill-opacity:0.9;" x="162.374876" xlink:href="#C0_0_7858b18dce" y="179.410805"/>
    </g>
    <g clip-path="url(#p04e75c3696)">
     <use style="fill:#80b1d3;fill-opacity:0.9;" x="199.267438" xlink:href="#C0_0_7858b18dce" y="229.402532"/>
    </g>
    <g clip-path="url(#p04e75c3696)">
     <use style="fill:#80b1d3;fill-opacity:0.9;" x="199.267438" xlink:href="#C0_0_7858b18dce" y="129.419078"/>
    </g>
    <g clip-path="url(#p04e75c3696)">
     <use style="fill:#80b1d3;fill-opacity:0.9;" x="236.16" xlink:href="#C0_0_7858b18dce" y="179.410805"/>
    </g>
    <g clip-path="url(#p04e75c3696)">
     <use style="fill:#80b1d3;fill-opacity:0.9;" x="273.052562" xlink:href="#C0_0_7858b18dce" y="179.410805"/>
    </g>
    <g clip-path="url(#p04e75c3696)">
     <use style="fill:#80b1d3;fill-opacity:0.9;" x="309.945124" xlink:href="#C0_0_7858b18dce" y="179.410805"/>
    </g>
    <g clip-path="url(#p04e75c3696)">
     <use style="fill:#80b1d3;fill-opacity:0.9;" x="346.837686" xlink:href="#C0_0_7858b18dce" y="179.410805"/>
    </g>
    <g clip-path="url(#p04e75c3696)">
     <use style="fill:#b3de69;fill-opacity:0.9;" x="383.730248" xlink:href="#C0_0_7858b18dce" y="100.175793"/>
    </g>
    <g clip-path="url(#p04e75c3696)">
     <use style="fill:#b3de69;fill-opacity:0.9;" x="383.730248" xlink:href="#C0_0_7858b18dce" y="179.410805"/>
    </g>
    <g clip-path="url(#p04e75c3696)">
     <use style="fill:#b3de69;fill-opacity:0.9;" x="383.730248" xlink:href="#C0_0_7858b18dce" y="258.645817"/>
    </g>
   </g>
  </g>
 </g>
 <defs>
  <clipPath id="p04e75c3696">
   <rect height="266.112" width="357.12" x="57.6" y="41.472"/>
  </clipPath>
 </defs>
</svg>
