<?xml version="1.0" encoding="utf-8" standalone="no"?>
<!DOCTYPE svg PUBLIC "-//W3C//DTD SVG 1.1//EN"
  "http://www.w3.org/Graphics/SVG/1.1/DTD/svg11.dtd">
<!-- Created with matplotlib (https://matplotlib.org/) -->
<svg height="345.6pt" version="1.1" viewBox="0 0 460.8 345.6" width="460.8pt" xmlns="http://www.w3.org/2000/svg" xmlns:xlink="http://www.w3.org/1999/xlink">
 <defs>
  <style type="text/css">
*{stroke-linecap:butt;stroke-linejoin:round;}
  </style>
 </defs>
 <g id="figure_1">
  <g id="patch_1">
   <path d="M 0 345.6 
L 460.8 345.6 
L 460.8 0 
L 0 0 
z
" style="fill:#ffffff;"/>
  </g>
  <g id="axes_1">
   <g id="patch_2">
    <path clip-path="url(#pe2c2f0d4aa)" d="M 88.589752 114.048 
Q 204.932824 143.849184 321.275896 173.650368 
" style="fill:none;stroke:#000000;stroke-linecap:round;stroke-opacity:0.9;stroke-width:0.4;"/>
   </g>
   <g id="patch_3">
    <path clip-path="url(#pe2c2f0d4aa)" d="M 88.589752 235.008 
Q 116.868946 206.033229 145.148139 177.058459 
" style="fill:none;stroke:#000000;stroke-linecap:round;stroke-opacity:0.9;stroke-width:0.4;"/>
   </g>
   <g id="patch_4">
    <path clip-path="url(#pe2c2f0d4aa)" d="M 88.589752 235.008 
Q 175.457955 205.339707 262.326158 175.671413 
" style="fill:none;stroke:#000000;stroke-linecap:round;stroke-opacity:0.9;stroke-width:0.4;"/>
   </g>
   <g id="patch_5">
    <path clip-path="url(#pe2c2f0d4aa)" d="M 88.589752 235.008 
Q 234.396885 245.920073 380.204018 256.832145 
" style="fill:none;stroke:#000000;stroke-linecap:round;stroke-opacity:0.9;stroke-width:0.4;"/>
   </g>
   <g id="patch_6">
    <path clip-path="url(#pe2c2f0d4aa)" d="M 147.617851 174.528 
Q 175.807876 149.649186 203.9979 124.770373 
" style="fill:none;stroke:#000000;stroke-linecap:round;stroke-opacity:0.9;stroke-width:0.4;"/>
   </g>
   <g id="patch_7">
    <path clip-path="url(#pe2c2f0d4aa)" d="M 147.617851 174.528 
Q 175.807876 199.406814 203.9979 224.285627 
" style="fill:none;stroke:#000000;stroke-linecap:round;stroke-opacity:0.9;stroke-width:0.4;"/>
   </g>
   <g id="patch_8">
    <path clip-path="url(#pe2c2f0d4aa)" d="M 206.64595 122.433364 
Q 293.492536 147.981881 380.339123 173.530399 
" style="fill:none;stroke:#000000;stroke-linecap:round;stroke-opacity:0.9;stroke-width:0.4;"/>
   </g>
   <g id="patch_9">
    <path clip-path="url(#pe2c2f0d4aa)" d="M 206.64595 226.622636 
Q 234.835975 201.743823 263.025999 176.865009 
" style="fill:none;stroke:#000000;stroke-linecap:round;stroke-opacity:0.9;stroke-width:0.4;"/>
   </g>
   <g id="patch_10">
    <path clip-path="url(#pe2c2f0d4aa)" d="M 265.67405 174.528 
Q 293.420931 174.528 321.167812 174.528 
" style="fill:none;stroke:#000000;stroke-linecap:round;stroke-opacity:0.9;stroke-width:0.4;"/>
   </g>
   <g id="patch_11">
    <path clip-path="url(#pe2c2f0d4aa)" d="M 324.702149 174.528 
Q 353.188503 214.37449 381.674857 254.22098 
" style="fill:none;stroke:#000000;stroke-linecap:round;stroke-opacity:0.9;stroke-width:0.4;"/>
   </g>
   <g id="PathCollection_1">
    <defs>
     <path d="M 0 3.535534 
C 0.937635 3.535534 1.836992 3.163008 2.5 2.5 
C 3.163008 1.836992 3.535534 0.937635 3.535534 0 
C 3.535534 -0.937635 3.163008 -1.836992 2.5 -2.5 
C 1.836992 -3.163008 0.937635 -3.535534 0 -3.535534 
C -0.937635 -3.535534 -1.836992 -3.163008 -2.5 -2.5 
C -3.163008 -1.836992 -3.535534 -0.937635 -3.535534 0 
C -3.535534 0.937635 -3.163008 1.836992 -2.5 2.5 
C -1.836992 3.163008 -0.937635 3.535534 0 3.535534 
z
" id="C0_0_659700955a"/>
    </defs>
    <g clip-path="url(#pe2c2f0d4aa)">
     <use style="fill:#fdb462;fill-opacity:0.9;" x="88.589752" xlink:href="#C0_0_659700955a" y="53.568"/>
    </g>
    <g clip-path="url(#pe2c2f0d4aa)">
     <use style="fill:#fdb462;fill-opacity:0.9;" x="88.589752" xlink:href="#C0_0_659700955a" y="114.048"/>
    </g>
    <g clip-path="url(#pe2c2f0d4aa)">
     <use style="fill:#fdb462;fill-opacity:0.9;" x="88.589752" xlink:href="#C0_0_659700955a" y="174.528"/>
    </g>
    <g clip-path="url(#pe2c2f0d4aa)">
     <use style="fill:#fdb462;fill-opacity:0.9;" x="88.589752" xlink:href="#C0_0_659700955a" y="235.008"/>
    </g>
    <g clip-path="url(#pe2c2f0d4aa)">
     <use style="fill:#ffed6f;fill-opacity:0.9;" x="88.589752" xlink:href="#C0_0_659700955a" y="295.488"/>
    </g>
    <g clip-path="url(#pe2c2f0d4aa)">
     <use style="fill:#80b1d3;fill-opacity:0.9;" x="147.617851" xlink:href="#C0_0_659700955a" y="174.528"/>
    </g>
    <g clip-path="url(#pe2c2f0d4aa)">
     <use style="fill:#80b1d3;fill-opacity:0.9;" x="206.64595" xlink:href="#C0_0_659700955a" y="122.433364"/>
    </g>
    <g clip-path="url(#pe2c2f0d4aa)">
     <use style="fill:#80b1d3;fill-opacity:0.9;" x="206.64595" xlink:href="#C0_0_659700955a" y="226.622636"/>
    </g>
    <g clip-path="url(#pe2c2f0d4aa)">
     <use style="fill:#80b1d3;fill-opacity:0.9;" x="265.67405" xlink:href="#C0_0_659700955a" y="174.528"/>
    </g>
    <g clip-path="url(#pe2c2f0d4aa)">
     <use style="fill:#80b1d3;fill-opacity:0.9;" x="324.702149" xlink:href="#C0_0_659700955a" y="174.528"/>
    </g>
    <g clip-path="url(#pe2c2f0d4aa)">
     <use style="fill:#b3de69;fill-opacity:0.9;" x="383.730248" xlink:href="#C0_0_659700955a" y="91.959955"/>
    </g>
    <g clip-path="url(#pe2c2f0d4aa)">
     <use style="fill:#b3de69;fill-opacity:0.9;" x="383.730248" xlink:href="#C0_0_659700955a" y="174.528"/>
    </g>
    <g clip-path="url(#pe2c2f0d4aa)">
     <use style="fill:#b3de69;fill-opacity:0.9;" x="383.730248" xlink:href="#C0_0_659700955a" y="257.096045"/>
    </g>
   </g>
  </g>
 </g>
 <defs>
  <clipPath id="pe2c2f0d4aa">
   <rect height="266.112" width="357.12" x="57.6" y="41.472"/>
  </clipPath>
 </defs>
</svg>
