<?xml version="1.0" encoding="utf-8" standalone="no"?>
<!DOCTYPE svg PUBLIC "-//W3C//DTD SVG 1.1//EN"
  "http://www.w3.org/Graphics/SVG/1.1/DTD/svg11.dtd">
<!-- Created with matplotlib (https://matplotlib.org/) -->
<svg height="345.6pt" version="1.1" viewBox="0 0 460.8 345.6" width="460.8pt" xmlns="http://www.w3.org/2000/svg" xmlns:xlink="http://www.w3.org/1999/xlink">
 <defs>
  <style type="text/css">
*{stroke-linecap:butt;stroke-linejoin:round;}
  </style>
 </defs>
 <g id="figure_1">
  <g id="patch_1">
   <path d="M 0 345.6 
L 460.8 345.6 
L 460.8 0 
L 0 0 
z
" style="fill:#ffffff;"/>
  </g>
  <g id="axes_1">
   <g id="patch_2">
    <path clip-path="url(#pc4530a52eb)" d="M 88.589752 111.606597 
Q 213.354987 140.230476 338.120223 168.854355 
" style="fill:none;stroke:#000000;stroke-linecap:round;stroke-opacity:0.9;stroke-width:0.4;"/>
   </g>
   <g id="patch_3">
    <path clip-path="url(#pc4530a52eb)" d="M 88.589752 169.645195 
Q 128.986027 169.645195 169.382301 169.645195 
" style="fill:none;stroke:#000000;stroke-linecap:round;stroke-opacity:0.9;stroke-width:0.4;"/>
   </g>
   <g id="patch_4">
    <path clip-path="url(#pc4530a52eb)" d="M 88.589752 227.683792 
Q 234.423906 199.005892 380.25806 170.327991 
" style="fill:none;stroke:#000000;stroke-linecap:round;stroke-opacity:0.9;stroke-width:0.4;"/>
   </g>
   <g id="patch_5">
    <path clip-path="url(#pc4530a52eb)" d="M 88.589752 227.683792 
Q 234.396885 238.155376 380.204018 248.62696 
" style="fill:none;stroke:#000000;stroke-linecap:round;stroke-opacity:0.9;stroke-width:0.4;"/>
   </g>
   <g id="patch_6">
    <path clip-path="url(#pc4530a52eb)" d="M 88.589752 285.72239 
Q 109.067106 229.346947 129.544459 172.971504 
" style="fill:none;stroke:#000000;stroke-linecap:round;stroke-opacity:0.9;stroke-width:0.4;"/>
   </g>
   <g id="patch_7">
    <path clip-path="url(#pc4530a52eb)" d="M 88.589752 285.72239 
Q 129.714305 229.113149 170.838857 172.503907 
" style="fill:none;stroke:#000000;stroke-linecap:round;stroke-opacity:0.9;stroke-width:0.4;"/>
   </g>
   <g id="patch_8">
    <path clip-path="url(#pc4530a52eb)" d="M 130.75268 169.645195 
Q 150.067491 169.645195 169.382301 169.645195 
" style="fill:none;stroke:#000000;stroke-linecap:round;stroke-opacity:0.9;stroke-width:0.4;"/>
   </g>
   <g id="patch_9">
    <path clip-path="url(#pc4530a52eb)" d="M 172.915608 169.645195 
Q 192.230419 169.645195 211.545229 169.645195 
" style="fill:none;stroke:#000000;stroke-linecap:round;stroke-opacity:0.9;stroke-width:0.4;"/>
   </g>
   <g id="patch_10">
    <path clip-path="url(#pc4530a52eb)" d="M 215.078536 169.645195 
Q 234.393347 169.645195 253.708157 169.645195 
" style="fill:none;stroke:#000000;stroke-linecap:round;stroke-opacity:0.9;stroke-width:0.4;"/>
   </g>
   <g id="patch_11">
    <path clip-path="url(#pc4530a52eb)" d="M 257.241464 169.645195 
Q 276.556275 169.645195 295.871085 169.645195 
" style="fill:none;stroke:#000000;stroke-linecap:round;stroke-opacity:0.9;stroke-width:0.4;"/>
   </g>
   <g id="patch_12">
    <path clip-path="url(#pc4530a52eb)" d="M 257.241464 169.645195 
Q 318.719846 169.645195 380.198228 169.645195 
" style="fill:none;stroke:#000000;stroke-linecap:round;stroke-opacity:0.9;stroke-width:0.4;"/>
   </g>
   <g id="patch_13">
    <path clip-path="url(#pc4530a52eb)" d="M 299.404392 169.645195 
Q 318.719203 169.645195 338.034013 169.645195 
" style="fill:none;stroke:#000000;stroke-linecap:round;stroke-opacity:0.9;stroke-width:0.4;"/>
   </g>
   <g id="patch_14">
    <path clip-path="url(#pc4530a52eb)" d="M 341.56732 169.645195 
Q 361.818212 131.588547 382.069105 93.531899 
" style="fill:none;stroke:#000000;stroke-linecap:round;stroke-opacity:0.9;stroke-width:0.4;"/>
   </g>
   <g id="PathCollection_1">
    <defs>
     <path d="M 0 3.535534 
C 0.937635 3.535534 1.836992 3.163008 2.5 2.5 
C 3.163008 1.836992 3.535534 0.937635 3.535534 0 
C 3.535534 -0.937635 3.163008 -1.836992 2.5 -2.5 
C 1.836992 -3.163008 0.937635 -3.535534 0 -3.535534 
C -0.937635 -3.535534 -1.836992 -3.163008 -2.5 -2.5 
C -3.163008 -1.836992 -3.535534 -0.937635 -3.535534 0 
C -3.535534 0.937635 -3.163008 1.836992 -2.5 2.5 
C -1.836992 3.163008 -0.937635 3.535534 0 3.535534 
z
" id="C0_0_450c0d33f1"/>
    </defs>
    <g clip-path="url(#pc4530a52eb)">
     <use style="fill:#fdb462;fill-opacity:0.9;" x="88.589752" xlink:href="#C0_0_450c0d33f1" y="53.568"/>
    </g>
    <g clip-path="url(#pc4530a52eb)">
     <use style="fill:#fdb462;fill-opacity:0.9;" x="88.589752" xlink:href="#C0_0_450c0d33f1" y="111.606597"/>
    </g>
    <g clip-path="url(#pc4530a52eb)">
     <use style="fill:#fdb462;fill-opacity:0.9;" x="88.589752" xlink:href="#C0_0_450c0d33f1" y="169.645195"/>
    </g>
    <g clip-path="url(#pc4530a52eb)">
     <use style="fill:#fdb462;fill-opacity:0.9;" x="88.589752" xlink:href="#C0_0_450c0d33f1" y="227.683792"/>
    </g>
    <g clip-path="url(#pc4530a52eb)">
     <use style="fill:#ffed6f;fill-opacity:0.9;" x="88.589752" xlink:href="#C0_0_450c0d33f1" y="285.72239"/>
    </g>
    <g clip-path="url(#pc4530a52eb)">
     <use style="fill:#80b1d3;fill-opacity:0.9;" x="130.75268" xlink:href="#C0_0_450c0d33f1" y="169.645195"/>
    </g>
    <g clip-path="url(#pc4530a52eb)">
     <use style="fill:#80b1d3;fill-opacity:0.9;" x="172.915608" xlink:href="#C0_0_450c0d33f1" y="169.645195"/>
    </g>
    <g clip-path="url(#pc4530a52eb)">
     <use style="fill:#80b1d3;fill-opacity:0.9;" x="215.078536" xlink:href="#C0_0_450c0d33f1" y="169.645195"/>
    </g>
    <g clip-path="url(#pc4530a52eb)">
     <use style="fill:#80b1d3;fill-opacity:0.9;" x="257.241464" xlink:href="#C0_0_450c0d33f1" y="169.645195"/>
    </g>
    <g clip-path="url(#pc4530a52eb)">
     <use style="fill:#80b1d3;fill-opacity:0.9;" x="299.404392" xlink:href="#C0_0_450c0d33f1" y="169.645195"/>
    </g>
    <g clip-path="url(#pc4530a52eb)">
     <use style="fill:#80b1d3;fill-opacity:0.9;" x="341.56732" xlink:href="#C0_0_450c0d33f1" y="169.645195"/>
    </g>
    <g clip-path="url(#pc4530a52eb)">
     <use style="fill:#b3de69;fill-opacity:0.9;" x="383.730248" xlink:href="#C0_0_450c0d33f1" y="90.410183"/>
    </g>
    <g clip-path="url(#pc4530a52eb)">
     <use style="fill:#b3de69;fill-opacity:0.9;" x="383.730248" xlink:href="#C0_0_450c0d33f1" y="169.645195"/>
    </g>
    <g clip-path="url(#pc4530a52eb)">
     <use style="fill:#b3de69;fill-opacity:0.9;" x="383.730248" xlink:href="#C0_0_450c0d33f1" y="248.880207"/>
    </g>
   </g>
  </g>
 </g>
 <defs>
  <clipPath id="pc4530a52eb">
   <rect height="266.112" width="357.12" x="57.6" y="41.472"/>
  </clipPath>
 </defs>
</svg>
