<?xml version="1.0" encoding="utf-8" standalone="no"?>
<!DOCTYPE svg PUBLIC "-//W3C//DTD SVG 1.1//EN"
  "http://www.w3.org/Graphics/SVG/1.1/DTD/svg11.dtd">
<!-- Created with matplotlib (https://matplotlib.org/) -->
<svg height="345.6pt" version="1.1" viewBox="0 0 460.8 345.6" width="460.8pt" xmlns="http://www.w3.org/2000/svg" xmlns:xlink="http://www.w3.org/1999/xlink">
 <defs>
  <style type="text/css">
*{stroke-linecap:butt;stroke-linejoin:round;}
  </style>
 </defs>
 <g id="figure_1">
  <g id="patch_1">
   <path d="M 0 345.6 
L 460.8 345.6 
L 460.8 0 
L 0 0 
z
" style="fill:#ffffff;"/>
  </g>
  <g id="axes_1">
   <g id="patch_2">
    <path d="M 57.6 307.584 
L 414.72 307.584 
L 414.72 41.472 
L 57.6 41.472 
z
" style="fill:#ffffff;"/>
   </g>
   <g id="PolyCollection_1">
    <path clip-path="url(#p18ed45f674)" d="M 73.832727 207.746866 
L 73.832727 207.746866 
L 75.464157 207.746866 
L 77.095587 207.746866 
L 78.727017 207.746866 
L 80.358447 207.746866 
L 81.989877 207.746866 
L 83.621307 207.746866 
L 85.252736 207.746866 
L 86.884166 207.746866 
L 88.515596 207.746866 
L 90.147026 207.746866 
L 91.778456 207.746866 
L 93.409886 207.746866 
L 95.041316 207.746866 
L 96.672746 207.746866 
L 98.304175 207.746866 
L 99.935605 207.746866 
L 101.567035 207.746866 
L 103.198465 207.746866 
L 104.829895 207.746866 
L 106.461325 207.746866 
L 108.092755 207.746866 
L 109.724185 207.746866 
L 111.355614 207.746866 
L 112.987044 207.746866 
L 114.618474 207.746866 
L 116.249904 207.746866 
L 117.881334 207.746866 
L 119.512764 207.746866 
L 121.144194 207.746866 
L 122.775624 207.746866 
L 124.407053 207.746866 
L 126.038483 207.746866 
L 127.669913 207.746866 
L 129.301343 207.746866 
L 130.932773 207.746866 
L 132.564203 207.746866 
L 134.195633 207.746866 
L 135.827063 207.746866 
L 137.458492 207.746866 
L 139.089922 207.746866 
L 140.721352 207.746866 
L 142.352782 207.746866 
L 143.984212 207.746866 
L 145.615642 207.746866 
L 147.247072 207.746866 
L 148.878502 207.746866 
L 150.509931 207.746866 
L 152.141361 207.746866 
L 153.772791 207.746866 
L 155.404221 207.746866 
L 157.035651 207.746866 
L 158.667081 207.746866 
L 160.298511 207.746866 
L 161.929941 207.746866 
L 163.56137 207.746866 
L 165.1928 207.746866 
L 166.82423 207.746866 
L 168.45566 207.746866 
L 170.08709 207.746866 
L 171.71852 207.746866 
L 173.34995 207.746866 
L 174.98138 207.746866 
L 176.61281 207.746866 
L 178.244239 207.746866 
L 179.875669 207.746866 
L 181.507099 207.746866 
L 183.138529 207.746866 
L 184.769959 207.746866 
L 186.401389 207.746866 
L 188.032819 207.746866 
L 189.664249 207.746866 
L 191.295678 207.746866 
L 192.927108 207.746866 
L 194.558538 207.746866 
L 196.189968 207.746866 
L 197.821398 207.746866 
L 199.452828 207.746866 
L 201.084258 207.746866 
L 202.715688 207.746866 
L 204.347117 207.746866 
L 205.978547 207.746866 
L 207.609977 207.746866 
L 209.241407 207.746866 
L 210.872837 207.746866 
L 212.504267 207.746866 
L 214.135697 207.746866 
L 215.767127 207.746866 
L 217.398556 207.746866 
L 219.029986 207.746866 
L 220.661416 207.746866 
L 222.292846 207.746866 
L 223.924276 207.746866 
L 225.555706 207.746866 
L 227.187136 207.746866 
L 228.818566 213.343522 
L 230.449995 202.421015 
L 232.081425 196.553552 
L 233.712855 207.746866 
L 235.344285 195.470328 
L 236.975715 192.942806 
L 238.607145 192.491463 
L 240.238575 195.109254 
L 241.870005 207.746866 
L 243.501434 203.504239 
L 245.132864 188.60991 
L 246.764294 176.874985 
L 248.395724 207.746866 
L 250.027154 207.746866 
L 251.658584 192.942806 
L 253.290014 193.123343 
L 254.921444 205.219343 
L 256.552873 207.746866 
L 258.184303 189.693134 
L 259.815733 205.941493 
L 261.447163 190.054209 
L 263.078593 192.762269 
L 264.710023 181.885325 
L 266.341453 190.054209 
L 267.972883 193.845493 
L 269.604312 205.941493 
L 271.235742 207.746866 
L 272.867172 196.73409 
L 274.498602 187.526687 
L 276.130032 203.091582 
L 277.761462 197.004896 
L 279.392892 189.783403 
L 281.024322 171.828147 
L 282.655751 179.492776 
L 284.287181 178.409552 
L 285.918611 168.905552 
L 287.550041 178.860896 
L 289.181471 197.095164 
L 290.812901 181.298149 
L 292.444331 206.663642 
L 294.075761 189.693134 
L 295.70719 190.68609 
L 297.33862 189.783403 
L 298.97005 178.319284 
L 300.60148 185.179701 
L 302.23291 171.226746 
L 303.86434 189.693134 
L 305.49577 172.54209 
L 307.1272 189.693134 
L 308.75863 160.085015 
L 310.390059 180.601791 
L 312.021489 207.746866 
L 313.652919 174.016478 
L 315.284349 194.296836 
L 316.915779 189.693134 
L 318.547209 177.714484 
L 320.178639 184.28991 
L 321.810069 207.746866 
L 323.441498 192.942806 
L 325.072928 187.97803 
L 326.704358 207.746866 
L 328.335788 207.746866 
L 329.967218 192.581731 
L 331.598648 205.941493 
L 333.230078 207.746866 
L 334.861508 190.415284 
L 336.492937 182.643973 
L 338.124367 200.525373 
L 339.755797 194.838448 
L 341.387227 207.746866 
L 343.018657 191.859582 
L 344.650087 199.532418 
L 346.281517 200.976716 
L 347.912947 171.859188 
L 349.544376 172.579702 
L 351.175806 190.325015 
L 352.807236 180.648215 
L 354.438666 180.143355 
L 356.070096 207.746866 
L 357.701526 197.275701 
L 359.332956 183.198304 
L 360.964386 190.054209 
L 362.595815 189.693134 
L 364.227245 181.207881 
L 365.858675 207.746866 
L 367.490105 190.054209 
L 369.121535 178.774925 
L 370.752965 199.081075 
L 372.384395 186.082388 
L 374.015825 189.693134 
L 375.647254 175.990352 
L 377.278684 207.746866 
L 378.910114 188.248836 
L 380.541544 180.305194 
L 382.172974 186.804537 
L 383.804404 197.817313 
L 385.435834 200.254567 
L 387.067264 175.212148 
L 388.698693 174.583881 
L 390.330123 183.374328 
L 391.961553 172.377965 
L 393.592983 186.804537 
L 395.224413 174.040549 
L 396.855843 186.804537 
L 398.487273 184.999164 
L 398.487273 156.477879 
L 398.487273 156.477879 
L 396.855843 153.585672 
L 395.224413 125.98649 
L 393.592983 120.637612 
L 391.961553 131.018507 
L 390.330123 135.051321 
L 388.698693 127.541244 
L 387.067264 137.285731 
L 385.435834 154.217552 
L 383.804404 141.399403 
L 382.172974 140.533388 
L 380.541544 131.379582 
L 378.910114 147.9168 
L 377.278684 125.873194 
L 375.647254 121.359761 
L 374.015825 149.884657 
L 372.384395 144.734033 
L 370.752965 155.300776 
L 369.121535 151.058149 
L 367.490105 158.911522 
L 365.858675 187.458985 
L 364.227245 157.467224 
L 362.595815 160.085015 
L 360.964386 163.695761 
L 359.332956 143.448501 
L 357.701526 171.910209 
L 356.070096 190.325015 
L 354.438666 140.406448 
L 352.807236 152.863522 
L 351.175806 171.278328 
L 349.544376 119.60597 
L 347.912947 119.396418 
L 346.281517 144.542393 
L 344.650087 155.932657 
L 343.018657 136.073552 
L 341.387227 154.849433 
L 339.755797 151.148418 
L 338.124367 173.17397 
L 336.492937 142.031284 
L 334.861508 172.000478 
L 333.230078 172.000478 
L 331.598648 175.250149 
L 329.967218 177.416597 
L 328.335788 142.53624 
L 326.704358 183.129313 
L 325.072928 172.181015 
L 323.441498 161.529313 
L 321.810069 174.889075 
L 320.178639 153.585672 
L 318.547209 138.781612 
L 316.915779 159.281624 
L 315.284349 184.63809 
L 313.652919 147.898746 
L 312.021489 167.938388 
L 310.390059 140.993194 
L 308.75863 122.172179 
L 307.1272 146.183642 
L 305.49577 144.197731 
L 303.86434 146.454448 
L 302.23291 125.060776 
L 300.60148 140.677254 
L 298.97005 137.608119 
L 297.33862 139.774567 
L 295.70719 135.170866 
L 294.075761 158.911522 
L 292.444331 162.973612 
L 290.812901 136.163821 
L 289.181471 134.268179 
L 287.550041 140.857791 
L 285.918611 130.535133 
L 284.287181 144.017194 
L 282.655751 141.309134 
L 281.024322 138.420537 
L 279.392892 153.134328 
L 277.761462 171.910209 
L 276.130032 148.875289 
L 274.498602 151.780299 
L 272.867172 170.344048 
L 271.235742 155.106795 
L 269.604312 146.183642 
L 267.972883 155.300776 
L 266.341453 155.932657 
L 264.710023 153.946746 
L 263.078593 141.670209 
L 261.447163 154.131687 
L 259.815733 160.807164 
L 258.184303 157.557493 
L 256.552873 171.639403 
L 254.921444 174.010245 
L 253.290014 154.578627 
L 251.658584 155.101775 
L 250.027154 172.361552 
L 248.395724 169.111881 
L 246.764294 123.43594 
L 245.132864 161.890388 
L 243.501434 162.070925 
L 241.870005 165.513444 
L 240.238575 173.805851 
L 238.607145 163.334687 
L 236.975715 154.307821 
L 235.344285 153.270752 
L 233.712855 161.529313 
L 232.081425 154.500179 
L 230.449995 172.954746 
L 228.818566 177.416597 
L 227.187136 170.233791 
L 225.555706 154.307821 
L 223.924276 181.117612 
L 222.292846 159.945099 
L 220.661416 151.640382 
L 219.029986 171.278328 
L 217.398556 160.32197 
L 215.767127 169.360119 
L 214.135697 171.278328 
L 212.504267 207.746866 
L 210.872837 207.746866 
L 209.241407 207.746866 
L 207.609977 207.746866 
L 205.978547 207.746866 
L 204.347117 207.746866 
L 202.715688 207.746866 
L 201.084258 207.746866 
L 199.452828 207.746866 
L 197.821398 207.746866 
L 196.189968 207.746866 
L 194.558538 207.746866 
L 192.927108 207.746866 
L 191.295678 207.746866 
L 189.664249 207.746866 
L 188.032819 207.746866 
L 186.401389 207.746866 
L 184.769959 207.746866 
L 183.138529 207.746866 
L 181.507099 207.746866 
L 179.875669 207.746866 
L 178.244239 207.746866 
L 176.61281 207.746866 
L 174.98138 207.746866 
L 173.34995 207.746866 
L 171.71852 207.746866 
L 170.08709 207.746866 
L 168.45566 207.746866 
L 166.82423 207.746866 
L 165.1928 207.746866 
L 163.56137 207.746866 
L 161.929941 207.746866 
L 160.298511 207.746866 
L 158.667081 207.746866 
L 157.035651 207.746866 
L 155.404221 207.746866 
L 153.772791 207.746866 
L 152.141361 207.746866 
L 150.509931 207.746866 
L 148.878502 207.746866 
L 147.247072 207.746866 
L 145.615642 207.746866 
L 143.984212 207.746866 
L 142.352782 207.746866 
L 140.721352 207.746866 
L 139.089922 207.746866 
L 137.458492 207.746866 
L 135.827063 207.746866 
L 134.195633 207.746866 
L 132.564203 207.746866 
L 130.932773 207.746866 
L 129.301343 207.746866 
L 127.669913 207.746866 
L 126.038483 207.746866 
L 124.407053 207.746866 
L 122.775624 207.746866 
L 121.144194 207.746866 
L 119.512764 207.746866 
L 117.881334 207.746866 
L 116.249904 207.746866 
L 114.618474 207.746866 
L 112.987044 207.746866 
L 111.355614 207.746866 
L 109.724185 207.746866 
L 108.092755 207.746866 
L 106.461325 207.746866 
L 104.829895 207.746866 
L 103.198465 207.746866 
L 101.567035 207.746866 
L 99.935605 207.746866 
L 98.304175 207.746866 
L 96.672746 207.746866 
L 95.041316 207.746866 
L 93.409886 207.746866 
L 91.778456 207.746866 
L 90.147026 207.746866 
L 88.515596 207.746866 
L 86.884166 207.746866 
L 85.252736 207.746866 
L 83.621307 207.746866 
L 81.989877 207.746866 
L 80.358447 207.746866 
L 78.727017 207.746866 
L 77.095587 207.746866 
L 75.464157 207.746866 
L 73.832727 207.746866 
z
" style="fill:#1f77b4;fill-opacity:0.2;"/>
   </g>
   <g id="PolyCollection_2">
    <path clip-path="url(#p18ed45f674)" d="M 73.832727 207.746866 
L 73.832727 207.746866 
L 75.464157 207.746866 
L 77.095587 207.746866 
L 78.727017 207.746866 
L 80.358447 207.746866 
L 81.989877 207.746866 
L 83.621307 207.746866 
L 85.252736 207.746866 
L 86.884166 207.746866 
L 88.515596 207.746866 
L 90.147026 207.746866 
L 91.778456 207.746866 
L 93.409886 207.746866 
L 95.041316 207.746866 
L 96.672746 207.746866 
L 98.304175 207.746866 
L 99.935605 207.746866 
L 101.567035 207.746866 
L 103.198465 207.746866 
L 104.829895 207.746866 
L 106.461325 207.746866 
L 108.092755 207.746866 
L 109.724185 207.746866 
L 111.355614 207.746866 
L 112.987044 207.746866 
L 114.618474 207.746866 
L 116.249904 207.746866 
L 117.881334 207.746866 
L 119.512764 207.746866 
L 121.144194 207.746866 
L 122.775624 207.746866 
L 124.407053 207.746866 
L 126.038483 207.746866 
L 127.669913 207.746866 
L 129.301343 207.746866 
L 130.932773 207.746866 
L 132.564203 207.746866 
L 134.195633 207.746866 
L 135.827063 207.746866 
L 137.458492 207.746866 
L 139.089922 207.746866 
L 140.721352 207.746866 
L 142.352782 207.746866 
L 143.984212 207.746866 
L 145.615642 207.746866 
L 147.247072 207.746866 
L 148.878502 207.746866 
L 150.509931 207.746866 
L 152.141361 207.746866 
L 153.772791 207.746866 
L 155.404221 207.746866 
L 157.035651 207.746866 
L 158.667081 207.746866 
L 160.298511 207.746866 
L 161.929941 207.746866 
L 163.56137 207.746866 
L 165.1928 207.746866 
L 166.82423 207.746866 
L 168.45566 207.746866 
L 170.08709 207.746866 
L 171.71852 207.746866 
L 173.34995 207.746866 
L 174.98138 207.746866 
L 176.61281 207.746866 
L 178.244239 207.746866 
L 179.875669 207.746866 
L 181.507099 207.746866 
L 183.138529 207.746866 
L 184.769959 207.746866 
L 186.401389 207.746866 
L 188.032819 207.746866 
L 189.664249 207.746866 
L 191.295678 207.746866 
L 192.927108 207.746866 
L 194.558538 207.746866 
L 196.189968 207.746866 
L 197.821398 207.746866 
L 199.452828 207.746866 
L 201.084258 207.746866 
L 202.715688 269.490627 
L 204.347117 207.746866 
L 205.978547 240.965731 
L 207.609977 260.463761 
L 209.241407 207.746866 
L 210.872837 261.18591 
L 212.504267 252.881194 
L 214.135697 260.824836 
L 215.767127 261.90806 
L 217.398556 261.18591 
L 219.029986 243.854328 
L 220.661416 279.961791 
L 222.292846 261.90806 
L 223.924276 237.354985 
L 225.555706 265.518806 
L 227.187136 255.769791 
L 228.818566 243.493254 
L 230.449995 261.90806 
L 232.081425 259.741612 
L 233.712855 240.965731 
L 235.344285 223.273075 
L 236.975715 261.90806 
L 238.607145 249.992597 
L 240.238575 225.800597 
L 241.870005 243.854328 
L 243.501434 238.799284 
L 245.132864 236.99391 
L 246.764294 279.961791 
L 248.395724 264.435582 
L 250.027154 225.800597 
L 251.658584 241.326806 
L 253.290014 237.71606 
L 254.921444 240.965731 
L 256.552873 261.18591 
L 258.184303 243.854328 
L 259.815733 207.746866 
L 261.447163 225.800597 
L 263.078593 222.912 
L 264.710023 227.60597 
L 266.341453 227.60597 
L 267.972883 288.988657 
L 269.604312 210.274388 
L 271.235742 242.41003 
L 272.867172 239.882507 
L 274.498602 247.465075 
L 276.130032 274.184597 
L 277.761462 225.078448 
L 279.392892 239.882507 
L 281.024322 244.576478 
L 282.655751 266.963104 
L 284.287181 207.746866 
L 285.918611 243.854328 
L 287.550041 233.02209 
L 289.181471 242.41003 
L 290.812901 251.79797 
L 292.444331 240.965731 
L 294.075761 254.686567 
L 295.70719 207.746866 
L 297.33862 217.856955 
L 298.97005 258.297313 
L 300.60148 259.741612 
L 302.23291 226.883821 
L 303.86434 265.879881 
L 305.49577 228.689194 
L 307.1272 223.273075 
L 308.75863 229.772418 
L 310.390059 243.493254 
L 312.021489 225.800597 
L 313.652919 238.438209 
L 315.284349 225.800597 
L 316.915779 245.659701 
L 318.547209 233.744239 
L 320.178639 208.83009 
L 321.810069 242.41003 
L 323.441498 224.717373 
L 325.072928 207.746866 
L 326.704358 222.189851 
L 328.335788 210.274388 
L 329.967218 270.212776 
L 331.598648 225.800597 
L 333.230078 243.493254 
L 334.861508 255.769791 
L 336.492937 253.964418 
L 338.124367 221.467701 
L 339.755797 260.463761 
L 341.387227 219.662328 
L 343.018657 279.961791 
L 344.650087 223.273075 
L 346.281517 225.439522 
L 347.912947 207.746866 
L 349.544376 238.799284 
L 351.175806 214.607284 
L 352.807236 244.937552 
L 354.438666 207.746866 
L 356.070096 243.854328 
L 357.701526 220.023403 
L 359.332956 242.41003 
L 360.964386 230.855642 
L 362.595815 207.746866 
L 364.227245 243.854328 
L 365.858675 240.243582 
L 367.490105 279.961791 
L 369.121535 261.90806 
L 370.752965 225.800597 
L 372.384395 279.961791 
L 374.015825 240.243582 
L 375.647254 207.746866 
L 377.278684 207.746866 
L 378.910114 274.545672 
L 380.541544 277.795343 
L 382.172974 211.718687 
L 383.804404 264.074507 
L 385.435834 240.965731 
L 387.067264 243.132179 
L 388.698693 267.685254 
L 390.330123 291.877254 
L 391.961553 254.686567 
L 393.592983 238.438209 
L 395.224413 295.488 
L 396.855843 256.49194 
L 398.487273 233.02209 
L 398.487273 100.036735 
L 398.487273 100.036735 
L 396.855843 88.953313 
L 395.224413 53.568 
L 393.592983 82.815045 
L 391.961553 60.789493 
L 390.330123 57.900896 
L 388.698693 77.037851 
L 387.067264 96.174806 
L 385.435834 97.674654 
L 383.804404 95.813731 
L 382.172974 60.428418 
L 380.541544 97.39932 
L 378.910114 77.398925 
L 377.278684 81.370746 
L 375.647254 96.391451 
L 374.015825 88.231164 
L 372.384395 118.200358 
L 370.752965 122.469535 
L 369.121535 117.839284 
L 367.490105 118.922507 
L 365.858675 122.288655 
L 364.227245 85.342567 
L 362.595815 99.785552 
L 360.964386 103.860537 
L 359.332956 85.703642 
L 357.701526 102.313075 
L 356.070096 119.785947 
L 354.438666 104.479522 
L 352.807236 110.667029 
L 351.175806 109.672119 
L 349.544376 94.008358 
L 347.912947 91.119761 
L 346.281517 115.374557 
L 344.650087 107.368119 
L 343.018657 95.452657 
L 341.387227 88.231164 
L 339.755797 110.617791 
L 338.124367 121.287546 
L 336.492937 113.145313 
L 334.861508 127.889194 
L 333.230078 126.767674 
L 331.598648 125.456239 
L 329.967218 106.284896 
L 328.335788 60.789493 
L 326.704358 128.568358 
L 325.072928 127.706468 
L 323.441498 119.283582 
L 321.810069 127.779055 
L 320.178639 127.213336 
L 318.547209 117.478209 
L 316.915779 117.839284 
L 315.284349 127.146166 
L 313.652919 114.348896 
L 312.021489 106.284896 
L 310.390059 111.33994 
L 308.75863 101.229851 
L 307.1272 101.952 
L 305.49577 123.805612 
L 303.86434 114.950687 
L 302.23291 90.758687 
L 300.60148 105.923821 
L 298.97005 106.64597 
L 297.33862 110.978866 
L 295.70719 100.507702 
L 294.075761 129.102806 
L 292.444331 118.561433 
L 290.812901 101.952 
L 289.181471 89.314388 
L 287.550041 111.701015 
L 285.918611 95.452657 
L 284.287181 105.201672 
L 282.655751 105.923821 
L 281.024322 108.812418 
L 279.392892 113.145313 
L 277.761462 124.454171 
L 276.130032 122.969552 
L 274.498602 107.007045 
L 272.867172 122.549666 
L 271.235742 112.423164 
L 269.604312 117.117134 
L 267.972883 91.119761 
L 266.341453 97.619104 
L 264.710023 132.196299 
L 263.078593 108.451343 
L 261.447163 92.56406 
L 259.815733 113.867463 
L 258.184303 121.088955 
L 256.552873 137.265099 
L 254.921444 130.83797 
L 253.290014 119.283582 
L 251.658584 121.811104 
L 250.027154 131.560119 
L 248.395724 137.337313 
L 246.764294 77.76 
L 245.132864 119.283582 
L 243.501434 136.976239 
L 241.870005 142.753433 
L 240.238575 144.522699 
L 238.607145 137.337313 
L 236.975715 135.205254 
L 235.344285 134.954221 
L 233.712855 136.615164 
L 232.081425 133.004418 
L 230.449995 152.108548 
L 228.818566 151.023761 
L 227.187136 118.922507 
L 225.555706 123.977552 
L 223.924276 144.919881 
L 222.292846 117.478209 
L 220.661416 117.478209 
L 219.029986 147.642985 
L 217.398556 117.478209 
L 215.767127 117.839284 
L 214.135697 147.034746 
L 212.504267 123.255403 
L 210.872837 117.478209 
L 209.241407 142.103499 
L 207.609977 117.478209 
L 205.978547 136.615164 
L 204.347117 207.746866 
L 202.715688 207.746866 
L 201.084258 207.746866 
L 199.452828 207.746866 
L 197.821398 207.746866 
L 196.189968 207.746866 
L 194.558538 207.746866 
L 192.927108 207.746866 
L 191.295678 207.746866 
L 189.664249 207.746866 
L 188.032819 207.746866 
L 186.401389 207.746866 
L 184.769959 207.746866 
L 183.138529 207.746866 
L 181.507099 207.746866 
L 179.875669 207.746866 
L 178.244239 207.746866 
L 176.61281 207.746866 
L 174.98138 207.746866 
L 173.34995 207.746866 
L 171.71852 207.746866 
L 170.08709 207.746866 
L 168.45566 207.746866 
L 166.82423 207.746866 
L 165.1928 207.746866 
L 163.56137 207.746866 
L 161.929941 207.746866 
L 160.298511 207.746866 
L 158.667081 207.746866 
L 157.035651 207.746866 
L 155.404221 207.746866 
L 153.772791 207.746866 
L 152.141361 207.746866 
L 150.509931 207.746866 
L 148.878502 207.746866 
L 147.247072 207.746866 
L 145.615642 207.746866 
L 143.984212 207.746866 
L 142.352782 207.746866 
L 140.721352 207.746866 
L 139.089922 207.746866 
L 137.458492 207.746866 
L 135.827063 207.746866 
L 134.195633 207.746866 
L 132.564203 207.746866 
L 130.932773 207.746866 
L 129.301343 207.746866 
L 127.669913 207.746866 
L 126.038483 207.746866 
L 124.407053 207.746866 
L 122.775624 207.746866 
L 121.144194 207.746866 
L 119.512764 207.746866 
L 117.881334 207.746866 
L 116.249904 207.746866 
L 114.618474 207.746866 
L 112.987044 207.746866 
L 111.355614 207.746866 
L 109.724185 207.746866 
L 108.092755 207.746866 
L 106.461325 207.746866 
L 104.829895 207.746866 
L 103.198465 207.746866 
L 101.567035 207.746866 
L 99.935605 207.746866 
L 98.304175 207.746866 
L 96.672746 207.746866 
L 95.041316 207.746866 
L 93.409886 207.746866 
L 91.778456 207.746866 
L 90.147026 207.746866 
L 88.515596 207.746866 
L 86.884166 207.746866 
L 85.252736 207.746866 
L 83.621307 207.746866 
L 81.989877 207.746866 
L 80.358447 207.746866 
L 78.727017 207.746866 
L 77.095587 207.746866 
L 75.464157 207.746866 
L 73.832727 207.746866 
z
" style="fill:#1f77b4;fill-opacity:0.1;"/>
   </g>
   <g id="matplotlib.axis_1">
    <g id="xtick_1">
     <g id="line2d_1">
      <defs>
       <path d="M 0 0 
L 0 3.5 
" id="mfeeacf57e7" style="stroke:#000000;stroke-width:0.8;"/>
      </defs>
      <g>
       <use style="stroke:#000000;stroke-width:0.8;" x="73.832727" xlink:href="#mfeeacf57e7" y="307.584"/>
      </g>
     </g>
     <g id="text_1">
      <!-- 0 -->
      <defs>
       <path d="M 31.78125 66.40625 
Q 24.171875 66.40625 20.328125 58.90625 
Q 16.5 51.421875 16.5 36.375 
Q 16.5 21.390625 20.328125 13.890625 
Q 24.171875 6.390625 31.78125 6.390625 
Q 39.453125 6.390625 43.28125 13.890625 
Q 47.125 21.390625 47.125 36.375 
Q 47.125 51.421875 43.28125 58.90625 
Q 39.453125 66.40625 31.78125 66.40625 
z
M 31.78125 74.21875 
Q 44.046875 74.21875 50.515625 64.515625 
Q 56.984375 54.828125 56.984375 36.375 
Q 56.984375 17.96875 50.515625 8.265625 
Q 44.046875 -1.421875 31.78125 -1.421875 
Q 19.53125 -1.421875 13.0625 8.265625 
Q 6.59375 17.96875 6.59375 36.375 
Q 6.59375 54.828125 13.0625 64.515625 
Q 19.53125 74.21875 31.78125 74.21875 
z
" id="DejaVuSans-48"/>
      </defs>
      <g transform="translate(70.651477 322.182437)scale(0.1 -0.1)">
       <use xlink:href="#DejaVuSans-48"/>
      </g>
     </g>
    </g>
    <g id="xtick_2">
     <g id="line2d_2">
      <g>
       <use style="stroke:#000000;stroke-width:0.8;" x="114.618474" xlink:href="#mfeeacf57e7" y="307.584"/>
      </g>
     </g>
     <g id="text_2">
      <!-- 25 -->
      <defs>
       <path d="M 19.1875 8.296875 
L 53.609375 8.296875 
L 53.609375 0 
L 7.328125 0 
L 7.328125 8.296875 
Q 12.9375 14.109375 22.625 23.890625 
Q 32.328125 33.6875 34.8125 36.53125 
Q 39.546875 41.84375 41.421875 45.53125 
Q 43.3125 49.21875 43.3125 52.78125 
Q 43.3125 58.59375 39.234375 62.25 
Q 35.15625 65.921875 28.609375 65.921875 
Q 23.96875 65.921875 18.8125 64.3125 
Q 13.671875 62.703125 7.8125 59.421875 
L 7.8125 69.390625 
Q 13.765625 71.78125 18.9375 73 
Q 24.125 74.21875 28.421875 74.21875 
Q 39.75 74.21875 46.484375 68.546875 
Q 53.21875 62.890625 53.21875 53.421875 
Q 53.21875 48.921875 51.53125 44.890625 
Q 49.859375 40.875 45.40625 35.40625 
Q 44.1875 33.984375 37.640625 27.21875 
Q 31.109375 20.453125 19.1875 8.296875 
z
" id="DejaVuSans-50"/>
       <path d="M 10.796875 72.90625 
L 49.515625 72.90625 
L 49.515625 64.59375 
L 19.828125 64.59375 
L 19.828125 46.734375 
Q 21.96875 47.46875 24.109375 47.828125 
Q 26.265625 48.1875 28.421875 48.1875 
Q 40.625 48.1875 47.75 41.5 
Q 54.890625 34.8125 54.890625 23.390625 
Q 54.890625 11.625 47.5625 5.09375 
Q 40.234375 -1.421875 26.90625 -1.421875 
Q 22.3125 -1.421875 17.546875 -0.640625 
Q 12.796875 0.140625 7.71875 1.703125 
L 7.71875 11.625 
Q 12.109375 9.234375 16.796875 8.0625 
Q 21.484375 6.890625 26.703125 6.890625 
Q 35.15625 6.890625 40.078125 11.328125 
Q 45.015625 15.765625 45.015625 23.390625 
Q 45.015625 31 40.078125 35.4375 
Q 35.15625 39.890625 26.703125 39.890625 
Q 22.75 39.890625 18.8125 39.015625 
Q 14.890625 38.140625 10.796875 36.28125 
z
" id="DejaVuSans-53"/>
      </defs>
      <g transform="translate(108.255974 322.182437)scale(0.1 -0.1)">
       <use xlink:href="#DejaVuSans-50"/>
       <use x="63.623047" xlink:href="#DejaVuSans-53"/>
      </g>
     </g>
    </g>
    <g id="xtick_3">
     <g id="line2d_3">
      <g>
       <use style="stroke:#000000;stroke-width:0.8;" x="155.404221" xlink:href="#mfeeacf57e7" y="307.584"/>
      </g>
     </g>
     <g id="text_3">
      <!-- 50 -->
      <g transform="translate(149.041721 322.182437)scale(0.1 -0.1)">
       <use xlink:href="#DejaVuSans-53"/>
       <use x="63.623047" xlink:href="#DejaVuSans-48"/>
      </g>
     </g>
    </g>
    <g id="xtick_4">
     <g id="line2d_4">
      <g>
       <use style="stroke:#000000;stroke-width:0.8;" x="196.189968" xlink:href="#mfeeacf57e7" y="307.584"/>
      </g>
     </g>
     <g id="text_4">
      <!-- 75 -->
      <defs>
       <path d="M 8.203125 72.90625 
L 55.078125 72.90625 
L 55.078125 68.703125 
L 28.609375 0 
L 18.3125 0 
L 43.21875 64.59375 
L 8.203125 64.59375 
z
" id="DejaVuSans-55"/>
      </defs>
      <g transform="translate(189.827468 322.182437)scale(0.1 -0.1)">
       <use xlink:href="#DejaVuSans-55"/>
       <use x="63.623047" xlink:href="#DejaVuSans-53"/>
      </g>
     </g>
    </g>
    <g id="xtick_5">
     <g id="line2d_5">
      <g>
       <use style="stroke:#000000;stroke-width:0.8;" x="236.975715" xlink:href="#mfeeacf57e7" y="307.584"/>
      </g>
     </g>
     <g id="text_5">
      <!-- 100 -->
      <defs>
       <path d="M 12.40625 8.296875 
L 28.515625 8.296875 
L 28.515625 63.921875 
L 10.984375 60.40625 
L 10.984375 69.390625 
L 28.421875 72.90625 
L 38.28125 72.90625 
L 38.28125 8.296875 
L 54.390625 8.296875 
L 54.390625 0 
L 12.40625 0 
z
" id="DejaVuSans-49"/>
      </defs>
      <g transform="translate(227.431965 322.182437)scale(0.1 -0.1)">
       <use xlink:href="#DejaVuSans-49"/>
       <use x="63.623047" xlink:href="#DejaVuSans-48"/>
       <use x="127.246094" xlink:href="#DejaVuSans-48"/>
      </g>
     </g>
    </g>
    <g id="xtick_6">
     <g id="line2d_6">
      <g>
       <use style="stroke:#000000;stroke-width:0.8;" x="277.761462" xlink:href="#mfeeacf57e7" y="307.584"/>
      </g>
     </g>
     <g id="text_6">
      <!-- 125 -->
      <g transform="translate(268.217712 322.182437)scale(0.1 -0.1)">
       <use xlink:href="#DejaVuSans-49"/>
       <use x="63.623047" xlink:href="#DejaVuSans-50"/>
       <use x="127.246094" xlink:href="#DejaVuSans-53"/>
      </g>
     </g>
    </g>
    <g id="xtick_7">
     <g id="line2d_7">
      <g>
       <use style="stroke:#000000;stroke-width:0.8;" x="318.547209" xlink:href="#mfeeacf57e7" y="307.584"/>
      </g>
     </g>
     <g id="text_7">
      <!-- 150 -->
      <g transform="translate(309.003459 322.182437)scale(0.1 -0.1)">
       <use xlink:href="#DejaVuSans-49"/>
       <use x="63.623047" xlink:href="#DejaVuSans-53"/>
       <use x="127.246094" xlink:href="#DejaVuSans-48"/>
      </g>
     </g>
    </g>
    <g id="xtick_8">
     <g id="line2d_8">
      <g>
       <use style="stroke:#000000;stroke-width:0.8;" x="359.332956" xlink:href="#mfeeacf57e7" y="307.584"/>
      </g>
     </g>
     <g id="text_8">
      <!-- 175 -->
      <g transform="translate(349.789206 322.182437)scale(0.1 -0.1)">
       <use xlink:href="#DejaVuSans-49"/>
       <use x="63.623047" xlink:href="#DejaVuSans-55"/>
       <use x="127.246094" xlink:href="#DejaVuSans-53"/>
      </g>
     </g>
    </g>
    <g id="xtick_9">
     <g id="line2d_9">
      <g>
       <use style="stroke:#000000;stroke-width:0.8;" x="400.118703" xlink:href="#mfeeacf57e7" y="307.584"/>
      </g>
     </g>
     <g id="text_9">
      <!-- 200 -->
      <g transform="translate(390.574953 322.182437)scale(0.1 -0.1)">
       <use xlink:href="#DejaVuSans-50"/>
       <use x="63.623047" xlink:href="#DejaVuSans-48"/>
       <use x="127.246094" xlink:href="#DejaVuSans-48"/>
      </g>
     </g>
    </g>
   </g>
   <g id="matplotlib.axis_2">
    <g id="ytick_1">
     <g id="line2d_10">
      <defs>
       <path d="M 0 0 
L -3.5 0 
" id="m623cd074a6" style="stroke:#000000;stroke-width:0.8;"/>
      </defs>
      <g>
       <use style="stroke:#000000;stroke-width:0.8;" x="57.6" xlink:href="#m623cd074a6" y="298.015522"/>
      </g>
     </g>
     <g id="text_10">
      <!-- 0.0 -->
      <defs>
       <path d="M 10.6875 12.40625 
L 21 12.40625 
L 21 0 
L 10.6875 0 
z
" id="DejaVuSans-46"/>
      </defs>
      <g transform="translate(34.696875 301.814741)scale(0.1 -0.1)">
       <use xlink:href="#DejaVuSans-48"/>
       <use x="63.623047" xlink:href="#DejaVuSans-46"/>
       <use x="95.410156" xlink:href="#DejaVuSans-48"/>
      </g>
     </g>
    </g>
    <g id="ytick_2">
     <g id="line2d_11">
      <g>
       <use style="stroke:#000000;stroke-width:0.8;" x="57.6" xlink:href="#m623cd074a6" y="243.854328"/>
      </g>
     </g>
     <g id="text_11">
      <!-- 0.2 -->
      <g transform="translate(34.696875 247.653547)scale(0.1 -0.1)">
       <use xlink:href="#DejaVuSans-48"/>
       <use x="63.623047" xlink:href="#DejaVuSans-46"/>
       <use x="95.410156" xlink:href="#DejaVuSans-50"/>
      </g>
     </g>
    </g>
    <g id="ytick_3">
     <g id="line2d_12">
      <g>
       <use style="stroke:#000000;stroke-width:0.8;" x="57.6" xlink:href="#m623cd074a6" y="189.693134"/>
      </g>
     </g>
     <g id="text_12">
      <!-- 0.4 -->
      <defs>
       <path d="M 37.796875 64.3125 
L 12.890625 25.390625 
L 37.796875 25.390625 
z
M 35.203125 72.90625 
L 47.609375 72.90625 
L 47.609375 25.390625 
L 58.015625 25.390625 
L 58.015625 17.1875 
L 47.609375 17.1875 
L 47.609375 0 
L 37.796875 0 
L 37.796875 17.1875 
L 4.890625 17.1875 
L 4.890625 26.703125 
z
" id="DejaVuSans-52"/>
      </defs>
      <g transform="translate(34.696875 193.492353)scale(0.1 -0.1)">
       <use xlink:href="#DejaVuSans-48"/>
       <use x="63.623047" xlink:href="#DejaVuSans-46"/>
       <use x="95.410156" xlink:href="#DejaVuSans-52"/>
      </g>
     </g>
    </g>
    <g id="ytick_4">
     <g id="line2d_13">
      <g>
       <use style="stroke:#000000;stroke-width:0.8;" x="57.6" xlink:href="#m623cd074a6" y="135.53194"/>
      </g>
     </g>
     <g id="text_13">
      <!-- 0.6 -->
      <defs>
       <path d="M 33.015625 40.375 
Q 26.375 40.375 22.484375 35.828125 
Q 18.609375 31.296875 18.609375 23.390625 
Q 18.609375 15.53125 22.484375 10.953125 
Q 26.375 6.390625 33.015625 6.390625 
Q 39.65625 6.390625 43.53125 10.953125 
Q 47.40625 15.53125 47.40625 23.390625 
Q 47.40625 31.296875 43.53125 35.828125 
Q 39.65625 40.375 33.015625 40.375 
z
M 52.59375 71.296875 
L 52.59375 62.3125 
Q 48.875 64.0625 45.09375 64.984375 
Q 41.3125 65.921875 37.59375 65.921875 
Q 27.828125 65.921875 22.671875 59.328125 
Q 17.53125 52.734375 16.796875 39.40625 
Q 19.671875 43.65625 24.015625 45.921875 
Q 28.375 48.1875 33.59375 48.1875 
Q 44.578125 48.1875 50.953125 41.515625 
Q 57.328125 34.859375 57.328125 23.390625 
Q 57.328125 12.15625 50.6875 5.359375 
Q 44.046875 -1.421875 33.015625 -1.421875 
Q 20.359375 -1.421875 13.671875 8.265625 
Q 6.984375 17.96875 6.984375 36.375 
Q 6.984375 53.65625 15.1875 63.9375 
Q 23.390625 74.21875 37.203125 74.21875 
Q 40.921875 74.21875 44.703125 73.484375 
Q 48.484375 72.75 52.59375 71.296875 
z
" id="DejaVuSans-54"/>
      </defs>
      <g transform="translate(34.696875 139.331159)scale(0.1 -0.1)">
       <use xlink:href="#DejaVuSans-48"/>
       <use x="63.623047" xlink:href="#DejaVuSans-46"/>
       <use x="95.410156" xlink:href="#DejaVuSans-54"/>
      </g>
     </g>
    </g>
    <g id="ytick_5">
     <g id="line2d_14">
      <g>
       <use style="stroke:#000000;stroke-width:0.8;" x="57.6" xlink:href="#m623cd074a6" y="81.370746"/>
      </g>
     </g>
     <g id="text_14">
      <!-- 0.8 -->
      <defs>
       <path d="M 31.78125 34.625 
Q 24.75 34.625 20.71875 30.859375 
Q 16.703125 27.09375 16.703125 20.515625 
Q 16.703125 13.921875 20.71875 10.15625 
Q 24.75 6.390625 31.78125 6.390625 
Q 38.8125 6.390625 42.859375 10.171875 
Q 46.921875 13.96875 46.921875 20.515625 
Q 46.921875 27.09375 42.890625 30.859375 
Q 38.875 34.625 31.78125 34.625 
z
M 21.921875 38.8125 
Q 15.578125 40.375 12.03125 44.71875 
Q 8.5 49.078125 8.5 55.328125 
Q 8.5 64.0625 14.71875 69.140625 
Q 20.953125 74.21875 31.78125 74.21875 
Q 42.671875 74.21875 48.875 69.140625 
Q 55.078125 64.0625 55.078125 55.328125 
Q 55.078125 49.078125 51.53125 44.71875 
Q 48 40.375 41.703125 38.8125 
Q 48.828125 37.15625 52.796875 32.3125 
Q 56.78125 27.484375 56.78125 20.515625 
Q 56.78125 9.90625 50.3125 4.234375 
Q 43.84375 -1.421875 31.78125 -1.421875 
Q 19.734375 -1.421875 13.25 4.234375 
Q 6.78125 9.90625 6.78125 20.515625 
Q 6.78125 27.484375 10.78125 32.3125 
Q 14.796875 37.15625 21.921875 38.8125 
z
M 18.3125 54.390625 
Q 18.3125 48.734375 21.84375 45.5625 
Q 25.390625 42.390625 31.78125 42.390625 
Q 38.140625 42.390625 41.71875 45.5625 
Q 45.3125 48.734375 45.3125 54.390625 
Q 45.3125 60.0625 41.71875 63.234375 
Q 38.140625 66.40625 31.78125 66.40625 
Q 25.390625 66.40625 21.84375 63.234375 
Q 18.3125 60.0625 18.3125 54.390625 
z
" id="DejaVuSans-56"/>
      </defs>
      <g transform="translate(34.696875 85.169965)scale(0.1 -0.1)">
       <use xlink:href="#DejaVuSans-48"/>
       <use x="63.623047" xlink:href="#DejaVuSans-46"/>
       <use x="95.410156" xlink:href="#DejaVuSans-56"/>
      </g>
     </g>
    </g>
   </g>
   <g id="line2d_15">
    <path clip-path="url(#p18ed45f674)" d="M 73.832727 207.746866 
L 214.135697 207.746866 
L 215.767127 189.512597 
L 217.398556 207.746866 
L 219.029986 189.693134 
L 220.661416 189.693134 
L 222.292846 187.996084 
L 223.924276 196.73409 
L 225.555706 186.154603 
L 227.187136 173.083702 
L 228.818566 199.622687 
L 230.449995 187.102816 
L 232.081425 190.054209 
L 233.712855 189.693134 
L 235.344285 188.970985 
L 236.975715 157.196418 
L 238.607145 171.639403 
L 240.238575 189.693134 
L 241.870005 177.23606 
L 243.501434 172.361552 
L 245.132864 174.889075 
L 246.764294 144.197731 
L 248.395724 192.220657 
L 250.027154 177.416597 
L 251.658584 174.166925 
L 253.290014 163.566806 
L 254.921444 189.33206 
L 256.552873 181.596036 
L 258.184303 171.639403 
L 259.815733 173.681342 
L 261.447163 172.361552 
L 263.078593 172.361552 
L 264.710023 159.543403 
L 266.341453 188.60991 
L 267.972883 177.670991 
L 269.604312 187.526687 
L 271.235742 173.083702 
L 272.867172 177.597134 
L 274.498602 171.639403 
L 276.130032 170.736716 
L 277.761462 184.277015 
L 279.392892 189.33206 
L 281.024322 154.668896 
L 282.655751 154.668896 
L 284.287181 160.807164 
L 285.918611 155.02997 
L 287.550041 160.87594 
L 289.181471 173.805851 
L 290.812901 154.668896 
L 292.444331 173.083702 
L 294.075761 172.361552 
L 295.70719 176.254677 
L 297.33862 173.805851 
L 298.97005 153.04406 
L 300.60148 154.307821 
L 302.23291 136.615164 
L 303.86434 179.402507 
L 305.49577 161.529313 
L 307.1272 173.805851 
L 308.75863 143.087427 
L 310.390059 159.460078 
L 312.021489 189.693134 
L 313.652919 162.612537 
L 315.284349 189.693134 
L 316.915779 178.138746 
L 318.547209 149.072239 
L 320.178639 167.306507 
L 321.810069 188.298073 
L 323.441498 183.013254 
L 325.072928 177.055522 
L 326.704358 195.109254 
L 328.335788 192.220657 
L 329.967218 189.693134 
L 331.598648 184.601982 
L 333.230078 178.806734 
L 334.861508 177.416597 
L 336.492937 172.000478 
L 338.124367 189.693134 
L 339.755797 175.791761 
L 341.387227 193.303881 
L 343.018657 150.877612 
L 344.650087 182.471642 
L 346.281517 172.54209 
L 347.912947 136.25409 
L 349.544376 143.513194 
L 351.175806 174.528 
L 352.807236 172.361552 
L 354.438666 169.317037 
L 356.070096 207.746866 
L 357.701526 189.693134 
L 359.332956 169.472955 
L 360.964386 173.805851 
L 362.595815 176.874985 
L 364.227245 170.637851 
L 365.858675 191.859582 
L 367.490105 172.361552 
L 369.121535 165.14006 
L 370.752965 189.693134 
L 372.384395 167.306507 
L 374.015825 175.611224 
L 375.647254 153.946746 
L 377.278684 153.585672 
L 378.910114 187.165612 
L 380.541544 154.307821 
L 382.172974 178.860896 
L 383.804404 181.749493 
L 385.435834 189.693134 
L 387.067264 153.946746 
L 388.698693 135.893015 
L 390.330123 144.197731 
L 391.961553 156.861134 
L 393.592983 154.168315 
L 395.224413 153.946746 
L 396.855843 174.166925 
L 398.487273 175.250149 
L 398.487273 175.250149 
" style="fill:none;stroke:#1f77b4;stroke-linecap:square;stroke-width:0.25;"/>
   </g>
   <g id="line2d_16">
    <path clip-path="url(#p18ed45f674)" d="M 73.832727 207.746866 
L 201.084258 207.746866 
L 202.715688 208.364303 
L 204.347117 207.746866 
L 205.978547 205.561823 
L 207.609977 199.05794 
L 209.241407 203.35386 
L 210.872837 198.963346 
L 212.504267 197.703361 
L 214.135697 192.114427 
L 215.767127 185.909097 
L 217.398556 191.815312 
L 219.029986 188.202201 
L 220.661416 185.879759 
L 222.292846 181.83665 
L 223.924276 196.050075 
L 225.555706 183.12461 
L 227.187136 183.301757 
L 228.818566 201.014787 
L 230.449995 188.676493 
L 232.081425 180.360017 
L 233.712855 187.830973 
L 235.344285 178.445754 
L 236.975715 171.627468 
L 238.607145 177.943789 
L 240.238575 185.450675 
L 241.870005 182.016611 
L 243.501434 179.976414 
L 245.132864 174.389781 
L 246.764294 154.76888 
L 248.395724 186.219134 
L 250.027154 184.818783 
L 251.658584 173.193607 
L 253.290014 171.494675 
L 254.921444 186.788989 
L 256.552873 185.279257 
L 258.184303 173.500042 
L 259.815733 178.428928 
L 261.447163 171.146739 
L 263.078593 169.920132 
L 264.710023 169.437323 
L 266.341453 175.809735 
L 267.972883 172.959903 
L 269.604312 176.142426 
L 271.235742 175.574386 
L 272.867172 181.006865 
L 274.498602 169.278406 
L 276.130032 173.785424 
L 277.761462 181.306728 
L 279.392892 173.771664 
L 281.024322 157.822668 
L 282.655751 163.598823 
L 284.287181 164.108543 
L 285.918611 153.500956 
L 287.550041 163.284291 
L 289.181471 167.305256 
L 290.812901 161.961235 
L 292.444331 178.285849 
L 294.075761 172.936212 
L 295.70719 166.6816 
L 297.33862 167.126582 
L 298.97005 161.753866 
L 300.60148 163.117205 
L 302.23291 147.4087 
L 303.86434 172.071725 
L 305.49577 164.417453 
L 307.1272 167.454843 
L 308.75863 146.672052 
L 310.390059 162.627937 
L 312.021489 182.414901 
L 313.652919 165.796319 
L 315.284349 188.892611 
L 316.915779 176.566793 
L 318.547209 159.244392 
L 320.178639 170.464763 
L 321.810069 188.235227 
L 323.441498 177.789671 
L 325.072928 177.9842 
L 326.704358 191.431605 
L 328.335788 174.965498 
L 329.967218 180.74309 
L 331.598648 188.308691 
L 333.230078 186.459793 
L 334.861508 179.596592 
L 336.492937 167.681816 
L 338.124367 185.756438 
L 339.755797 171.745504 
L 341.387227 179.338105 
L 343.018657 161.839716 
L 344.650087 176.468767 
L 346.281517 173.874813 
L 347.912947 147.215224 
L 349.544376 148.609788 
L 351.175806 175.118659 
L 352.807236 169.586821 
L 354.438666 161.436943 
L 356.070096 198.098512 
L 357.701526 182.562708 
L 359.332956 163.209481 
L 360.964386 176.131298 
L 362.595815 171.877721 
L 364.227245 166.008388 
L 365.858675 188.321532 
L 367.490105 172.898443 
L 369.121535 166.554619 
L 370.752965 180.633726 
L 372.384395 167.993376 
L 374.015825 167.482958 
L 375.647254 154.360155 
L 377.278684 160.021035 
L 378.910114 170.809172 
L 380.541544 158.649119 
L 382.172974 164.602135 
L 383.804404 171.903115 
L 385.435834 175.789376 
L 387.067264 157.665168 
L 388.698693 148.854371 
L 390.330123 157.052903 
L 391.961553 157.479041 
L 393.592983 153.527077 
L 395.224413 153.850456 
L 396.855843 169.730406 
L 398.487273 169.898203 
L 398.487273 169.898203 
" style="fill:none;stroke:#2ca02c;stroke-linecap:square;stroke-width:0.75;"/>
   </g>
   <g id="patch_3">
    <path d="M 57.6 307.584 
L 57.6 41.472 
" style="fill:none;stroke:#000000;stroke-linecap:square;stroke-linejoin:miter;stroke-width:0.8;"/>
   </g>
   <g id="patch_4">
    <path d="M 414.72 307.584 
L 414.72 41.472 
" style="fill:none;stroke:#000000;stroke-linecap:square;stroke-linejoin:miter;stroke-width:0.8;"/>
   </g>
   <g id="patch_5">
    <path d="M 57.6 307.584 
L 414.72 307.584 
" style="fill:none;stroke:#000000;stroke-linecap:square;stroke-linejoin:miter;stroke-width:0.8;"/>
   </g>
   <g id="patch_6">
    <path d="M 57.6 41.472 
L 414.72 41.472 
" style="fill:none;stroke:#000000;stroke-linecap:square;stroke-linejoin:miter;stroke-width:0.8;"/>
   </g>
   <g id="legend_1">
    <g id="patch_7">
     <path d="M 338.234063 78.82825 
L 407.72 78.82825 
Q 409.72 78.82825 409.72 76.82825 
L 409.72 48.472 
Q 409.72 46.472 407.72 46.472 
L 338.234063 46.472 
Q 336.234063 46.472 336.234063 48.472 
L 336.234063 76.82825 
Q 336.234063 78.82825 338.234063 78.82825 
z
" style="fill:#ffffff;opacity:0.8;stroke:#cccccc;stroke-linejoin:miter;"/>
    </g>
    <g id="line2d_17">
     <path d="M 340.234063 54.570437 
L 360.234063 54.570437 
" style="fill:none;stroke:#1f77b4;stroke-linecap:square;stroke-width:0.25;"/>
    </g>
    <g id="line2d_18"/>
    <g id="text_15">
     <!-- median -->
     <defs>
      <path d="M 52 44.1875 
Q 55.375 50.25 60.0625 53.125 
Q 64.75 56 71.09375 56 
Q 79.640625 56 84.28125 50.015625 
Q 88.921875 44.046875 88.921875 33.015625 
L 88.921875 0 
L 79.890625 0 
L 79.890625 32.71875 
Q 79.890625 40.578125 77.09375 44.375 
Q 74.3125 48.1875 68.609375 48.1875 
Q 61.625 48.1875 57.5625 43.546875 
Q 53.515625 38.921875 53.515625 30.90625 
L 53.515625 0 
L 44.484375 0 
L 44.484375 32.71875 
Q 44.484375 40.625 41.703125 44.40625 
Q 38.921875 48.1875 33.109375 48.1875 
Q 26.21875 48.1875 22.15625 43.53125 
Q 18.109375 38.875 18.109375 30.90625 
L 18.109375 0 
L 9.078125 0 
L 9.078125 54.6875 
L 18.109375 54.6875 
L 18.109375 46.1875 
Q 21.1875 51.21875 25.484375 53.609375 
Q 29.78125 56 35.6875 56 
Q 41.65625 56 45.828125 52.96875 
Q 50 49.953125 52 44.1875 
z
" id="DejaVuSans-109"/>
      <path d="M 56.203125 29.59375 
L 56.203125 25.203125 
L 14.890625 25.203125 
Q 15.484375 15.921875 20.484375 11.0625 
Q 25.484375 6.203125 34.421875 6.203125 
Q 39.59375 6.203125 44.453125 7.46875 
Q 49.3125 8.734375 54.109375 11.28125 
L 54.109375 2.78125 
Q 49.265625 0.734375 44.1875 -0.34375 
Q 39.109375 -1.421875 33.890625 -1.421875 
Q 20.796875 -1.421875 13.15625 6.1875 
Q 5.515625 13.8125 5.515625 26.8125 
Q 5.515625 40.234375 12.765625 48.109375 
Q 20.015625 56 32.328125 56 
Q 43.359375 56 49.78125 48.890625 
Q 56.203125 41.796875 56.203125 29.59375 
z
M 47.21875 32.234375 
Q 47.125 39.59375 43.09375 43.984375 
Q 39.0625 48.390625 32.421875 48.390625 
Q 24.90625 48.390625 20.390625 44.140625 
Q 15.875 39.890625 15.1875 32.171875 
z
" id="DejaVuSans-101"/>
      <path d="M 45.40625 46.390625 
L 45.40625 75.984375 
L 54.390625 75.984375 
L 54.390625 0 
L 45.40625 0 
L 45.40625 8.203125 
Q 42.578125 3.328125 38.25 0.953125 
Q 33.9375 -1.421875 27.875 -1.421875 
Q 17.96875 -1.421875 11.734375 6.484375 
Q 5.515625 14.40625 5.515625 27.296875 
Q 5.515625 40.1875 11.734375 48.09375 
Q 17.96875 56 27.875 56 
Q 33.9375 56 38.25 53.625 
Q 42.578125 51.265625 45.40625 46.390625 
z
M 14.796875 27.296875 
Q 14.796875 17.390625 18.875 11.75 
Q 22.953125 6.109375 30.078125 6.109375 
Q 37.203125 6.109375 41.296875 11.75 
Q 45.40625 17.390625 45.40625 27.296875 
Q 45.40625 37.203125 41.296875 42.84375 
Q 37.203125 48.484375 30.078125 48.484375 
Q 22.953125 48.484375 18.875 42.84375 
Q 14.796875 37.203125 14.796875 27.296875 
z
" id="DejaVuSans-100"/>
      <path d="M 9.421875 54.6875 
L 18.40625 54.6875 
L 18.40625 0 
L 9.421875 0 
z
M 9.421875 75.984375 
L 18.40625 75.984375 
L 18.40625 64.59375 
L 9.421875 64.59375 
z
" id="DejaVuSans-105"/>
      <path d="M 34.28125 27.484375 
Q 23.390625 27.484375 19.1875 25 
Q 14.984375 22.515625 14.984375 16.5 
Q 14.984375 11.71875 18.140625 8.90625 
Q 21.296875 6.109375 26.703125 6.109375 
Q 34.1875 6.109375 38.703125 11.40625 
Q 43.21875 16.703125 43.21875 25.484375 
L 43.21875 27.484375 
z
M 52.203125 31.203125 
L 52.203125 0 
L 43.21875 0 
L 43.21875 8.296875 
Q 40.140625 3.328125 35.546875 0.953125 
Q 30.953125 -1.421875 24.3125 -1.421875 
Q 15.921875 -1.421875 10.953125 3.296875 
Q 6 8.015625 6 15.921875 
Q 6 25.140625 12.171875 29.828125 
Q 18.359375 34.515625 30.609375 34.515625 
L 43.21875 34.515625 
L 43.21875 35.40625 
Q 43.21875 41.609375 39.140625 45 
Q 35.0625 48.390625 27.6875 48.390625 
Q 23 48.390625 18.546875 47.265625 
Q 14.109375 46.140625 10.015625 43.890625 
L 10.015625 52.203125 
Q 14.9375 54.109375 19.578125 55.046875 
Q 24.21875 56 28.609375 56 
Q 40.484375 56 46.34375 49.84375 
Q 52.203125 43.703125 52.203125 31.203125 
z
" id="DejaVuSans-97"/>
      <path d="M 54.890625 33.015625 
L 54.890625 0 
L 45.90625 0 
L 45.90625 32.71875 
Q 45.90625 40.484375 42.875 44.328125 
Q 39.84375 48.1875 33.796875 48.1875 
Q 26.515625 48.1875 22.3125 43.546875 
Q 18.109375 38.921875 18.109375 30.90625 
L 18.109375 0 
L 9.078125 0 
L 9.078125 54.6875 
L 18.109375 54.6875 
L 18.109375 46.1875 
Q 21.34375 51.125 25.703125 53.5625 
Q 30.078125 56 35.796875 56 
Q 45.21875 56 50.046875 50.171875 
Q 54.890625 44.34375 54.890625 33.015625 
z
" id="DejaVuSans-110"/>
     </defs>
     <g transform="translate(368.234063 58.070437)scale(0.1 -0.1)">
      <use xlink:href="#DejaVuSans-109"/>
      <use x="97.412109" xlink:href="#DejaVuSans-101"/>
      <use x="158.935547" xlink:href="#DejaVuSans-100"/>
      <use x="222.412109" xlink:href="#DejaVuSans-105"/>
      <use x="250.195312" xlink:href="#DejaVuSans-97"/>
      <use x="311.474609" xlink:href="#DejaVuSans-110"/>
     </g>
    </g>
    <g id="line2d_19">
     <path d="M 340.234063 69.248562 
L 360.234063 69.248562 
" style="fill:none;stroke:#2ca02c;stroke-linecap:square;stroke-width:0.75;"/>
    </g>
    <g id="line2d_20"/>
    <g id="text_16">
     <!-- mean -->
     <g transform="translate(368.234063 72.748562)scale(0.1 -0.1)">
      <use xlink:href="#DejaVuSans-109"/>
      <use x="97.412109" xlink:href="#DejaVuSans-101"/>
      <use x="158.935547" xlink:href="#DejaVuSans-97"/>
      <use x="220.214844" xlink:href="#DejaVuSans-110"/>
     </g>
    </g>
   </g>
  </g>
  <g id="text_17">
   <!-- accuracy.mean over generations -->
   <defs>
    <path d="M 48.78125 52.59375 
L 48.78125 44.1875 
Q 44.96875 46.296875 41.140625 47.34375 
Q 37.3125 48.390625 33.40625 48.390625 
Q 24.65625 48.390625 19.8125 42.84375 
Q 14.984375 37.3125 14.984375 27.296875 
Q 14.984375 17.28125 19.8125 11.734375 
Q 24.65625 6.203125 33.40625 6.203125 
Q 37.3125 6.203125 41.140625 7.25 
Q 44.96875 8.296875 48.78125 10.40625 
L 48.78125 2.09375 
Q 45.015625 0.34375 40.984375 -0.53125 
Q 36.96875 -1.421875 32.421875 -1.421875 
Q 20.0625 -1.421875 12.78125 6.34375 
Q 5.515625 14.109375 5.515625 27.296875 
Q 5.515625 40.671875 12.859375 48.328125 
Q 20.21875 56 33.015625 56 
Q 37.15625 56 41.109375 55.140625 
Q 45.0625 54.296875 48.78125 52.59375 
z
" id="DejaVuSans-99"/>
    <path d="M 8.5 21.578125 
L 8.5 54.6875 
L 17.484375 54.6875 
L 17.484375 21.921875 
Q 17.484375 14.15625 20.5 10.265625 
Q 23.53125 6.390625 29.59375 6.390625 
Q 36.859375 6.390625 41.078125 11.03125 
Q 45.3125 15.671875 45.3125 23.6875 
L 45.3125 54.6875 
L 54.296875 54.6875 
L 54.296875 0 
L 45.3125 0 
L 45.3125 8.40625 
Q 42.046875 3.421875 37.71875 1 
Q 33.40625 -1.421875 27.6875 -1.421875 
Q 18.265625 -1.421875 13.375 4.4375 
Q 8.5 10.296875 8.5 21.578125 
z
M 31.109375 56 
z
" id="DejaVuSans-117"/>
    <path d="M 41.109375 46.296875 
Q 39.59375 47.171875 37.8125 47.578125 
Q 36.03125 48 33.890625 48 
Q 26.265625 48 22.1875 43.046875 
Q 18.109375 38.09375 18.109375 28.8125 
L 18.109375 0 
L 9.078125 0 
L 9.078125 54.6875 
L 18.109375 54.6875 
L 18.109375 46.1875 
Q 20.953125 51.171875 25.484375 53.578125 
Q 30.03125 56 36.53125 56 
Q 37.453125 56 38.578125 55.875 
Q 39.703125 55.765625 41.0625 55.515625 
z
" id="DejaVuSans-114"/>
    <path d="M 32.171875 -5.078125 
Q 28.375 -14.84375 24.75 -17.8125 
Q 21.140625 -20.796875 15.09375 -20.796875 
L 7.90625 -20.796875 
L 7.90625 -13.28125 
L 13.1875 -13.28125 
Q 16.890625 -13.28125 18.9375 -11.515625 
Q 21 -9.765625 23.484375 -3.21875 
L 25.09375 0.875 
L 2.984375 54.6875 
L 12.5 54.6875 
L 29.59375 11.921875 
L 46.6875 54.6875 
L 56.203125 54.6875 
z
" id="DejaVuSans-121"/>
    <path id="DejaVuSans-32"/>
    <path d="M 30.609375 48.390625 
Q 23.390625 48.390625 19.1875 42.75 
Q 14.984375 37.109375 14.984375 27.296875 
Q 14.984375 17.484375 19.15625 11.84375 
Q 23.34375 6.203125 30.609375 6.203125 
Q 37.796875 6.203125 41.984375 11.859375 
Q 46.1875 17.53125 46.1875 27.296875 
Q 46.1875 37.015625 41.984375 42.703125 
Q 37.796875 48.390625 30.609375 48.390625 
z
M 30.609375 56 
Q 42.328125 56 49.015625 48.375 
Q 55.71875 40.765625 55.71875 27.296875 
Q 55.71875 13.875 49.015625 6.21875 
Q 42.328125 -1.421875 30.609375 -1.421875 
Q 18.84375 -1.421875 12.171875 6.21875 
Q 5.515625 13.875 5.515625 27.296875 
Q 5.515625 40.765625 12.171875 48.375 
Q 18.84375 56 30.609375 56 
z
" id="DejaVuSans-111"/>
    <path d="M 2.984375 54.6875 
L 12.5 54.6875 
L 29.59375 8.796875 
L 46.6875 54.6875 
L 56.203125 54.6875 
L 35.6875 0 
L 23.484375 0 
z
" id="DejaVuSans-118"/>
    <path d="M 45.40625 27.984375 
Q 45.40625 37.75 41.375 43.109375 
Q 37.359375 48.484375 30.078125 48.484375 
Q 22.859375 48.484375 18.828125 43.109375 
Q 14.796875 37.75 14.796875 27.984375 
Q 14.796875 18.265625 18.828125 12.890625 
Q 22.859375 7.515625 30.078125 7.515625 
Q 37.359375 7.515625 41.375 12.890625 
Q 45.40625 18.265625 45.40625 27.984375 
z
M 54.390625 6.78125 
Q 54.390625 -7.171875 48.1875 -13.984375 
Q 42 -20.796875 29.203125 -20.796875 
Q 24.46875 -20.796875 20.265625 -20.09375 
Q 16.0625 -19.390625 12.109375 -17.921875 
L 12.109375 -9.1875 
Q 16.0625 -11.328125 19.921875 -12.34375 
Q 23.78125 -13.375 27.78125 -13.375 
Q 36.625 -13.375 41.015625 -8.765625 
Q 45.40625 -4.15625 45.40625 5.171875 
L 45.40625 9.625 
Q 42.625 4.78125 38.28125 2.390625 
Q 33.9375 0 27.875 0 
Q 17.828125 0 11.671875 7.65625 
Q 5.515625 15.328125 5.515625 27.984375 
Q 5.515625 40.671875 11.671875 48.328125 
Q 17.828125 56 27.875 56 
Q 33.9375 56 38.28125 53.609375 
Q 42.625 51.21875 45.40625 46.390625 
L 45.40625 54.6875 
L 54.390625 54.6875 
z
" id="DejaVuSans-103"/>
    <path d="M 18.3125 70.21875 
L 18.3125 54.6875 
L 36.8125 54.6875 
L 36.8125 47.703125 
L 18.3125 47.703125 
L 18.3125 18.015625 
Q 18.3125 11.328125 20.140625 9.421875 
Q 21.96875 7.515625 27.59375 7.515625 
L 36.8125 7.515625 
L 36.8125 0 
L 27.59375 0 
Q 17.1875 0 13.234375 3.875 
Q 9.28125 7.765625 9.28125 18.015625 
L 9.28125 47.703125 
L 2.6875 47.703125 
L 2.6875 54.6875 
L 9.28125 54.6875 
L 9.28125 70.21875 
z
" id="DejaVuSans-116"/>
    <path d="M 44.28125 53.078125 
L 44.28125 44.578125 
Q 40.484375 46.53125 36.375 47.5 
Q 32.28125 48.484375 27.875 48.484375 
Q 21.1875 48.484375 17.84375 46.4375 
Q 14.5 44.390625 14.5 40.28125 
Q 14.5 37.15625 16.890625 35.375 
Q 19.28125 33.59375 26.515625 31.984375 
L 29.59375 31.296875 
Q 39.15625 29.25 43.1875 25.515625 
Q 47.21875 21.78125 47.21875 15.09375 
Q 47.21875 7.46875 41.1875 3.015625 
Q 35.15625 -1.421875 24.609375 -1.421875 
Q 20.21875 -1.421875 15.453125 -0.5625 
Q 10.6875 0.296875 5.421875 2 
L 5.421875 11.28125 
Q 10.40625 8.6875 15.234375 7.390625 
Q 20.0625 6.109375 24.8125 6.109375 
Q 31.15625 6.109375 34.5625 8.28125 
Q 37.984375 10.453125 37.984375 14.40625 
Q 37.984375 18.0625 35.515625 20.015625 
Q 33.0625 21.96875 24.703125 23.78125 
L 21.578125 24.515625 
Q 13.234375 26.265625 9.515625 29.90625 
Q 5.8125 33.546875 5.8125 39.890625 
Q 5.8125 47.609375 11.28125 51.796875 
Q 16.75 56 26.8125 56 
Q 31.78125 56 36.171875 55.265625 
Q 40.578125 54.546875 44.28125 53.078125 
z
" id="DejaVuSans-115"/>
   </defs>
   <g transform="translate(132.309375 16.030125)scale(0.12 -0.12)">
    <use xlink:href="#DejaVuSans-97"/>
    <use x="61.279297" xlink:href="#DejaVuSans-99"/>
    <use x="116.259766" xlink:href="#DejaVuSans-99"/>
    <use x="171.240234" xlink:href="#DejaVuSans-117"/>
    <use x="234.619141" xlink:href="#DejaVuSans-114"/>
    <use x="275.732422" xlink:href="#DejaVuSans-97"/>
    <use x="337.011719" xlink:href="#DejaVuSans-99"/>
    <use x="391.992188" xlink:href="#DejaVuSans-121"/>
    <use x="436.921875" xlink:href="#DejaVuSans-46"/>
    <use x="468.708984" xlink:href="#DejaVuSans-109"/>
    <use x="566.121094" xlink:href="#DejaVuSans-101"/>
    <use x="627.644531" xlink:href="#DejaVuSans-97"/>
    <use x="688.923828" xlink:href="#DejaVuSans-110"/>
    <use x="752.302734" xlink:href="#DejaVuSans-32"/>
    <use x="784.089844" xlink:href="#DejaVuSans-111"/>
    <use x="845.271484" xlink:href="#DejaVuSans-118"/>
    <use x="904.451172" xlink:href="#DejaVuSans-101"/>
    <use x="965.974609" xlink:href="#DejaVuSans-114"/>
    <use x="1007.087891" xlink:href="#DejaVuSans-32"/>
    <use x="1038.875" xlink:href="#DejaVuSans-103"/>
    <use x="1102.351562" xlink:href="#DejaVuSans-101"/>
    <use x="1163.875" xlink:href="#DejaVuSans-110"/>
    <use x="1227.253906" xlink:href="#DejaVuSans-101"/>
    <use x="1288.777344" xlink:href="#DejaVuSans-114"/>
    <use x="1329.890625" xlink:href="#DejaVuSans-97"/>
    <use x="1391.169922" xlink:href="#DejaVuSans-116"/>
    <use x="1430.378906" xlink:href="#DejaVuSans-105"/>
    <use x="1458.162109" xlink:href="#DejaVuSans-111"/>
    <use x="1519.34375" xlink:href="#DejaVuSans-110"/>
    <use x="1582.722656" xlink:href="#DejaVuSans-115"/>
   </g>
  </g>
 </g>
 <defs>
  <clipPath id="p18ed45f674">
   <rect height="266.112" width="357.12" x="57.6" y="41.472"/>
  </clipPath>
 </defs>
</svg>
