<?xml version="1.0" encoding="utf-8" standalone="no"?>
<!DOCTYPE svg PUBLIC "-//W3C//DTD SVG 1.1//EN"
  "http://www.w3.org/Graphics/SVG/1.1/DTD/svg11.dtd">
<!-- Created with matplotlib (https://matplotlib.org/) -->
<svg height="345.6pt" version="1.1" viewBox="0 0 460.8 345.6" width="460.8pt" xmlns="http://www.w3.org/2000/svg" xmlns:xlink="http://www.w3.org/1999/xlink">
 <defs>
  <style type="text/css">
*{stroke-linecap:butt;stroke-linejoin:round;}
  </style>
 </defs>
 <g id="figure_1">
  <g id="patch_1">
   <path d="M 0 345.6 
L 460.8 345.6 
L 460.8 0 
L 0 0 
z
" style="fill:#ffffff;"/>
  </g>
  <g id="axes_1">
   <g id="patch_2">
    <path d="M 57.6 307.584 
L 414.72 307.584 
L 414.72 41.472 
L 57.6 41.472 
z
" style="fill:#ffffff;"/>
   </g>
   <g id="PolyCollection_1">
    <path clip-path="url(#p1c1dec8924)" d="M 73.832727 283.391266 
L 73.832727 284.064554 
L 75.464157 284.064554 
L 77.095587 284.064554 
L 78.727017 284.064554 
L 80.358447 284.064554 
L 81.989877 284.064554 
L 83.621307 284.064554 
L 85.252736 284.064554 
L 86.884166 284.064554 
L 88.515596 284.064554 
L 90.147026 284.064554 
L 91.778456 284.064554 
L 93.409886 284.064554 
L 95.041316 284.064554 
L 96.672746 284.064554 
L 98.304175 284.064554 
L 99.935605 284.064554 
L 101.567035 284.064554 
L 103.198465 284.064554 
L 104.829895 284.064554 
L 106.461325 284.064554 
L 108.092755 284.064554 
L 109.724185 284.064554 
L 111.355614 284.064554 
L 112.987044 284.064554 
L 114.618474 284.064554 
L 116.249904 284.064554 
L 117.881334 284.064554 
L 119.512764 284.064554 
L 121.144194 284.064554 
L 122.775624 284.064554 
L 124.407053 284.064554 
L 126.038483 284.064554 
L 127.669913 284.064554 
L 129.301343 284.064554 
L 130.932773 284.064554 
L 132.564203 284.064554 
L 134.195633 284.064554 
L 135.827063 284.064554 
L 137.458492 284.064554 
L 139.089922 284.064554 
L 140.721352 284.064554 
L 142.352782 284.064554 
L 143.984212 284.064554 
L 145.615642 284.064554 
L 147.247072 284.064554 
L 148.878502 284.064554 
L 150.509931 284.064554 
L 152.141361 284.064554 
L 153.772791 284.064554 
L 155.404221 284.064554 
L 157.035651 284.064554 
L 158.667081 284.064554 
L 160.298511 284.064554 
L 161.929941 284.064554 
L 163.56137 284.064554 
L 165.1928 284.064554 
L 166.82423 284.064554 
L 168.45566 284.064554 
L 170.08709 284.064554 
L 171.71852 284.064554 
L 173.34995 284.064554 
L 174.98138 284.064554 
L 176.61281 284.064554 
L 178.244239 284.064554 
L 179.875669 284.064554 
L 181.507099 284.064554 
L 183.138529 284.064554 
L 184.769959 284.064554 
L 186.401389 284.064554 
L 188.032819 284.064554 
L 189.664249 284.064554 
L 191.295678 284.064554 
L 192.927108 284.064554 
L 194.558538 284.064554 
L 196.189968 284.064554 
L 197.821398 284.064554 
L 199.452828 284.064554 
L 201.084258 284.064554 
L 202.715688 284.064554 
L 204.347117 284.064554 
L 205.978547 284.064554 
L 207.609977 284.064554 
L 209.241407 284.064554 
L 210.872837 284.900231 
L 212.504267 285.700311 
L 214.135697 285.862913 
L 215.767127 285.477166 
L 217.398556 286.92693 
L 219.029986 286.425992 
L 220.661416 286.370225 
L 222.292846 286.736027 
L 223.924276 286.95252 
L 225.555706 286.176214 
L 227.187136 286.892961 
L 228.818566 285.532121 
L 230.449995 287.152111 
L 232.081425 285.746127 
L 233.712855 286.683662 
L 235.344285 285.062982 
L 236.975715 285.040873 
L 238.607145 288.264217 
L 240.238575 287.068807 
L 241.870005 286.172048 
L 243.501434 286.690877 
L 245.132864 285.041091 
L 246.764294 287.247778 
L 248.395724 285.086274 
L 250.027154 286.404156 
L 251.658584 287.168637 
L 253.290014 285.349852 
L 254.921444 287.226806 
L 256.552873 288.795271 
L 258.184303 286.019448 
L 259.815733 286.867583 
L 261.447163 286.671154 
L 263.078593 288.395123 
L 264.710023 286.408921 
L 266.341453 286.459665 
L 267.972883 288.581088 
L 269.604312 286.232629 
L 271.235742 287.520505 
L 272.867172 286.378322 
L 274.498602 287.181734 
L 276.130032 286.891658 
L 277.761462 286.028277 
L 279.392892 286.741675 
L 281.024322 288.526045 
L 282.655751 287.820752 
L 284.287181 285.409146 
L 285.918611 288.17244 
L 287.550041 286.635984 
L 289.181471 289.384081 
L 290.812901 286.045732 
L 292.444331 287.828829 
L 294.075761 288.844008 
L 295.70719 286.493631 
L 297.33862 288.67829 
L 298.97005 289.431625 
L 300.60148 286.496825 
L 302.23291 287.854091 
L 303.86434 286.817119 
L 305.49577 287.398745 
L 307.1272 290.750741 
L 308.75863 288.248343 
L 310.390059 290.388671 
L 312.021489 286.113146 
L 313.652919 287.862987 
L 315.284349 289.610543 
L 316.915779 289.137082 
L 318.547209 290.251699 
L 320.178639 286.17069 
L 321.810069 290.421803 
L 323.441498 287.669388 
L 325.072928 287.362472 
L 326.704358 288.317661 
L 328.335788 289.080175 
L 329.967218 290.745551 
L 331.598648 287.128898 
L 333.230078 285.678903 
L 334.861508 288.040744 
L 336.492937 286.36179 
L 338.124367 286.798302 
L 339.755797 290.684787 
L 341.387227 285.959388 
L 343.018657 286.949643 
L 344.650087 288.154403 
L 346.281517 287.480351 
L 347.912947 288.486705 
L 349.544376 289.9226 
L 351.175806 288.099439 
L 352.807236 288.04104 
L 354.438666 289.56261 
L 356.070096 288.508999 
L 357.701526 291.030984 
L 359.332956 290.105908 
L 360.964386 288.499532 
L 362.595815 287.46885 
L 364.227245 289.158889 
L 365.858675 289.837232 
L 367.490105 288.492449 
L 369.121535 288.826561 
L 370.752965 288.677093 
L 372.384395 287.649 
L 374.015825 288.751511 
L 375.647254 288.075857 
L 377.278684 289.796565 
L 378.910114 288.955644 
L 380.541544 289.688163 
L 382.172974 290.128498 
L 383.804404 287.281575 
L 385.435834 285.299712 
L 387.067264 288.034904 
L 388.698693 284.849184 
L 390.330123 291.159752 
L 391.961553 291.897821 
L 393.592983 289.866521 
L 395.224413 288.948127 
L 396.855843 287.11459 
L 398.487273 288.774487 
L 398.487273 283.823353 
L 398.487273 283.823353 
L 396.855843 282.683493 
L 395.224413 283.513899 
L 393.592983 284.277522 
L 391.961553 285.461397 
L 390.330123 283.443301 
L 388.698693 281.859718 
L 387.067264 282.964292 
L 385.435834 283.194488 
L 383.804404 282.043194 
L 382.172974 282.551628 
L 380.541544 280.287596 
L 378.910114 283.061851 
L 377.278684 284.542033 
L 375.647254 286.119127 
L 374.015825 283.610352 
L 372.384395 281.830402 
L 370.752965 281.511927 
L 369.121535 281.806786 
L 367.490105 282.35201 
L 365.858675 282.648564 
L 364.227245 282.570422 
L 362.595815 281.772936 
L 360.964386 283.08445 
L 359.332956 284.835092 
L 357.701526 285.136111 
L 356.070096 284.365925 
L 354.438666 285.473877 
L 352.807236 282.445777 
L 351.175806 284.449025 
L 349.544376 285.473481 
L 347.912947 283.463369 
L 346.281517 278.353073 
L 344.650087 282.619049 
L 343.018657 283.069045 
L 341.387227 283.275824 
L 339.755797 284.891628 
L 338.124367 283.051345 
L 336.492937 281.530978 
L 334.861508 284.529288 
L 333.230078 282.104612 
L 331.598648 284.771552 
L 329.967218 285.063103 
L 328.335788 285.023077 
L 326.704358 285.051014 
L 325.072928 284.537584 
L 323.441498 283.507548 
L 321.810069 286.093151 
L 320.178639 284.417177 
L 318.547209 283.881247 
L 316.915779 285.350923 
L 315.284349 285.56023 
L 313.652919 284.781695 
L 312.021489 282.584164 
L 310.390059 284.428675 
L 308.75863 284.873907 
L 307.1272 285.771993 
L 305.49577 284.912041 
L 303.86434 284.062333 
L 302.23291 285.246105 
L 300.60148 283.578993 
L 298.97005 285.772701 
L 297.33862 285.045221 
L 295.70719 283.170013 
L 294.075761 286.318194 
L 292.444331 286.744729 
L 290.812901 283.388654 
L 289.181471 284.503355 
L 287.550041 284.7593 
L 285.918611 284.881428 
L 284.287181 283.611026 
L 282.655751 281.158065 
L 281.024322 282.31565 
L 279.392892 284.618038 
L 277.761462 283.775941 
L 276.130032 283.419855 
L 274.498602 284.211429 
L 272.867172 282.561184 
L 271.235742 283.500292 
L 269.604312 283.422693 
L 267.972883 285.447729 
L 266.341453 284.068698 
L 264.710023 282.898227 
L 263.078593 284.853572 
L 261.447163 283.261841 
L 259.815733 283.12661 
L 258.184303 282.275039 
L 256.552873 282.442881 
L 254.921444 283.921111 
L 253.290014 282.893155 
L 251.658584 284.334614 
L 250.027154 284.392424 
L 248.395724 283.482244 
L 246.764294 283.702878 
L 245.132864 283.65262 
L 243.501434 284.216893 
L 241.870005 283.473029 
L 240.238575 283.167043 
L 238.607145 283.153172 
L 236.975715 280.25915 
L 235.344285 283.727389 
L 233.712855 281.665116 
L 232.081425 282.824565 
L 230.449995 282.29423 
L 228.818566 284.014672 
L 227.187136 282.335707 
L 225.555706 282.343596 
L 223.924276 283.569067 
L 222.292846 283.938304 
L 220.661416 282.811012 
L 219.029986 282.998525 
L 217.398556 282.406572 
L 215.767127 282.376354 
L 214.135697 282.661568 
L 212.504267 282.072308 
L 210.872837 282.838916 
L 209.241407 282.405516 
L 207.609977 281.91155 
L 205.978547 280.738766 
L 204.347117 282.662981 
L 202.715688 281.852504 
L 201.084258 282.958529 
L 199.452828 283.391266 
L 197.821398 282.958529 
L 196.189968 281.852504 
L 194.558538 282.405516 
L 192.927108 283.481472 
L 191.295678 282.958529 
L 189.664249 281.852504 
L 188.032819 282.958529 
L 186.401389 282.405516 
L 184.769959 283.391266 
L 183.138529 282.958529 
L 181.507099 282.405516 
L 179.875669 283.391266 
L 178.244239 282.958529 
L 176.61281 282.405516 
L 174.98138 281.852504 
L 173.34995 281.852504 
L 171.71852 282.405516 
L 170.08709 281.852504 
L 168.45566 282.405516 
L 166.82423 283.391266 
L 165.1928 283.511541 
L 163.56137 282.405516 
L 161.929941 282.958529 
L 160.298511 282.958529 
L 158.667081 281.852504 
L 157.035651 283.391266 
L 155.404221 282.405516 
L 153.772791 282.958529 
L 152.141361 282.958529 
L 150.509931 282.405516 
L 148.878502 282.958529 
L 147.247072 281.852504 
L 145.615642 281.299491 
L 143.984212 282.958529 
L 142.352782 283.511541 
L 140.721352 283.391266 
L 139.089922 282.958529 
L 137.458492 283.391266 
L 135.827063 283.511541 
L 134.195633 282.405516 
L 132.564203 282.405516 
L 130.932773 282.405516 
L 129.301343 282.958529 
L 127.669913 283.391266 
L 126.038483 281.852504 
L 124.407053 282.958529 
L 122.775624 283.391266 
L 121.144194 282.405516 
L 119.512764 282.405516 
L 117.881334 282.958529 
L 116.249904 282.405516 
L 114.618474 283.391266 
L 112.987044 283.391266 
L 111.355614 282.958529 
L 109.724185 282.958529 
L 108.092755 282.405516 
L 106.461325 282.405516 
L 104.829895 282.958529 
L 103.198465 282.405516 
L 101.567035 282.405516 
L 99.935605 283.391266 
L 98.304175 281.299491 
L 96.672746 281.852504 
L 95.041316 283.481472 
L 93.409886 282.958529 
L 91.778456 282.958529 
L 90.147026 283.391266 
L 88.515596 282.958529 
L 86.884166 282.405516 
L 85.252736 281.852504 
L 83.621307 282.405516 
L 81.989877 282.405516 
L 80.358447 282.405516 
L 78.727017 283.391266 
L 77.095587 282.958529 
L 75.464157 282.958529 
L 73.832727 283.391266 
z
" style="fill:#1f77b4;fill-opacity:0.2;"/>
   </g>
   <g id="PolyCollection_2">
    <path clip-path="url(#p1c1dec8924)" d="M 73.832727 281.299491 
L 73.832727 284.064554 
L 75.464157 284.064554 
L 77.095587 284.064554 
L 78.727017 284.064554 
L 80.358447 284.064554 
L 81.989877 284.064554 
L 83.621307 284.064554 
L 85.252736 284.064554 
L 86.884166 284.064554 
L 88.515596 284.064554 
L 90.147026 284.064554 
L 91.778456 284.064554 
L 93.409886 284.064554 
L 95.041316 284.064554 
L 96.672746 284.064554 
L 98.304175 284.064554 
L 99.935605 284.064554 
L 101.567035 284.064554 
L 103.198465 284.064554 
L 104.829895 284.064554 
L 106.461325 284.064554 
L 108.092755 284.064554 
L 109.724185 284.064554 
L 111.355614 284.064554 
L 112.987044 284.064554 
L 114.618474 284.064554 
L 116.249904 284.064554 
L 117.881334 284.064554 
L 119.512764 284.064554 
L 121.144194 284.064554 
L 122.775624 284.064554 
L 124.407053 284.064554 
L 126.038483 284.064554 
L 127.669913 284.064554 
L 129.301343 284.064554 
L 130.932773 284.064554 
L 132.564203 284.064554 
L 134.195633 284.064554 
L 135.827063 284.064554 
L 137.458492 284.064554 
L 139.089922 284.064554 
L 140.721352 284.064554 
L 142.352782 284.064554 
L 143.984212 284.064554 
L 145.615642 284.064554 
L 147.247072 284.064554 
L 148.878502 284.064554 
L 150.509931 284.064554 
L 152.141361 284.064554 
L 153.772791 284.064554 
L 155.404221 284.064554 
L 157.035651 284.064554 
L 158.667081 284.064554 
L 160.298511 284.064554 
L 161.929941 284.064554 
L 163.56137 284.064554 
L 165.1928 284.064554 
L 166.82423 284.064554 
L 168.45566 284.064554 
L 170.08709 284.064554 
L 171.71852 284.064554 
L 173.34995 284.064554 
L 174.98138 284.064554 
L 176.61281 284.064554 
L 178.244239 284.064554 
L 179.875669 284.064554 
L 181.507099 284.064554 
L 183.138529 284.064554 
L 184.769959 284.064554 
L 186.401389 284.064554 
L 188.032819 284.064554 
L 189.664249 284.064554 
L 191.295678 284.064554 
L 192.927108 284.064554 
L 194.558538 284.064554 
L 196.189968 284.064554 
L 197.821398 284.064554 
L 199.452828 284.064554 
L 201.084258 284.064554 
L 202.715688 284.064554 
L 204.347117 284.064554 
L 205.978547 284.209598 
L 207.609977 285.2264 
L 209.241407 285.693011 
L 210.872837 285.978354 
L 212.504267 286.702885 
L 214.135697 286.641693 
L 215.767127 288.194038 
L 217.398556 289.729986 
L 219.029986 289.391975 
L 220.661416 288.367634 
L 222.292846 288.798156 
L 223.924276 288.797889 
L 225.555706 288.753681 
L 227.187136 288.917181 
L 228.818566 288.468615 
L 230.449995 289.416171 
L 232.081425 288.421806 
L 233.712855 288.406999 
L 235.344285 288.345952 
L 236.975715 288.281055 
L 238.607145 288.716624 
L 240.238575 288.399738 
L 241.870005 288.333731 
L 243.501434 288.322251 
L 245.132864 288.233844 
L 246.764294 289.314208 
L 248.395724 289.070657 
L 250.027154 289.041065 
L 251.658584 289.478443 
L 253.290014 288.978048 
L 254.921444 289.391371 
L 256.552873 291.193642 
L 258.184303 288.920694 
L 259.815733 289.840689 
L 261.447163 289.84259 
L 263.078593 289.843549 
L 264.710023 289.217515 
L 266.341453 289.15309 
L 267.972883 290.399795 
L 269.604312 288.622219 
L 271.235742 291.467949 
L 272.867172 288.712102 
L 274.498602 289.407284 
L 276.130032 290.493959 
L 277.761462 289.994437 
L 279.392892 289.952132 
L 281.024322 290.332889 
L 282.655751 291.320356 
L 284.287181 290.001227 
L 285.918611 290.338724 
L 287.550041 289.488416 
L 289.181471 293.926719 
L 290.812901 289.312389 
L 292.444331 290.022492 
L 294.075761 290.102081 
L 295.70719 290.056683 
L 297.33862 290.041407 
L 298.97005 292.887538 
L 300.60148 289.438828 
L 302.23291 289.381003 
L 303.86434 289.364674 
L 305.49577 289.359244 
L 307.1272 293.716173 
L 308.75863 289.440976 
L 310.390059 293.212611 
L 312.021489 289.497852 
L 313.652919 290.201165 
L 315.284349 291.363889 
L 316.915779 290.315651 
L 318.547209 291.355934 
L 320.178639 290.812452 
L 321.810069 291.800969 
L 323.441498 291.111918 
L 325.072928 291.509162 
L 326.704358 290.942757 
L 328.335788 290.793828 
L 329.967218 295.488 
L 331.598648 290.664914 
L 333.230078 290.501584 
L 334.861508 292.195865 
L 336.492937 290.46063 
L 338.124367 290.388014 
L 339.755797 294.755698 
L 341.387227 290.709177 
L 343.018657 290.666566 
L 344.650087 292.377348 
L 346.281517 291.226125 
L 347.912947 292.855066 
L 349.544376 293.730251 
L 351.175806 291.275613 
L 352.807236 291.59867 
L 354.438666 292.684882 
L 356.070096 291.403505 
L 357.701526 294.063861 
L 359.332956 291.810674 
L 360.964386 291.430662 
L 362.595815 291.288382 
L 364.227245 291.777596 
L 365.858675 291.877289 
L 367.490105 291.169795 
L 369.121535 292.055899 
L 370.752965 291.534826 
L 372.384395 292.83528 
L 374.015825 291.648534 
L 375.647254 291.299127 
L 377.278684 293.59523 
L 378.910114 293.884653 
L 380.541544 294.511526 
L 382.172974 292.102085 
L 383.804404 291.999114 
L 385.435834 291.795092 
L 387.067264 291.772911 
L 388.698693 291.643706 
L 390.330123 292.917645 
L 391.961553 292.888551 
L 393.592983 293.30339 
L 395.224413 292.884636 
L 396.855843 292.76061 
L 398.487273 293.896535 
L 398.487273 53.568 
L 398.487273 53.568 
L 396.855843 133.703477 
L 395.224413 143.763679 
L 393.592983 181.594958 
L 391.961553 222.062388 
L 390.330123 170.701633 
L 388.698693 278.004357 
L 387.067264 132.368471 
L 385.435834 198.898562 
L 383.804404 268.507082 
L 382.172974 231.256564 
L 380.541544 130.226658 
L 378.910114 200.285482 
L 377.278684 210.294696 
L 375.647254 171.387978 
L 374.015825 169.417151 
L 372.384395 120.485591 
L 370.752965 208.209922 
L 369.121535 182.531036 
L 367.490105 98.999878 
L 365.858675 102.153206 
L 364.227245 159.192563 
L 362.595815 271.983643 
L 360.964386 268.910371 
L 359.332956 89.863176 
L 357.701526 111.37216 
L 356.070096 156.730276 
L 354.438666 195.023862 
L 352.807236 77.120536 
L 351.175806 256.229798 
L 349.544376 127.327021 
L 347.912947 159.715564 
L 346.281517 176.227545 
L 344.650087 223.346808 
L 343.018657 134.171548 
L 341.387227 205.125101 
L 339.755797 119.149831 
L 338.124367 181.81053 
L 336.492937 59.209242 
L 334.861508 142.31682 
L 333.230078 256.395409 
L 331.598648 203.441438 
L 329.967218 125.468976 
L 328.335788 208.894639 
L 326.704358 148.309616 
L 325.072928 187.997344 
L 323.441498 241.028449 
L 321.810069 128.766792 
L 320.178639 212.613896 
L 318.547209 139.913396 
L 316.915779 151.49383 
L 315.284349 152.585133 
L 313.652919 195.258412 
L 312.021489 151.644243 
L 310.390059 121.1489 
L 308.75863 114.705704 
L 307.1272 135.077753 
L 305.49577 164.765253 
L 303.86434 130.513087 
L 302.23291 197.689499 
L 300.60148 144.273572 
L 298.97005 208.53223 
L 297.33862 178.008265 
L 295.70719 114.642228 
L 294.075761 140.819048 
L 292.444331 150.835085 
L 290.812901 240.11372 
L 289.181471 80.544058 
L 287.550041 237.313785 
L 285.918611 270.341359 
L 284.287181 278.832012 
L 282.655751 133.210011 
L 281.024322 151.953495 
L 279.392892 275.442361 
L 277.761462 184.181382 
L 276.130032 151.862585 
L 274.498602 228.283042 
L 272.867172 206.824089 
L 271.235742 134.493703 
L 269.604312 183.319233 
L 267.972883 217.18477 
L 266.341453 222.23465 
L 264.710023 179.304414 
L 263.078593 145.502489 
L 261.447163 166.19116 
L 259.815733 250.127736 
L 258.184303 185.621994 
L 256.552873 91.455842 
L 254.921444 176.976681 
L 253.290014 236.128298 
L 251.658584 265.933331 
L 250.027154 264.15855 
L 248.395724 276.094671 
L 246.764294 224.167247 
L 245.132864 274.974885 
L 243.501434 262.56225 
L 241.870005 267.515661 
L 240.238575 223.062602 
L 238.607145 214.595274 
L 236.975715 243.625786 
L 235.344285 265.480512 
L 233.712855 275.606523 
L 232.081425 272.955213 
L 230.449995 253.43374 
L 228.818566 277.440682 
L 227.187136 248.117008 
L 225.555706 277.005921 
L 223.924276 270.235065 
L 222.292846 268.22655 
L 220.661416 265.073627 
L 219.029986 268.529611 
L 217.398556 223.391057 
L 215.767127 268.351911 
L 214.135697 245.010546 
L 212.504267 267.254464 
L 210.872837 278.314648 
L 209.241407 278.34401 
L 207.609977 231.744165 
L 205.978547 230.728536 
L 204.347117 228.610737 
L 202.715688 251.905631 
L 201.084258 258.416859 
L 199.452828 257.275281 
L 197.821398 281.299491 
L 196.189968 281.299491 
L 194.558538 281.299491 
L 192.927108 281.299491 
L 191.295678 281.299491 
L 189.664249 281.299491 
L 188.032819 281.299491 
L 186.401389 281.299491 
L 184.769959 281.299491 
L 183.138529 281.299491 
L 181.507099 281.299491 
L 179.875669 281.299491 
L 178.244239 281.299491 
L 176.61281 281.299491 
L 174.98138 281.299491 
L 173.34995 281.299491 
L 171.71852 281.299491 
L 170.08709 281.299491 
L 168.45566 281.299491 
L 166.82423 281.299491 
L 165.1928 281.299491 
L 163.56137 281.299491 
L 161.929941 281.299491 
L 160.298511 281.299491 
L 158.667081 281.299491 
L 157.035651 281.299491 
L 155.404221 281.299491 
L 153.772791 281.299491 
L 152.141361 281.299491 
L 150.509931 281.299491 
L 148.878502 281.299491 
L 147.247072 281.299491 
L 145.615642 281.299491 
L 143.984212 281.299491 
L 142.352782 281.299491 
L 140.721352 281.299491 
L 139.089922 281.299491 
L 137.458492 281.299491 
L 135.827063 281.299491 
L 134.195633 281.299491 
L 132.564203 281.299491 
L 130.932773 281.299491 
L 129.301343 281.299491 
L 127.669913 281.299491 
L 126.038483 281.299491 
L 124.407053 281.299491 
L 122.775624 281.299491 
L 121.144194 281.299491 
L 119.512764 281.299491 
L 117.881334 281.299491 
L 116.249904 281.299491 
L 114.618474 281.299491 
L 112.987044 281.299491 
L 111.355614 281.299491 
L 109.724185 281.299491 
L 108.092755 281.299491 
L 106.461325 281.299491 
L 104.829895 281.299491 
L 103.198465 281.299491 
L 101.567035 281.299491 
L 99.935605 281.299491 
L 98.304175 281.299491 
L 96.672746 281.299491 
L 95.041316 281.299491 
L 93.409886 281.299491 
L 91.778456 281.299491 
L 90.147026 281.299491 
L 88.515596 281.299491 
L 86.884166 281.299491 
L 85.252736 281.299491 
L 83.621307 281.299491 
L 81.989877 281.299491 
L 80.358447 281.299491 
L 78.727017 281.299491 
L 77.095587 281.299491 
L 75.464157 281.299491 
L 73.832727 281.299491 
z
" style="fill:#1f77b4;fill-opacity:0.1;"/>
   </g>
   <g id="matplotlib.axis_1">
    <g id="xtick_1">
     <g id="line2d_1">
      <defs>
       <path d="M 0 0 
L 0 3.5 
" id="md1fd866d2c" style="stroke:#000000;stroke-width:0.8;"/>
      </defs>
      <g>
       <use style="stroke:#000000;stroke-width:0.8;" x="73.832727" xlink:href="#md1fd866d2c" y="307.584"/>
      </g>
     </g>
     <g id="text_1">
      <!-- 0 -->
      <defs>
       <path d="M 31.78125 66.40625 
Q 24.171875 66.40625 20.328125 58.90625 
Q 16.5 51.421875 16.5 36.375 
Q 16.5 21.390625 20.328125 13.890625 
Q 24.171875 6.390625 31.78125 6.390625 
Q 39.453125 6.390625 43.28125 13.890625 
Q 47.125 21.390625 47.125 36.375 
Q 47.125 51.421875 43.28125 58.90625 
Q 39.453125 66.40625 31.78125 66.40625 
z
M 31.78125 74.21875 
Q 44.046875 74.21875 50.515625 64.515625 
Q 56.984375 54.828125 56.984375 36.375 
Q 56.984375 17.96875 50.515625 8.265625 
Q 44.046875 -1.421875 31.78125 -1.421875 
Q 19.53125 -1.421875 13.0625 8.265625 
Q 6.59375 17.96875 6.59375 36.375 
Q 6.59375 54.828125 13.0625 64.515625 
Q 19.53125 74.21875 31.78125 74.21875 
z
" id="DejaVuSans-48"/>
      </defs>
      <g transform="translate(70.651477 322.182437)scale(0.1 -0.1)">
       <use xlink:href="#DejaVuSans-48"/>
      </g>
     </g>
    </g>
    <g id="xtick_2">
     <g id="line2d_2">
      <g>
       <use style="stroke:#000000;stroke-width:0.8;" x="114.618474" xlink:href="#md1fd866d2c" y="307.584"/>
      </g>
     </g>
     <g id="text_2">
      <!-- 25 -->
      <defs>
       <path d="M 19.1875 8.296875 
L 53.609375 8.296875 
L 53.609375 0 
L 7.328125 0 
L 7.328125 8.296875 
Q 12.9375 14.109375 22.625 23.890625 
Q 32.328125 33.6875 34.8125 36.53125 
Q 39.546875 41.84375 41.421875 45.53125 
Q 43.3125 49.21875 43.3125 52.78125 
Q 43.3125 58.59375 39.234375 62.25 
Q 35.15625 65.921875 28.609375 65.921875 
Q 23.96875 65.921875 18.8125 64.3125 
Q 13.671875 62.703125 7.8125 59.421875 
L 7.8125 69.390625 
Q 13.765625 71.78125 18.9375 73 
Q 24.125 74.21875 28.421875 74.21875 
Q 39.75 74.21875 46.484375 68.546875 
Q 53.21875 62.890625 53.21875 53.421875 
Q 53.21875 48.921875 51.53125 44.890625 
Q 49.859375 40.875 45.40625 35.40625 
Q 44.1875 33.984375 37.640625 27.21875 
Q 31.109375 20.453125 19.1875 8.296875 
z
" id="DejaVuSans-50"/>
       <path d="M 10.796875 72.90625 
L 49.515625 72.90625 
L 49.515625 64.59375 
L 19.828125 64.59375 
L 19.828125 46.734375 
Q 21.96875 47.46875 24.109375 47.828125 
Q 26.265625 48.1875 28.421875 48.1875 
Q 40.625 48.1875 47.75 41.5 
Q 54.890625 34.8125 54.890625 23.390625 
Q 54.890625 11.625 47.5625 5.09375 
Q 40.234375 -1.421875 26.90625 -1.421875 
Q 22.3125 -1.421875 17.546875 -0.640625 
Q 12.796875 0.140625 7.71875 1.703125 
L 7.71875 11.625 
Q 12.109375 9.234375 16.796875 8.0625 
Q 21.484375 6.890625 26.703125 6.890625 
Q 35.15625 6.890625 40.078125 11.328125 
Q 45.015625 15.765625 45.015625 23.390625 
Q 45.015625 31 40.078125 35.4375 
Q 35.15625 39.890625 26.703125 39.890625 
Q 22.75 39.890625 18.8125 39.015625 
Q 14.890625 38.140625 10.796875 36.28125 
z
" id="DejaVuSans-53"/>
      </defs>
      <g transform="translate(108.255974 322.182437)scale(0.1 -0.1)">
       <use xlink:href="#DejaVuSans-50"/>
       <use x="63.623047" xlink:href="#DejaVuSans-53"/>
      </g>
     </g>
    </g>
    <g id="xtick_3">
     <g id="line2d_3">
      <g>
       <use style="stroke:#000000;stroke-width:0.8;" x="155.404221" xlink:href="#md1fd866d2c" y="307.584"/>
      </g>
     </g>
     <g id="text_3">
      <!-- 50 -->
      <g transform="translate(149.041721 322.182437)scale(0.1 -0.1)">
       <use xlink:href="#DejaVuSans-53"/>
       <use x="63.623047" xlink:href="#DejaVuSans-48"/>
      </g>
     </g>
    </g>
    <g id="xtick_4">
     <g id="line2d_4">
      <g>
       <use style="stroke:#000000;stroke-width:0.8;" x="196.189968" xlink:href="#md1fd866d2c" y="307.584"/>
      </g>
     </g>
     <g id="text_4">
      <!-- 75 -->
      <defs>
       <path d="M 8.203125 72.90625 
L 55.078125 72.90625 
L 55.078125 68.703125 
L 28.609375 0 
L 18.3125 0 
L 43.21875 64.59375 
L 8.203125 64.59375 
z
" id="DejaVuSans-55"/>
      </defs>
      <g transform="translate(189.827468 322.182437)scale(0.1 -0.1)">
       <use xlink:href="#DejaVuSans-55"/>
       <use x="63.623047" xlink:href="#DejaVuSans-53"/>
      </g>
     </g>
    </g>
    <g id="xtick_5">
     <g id="line2d_5">
      <g>
       <use style="stroke:#000000;stroke-width:0.8;" x="236.975715" xlink:href="#md1fd866d2c" y="307.584"/>
      </g>
     </g>
     <g id="text_5">
      <!-- 100 -->
      <defs>
       <path d="M 12.40625 8.296875 
L 28.515625 8.296875 
L 28.515625 63.921875 
L 10.984375 60.40625 
L 10.984375 69.390625 
L 28.421875 72.90625 
L 38.28125 72.90625 
L 38.28125 8.296875 
L 54.390625 8.296875 
L 54.390625 0 
L 12.40625 0 
z
" id="DejaVuSans-49"/>
      </defs>
      <g transform="translate(227.431965 322.182437)scale(0.1 -0.1)">
       <use xlink:href="#DejaVuSans-49"/>
       <use x="63.623047" xlink:href="#DejaVuSans-48"/>
       <use x="127.246094" xlink:href="#DejaVuSans-48"/>
      </g>
     </g>
    </g>
    <g id="xtick_6">
     <g id="line2d_6">
      <g>
       <use style="stroke:#000000;stroke-width:0.8;" x="277.761462" xlink:href="#md1fd866d2c" y="307.584"/>
      </g>
     </g>
     <g id="text_6">
      <!-- 125 -->
      <g transform="translate(268.217712 322.182437)scale(0.1 -0.1)">
       <use xlink:href="#DejaVuSans-49"/>
       <use x="63.623047" xlink:href="#DejaVuSans-50"/>
       <use x="127.246094" xlink:href="#DejaVuSans-53"/>
      </g>
     </g>
    </g>
    <g id="xtick_7">
     <g id="line2d_7">
      <g>
       <use style="stroke:#000000;stroke-width:0.8;" x="318.547209" xlink:href="#md1fd866d2c" y="307.584"/>
      </g>
     </g>
     <g id="text_7">
      <!-- 150 -->
      <g transform="translate(309.003459 322.182437)scale(0.1 -0.1)">
       <use xlink:href="#DejaVuSans-49"/>
       <use x="63.623047" xlink:href="#DejaVuSans-53"/>
       <use x="127.246094" xlink:href="#DejaVuSans-48"/>
      </g>
     </g>
    </g>
    <g id="xtick_8">
     <g id="line2d_8">
      <g>
       <use style="stroke:#000000;stroke-width:0.8;" x="359.332956" xlink:href="#md1fd866d2c" y="307.584"/>
      </g>
     </g>
     <g id="text_8">
      <!-- 175 -->
      <g transform="translate(349.789206 322.182437)scale(0.1 -0.1)">
       <use xlink:href="#DejaVuSans-49"/>
       <use x="63.623047" xlink:href="#DejaVuSans-55"/>
       <use x="127.246094" xlink:href="#DejaVuSans-53"/>
      </g>
     </g>
    </g>
    <g id="xtick_9">
     <g id="line2d_9">
      <g>
       <use style="stroke:#000000;stroke-width:0.8;" x="400.118703" xlink:href="#md1fd866d2c" y="307.584"/>
      </g>
     </g>
     <g id="text_9">
      <!-- 200 -->
      <g transform="translate(390.574953 322.182437)scale(0.1 -0.1)">
       <use xlink:href="#DejaVuSans-50"/>
       <use x="63.623047" xlink:href="#DejaVuSans-48"/>
       <use x="127.246094" xlink:href="#DejaVuSans-48"/>
      </g>
     </g>
    </g>
   </g>
   <g id="matplotlib.axis_2">
    <g id="ytick_1">
     <g id="line2d_10">
      <defs>
       <path d="M 0 0 
L -3.5 0 
" id="mbbb7b2396a" style="stroke:#000000;stroke-width:0.8;"/>
      </defs>
      <g>
       <use style="stroke:#000000;stroke-width:0.8;" x="57.6" xlink:href="#mbbb7b2396a" y="263.207545"/>
      </g>
     </g>
     <g id="text_10">
      <!-- 2 -->
      <g transform="translate(44.2375 267.006764)scale(0.1 -0.1)">
       <use xlink:href="#DejaVuSans-50"/>
      </g>
     </g>
    </g>
    <g id="ytick_2">
     <g id="line2d_11">
      <g>
       <use style="stroke:#000000;stroke-width:0.8;" x="57.6" xlink:href="#mbbb7b2396a" y="216.929991"/>
      </g>
     </g>
     <g id="text_11">
      <!-- 4 -->
      <defs>
       <path d="M 37.796875 64.3125 
L 12.890625 25.390625 
L 37.796875 25.390625 
z
M 35.203125 72.90625 
L 47.609375 72.90625 
L 47.609375 25.390625 
L 58.015625 25.390625 
L 58.015625 17.1875 
L 47.609375 17.1875 
L 47.609375 0 
L 37.796875 0 
L 37.796875 17.1875 
L 4.890625 17.1875 
L 4.890625 26.703125 
z
" id="DejaVuSans-52"/>
      </defs>
      <g transform="translate(44.2375 220.72921)scale(0.1 -0.1)">
       <use xlink:href="#DejaVuSans-52"/>
      </g>
     </g>
    </g>
    <g id="ytick_3">
     <g id="line2d_12">
      <g>
       <use style="stroke:#000000;stroke-width:0.8;" x="57.6" xlink:href="#mbbb7b2396a" y="170.652438"/>
      </g>
     </g>
     <g id="text_12">
      <!-- 6 -->
      <defs>
       <path d="M 33.015625 40.375 
Q 26.375 40.375 22.484375 35.828125 
Q 18.609375 31.296875 18.609375 23.390625 
Q 18.609375 15.53125 22.484375 10.953125 
Q 26.375 6.390625 33.015625 6.390625 
Q 39.65625 6.390625 43.53125 10.953125 
Q 47.40625 15.53125 47.40625 23.390625 
Q 47.40625 31.296875 43.53125 35.828125 
Q 39.65625 40.375 33.015625 40.375 
z
M 52.59375 71.296875 
L 52.59375 62.3125 
Q 48.875 64.0625 45.09375 64.984375 
Q 41.3125 65.921875 37.59375 65.921875 
Q 27.828125 65.921875 22.671875 59.328125 
Q 17.53125 52.734375 16.796875 39.40625 
Q 19.671875 43.65625 24.015625 45.921875 
Q 28.375 48.1875 33.59375 48.1875 
Q 44.578125 48.1875 50.953125 41.515625 
Q 57.328125 34.859375 57.328125 23.390625 
Q 57.328125 12.15625 50.6875 5.359375 
Q 44.046875 -1.421875 33.015625 -1.421875 
Q 20.359375 -1.421875 13.671875 8.265625 
Q 6.984375 17.96875 6.984375 36.375 
Q 6.984375 53.65625 15.1875 63.9375 
Q 23.390625 74.21875 37.203125 74.21875 
Q 40.921875 74.21875 44.703125 73.484375 
Q 48.484375 72.75 52.59375 71.296875 
z
" id="DejaVuSans-54"/>
      </defs>
      <g transform="translate(44.2375 174.451656)scale(0.1 -0.1)">
       <use xlink:href="#DejaVuSans-54"/>
      </g>
     </g>
    </g>
    <g id="ytick_4">
     <g id="line2d_13">
      <g>
       <use style="stroke:#000000;stroke-width:0.8;" x="57.6" xlink:href="#mbbb7b2396a" y="124.374884"/>
      </g>
     </g>
     <g id="text_13">
      <!-- 8 -->
      <defs>
       <path d="M 31.78125 34.625 
Q 24.75 34.625 20.71875 30.859375 
Q 16.703125 27.09375 16.703125 20.515625 
Q 16.703125 13.921875 20.71875 10.15625 
Q 24.75 6.390625 31.78125 6.390625 
Q 38.8125 6.390625 42.859375 10.171875 
Q 46.921875 13.96875 46.921875 20.515625 
Q 46.921875 27.09375 42.890625 30.859375 
Q 38.875 34.625 31.78125 34.625 
z
M 21.921875 38.8125 
Q 15.578125 40.375 12.03125 44.71875 
Q 8.5 49.078125 8.5 55.328125 
Q 8.5 64.0625 14.71875 69.140625 
Q 20.953125 74.21875 31.78125 74.21875 
Q 42.671875 74.21875 48.875 69.140625 
Q 55.078125 64.0625 55.078125 55.328125 
Q 55.078125 49.078125 51.53125 44.71875 
Q 48 40.375 41.703125 38.8125 
Q 48.828125 37.15625 52.796875 32.3125 
Q 56.78125 27.484375 56.78125 20.515625 
Q 56.78125 9.90625 50.3125 4.234375 
Q 43.84375 -1.421875 31.78125 -1.421875 
Q 19.734375 -1.421875 13.25 4.234375 
Q 6.78125 9.90625 6.78125 20.515625 
Q 6.78125 27.484375 10.78125 32.3125 
Q 14.796875 37.15625 21.921875 38.8125 
z
M 18.3125 54.390625 
Q 18.3125 48.734375 21.84375 45.5625 
Q 25.390625 42.390625 31.78125 42.390625 
Q 38.140625 42.390625 41.71875 45.5625 
Q 45.3125 48.734375 45.3125 54.390625 
Q 45.3125 60.0625 41.71875 63.234375 
Q 38.140625 66.40625 31.78125 66.40625 
Q 25.390625 66.40625 21.84375 63.234375 
Q 18.3125 60.0625 18.3125 54.390625 
z
" id="DejaVuSans-56"/>
      </defs>
      <g transform="translate(44.2375 128.174103)scale(0.1 -0.1)">
       <use xlink:href="#DejaVuSans-56"/>
      </g>
     </g>
    </g>
    <g id="ytick_5">
     <g id="line2d_14">
      <g>
       <use style="stroke:#000000;stroke-width:0.8;" x="57.6" xlink:href="#mbbb7b2396a" y="78.097331"/>
      </g>
     </g>
     <g id="text_14">
      <!-- 10 -->
      <g transform="translate(37.875 81.896549)scale(0.1 -0.1)">
       <use xlink:href="#DejaVuSans-49"/>
       <use x="63.623047" xlink:href="#DejaVuSans-48"/>
      </g>
     </g>
    </g>
   </g>
   <g id="line2d_15">
    <path clip-path="url(#p1c1dec8924)" d="M 73.832727 284.064554 
L 88.515596 284.064554 
L 90.147026 283.511541 
L 91.778456 284.064554 
L 96.672746 284.064554 
L 98.304175 283.391266 
L 99.935605 284.064554 
L 109.724185 284.064554 
L 111.355614 283.391266 
L 112.987044 284.064554 
L 124.407053 284.064554 
L 126.038483 283.391266 
L 127.669913 283.511541 
L 129.301343 284.064554 
L 139.089922 284.064554 
L 140.721352 283.511541 
L 142.352782 284.064554 
L 143.984212 283.391266 
L 145.615642 284.064554 
L 147.247072 284.064554 
L 148.878502 283.391266 
L 150.509931 284.064554 
L 152.141361 284.064554 
L 153.772791 283.72791 
L 155.404221 284.064554 
L 157.035651 283.511541 
L 158.667081 284.064554 
L 160.298511 283.391266 
L 161.929941 284.064554 
L 168.45566 284.064554 
L 170.08709 283.391266 
L 171.71852 283.391266 
L 173.34995 284.064554 
L 179.875669 284.064554 
L 181.507099 283.391266 
L 183.138529 284.064554 
L 184.769959 284.064554 
L 186.401389 283.72791 
L 188.032819 284.064554 
L 189.664249 284.064554 
L 191.295678 283.391266 
L 192.927108 284.064554 
L 194.558538 283.391266 
L 196.189968 284.064554 
L 197.821398 283.72791 
L 199.452828 283.511541 
L 201.084258 284.064554 
L 202.715688 283.391266 
L 204.347117 283.451404 
L 205.978547 283.066157 
L 207.609977 283.350697 
L 209.241407 283.391266 
L 210.872837 284.142192 
L 214.135697 284.910884 
L 215.767127 284.373364 
L 217.398556 285.811853 
L 219.029986 286.073064 
L 220.661416 285.102726 
L 222.292846 285.106186 
L 223.924276 286.200184 
L 225.555706 285.208837 
L 227.187136 285.651333 
L 228.818566 285.089784 
L 230.449995 285.331762 
L 232.081425 284.622084 
L 233.712855 285.460758 
L 235.344285 284.651326 
L 236.975715 283.441161 
L 238.607145 285.975026 
L 240.238575 286.139979 
L 241.870005 284.89849 
L 243.501434 285.775229 
L 245.132864 284.210764 
L 246.764294 285.185699 
L 248.395724 284.12007 
L 250.027154 285.397683 
L 251.658584 285.645212 
L 253.290014 284.865457 
L 254.921444 285.612535 
L 256.552873 286.829965 
L 258.184303 284.064554 
L 259.815733 284.112814 
L 261.447163 284.868609 
L 263.078593 286.800474 
L 264.710023 283.875634 
L 266.341453 285.139607 
L 267.972883 286.782946 
L 269.604312 285.035794 
L 271.235742 285.501417 
L 272.867172 284.450299 
L 274.498602 285.739427 
L 276.130032 285.744793 
L 277.761462 285.467452 
L 279.392892 285.585678 
L 281.024322 286.194755 
L 282.655751 286.547961 
L 284.287181 284.493752 
L 285.918611 286.332787 
L 287.550041 286.103137 
L 289.181471 287.372822 
L 290.812901 284.734874 
L 292.444331 287.398797 
L 294.075761 287.615014 
L 295.70719 285.450404 
L 297.33862 287.225183 
L 298.97005 287.795922 
L 300.60148 285.97702 
L 302.23291 286.889953 
L 303.86434 286.262096 
L 305.49577 286.762651 
L 307.1272 287.750725 
L 308.75863 286.84807 
L 310.390059 287.062368 
L 312.021489 284.100844 
L 313.652919 286.797954 
L 315.284349 287.614077 
L 316.915779 287.182638 
L 318.547209 287.096437 
L 320.178639 285.155512 
L 321.810069 287.55736 
L 323.441498 285.463541 
L 325.072928 286.768043 
L 326.704358 286.98088 
L 328.335788 287.790032 
L 329.967218 287.860928 
L 331.598648 286.148755 
L 333.230078 284.204757 
L 334.861508 286.496674 
L 336.492937 283.931585 
L 338.124367 284.418817 
L 339.755797 287.400336 
L 341.387227 284.595993 
L 343.018657 284.809172 
L 344.650087 286.181983 
L 346.281517 286.175884 
L 347.912947 287.278227 
L 349.544376 287.99432 
L 351.175806 287.119553 
L 352.807236 285.542318 
L 354.438666 287.213957 
L 356.070096 286.609208 
L 357.701526 287.728134 
L 359.332956 286.935278 
L 362.595815 284.352251 
L 364.227245 286.453099 
L 365.858675 287.091736 
L 367.490105 285.007576 
L 369.121535 286.666742 
L 370.752965 286.316246 
L 372.384395 285.609611 
L 374.015825 285.656547 
L 377.278684 287.402099 
L 378.910114 286.394574 
L 380.541544 287.482938 
L 382.172974 287.412334 
L 383.804404 285.201504 
L 385.435834 284.724082 
L 387.067264 286.158911 
L 388.698693 281.872587 
L 390.330123 287.070747 
L 391.961553 288.544386 
L 393.592983 287.663165 
L 395.224413 286.986188 
L 396.855843 285.01583 
L 398.487273 285.875628 
L 398.487273 285.875628 
" style="fill:none;stroke:#1f77b4;stroke-linecap:square;stroke-width:0.25;"/>
   </g>
   <g id="line2d_16">
    <path clip-path="url(#p1c1dec8924)" d="M 73.832727 283.439401 
L 77.095587 283.272295 
L 78.727017 283.499749 
L 80.358447 283.233349 
L 83.621307 283.183094 
L 85.252736 283.333126 
L 86.884166 283.151116 
L 88.515596 283.411751 
L 90.147026 283.31413 
L 91.778456 283.40141 
L 93.409886 283.358136 
L 95.041316 283.508168 
L 98.304175 282.836618 
L 99.935605 283.574447 
L 101.567035 283.234787 
L 103.198465 283.4257 
L 104.829895 283.440604 
L 106.461325 283.149913 
L 108.092755 283.133323 
L 109.724185 283.469693 
L 111.355614 283.27542 
L 112.987044 283.588618 
L 114.618474 283.551207 
L 116.249904 283.253299 
L 117.881334 283.469941 
L 119.512764 283.273498 
L 121.144194 283.342748 
L 122.775624 283.577171 
L 126.038483 283.135964 
L 127.669913 283.39588 
L 134.195633 283.377367 
L 135.827063 283.603383 
L 137.458492 283.384584 
L 140.721352 283.371354 
L 142.352782 283.524759 
L 143.984212 283.244644 
L 150.509931 283.304757 
L 152.141361 283.473785 
L 155.404221 283.264843 
L 157.035651 283.422327 
L 160.298511 283.107594 
L 161.929941 283.36198 
L 163.56137 283.247533 
L 165.1928 283.560345 
L 166.82423 283.65339 
L 170.08709 282.98665 
L 171.71852 283.19439 
L 173.34995 283.272779 
L 174.98138 283.141977 
L 176.61281 283.392519 
L 178.244239 283.32808 
L 179.875669 283.553129 
L 181.507099 283.123701 
L 184.769959 283.565392 
L 186.401389 283.309319 
L 188.032819 283.320144 
L 189.664249 283.208339 
L 192.927108 283.471863 
L 194.558538 283.0761 
L 196.189968 283.087879 
L 197.821398 283.311006 
L 199.452828 283.091961 
L 201.084258 283.080724 
L 202.715688 282.63331 
L 204.347117 280.174373 
L 205.978547 278.987281 
L 207.609977 281.684446 
L 209.241407 283.164464 
L 210.872837 283.898812 
L 212.504267 283.66896 
L 214.135697 282.923823 
L 215.767127 283.91702 
L 217.398556 284.163248 
L 219.029986 284.975833 
L 220.661416 284.528549 
L 222.292846 284.800418 
L 223.924276 284.807645 
L 225.555706 284.531376 
L 227.187136 284.116275 
L 228.818566 284.665983 
L 230.449995 283.218447 
L 232.081425 284.234154 
L 233.712855 284.323982 
L 235.344285 283.920945 
L 236.975715 281.209041 
L 238.607145 283.555583 
L 240.238575 283.51144 
L 241.870005 284.43597 
L 243.501434 285.172888 
L 245.132864 284.207622 
L 246.764294 284.61191 
L 248.395724 284.21294 
L 250.027154 284.309037 
L 251.658584 285.314666 
L 253.290014 281.892578 
L 254.921444 283.115812 
L 256.552873 277.546696 
L 258.184303 282.047074 
L 259.815733 283.980412 
L 261.447163 281.147557 
L 263.078593 283.591804 
L 264.710023 283.71664 
L 266.341453 284.439961 
L 267.972883 284.876131 
L 269.604312 281.52133 
L 271.235742 282.811148 
L 272.867172 283.779313 
L 274.498602 282.626864 
L 276.130032 281.918612 
L 277.761462 283.075032 
L 279.392892 285.392695 
L 281.024322 278.257806 
L 282.655751 276.651176 
L 284.287181 284.600612 
L 285.918611 286.018475 
L 287.550041 283.901188 
L 289.181471 277.256468 
L 290.812901 282.682919 
L 292.444331 283.708036 
L 294.075761 282.282237 
L 295.70719 282.250611 
L 297.33862 283.114643 
L 298.97005 285.098816 
L 300.60148 278.178586 
L 302.23291 283.508646 
L 303.86434 280.470079 
L 305.49577 283.859787 
L 307.1272 282.559612 
L 308.75863 277.589145 
L 310.390059 278.215507 
L 312.021489 280.332378 
L 313.652919 283.411161 
L 315.284349 283.498905 
L 316.915779 282.533502 
L 318.547209 281.33953 
L 320.178639 282.041455 
L 321.810069 279.473964 
L 323.441498 284.23783 
L 325.072928 282.698295 
L 326.704358 283.056647 
L 328.335788 284.175188 
L 329.967218 276.423505 
L 331.598648 284.568516 
L 333.230078 282.382388 
L 334.861508 281.940431 
L 336.492937 280.988082 
L 338.124367 281.595288 
L 339.755797 280.003488 
L 341.387227 283.35596 
L 343.018657 282.068736 
L 344.650087 282.388921 
L 346.281517 278.695938 
L 347.912947 277.981442 
L 349.544376 283.633636 
L 351.175806 285.551324 
L 352.807236 274.961802 
L 354.438666 283.524306 
L 357.701526 281.03523 
L 359.332956 279.575634 
L 360.964386 285.332079 
L 362.595815 284.437419 
L 364.227245 281.278313 
L 365.858675 271.680063 
L 367.490105 283.184819 
L 369.121535 281.296553 
L 370.752965 282.114373 
L 372.384395 279.176817 
L 374.015825 279.403715 
L 375.647254 284.938058 
L 378.910114 282.394626 
L 380.541544 277.283136 
L 382.172974 283.084041 
L 383.804404 284.540903 
L 387.067264 281.060956 
L 388.698693 283.676084 
L 390.330123 283.365104 
L 391.961553 286.494503 
L 393.592983 283.262121 
L 395.224413 278.28338 
L 396.855843 282.796605 
L 398.487273 283.775998 
L 398.487273 283.775998 
" style="fill:none;stroke:#2ca02c;stroke-linecap:square;stroke-width:0.75;"/>
   </g>
   <g id="patch_3">
    <path d="M 57.6 307.584 
L 57.6 41.472 
" style="fill:none;stroke:#000000;stroke-linecap:square;stroke-linejoin:miter;stroke-width:0.8;"/>
   </g>
   <g id="patch_4">
    <path d="M 414.72 307.584 
L 414.72 41.472 
" style="fill:none;stroke:#000000;stroke-linecap:square;stroke-linejoin:miter;stroke-width:0.8;"/>
   </g>
   <g id="patch_5">
    <path d="M 57.6 307.584 
L 414.72 307.584 
" style="fill:none;stroke:#000000;stroke-linecap:square;stroke-linejoin:miter;stroke-width:0.8;"/>
   </g>
   <g id="patch_6">
    <path d="M 57.6 41.472 
L 414.72 41.472 
" style="fill:none;stroke:#000000;stroke-linecap:square;stroke-linejoin:miter;stroke-width:0.8;"/>
   </g>
   <g id="legend_1">
    <g id="patch_7">
     <path d="M 338.234063 78.82825 
L 407.72 78.82825 
Q 409.72 78.82825 409.72 76.82825 
L 409.72 48.472 
Q 409.72 46.472 407.72 46.472 
L 338.234063 46.472 
Q 336.234063 46.472 336.234063 48.472 
L 336.234063 76.82825 
Q 336.234063 78.82825 338.234063 78.82825 
z
" style="fill:#ffffff;opacity:0.8;stroke:#cccccc;stroke-linejoin:miter;"/>
    </g>
    <g id="line2d_17">
     <path d="M 340.234063 54.570437 
L 360.234063 54.570437 
" style="fill:none;stroke:#1f77b4;stroke-linecap:square;stroke-width:0.25;"/>
    </g>
    <g id="line2d_18"/>
    <g id="text_15">
     <!-- median -->
     <defs>
      <path d="M 52 44.1875 
Q 55.375 50.25 60.0625 53.125 
Q 64.75 56 71.09375 56 
Q 79.640625 56 84.28125 50.015625 
Q 88.921875 44.046875 88.921875 33.015625 
L 88.921875 0 
L 79.890625 0 
L 79.890625 32.71875 
Q 79.890625 40.578125 77.09375 44.375 
Q 74.3125 48.1875 68.609375 48.1875 
Q 61.625 48.1875 57.5625 43.546875 
Q 53.515625 38.921875 53.515625 30.90625 
L 53.515625 0 
L 44.484375 0 
L 44.484375 32.71875 
Q 44.484375 40.625 41.703125 44.40625 
Q 38.921875 48.1875 33.109375 48.1875 
Q 26.21875 48.1875 22.15625 43.53125 
Q 18.109375 38.875 18.109375 30.90625 
L 18.109375 0 
L 9.078125 0 
L 9.078125 54.6875 
L 18.109375 54.6875 
L 18.109375 46.1875 
Q 21.1875 51.21875 25.484375 53.609375 
Q 29.78125 56 35.6875 56 
Q 41.65625 56 45.828125 52.96875 
Q 50 49.953125 52 44.1875 
z
" id="DejaVuSans-109"/>
      <path d="M 56.203125 29.59375 
L 56.203125 25.203125 
L 14.890625 25.203125 
Q 15.484375 15.921875 20.484375 11.0625 
Q 25.484375 6.203125 34.421875 6.203125 
Q 39.59375 6.203125 44.453125 7.46875 
Q 49.3125 8.734375 54.109375 11.28125 
L 54.109375 2.78125 
Q 49.265625 0.734375 44.1875 -0.34375 
Q 39.109375 -1.421875 33.890625 -1.421875 
Q 20.796875 -1.421875 13.15625 6.1875 
Q 5.515625 13.8125 5.515625 26.8125 
Q 5.515625 40.234375 12.765625 48.109375 
Q 20.015625 56 32.328125 56 
Q 43.359375 56 49.78125 48.890625 
Q 56.203125 41.796875 56.203125 29.59375 
z
M 47.21875 32.234375 
Q 47.125 39.59375 43.09375 43.984375 
Q 39.0625 48.390625 32.421875 48.390625 
Q 24.90625 48.390625 20.390625 44.140625 
Q 15.875 39.890625 15.1875 32.171875 
z
" id="DejaVuSans-101"/>
      <path d="M 45.40625 46.390625 
L 45.40625 75.984375 
L 54.390625 75.984375 
L 54.390625 0 
L 45.40625 0 
L 45.40625 8.203125 
Q 42.578125 3.328125 38.25 0.953125 
Q 33.9375 -1.421875 27.875 -1.421875 
Q 17.96875 -1.421875 11.734375 6.484375 
Q 5.515625 14.40625 5.515625 27.296875 
Q 5.515625 40.1875 11.734375 48.09375 
Q 17.96875 56 27.875 56 
Q 33.9375 56 38.25 53.625 
Q 42.578125 51.265625 45.40625 46.390625 
z
M 14.796875 27.296875 
Q 14.796875 17.390625 18.875 11.75 
Q 22.953125 6.109375 30.078125 6.109375 
Q 37.203125 6.109375 41.296875 11.75 
Q 45.40625 17.390625 45.40625 27.296875 
Q 45.40625 37.203125 41.296875 42.84375 
Q 37.203125 48.484375 30.078125 48.484375 
Q 22.953125 48.484375 18.875 42.84375 
Q 14.796875 37.203125 14.796875 27.296875 
z
" id="DejaVuSans-100"/>
      <path d="M 9.421875 54.6875 
L 18.40625 54.6875 
L 18.40625 0 
L 9.421875 0 
z
M 9.421875 75.984375 
L 18.40625 75.984375 
L 18.40625 64.59375 
L 9.421875 64.59375 
z
" id="DejaVuSans-105"/>
      <path d="M 34.28125 27.484375 
Q 23.390625 27.484375 19.1875 25 
Q 14.984375 22.515625 14.984375 16.5 
Q 14.984375 11.71875 18.140625 8.90625 
Q 21.296875 6.109375 26.703125 6.109375 
Q 34.1875 6.109375 38.703125 11.40625 
Q 43.21875 16.703125 43.21875 25.484375 
L 43.21875 27.484375 
z
M 52.203125 31.203125 
L 52.203125 0 
L 43.21875 0 
L 43.21875 8.296875 
Q 40.140625 3.328125 35.546875 0.953125 
Q 30.953125 -1.421875 24.3125 -1.421875 
Q 15.921875 -1.421875 10.953125 3.296875 
Q 6 8.015625 6 15.921875 
Q 6 25.140625 12.171875 29.828125 
Q 18.359375 34.515625 30.609375 34.515625 
L 43.21875 34.515625 
L 43.21875 35.40625 
Q 43.21875 41.609375 39.140625 45 
Q 35.0625 48.390625 27.6875 48.390625 
Q 23 48.390625 18.546875 47.265625 
Q 14.109375 46.140625 10.015625 43.890625 
L 10.015625 52.203125 
Q 14.9375 54.109375 19.578125 55.046875 
Q 24.21875 56 28.609375 56 
Q 40.484375 56 46.34375 49.84375 
Q 52.203125 43.703125 52.203125 31.203125 
z
" id="DejaVuSans-97"/>
      <path d="M 54.890625 33.015625 
L 54.890625 0 
L 45.90625 0 
L 45.90625 32.71875 
Q 45.90625 40.484375 42.875 44.328125 
Q 39.84375 48.1875 33.796875 48.1875 
Q 26.515625 48.1875 22.3125 43.546875 
Q 18.109375 38.921875 18.109375 30.90625 
L 18.109375 0 
L 9.078125 0 
L 9.078125 54.6875 
L 18.109375 54.6875 
L 18.109375 46.1875 
Q 21.34375 51.125 25.703125 53.5625 
Q 30.078125 56 35.796875 56 
Q 45.21875 56 50.046875 50.171875 
Q 54.890625 44.34375 54.890625 33.015625 
z
" id="DejaVuSans-110"/>
     </defs>
     <g transform="translate(368.234063 58.070437)scale(0.1 -0.1)">
      <use xlink:href="#DejaVuSans-109"/>
      <use x="97.412109" xlink:href="#DejaVuSans-101"/>
      <use x="158.935547" xlink:href="#DejaVuSans-100"/>
      <use x="222.412109" xlink:href="#DejaVuSans-105"/>
      <use x="250.195312" xlink:href="#DejaVuSans-97"/>
      <use x="311.474609" xlink:href="#DejaVuSans-110"/>
     </g>
    </g>
    <g id="line2d_19">
     <path d="M 340.234063 69.248562 
L 360.234063 69.248562 
" style="fill:none;stroke:#2ca02c;stroke-linecap:square;stroke-width:0.75;"/>
    </g>
    <g id="line2d_20"/>
    <g id="text_16">
     <!-- mean -->
     <g transform="translate(368.234063 72.748562)scale(0.1 -0.1)">
      <use xlink:href="#DejaVuSans-109"/>
      <use x="97.412109" xlink:href="#DejaVuSans-101"/>
      <use x="158.935547" xlink:href="#DejaVuSans-97"/>
      <use x="220.214844" xlink:href="#DejaVuSans-110"/>
     </g>
    </g>
   </g>
  </g>
  <g id="text_17">
   <!-- log_loss.mean over generations -->
   <defs>
    <path d="M 9.421875 75.984375 
L 18.40625 75.984375 
L 18.40625 0 
L 9.421875 0 
z
" id="DejaVuSans-108"/>
    <path d="M 30.609375 48.390625 
Q 23.390625 48.390625 19.1875 42.75 
Q 14.984375 37.109375 14.984375 27.296875 
Q 14.984375 17.484375 19.15625 11.84375 
Q 23.34375 6.203125 30.609375 6.203125 
Q 37.796875 6.203125 41.984375 11.859375 
Q 46.1875 17.53125 46.1875 27.296875 
Q 46.1875 37.015625 41.984375 42.703125 
Q 37.796875 48.390625 30.609375 48.390625 
z
M 30.609375 56 
Q 42.328125 56 49.015625 48.375 
Q 55.71875 40.765625 55.71875 27.296875 
Q 55.71875 13.875 49.015625 6.21875 
Q 42.328125 -1.421875 30.609375 -1.421875 
Q 18.84375 -1.421875 12.171875 6.21875 
Q 5.515625 13.875 5.515625 27.296875 
Q 5.515625 40.765625 12.171875 48.375 
Q 18.84375 56 30.609375 56 
z
" id="DejaVuSans-111"/>
    <path d="M 45.40625 27.984375 
Q 45.40625 37.75 41.375 43.109375 
Q 37.359375 48.484375 30.078125 48.484375 
Q 22.859375 48.484375 18.828125 43.109375 
Q 14.796875 37.75 14.796875 27.984375 
Q 14.796875 18.265625 18.828125 12.890625 
Q 22.859375 7.515625 30.078125 7.515625 
Q 37.359375 7.515625 41.375 12.890625 
Q 45.40625 18.265625 45.40625 27.984375 
z
M 54.390625 6.78125 
Q 54.390625 -7.171875 48.1875 -13.984375 
Q 42 -20.796875 29.203125 -20.796875 
Q 24.46875 -20.796875 20.265625 -20.09375 
Q 16.0625 -19.390625 12.109375 -17.921875 
L 12.109375 -9.1875 
Q 16.0625 -11.328125 19.921875 -12.34375 
Q 23.78125 -13.375 27.78125 -13.375 
Q 36.625 -13.375 41.015625 -8.765625 
Q 45.40625 -4.15625 45.40625 5.171875 
L 45.40625 9.625 
Q 42.625 4.78125 38.28125 2.390625 
Q 33.9375 0 27.875 0 
Q 17.828125 0 11.671875 7.65625 
Q 5.515625 15.328125 5.515625 27.984375 
Q 5.515625 40.671875 11.671875 48.328125 
Q 17.828125 56 27.875 56 
Q 33.9375 56 38.28125 53.609375 
Q 42.625 51.21875 45.40625 46.390625 
L 45.40625 54.6875 
L 54.390625 54.6875 
z
" id="DejaVuSans-103"/>
    <path d="M 50.984375 -16.609375 
L 50.984375 -23.578125 
L -0.984375 -23.578125 
L -0.984375 -16.609375 
z
" id="DejaVuSans-95"/>
    <path d="M 44.28125 53.078125 
L 44.28125 44.578125 
Q 40.484375 46.53125 36.375 47.5 
Q 32.28125 48.484375 27.875 48.484375 
Q 21.1875 48.484375 17.84375 46.4375 
Q 14.5 44.390625 14.5 40.28125 
Q 14.5 37.15625 16.890625 35.375 
Q 19.28125 33.59375 26.515625 31.984375 
L 29.59375 31.296875 
Q 39.15625 29.25 43.1875 25.515625 
Q 47.21875 21.78125 47.21875 15.09375 
Q 47.21875 7.46875 41.1875 3.015625 
Q 35.15625 -1.421875 24.609375 -1.421875 
Q 20.21875 -1.421875 15.453125 -0.5625 
Q 10.6875 0.296875 5.421875 2 
L 5.421875 11.28125 
Q 10.40625 8.6875 15.234375 7.390625 
Q 20.0625 6.109375 24.8125 6.109375 
Q 31.15625 6.109375 34.5625 8.28125 
Q 37.984375 10.453125 37.984375 14.40625 
Q 37.984375 18.0625 35.515625 20.015625 
Q 33.0625 21.96875 24.703125 23.78125 
L 21.578125 24.515625 
Q 13.234375 26.265625 9.515625 29.90625 
Q 5.8125 33.546875 5.8125 39.890625 
Q 5.8125 47.609375 11.28125 51.796875 
Q 16.75 56 26.8125 56 
Q 31.78125 56 36.171875 55.265625 
Q 40.578125 54.546875 44.28125 53.078125 
z
" id="DejaVuSans-115"/>
    <path d="M 10.6875 12.40625 
L 21 12.40625 
L 21 0 
L 10.6875 0 
z
" id="DejaVuSans-46"/>
    <path id="DejaVuSans-32"/>
    <path d="M 2.984375 54.6875 
L 12.5 54.6875 
L 29.59375 8.796875 
L 46.6875 54.6875 
L 56.203125 54.6875 
L 35.6875 0 
L 23.484375 0 
z
" id="DejaVuSans-118"/>
    <path d="M 41.109375 46.296875 
Q 39.59375 47.171875 37.8125 47.578125 
Q 36.03125 48 33.890625 48 
Q 26.265625 48 22.1875 43.046875 
Q 18.109375 38.09375 18.109375 28.8125 
L 18.109375 0 
L 9.078125 0 
L 9.078125 54.6875 
L 18.109375 54.6875 
L 18.109375 46.1875 
Q 20.953125 51.171875 25.484375 53.578125 
Q 30.03125 56 36.53125 56 
Q 37.453125 56 38.578125 55.875 
Q 39.703125 55.765625 41.0625 55.515625 
z
" id="DejaVuSans-114"/>
    <path d="M 18.3125 70.21875 
L 18.3125 54.6875 
L 36.8125 54.6875 
L 36.8125 47.703125 
L 18.3125 47.703125 
L 18.3125 18.015625 
Q 18.3125 11.328125 20.140625 9.421875 
Q 21.96875 7.515625 27.59375 7.515625 
L 36.8125 7.515625 
L 36.8125 0 
L 27.59375 0 
Q 17.1875 0 13.234375 3.875 
Q 9.28125 7.765625 9.28125 18.015625 
L 9.28125 47.703125 
L 2.6875 47.703125 
L 2.6875 54.6875 
L 9.28125 54.6875 
L 9.28125 70.21875 
z
" id="DejaVuSans-116"/>
   </defs>
   <g transform="translate(134.789062 16.030125)scale(0.12 -0.12)">
    <use xlink:href="#DejaVuSans-108"/>
    <use x="27.783203" xlink:href="#DejaVuSans-111"/>
    <use x="88.964844" xlink:href="#DejaVuSans-103"/>
    <use x="152.441406" xlink:href="#DejaVuSans-95"/>
    <use x="202.441406" xlink:href="#DejaVuSans-108"/>
    <use x="230.224609" xlink:href="#DejaVuSans-111"/>
    <use x="291.40625" xlink:href="#DejaVuSans-115"/>
    <use x="343.505859" xlink:href="#DejaVuSans-115"/>
    <use x="395.605469" xlink:href="#DejaVuSans-46"/>
    <use x="427.392578" xlink:href="#DejaVuSans-109"/>
    <use x="524.804688" xlink:href="#DejaVuSans-101"/>
    <use x="586.328125" xlink:href="#DejaVuSans-97"/>
    <use x="647.607422" xlink:href="#DejaVuSans-110"/>
    <use x="710.986328" xlink:href="#DejaVuSans-32"/>
    <use x="742.773438" xlink:href="#DejaVuSans-111"/>
    <use x="803.955078" xlink:href="#DejaVuSans-118"/>
    <use x="863.134766" xlink:href="#DejaVuSans-101"/>
    <use x="924.658203" xlink:href="#DejaVuSans-114"/>
    <use x="965.771484" xlink:href="#DejaVuSans-32"/>
    <use x="997.558594" xlink:href="#DejaVuSans-103"/>
    <use x="1061.035156" xlink:href="#DejaVuSans-101"/>
    <use x="1122.558594" xlink:href="#DejaVuSans-110"/>
    <use x="1185.9375" xlink:href="#DejaVuSans-101"/>
    <use x="1247.460938" xlink:href="#DejaVuSans-114"/>
    <use x="1288.574219" xlink:href="#DejaVuSans-97"/>
    <use x="1349.853516" xlink:href="#DejaVuSans-116"/>
    <use x="1389.0625" xlink:href="#DejaVuSans-105"/>
    <use x="1416.845703" xlink:href="#DejaVuSans-111"/>
    <use x="1478.027344" xlink:href="#DejaVuSans-110"/>
    <use x="1541.40625" xlink:href="#DejaVuSans-115"/>
   </g>
  </g>
 </g>
 <defs>
  <clipPath id="p1c1dec8924">
   <rect height="266.112" width="357.12" x="57.6" y="41.472"/>
  </clipPath>
 </defs>
</svg>
