<?xml version="1.0" encoding="utf-8" standalone="no"?>
<!DOCTYPE svg PUBLIC "-//W3C//DTD SVG 1.1//EN"
  "http://www.w3.org/Graphics/SVG/1.1/DTD/svg11.dtd">
<!-- Created with matplotlib (https://matplotlib.org/) -->
<svg height="345.6pt" version="1.1" viewBox="0 0 460.8 345.6" width="460.8pt" xmlns="http://www.w3.org/2000/svg" xmlns:xlink="http://www.w3.org/1999/xlink">
 <defs>
  <style type="text/css">
*{stroke-linecap:butt;stroke-linejoin:round;}
  </style>
 </defs>
 <g id="figure_1">
  <g id="patch_1">
   <path d="M 0 345.6 
L 460.8 345.6 
L 460.8 0 
L 0 0 
z
" style="fill:#ffffff;"/>
  </g>
  <g id="axes_1">
   <g id="patch_2">
    <path d="M 57.6 307.584 
L 414.72 307.584 
L 414.72 41.472 
L 57.6 41.472 
z
" style="fill:#ffffff;"/>
   </g>
   <g id="PolyCollection_1">
    <path clip-path="url(#pdc289b70a0)" d="M 73.832727 197.782023 
L 73.832727 197.782023 
L 75.464157 197.782023 
L 77.095587 197.782023 
L 78.727017 197.782023 
L 80.358447 197.782023 
L 81.989877 197.782023 
L 83.621307 197.782023 
L 85.252736 197.782023 
L 86.884166 197.782023 
L 88.515596 197.782023 
L 90.147026 197.782023 
L 91.778456 197.782023 
L 93.409886 197.782023 
L 95.041316 197.782023 
L 96.672746 197.782023 
L 98.304175 197.782023 
L 99.935605 197.782023 
L 101.567035 197.782023 
L 103.198465 197.782023 
L 104.829895 197.782023 
L 106.461325 197.782023 
L 108.092755 197.782023 
L 109.724185 197.782023 
L 111.355614 197.782023 
L 112.987044 197.782023 
L 114.618474 197.782023 
L 116.249904 197.782023 
L 117.881334 197.782023 
L 119.512764 197.782023 
L 121.144194 197.782023 
L 122.775624 197.782023 
L 124.407053 197.782023 
L 126.038483 197.782023 
L 127.669913 197.782023 
L 129.301343 197.782023 
L 130.932773 197.782023 
L 132.564203 197.782023 
L 134.195633 197.782023 
L 135.827063 197.782023 
L 137.458492 197.782023 
L 139.089922 197.782023 
L 140.721352 197.782023 
L 142.352782 197.782023 
L 143.984212 197.782023 
L 145.615642 197.782023 
L 147.247072 197.782023 
L 148.878502 197.782023 
L 150.509931 197.782023 
L 152.141361 197.782023 
L 153.772791 197.782023 
L 155.404221 197.782023 
L 157.035651 197.782023 
L 158.667081 197.782023 
L 160.298511 197.782023 
L 161.929941 197.782023 
L 163.56137 197.782023 
L 165.1928 197.782023 
L 166.82423 197.782023 
L 168.45566 197.782023 
L 170.08709 197.782023 
L 171.71852 197.782023 
L 173.34995 197.782023 
L 174.98138 197.782023 
L 176.61281 197.782023 
L 178.244239 197.782023 
L 179.875669 197.782023 
L 181.507099 197.782023 
L 183.138529 197.782023 
L 184.769959 197.782023 
L 186.401389 197.782023 
L 188.032819 197.782023 
L 189.664249 197.782023 
L 191.295678 197.782023 
L 192.927108 197.782023 
L 194.558538 197.782023 
L 196.189968 197.782023 
L 197.821398 197.782023 
L 199.452828 197.782023 
L 201.084258 197.782023 
L 202.715688 197.782023 
L 204.347117 197.782023 
L 205.978547 197.782023 
L 207.609977 197.782023 
L 209.241407 197.782023 
L 210.872837 197.782023 
L 212.504267 197.782023 
L 214.135697 197.782023 
L 215.767127 197.782023 
L 217.398556 197.782023 
L 219.029986 197.782023 
L 220.661416 197.782023 
L 222.292846 197.782023 
L 223.924276 197.782023 
L 225.555706 197.782023 
L 227.187136 197.782023 
L 228.818566 197.782023 
L 230.449995 197.782023 
L 232.081425 197.782023 
L 233.712855 197.782023 
L 235.344285 197.782023 
L 236.975715 197.782023 
L 238.607145 197.782023 
L 240.238575 197.782023 
L 241.870005 197.782023 
L 243.501434 197.782023 
L 245.132864 197.782023 
L 246.764294 197.782023 
L 248.395724 197.782023 
L 250.027154 197.782023 
L 251.658584 197.782023 
L 253.290014 197.782023 
L 254.921444 197.782023 
L 256.552873 197.782023 
L 258.184303 197.782023 
L 259.815733 197.782023 
L 261.447163 197.782023 
L 263.078593 197.782023 
L 264.710023 197.167871 
L 266.341453 197.782023 
L 267.972883 197.782023 
L 269.604312 197.782023 
L 271.235742 197.782023 
L 272.867172 197.782023 
L 274.498602 197.782023 
L 276.130032 197.782023 
L 277.761462 197.782023 
L 279.392892 197.782023 
L 281.024322 197.782023 
L 282.655751 197.782023 
L 284.287181 194.33536 
L 285.918611 195.827903 
L 287.550041 180.585771 
L 289.181471 197.782023 
L 290.812901 197.782023 
L 292.444331 197.782023 
L 294.075761 197.782023 
L 295.70719 197.782023 
L 297.33862 179.413299 
L 298.97005 197.782023 
L 300.60148 197.782023 
L 302.23291 197.782023 
L 303.86434 182.53989 
L 305.49577 195.437079 
L 307.1272 197.782023 
L 308.75863 197.782023 
L 310.390059 192.212782 
L 312.021489 197.782023 
L 313.652919 197.782023 
L 315.284349 179.999535 
L 316.915779 197.782023 
L 318.547209 197.782023 
L 320.178639 172.769292 
L 321.810069 197.782023 
L 323.441498 189.965544 
L 325.072928 180.488065 
L 326.704358 197.782023 
L 328.335788 192.99443 
L 329.967218 197.782023 
L 331.598648 194.264607 
L 333.230078 189.867838 
L 334.861508 197.782023 
L 336.492937 197.782023 
L 338.124367 197.782023 
L 339.755797 181.465124 
L 341.387227 197.782023 
L 343.018657 197.782023 
L 344.650087 197.782023 
L 346.281517 197.782023 
L 347.912947 196.609551 
L 349.544376 197.782023 
L 351.175806 197.782023 
L 352.807236 197.782023 
L 354.438666 197.782023 
L 356.070096 197.782023 
L 357.701526 197.782023 
L 359.332956 184.49401 
L 360.964386 197.782023 
L 362.595815 197.782023 
L 364.227245 197.782023 
L 365.858675 185.666481 
L 367.490105 174.528 
L 369.121535 197.782023 
L 370.752965 197.782023 
L 372.384395 197.782023 
L 374.015825 197.782023 
L 375.647254 197.782023 
L 377.278684 197.782023 
L 378.910114 197.782023 
L 380.541544 197.782023 
L 382.172974 197.782023 
L 383.804404 197.782023 
L 385.435834 197.782023 
L 387.067264 197.782023 
L 388.698693 197.782023 
L 390.330123 197.782023 
L 391.961553 197.782023 
L 393.592983 197.782023 
L 395.224413 197.782023 
L 396.855843 197.782023 
L 398.487273 194.460019 
L 398.487273 132.319018 
L 398.487273 132.319018 
L 396.855843 174.332588 
L 395.224413 179.022475 
L 393.592983 153.912039 
L 391.961553 151.664801 
L 390.330123 144.239147 
L 388.698693 169.154171 
L 387.067264 102.811813 
L 385.435834 177.654591 
L 383.804404 137.640737 
L 382.172974 176.189002 
L 380.541544 123.818598 
L 378.910114 146.068914 
L 377.278684 139.451554 
L 375.647254 147.492756 
L 374.015825 178.631651 
L 372.384395 160.751457 
L 370.752965 141.087997 
L 369.121535 165.734462 
L 367.490105 130.462604 
L 365.858675 139.54926 
L 364.227245 140.233202 
L 362.595815 123.330068 
L 360.964386 121.180536 
L 359.332956 146.974914 
L 357.701526 159.872103 
L 356.070096 157.52716 
L 354.438666 137.985964 
L 352.807236 172.378468 
L 351.175806 156.452394 
L 349.544376 140.554236 
L 347.912947 137.985964 
L 346.281517 123.03695 
L 344.650087 140.330908 
L 343.018657 164.659696 
L 341.387227 162.634518 
L 339.755797 160.262927 
L 338.124367 140.135496 
L 336.492937 123.916304 
L 334.861508 155.389842 
L 333.230078 116.775271 
L 331.598648 109.358113 
L 329.967218 117.214372 
L 328.335788 139.940084 
L 326.704358 160.262927 
L 325.072928 147.513982 
L 323.441498 135.445609 
L 321.810069 139.996064 
L 320.178639 122.450714 
L 318.547209 120.789712 
L 316.915779 139.940084 
L 315.284349 141.50338 
L 313.652919 125.479599 
L 312.021489 121.57136 
L 310.390059 132.807548 
L 308.75863 129.192426 
L 307.1272 120.789712 
L 305.49577 142.285027 
L 303.86434 139.54926 
L 302.23291 133.296078 
L 300.60148 150.670643 
L 298.97005 148.929034 
L 297.33862 123.916304 
L 295.70719 155.036507 
L 294.075761 139.940084 
L 292.444331 158.699632 
L 290.812901 129.387838 
L 289.181471 105.05905 
L 287.550041 123.916304 
L 285.918611 126.261247 
L 284.287181 141.801383 
L 282.655751 140.721732 
L 281.024322 158.699632 
L 279.392892 142.285027 
L 277.761462 149.02674 
L 276.130032 132.123606 
L 274.498602 134.370843 
L 272.867172 124.321086 
L 271.235742 124.42926 
L 269.604312 116.099826 
L 267.972883 158.308808 
L 266.341453 130.658016 
L 264.710023 115.318178 
L 263.078593 134.538339 
L 261.447163 163.455819 
L 259.815733 147.365738 
L 258.184303 158.308808 
L 256.552873 160.360633 
L 254.921444 173.160116 
L 253.290014 158.699632 
L 251.658584 149.02674 
L 250.027154 175.895884 
L 248.395724 167.688582 
L 246.764294 180.878889 
L 245.132864 175.817719 
L 243.501434 158.99275 
L 241.870005 165.636756 
L 240.238575 197.782023 
L 238.607145 197.782023 
L 236.975715 197.782023 
L 235.344285 197.782023 
L 233.712855 197.782023 
L 232.081425 197.782023 
L 230.449995 197.782023 
L 228.818566 197.782023 
L 227.187136 197.782023 
L 225.555706 197.782023 
L 223.924276 197.782023 
L 222.292846 197.782023 
L 220.661416 197.782023 
L 219.029986 197.782023 
L 217.398556 197.782023 
L 215.767127 197.782023 
L 214.135697 197.782023 
L 212.504267 197.782023 
L 210.872837 197.782023 
L 209.241407 197.782023 
L 207.609977 197.782023 
L 205.978547 197.782023 
L 204.347117 197.782023 
L 202.715688 197.782023 
L 201.084258 197.782023 
L 199.452828 197.782023 
L 197.821398 197.782023 
L 196.189968 197.782023 
L 194.558538 197.782023 
L 192.927108 197.782023 
L 191.295678 197.782023 
L 189.664249 197.782023 
L 188.032819 197.782023 
L 186.401389 197.782023 
L 184.769959 197.782023 
L 183.138529 197.782023 
L 181.507099 197.782023 
L 179.875669 197.782023 
L 178.244239 197.782023 
L 176.61281 197.782023 
L 174.98138 197.782023 
L 173.34995 197.782023 
L 171.71852 197.782023 
L 170.08709 197.782023 
L 168.45566 197.782023 
L 166.82423 197.782023 
L 165.1928 197.782023 
L 163.56137 197.782023 
L 161.929941 197.782023 
L 160.298511 197.782023 
L 158.667081 197.782023 
L 157.035651 197.782023 
L 155.404221 197.782023 
L 153.772791 197.782023 
L 152.141361 197.782023 
L 150.509931 197.782023 
L 148.878502 197.782023 
L 147.247072 197.782023 
L 145.615642 197.782023 
L 143.984212 197.782023 
L 142.352782 197.782023 
L 140.721352 197.782023 
L 139.089922 197.782023 
L 137.458492 197.782023 
L 135.827063 197.782023 
L 134.195633 197.782023 
L 132.564203 197.782023 
L 130.932773 197.782023 
L 129.301343 197.782023 
L 127.669913 197.782023 
L 126.038483 197.782023 
L 124.407053 197.782023 
L 122.775624 197.782023 
L 121.144194 197.782023 
L 119.512764 197.782023 
L 117.881334 197.782023 
L 116.249904 197.782023 
L 114.618474 197.782023 
L 112.987044 197.782023 
L 111.355614 197.782023 
L 109.724185 197.782023 
L 108.092755 197.782023 
L 106.461325 197.782023 
L 104.829895 197.782023 
L 103.198465 197.782023 
L 101.567035 197.782023 
L 99.935605 197.782023 
L 98.304175 197.782023 
L 96.672746 197.782023 
L 95.041316 197.782023 
L 93.409886 197.782023 
L 91.778456 197.782023 
L 90.147026 197.782023 
L 88.515596 197.782023 
L 86.884166 197.782023 
L 85.252736 197.782023 
L 83.621307 197.782023 
L 81.989877 197.782023 
L 80.358447 197.782023 
L 78.727017 197.782023 
L 77.095587 197.782023 
L 75.464157 197.782023 
L 73.832727 197.782023 
z
" style="fill:#1f77b4;fill-opacity:0.2;"/>
   </g>
   <g id="PolyCollection_2">
    <path clip-path="url(#pdc289b70a0)" d="M 73.832727 197.782023 
L 73.832727 197.782023 
L 75.464157 197.782023 
L 77.095587 197.782023 
L 78.727017 197.782023 
L 80.358447 197.782023 
L 81.989877 197.782023 
L 83.621307 197.782023 
L 85.252736 197.782023 
L 86.884166 197.782023 
L 88.515596 197.782023 
L 90.147026 197.782023 
L 91.778456 197.782023 
L 93.409886 197.782023 
L 95.041316 197.782023 
L 96.672746 197.782023 
L 98.304175 197.782023 
L 99.935605 197.782023 
L 101.567035 197.782023 
L 103.198465 197.782023 
L 104.829895 197.782023 
L 106.461325 197.782023 
L 108.092755 197.782023 
L 109.724185 197.782023 
L 111.355614 197.782023 
L 112.987044 197.782023 
L 114.618474 197.782023 
L 116.249904 197.782023 
L 117.881334 197.782023 
L 119.512764 197.782023 
L 121.144194 197.782023 
L 122.775624 197.782023 
L 124.407053 197.782023 
L 126.038483 197.782023 
L 127.669913 197.782023 
L 129.301343 197.782023 
L 130.932773 197.782023 
L 132.564203 197.782023 
L 134.195633 197.782023 
L 135.827063 197.782023 
L 137.458492 197.782023 
L 139.089922 197.782023 
L 140.721352 197.782023 
L 142.352782 197.782023 
L 143.984212 197.782023 
L 145.615642 197.782023 
L 147.247072 197.782023 
L 148.878502 197.782023 
L 150.509931 197.782023 
L 152.141361 197.782023 
L 153.772791 197.782023 
L 155.404221 197.782023 
L 157.035651 197.782023 
L 158.667081 197.782023 
L 160.298511 197.782023 
L 161.929941 197.782023 
L 163.56137 197.782023 
L 165.1928 197.782023 
L 166.82423 197.782023 
L 168.45566 197.782023 
L 170.08709 197.782023 
L 171.71852 197.782023 
L 173.34995 197.782023 
L 174.98138 197.782023 
L 176.61281 197.782023 
L 178.244239 197.782023 
L 179.875669 197.782023 
L 181.507099 197.782023 
L 183.138529 197.782023 
L 184.769959 197.782023 
L 186.401389 197.782023 
L 188.032819 197.782023 
L 189.664249 197.782023 
L 191.295678 197.782023 
L 192.927108 197.782023 
L 194.558538 197.782023 
L 196.189968 197.782023 
L 197.821398 197.782023 
L 199.452828 197.782023 
L 201.084258 197.782023 
L 202.715688 197.782023 
L 204.347117 212.516084 
L 205.978547 236.864414 
L 207.609977 266.957855 
L 209.241407 245.853363 
L 210.872837 270.47527 
L 212.504267 236.082766 
L 214.135697 278.291748 
L 215.767127 243.50842 
L 217.398556 253.669842 
L 219.029986 233.346998 
L 220.661416 256.014785 
L 222.292846 255.623961 
L 223.924276 272.429389 
L 225.555706 256.405609 
L 227.187136 231.392879 
L 228.818566 246.244187 
L 230.449995 236.47359 
L 232.081425 229.047935 
L 233.712855 275.946805 
L 235.344285 245.46254 
L 236.975715 217.381118 
L 238.607145 250.152426 
L 240.238575 249.761603 
L 241.870005 220.040375 
L 243.501434 245.853363 
L 245.132864 243.50842 
L 246.764294 287.671522 
L 248.395724 252.49737 
L 250.027154 286.889874 
L 251.658584 236.864414 
L 253.290014 236.47359 
L 254.921444 247.807483 
L 256.552873 256.014785 
L 258.184303 266.176207 
L 259.815733 268.130326 
L 261.447163 255.623961 
L 263.078593 252.888194 
L 264.710023 275.165157 
L 266.341453 242.335948 
L 267.972883 236.864414 
L 269.604312 236.082766 
L 271.235742 254.842313 
L 272.867172 277.900924 
L 274.498602 250.152426 
L 276.130032 295.488 
L 277.761462 282.981635 
L 279.392892 252.106546 
L 281.024322 240.381829 
L 282.655751 259.141376 
L 284.287181 245.853363 
L 285.918611 273.992685 
L 287.550041 234.910294 
L 289.181471 236.47359 
L 290.812901 268.52115 
L 292.444331 248.589131 
L 294.075761 265.394559 
L 295.70719 218.49569 
L 297.33862 250.934074 
L 298.97005 250.152426 
L 300.60148 225.921344 
L 302.23291 295.488 
L 303.86434 232.174527 
L 305.49577 242.726772 
L 307.1272 239.600181 
L 308.75863 249.370779 
L 310.390059 217.323218 
L 312.021489 219.668162 
L 313.652919 234.51947 
L 315.284349 265.394559 
L 316.915779 272.820213 
L 318.547209 272.820213 
L 320.178639 197.782023 
L 321.810069 267.348679 
L 323.441498 226.312168 
L 325.072928 249.370779 
L 326.704358 236.082766 
L 328.335788 236.47359 
L 329.967218 248.979955 
L 331.598648 227.48464 
L 333.230078 238.427709 
L 334.861508 254.060666 
L 336.492937 216.150746 
L 338.124367 243.899244 
L 339.755797 217.323218 
L 341.387227 226.702992 
L 343.018657 253.279018 
L 344.650087 236.082766 
L 346.281517 237.255237 
L 347.912947 229.047935 
L 349.544376 267.739502 
L 351.175806 232.956174 
L 352.807236 262.267968 
L 354.438666 232.956174 
L 356.070096 256.405609 
L 357.701526 227.875464 
L 359.332956 207.161796 
L 360.964386 231.002055 
L 362.595815 237.255237 
L 364.227245 256.405609 
L 365.858675 244.290068 
L 367.490105 255.233137 
L 369.121535 229.829583 
L 370.752965 235.301118 
L 372.384395 256.405609 
L 374.015825 213.414979 
L 375.647254 236.864414 
L 377.278684 250.152426 
L 378.910114 233.346998 
L 380.541544 201.690262 
L 382.172974 235.301118 
L 383.804404 197.782023 
L 385.435834 229.047935 
L 387.067264 198.172847 
L 388.698693 216.932394 
L 390.330123 235.691942 
L 391.961553 236.864414 
L 393.592983 216.54157 
L 395.224413 243.117596 
L 396.855843 216.54157 
L 398.487273 213.414979 
L 398.487273 93.041215 
L 398.487273 93.041215 
L 396.855843 95.175715 
L 395.224413 95.136031 
L 393.592983 94.897628 
L 391.961553 90.696271 
L 390.330123 93.893922 
L 388.698693 92.743444 
L 387.067264 53.568 
L 385.435834 92.110682 
L 383.804404 89.5238 
L 382.172974 95.067709 
L 380.541544 75.454139 
L 378.910114 95.620653 
L 377.278684 94.620795 
L 375.647254 95.18225 
L 374.015825 94.64004 
L 372.384395 92.520116 
L 370.752965 92.298649 
L 369.121535 116.437355 
L 367.490105 108.674171 
L 365.858675 78.971554 
L 364.227245 80.144026 
L 362.595815 89.132976 
L 360.964386 80.144026 
L 359.332956 108.990553 
L 357.701526 108.361512 
L 356.070096 136.283089 
L 354.438666 101.639341 
L 352.807236 121.57136 
L 351.175806 133.483673 
L 349.544376 102.030165 
L 347.912947 98.51275 
L 346.281517 95.386158 
L 344.650087 102.420989 
L 343.018657 135.233205 
L 341.387227 108.283347 
L 339.755797 132.737758 
L 338.124367 103.984284 
L 336.492937 80.144026 
L 334.861508 100.857693 
L 333.230078 103.202637 
L 331.598648 71.936724 
L 329.967218 91.087095 
L 328.335788 102.420989 
L 326.704358 120.847612 
L 325.072928 100.076045 
L 323.441498 100.076045 
L 321.810069 101.639341 
L 320.178639 100.466869 
L 318.547209 118.053945 
L 316.915779 121.962184 
L 315.284349 100.857693 
L 313.652919 94.995334 
L 312.021489 100.076045 
L 310.390059 110.237467 
L 308.75863 102.420989 
L 307.1272 91.477919 
L 305.49577 103.984284 
L 303.86434 105.54758 
L 302.23291 118.175235 
L 300.60148 100.076045 
L 298.97005 118.517144 
L 297.33862 117.225398 
L 295.70719 116.946611 
L 294.075761 116.558619 
L 292.444331 116.277473 
L 290.812901 91.477919 
L 289.181471 102.030165 
L 287.550041 112.724528 
L 285.918611 112.191586 
L 284.287181 104.375108 
L 282.655751 113.843706 
L 281.024322 101.248517 
L 279.392892 104.375108 
L 277.761462 82.488969 
L 276.130032 100.857693 
L 274.498602 111.019115 
L 272.867172 100.076045 
L 271.235742 100.076045 
L 269.604312 66.856013 
L 267.972883 101.248517 
L 266.341453 89.132976 
L 264.710023 99.294397 
L 263.078593 88.351328 
L 261.447163 114.517919 
L 259.815733 100.076045 
L 258.184303 101.639341 
L 256.552873 108.283347 
L 254.921444 115.522895 
L 253.290014 115.259554 
L 251.658584 118.444769 
L 250.027154 101.639341 
L 248.395724 117.402572 
L 246.764294 62.55695 
L 245.132864 118.556433 
L 243.501434 91.868743 
L 241.870005 114.8343 
L 240.238575 114.556071 
L 238.607145 117.526333 
L 236.975715 143.848323 
L 235.344285 100.857693 
L 233.712855 159.090456 
L 232.081425 140.721732 
L 230.449995 162.217047 
L 228.818566 136.031845 
L 227.187136 149.710682 
L 225.555706 143.457499 
L 223.924276 126.261247 
L 222.292846 157.917984 
L 220.661416 182.53989 
L 219.029986 168.079405 
L 217.398556 140.330908 
L 215.767127 175.895884 
L 214.135697 188.551134 
L 212.504267 111.651877 
L 210.872837 111.839845 
L 209.241407 165.656297 
L 207.609977 131.341958 
L 205.978547 197.782023 
L 204.347117 197.782023 
L 202.715688 197.782023 
L 201.084258 197.782023 
L 199.452828 197.782023 
L 197.821398 197.782023 
L 196.189968 197.782023 
L 194.558538 197.782023 
L 192.927108 197.782023 
L 191.295678 197.782023 
L 189.664249 197.782023 
L 188.032819 197.782023 
L 186.401389 197.782023 
L 184.769959 197.782023 
L 183.138529 197.782023 
L 181.507099 197.782023 
L 179.875669 197.782023 
L 178.244239 197.782023 
L 176.61281 197.782023 
L 174.98138 197.782023 
L 173.34995 197.782023 
L 171.71852 197.782023 
L 170.08709 197.782023 
L 168.45566 197.782023 
L 166.82423 197.782023 
L 165.1928 197.782023 
L 163.56137 197.782023 
L 161.929941 197.782023 
L 160.298511 197.782023 
L 158.667081 197.782023 
L 157.035651 197.782023 
L 155.404221 197.782023 
L 153.772791 197.782023 
L 152.141361 197.782023 
L 150.509931 197.782023 
L 148.878502 197.782023 
L 147.247072 197.782023 
L 145.615642 197.782023 
L 143.984212 197.782023 
L 142.352782 197.782023 
L 140.721352 197.782023 
L 139.089922 197.782023 
L 137.458492 197.782023 
L 135.827063 197.782023 
L 134.195633 197.782023 
L 132.564203 197.782023 
L 130.932773 197.782023 
L 129.301343 197.782023 
L 127.669913 197.782023 
L 126.038483 197.782023 
L 124.407053 197.782023 
L 122.775624 197.782023 
L 121.144194 197.782023 
L 119.512764 197.782023 
L 117.881334 197.782023 
L 116.249904 197.782023 
L 114.618474 197.782023 
L 112.987044 197.782023 
L 111.355614 197.782023 
L 109.724185 197.782023 
L 108.092755 197.782023 
L 106.461325 197.782023 
L 104.829895 197.782023 
L 103.198465 197.782023 
L 101.567035 197.782023 
L 99.935605 197.782023 
L 98.304175 197.782023 
L 96.672746 197.782023 
L 95.041316 197.782023 
L 93.409886 197.782023 
L 91.778456 197.782023 
L 90.147026 197.782023 
L 88.515596 197.782023 
L 86.884166 197.782023 
L 85.252736 197.782023 
L 83.621307 197.782023 
L 81.989877 197.782023 
L 80.358447 197.782023 
L 78.727017 197.782023 
L 77.095587 197.782023 
L 75.464157 197.782023 
L 73.832727 197.782023 
z
" style="fill:#1f77b4;fill-opacity:0.1;"/>
   </g>
   <g id="matplotlib.axis_1">
    <g id="xtick_1">
     <g id="line2d_1">
      <defs>
       <path d="M 0 0 
L 0 3.5 
" id="m8b8e04d60d" style="stroke:#000000;stroke-width:0.8;"/>
      </defs>
      <g>
       <use style="stroke:#000000;stroke-width:0.8;" x="73.832727" xlink:href="#m8b8e04d60d" y="307.584"/>
      </g>
     </g>
     <g id="text_1">
      <!-- 0 -->
      <defs>
       <path d="M 31.78125 66.40625 
Q 24.171875 66.40625 20.328125 58.90625 
Q 16.5 51.421875 16.5 36.375 
Q 16.5 21.390625 20.328125 13.890625 
Q 24.171875 6.390625 31.78125 6.390625 
Q 39.453125 6.390625 43.28125 13.890625 
Q 47.125 21.390625 47.125 36.375 
Q 47.125 51.421875 43.28125 58.90625 
Q 39.453125 66.40625 31.78125 66.40625 
z
M 31.78125 74.21875 
Q 44.046875 74.21875 50.515625 64.515625 
Q 56.984375 54.828125 56.984375 36.375 
Q 56.984375 17.96875 50.515625 8.265625 
Q 44.046875 -1.421875 31.78125 -1.421875 
Q 19.53125 -1.421875 13.0625 8.265625 
Q 6.59375 17.96875 6.59375 36.375 
Q 6.59375 54.828125 13.0625 64.515625 
Q 19.53125 74.21875 31.78125 74.21875 
z
" id="DejaVuSans-48"/>
      </defs>
      <g transform="translate(70.651477 322.182437)scale(0.1 -0.1)">
       <use xlink:href="#DejaVuSans-48"/>
      </g>
     </g>
    </g>
    <g id="xtick_2">
     <g id="line2d_2">
      <g>
       <use style="stroke:#000000;stroke-width:0.8;" x="114.618474" xlink:href="#m8b8e04d60d" y="307.584"/>
      </g>
     </g>
     <g id="text_2">
      <!-- 25 -->
      <defs>
       <path d="M 19.1875 8.296875 
L 53.609375 8.296875 
L 53.609375 0 
L 7.328125 0 
L 7.328125 8.296875 
Q 12.9375 14.109375 22.625 23.890625 
Q 32.328125 33.6875 34.8125 36.53125 
Q 39.546875 41.84375 41.421875 45.53125 
Q 43.3125 49.21875 43.3125 52.78125 
Q 43.3125 58.59375 39.234375 62.25 
Q 35.15625 65.921875 28.609375 65.921875 
Q 23.96875 65.921875 18.8125 64.3125 
Q 13.671875 62.703125 7.8125 59.421875 
L 7.8125 69.390625 
Q 13.765625 71.78125 18.9375 73 
Q 24.125 74.21875 28.421875 74.21875 
Q 39.75 74.21875 46.484375 68.546875 
Q 53.21875 62.890625 53.21875 53.421875 
Q 53.21875 48.921875 51.53125 44.890625 
Q 49.859375 40.875 45.40625 35.40625 
Q 44.1875 33.984375 37.640625 27.21875 
Q 31.109375 20.453125 19.1875 8.296875 
z
" id="DejaVuSans-50"/>
       <path d="M 10.796875 72.90625 
L 49.515625 72.90625 
L 49.515625 64.59375 
L 19.828125 64.59375 
L 19.828125 46.734375 
Q 21.96875 47.46875 24.109375 47.828125 
Q 26.265625 48.1875 28.421875 48.1875 
Q 40.625 48.1875 47.75 41.5 
Q 54.890625 34.8125 54.890625 23.390625 
Q 54.890625 11.625 47.5625 5.09375 
Q 40.234375 -1.421875 26.90625 -1.421875 
Q 22.3125 -1.421875 17.546875 -0.640625 
Q 12.796875 0.140625 7.71875 1.703125 
L 7.71875 11.625 
Q 12.109375 9.234375 16.796875 8.0625 
Q 21.484375 6.890625 26.703125 6.890625 
Q 35.15625 6.890625 40.078125 11.328125 
Q 45.015625 15.765625 45.015625 23.390625 
Q 45.015625 31 40.078125 35.4375 
Q 35.15625 39.890625 26.703125 39.890625 
Q 22.75 39.890625 18.8125 39.015625 
Q 14.890625 38.140625 10.796875 36.28125 
z
" id="DejaVuSans-53"/>
      </defs>
      <g transform="translate(108.255974 322.182437)scale(0.1 -0.1)">
       <use xlink:href="#DejaVuSans-50"/>
       <use x="63.623047" xlink:href="#DejaVuSans-53"/>
      </g>
     </g>
    </g>
    <g id="xtick_3">
     <g id="line2d_3">
      <g>
       <use style="stroke:#000000;stroke-width:0.8;" x="155.404221" xlink:href="#m8b8e04d60d" y="307.584"/>
      </g>
     </g>
     <g id="text_3">
      <!-- 50 -->
      <g transform="translate(149.041721 322.182437)scale(0.1 -0.1)">
       <use xlink:href="#DejaVuSans-53"/>
       <use x="63.623047" xlink:href="#DejaVuSans-48"/>
      </g>
     </g>
    </g>
    <g id="xtick_4">
     <g id="line2d_4">
      <g>
       <use style="stroke:#000000;stroke-width:0.8;" x="196.189968" xlink:href="#m8b8e04d60d" y="307.584"/>
      </g>
     </g>
     <g id="text_4">
      <!-- 75 -->
      <defs>
       <path d="M 8.203125 72.90625 
L 55.078125 72.90625 
L 55.078125 68.703125 
L 28.609375 0 
L 18.3125 0 
L 43.21875 64.59375 
L 8.203125 64.59375 
z
" id="DejaVuSans-55"/>
      </defs>
      <g transform="translate(189.827468 322.182437)scale(0.1 -0.1)">
       <use xlink:href="#DejaVuSans-55"/>
       <use x="63.623047" xlink:href="#DejaVuSans-53"/>
      </g>
     </g>
    </g>
    <g id="xtick_5">
     <g id="line2d_5">
      <g>
       <use style="stroke:#000000;stroke-width:0.8;" x="236.975715" xlink:href="#m8b8e04d60d" y="307.584"/>
      </g>
     </g>
     <g id="text_5">
      <!-- 100 -->
      <defs>
       <path d="M 12.40625 8.296875 
L 28.515625 8.296875 
L 28.515625 63.921875 
L 10.984375 60.40625 
L 10.984375 69.390625 
L 28.421875 72.90625 
L 38.28125 72.90625 
L 38.28125 8.296875 
L 54.390625 8.296875 
L 54.390625 0 
L 12.40625 0 
z
" id="DejaVuSans-49"/>
      </defs>
      <g transform="translate(227.431965 322.182437)scale(0.1 -0.1)">
       <use xlink:href="#DejaVuSans-49"/>
       <use x="63.623047" xlink:href="#DejaVuSans-48"/>
       <use x="127.246094" xlink:href="#DejaVuSans-48"/>
      </g>
     </g>
    </g>
    <g id="xtick_6">
     <g id="line2d_6">
      <g>
       <use style="stroke:#000000;stroke-width:0.8;" x="277.761462" xlink:href="#m8b8e04d60d" y="307.584"/>
      </g>
     </g>
     <g id="text_6">
      <!-- 125 -->
      <g transform="translate(268.217712 322.182437)scale(0.1 -0.1)">
       <use xlink:href="#DejaVuSans-49"/>
       <use x="63.623047" xlink:href="#DejaVuSans-50"/>
       <use x="127.246094" xlink:href="#DejaVuSans-53"/>
      </g>
     </g>
    </g>
    <g id="xtick_7">
     <g id="line2d_7">
      <g>
       <use style="stroke:#000000;stroke-width:0.8;" x="318.547209" xlink:href="#m8b8e04d60d" y="307.584"/>
      </g>
     </g>
     <g id="text_7">
      <!-- 150 -->
      <g transform="translate(309.003459 322.182437)scale(0.1 -0.1)">
       <use xlink:href="#DejaVuSans-49"/>
       <use x="63.623047" xlink:href="#DejaVuSans-53"/>
       <use x="127.246094" xlink:href="#DejaVuSans-48"/>
      </g>
     </g>
    </g>
    <g id="xtick_8">
     <g id="line2d_8">
      <g>
       <use style="stroke:#000000;stroke-width:0.8;" x="359.332956" xlink:href="#m8b8e04d60d" y="307.584"/>
      </g>
     </g>
     <g id="text_8">
      <!-- 175 -->
      <g transform="translate(349.789206 322.182437)scale(0.1 -0.1)">
       <use xlink:href="#DejaVuSans-49"/>
       <use x="63.623047" xlink:href="#DejaVuSans-55"/>
       <use x="127.246094" xlink:href="#DejaVuSans-53"/>
      </g>
     </g>
    </g>
    <g id="xtick_9">
     <g id="line2d_9">
      <g>
       <use style="stroke:#000000;stroke-width:0.8;" x="400.118703" xlink:href="#m8b8e04d60d" y="307.584"/>
      </g>
     </g>
     <g id="text_9">
      <!-- 200 -->
      <g transform="translate(390.574953 322.182437)scale(0.1 -0.1)">
       <use xlink:href="#DejaVuSans-50"/>
       <use x="63.623047" xlink:href="#DejaVuSans-48"/>
       <use x="127.246094" xlink:href="#DejaVuSans-48"/>
      </g>
     </g>
    </g>
   </g>
   <g id="matplotlib.axis_2">
    <g id="ytick_1">
     <g id="line2d_10">
      <defs>
       <path d="M 0 0 
L -3.5 0 
" id="mb497fcd153" style="stroke:#000000;stroke-width:0.8;"/>
      </defs>
      <g>
       <use style="stroke:#000000;stroke-width:0.8;" x="57.6" xlink:href="#mb497fcd153" y="275.946805"/>
      </g>
     </g>
     <g id="text_10">
      <!-- −0.4 -->
      <defs>
       <path d="M 10.59375 35.5 
L 73.1875 35.5 
L 73.1875 27.203125 
L 10.59375 27.203125 
z
" id="DejaVuSans-8722"/>
       <path d="M 10.6875 12.40625 
L 21 12.40625 
L 21 0 
L 10.6875 0 
z
" id="DejaVuSans-46"/>
       <path d="M 37.796875 64.3125 
L 12.890625 25.390625 
L 37.796875 25.390625 
z
M 35.203125 72.90625 
L 47.609375 72.90625 
L 47.609375 25.390625 
L 58.015625 25.390625 
L 58.015625 17.1875 
L 47.609375 17.1875 
L 47.609375 0 
L 37.796875 0 
L 37.796875 17.1875 
L 4.890625 17.1875 
L 4.890625 26.703125 
z
" id="DejaVuSans-52"/>
      </defs>
      <g transform="translate(26.317187 279.746023)scale(0.1 -0.1)">
       <use xlink:href="#DejaVuSans-8722"/>
       <use x="83.789062" xlink:href="#DejaVuSans-48"/>
       <use x="147.412109" xlink:href="#DejaVuSans-46"/>
       <use x="179.199219" xlink:href="#DejaVuSans-52"/>
      </g>
     </g>
    </g>
    <g id="ytick_2">
     <g id="line2d_11">
      <g>
       <use style="stroke:#000000;stroke-width:0.8;" x="57.6" xlink:href="#mb497fcd153" y="236.864414"/>
      </g>
     </g>
     <g id="text_11">
      <!-- −0.2 -->
      <g transform="translate(26.317187 240.663632)scale(0.1 -0.1)">
       <use xlink:href="#DejaVuSans-8722"/>
       <use x="83.789062" xlink:href="#DejaVuSans-48"/>
       <use x="147.412109" xlink:href="#DejaVuSans-46"/>
       <use x="179.199219" xlink:href="#DejaVuSans-50"/>
      </g>
     </g>
    </g>
    <g id="ytick_3">
     <g id="line2d_12">
      <g>
       <use style="stroke:#000000;stroke-width:0.8;" x="57.6" xlink:href="#mb497fcd153" y="197.782023"/>
      </g>
     </g>
     <g id="text_12">
      <!-- 0.0 -->
      <g transform="translate(34.696875 201.581241)scale(0.1 -0.1)">
       <use xlink:href="#DejaVuSans-48"/>
       <use x="63.623047" xlink:href="#DejaVuSans-46"/>
       <use x="95.410156" xlink:href="#DejaVuSans-48"/>
      </g>
     </g>
    </g>
    <g id="ytick_4">
     <g id="line2d_13">
      <g>
       <use style="stroke:#000000;stroke-width:0.8;" x="57.6" xlink:href="#mb497fcd153" y="158.699632"/>
      </g>
     </g>
     <g id="text_13">
      <!-- 0.2 -->
      <g transform="translate(34.696875 162.49885)scale(0.1 -0.1)">
       <use xlink:href="#DejaVuSans-48"/>
       <use x="63.623047" xlink:href="#DejaVuSans-46"/>
       <use x="95.410156" xlink:href="#DejaVuSans-50"/>
      </g>
     </g>
    </g>
    <g id="ytick_5">
     <g id="line2d_14">
      <g>
       <use style="stroke:#000000;stroke-width:0.8;" x="57.6" xlink:href="#mb497fcd153" y="119.617241"/>
      </g>
     </g>
     <g id="text_14">
      <!-- 0.4 -->
      <g transform="translate(34.696875 123.416459)scale(0.1 -0.1)">
       <use xlink:href="#DejaVuSans-48"/>
       <use x="63.623047" xlink:href="#DejaVuSans-46"/>
       <use x="95.410156" xlink:href="#DejaVuSans-52"/>
      </g>
     </g>
    </g>
    <g id="ytick_6">
     <g id="line2d_15">
      <g>
       <use style="stroke:#000000;stroke-width:0.8;" x="57.6" xlink:href="#mb497fcd153" y="80.53485"/>
      </g>
     </g>
     <g id="text_15">
      <!-- 0.6 -->
      <defs>
       <path d="M 33.015625 40.375 
Q 26.375 40.375 22.484375 35.828125 
Q 18.609375 31.296875 18.609375 23.390625 
Q 18.609375 15.53125 22.484375 10.953125 
Q 26.375 6.390625 33.015625 6.390625 
Q 39.65625 6.390625 43.53125 10.953125 
Q 47.40625 15.53125 47.40625 23.390625 
Q 47.40625 31.296875 43.53125 35.828125 
Q 39.65625 40.375 33.015625 40.375 
z
M 52.59375 71.296875 
L 52.59375 62.3125 
Q 48.875 64.0625 45.09375 64.984375 
Q 41.3125 65.921875 37.59375 65.921875 
Q 27.828125 65.921875 22.671875 59.328125 
Q 17.53125 52.734375 16.796875 39.40625 
Q 19.671875 43.65625 24.015625 45.921875 
Q 28.375 48.1875 33.59375 48.1875 
Q 44.578125 48.1875 50.953125 41.515625 
Q 57.328125 34.859375 57.328125 23.390625 
Q 57.328125 12.15625 50.6875 5.359375 
Q 44.046875 -1.421875 33.015625 -1.421875 
Q 20.359375 -1.421875 13.671875 8.265625 
Q 6.984375 17.96875 6.984375 36.375 
Q 6.984375 53.65625 15.1875 63.9375 
Q 23.390625 74.21875 37.203125 74.21875 
Q 40.921875 74.21875 44.703125 73.484375 
Q 48.484375 72.75 52.59375 71.296875 
z
" id="DejaVuSans-54"/>
      </defs>
      <g transform="translate(34.696875 84.334069)scale(0.1 -0.1)">
       <use xlink:href="#DejaVuSans-48"/>
       <use x="63.623047" xlink:href="#DejaVuSans-46"/>
       <use x="95.410156" xlink:href="#DejaVuSans-54"/>
      </g>
     </g>
    </g>
   </g>
   <g id="line2d_16">
    <path clip-path="url(#pdc289b70a0)" d="M 73.832727 197.782023 
L 251.658584 197.782023 
L 253.290014 191.138016 
L 254.921444 197.782023 
L 258.184303 197.782023 
L 259.815733 184.49401 
L 261.447163 197.782023 
L 263.078593 181.758242 
L 264.710023 145.020795 
L 266.341453 179.804123 
L 267.972883 177.068355 
L 269.604312 159.223691 
L 271.235742 168.861053 
L 272.867172 164.56199 
L 274.498602 162.208551 
L 276.130032 164.366578 
L 277.761462 187.620601 
L 279.392892 169.711095 
L 281.024322 191.919664 
L 282.655751 178.827063 
L 284.287181 163.780342 
L 285.918611 143.745964 
L 287.550041 152.893105 
L 289.181471 153.563666 
L 290.812901 168.62842 
L 292.444331 178.631651 
L 294.075761 178.631651 
L 295.70719 177.049745 
L 297.33862 158.895044 
L 298.97005 178.045415 
L 300.60148 165.343638 
L 302.23291 167.297758 
L 303.86434 159.481279 
L 305.49577 159.872103 
L 307.1272 152.69304 
L 308.75863 151.851331 
L 310.390059 158.699632 
L 312.021489 166.373992 
L 313.652919 145.199214 
L 316.915779 181.758242 
L 318.547209 189.965544 
L 320.178639 139.940084 
L 321.810069 170.522055 
L 323.441498 149.609607 
L 325.072928 159.285868 
L 326.704358 166.598057 
L 328.335788 151.339115 
L 329.967218 159.285868 
L 331.598648 120.008065 
L 333.230078 145.411619 
L 334.861508 181.56283 
L 336.492937 140.330908 
L 338.124367 166.64467 
L 339.755797 176.286708 
L 341.387227 165.734462 
L 343.018657 178.240827 
L 344.650087 162.291955 
L 346.281517 144.053506 
L 347.912947 150.747296 
L 349.544376 195.827903 
L 351.175806 172.378468 
L 352.807236 178.631651 
L 354.438666 142.024478 
L 356.070096 165.734462 
L 357.701526 162.998695 
L 359.332956 159.481279 
L 360.964386 152.353809 
L 362.595815 151.727612 
L 364.227245 159.090456 
L 365.858675 159.090456 
L 367.490105 149.924704 
L 369.121535 181.758242 
L 370.752965 177.850003 
L 372.384395 197.782023 
L 374.015825 190.200039 
L 375.647254 181.172006 
L 377.278684 188.366719 
L 378.910114 197.782023 
L 380.541544 140.721732 
L 382.172974 181.758242 
L 383.804404 141.50338 
L 385.435834 197.782023 
L 387.067264 116.686061 
L 388.698693 179.999535 
L 390.330123 162.998695 
L 391.961553 160.262927 
L 393.592983 162.998695 
L 395.224413 181.758242 
L 396.855843 179.022475 
L 398.487273 145.002184 
L 398.487273 145.002184 
" style="fill:none;stroke:#1f77b4;stroke-linecap:square;stroke-width:0.25;"/>
   </g>
   <g id="line2d_17">
    <path clip-path="url(#pdc289b70a0)" d="M 73.832727 197.782023 
L 202.715688 197.782023 
L 204.347117 197.929363 
L 205.978547 199.820821 
L 207.609977 202.24811 
L 209.241407 200.890597 
L 210.872837 202.74534 
L 212.504267 192.60563 
L 214.135697 206.681937 
L 215.767127 197.591488 
L 217.398556 199.763574 
L 219.029986 199.187977 
L 220.661416 203.003054 
L 222.292846 200.34082 
L 223.924276 198.797513 
L 225.555706 199.765834 
L 227.187136 200.417986 
L 228.818566 200.435203 
L 230.449995 199.759189 
L 232.081425 199.303472 
L 233.712855 202.485859 
L 235.344285 198.683909 
L 236.975715 196.969501 
L 238.607145 197.381267 
L 240.238575 197.096316 
L 241.870005 182.684043 
L 243.501434 175.217306 
L 245.132864 187.790925 
L 246.764294 179.223977 
L 248.395724 190.465042 
L 250.027154 181.09935 
L 251.658584 176.113056 
L 253.290014 178.613205 
L 254.921444 183.370593 
L 256.552873 180.743483 
L 258.184303 179.784017 
L 259.815733 174.714888 
L 261.447163 178.140045 
L 263.078593 169.139553 
L 264.710023 152.902651 
L 266.341453 168.182828 
L 267.972883 171.229362 
L 269.604312 155.696516 
L 271.235742 163.956825 
L 272.867172 166.094106 
L 274.498602 163.728758 
L 276.130032 169.127702 
L 277.761462 173.32077 
L 279.392892 169.715419 
L 281.024322 175.084979 
L 282.655751 175.663661 
L 284.287181 163.680979 
L 285.918611 159.446063 
L 289.181471 155.429335 
L 292.444331 176.893182 
L 294.075761 171.733315 
L 295.70719 172.754606 
L 297.33862 160.332434 
L 298.97005 173.756317 
L 300.60148 168.477926 
L 302.23291 170.428519 
L 303.86434 161.45252 
L 305.49577 162.166402 
L 307.1272 157.560856 
L 310.390059 161.411212 
L 312.021489 159.643818 
L 313.652919 157.504064 
L 315.284349 162.450827 
L 316.915779 173.635097 
L 318.547209 165.801001 
L 320.178639 146.260707 
L 321.810069 167.000686 
L 323.441498 152.907851 
L 325.072928 160.224888 
L 326.704358 171.342651 
L 328.335788 159.321021 
L 329.967218 157.241094 
L 331.598648 142.904983 
L 333.230078 152.373635 
L 334.861508 174.761913 
L 336.492937 152.540196 
L 338.124367 166.880826 
L 339.755797 173.292734 
L 341.387227 174.185589 
L 343.018657 178.737918 
L 344.650087 164.993965 
L 346.281517 154.131637 
L 347.912947 161.762076 
L 349.544376 172.446793 
L 351.175806 176.454916 
L 352.807236 181.183674 
L 354.438666 159.221146 
L 356.070096 175.728067 
L 357.701526 175.101396 
L 359.332956 161.0704 
L 360.964386 156.469234 
L 362.595815 157.513805 
L 364.227245 160.796748 
L 365.858675 160.650262 
L 367.490105 155.760638 
L 369.121535 178.559649 
L 370.752965 168.110421 
L 372.384395 180.270742 
L 374.015825 184.320102 
L 375.647254 174.208415 
L 377.278684 165.433298 
L 378.910114 177.638424 
L 380.541544 152.07628 
L 382.172974 179.041394 
L 383.804404 154.614911 
L 385.435834 185.447212 
L 387.067264 141.863469 
L 388.698693 182.113479 
L 390.330123 168.047028 
L 391.961553 165.771591 
L 393.592983 170.468443 
L 395.224413 177.581364 
L 396.855843 176.077745 
L 398.487273 153.101159 
L 398.487273 153.101159 
" style="fill:none;stroke:#2ca02c;stroke-linecap:square;stroke-width:0.75;"/>
   </g>
   <g id="patch_3">
    <path d="M 57.6 307.584 
L 57.6 41.472 
" style="fill:none;stroke:#000000;stroke-linecap:square;stroke-linejoin:miter;stroke-width:0.8;"/>
   </g>
   <g id="patch_4">
    <path d="M 414.72 307.584 
L 414.72 41.472 
" style="fill:none;stroke:#000000;stroke-linecap:square;stroke-linejoin:miter;stroke-width:0.8;"/>
   </g>
   <g id="patch_5">
    <path d="M 57.6 307.584 
L 414.72 307.584 
" style="fill:none;stroke:#000000;stroke-linecap:square;stroke-linejoin:miter;stroke-width:0.8;"/>
   </g>
   <g id="patch_6">
    <path d="M 57.6 41.472 
L 414.72 41.472 
" style="fill:none;stroke:#000000;stroke-linecap:square;stroke-linejoin:miter;stroke-width:0.8;"/>
   </g>
   <g id="legend_1">
    <g id="patch_7">
     <path d="M 338.234063 78.82825 
L 407.72 78.82825 
Q 409.72 78.82825 409.72 76.82825 
L 409.72 48.472 
Q 409.72 46.472 407.72 46.472 
L 338.234063 46.472 
Q 336.234063 46.472 336.234063 48.472 
L 336.234063 76.82825 
Q 336.234063 78.82825 338.234063 78.82825 
z
" style="fill:#ffffff;opacity:0.8;stroke:#cccccc;stroke-linejoin:miter;"/>
    </g>
    <g id="line2d_18">
     <path d="M 340.234063 54.570437 
L 360.234063 54.570437 
" style="fill:none;stroke:#1f77b4;stroke-linecap:square;stroke-width:0.25;"/>
    </g>
    <g id="line2d_19"/>
    <g id="text_16">
     <!-- median -->
     <defs>
      <path d="M 52 44.1875 
Q 55.375 50.25 60.0625 53.125 
Q 64.75 56 71.09375 56 
Q 79.640625 56 84.28125 50.015625 
Q 88.921875 44.046875 88.921875 33.015625 
L 88.921875 0 
L 79.890625 0 
L 79.890625 32.71875 
Q 79.890625 40.578125 77.09375 44.375 
Q 74.3125 48.1875 68.609375 48.1875 
Q 61.625 48.1875 57.5625 43.546875 
Q 53.515625 38.921875 53.515625 30.90625 
L 53.515625 0 
L 44.484375 0 
L 44.484375 32.71875 
Q 44.484375 40.625 41.703125 44.40625 
Q 38.921875 48.1875 33.109375 48.1875 
Q 26.21875 48.1875 22.15625 43.53125 
Q 18.109375 38.875 18.109375 30.90625 
L 18.109375 0 
L 9.078125 0 
L 9.078125 54.6875 
L 18.109375 54.6875 
L 18.109375 46.1875 
Q 21.1875 51.21875 25.484375 53.609375 
Q 29.78125 56 35.6875 56 
Q 41.65625 56 45.828125 52.96875 
Q 50 49.953125 52 44.1875 
z
" id="DejaVuSans-109"/>
      <path d="M 56.203125 29.59375 
L 56.203125 25.203125 
L 14.890625 25.203125 
Q 15.484375 15.921875 20.484375 11.0625 
Q 25.484375 6.203125 34.421875 6.203125 
Q 39.59375 6.203125 44.453125 7.46875 
Q 49.3125 8.734375 54.109375 11.28125 
L 54.109375 2.78125 
Q 49.265625 0.734375 44.1875 -0.34375 
Q 39.109375 -1.421875 33.890625 -1.421875 
Q 20.796875 -1.421875 13.15625 6.1875 
Q 5.515625 13.8125 5.515625 26.8125 
Q 5.515625 40.234375 12.765625 48.109375 
Q 20.015625 56 32.328125 56 
Q 43.359375 56 49.78125 48.890625 
Q 56.203125 41.796875 56.203125 29.59375 
z
M 47.21875 32.234375 
Q 47.125 39.59375 43.09375 43.984375 
Q 39.0625 48.390625 32.421875 48.390625 
Q 24.90625 48.390625 20.390625 44.140625 
Q 15.875 39.890625 15.1875 32.171875 
z
" id="DejaVuSans-101"/>
      <path d="M 45.40625 46.390625 
L 45.40625 75.984375 
L 54.390625 75.984375 
L 54.390625 0 
L 45.40625 0 
L 45.40625 8.203125 
Q 42.578125 3.328125 38.25 0.953125 
Q 33.9375 -1.421875 27.875 -1.421875 
Q 17.96875 -1.421875 11.734375 6.484375 
Q 5.515625 14.40625 5.515625 27.296875 
Q 5.515625 40.1875 11.734375 48.09375 
Q 17.96875 56 27.875 56 
Q 33.9375 56 38.25 53.625 
Q 42.578125 51.265625 45.40625 46.390625 
z
M 14.796875 27.296875 
Q 14.796875 17.390625 18.875 11.75 
Q 22.953125 6.109375 30.078125 6.109375 
Q 37.203125 6.109375 41.296875 11.75 
Q 45.40625 17.390625 45.40625 27.296875 
Q 45.40625 37.203125 41.296875 42.84375 
Q 37.203125 48.484375 30.078125 48.484375 
Q 22.953125 48.484375 18.875 42.84375 
Q 14.796875 37.203125 14.796875 27.296875 
z
" id="DejaVuSans-100"/>
      <path d="M 9.421875 54.6875 
L 18.40625 54.6875 
L 18.40625 0 
L 9.421875 0 
z
M 9.421875 75.984375 
L 18.40625 75.984375 
L 18.40625 64.59375 
L 9.421875 64.59375 
z
" id="DejaVuSans-105"/>
      <path d="M 34.28125 27.484375 
Q 23.390625 27.484375 19.1875 25 
Q 14.984375 22.515625 14.984375 16.5 
Q 14.984375 11.71875 18.140625 8.90625 
Q 21.296875 6.109375 26.703125 6.109375 
Q 34.1875 6.109375 38.703125 11.40625 
Q 43.21875 16.703125 43.21875 25.484375 
L 43.21875 27.484375 
z
M 52.203125 31.203125 
L 52.203125 0 
L 43.21875 0 
L 43.21875 8.296875 
Q 40.140625 3.328125 35.546875 0.953125 
Q 30.953125 -1.421875 24.3125 -1.421875 
Q 15.921875 -1.421875 10.953125 3.296875 
Q 6 8.015625 6 15.921875 
Q 6 25.140625 12.171875 29.828125 
Q 18.359375 34.515625 30.609375 34.515625 
L 43.21875 34.515625 
L 43.21875 35.40625 
Q 43.21875 41.609375 39.140625 45 
Q 35.0625 48.390625 27.6875 48.390625 
Q 23 48.390625 18.546875 47.265625 
Q 14.109375 46.140625 10.015625 43.890625 
L 10.015625 52.203125 
Q 14.9375 54.109375 19.578125 55.046875 
Q 24.21875 56 28.609375 56 
Q 40.484375 56 46.34375 49.84375 
Q 52.203125 43.703125 52.203125 31.203125 
z
" id="DejaVuSans-97"/>
      <path d="M 54.890625 33.015625 
L 54.890625 0 
L 45.90625 0 
L 45.90625 32.71875 
Q 45.90625 40.484375 42.875 44.328125 
Q 39.84375 48.1875 33.796875 48.1875 
Q 26.515625 48.1875 22.3125 43.546875 
Q 18.109375 38.921875 18.109375 30.90625 
L 18.109375 0 
L 9.078125 0 
L 9.078125 54.6875 
L 18.109375 54.6875 
L 18.109375 46.1875 
Q 21.34375 51.125 25.703125 53.5625 
Q 30.078125 56 35.796875 56 
Q 45.21875 56 50.046875 50.171875 
Q 54.890625 44.34375 54.890625 33.015625 
z
" id="DejaVuSans-110"/>
     </defs>
     <g transform="translate(368.234063 58.070437)scale(0.1 -0.1)">
      <use xlink:href="#DejaVuSans-109"/>
      <use x="97.412109" xlink:href="#DejaVuSans-101"/>
      <use x="158.935547" xlink:href="#DejaVuSans-100"/>
      <use x="222.412109" xlink:href="#DejaVuSans-105"/>
      <use x="250.195312" xlink:href="#DejaVuSans-97"/>
      <use x="311.474609" xlink:href="#DejaVuSans-110"/>
     </g>
    </g>
    <g id="line2d_20">
     <path d="M 340.234063 69.248562 
L 360.234063 69.248562 
" style="fill:none;stroke:#2ca02c;stroke-linecap:square;stroke-width:0.75;"/>
    </g>
    <g id="line2d_21"/>
    <g id="text_17">
     <!-- mean -->
     <g transform="translate(368.234063 72.748562)scale(0.1 -0.1)">
      <use xlink:href="#DejaVuSans-109"/>
      <use x="97.412109" xlink:href="#DejaVuSans-101"/>
      <use x="158.935547" xlink:href="#DejaVuSans-97"/>
      <use x="220.214844" xlink:href="#DejaVuSans-110"/>
     </g>
    </g>
   </g>
  </g>
  <g id="text_18">
   <!-- kappa.mean over generations -->
   <defs>
    <path d="M 9.078125 75.984375 
L 18.109375 75.984375 
L 18.109375 31.109375 
L 44.921875 54.6875 
L 56.390625 54.6875 
L 27.390625 29.109375 
L 57.625 0 
L 45.90625 0 
L 18.109375 26.703125 
L 18.109375 0 
L 9.078125 0 
z
" id="DejaVuSans-107"/>
    <path d="M 18.109375 8.203125 
L 18.109375 -20.796875 
L 9.078125 -20.796875 
L 9.078125 54.6875 
L 18.109375 54.6875 
L 18.109375 46.390625 
Q 20.953125 51.265625 25.265625 53.625 
Q 29.59375 56 35.59375 56 
Q 45.5625 56 51.78125 48.09375 
Q 58.015625 40.1875 58.015625 27.296875 
Q 58.015625 14.40625 51.78125 6.484375 
Q 45.5625 -1.421875 35.59375 -1.421875 
Q 29.59375 -1.421875 25.265625 0.953125 
Q 20.953125 3.328125 18.109375 8.203125 
z
M 48.6875 27.296875 
Q 48.6875 37.203125 44.609375 42.84375 
Q 40.53125 48.484375 33.40625 48.484375 
Q 26.265625 48.484375 22.1875 42.84375 
Q 18.109375 37.203125 18.109375 27.296875 
Q 18.109375 17.390625 22.1875 11.75 
Q 26.265625 6.109375 33.40625 6.109375 
Q 40.53125 6.109375 44.609375 11.75 
Q 48.6875 17.390625 48.6875 27.296875 
z
" id="DejaVuSans-112"/>
    <path id="DejaVuSans-32"/>
    <path d="M 30.609375 48.390625 
Q 23.390625 48.390625 19.1875 42.75 
Q 14.984375 37.109375 14.984375 27.296875 
Q 14.984375 17.484375 19.15625 11.84375 
Q 23.34375 6.203125 30.609375 6.203125 
Q 37.796875 6.203125 41.984375 11.859375 
Q 46.1875 17.53125 46.1875 27.296875 
Q 46.1875 37.015625 41.984375 42.703125 
Q 37.796875 48.390625 30.609375 48.390625 
z
M 30.609375 56 
Q 42.328125 56 49.015625 48.375 
Q 55.71875 40.765625 55.71875 27.296875 
Q 55.71875 13.875 49.015625 6.21875 
Q 42.328125 -1.421875 30.609375 -1.421875 
Q 18.84375 -1.421875 12.171875 6.21875 
Q 5.515625 13.875 5.515625 27.296875 
Q 5.515625 40.765625 12.171875 48.375 
Q 18.84375 56 30.609375 56 
z
" id="DejaVuSans-111"/>
    <path d="M 2.984375 54.6875 
L 12.5 54.6875 
L 29.59375 8.796875 
L 46.6875 54.6875 
L 56.203125 54.6875 
L 35.6875 0 
L 23.484375 0 
z
" id="DejaVuSans-118"/>
    <path d="M 41.109375 46.296875 
Q 39.59375 47.171875 37.8125 47.578125 
Q 36.03125 48 33.890625 48 
Q 26.265625 48 22.1875 43.046875 
Q 18.109375 38.09375 18.109375 28.8125 
L 18.109375 0 
L 9.078125 0 
L 9.078125 54.6875 
L 18.109375 54.6875 
L 18.109375 46.1875 
Q 20.953125 51.171875 25.484375 53.578125 
Q 30.03125 56 36.53125 56 
Q 37.453125 56 38.578125 55.875 
Q 39.703125 55.765625 41.0625 55.515625 
z
" id="DejaVuSans-114"/>
    <path d="M 45.40625 27.984375 
Q 45.40625 37.75 41.375 43.109375 
Q 37.359375 48.484375 30.078125 48.484375 
Q 22.859375 48.484375 18.828125 43.109375 
Q 14.796875 37.75 14.796875 27.984375 
Q 14.796875 18.265625 18.828125 12.890625 
Q 22.859375 7.515625 30.078125 7.515625 
Q 37.359375 7.515625 41.375 12.890625 
Q 45.40625 18.265625 45.40625 27.984375 
z
M 54.390625 6.78125 
Q 54.390625 -7.171875 48.1875 -13.984375 
Q 42 -20.796875 29.203125 -20.796875 
Q 24.46875 -20.796875 20.265625 -20.09375 
Q 16.0625 -19.390625 12.109375 -17.921875 
L 12.109375 -9.1875 
Q 16.0625 -11.328125 19.921875 -12.34375 
Q 23.78125 -13.375 27.78125 -13.375 
Q 36.625 -13.375 41.015625 -8.765625 
Q 45.40625 -4.15625 45.40625 5.171875 
L 45.40625 9.625 
Q 42.625 4.78125 38.28125 2.390625 
Q 33.9375 0 27.875 0 
Q 17.828125 0 11.671875 7.65625 
Q 5.515625 15.328125 5.515625 27.984375 
Q 5.515625 40.671875 11.671875 48.328125 
Q 17.828125 56 27.875 56 
Q 33.9375 56 38.28125 53.609375 
Q 42.625 51.21875 45.40625 46.390625 
L 45.40625 54.6875 
L 54.390625 54.6875 
z
" id="DejaVuSans-103"/>
    <path d="M 18.3125 70.21875 
L 18.3125 54.6875 
L 36.8125 54.6875 
L 36.8125 47.703125 
L 18.3125 47.703125 
L 18.3125 18.015625 
Q 18.3125 11.328125 20.140625 9.421875 
Q 21.96875 7.515625 27.59375 7.515625 
L 36.8125 7.515625 
L 36.8125 0 
L 27.59375 0 
Q 17.1875 0 13.234375 3.875 
Q 9.28125 7.765625 9.28125 18.015625 
L 9.28125 47.703125 
L 2.6875 47.703125 
L 2.6875 54.6875 
L 9.28125 54.6875 
L 9.28125 70.21875 
z
" id="DejaVuSans-116"/>
    <path d="M 44.28125 53.078125 
L 44.28125 44.578125 
Q 40.484375 46.53125 36.375 47.5 
Q 32.28125 48.484375 27.875 48.484375 
Q 21.1875 48.484375 17.84375 46.4375 
Q 14.5 44.390625 14.5 40.28125 
Q 14.5 37.15625 16.890625 35.375 
Q 19.28125 33.59375 26.515625 31.984375 
L 29.59375 31.296875 
Q 39.15625 29.25 43.1875 25.515625 
Q 47.21875 21.78125 47.21875 15.09375 
Q 47.21875 7.46875 41.1875 3.015625 
Q 35.15625 -1.421875 24.609375 -1.421875 
Q 20.21875 -1.421875 15.453125 -0.5625 
Q 10.6875 0.296875 5.421875 2 
L 5.421875 11.28125 
Q 10.40625 8.6875 15.234375 7.390625 
Q 20.0625 6.109375 24.8125 6.109375 
Q 31.15625 6.109375 34.5625 8.28125 
Q 37.984375 10.453125 37.984375 14.40625 
Q 37.984375 18.0625 35.515625 20.015625 
Q 33.0625 21.96875 24.703125 23.78125 
L 21.578125 24.515625 
Q 13.234375 26.265625 9.515625 29.90625 
Q 5.8125 33.546875 5.8125 39.890625 
Q 5.8125 47.609375 11.28125 51.796875 
Q 16.75 56 26.8125 56 
Q 31.78125 56 36.171875 55.265625 
Q 40.578125 54.546875 44.28125 53.078125 
z
" id="DejaVuSans-115"/>
   </defs>
   <g transform="translate(140.184375 16.030125)scale(0.12 -0.12)">
    <use xlink:href="#DejaVuSans-107"/>
    <use x="56.160156" xlink:href="#DejaVuSans-97"/>
    <use x="117.439453" xlink:href="#DejaVuSans-112"/>
    <use x="180.916016" xlink:href="#DejaVuSans-112"/>
    <use x="244.392578" xlink:href="#DejaVuSans-97"/>
    <use x="305.671875" xlink:href="#DejaVuSans-46"/>
    <use x="337.458984" xlink:href="#DejaVuSans-109"/>
    <use x="434.871094" xlink:href="#DejaVuSans-101"/>
    <use x="496.394531" xlink:href="#DejaVuSans-97"/>
    <use x="557.673828" xlink:href="#DejaVuSans-110"/>
    <use x="621.052734" xlink:href="#DejaVuSans-32"/>
    <use x="652.839844" xlink:href="#DejaVuSans-111"/>
    <use x="714.021484" xlink:href="#DejaVuSans-118"/>
    <use x="773.201172" xlink:href="#DejaVuSans-101"/>
    <use x="834.724609" xlink:href="#DejaVuSans-114"/>
    <use x="875.837891" xlink:href="#DejaVuSans-32"/>
    <use x="907.625" xlink:href="#DejaVuSans-103"/>
    <use x="971.101562" xlink:href="#DejaVuSans-101"/>
    <use x="1032.625" xlink:href="#DejaVuSans-110"/>
    <use x="1096.003906" xlink:href="#DejaVuSans-101"/>
    <use x="1157.527344" xlink:href="#DejaVuSans-114"/>
    <use x="1198.640625" xlink:href="#DejaVuSans-97"/>
    <use x="1259.919922" xlink:href="#DejaVuSans-116"/>
    <use x="1299.128906" xlink:href="#DejaVuSans-105"/>
    <use x="1326.912109" xlink:href="#DejaVuSans-111"/>
    <use x="1388.09375" xlink:href="#DejaVuSans-110"/>
    <use x="1451.472656" xlink:href="#DejaVuSans-115"/>
   </g>
  </g>
 </g>
 <defs>
  <clipPath id="pdc289b70a0">
   <rect height="266.112" width="357.12" x="57.6" y="41.472"/>
  </clipPath>
 </defs>
</svg>
