<?xml version="1.0" encoding="utf-8" standalone="no"?>
<!DOCTYPE svg PUBLIC "-//W3C//DTD SVG 1.1//EN"
  "http://www.w3.org/Graphics/SVG/1.1/DTD/svg11.dtd">
<!-- Created with matplotlib (https://matplotlib.org/) -->
<svg height="345.6pt" version="1.1" viewBox="0 0 460.8 345.6" width="460.8pt" xmlns="http://www.w3.org/2000/svg" xmlns:xlink="http://www.w3.org/1999/xlink">
 <defs>
  <style type="text/css">
*{stroke-linecap:butt;stroke-linejoin:round;}
  </style>
 </defs>
 <g id="figure_1">
  <g id="patch_1">
   <path d="M 0 345.6 
L 460.8 345.6 
L 460.8 0 
L 0 0 
z
" style="fill:#ffffff;"/>
  </g>
  <g id="axes_1">
   <g id="patch_2">
    <path d="M 57.6 307.584 
L 414.72 307.584 
L 414.72 41.472 
L 57.6 41.472 
z
" style="fill:#ffffff;"/>
   </g>
   <g id="PolyCollection_1">
    <path clip-path="url(#pc44ba91813)" d="M 73.832727 154.98177 
L 73.832727 154.98177 
L 75.464157 154.98177 
L 77.095587 154.98177 
L 78.727017 154.98177 
L 80.358447 154.98177 
L 81.989877 154.98177 
L 83.621307 154.98177 
L 85.252736 154.98177 
L 86.884166 154.98177 
L 88.515596 154.98177 
L 90.147026 154.98177 
L 91.778456 154.98177 
L 93.409886 154.98177 
L 95.041316 154.98177 
L 96.672746 154.98177 
L 98.304175 154.98177 
L 99.935605 154.98177 
L 101.567035 154.98177 
L 103.198465 154.98177 
L 104.829895 154.98177 
L 106.461325 154.98177 
L 108.092755 154.98177 
L 109.724185 154.98177 
L 111.355614 154.98177 
L 112.987044 154.98177 
L 114.618474 154.98177 
L 116.249904 154.98177 
L 117.881334 154.98177 
L 119.512764 154.98177 
L 121.144194 154.98177 
L 122.775624 154.98177 
L 124.407053 154.98177 
L 126.038483 154.98177 
L 127.669913 154.98177 
L 129.301343 154.98177 
L 130.932773 154.98177 
L 132.564203 154.98177 
L 134.195633 154.98177 
L 135.827063 154.98177 
L 137.458492 154.98177 
L 139.089922 154.98177 
L 140.721352 154.98177 
L 142.352782 154.98177 
L 143.984212 154.98177 
L 145.615642 154.98177 
L 147.247072 154.98177 
L 148.878502 154.98177 
L 150.509931 154.98177 
L 152.141361 154.98177 
L 153.772791 154.98177 
L 155.404221 154.98177 
L 157.035651 154.98177 
L 158.667081 154.98177 
L 160.298511 154.98177 
L 161.929941 154.98177 
L 163.56137 154.98177 
L 165.1928 154.98177 
L 166.82423 154.98177 
L 168.45566 154.98177 
L 170.08709 154.98177 
L 171.71852 154.98177 
L 173.34995 154.98177 
L 174.98138 154.98177 
L 176.61281 154.98177 
L 178.244239 154.98177 
L 179.875669 154.98177 
L 181.507099 154.98177 
L 183.138529 154.98177 
L 184.769959 154.98177 
L 186.401389 154.98177 
L 188.032819 154.98177 
L 189.664249 154.98177 
L 191.295678 154.98177 
L 192.927108 154.98177 
L 194.558538 154.98177 
L 196.189968 154.98177 
L 197.821398 154.98177 
L 199.452828 154.98177 
L 201.084258 154.98177 
L 202.715688 154.98177 
L 204.347117 154.98177 
L 205.978547 154.98177 
L 207.609977 154.98177 
L 209.241407 154.98177 
L 210.872837 154.98177 
L 212.504267 154.98177 
L 214.135697 154.98177 
L 215.767127 154.98177 
L 217.398556 154.98177 
L 219.029986 154.98177 
L 220.661416 154.98177 
L 222.292846 154.98177 
L 223.924276 154.98177 
L 225.555706 154.98177 
L 227.187136 154.98177 
L 228.818566 154.98177 
L 230.449995 154.98177 
L 232.081425 154.98177 
L 233.712855 154.98177 
L 235.344285 154.98177 
L 236.975715 154.98177 
L 238.607145 154.98177 
L 240.238575 154.98177 
L 241.870005 154.98177 
L 243.501434 154.98177 
L 245.132864 154.98177 
L 246.764294 154.98177 
L 248.395724 154.98177 
L 250.027154 154.98177 
L 251.658584 154.98177 
L 253.290014 154.98177 
L 254.921444 154.98177 
L 256.552873 154.98177 
L 258.184303 154.98177 
L 259.815733 154.98177 
L 261.447163 154.98177 
L 263.078593 154.98177 
L 264.710023 154.98177 
L 266.341453 154.98177 
L 267.972883 154.98177 
L 269.604312 154.98177 
L 271.235742 154.98177 
L 272.867172 154.98177 
L 274.498602 154.98177 
L 276.130032 154.98177 
L 277.761462 154.98177 
L 279.392892 154.98177 
L 281.024322 154.98177 
L 282.655751 154.98177 
L 284.287181 154.98177 
L 285.918611 154.98177 
L 287.550041 154.98177 
L 289.181471 154.98177 
L 290.812901 154.98177 
L 292.444331 154.98177 
L 294.075761 154.98177 
L 295.70719 154.98177 
L 297.33862 154.98177 
L 298.97005 154.98177 
L 300.60148 154.98177 
L 302.23291 154.98177 
L 303.86434 154.98177 
L 305.49577 154.98177 
L 307.1272 154.98177 
L 308.75863 154.98177 
L 310.390059 154.98177 
L 312.021489 154.98177 
L 313.652919 154.98177 
L 315.284349 154.98177 
L 316.915779 154.98177 
L 318.547209 154.98177 
L 320.178639 154.98177 
L 321.810069 154.98177 
L 323.441498 154.98177 
L 325.072928 154.98177 
L 326.704358 154.98177 
L 328.335788 154.98177 
L 329.967218 154.98177 
L 331.598648 154.98177 
L 333.230078 154.98177 
L 334.861508 154.98177 
L 336.492937 154.98177 
L 338.124367 154.98177 
L 339.755797 154.98177 
L 341.387227 154.98177 
L 343.018657 154.98177 
L 344.650087 154.98177 
L 346.281517 154.98177 
L 347.912947 154.98177 
L 349.544376 154.98177 
L 351.175806 154.98177 
L 352.807236 154.98177 
L 354.438666 154.98177 
L 356.070096 154.98177 
L 357.701526 154.98177 
L 359.332956 154.98177 
L 360.964386 154.98177 
L 362.595815 154.98177 
L 364.227245 154.98177 
L 365.858675 154.98177 
L 367.490105 154.98177 
L 369.121535 154.98177 
L 370.752965 154.98177 
L 372.384395 154.98177 
L 374.015825 154.98177 
L 375.647254 154.98177 
L 377.278684 154.98177 
L 378.910114 154.98177 
L 380.541544 154.98177 
L 382.172974 154.98177 
L 383.804404 154.98177 
L 385.435834 154.98177 
L 387.067264 154.98177 
L 388.698693 154.98177 
L 390.330123 154.98177 
L 391.961553 154.98177 
L 393.592983 154.98177 
L 395.224413 154.98177 
L 396.855843 154.98177 
L 398.487273 154.98177 
L 398.487273 154.98177 
L 398.487273 154.98177 
L 396.855843 149.316197 
L 395.224413 119.288656 
L 393.592983 134.274098 
L 391.961553 154.98177 
L 390.330123 154.98177 
L 388.698693 154.98177 
L 387.067264 154.98177 
L 385.435834 154.98177 
L 383.804404 154.98177 
L 382.172974 154.98177 
L 380.541544 154.98177 
L 378.910114 154.98177 
L 377.278684 154.98177 
L 375.647254 154.98177 
L 374.015825 154.98177 
L 372.384395 154.98177 
L 370.752965 154.98177 
L 369.121535 154.98177 
L 367.490105 154.98177 
L 365.858675 154.98177 
L 364.227245 154.98177 
L 362.595815 154.98177 
L 360.964386 154.98177 
L 359.332956 154.98177 
L 357.701526 154.98177 
L 356.070096 154.98177 
L 354.438666 154.98177 
L 352.807236 154.98177 
L 351.175806 154.98177 
L 349.544376 154.98177 
L 347.912947 154.98177 
L 346.281517 154.98177 
L 344.650087 154.98177 
L 343.018657 154.98177 
L 341.387227 154.98177 
L 339.755797 154.98177 
L 338.124367 154.98177 
L 336.492937 154.98177 
L 334.861508 154.98177 
L 333.230078 154.98177 
L 331.598648 154.98177 
L 329.967218 154.98177 
L 328.335788 154.98177 
L 326.704358 154.98177 
L 325.072928 154.98177 
L 323.441498 154.98177 
L 321.810069 154.98177 
L 320.178639 154.98177 
L 318.547209 154.98177 
L 316.915779 154.98177 
L 315.284349 154.98177 
L 313.652919 154.98177 
L 312.021489 154.98177 
L 310.390059 154.98177 
L 308.75863 154.98177 
L 307.1272 154.98177 
L 305.49577 154.98177 
L 303.86434 154.98177 
L 302.23291 154.98177 
L 300.60148 154.98177 
L 298.97005 154.98177 
L 297.33862 154.98177 
L 295.70719 154.98177 
L 294.075761 154.98177 
L 292.444331 154.98177 
L 290.812901 154.98177 
L 289.181471 154.98177 
L 287.550041 154.98177 
L 285.918611 154.98177 
L 284.287181 154.98177 
L 282.655751 154.98177 
L 281.024322 154.98177 
L 279.392892 154.98177 
L 277.761462 154.98177 
L 276.130032 154.98177 
L 274.498602 154.98177 
L 272.867172 154.98177 
L 271.235742 154.98177 
L 269.604312 154.98177 
L 267.972883 154.98177 
L 266.341453 154.98177 
L 264.710023 154.98177 
L 263.078593 154.98177 
L 261.447163 154.98177 
L 259.815733 154.98177 
L 258.184303 154.98177 
L 256.552873 154.98177 
L 254.921444 154.98177 
L 253.290014 154.98177 
L 251.658584 154.98177 
L 250.027154 154.98177 
L 248.395724 154.98177 
L 246.764294 154.98177 
L 245.132864 154.98177 
L 243.501434 154.98177 
L 241.870005 154.98177 
L 240.238575 154.98177 
L 238.607145 154.98177 
L 236.975715 154.98177 
L 235.344285 154.98177 
L 233.712855 154.98177 
L 232.081425 154.98177 
L 230.449995 154.98177 
L 228.818566 154.98177 
L 227.187136 154.98177 
L 225.555706 154.98177 
L 223.924276 154.98177 
L 222.292846 154.98177 
L 220.661416 154.98177 
L 219.029986 154.98177 
L 217.398556 154.98177 
L 215.767127 154.98177 
L 214.135697 154.98177 
L 212.504267 154.98177 
L 210.872837 154.98177 
L 209.241407 154.98177 
L 207.609977 154.98177 
L 205.978547 154.98177 
L 204.347117 154.98177 
L 202.715688 154.98177 
L 201.084258 154.98177 
L 199.452828 154.98177 
L 197.821398 154.98177 
L 196.189968 154.98177 
L 194.558538 154.98177 
L 192.927108 154.98177 
L 191.295678 154.98177 
L 189.664249 154.98177 
L 188.032819 154.98177 
L 186.401389 154.98177 
L 184.769959 154.98177 
L 183.138529 154.98177 
L 181.507099 154.98177 
L 179.875669 154.98177 
L 178.244239 154.98177 
L 176.61281 154.98177 
L 174.98138 154.98177 
L 173.34995 154.98177 
L 171.71852 154.98177 
L 170.08709 154.98177 
L 168.45566 154.98177 
L 166.82423 154.98177 
L 165.1928 154.98177 
L 163.56137 154.98177 
L 161.929941 154.98177 
L 160.298511 154.98177 
L 158.667081 154.98177 
L 157.035651 154.98177 
L 155.404221 154.98177 
L 153.772791 154.98177 
L 152.141361 154.98177 
L 150.509931 154.98177 
L 148.878502 154.98177 
L 147.247072 154.98177 
L 145.615642 154.98177 
L 143.984212 154.98177 
L 142.352782 154.98177 
L 140.721352 154.98177 
L 139.089922 154.98177 
L 137.458492 154.98177 
L 135.827063 154.98177 
L 134.195633 154.98177 
L 132.564203 154.98177 
L 130.932773 154.98177 
L 129.301343 154.98177 
L 127.669913 154.98177 
L 126.038483 154.98177 
L 124.407053 154.98177 
L 122.775624 154.98177 
L 121.144194 154.98177 
L 119.512764 154.98177 
L 117.881334 154.98177 
L 116.249904 154.98177 
L 114.618474 154.98177 
L 112.987044 154.98177 
L 111.355614 154.98177 
L 109.724185 154.98177 
L 108.092755 154.98177 
L 106.461325 154.98177 
L 104.829895 154.98177 
L 103.198465 154.98177 
L 101.567035 154.98177 
L 99.935605 154.98177 
L 98.304175 154.98177 
L 96.672746 154.98177 
L 95.041316 154.98177 
L 93.409886 154.98177 
L 91.778456 154.98177 
L 90.147026 154.98177 
L 88.515596 154.98177 
L 86.884166 154.98177 
L 85.252736 154.98177 
L 83.621307 154.98177 
L 81.989877 154.98177 
L 80.358447 154.98177 
L 78.727017 154.98177 
L 77.095587 154.98177 
L 75.464157 154.98177 
L 73.832727 154.98177 
z
" style="fill:#1f77b4;fill-opacity:0.2;"/>
   </g>
   <g id="PolyCollection_2">
    <path clip-path="url(#pc44ba91813)" d="M 73.832727 154.98177 
L 73.832727 154.98177 
L 75.464157 154.98177 
L 77.095587 154.98177 
L 78.727017 154.98177 
L 80.358447 154.98177 
L 81.989877 154.98177 
L 83.621307 154.98177 
L 85.252736 154.98177 
L 86.884166 154.98177 
L 88.515596 154.98177 
L 90.147026 154.98177 
L 91.778456 154.98177 
L 93.409886 154.98177 
L 95.041316 154.98177 
L 96.672746 154.98177 
L 98.304175 154.98177 
L 99.935605 154.98177 
L 101.567035 154.98177 
L 103.198465 154.98177 
L 104.829895 154.98177 
L 106.461325 154.98177 
L 108.092755 154.98177 
L 109.724185 154.98177 
L 111.355614 154.98177 
L 112.987044 154.98177 
L 114.618474 154.98177 
L 116.249904 154.98177 
L 117.881334 154.98177 
L 119.512764 154.98177 
L 121.144194 154.98177 
L 122.775624 154.98177 
L 124.407053 154.98177 
L 126.038483 154.98177 
L 127.669913 154.98177 
L 129.301343 154.98177 
L 130.932773 154.98177 
L 132.564203 154.98177 
L 134.195633 154.98177 
L 135.827063 154.98177 
L 137.458492 154.98177 
L 139.089922 154.98177 
L 140.721352 154.98177 
L 142.352782 154.98177 
L 143.984212 154.98177 
L 145.615642 154.98177 
L 147.247072 154.98177 
L 148.878502 154.98177 
L 150.509931 154.98177 
L 152.141361 154.98177 
L 153.772791 154.98177 
L 155.404221 154.98177 
L 157.035651 154.98177 
L 158.667081 154.98177 
L 160.298511 154.98177 
L 161.929941 154.98177 
L 163.56137 154.98177 
L 165.1928 154.98177 
L 166.82423 154.98177 
L 168.45566 154.98177 
L 170.08709 154.98177 
L 171.71852 154.98177 
L 173.34995 154.98177 
L 174.98138 154.98177 
L 176.61281 154.98177 
L 178.244239 154.98177 
L 179.875669 154.98177 
L 181.507099 154.98177 
L 183.138529 154.98177 
L 184.769959 154.98177 
L 186.401389 154.98177 
L 188.032819 154.98177 
L 189.664249 154.98177 
L 191.295678 154.98177 
L 192.927108 154.98177 
L 194.558538 154.98177 
L 196.189968 154.98177 
L 197.821398 154.98177 
L 199.452828 154.98177 
L 201.084258 154.98177 
L 202.715688 154.98177 
L 204.347117 154.98177 
L 205.978547 154.98177 
L 207.609977 154.98177 
L 209.241407 154.98177 
L 210.872837 154.98177 
L 212.504267 154.98177 
L 214.135697 154.98177 
L 215.767127 154.98177 
L 217.398556 286.989639 
L 219.029986 238.832262 
L 220.661416 276.791607 
L 222.292846 154.98177 
L 223.924276 154.98177 
L 225.555706 154.98177 
L 227.187136 154.98177 
L 228.818566 154.98177 
L 230.449995 154.98177 
L 232.081425 154.98177 
L 233.712855 154.98177 
L 235.344285 154.98177 
L 236.975715 154.98177 
L 238.607145 154.98177 
L 240.238575 154.98177 
L 241.870005 154.98177 
L 243.501434 154.98177 
L 245.132864 154.98177 
L 246.764294 154.98177 
L 248.395724 154.98177 
L 250.027154 154.98177 
L 251.658584 154.98177 
L 253.290014 154.98177 
L 254.921444 154.98177 
L 256.552873 154.98177 
L 258.184303 154.98177 
L 259.815733 154.98177 
L 261.447163 154.98177 
L 263.078593 154.98177 
L 264.710023 154.98177 
L 266.341453 154.98177 
L 267.972883 154.98177 
L 269.604312 154.98177 
L 271.235742 154.98177 
L 272.867172 154.98177 
L 274.498602 154.98177 
L 276.130032 154.98177 
L 277.761462 154.98177 
L 279.392892 154.98177 
L 281.024322 154.98177 
L 282.655751 154.98177 
L 284.287181 154.98177 
L 285.918611 154.98177 
L 287.550041 154.98177 
L 289.181471 154.98177 
L 290.812901 154.98177 
L 292.444331 154.98177 
L 294.075761 154.98177 
L 295.70719 154.98177 
L 297.33862 154.98177 
L 298.97005 154.98177 
L 300.60148 154.98177 
L 302.23291 154.98177 
L 303.86434 154.98177 
L 305.49577 154.98177 
L 307.1272 154.98177 
L 308.75863 154.98177 
L 310.390059 154.98177 
L 312.021489 154.98177 
L 313.652919 154.98177 
L 315.284349 154.98177 
L 316.915779 154.98177 
L 318.547209 154.98177 
L 320.178639 154.98177 
L 321.810069 154.98177 
L 323.441498 154.98177 
L 325.072928 154.98177 
L 326.704358 154.98177 
L 328.335788 154.98177 
L 329.967218 154.98177 
L 331.598648 154.98177 
L 333.230078 154.98177 
L 334.861508 154.98177 
L 336.492937 154.98177 
L 338.124367 154.98177 
L 339.755797 154.98177 
L 341.387227 154.98177 
L 343.018657 154.98177 
L 344.650087 154.98177 
L 346.281517 154.98177 
L 347.912947 154.98177 
L 349.544376 154.98177 
L 351.175806 154.98177 
L 352.807236 154.98177 
L 354.438666 154.98177 
L 356.070096 154.98177 
L 357.701526 154.98177 
L 359.332956 154.98177 
L 360.964386 154.98177 
L 362.595815 154.98177 
L 364.227245 154.98177 
L 365.858675 154.98177 
L 367.490105 154.98177 
L 369.121535 154.98177 
L 370.752965 154.98177 
L 372.384395 154.98177 
L 374.015825 154.98177 
L 375.647254 154.98177 
L 377.278684 154.98177 
L 378.910114 154.98177 
L 380.541544 154.98177 
L 382.172974 154.98177 
L 383.804404 154.98177 
L 385.435834 154.98177 
L 387.067264 295.488 
L 388.698693 263.19423 
L 390.330123 154.98177 
L 391.961553 157.248 
L 393.592983 185.009311 
L 395.224413 286.423082 
L 396.855843 250.729967 
L 398.487273 162.913574 
L 398.487273 113.056525 
L 398.487273 113.056525 
L 396.855843 126.896712 
L 395.224413 76.82518 
L 393.592983 72.264393 
L 391.961553 130.538867 
L 390.330123 118.722098 
L 388.698693 126.859922 
L 387.067264 125.655682 
L 385.435834 118.155541 
L 383.804404 73.397508 
L 382.172974 130.053246 
L 380.541544 152.148984 
L 378.910114 120.988328 
L 377.278684 143.650623 
L 375.647254 53.568 
L 374.015825 130.053246 
L 372.384395 146.48341 
L 370.752965 102.291934 
L 369.121535 118.722098 
L 367.490105 118.722098 
L 365.858675 120.988328 
L 364.227245 120.988328 
L 362.595815 120.988328 
L 360.964386 121.554885 
L 359.332956 66.032262 
L 357.701526 68.865049 
L 356.070096 113.623082 
L 354.438666 120.988328 
L 352.807236 113.623082 
L 351.175806 128.920131 
L 349.544376 112.489967 
L 347.912947 81.329311 
L 346.281517 115.322754 
L 344.650087 146.48341 
L 343.018657 107.957508 
L 341.387227 130.053246 
L 339.755797 146.48341 
L 338.124367 123.254557 
L 336.492937 78.496525 
L 334.861508 124.387672 
L 333.230078 116.455869 
L 331.598648 90.39423 
L 329.967218 110.790295 
L 328.335788 110.790295 
L 326.704358 81.329311 
L 325.072928 123.821115 
L 323.441498 76.230295 
L 321.810069 110.790295 
L 320.178639 126.087344 
L 318.547209 102.291934 
L 316.915779 106.824393 
L 315.284349 106.824393 
L 313.652919 96.626361 
L 312.021489 152.148984 
L 310.390059 121.554885 
L 308.75863 118.155541 
L 307.1272 149.316197 
L 305.49577 101.725377 
L 303.86434 126.087344 
L 302.23291 146.48341 
L 300.60148 101.725377 
L 298.97005 120.988328 
L 297.33862 77.36341 
L 295.70719 143.650623 
L 294.075761 121.554885 
L 292.444331 146.48341 
L 290.812901 98.89259 
L 289.181471 81.895869 
L 287.550041 103.425049 
L 285.918611 101.725377 
L 284.287181 149.316197 
L 282.655751 130.053246 
L 281.024322 124.387672 
L 279.392892 100.592262 
L 277.761462 124.95423 
L 276.130032 118.155541 
L 274.498602 124.95423 
L 272.867172 105.691279 
L 271.235742 143.650623 
L 269.604312 116.455869 
L 267.972883 112.489967 
L 266.341453 149.316197 
L 264.710023 130.053246 
L 263.078593 127.220459 
L 261.447163 69.998164 
L 259.815733 152.148984 
L 258.184303 90.960787 
L 256.552873 127.220459 
L 254.921444 93.227016 
L 253.290014 112.036721 
L 251.658584 130.053246 
L 250.027154 135.71882 
L 248.395724 122.121443 
L 246.764294 123.254557 
L 245.132864 106.824393 
L 243.501434 76.230295 
L 241.870005 120.988328 
L 240.238575 120.988328 
L 238.607145 94.360131 
L 236.975715 127.220459 
L 235.344285 143.650623 
L 233.712855 104.558164 
L 232.081425 130.053246 
L 230.449995 90.39423 
L 228.818566 98.89259 
L 227.187136 126.653902 
L 225.555706 110.790295 
L 223.924276 143.650623 
L 222.292846 115.657538 
L 220.661416 115.43067 
L 219.029986 114.161311 
L 217.398556 154.98177 
L 215.767127 154.98177 
L 214.135697 154.98177 
L 212.504267 154.98177 
L 210.872837 154.98177 
L 209.241407 154.98177 
L 207.609977 154.98177 
L 205.978547 154.98177 
L 204.347117 154.98177 
L 202.715688 154.98177 
L 201.084258 154.98177 
L 199.452828 154.98177 
L 197.821398 154.98177 
L 196.189968 154.98177 
L 194.558538 154.98177 
L 192.927108 154.98177 
L 191.295678 154.98177 
L 189.664249 154.98177 
L 188.032819 154.98177 
L 186.401389 154.98177 
L 184.769959 154.98177 
L 183.138529 154.98177 
L 181.507099 154.98177 
L 179.875669 154.98177 
L 178.244239 154.98177 
L 176.61281 154.98177 
L 174.98138 154.98177 
L 173.34995 154.98177 
L 171.71852 154.98177 
L 170.08709 154.98177 
L 168.45566 154.98177 
L 166.82423 154.98177 
L 165.1928 154.98177 
L 163.56137 154.98177 
L 161.929941 154.98177 
L 160.298511 154.98177 
L 158.667081 154.98177 
L 157.035651 154.98177 
L 155.404221 154.98177 
L 153.772791 154.98177 
L 152.141361 154.98177 
L 150.509931 154.98177 
L 148.878502 154.98177 
L 147.247072 154.98177 
L 145.615642 154.98177 
L 143.984212 154.98177 
L 142.352782 154.98177 
L 140.721352 154.98177 
L 139.089922 154.98177 
L 137.458492 154.98177 
L 135.827063 154.98177 
L 134.195633 154.98177 
L 132.564203 154.98177 
L 130.932773 154.98177 
L 129.301343 154.98177 
L 127.669913 154.98177 
L 126.038483 154.98177 
L 124.407053 154.98177 
L 122.775624 154.98177 
L 121.144194 154.98177 
L 119.512764 154.98177 
L 117.881334 154.98177 
L 116.249904 154.98177 
L 114.618474 154.98177 
L 112.987044 154.98177 
L 111.355614 154.98177 
L 109.724185 154.98177 
L 108.092755 154.98177 
L 106.461325 154.98177 
L 104.829895 154.98177 
L 103.198465 154.98177 
L 101.567035 154.98177 
L 99.935605 154.98177 
L 98.304175 154.98177 
L 96.672746 154.98177 
L 95.041316 154.98177 
L 93.409886 154.98177 
L 91.778456 154.98177 
L 90.147026 154.98177 
L 88.515596 154.98177 
L 86.884166 154.98177 
L 85.252736 154.98177 
L 83.621307 154.98177 
L 81.989877 154.98177 
L 80.358447 154.98177 
L 78.727017 154.98177 
L 77.095587 154.98177 
L 75.464157 154.98177 
L 73.832727 154.98177 
z
" style="fill:#1f77b4;fill-opacity:0.1;"/>
   </g>
   <g id="matplotlib.axis_1">
    <g id="xtick_1">
     <g id="line2d_1">
      <defs>
       <path d="M 0 0 
L 0 3.5 
" id="m5db4c423f5" style="stroke:#000000;stroke-width:0.8;"/>
      </defs>
      <g>
       <use style="stroke:#000000;stroke-width:0.8;" x="73.832727" xlink:href="#m5db4c423f5" y="307.584"/>
      </g>
     </g>
     <g id="text_1">
      <!-- 0 -->
      <defs>
       <path d="M 31.78125 66.40625 
Q 24.171875 66.40625 20.328125 58.90625 
Q 16.5 51.421875 16.5 36.375 
Q 16.5 21.390625 20.328125 13.890625 
Q 24.171875 6.390625 31.78125 6.390625 
Q 39.453125 6.390625 43.28125 13.890625 
Q 47.125 21.390625 47.125 36.375 
Q 47.125 51.421875 43.28125 58.90625 
Q 39.453125 66.40625 31.78125 66.40625 
z
M 31.78125 74.21875 
Q 44.046875 74.21875 50.515625 64.515625 
Q 56.984375 54.828125 56.984375 36.375 
Q 56.984375 17.96875 50.515625 8.265625 
Q 44.046875 -1.421875 31.78125 -1.421875 
Q 19.53125 -1.421875 13.0625 8.265625 
Q 6.59375 17.96875 6.59375 36.375 
Q 6.59375 54.828125 13.0625 64.515625 
Q 19.53125 74.21875 31.78125 74.21875 
z
" id="DejaVuSans-48"/>
      </defs>
      <g transform="translate(70.651477 322.182437)scale(0.1 -0.1)">
       <use xlink:href="#DejaVuSans-48"/>
      </g>
     </g>
    </g>
    <g id="xtick_2">
     <g id="line2d_2">
      <g>
       <use style="stroke:#000000;stroke-width:0.8;" x="114.618474" xlink:href="#m5db4c423f5" y="307.584"/>
      </g>
     </g>
     <g id="text_2">
      <!-- 25 -->
      <defs>
       <path d="M 19.1875 8.296875 
L 53.609375 8.296875 
L 53.609375 0 
L 7.328125 0 
L 7.328125 8.296875 
Q 12.9375 14.109375 22.625 23.890625 
Q 32.328125 33.6875 34.8125 36.53125 
Q 39.546875 41.84375 41.421875 45.53125 
Q 43.3125 49.21875 43.3125 52.78125 
Q 43.3125 58.59375 39.234375 62.25 
Q 35.15625 65.921875 28.609375 65.921875 
Q 23.96875 65.921875 18.8125 64.3125 
Q 13.671875 62.703125 7.8125 59.421875 
L 7.8125 69.390625 
Q 13.765625 71.78125 18.9375 73 
Q 24.125 74.21875 28.421875 74.21875 
Q 39.75 74.21875 46.484375 68.546875 
Q 53.21875 62.890625 53.21875 53.421875 
Q 53.21875 48.921875 51.53125 44.890625 
Q 49.859375 40.875 45.40625 35.40625 
Q 44.1875 33.984375 37.640625 27.21875 
Q 31.109375 20.453125 19.1875 8.296875 
z
" id="DejaVuSans-50"/>
       <path d="M 10.796875 72.90625 
L 49.515625 72.90625 
L 49.515625 64.59375 
L 19.828125 64.59375 
L 19.828125 46.734375 
Q 21.96875 47.46875 24.109375 47.828125 
Q 26.265625 48.1875 28.421875 48.1875 
Q 40.625 48.1875 47.75 41.5 
Q 54.890625 34.8125 54.890625 23.390625 
Q 54.890625 11.625 47.5625 5.09375 
Q 40.234375 -1.421875 26.90625 -1.421875 
Q 22.3125 -1.421875 17.546875 -0.640625 
Q 12.796875 0.140625 7.71875 1.703125 
L 7.71875 11.625 
Q 12.109375 9.234375 16.796875 8.0625 
Q 21.484375 6.890625 26.703125 6.890625 
Q 35.15625 6.890625 40.078125 11.328125 
Q 45.015625 15.765625 45.015625 23.390625 
Q 45.015625 31 40.078125 35.4375 
Q 35.15625 39.890625 26.703125 39.890625 
Q 22.75 39.890625 18.8125 39.015625 
Q 14.890625 38.140625 10.796875 36.28125 
z
" id="DejaVuSans-53"/>
      </defs>
      <g transform="translate(108.255974 322.182437)scale(0.1 -0.1)">
       <use xlink:href="#DejaVuSans-50"/>
       <use x="63.623047" xlink:href="#DejaVuSans-53"/>
      </g>
     </g>
    </g>
    <g id="xtick_3">
     <g id="line2d_3">
      <g>
       <use style="stroke:#000000;stroke-width:0.8;" x="155.404221" xlink:href="#m5db4c423f5" y="307.584"/>
      </g>
     </g>
     <g id="text_3">
      <!-- 50 -->
      <g transform="translate(149.041721 322.182437)scale(0.1 -0.1)">
       <use xlink:href="#DejaVuSans-53"/>
       <use x="63.623047" xlink:href="#DejaVuSans-48"/>
      </g>
     </g>
    </g>
    <g id="xtick_4">
     <g id="line2d_4">
      <g>
       <use style="stroke:#000000;stroke-width:0.8;" x="196.189968" xlink:href="#m5db4c423f5" y="307.584"/>
      </g>
     </g>
     <g id="text_4">
      <!-- 75 -->
      <defs>
       <path d="M 8.203125 72.90625 
L 55.078125 72.90625 
L 55.078125 68.703125 
L 28.609375 0 
L 18.3125 0 
L 43.21875 64.59375 
L 8.203125 64.59375 
z
" id="DejaVuSans-55"/>
      </defs>
      <g transform="translate(189.827468 322.182437)scale(0.1 -0.1)">
       <use xlink:href="#DejaVuSans-55"/>
       <use x="63.623047" xlink:href="#DejaVuSans-53"/>
      </g>
     </g>
    </g>
    <g id="xtick_5">
     <g id="line2d_5">
      <g>
       <use style="stroke:#000000;stroke-width:0.8;" x="236.975715" xlink:href="#m5db4c423f5" y="307.584"/>
      </g>
     </g>
     <g id="text_5">
      <!-- 100 -->
      <defs>
       <path d="M 12.40625 8.296875 
L 28.515625 8.296875 
L 28.515625 63.921875 
L 10.984375 60.40625 
L 10.984375 69.390625 
L 28.421875 72.90625 
L 38.28125 72.90625 
L 38.28125 8.296875 
L 54.390625 8.296875 
L 54.390625 0 
L 12.40625 0 
z
" id="DejaVuSans-49"/>
      </defs>
      <g transform="translate(227.431965 322.182437)scale(0.1 -0.1)">
       <use xlink:href="#DejaVuSans-49"/>
       <use x="63.623047" xlink:href="#DejaVuSans-48"/>
       <use x="127.246094" xlink:href="#DejaVuSans-48"/>
      </g>
     </g>
    </g>
    <g id="xtick_6">
     <g id="line2d_6">
      <g>
       <use style="stroke:#000000;stroke-width:0.8;" x="277.761462" xlink:href="#m5db4c423f5" y="307.584"/>
      </g>
     </g>
     <g id="text_6">
      <!-- 125 -->
      <g transform="translate(268.217712 322.182437)scale(0.1 -0.1)">
       <use xlink:href="#DejaVuSans-49"/>
       <use x="63.623047" xlink:href="#DejaVuSans-50"/>
       <use x="127.246094" xlink:href="#DejaVuSans-53"/>
      </g>
     </g>
    </g>
    <g id="xtick_7">
     <g id="line2d_7">
      <g>
       <use style="stroke:#000000;stroke-width:0.8;" x="318.547209" xlink:href="#m5db4c423f5" y="307.584"/>
      </g>
     </g>
     <g id="text_7">
      <!-- 150 -->
      <g transform="translate(309.003459 322.182437)scale(0.1 -0.1)">
       <use xlink:href="#DejaVuSans-49"/>
       <use x="63.623047" xlink:href="#DejaVuSans-53"/>
       <use x="127.246094" xlink:href="#DejaVuSans-48"/>
      </g>
     </g>
    </g>
    <g id="xtick_8">
     <g id="line2d_8">
      <g>
       <use style="stroke:#000000;stroke-width:0.8;" x="359.332956" xlink:href="#m5db4c423f5" y="307.584"/>
      </g>
     </g>
     <g id="text_8">
      <!-- 175 -->
      <g transform="translate(349.789206 322.182437)scale(0.1 -0.1)">
       <use xlink:href="#DejaVuSans-49"/>
       <use x="63.623047" xlink:href="#DejaVuSans-55"/>
       <use x="127.246094" xlink:href="#DejaVuSans-53"/>
      </g>
     </g>
    </g>
    <g id="xtick_9">
     <g id="line2d_9">
      <g>
       <use style="stroke:#000000;stroke-width:0.8;" x="400.118703" xlink:href="#m5db4c423f5" y="307.584"/>
      </g>
     </g>
     <g id="text_9">
      <!-- 200 -->
      <g transform="translate(390.574953 322.182437)scale(0.1 -0.1)">
       <use xlink:href="#DejaVuSans-50"/>
       <use x="63.623047" xlink:href="#DejaVuSans-48"/>
       <use x="127.246094" xlink:href="#DejaVuSans-48"/>
      </g>
     </g>
    </g>
   </g>
   <g id="matplotlib.axis_2">
    <g id="ytick_1">
     <g id="line2d_10">
      <defs>
       <path d="M 0 0 
L -3.5 0 
" id="m507fadc5f0" style="stroke:#000000;stroke-width:0.8;"/>
      </defs>
      <g>
       <use style="stroke:#000000;stroke-width:0.8;" x="57.6" xlink:href="#m507fadc5f0" y="268.293246"/>
      </g>
     </g>
     <g id="text_10">
      <!-- −0.4 -->
      <defs>
       <path d="M 10.59375 35.5 
L 73.1875 35.5 
L 73.1875 27.203125 
L 10.59375 27.203125 
z
" id="DejaVuSans-8722"/>
       <path d="M 10.6875 12.40625 
L 21 12.40625 
L 21 0 
L 10.6875 0 
z
" id="DejaVuSans-46"/>
       <path d="M 37.796875 64.3125 
L 12.890625 25.390625 
L 37.796875 25.390625 
z
M 35.203125 72.90625 
L 47.609375 72.90625 
L 47.609375 25.390625 
L 58.015625 25.390625 
L 58.015625 17.1875 
L 47.609375 17.1875 
L 47.609375 0 
L 37.796875 0 
L 37.796875 17.1875 
L 4.890625 17.1875 
L 4.890625 26.703125 
z
" id="DejaVuSans-52"/>
      </defs>
      <g transform="translate(26.317187 272.092465)scale(0.1 -0.1)">
       <use xlink:href="#DejaVuSans-8722"/>
       <use x="83.789062" xlink:href="#DejaVuSans-48"/>
       <use x="147.412109" xlink:href="#DejaVuSans-46"/>
       <use x="179.199219" xlink:href="#DejaVuSans-52"/>
      </g>
     </g>
    </g>
    <g id="ytick_2">
     <g id="line2d_11">
      <g>
       <use style="stroke:#000000;stroke-width:0.8;" x="57.6" xlink:href="#m507fadc5f0" y="211.637508"/>
      </g>
     </g>
     <g id="text_11">
      <!-- −0.2 -->
      <g transform="translate(26.317187 215.436727)scale(0.1 -0.1)">
       <use xlink:href="#DejaVuSans-8722"/>
       <use x="83.789062" xlink:href="#DejaVuSans-48"/>
       <use x="147.412109" xlink:href="#DejaVuSans-46"/>
       <use x="179.199219" xlink:href="#DejaVuSans-50"/>
      </g>
     </g>
    </g>
    <g id="ytick_3">
     <g id="line2d_12">
      <g>
       <use style="stroke:#000000;stroke-width:0.8;" x="57.6" xlink:href="#m507fadc5f0" y="154.98177"/>
      </g>
     </g>
     <g id="text_12">
      <!-- 0.0 -->
      <g transform="translate(34.696875 158.780989)scale(0.1 -0.1)">
       <use xlink:href="#DejaVuSans-48"/>
       <use x="63.623047" xlink:href="#DejaVuSans-46"/>
       <use x="95.410156" xlink:href="#DejaVuSans-48"/>
      </g>
     </g>
    </g>
    <g id="ytick_4">
     <g id="line2d_13">
      <g>
       <use style="stroke:#000000;stroke-width:0.8;" x="57.6" xlink:href="#m507fadc5f0" y="98.326033"/>
      </g>
     </g>
     <g id="text_13">
      <!-- 0.2 -->
      <g transform="translate(34.696875 102.125252)scale(0.1 -0.1)">
       <use xlink:href="#DejaVuSans-48"/>
       <use x="63.623047" xlink:href="#DejaVuSans-46"/>
       <use x="95.410156" xlink:href="#DejaVuSans-50"/>
      </g>
     </g>
    </g>
    <g id="ytick_5">
     <g id="line2d_14">
      <g>
       <use style="stroke:#000000;stroke-width:0.8;" x="57.6" xlink:href="#m507fadc5f0" y="41.670295"/>
      </g>
     </g>
     <g id="text_14">
      <!-- 0.4 -->
      <g transform="translate(34.696875 45.469514)scale(0.1 -0.1)">
       <use xlink:href="#DejaVuSans-48"/>
       <use x="63.623047" xlink:href="#DejaVuSans-46"/>
       <use x="95.410156" xlink:href="#DejaVuSans-52"/>
      </g>
     </g>
    </g>
   </g>
   <g id="line2d_15">
    <path clip-path="url(#pc44ba91813)" d="M 73.832727 154.98177 
L 393.592983 154.98177 
L 395.224413 131.402192 
L 396.855843 154.98177 
L 398.487273 154.98177 
L 398.487273 154.98177 
" style="fill:none;stroke:#1f77b4;stroke-linecap:square;stroke-width:0.25;"/>
   </g>
   <g id="line2d_16">
    <path clip-path="url(#pc44ba91813)" d="M 73.832727 154.98177 
L 215.767127 154.98177 
L 217.398556 156.301849 
L 219.029986 156.250576 
L 220.661416 157.475702 
L 222.292846 152.265643 
L 223.924276 154.103607 
L 225.555706 153.571043 
L 227.187136 153.282098 
L 228.818566 149.933744 
L 230.449995 151.752393 
L 232.081425 154.177259 
L 233.712855 150.647607 
L 235.344285 154.528525 
L 236.975715 154.426544 
L 238.607145 150.539961 
L 240.238575 151.304813 
L 241.870005 153.282098 
L 243.501434 148.891279 
L 245.132864 152.092328 
L 246.764294 153.712682 
L 248.395724 152.420931 
L 250.027154 154.403882 
L 251.658584 152.432262 
L 253.290014 153.358017 
L 254.921444 150.658938 
L 256.552873 153.871318 
L 258.184303 149.287869 
L 259.815733 154.925115 
L 261.447163 149.882754 
L 263.078593 154.063948 
L 264.710023 152.738203 
L 266.341453 154.698492 
L 267.972883 153.282098 
L 269.604312 152.670216 
L 271.235742 154.613508 
L 272.867172 151.531436 
L 274.498602 152.879843 
L 276.130032 153.180118 
L 277.761462 153.780669 
L 279.392892 151.214164 
L 281.024322 153.758007 
L 282.655751 152.545574 
L 284.287181 154.556852 
L 285.918611 154.449207 
L 287.550041 152.245298 
L 289.181471 153.520052 
L 290.812901 149.656131 
L 292.444331 154.641836 
L 294.075761 153.04981 
L 295.70719 154.18859 
L 297.33862 150.324669 
L 298.97005 153.69002 
L 300.60148 153.384079 
L 302.23291 154.471869 
L 303.86434 153.248105 
L 305.49577 151.82038 
L 307.1272 154.641836 
L 308.75863 152.942164 
L 310.390059 152.007344 
L 312.021489 154.811803 
L 313.652919 150.420984 
L 315.284349 151.265154 
L 316.915779 150.908223 
L 318.547209 153.112131 
L 320.178639 152.959161 
L 321.810069 152.330282 
L 323.441498 149.616472 
L 325.072928 151.548433 
L 326.704358 150.562623 
L 328.335788 152.330282 
L 329.967218 151.888367 
L 331.598648 147.877141 
L 333.230078 152.064 
L 334.861508 152.25663 
L 336.492937 151.304813 
L 338.124367 150.993207 
L 339.755797 154.471869 
L 341.387227 152.681548 
L 343.018657 151.576761 
L 344.650087 154.443541 
L 346.281517 151.072525 
L 349.544376 153.248105 
L 351.175806 151.933692 
L 352.807236 152.500249 
L 354.438666 151.922361 
L 356.070096 152.443593 
L 357.701526 148.874282 
L 359.332956 144.557115 
L 360.964386 151.378466 
L 362.595815 151.894033 
L 364.227245 152.664551 
L 365.858675 151.809049 
L 367.490105 151.531436 
L 369.121535 153.531384 
L 370.752965 152.347279 
L 372.384395 154.72682 
L 374.015825 153.622033 
L 375.647254 149.814767 
L 377.278684 154.301902 
L 378.910114 151.881569 
L 380.541544 154.840131 
L 382.172974 153.707016 
L 383.804404 145.939515 
L 385.435834 150.360362 
L 387.067264 158.196849 
L 388.698693 156.271976 
L 390.330123 148.831137 
L 391.961553 154.335086 
L 393.592983 145.344913 
L 395.224413 137.338082 
L 396.855843 154.03394 
L 398.487273 152.149571 
L 398.487273 152.149571 
" style="fill:none;stroke:#2ca02c;stroke-linecap:square;stroke-width:0.75;"/>
   </g>
   <g id="patch_3">
    <path d="M 57.6 307.584 
L 57.6 41.472 
" style="fill:none;stroke:#000000;stroke-linecap:square;stroke-linejoin:miter;stroke-width:0.8;"/>
   </g>
   <g id="patch_4">
    <path d="M 414.72 307.584 
L 414.72 41.472 
" style="fill:none;stroke:#000000;stroke-linecap:square;stroke-linejoin:miter;stroke-width:0.8;"/>
   </g>
   <g id="patch_5">
    <path d="M 57.6 307.584 
L 414.72 307.584 
" style="fill:none;stroke:#000000;stroke-linecap:square;stroke-linejoin:miter;stroke-width:0.8;"/>
   </g>
   <g id="patch_6">
    <path d="M 57.6 41.472 
L 414.72 41.472 
" style="fill:none;stroke:#000000;stroke-linecap:square;stroke-linejoin:miter;stroke-width:0.8;"/>
   </g>
   <g id="legend_1">
    <g id="patch_7">
     <path d="M 338.234063 78.82825 
L 407.72 78.82825 
Q 409.72 78.82825 409.72 76.82825 
L 409.72 48.472 
Q 409.72 46.472 407.72 46.472 
L 338.234063 46.472 
Q 336.234063 46.472 336.234063 48.472 
L 336.234063 76.82825 
Q 336.234063 78.82825 338.234063 78.82825 
z
" style="fill:#ffffff;opacity:0.8;stroke:#cccccc;stroke-linejoin:miter;"/>
    </g>
    <g id="line2d_17">
     <path d="M 340.234063 54.570437 
L 360.234063 54.570437 
" style="fill:none;stroke:#1f77b4;stroke-linecap:square;stroke-width:0.25;"/>
    </g>
    <g id="line2d_18"/>
    <g id="text_15">
     <!-- median -->
     <defs>
      <path d="M 52 44.1875 
Q 55.375 50.25 60.0625 53.125 
Q 64.75 56 71.09375 56 
Q 79.640625 56 84.28125 50.015625 
Q 88.921875 44.046875 88.921875 33.015625 
L 88.921875 0 
L 79.890625 0 
L 79.890625 32.71875 
Q 79.890625 40.578125 77.09375 44.375 
Q 74.3125 48.1875 68.609375 48.1875 
Q 61.625 48.1875 57.5625 43.546875 
Q 53.515625 38.921875 53.515625 30.90625 
L 53.515625 0 
L 44.484375 0 
L 44.484375 32.71875 
Q 44.484375 40.625 41.703125 44.40625 
Q 38.921875 48.1875 33.109375 48.1875 
Q 26.21875 48.1875 22.15625 43.53125 
Q 18.109375 38.875 18.109375 30.90625 
L 18.109375 0 
L 9.078125 0 
L 9.078125 54.6875 
L 18.109375 54.6875 
L 18.109375 46.1875 
Q 21.1875 51.21875 25.484375 53.609375 
Q 29.78125 56 35.6875 56 
Q 41.65625 56 45.828125 52.96875 
Q 50 49.953125 52 44.1875 
z
" id="DejaVuSans-109"/>
      <path d="M 56.203125 29.59375 
L 56.203125 25.203125 
L 14.890625 25.203125 
Q 15.484375 15.921875 20.484375 11.0625 
Q 25.484375 6.203125 34.421875 6.203125 
Q 39.59375 6.203125 44.453125 7.46875 
Q 49.3125 8.734375 54.109375 11.28125 
L 54.109375 2.78125 
Q 49.265625 0.734375 44.1875 -0.34375 
Q 39.109375 -1.421875 33.890625 -1.421875 
Q 20.796875 -1.421875 13.15625 6.1875 
Q 5.515625 13.8125 5.515625 26.8125 
Q 5.515625 40.234375 12.765625 48.109375 
Q 20.015625 56 32.328125 56 
Q 43.359375 56 49.78125 48.890625 
Q 56.203125 41.796875 56.203125 29.59375 
z
M 47.21875 32.234375 
Q 47.125 39.59375 43.09375 43.984375 
Q 39.0625 48.390625 32.421875 48.390625 
Q 24.90625 48.390625 20.390625 44.140625 
Q 15.875 39.890625 15.1875 32.171875 
z
" id="DejaVuSans-101"/>
      <path d="M 45.40625 46.390625 
L 45.40625 75.984375 
L 54.390625 75.984375 
L 54.390625 0 
L 45.40625 0 
L 45.40625 8.203125 
Q 42.578125 3.328125 38.25 0.953125 
Q 33.9375 -1.421875 27.875 -1.421875 
Q 17.96875 -1.421875 11.734375 6.484375 
Q 5.515625 14.40625 5.515625 27.296875 
Q 5.515625 40.1875 11.734375 48.09375 
Q 17.96875 56 27.875 56 
Q 33.9375 56 38.25 53.625 
Q 42.578125 51.265625 45.40625 46.390625 
z
M 14.796875 27.296875 
Q 14.796875 17.390625 18.875 11.75 
Q 22.953125 6.109375 30.078125 6.109375 
Q 37.203125 6.109375 41.296875 11.75 
Q 45.40625 17.390625 45.40625 27.296875 
Q 45.40625 37.203125 41.296875 42.84375 
Q 37.203125 48.484375 30.078125 48.484375 
Q 22.953125 48.484375 18.875 42.84375 
Q 14.796875 37.203125 14.796875 27.296875 
z
" id="DejaVuSans-100"/>
      <path d="M 9.421875 54.6875 
L 18.40625 54.6875 
L 18.40625 0 
L 9.421875 0 
z
M 9.421875 75.984375 
L 18.40625 75.984375 
L 18.40625 64.59375 
L 9.421875 64.59375 
z
" id="DejaVuSans-105"/>
      <path d="M 34.28125 27.484375 
Q 23.390625 27.484375 19.1875 25 
Q 14.984375 22.515625 14.984375 16.5 
Q 14.984375 11.71875 18.140625 8.90625 
Q 21.296875 6.109375 26.703125 6.109375 
Q 34.1875 6.109375 38.703125 11.40625 
Q 43.21875 16.703125 43.21875 25.484375 
L 43.21875 27.484375 
z
M 52.203125 31.203125 
L 52.203125 0 
L 43.21875 0 
L 43.21875 8.296875 
Q 40.140625 3.328125 35.546875 0.953125 
Q 30.953125 -1.421875 24.3125 -1.421875 
Q 15.921875 -1.421875 10.953125 3.296875 
Q 6 8.015625 6 15.921875 
Q 6 25.140625 12.171875 29.828125 
Q 18.359375 34.515625 30.609375 34.515625 
L 43.21875 34.515625 
L 43.21875 35.40625 
Q 43.21875 41.609375 39.140625 45 
Q 35.0625 48.390625 27.6875 48.390625 
Q 23 48.390625 18.546875 47.265625 
Q 14.109375 46.140625 10.015625 43.890625 
L 10.015625 52.203125 
Q 14.9375 54.109375 19.578125 55.046875 
Q 24.21875 56 28.609375 56 
Q 40.484375 56 46.34375 49.84375 
Q 52.203125 43.703125 52.203125 31.203125 
z
" id="DejaVuSans-97"/>
      <path d="M 54.890625 33.015625 
L 54.890625 0 
L 45.90625 0 
L 45.90625 32.71875 
Q 45.90625 40.484375 42.875 44.328125 
Q 39.84375 48.1875 33.796875 48.1875 
Q 26.515625 48.1875 22.3125 43.546875 
Q 18.109375 38.921875 18.109375 30.90625 
L 18.109375 0 
L 9.078125 0 
L 9.078125 54.6875 
L 18.109375 54.6875 
L 18.109375 46.1875 
Q 21.34375 51.125 25.703125 53.5625 
Q 30.078125 56 35.796875 56 
Q 45.21875 56 50.046875 50.171875 
Q 54.890625 44.34375 54.890625 33.015625 
z
" id="DejaVuSans-110"/>
     </defs>
     <g transform="translate(368.234063 58.070437)scale(0.1 -0.1)">
      <use xlink:href="#DejaVuSans-109"/>
      <use x="97.412109" xlink:href="#DejaVuSans-101"/>
      <use x="158.935547" xlink:href="#DejaVuSans-100"/>
      <use x="222.412109" xlink:href="#DejaVuSans-105"/>
      <use x="250.195312" xlink:href="#DejaVuSans-97"/>
      <use x="311.474609" xlink:href="#DejaVuSans-110"/>
     </g>
    </g>
    <g id="line2d_19">
     <path d="M 340.234063 69.248562 
L 360.234063 69.248562 
" style="fill:none;stroke:#2ca02c;stroke-linecap:square;stroke-width:0.75;"/>
    </g>
    <g id="line2d_20"/>
    <g id="text_16">
     <!-- mean -->
     <g transform="translate(368.234063 72.748562)scale(0.1 -0.1)">
      <use xlink:href="#DejaVuSans-109"/>
      <use x="97.412109" xlink:href="#DejaVuSans-101"/>
      <use x="158.935547" xlink:href="#DejaVuSans-97"/>
      <use x="220.214844" xlink:href="#DejaVuSans-110"/>
     </g>
    </g>
   </g>
  </g>
  <g id="text_17">
   <!-- kappa.mean over generations -->
   <defs>
    <path d="M 9.078125 75.984375 
L 18.109375 75.984375 
L 18.109375 31.109375 
L 44.921875 54.6875 
L 56.390625 54.6875 
L 27.390625 29.109375 
L 57.625 0 
L 45.90625 0 
L 18.109375 26.703125 
L 18.109375 0 
L 9.078125 0 
z
" id="DejaVuSans-107"/>
    <path d="M 18.109375 8.203125 
L 18.109375 -20.796875 
L 9.078125 -20.796875 
L 9.078125 54.6875 
L 18.109375 54.6875 
L 18.109375 46.390625 
Q 20.953125 51.265625 25.265625 53.625 
Q 29.59375 56 35.59375 56 
Q 45.5625 56 51.78125 48.09375 
Q 58.015625 40.1875 58.015625 27.296875 
Q 58.015625 14.40625 51.78125 6.484375 
Q 45.5625 -1.421875 35.59375 -1.421875 
Q 29.59375 -1.421875 25.265625 0.953125 
Q 20.953125 3.328125 18.109375 8.203125 
z
M 48.6875 27.296875 
Q 48.6875 37.203125 44.609375 42.84375 
Q 40.53125 48.484375 33.40625 48.484375 
Q 26.265625 48.484375 22.1875 42.84375 
Q 18.109375 37.203125 18.109375 27.296875 
Q 18.109375 17.390625 22.1875 11.75 
Q 26.265625 6.109375 33.40625 6.109375 
Q 40.53125 6.109375 44.609375 11.75 
Q 48.6875 17.390625 48.6875 27.296875 
z
" id="DejaVuSans-112"/>
    <path id="DejaVuSans-32"/>
    <path d="M 30.609375 48.390625 
Q 23.390625 48.390625 19.1875 42.75 
Q 14.984375 37.109375 14.984375 27.296875 
Q 14.984375 17.484375 19.15625 11.84375 
Q 23.34375 6.203125 30.609375 6.203125 
Q 37.796875 6.203125 41.984375 11.859375 
Q 46.1875 17.53125 46.1875 27.296875 
Q 46.1875 37.015625 41.984375 42.703125 
Q 37.796875 48.390625 30.609375 48.390625 
z
M 30.609375 56 
Q 42.328125 56 49.015625 48.375 
Q 55.71875 40.765625 55.71875 27.296875 
Q 55.71875 13.875 49.015625 6.21875 
Q 42.328125 -1.421875 30.609375 -1.421875 
Q 18.84375 -1.421875 12.171875 6.21875 
Q 5.515625 13.875 5.515625 27.296875 
Q 5.515625 40.765625 12.171875 48.375 
Q 18.84375 56 30.609375 56 
z
" id="DejaVuSans-111"/>
    <path d="M 2.984375 54.6875 
L 12.5 54.6875 
L 29.59375 8.796875 
L 46.6875 54.6875 
L 56.203125 54.6875 
L 35.6875 0 
L 23.484375 0 
z
" id="DejaVuSans-118"/>
    <path d="M 41.109375 46.296875 
Q 39.59375 47.171875 37.8125 47.578125 
Q 36.03125 48 33.890625 48 
Q 26.265625 48 22.1875 43.046875 
Q 18.109375 38.09375 18.109375 28.8125 
L 18.109375 0 
L 9.078125 0 
L 9.078125 54.6875 
L 18.109375 54.6875 
L 18.109375 46.1875 
Q 20.953125 51.171875 25.484375 53.578125 
Q 30.03125 56 36.53125 56 
Q 37.453125 56 38.578125 55.875 
Q 39.703125 55.765625 41.0625 55.515625 
z
" id="DejaVuSans-114"/>
    <path d="M 45.40625 27.984375 
Q 45.40625 37.75 41.375 43.109375 
Q 37.359375 48.484375 30.078125 48.484375 
Q 22.859375 48.484375 18.828125 43.109375 
Q 14.796875 37.75 14.796875 27.984375 
Q 14.796875 18.265625 18.828125 12.890625 
Q 22.859375 7.515625 30.078125 7.515625 
Q 37.359375 7.515625 41.375 12.890625 
Q 45.40625 18.265625 45.40625 27.984375 
z
M 54.390625 6.78125 
Q 54.390625 -7.171875 48.1875 -13.984375 
Q 42 -20.796875 29.203125 -20.796875 
Q 24.46875 -20.796875 20.265625 -20.09375 
Q 16.0625 -19.390625 12.109375 -17.921875 
L 12.109375 -9.1875 
Q 16.0625 -11.328125 19.921875 -12.34375 
Q 23.78125 -13.375 27.78125 -13.375 
Q 36.625 -13.375 41.015625 -8.765625 
Q 45.40625 -4.15625 45.40625 5.171875 
L 45.40625 9.625 
Q 42.625 4.78125 38.28125 2.390625 
Q 33.9375 0 27.875 0 
Q 17.828125 0 11.671875 7.65625 
Q 5.515625 15.328125 5.515625 27.984375 
Q 5.515625 40.671875 11.671875 48.328125 
Q 17.828125 56 27.875 56 
Q 33.9375 56 38.28125 53.609375 
Q 42.625 51.21875 45.40625 46.390625 
L 45.40625 54.6875 
L 54.390625 54.6875 
z
" id="DejaVuSans-103"/>
    <path d="M 18.3125 70.21875 
L 18.3125 54.6875 
L 36.8125 54.6875 
L 36.8125 47.703125 
L 18.3125 47.703125 
L 18.3125 18.015625 
Q 18.3125 11.328125 20.140625 9.421875 
Q 21.96875 7.515625 27.59375 7.515625 
L 36.8125 7.515625 
L 36.8125 0 
L 27.59375 0 
Q 17.1875 0 13.234375 3.875 
Q 9.28125 7.765625 9.28125 18.015625 
L 9.28125 47.703125 
L 2.6875 47.703125 
L 2.6875 54.6875 
L 9.28125 54.6875 
L 9.28125 70.21875 
z
" id="DejaVuSans-116"/>
    <path d="M 44.28125 53.078125 
L 44.28125 44.578125 
Q 40.484375 46.53125 36.375 47.5 
Q 32.28125 48.484375 27.875 48.484375 
Q 21.1875 48.484375 17.84375 46.4375 
Q 14.5 44.390625 14.5 40.28125 
Q 14.5 37.15625 16.890625 35.375 
Q 19.28125 33.59375 26.515625 31.984375 
L 29.59375 31.296875 
Q 39.15625 29.25 43.1875 25.515625 
Q 47.21875 21.78125 47.21875 15.09375 
Q 47.21875 7.46875 41.1875 3.015625 
Q 35.15625 -1.421875 24.609375 -1.421875 
Q 20.21875 -1.421875 15.453125 -0.5625 
Q 10.6875 0.296875 5.421875 2 
L 5.421875 11.28125 
Q 10.40625 8.6875 15.234375 7.390625 
Q 20.0625 6.109375 24.8125 6.109375 
Q 31.15625 6.109375 34.5625 8.28125 
Q 37.984375 10.453125 37.984375 14.40625 
Q 37.984375 18.0625 35.515625 20.015625 
Q 33.0625 21.96875 24.703125 23.78125 
L 21.578125 24.515625 
Q 13.234375 26.265625 9.515625 29.90625 
Q 5.8125 33.546875 5.8125 39.890625 
Q 5.8125 47.609375 11.28125 51.796875 
Q 16.75 56 26.8125 56 
Q 31.78125 56 36.171875 55.265625 
Q 40.578125 54.546875 44.28125 53.078125 
z
" id="DejaVuSans-115"/>
   </defs>
   <g transform="translate(140.184375 16.030125)scale(0.12 -0.12)">
    <use xlink:href="#DejaVuSans-107"/>
    <use x="56.160156" xlink:href="#DejaVuSans-97"/>
    <use x="117.439453" xlink:href="#DejaVuSans-112"/>
    <use x="180.916016" xlink:href="#DejaVuSans-112"/>
    <use x="244.392578" xlink:href="#DejaVuSans-97"/>
    <use x="305.671875" xlink:href="#DejaVuSans-46"/>
    <use x="337.458984" xlink:href="#DejaVuSans-109"/>
    <use x="434.871094" xlink:href="#DejaVuSans-101"/>
    <use x="496.394531" xlink:href="#DejaVuSans-97"/>
    <use x="557.673828" xlink:href="#DejaVuSans-110"/>
    <use x="621.052734" xlink:href="#DejaVuSans-32"/>
    <use x="652.839844" xlink:href="#DejaVuSans-111"/>
    <use x="714.021484" xlink:href="#DejaVuSans-118"/>
    <use x="773.201172" xlink:href="#DejaVuSans-101"/>
    <use x="834.724609" xlink:href="#DejaVuSans-114"/>
    <use x="875.837891" xlink:href="#DejaVuSans-32"/>
    <use x="907.625" xlink:href="#DejaVuSans-103"/>
    <use x="971.101562" xlink:href="#DejaVuSans-101"/>
    <use x="1032.625" xlink:href="#DejaVuSans-110"/>
    <use x="1096.003906" xlink:href="#DejaVuSans-101"/>
    <use x="1157.527344" xlink:href="#DejaVuSans-114"/>
    <use x="1198.640625" xlink:href="#DejaVuSans-97"/>
    <use x="1259.919922" xlink:href="#DejaVuSans-116"/>
    <use x="1299.128906" xlink:href="#DejaVuSans-105"/>
    <use x="1326.912109" xlink:href="#DejaVuSans-111"/>
    <use x="1388.09375" xlink:href="#DejaVuSans-110"/>
    <use x="1451.472656" xlink:href="#DejaVuSans-115"/>
   </g>
  </g>
 </g>
 <defs>
  <clipPath id="pc44ba91813">
   <rect height="266.112" width="357.12" x="57.6" y="41.472"/>
  </clipPath>
 </defs>
</svg>
