<?xml version="1.0" encoding="utf-8" standalone="no"?>
<!DOCTYPE svg PUBLIC "-//W3C//DTD SVG 1.1//EN"
  "http://www.w3.org/Graphics/SVG/1.1/DTD/svg11.dtd">
<!-- Created with matplotlib (https://matplotlib.org/) -->
<svg height="345.6pt" version="1.1" viewBox="0 0 460.8 345.6" width="460.8pt" xmlns="http://www.w3.org/2000/svg" xmlns:xlink="http://www.w3.org/1999/xlink">
 <defs>
  <style type="text/css">
*{stroke-linecap:butt;stroke-linejoin:round;}
  </style>
 </defs>
 <g id="figure_1">
  <g id="patch_1">
   <path d="M 0 345.6 
L 460.8 345.6 
L 460.8 0 
L 0 0 
z
" style="fill:#ffffff;"/>
  </g>
  <g id="axes_1">
   <g id="patch_2">
    <path clip-path="url(#p6c4dfeab09)" d="M 88.589752 114.048 
Q 142.376581 143.439899 196.16341 172.831799 
" style="fill:none;stroke:#000000;stroke-linecap:round;stroke-opacity:0.9;stroke-width:0.4;"/>
   </g>
   <g id="patch_3">
    <path clip-path="url(#p6c4dfeab09)" d="M 88.589752 174.528 
Q 106.314912 134.857894 124.040072 95.187789 
" style="fill:none;stroke:#000000;stroke-linecap:round;stroke-opacity:0.9;stroke-width:0.4;"/>
   </g>
   <g id="patch_4">
    <path clip-path="url(#p6c4dfeab09)" d="M 88.589752 174.528 
Q 105.268415 174.528 121.947077 174.528 
" style="fill:none;stroke:#000000;stroke-linecap:round;stroke-opacity:0.9;stroke-width:0.4;"/>
   </g>
   <g id="patch_5">
    <path clip-path="url(#p6c4dfeab09)" d="M 88.589752 174.528 
Q 179.052131 174.528 269.51451 174.528 
" style="fill:none;stroke:#000000;stroke-linecap:round;stroke-opacity:0.9;stroke-width:0.4;"/>
   </g>
   <g id="patch_6">
    <path clip-path="url(#p6c4dfeab09)" d="M 88.589752 174.528 
Q 215.946382 174.528 343.303012 174.528 
" style="fill:none;stroke:#000000;stroke-linecap:round;stroke-opacity:0.9;stroke-width:0.4;"/>
   </g>
   <g id="patch_7">
    <path clip-path="url(#p6c4dfeab09)" d="M 88.589752 174.528 
Q 234.45543 133.720845 380.321109 92.91369 
" style="fill:none;stroke:#000000;stroke-linecap:round;stroke-opacity:0.9;stroke-width:0.4;"/>
   </g>
   <g id="patch_8">
    <path clip-path="url(#p6c4dfeab09)" d="M 88.589752 235.008 
Q 105.519484 245.144045 122.449216 255.280091 
" style="fill:none;stroke:#000000;stroke-linecap:round;stroke-opacity:0.9;stroke-width:0.4;"/>
   </g>
   <g id="patch_9">
    <path clip-path="url(#p6c4dfeab09)" d="M 88.589752 235.008 
Q 179.142201 205.318481 269.69465 175.628962 
" style="fill:none;stroke:#000000;stroke-linecap:round;stroke-opacity:0.9;stroke-width:0.4;"/>
   </g>
   <g id="patch_10">
    <path clip-path="url(#p6c4dfeab09)" d="M 88.589752 235.008 
Q 197.563431 205.233579 306.537111 175.459157 
" style="fill:none;stroke:#000000;stroke-linecap:round;stroke-opacity:0.9;stroke-width:0.4;"/>
   </g>
   <g id="patch_11">
    <path clip-path="url(#p6c4dfeab09)" d="M 88.589752 235.008 
Q 234.569143 164.25503 380.548535 93.50206 
" style="fill:none;stroke:#000000;stroke-linecap:round;stroke-opacity:0.9;stroke-width:0.4;"/>
   </g>
   <g id="patch_12">
    <path clip-path="url(#p6c4dfeab09)" d="M 88.589752 235.008 
Q 234.396885 245.920073 380.204018 256.832145 
" style="fill:none;stroke:#000000;stroke-linecap:round;stroke-opacity:0.9;stroke-width:0.4;"/>
   </g>
   <g id="patch_13">
    <path clip-path="url(#p6c4dfeab09)" d="M 125.482314 91.959955 
Q 161.196088 131.924874 196.909863 171.889794 
" style="fill:none;stroke:#000000;stroke-linecap:round;stroke-opacity:0.9;stroke-width:0.4;"/>
   </g>
   <g id="patch_14">
    <path clip-path="url(#p6c4dfeab09)" d="M 125.482314 91.959955 
Q 197.723868 132.380324 269.965422 172.800693 
" style="fill:none;stroke:#000000;stroke-linecap:round;stroke-opacity:0.9;stroke-width:0.4;"/>
   </g>
   <g id="patch_15">
    <path clip-path="url(#p6c4dfeab09)" d="M 125.482314 174.528 
Q 142.160977 174.528 158.839639 174.528 
" style="fill:none;stroke:#000000;stroke-linecap:round;stroke-opacity:0.9;stroke-width:0.4;"/>
   </g>
   <g id="patch_16">
    <path clip-path="url(#p6c4dfeab09)" d="M 125.482314 257.096045 
Q 252.921696 216.350625 380.361077 175.605205 
" style="fill:none;stroke:#000000;stroke-linecap:round;stroke-opacity:0.9;stroke-width:0.4;"/>
   </g>
   <g id="patch_17">
    <path clip-path="url(#p6c4dfeab09)" d="M 162.374876 174.528 
Q 179.053539 174.528 195.732201 174.528 
" style="fill:none;stroke:#000000;stroke-linecap:round;stroke-opacity:0.9;stroke-width:0.4;"/>
   </g>
   <g id="patch_18">
    <path clip-path="url(#p6c4dfeab09)" d="M 199.267438 174.528 
Q 215.946101 174.528 232.624763 174.528 
" style="fill:none;stroke:#000000;stroke-linecap:round;stroke-opacity:0.9;stroke-width:0.4;"/>
   </g>
   <g id="patch_19">
    <path clip-path="url(#p6c4dfeab09)" d="M 236.16 174.528 
Q 252.838663 174.528 269.517325 174.528 
" style="fill:none;stroke:#000000;stroke-linecap:round;stroke-opacity:0.9;stroke-width:0.4;"/>
   </g>
   <g id="patch_20">
    <path clip-path="url(#p6c4dfeab09)" d="M 236.16 174.528 
Q 308.177505 174.528 380.195011 174.528 
" style="fill:none;stroke:#000000;stroke-linecap:round;stroke-opacity:0.9;stroke-width:0.4;"/>
   </g>
   <g id="patch_21">
    <path clip-path="url(#p6c4dfeab09)" d="M 236.16 174.528 
Q 308.401554 214.948369 380.643108 255.368738 
" style="fill:none;stroke:#000000;stroke-linecap:round;stroke-opacity:0.9;stroke-width:0.4;"/>
   </g>
   <g id="patch_22">
    <path clip-path="url(#p6c4dfeab09)" d="M 273.052562 174.528 
Q 289.731224 174.528 306.409887 174.528 
" style="fill:none;stroke:#000000;stroke-linecap:round;stroke-opacity:0.9;stroke-width:0.4;"/>
   </g>
   <g id="patch_23">
    <path clip-path="url(#p6c4dfeab09)" d="M 273.052562 174.528 
Q 326.623224 174.528 380.193885 174.528 
" style="fill:none;stroke:#000000;stroke-linecap:round;stroke-opacity:0.9;stroke-width:0.4;"/>
   </g>
   <g id="patch_24">
    <path clip-path="url(#p6c4dfeab09)" d="M 309.945124 174.528 
Q 326.623786 174.528 343.302449 174.528 
" style="fill:none;stroke:#000000;stroke-linecap:round;stroke-opacity:0.9;stroke-width:0.4;"/>
   </g>
   <g id="patch_25">
    <path clip-path="url(#p6c4dfeab09)" d="M 309.945124 174.528 
Q 345.658898 134.56308 381.372673 94.598161 
" style="fill:none;stroke:#000000;stroke-linecap:round;stroke-opacity:0.9;stroke-width:0.4;"/>
   </g>
   <g id="patch_26">
    <path clip-path="url(#p6c4dfeab09)" d="M 309.945124 174.528 
Q 345.070067 174.528 380.195011 174.528 
" style="fill:none;stroke:#000000;stroke-linecap:round;stroke-opacity:0.9;stroke-width:0.4;"/>
   </g>
   <g id="patch_27">
    <path clip-path="url(#p6c4dfeab09)" d="M 346.837686 174.528 
Q 363.516348 174.528 380.195011 174.528 
" style="fill:none;stroke:#000000;stroke-linecap:round;stroke-opacity:0.9;stroke-width:0.4;"/>
   </g>
   <g id="PathCollection_1">
    <defs>
     <path d="M 0 3.535534 
C 0.937635 3.535534 1.836992 3.163008 2.5 2.5 
C 3.163008 1.836992 3.535534 0.937635 3.535534 0 
C 3.535534 -0.937635 3.163008 -1.836992 2.5 -2.5 
C 1.836992 -3.163008 0.937635 -3.535534 0 -3.535534 
C -0.937635 -3.535534 -1.836992 -3.163008 -2.5 -2.5 
C -3.163008 -1.836992 -3.535534 -0.937635 -3.535534 0 
C -3.535534 0.937635 -3.163008 1.836992 -2.5 2.5 
C -1.836992 3.163008 -0.937635 3.535534 0 3.535534 
z
" id="C0_0_2a16b689fc"/>
    </defs>
    <g clip-path="url(#p6c4dfeab09)">
     <use style="fill:#fdb462;fill-opacity:0.9;" x="88.589752" xlink:href="#C0_0_2a16b689fc" y="53.568"/>
    </g>
    <g clip-path="url(#p6c4dfeab09)">
     <use style="fill:#fdb462;fill-opacity:0.9;" x="88.589752" xlink:href="#C0_0_2a16b689fc" y="114.048"/>
    </g>
    <g clip-path="url(#p6c4dfeab09)">
     <use style="fill:#fdb462;fill-opacity:0.9;" x="88.589752" xlink:href="#C0_0_2a16b689fc" y="174.528"/>
    </g>
    <g clip-path="url(#p6c4dfeab09)">
     <use style="fill:#fdb462;fill-opacity:0.9;" x="88.589752" xlink:href="#C0_0_2a16b689fc" y="235.008"/>
    </g>
    <g clip-path="url(#p6c4dfeab09)">
     <use style="fill:#ffed6f;fill-opacity:0.9;" x="88.589752" xlink:href="#C0_0_2a16b689fc" y="295.488"/>
    </g>
    <g clip-path="url(#p6c4dfeab09)">
     <use style="fill:#80b1d3;fill-opacity:0.9;" x="125.482314" xlink:href="#C0_0_2a16b689fc" y="91.959955"/>
    </g>
    <g clip-path="url(#p6c4dfeab09)">
     <use style="fill:#80b1d3;fill-opacity:0.9;" x="125.482314" xlink:href="#C0_0_2a16b689fc" y="174.528"/>
    </g>
    <g clip-path="url(#p6c4dfeab09)">
     <use style="fill:#80b1d3;fill-opacity:0.9;" x="125.482314" xlink:href="#C0_0_2a16b689fc" y="257.096045"/>
    </g>
    <g clip-path="url(#p6c4dfeab09)">
     <use style="fill:#80b1d3;fill-opacity:0.9;" x="162.374876" xlink:href="#C0_0_2a16b689fc" y="174.528"/>
    </g>
    <g clip-path="url(#p6c4dfeab09)">
     <use style="fill:#80b1d3;fill-opacity:0.9;" x="199.267438" xlink:href="#C0_0_2a16b689fc" y="174.528"/>
    </g>
    <g clip-path="url(#p6c4dfeab09)">
     <use style="fill:#80b1d3;fill-opacity:0.9;" x="236.16" xlink:href="#C0_0_2a16b689fc" y="174.528"/>
    </g>
    <g clip-path="url(#p6c4dfeab09)">
     <use style="fill:#80b1d3;fill-opacity:0.9;" x="273.052562" xlink:href="#C0_0_2a16b689fc" y="174.528"/>
    </g>
    <g clip-path="url(#p6c4dfeab09)">
     <use style="fill:#80b1d3;fill-opacity:0.9;" x="309.945124" xlink:href="#C0_0_2a16b689fc" y="174.528"/>
    </g>
    <g clip-path="url(#p6c4dfeab09)">
     <use style="fill:#80b1d3;fill-opacity:0.9;" x="346.837686" xlink:href="#C0_0_2a16b689fc" y="174.528"/>
    </g>
    <g clip-path="url(#p6c4dfeab09)">
     <use style="fill:#b3de69;fill-opacity:0.9;" x="383.730248" xlink:href="#C0_0_2a16b689fc" y="91.959955"/>
    </g>
    <g clip-path="url(#p6c4dfeab09)">
     <use style="fill:#b3de69;fill-opacity:0.9;" x="383.730248" xlink:href="#C0_0_2a16b689fc" y="174.528"/>
    </g>
    <g clip-path="url(#p6c4dfeab09)">
     <use style="fill:#b3de69;fill-opacity:0.9;" x="383.730248" xlink:href="#C0_0_2a16b689fc" y="257.096045"/>
    </g>
   </g>
  </g>
 </g>
 <defs>
  <clipPath id="p6c4dfeab09">
   <rect height="266.112" width="357.12" x="57.6" y="41.472"/>
  </clipPath>
 </defs>
</svg>
