<?xml version="1.0" encoding="utf-8" standalone="no"?>
<!DOCTYPE svg PUBLIC "-//W3C//DTD SVG 1.1//EN"
  "http://www.w3.org/Graphics/SVG/1.1/DTD/svg11.dtd">
<!-- Created with matplotlib (https://matplotlib.org/) -->
<svg height="345.6pt" version="1.1" viewBox="0 0 460.8 345.6" width="460.8pt" xmlns="http://www.w3.org/2000/svg" xmlns:xlink="http://www.w3.org/1999/xlink">
 <defs>
  <style type="text/css">
*{stroke-linecap:butt;stroke-linejoin:round;}
  </style>
 </defs>
 <g id="figure_1">
  <g id="patch_1">
   <path d="M 0 345.6 
L 460.8 345.6 
L 460.8 0 
L 0 0 
z
" style="fill:#ffffff;"/>
  </g>
  <g id="axes_1">
   <g id="patch_2">
    <path d="M 57.6 307.584 
L 414.72 307.584 
L 414.72 41.472 
L 57.6 41.472 
z
" style="fill:#ffffff;"/>
   </g>
   <g id="PolyCollection_1">
    <path clip-path="url(#p3221eaa6d3)" d="M 73.832727 282.054992 
L 73.832727 283.303893 
L 75.464157 283.303893 
L 77.095587 283.303893 
L 78.727017 283.303893 
L 80.358447 283.303893 
L 81.989877 283.303893 
L 83.621307 283.303893 
L 85.252736 283.303893 
L 86.884166 283.303893 
L 88.515596 283.303893 
L 90.147026 283.303893 
L 91.778456 283.303893 
L 93.409886 283.303893 
L 95.041316 283.303893 
L 96.672746 283.303893 
L 98.304175 283.303893 
L 99.935605 283.303893 
L 101.567035 283.303893 
L 103.198465 283.303893 
L 104.829895 283.303893 
L 106.461325 283.303893 
L 108.092755 283.303893 
L 109.724185 283.303893 
L 111.355614 283.303893 
L 112.987044 283.303893 
L 114.618474 283.303893 
L 116.249904 283.303893 
L 117.881334 283.303893 
L 119.512764 283.303893 
L 121.144194 283.303893 
L 122.775624 283.303893 
L 124.407053 283.303893 
L 126.038483 283.303893 
L 127.669913 283.303893 
L 129.301343 283.303893 
L 130.932773 283.303893 
L 132.564203 283.303893 
L 134.195633 283.303893 
L 135.827063 283.303893 
L 137.458492 283.303893 
L 139.089922 283.303893 
L 140.721352 283.303893 
L 142.352782 283.303893 
L 143.984212 283.303893 
L 145.615642 283.303893 
L 147.247072 283.303893 
L 148.878502 283.303893 
L 150.509931 283.303893 
L 152.141361 283.303893 
L 153.772791 283.303893 
L 155.404221 283.303893 
L 157.035651 283.303893 
L 158.667081 283.303893 
L 160.298511 283.303893 
L 161.929941 283.303893 
L 163.56137 283.303893 
L 165.1928 283.303893 
L 166.82423 283.303893 
L 168.45566 283.303893 
L 170.08709 283.303893 
L 171.71852 283.303893 
L 173.34995 283.303893 
L 174.98138 283.303893 
L 176.61281 283.303893 
L 178.244239 283.303893 
L 179.875669 283.303893 
L 181.507099 283.303893 
L 183.138529 283.303893 
L 184.769959 283.303893 
L 186.401389 283.303893 
L 188.032819 283.303893 
L 189.664249 283.303893 
L 191.295678 283.303893 
L 192.927108 283.303893 
L 194.558538 283.303893 
L 196.189968 283.303893 
L 197.821398 283.303893 
L 199.452828 283.303893 
L 201.084258 283.303893 
L 202.715688 283.303893 
L 204.347117 283.283056 
L 205.978547 282.588481 
L 207.609977 283.306552 
L 209.241407 281.153127 
L 210.872837 282.974594 
L 212.504267 283.465787 
L 214.135697 282.353186 
L 215.767127 283.814613 
L 217.398556 283.55597 
L 219.029986 284.434304 
L 220.661416 283.166263 
L 222.292846 284.887277 
L 223.924276 284.475511 
L 225.555706 284.307475 
L 227.187136 284.560816 
L 228.818566 284.102354 
L 230.449995 284.389787 
L 232.081425 284.161729 
L 233.712855 283.984013 
L 235.344285 284.65246 
L 236.975715 283.880748 
L 238.607145 284.347858 
L 240.238575 284.082861 
L 241.870005 284.105779 
L 243.501434 284.938961 
L 245.132864 284.410864 
L 246.764294 284.363304 
L 248.395724 285.470342 
L 250.027154 283.64537 
L 251.658584 284.8321 
L 253.290014 285.151798 
L 254.921444 283.700208 
L 256.552873 286.201131 
L 258.184303 283.296341 
L 259.815733 284.291107 
L 261.447163 283.179018 
L 263.078593 283.349344 
L 264.710023 283.78229 
L 266.341453 283.45997 
L 267.972883 284.553969 
L 269.604312 284.223905 
L 271.235742 284.46121 
L 272.867172 283.60079 
L 274.498602 284.445936 
L 276.130032 285.988527 
L 277.761462 284.002341 
L 279.392892 285.455723 
L 281.024322 283.285947 
L 282.655751 284.132531 
L 284.287181 284.446586 
L 285.918611 283.663841 
L 287.550041 283.095119 
L 289.181471 285.766109 
L 290.812901 283.009044 
L 292.444331 284.952993 
L 294.075761 285.282008 
L 295.70719 284.953818 
L 297.33862 284.206788 
L 298.97005 284.574213 
L 300.60148 284.216578 
L 302.23291 284.185916 
L 303.86434 286.204158 
L 305.49577 283.667424 
L 307.1272 287.419054 
L 308.75863 283.886592 
L 310.390059 285.053805 
L 312.021489 286.256549 
L 313.652919 285.842111 
L 315.284349 285.665138 
L 316.915779 284.135233 
L 318.547209 285.069864 
L 320.178639 284.510325 
L 321.810069 289.111596 
L 323.441498 283.87727 
L 325.072928 289.546982 
L 326.704358 282.917917 
L 328.335788 287.062249 
L 329.967218 286.687963 
L 331.598648 287.560872 
L 333.230078 285.913045 
L 334.861508 286.347029 
L 336.492937 286.960846 
L 338.124367 287.706357 
L 339.755797 287.719347 
L 341.387227 285.454204 
L 343.018657 284.261547 
L 344.650087 285.290707 
L 346.281517 284.792677 
L 347.912947 285.82535 
L 349.544376 285.375026 
L 351.175806 288.824913 
L 352.807236 287.233109 
L 354.438666 287.076285 
L 356.070096 285.780127 
L 357.701526 285.02186 
L 359.332956 285.896753 
L 360.964386 285.328917 
L 362.595815 288.535176 
L 364.227245 286.333375 
L 365.858675 290.081945 
L 367.490105 286.532706 
L 369.121535 285.418641 
L 370.752965 287.534165 
L 372.384395 283.937673 
L 374.015825 289.82353 
L 375.647254 283.998116 
L 377.278684 285.503634 
L 378.910114 289.258097 
L 380.541544 284.027307 
L 382.172974 284.848344 
L 383.804404 289.335592 
L 385.435834 284.081975 
L 387.067264 287.787999 
L 388.698693 286.522902 
L 390.330123 285.560125 
L 391.961553 286.74184 
L 393.592983 289.638547 
L 395.224413 292.024241 
L 396.855843 289.783799 
L 398.487273 290.122165 
L 398.487273 283.843754 
L 398.487273 283.843754 
L 396.855843 269.681874 
L 395.224413 282.873033 
L 393.592983 274.58057 
L 391.961553 274.138762 
L 390.330123 278.833563 
L 388.698693 284.164587 
L 387.067264 275.240656 
L 385.435834 269.575919 
L 383.804404 279.917826 
L 382.172974 265.650415 
L 380.541544 271.025012 
L 378.910114 280.094086 
L 377.278684 265.675657 
L 375.647254 276.416542 
L 374.015825 269.508325 
L 372.384395 272.890696 
L 370.752965 270.181751 
L 369.121535 266.544011 
L 367.490105 266.611163 
L 365.858675 272.98525 
L 364.227245 272.11108 
L 362.595815 264.326427 
L 360.964386 265.007778 
L 359.332956 278.396412 
L 357.701526 268.843781 
L 356.070096 258.142093 
L 354.438666 248.786109 
L 352.807236 232.733376 
L 351.175806 282.923525 
L 349.544376 271.274749 
L 347.912947 272.840178 
L 346.281517 267.032219 
L 344.650087 268.291087 
L 343.018657 272.930016 
L 341.387227 274.600418 
L 339.755797 262.360595 
L 338.124367 270.359003 
L 336.492937 276.24089 
L 334.861508 262.855054 
L 333.230078 264.437326 
L 331.598648 262.587005 
L 329.967218 279.888957 
L 328.335788 279.308676 
L 326.704358 253.603588 
L 325.072928 272.80268 
L 323.441498 259.950165 
L 321.810069 268.413051 
L 320.178639 263.046815 
L 318.547209 264.348895 
L 316.915779 267.571129 
L 315.284349 252.029868 
L 313.652919 259.107426 
L 312.021489 241.987443 
L 310.390059 272.705724 
L 308.75863 253.310621 
L 307.1272 255.730286 
L 305.49577 267.882832 
L 303.86434 249.373431 
L 302.23291 255.026383 
L 300.60148 257.212181 
L 298.97005 253.716412 
L 297.33862 264.587044 
L 295.70719 273.369494 
L 294.075761 237.457128 
L 292.444331 276.265227 
L 290.812901 257.519933 
L 289.181471 264.255311 
L 287.550041 264.577674 
L 285.918611 243.082042 
L 284.287181 263.509917 
L 282.655751 258.606324 
L 281.024322 259.975492 
L 279.392892 273.580777 
L 277.761462 267.160934 
L 276.130032 271.17731 
L 274.498602 256.164123 
L 272.867172 269.04087 
L 271.235742 261.508626 
L 269.604312 257.8491 
L 267.972883 259.113392 
L 266.341453 257.709462 
L 264.710023 270.433493 
L 263.078593 260.152308 
L 261.447163 270.31586 
L 259.815733 259.663865 
L 258.184303 256.43512 
L 256.552873 278.785821 
L 254.921444 261.716891 
L 253.290014 266.507872 
L 251.658584 262.8373 
L 250.027154 253.417484 
L 248.395724 273.569356 
L 246.764294 275.475756 
L 245.132864 249.479563 
L 243.501434 257.557802 
L 241.870005 236.418705 
L 240.238575 262.22825 
L 238.607145 248.589026 
L 236.975715 263.227054 
L 235.344285 259.365575 
L 233.712855 266.794689 
L 232.081425 263.655779 
L 230.449995 240.675901 
L 228.818566 268.857421 
L 227.187136 278.307166 
L 225.555706 282.794423 
L 223.924276 276.848586 
L 222.292846 281.892565 
L 220.661416 277.51341 
L 219.029986 281.996112 
L 217.398556 281.417021 
L 215.767127 277.872668 
L 214.135697 274.550548 
L 212.504267 280.523625 
L 210.872837 278.834321 
L 209.241407 277.25068 
L 207.609977 281.475895 
L 205.978547 279.685201 
L 204.347117 281.190688 
L 202.715688 281.222392 
L 201.084258 281.638692 
L 199.452828 282.797051 
L 197.821398 281.638692 
L 196.189968 281.638692 
L 194.558538 282.611537 
L 192.927108 282.054992 
L 191.295678 282.054992 
L 189.664249 282.797051 
L 188.032819 282.471293 
L 186.401389 281.222392 
L 184.769959 282.054992 
L 183.138529 282.471293 
L 181.507099 282.054992 
L 179.875669 281.638692 
L 178.244239 282.797051 
L 176.61281 282.797051 
L 174.98138 282.471293 
L 173.34995 281.638692 
L 171.71852 282.797051 
L 170.08709 282.471293 
L 168.45566 281.222392 
L 166.82423 282.797051 
L 165.1928 281.638692 
L 163.56137 282.797051 
L 161.929941 282.471293 
L 160.298511 282.471293 
L 158.667081 282.054992 
L 157.035651 281.638692 
L 155.404221 282.054992 
L 153.772791 282.054992 
L 152.141361 281.638692 
L 150.509931 282.054992 
L 148.878502 282.471293 
L 147.247072 282.054992 
L 145.615642 282.054992 
L 143.984212 282.471293 
L 142.352782 282.054992 
L 140.721352 282.054992 
L 139.089922 282.471293 
L 137.458492 281.638692 
L 135.827063 282.054992 
L 134.195633 282.797051 
L 132.564203 282.054992 
L 130.932773 282.471293 
L 129.301343 282.797051 
L 127.669913 282.471293 
L 126.038483 282.054992 
L 124.407053 282.471293 
L 122.775624 282.471293 
L 121.144194 282.054992 
L 119.512764 282.054992 
L 117.881334 282.471293 
L 116.249904 281.222392 
L 114.618474 282.471293 
L 112.987044 282.471293 
L 111.355614 282.471293 
L 109.724185 282.471293 
L 108.092755 281.638692 
L 106.461325 282.471293 
L 104.829895 281.638692 
L 103.198465 282.054992 
L 101.567035 281.638692 
L 99.935605 282.797051 
L 98.304175 282.054992 
L 96.672746 282.054992 
L 95.041316 281.638692 
L 93.409886 282.471293 
L 91.778456 281.638692 
L 90.147026 281.638692 
L 88.515596 281.222392 
L 86.884166 281.638692 
L 85.252736 282.471293 
L 83.621307 282.054992 
L 81.989877 282.887593 
L 80.358447 282.471293 
L 78.727017 282.471293 
L 77.095587 282.471293 
L 75.464157 282.887593 
L 73.832727 282.054992 
z
" style="fill:#1f77b4;fill-opacity:0.2;"/>
   </g>
   <g id="PolyCollection_2">
    <path clip-path="url(#p3221eaa6d3)" d="M 73.832727 281.222392 
L 73.832727 283.303893 
L 75.464157 283.303893 
L 77.095587 283.303893 
L 78.727017 283.303893 
L 80.358447 283.303893 
L 81.989877 283.303893 
L 83.621307 283.303893 
L 85.252736 283.303893 
L 86.884166 283.303893 
L 88.515596 283.303893 
L 90.147026 283.303893 
L 91.778456 283.303893 
L 93.409886 283.303893 
L 95.041316 283.303893 
L 96.672746 283.303893 
L 98.304175 283.303893 
L 99.935605 283.303893 
L 101.567035 283.303893 
L 103.198465 283.303893 
L 104.829895 283.303893 
L 106.461325 283.303893 
L 108.092755 283.303893 
L 109.724185 283.303893 
L 111.355614 283.303893 
L 112.987044 283.303893 
L 114.618474 283.303893 
L 116.249904 283.303893 
L 117.881334 283.303893 
L 119.512764 283.303893 
L 121.144194 283.303893 
L 122.775624 283.303893 
L 124.407053 283.303893 
L 126.038483 283.303893 
L 127.669913 283.303893 
L 129.301343 283.303893 
L 130.932773 283.303893 
L 132.564203 283.303893 
L 134.195633 283.303893 
L 135.827063 283.303893 
L 137.458492 283.303893 
L 139.089922 283.303893 
L 140.721352 283.303893 
L 142.352782 283.303893 
L 143.984212 283.303893 
L 145.615642 283.303893 
L 147.247072 283.303893 
L 148.878502 283.303893 
L 150.509931 283.303893 
L 152.141361 283.303893 
L 153.772791 283.303893 
L 155.404221 283.303893 
L 157.035651 283.303893 
L 158.667081 283.303893 
L 160.298511 283.303893 
L 161.929941 283.303893 
L 163.56137 283.303893 
L 165.1928 283.303893 
L 166.82423 283.303893 
L 168.45566 283.303893 
L 170.08709 283.303893 
L 171.71852 283.303893 
L 173.34995 283.303893 
L 174.98138 283.303893 
L 176.61281 283.303893 
L 178.244239 283.303893 
L 179.875669 283.303893 
L 181.507099 283.303893 
L 183.138529 283.303893 
L 184.769959 283.303893 
L 186.401389 283.303893 
L 188.032819 283.303893 
L 189.664249 283.303893 
L 191.295678 283.303893 
L 192.927108 283.303893 
L 194.558538 283.303893 
L 196.189968 283.303893 
L 197.821398 283.303893 
L 199.452828 283.303893 
L 201.084258 283.303893 
L 202.715688 283.303893 
L 204.347117 283.517146 
L 205.978547 284.428892 
L 207.609977 284.411639 
L 209.241407 283.662021 
L 210.872837 285.058789 
L 212.504267 285.039444 
L 214.135697 285.029823 
L 215.767127 285.652043 
L 217.398556 285.63291 
L 219.029986 286.555641 
L 220.661416 286.560268 
L 222.292846 286.780879 
L 223.924276 286.82602 
L 225.555706 286.51662 
L 227.187136 286.497505 
L 228.818566 286.5136 
L 230.449995 286.714522 
L 232.081425 286.310981 
L 233.712855 286.261237 
L 235.344285 286.304212 
L 236.975715 285.458809 
L 238.607145 286.143374 
L 240.238575 286.685492 
L 241.870005 286.896167 
L 243.501434 287.772 
L 245.132864 289.144818 
L 246.764294 287.726923 
L 248.395724 288.999478 
L 250.027154 288.413192 
L 251.658584 288.410183 
L 253.290014 288.46349 
L 254.921444 290.393192 
L 256.552873 289.55953 
L 258.184303 286.387256 
L 259.815733 286.591522 
L 261.447163 286.37491 
L 263.078593 286.35917 
L 264.710023 286.355055 
L 266.341453 286.98803 
L 267.972883 286.55093 
L 269.604312 286.531648 
L 271.235742 286.52627 
L 272.867172 286.4153 
L 274.498602 287.02363 
L 276.130032 291.945983 
L 277.761462 286.412029 
L 279.392892 287.158017 
L 281.024322 286.117639 
L 282.655751 286.078094 
L 284.287181 287.167696 
L 285.918611 287.719082 
L 287.550041 288.593361 
L 289.181471 288.049587 
L 290.812901 288.522691 
L 292.444331 288.843395 
L 294.075761 288.205669 
L 295.70719 288.100346 
L 297.33862 288.461753 
L 298.97005 287.824193 
L 300.60148 290.410404 
L 302.23291 288.772616 
L 303.86434 288.71765 
L 305.49577 288.633798 
L 307.1272 289.962428 
L 308.75863 288.723549 
L 310.390059 288.570336 
L 312.021489 288.592649 
L 313.652919 289.211945 
L 315.284349 288.57158 
L 316.915779 290.254137 
L 318.547209 288.873774 
L 320.178639 289.48219 
L 321.810069 293.449525 
L 323.441498 289.721587 
L 325.072928 295.488 
L 326.704358 289.854987 
L 328.335788 289.783136 
L 329.967218 289.713645 
L 331.598648 289.742468 
L 333.230078 289.139228 
L 334.861508 289.315581 
L 336.492937 289.302519 
L 338.124367 292.211931 
L 339.755797 292.23168 
L 341.387227 291.667539 
L 343.018657 289.729877 
L 344.650087 290.726529 
L 346.281517 290.59301 
L 347.912947 291.167184 
L 349.544376 290.851498 
L 351.175806 291.24144 
L 352.807236 290.770549 
L 354.438666 290.524086 
L 356.070096 289.281946 
L 357.701526 290.463637 
L 359.332956 290.614232 
L 360.964386 290.495535 
L 362.595815 292.113845 
L 364.227245 290.230303 
L 365.858675 294.034882 
L 367.490105 292.63551 
L 369.121535 290.024422 
L 370.752965 289.96998 
L 372.384395 292.31761 
L 374.015825 291.459355 
L 375.647254 290.3755 
L 377.278684 292.769461 
L 378.910114 290.777074 
L 380.541544 290.517282 
L 382.172974 290.318199 
L 383.804404 291.924332 
L 385.435834 290.295157 
L 387.067264 290.631224 
L 388.698693 290.351197 
L 390.330123 289.563382 
L 391.961553 289.950451 
L 393.592983 291.008341 
L 395.224413 293.032508 
L 396.855843 290.907207 
L 398.487273 292.24903 
L 398.487273 156.802143 
L 398.487273 156.802143 
L 396.855843 79.107961 
L 395.224413 162.99264 
L 393.592983 185.936814 
L 391.961553 180.835167 
L 390.330123 156.618028 
L 388.698693 181.238013 
L 387.067264 134.826523 
L 385.435834 146.110383 
L 383.804404 112.255579 
L 382.172974 192.896835 
L 380.541544 221.559894 
L 378.910114 126.081507 
L 377.278684 138.516466 
L 375.647254 174.300851 
L 374.015825 161.627856 
L 372.384395 68.253064 
L 370.752965 193.657142 
L 369.121535 173.875074 
L 367.490105 123.468648 
L 365.858675 165.121992 
L 364.227245 200.673521 
L 362.595815 112.513555 
L 360.964386 185.444414 
L 359.332956 168.994619 
L 357.701526 180.89661 
L 356.070096 135.356207 
L 354.438666 98.189201 
L 352.807236 53.568 
L 351.175806 169.79134 
L 349.544376 158.766067 
L 347.912947 160.264705 
L 346.281517 208.274233 
L 344.650087 163.664184 
L 343.018657 177.634624 
L 341.387227 165.960461 
L 339.755797 118.711228 
L 338.124367 116.751556 
L 336.492937 140.11889 
L 334.861508 153.680988 
L 333.230078 193.408719 
L 331.598648 96.211595 
L 329.967218 85.259448 
L 328.335788 214.338619 
L 326.704358 136.152116 
L 325.072928 95.317563 
L 323.441498 148.491815 
L 321.810069 159.711735 
L 320.178639 173.853711 
L 318.547209 163.46265 
L 316.915779 162.082707 
L 315.284349 173.820205 
L 313.652919 159.589197 
L 312.021489 71.843185 
L 310.390059 253.470088 
L 308.75863 129.827433 
L 307.1272 111.369842 
L 305.49577 180.255408 
L 303.86434 126.047457 
L 302.23291 232.387686 
L 300.60148 154.801805 
L 298.97005 152.843192 
L 297.33862 174.154888 
L 295.70719 224.714495 
L 294.075761 82.261446 
L 292.444331 188.938065 
L 290.812901 179.897636 
L 289.181471 214.246248 
L 287.550041 150.518142 
L 285.918611 93.476079 
L 284.287181 213.396015 
L 282.655751 181.979804 
L 281.024322 162.812613 
L 279.392892 168.168908 
L 277.761462 180.366702 
L 276.130032 107.008575 
L 274.498602 137.619344 
L 272.867172 229.302426 
L 271.235742 201.092097 
L 269.604312 240.543632 
L 267.972883 158.437268 
L 266.341453 151.204107 
L 264.710023 235.07267 
L 263.078593 200.520365 
L 261.447163 208.107226 
L 259.815733 187.47193 
L 258.184303 184.737451 
L 256.552873 142.080099 
L 254.921444 132.1654 
L 253.290014 174.035118 
L 251.658584 192.160834 
L 250.027154 198.606547 
L 248.395724 186.375485 
L 246.764294 239.737158 
L 245.132864 186.055381 
L 243.501434 235.425097 
L 241.870005 96.602625 
L 240.238575 216.311562 
L 238.607145 229.173975 
L 236.975715 201.657781 
L 235.344285 197.666513 
L 233.712855 220.629976 
L 232.081425 237.833946 
L 230.449995 122.469426 
L 228.818566 190.164634 
L 227.187136 202.462939 
L 225.555706 234.669475 
L 223.924276 205.522174 
L 222.292846 198.809649 
L 220.661416 190.139855 
L 219.029986 278.021997 
L 217.398556 257.598723 
L 215.767127 233.905515 
L 214.135697 223.025134 
L 212.504267 246.047371 
L 210.872837 222.485828 
L 209.241407 218.093999 
L 207.609977 248.69166 
L 205.978547 265.087354 
L 204.347117 248.199271 
L 202.715688 245.186504 
L 201.084258 252.729173 
L 199.452828 260.820481 
L 197.821398 281.222392 
L 196.189968 281.222392 
L 194.558538 281.222392 
L 192.927108 281.222392 
L 191.295678 281.222392 
L 189.664249 281.222392 
L 188.032819 281.222392 
L 186.401389 281.222392 
L 184.769959 281.222392 
L 183.138529 281.222392 
L 181.507099 281.222392 
L 179.875669 281.222392 
L 178.244239 281.222392 
L 176.61281 281.222392 
L 174.98138 281.222392 
L 173.34995 281.222392 
L 171.71852 281.222392 
L 170.08709 281.222392 
L 168.45566 281.222392 
L 166.82423 281.222392 
L 165.1928 281.222392 
L 163.56137 281.222392 
L 161.929941 281.222392 
L 160.298511 281.222392 
L 158.667081 281.222392 
L 157.035651 281.222392 
L 155.404221 281.222392 
L 153.772791 281.222392 
L 152.141361 281.222392 
L 150.509931 281.222392 
L 148.878502 281.222392 
L 147.247072 281.222392 
L 145.615642 281.222392 
L 143.984212 281.222392 
L 142.352782 281.222392 
L 140.721352 281.222392 
L 139.089922 281.222392 
L 137.458492 281.222392 
L 135.827063 281.222392 
L 134.195633 281.222392 
L 132.564203 281.222392 
L 130.932773 281.222392 
L 129.301343 281.222392 
L 127.669913 281.222392 
L 126.038483 281.222392 
L 124.407053 281.222392 
L 122.775624 281.222392 
L 121.144194 281.222392 
L 119.512764 281.222392 
L 117.881334 281.222392 
L 116.249904 281.222392 
L 114.618474 281.222392 
L 112.987044 281.222392 
L 111.355614 281.222392 
L 109.724185 281.222392 
L 108.092755 281.222392 
L 106.461325 281.222392 
L 104.829895 281.222392 
L 103.198465 281.222392 
L 101.567035 281.222392 
L 99.935605 281.222392 
L 98.304175 281.222392 
L 96.672746 281.222392 
L 95.041316 281.222392 
L 93.409886 281.222392 
L 91.778456 281.222392 
L 90.147026 281.222392 
L 88.515596 281.222392 
L 86.884166 281.222392 
L 85.252736 281.222392 
L 83.621307 281.222392 
L 81.989877 281.222392 
L 80.358447 281.222392 
L 78.727017 281.222392 
L 77.095587 281.222392 
L 75.464157 281.222392 
L 73.832727 281.222392 
z
" style="fill:#1f77b4;fill-opacity:0.1;"/>
   </g>
   <g id="matplotlib.axis_1">
    <g id="xtick_1">
     <g id="line2d_1">
      <defs>
       <path d="M 0 0 
L 0 3.5 
" id="m43cafd79d5" style="stroke:#000000;stroke-width:0.8;"/>
      </defs>
      <g>
       <use style="stroke:#000000;stroke-width:0.8;" x="73.832727" xlink:href="#m43cafd79d5" y="307.584"/>
      </g>
     </g>
     <g id="text_1">
      <!-- 0 -->
      <defs>
       <path d="M 31.78125 66.40625 
Q 24.171875 66.40625 20.328125 58.90625 
Q 16.5 51.421875 16.5 36.375 
Q 16.5 21.390625 20.328125 13.890625 
Q 24.171875 6.390625 31.78125 6.390625 
Q 39.453125 6.390625 43.28125 13.890625 
Q 47.125 21.390625 47.125 36.375 
Q 47.125 51.421875 43.28125 58.90625 
Q 39.453125 66.40625 31.78125 66.40625 
z
M 31.78125 74.21875 
Q 44.046875 74.21875 50.515625 64.515625 
Q 56.984375 54.828125 56.984375 36.375 
Q 56.984375 17.96875 50.515625 8.265625 
Q 44.046875 -1.421875 31.78125 -1.421875 
Q 19.53125 -1.421875 13.0625 8.265625 
Q 6.59375 17.96875 6.59375 36.375 
Q 6.59375 54.828125 13.0625 64.515625 
Q 19.53125 74.21875 31.78125 74.21875 
z
" id="DejaVuSans-48"/>
      </defs>
      <g transform="translate(70.651477 322.182437)scale(0.1 -0.1)">
       <use xlink:href="#DejaVuSans-48"/>
      </g>
     </g>
    </g>
    <g id="xtick_2">
     <g id="line2d_2">
      <g>
       <use style="stroke:#000000;stroke-width:0.8;" x="114.618474" xlink:href="#m43cafd79d5" y="307.584"/>
      </g>
     </g>
     <g id="text_2">
      <!-- 25 -->
      <defs>
       <path d="M 19.1875 8.296875 
L 53.609375 8.296875 
L 53.609375 0 
L 7.328125 0 
L 7.328125 8.296875 
Q 12.9375 14.109375 22.625 23.890625 
Q 32.328125 33.6875 34.8125 36.53125 
Q 39.546875 41.84375 41.421875 45.53125 
Q 43.3125 49.21875 43.3125 52.78125 
Q 43.3125 58.59375 39.234375 62.25 
Q 35.15625 65.921875 28.609375 65.921875 
Q 23.96875 65.921875 18.8125 64.3125 
Q 13.671875 62.703125 7.8125 59.421875 
L 7.8125 69.390625 
Q 13.765625 71.78125 18.9375 73 
Q 24.125 74.21875 28.421875 74.21875 
Q 39.75 74.21875 46.484375 68.546875 
Q 53.21875 62.890625 53.21875 53.421875 
Q 53.21875 48.921875 51.53125 44.890625 
Q 49.859375 40.875 45.40625 35.40625 
Q 44.1875 33.984375 37.640625 27.21875 
Q 31.109375 20.453125 19.1875 8.296875 
z
" id="DejaVuSans-50"/>
       <path d="M 10.796875 72.90625 
L 49.515625 72.90625 
L 49.515625 64.59375 
L 19.828125 64.59375 
L 19.828125 46.734375 
Q 21.96875 47.46875 24.109375 47.828125 
Q 26.265625 48.1875 28.421875 48.1875 
Q 40.625 48.1875 47.75 41.5 
Q 54.890625 34.8125 54.890625 23.390625 
Q 54.890625 11.625 47.5625 5.09375 
Q 40.234375 -1.421875 26.90625 -1.421875 
Q 22.3125 -1.421875 17.546875 -0.640625 
Q 12.796875 0.140625 7.71875 1.703125 
L 7.71875 11.625 
Q 12.109375 9.234375 16.796875 8.0625 
Q 21.484375 6.890625 26.703125 6.890625 
Q 35.15625 6.890625 40.078125 11.328125 
Q 45.015625 15.765625 45.015625 23.390625 
Q 45.015625 31 40.078125 35.4375 
Q 35.15625 39.890625 26.703125 39.890625 
Q 22.75 39.890625 18.8125 39.015625 
Q 14.890625 38.140625 10.796875 36.28125 
z
" id="DejaVuSans-53"/>
      </defs>
      <g transform="translate(108.255974 322.182437)scale(0.1 -0.1)">
       <use xlink:href="#DejaVuSans-50"/>
       <use x="63.623047" xlink:href="#DejaVuSans-53"/>
      </g>
     </g>
    </g>
    <g id="xtick_3">
     <g id="line2d_3">
      <g>
       <use style="stroke:#000000;stroke-width:0.8;" x="155.404221" xlink:href="#m43cafd79d5" y="307.584"/>
      </g>
     </g>
     <g id="text_3">
      <!-- 50 -->
      <g transform="translate(149.041721 322.182437)scale(0.1 -0.1)">
       <use xlink:href="#DejaVuSans-53"/>
       <use x="63.623047" xlink:href="#DejaVuSans-48"/>
      </g>
     </g>
    </g>
    <g id="xtick_4">
     <g id="line2d_4">
      <g>
       <use style="stroke:#000000;stroke-width:0.8;" x="196.189968" xlink:href="#m43cafd79d5" y="307.584"/>
      </g>
     </g>
     <g id="text_4">
      <!-- 75 -->
      <defs>
       <path d="M 8.203125 72.90625 
L 55.078125 72.90625 
L 55.078125 68.703125 
L 28.609375 0 
L 18.3125 0 
L 43.21875 64.59375 
L 8.203125 64.59375 
z
" id="DejaVuSans-55"/>
      </defs>
      <g transform="translate(189.827468 322.182437)scale(0.1 -0.1)">
       <use xlink:href="#DejaVuSans-55"/>
       <use x="63.623047" xlink:href="#DejaVuSans-53"/>
      </g>
     </g>
    </g>
    <g id="xtick_5">
     <g id="line2d_5">
      <g>
       <use style="stroke:#000000;stroke-width:0.8;" x="236.975715" xlink:href="#m43cafd79d5" y="307.584"/>
      </g>
     </g>
     <g id="text_5">
      <!-- 100 -->
      <defs>
       <path d="M 12.40625 8.296875 
L 28.515625 8.296875 
L 28.515625 63.921875 
L 10.984375 60.40625 
L 10.984375 69.390625 
L 28.421875 72.90625 
L 38.28125 72.90625 
L 38.28125 8.296875 
L 54.390625 8.296875 
L 54.390625 0 
L 12.40625 0 
z
" id="DejaVuSans-49"/>
      </defs>
      <g transform="translate(227.431965 322.182437)scale(0.1 -0.1)">
       <use xlink:href="#DejaVuSans-49"/>
       <use x="63.623047" xlink:href="#DejaVuSans-48"/>
       <use x="127.246094" xlink:href="#DejaVuSans-48"/>
      </g>
     </g>
    </g>
    <g id="xtick_6">
     <g id="line2d_6">
      <g>
       <use style="stroke:#000000;stroke-width:0.8;" x="277.761462" xlink:href="#m43cafd79d5" y="307.584"/>
      </g>
     </g>
     <g id="text_6">
      <!-- 125 -->
      <g transform="translate(268.217712 322.182437)scale(0.1 -0.1)">
       <use xlink:href="#DejaVuSans-49"/>
       <use x="63.623047" xlink:href="#DejaVuSans-50"/>
       <use x="127.246094" xlink:href="#DejaVuSans-53"/>
      </g>
     </g>
    </g>
    <g id="xtick_7">
     <g id="line2d_7">
      <g>
       <use style="stroke:#000000;stroke-width:0.8;" x="318.547209" xlink:href="#m43cafd79d5" y="307.584"/>
      </g>
     </g>
     <g id="text_7">
      <!-- 150 -->
      <g transform="translate(309.003459 322.182437)scale(0.1 -0.1)">
       <use xlink:href="#DejaVuSans-49"/>
       <use x="63.623047" xlink:href="#DejaVuSans-53"/>
       <use x="127.246094" xlink:href="#DejaVuSans-48"/>
      </g>
     </g>
    </g>
    <g id="xtick_8">
     <g id="line2d_8">
      <g>
       <use style="stroke:#000000;stroke-width:0.8;" x="359.332956" xlink:href="#m43cafd79d5" y="307.584"/>
      </g>
     </g>
     <g id="text_8">
      <!-- 175 -->
      <g transform="translate(349.789206 322.182437)scale(0.1 -0.1)">
       <use xlink:href="#DejaVuSans-49"/>
       <use x="63.623047" xlink:href="#DejaVuSans-55"/>
       <use x="127.246094" xlink:href="#DejaVuSans-53"/>
      </g>
     </g>
    </g>
    <g id="xtick_9">
     <g id="line2d_9">
      <g>
       <use style="stroke:#000000;stroke-width:0.8;" x="400.118703" xlink:href="#m43cafd79d5" y="307.584"/>
      </g>
     </g>
     <g id="text_9">
      <!-- 200 -->
      <g transform="translate(390.574953 322.182437)scale(0.1 -0.1)">
       <use xlink:href="#DejaVuSans-50"/>
       <use x="63.623047" xlink:href="#DejaVuSans-48"/>
       <use x="127.246094" xlink:href="#DejaVuSans-48"/>
      </g>
     </g>
    </g>
   </g>
   <g id="matplotlib.axis_2">
    <g id="ytick_1">
     <g id="line2d_10">
      <defs>
       <path d="M 0 0 
L -3.5 0 
" id="md9cc07f626" style="stroke:#000000;stroke-width:0.8;"/>
      </defs>
      <g>
       <use style="stroke:#000000;stroke-width:0.8;" x="57.6" xlink:href="#md9cc07f626" y="302.440136"/>
      </g>
     </g>
     <g id="text_10">
      <!-- 0 -->
      <g transform="translate(44.2375 306.239354)scale(0.1 -0.1)">
       <use xlink:href="#DejaVuSans-48"/>
      </g>
     </g>
    </g>
    <g id="ytick_2">
     <g id="line2d_11">
      <g>
       <use style="stroke:#000000;stroke-width:0.8;" x="57.6" xlink:href="#md9cc07f626" y="267.603019"/>
      </g>
     </g>
     <g id="text_11">
      <!-- 2 -->
      <g transform="translate(44.2375 271.402238)scale(0.1 -0.1)">
       <use xlink:href="#DejaVuSans-50"/>
      </g>
     </g>
    </g>
    <g id="ytick_3">
     <g id="line2d_12">
      <g>
       <use style="stroke:#000000;stroke-width:0.8;" x="57.6" xlink:href="#md9cc07f626" y="232.765902"/>
      </g>
     </g>
     <g id="text_12">
      <!-- 4 -->
      <defs>
       <path d="M 37.796875 64.3125 
L 12.890625 25.390625 
L 37.796875 25.390625 
z
M 35.203125 72.90625 
L 47.609375 72.90625 
L 47.609375 25.390625 
L 58.015625 25.390625 
L 58.015625 17.1875 
L 47.609375 17.1875 
L 47.609375 0 
L 37.796875 0 
L 37.796875 17.1875 
L 4.890625 17.1875 
L 4.890625 26.703125 
z
" id="DejaVuSans-52"/>
      </defs>
      <g transform="translate(44.2375 236.565121)scale(0.1 -0.1)">
       <use xlink:href="#DejaVuSans-52"/>
      </g>
     </g>
    </g>
    <g id="ytick_4">
     <g id="line2d_13">
      <g>
       <use style="stroke:#000000;stroke-width:0.8;" x="57.6" xlink:href="#md9cc07f626" y="197.928786"/>
      </g>
     </g>
     <g id="text_13">
      <!-- 6 -->
      <defs>
       <path d="M 33.015625 40.375 
Q 26.375 40.375 22.484375 35.828125 
Q 18.609375 31.296875 18.609375 23.390625 
Q 18.609375 15.53125 22.484375 10.953125 
Q 26.375 6.390625 33.015625 6.390625 
Q 39.65625 6.390625 43.53125 10.953125 
Q 47.40625 15.53125 47.40625 23.390625 
Q 47.40625 31.296875 43.53125 35.828125 
Q 39.65625 40.375 33.015625 40.375 
z
M 52.59375 71.296875 
L 52.59375 62.3125 
Q 48.875 64.0625 45.09375 64.984375 
Q 41.3125 65.921875 37.59375 65.921875 
Q 27.828125 65.921875 22.671875 59.328125 
Q 17.53125 52.734375 16.796875 39.40625 
Q 19.671875 43.65625 24.015625 45.921875 
Q 28.375 48.1875 33.59375 48.1875 
Q 44.578125 48.1875 50.953125 41.515625 
Q 57.328125 34.859375 57.328125 23.390625 
Q 57.328125 12.15625 50.6875 5.359375 
Q 44.046875 -1.421875 33.015625 -1.421875 
Q 20.359375 -1.421875 13.671875 8.265625 
Q 6.984375 17.96875 6.984375 36.375 
Q 6.984375 53.65625 15.1875 63.9375 
Q 23.390625 74.21875 37.203125 74.21875 
Q 40.921875 74.21875 44.703125 73.484375 
Q 48.484375 72.75 52.59375 71.296875 
z
" id="DejaVuSans-54"/>
      </defs>
      <g transform="translate(44.2375 201.728005)scale(0.1 -0.1)">
       <use xlink:href="#DejaVuSans-54"/>
      </g>
     </g>
    </g>
    <g id="ytick_5">
     <g id="line2d_14">
      <g>
       <use style="stroke:#000000;stroke-width:0.8;" x="57.6" xlink:href="#md9cc07f626" y="163.091669"/>
      </g>
     </g>
     <g id="text_14">
      <!-- 8 -->
      <defs>
       <path d="M 31.78125 34.625 
Q 24.75 34.625 20.71875 30.859375 
Q 16.703125 27.09375 16.703125 20.515625 
Q 16.703125 13.921875 20.71875 10.15625 
Q 24.75 6.390625 31.78125 6.390625 
Q 38.8125 6.390625 42.859375 10.171875 
Q 46.921875 13.96875 46.921875 20.515625 
Q 46.921875 27.09375 42.890625 30.859375 
Q 38.875 34.625 31.78125 34.625 
z
M 21.921875 38.8125 
Q 15.578125 40.375 12.03125 44.71875 
Q 8.5 49.078125 8.5 55.328125 
Q 8.5 64.0625 14.71875 69.140625 
Q 20.953125 74.21875 31.78125 74.21875 
Q 42.671875 74.21875 48.875 69.140625 
Q 55.078125 64.0625 55.078125 55.328125 
Q 55.078125 49.078125 51.53125 44.71875 
Q 48 40.375 41.703125 38.8125 
Q 48.828125 37.15625 52.796875 32.3125 
Q 56.78125 27.484375 56.78125 20.515625 
Q 56.78125 9.90625 50.3125 4.234375 
Q 43.84375 -1.421875 31.78125 -1.421875 
Q 19.734375 -1.421875 13.25 4.234375 
Q 6.78125 9.90625 6.78125 20.515625 
Q 6.78125 27.484375 10.78125 32.3125 
Q 14.796875 37.15625 21.921875 38.8125 
z
M 18.3125 54.390625 
Q 18.3125 48.734375 21.84375 45.5625 
Q 25.390625 42.390625 31.78125 42.390625 
Q 38.140625 42.390625 41.71875 45.5625 
Q 45.3125 48.734375 45.3125 54.390625 
Q 45.3125 60.0625 41.71875 63.234375 
Q 38.140625 66.40625 31.78125 66.40625 
Q 25.390625 66.40625 21.84375 63.234375 
Q 18.3125 60.0625 18.3125 54.390625 
z
" id="DejaVuSans-56"/>
      </defs>
      <g transform="translate(44.2375 166.890888)scale(0.1 -0.1)">
       <use xlink:href="#DejaVuSans-56"/>
      </g>
     </g>
    </g>
    <g id="ytick_6">
     <g id="line2d_15">
      <g>
       <use style="stroke:#000000;stroke-width:0.8;" x="57.6" xlink:href="#md9cc07f626" y="128.254553"/>
      </g>
     </g>
     <g id="text_15">
      <!-- 10 -->
      <g transform="translate(37.875 132.053771)scale(0.1 -0.1)">
       <use xlink:href="#DejaVuSans-49"/>
       <use x="63.623047" xlink:href="#DejaVuSans-48"/>
      </g>
     </g>
    </g>
    <g id="ytick_7">
     <g id="line2d_16">
      <g>
       <use style="stroke:#000000;stroke-width:0.8;" x="57.6" xlink:href="#md9cc07f626" y="93.417436"/>
      </g>
     </g>
     <g id="text_16">
      <!-- 12 -->
      <g transform="translate(37.875 97.216655)scale(0.1 -0.1)">
       <use xlink:href="#DejaVuSans-49"/>
       <use x="63.623047" xlink:href="#DejaVuSans-50"/>
      </g>
     </g>
    </g>
    <g id="ytick_8">
     <g id="line2d_17">
      <g>
       <use style="stroke:#000000;stroke-width:0.8;" x="57.6" xlink:href="#md9cc07f626" y="58.58032"/>
      </g>
     </g>
     <g id="text_17">
      <!-- 14 -->
      <g transform="translate(37.875 62.379538)scale(0.1 -0.1)">
       <use xlink:href="#DejaVuSans-49"/>
       <use x="63.623047" xlink:href="#DejaVuSans-52"/>
      </g>
     </g>
    </g>
   </g>
   <g id="line2d_18">
    <path clip-path="url(#p3221eaa6d3)" d="M 73.832727 282.797051 
L 75.464157 283.303893 
L 78.727017 283.303893 
L 80.358447 282.797051 
L 81.989877 283.303893 
L 90.147026 283.303893 
L 91.778456 282.797051 
L 93.409886 283.303893 
L 99.935605 283.303893 
L 101.567035 282.797051 
L 103.198465 283.303893 
L 109.724185 283.303893 
L 111.355614 282.797051 
L 112.987044 283.303893 
L 119.512764 283.303893 
L 121.144194 283.050472 
L 122.775624 283.303893 
L 130.932773 283.303893 
L 132.564203 282.797051 
L 134.195633 282.887593 
L 135.827063 283.303893 
L 137.458492 283.303893 
L 139.089922 282.797051 
L 140.721352 283.303893 
L 142.352782 283.303893 
L 143.984212 282.797051 
L 147.247072 283.303893 
L 148.878502 282.797051 
L 150.509931 282.797051 
L 152.141361 283.303893 
L 173.34995 283.303893 
L 174.98138 282.797051 
L 178.244239 282.887593 
L 179.875669 283.303893 
L 181.507099 282.797051 
L 183.138529 283.303893 
L 188.032819 283.303893 
L 189.664249 282.887593 
L 191.295678 283.303893 
L 192.927108 282.797051 
L 194.558538 283.303893 
L 199.452828 283.303893 
L 201.084258 282.797051 
L 202.715688 282.797051 
L 204.347117 282.491739 
L 205.978547 281.92942 
L 207.609977 282.47937 
L 209.241407 278.4529 
L 210.872837 282.201745 
L 212.504267 282.181471 
L 214.135697 278.891312 
L 215.767127 281.330067 
L 217.398556 282.604497 
L 219.029986 283.700308 
L 220.661416 280.936137 
L 222.292846 283.952393 
L 223.924276 280.285272 
L 225.555706 283.713945 
L 227.187136 282.074171 
L 228.818566 282.583075 
L 230.449995 282.620801 
L 232.081425 281.387015 
L 233.712855 282.777667 
L 235.344285 282.640634 
L 236.975715 267.784396 
L 238.607145 281.68054 
L 240.238575 265.541839 
L 241.870005 260.813551 
L 243.501434 283.042954 
L 245.132864 282.457425 
L 246.764294 283.136897 
L 248.395724 282.076833 
L 250.027154 281.728437 
L 251.658584 280.186486 
L 253.290014 281.058984 
L 254.921444 279.079533 
L 256.552873 284.570564 
L 258.184303 257.643677 
L 259.815733 264.826385 
L 261.447163 276.388202 
L 263.078593 282.740759 
L 264.710023 274.573381 
L 266.341453 283.231083 
L 267.972883 278.436869 
L 269.604312 265.113922 
L 271.235742 267.73528 
L 272.867172 282.880176 
L 274.498602 275.687632 
L 276.130032 285.599806 
L 277.761462 271.355833 
L 279.392892 282.990596 
L 281.024322 262.007493 
L 282.655751 267.800727 
L 284.287181 265.648046 
L 285.918611 273.253343 
L 287.550041 271.911346 
L 289.181471 283.105961 
L 290.812901 259.976378 
L 292.444331 280.940047 
L 294.075761 281.434515 
L 295.70719 283.105875 
L 297.33862 269.365928 
L 298.97005 282.176537 
L 300.60148 275.005777 
L 302.23291 281.285372 
L 305.49577 277.797964 
L 307.1272 284.738274 
L 308.75863 283.164982 
L 310.390059 282.959834 
L 312.021489 279.150504 
L 313.652919 282.773254 
L 315.284349 270.382659 
L 316.915779 270.814862 
L 318.547209 275.463173 
L 320.178639 264.558065 
L 321.810069 284.594069 
L 323.441498 265.882677 
L 325.072928 285.882226 
L 326.704358 258.955365 
L 328.335788 284.141437 
L 329.967218 283.303909 
L 331.598648 283.596228 
L 333.230078 284.158307 
L 334.861508 284.374305 
L 336.492937 284.345607 
L 338.124367 284.685529 
L 339.755797 283.372027 
L 341.387227 284.020837 
L 343.018657 283.387677 
L 344.650087 283.055926 
L 346.281517 283.747681 
L 347.912947 283.526434 
L 349.544376 283.714971 
L 351.175806 285.58676 
L 352.807236 280.986278 
L 354.438666 283.186252 
L 356.070096 283.194773 
L 357.701526 282.592065 
L 359.332956 285.028483 
L 360.964386 281.271614 
L 362.595815 284.529375 
L 364.227245 283.92756 
L 365.858675 284.047319 
L 367.490105 284.4027 
L 369.121535 284.234125 
L 370.752965 284.625002 
L 372.384395 283.040471 
L 374.015825 284.189946 
L 375.647254 282.642749 
L 377.278684 283.766983 
L 378.910114 287.15001 
L 380.541544 283.150516 
L 382.172974 283.233429 
L 383.804404 285.20055 
L 385.435834 283.388389 
L 388.698693 285.652796 
L 390.330123 283.704522 
L 391.961553 283.681764 
L 393.592983 285.008887 
L 395.224413 288.423218 
L 396.855843 284.623554 
L 398.487273 288.478952 
L 398.487273 288.478952 
" style="fill:none;stroke:#1f77b4;stroke-linecap:square;stroke-width:0.25;"/>
   </g>
   <g id="line2d_19">
    <path clip-path="url(#p3221eaa6d3)" d="M 73.832727 282.59762 
L 75.464157 282.828947 
L 77.095587 282.752379 
L 78.727017 282.872929 
L 80.358447 282.652467 
L 81.989877 282.848857 
L 83.621307 282.738808 
L 85.252736 282.747311 
L 86.884166 282.544593 
L 88.515596 282.539889 
L 90.147026 282.687218 
L 91.778456 282.622962 
L 93.409886 282.794009 
L 98.304175 282.662063 
L 99.935605 282.863334 
L 101.567035 282.527577 
L 103.198465 282.750933 
L 104.829895 282.720886 
L 106.461325 282.866591 
L 108.092755 282.706586 
L 112.987044 282.761975 
L 114.618474 282.742065 
L 116.249904 282.535903 
L 117.881334 282.772653 
L 121.144194 282.759436 
L 124.407053 282.81573 
L 126.038483 282.74116 
L 129.301343 282.871296 
L 130.932773 282.804688 
L 132.564203 282.602147 
L 134.195633 282.795456 
L 139.089922 282.629841 
L 142.352782 282.789482 
L 145.615642 282.673282 
L 148.878502 282.6436 
L 150.509931 282.52432 
L 155.404221 282.695003 
L 160.298511 282.719981 
L 163.56137 282.837992 
L 165.1928 282.706586 
L 166.82423 282.83184 
L 168.45566 282.441424 
L 170.08709 282.819893 
L 173.34995 282.60939 
L 174.98138 282.780251 
L 178.244239 282.814824 
L 181.507099 282.611201 
L 183.138529 282.758353 
L 186.401389 282.665862 
L 188.032819 282.82315 
L 199.452828 282.628689 
L 202.715688 281.093508 
L 204.347117 280.821315 
L 205.978547 280.113159 
L 207.609977 281.348611 
L 209.241407 275.750392 
L 210.872837 278.708621 
L 212.504267 280.431707 
L 214.135697 276.072508 
L 215.767127 278.216058 
L 217.398556 281.543638 
L 219.029986 283.219053 
L 220.661416 278.060463 
L 222.292846 281.716794 
L 223.924276 277.600716 
L 225.555706 282.313693 
L 227.187136 278.452946 
L 228.818566 275.157287 
L 230.449995 265.46472 
L 232.081425 272.81979 
L 233.712855 276.192537 
L 235.344285 272.08539 
L 236.975715 268.685053 
L 238.607145 268.999465 
L 240.238575 268.90783 
L 241.870005 253.683931 
L 243.501434 273.27325 
L 245.132864 269.552636 
L 246.764294 279.684202 
L 248.395724 275.379039 
L 250.027154 270.23104 
L 251.658584 272.428811 
L 253.290014 271.281272 
L 254.921444 265.078294 
L 256.552873 277.756929 
L 258.184303 265.753208 
L 259.815733 268.220785 
L 261.447163 272.336122 
L 263.078593 273.6311 
L 264.710023 275.665179 
L 266.341453 270.465259 
L 267.972883 267.354078 
L 269.604312 270.406232 
L 271.235742 269.67426 
L 272.867172 276.738632 
L 274.498602 265.215277 
L 276.130032 274.54052 
L 277.761462 266.896372 
L 279.392892 274.224203 
L 281.024322 265.269934 
L 282.655751 265.638009 
L 284.287181 268.90338 
L 285.918611 257.982213 
L 287.550041 267.969558 
L 289.181471 275.282678 
L 290.812901 262.533824 
L 292.444331 275.754176 
L 294.075761 258.226624 
L 295.70719 278.361973 
L 297.33862 266.891596 
L 298.97005 267.698481 
L 300.60148 267.911126 
L 302.23291 272.471422 
L 303.86434 266.198746 
L 305.49577 272.995186 
L 307.1272 271.881646 
L 308.75863 263.591796 
L 310.390059 279.541396 
L 312.021489 263.929221 
L 313.652919 271.600985 
L 315.284349 267.350987 
L 316.915779 269.474067 
L 318.547209 269.562361 
L 320.178639 267.912726 
L 321.810069 272.346289 
L 323.441498 266.529096 
L 325.072928 270.92104 
L 326.704358 260.882869 
L 328.335788 275.896085 
L 329.967218 267.700164 
L 331.598648 267.4928 
L 333.230078 276.18144 
L 334.861508 273.650247 
L 336.492937 274.854608 
L 338.124367 267.631703 
L 339.755797 265.722655 
L 341.387227 276.185857 
L 343.018657 275.402741 
L 344.650087 272.16619 
L 346.281517 273.779844 
L 347.912947 275.716398 
L 349.544376 273.247777 
L 351.175806 278.537578 
L 352.807236 261.670724 
L 356.070096 271.070686 
L 357.701526 270.126378 
L 359.332956 276.786924 
L 360.964386 272.668931 
L 362.595815 266.295797 
L 364.227245 278.5207 
L 365.858675 277.737455 
L 367.490105 272.375947 
L 369.121535 272.419509 
L 370.752965 278.915419 
L 372.384395 263.095135 
L 374.015825 276.263634 
L 375.647254 272.284508 
L 377.278684 265.558481 
L 378.910114 275.894274 
L 380.541544 277.394893 
L 382.172974 276.324765 
L 383.804404 271.444001 
L 385.435834 270.786531 
L 387.067264 274.797865 
L 388.698693 282.933336 
L 390.330123 274.823278 
L 391.961553 274.674442 
L 393.592983 280.809728 
L 395.224413 280.996773 
L 396.855843 273.098419 
L 398.487273 283.27429 
L 398.487273 283.27429 
" style="fill:none;stroke:#2ca02c;stroke-linecap:square;stroke-width:0.75;"/>
   </g>
   <g id="patch_3">
    <path d="M 57.6 307.584 
L 57.6 41.472 
" style="fill:none;stroke:#000000;stroke-linecap:square;stroke-linejoin:miter;stroke-width:0.8;"/>
   </g>
   <g id="patch_4">
    <path d="M 414.72 307.584 
L 414.72 41.472 
" style="fill:none;stroke:#000000;stroke-linecap:square;stroke-linejoin:miter;stroke-width:0.8;"/>
   </g>
   <g id="patch_5">
    <path d="M 57.6 307.584 
L 414.72 307.584 
" style="fill:none;stroke:#000000;stroke-linecap:square;stroke-linejoin:miter;stroke-width:0.8;"/>
   </g>
   <g id="patch_6">
    <path d="M 57.6 41.472 
L 414.72 41.472 
" style="fill:none;stroke:#000000;stroke-linecap:square;stroke-linejoin:miter;stroke-width:0.8;"/>
   </g>
   <g id="legend_1">
    <g id="patch_7">
     <path d="M 338.234063 78.82825 
L 407.72 78.82825 
Q 409.72 78.82825 409.72 76.82825 
L 409.72 48.472 
Q 409.72 46.472 407.72 46.472 
L 338.234063 46.472 
Q 336.234063 46.472 336.234063 48.472 
L 336.234063 76.82825 
Q 336.234063 78.82825 338.234063 78.82825 
z
" style="fill:#ffffff;opacity:0.8;stroke:#cccccc;stroke-linejoin:miter;"/>
    </g>
    <g id="line2d_20">
     <path d="M 340.234063 54.570437 
L 360.234063 54.570437 
" style="fill:none;stroke:#1f77b4;stroke-linecap:square;stroke-width:0.25;"/>
    </g>
    <g id="line2d_21"/>
    <g id="text_18">
     <!-- median -->
     <defs>
      <path d="M 52 44.1875 
Q 55.375 50.25 60.0625 53.125 
Q 64.75 56 71.09375 56 
Q 79.640625 56 84.28125 50.015625 
Q 88.921875 44.046875 88.921875 33.015625 
L 88.921875 0 
L 79.890625 0 
L 79.890625 32.71875 
Q 79.890625 40.578125 77.09375 44.375 
Q 74.3125 48.1875 68.609375 48.1875 
Q 61.625 48.1875 57.5625 43.546875 
Q 53.515625 38.921875 53.515625 30.90625 
L 53.515625 0 
L 44.484375 0 
L 44.484375 32.71875 
Q 44.484375 40.625 41.703125 44.40625 
Q 38.921875 48.1875 33.109375 48.1875 
Q 26.21875 48.1875 22.15625 43.53125 
Q 18.109375 38.875 18.109375 30.90625 
L 18.109375 0 
L 9.078125 0 
L 9.078125 54.6875 
L 18.109375 54.6875 
L 18.109375 46.1875 
Q 21.1875 51.21875 25.484375 53.609375 
Q 29.78125 56 35.6875 56 
Q 41.65625 56 45.828125 52.96875 
Q 50 49.953125 52 44.1875 
z
" id="DejaVuSans-109"/>
      <path d="M 56.203125 29.59375 
L 56.203125 25.203125 
L 14.890625 25.203125 
Q 15.484375 15.921875 20.484375 11.0625 
Q 25.484375 6.203125 34.421875 6.203125 
Q 39.59375 6.203125 44.453125 7.46875 
Q 49.3125 8.734375 54.109375 11.28125 
L 54.109375 2.78125 
Q 49.265625 0.734375 44.1875 -0.34375 
Q 39.109375 -1.421875 33.890625 -1.421875 
Q 20.796875 -1.421875 13.15625 6.1875 
Q 5.515625 13.8125 5.515625 26.8125 
Q 5.515625 40.234375 12.765625 48.109375 
Q 20.015625 56 32.328125 56 
Q 43.359375 56 49.78125 48.890625 
Q 56.203125 41.796875 56.203125 29.59375 
z
M 47.21875 32.234375 
Q 47.125 39.59375 43.09375 43.984375 
Q 39.0625 48.390625 32.421875 48.390625 
Q 24.90625 48.390625 20.390625 44.140625 
Q 15.875 39.890625 15.1875 32.171875 
z
" id="DejaVuSans-101"/>
      <path d="M 45.40625 46.390625 
L 45.40625 75.984375 
L 54.390625 75.984375 
L 54.390625 0 
L 45.40625 0 
L 45.40625 8.203125 
Q 42.578125 3.328125 38.25 0.953125 
Q 33.9375 -1.421875 27.875 -1.421875 
Q 17.96875 -1.421875 11.734375 6.484375 
Q 5.515625 14.40625 5.515625 27.296875 
Q 5.515625 40.1875 11.734375 48.09375 
Q 17.96875 56 27.875 56 
Q 33.9375 56 38.25 53.625 
Q 42.578125 51.265625 45.40625 46.390625 
z
M 14.796875 27.296875 
Q 14.796875 17.390625 18.875 11.75 
Q 22.953125 6.109375 30.078125 6.109375 
Q 37.203125 6.109375 41.296875 11.75 
Q 45.40625 17.390625 45.40625 27.296875 
Q 45.40625 37.203125 41.296875 42.84375 
Q 37.203125 48.484375 30.078125 48.484375 
Q 22.953125 48.484375 18.875 42.84375 
Q 14.796875 37.203125 14.796875 27.296875 
z
" id="DejaVuSans-100"/>
      <path d="M 9.421875 54.6875 
L 18.40625 54.6875 
L 18.40625 0 
L 9.421875 0 
z
M 9.421875 75.984375 
L 18.40625 75.984375 
L 18.40625 64.59375 
L 9.421875 64.59375 
z
" id="DejaVuSans-105"/>
      <path d="M 34.28125 27.484375 
Q 23.390625 27.484375 19.1875 25 
Q 14.984375 22.515625 14.984375 16.5 
Q 14.984375 11.71875 18.140625 8.90625 
Q 21.296875 6.109375 26.703125 6.109375 
Q 34.1875 6.109375 38.703125 11.40625 
Q 43.21875 16.703125 43.21875 25.484375 
L 43.21875 27.484375 
z
M 52.203125 31.203125 
L 52.203125 0 
L 43.21875 0 
L 43.21875 8.296875 
Q 40.140625 3.328125 35.546875 0.953125 
Q 30.953125 -1.421875 24.3125 -1.421875 
Q 15.921875 -1.421875 10.953125 3.296875 
Q 6 8.015625 6 15.921875 
Q 6 25.140625 12.171875 29.828125 
Q 18.359375 34.515625 30.609375 34.515625 
L 43.21875 34.515625 
L 43.21875 35.40625 
Q 43.21875 41.609375 39.140625 45 
Q 35.0625 48.390625 27.6875 48.390625 
Q 23 48.390625 18.546875 47.265625 
Q 14.109375 46.140625 10.015625 43.890625 
L 10.015625 52.203125 
Q 14.9375 54.109375 19.578125 55.046875 
Q 24.21875 56 28.609375 56 
Q 40.484375 56 46.34375 49.84375 
Q 52.203125 43.703125 52.203125 31.203125 
z
" id="DejaVuSans-97"/>
      <path d="M 54.890625 33.015625 
L 54.890625 0 
L 45.90625 0 
L 45.90625 32.71875 
Q 45.90625 40.484375 42.875 44.328125 
Q 39.84375 48.1875 33.796875 48.1875 
Q 26.515625 48.1875 22.3125 43.546875 
Q 18.109375 38.921875 18.109375 30.90625 
L 18.109375 0 
L 9.078125 0 
L 9.078125 54.6875 
L 18.109375 54.6875 
L 18.109375 46.1875 
Q 21.34375 51.125 25.703125 53.5625 
Q 30.078125 56 35.796875 56 
Q 45.21875 56 50.046875 50.171875 
Q 54.890625 44.34375 54.890625 33.015625 
z
" id="DejaVuSans-110"/>
     </defs>
     <g transform="translate(368.234063 58.070437)scale(0.1 -0.1)">
      <use xlink:href="#DejaVuSans-109"/>
      <use x="97.412109" xlink:href="#DejaVuSans-101"/>
      <use x="158.935547" xlink:href="#DejaVuSans-100"/>
      <use x="222.412109" xlink:href="#DejaVuSans-105"/>
      <use x="250.195312" xlink:href="#DejaVuSans-97"/>
      <use x="311.474609" xlink:href="#DejaVuSans-110"/>
     </g>
    </g>
    <g id="line2d_22">
     <path d="M 340.234063 69.248562 
L 360.234063 69.248562 
" style="fill:none;stroke:#2ca02c;stroke-linecap:square;stroke-width:0.75;"/>
    </g>
    <g id="line2d_23"/>
    <g id="text_19">
     <!-- mean -->
     <g transform="translate(368.234063 72.748562)scale(0.1 -0.1)">
      <use xlink:href="#DejaVuSans-109"/>
      <use x="97.412109" xlink:href="#DejaVuSans-101"/>
      <use x="158.935547" xlink:href="#DejaVuSans-97"/>
      <use x="220.214844" xlink:href="#DejaVuSans-110"/>
     </g>
    </g>
   </g>
  </g>
  <g id="text_20">
   <!-- log_loss.mean over generations -->
   <defs>
    <path d="M 9.421875 75.984375 
L 18.40625 75.984375 
L 18.40625 0 
L 9.421875 0 
z
" id="DejaVuSans-108"/>
    <path d="M 30.609375 48.390625 
Q 23.390625 48.390625 19.1875 42.75 
Q 14.984375 37.109375 14.984375 27.296875 
Q 14.984375 17.484375 19.15625 11.84375 
Q 23.34375 6.203125 30.609375 6.203125 
Q 37.796875 6.203125 41.984375 11.859375 
Q 46.1875 17.53125 46.1875 27.296875 
Q 46.1875 37.015625 41.984375 42.703125 
Q 37.796875 48.390625 30.609375 48.390625 
z
M 30.609375 56 
Q 42.328125 56 49.015625 48.375 
Q 55.71875 40.765625 55.71875 27.296875 
Q 55.71875 13.875 49.015625 6.21875 
Q 42.328125 -1.421875 30.609375 -1.421875 
Q 18.84375 -1.421875 12.171875 6.21875 
Q 5.515625 13.875 5.515625 27.296875 
Q 5.515625 40.765625 12.171875 48.375 
Q 18.84375 56 30.609375 56 
z
" id="DejaVuSans-111"/>
    <path d="M 45.40625 27.984375 
Q 45.40625 37.75 41.375 43.109375 
Q 37.359375 48.484375 30.078125 48.484375 
Q 22.859375 48.484375 18.828125 43.109375 
Q 14.796875 37.75 14.796875 27.984375 
Q 14.796875 18.265625 18.828125 12.890625 
Q 22.859375 7.515625 30.078125 7.515625 
Q 37.359375 7.515625 41.375 12.890625 
Q 45.40625 18.265625 45.40625 27.984375 
z
M 54.390625 6.78125 
Q 54.390625 -7.171875 48.1875 -13.984375 
Q 42 -20.796875 29.203125 -20.796875 
Q 24.46875 -20.796875 20.265625 -20.09375 
Q 16.0625 -19.390625 12.109375 -17.921875 
L 12.109375 -9.1875 
Q 16.0625 -11.328125 19.921875 -12.34375 
Q 23.78125 -13.375 27.78125 -13.375 
Q 36.625 -13.375 41.015625 -8.765625 
Q 45.40625 -4.15625 45.40625 5.171875 
L 45.40625 9.625 
Q 42.625 4.78125 38.28125 2.390625 
Q 33.9375 0 27.875 0 
Q 17.828125 0 11.671875 7.65625 
Q 5.515625 15.328125 5.515625 27.984375 
Q 5.515625 40.671875 11.671875 48.328125 
Q 17.828125 56 27.875 56 
Q 33.9375 56 38.28125 53.609375 
Q 42.625 51.21875 45.40625 46.390625 
L 45.40625 54.6875 
L 54.390625 54.6875 
z
" id="DejaVuSans-103"/>
    <path d="M 50.984375 -16.609375 
L 50.984375 -23.578125 
L -0.984375 -23.578125 
L -0.984375 -16.609375 
z
" id="DejaVuSans-95"/>
    <path d="M 44.28125 53.078125 
L 44.28125 44.578125 
Q 40.484375 46.53125 36.375 47.5 
Q 32.28125 48.484375 27.875 48.484375 
Q 21.1875 48.484375 17.84375 46.4375 
Q 14.5 44.390625 14.5 40.28125 
Q 14.5 37.15625 16.890625 35.375 
Q 19.28125 33.59375 26.515625 31.984375 
L 29.59375 31.296875 
Q 39.15625 29.25 43.1875 25.515625 
Q 47.21875 21.78125 47.21875 15.09375 
Q 47.21875 7.46875 41.1875 3.015625 
Q 35.15625 -1.421875 24.609375 -1.421875 
Q 20.21875 -1.421875 15.453125 -0.5625 
Q 10.6875 0.296875 5.421875 2 
L 5.421875 11.28125 
Q 10.40625 8.6875 15.234375 7.390625 
Q 20.0625 6.109375 24.8125 6.109375 
Q 31.15625 6.109375 34.5625 8.28125 
Q 37.984375 10.453125 37.984375 14.40625 
Q 37.984375 18.0625 35.515625 20.015625 
Q 33.0625 21.96875 24.703125 23.78125 
L 21.578125 24.515625 
Q 13.234375 26.265625 9.515625 29.90625 
Q 5.8125 33.546875 5.8125 39.890625 
Q 5.8125 47.609375 11.28125 51.796875 
Q 16.75 56 26.8125 56 
Q 31.78125 56 36.171875 55.265625 
Q 40.578125 54.546875 44.28125 53.078125 
z
" id="DejaVuSans-115"/>
    <path d="M 10.6875 12.40625 
L 21 12.40625 
L 21 0 
L 10.6875 0 
z
" id="DejaVuSans-46"/>
    <path id="DejaVuSans-32"/>
    <path d="M 2.984375 54.6875 
L 12.5 54.6875 
L 29.59375 8.796875 
L 46.6875 54.6875 
L 56.203125 54.6875 
L 35.6875 0 
L 23.484375 0 
z
" id="DejaVuSans-118"/>
    <path d="M 41.109375 46.296875 
Q 39.59375 47.171875 37.8125 47.578125 
Q 36.03125 48 33.890625 48 
Q 26.265625 48 22.1875 43.046875 
Q 18.109375 38.09375 18.109375 28.8125 
L 18.109375 0 
L 9.078125 0 
L 9.078125 54.6875 
L 18.109375 54.6875 
L 18.109375 46.1875 
Q 20.953125 51.171875 25.484375 53.578125 
Q 30.03125 56 36.53125 56 
Q 37.453125 56 38.578125 55.875 
Q 39.703125 55.765625 41.0625 55.515625 
z
" id="DejaVuSans-114"/>
    <path d="M 18.3125 70.21875 
L 18.3125 54.6875 
L 36.8125 54.6875 
L 36.8125 47.703125 
L 18.3125 47.703125 
L 18.3125 18.015625 
Q 18.3125 11.328125 20.140625 9.421875 
Q 21.96875 7.515625 27.59375 7.515625 
L 36.8125 7.515625 
L 36.8125 0 
L 27.59375 0 
Q 17.1875 0 13.234375 3.875 
Q 9.28125 7.765625 9.28125 18.015625 
L 9.28125 47.703125 
L 2.6875 47.703125 
L 2.6875 54.6875 
L 9.28125 54.6875 
L 9.28125 70.21875 
z
" id="DejaVuSans-116"/>
   </defs>
   <g transform="translate(134.789062 16.030125)scale(0.12 -0.12)">
    <use xlink:href="#DejaVuSans-108"/>
    <use x="27.783203" xlink:href="#DejaVuSans-111"/>
    <use x="88.964844" xlink:href="#DejaVuSans-103"/>
    <use x="152.441406" xlink:href="#DejaVuSans-95"/>
    <use x="202.441406" xlink:href="#DejaVuSans-108"/>
    <use x="230.224609" xlink:href="#DejaVuSans-111"/>
    <use x="291.40625" xlink:href="#DejaVuSans-115"/>
    <use x="343.505859" xlink:href="#DejaVuSans-115"/>
    <use x="395.605469" xlink:href="#DejaVuSans-46"/>
    <use x="427.392578" xlink:href="#DejaVuSans-109"/>
    <use x="524.804688" xlink:href="#DejaVuSans-101"/>
    <use x="586.328125" xlink:href="#DejaVuSans-97"/>
    <use x="647.607422" xlink:href="#DejaVuSans-110"/>
    <use x="710.986328" xlink:href="#DejaVuSans-32"/>
    <use x="742.773438" xlink:href="#DejaVuSans-111"/>
    <use x="803.955078" xlink:href="#DejaVuSans-118"/>
    <use x="863.134766" xlink:href="#DejaVuSans-101"/>
    <use x="924.658203" xlink:href="#DejaVuSans-114"/>
    <use x="965.771484" xlink:href="#DejaVuSans-32"/>
    <use x="997.558594" xlink:href="#DejaVuSans-103"/>
    <use x="1061.035156" xlink:href="#DejaVuSans-101"/>
    <use x="1122.558594" xlink:href="#DejaVuSans-110"/>
    <use x="1185.9375" xlink:href="#DejaVuSans-101"/>
    <use x="1247.460938" xlink:href="#DejaVuSans-114"/>
    <use x="1288.574219" xlink:href="#DejaVuSans-97"/>
    <use x="1349.853516" xlink:href="#DejaVuSans-116"/>
    <use x="1389.0625" xlink:href="#DejaVuSans-105"/>
    <use x="1416.845703" xlink:href="#DejaVuSans-111"/>
    <use x="1478.027344" xlink:href="#DejaVuSans-110"/>
    <use x="1541.40625" xlink:href="#DejaVuSans-115"/>
   </g>
  </g>
 </g>
 <defs>
  <clipPath id="p3221eaa6d3">
   <rect height="266.112" width="357.12" x="57.6" y="41.472"/>
  </clipPath>
 </defs>
</svg>
