<?xml version="1.0" encoding="utf-8" standalone="no"?>
<!DOCTYPE svg PUBLIC "-//W3C//DTD SVG 1.1//EN"
  "http://www.w3.org/Graphics/SVG/1.1/DTD/svg11.dtd">
<!-- Created with matplotlib (https://matplotlib.org/) -->
<svg height="345.6pt" version="1.1" viewBox="0 0 460.8 345.6" width="460.8pt" xmlns="http://www.w3.org/2000/svg" xmlns:xlink="http://www.w3.org/1999/xlink">
 <defs>
  <style type="text/css">
*{stroke-linecap:butt;stroke-linejoin:round;}
  </style>
 </defs>
 <g id="figure_1">
  <g id="patch_1">
   <path d="M 0 345.6 
L 460.8 345.6 
L 460.8 0 
L 0 0 
z
" style="fill:#ffffff;"/>
  </g>
  <g id="axes_1">
   <g id="patch_2">
    <path clip-path="url(#p35561bcd8c)" d="M 88.589752 111.358774 
Q 124.368827 155.473998 160.147902 199.589221 
" style="fill:none;stroke:#000000;stroke-linecap:round;stroke-opacity:0.9;stroke-width:0.4;"/>
   </g>
   <g id="patch_3">
    <path clip-path="url(#p35561bcd8c)" d="M 88.589752 111.358774 
Q 234.396885 100.931904 380.204018 90.505033 
" style="fill:none;stroke:#000000;stroke-linecap:round;stroke-opacity:0.9;stroke-width:0.4;"/>
   </g>
   <g id="patch_4">
    <path clip-path="url(#p35561bcd8c)" d="M 88.589752 169.149548 
Q 123.872318 185.018192 159.154883 200.886837 
" style="fill:none;stroke:#000000;stroke-linecap:round;stroke-opacity:0.9;stroke-width:0.4;"/>
   </g>
   <g id="patch_5">
    <path clip-path="url(#p35561bcd8c)" d="M 88.589752 169.149548 
Q 234.392382 169.149548 380.195011 169.149548 
" style="fill:none;stroke:#000000;stroke-linecap:round;stroke-opacity:0.9;stroke-width:0.4;"/>
   </g>
   <g id="patch_6">
    <path clip-path="url(#p35561bcd8c)" d="M 88.589752 169.149548 
Q 234.450927 208.141021 380.312102 247.132493 
" style="fill:none;stroke:#000000;stroke-linecap:round;stroke-opacity:0.9;stroke-width:0.4;"/>
   </g>
   <g id="patch_7">
    <path clip-path="url(#p35561bcd8c)" d="M 88.589752 226.940322 
Q 124.368827 182.825099 160.147902 138.709875 
" style="fill:none;stroke:#000000;stroke-linecap:round;stroke-opacity:0.9;stroke-width:0.4;"/>
   </g>
   <g id="patch_8">
    <path clip-path="url(#p35561bcd8c)" d="M 88.589752 226.940322 
Q 124.731921 149.866891 160.874089 72.79346 
" style="fill:none;stroke:#000000;stroke-linecap:round;stroke-opacity:0.9;stroke-width:0.4;"/>
   </g>
   <g id="patch_9">
    <path clip-path="url(#p35561bcd8c)" d="M 88.589752 226.940322 
Q 197.556676 198.491576 306.5236 170.042829 
" style="fill:none;stroke:#000000;stroke-linecap:round;stroke-opacity:0.9;stroke-width:0.4;"/>
   </g>
   <g id="patch_10">
    <path clip-path="url(#p35561bcd8c)" d="M 88.589752 226.940322 
Q 234.396885 237.367193 380.204018 247.794063 
" style="fill:none;stroke:#000000;stroke-linecap:round;stroke-opacity:0.9;stroke-width:0.4;"/>
   </g>
   <g id="patch_11">
    <path clip-path="url(#p35561bcd8c)" d="M 88.589752 284.731096 
Q 124.303526 244.849432 160.017301 204.967767 
" style="fill:none;stroke:#000000;stroke-linecap:round;stroke-opacity:0.9;stroke-width:0.4;"/>
   </g>
   <g id="patch_12">
    <path clip-path="url(#p35561bcd8c)" d="M 88.589752 284.731096 
Q 123.755227 277.093683 158.920702 269.45627 
" style="fill:none;stroke:#000000;stroke-linecap:round;stroke-opacity:0.9;stroke-width:0.4;"/>
   </g>
   <g id="patch_13">
    <path clip-path="url(#p35561bcd8c)" d="M 88.589752 284.731096 
Q 160.760376 252.549378 232.931 220.36766 
" style="fill:none;stroke:#000000;stroke-linecap:round;stroke-opacity:0.9;stroke-width:0.4;"/>
   </g>
   <g id="patch_14">
    <path clip-path="url(#p35561bcd8c)" d="M 162.374876 135.964039 
Q 271.321534 113.465921 380.268193 90.967802 
" style="fill:none;stroke:#000000;stroke-linecap:round;stroke-opacity:0.9;stroke-width:0.4;"/>
   </g>
   <g id="patch_15">
    <path clip-path="url(#p35561bcd8c)" d="M 162.374876 69.593021 
Q 198.484394 142.675603 234.593913 215.758184 
" style="fill:none;stroke:#000000;stroke-linecap:round;stroke-opacity:0.9;stroke-width:0.4;"/>
   </g>
   <g id="patch_16">
    <path clip-path="url(#p35561bcd8c)" d="M 162.374876 69.593021 
Q 271.291136 79.758545 380.207396 89.924068 
" style="fill:none;stroke:#000000;stroke-linecap:round;stroke-opacity:0.9;stroke-width:0.4;"/>
   </g>
   <g id="patch_17">
    <path clip-path="url(#p35561bcd8c)" d="M 162.374876 69.593021 
Q 271.439751 118.645909 380.504626 167.698796 
" style="fill:none;stroke:#000000;stroke-linecap:round;stroke-opacity:0.9;stroke-width:0.4;"/>
   </g>
   <g id="patch_18">
    <path clip-path="url(#p35561bcd8c)" d="M 162.374876 202.335057 
Q 198.093154 162.173532 233.811432 122.012008 
" style="fill:none;stroke:#000000;stroke-linecap:round;stroke-opacity:0.9;stroke-width:0.4;"/>
   </g>
   <g id="patch_19">
    <path clip-path="url(#p35561bcd8c)" d="M 162.374876 202.335057 
Q 271.304646 186.004349 380.234416 169.673642 
" style="fill:none;stroke:#000000;stroke-linecap:round;stroke-opacity:0.9;stroke-width:0.4;"/>
   </g>
   <g id="patch_20">
    <path clip-path="url(#p35561bcd8c)" d="M 162.374876 268.706075 
Q 271.676184 180.589085 380.977492 92.472096 
" style="fill:none;stroke:#000000;stroke-linecap:round;stroke-opacity:0.9;stroke-width:0.4;"/>
   </g>
   <g id="patch_21">
    <path clip-path="url(#p35561bcd8c)" d="M 236.16 218.927811 
Q 271.587803 195.026862 307.015606 171.125913 
" style="fill:none;stroke:#000000;stroke-linecap:round;stroke-opacity:0.9;stroke-width:0.4;"/>
   </g>
   <g id="patch_22">
    <path clip-path="url(#p35561bcd8c)" d="M 236.16 218.927811 
Q 308.613218 155.751705 381.066436 92.575598 
" style="fill:none;stroke:#000000;stroke-linecap:round;stroke-opacity:0.9;stroke-width:0.4;"/>
   </g>
   <g id="patch_23">
    <path clip-path="url(#p35561bcd8c)" d="M 236.16 218.927811 
Q 308.272079 194.60303 380.384157 170.278248 
" style="fill:none;stroke:#000000;stroke-linecap:round;stroke-opacity:0.9;stroke-width:0.4;"/>
   </g>
   <g id="patch_24">
    <path clip-path="url(#p35561bcd8c)" d="M 236.16 119.371285 
Q 308.20903 105.15464 380.25806 90.937996 
" style="fill:none;stroke:#000000;stroke-linecap:round;stroke-opacity:0.9;stroke-width:0.4;"/>
   </g>
   <g id="patch_25">
    <path clip-path="url(#p35561bcd8c)" d="M 309.945124 169.149548 
Q 345.629626 207.306138 381.314127 245.462729 
" style="fill:none;stroke:#000000;stroke-linecap:round;stroke-opacity:0.9;stroke-width:0.4;"/>
   </g>
   <g id="PathCollection_1">
    <defs>
     <path d="M 0 3.535534 
C 0.937635 3.535534 1.836992 3.163008 2.5 2.5 
C 3.163008 1.836992 3.535534 0.937635 3.535534 0 
C 3.535534 -0.937635 3.163008 -1.836992 2.5 -2.5 
C 1.836992 -3.163008 0.937635 -3.535534 0 -3.535534 
C -0.937635 -3.535534 -1.836992 -3.163008 -2.5 -2.5 
C -3.163008 -1.836992 -3.535534 -0.937635 -3.535534 0 
C -3.535534 0.937635 -3.163008 1.836992 -2.5 2.5 
C -1.836992 3.163008 -0.937635 3.535534 0 3.535534 
z
" id="C0_0_377e879621"/>
    </defs>
    <g clip-path="url(#p35561bcd8c)">
     <use style="fill:#fdb462;fill-opacity:0.9;" x="88.589752" xlink:href="#C0_0_377e879621" y="53.568"/>
    </g>
    <g clip-path="url(#p35561bcd8c)">
     <use style="fill:#fdb462;fill-opacity:0.9;" x="88.589752" xlink:href="#C0_0_377e879621" y="111.358774"/>
    </g>
    <g clip-path="url(#p35561bcd8c)">
     <use style="fill:#fdb462;fill-opacity:0.9;" x="88.589752" xlink:href="#C0_0_377e879621" y="169.149548"/>
    </g>
    <g clip-path="url(#p35561bcd8c)">
     <use style="fill:#fdb462;fill-opacity:0.9;" x="88.589752" xlink:href="#C0_0_377e879621" y="226.940322"/>
    </g>
    <g clip-path="url(#p35561bcd8c)">
     <use style="fill:#ffed6f;fill-opacity:0.9;" x="88.589752" xlink:href="#C0_0_377e879621" y="284.731096"/>
    </g>
    <g clip-path="url(#p35561bcd8c)">
     <use style="fill:#80b1d3;fill-opacity:0.9;" x="162.374876" xlink:href="#C0_0_377e879621" y="135.964039"/>
    </g>
    <g clip-path="url(#p35561bcd8c)">
     <use style="fill:#80b1d3;fill-opacity:0.9;" x="162.374876" xlink:href="#C0_0_377e879621" y="69.593021"/>
    </g>
    <g clip-path="url(#p35561bcd8c)">
     <use style="fill:#80b1d3;fill-opacity:0.9;" x="162.374876" xlink:href="#C0_0_377e879621" y="202.335057"/>
    </g>
    <g clip-path="url(#p35561bcd8c)">
     <use style="fill:#80b1d3;fill-opacity:0.9;" x="162.374876" xlink:href="#C0_0_377e879621" y="268.706075"/>
    </g>
    <g clip-path="url(#p35561bcd8c)">
     <use style="fill:#80b1d3;fill-opacity:0.9;" x="236.16" xlink:href="#C0_0_377e879621" y="218.927811"/>
    </g>
    <g clip-path="url(#p35561bcd8c)">
     <use style="fill:#80b1d3;fill-opacity:0.9;" x="236.16" xlink:href="#C0_0_377e879621" y="119.371285"/>
    </g>
    <g clip-path="url(#p35561bcd8c)">
     <use style="fill:#80b1d3;fill-opacity:0.9;" x="309.945124" xlink:href="#C0_0_377e879621" y="169.149548"/>
    </g>
    <g clip-path="url(#p35561bcd8c)">
     <use style="fill:#b3de69;fill-opacity:0.9;" x="383.730248" xlink:href="#C0_0_377e879621" y="90.252867"/>
    </g>
    <g clip-path="url(#p35561bcd8c)">
     <use style="fill:#b3de69;fill-opacity:0.9;" x="383.730248" xlink:href="#C0_0_377e879621" y="169.149548"/>
    </g>
    <g clip-path="url(#p35561bcd8c)">
     <use style="fill:#b3de69;fill-opacity:0.9;" x="383.730248" xlink:href="#C0_0_377e879621" y="248.046229"/>
    </g>
   </g>
  </g>
 </g>
 <defs>
  <clipPath id="p35561bcd8c">
   <rect height="266.112" width="357.12" x="57.6" y="41.472"/>
  </clipPath>
 </defs>
</svg>
