<?xml version="1.0" encoding="utf-8" standalone="no"?>
<!DOCTYPE svg PUBLIC "-//W3C//DTD SVG 1.1//EN"
  "http://www.w3.org/Graphics/SVG/1.1/DTD/svg11.dtd">
<!-- Created with matplotlib (https://matplotlib.org/) -->
<svg height="345.6pt" version="1.1" viewBox="0 0 460.8 345.6" width="460.8pt" xmlns="http://www.w3.org/2000/svg" xmlns:xlink="http://www.w3.org/1999/xlink">
 <defs>
  <style type="text/css">
*{stroke-linecap:butt;stroke-linejoin:round;}
  </style>
 </defs>
 <g id="figure_1">
  <g id="patch_1">
   <path d="M 0 345.6 
L 460.8 345.6 
L 460.8 0 
L 0 0 
z
" style="fill:#ffffff;"/>
  </g>
  <g id="axes_1">
   <g id="patch_2">
    <path d="M 57.6 307.584 
L 414.72 307.584 
L 414.72 41.472 
L 57.6 41.472 
z
" style="fill:#ffffff;"/>
   </g>
   <g id="PolyCollection_1">
    <path clip-path="url(#p2346d7ab0a)" d="M 73.832727 207.453066 
L 73.832727 207.453066 
L 75.464157 207.453066 
L 77.095587 207.453066 
L 78.727017 207.453066 
L 80.358447 207.453066 
L 81.989877 207.453066 
L 83.621307 207.453066 
L 85.252736 207.453066 
L 86.884166 207.453066 
L 88.515596 207.453066 
L 90.147026 207.453066 
L 91.778456 207.453066 
L 93.409886 207.453066 
L 95.041316 207.453066 
L 96.672746 207.453066 
L 98.304175 207.453066 
L 99.935605 207.453066 
L 101.567035 207.453066 
L 103.198465 207.453066 
L 104.829895 207.453066 
L 106.461325 207.453066 
L 108.092755 207.453066 
L 109.724185 207.453066 
L 111.355614 207.453066 
L 112.987044 207.453066 
L 114.618474 207.453066 
L 116.249904 207.453066 
L 117.881334 207.453066 
L 119.512764 207.453066 
L 121.144194 207.453066 
L 122.775624 207.453066 
L 124.407053 207.453066 
L 126.038483 207.453066 
L 127.669913 207.453066 
L 129.301343 207.453066 
L 130.932773 207.453066 
L 132.564203 207.453066 
L 134.195633 207.453066 
L 135.827063 207.453066 
L 137.458492 207.453066 
L 139.089922 207.453066 
L 140.721352 207.453066 
L 142.352782 207.453066 
L 143.984212 207.453066 
L 145.615642 207.453066 
L 147.247072 207.453066 
L 148.878502 207.453066 
L 150.509931 207.453066 
L 152.141361 207.453066 
L 153.772791 207.453066 
L 155.404221 207.453066 
L 157.035651 207.453066 
L 158.667081 207.453066 
L 160.298511 207.453066 
L 161.929941 207.453066 
L 163.56137 207.453066 
L 165.1928 207.453066 
L 166.82423 207.453066 
L 168.45566 207.453066 
L 170.08709 207.453066 
L 171.71852 207.453066 
L 173.34995 207.453066 
L 174.98138 207.453066 
L 176.61281 207.453066 
L 178.244239 207.453066 
L 179.875669 207.453066 
L 181.507099 207.453066 
L 183.138529 207.453066 
L 184.769959 207.453066 
L 186.401389 207.453066 
L 188.032819 207.453066 
L 189.664249 207.453066 
L 191.295678 207.453066 
L 192.927108 207.453066 
L 194.558538 207.453066 
L 196.189968 207.453066 
L 197.821398 207.453066 
L 199.452828 207.453066 
L 201.084258 207.453066 
L 202.715688 207.453066 
L 204.347117 207.453066 
L 205.978547 207.453066 
L 207.609977 207.453066 
L 209.241407 205.780402 
L 210.872837 207.453066 
L 212.504267 207.453066 
L 214.135697 187.3811 
L 215.767127 174.968175 
L 217.398556 207.453066 
L 219.029986 177.521188 
L 220.661416 199.705991 
L 222.292846 204.723983 
L 223.924276 199.705991 
L 225.555706 192.311057 
L 227.187136 207.453066 
L 228.818566 204.988087 
L 230.449995 195.920489 
L 232.081425 195.198603 
L 233.712855 194.943721 
L 235.344285 207.453066 
L 236.975715 195.128175 
L 238.607145 207.453066 
L 240.238575 207.453066 
L 241.870005 203.491493 
L 243.501434 187.645205 
L 245.132864 194.461624 
L 246.764294 185.215289 
L 248.395724 199.882061 
L 250.027154 193.367476 
L 251.658584 184.080191 
L 253.290014 207.453066 
L 254.921444 197.593153 
L 256.552873 207.453066 
L 258.184303 207.453066 
L 259.815733 207.453066 
L 261.447163 207.453066 
L 263.078593 207.453066 
L 264.710023 181.8349 
L 266.341453 207.453066 
L 267.972883 199.705991 
L 269.604312 187.028961 
L 271.235742 202.435074 
L 272.867172 201.46669 
L 274.498602 207.453066 
L 276.130032 204.988087 
L 277.761462 207.453066 
L 279.392892 186.601362 
L 281.024322 190.149799 
L 282.655751 207.453066 
L 284.287181 199.353852 
L 285.918611 201.46669 
L 287.550041 207.453066 
L 289.181471 194.071755 
L 290.812901 207.453066 
L 292.444331 207.453066 
L 294.075761 193.895895 
L 295.70719 207.453066 
L 297.33862 189.551162 
L 298.97005 199.353852 
L 300.60148 194.243824 
L 302.23291 193.895686 
L 303.86434 197.152978 
L 305.49577 207.453066 
L 307.1272 191.958917 
L 308.75863 205.692367 
L 310.390059 184.211843 
L 312.021489 193.929642 
L 313.652919 189.493939 
L 315.284349 187.116996 
L 316.915779 191.782847 
L 318.547209 179.224472 
L 320.178639 206.044507 
L 321.810069 189.229834 
L 323.441498 192.311057 
L 325.072928 179.634026 
L 326.704358 199.705991 
L 328.335788 198.649572 
L 329.967218 186.998148 
L 331.598648 207.453066 
L 333.230078 201.46669 
L 334.861508 196.938632 
L 336.492937 192.839266 
L 338.124367 185.620402 
L 339.755797 207.453066 
L 341.387227 203.931668 
L 343.018657 202.875249 
L 344.650087 198.577543 
L 346.281517 193.367476 
L 347.912947 192.487127 
L 349.544376 199.882061 
L 351.175806 205.692367 
L 352.807236 205.076122 
L 354.438666 207.453066 
L 356.070096 184.563983 
L 357.701526 188.08538 
L 359.332956 191.844472 
L 360.964386 197.945293 
L 362.595815 195.480314 
L 364.227245 177.661243 
L 365.858675 190.198218 
L 367.490105 207.453066 
L 369.121535 207.453066 
L 370.752965 188.142603 
L 372.384395 200.850445 
L 374.015825 207.453066 
L 375.647254 182.107808 
L 377.278684 189.846079 
L 378.910114 194.1011 
L 380.541544 203.667563 
L 382.172974 206.748786 
L 383.804404 207.453066 
L 385.435834 207.453066 
L 387.067264 198.385467 
L 388.698693 192.311057 
L 390.330123 199.353852 
L 391.961553 193.191406 
L 393.592983 207.453066 
L 395.224413 207.453066 
L 396.855843 207.453066 
L 398.487273 206.396646 
L 398.487273 156.304769 
L 398.487273 156.304769 
L 396.855843 157.713328 
L 395.224413 158.153502 
L 393.592983 207.453066 
L 391.961553 172.503196 
L 390.330123 145.63674 
L 388.698693 172.239092 
L 387.067264 157.009048 
L 385.435834 177.873328 
L 383.804404 197.189659 
L 382.172974 149.350009 
L 380.541544 189.846079 
L 378.910114 172.239092 
L 377.278684 160.61848 
L 375.647254 129.101974 
L 374.015825 177.873328 
L 372.384395 155.688524 
L 370.752965 150.758568 
L 369.121535 190.198218 
L 367.490105 165.474487 
L 365.858675 156.040664 
L 364.227245 172.239092 
L 362.595815 172.591231 
L 360.964386 144.067913 
L 359.332956 154.456035 
L 357.701526 167.661275 
L 356.070096 152.695336 
L 354.438666 151.991057 
L 352.807236 173.647651 
L 351.175806 157.185118 
L 349.544376 170.302323 
L 347.912947 173.295511 
L 346.281517 154.632105 
L 344.650087 172.239092 
L 343.018657 172.239092 
L 341.387227 171.534812 
L 339.755797 154.632105 
L 338.124367 137.062847 
L 336.492937 142.043109 
L 334.861508 151.810585 
L 333.230078 143.715773 
L 331.598648 163.083459 
L 329.967218 124.153803 
L 328.335788 138.048524 
L 326.704358 157.656364 
L 325.072928 144.067913 
L 323.441498 161.6749 
L 321.810069 156.921013 
L 320.178639 158.548821 
L 318.547209 124.564507 
L 316.915779 150.758568 
L 315.284349 147.350358 
L 313.652919 149.261974 
L 312.021489 172.503196 
L 310.390059 158.417607 
L 308.75863 189.846079 
L 307.1272 144.772192 
L 305.49577 172.503196 
L 303.86434 175.408349 
L 302.23291 154.632105 
L 300.60148 158.945817 
L 298.97005 172.239092 
L 297.33862 155.336384 
L 295.70719 146.885031 
L 294.075761 162.027039 
L 292.444331 172.239092 
L 290.812901 162.027039 
L 289.181471 155.952629 
L 287.550041 146.885031 
L 285.918611 138.081537 
L 284.287181 146.885031 
L 282.655751 172.239092 
L 281.024322 155.776559 
L 279.392892 156.040664 
L 277.761462 162.457432 
L 276.130032 189.846079 
L 274.498602 189.846079 
L 272.867172 156.568873 
L 271.235742 154.632105 
L 269.604312 155.688524 
L 267.972883 162.027039 
L 266.341453 172.239092 
L 264.710023 137.377258 
L 263.078593 162.349834 
L 261.447163 207.453066 
L 259.815733 172.239092 
L 258.184303 172.239092 
L 256.552873 207.453066 
L 254.921444 158.215979 
L 253.290014 189.846079 
L 251.658584 154.632105 
L 250.027154 172.239092 
L 248.395724 154.632105 
L 246.764294 137.025118 
L 245.132864 172.239092 
L 243.501434 172.239092 
L 241.870005 189.846079 
L 240.238575 189.846079 
L 238.607145 139.137956 
L 236.975715 157.801362 
L 235.344285 189.846079 
L 233.712855 149.702148 
L 232.081425 162.027039 
L 230.449995 146.885031 
L 228.818566 172.239092 
L 227.187136 189.846079 
L 225.555706 172.239092 
L 223.924276 157.097083 
L 222.292846 172.239092 
L 220.661416 189.846079 
L 219.029986 154.632105 
L 217.398556 155.139999 
L 215.767127 137.025118 
L 214.135697 135.880664 
L 212.504267 172.239092 
L 210.872837 162.027039 
L 209.241407 177.129432 
L 207.609977 156.921013 
L 205.978547 205.155773 
L 204.347117 207.453066 
L 202.715688 207.453066 
L 201.084258 207.453066 
L 199.452828 207.453066 
L 197.821398 207.453066 
L 196.189968 207.453066 
L 194.558538 207.453066 
L 192.927108 207.453066 
L 191.295678 207.453066 
L 189.664249 207.453066 
L 188.032819 207.453066 
L 186.401389 207.453066 
L 184.769959 207.453066 
L 183.138529 207.453066 
L 181.507099 207.453066 
L 179.875669 207.453066 
L 178.244239 207.453066 
L 176.61281 207.453066 
L 174.98138 207.453066 
L 173.34995 207.453066 
L 171.71852 207.453066 
L 170.08709 207.453066 
L 168.45566 207.453066 
L 166.82423 207.453066 
L 165.1928 207.453066 
L 163.56137 207.453066 
L 161.929941 207.453066 
L 160.298511 207.453066 
L 158.667081 207.453066 
L 157.035651 207.453066 
L 155.404221 207.453066 
L 153.772791 207.453066 
L 152.141361 207.453066 
L 150.509931 207.453066 
L 148.878502 207.453066 
L 147.247072 207.453066 
L 145.615642 207.453066 
L 143.984212 207.453066 
L 142.352782 207.453066 
L 140.721352 207.453066 
L 139.089922 207.453066 
L 137.458492 207.453066 
L 135.827063 207.453066 
L 134.195633 207.453066 
L 132.564203 207.453066 
L 130.932773 207.453066 
L 129.301343 207.453066 
L 127.669913 207.453066 
L 126.038483 207.453066 
L 124.407053 207.453066 
L 122.775624 207.453066 
L 121.144194 207.453066 
L 119.512764 207.453066 
L 117.881334 207.453066 
L 116.249904 207.453066 
L 114.618474 207.453066 
L 112.987044 207.453066 
L 111.355614 207.453066 
L 109.724185 207.453066 
L 108.092755 207.453066 
L 106.461325 207.453066 
L 104.829895 207.453066 
L 103.198465 207.453066 
L 101.567035 207.453066 
L 99.935605 207.453066 
L 98.304175 207.453066 
L 96.672746 207.453066 
L 95.041316 207.453066 
L 93.409886 207.453066 
L 91.778456 207.453066 
L 90.147026 207.453066 
L 88.515596 207.453066 
L 86.884166 207.453066 
L 85.252736 207.453066 
L 83.621307 207.453066 
L 81.989877 207.453066 
L 80.358447 207.453066 
L 78.727017 207.453066 
L 77.095587 207.453066 
L 75.464157 207.453066 
L 73.832727 207.453066 
z
" style="fill:#1f77b4;fill-opacity:0.2;"/>
   </g>
   <g id="PolyCollection_2">
    <path clip-path="url(#p2346d7ab0a)" d="M 73.832727 207.453066 
L 73.832727 207.453066 
L 75.464157 207.453066 
L 77.095587 207.453066 
L 78.727017 207.453066 
L 80.358447 207.453066 
L 81.989877 207.453066 
L 83.621307 207.453066 
L 85.252736 207.453066 
L 86.884166 207.453066 
L 88.515596 207.453066 
L 90.147026 207.453066 
L 91.778456 207.453066 
L 93.409886 207.453066 
L 95.041316 207.453066 
L 96.672746 207.453066 
L 98.304175 207.453066 
L 99.935605 207.453066 
L 101.567035 207.453066 
L 103.198465 207.453066 
L 104.829895 207.453066 
L 106.461325 207.453066 
L 108.092755 207.453066 
L 109.724185 207.453066 
L 111.355614 207.453066 
L 112.987044 207.453066 
L 114.618474 207.453066 
L 116.249904 207.453066 
L 117.881334 207.453066 
L 119.512764 207.453066 
L 121.144194 207.453066 
L 122.775624 207.453066 
L 124.407053 207.453066 
L 126.038483 207.453066 
L 127.669913 207.453066 
L 129.301343 207.453066 
L 130.932773 207.453066 
L 132.564203 207.453066 
L 134.195633 207.453066 
L 135.827063 207.453066 
L 137.458492 207.453066 
L 139.089922 207.453066 
L 140.721352 207.453066 
L 142.352782 207.453066 
L 143.984212 207.453066 
L 145.615642 207.453066 
L 147.247072 207.453066 
L 148.878502 207.453066 
L 150.509931 207.453066 
L 152.141361 207.453066 
L 153.772791 207.453066 
L 155.404221 207.453066 
L 157.035651 207.453066 
L 158.667081 207.453066 
L 160.298511 207.453066 
L 161.929941 207.453066 
L 163.56137 207.453066 
L 165.1928 207.453066 
L 166.82423 207.453066 
L 168.45566 207.453066 
L 170.08709 207.453066 
L 171.71852 207.453066 
L 173.34995 207.453066 
L 174.98138 207.453066 
L 176.61281 207.453066 
L 178.244239 207.453066 
L 179.875669 207.453066 
L 181.507099 207.453066 
L 183.138529 207.453066 
L 184.769959 207.453066 
L 186.401389 207.453066 
L 188.032819 207.453066 
L 189.664249 207.453066 
L 191.295678 207.453066 
L 192.927108 207.453066 
L 194.558538 207.453066 
L 196.189968 207.453066 
L 197.821398 207.453066 
L 199.452828 207.453066 
L 201.084258 207.453066 
L 202.715688 222.947214 
L 204.347117 231.046428 
L 205.978547 212.735162 
L 207.609977 237.032804 
L 209.241407 242.667039 
L 210.872837 219.777956 
L 212.504267 234.919965 
L 214.135697 247.949135 
L 215.767127 242.3149 
L 217.398556 295.488 
L 219.029986 232.807127 
L 220.661416 217.312978 
L 222.292846 222.947214 
L 223.924276 222.242935 
L 225.555706 219.777956 
L 227.187136 215.552279 
L 228.818566 223.651493 
L 230.449995 243.723459 
L 232.081425 225.412192 
L 233.712855 243.723459 
L 235.344285 210.974463 
L 236.975715 235.272105 
L 238.607145 223.651493 
L 240.238575 239.849921 
L 241.870005 217.312978 
L 243.501434 243.019179 
L 245.132864 228.58145 
L 246.764294 236.328524 
L 248.395724 239.849921 
L 250.027154 219.777956 
L 251.658584 247.949135 
L 253.290014 252.526952 
L 254.921444 217.312978 
L 256.552873 207.453066 
L 258.184303 224.003633 
L 259.815733 222.242935 
L 261.447163 207.453066 
L 263.078593 238.441362 
L 264.710023 229.285729 
L 266.341453 238.441362 
L 267.972883 217.312978 
L 269.604312 241.25848 
L 271.235742 222.947214 
L 272.867172 213.439441 
L 274.498602 207.453066 
L 276.130032 219.425817 
L 277.761462 235.624245 
L 279.392892 212.383022 
L 281.024322 237.032804 
L 282.655751 207.453066 
L 284.287181 238.441362 
L 285.918611 277.881013 
L 287.550041 237.737083 
L 289.181471 236.328524 
L 290.812901 228.22931 
L 292.444331 231.398568 
L 294.075761 235.624245 
L 295.70719 216.960838 
L 297.33862 220.130096 
L 298.97005 222.242935 
L 300.60148 228.22931 
L 302.23291 237.737083 
L 303.86434 217.665118 
L 305.49577 224.707913 
L 307.1272 207.453066 
L 308.75863 222.595074 
L 310.390059 241.61062 
L 312.021489 214.49586 
L 313.652919 222.242935 
L 315.284349 262.386865 
L 316.915779 225.412192 
L 318.547209 250.414114 
L 320.178639 227.525031 
L 321.810069 211.326603 
L 323.441498 229.990009 
L 325.072928 240.202061 
L 326.704358 236.328524 
L 328.335788 242.3149 
L 329.967218 237.032804 
L 331.598648 229.990009 
L 333.230078 249.709834 
L 334.861508 244.779878 
L 336.492937 224.707913 
L 338.124367 207.453066 
L 339.755797 241.25848 
L 341.387227 238.441362 
L 343.018657 218.721537 
L 344.650087 219.425817 
L 346.281517 255.69621 
L 347.912947 225.060052 
L 349.544376 207.453066 
L 351.175806 242.3149 
L 352.807236 216.608699 
L 354.438666 235.624245 
L 356.070096 207.453066 
L 357.701526 228.93359 
L 359.332956 208.509485 
L 360.964386 239.145642 
L 362.595815 255.34407 
L 364.227245 235.624245 
L 365.858675 221.538655 
L 367.490105 233.511406 
L 369.121535 207.453066 
L 370.752965 240.906341 
L 372.384395 239.497782 
L 374.015825 209.213764 
L 375.647254 213.087301 
L 377.278684 207.453066 
L 378.910114 230.342148 
L 380.541544 207.453066 
L 382.172974 224.355773 
L 383.804404 207.453066 
L 385.435834 214.49586 
L 387.067264 244.075598 
L 388.698693 216.256559 
L 390.330123 251.470533 
L 391.961553 215.552279 
L 393.592983 207.453066 
L 395.224413 207.453066 
L 396.855843 224.003633 
L 398.487273 241.61062 
L 398.487273 132.095162 
L 398.487273 132.095162 
L 396.855843 137.444977 
L 395.224413 138.208307 
L 393.592983 138.932541 
L 391.961553 135.953388 
L 390.330123 123.995948 
L 388.698693 137.679092 
L 387.067264 136.972297 
L 385.435834 145.945991 
L 383.804404 145.597205 
L 382.172974 109.910358 
L 380.541544 145.57251 
L 378.910114 144.067913 
L 377.278684 141.602934 
L 375.647254 87.373415 
L 374.015825 145.561471 
L 372.384395 145.350707 
L 370.752965 110.614638 
L 369.121535 148.29359 
L 367.490105 147.223085 
L 365.858675 130.334463 
L 364.227245 148.262969 
L 362.595815 147.429247 
L 360.964386 134.56014 
L 359.332956 104.980402 
L 357.701526 154.984245 
L 356.070096 131.390882 
L 354.438666 127.165205 
L 352.807236 153.223546 
L 351.175806 135.616559 
L 349.544376 143.011493 
L 347.912947 153.223546 
L 346.281517 125.756646 
L 344.650087 127.534952 
L 343.018657 127.986865 
L 341.387227 122.381974 
L 339.755797 122.859039 
L 338.124367 96.529048 
L 336.492937 106.036821 
L 334.861508 123.291668 
L 333.230078 110.262498 
L 331.598648 120.175231 
L 329.967218 110.966777 
L 328.335788 107.44538 
L 326.704358 122.456967 
L 325.072928 102.515424 
L 323.441498 121.376028 
L 321.810069 115.192454 
L 320.178639 120.82669 
L 318.547209 76.104943 
L 316.915779 119.552279 
L 315.284349 53.568 
L 313.652919 100.402585 
L 312.021489 120.82669 
L 310.390059 118.009572 
L 308.75863 135.158777 
L 307.1272 137.025118 
L 305.49577 159.729747 
L 303.86434 159.104279 
L 302.23291 123.995948 
L 300.60148 122.939528 
L 298.97005 140.898655 
L 297.33862 154.632105 
L 295.70719 137.025118 
L 294.075761 154.632105 
L 292.444331 155.432422 
L 290.812901 154.632105 
L 289.181471 137.025118 
L 287.550041 137.025118 
L 285.918611 104.276122 
L 284.287181 137.025118 
L 282.655751 154.632105 
L 281.024322 121.530969 
L 279.392892 131.743022 
L 277.761462 151.832594 
L 276.130032 162.635281 
L 274.498602 162.002471 
L 272.867172 154.632105 
L 271.235742 154.632105 
L 269.604312 153.575686 
L 267.972883 154.632105 
L 266.341453 162.045573 
L 264.710023 137.025118 
L 263.078593 154.632105 
L 261.447163 131.743022 
L 259.815733 161.364188 
L 258.184303 161.034645 
L 256.552873 160.684507 
L 254.921444 154.632105 
L 253.290014 132.447301 
L 251.658584 148.645729 
L 250.027154 138.24 
L 248.395724 133.85586 
L 246.764294 122.939528 
L 245.132864 158.857782 
L 243.501434 158.300227 
L 241.870005 157.694189 
L 240.238575 156.23274 
L 238.607145 137.025118 
L 236.975715 137.025118 
L 235.344285 160.234328 
L 233.712855 137.025118 
L 232.081425 154.632105 
L 230.449995 137.025118 
L 228.818566 158.900465 
L 227.187136 158.483633 
L 225.555706 157.471941 
L 223.924276 154.632105 
L 222.292846 157.060655 
L 220.661416 156.392803 
L 219.029986 154.632105 
L 217.398556 154.632105 
L 215.767127 119.418131 
L 214.135697 93.35979 
L 212.504267 150.875948 
L 210.872837 150.441642 
L 209.241407 154.632105 
L 207.609977 154.632105 
L 205.978547 154.632105 
L 204.347117 162.907389 
L 202.715688 159.914201 
L 201.084258 187.645205 
L 199.452828 207.453066 
L 197.821398 207.453066 
L 196.189968 207.453066 
L 194.558538 207.453066 
L 192.927108 207.453066 
L 191.295678 207.453066 
L 189.664249 207.453066 
L 188.032819 207.453066 
L 186.401389 207.453066 
L 184.769959 207.453066 
L 183.138529 207.453066 
L 181.507099 207.453066 
L 179.875669 207.453066 
L 178.244239 207.453066 
L 176.61281 207.453066 
L 174.98138 207.453066 
L 173.34995 207.453066 
L 171.71852 207.453066 
L 170.08709 207.453066 
L 168.45566 207.453066 
L 166.82423 207.453066 
L 165.1928 207.453066 
L 163.56137 207.453066 
L 161.929941 207.453066 
L 160.298511 207.453066 
L 158.667081 207.453066 
L 157.035651 207.453066 
L 155.404221 207.453066 
L 153.772791 207.453066 
L 152.141361 207.453066 
L 150.509931 207.453066 
L 148.878502 207.453066 
L 147.247072 207.453066 
L 145.615642 207.453066 
L 143.984212 207.453066 
L 142.352782 207.453066 
L 140.721352 207.453066 
L 139.089922 207.453066 
L 137.458492 207.453066 
L 135.827063 207.453066 
L 134.195633 207.453066 
L 132.564203 207.453066 
L 130.932773 207.453066 
L 129.301343 207.453066 
L 127.669913 207.453066 
L 126.038483 207.453066 
L 124.407053 207.453066 
L 122.775624 207.453066 
L 121.144194 207.453066 
L 119.512764 207.453066 
L 117.881334 207.453066 
L 116.249904 207.453066 
L 114.618474 207.453066 
L 112.987044 207.453066 
L 111.355614 207.453066 
L 109.724185 207.453066 
L 108.092755 207.453066 
L 106.461325 207.453066 
L 104.829895 207.453066 
L 103.198465 207.453066 
L 101.567035 207.453066 
L 99.935605 207.453066 
L 98.304175 207.453066 
L 96.672746 207.453066 
L 95.041316 207.453066 
L 93.409886 207.453066 
L 91.778456 207.453066 
L 90.147026 207.453066 
L 88.515596 207.453066 
L 86.884166 207.453066 
L 85.252736 207.453066 
L 83.621307 207.453066 
L 81.989877 207.453066 
L 80.358447 207.453066 
L 78.727017 207.453066 
L 77.095587 207.453066 
L 75.464157 207.453066 
L 73.832727 207.453066 
z
" style="fill:#1f77b4;fill-opacity:0.1;"/>
   </g>
   <g id="matplotlib.axis_1">
    <g id="xtick_1">
     <g id="line2d_1">
      <defs>
       <path d="M 0 0 
L 0 3.5 
" id="mfd79b732f0" style="stroke:#000000;stroke-width:0.8;"/>
      </defs>
      <g>
       <use style="stroke:#000000;stroke-width:0.8;" x="73.832727" xlink:href="#mfd79b732f0" y="307.584"/>
      </g>
     </g>
     <g id="text_1">
      <!-- 0 -->
      <defs>
       <path d="M 31.78125 66.40625 
Q 24.171875 66.40625 20.328125 58.90625 
Q 16.5 51.421875 16.5 36.375 
Q 16.5 21.390625 20.328125 13.890625 
Q 24.171875 6.390625 31.78125 6.390625 
Q 39.453125 6.390625 43.28125 13.890625 
Q 47.125 21.390625 47.125 36.375 
Q 47.125 51.421875 43.28125 58.90625 
Q 39.453125 66.40625 31.78125 66.40625 
z
M 31.78125 74.21875 
Q 44.046875 74.21875 50.515625 64.515625 
Q 56.984375 54.828125 56.984375 36.375 
Q 56.984375 17.96875 50.515625 8.265625 
Q 44.046875 -1.421875 31.78125 -1.421875 
Q 19.53125 -1.421875 13.0625 8.265625 
Q 6.59375 17.96875 6.59375 36.375 
Q 6.59375 54.828125 13.0625 64.515625 
Q 19.53125 74.21875 31.78125 74.21875 
z
" id="DejaVuSans-48"/>
      </defs>
      <g transform="translate(70.651477 322.182437)scale(0.1 -0.1)">
       <use xlink:href="#DejaVuSans-48"/>
      </g>
     </g>
    </g>
    <g id="xtick_2">
     <g id="line2d_2">
      <g>
       <use style="stroke:#000000;stroke-width:0.8;" x="114.618474" xlink:href="#mfd79b732f0" y="307.584"/>
      </g>
     </g>
     <g id="text_2">
      <!-- 25 -->
      <defs>
       <path d="M 19.1875 8.296875 
L 53.609375 8.296875 
L 53.609375 0 
L 7.328125 0 
L 7.328125 8.296875 
Q 12.9375 14.109375 22.625 23.890625 
Q 32.328125 33.6875 34.8125 36.53125 
Q 39.546875 41.84375 41.421875 45.53125 
Q 43.3125 49.21875 43.3125 52.78125 
Q 43.3125 58.59375 39.234375 62.25 
Q 35.15625 65.921875 28.609375 65.921875 
Q 23.96875 65.921875 18.8125 64.3125 
Q 13.671875 62.703125 7.8125 59.421875 
L 7.8125 69.390625 
Q 13.765625 71.78125 18.9375 73 
Q 24.125 74.21875 28.421875 74.21875 
Q 39.75 74.21875 46.484375 68.546875 
Q 53.21875 62.890625 53.21875 53.421875 
Q 53.21875 48.921875 51.53125 44.890625 
Q 49.859375 40.875 45.40625 35.40625 
Q 44.1875 33.984375 37.640625 27.21875 
Q 31.109375 20.453125 19.1875 8.296875 
z
" id="DejaVuSans-50"/>
       <path d="M 10.796875 72.90625 
L 49.515625 72.90625 
L 49.515625 64.59375 
L 19.828125 64.59375 
L 19.828125 46.734375 
Q 21.96875 47.46875 24.109375 47.828125 
Q 26.265625 48.1875 28.421875 48.1875 
Q 40.625 48.1875 47.75 41.5 
Q 54.890625 34.8125 54.890625 23.390625 
Q 54.890625 11.625 47.5625 5.09375 
Q 40.234375 -1.421875 26.90625 -1.421875 
Q 22.3125 -1.421875 17.546875 -0.640625 
Q 12.796875 0.140625 7.71875 1.703125 
L 7.71875 11.625 
Q 12.109375 9.234375 16.796875 8.0625 
Q 21.484375 6.890625 26.703125 6.890625 
Q 35.15625 6.890625 40.078125 11.328125 
Q 45.015625 15.765625 45.015625 23.390625 
Q 45.015625 31 40.078125 35.4375 
Q 35.15625 39.890625 26.703125 39.890625 
Q 22.75 39.890625 18.8125 39.015625 
Q 14.890625 38.140625 10.796875 36.28125 
z
" id="DejaVuSans-53"/>
      </defs>
      <g transform="translate(108.255974 322.182437)scale(0.1 -0.1)">
       <use xlink:href="#DejaVuSans-50"/>
       <use x="63.623047" xlink:href="#DejaVuSans-53"/>
      </g>
     </g>
    </g>
    <g id="xtick_3">
     <g id="line2d_3">
      <g>
       <use style="stroke:#000000;stroke-width:0.8;" x="155.404221" xlink:href="#mfd79b732f0" y="307.584"/>
      </g>
     </g>
     <g id="text_3">
      <!-- 50 -->
      <g transform="translate(149.041721 322.182437)scale(0.1 -0.1)">
       <use xlink:href="#DejaVuSans-53"/>
       <use x="63.623047" xlink:href="#DejaVuSans-48"/>
      </g>
     </g>
    </g>
    <g id="xtick_4">
     <g id="line2d_4">
      <g>
       <use style="stroke:#000000;stroke-width:0.8;" x="196.189968" xlink:href="#mfd79b732f0" y="307.584"/>
      </g>
     </g>
     <g id="text_4">
      <!-- 75 -->
      <defs>
       <path d="M 8.203125 72.90625 
L 55.078125 72.90625 
L 55.078125 68.703125 
L 28.609375 0 
L 18.3125 0 
L 43.21875 64.59375 
L 8.203125 64.59375 
z
" id="DejaVuSans-55"/>
      </defs>
      <g transform="translate(189.827468 322.182437)scale(0.1 -0.1)">
       <use xlink:href="#DejaVuSans-55"/>
       <use x="63.623047" xlink:href="#DejaVuSans-53"/>
      </g>
     </g>
    </g>
    <g id="xtick_5">
     <g id="line2d_5">
      <g>
       <use style="stroke:#000000;stroke-width:0.8;" x="236.975715" xlink:href="#mfd79b732f0" y="307.584"/>
      </g>
     </g>
     <g id="text_5">
      <!-- 100 -->
      <defs>
       <path d="M 12.40625 8.296875 
L 28.515625 8.296875 
L 28.515625 63.921875 
L 10.984375 60.40625 
L 10.984375 69.390625 
L 28.421875 72.90625 
L 38.28125 72.90625 
L 38.28125 8.296875 
L 54.390625 8.296875 
L 54.390625 0 
L 12.40625 0 
z
" id="DejaVuSans-49"/>
      </defs>
      <g transform="translate(227.431965 322.182437)scale(0.1 -0.1)">
       <use xlink:href="#DejaVuSans-49"/>
       <use x="63.623047" xlink:href="#DejaVuSans-48"/>
       <use x="127.246094" xlink:href="#DejaVuSans-48"/>
      </g>
     </g>
    </g>
    <g id="xtick_6">
     <g id="line2d_6">
      <g>
       <use style="stroke:#000000;stroke-width:0.8;" x="277.761462" xlink:href="#mfd79b732f0" y="307.584"/>
      </g>
     </g>
     <g id="text_6">
      <!-- 125 -->
      <g transform="translate(268.217712 322.182437)scale(0.1 -0.1)">
       <use xlink:href="#DejaVuSans-49"/>
       <use x="63.623047" xlink:href="#DejaVuSans-50"/>
       <use x="127.246094" xlink:href="#DejaVuSans-53"/>
      </g>
     </g>
    </g>
    <g id="xtick_7">
     <g id="line2d_7">
      <g>
       <use style="stroke:#000000;stroke-width:0.8;" x="318.547209" xlink:href="#mfd79b732f0" y="307.584"/>
      </g>
     </g>
     <g id="text_7">
      <!-- 150 -->
      <g transform="translate(309.003459 322.182437)scale(0.1 -0.1)">
       <use xlink:href="#DejaVuSans-49"/>
       <use x="63.623047" xlink:href="#DejaVuSans-53"/>
       <use x="127.246094" xlink:href="#DejaVuSans-48"/>
      </g>
     </g>
    </g>
    <g id="xtick_8">
     <g id="line2d_8">
      <g>
       <use style="stroke:#000000;stroke-width:0.8;" x="359.332956" xlink:href="#mfd79b732f0" y="307.584"/>
      </g>
     </g>
     <g id="text_8">
      <!-- 175 -->
      <g transform="translate(349.789206 322.182437)scale(0.1 -0.1)">
       <use xlink:href="#DejaVuSans-49"/>
       <use x="63.623047" xlink:href="#DejaVuSans-55"/>
       <use x="127.246094" xlink:href="#DejaVuSans-53"/>
      </g>
     </g>
    </g>
    <g id="xtick_9">
     <g id="line2d_9">
      <g>
       <use style="stroke:#000000;stroke-width:0.8;" x="400.118703" xlink:href="#mfd79b732f0" y="307.584"/>
      </g>
     </g>
     <g id="text_9">
      <!-- 200 -->
      <g transform="translate(390.574953 322.182437)scale(0.1 -0.1)">
       <use xlink:href="#DejaVuSans-50"/>
       <use x="63.623047" xlink:href="#DejaVuSans-48"/>
       <use x="127.246094" xlink:href="#DejaVuSans-48"/>
      </g>
     </g>
    </g>
   </g>
   <g id="matplotlib.axis_2">
    <g id="ytick_1">
     <g id="line2d_10">
      <defs>
       <path d="M 0 0 
L -3.5 0 
" id="m5f124d4eaf" style="stroke:#000000;stroke-width:0.8;"/>
      </defs>
      <g>
       <use style="stroke:#000000;stroke-width:0.8;" x="57.6" xlink:href="#m5f124d4eaf" y="295.488"/>
      </g>
     </g>
     <g id="text_10">
      <!-- 0.0 -->
      <defs>
       <path d="M 10.6875 12.40625 
L 21 12.40625 
L 21 0 
L 10.6875 0 
z
" id="DejaVuSans-46"/>
      </defs>
      <g transform="translate(34.696875 299.287219)scale(0.1 -0.1)">
       <use xlink:href="#DejaVuSans-48"/>
       <use x="63.623047" xlink:href="#DejaVuSans-46"/>
       <use x="95.410156" xlink:href="#DejaVuSans-48"/>
      </g>
     </g>
    </g>
    <g id="ytick_2">
     <g id="line2d_11">
      <g>
       <use style="stroke:#000000;stroke-width:0.8;" x="57.6" xlink:href="#m5f124d4eaf" y="242.667039"/>
      </g>
     </g>
     <g id="text_11">
      <!-- 0.2 -->
      <g transform="translate(34.696875 246.466258)scale(0.1 -0.1)">
       <use xlink:href="#DejaVuSans-48"/>
       <use x="63.623047" xlink:href="#DejaVuSans-46"/>
       <use x="95.410156" xlink:href="#DejaVuSans-50"/>
      </g>
     </g>
    </g>
    <g id="ytick_3">
     <g id="line2d_12">
      <g>
       <use style="stroke:#000000;stroke-width:0.8;" x="57.6" xlink:href="#m5f124d4eaf" y="189.846079"/>
      </g>
     </g>
     <g id="text_12">
      <!-- 0.4 -->
      <defs>
       <path d="M 37.796875 64.3125 
L 12.890625 25.390625 
L 37.796875 25.390625 
z
M 35.203125 72.90625 
L 47.609375 72.90625 
L 47.609375 25.390625 
L 58.015625 25.390625 
L 58.015625 17.1875 
L 47.609375 17.1875 
L 47.609375 0 
L 37.796875 0 
L 37.796875 17.1875 
L 4.890625 17.1875 
L 4.890625 26.703125 
z
" id="DejaVuSans-52"/>
      </defs>
      <g transform="translate(34.696875 193.645297)scale(0.1 -0.1)">
       <use xlink:href="#DejaVuSans-48"/>
       <use x="63.623047" xlink:href="#DejaVuSans-46"/>
       <use x="95.410156" xlink:href="#DejaVuSans-52"/>
      </g>
     </g>
    </g>
    <g id="ytick_4">
     <g id="line2d_13">
      <g>
       <use style="stroke:#000000;stroke-width:0.8;" x="57.6" xlink:href="#m5f124d4eaf" y="137.025118"/>
      </g>
     </g>
     <g id="text_13">
      <!-- 0.6 -->
      <defs>
       <path d="M 33.015625 40.375 
Q 26.375 40.375 22.484375 35.828125 
Q 18.609375 31.296875 18.609375 23.390625 
Q 18.609375 15.53125 22.484375 10.953125 
Q 26.375 6.390625 33.015625 6.390625 
Q 39.65625 6.390625 43.53125 10.953125 
Q 47.40625 15.53125 47.40625 23.390625 
Q 47.40625 31.296875 43.53125 35.828125 
Q 39.65625 40.375 33.015625 40.375 
z
M 52.59375 71.296875 
L 52.59375 62.3125 
Q 48.875 64.0625 45.09375 64.984375 
Q 41.3125 65.921875 37.59375 65.921875 
Q 27.828125 65.921875 22.671875 59.328125 
Q 17.53125 52.734375 16.796875 39.40625 
Q 19.671875 43.65625 24.015625 45.921875 
Q 28.375 48.1875 33.59375 48.1875 
Q 44.578125 48.1875 50.953125 41.515625 
Q 57.328125 34.859375 57.328125 23.390625 
Q 57.328125 12.15625 50.6875 5.359375 
Q 44.046875 -1.421875 33.015625 -1.421875 
Q 20.359375 -1.421875 13.671875 8.265625 
Q 6.984375 17.96875 6.984375 36.375 
Q 6.984375 53.65625 15.1875 63.9375 
Q 23.390625 74.21875 37.203125 74.21875 
Q 40.921875 74.21875 44.703125 73.484375 
Q 48.484375 72.75 52.59375 71.296875 
z
" id="DejaVuSans-54"/>
      </defs>
      <g transform="translate(34.696875 140.824337)scale(0.1 -0.1)">
       <use xlink:href="#DejaVuSans-48"/>
       <use x="63.623047" xlink:href="#DejaVuSans-46"/>
       <use x="95.410156" xlink:href="#DejaVuSans-54"/>
      </g>
     </g>
    </g>
    <g id="ytick_5">
     <g id="line2d_14">
      <g>
       <use style="stroke:#000000;stroke-width:0.8;" x="57.6" xlink:href="#m5f124d4eaf" y="84.204157"/>
      </g>
     </g>
     <g id="text_14">
      <!-- 0.8 -->
      <defs>
       <path d="M 31.78125 34.625 
Q 24.75 34.625 20.71875 30.859375 
Q 16.703125 27.09375 16.703125 20.515625 
Q 16.703125 13.921875 20.71875 10.15625 
Q 24.75 6.390625 31.78125 6.390625 
Q 38.8125 6.390625 42.859375 10.171875 
Q 46.921875 13.96875 46.921875 20.515625 
Q 46.921875 27.09375 42.890625 30.859375 
Q 38.875 34.625 31.78125 34.625 
z
M 21.921875 38.8125 
Q 15.578125 40.375 12.03125 44.71875 
Q 8.5 49.078125 8.5 55.328125 
Q 8.5 64.0625 14.71875 69.140625 
Q 20.953125 74.21875 31.78125 74.21875 
Q 42.671875 74.21875 48.875 69.140625 
Q 55.078125 64.0625 55.078125 55.328125 
Q 55.078125 49.078125 51.53125 44.71875 
Q 48 40.375 41.703125 38.8125 
Q 48.828125 37.15625 52.796875 32.3125 
Q 56.78125 27.484375 56.78125 20.515625 
Q 56.78125 9.90625 50.3125 4.234375 
Q 43.84375 -1.421875 31.78125 -1.421875 
Q 19.734375 -1.421875 13.25 4.234375 
Q 6.78125 9.90625 6.78125 20.515625 
Q 6.78125 27.484375 10.78125 32.3125 
Q 14.796875 37.15625 21.921875 38.8125 
z
M 18.3125 54.390625 
Q 18.3125 48.734375 21.84375 45.5625 
Q 25.390625 42.390625 31.78125 42.390625 
Q 38.140625 42.390625 41.71875 45.5625 
Q 45.3125 48.734375 45.3125 54.390625 
Q 45.3125 60.0625 41.71875 63.234375 
Q 38.140625 66.40625 31.78125 66.40625 
Q 25.390625 66.40625 21.84375 63.234375 
Q 18.3125 60.0625 18.3125 54.390625 
z
" id="DejaVuSans-56"/>
      </defs>
      <g transform="translate(34.696875 88.003376)scale(0.1 -0.1)">
       <use xlink:href="#DejaVuSans-48"/>
       <use x="63.623047" xlink:href="#DejaVuSans-46"/>
       <use x="95.410156" xlink:href="#DejaVuSans-56"/>
      </g>
     </g>
    </g>
   </g>
   <g id="line2d_15">
    <path clip-path="url(#p2346d7ab0a)" d="M 73.832727 207.453066 
L 205.978547 207.453066 
L 207.609977 180.338306 
L 209.241407 189.846079 
L 210.872837 176.079092 
L 212.504267 178.577607 
L 214.135697 156.099354 
L 215.767127 161.184966 
L 217.398556 192.839266 
L 219.029986 162.33116 
L 220.661416 189.846079 
L 222.292846 189.846079 
L 223.924276 163.787738 
L 225.555706 187.028961 
L 227.187136 192.311057 
L 228.818566 189.846079 
L 230.449995 165.032145 
L 232.081425 172.943371 
L 233.712855 164.886079 
L 235.344285 189.846079 
L 236.975715 179.634026 
L 238.607145 163.428262 
L 240.238575 192.311057 
L 241.870005 192.311057 
L 243.501434 175.408349 
L 245.132864 172.239092 
L 246.764294 163.645205 
L 248.395724 162.027039 
L 250.027154 179.634026 
L 251.658584 162.539938 
L 253.290014 192.311057 
L 254.921444 179.634026 
L 256.552873 207.453066 
L 258.184303 189.846079 
L 259.815733 177.169048 
L 261.447163 207.453066 
L 263.078593 172.432769 
L 264.710023 163.083459 
L 266.341453 177.169048 
L 267.972883 171.662863 
L 269.604312 167.975686 
L 271.235742 162.027039 
L 272.867172 172.239092 
L 274.498602 192.311057 
L 276.130032 189.846079 
L 277.761462 180.583272 
L 279.392892 165.636472 
L 281.024322 172.943371 
L 282.655751 183.155424 
L 284.287181 162.447451 
L 285.918611 161.574288 
L 287.550041 159.914201 
L 289.181471 165.796614 
L 290.812901 173.119441 
L 292.444331 177.169048 
L 294.075761 170.478393 
L 295.70719 167.15915 
L 297.33862 169.502006 
L 298.97005 185.251493 
L 300.60148 171.006603 
L 302.23291 162.493624 
L 303.86434 189.846079 
L 305.49577 192.487127 
L 307.1272 162.731319 
L 308.75863 193.367476 
L 310.390059 172.591231 
L 312.021489 189.846079 
L 313.652919 160.374691 
L 315.284349 158.414346 
L 316.915779 175.132348 
L 318.547209 144.772192 
L 320.178639 174.35193 
L 321.810069 172.239092 
L 323.441498 185.268262 
L 325.072928 172.239092 
L 326.704358 189.846079 
L 328.335788 175.05621 
L 329.967218 158.940926 
L 331.598648 195.480314 
L 333.230078 181.746865 
L 334.861508 189.846079 
L 336.492937 173.647651 
L 338.124367 163.426795 
L 339.755797 174.88014 
L 341.387227 175.408349 
L 343.018657 177.873328 
L 344.650087 181.042585 
L 346.281517 169.950183 
L 347.912947 189.846079 
L 349.544376 173.647651 
L 351.175806 179.634026 
L 352.807236 178.950636 
L 354.438666 187.73324 
L 356.070096 155.336384 
L 357.701526 172.239092 
L 359.332956 172.591231 
L 360.964386 171.341135 
L 362.595815 188.789659 
L 364.227245 172.239092 
L 365.858675 167.837345 
L 367.490105 194.776035 
L 369.121535 207.453066 
L 370.752965 164.92241 
L 372.384395 181.394725 
L 374.015825 203.931668 
L 375.647254 152.519266 
L 377.278684 169.740576 
L 378.910114 173.99979 
L 380.541544 189.846079 
L 382.172974 191.254638 
L 383.804404 207.453066 
L 385.435834 195.128175 
L 387.067264 167.556937 
L 388.698693 189.846079 
L 390.330123 177.521188 
L 391.961553 189.846079 
L 393.592983 207.453066 
L 395.224413 205.692367 
L 398.487273 185.444332 
L 398.487273 185.444332 
" style="fill:none;stroke:#1f77b4;stroke-linecap:square;stroke-width:0.25;"/>
   </g>
   <g id="line2d_16">
    <path clip-path="url(#p2346d7ab0a)" d="M 73.832727 207.453066 
L 199.452828 207.453066 
L 201.084258 207.254987 
L 202.715688 206.259312 
L 204.347117 206.43503 
L 205.978547 200.75935 
L 207.609977 182.954449 
L 209.241407 189.055408 
L 210.872837 181.909857 
L 212.504267 187.726905 
L 214.135697 162.823196 
L 215.767127 162.684116 
L 217.398556 185.041678 
L 219.029986 172.725528 
L 220.661416 193.126481 
L 222.292846 186.800779 
L 223.924276 177.729043 
L 225.555706 185.315631 
L 227.187136 194.613708 
L 228.818566 187.395996 
L 230.449995 169.927468 
L 232.081425 179.031872 
L 233.712855 172.991678 
L 235.344285 194.686361 
L 236.975715 179.173426 
L 238.607145 171.386533 
L 240.238575 195.161006 
L 241.870005 193.872126 
L 243.501434 182.302066 
L 245.132864 183.305811 
L 246.764294 167.554494 
L 248.395724 175.043774 
L 250.027154 184.281199 
L 251.658584 172.029633 
L 253.290014 194.522446 
L 254.921444 179.680165 
L 256.552873 202.773294 
L 258.184303 189.143358 
L 259.815733 189.22428 
L 261.447163 201.731597 
L 263.078593 181.00137 
L 264.710023 166.372235 
L 266.341453 186.683111 
L 267.972883 178.816448 
L 269.604312 176.794541 
L 271.235742 174.263343 
L 272.867172 176.084363 
L 274.498602 195.141227 
L 276.130032 193.677162 
L 277.761462 185.461615 
L 279.392892 170.775359 
L 281.024322 176.866273 
L 282.655751 188.449882 
L 284.287181 169.920551 
L 285.918611 168.250197 
L 287.550041 170.30883 
L 289.181471 172.050368 
L 290.812901 181.007489 
L 292.444331 184.997916 
L 294.075761 176.839139 
L 295.70719 173.119715 
L 297.33862 174.658312 
L 298.97005 186.809172 
L 300.60148 177.678692 
L 302.23291 173.173977 
L 303.86434 187.01147 
L 305.49577 190.72203 
L 307.1272 168.707849 
L 308.75863 193.595897 
L 310.390059 171.636384 
L 312.021489 182.348153 
L 313.652919 164.752296 
L 315.284349 157.812791 
L 316.915779 173.075017 
L 318.547209 150.052119 
L 320.178639 180.227782 
L 321.810069 172.010557 
L 323.441498 178.846571 
L 325.072928 165.992837 
L 326.704358 180.054254 
L 329.967218 159.362041 
L 331.598648 183.230852 
L 333.230078 171.893521 
L 334.861508 178.09109 
L 336.492937 167.592493 
L 338.124367 161.179371 
L 339.755797 177.557587 
L 341.387227 183.689577 
L 344.650087 184.531825 
L 346.281517 174.82256 
L 347.912947 186.819159 
L 349.544376 181.361046 
L 351.175806 181.49281 
L 352.807236 186.719522 
L 354.438666 181.073817 
L 356.070096 167.634267 
L 357.701526 179.713935 
L 359.332956 173.400181 
L 360.964386 173.069335 
L 362.595815 185.092966 
L 364.227245 177.700499 
L 365.858675 172.985405 
L 367.490105 187.440362 
L 369.121535 198.965643 
L 370.752965 167.878319 
L 374.015825 193.230984 
L 375.647254 156.036516 
L 377.278684 175.425789 
L 378.910114 181.504893 
L 380.541544 192.978611 
L 382.172974 179.326513 
L 383.804404 199.347966 
L 385.435834 190.853208 
L 387.067264 176.239516 
L 388.698693 185.288254 
L 390.330123 174.403625 
L 391.961553 186.970162 
L 393.592983 202.787228 
L 395.224413 187.397273 
L 396.855843 187.175294 
L 398.487273 185.341569 
L 398.487273 185.341569 
" style="fill:none;stroke:#2ca02c;stroke-linecap:square;stroke-width:0.75;"/>
   </g>
   <g id="patch_3">
    <path d="M 57.6 307.584 
L 57.6 41.472 
" style="fill:none;stroke:#000000;stroke-linecap:square;stroke-linejoin:miter;stroke-width:0.8;"/>
   </g>
   <g id="patch_4">
    <path d="M 414.72 307.584 
L 414.72 41.472 
" style="fill:none;stroke:#000000;stroke-linecap:square;stroke-linejoin:miter;stroke-width:0.8;"/>
   </g>
   <g id="patch_5">
    <path d="M 57.6 307.584 
L 414.72 307.584 
" style="fill:none;stroke:#000000;stroke-linecap:square;stroke-linejoin:miter;stroke-width:0.8;"/>
   </g>
   <g id="patch_6">
    <path d="M 57.6 41.472 
L 414.72 41.472 
" style="fill:none;stroke:#000000;stroke-linecap:square;stroke-linejoin:miter;stroke-width:0.8;"/>
   </g>
   <g id="legend_1">
    <g id="patch_7">
     <path d="M 338.234063 78.82825 
L 407.72 78.82825 
Q 409.72 78.82825 409.72 76.82825 
L 409.72 48.472 
Q 409.72 46.472 407.72 46.472 
L 338.234063 46.472 
Q 336.234063 46.472 336.234063 48.472 
L 336.234063 76.82825 
Q 336.234063 78.82825 338.234063 78.82825 
z
" style="fill:#ffffff;opacity:0.8;stroke:#cccccc;stroke-linejoin:miter;"/>
    </g>
    <g id="line2d_17">
     <path d="M 340.234063 54.570437 
L 360.234063 54.570437 
" style="fill:none;stroke:#1f77b4;stroke-linecap:square;stroke-width:0.25;"/>
    </g>
    <g id="line2d_18"/>
    <g id="text_15">
     <!-- median -->
     <defs>
      <path d="M 52 44.1875 
Q 55.375 50.25 60.0625 53.125 
Q 64.75 56 71.09375 56 
Q 79.640625 56 84.28125 50.015625 
Q 88.921875 44.046875 88.921875 33.015625 
L 88.921875 0 
L 79.890625 0 
L 79.890625 32.71875 
Q 79.890625 40.578125 77.09375 44.375 
Q 74.3125 48.1875 68.609375 48.1875 
Q 61.625 48.1875 57.5625 43.546875 
Q 53.515625 38.921875 53.515625 30.90625 
L 53.515625 0 
L 44.484375 0 
L 44.484375 32.71875 
Q 44.484375 40.625 41.703125 44.40625 
Q 38.921875 48.1875 33.109375 48.1875 
Q 26.21875 48.1875 22.15625 43.53125 
Q 18.109375 38.875 18.109375 30.90625 
L 18.109375 0 
L 9.078125 0 
L 9.078125 54.6875 
L 18.109375 54.6875 
L 18.109375 46.1875 
Q 21.1875 51.21875 25.484375 53.609375 
Q 29.78125 56 35.6875 56 
Q 41.65625 56 45.828125 52.96875 
Q 50 49.953125 52 44.1875 
z
" id="DejaVuSans-109"/>
      <path d="M 56.203125 29.59375 
L 56.203125 25.203125 
L 14.890625 25.203125 
Q 15.484375 15.921875 20.484375 11.0625 
Q 25.484375 6.203125 34.421875 6.203125 
Q 39.59375 6.203125 44.453125 7.46875 
Q 49.3125 8.734375 54.109375 11.28125 
L 54.109375 2.78125 
Q 49.265625 0.734375 44.1875 -0.34375 
Q 39.109375 -1.421875 33.890625 -1.421875 
Q 20.796875 -1.421875 13.15625 6.1875 
Q 5.515625 13.8125 5.515625 26.8125 
Q 5.515625 40.234375 12.765625 48.109375 
Q 20.015625 56 32.328125 56 
Q 43.359375 56 49.78125 48.890625 
Q 56.203125 41.796875 56.203125 29.59375 
z
M 47.21875 32.234375 
Q 47.125 39.59375 43.09375 43.984375 
Q 39.0625 48.390625 32.421875 48.390625 
Q 24.90625 48.390625 20.390625 44.140625 
Q 15.875 39.890625 15.1875 32.171875 
z
" id="DejaVuSans-101"/>
      <path d="M 45.40625 46.390625 
L 45.40625 75.984375 
L 54.390625 75.984375 
L 54.390625 0 
L 45.40625 0 
L 45.40625 8.203125 
Q 42.578125 3.328125 38.25 0.953125 
Q 33.9375 -1.421875 27.875 -1.421875 
Q 17.96875 -1.421875 11.734375 6.484375 
Q 5.515625 14.40625 5.515625 27.296875 
Q 5.515625 40.1875 11.734375 48.09375 
Q 17.96875 56 27.875 56 
Q 33.9375 56 38.25 53.625 
Q 42.578125 51.265625 45.40625 46.390625 
z
M 14.796875 27.296875 
Q 14.796875 17.390625 18.875 11.75 
Q 22.953125 6.109375 30.078125 6.109375 
Q 37.203125 6.109375 41.296875 11.75 
Q 45.40625 17.390625 45.40625 27.296875 
Q 45.40625 37.203125 41.296875 42.84375 
Q 37.203125 48.484375 30.078125 48.484375 
Q 22.953125 48.484375 18.875 42.84375 
Q 14.796875 37.203125 14.796875 27.296875 
z
" id="DejaVuSans-100"/>
      <path d="M 9.421875 54.6875 
L 18.40625 54.6875 
L 18.40625 0 
L 9.421875 0 
z
M 9.421875 75.984375 
L 18.40625 75.984375 
L 18.40625 64.59375 
L 9.421875 64.59375 
z
" id="DejaVuSans-105"/>
      <path d="M 34.28125 27.484375 
Q 23.390625 27.484375 19.1875 25 
Q 14.984375 22.515625 14.984375 16.5 
Q 14.984375 11.71875 18.140625 8.90625 
Q 21.296875 6.109375 26.703125 6.109375 
Q 34.1875 6.109375 38.703125 11.40625 
Q 43.21875 16.703125 43.21875 25.484375 
L 43.21875 27.484375 
z
M 52.203125 31.203125 
L 52.203125 0 
L 43.21875 0 
L 43.21875 8.296875 
Q 40.140625 3.328125 35.546875 0.953125 
Q 30.953125 -1.421875 24.3125 -1.421875 
Q 15.921875 -1.421875 10.953125 3.296875 
Q 6 8.015625 6 15.921875 
Q 6 25.140625 12.171875 29.828125 
Q 18.359375 34.515625 30.609375 34.515625 
L 43.21875 34.515625 
L 43.21875 35.40625 
Q 43.21875 41.609375 39.140625 45 
Q 35.0625 48.390625 27.6875 48.390625 
Q 23 48.390625 18.546875 47.265625 
Q 14.109375 46.140625 10.015625 43.890625 
L 10.015625 52.203125 
Q 14.9375 54.109375 19.578125 55.046875 
Q 24.21875 56 28.609375 56 
Q 40.484375 56 46.34375 49.84375 
Q 52.203125 43.703125 52.203125 31.203125 
z
" id="DejaVuSans-97"/>
      <path d="M 54.890625 33.015625 
L 54.890625 0 
L 45.90625 0 
L 45.90625 32.71875 
Q 45.90625 40.484375 42.875 44.328125 
Q 39.84375 48.1875 33.796875 48.1875 
Q 26.515625 48.1875 22.3125 43.546875 
Q 18.109375 38.921875 18.109375 30.90625 
L 18.109375 0 
L 9.078125 0 
L 9.078125 54.6875 
L 18.109375 54.6875 
L 18.109375 46.1875 
Q 21.34375 51.125 25.703125 53.5625 
Q 30.078125 56 35.796875 56 
Q 45.21875 56 50.046875 50.171875 
Q 54.890625 44.34375 54.890625 33.015625 
z
" id="DejaVuSans-110"/>
     </defs>
     <g transform="translate(368.234063 58.070437)scale(0.1 -0.1)">
      <use xlink:href="#DejaVuSans-109"/>
      <use x="97.412109" xlink:href="#DejaVuSans-101"/>
      <use x="158.935547" xlink:href="#DejaVuSans-100"/>
      <use x="222.412109" xlink:href="#DejaVuSans-105"/>
      <use x="250.195312" xlink:href="#DejaVuSans-97"/>
      <use x="311.474609" xlink:href="#DejaVuSans-110"/>
     </g>
    </g>
    <g id="line2d_19">
     <path d="M 340.234063 69.248562 
L 360.234063 69.248562 
" style="fill:none;stroke:#2ca02c;stroke-linecap:square;stroke-width:0.75;"/>
    </g>
    <g id="line2d_20"/>
    <g id="text_16">
     <!-- mean -->
     <g transform="translate(368.234063 72.748562)scale(0.1 -0.1)">
      <use xlink:href="#DejaVuSans-109"/>
      <use x="97.412109" xlink:href="#DejaVuSans-101"/>
      <use x="158.935547" xlink:href="#DejaVuSans-97"/>
      <use x="220.214844" xlink:href="#DejaVuSans-110"/>
     </g>
    </g>
   </g>
  </g>
  <g id="text_17">
   <!-- accuracy.mean over generations -->
   <defs>
    <path d="M 48.78125 52.59375 
L 48.78125 44.1875 
Q 44.96875 46.296875 41.140625 47.34375 
Q 37.3125 48.390625 33.40625 48.390625 
Q 24.65625 48.390625 19.8125 42.84375 
Q 14.984375 37.3125 14.984375 27.296875 
Q 14.984375 17.28125 19.8125 11.734375 
Q 24.65625 6.203125 33.40625 6.203125 
Q 37.3125 6.203125 41.140625 7.25 
Q 44.96875 8.296875 48.78125 10.40625 
L 48.78125 2.09375 
Q 45.015625 0.34375 40.984375 -0.53125 
Q 36.96875 -1.421875 32.421875 -1.421875 
Q 20.0625 -1.421875 12.78125 6.34375 
Q 5.515625 14.109375 5.515625 27.296875 
Q 5.515625 40.671875 12.859375 48.328125 
Q 20.21875 56 33.015625 56 
Q 37.15625 56 41.109375 55.140625 
Q 45.0625 54.296875 48.78125 52.59375 
z
" id="DejaVuSans-99"/>
    <path d="M 8.5 21.578125 
L 8.5 54.6875 
L 17.484375 54.6875 
L 17.484375 21.921875 
Q 17.484375 14.15625 20.5 10.265625 
Q 23.53125 6.390625 29.59375 6.390625 
Q 36.859375 6.390625 41.078125 11.03125 
Q 45.3125 15.671875 45.3125 23.6875 
L 45.3125 54.6875 
L 54.296875 54.6875 
L 54.296875 0 
L 45.3125 0 
L 45.3125 8.40625 
Q 42.046875 3.421875 37.71875 1 
Q 33.40625 -1.421875 27.6875 -1.421875 
Q 18.265625 -1.421875 13.375 4.4375 
Q 8.5 10.296875 8.5 21.578125 
z
M 31.109375 56 
z
" id="DejaVuSans-117"/>
    <path d="M 41.109375 46.296875 
Q 39.59375 47.171875 37.8125 47.578125 
Q 36.03125 48 33.890625 48 
Q 26.265625 48 22.1875 43.046875 
Q 18.109375 38.09375 18.109375 28.8125 
L 18.109375 0 
L 9.078125 0 
L 9.078125 54.6875 
L 18.109375 54.6875 
L 18.109375 46.1875 
Q 20.953125 51.171875 25.484375 53.578125 
Q 30.03125 56 36.53125 56 
Q 37.453125 56 38.578125 55.875 
Q 39.703125 55.765625 41.0625 55.515625 
z
" id="DejaVuSans-114"/>
    <path d="M 32.171875 -5.078125 
Q 28.375 -14.84375 24.75 -17.8125 
Q 21.140625 -20.796875 15.09375 -20.796875 
L 7.90625 -20.796875 
L 7.90625 -13.28125 
L 13.1875 -13.28125 
Q 16.890625 -13.28125 18.9375 -11.515625 
Q 21 -9.765625 23.484375 -3.21875 
L 25.09375 0.875 
L 2.984375 54.6875 
L 12.5 54.6875 
L 29.59375 11.921875 
L 46.6875 54.6875 
L 56.203125 54.6875 
z
" id="DejaVuSans-121"/>
    <path id="DejaVuSans-32"/>
    <path d="M 30.609375 48.390625 
Q 23.390625 48.390625 19.1875 42.75 
Q 14.984375 37.109375 14.984375 27.296875 
Q 14.984375 17.484375 19.15625 11.84375 
Q 23.34375 6.203125 30.609375 6.203125 
Q 37.796875 6.203125 41.984375 11.859375 
Q 46.1875 17.53125 46.1875 27.296875 
Q 46.1875 37.015625 41.984375 42.703125 
Q 37.796875 48.390625 30.609375 48.390625 
z
M 30.609375 56 
Q 42.328125 56 49.015625 48.375 
Q 55.71875 40.765625 55.71875 27.296875 
Q 55.71875 13.875 49.015625 6.21875 
Q 42.328125 -1.421875 30.609375 -1.421875 
Q 18.84375 -1.421875 12.171875 6.21875 
Q 5.515625 13.875 5.515625 27.296875 
Q 5.515625 40.765625 12.171875 48.375 
Q 18.84375 56 30.609375 56 
z
" id="DejaVuSans-111"/>
    <path d="M 2.984375 54.6875 
L 12.5 54.6875 
L 29.59375 8.796875 
L 46.6875 54.6875 
L 56.203125 54.6875 
L 35.6875 0 
L 23.484375 0 
z
" id="DejaVuSans-118"/>
    <path d="M 45.40625 27.984375 
Q 45.40625 37.75 41.375 43.109375 
Q 37.359375 48.484375 30.078125 48.484375 
Q 22.859375 48.484375 18.828125 43.109375 
Q 14.796875 37.75 14.796875 27.984375 
Q 14.796875 18.265625 18.828125 12.890625 
Q 22.859375 7.515625 30.078125 7.515625 
Q 37.359375 7.515625 41.375 12.890625 
Q 45.40625 18.265625 45.40625 27.984375 
z
M 54.390625 6.78125 
Q 54.390625 -7.171875 48.1875 -13.984375 
Q 42 -20.796875 29.203125 -20.796875 
Q 24.46875 -20.796875 20.265625 -20.09375 
Q 16.0625 -19.390625 12.109375 -17.921875 
L 12.109375 -9.1875 
Q 16.0625 -11.328125 19.921875 -12.34375 
Q 23.78125 -13.375 27.78125 -13.375 
Q 36.625 -13.375 41.015625 -8.765625 
Q 45.40625 -4.15625 45.40625 5.171875 
L 45.40625 9.625 
Q 42.625 4.78125 38.28125 2.390625 
Q 33.9375 0 27.875 0 
Q 17.828125 0 11.671875 7.65625 
Q 5.515625 15.328125 5.515625 27.984375 
Q 5.515625 40.671875 11.671875 48.328125 
Q 17.828125 56 27.875 56 
Q 33.9375 56 38.28125 53.609375 
Q 42.625 51.21875 45.40625 46.390625 
L 45.40625 54.6875 
L 54.390625 54.6875 
z
" id="DejaVuSans-103"/>
    <path d="M 18.3125 70.21875 
L 18.3125 54.6875 
L 36.8125 54.6875 
L 36.8125 47.703125 
L 18.3125 47.703125 
L 18.3125 18.015625 
Q 18.3125 11.328125 20.140625 9.421875 
Q 21.96875 7.515625 27.59375 7.515625 
L 36.8125 7.515625 
L 36.8125 0 
L 27.59375 0 
Q 17.1875 0 13.234375 3.875 
Q 9.28125 7.765625 9.28125 18.015625 
L 9.28125 47.703125 
L 2.6875 47.703125 
L 2.6875 54.6875 
L 9.28125 54.6875 
L 9.28125 70.21875 
z
" id="DejaVuSans-116"/>
    <path d="M 44.28125 53.078125 
L 44.28125 44.578125 
Q 40.484375 46.53125 36.375 47.5 
Q 32.28125 48.484375 27.875 48.484375 
Q 21.1875 48.484375 17.84375 46.4375 
Q 14.5 44.390625 14.5 40.28125 
Q 14.5 37.15625 16.890625 35.375 
Q 19.28125 33.59375 26.515625 31.984375 
L 29.59375 31.296875 
Q 39.15625 29.25 43.1875 25.515625 
Q 47.21875 21.78125 47.21875 15.09375 
Q 47.21875 7.46875 41.1875 3.015625 
Q 35.15625 -1.421875 24.609375 -1.421875 
Q 20.21875 -1.421875 15.453125 -0.5625 
Q 10.6875 0.296875 5.421875 2 
L 5.421875 11.28125 
Q 10.40625 8.6875 15.234375 7.390625 
Q 20.0625 6.109375 24.8125 6.109375 
Q 31.15625 6.109375 34.5625 8.28125 
Q 37.984375 10.453125 37.984375 14.40625 
Q 37.984375 18.0625 35.515625 20.015625 
Q 33.0625 21.96875 24.703125 23.78125 
L 21.578125 24.515625 
Q 13.234375 26.265625 9.515625 29.90625 
Q 5.8125 33.546875 5.8125 39.890625 
Q 5.8125 47.609375 11.28125 51.796875 
Q 16.75 56 26.8125 56 
Q 31.78125 56 36.171875 55.265625 
Q 40.578125 54.546875 44.28125 53.078125 
z
" id="DejaVuSans-115"/>
   </defs>
   <g transform="translate(132.309375 16.030125)scale(0.12 -0.12)">
    <use xlink:href="#DejaVuSans-97"/>
    <use x="61.279297" xlink:href="#DejaVuSans-99"/>
    <use x="116.259766" xlink:href="#DejaVuSans-99"/>
    <use x="171.240234" xlink:href="#DejaVuSans-117"/>
    <use x="234.619141" xlink:href="#DejaVuSans-114"/>
    <use x="275.732422" xlink:href="#DejaVuSans-97"/>
    <use x="337.011719" xlink:href="#DejaVuSans-99"/>
    <use x="391.992188" xlink:href="#DejaVuSans-121"/>
    <use x="436.921875" xlink:href="#DejaVuSans-46"/>
    <use x="468.708984" xlink:href="#DejaVuSans-109"/>
    <use x="566.121094" xlink:href="#DejaVuSans-101"/>
    <use x="627.644531" xlink:href="#DejaVuSans-97"/>
    <use x="688.923828" xlink:href="#DejaVuSans-110"/>
    <use x="752.302734" xlink:href="#DejaVuSans-32"/>
    <use x="784.089844" xlink:href="#DejaVuSans-111"/>
    <use x="845.271484" xlink:href="#DejaVuSans-118"/>
    <use x="904.451172" xlink:href="#DejaVuSans-101"/>
    <use x="965.974609" xlink:href="#DejaVuSans-114"/>
    <use x="1007.087891" xlink:href="#DejaVuSans-32"/>
    <use x="1038.875" xlink:href="#DejaVuSans-103"/>
    <use x="1102.351562" xlink:href="#DejaVuSans-101"/>
    <use x="1163.875" xlink:href="#DejaVuSans-110"/>
    <use x="1227.253906" xlink:href="#DejaVuSans-101"/>
    <use x="1288.777344" xlink:href="#DejaVuSans-114"/>
    <use x="1329.890625" xlink:href="#DejaVuSans-97"/>
    <use x="1391.169922" xlink:href="#DejaVuSans-116"/>
    <use x="1430.378906" xlink:href="#DejaVuSans-105"/>
    <use x="1458.162109" xlink:href="#DejaVuSans-111"/>
    <use x="1519.34375" xlink:href="#DejaVuSans-110"/>
    <use x="1582.722656" xlink:href="#DejaVuSans-115"/>
   </g>
  </g>
 </g>
 <defs>
  <clipPath id="p2346d7ab0a">
   <rect height="266.112" width="357.12" x="57.6" y="41.472"/>
  </clipPath>
 </defs>
</svg>
