<?xml version="1.0" encoding="utf-8" standalone="no"?>
<!DOCTYPE svg PUBLIC "-//W3C//DTD SVG 1.1//EN"
  "http://www.w3.org/Graphics/SVG/1.1/DTD/svg11.dtd">
<!-- Created with matplotlib (https://matplotlib.org/) -->
<svg height="345.6pt" version="1.1" viewBox="0 0 460.8 345.6" width="460.8pt" xmlns="http://www.w3.org/2000/svg" xmlns:xlink="http://www.w3.org/1999/xlink">
 <defs>
  <style type="text/css">
*{stroke-linecap:butt;stroke-linejoin:round;}
  </style>
 </defs>
 <g id="figure_1">
  <g id="patch_1">
   <path d="M 0 345.6 
L 460.8 345.6 
L 460.8 0 
L 0 0 
z
" style="fill:#ffffff;"/>
  </g>
  <g id="axes_1">
   <g id="patch_2">
    <path d="M 57.6 307.584 
L 414.72 307.584 
L 414.72 41.472 
L 57.6 41.472 
z
" style="fill:#ffffff;"/>
   </g>
   <g id="PolyCollection_1">
    <path clip-path="url(#p57c56bd2b2)" d="M 73.832727 211.915636 
L 73.832727 211.915636 
L 75.464157 211.915636 
L 77.095587 211.915636 
L 78.727017 211.915636 
L 80.358447 211.915636 
L 81.989877 211.915636 
L 83.621307 211.915636 
L 85.252736 211.915636 
L 86.884166 211.915636 
L 88.515596 211.915636 
L 90.147026 211.915636 
L 91.778456 211.915636 
L 93.409886 211.915636 
L 95.041316 211.915636 
L 96.672746 211.915636 
L 98.304175 211.915636 
L 99.935605 211.915636 
L 101.567035 211.915636 
L 103.198465 211.915636 
L 104.829895 211.915636 
L 106.461325 211.915636 
L 108.092755 211.915636 
L 109.724185 211.915636 
L 111.355614 211.915636 
L 112.987044 211.915636 
L 114.618474 211.915636 
L 116.249904 211.915636 
L 117.881334 211.915636 
L 119.512764 211.915636 
L 121.144194 211.915636 
L 122.775624 211.915636 
L 124.407053 211.915636 
L 126.038483 211.915636 
L 127.669913 211.915636 
L 129.301343 211.915636 
L 130.932773 211.915636 
L 132.564203 211.915636 
L 134.195633 211.915636 
L 135.827063 211.915636 
L 137.458492 211.915636 
L 139.089922 211.915636 
L 140.721352 211.915636 
L 142.352782 211.915636 
L 143.984212 211.915636 
L 145.615642 211.915636 
L 147.247072 211.915636 
L 148.878502 211.915636 
L 150.509931 211.915636 
L 152.141361 211.915636 
L 153.772791 211.915636 
L 155.404221 211.915636 
L 157.035651 211.915636 
L 158.667081 211.915636 
L 160.298511 211.915636 
L 161.929941 211.915636 
L 163.56137 211.915636 
L 165.1928 211.915636 
L 166.82423 211.915636 
L 168.45566 211.915636 
L 170.08709 211.915636 
L 171.71852 211.915636 
L 173.34995 211.915636 
L 174.98138 211.915636 
L 176.61281 211.915636 
L 178.244239 211.915636 
L 179.875669 211.915636 
L 181.507099 211.915636 
L 183.138529 211.915636 
L 184.769959 211.915636 
L 186.401389 211.915636 
L 188.032819 211.915636 
L 189.664249 211.915636 
L 191.295678 211.915636 
L 192.927108 211.915636 
L 194.558538 211.915636 
L 196.189968 211.915636 
L 197.821398 211.915636 
L 199.452828 211.915636 
L 201.084258 211.915636 
L 202.715688 211.915636 
L 204.347117 211.915636 
L 205.978547 211.915636 
L 207.609977 211.915636 
L 209.241407 211.915636 
L 210.872837 211.915636 
L 212.504267 211.915636 
L 214.135697 211.915636 
L 215.767127 211.915636 
L 217.398556 211.915636 
L 219.029986 211.915636 
L 220.661416 211.915636 
L 222.292846 211.915636 
L 223.924276 211.915636 
L 225.555706 211.915636 
L 227.187136 211.915636 
L 228.818566 211.915636 
L 230.449995 211.915636 
L 232.081425 211.915636 
L 233.712855 211.915636 
L 235.344285 211.915636 
L 236.975715 211.915636 
L 238.607145 211.915636 
L 240.238575 211.915636 
L 241.870005 211.915636 
L 243.501434 211.915636 
L 245.132864 211.915636 
L 246.764294 211.915636 
L 248.395724 211.915636 
L 250.027154 211.915636 
L 251.658584 211.915636 
L 253.290014 211.915636 
L 254.921444 211.915636 
L 256.552873 211.915636 
L 258.184303 205.533516 
L 259.815733 211.915636 
L 261.447163 211.915636 
L 263.078593 203.589818 
L 264.710023 211.915636 
L 266.341453 211.915636 
L 267.972883 211.915636 
L 269.604312 211.915636 
L 271.235742 211.915636 
L 272.867172 209.885538 
L 274.498602 207.794538 
L 276.130032 211.915636 
L 277.761462 211.915636 
L 279.392892 211.915636 
L 281.024322 211.915636 
L 282.655751 211.915636 
L 284.287181 211.915636 
L 285.918611 211.915636 
L 287.550041 211.915636 
L 289.181471 211.915636 
L 290.812901 211.915636 
L 292.444331 211.915636 
L 294.075761 211.915636 
L 295.70719 211.915636 
L 297.33862 211.915636 
L 298.97005 211.915636 
L 300.60148 211.915636 
L 302.23291 211.915636 
L 303.86434 211.915636 
L 305.49577 211.915636 
L 307.1272 211.915636 
L 308.75863 208.314629 
L 310.390059 211.915636 
L 312.021489 211.915636 
L 313.652919 211.915636 
L 315.284349 211.915636 
L 316.915779 211.915636 
L 318.547209 210.223888 
L 320.178639 214.030322 
L 321.810069 211.915636 
L 323.441498 195.421091 
L 325.072928 200.959552 
L 326.704358 211.915636 
L 328.335788 200.411748 
L 329.967218 211.915636 
L 331.598648 211.915636 
L 333.230078 211.915636 
L 334.861508 211.915636 
L 336.492937 211.915636 
L 338.124367 211.577287 
L 339.755797 211.915636 
L 341.387227 200.411748 
L 343.018657 211.915636 
L 344.650087 211.915636 
L 346.281517 194.998154 
L 347.912947 194.744392 
L 349.544376 211.915636 
L 351.175806 205.57158 
L 352.807236 196.013203 
L 354.438666 211.915636 
L 356.070096 211.915636 
L 357.701526 197.028252 
L 359.332956 211.915636 
L 360.964386 211.915636 
L 362.595815 211.915636 
L 364.227245 199.142937 
L 365.858675 171.622606 
L 367.490105 209.777882 
L 369.121535 208.819737 
L 370.752965 211.915636 
L 372.384395 211.915636 
L 374.015825 211.915636 
L 375.647254 211.915636 
L 377.278684 219.891021 
L 378.910114 211.915636 
L 380.541544 198.127888 
L 382.172974 194.744392 
L 383.804404 243.889678 
L 385.435834 207.819189 
L 387.067264 202.197191 
L 388.698693 197.874126 
L 390.330123 199.245913 
L 391.961553 194.764531 
L 393.592983 199.396699 
L 395.224413 211.915636 
L 396.855843 205.233231 
L 398.487273 211.915636 
L 398.487273 159.255273 
L 398.487273 159.255273 
L 396.855843 148.982601 
L 395.224413 154.749771 
L 393.592983 149.891916 
L 391.961553 117.685259 
L 390.330123 157.283702 
L 388.698693 161.163189 
L 387.067264 125.974825 
L 385.435834 184.170965 
L 383.804404 157.376275 
L 382.172974 154.311608 
L 380.541544 146.275804 
L 378.910114 181.294993 
L 377.278684 141.708084 
L 375.647254 123.098853 
L 374.015825 151.604811 
L 372.384395 186.201063 
L 370.752965 166.576783 
L 369.121535 175.965986 
L 367.490105 126.059413 
L 365.858675 103.982098 
L 364.227245 121.745455 
L 362.595815 165.815496 
L 360.964386 126.566937 
L 359.332956 122.191461 
L 357.701526 156.510881 
L 356.070096 157.52593 
L 354.438666 156.257119 
L 352.807236 152.704448 
L 351.175806 131.726769 
L 349.544376 144.245706 
L 347.912947 142.80772 
L 346.281517 167.151978 
L 344.650087 144.753231 
L 343.018657 144.245706 
L 341.387227 144.076531 
L 339.755797 158.408056 
L 338.124367 160.655664 
L 336.492937 169.114406 
L 334.861508 158.118042 
L 333.230078 177.182434 
L 331.598648 177.488559 
L 329.967218 161.163189 
L 328.335788 177.319385 
L 326.704358 167.426335 
L 325.072928 173.539865 
L 323.441498 173.005427 
L 321.810069 158.456392 
L 320.178639 190.316809 
L 318.547209 194.998154 
L 316.915779 162.516587 
L 315.284349 190.673622 
L 313.652919 186.370238 
L 312.021489 180.875439 
L 310.390059 161.163189 
L 308.75863 161.163189 
L 307.1272 161.839888 
L 305.49577 160.655664 
L 303.86434 161.163189 
L 302.23291 161.163189 
L 300.60148 161.163189 
L 298.97005 164.208336 
L 297.33862 161.163189 
L 295.70719 161.163189 
L 294.075761 160.268454 
L 292.444331 177.742322 
L 290.812901 153.159975 
L 289.181471 166.915133 
L 287.550041 142.215608 
L 285.918611 168.268531 
L 284.287181 178.080671 
L 282.655751 172.074965 
L 281.024322 164.546685 
L 279.392892 163.954573 
L 277.761462 178.080671 
L 276.130032 152.277074 
L 274.498602 161.755301 
L 272.867172 175.775664 
L 271.235742 178.080671 
L 269.604312 151.012699 
L 267.972883 151.689399 
L 266.341453 168.945231 
L 264.710023 170.298629 
L 263.078593 177.319385 
L 261.447163 184.314764 
L 259.815733 163.700811 
L 258.184303 178.080671 
L 256.552873 180.110769 
L 254.921444 164.800448 
L 253.290014 193.644755 
L 251.658584 178.757371 
L 250.027154 181.621259 
L 248.395724 167.507245 
L 246.764294 153.002517 
L 245.132864 153.719496 
L 243.501434 144.753231 
L 241.870005 178.080671 
L 240.238575 181.435331 
L 238.607145 178.080671 
L 236.975715 181.464168 
L 235.344285 202.577396 
L 233.712855 191.676653 
L 232.081425 194.998154 
L 230.449995 208.904324 
L 228.818566 175.965986 
L 227.187136 199.735049 
L 225.555706 183.022993 
L 223.924276 180.652129 
L 222.292846 211.915636 
L 220.661416 178.080671 
L 219.029986 182.752203 
L 217.398556 194.998154 
L 215.767127 194.998154 
L 214.135697 211.915636 
L 212.504267 211.915636 
L 210.872837 211.915636 
L 209.241407 211.915636 
L 207.609977 211.915636 
L 205.978547 211.915636 
L 204.347117 211.915636 
L 202.715688 211.915636 
L 201.084258 211.915636 
L 199.452828 211.915636 
L 197.821398 211.915636 
L 196.189968 211.915636 
L 194.558538 211.915636 
L 192.927108 211.915636 
L 191.295678 211.915636 
L 189.664249 211.915636 
L 188.032819 211.915636 
L 186.401389 211.915636 
L 184.769959 211.915636 
L 183.138529 211.915636 
L 181.507099 211.915636 
L 179.875669 211.915636 
L 178.244239 211.915636 
L 176.61281 211.915636 
L 174.98138 211.915636 
L 173.34995 211.915636 
L 171.71852 211.915636 
L 170.08709 211.915636 
L 168.45566 211.915636 
L 166.82423 211.915636 
L 165.1928 211.915636 
L 163.56137 211.915636 
L 161.929941 211.915636 
L 160.298511 211.915636 
L 158.667081 211.915636 
L 157.035651 211.915636 
L 155.404221 211.915636 
L 153.772791 211.915636 
L 152.141361 211.915636 
L 150.509931 211.915636 
L 148.878502 211.915636 
L 147.247072 211.915636 
L 145.615642 211.915636 
L 143.984212 211.915636 
L 142.352782 211.915636 
L 140.721352 211.915636 
L 139.089922 211.915636 
L 137.458492 211.915636 
L 135.827063 211.915636 
L 134.195633 211.915636 
L 132.564203 211.915636 
L 130.932773 211.915636 
L 129.301343 211.915636 
L 127.669913 211.915636 
L 126.038483 211.915636 
L 124.407053 211.915636 
L 122.775624 211.915636 
L 121.144194 211.915636 
L 119.512764 211.915636 
L 117.881334 211.915636 
L 116.249904 211.915636 
L 114.618474 211.915636 
L 112.987044 211.915636 
L 111.355614 211.915636 
L 109.724185 211.915636 
L 108.092755 211.915636 
L 106.461325 211.915636 
L 104.829895 211.915636 
L 103.198465 211.915636 
L 101.567035 211.915636 
L 99.935605 211.915636 
L 98.304175 211.915636 
L 96.672746 211.915636 
L 95.041316 211.915636 
L 93.409886 211.915636 
L 91.778456 211.915636 
L 90.147026 211.915636 
L 88.515596 211.915636 
L 86.884166 211.915636 
L 85.252736 211.915636 
L 83.621307 211.915636 
L 81.989877 211.915636 
L 80.358447 211.915636 
L 78.727017 211.915636 
L 77.095587 211.915636 
L 75.464157 211.915636 
L 73.832727 211.915636 
z
" style="fill:#1f77b4;fill-opacity:0.2;"/>
   </g>
   <g id="PolyCollection_2">
    <path clip-path="url(#p57c56bd2b2)" d="M 73.832727 211.915636 
L 73.832727 211.915636 
L 75.464157 211.915636 
L 77.095587 211.915636 
L 78.727017 211.915636 
L 80.358447 211.915636 
L 81.989877 211.915636 
L 83.621307 211.915636 
L 85.252736 211.915636 
L 86.884166 211.915636 
L 88.515596 211.915636 
L 90.147026 211.915636 
L 91.778456 211.915636 
L 93.409886 211.915636 
L 95.041316 211.915636 
L 96.672746 211.915636 
L 98.304175 211.915636 
L 99.935605 211.915636 
L 101.567035 211.915636 
L 103.198465 211.915636 
L 104.829895 211.915636 
L 106.461325 211.915636 
L 108.092755 211.915636 
L 109.724185 211.915636 
L 111.355614 211.915636 
L 112.987044 211.915636 
L 114.618474 211.915636 
L 116.249904 211.915636 
L 117.881334 211.915636 
L 119.512764 211.915636 
L 121.144194 211.915636 
L 122.775624 211.915636 
L 124.407053 211.915636 
L 126.038483 211.915636 
L 127.669913 211.915636 
L 129.301343 211.915636 
L 130.932773 211.915636 
L 132.564203 211.915636 
L 134.195633 211.915636 
L 135.827063 211.915636 
L 137.458492 211.915636 
L 139.089922 211.915636 
L 140.721352 211.915636 
L 142.352782 211.915636 
L 143.984212 211.915636 
L 145.615642 211.915636 
L 147.247072 211.915636 
L 148.878502 211.915636 
L 150.509931 211.915636 
L 152.141361 211.915636 
L 153.772791 211.915636 
L 155.404221 211.915636 
L 157.035651 211.915636 
L 158.667081 211.915636 
L 160.298511 211.915636 
L 161.929941 211.915636 
L 163.56137 211.915636 
L 165.1928 211.915636 
L 166.82423 211.915636 
L 168.45566 211.915636 
L 170.08709 211.915636 
L 171.71852 211.915636 
L 173.34995 211.915636 
L 174.98138 211.915636 
L 176.61281 211.915636 
L 178.244239 211.915636 
L 179.875669 211.915636 
L 181.507099 211.915636 
L 183.138529 211.915636 
L 184.769959 211.915636 
L 186.401389 211.915636 
L 188.032819 211.915636 
L 189.664249 211.915636 
L 191.295678 211.915636 
L 192.927108 211.915636 
L 194.558538 211.915636 
L 196.189968 211.915636 
L 197.821398 211.915636 
L 199.452828 211.915636 
L 201.084258 211.915636 
L 202.715688 211.915636 
L 204.347117 211.915636 
L 205.978547 218.00593 
L 207.609977 261.653035 
L 209.241407 242.705455 
L 210.872837 226.464671 
L 212.504267 214.622434 
L 214.135697 228.833119 
L 215.767127 234.923413 
L 217.398556 245.073902 
L 219.029986 234.923413 
L 220.661416 262.668084 
L 222.292846 267.743329 
L 223.924276 245.412252 
L 225.555706 244.735552 
L 227.187136 228.15642 
L 228.818566 265.374881 
L 230.449995 276.20207 
L 232.081425 228.494769 
L 233.712855 248.795748 
L 235.344285 242.705455 
L 236.975715 262.668084 
L 238.607145 242.367105 
L 240.238575 262.329734 
L 241.870005 242.367105 
L 243.501434 289.059357 
L 245.132864 268.081678 
L 246.764294 275.86372 
L 248.395724 265.036531 
L 250.027154 279.247217 
L 251.658584 261.653035 
L 253.290014 246.427301 
L 254.921444 256.239441 
L 256.552873 242.367105 
L 258.184303 245.750601 
L 259.815733 256.57779 
L 261.447163 239.998657 
L 263.078593 245.750601 
L 264.710023 223.419524 
L 266.341453 260.976336 
L 267.972883 251.164196 
L 269.604312 258.946238 
L 271.235742 239.998657 
L 272.867172 238.645259 
L 274.498602 243.720503 
L 276.130032 248.457399 
L 277.761462 244.735552 
L 279.392892 262.668084 
L 281.024322 259.961287 
L 282.655751 253.532643 
L 284.287181 273.833622 
L 285.918611 238.306909 
L 287.550041 218.682629 
L 289.181471 255.901091 
L 290.812901 253.870993 
L 292.444331 258.269538 
L 294.075761 237.29186 
L 295.70719 256.91614 
L 297.33862 234.923413 
L 298.97005 261.991385 
L 300.60148 243.382154 
L 302.23291 260.299636 
L 303.86434 231.878266 
L 305.49577 225.111273 
L 307.1272 247.780699 
L 308.75863 275.86372 
L 310.390059 228.833119 
L 312.021489 257.931189 
L 313.652919 238.983608 
L 315.284349 265.713231 
L 316.915779 259.622937 
L 318.547209 262.668084 
L 320.178639 247.44235 
L 321.810069 279.585566 
L 323.441498 247.104 
L 325.072928 239.998657 
L 326.704358 280.600615 
L 328.335788 232.216615 
L 329.967218 259.622937 
L 331.598648 279.585566 
L 333.230078 245.412252 
L 334.861508 279.585566 
L 336.492937 235.600112 
L 338.124367 258.607888 
L 339.755797 258.946238 
L 341.387227 231.539916 
L 343.018657 267.404979 
L 344.650087 260.976336 
L 346.281517 257.25449 
L 347.912947 270.450126 
L 349.544376 249.810797 
L 351.175806 295.488 
L 352.807236 254.209343 
L 354.438666 277.217119 
L 356.070096 236.95351 
L 357.701526 235.600112 
L 359.332956 257.25449 
L 360.964386 236.95351 
L 362.595815 283.307413 
L 364.227245 262.329734 
L 365.858675 278.232168 
L 367.490105 269.096727 
L 369.121535 240.337007 
L 370.752965 237.29186 
L 372.384395 245.073902 
L 374.015825 244.735552 
L 375.647254 277.217119 
L 377.278684 265.713231 
L 378.910114 244.058853 
L 380.541544 262.668084 
L 382.172974 259.961287 
L 383.804404 256.239441 
L 385.435834 241.013706 
L 387.067264 251.164196 
L 388.698693 258.269538 
L 390.330123 248.795748 
L 391.961553 246.76565 
L 393.592983 255.901091 
L 395.224413 275.86372 
L 396.855843 256.57779 
L 398.487273 262.668084 
L 398.487273 100.245541 
L 398.487273 100.245541 
L 396.855843 98.829955 
L 395.224413 98.149594 
L 393.592983 65.748587 
L 391.961553 56.951496 
L 390.330123 69.132084 
L 388.698693 100.421371 
L 387.067264 62.365091 
L 385.435834 105.426591 
L 383.804404 103.494874 
L 382.172974 102.967049 
L 380.541544 93.831608 
L 378.910114 103.382296 
L 377.278684 96.200056 
L 375.647254 53.568 
L 374.015825 75.222378 
L 372.384395 107.174353 
L 370.752965 88.756364 
L 369.121535 73.19228 
L 367.490105 69.132084 
L 365.858675 96.200056 
L 364.227245 69.808783 
L 362.595815 113.117538 
L 360.964386 66.763636 
L 359.332956 91.463161 
L 357.701526 110.444576 
L 356.070096 93.831608 
L 354.438666 88.756364 
L 352.807236 107.043357 
L 351.175806 55.936448 
L 349.544376 77.252476 
L 347.912947 103.305399 
L 346.281517 115.421538 
L 344.650087 89.771413 
L 343.018657 98.568503 
L 341.387227 116.501035 
L 339.755797 116.903832 
L 338.124367 94.508308 
L 336.492937 107.75228 
L 334.861508 106.401298 
L 333.230078 110.173896 
L 331.598648 98.230154 
L 329.967218 115.485986 
L 328.335788 153.558378 
L 326.704358 113.794238 
L 325.072928 145.260755 
L 323.441498 141.877259 
L 321.810069 117.516084 
L 320.178639 153.042797 
L 318.547209 143.230657 
L 316.915779 122.252979 
L 315.284349 132.065119 
L 313.652919 148.204397 
L 312.021489 144.584056 
L 310.390059 124.283077 
L 308.75863 117.854434 
L 307.1272 121.914629 
L 305.49577 123.268028 
L 303.86434 144.245706 
L 302.23291 127.328224 
L 300.60148 123.944727 
L 298.97005 127.328224 
L 297.33862 125.298126 
L 295.70719 144.245706 
L 294.075761 144.245706 
L 292.444331 128.343273 
L 290.812901 127.328224 
L 289.181471 144.584056 
L 287.550041 121.23793 
L 285.918611 129.696671 
L 284.287181 127.328224 
L 282.655751 144.245706 
L 281.024322 118.869483 
L 279.392892 130.373371 
L 277.761462 145.309091 
L 276.130032 110.749091 
L 274.498602 145.260755 
L 272.867172 132.741818 
L 271.235742 136.802014 
L 269.604312 132.741818 
L 267.972883 141.877259 
L 266.341453 103.982098 
L 264.710023 144.245706 
L 263.078593 150.197584 
L 261.447163 140.18551 
L 259.815733 127.328224 
L 258.184303 144.245706 
L 256.552873 134.433566 
L 254.921444 127.328224 
L 253.290014 146.882014 
L 251.658584 146.172828 
L 250.027154 127.328224 
L 248.395724 144.245706 
L 246.764294 131.38842 
L 245.132864 136.802014 
L 243.501434 127.328224 
L 241.870005 145.260755 
L 240.238575 148.859565 
L 238.607145 148.273678 
L 236.975715 127.328224 
L 235.344285 149.523961 
L 233.712855 144.584056 
L 232.081425 127.666573 
L 230.449995 127.328224 
L 228.818566 128.681622 
L 227.187136 144.245706 
L 225.555706 153.072219 
L 223.924276 145.599105 
L 222.292846 132.065119 
L 220.661416 127.328224 
L 219.029986 135.110266 
L 217.398556 142.039078 
L 215.767127 140.400824 
L 214.135697 137.140364 
L 212.504267 140.86221 
L 210.872837 133.756867 
L 209.241407 148.305902 
L 207.609977 180.449119 
L 205.978547 204.77807 
L 204.347117 194.998154 
L 202.715688 211.915636 
L 201.084258 211.915636 
L 199.452828 211.915636 
L 197.821398 211.915636 
L 196.189968 211.915636 
L 194.558538 211.915636 
L 192.927108 211.915636 
L 191.295678 211.915636 
L 189.664249 211.915636 
L 188.032819 211.915636 
L 186.401389 211.915636 
L 184.769959 211.915636 
L 183.138529 211.915636 
L 181.507099 211.915636 
L 179.875669 211.915636 
L 178.244239 211.915636 
L 176.61281 211.915636 
L 174.98138 211.915636 
L 173.34995 211.915636 
L 171.71852 211.915636 
L 170.08709 211.915636 
L 168.45566 211.915636 
L 166.82423 211.915636 
L 165.1928 211.915636 
L 163.56137 211.915636 
L 161.929941 211.915636 
L 160.298511 211.915636 
L 158.667081 211.915636 
L 157.035651 211.915636 
L 155.404221 211.915636 
L 153.772791 211.915636 
L 152.141361 211.915636 
L 150.509931 211.915636 
L 148.878502 211.915636 
L 147.247072 211.915636 
L 145.615642 211.915636 
L 143.984212 211.915636 
L 142.352782 211.915636 
L 140.721352 211.915636 
L 139.089922 211.915636 
L 137.458492 211.915636 
L 135.827063 211.915636 
L 134.195633 211.915636 
L 132.564203 211.915636 
L 130.932773 211.915636 
L 129.301343 211.915636 
L 127.669913 211.915636 
L 126.038483 211.915636 
L 124.407053 211.915636 
L 122.775624 211.915636 
L 121.144194 211.915636 
L 119.512764 211.915636 
L 117.881334 211.915636 
L 116.249904 211.915636 
L 114.618474 211.915636 
L 112.987044 211.915636 
L 111.355614 211.915636 
L 109.724185 211.915636 
L 108.092755 211.915636 
L 106.461325 211.915636 
L 104.829895 211.915636 
L 103.198465 211.915636 
L 101.567035 211.915636 
L 99.935605 211.915636 
L 98.304175 211.915636 
L 96.672746 211.915636 
L 95.041316 211.915636 
L 93.409886 211.915636 
L 91.778456 211.915636 
L 90.147026 211.915636 
L 88.515596 211.915636 
L 86.884166 211.915636 
L 85.252736 211.915636 
L 83.621307 211.915636 
L 81.989877 211.915636 
L 80.358447 211.915636 
L 78.727017 211.915636 
L 77.095587 211.915636 
L 75.464157 211.915636 
L 73.832727 211.915636 
z
" style="fill:#1f77b4;fill-opacity:0.1;"/>
   </g>
   <g id="matplotlib.axis_1">
    <g id="xtick_1">
     <g id="line2d_1">
      <defs>
       <path d="M 0 0 
L 0 3.5 
" id="m45124f624d" style="stroke:#000000;stroke-width:0.8;"/>
      </defs>
      <g>
       <use style="stroke:#000000;stroke-width:0.8;" x="73.832727" xlink:href="#m45124f624d" y="307.584"/>
      </g>
     </g>
     <g id="text_1">
      <!-- 0 -->
      <defs>
       <path d="M 31.78125 66.40625 
Q 24.171875 66.40625 20.328125 58.90625 
Q 16.5 51.421875 16.5 36.375 
Q 16.5 21.390625 20.328125 13.890625 
Q 24.171875 6.390625 31.78125 6.390625 
Q 39.453125 6.390625 43.28125 13.890625 
Q 47.125 21.390625 47.125 36.375 
Q 47.125 51.421875 43.28125 58.90625 
Q 39.453125 66.40625 31.78125 66.40625 
z
M 31.78125 74.21875 
Q 44.046875 74.21875 50.515625 64.515625 
Q 56.984375 54.828125 56.984375 36.375 
Q 56.984375 17.96875 50.515625 8.265625 
Q 44.046875 -1.421875 31.78125 -1.421875 
Q 19.53125 -1.421875 13.0625 8.265625 
Q 6.59375 17.96875 6.59375 36.375 
Q 6.59375 54.828125 13.0625 64.515625 
Q 19.53125 74.21875 31.78125 74.21875 
z
" id="DejaVuSans-48"/>
      </defs>
      <g transform="translate(70.651477 322.182437)scale(0.1 -0.1)">
       <use xlink:href="#DejaVuSans-48"/>
      </g>
     </g>
    </g>
    <g id="xtick_2">
     <g id="line2d_2">
      <g>
       <use style="stroke:#000000;stroke-width:0.8;" x="114.618474" xlink:href="#m45124f624d" y="307.584"/>
      </g>
     </g>
     <g id="text_2">
      <!-- 25 -->
      <defs>
       <path d="M 19.1875 8.296875 
L 53.609375 8.296875 
L 53.609375 0 
L 7.328125 0 
L 7.328125 8.296875 
Q 12.9375 14.109375 22.625 23.890625 
Q 32.328125 33.6875 34.8125 36.53125 
Q 39.546875 41.84375 41.421875 45.53125 
Q 43.3125 49.21875 43.3125 52.78125 
Q 43.3125 58.59375 39.234375 62.25 
Q 35.15625 65.921875 28.609375 65.921875 
Q 23.96875 65.921875 18.8125 64.3125 
Q 13.671875 62.703125 7.8125 59.421875 
L 7.8125 69.390625 
Q 13.765625 71.78125 18.9375 73 
Q 24.125 74.21875 28.421875 74.21875 
Q 39.75 74.21875 46.484375 68.546875 
Q 53.21875 62.890625 53.21875 53.421875 
Q 53.21875 48.921875 51.53125 44.890625 
Q 49.859375 40.875 45.40625 35.40625 
Q 44.1875 33.984375 37.640625 27.21875 
Q 31.109375 20.453125 19.1875 8.296875 
z
" id="DejaVuSans-50"/>
       <path d="M 10.796875 72.90625 
L 49.515625 72.90625 
L 49.515625 64.59375 
L 19.828125 64.59375 
L 19.828125 46.734375 
Q 21.96875 47.46875 24.109375 47.828125 
Q 26.265625 48.1875 28.421875 48.1875 
Q 40.625 48.1875 47.75 41.5 
Q 54.890625 34.8125 54.890625 23.390625 
Q 54.890625 11.625 47.5625 5.09375 
Q 40.234375 -1.421875 26.90625 -1.421875 
Q 22.3125 -1.421875 17.546875 -0.640625 
Q 12.796875 0.140625 7.71875 1.703125 
L 7.71875 11.625 
Q 12.109375 9.234375 16.796875 8.0625 
Q 21.484375 6.890625 26.703125 6.890625 
Q 35.15625 6.890625 40.078125 11.328125 
Q 45.015625 15.765625 45.015625 23.390625 
Q 45.015625 31 40.078125 35.4375 
Q 35.15625 39.890625 26.703125 39.890625 
Q 22.75 39.890625 18.8125 39.015625 
Q 14.890625 38.140625 10.796875 36.28125 
z
" id="DejaVuSans-53"/>
      </defs>
      <g transform="translate(108.255974 322.182437)scale(0.1 -0.1)">
       <use xlink:href="#DejaVuSans-50"/>
       <use x="63.623047" xlink:href="#DejaVuSans-53"/>
      </g>
     </g>
    </g>
    <g id="xtick_3">
     <g id="line2d_3">
      <g>
       <use style="stroke:#000000;stroke-width:0.8;" x="155.404221" xlink:href="#m45124f624d" y="307.584"/>
      </g>
     </g>
     <g id="text_3">
      <!-- 50 -->
      <g transform="translate(149.041721 322.182437)scale(0.1 -0.1)">
       <use xlink:href="#DejaVuSans-53"/>
       <use x="63.623047" xlink:href="#DejaVuSans-48"/>
      </g>
     </g>
    </g>
    <g id="xtick_4">
     <g id="line2d_4">
      <g>
       <use style="stroke:#000000;stroke-width:0.8;" x="196.189968" xlink:href="#m45124f624d" y="307.584"/>
      </g>
     </g>
     <g id="text_4">
      <!-- 75 -->
      <defs>
       <path d="M 8.203125 72.90625 
L 55.078125 72.90625 
L 55.078125 68.703125 
L 28.609375 0 
L 18.3125 0 
L 43.21875 64.59375 
L 8.203125 64.59375 
z
" id="DejaVuSans-55"/>
      </defs>
      <g transform="translate(189.827468 322.182437)scale(0.1 -0.1)">
       <use xlink:href="#DejaVuSans-55"/>
       <use x="63.623047" xlink:href="#DejaVuSans-53"/>
      </g>
     </g>
    </g>
    <g id="xtick_5">
     <g id="line2d_5">
      <g>
       <use style="stroke:#000000;stroke-width:0.8;" x="236.975715" xlink:href="#m45124f624d" y="307.584"/>
      </g>
     </g>
     <g id="text_5">
      <!-- 100 -->
      <defs>
       <path d="M 12.40625 8.296875 
L 28.515625 8.296875 
L 28.515625 63.921875 
L 10.984375 60.40625 
L 10.984375 69.390625 
L 28.421875 72.90625 
L 38.28125 72.90625 
L 38.28125 8.296875 
L 54.390625 8.296875 
L 54.390625 0 
L 12.40625 0 
z
" id="DejaVuSans-49"/>
      </defs>
      <g transform="translate(227.431965 322.182437)scale(0.1 -0.1)">
       <use xlink:href="#DejaVuSans-49"/>
       <use x="63.623047" xlink:href="#DejaVuSans-48"/>
       <use x="127.246094" xlink:href="#DejaVuSans-48"/>
      </g>
     </g>
    </g>
    <g id="xtick_6">
     <g id="line2d_6">
      <g>
       <use style="stroke:#000000;stroke-width:0.8;" x="277.761462" xlink:href="#m45124f624d" y="307.584"/>
      </g>
     </g>
     <g id="text_6">
      <!-- 125 -->
      <g transform="translate(268.217712 322.182437)scale(0.1 -0.1)">
       <use xlink:href="#DejaVuSans-49"/>
       <use x="63.623047" xlink:href="#DejaVuSans-50"/>
       <use x="127.246094" xlink:href="#DejaVuSans-53"/>
      </g>
     </g>
    </g>
    <g id="xtick_7">
     <g id="line2d_7">
      <g>
       <use style="stroke:#000000;stroke-width:0.8;" x="318.547209" xlink:href="#m45124f624d" y="307.584"/>
      </g>
     </g>
     <g id="text_7">
      <!-- 150 -->
      <g transform="translate(309.003459 322.182437)scale(0.1 -0.1)">
       <use xlink:href="#DejaVuSans-49"/>
       <use x="63.623047" xlink:href="#DejaVuSans-53"/>
       <use x="127.246094" xlink:href="#DejaVuSans-48"/>
      </g>
     </g>
    </g>
    <g id="xtick_8">
     <g id="line2d_8">
      <g>
       <use style="stroke:#000000;stroke-width:0.8;" x="359.332956" xlink:href="#m45124f624d" y="307.584"/>
      </g>
     </g>
     <g id="text_8">
      <!-- 175 -->
      <g transform="translate(349.789206 322.182437)scale(0.1 -0.1)">
       <use xlink:href="#DejaVuSans-49"/>
       <use x="63.623047" xlink:href="#DejaVuSans-55"/>
       <use x="127.246094" xlink:href="#DejaVuSans-53"/>
      </g>
     </g>
    </g>
    <g id="xtick_9">
     <g id="line2d_9">
      <g>
       <use style="stroke:#000000;stroke-width:0.8;" x="400.118703" xlink:href="#m45124f624d" y="307.584"/>
      </g>
     </g>
     <g id="text_9">
      <!-- 200 -->
      <g transform="translate(390.574953 322.182437)scale(0.1 -0.1)">
       <use xlink:href="#DejaVuSans-50"/>
       <use x="63.623047" xlink:href="#DejaVuSans-48"/>
       <use x="127.246094" xlink:href="#DejaVuSans-48"/>
      </g>
     </g>
    </g>
   </g>
   <g id="matplotlib.axis_2">
    <g id="ytick_1">
     <g id="line2d_10">
      <defs>
       <path d="M 0 0 
L -3.5 0 
" id="m449284f028" style="stroke:#000000;stroke-width:0.8;"/>
      </defs>
      <g>
       <use style="stroke:#000000;stroke-width:0.8;" x="57.6" xlink:href="#m449284f028" y="296.503049"/>
      </g>
     </g>
     <g id="text_10">
      <!-- 0.0 -->
      <defs>
       <path d="M 10.6875 12.40625 
L 21 12.40625 
L 21 0 
L 10.6875 0 
z
" id="DejaVuSans-46"/>
      </defs>
      <g transform="translate(34.696875 300.302268)scale(0.1 -0.1)">
       <use xlink:href="#DejaVuSans-48"/>
       <use x="63.623047" xlink:href="#DejaVuSans-46"/>
       <use x="95.410156" xlink:href="#DejaVuSans-48"/>
      </g>
     </g>
    </g>
    <g id="ytick_2">
     <g id="line2d_11">
      <g>
       <use style="stroke:#000000;stroke-width:0.8;" x="57.6" xlink:href="#m449284f028" y="245.750601"/>
      </g>
     </g>
     <g id="text_11">
      <!-- 0.2 -->
      <g transform="translate(34.696875 249.54982)scale(0.1 -0.1)">
       <use xlink:href="#DejaVuSans-48"/>
       <use x="63.623047" xlink:href="#DejaVuSans-46"/>
       <use x="95.410156" xlink:href="#DejaVuSans-50"/>
      </g>
     </g>
    </g>
    <g id="ytick_3">
     <g id="line2d_12">
      <g>
       <use style="stroke:#000000;stroke-width:0.8;" x="57.6" xlink:href="#m449284f028" y="194.998154"/>
      </g>
     </g>
     <g id="text_12">
      <!-- 0.4 -->
      <defs>
       <path d="M 37.796875 64.3125 
L 12.890625 25.390625 
L 37.796875 25.390625 
z
M 35.203125 72.90625 
L 47.609375 72.90625 
L 47.609375 25.390625 
L 58.015625 25.390625 
L 58.015625 17.1875 
L 47.609375 17.1875 
L 47.609375 0 
L 37.796875 0 
L 37.796875 17.1875 
L 4.890625 17.1875 
L 4.890625 26.703125 
z
" id="DejaVuSans-52"/>
      </defs>
      <g transform="translate(34.696875 198.797373)scale(0.1 -0.1)">
       <use xlink:href="#DejaVuSans-48"/>
       <use x="63.623047" xlink:href="#DejaVuSans-46"/>
       <use x="95.410156" xlink:href="#DejaVuSans-52"/>
      </g>
     </g>
    </g>
    <g id="ytick_4">
     <g id="line2d_13">
      <g>
       <use style="stroke:#000000;stroke-width:0.8;" x="57.6" xlink:href="#m449284f028" y="144.245706"/>
      </g>
     </g>
     <g id="text_13">
      <!-- 0.6 -->
      <defs>
       <path d="M 33.015625 40.375 
Q 26.375 40.375 22.484375 35.828125 
Q 18.609375 31.296875 18.609375 23.390625 
Q 18.609375 15.53125 22.484375 10.953125 
Q 26.375 6.390625 33.015625 6.390625 
Q 39.65625 6.390625 43.53125 10.953125 
Q 47.40625 15.53125 47.40625 23.390625 
Q 47.40625 31.296875 43.53125 35.828125 
Q 39.65625 40.375 33.015625 40.375 
z
M 52.59375 71.296875 
L 52.59375 62.3125 
Q 48.875 64.0625 45.09375 64.984375 
Q 41.3125 65.921875 37.59375 65.921875 
Q 27.828125 65.921875 22.671875 59.328125 
Q 17.53125 52.734375 16.796875 39.40625 
Q 19.671875 43.65625 24.015625 45.921875 
Q 28.375 48.1875 33.59375 48.1875 
Q 44.578125 48.1875 50.953125 41.515625 
Q 57.328125 34.859375 57.328125 23.390625 
Q 57.328125 12.15625 50.6875 5.359375 
Q 44.046875 -1.421875 33.015625 -1.421875 
Q 20.359375 -1.421875 13.671875 8.265625 
Q 6.984375 17.96875 6.984375 36.375 
Q 6.984375 53.65625 15.1875 63.9375 
Q 23.390625 74.21875 37.203125 74.21875 
Q 40.921875 74.21875 44.703125 73.484375 
Q 48.484375 72.75 52.59375 71.296875 
z
" id="DejaVuSans-54"/>
      </defs>
      <g transform="translate(34.696875 148.044925)scale(0.1 -0.1)">
       <use xlink:href="#DejaVuSans-48"/>
       <use x="63.623047" xlink:href="#DejaVuSans-46"/>
       <use x="95.410156" xlink:href="#DejaVuSans-54"/>
      </g>
     </g>
    </g>
    <g id="ytick_5">
     <g id="line2d_14">
      <g>
       <use style="stroke:#000000;stroke-width:0.8;" x="57.6" xlink:href="#m449284f028" y="93.493259"/>
      </g>
     </g>
     <g id="text_14">
      <!-- 0.8 -->
      <defs>
       <path d="M 31.78125 34.625 
Q 24.75 34.625 20.71875 30.859375 
Q 16.703125 27.09375 16.703125 20.515625 
Q 16.703125 13.921875 20.71875 10.15625 
Q 24.75 6.390625 31.78125 6.390625 
Q 38.8125 6.390625 42.859375 10.171875 
Q 46.921875 13.96875 46.921875 20.515625 
Q 46.921875 27.09375 42.890625 30.859375 
Q 38.875 34.625 31.78125 34.625 
z
M 21.921875 38.8125 
Q 15.578125 40.375 12.03125 44.71875 
Q 8.5 49.078125 8.5 55.328125 
Q 8.5 64.0625 14.71875 69.140625 
Q 20.953125 74.21875 31.78125 74.21875 
Q 42.671875 74.21875 48.875 69.140625 
Q 55.078125 64.0625 55.078125 55.328125 
Q 55.078125 49.078125 51.53125 44.71875 
Q 48 40.375 41.703125 38.8125 
Q 48.828125 37.15625 52.796875 32.3125 
Q 56.78125 27.484375 56.78125 20.515625 
Q 56.78125 9.90625 50.3125 4.234375 
Q 43.84375 -1.421875 31.78125 -1.421875 
Q 19.734375 -1.421875 13.25 4.234375 
Q 6.78125 9.90625 6.78125 20.515625 
Q 6.78125 27.484375 10.78125 32.3125 
Q 14.796875 37.15625 21.921875 38.8125 
z
M 18.3125 54.390625 
Q 18.3125 48.734375 21.84375 45.5625 
Q 25.390625 42.390625 31.78125 42.390625 
Q 38.140625 42.390625 41.71875 45.5625 
Q 45.3125 48.734375 45.3125 54.390625 
Q 45.3125 60.0625 41.71875 63.234375 
Q 38.140625 66.40625 31.78125 66.40625 
Q 25.390625 66.40625 21.84375 63.234375 
Q 18.3125 60.0625 18.3125 54.390625 
z
" id="DejaVuSans-56"/>
      </defs>
      <g transform="translate(34.696875 97.292477)scale(0.1 -0.1)">
       <use xlink:href="#DejaVuSans-48"/>
       <use x="63.623047" xlink:href="#DejaVuSans-46"/>
       <use x="95.410156" xlink:href="#DejaVuSans-56"/>
      </g>
     </g>
    </g>
    <g id="ytick_6">
     <g id="line2d_15">
      <g>
       <use style="stroke:#000000;stroke-width:0.8;" x="57.6" xlink:href="#m449284f028" y="42.740811"/>
      </g>
     </g>
     <g id="text_15">
      <!-- 1.0 -->
      <g transform="translate(34.696875 46.54003)scale(0.1 -0.1)">
       <use xlink:href="#DejaVuSans-49"/>
       <use x="63.623047" xlink:href="#DejaVuSans-46"/>
       <use x="95.410156" xlink:href="#DejaVuSans-48"/>
      </g>
     </g>
    </g>
   </g>
   <g id="line2d_16">
    <path clip-path="url(#p57c56bd2b2)" d="M 73.832727 211.915636 
L 219.029986 211.915636 
L 220.661416 195.336503 
L 222.292846 211.915636 
L 236.975715 211.915636 
L 238.607145 199.389932 
L 240.238575 211.915636 
L 241.870005 190.261259 
L 243.501434 182.225455 
L 245.132864 195.674853 
L 246.764294 186.717046 
L 248.395724 195.505678 
L 250.027154 200.750098 
L 251.658584 194.998154 
L 253.290014 196.013203 
L 254.921444 193.644755 
L 256.552873 197.620364 
L 259.815733 188.889734 
L 261.447163 195.336503 
L 263.078593 184.83082 
L 264.710023 202.234222 
L 266.341453 194.15228 
L 267.972883 198.507323 
L 269.604312 183.494266 
L 271.235742 194.321455 
L 272.867172 187.892811 
L 274.498602 178.554361 
L 277.761462 189.151307 
L 279.392892 183.832615 
L 281.024322 194.998154 
L 282.655751 200.613147 
L 284.287181 192.629706 
L 285.918611 195.336503 
L 287.550041 181.464168 
L 289.181471 193.983105 
L 290.812901 186.56358 
L 292.444331 209.152448 
L 294.075761 181.464168 
L 295.70719 194.998154 
L 297.33862 180.988867 
L 298.97005 179.887766 
L 300.60148 176.388923 
L 302.23291 163.024112 
L 303.86434 179.305175 
L 305.49577 175.881399 
L 307.1272 180.987402 
L 308.75863 165.223385 
L 310.390059 187.701449 
L 312.021489 195.336503 
L 313.652919 201.621035 
L 315.284349 209.547189 
L 316.915779 201.829317 
L 318.547209 202.611021 
L 320.178639 195.336503 
L 321.810069 194.998154 
L 323.441498 190.430434 
L 325.072928 186.708587 
L 326.704358 211.915636 
L 328.335788 195.844028 
L 329.967218 195.582576 
L 331.598648 206.163692 
L 333.230078 197.366601 
L 334.861508 198.043301 
L 336.492937 192.122182 
L 338.124367 186.877762 
L 339.755797 206.373147 
L 341.387227 179.43407 
L 343.018657 211.915636 
L 344.650087 211.915636 
L 346.281517 181.971692 
L 347.912947 173.343776 
L 349.544376 170.975329 
L 351.175806 168.179492 
L 352.807236 180.787469 
L 354.438666 178.419021 
L 356.070096 192.460531 
L 357.701526 178.080671 
L 359.332956 162.532699 
L 360.964386 178.080671 
L 362.595815 211.915636 
L 364.227245 151.012699 
L 365.858675 144.245706 
L 367.490105 183.155916 
L 369.121535 202.441846 
L 370.752965 195.674853 
L 372.384395 194.998154 
L 374.015825 171.990378 
L 375.647254 156.426294 
L 377.278684 170.467804 
L 378.910114 192.291357 
L 380.541544 167.924348 
L 382.172974 180.787469 
L 383.804404 210.283099 
L 385.435834 197.704951 
L 387.067264 161.163189 
L 388.698693 179.43407 
L 390.330123 186.201063 
L 391.961553 154.502114 
L 395.224413 201.888775 
L 396.855843 183.675108 
L 398.487273 197.835086 
L 398.487273 197.835086 
" style="fill:none;stroke:#1f77b4;stroke-linecap:square;stroke-width:0.25;"/>
   </g>
   <g id="line2d_17">
    <path clip-path="url(#p57c56bd2b2)" d="M 73.832727 211.915636 
L 202.715688 211.915636 
L 204.347117 211.671686 
L 205.978547 211.756966 
L 207.609977 212.599283 
L 209.241407 210.538636 
L 210.872837 209.265851 
L 212.504267 206.853458 
L 214.135697 206.846675 
L 215.767127 202.336886 
L 217.398556 203.360663 
L 219.029986 199.158739 
L 220.661416 191.349657 
L 222.292846 203.915642 
L 223.924276 200.494574 
L 225.555706 201.826021 
L 227.187136 201.134244 
L 228.818566 195.062058 
L 230.449995 202.041902 
L 232.081425 198.211691 
L 233.712855 199.699015 
L 235.344285 204.778881 
L 236.975715 198.717426 
L 238.607145 195.333972 
L 240.238575 198.155962 
L 241.870005 193.06358 
L 243.501434 179.902981 
L 245.132864 191.102907 
L 246.764294 185.142479 
L 248.395724 191.633956 
L 250.027154 194.955143 
L 251.658584 195.956271 
L 253.290014 197.247279 
L 254.921444 188.364956 
L 256.552873 193.563938 
L 258.184303 188.520356 
L 259.815733 186.475698 
L 261.447163 194.267849 
L 263.078593 189.564594 
L 264.710023 191.941607 
L 266.341453 186.545557 
L 267.972883 185.243906 
L 269.604312 181.550731 
L 271.235742 191.974329 
L 272.867172 189.182024 
L 274.498602 183.911277 
L 276.130032 179.733878 
L 277.761462 192.375579 
L 279.392892 185.797252 
L 281.024322 190.838192 
L 282.655751 191.997064 
L 284.287181 191.393052 
L 285.918611 189.108319 
L 287.550041 176.930735 
L 289.181471 189.983821 
L 290.812901 183.789726 
L 292.444331 191.9783 
L 294.075761 185.793957 
L 295.70719 189.279856 
L 297.33862 181.903957 
L 298.97005 185.180796 
L 300.60148 183.474223 
L 302.23291 179.434535 
L 303.86434 182.880828 
L 305.49577 177.737475 
L 307.1272 184.619603 
L 308.75863 177.685082 
L 310.390059 185.566023 
L 312.021489 196.020134 
L 313.652919 199.302295 
L 315.284349 200.128677 
L 316.915779 190.865506 
L 318.547209 201.22617 
L 320.178639 201.336717 
L 321.810069 185.332014 
L 323.441498 187.94115 
L 325.072928 188.848125 
L 326.704358 191.500427 
L 329.967218 189.376368 
L 331.598648 197.137453 
L 333.230078 193.303936 
L 334.861508 186.675424 
L 336.492937 188.723249 
L 338.124367 180.450546 
L 339.755797 186.565718 
L 341.387227 172.808422 
L 344.650087 186.800204 
L 346.281517 180.088504 
L 347.912947 168.886003 
L 349.544376 167.654904 
L 351.175806 166.93797 
L 352.807236 174.607964 
L 354.438666 179.790448 
L 356.070096 180.411241 
L 357.701526 176.403904 
L 359.332956 166.361545 
L 360.964386 161.847593 
L 362.595815 191.909884 
L 364.227245 156.288741 
L 365.858675 146.951699 
L 367.490105 170.511495 
L 369.121535 188.097652 
L 370.752965 183.985776 
L 372.384395 190.157657 
L 374.015825 172.205705 
L 375.647254 159.850268 
L 377.278684 173.76269 
L 378.910114 191.228909 
L 380.541544 169.162212 
L 382.172974 172.666584 
L 383.804404 196.111553 
L 385.435834 193.801325 
L 387.067264 158.848997 
L 388.698693 178.611989 
L 390.330123 175.902005 
L 391.961553 149.372551 
L 393.592983 168.223878 
L 395.224413 193.198291 
L 396.855843 177.149105 
L 398.487273 188.436427 
L 398.487273 188.436427 
" style="fill:none;stroke:#2ca02c;stroke-linecap:square;stroke-width:0.75;"/>
   </g>
   <g id="patch_3">
    <path d="M 57.6 307.584 
L 57.6 41.472 
" style="fill:none;stroke:#000000;stroke-linecap:square;stroke-linejoin:miter;stroke-width:0.8;"/>
   </g>
   <g id="patch_4">
    <path d="M 414.72 307.584 
L 414.72 41.472 
" style="fill:none;stroke:#000000;stroke-linecap:square;stroke-linejoin:miter;stroke-width:0.8;"/>
   </g>
   <g id="patch_5">
    <path d="M 57.6 307.584 
L 414.72 307.584 
" style="fill:none;stroke:#000000;stroke-linecap:square;stroke-linejoin:miter;stroke-width:0.8;"/>
   </g>
   <g id="patch_6">
    <path d="M 57.6 41.472 
L 414.72 41.472 
" style="fill:none;stroke:#000000;stroke-linecap:square;stroke-linejoin:miter;stroke-width:0.8;"/>
   </g>
   <g id="legend_1">
    <g id="patch_7">
     <path d="M 338.234063 78.82825 
L 407.72 78.82825 
Q 409.72 78.82825 409.72 76.82825 
L 409.72 48.472 
Q 409.72 46.472 407.72 46.472 
L 338.234063 46.472 
Q 336.234063 46.472 336.234063 48.472 
L 336.234063 76.82825 
Q 336.234063 78.82825 338.234063 78.82825 
z
" style="fill:#ffffff;opacity:0.8;stroke:#cccccc;stroke-linejoin:miter;"/>
    </g>
    <g id="line2d_18">
     <path d="M 340.234063 54.570437 
L 360.234063 54.570437 
" style="fill:none;stroke:#1f77b4;stroke-linecap:square;stroke-width:0.25;"/>
    </g>
    <g id="line2d_19"/>
    <g id="text_16">
     <!-- median -->
     <defs>
      <path d="M 52 44.1875 
Q 55.375 50.25 60.0625 53.125 
Q 64.75 56 71.09375 56 
Q 79.640625 56 84.28125 50.015625 
Q 88.921875 44.046875 88.921875 33.015625 
L 88.921875 0 
L 79.890625 0 
L 79.890625 32.71875 
Q 79.890625 40.578125 77.09375 44.375 
Q 74.3125 48.1875 68.609375 48.1875 
Q 61.625 48.1875 57.5625 43.546875 
Q 53.515625 38.921875 53.515625 30.90625 
L 53.515625 0 
L 44.484375 0 
L 44.484375 32.71875 
Q 44.484375 40.625 41.703125 44.40625 
Q 38.921875 48.1875 33.109375 48.1875 
Q 26.21875 48.1875 22.15625 43.53125 
Q 18.109375 38.875 18.109375 30.90625 
L 18.109375 0 
L 9.078125 0 
L 9.078125 54.6875 
L 18.109375 54.6875 
L 18.109375 46.1875 
Q 21.1875 51.21875 25.484375 53.609375 
Q 29.78125 56 35.6875 56 
Q 41.65625 56 45.828125 52.96875 
Q 50 49.953125 52 44.1875 
z
" id="DejaVuSans-109"/>
      <path d="M 56.203125 29.59375 
L 56.203125 25.203125 
L 14.890625 25.203125 
Q 15.484375 15.921875 20.484375 11.0625 
Q 25.484375 6.203125 34.421875 6.203125 
Q 39.59375 6.203125 44.453125 7.46875 
Q 49.3125 8.734375 54.109375 11.28125 
L 54.109375 2.78125 
Q 49.265625 0.734375 44.1875 -0.34375 
Q 39.109375 -1.421875 33.890625 -1.421875 
Q 20.796875 -1.421875 13.15625 6.1875 
Q 5.515625 13.8125 5.515625 26.8125 
Q 5.515625 40.234375 12.765625 48.109375 
Q 20.015625 56 32.328125 56 
Q 43.359375 56 49.78125 48.890625 
Q 56.203125 41.796875 56.203125 29.59375 
z
M 47.21875 32.234375 
Q 47.125 39.59375 43.09375 43.984375 
Q 39.0625 48.390625 32.421875 48.390625 
Q 24.90625 48.390625 20.390625 44.140625 
Q 15.875 39.890625 15.1875 32.171875 
z
" id="DejaVuSans-101"/>
      <path d="M 45.40625 46.390625 
L 45.40625 75.984375 
L 54.390625 75.984375 
L 54.390625 0 
L 45.40625 0 
L 45.40625 8.203125 
Q 42.578125 3.328125 38.25 0.953125 
Q 33.9375 -1.421875 27.875 -1.421875 
Q 17.96875 -1.421875 11.734375 6.484375 
Q 5.515625 14.40625 5.515625 27.296875 
Q 5.515625 40.1875 11.734375 48.09375 
Q 17.96875 56 27.875 56 
Q 33.9375 56 38.25 53.625 
Q 42.578125 51.265625 45.40625 46.390625 
z
M 14.796875 27.296875 
Q 14.796875 17.390625 18.875 11.75 
Q 22.953125 6.109375 30.078125 6.109375 
Q 37.203125 6.109375 41.296875 11.75 
Q 45.40625 17.390625 45.40625 27.296875 
Q 45.40625 37.203125 41.296875 42.84375 
Q 37.203125 48.484375 30.078125 48.484375 
Q 22.953125 48.484375 18.875 42.84375 
Q 14.796875 37.203125 14.796875 27.296875 
z
" id="DejaVuSans-100"/>
      <path d="M 9.421875 54.6875 
L 18.40625 54.6875 
L 18.40625 0 
L 9.421875 0 
z
M 9.421875 75.984375 
L 18.40625 75.984375 
L 18.40625 64.59375 
L 9.421875 64.59375 
z
" id="DejaVuSans-105"/>
      <path d="M 34.28125 27.484375 
Q 23.390625 27.484375 19.1875 25 
Q 14.984375 22.515625 14.984375 16.5 
Q 14.984375 11.71875 18.140625 8.90625 
Q 21.296875 6.109375 26.703125 6.109375 
Q 34.1875 6.109375 38.703125 11.40625 
Q 43.21875 16.703125 43.21875 25.484375 
L 43.21875 27.484375 
z
M 52.203125 31.203125 
L 52.203125 0 
L 43.21875 0 
L 43.21875 8.296875 
Q 40.140625 3.328125 35.546875 0.953125 
Q 30.953125 -1.421875 24.3125 -1.421875 
Q 15.921875 -1.421875 10.953125 3.296875 
Q 6 8.015625 6 15.921875 
Q 6 25.140625 12.171875 29.828125 
Q 18.359375 34.515625 30.609375 34.515625 
L 43.21875 34.515625 
L 43.21875 35.40625 
Q 43.21875 41.609375 39.140625 45 
Q 35.0625 48.390625 27.6875 48.390625 
Q 23 48.390625 18.546875 47.265625 
Q 14.109375 46.140625 10.015625 43.890625 
L 10.015625 52.203125 
Q 14.9375 54.109375 19.578125 55.046875 
Q 24.21875 56 28.609375 56 
Q 40.484375 56 46.34375 49.84375 
Q 52.203125 43.703125 52.203125 31.203125 
z
" id="DejaVuSans-97"/>
      <path d="M 54.890625 33.015625 
L 54.890625 0 
L 45.90625 0 
L 45.90625 32.71875 
Q 45.90625 40.484375 42.875 44.328125 
Q 39.84375 48.1875 33.796875 48.1875 
Q 26.515625 48.1875 22.3125 43.546875 
Q 18.109375 38.921875 18.109375 30.90625 
L 18.109375 0 
L 9.078125 0 
L 9.078125 54.6875 
L 18.109375 54.6875 
L 18.109375 46.1875 
Q 21.34375 51.125 25.703125 53.5625 
Q 30.078125 56 35.796875 56 
Q 45.21875 56 50.046875 50.171875 
Q 54.890625 44.34375 54.890625 33.015625 
z
" id="DejaVuSans-110"/>
     </defs>
     <g transform="translate(368.234063 58.070437)scale(0.1 -0.1)">
      <use xlink:href="#DejaVuSans-109"/>
      <use x="97.412109" xlink:href="#DejaVuSans-101"/>
      <use x="158.935547" xlink:href="#DejaVuSans-100"/>
      <use x="222.412109" xlink:href="#DejaVuSans-105"/>
      <use x="250.195312" xlink:href="#DejaVuSans-97"/>
      <use x="311.474609" xlink:href="#DejaVuSans-110"/>
     </g>
    </g>
    <g id="line2d_20">
     <path d="M 340.234063 69.248562 
L 360.234063 69.248562 
" style="fill:none;stroke:#2ca02c;stroke-linecap:square;stroke-width:0.75;"/>
    </g>
    <g id="line2d_21"/>
    <g id="text_17">
     <!-- mean -->
     <g transform="translate(368.234063 72.748562)scale(0.1 -0.1)">
      <use xlink:href="#DejaVuSans-109"/>
      <use x="97.412109" xlink:href="#DejaVuSans-101"/>
      <use x="158.935547" xlink:href="#DejaVuSans-97"/>
      <use x="220.214844" xlink:href="#DejaVuSans-110"/>
     </g>
    </g>
   </g>
  </g>
  <g id="text_18">
   <!-- accuracy.mean over generations -->
   <defs>
    <path d="M 48.78125 52.59375 
L 48.78125 44.1875 
Q 44.96875 46.296875 41.140625 47.34375 
Q 37.3125 48.390625 33.40625 48.390625 
Q 24.65625 48.390625 19.8125 42.84375 
Q 14.984375 37.3125 14.984375 27.296875 
Q 14.984375 17.28125 19.8125 11.734375 
Q 24.65625 6.203125 33.40625 6.203125 
Q 37.3125 6.203125 41.140625 7.25 
Q 44.96875 8.296875 48.78125 10.40625 
L 48.78125 2.09375 
Q 45.015625 0.34375 40.984375 -0.53125 
Q 36.96875 -1.421875 32.421875 -1.421875 
Q 20.0625 -1.421875 12.78125 6.34375 
Q 5.515625 14.109375 5.515625 27.296875 
Q 5.515625 40.671875 12.859375 48.328125 
Q 20.21875 56 33.015625 56 
Q 37.15625 56 41.109375 55.140625 
Q 45.0625 54.296875 48.78125 52.59375 
z
" id="DejaVuSans-99"/>
    <path d="M 8.5 21.578125 
L 8.5 54.6875 
L 17.484375 54.6875 
L 17.484375 21.921875 
Q 17.484375 14.15625 20.5 10.265625 
Q 23.53125 6.390625 29.59375 6.390625 
Q 36.859375 6.390625 41.078125 11.03125 
Q 45.3125 15.671875 45.3125 23.6875 
L 45.3125 54.6875 
L 54.296875 54.6875 
L 54.296875 0 
L 45.3125 0 
L 45.3125 8.40625 
Q 42.046875 3.421875 37.71875 1 
Q 33.40625 -1.421875 27.6875 -1.421875 
Q 18.265625 -1.421875 13.375 4.4375 
Q 8.5 10.296875 8.5 21.578125 
z
M 31.109375 56 
z
" id="DejaVuSans-117"/>
    <path d="M 41.109375 46.296875 
Q 39.59375 47.171875 37.8125 47.578125 
Q 36.03125 48 33.890625 48 
Q 26.265625 48 22.1875 43.046875 
Q 18.109375 38.09375 18.109375 28.8125 
L 18.109375 0 
L 9.078125 0 
L 9.078125 54.6875 
L 18.109375 54.6875 
L 18.109375 46.1875 
Q 20.953125 51.171875 25.484375 53.578125 
Q 30.03125 56 36.53125 56 
Q 37.453125 56 38.578125 55.875 
Q 39.703125 55.765625 41.0625 55.515625 
z
" id="DejaVuSans-114"/>
    <path d="M 32.171875 -5.078125 
Q 28.375 -14.84375 24.75 -17.8125 
Q 21.140625 -20.796875 15.09375 -20.796875 
L 7.90625 -20.796875 
L 7.90625 -13.28125 
L 13.1875 -13.28125 
Q 16.890625 -13.28125 18.9375 -11.515625 
Q 21 -9.765625 23.484375 -3.21875 
L 25.09375 0.875 
L 2.984375 54.6875 
L 12.5 54.6875 
L 29.59375 11.921875 
L 46.6875 54.6875 
L 56.203125 54.6875 
z
" id="DejaVuSans-121"/>
    <path id="DejaVuSans-32"/>
    <path d="M 30.609375 48.390625 
Q 23.390625 48.390625 19.1875 42.75 
Q 14.984375 37.109375 14.984375 27.296875 
Q 14.984375 17.484375 19.15625 11.84375 
Q 23.34375 6.203125 30.609375 6.203125 
Q 37.796875 6.203125 41.984375 11.859375 
Q 46.1875 17.53125 46.1875 27.296875 
Q 46.1875 37.015625 41.984375 42.703125 
Q 37.796875 48.390625 30.609375 48.390625 
z
M 30.609375 56 
Q 42.328125 56 49.015625 48.375 
Q 55.71875 40.765625 55.71875 27.296875 
Q 55.71875 13.875 49.015625 6.21875 
Q 42.328125 -1.421875 30.609375 -1.421875 
Q 18.84375 -1.421875 12.171875 6.21875 
Q 5.515625 13.875 5.515625 27.296875 
Q 5.515625 40.765625 12.171875 48.375 
Q 18.84375 56 30.609375 56 
z
" id="DejaVuSans-111"/>
    <path d="M 2.984375 54.6875 
L 12.5 54.6875 
L 29.59375 8.796875 
L 46.6875 54.6875 
L 56.203125 54.6875 
L 35.6875 0 
L 23.484375 0 
z
" id="DejaVuSans-118"/>
    <path d="M 45.40625 27.984375 
Q 45.40625 37.75 41.375 43.109375 
Q 37.359375 48.484375 30.078125 48.484375 
Q 22.859375 48.484375 18.828125 43.109375 
Q 14.796875 37.75 14.796875 27.984375 
Q 14.796875 18.265625 18.828125 12.890625 
Q 22.859375 7.515625 30.078125 7.515625 
Q 37.359375 7.515625 41.375 12.890625 
Q 45.40625 18.265625 45.40625 27.984375 
z
M 54.390625 6.78125 
Q 54.390625 -7.171875 48.1875 -13.984375 
Q 42 -20.796875 29.203125 -20.796875 
Q 24.46875 -20.796875 20.265625 -20.09375 
Q 16.0625 -19.390625 12.109375 -17.921875 
L 12.109375 -9.1875 
Q 16.0625 -11.328125 19.921875 -12.34375 
Q 23.78125 -13.375 27.78125 -13.375 
Q 36.625 -13.375 41.015625 -8.765625 
Q 45.40625 -4.15625 45.40625 5.171875 
L 45.40625 9.625 
Q 42.625 4.78125 38.28125 2.390625 
Q 33.9375 0 27.875 0 
Q 17.828125 0 11.671875 7.65625 
Q 5.515625 15.328125 5.515625 27.984375 
Q 5.515625 40.671875 11.671875 48.328125 
Q 17.828125 56 27.875 56 
Q 33.9375 56 38.28125 53.609375 
Q 42.625 51.21875 45.40625 46.390625 
L 45.40625 54.6875 
L 54.390625 54.6875 
z
" id="DejaVuSans-103"/>
    <path d="M 18.3125 70.21875 
L 18.3125 54.6875 
L 36.8125 54.6875 
L 36.8125 47.703125 
L 18.3125 47.703125 
L 18.3125 18.015625 
Q 18.3125 11.328125 20.140625 9.421875 
Q 21.96875 7.515625 27.59375 7.515625 
L 36.8125 7.515625 
L 36.8125 0 
L 27.59375 0 
Q 17.1875 0 13.234375 3.875 
Q 9.28125 7.765625 9.28125 18.015625 
L 9.28125 47.703125 
L 2.6875 47.703125 
L 2.6875 54.6875 
L 9.28125 54.6875 
L 9.28125 70.21875 
z
" id="DejaVuSans-116"/>
    <path d="M 44.28125 53.078125 
L 44.28125 44.578125 
Q 40.484375 46.53125 36.375 47.5 
Q 32.28125 48.484375 27.875 48.484375 
Q 21.1875 48.484375 17.84375 46.4375 
Q 14.5 44.390625 14.5 40.28125 
Q 14.5 37.15625 16.890625 35.375 
Q 19.28125 33.59375 26.515625 31.984375 
L 29.59375 31.296875 
Q 39.15625 29.25 43.1875 25.515625 
Q 47.21875 21.78125 47.21875 15.09375 
Q 47.21875 7.46875 41.1875 3.015625 
Q 35.15625 -1.421875 24.609375 -1.421875 
Q 20.21875 -1.421875 15.453125 -0.5625 
Q 10.6875 0.296875 5.421875 2 
L 5.421875 11.28125 
Q 10.40625 8.6875 15.234375 7.390625 
Q 20.0625 6.109375 24.8125 6.109375 
Q 31.15625 6.109375 34.5625 8.28125 
Q 37.984375 10.453125 37.984375 14.40625 
Q 37.984375 18.0625 35.515625 20.015625 
Q 33.0625 21.96875 24.703125 23.78125 
L 21.578125 24.515625 
Q 13.234375 26.265625 9.515625 29.90625 
Q 5.8125 33.546875 5.8125 39.890625 
Q 5.8125 47.609375 11.28125 51.796875 
Q 16.75 56 26.8125 56 
Q 31.78125 56 36.171875 55.265625 
Q 40.578125 54.546875 44.28125 53.078125 
z
" id="DejaVuSans-115"/>
   </defs>
   <g transform="translate(132.309375 16.030125)scale(0.12 -0.12)">
    <use xlink:href="#DejaVuSans-97"/>
    <use x="61.279297" xlink:href="#DejaVuSans-99"/>
    <use x="116.259766" xlink:href="#DejaVuSans-99"/>
    <use x="171.240234" xlink:href="#DejaVuSans-117"/>
    <use x="234.619141" xlink:href="#DejaVuSans-114"/>
    <use x="275.732422" xlink:href="#DejaVuSans-97"/>
    <use x="337.011719" xlink:href="#DejaVuSans-99"/>
    <use x="391.992188" xlink:href="#DejaVuSans-121"/>
    <use x="436.921875" xlink:href="#DejaVuSans-46"/>
    <use x="468.708984" xlink:href="#DejaVuSans-109"/>
    <use x="566.121094" xlink:href="#DejaVuSans-101"/>
    <use x="627.644531" xlink:href="#DejaVuSans-97"/>
    <use x="688.923828" xlink:href="#DejaVuSans-110"/>
    <use x="752.302734" xlink:href="#DejaVuSans-32"/>
    <use x="784.089844" xlink:href="#DejaVuSans-111"/>
    <use x="845.271484" xlink:href="#DejaVuSans-118"/>
    <use x="904.451172" xlink:href="#DejaVuSans-101"/>
    <use x="965.974609" xlink:href="#DejaVuSans-114"/>
    <use x="1007.087891" xlink:href="#DejaVuSans-32"/>
    <use x="1038.875" xlink:href="#DejaVuSans-103"/>
    <use x="1102.351562" xlink:href="#DejaVuSans-101"/>
    <use x="1163.875" xlink:href="#DejaVuSans-110"/>
    <use x="1227.253906" xlink:href="#DejaVuSans-101"/>
    <use x="1288.777344" xlink:href="#DejaVuSans-114"/>
    <use x="1329.890625" xlink:href="#DejaVuSans-97"/>
    <use x="1391.169922" xlink:href="#DejaVuSans-116"/>
    <use x="1430.378906" xlink:href="#DejaVuSans-105"/>
    <use x="1458.162109" xlink:href="#DejaVuSans-111"/>
    <use x="1519.34375" xlink:href="#DejaVuSans-110"/>
    <use x="1582.722656" xlink:href="#DejaVuSans-115"/>
   </g>
  </g>
 </g>
 <defs>
  <clipPath id="p57c56bd2b2">
   <rect height="266.112" width="357.12" x="57.6" y="41.472"/>
  </clipPath>
 </defs>
</svg>
