<?xml version="1.0" encoding="utf-8" standalone="no"?>
<!DOCTYPE svg PUBLIC "-//W3C//DTD SVG 1.1//EN"
  "http://www.w3.org/Graphics/SVG/1.1/DTD/svg11.dtd">
<!-- Created with matplotlib (https://matplotlib.org/) -->
<svg height="345.6pt" version="1.1" viewBox="0 0 460.8 345.6" width="460.8pt" xmlns="http://www.w3.org/2000/svg" xmlns:xlink="http://www.w3.org/1999/xlink">
 <defs>
  <style type="text/css">
*{stroke-linecap:butt;stroke-linejoin:round;}
  </style>
 </defs>
 <g id="figure_1">
  <g id="patch_1">
   <path d="M 0 345.6 
L 460.8 345.6 
L 460.8 0 
L 0 0 
z
" style="fill:#ffffff;"/>
  </g>
  <g id="axes_1">
   <g id="patch_2">
    <path d="M 57.6 307.584 
L 414.72 307.584 
L 414.72 41.472 
L 57.6 41.472 
z
" style="fill:#ffffff;"/>
   </g>
   <g id="PolyCollection_1">
    <path clip-path="url(#pe502522f1c)" d="M 73.832727 282.72612 
L 73.832727 283.168705 
L 75.464157 283.168705 
L 77.095587 283.168705 
L 78.727017 283.168705 
L 80.358447 283.168705 
L 81.989877 283.168705 
L 83.621307 283.168705 
L 85.252736 283.168705 
L 86.884166 283.168705 
L 88.515596 283.168705 
L 90.147026 283.168705 
L 91.778456 283.168705 
L 93.409886 283.168705 
L 95.041316 283.168705 
L 96.672746 283.168705 
L 98.304175 283.168705 
L 99.935605 283.168705 
L 101.567035 283.168705 
L 103.198465 283.168705 
L 104.829895 283.168705 
L 106.461325 283.168705 
L 108.092755 283.168705 
L 109.724185 283.168705 
L 111.355614 283.168705 
L 112.987044 283.168705 
L 114.618474 283.168705 
L 116.249904 283.168705 
L 117.881334 283.168705 
L 119.512764 283.168705 
L 121.144194 283.168705 
L 122.775624 283.168705 
L 124.407053 283.168705 
L 126.038483 283.168705 
L 127.669913 283.168705 
L 129.301343 283.168705 
L 130.932773 283.168705 
L 132.564203 283.168705 
L 134.195633 283.168705 
L 135.827063 283.168705 
L 137.458492 283.168705 
L 139.089922 283.168705 
L 140.721352 283.168705 
L 142.352782 283.168705 
L 143.984212 283.168705 
L 145.615642 283.168705 
L 147.247072 283.168705 
L 148.878502 283.168705 
L 150.509931 283.168705 
L 152.141361 283.168705 
L 153.772791 283.168705 
L 155.404221 283.168705 
L 157.035651 283.168705 
L 158.667081 283.168705 
L 160.298511 283.168705 
L 161.929941 283.168705 
L 163.56137 283.168705 
L 165.1928 283.168705 
L 166.82423 283.168705 
L 168.45566 283.168705 
L 170.08709 283.168705 
L 171.71852 283.168705 
L 173.34995 283.168705 
L 174.98138 283.168705 
L 176.61281 283.168705 
L 178.244239 283.168705 
L 179.875669 283.168705 
L 181.507099 283.168705 
L 183.138529 283.168705 
L 184.769959 283.168705 
L 186.401389 283.168705 
L 188.032819 283.168705 
L 189.664249 283.168705 
L 191.295678 283.168705 
L 192.927108 283.168705 
L 194.558538 283.168705 
L 196.189968 283.168705 
L 197.821398 283.168705 
L 199.452828 283.168705 
L 201.084258 283.168705 
L 202.715688 283.168705 
L 204.347117 283.168705 
L 205.978547 283.168705 
L 207.609977 283.167665 
L 209.241407 283.168705 
L 210.872837 284.602286 
L 212.504267 284.915723 
L 214.135697 285.01355 
L 215.767127 284.632912 
L 217.398556 284.02181 
L 219.029986 284.805054 
L 220.661416 284.958827 
L 222.292846 285.030786 
L 223.924276 284.788536 
L 225.555706 284.698044 
L 227.187136 285.004061 
L 228.818566 285.374711 
L 230.449995 285.322769 
L 232.081425 285.284514 
L 233.712855 284.73771 
L 235.344285 284.145198 
L 236.975715 285.310076 
L 238.607145 285.055245 
L 240.238575 285.111691 
L 241.870005 284.897853 
L 243.501434 287.629817 
L 245.132864 284.835505 
L 246.764294 285.308746 
L 248.395724 284.889173 
L 250.027154 284.877584 
L 251.658584 284.081831 
L 253.290014 284.079105 
L 254.921444 285.368568 
L 256.552873 285.231717 
L 258.184303 284.831929 
L 259.815733 286.875956 
L 261.447163 285.218495 
L 263.078593 285.878142 
L 264.710023 284.472384 
L 266.341453 285.964525 
L 267.972883 286.133711 
L 269.604312 287.009241 
L 271.235742 285.082387 
L 272.867172 285.343053 
L 274.498602 285.836408 
L 276.130032 287.082258 
L 277.761462 285.482248 
L 279.392892 287.699683 
L 281.024322 285.338617 
L 282.655751 286.733363 
L 284.287181 286.324575 
L 285.918611 285.974751 
L 287.550041 287.903368 
L 289.181471 286.350262 
L 290.812901 287.374058 
L 292.444331 285.115859 
L 294.075761 287.167233 
L 295.70719 285.588281 
L 297.33862 286.106504 
L 298.97005 287.127995 
L 300.60148 286.46213 
L 302.23291 285.346001 
L 303.86434 285.91864 
L 305.49577 285.127906 
L 307.1272 282.952327 
L 308.75863 284.794793 
L 310.390059 284.799141 
L 312.021489 284.517266 
L 313.652919 284.664808 
L 315.284349 284.721971 
L 316.915779 285.179908 
L 318.547209 283.390834 
L 320.178639 284.012479 
L 321.810069 284.951168 
L 323.441498 284.481259 
L 325.072928 284.752311 
L 326.704358 286.540937 
L 328.335788 285.272069 
L 329.967218 287.278861 
L 331.598648 283.460238 
L 333.230078 284.737143 
L 334.861508 287.953692 
L 336.492937 284.048059 
L 338.124367 285.427655 
L 339.755797 287.255912 
L 341.387227 284.747594 
L 343.018657 289.873118 
L 344.650087 284.84942 
L 346.281517 283.928503 
L 347.912947 284.667443 
L 349.544376 287.836034 
L 351.175806 287.24115 
L 352.807236 286.746992 
L 354.438666 284.663808 
L 356.070096 284.979174 
L 357.701526 284.580502 
L 359.332956 289.929315 
L 360.964386 291.613667 
L 362.595815 285.371792 
L 364.227245 290.914708 
L 365.858675 291.612855 
L 367.490105 290.675146 
L 369.121535 283.026739 
L 370.752965 284.618982 
L 372.384395 284.075187 
L 374.015825 285.108992 
L 375.647254 285.345617 
L 377.278684 288.841932 
L 378.910114 284.007315 
L 380.541544 284.533119 
L 382.172974 284.611246 
L 383.804404 288.332098 
L 385.435834 284.081133 
L 387.067264 283.649465 
L 388.698693 284.919685 
L 390.330123 285.057525 
L 391.961553 292.295187 
L 393.592983 284.968436 
L 395.224413 287.882131 
L 396.855843 284.664296 
L 398.487273 286.496151 
L 398.487273 281.914304 
L 398.487273 281.914304 
L 396.855843 265.360281 
L 395.224413 268.182881 
L 393.592983 266.361151 
L 391.961553 268.92941 
L 390.330123 271.851446 
L 388.698693 278.084339 
L 387.067264 273.069127 
L 385.435834 279.495188 
L 383.804404 262.796535 
L 382.172974 276.784531 
L 380.541544 274.644344 
L 378.910114 279.375883 
L 377.278684 276.631119 
L 375.647254 277.699273 
L 374.015825 275.178977 
L 372.384395 275.392503 
L 370.752965 269.424971 
L 369.121535 276.133505 
L 367.490105 270.254104 
L 365.858675 278.578086 
L 364.227245 277.280458 
L 362.595815 276.75646 
L 360.964386 276.341309 
L 359.332956 282.690662 
L 357.701526 278.536171 
L 356.070096 277.935779 
L 354.438666 255.645961 
L 352.807236 255.682421 
L 351.175806 232.376577 
L 349.544376 272.105672 
L 347.912947 272.209494 
L 346.281517 277.767354 
L 344.650087 280.724167 
L 343.018657 270.679659 
L 341.387227 264.030604 
L 339.755797 276.714079 
L 338.124367 272.408619 
L 336.492937 269.061058 
L 334.861508 264.288489 
L 333.230078 265.685933 
L 331.598648 274.82728 
L 329.967218 272.862196 
L 328.335788 272.607668 
L 326.704358 283.009551 
L 325.072928 278.783168 
L 323.441498 258.117424 
L 321.810069 270.394627 
L 320.178639 272.263377 
L 318.547209 268.82034 
L 316.915779 281.737778 
L 315.284349 246.906925 
L 313.652919 271.590321 
L 312.021489 257.908016 
L 310.390059 272.905863 
L 308.75863 274.675709 
L 307.1272 246.268467 
L 305.49577 276.1855 
L 303.86434 281.714087 
L 302.23291 280.866258 
L 300.60148 283.771669 
L 298.97005 275.537245 
L 297.33862 273.549524 
L 295.70719 282.349652 
L 294.075761 279.234143 
L 292.444331 281.497684 
L 290.812901 281.371203 
L 289.181471 281.484073 
L 287.550041 282.393404 
L 285.918611 282.861545 
L 284.287181 281.218029 
L 282.655751 278.417058 
L 281.024322 283.341666 
L 279.392892 280.578536 
L 277.761462 282.410023 
L 276.130032 281.715699 
L 274.498602 282.600903 
L 272.867172 281.93679 
L 271.235742 281.687984 
L 269.604312 282.569061 
L 267.972883 282.676804 
L 266.341453 282.47704 
L 264.710023 281.742203 
L 263.078593 281.006582 
L 261.447163 281.270884 
L 259.815733 280.631002 
L 258.184303 283.180872 
L 256.552873 280.03971 
L 254.921444 277.422725 
L 253.290014 280.833742 
L 251.658584 281.885263 
L 250.027154 281.729813 
L 248.395724 280.163509 
L 246.764294 273.297565 
L 245.132864 281.321128 
L 243.501434 281.279883 
L 241.870005 282.18595 
L 240.238575 272.407563 
L 238.607145 278.619624 
L 236.975715 276.022843 
L 235.344285 282.431565 
L 233.712855 281.447311 
L 232.081425 282.200298 
L 230.449995 279.154347 
L 228.818566 282.314587 
L 227.187136 282.285637 
L 225.555706 282.139065 
L 223.924276 281.693042 
L 222.292846 280.834865 
L 220.661416 281.286689 
L 219.029986 281.489708 
L 217.398556 282.134645 
L 215.767127 279.615504 
L 214.135697 282.72612 
L 212.504267 279.875697 
L 210.872837 280.834471 
L 209.241407 281.633177 
L 207.609977 281.714638 
L 205.978547 282.060293 
L 204.347117 281.963762 
L 202.715688 281.714615 
L 201.084258 282.44166 
L 199.452828 282.72612 
L 197.821398 282.44166 
L 196.189968 281.714615 
L 194.558538 282.078137 
L 192.927108 282.785417 
L 191.295678 282.44166 
L 189.664249 281.714615 
L 188.032819 282.44166 
L 186.401389 282.078137 
L 184.769959 282.72612 
L 183.138529 282.44166 
L 181.507099 282.078137 
L 179.875669 282.72612 
L 178.244239 282.44166 
L 176.61281 282.078137 
L 174.98138 281.714615 
L 173.34995 281.714615 
L 171.71852 282.078137 
L 170.08709 281.714615 
L 168.45566 282.078137 
L 166.82423 282.72612 
L 165.1928 282.805182 
L 163.56137 282.078137 
L 161.929941 282.44166 
L 160.298511 282.44166 
L 158.667081 281.714615 
L 157.035651 282.72612 
L 155.404221 282.078137 
L 153.772791 282.44166 
L 152.141361 282.44166 
L 150.509931 282.078137 
L 148.878502 282.44166 
L 147.247072 281.714615 
L 145.615642 281.351092 
L 143.984212 282.44166 
L 142.352782 282.805182 
L 140.721352 282.72612 
L 139.089922 282.44166 
L 137.458492 282.72612 
L 135.827063 282.805182 
L 134.195633 282.078137 
L 132.564203 282.078137 
L 130.932773 282.078137 
L 129.301343 282.44166 
L 127.669913 282.72612 
L 126.038483 281.714615 
L 124.407053 282.44166 
L 122.775624 282.72612 
L 121.144194 282.078137 
L 119.512764 282.078137 
L 117.881334 282.44166 
L 116.249904 282.078137 
L 114.618474 282.72612 
L 112.987044 282.72612 
L 111.355614 282.44166 
L 109.724185 282.44166 
L 108.092755 282.078137 
L 106.461325 282.078137 
L 104.829895 282.44166 
L 103.198465 282.078137 
L 101.567035 282.078137 
L 99.935605 282.72612 
L 98.304175 281.351092 
L 96.672746 281.714615 
L 95.041316 282.785417 
L 93.409886 282.44166 
L 91.778456 282.44166 
L 90.147026 282.72612 
L 88.515596 282.44166 
L 86.884166 282.078137 
L 85.252736 281.714615 
L 83.621307 282.078137 
L 81.989877 282.078137 
L 80.358447 282.078137 
L 78.727017 282.72612 
L 77.095587 282.44166 
L 75.464157 282.44166 
L 73.832727 282.72612 
z
" style="fill:#1f77b4;fill-opacity:0.2;"/>
   </g>
   <g id="PolyCollection_2">
    <path clip-path="url(#pe502522f1c)" d="M 73.832727 281.351092 
L 73.832727 283.168705 
L 75.464157 283.168705 
L 77.095587 283.168705 
L 78.727017 283.168705 
L 80.358447 283.168705 
L 81.989877 283.168705 
L 83.621307 283.168705 
L 85.252736 283.168705 
L 86.884166 283.168705 
L 88.515596 283.168705 
L 90.147026 283.168705 
L 91.778456 283.168705 
L 93.409886 283.168705 
L 95.041316 283.168705 
L 96.672746 283.168705 
L 98.304175 283.168705 
L 99.935605 283.168705 
L 101.567035 283.168705 
L 103.198465 283.168705 
L 104.829895 283.168705 
L 106.461325 283.168705 
L 108.092755 283.168705 
L 109.724185 283.168705 
L 111.355614 283.168705 
L 112.987044 283.168705 
L 114.618474 283.168705 
L 116.249904 283.168705 
L 117.881334 283.168705 
L 119.512764 283.168705 
L 121.144194 283.168705 
L 122.775624 283.168705 
L 124.407053 283.168705 
L 126.038483 283.168705 
L 127.669913 283.168705 
L 129.301343 283.168705 
L 130.932773 283.168705 
L 132.564203 283.168705 
L 134.195633 283.168705 
L 135.827063 283.168705 
L 137.458492 283.168705 
L 139.089922 283.168705 
L 140.721352 283.168705 
L 142.352782 283.168705 
L 143.984212 283.168705 
L 145.615642 283.168705 
L 147.247072 283.168705 
L 148.878502 283.168705 
L 150.509931 283.168705 
L 152.141361 283.168705 
L 153.772791 283.168705 
L 155.404221 283.168705 
L 157.035651 283.168705 
L 158.667081 283.168705 
L 160.298511 283.168705 
L 161.929941 283.168705 
L 163.56137 283.168705 
L 165.1928 283.168705 
L 166.82423 283.168705 
L 168.45566 283.168705 
L 170.08709 283.168705 
L 171.71852 283.168705 
L 173.34995 283.168705 
L 174.98138 283.168705 
L 176.61281 283.168705 
L 178.244239 283.168705 
L 179.875669 283.168705 
L 181.507099 283.168705 
L 183.138529 283.168705 
L 184.769959 283.168705 
L 186.401389 283.168705 
L 188.032819 283.168705 
L 189.664249 283.168705 
L 191.295678 283.168705 
L 192.927108 283.168705 
L 194.558538 283.168705 
L 196.189968 283.168705 
L 197.821398 283.168705 
L 199.452828 283.168705 
L 201.084258 283.168705 
L 202.715688 283.168705 
L 204.347117 283.168705 
L 205.978547 283.168705 
L 207.609977 284.82585 
L 209.241407 284.944153 
L 210.872837 286.667708 
L 212.504267 286.709045 
L 214.135697 287.359742 
L 215.767127 286.744077 
L 217.398556 286.680686 
L 219.029986 286.71183 
L 220.661416 287.208424 
L 222.292846 287.23673 
L 223.924276 286.911421 
L 225.555706 286.822781 
L 227.187136 288.20777 
L 228.818566 287.728997 
L 230.449995 288.245053 
L 232.081425 287.809877 
L 233.712855 287.788286 
L 235.344285 287.697481 
L 236.975715 289.262594 
L 238.607145 287.708433 
L 240.238575 287.665397 
L 241.870005 287.610752 
L 243.501434 289.586004 
L 245.132864 287.811699 
L 246.764294 287.807474 
L 248.395724 287.729751 
L 250.027154 289.466988 
L 251.658584 288.301754 
L 253.290014 287.967641 
L 254.921444 289.6452 
L 256.552873 288.238865 
L 258.184303 288.114622 
L 259.815733 288.427192 
L 261.447163 287.992398 
L 263.078593 287.961759 
L 264.710023 287.983243 
L 266.341453 288.642644 
L 267.972883 288.558455 
L 269.604312 288.553455 
L 271.235742 288.448406 
L 272.867172 288.435077 
L 274.498602 288.374583 
L 276.130032 288.85158 
L 277.761462 288.538331 
L 279.392892 288.522425 
L 281.024322 288.415066 
L 282.655751 288.626065 
L 284.287181 289.035758 
L 285.918611 287.908014 
L 287.550041 289.534427 
L 289.181471 288.633829 
L 290.812901 289.972712 
L 292.444331 290.250497 
L 294.075761 289.347477 
L 295.70719 289.234757 
L 297.33862 290.781116 
L 298.97005 289.129437 
L 300.60148 289.059755 
L 302.23291 289.806566 
L 303.86434 289.071638 
L 305.49577 289.032537 
L 307.1272 289.714088 
L 308.75863 289.072265 
L 310.390059 289.292222 
L 312.021489 288.718151 
L 313.652919 288.671481 
L 315.284349 289.812415 
L 316.915779 288.60256 
L 318.547209 288.600622 
L 320.178639 288.557688 
L 321.810069 290.48555 
L 323.441498 288.920068 
L 325.072928 288.851825 
L 326.704358 289.238804 
L 328.335788 289.136951 
L 329.967218 289.619622 
L 331.598648 288.352415 
L 333.230078 290.946978 
L 334.861508 291.538516 
L 336.492937 291.416522 
L 338.124367 291.577504 
L 339.755797 290.327933 
L 341.387227 290.950379 
L 343.018657 291.972492 
L 344.650087 290.167913 
L 346.281517 290.429826 
L 347.912947 291.983864 
L 349.544376 292.643336 
L 351.175806 293.475523 
L 352.807236 290.382426 
L 354.438666 291.962543 
L 356.070096 291.411712 
L 357.701526 290.795811 
L 359.332956 291.074733 
L 360.964386 293.806826 
L 362.595815 291.133939 
L 364.227245 293.631325 
L 365.858675 292.421518 
L 367.490105 292.337395 
L 369.121535 291.827697 
L 370.752965 291.886395 
L 372.384395 291.472634 
L 374.015825 294.0767 
L 375.647254 294.240222 
L 377.278684 291.972747 
L 378.910114 291.761522 
L 380.541544 292.401986 
L 382.172974 291.715958 
L 383.804404 291.691411 
L 385.435834 291.505996 
L 387.067264 295.289525 
L 388.698693 292.028716 
L 390.330123 293.32018 
L 391.961553 295.488 
L 393.592983 295.147056 
L 395.224413 292.03069 
L 396.855843 292.004127 
L 398.487273 291.8435 
L 398.487273 226.253614 
L 398.487273 226.253614 
L 396.855843 81.168008 
L 395.224413 124.247834 
L 393.592983 53.568 
L 391.961553 131.063853 
L 390.330123 196.694009 
L 388.698693 234.497292 
L 387.067264 129.217383 
L 385.435834 229.076525 
L 383.804404 81.984018 
L 382.172974 208.722369 
L 380.541544 135.233034 
L 378.910114 222.747872 
L 377.278684 138.503091 
L 375.647254 150.289811 
L 374.015825 124.701596 
L 372.384395 160.601631 
L 370.752965 166.787006 
L 369.121535 158.40721 
L 367.490105 146.033449 
L 365.858675 126.355696 
L 364.227245 174.913998 
L 362.595815 252.324858 
L 360.964386 203.854111 
L 359.332956 120.764819 
L 357.701526 220.076345 
L 356.070096 134.371684 
L 354.438666 99.064392 
L 352.807236 162.33499 
L 351.175806 142.442946 
L 349.544376 162.891466 
L 347.912947 173.958674 
L 346.281517 136.034824 
L 344.650087 168.09782 
L 343.018657 145.407745 
L 341.387227 124.324874 
L 339.755797 139.442889 
L 338.124367 143.570027 
L 336.492937 141.394008 
L 334.861508 80.603884 
L 333.230078 145.044268 
L 331.598648 123.088526 
L 329.967218 231.749877 
L 328.335788 214.450709 
L 326.704358 163.559567 
L 325.072928 148.636433 
L 323.441498 221.097877 
L 321.810069 80.172734 
L 320.178639 199.185981 
L 318.547209 180.743123 
L 316.915779 167.791872 
L 315.284349 94.24784 
L 313.652919 193.981588 
L 312.021489 167.786044 
L 310.390059 248.545637 
L 308.75863 208.636887 
L 307.1272 206.335624 
L 305.49577 255.341355 
L 303.86434 141.916092 
L 302.23291 137.954722 
L 300.60148 263.290456 
L 298.97005 157.414746 
L 297.33862 115.029732 
L 295.70719 216.769794 
L 294.075761 155.096899 
L 292.444331 149.267928 
L 290.812901 148.251082 
L 289.181471 173.071363 
L 287.550041 201.056616 
L 285.918611 221.905586 
L 284.287181 152.715382 
L 282.655751 118.232946 
L 281.024322 199.814526 
L 279.392892 100.59465 
L 277.761462 206.901687 
L 276.130032 205.611765 
L 274.498602 186.625648 
L 272.867172 150.390894 
L 271.235742 179.58786 
L 269.604312 143.840492 
L 267.972883 265.974324 
L 266.341453 170.999784 
L 264.710023 215.010797 
L 263.078593 148.737508 
L 261.447163 159.117556 
L 259.815733 109.4647 
L 258.184303 257.372063 
L 256.552873 155.033836 
L 254.921444 139.097332 
L 253.290014 230.736338 
L 251.658584 215.854906 
L 250.027154 215.288024 
L 248.395724 88.951728 
L 246.764294 91.279958 
L 245.132864 213.013885 
L 243.501434 100.408736 
L 241.870005 241.493381 
L 240.238575 133.998841 
L 238.607145 226.698796 
L 236.975715 180.480598 
L 235.344285 267.657683 
L 233.712855 269.505918 
L 232.081425 246.567142 
L 230.449995 82.330064 
L 228.818566 227.612054 
L 227.187136 246.534817 
L 225.555706 231.634995 
L 223.924276 243.776904 
L 222.292846 70.639743 
L 220.661416 203.299974 
L 219.029986 198.266 
L 217.398556 258.298677 
L 215.767127 215.83054 
L 214.135697 248.370138 
L 212.504267 152.852198 
L 210.872837 184.894097 
L 209.241407 236.547099 
L 207.609977 265.452814 
L 205.978547 281.351092 
L 204.347117 184.875734 
L 202.715688 232.664317 
L 201.084258 238.94872 
L 199.452828 237.347076 
L 197.821398 281.351092 
L 196.189968 281.351092 
L 194.558538 281.351092 
L 192.927108 281.351092 
L 191.295678 281.351092 
L 189.664249 281.351092 
L 188.032819 281.351092 
L 186.401389 281.351092 
L 184.769959 281.351092 
L 183.138529 281.351092 
L 181.507099 281.351092 
L 179.875669 281.351092 
L 178.244239 281.351092 
L 176.61281 281.351092 
L 174.98138 281.351092 
L 173.34995 281.351092 
L 171.71852 281.351092 
L 170.08709 281.351092 
L 168.45566 281.351092 
L 166.82423 281.351092 
L 165.1928 281.351092 
L 163.56137 281.351092 
L 161.929941 281.351092 
L 160.298511 281.351092 
L 158.667081 281.351092 
L 157.035651 281.351092 
L 155.404221 281.351092 
L 153.772791 281.351092 
L 152.141361 281.351092 
L 150.509931 281.351092 
L 148.878502 281.351092 
L 147.247072 281.351092 
L 145.615642 281.351092 
L 143.984212 281.351092 
L 142.352782 281.351092 
L 140.721352 281.351092 
L 139.089922 281.351092 
L 137.458492 281.351092 
L 135.827063 281.351092 
L 134.195633 281.351092 
L 132.564203 281.351092 
L 130.932773 281.351092 
L 129.301343 281.351092 
L 127.669913 281.351092 
L 126.038483 281.351092 
L 124.407053 281.351092 
L 122.775624 281.351092 
L 121.144194 281.351092 
L 119.512764 281.351092 
L 117.881334 281.351092 
L 116.249904 281.351092 
L 114.618474 281.351092 
L 112.987044 281.351092 
L 111.355614 281.351092 
L 109.724185 281.351092 
L 108.092755 281.351092 
L 106.461325 281.351092 
L 104.829895 281.351092 
L 103.198465 281.351092 
L 101.567035 281.351092 
L 99.935605 281.351092 
L 98.304175 281.351092 
L 96.672746 281.351092 
L 95.041316 281.351092 
L 93.409886 281.351092 
L 91.778456 281.351092 
L 90.147026 281.351092 
L 88.515596 281.351092 
L 86.884166 281.351092 
L 85.252736 281.351092 
L 83.621307 281.351092 
L 81.989877 281.351092 
L 80.358447 281.351092 
L 78.727017 281.351092 
L 77.095587 281.351092 
L 75.464157 281.351092 
L 73.832727 281.351092 
z
" style="fill:#1f77b4;fill-opacity:0.1;"/>
   </g>
   <g id="matplotlib.axis_1">
    <g id="xtick_1">
     <g id="line2d_1">
      <defs>
       <path d="M 0 0 
L 0 3.5 
" id="mf4e3dee9b6" style="stroke:#000000;stroke-width:0.8;"/>
      </defs>
      <g>
       <use style="stroke:#000000;stroke-width:0.8;" x="73.832727" xlink:href="#mf4e3dee9b6" y="307.584"/>
      </g>
     </g>
     <g id="text_1">
      <!-- 0 -->
      <defs>
       <path d="M 31.78125 66.40625 
Q 24.171875 66.40625 20.328125 58.90625 
Q 16.5 51.421875 16.5 36.375 
Q 16.5 21.390625 20.328125 13.890625 
Q 24.171875 6.390625 31.78125 6.390625 
Q 39.453125 6.390625 43.28125 13.890625 
Q 47.125 21.390625 47.125 36.375 
Q 47.125 51.421875 43.28125 58.90625 
Q 39.453125 66.40625 31.78125 66.40625 
z
M 31.78125 74.21875 
Q 44.046875 74.21875 50.515625 64.515625 
Q 56.984375 54.828125 56.984375 36.375 
Q 56.984375 17.96875 50.515625 8.265625 
Q 44.046875 -1.421875 31.78125 -1.421875 
Q 19.53125 -1.421875 13.0625 8.265625 
Q 6.59375 17.96875 6.59375 36.375 
Q 6.59375 54.828125 13.0625 64.515625 
Q 19.53125 74.21875 31.78125 74.21875 
z
" id="DejaVuSans-48"/>
      </defs>
      <g transform="translate(70.651477 322.182437)scale(0.1 -0.1)">
       <use xlink:href="#DejaVuSans-48"/>
      </g>
     </g>
    </g>
    <g id="xtick_2">
     <g id="line2d_2">
      <g>
       <use style="stroke:#000000;stroke-width:0.8;" x="114.618474" xlink:href="#mf4e3dee9b6" y="307.584"/>
      </g>
     </g>
     <g id="text_2">
      <!-- 25 -->
      <defs>
       <path d="M 19.1875 8.296875 
L 53.609375 8.296875 
L 53.609375 0 
L 7.328125 0 
L 7.328125 8.296875 
Q 12.9375 14.109375 22.625 23.890625 
Q 32.328125 33.6875 34.8125 36.53125 
Q 39.546875 41.84375 41.421875 45.53125 
Q 43.3125 49.21875 43.3125 52.78125 
Q 43.3125 58.59375 39.234375 62.25 
Q 35.15625 65.921875 28.609375 65.921875 
Q 23.96875 65.921875 18.8125 64.3125 
Q 13.671875 62.703125 7.8125 59.421875 
L 7.8125 69.390625 
Q 13.765625 71.78125 18.9375 73 
Q 24.125 74.21875 28.421875 74.21875 
Q 39.75 74.21875 46.484375 68.546875 
Q 53.21875 62.890625 53.21875 53.421875 
Q 53.21875 48.921875 51.53125 44.890625 
Q 49.859375 40.875 45.40625 35.40625 
Q 44.1875 33.984375 37.640625 27.21875 
Q 31.109375 20.453125 19.1875 8.296875 
z
" id="DejaVuSans-50"/>
       <path d="M 10.796875 72.90625 
L 49.515625 72.90625 
L 49.515625 64.59375 
L 19.828125 64.59375 
L 19.828125 46.734375 
Q 21.96875 47.46875 24.109375 47.828125 
Q 26.265625 48.1875 28.421875 48.1875 
Q 40.625 48.1875 47.75 41.5 
Q 54.890625 34.8125 54.890625 23.390625 
Q 54.890625 11.625 47.5625 5.09375 
Q 40.234375 -1.421875 26.90625 -1.421875 
Q 22.3125 -1.421875 17.546875 -0.640625 
Q 12.796875 0.140625 7.71875 1.703125 
L 7.71875 11.625 
Q 12.109375 9.234375 16.796875 8.0625 
Q 21.484375 6.890625 26.703125 6.890625 
Q 35.15625 6.890625 40.078125 11.328125 
Q 45.015625 15.765625 45.015625 23.390625 
Q 45.015625 31 40.078125 35.4375 
Q 35.15625 39.890625 26.703125 39.890625 
Q 22.75 39.890625 18.8125 39.015625 
Q 14.890625 38.140625 10.796875 36.28125 
z
" id="DejaVuSans-53"/>
      </defs>
      <g transform="translate(108.255974 322.182437)scale(0.1 -0.1)">
       <use xlink:href="#DejaVuSans-50"/>
       <use x="63.623047" xlink:href="#DejaVuSans-53"/>
      </g>
     </g>
    </g>
    <g id="xtick_3">
     <g id="line2d_3">
      <g>
       <use style="stroke:#000000;stroke-width:0.8;" x="155.404221" xlink:href="#mf4e3dee9b6" y="307.584"/>
      </g>
     </g>
     <g id="text_3">
      <!-- 50 -->
      <g transform="translate(149.041721 322.182437)scale(0.1 -0.1)">
       <use xlink:href="#DejaVuSans-53"/>
       <use x="63.623047" xlink:href="#DejaVuSans-48"/>
      </g>
     </g>
    </g>
    <g id="xtick_4">
     <g id="line2d_4">
      <g>
       <use style="stroke:#000000;stroke-width:0.8;" x="196.189968" xlink:href="#mf4e3dee9b6" y="307.584"/>
      </g>
     </g>
     <g id="text_4">
      <!-- 75 -->
      <defs>
       <path d="M 8.203125 72.90625 
L 55.078125 72.90625 
L 55.078125 68.703125 
L 28.609375 0 
L 18.3125 0 
L 43.21875 64.59375 
L 8.203125 64.59375 
z
" id="DejaVuSans-55"/>
      </defs>
      <g transform="translate(189.827468 322.182437)scale(0.1 -0.1)">
       <use xlink:href="#DejaVuSans-55"/>
       <use x="63.623047" xlink:href="#DejaVuSans-53"/>
      </g>
     </g>
    </g>
    <g id="xtick_5">
     <g id="line2d_5">
      <g>
       <use style="stroke:#000000;stroke-width:0.8;" x="236.975715" xlink:href="#mf4e3dee9b6" y="307.584"/>
      </g>
     </g>
     <g id="text_5">
      <!-- 100 -->
      <defs>
       <path d="M 12.40625 8.296875 
L 28.515625 8.296875 
L 28.515625 63.921875 
L 10.984375 60.40625 
L 10.984375 69.390625 
L 28.421875 72.90625 
L 38.28125 72.90625 
L 38.28125 8.296875 
L 54.390625 8.296875 
L 54.390625 0 
L 12.40625 0 
z
" id="DejaVuSans-49"/>
      </defs>
      <g transform="translate(227.431965 322.182437)scale(0.1 -0.1)">
       <use xlink:href="#DejaVuSans-49"/>
       <use x="63.623047" xlink:href="#DejaVuSans-48"/>
       <use x="127.246094" xlink:href="#DejaVuSans-48"/>
      </g>
     </g>
    </g>
    <g id="xtick_6">
     <g id="line2d_6">
      <g>
       <use style="stroke:#000000;stroke-width:0.8;" x="277.761462" xlink:href="#mf4e3dee9b6" y="307.584"/>
      </g>
     </g>
     <g id="text_6">
      <!-- 125 -->
      <g transform="translate(268.217712 322.182437)scale(0.1 -0.1)">
       <use xlink:href="#DejaVuSans-49"/>
       <use x="63.623047" xlink:href="#DejaVuSans-50"/>
       <use x="127.246094" xlink:href="#DejaVuSans-53"/>
      </g>
     </g>
    </g>
    <g id="xtick_7">
     <g id="line2d_7">
      <g>
       <use style="stroke:#000000;stroke-width:0.8;" x="318.547209" xlink:href="#mf4e3dee9b6" y="307.584"/>
      </g>
     </g>
     <g id="text_7">
      <!-- 150 -->
      <g transform="translate(309.003459 322.182437)scale(0.1 -0.1)">
       <use xlink:href="#DejaVuSans-49"/>
       <use x="63.623047" xlink:href="#DejaVuSans-53"/>
       <use x="127.246094" xlink:href="#DejaVuSans-48"/>
      </g>
     </g>
    </g>
    <g id="xtick_8">
     <g id="line2d_8">
      <g>
       <use style="stroke:#000000;stroke-width:0.8;" x="359.332956" xlink:href="#mf4e3dee9b6" y="307.584"/>
      </g>
     </g>
     <g id="text_8">
      <!-- 175 -->
      <g transform="translate(349.789206 322.182437)scale(0.1 -0.1)">
       <use xlink:href="#DejaVuSans-49"/>
       <use x="63.623047" xlink:href="#DejaVuSans-55"/>
       <use x="127.246094" xlink:href="#DejaVuSans-53"/>
      </g>
     </g>
    </g>
    <g id="xtick_9">
     <g id="line2d_9">
      <g>
       <use style="stroke:#000000;stroke-width:0.8;" x="400.118703" xlink:href="#mf4e3dee9b6" y="307.584"/>
      </g>
     </g>
     <g id="text_9">
      <!-- 200 -->
      <g transform="translate(390.574953 322.182437)scale(0.1 -0.1)">
       <use xlink:href="#DejaVuSans-50"/>
       <use x="63.623047" xlink:href="#DejaVuSans-48"/>
       <use x="127.246094" xlink:href="#DejaVuSans-48"/>
      </g>
     </g>
    </g>
   </g>
   <g id="matplotlib.axis_2">
    <g id="ytick_1">
     <g id="line2d_10">
      <defs>
       <path d="M 0 0 
L -3.5 0 
" id="ma619b55858" style="stroke:#000000;stroke-width:0.8;"/>
      </defs>
      <g>
       <use style="stroke:#000000;stroke-width:0.8;" x="57.6" xlink:href="#ma619b55858" y="299.878888"/>
      </g>
     </g>
     <g id="text_10">
      <!-- 0 -->
      <g transform="translate(44.2375 303.678107)scale(0.1 -0.1)">
       <use xlink:href="#DejaVuSans-48"/>
      </g>
     </g>
    </g>
    <g id="ytick_2">
     <g id="line2d_11">
      <g>
       <use style="stroke:#000000;stroke-width:0.8;" x="57.6" xlink:href="#ma619b55858" y="269.45836"/>
      </g>
     </g>
     <g id="text_11">
      <!-- 2 -->
      <g transform="translate(44.2375 273.257579)scale(0.1 -0.1)">
       <use xlink:href="#DejaVuSans-50"/>
      </g>
     </g>
    </g>
    <g id="ytick_3">
     <g id="line2d_12">
      <g>
       <use style="stroke:#000000;stroke-width:0.8;" x="57.6" xlink:href="#ma619b55858" y="239.037832"/>
      </g>
     </g>
     <g id="text_12">
      <!-- 4 -->
      <defs>
       <path d="M 37.796875 64.3125 
L 12.890625 25.390625 
L 37.796875 25.390625 
z
M 35.203125 72.90625 
L 47.609375 72.90625 
L 47.609375 25.390625 
L 58.015625 25.390625 
L 58.015625 17.1875 
L 47.609375 17.1875 
L 47.609375 0 
L 37.796875 0 
L 37.796875 17.1875 
L 4.890625 17.1875 
L 4.890625 26.703125 
z
" id="DejaVuSans-52"/>
      </defs>
      <g transform="translate(44.2375 242.83705)scale(0.1 -0.1)">
       <use xlink:href="#DejaVuSans-52"/>
      </g>
     </g>
    </g>
    <g id="ytick_4">
     <g id="line2d_13">
      <g>
       <use style="stroke:#000000;stroke-width:0.8;" x="57.6" xlink:href="#ma619b55858" y="208.617303"/>
      </g>
     </g>
     <g id="text_13">
      <!-- 6 -->
      <defs>
       <path d="M 33.015625 40.375 
Q 26.375 40.375 22.484375 35.828125 
Q 18.609375 31.296875 18.609375 23.390625 
Q 18.609375 15.53125 22.484375 10.953125 
Q 26.375 6.390625 33.015625 6.390625 
Q 39.65625 6.390625 43.53125 10.953125 
Q 47.40625 15.53125 47.40625 23.390625 
Q 47.40625 31.296875 43.53125 35.828125 
Q 39.65625 40.375 33.015625 40.375 
z
M 52.59375 71.296875 
L 52.59375 62.3125 
Q 48.875 64.0625 45.09375 64.984375 
Q 41.3125 65.921875 37.59375 65.921875 
Q 27.828125 65.921875 22.671875 59.328125 
Q 17.53125 52.734375 16.796875 39.40625 
Q 19.671875 43.65625 24.015625 45.921875 
Q 28.375 48.1875 33.59375 48.1875 
Q 44.578125 48.1875 50.953125 41.515625 
Q 57.328125 34.859375 57.328125 23.390625 
Q 57.328125 12.15625 50.6875 5.359375 
Q 44.046875 -1.421875 33.015625 -1.421875 
Q 20.359375 -1.421875 13.671875 8.265625 
Q 6.984375 17.96875 6.984375 36.375 
Q 6.984375 53.65625 15.1875 63.9375 
Q 23.390625 74.21875 37.203125 74.21875 
Q 40.921875 74.21875 44.703125 73.484375 
Q 48.484375 72.75 52.59375 71.296875 
z
" id="DejaVuSans-54"/>
      </defs>
      <g transform="translate(44.2375 212.416522)scale(0.1 -0.1)">
       <use xlink:href="#DejaVuSans-54"/>
      </g>
     </g>
    </g>
    <g id="ytick_5">
     <g id="line2d_14">
      <g>
       <use style="stroke:#000000;stroke-width:0.8;" x="57.6" xlink:href="#ma619b55858" y="178.196775"/>
      </g>
     </g>
     <g id="text_14">
      <!-- 8 -->
      <defs>
       <path d="M 31.78125 34.625 
Q 24.75 34.625 20.71875 30.859375 
Q 16.703125 27.09375 16.703125 20.515625 
Q 16.703125 13.921875 20.71875 10.15625 
Q 24.75 6.390625 31.78125 6.390625 
Q 38.8125 6.390625 42.859375 10.171875 
Q 46.921875 13.96875 46.921875 20.515625 
Q 46.921875 27.09375 42.890625 30.859375 
Q 38.875 34.625 31.78125 34.625 
z
M 21.921875 38.8125 
Q 15.578125 40.375 12.03125 44.71875 
Q 8.5 49.078125 8.5 55.328125 
Q 8.5 64.0625 14.71875 69.140625 
Q 20.953125 74.21875 31.78125 74.21875 
Q 42.671875 74.21875 48.875 69.140625 
Q 55.078125 64.0625 55.078125 55.328125 
Q 55.078125 49.078125 51.53125 44.71875 
Q 48 40.375 41.703125 38.8125 
Q 48.828125 37.15625 52.796875 32.3125 
Q 56.78125 27.484375 56.78125 20.515625 
Q 56.78125 9.90625 50.3125 4.234375 
Q 43.84375 -1.421875 31.78125 -1.421875 
Q 19.734375 -1.421875 13.25 4.234375 
Q 6.78125 9.90625 6.78125 20.515625 
Q 6.78125 27.484375 10.78125 32.3125 
Q 14.796875 37.15625 21.921875 38.8125 
z
M 18.3125 54.390625 
Q 18.3125 48.734375 21.84375 45.5625 
Q 25.390625 42.390625 31.78125 42.390625 
Q 38.140625 42.390625 41.71875 45.5625 
Q 45.3125 48.734375 45.3125 54.390625 
Q 45.3125 60.0625 41.71875 63.234375 
Q 38.140625 66.40625 31.78125 66.40625 
Q 25.390625 66.40625 21.84375 63.234375 
Q 18.3125 60.0625 18.3125 54.390625 
z
" id="DejaVuSans-56"/>
      </defs>
      <g transform="translate(44.2375 181.995994)scale(0.1 -0.1)">
       <use xlink:href="#DejaVuSans-56"/>
      </g>
     </g>
    </g>
    <g id="ytick_6">
     <g id="line2d_15">
      <g>
       <use style="stroke:#000000;stroke-width:0.8;" x="57.6" xlink:href="#ma619b55858" y="147.776247"/>
      </g>
     </g>
     <g id="text_15">
      <!-- 10 -->
      <g transform="translate(37.875 151.575466)scale(0.1 -0.1)">
       <use xlink:href="#DejaVuSans-49"/>
       <use x="63.623047" xlink:href="#DejaVuSans-48"/>
      </g>
     </g>
    </g>
    <g id="ytick_7">
     <g id="line2d_16">
      <g>
       <use style="stroke:#000000;stroke-width:0.8;" x="57.6" xlink:href="#ma619b55858" y="117.355719"/>
      </g>
     </g>
     <g id="text_16">
      <!-- 12 -->
      <g transform="translate(37.875 121.154937)scale(0.1 -0.1)">
       <use xlink:href="#DejaVuSans-49"/>
       <use x="63.623047" xlink:href="#DejaVuSans-50"/>
      </g>
     </g>
    </g>
    <g id="ytick_8">
     <g id="line2d_17">
      <g>
       <use style="stroke:#000000;stroke-width:0.8;" x="57.6" xlink:href="#ma619b55858" y="86.93519"/>
      </g>
     </g>
     <g id="text_17">
      <!-- 14 -->
      <g transform="translate(37.875 90.734409)scale(0.1 -0.1)">
       <use xlink:href="#DejaVuSans-49"/>
       <use x="63.623047" xlink:href="#DejaVuSans-52"/>
      </g>
     </g>
    </g>
    <g id="ytick_9">
     <g id="line2d_18">
      <g>
       <use style="stroke:#000000;stroke-width:0.8;" x="57.6" xlink:href="#ma619b55858" y="56.514662"/>
      </g>
     </g>
     <g id="text_18">
      <!-- 16 -->
      <g transform="translate(37.875 60.313881)scale(0.1 -0.1)">
       <use xlink:href="#DejaVuSans-49"/>
       <use x="63.623047" xlink:href="#DejaVuSans-54"/>
      </g>
     </g>
    </g>
   </g>
   <g id="line2d_19">
    <path clip-path="url(#pe502522f1c)" d="M 73.832727 283.168705 
L 88.515596 283.168705 
L 90.147026 282.805182 
L 91.778456 283.168705 
L 96.672746 283.168705 
L 98.304175 282.72612 
L 99.935605 283.168705 
L 109.724185 283.168705 
L 111.355614 282.72612 
L 112.987044 283.168705 
L 124.407053 283.168705 
L 126.038483 282.72612 
L 127.669913 282.805182 
L 129.301343 283.168705 
L 139.089922 283.168705 
L 140.721352 282.805182 
L 142.352782 283.168705 
L 143.984212 282.72612 
L 145.615642 283.168705 
L 147.247072 283.168705 
L 148.878502 282.72612 
L 150.509931 283.168705 
L 152.141361 283.168705 
L 153.772791 282.947412 
L 155.404221 283.168705 
L 157.035651 282.805182 
L 158.667081 283.168705 
L 160.298511 282.72612 
L 161.929941 283.168705 
L 168.45566 283.168705 
L 170.08709 282.72612 
L 171.71852 282.72612 
L 173.34995 283.168705 
L 179.875669 283.168705 
L 181.507099 282.72612 
L 183.138529 283.168705 
L 184.769959 283.168705 
L 186.401389 282.947412 
L 188.032819 283.168705 
L 189.664249 283.168705 
L 191.295678 282.72612 
L 192.927108 283.168705 
L 194.558538 282.72612 
L 196.189968 283.168705 
L 199.452828 282.805182 
L 201.084258 283.168705 
L 202.715688 282.72612 
L 205.978547 282.727761 
L 207.609977 282.35828 
L 209.241407 282.519385 
L 210.872837 283.168705 
L 212.504267 283.414335 
L 214.135697 283.168705 
L 215.767127 283.52455 
L 217.398556 282.947829 
L 220.661416 284.215969 
L 223.924276 283.806653 
L 225.555706 283.355163 
L 227.187136 284.310549 
L 228.818566 284.76456 
L 230.449995 283.975593 
L 232.081425 283.913504 
L 233.712855 283.371724 
L 235.344285 283.255496 
L 236.975715 283.70805 
L 238.607145 283.347132 
L 240.238575 283.179154 
L 241.870005 283.806155 
L 243.501434 284.957459 
L 245.132864 283.788324 
L 246.764294 282.967718 
L 248.395724 283.228644 
L 250.027154 283.740657 
L 254.921444 283.159071 
L 256.552873 283.749325 
L 258.184303 283.744819 
L 259.815733 284.205919 
L 261.447163 283.082586 
L 263.078593 284.349359 
L 264.710023 283.184238 
L 266.341453 284.412981 
L 267.972883 284.645364 
L 269.604312 285.020115 
L 271.235742 284.105229 
L 272.867172 284.297353 
L 274.498602 284.800208 
L 276.130032 283.922997 
L 277.761462 284.22647 
L 279.392892 285.258457 
L 281.024322 284.377346 
L 282.655751 280.711519 
L 284.287181 284.285243 
L 285.918611 284.100833 
L 287.550041 284.758062 
L 289.181471 284.455292 
L 290.812901 283.866294 
L 292.444331 284.635809 
L 294.075761 284.309705 
L 295.70719 284.262329 
L 297.33862 280.711082 
L 298.97005 284.739826 
L 300.60148 284.635802 
L 302.23291 283.85409 
L 303.86434 283.838231 
L 305.49577 283.216493 
L 307.1272 270.735052 
L 308.75863 278.879723 
L 310.390059 283.190559 
L 312.021489 281.963995 
L 313.652919 282.529524 
L 315.284349 278.912331 
L 316.915779 283.825403 
L 318.547209 275.254507 
L 320.178639 275.889109 
L 321.810069 283.252242 
L 323.441498 280.629437 
L 325.072928 282.214164 
L 326.704358 285.033939 
L 328.335788 283.133635 
L 329.967218 284.79413 
L 331.598648 281.324673 
L 333.230078 283.620273 
L 334.861508 283.821139 
L 336.492937 283.071258 
L 338.124367 283.988302 
L 339.755797 284.22472 
L 341.387227 281.452006 
L 343.018657 283.614309 
L 344.650087 283.196881 
L 346.281517 281.975634 
L 347.912947 280.437118 
L 349.544376 284.889011 
L 351.175806 282.579305 
L 352.807236 284.561409 
L 354.438666 282.424939 
L 356.070096 282.909256 
L 357.701526 282.879818 
L 359.332956 284.875391 
L 360.964386 284.028698 
L 362.595815 284.578831 
L 364.227245 283.936816 
L 365.858675 290.925416 
L 367.490105 279.880647 
L 369.121535 278.951872 
L 370.752965 280.727475 
L 372.384395 279.352391 
L 374.015825 283.128116 
L 375.647254 282.115091 
L 377.278684 284.826533 
L 378.910114 283.260806 
L 380.541544 279.524482 
L 382.172974 282.764575 
L 383.804404 278.135469 
L 385.435834 282.707067 
L 387.067264 282.084719 
L 388.698693 282.333593 
L 390.330123 282.868313 
L 391.961553 284.409016 
L 393.592983 283.676458 
L 395.224413 284.348161 
L 396.855843 277.113939 
L 398.487273 284.510465 
L 398.487273 284.510465 
" style="fill:none;stroke:#1f77b4;stroke-linecap:square;stroke-width:0.25;"/>
   </g>
   <g id="line2d_20">
    <path clip-path="url(#pe502522f1c)" d="M 73.832727 282.757761 
L 77.095587 282.647914 
L 78.727017 282.797431 
L 80.358447 282.622313 
L 83.621307 282.589278 
L 85.252736 282.687901 
L 86.884166 282.568257 
L 88.515596 282.739585 
L 90.147026 282.675415 
L 95.041316 282.802965 
L 98.304175 282.361522 
L 99.935605 282.846533 
L 101.567035 282.623258 
L 103.198465 282.748755 
L 104.829895 282.758552 
L 106.461325 282.567466 
L 108.092755 282.556561 
L 109.724185 282.777674 
L 111.355614 282.649968 
L 112.987044 282.855849 
L 114.618474 282.831257 
L 116.249904 282.635427 
L 117.881334 282.777837 
L 119.512764 282.648705 
L 124.407053 282.687901 
L 126.038483 282.558297 
L 127.669913 282.729152 
L 134.195633 282.716983 
L 135.827063 282.865555 
L 137.458492 282.721727 
L 140.721352 282.71303 
L 142.352782 282.813871 
L 143.984212 282.629738 
L 150.509931 282.669253 
L 152.141361 282.780363 
L 155.404221 282.643015 
L 157.035651 282.746538 
L 160.298511 282.539648 
L 161.929941 282.706868 
L 163.56137 282.631637 
L 165.1928 282.837264 
L 166.82423 282.898427 
L 170.08709 282.460146 
L 173.34995 282.648232 
L 174.98138 282.56225 
L 176.61281 282.726944 
L 178.244239 282.684584 
L 179.875669 282.83252 
L 181.507099 282.550236 
L 184.769959 282.840581 
L 186.401389 282.672252 
L 192.927108 282.7791 
L 194.558538 282.518945 
L 196.189968 282.526688 
L 197.821398 282.673361 
L 199.452828 282.239471 
L 201.084258 282.241668 
L 202.715688 281.682079 
L 204.347117 276.933723 
L 205.978547 282.591604 
L 207.609977 282.055341 
L 209.241407 280.534162 
L 210.872837 280.855121 
L 212.504267 278.825483 
L 214.135697 282.538509 
L 215.767127 280.24503 
L 217.398556 281.701136 
L 219.029986 279.589782 
L 220.661416 279.961696 
L 222.292846 267.819823 
L 223.924276 281.880655 
L 225.555706 281.480169 
L 227.187136 282.42613 
L 228.818566 282.731872 
L 230.449995 263.680464 
L 232.081425 283.389964 
L 233.712855 282.965274 
L 235.344285 282.810389 
L 236.975715 275.853158 
L 238.607145 279.639175 
L 240.238575 271.704083 
L 241.870005 281.933714 
L 243.501434 281.056958 
L 245.132864 281.375604 
L 246.764294 275.795699 
L 248.395724 273.921029 
L 250.027154 279.571705 
L 251.658584 281.021169 
L 253.290014 279.616938 
L 254.921444 275.413756 
L 256.552873 273.406025 
L 258.184303 282.81454 
L 259.815733 275.733399 
L 261.447163 274.098281 
L 263.078593 278.020217 
L 264.710023 281.148989 
L 266.341453 279.191567 
L 267.972883 284.16073 
L 269.604312 280.117292 
L 271.235742 280.046225 
L 272.867172 279.802918 
L 274.498602 280.231808 
L 276.130032 281.123872 
L 277.761462 280.564947 
L 279.392892 278.622289 
L 281.024322 281.890447 
L 282.655751 270.324684 
L 284.287181 277.967399 
L 285.918611 282.712998 
L 287.550041 281.494499 
L 289.181471 278.250359 
L 290.812901 279.146479 
L 292.444331 275.664498 
L 294.075761 276.487567 
L 295.70719 282.115131 
L 297.33862 275.510458 
L 298.97005 277.877713 
L 300.60148 283.676566 
L 302.23291 279.046078 
L 303.86434 278.421371 
L 305.49577 280.665512 
L 307.1272 264.915354 
L 308.75863 275.878585 
L 310.390059 278.564976 
L 312.021489 266.177721 
L 313.652919 276.203871 
L 315.284349 262.378355 
L 316.915779 278.163994 
L 318.547209 270.691896 
L 320.178639 274.819964 
L 321.810069 266.689143 
L 323.441498 274.284649 
L 325.072928 276.104009 
L 326.704358 281.194772 
L 328.335788 275.157795 
L 329.967218 277.26445 
L 331.598648 276.316503 
L 333.230078 268.169147 
L 334.861508 267.124986 
L 336.492937 272.741213 
L 338.124367 273.550082 
L 339.755797 275.1264 
L 341.387227 269.807567 
L 343.018657 265.233857 
L 344.650087 280.119475 
L 346.281517 279.172051 
L 347.912947 275.984902 
L 349.544376 274.43413 
L 351.175806 263.322498 
L 352.807236 270.661746 
L 354.438666 265.719389 
L 356.070096 276.797781 
L 357.701526 278.880304 
L 359.332956 280.610836 
L 360.964386 281.365004 
L 362.595815 281.169101 
L 364.227245 279.695046 
L 365.858675 282.879016 
L 367.490105 275.2882 
L 369.121535 274.941355 
L 370.752965 272.003686 
L 372.384395 273.824005 
L 374.015825 275.03466 
L 375.647254 280.097275 
L 377.278684 278.365278 
L 378.910114 279.494266 
L 380.541544 273.963766 
L 382.172974 279.861996 
L 383.804404 268.240116 
L 385.435834 281.213484 
L 387.067264 275.547303 
L 388.698693 280.695024 
L 390.330123 276.087433 
L 391.961553 275.408549 
L 393.592983 260.166025 
L 395.224413 269.894815 
L 396.855843 258.795501 
L 398.487273 281.800415 
L 398.487273 281.800415 
" style="fill:none;stroke:#2ca02c;stroke-linecap:square;stroke-width:0.75;"/>
   </g>
   <g id="patch_3">
    <path d="M 57.6 307.584 
L 57.6 41.472 
" style="fill:none;stroke:#000000;stroke-linecap:square;stroke-linejoin:miter;stroke-width:0.8;"/>
   </g>
   <g id="patch_4">
    <path d="M 414.72 307.584 
L 414.72 41.472 
" style="fill:none;stroke:#000000;stroke-linecap:square;stroke-linejoin:miter;stroke-width:0.8;"/>
   </g>
   <g id="patch_5">
    <path d="M 57.6 307.584 
L 414.72 307.584 
" style="fill:none;stroke:#000000;stroke-linecap:square;stroke-linejoin:miter;stroke-width:0.8;"/>
   </g>
   <g id="patch_6">
    <path d="M 57.6 41.472 
L 414.72 41.472 
" style="fill:none;stroke:#000000;stroke-linecap:square;stroke-linejoin:miter;stroke-width:0.8;"/>
   </g>
   <g id="legend_1">
    <g id="patch_7">
     <path d="M 338.234063 78.82825 
L 407.72 78.82825 
Q 409.72 78.82825 409.72 76.82825 
L 409.72 48.472 
Q 409.72 46.472 407.72 46.472 
L 338.234063 46.472 
Q 336.234063 46.472 336.234063 48.472 
L 336.234063 76.82825 
Q 336.234063 78.82825 338.234063 78.82825 
z
" style="fill:#ffffff;opacity:0.8;stroke:#cccccc;stroke-linejoin:miter;"/>
    </g>
    <g id="line2d_21">
     <path d="M 340.234063 54.570437 
L 360.234063 54.570437 
" style="fill:none;stroke:#1f77b4;stroke-linecap:square;stroke-width:0.25;"/>
    </g>
    <g id="line2d_22"/>
    <g id="text_19">
     <!-- median -->
     <defs>
      <path d="M 52 44.1875 
Q 55.375 50.25 60.0625 53.125 
Q 64.75 56 71.09375 56 
Q 79.640625 56 84.28125 50.015625 
Q 88.921875 44.046875 88.921875 33.015625 
L 88.921875 0 
L 79.890625 0 
L 79.890625 32.71875 
Q 79.890625 40.578125 77.09375 44.375 
Q 74.3125 48.1875 68.609375 48.1875 
Q 61.625 48.1875 57.5625 43.546875 
Q 53.515625 38.921875 53.515625 30.90625 
L 53.515625 0 
L 44.484375 0 
L 44.484375 32.71875 
Q 44.484375 40.625 41.703125 44.40625 
Q 38.921875 48.1875 33.109375 48.1875 
Q 26.21875 48.1875 22.15625 43.53125 
Q 18.109375 38.875 18.109375 30.90625 
L 18.109375 0 
L 9.078125 0 
L 9.078125 54.6875 
L 18.109375 54.6875 
L 18.109375 46.1875 
Q 21.1875 51.21875 25.484375 53.609375 
Q 29.78125 56 35.6875 56 
Q 41.65625 56 45.828125 52.96875 
Q 50 49.953125 52 44.1875 
z
" id="DejaVuSans-109"/>
      <path d="M 56.203125 29.59375 
L 56.203125 25.203125 
L 14.890625 25.203125 
Q 15.484375 15.921875 20.484375 11.0625 
Q 25.484375 6.203125 34.421875 6.203125 
Q 39.59375 6.203125 44.453125 7.46875 
Q 49.3125 8.734375 54.109375 11.28125 
L 54.109375 2.78125 
Q 49.265625 0.734375 44.1875 -0.34375 
Q 39.109375 -1.421875 33.890625 -1.421875 
Q 20.796875 -1.421875 13.15625 6.1875 
Q 5.515625 13.8125 5.515625 26.8125 
Q 5.515625 40.234375 12.765625 48.109375 
Q 20.015625 56 32.328125 56 
Q 43.359375 56 49.78125 48.890625 
Q 56.203125 41.796875 56.203125 29.59375 
z
M 47.21875 32.234375 
Q 47.125 39.59375 43.09375 43.984375 
Q 39.0625 48.390625 32.421875 48.390625 
Q 24.90625 48.390625 20.390625 44.140625 
Q 15.875 39.890625 15.1875 32.171875 
z
" id="DejaVuSans-101"/>
      <path d="M 45.40625 46.390625 
L 45.40625 75.984375 
L 54.390625 75.984375 
L 54.390625 0 
L 45.40625 0 
L 45.40625 8.203125 
Q 42.578125 3.328125 38.25 0.953125 
Q 33.9375 -1.421875 27.875 -1.421875 
Q 17.96875 -1.421875 11.734375 6.484375 
Q 5.515625 14.40625 5.515625 27.296875 
Q 5.515625 40.1875 11.734375 48.09375 
Q 17.96875 56 27.875 56 
Q 33.9375 56 38.25 53.625 
Q 42.578125 51.265625 45.40625 46.390625 
z
M 14.796875 27.296875 
Q 14.796875 17.390625 18.875 11.75 
Q 22.953125 6.109375 30.078125 6.109375 
Q 37.203125 6.109375 41.296875 11.75 
Q 45.40625 17.390625 45.40625 27.296875 
Q 45.40625 37.203125 41.296875 42.84375 
Q 37.203125 48.484375 30.078125 48.484375 
Q 22.953125 48.484375 18.875 42.84375 
Q 14.796875 37.203125 14.796875 27.296875 
z
" id="DejaVuSans-100"/>
      <path d="M 9.421875 54.6875 
L 18.40625 54.6875 
L 18.40625 0 
L 9.421875 0 
z
M 9.421875 75.984375 
L 18.40625 75.984375 
L 18.40625 64.59375 
L 9.421875 64.59375 
z
" id="DejaVuSans-105"/>
      <path d="M 34.28125 27.484375 
Q 23.390625 27.484375 19.1875 25 
Q 14.984375 22.515625 14.984375 16.5 
Q 14.984375 11.71875 18.140625 8.90625 
Q 21.296875 6.109375 26.703125 6.109375 
Q 34.1875 6.109375 38.703125 11.40625 
Q 43.21875 16.703125 43.21875 25.484375 
L 43.21875 27.484375 
z
M 52.203125 31.203125 
L 52.203125 0 
L 43.21875 0 
L 43.21875 8.296875 
Q 40.140625 3.328125 35.546875 0.953125 
Q 30.953125 -1.421875 24.3125 -1.421875 
Q 15.921875 -1.421875 10.953125 3.296875 
Q 6 8.015625 6 15.921875 
Q 6 25.140625 12.171875 29.828125 
Q 18.359375 34.515625 30.609375 34.515625 
L 43.21875 34.515625 
L 43.21875 35.40625 
Q 43.21875 41.609375 39.140625 45 
Q 35.0625 48.390625 27.6875 48.390625 
Q 23 48.390625 18.546875 47.265625 
Q 14.109375 46.140625 10.015625 43.890625 
L 10.015625 52.203125 
Q 14.9375 54.109375 19.578125 55.046875 
Q 24.21875 56 28.609375 56 
Q 40.484375 56 46.34375 49.84375 
Q 52.203125 43.703125 52.203125 31.203125 
z
" id="DejaVuSans-97"/>
      <path d="M 54.890625 33.015625 
L 54.890625 0 
L 45.90625 0 
L 45.90625 32.71875 
Q 45.90625 40.484375 42.875 44.328125 
Q 39.84375 48.1875 33.796875 48.1875 
Q 26.515625 48.1875 22.3125 43.546875 
Q 18.109375 38.921875 18.109375 30.90625 
L 18.109375 0 
L 9.078125 0 
L 9.078125 54.6875 
L 18.109375 54.6875 
L 18.109375 46.1875 
Q 21.34375 51.125 25.703125 53.5625 
Q 30.078125 56 35.796875 56 
Q 45.21875 56 50.046875 50.171875 
Q 54.890625 44.34375 54.890625 33.015625 
z
" id="DejaVuSans-110"/>
     </defs>
     <g transform="translate(368.234063 58.070437)scale(0.1 -0.1)">
      <use xlink:href="#DejaVuSans-109"/>
      <use x="97.412109" xlink:href="#DejaVuSans-101"/>
      <use x="158.935547" xlink:href="#DejaVuSans-100"/>
      <use x="222.412109" xlink:href="#DejaVuSans-105"/>
      <use x="250.195312" xlink:href="#DejaVuSans-97"/>
      <use x="311.474609" xlink:href="#DejaVuSans-110"/>
     </g>
    </g>
    <g id="line2d_23">
     <path d="M 340.234063 69.248562 
L 360.234063 69.248562 
" style="fill:none;stroke:#2ca02c;stroke-linecap:square;stroke-width:0.75;"/>
    </g>
    <g id="line2d_24"/>
    <g id="text_20">
     <!-- mean -->
     <g transform="translate(368.234063 72.748562)scale(0.1 -0.1)">
      <use xlink:href="#DejaVuSans-109"/>
      <use x="97.412109" xlink:href="#DejaVuSans-101"/>
      <use x="158.935547" xlink:href="#DejaVuSans-97"/>
      <use x="220.214844" xlink:href="#DejaVuSans-110"/>
     </g>
    </g>
   </g>
  </g>
  <g id="text_21">
   <!-- log_loss.mean over generations -->
   <defs>
    <path d="M 9.421875 75.984375 
L 18.40625 75.984375 
L 18.40625 0 
L 9.421875 0 
z
" id="DejaVuSans-108"/>
    <path d="M 30.609375 48.390625 
Q 23.390625 48.390625 19.1875 42.75 
Q 14.984375 37.109375 14.984375 27.296875 
Q 14.984375 17.484375 19.15625 11.84375 
Q 23.34375 6.203125 30.609375 6.203125 
Q 37.796875 6.203125 41.984375 11.859375 
Q 46.1875 17.53125 46.1875 27.296875 
Q 46.1875 37.015625 41.984375 42.703125 
Q 37.796875 48.390625 30.609375 48.390625 
z
M 30.609375 56 
Q 42.328125 56 49.015625 48.375 
Q 55.71875 40.765625 55.71875 27.296875 
Q 55.71875 13.875 49.015625 6.21875 
Q 42.328125 -1.421875 30.609375 -1.421875 
Q 18.84375 -1.421875 12.171875 6.21875 
Q 5.515625 13.875 5.515625 27.296875 
Q 5.515625 40.765625 12.171875 48.375 
Q 18.84375 56 30.609375 56 
z
" id="DejaVuSans-111"/>
    <path d="M 45.40625 27.984375 
Q 45.40625 37.75 41.375 43.109375 
Q 37.359375 48.484375 30.078125 48.484375 
Q 22.859375 48.484375 18.828125 43.109375 
Q 14.796875 37.75 14.796875 27.984375 
Q 14.796875 18.265625 18.828125 12.890625 
Q 22.859375 7.515625 30.078125 7.515625 
Q 37.359375 7.515625 41.375 12.890625 
Q 45.40625 18.265625 45.40625 27.984375 
z
M 54.390625 6.78125 
Q 54.390625 -7.171875 48.1875 -13.984375 
Q 42 -20.796875 29.203125 -20.796875 
Q 24.46875 -20.796875 20.265625 -20.09375 
Q 16.0625 -19.390625 12.109375 -17.921875 
L 12.109375 -9.1875 
Q 16.0625 -11.328125 19.921875 -12.34375 
Q 23.78125 -13.375 27.78125 -13.375 
Q 36.625 -13.375 41.015625 -8.765625 
Q 45.40625 -4.15625 45.40625 5.171875 
L 45.40625 9.625 
Q 42.625 4.78125 38.28125 2.390625 
Q 33.9375 0 27.875 0 
Q 17.828125 0 11.671875 7.65625 
Q 5.515625 15.328125 5.515625 27.984375 
Q 5.515625 40.671875 11.671875 48.328125 
Q 17.828125 56 27.875 56 
Q 33.9375 56 38.28125 53.609375 
Q 42.625 51.21875 45.40625 46.390625 
L 45.40625 54.6875 
L 54.390625 54.6875 
z
" id="DejaVuSans-103"/>
    <path d="M 50.984375 -16.609375 
L 50.984375 -23.578125 
L -0.984375 -23.578125 
L -0.984375 -16.609375 
z
" id="DejaVuSans-95"/>
    <path d="M 44.28125 53.078125 
L 44.28125 44.578125 
Q 40.484375 46.53125 36.375 47.5 
Q 32.28125 48.484375 27.875 48.484375 
Q 21.1875 48.484375 17.84375 46.4375 
Q 14.5 44.390625 14.5 40.28125 
Q 14.5 37.15625 16.890625 35.375 
Q 19.28125 33.59375 26.515625 31.984375 
L 29.59375 31.296875 
Q 39.15625 29.25 43.1875 25.515625 
Q 47.21875 21.78125 47.21875 15.09375 
Q 47.21875 7.46875 41.1875 3.015625 
Q 35.15625 -1.421875 24.609375 -1.421875 
Q 20.21875 -1.421875 15.453125 -0.5625 
Q 10.6875 0.296875 5.421875 2 
L 5.421875 11.28125 
Q 10.40625 8.6875 15.234375 7.390625 
Q 20.0625 6.109375 24.8125 6.109375 
Q 31.15625 6.109375 34.5625 8.28125 
Q 37.984375 10.453125 37.984375 14.40625 
Q 37.984375 18.0625 35.515625 20.015625 
Q 33.0625 21.96875 24.703125 23.78125 
L 21.578125 24.515625 
Q 13.234375 26.265625 9.515625 29.90625 
Q 5.8125 33.546875 5.8125 39.890625 
Q 5.8125 47.609375 11.28125 51.796875 
Q 16.75 56 26.8125 56 
Q 31.78125 56 36.171875 55.265625 
Q 40.578125 54.546875 44.28125 53.078125 
z
" id="DejaVuSans-115"/>
    <path d="M 10.6875 12.40625 
L 21 12.40625 
L 21 0 
L 10.6875 0 
z
" id="DejaVuSans-46"/>
    <path id="DejaVuSans-32"/>
    <path d="M 2.984375 54.6875 
L 12.5 54.6875 
L 29.59375 8.796875 
L 46.6875 54.6875 
L 56.203125 54.6875 
L 35.6875 0 
L 23.484375 0 
z
" id="DejaVuSans-118"/>
    <path d="M 41.109375 46.296875 
Q 39.59375 47.171875 37.8125 47.578125 
Q 36.03125 48 33.890625 48 
Q 26.265625 48 22.1875 43.046875 
Q 18.109375 38.09375 18.109375 28.8125 
L 18.109375 0 
L 9.078125 0 
L 9.078125 54.6875 
L 18.109375 54.6875 
L 18.109375 46.1875 
Q 20.953125 51.171875 25.484375 53.578125 
Q 30.03125 56 36.53125 56 
Q 37.453125 56 38.578125 55.875 
Q 39.703125 55.765625 41.0625 55.515625 
z
" id="DejaVuSans-114"/>
    <path d="M 18.3125 70.21875 
L 18.3125 54.6875 
L 36.8125 54.6875 
L 36.8125 47.703125 
L 18.3125 47.703125 
L 18.3125 18.015625 
Q 18.3125 11.328125 20.140625 9.421875 
Q 21.96875 7.515625 27.59375 7.515625 
L 36.8125 7.515625 
L 36.8125 0 
L 27.59375 0 
Q 17.1875 0 13.234375 3.875 
Q 9.28125 7.765625 9.28125 18.015625 
L 9.28125 47.703125 
L 2.6875 47.703125 
L 2.6875 54.6875 
L 9.28125 54.6875 
L 9.28125 70.21875 
z
" id="DejaVuSans-116"/>
   </defs>
   <g transform="translate(134.789062 16.030125)scale(0.12 -0.12)">
    <use xlink:href="#DejaVuSans-108"/>
    <use x="27.783203" xlink:href="#DejaVuSans-111"/>
    <use x="88.964844" xlink:href="#DejaVuSans-103"/>
    <use x="152.441406" xlink:href="#DejaVuSans-95"/>
    <use x="202.441406" xlink:href="#DejaVuSans-108"/>
    <use x="230.224609" xlink:href="#DejaVuSans-111"/>
    <use x="291.40625" xlink:href="#DejaVuSans-115"/>
    <use x="343.505859" xlink:href="#DejaVuSans-115"/>
    <use x="395.605469" xlink:href="#DejaVuSans-46"/>
    <use x="427.392578" xlink:href="#DejaVuSans-109"/>
    <use x="524.804688" xlink:href="#DejaVuSans-101"/>
    <use x="586.328125" xlink:href="#DejaVuSans-97"/>
    <use x="647.607422" xlink:href="#DejaVuSans-110"/>
    <use x="710.986328" xlink:href="#DejaVuSans-32"/>
    <use x="742.773438" xlink:href="#DejaVuSans-111"/>
    <use x="803.955078" xlink:href="#DejaVuSans-118"/>
    <use x="863.134766" xlink:href="#DejaVuSans-101"/>
    <use x="924.658203" xlink:href="#DejaVuSans-114"/>
    <use x="965.771484" xlink:href="#DejaVuSans-32"/>
    <use x="997.558594" xlink:href="#DejaVuSans-103"/>
    <use x="1061.035156" xlink:href="#DejaVuSans-101"/>
    <use x="1122.558594" xlink:href="#DejaVuSans-110"/>
    <use x="1185.9375" xlink:href="#DejaVuSans-101"/>
    <use x="1247.460938" xlink:href="#DejaVuSans-114"/>
    <use x="1288.574219" xlink:href="#DejaVuSans-97"/>
    <use x="1349.853516" xlink:href="#DejaVuSans-116"/>
    <use x="1389.0625" xlink:href="#DejaVuSans-105"/>
    <use x="1416.845703" xlink:href="#DejaVuSans-111"/>
    <use x="1478.027344" xlink:href="#DejaVuSans-110"/>
    <use x="1541.40625" xlink:href="#DejaVuSans-115"/>
   </g>
  </g>
 </g>
 <defs>
  <clipPath id="pe502522f1c">
   <rect height="266.112" width="357.12" x="57.6" y="41.472"/>
  </clipPath>
 </defs>
</svg>
