<?xml version="1.0" encoding="utf-8" standalone="no"?>
<!DOCTYPE svg PUBLIC "-//W3C//DTD SVG 1.1//EN"
  "http://www.w3.org/Graphics/SVG/1.1/DTD/svg11.dtd">
<!-- Created with matplotlib (https://matplotlib.org/) -->
<svg height="345.6pt" version="1.1" viewBox="0 0 460.8 345.6" width="460.8pt" xmlns="http://www.w3.org/2000/svg" xmlns:xlink="http://www.w3.org/1999/xlink">
 <defs>
  <style type="text/css">
*{stroke-linecap:butt;stroke-linejoin:round;}
  </style>
 </defs>
 <g id="figure_1">
  <g id="patch_1">
   <path d="M 0 345.6 
L 460.8 345.6 
L 460.8 0 
L 0 0 
z
" style="fill:#ffffff;"/>
  </g>
  <g id="axes_1">
   <g id="patch_2">
    <path clip-path="url(#p3132709467)" d="M 88.589752 125.14089 
Q 234.396885 116.230246 380.204018 107.319602 
" style="fill:none;stroke:#000000;stroke-linecap:round;stroke-opacity:0.9;stroke-width:0.4;"/>
   </g>
   <g id="patch_3">
    <path clip-path="url(#p3132709467)" d="M 88.589752 223.91511 
Q 160.737859 253.53139 232.885965 283.147669 
" style="fill:none;stroke:#000000;stroke-linecap:round;stroke-opacity:0.9;stroke-width:0.4;"/>
   </g>
   <g id="patch_4">
    <path clip-path="url(#p3132709467)" d="M 88.589752 223.91511 
Q 161.173571 145.536942 233.75739 67.158774 
" style="fill:none;stroke:#000000;stroke-linecap:round;stroke-opacity:0.9;stroke-width:0.4;"/>
   </g>
   <g id="patch_5">
    <path clip-path="url(#p3132709467)" d="M 88.589752 223.91511 
Q 160.638782 210.540201 232.687812 197.165291 
" style="fill:none;stroke:#000000;stroke-linecap:round;stroke-opacity:0.9;stroke-width:0.4;"/>
   </g>
   <g id="patch_6">
    <path clip-path="url(#p3132709467)" d="M 88.589752 223.91511 
Q 234.396885 232.825754 380.204018 241.736398 
" style="fill:none;stroke:#000000;stroke-linecap:round;stroke-opacity:0.9;stroke-width:0.4;"/>
   </g>
   <g id="patch_7">
    <path clip-path="url(#p3132709467)" d="M 88.589752 273.302221 
Q 161.006942 214.038222 233.424132 154.774223 
" style="fill:none;stroke:#000000;stroke-linecap:round;stroke-opacity:0.9;stroke-width:0.4;"/>
   </g>
   <g id="patch_8">
    <path clip-path="url(#p3132709467)" d="M 88.589752 273.302221 
Q 160.611761 278.763242 232.63377 284.224262 
" style="fill:none;stroke:#000000;stroke-linecap:round;stroke-opacity:0.9;stroke-width:0.4;"/>
   </g>
   <g id="patch_9">
    <path clip-path="url(#p3132709467)" d="M 88.589752 273.302221 
Q 161.196088 192.242058 233.802425 111.181895 
" style="fill:none;stroke:#000000;stroke-linecap:round;stroke-opacity:0.9;stroke-width:0.4;"/>
   </g>
   <g id="patch_10">
    <path clip-path="url(#p3132709467)" d="M 88.589752 273.302221 
Q 160.647789 257.288029 232.705826 241.273838 
" style="fill:none;stroke:#000000;stroke-linecap:round;stroke-opacity:0.9;stroke-width:0.4;"/>
   </g>
   <g id="patch_11">
    <path clip-path="url(#p3132709467)" d="M 88.589752 273.302221 
Q 234.618682 191.071103 380.647611 108.839985 
" style="fill:none;stroke:#000000;stroke-linecap:round;stroke-opacity:0.9;stroke-width:0.4;"/>
   </g>
   <g id="patch_12">
    <path clip-path="url(#p3132709467)" d="M 88.589752 273.302221 
Q 234.482451 224.476533 380.37515 175.650845 
" style="fill:none;stroke:#000000;stroke-linecap:round;stroke-opacity:0.9;stroke-width:0.4;"/>
   </g>
   <g id="patch_13">
    <path clip-path="url(#p3132709467)" d="M 236.16 152.535273 
Q 308.195519 163.270889 380.231039 174.006505 
" style="fill:none;stroke:#000000;stroke-linecap:round;stroke-opacity:0.9;stroke-width:0.4;"/>
   </g>
   <g id="patch_14">
    <path clip-path="url(#p3132709467)" d="M 236.16 284.491636 
Q 308.245058 263.71184 380.330116 242.932043 
" style="fill:none;stroke:#000000;stroke-linecap:round;stroke-opacity:0.9;stroke-width:0.4;"/>
   </g>
   <g id="patch_15">
    <path clip-path="url(#p3132709467)" d="M 236.16 64.564364 
Q 308.527652 118.489936 380.895303 172.415509 
" style="fill:none;stroke:#000000;stroke-linecap:round;stroke-opacity:0.9;stroke-width:0.4;"/>
   </g>
   <g id="patch_16">
    <path clip-path="url(#p3132709467)" d="M 236.16 196.520727 
Q 308.254065 218.715699 380.34813 240.910672 
" style="fill:none;stroke:#000000;stroke-linecap:round;stroke-opacity:0.9;stroke-width:0.4;"/>
   </g>
   <g id="patch_17">
    <path clip-path="url(#p3132709467)" d="M 236.16 108.549818 
Q 308.330624 140.817071 380.501248 173.084325 
" style="fill:none;stroke:#000000;stroke-linecap:round;stroke-opacity:0.9;stroke-width:0.4;"/>
   </g>
   <g id="patch_18">
    <path clip-path="url(#p3132709467)" d="M 236.16 108.549818 
Q 308.633484 174.065146 381.106967 239.580474 
" style="fill:none;stroke:#000000;stroke-linecap:round;stroke-opacity:0.9;stroke-width:0.4;"/>
   </g>
   <g id="patch_19">
    <path clip-path="url(#p3132709467)" d="M 236.16 240.506182 
Q 308.330624 208.238929 380.501248 175.971675 
" style="fill:none;stroke:#000000;stroke-linecap:round;stroke-opacity:0.9;stroke-width:0.4;"/>
   </g>
   <g id="PathCollection_1">
    <defs>
     <path d="M 0 3.535534 
C 0.937635 3.535534 1.836992 3.163008 2.5 2.5 
C 3.163008 1.836992 3.535534 0.937635 3.535534 0 
C 3.535534 -0.937635 3.163008 -1.836992 2.5 -2.5 
C 1.836992 -3.163008 0.937635 -3.535534 0 -3.535534 
C -0.937635 -3.535534 -1.836992 -3.163008 -2.5 -2.5 
C -3.163008 -1.836992 -3.535534 -0.937635 -3.535534 0 
C -3.535534 0.937635 -3.163008 1.836992 -2.5 2.5 
C -1.836992 3.163008 -0.937635 3.535534 0 3.535534 
z
" id="C0_0_506ea2eeae"/>
    </defs>
    <g clip-path="url(#p3132709467)">
     <use style="fill:#fdb462;fill-opacity:0.9;" x="88.589752" xlink:href="#C0_0_506ea2eeae" y="75.753779"/>
    </g>
    <g clip-path="url(#p3132709467)">
     <use style="fill:#fdb462;fill-opacity:0.9;" x="88.589752" xlink:href="#C0_0_506ea2eeae" y="125.14089"/>
    </g>
    <g clip-path="url(#p3132709467)">
     <use style="fill:#fdb462;fill-opacity:0.9;" x="88.589752" xlink:href="#C0_0_506ea2eeae" y="174.528"/>
    </g>
    <g clip-path="url(#p3132709467)">
     <use style="fill:#fdb462;fill-opacity:0.9;" x="88.589752" xlink:href="#C0_0_506ea2eeae" y="223.91511"/>
    </g>
    <g clip-path="url(#p3132709467)">
     <use style="fill:#ffed6f;fill-opacity:0.9;" x="88.589752" xlink:href="#C0_0_506ea2eeae" y="273.302221"/>
    </g>
    <g clip-path="url(#p3132709467)">
     <use style="fill:#80b1d3;fill-opacity:0.9;" x="236.16" xlink:href="#C0_0_506ea2eeae" y="152.535273"/>
    </g>
    <g clip-path="url(#p3132709467)">
     <use style="fill:#80b1d3;fill-opacity:0.9;" x="236.16" xlink:href="#C0_0_506ea2eeae" y="284.491636"/>
    </g>
    <g clip-path="url(#p3132709467)">
     <use style="fill:#80b1d3;fill-opacity:0.9;" x="236.16" xlink:href="#C0_0_506ea2eeae" y="64.564364"/>
    </g>
    <g clip-path="url(#p3132709467)">
     <use style="fill:#80b1d3;fill-opacity:0.9;" x="236.16" xlink:href="#C0_0_506ea2eeae" y="196.520727"/>
    </g>
    <g clip-path="url(#p3132709467)">
     <use style="fill:#80b1d3;fill-opacity:0.9;" x="236.16" xlink:href="#C0_0_506ea2eeae" y="108.549818"/>
    </g>
    <g clip-path="url(#p3132709467)">
     <use style="fill:#80b1d3;fill-opacity:0.9;" x="236.16" xlink:href="#C0_0_506ea2eeae" y="240.506182"/>
    </g>
    <g clip-path="url(#p3132709467)">
     <use style="fill:#b3de69;fill-opacity:0.9;" x="383.730248" xlink:href="#C0_0_506ea2eeae" y="107.104105"/>
    </g>
    <g clip-path="url(#p3132709467)">
     <use style="fill:#b3de69;fill-opacity:0.9;" x="383.730248" xlink:href="#C0_0_506ea2eeae" y="174.528"/>
    </g>
    <g clip-path="url(#p3132709467)">
     <use style="fill:#b3de69;fill-opacity:0.9;" x="383.730248" xlink:href="#C0_0_506ea2eeae" y="241.951895"/>
    </g>
   </g>
  </g>
 </g>
 <defs>
  <clipPath id="p3132709467">
   <rect height="266.112" width="357.12" x="57.6" y="41.472"/>
  </clipPath>
 </defs>
</svg>
