<?xml version="1.0" encoding="utf-8" standalone="no"?>
<!DOCTYPE svg PUBLIC "-//W3C//DTD SVG 1.1//EN"
  "http://www.w3.org/Graphics/SVG/1.1/DTD/svg11.dtd">
<!-- Created with matplotlib (https://matplotlib.org/) -->
<svg height="345.6pt" version="1.1" viewBox="0 0 460.8 345.6" width="460.8pt" xmlns="http://www.w3.org/2000/svg" xmlns:xlink="http://www.w3.org/1999/xlink">
 <defs>
  <style type="text/css">
*{stroke-linecap:butt;stroke-linejoin:round;}
  </style>
 </defs>
 <g id="figure_1">
  <g id="patch_1">
   <path d="M 0 345.6 
L 460.8 345.6 
L 460.8 0 
L 0 0 
z
" style="fill:#ffffff;"/>
  </g>
  <g id="axes_1">
   <g id="patch_2">
    <path clip-path="url(#pb14cc02c05)" d="M 88.589752 125.14089 
Q 234.396885 116.230246 380.204018 107.319602 
" style="fill:none;stroke:#000000;stroke-linecap:round;stroke-opacity:0.9;stroke-width:0.4;"/>
   </g>
   <g id="patch_3">
    <path clip-path="url(#pb14cc02c05)" d="M 88.589752 223.91511 
Q 124.739802 145.843311 160.889851 67.771511 
" style="fill:none;stroke:#000000;stroke-linecap:round;stroke-opacity:0.9;stroke-width:0.4;"/>
   </g>
   <g id="patch_4">
    <path clip-path="url(#pb14cc02c05)" d="M 88.589752 223.91511 
Q 124.211205 189.454864 159.832658 154.994618 
" style="fill:none;stroke:#000000;stroke-linecap:round;stroke-opacity:0.9;stroke-width:0.4;"/>
   </g>
   <g id="patch_5">
    <path clip-path="url(#pb14cc02c05)" d="M 88.589752 223.91511 
Q 124.116632 253.082168 159.643511 282.249225 
" style="fill:none;stroke:#000000;stroke-linecap:round;stroke-opacity:0.9;stroke-width:0.4;"/>
   </g>
   <g id="patch_6">
    <path clip-path="url(#pb14cc02c05)" d="M 88.589752 223.91511 
Q 234.396885 232.825754 380.204018 241.736398 
" style="fill:none;stroke:#000000;stroke-linecap:round;stroke-opacity:0.9;stroke-width:0.4;"/>
   </g>
   <g id="patch_7">
    <path clip-path="url(#pb14cc02c05)" d="M 88.589752 273.302221 
Q 124.760067 192.538701 160.930383 111.77518 
" style="fill:none;stroke:#000000;stroke-linecap:round;stroke-opacity:0.9;stroke-width:0.4;"/>
   </g>
   <g id="patch_8">
    <path clip-path="url(#pb14cc02c05)" d="M 88.589752 273.302221 
Q 123.867814 257.621815 159.145876 241.941409 
" style="fill:none;stroke:#000000;stroke-linecap:round;stroke-opacity:0.9;stroke-width:0.4;"/>
   </g>
   <g id="patch_9">
    <path clip-path="url(#pb14cc02c05)" d="M 88.589752 273.302221 
Q 124.258492 236.184995 159.927231 199.06777 
" style="fill:none;stroke:#000000;stroke-linecap:round;stroke-opacity:0.9;stroke-width:0.4;"/>
   </g>
   <g id="patch_10">
    <path clip-path="url(#pb14cc02c05)" d="M 88.589752 273.302221 
Q 160.724348 245.813946 232.858944 218.325672 
" style="fill:none;stroke:#000000;stroke-linecap:round;stroke-opacity:0.9;stroke-width:0.4;"/>
   </g>
   <g id="patch_11">
    <path clip-path="url(#pb14cc02c05)" d="M 88.589752 273.302221 
Q 234.618682 191.071103 380.647611 108.839985 
" style="fill:none;stroke:#000000;stroke-linecap:round;stroke-opacity:0.9;stroke-width:0.4;"/>
   </g>
   <g id="patch_12">
    <path clip-path="url(#pb14cc02c05)" d="M 88.589752 273.302221 
Q 234.482451 224.476533 380.37515 175.650845 
" style="fill:none;stroke:#000000;stroke-linecap:round;stroke-opacity:0.9;stroke-width:0.4;"/>
   </g>
   <g id="patch_13">
    <path clip-path="url(#pb14cc02c05)" d="M 162.374876 108.549818 
Q 271.358688 141.034025 380.3425 173.518233 
" style="fill:none;stroke:#000000;stroke-linecap:round;stroke-opacity:0.9;stroke-width:0.4;"/>
   </g>
   <g id="patch_14">
    <path clip-path="url(#pb14cc02c05)" d="M 162.374876 64.564364 
Q 271.470149 118.76008 380.565423 172.955797 
" style="fill:none;stroke:#000000;stroke-linecap:round;stroke-opacity:0.9;stroke-width:0.4;"/>
   </g>
   <g id="patch_15">
    <path clip-path="url(#pb14cc02c05)" d="M 162.374876 152.535273 
Q 271.41273 196.581173 380.450584 240.627073 
" style="fill:none;stroke:#000000;stroke-linecap:round;stroke-opacity:0.9;stroke-width:0.4;"/>
   </g>
   <g id="patch_16">
    <path clip-path="url(#pb14cc02c05)" d="M 162.374876 240.506182 
Q 198.273293 187.709338 234.171711 134.912493 
" style="fill:none;stroke:#000000;stroke-linecap:round;stroke-opacity:0.9;stroke-width:0.4;"/>
   </g>
   <g id="patch_17">
    <path clip-path="url(#pb14cc02c05)" d="M 162.374876 240.506182 
Q 271.284381 241.21749 380.193885 241.928798 
" style="fill:none;stroke:#000000;stroke-linecap:round;stroke-opacity:0.9;stroke-width:0.4;"/>
   </g>
   <g id="patch_18">
    <path clip-path="url(#pb14cc02c05)" d="M 162.374876 196.520727 
Q 271.294513 185.699034 380.214151 174.877341 
" style="fill:none;stroke:#000000;stroke-linecap:round;stroke-opacity:0.9;stroke-width:0.4;"/>
   </g>
   <g id="patch_19">
    <path clip-path="url(#pb14cc02c05)" d="M 162.374876 284.491636 
Q 197.962553 251.972076 233.55023 219.452516 
" style="fill:none;stroke:#000000;stroke-linecap:round;stroke-opacity:0.9;stroke-width:0.4;"/>
   </g>
   <g id="patch_20">
    <path clip-path="url(#pb14cc02c05)" d="M 236.16 217.067741 
Q 271.520251 196.681303 306.880501 176.294864 
" style="fill:none;stroke:#000000;stroke-linecap:round;stroke-opacity:0.9;stroke-width:0.4;"/>
   </g>
   <g id="patch_21">
    <path clip-path="url(#pb14cc02c05)" d="M 236.16 217.067741 
Q 308.200023 229.215549 380.240046 241.363357 
" style="fill:none;stroke:#000000;stroke-linecap:round;stroke-opacity:0.9;stroke-width:0.4;"/>
   </g>
   <g id="patch_22">
    <path clip-path="url(#pb14cc02c05)" d="M 236.16 131.988259 
Q 308.245058 152.768055 380.330116 173.547852 
" style="fill:none;stroke:#000000;stroke-linecap:round;stroke-opacity:0.9;stroke-width:0.4;"/>
   </g>
   <g id="patch_23">
    <path clip-path="url(#pb14cc02c05)" d="M 309.945124 174.528 
Q 345.532801 207.04756 381.120477 239.56712 
" style="fill:none;stroke:#000000;stroke-linecap:round;stroke-opacity:0.9;stroke-width:0.4;"/>
   </g>
   <g id="PathCollection_1">
    <defs>
     <path d="M 0 3.535534 
C 0.937635 3.535534 1.836992 3.163008 2.5 2.5 
C 3.163008 1.836992 3.535534 0.937635 3.535534 0 
C 3.535534 -0.937635 3.163008 -1.836992 2.5 -2.5 
C 1.836992 -3.163008 0.937635 -3.535534 0 -3.535534 
C -0.937635 -3.535534 -1.836992 -3.163008 -2.5 -2.5 
C -3.163008 -1.836992 -3.535534 -0.937635 -3.535534 0 
C -3.535534 0.937635 -3.163008 1.836992 -2.5 2.5 
C -1.836992 3.163008 -0.937635 3.535534 0 3.535534 
z
" id="C0_0_e20f12ceee"/>
    </defs>
    <g clip-path="url(#pb14cc02c05)">
     <use style="fill:#fdb462;fill-opacity:0.9;" x="88.589752" xlink:href="#C0_0_e20f12ceee" y="75.753779"/>
    </g>
    <g clip-path="url(#pb14cc02c05)">
     <use style="fill:#fdb462;fill-opacity:0.9;" x="88.589752" xlink:href="#C0_0_e20f12ceee" y="125.14089"/>
    </g>
    <g clip-path="url(#pb14cc02c05)">
     <use style="fill:#fdb462;fill-opacity:0.9;" x="88.589752" xlink:href="#C0_0_e20f12ceee" y="174.528"/>
    </g>
    <g clip-path="url(#pb14cc02c05)">
     <use style="fill:#fdb462;fill-opacity:0.9;" x="88.589752" xlink:href="#C0_0_e20f12ceee" y="223.91511"/>
    </g>
    <g clip-path="url(#pb14cc02c05)">
     <use style="fill:#ffed6f;fill-opacity:0.9;" x="88.589752" xlink:href="#C0_0_e20f12ceee" y="273.302221"/>
    </g>
    <g clip-path="url(#pb14cc02c05)">
     <use style="fill:#80b1d3;fill-opacity:0.9;" x="162.374876" xlink:href="#C0_0_e20f12ceee" y="108.549818"/>
    </g>
    <g clip-path="url(#pb14cc02c05)">
     <use style="fill:#80b1d3;fill-opacity:0.9;" x="162.374876" xlink:href="#C0_0_e20f12ceee" y="64.564364"/>
    </g>
    <g clip-path="url(#pb14cc02c05)">
     <use style="fill:#80b1d3;fill-opacity:0.9;" x="162.374876" xlink:href="#C0_0_e20f12ceee" y="152.535273"/>
    </g>
    <g clip-path="url(#pb14cc02c05)">
     <use style="fill:#80b1d3;fill-opacity:0.9;" x="162.374876" xlink:href="#C0_0_e20f12ceee" y="240.506182"/>
    </g>
    <g clip-path="url(#pb14cc02c05)">
     <use style="fill:#80b1d3;fill-opacity:0.9;" x="162.374876" xlink:href="#C0_0_e20f12ceee" y="196.520727"/>
    </g>
    <g clip-path="url(#pb14cc02c05)">
     <use style="fill:#80b1d3;fill-opacity:0.9;" x="162.374876" xlink:href="#C0_0_e20f12ceee" y="284.491636"/>
    </g>
    <g clip-path="url(#pb14cc02c05)">
     <use style="fill:#80b1d3;fill-opacity:0.9;" x="236.16" xlink:href="#C0_0_e20f12ceee" y="217.067741"/>
    </g>
    <g clip-path="url(#pb14cc02c05)">
     <use style="fill:#80b1d3;fill-opacity:0.9;" x="236.16" xlink:href="#C0_0_e20f12ceee" y="131.988259"/>
    </g>
    <g clip-path="url(#pb14cc02c05)">
     <use style="fill:#80b1d3;fill-opacity:0.9;" x="309.945124" xlink:href="#C0_0_e20f12ceee" y="174.528"/>
    </g>
    <g clip-path="url(#pb14cc02c05)">
     <use style="fill:#b3de69;fill-opacity:0.9;" x="383.730248" xlink:href="#C0_0_e20f12ceee" y="107.104105"/>
    </g>
    <g clip-path="url(#pb14cc02c05)">
     <use style="fill:#b3de69;fill-opacity:0.9;" x="383.730248" xlink:href="#C0_0_e20f12ceee" y="174.528"/>
    </g>
    <g clip-path="url(#pb14cc02c05)">
     <use style="fill:#b3de69;fill-opacity:0.9;" x="383.730248" xlink:href="#C0_0_e20f12ceee" y="241.951895"/>
    </g>
   </g>
  </g>
 </g>
 <defs>
  <clipPath id="pb14cc02c05">
   <rect height="266.112" width="357.12" x="57.6" y="41.472"/>
  </clipPath>
 </defs>
</svg>
