<?xml version="1.0" encoding="utf-8" standalone="no"?>
<!DOCTYPE svg PUBLIC "-//W3C//DTD SVG 1.1//EN"
  "http://www.w3.org/Graphics/SVG/1.1/DTD/svg11.dtd">
<!-- Created with matplotlib (https://matplotlib.org/) -->
<svg height="345.6pt" version="1.1" viewBox="0 0 460.8 345.6" width="460.8pt" xmlns="http://www.w3.org/2000/svg" xmlns:xlink="http://www.w3.org/1999/xlink">
 <defs>
  <style type="text/css">
*{stroke-linecap:butt;stroke-linejoin:round;}
  </style>
 </defs>
 <g id="figure_1">
  <g id="patch_1">
   <path d="M 0 345.6 
L 460.8 345.6 
L 460.8 0 
L 0 0 
z
" style="fill:#ffffff;"/>
  </g>
  <g id="axes_1">
   <g id="patch_2">
    <path d="M 57.6 307.584 
L 414.72 307.584 
L 414.72 41.472 
L 57.6 41.472 
z
" style="fill:#ffffff;"/>
   </g>
   <g id="PolyCollection_1">
    <path clip-path="url(#p29428ad314)" d="M 73.832727 195.269868 
L 73.832727 195.269868 
L 75.464157 195.269868 
L 77.095587 195.269868 
L 78.727017 195.269868 
L 80.358447 195.269868 
L 81.989877 195.269868 
L 83.621307 195.269868 
L 85.252736 195.269868 
L 86.884166 195.269868 
L 88.515596 195.269868 
L 90.147026 195.269868 
L 91.778456 195.269868 
L 93.409886 195.269868 
L 95.041316 195.269868 
L 96.672746 195.269868 
L 98.304175 195.269868 
L 99.935605 195.269868 
L 101.567035 195.269868 
L 103.198465 195.269868 
L 104.829895 195.269868 
L 106.461325 195.269868 
L 108.092755 195.269868 
L 109.724185 195.269868 
L 111.355614 195.269868 
L 112.987044 195.269868 
L 114.618474 195.269868 
L 116.249904 195.269868 
L 117.881334 195.269868 
L 119.512764 195.269868 
L 121.144194 195.269868 
L 122.775624 195.269868 
L 124.407053 195.269868 
L 126.038483 195.269868 
L 127.669913 195.269868 
L 129.301343 195.269868 
L 130.932773 195.269868 
L 132.564203 195.269868 
L 134.195633 195.269868 
L 135.827063 195.269868 
L 137.458492 195.269868 
L 139.089922 195.269868 
L 140.721352 195.269868 
L 142.352782 195.269868 
L 143.984212 195.269868 
L 145.615642 195.269868 
L 147.247072 195.269868 
L 148.878502 195.269868 
L 150.509931 195.269868 
L 152.141361 195.269868 
L 153.772791 195.269868 
L 155.404221 195.269868 
L 157.035651 195.269868 
L 158.667081 195.269868 
L 160.298511 195.269868 
L 161.929941 195.269868 
L 163.56137 195.269868 
L 165.1928 195.269868 
L 166.82423 195.269868 
L 168.45566 195.269868 
L 170.08709 195.269868 
L 171.71852 195.269868 
L 173.34995 195.269868 
L 174.98138 195.269868 
L 176.61281 195.269868 
L 178.244239 195.269868 
L 179.875669 195.269868 
L 181.507099 195.269868 
L 183.138529 195.269868 
L 184.769959 195.269868 
L 186.401389 195.269868 
L 188.032819 195.269868 
L 189.664249 195.269868 
L 191.295678 195.269868 
L 192.927108 195.269868 
L 194.558538 195.269868 
L 196.189968 195.269868 
L 197.821398 195.269868 
L 199.452828 195.269868 
L 201.084258 195.269868 
L 202.715688 195.269868 
L 204.347117 195.269868 
L 205.978547 195.269868 
L 207.609977 195.269868 
L 209.241407 195.269868 
L 210.872837 195.269868 
L 212.504267 195.269868 
L 214.135697 195.269868 
L 215.767127 195.269868 
L 217.398556 195.269868 
L 219.029986 195.269868 
L 220.661416 195.269868 
L 222.292846 195.269868 
L 223.924276 195.269868 
L 225.555706 195.269868 
L 227.187136 195.269868 
L 228.818566 195.269868 
L 230.449995 195.269868 
L 232.081425 195.269868 
L 233.712855 195.269868 
L 235.344285 195.269868 
L 236.975715 195.269868 
L 238.607145 195.269868 
L 240.238575 195.269868 
L 241.870005 195.269868 
L 243.501434 195.269868 
L 245.132864 195.269868 
L 246.764294 195.269868 
L 248.395724 195.269868 
L 250.027154 195.269868 
L 251.658584 195.269868 
L 253.290014 181.613093 
L 254.921444 146.933942 
L 256.552873 170.83143 
L 258.184303 165.183891 
L 259.815733 155.839783 
L 261.447163 179.354078 
L 263.078593 161.590003 
L 264.710023 133.044265 
L 266.341453 157.893433 
L 267.972883 171.550207 
L 269.604312 136.53547 
L 271.235742 159.330988 
L 272.867172 159.536353 
L 274.498602 157.174655 
L 276.130032 171.960937 
L 277.761462 168.983144 
L 279.392892 164.465114 
L 281.024322 159.947083 
L 282.655751 161.590003 
L 284.287181 151.116387 
L 285.918611 172.679715 
L 287.550041 140.745453 
L 289.181471 162.206098 
L 290.812901 177.197745 
L 292.444331 144.339341 
L 294.075761 142.183008 
L 295.70719 148.446642 
L 297.33862 124.624299 
L 298.97005 146.803722 
L 300.60148 168.161684 
L 302.23291 156.661243 
L 303.86434 155.429053 
L 305.49577 148.857372 
L 307.1272 139.948441 
L 308.75863 142.080326 
L 310.390059 139.923993 
L 312.021489 178.635301 
L 313.652919 174.836048 
L 315.284349 145.058119 
L 316.915779 154.196862 
L 318.547209 161.487321 
L 320.178639 138.691803 
L 321.810069 180.894316 
L 323.441498 118.463348 
L 325.072928 118.668713 
L 326.704358 133.352312 
L 328.335788 136.638153 
L 329.967218 154.196862 
L 331.598648 144.133976 
L 333.230078 129.245012 
L 334.861508 144.647389 
L 336.492937 140.642771 
L 338.124367 154.91564 
L 339.755797 128.834282 
L 341.387227 181.305046 
L 343.018657 129.53839 
L 344.650087 141.053501 
L 346.281517 120.516998 
L 347.912947 127.191362 
L 349.544376 135.30328 
L 351.175806 165.389256 
L 352.807236 151.321752 
L 354.438666 152.143212 
L 356.070096 149.165419 
L 357.701526 119.226318 
L 359.332956 132.8389 
L 360.964386 144.750071 
L 362.595815 147.727864 
L 364.227245 157.071973 
L 365.858675 157.688068 
L 367.490105 163.438289 
L 369.121535 146.392992 
L 370.752965 153.991497 
L 372.384395 141.464231 
L 374.015825 154.196862 
L 375.647254 155.223688 
L 377.278684 136.53547 
L 378.910114 160.768543 
L 380.541544 161.281956 
L 382.172974 151.424435 
L 383.804404 174.93873 
L 385.435834 161.590003 
L 387.067264 163.232924 
L 388.698693 131.078628 
L 390.330123 153.580767 
L 391.961553 166.518764 
L 393.592983 152.656625 
L 395.224413 140.642771 
L 396.855843 137.35693 
L 398.487273 158.20148 
L 398.487273 97.259409 
L 398.487273 97.259409 
L 396.855843 98.493653 
L 395.224413 105.422669 
L 393.592983 104.931579 
L 391.961553 102.444876 
L 390.330123 93.819545 
L 388.698693 102.958289 
L 387.067264 128.320869 
L 385.435834 96.386608 
L 383.804404 97.926846 
L 382.172974 94.641005 
L 380.541544 113.632992 
L 378.910114 123.175582 
L 377.278684 97.413433 
L 375.647254 97.824163 
L 374.015825 106.552177 
L 372.384395 111.788985 
L 370.752965 97.594918 
L 369.121535 101.623416 
L 367.490105 116.409698 
L 365.858675 127.088679 
L 364.227245 96.386608 
L 362.595815 111.891667 
L 360.964386 95.381984 
L 359.332956 94.43564 
L 357.701526 93.408815 
L 356.070096 105.011939 
L 354.438666 95.593152 
L 352.807236 113.534587 
L 351.175806 115.793603 
L 349.544376 99.569766 
L 347.912947 108.605827 
L 346.281517 83.564496 
L 344.650087 83.140564 
L 343.018657 96.283925 
L 341.387227 99.415006 
L 339.755797 111.480937 
L 338.124367 98.337576 
L 336.492937 107.989732 
L 334.861508 107.373637 
L 333.230078 97.516115 
L 331.598648 103.574384 
L 329.967218 90.122975 
L 328.335788 92.998085 
L 326.704358 92.587355 
L 325.072928 88.803504 
L 323.441498 94.84637 
L 321.810069 94.538323 
L 320.178639 111.378255 
L 318.547209 108.195097 
L 316.915779 110.248747 
L 315.284349 88.890784 
L 313.652919 97.516115 
L 312.021489 155.429053 
L 310.390059 83.857941 
L 308.75863 113.945317 
L 307.1272 101.212686 
L 305.49577 95.051735 
L 303.86434 118.360666 
L 302.23291 117.676115 
L 300.60148 123.793504 
L 298.97005 127.211898 
L 297.33862 109.427287 
L 295.70719 114.766778 
L 294.075761 113.842635 
L 292.444331 115.998968 
L 290.812901 113.945317 
L 289.181471 134.48182 
L 287.550041 102.389134 
L 285.918611 107.373637 
L 284.287181 109.805159 
L 282.655751 115.149077 
L 281.024322 114.766778 
L 279.392892 114.356048 
L 277.761462 134.48182 
L 276.130032 104.297829 
L 274.498602 113.123857 
L 272.867172 113.945317 
L 271.235742 137.35693 
L 269.604312 105.319986 
L 267.972883 127.910139 
L 266.341453 118.052618 
L 264.710023 113.534587 
L 263.078593 119.866676 
L 261.447163 100.391226 
L 259.815733 116.409698 
L 258.184303 128.809834 
L 256.552873 119.284808 
L 254.921444 119.284808 
L 253.290014 154.607593 
L 251.658584 138.075708 
L 250.027154 114.664095 
L 248.395724 134.978363 
L 246.764294 179.271932 
L 245.132864 195.269868 
L 243.501434 195.269868 
L 241.870005 195.269868 
L 240.238575 195.269868 
L 238.607145 195.269868 
L 236.975715 195.269868 
L 235.344285 195.269868 
L 233.712855 195.269868 
L 232.081425 195.269868 
L 230.449995 195.269868 
L 228.818566 195.269868 
L 227.187136 195.269868 
L 225.555706 195.269868 
L 223.924276 195.269868 
L 222.292846 195.269868 
L 220.661416 195.269868 
L 219.029986 195.269868 
L 217.398556 195.269868 
L 215.767127 195.269868 
L 214.135697 195.269868 
L 212.504267 195.269868 
L 210.872837 195.269868 
L 209.241407 195.269868 
L 207.609977 195.269868 
L 205.978547 195.269868 
L 204.347117 195.269868 
L 202.715688 195.269868 
L 201.084258 195.269868 
L 199.452828 195.269868 
L 197.821398 195.269868 
L 196.189968 195.269868 
L 194.558538 195.269868 
L 192.927108 195.269868 
L 191.295678 195.269868 
L 189.664249 195.269868 
L 188.032819 195.269868 
L 186.401389 195.269868 
L 184.769959 195.269868 
L 183.138529 195.269868 
L 181.507099 195.269868 
L 179.875669 195.269868 
L 178.244239 195.269868 
L 176.61281 195.269868 
L 174.98138 195.269868 
L 173.34995 195.269868 
L 171.71852 195.269868 
L 170.08709 195.269868 
L 168.45566 195.269868 
L 166.82423 195.269868 
L 165.1928 195.269868 
L 163.56137 195.269868 
L 161.929941 195.269868 
L 160.298511 195.269868 
L 158.667081 195.269868 
L 157.035651 195.269868 
L 155.404221 195.269868 
L 153.772791 195.269868 
L 152.141361 195.269868 
L 150.509931 195.269868 
L 148.878502 195.269868 
L 147.247072 195.269868 
L 145.615642 195.269868 
L 143.984212 195.269868 
L 142.352782 195.269868 
L 140.721352 195.269868 
L 139.089922 195.269868 
L 137.458492 195.269868 
L 135.827063 195.269868 
L 134.195633 195.269868 
L 132.564203 195.269868 
L 130.932773 195.269868 
L 129.301343 195.269868 
L 127.669913 195.269868 
L 126.038483 195.269868 
L 124.407053 195.269868 
L 122.775624 195.269868 
L 121.144194 195.269868 
L 119.512764 195.269868 
L 117.881334 195.269868 
L 116.249904 195.269868 
L 114.618474 195.269868 
L 112.987044 195.269868 
L 111.355614 195.269868 
L 109.724185 195.269868 
L 108.092755 195.269868 
L 106.461325 195.269868 
L 104.829895 195.269868 
L 103.198465 195.269868 
L 101.567035 195.269868 
L 99.935605 195.269868 
L 98.304175 195.269868 
L 96.672746 195.269868 
L 95.041316 195.269868 
L 93.409886 195.269868 
L 91.778456 195.269868 
L 90.147026 195.269868 
L 88.515596 195.269868 
L 86.884166 195.269868 
L 85.252736 195.269868 
L 83.621307 195.269868 
L 81.989877 195.269868 
L 80.358447 195.269868 
L 78.727017 195.269868 
L 77.095587 195.269868 
L 75.464157 195.269868 
L 73.832727 195.269868 
z
" style="fill:#1f77b4;fill-opacity:0.2;"/>
   </g>
   <g id="PolyCollection_2">
    <path clip-path="url(#p29428ad314)" d="M 73.832727 195.269868 
L 73.832727 195.269868 
L 75.464157 195.269868 
L 77.095587 195.269868 
L 78.727017 195.269868 
L 80.358447 195.269868 
L 81.989877 195.269868 
L 83.621307 195.269868 
L 85.252736 195.269868 
L 86.884166 195.269868 
L 88.515596 195.269868 
L 90.147026 195.269868 
L 91.778456 195.269868 
L 93.409886 195.269868 
L 95.041316 195.269868 
L 96.672746 195.269868 
L 98.304175 195.269868 
L 99.935605 195.269868 
L 101.567035 195.269868 
L 103.198465 195.269868 
L 104.829895 195.269868 
L 106.461325 195.269868 
L 108.092755 195.269868 
L 109.724185 195.269868 
L 111.355614 195.269868 
L 112.987044 195.269868 
L 114.618474 195.269868 
L 116.249904 195.269868 
L 117.881334 195.269868 
L 119.512764 195.269868 
L 121.144194 195.269868 
L 122.775624 195.269868 
L 124.407053 195.269868 
L 126.038483 195.269868 
L 127.669913 195.269868 
L 129.301343 195.269868 
L 130.932773 195.269868 
L 132.564203 195.269868 
L 134.195633 195.269868 
L 135.827063 195.269868 
L 137.458492 195.269868 
L 139.089922 195.269868 
L 140.721352 195.269868 
L 142.352782 195.269868 
L 143.984212 195.269868 
L 145.615642 195.269868 
L 147.247072 195.269868 
L 148.878502 195.269868 
L 150.509931 195.269868 
L 152.141361 195.269868 
L 153.772791 195.269868 
L 155.404221 195.269868 
L 157.035651 195.269868 
L 158.667081 195.269868 
L 160.298511 195.269868 
L 161.929941 195.269868 
L 163.56137 195.269868 
L 165.1928 195.269868 
L 166.82423 195.269868 
L 168.45566 195.269868 
L 170.08709 195.269868 
L 171.71852 195.269868 
L 173.34995 195.269868 
L 174.98138 195.269868 
L 176.61281 195.269868 
L 178.244239 195.269868 
L 179.875669 195.269868 
L 181.507099 195.269868 
L 183.138529 195.269868 
L 184.769959 195.269868 
L 186.401389 195.269868 
L 188.032819 195.269868 
L 189.664249 195.269868 
L 191.295678 195.269868 
L 192.927108 195.269868 
L 194.558538 195.269868 
L 196.189968 195.269868 
L 197.821398 195.269868 
L 199.452828 195.269868 
L 201.084258 195.269868 
L 202.715688 195.269868 
L 204.347117 195.269868 
L 205.978547 195.269868 
L 207.609977 195.269868 
L 209.241407 195.269868 
L 210.872837 195.269868 
L 212.504267 195.269868 
L 214.135697 195.269868 
L 215.767127 195.269868 
L 217.398556 195.269868 
L 219.029986 195.269868 
L 220.661416 195.269868 
L 222.292846 195.269868 
L 223.924276 195.269868 
L 225.555706 195.269868 
L 227.187136 195.269868 
L 228.818566 195.269868 
L 230.449995 195.269868 
L 232.081425 195.269868 
L 233.712855 195.269868 
L 235.344285 195.680598 
L 236.975715 209.645419 
L 238.607145 195.269868 
L 240.238575 204.716659 
L 241.870005 203.217494 
L 243.501434 216.2171 
L 245.132864 203.260434 
L 246.764294 269.612007 
L 248.395724 295.07727 
L 250.027154 288.916319 
L 251.658584 277.415878 
L 253.290014 274.540767 
L 254.921444 295.488 
L 256.552873 195.269868 
L 258.184303 213.34199 
L 259.815733 234.699952 
L 261.447163 198.144978 
L 263.078593 204.305929 
L 264.710023 208.413229 
L 266.341453 230.181922 
L 267.972883 206.770309 
L 269.604312 195.269868 
L 271.235742 197.323518 
L 272.867172 213.34199 
L 274.498602 228.128272 
L 276.130032 221.967321 
L 277.761462 195.269868 
L 279.392892 250.307694 
L 281.024322 195.269868 
L 282.655751 216.2171 
L 284.287181 221.967321 
L 285.918611 195.269868 
L 287.550041 213.34199 
L 289.181471 213.34199 
L 290.812901 214.57418 
L 292.444331 205.538119 
L 294.075761 221.556591 
L 295.70719 199.377168 
L 297.33862 206.770309 
L 298.97005 195.269868 
L 300.60148 203.484469 
L 302.23291 201.430818 
L 303.86434 195.269868 
L 305.49577 195.269868 
L 307.1272 195.269868 
L 308.75863 195.269868 
L 310.390059 199.377168 
L 312.021489 212.93126 
L 313.652919 276.594418 
L 315.284349 195.269868 
L 316.915779 195.269868 
L 318.547209 203.895199 
L 320.178639 219.502941 
L 321.810069 195.269868 
L 323.441498 195.269868 
L 325.072928 195.269868 
L 326.704358 195.269868 
L 328.335788 195.269868 
L 329.967218 207.591769 
L 331.598648 209.234689 
L 333.230078 201.430818 
L 334.861508 195.269868 
L 336.492937 209.234689 
L 338.124367 195.269868 
L 339.755797 209.645419 
L 341.387227 195.269868 
L 343.018657 195.269868 
L 344.650087 195.269868 
L 346.281517 195.269868 
L 347.912947 212.93126 
L 349.544376 195.269868 
L 351.175806 201.430818 
L 352.807236 195.269868 
L 354.438666 225.253161 
L 356.070096 195.269868 
L 357.701526 229.771192 
L 359.332956 195.269868 
L 360.964386 208.823959 
L 362.595815 213.34199 
L 364.227245 195.269868 
L 365.858675 195.269868 
L 367.490105 207.591769 
L 369.121535 247.021854 
L 370.752965 199.377168 
L 372.384395 207.591769 
L 374.015825 195.269868 
L 375.647254 213.34199 
L 377.278684 195.269868 
L 378.910114 229.360462 
L 380.541544 244.557474 
L 382.172974 199.377168 
L 383.804404 195.269868 
L 385.435834 196.091328 
L 387.067264 195.269868 
L 388.698693 201.430818 
L 390.330123 201.430818 
L 391.961553 203.484469 
L 393.592983 216.2171 
L 395.224413 195.269868 
L 396.855843 195.269868 
L 398.487273 195.269868 
L 398.487273 53.568 
L 398.487273 53.568 
L 396.855843 80.265453 
L 395.224413 82.617816 
L 393.592983 81.908374 
L 391.961553 82.524469 
L 390.330123 71.640122 
L 388.698693 70.818662 
L 387.067264 84.006831 
L 385.435834 65.068441 
L 383.804404 74.104503 
L 382.172974 74.515233 
L 380.541544 82.729834 
L 378.910114 84.13453 
L 377.278684 79.033263 
L 375.647254 78.211803 
L 374.015825 65.068441 
L 372.384395 84.703124 
L 370.752965 75.336693 
L 369.121535 82.729834 
L 367.490105 84.516032 
L 365.858675 84.480326 
L 364.227245 84.002095 
L 362.595815 83.756659 
L 360.964386 78.622533 
L 359.332956 65.889902 
L 357.701526 81.908374 
L 356.070096 77.390343 
L 354.438666 63.425521 
L 352.807236 66.711362 
L 351.175806 84.335415 
L 349.544376 81.908374 
L 347.912947 83.975273 
L 346.281517 79.033263 
L 344.650087 82.711164 
L 343.018657 75.747423 
L 341.387227 71.229392 
L 339.755797 79.033263 
L 338.124367 76.158153 
L 336.492937 84.543891 
L 334.861508 72.050852 
L 333.230078 73.283042 
L 331.598648 71.640122 
L 329.967218 85.112068 
L 328.335788 80.265453 
L 326.704358 72.461582 
L 325.072928 61.371871 
L 323.441498 75.336693 
L 321.810069 85.827423 
L 320.178639 72.050852 
L 318.547209 69.586472 
L 316.915779 86.328611 
L 315.284349 85.132604 
L 313.652919 70.407932 
L 312.021489 82.319104 
L 310.390059 65.068441 
L 308.75863 84.314078 
L 307.1272 80.265453 
L 305.49577 62.604061 
L 303.86434 67.943552 
L 302.23291 75.747423 
L 300.60148 87.168878 
L 298.97005 87.116431 
L 297.33862 81.497643 
L 295.70719 61.782601 
L 294.075761 67.122092 
L 292.444331 83.140564 
L 290.812901 81.126031 
L 289.181471 81.04584 
L 287.550041 93.408815 
L 285.918611 92.176625 
L 284.287181 94.641005 
L 282.655751 100.103715 
L 281.024322 101.087681 
L 279.392892 101.007321 
L 277.761462 100.665046 
L 276.130032 79.854723 
L 274.498602 93.819545 
L 272.867172 104.166783 
L 271.235742 103.627779 
L 269.604312 94.641005 
L 267.972883 102.784175 
L 266.341453 101.380712 
L 264.710023 96.283925 
L 263.078593 100.30908 
L 261.447163 92.998085 
L 259.815733 99.980496 
L 258.184303 116.353689 
L 256.552873 109.016557 
L 254.921444 77.390343 
L 253.290014 118.874078 
L 251.658584 112.302397 
L 250.027154 99.569766 
L 248.395724 96.694655 
L 246.764294 121.240666 
L 245.132864 93.819545 
L 243.501434 195.269868 
L 241.870005 195.269868 
L 240.238575 174.733365 
L 238.607145 195.269868 
L 236.975715 195.269868 
L 235.344285 180.072856 
L 233.712855 195.269868 
L 232.081425 195.269868 
L 230.449995 195.269868 
L 228.818566 195.269868 
L 227.187136 195.269868 
L 225.555706 195.269868 
L 223.924276 195.269868 
L 222.292846 195.269868 
L 220.661416 195.269868 
L 219.029986 195.269868 
L 217.398556 195.269868 
L 215.767127 195.269868 
L 214.135697 195.269868 
L 212.504267 195.269868 
L 210.872837 195.269868 
L 209.241407 195.269868 
L 207.609977 195.269868 
L 205.978547 195.269868 
L 204.347117 195.269868 
L 202.715688 195.269868 
L 201.084258 195.269868 
L 199.452828 195.269868 
L 197.821398 195.269868 
L 196.189968 195.269868 
L 194.558538 195.269868 
L 192.927108 195.269868 
L 191.295678 195.269868 
L 189.664249 195.269868 
L 188.032819 195.269868 
L 186.401389 195.269868 
L 184.769959 195.269868 
L 183.138529 195.269868 
L 181.507099 195.269868 
L 179.875669 195.269868 
L 178.244239 195.269868 
L 176.61281 195.269868 
L 174.98138 195.269868 
L 173.34995 195.269868 
L 171.71852 195.269868 
L 170.08709 195.269868 
L 168.45566 195.269868 
L 166.82423 195.269868 
L 165.1928 195.269868 
L 163.56137 195.269868 
L 161.929941 195.269868 
L 160.298511 195.269868 
L 158.667081 195.269868 
L 157.035651 195.269868 
L 155.404221 195.269868 
L 153.772791 195.269868 
L 152.141361 195.269868 
L 150.509931 195.269868 
L 148.878502 195.269868 
L 147.247072 195.269868 
L 145.615642 195.269868 
L 143.984212 195.269868 
L 142.352782 195.269868 
L 140.721352 195.269868 
L 139.089922 195.269868 
L 137.458492 195.269868 
L 135.827063 195.269868 
L 134.195633 195.269868 
L 132.564203 195.269868 
L 130.932773 195.269868 
L 129.301343 195.269868 
L 127.669913 195.269868 
L 126.038483 195.269868 
L 124.407053 195.269868 
L 122.775624 195.269868 
L 121.144194 195.269868 
L 119.512764 195.269868 
L 117.881334 195.269868 
L 116.249904 195.269868 
L 114.618474 195.269868 
L 112.987044 195.269868 
L 111.355614 195.269868 
L 109.724185 195.269868 
L 108.092755 195.269868 
L 106.461325 195.269868 
L 104.829895 195.269868 
L 103.198465 195.269868 
L 101.567035 195.269868 
L 99.935605 195.269868 
L 98.304175 195.269868 
L 96.672746 195.269868 
L 95.041316 195.269868 
L 93.409886 195.269868 
L 91.778456 195.269868 
L 90.147026 195.269868 
L 88.515596 195.269868 
L 86.884166 195.269868 
L 85.252736 195.269868 
L 83.621307 195.269868 
L 81.989877 195.269868 
L 80.358447 195.269868 
L 78.727017 195.269868 
L 77.095587 195.269868 
L 75.464157 195.269868 
L 73.832727 195.269868 
z
" style="fill:#1f77b4;fill-opacity:0.1;"/>
   </g>
   <g id="matplotlib.axis_1">
    <g id="xtick_1">
     <g id="line2d_1">
      <defs>
       <path d="M 0 0 
L 0 3.5 
" id="mf4da36abbb" style="stroke:#000000;stroke-width:0.8;"/>
      </defs>
      <g>
       <use style="stroke:#000000;stroke-width:0.8;" x="73.832727" xlink:href="#mf4da36abbb" y="307.584"/>
      </g>
     </g>
     <g id="text_1">
      <!-- 0 -->
      <defs>
       <path d="M 31.78125 66.40625 
Q 24.171875 66.40625 20.328125 58.90625 
Q 16.5 51.421875 16.5 36.375 
Q 16.5 21.390625 20.328125 13.890625 
Q 24.171875 6.390625 31.78125 6.390625 
Q 39.453125 6.390625 43.28125 13.890625 
Q 47.125 21.390625 47.125 36.375 
Q 47.125 51.421875 43.28125 58.90625 
Q 39.453125 66.40625 31.78125 66.40625 
z
M 31.78125 74.21875 
Q 44.046875 74.21875 50.515625 64.515625 
Q 56.984375 54.828125 56.984375 36.375 
Q 56.984375 17.96875 50.515625 8.265625 
Q 44.046875 -1.421875 31.78125 -1.421875 
Q 19.53125 -1.421875 13.0625 8.265625 
Q 6.59375 17.96875 6.59375 36.375 
Q 6.59375 54.828125 13.0625 64.515625 
Q 19.53125 74.21875 31.78125 74.21875 
z
" id="DejaVuSans-48"/>
      </defs>
      <g transform="translate(70.651477 322.182437)scale(0.1 -0.1)">
       <use xlink:href="#DejaVuSans-48"/>
      </g>
     </g>
    </g>
    <g id="xtick_2">
     <g id="line2d_2">
      <g>
       <use style="stroke:#000000;stroke-width:0.8;" x="114.618474" xlink:href="#mf4da36abbb" y="307.584"/>
      </g>
     </g>
     <g id="text_2">
      <!-- 25 -->
      <defs>
       <path d="M 19.1875 8.296875 
L 53.609375 8.296875 
L 53.609375 0 
L 7.328125 0 
L 7.328125 8.296875 
Q 12.9375 14.109375 22.625 23.890625 
Q 32.328125 33.6875 34.8125 36.53125 
Q 39.546875 41.84375 41.421875 45.53125 
Q 43.3125 49.21875 43.3125 52.78125 
Q 43.3125 58.59375 39.234375 62.25 
Q 35.15625 65.921875 28.609375 65.921875 
Q 23.96875 65.921875 18.8125 64.3125 
Q 13.671875 62.703125 7.8125 59.421875 
L 7.8125 69.390625 
Q 13.765625 71.78125 18.9375 73 
Q 24.125 74.21875 28.421875 74.21875 
Q 39.75 74.21875 46.484375 68.546875 
Q 53.21875 62.890625 53.21875 53.421875 
Q 53.21875 48.921875 51.53125 44.890625 
Q 49.859375 40.875 45.40625 35.40625 
Q 44.1875 33.984375 37.640625 27.21875 
Q 31.109375 20.453125 19.1875 8.296875 
z
" id="DejaVuSans-50"/>
       <path d="M 10.796875 72.90625 
L 49.515625 72.90625 
L 49.515625 64.59375 
L 19.828125 64.59375 
L 19.828125 46.734375 
Q 21.96875 47.46875 24.109375 47.828125 
Q 26.265625 48.1875 28.421875 48.1875 
Q 40.625 48.1875 47.75 41.5 
Q 54.890625 34.8125 54.890625 23.390625 
Q 54.890625 11.625 47.5625 5.09375 
Q 40.234375 -1.421875 26.90625 -1.421875 
Q 22.3125 -1.421875 17.546875 -0.640625 
Q 12.796875 0.140625 7.71875 1.703125 
L 7.71875 11.625 
Q 12.109375 9.234375 16.796875 8.0625 
Q 21.484375 6.890625 26.703125 6.890625 
Q 35.15625 6.890625 40.078125 11.328125 
Q 45.015625 15.765625 45.015625 23.390625 
Q 45.015625 31 40.078125 35.4375 
Q 35.15625 39.890625 26.703125 39.890625 
Q 22.75 39.890625 18.8125 39.015625 
Q 14.890625 38.140625 10.796875 36.28125 
z
" id="DejaVuSans-53"/>
      </defs>
      <g transform="translate(108.255974 322.182437)scale(0.1 -0.1)">
       <use xlink:href="#DejaVuSans-50"/>
       <use x="63.623047" xlink:href="#DejaVuSans-53"/>
      </g>
     </g>
    </g>
    <g id="xtick_3">
     <g id="line2d_3">
      <g>
       <use style="stroke:#000000;stroke-width:0.8;" x="155.404221" xlink:href="#mf4da36abbb" y="307.584"/>
      </g>
     </g>
     <g id="text_3">
      <!-- 50 -->
      <g transform="translate(149.041721 322.182437)scale(0.1 -0.1)">
       <use xlink:href="#DejaVuSans-53"/>
       <use x="63.623047" xlink:href="#DejaVuSans-48"/>
      </g>
     </g>
    </g>
    <g id="xtick_4">
     <g id="line2d_4">
      <g>
       <use style="stroke:#000000;stroke-width:0.8;" x="196.189968" xlink:href="#mf4da36abbb" y="307.584"/>
      </g>
     </g>
     <g id="text_4">
      <!-- 75 -->
      <defs>
       <path d="M 8.203125 72.90625 
L 55.078125 72.90625 
L 55.078125 68.703125 
L 28.609375 0 
L 18.3125 0 
L 43.21875 64.59375 
L 8.203125 64.59375 
z
" id="DejaVuSans-55"/>
      </defs>
      <g transform="translate(189.827468 322.182437)scale(0.1 -0.1)">
       <use xlink:href="#DejaVuSans-55"/>
       <use x="63.623047" xlink:href="#DejaVuSans-53"/>
      </g>
     </g>
    </g>
    <g id="xtick_5">
     <g id="line2d_5">
      <g>
       <use style="stroke:#000000;stroke-width:0.8;" x="236.975715" xlink:href="#mf4da36abbb" y="307.584"/>
      </g>
     </g>
     <g id="text_5">
      <!-- 100 -->
      <defs>
       <path d="M 12.40625 8.296875 
L 28.515625 8.296875 
L 28.515625 63.921875 
L 10.984375 60.40625 
L 10.984375 69.390625 
L 28.421875 72.90625 
L 38.28125 72.90625 
L 38.28125 8.296875 
L 54.390625 8.296875 
L 54.390625 0 
L 12.40625 0 
z
" id="DejaVuSans-49"/>
      </defs>
      <g transform="translate(227.431965 322.182437)scale(0.1 -0.1)">
       <use xlink:href="#DejaVuSans-49"/>
       <use x="63.623047" xlink:href="#DejaVuSans-48"/>
       <use x="127.246094" xlink:href="#DejaVuSans-48"/>
      </g>
     </g>
    </g>
    <g id="xtick_6">
     <g id="line2d_6">
      <g>
       <use style="stroke:#000000;stroke-width:0.8;" x="277.761462" xlink:href="#mf4da36abbb" y="307.584"/>
      </g>
     </g>
     <g id="text_6">
      <!-- 125 -->
      <g transform="translate(268.217712 322.182437)scale(0.1 -0.1)">
       <use xlink:href="#DejaVuSans-49"/>
       <use x="63.623047" xlink:href="#DejaVuSans-50"/>
       <use x="127.246094" xlink:href="#DejaVuSans-53"/>
      </g>
     </g>
    </g>
    <g id="xtick_7">
     <g id="line2d_7">
      <g>
       <use style="stroke:#000000;stroke-width:0.8;" x="318.547209" xlink:href="#mf4da36abbb" y="307.584"/>
      </g>
     </g>
     <g id="text_7">
      <!-- 150 -->
      <g transform="translate(309.003459 322.182437)scale(0.1 -0.1)">
       <use xlink:href="#DejaVuSans-49"/>
       <use x="63.623047" xlink:href="#DejaVuSans-53"/>
       <use x="127.246094" xlink:href="#DejaVuSans-48"/>
      </g>
     </g>
    </g>
    <g id="xtick_8">
     <g id="line2d_8">
      <g>
       <use style="stroke:#000000;stroke-width:0.8;" x="359.332956" xlink:href="#mf4da36abbb" y="307.584"/>
      </g>
     </g>
     <g id="text_8">
      <!-- 175 -->
      <g transform="translate(349.789206 322.182437)scale(0.1 -0.1)">
       <use xlink:href="#DejaVuSans-49"/>
       <use x="63.623047" xlink:href="#DejaVuSans-55"/>
       <use x="127.246094" xlink:href="#DejaVuSans-53"/>
      </g>
     </g>
    </g>
    <g id="xtick_9">
     <g id="line2d_9">
      <g>
       <use style="stroke:#000000;stroke-width:0.8;" x="400.118703" xlink:href="#mf4da36abbb" y="307.584"/>
      </g>
     </g>
     <g id="text_9">
      <!-- 200 -->
      <g transform="translate(390.574953 322.182437)scale(0.1 -0.1)">
       <use xlink:href="#DejaVuSans-50"/>
       <use x="63.623047" xlink:href="#DejaVuSans-48"/>
       <use x="127.246094" xlink:href="#DejaVuSans-48"/>
      </g>
     </g>
    </g>
   </g>
   <g id="matplotlib.axis_2">
    <g id="ytick_1">
     <g id="line2d_10">
      <defs>
       <path d="M 0 0 
L -3.5 0 
" id="meff12c29cd" style="stroke:#000000;stroke-width:0.8;"/>
      </defs>
      <g>
       <use style="stroke:#000000;stroke-width:0.8;" x="57.6" xlink:href="#meff12c29cd" y="297.95238"/>
      </g>
     </g>
     <g id="text_10">
      <!-- 0.0 -->
      <defs>
       <path d="M 10.6875 12.40625 
L 21 12.40625 
L 21 0 
L 10.6875 0 
z
" id="DejaVuSans-46"/>
      </defs>
      <g transform="translate(34.696875 301.751599)scale(0.1 -0.1)">
       <use xlink:href="#DejaVuSans-48"/>
       <use x="63.623047" xlink:href="#DejaVuSans-46"/>
       <use x="95.410156" xlink:href="#DejaVuSans-48"/>
      </g>
     </g>
    </g>
    <g id="ytick_2">
     <g id="line2d_11">
      <g>
       <use style="stroke:#000000;stroke-width:0.8;" x="57.6" xlink:href="#meff12c29cd" y="267.147626"/>
      </g>
     </g>
     <g id="text_11">
      <!-- 0.1 -->
      <g transform="translate(34.696875 270.946845)scale(0.1 -0.1)">
       <use xlink:href="#DejaVuSans-48"/>
       <use x="63.623047" xlink:href="#DejaVuSans-46"/>
       <use x="95.410156" xlink:href="#DejaVuSans-49"/>
      </g>
     </g>
    </g>
    <g id="ytick_3">
     <g id="line2d_12">
      <g>
       <use style="stroke:#000000;stroke-width:0.8;" x="57.6" xlink:href="#meff12c29cd" y="236.342873"/>
      </g>
     </g>
     <g id="text_12">
      <!-- 0.2 -->
      <g transform="translate(34.696875 240.142091)scale(0.1 -0.1)">
       <use xlink:href="#DejaVuSans-48"/>
       <use x="63.623047" xlink:href="#DejaVuSans-46"/>
       <use x="95.410156" xlink:href="#DejaVuSans-50"/>
      </g>
     </g>
    </g>
    <g id="ytick_4">
     <g id="line2d_13">
      <g>
       <use style="stroke:#000000;stroke-width:0.8;" x="57.6" xlink:href="#meff12c29cd" y="205.538119"/>
      </g>
     </g>
     <g id="text_13">
      <!-- 0.3 -->
      <defs>
       <path d="M 40.578125 39.3125 
Q 47.65625 37.796875 51.625 33 
Q 55.609375 28.21875 55.609375 21.1875 
Q 55.609375 10.40625 48.1875 4.484375 
Q 40.765625 -1.421875 27.09375 -1.421875 
Q 22.515625 -1.421875 17.65625 -0.515625 
Q 12.796875 0.390625 7.625 2.203125 
L 7.625 11.71875 
Q 11.71875 9.328125 16.59375 8.109375 
Q 21.484375 6.890625 26.8125 6.890625 
Q 36.078125 6.890625 40.9375 10.546875 
Q 45.796875 14.203125 45.796875 21.1875 
Q 45.796875 27.640625 41.28125 31.265625 
Q 36.765625 34.90625 28.71875 34.90625 
L 20.21875 34.90625 
L 20.21875 43.015625 
L 29.109375 43.015625 
Q 36.375 43.015625 40.234375 45.921875 
Q 44.09375 48.828125 44.09375 54.296875 
Q 44.09375 59.90625 40.109375 62.90625 
Q 36.140625 65.921875 28.71875 65.921875 
Q 24.65625 65.921875 20.015625 65.03125 
Q 15.375 64.15625 9.8125 62.3125 
L 9.8125 71.09375 
Q 15.4375 72.65625 20.34375 73.4375 
Q 25.25 74.21875 29.59375 74.21875 
Q 40.828125 74.21875 47.359375 69.109375 
Q 53.90625 64.015625 53.90625 55.328125 
Q 53.90625 49.265625 50.4375 45.09375 
Q 46.96875 40.921875 40.578125 39.3125 
z
" id="DejaVuSans-51"/>
      </defs>
      <g transform="translate(34.696875 209.337338)scale(0.1 -0.1)">
       <use xlink:href="#DejaVuSans-48"/>
       <use x="63.623047" xlink:href="#DejaVuSans-46"/>
       <use x="95.410156" xlink:href="#DejaVuSans-51"/>
      </g>
     </g>
    </g>
    <g id="ytick_5">
     <g id="line2d_14">
      <g>
       <use style="stroke:#000000;stroke-width:0.8;" x="57.6" xlink:href="#meff12c29cd" y="174.733365"/>
      </g>
     </g>
     <g id="text_14">
      <!-- 0.4 -->
      <defs>
       <path d="M 37.796875 64.3125 
L 12.890625 25.390625 
L 37.796875 25.390625 
z
M 35.203125 72.90625 
L 47.609375 72.90625 
L 47.609375 25.390625 
L 58.015625 25.390625 
L 58.015625 17.1875 
L 47.609375 17.1875 
L 47.609375 0 
L 37.796875 0 
L 37.796875 17.1875 
L 4.890625 17.1875 
L 4.890625 26.703125 
z
" id="DejaVuSans-52"/>
      </defs>
      <g transform="translate(34.696875 178.532584)scale(0.1 -0.1)">
       <use xlink:href="#DejaVuSans-48"/>
       <use x="63.623047" xlink:href="#DejaVuSans-46"/>
       <use x="95.410156" xlink:href="#DejaVuSans-52"/>
      </g>
     </g>
    </g>
    <g id="ytick_6">
     <g id="line2d_15">
      <g>
       <use style="stroke:#000000;stroke-width:0.8;" x="57.6" xlink:href="#meff12c29cd" y="143.928611"/>
      </g>
     </g>
     <g id="text_15">
      <!-- 0.5 -->
      <g transform="translate(34.696875 147.72783)scale(0.1 -0.1)">
       <use xlink:href="#DejaVuSans-48"/>
       <use x="63.623047" xlink:href="#DejaVuSans-46"/>
       <use x="95.410156" xlink:href="#DejaVuSans-53"/>
      </g>
     </g>
    </g>
    <g id="ytick_7">
     <g id="line2d_16">
      <g>
       <use style="stroke:#000000;stroke-width:0.8;" x="57.6" xlink:href="#meff12c29cd" y="113.123857"/>
      </g>
     </g>
     <g id="text_16">
      <!-- 0.6 -->
      <defs>
       <path d="M 33.015625 40.375 
Q 26.375 40.375 22.484375 35.828125 
Q 18.609375 31.296875 18.609375 23.390625 
Q 18.609375 15.53125 22.484375 10.953125 
Q 26.375 6.390625 33.015625 6.390625 
Q 39.65625 6.390625 43.53125 10.953125 
Q 47.40625 15.53125 47.40625 23.390625 
Q 47.40625 31.296875 43.53125 35.828125 
Q 39.65625 40.375 33.015625 40.375 
z
M 52.59375 71.296875 
L 52.59375 62.3125 
Q 48.875 64.0625 45.09375 64.984375 
Q 41.3125 65.921875 37.59375 65.921875 
Q 27.828125 65.921875 22.671875 59.328125 
Q 17.53125 52.734375 16.796875 39.40625 
Q 19.671875 43.65625 24.015625 45.921875 
Q 28.375 48.1875 33.59375 48.1875 
Q 44.578125 48.1875 50.953125 41.515625 
Q 57.328125 34.859375 57.328125 23.390625 
Q 57.328125 12.15625 50.6875 5.359375 
Q 44.046875 -1.421875 33.015625 -1.421875 
Q 20.359375 -1.421875 13.671875 8.265625 
Q 6.984375 17.96875 6.984375 36.375 
Q 6.984375 53.65625 15.1875 63.9375 
Q 23.390625 74.21875 37.203125 74.21875 
Q 40.921875 74.21875 44.703125 73.484375 
Q 48.484375 72.75 52.59375 71.296875 
z
" id="DejaVuSans-54"/>
      </defs>
      <g transform="translate(34.696875 116.923076)scale(0.1 -0.1)">
       <use xlink:href="#DejaVuSans-48"/>
       <use x="63.623047" xlink:href="#DejaVuSans-46"/>
       <use x="95.410156" xlink:href="#DejaVuSans-54"/>
      </g>
     </g>
    </g>
    <g id="ytick_8">
     <g id="line2d_17">
      <g>
       <use style="stroke:#000000;stroke-width:0.8;" x="57.6" xlink:href="#meff12c29cd" y="82.319104"/>
      </g>
     </g>
     <g id="text_17">
      <!-- 0.7 -->
      <g transform="translate(34.696875 86.118322)scale(0.1 -0.1)">
       <use xlink:href="#DejaVuSans-48"/>
       <use x="63.623047" xlink:href="#DejaVuSans-46"/>
       <use x="95.410156" xlink:href="#DejaVuSans-55"/>
      </g>
     </g>
    </g>
    <g id="ytick_9">
     <g id="line2d_18">
      <g>
       <use style="stroke:#000000;stroke-width:0.8;" x="57.6" xlink:href="#meff12c29cd" y="51.51435"/>
      </g>
     </g>
     <g id="text_18">
      <!-- 0.8 -->
      <defs>
       <path d="M 31.78125 34.625 
Q 24.75 34.625 20.71875 30.859375 
Q 16.703125 27.09375 16.703125 20.515625 
Q 16.703125 13.921875 20.71875 10.15625 
Q 24.75 6.390625 31.78125 6.390625 
Q 38.8125 6.390625 42.859375 10.171875 
Q 46.921875 13.96875 46.921875 20.515625 
Q 46.921875 27.09375 42.890625 30.859375 
Q 38.875 34.625 31.78125 34.625 
z
M 21.921875 38.8125 
Q 15.578125 40.375 12.03125 44.71875 
Q 8.5 49.078125 8.5 55.328125 
Q 8.5 64.0625 14.71875 69.140625 
Q 20.953125 74.21875 31.78125 74.21875 
Q 42.671875 74.21875 48.875 69.140625 
Q 55.078125 64.0625 55.078125 55.328125 
Q 55.078125 49.078125 51.53125 44.71875 
Q 48 40.375 41.703125 38.8125 
Q 48.828125 37.15625 52.796875 32.3125 
Q 56.78125 27.484375 56.78125 20.515625 
Q 56.78125 9.90625 50.3125 4.234375 
Q 43.84375 -1.421875 31.78125 -1.421875 
Q 19.734375 -1.421875 13.25 4.234375 
Q 6.78125 9.90625 6.78125 20.515625 
Q 6.78125 27.484375 10.78125 32.3125 
Q 14.796875 37.15625 21.921875 38.8125 
z
M 18.3125 54.390625 
Q 18.3125 48.734375 21.84375 45.5625 
Q 25.390625 42.390625 31.78125 42.390625 
Q 38.140625 42.390625 41.71875 45.5625 
Q 45.3125 48.734375 45.3125 54.390625 
Q 45.3125 60.0625 41.71875 63.234375 
Q 38.140625 66.40625 31.78125 66.40625 
Q 25.390625 66.40625 21.84375 63.234375 
Q 18.3125 60.0625 18.3125 54.390625 
z
" id="DejaVuSans-56"/>
      </defs>
      <g transform="translate(34.696875 55.313568)scale(0.1 -0.1)">
       <use xlink:href="#DejaVuSans-48"/>
       <use x="63.623047" xlink:href="#DejaVuSans-46"/>
       <use x="95.410156" xlink:href="#DejaVuSans-56"/>
      </g>
     </g>
    </g>
   </g>
   <g id="line2d_19">
    <path clip-path="url(#p29428ad314)" d="M 73.832727 195.269868 
L 248.395724 195.269868 
L 250.027154 131.500115 
L 251.658584 155.839783 
L 253.290014 164.054384 
L 254.921444 132.01744 
L 256.552873 128.361942 
L 258.184303 152.143212 
L 259.815733 130.78525 
L 261.447163 125.280574 
L 263.078593 127.294044 
L 264.710023 116.204333 
L 266.341453 126.677949 
L 267.972883 146.598357 
L 269.604312 119.695538 
L 271.235742 147.009087 
L 272.867172 120.741033 
L 274.498602 125.651124 
L 276.130032 128.320869 
L 277.761462 137.562295 
L 279.392892 119.582919 
L 281.024322 121.338458 
L 282.655751 132.01744 
L 284.287181 121.133093 
L 285.918611 133.865725 
L 287.550041 114.196319 
L 289.181471 142.080326 
L 290.812901 121.91348 
L 294.075761 119.151321 
L 295.70719 123.802839 
L 297.33862 113.945317 
L 300.60148 155.429053 
L 302.23291 142.080326 
L 303.86434 148.857372 
L 305.49577 122.435195 
L 307.1272 122.570649 
L 308.75863 120.516998 
L 310.390059 108.605827 
L 312.021489 167.340224 
L 313.652919 122.981379 
L 315.284349 102.800102 
L 316.915779 113.534587 
L 318.547209 130.579885 
L 320.178639 119.900903 
L 321.810069 171.036795 
L 323.441498 102.034146 
L 325.072928 104.087796 
L 326.704358 100.391226 
L 328.335788 98.337576 
L 329.967218 101.002856 
L 331.598648 120.510479 
L 333.230078 112.302397 
L 334.861508 122.159918 
L 336.492937 126.267219 
L 338.124367 135.919375 
L 339.755797 117.641888 
L 341.387227 121.749188 
L 343.018657 114.766778 
L 344.650087 96.664231 
L 346.281517 113.945317 
L 347.912947 117.231158 
L 349.544376 113.945317 
L 351.175806 125.651124 
L 352.807236 119.284808 
L 354.438666 116.955199 
L 356.070096 125.805148 
L 357.701526 99.159036 
L 359.332956 120.388645 
L 360.964386 130.37452 
L 362.595815 120.516998 
L 364.227245 152.143212 
L 367.490105 134.48182 
L 369.121535 114.165895 
L 370.752965 120.184503 
L 372.384395 123.392109 
L 374.015825 131.214649 
L 375.647254 116.781311 
L 377.278684 118.874078 
L 378.910114 137.973025 
L 380.541544 124.069813 
L 382.172974 119.850654 
L 383.804404 118.668713 
L 385.435834 154.196862 
L 387.067264 138.589121 
L 388.698693 114.766778 
L 390.330123 99.364401 
L 391.961553 110.248747 
L 393.592983 119.798221 
L 395.224413 119.284808 
L 396.855843 120.516998 
L 398.487273 119.457315 
L 398.487273 119.457315 
" style="fill:none;stroke:#1f77b4;stroke-linecap:square;stroke-width:0.25;"/>
   </g>
   <g id="line2d_20">
    <path clip-path="url(#p29428ad314)" d="M 73.832727 195.269868 
L 233.712855 195.269868 
L 235.344285 195.122005 
L 236.975715 195.557379 
L 238.607145 195.269868 
L 240.238575 195.15897 
L 241.870005 195.394524 
L 243.501434 195.854669 
L 245.132864 190.130421 
L 246.764294 187.201565 
L 248.395724 170.263852 
L 250.027154 154.634532 
L 251.658584 164.502129 
L 253.290014 169.32717 
L 254.921444 140.149795 
L 256.552873 141.604303 
L 258.184303 153.416258 
L 259.815733 141.012071 
L 261.447163 138.442134 
L 263.078593 140.347856 
L 264.710023 130.481919 
L 266.341453 143.772248 
L 267.972883 150.251576 
L 269.604312 127.615985 
L 271.235742 153.065046 
L 272.867172 140.150766 
L 274.498602 135.172562 
L 276.130032 136.103219 
L 277.761462 147.517135 
L 279.392892 139.269514 
L 281.024322 139.807711 
L 282.655751 140.479315 
L 284.287181 133.422192 
L 285.918611 139.80909 
L 287.550041 128.369623 
L 289.181471 147.540986 
L 290.812901 139.316373 
L 292.444331 131.675333 
L 294.075761 129.464007 
L 295.70719 131.397307 
L 297.33862 123.554025 
L 298.97005 139.092141 
L 300.60148 148.099238 
L 302.23291 141.543244 
L 303.86434 140.134863 
L 305.49577 129.70764 
L 307.1272 126.231507 
L 308.75863 130.842808 
L 310.390059 116.331447 
L 312.021489 160.807494 
L 313.652919 133.128508 
L 315.284349 121.634293 
L 316.915779 132.635542 
L 318.547209 134.620291 
L 320.178639 128.843547 
L 321.810069 150.771789 
L 323.441498 115.427112 
L 325.072928 112.563641 
L 326.704358 119.446166 
L 328.335788 117.778284 
L 329.967218 122.820916 
L 331.598648 126.539279 
L 333.230078 122.991183 
L 334.861508 127.101354 
L 336.492937 131.729807 
L 338.124367 130.535618 
L 339.755797 122.818947 
L 341.387227 134.104659 
L 343.018657 122.518845 
L 344.650087 115.770428 
L 346.281517 112.375326 
L 347.912947 121.10022 
L 349.544376 123.224673 
L 351.175806 136.114352 
L 352.807236 128.546044 
L 354.438666 125.896116 
L 356.070096 127.014745 
L 357.701526 114.973646 
L 359.332956 121.028471 
L 360.964386 126.616696 
L 362.595815 131.166868 
L 364.227245 137.229637 
L 365.858675 145.03446 
L 367.490105 137.359999 
L 369.121535 125.323596 
L 370.752965 128.76835 
L 372.384395 131.286256 
L 374.015825 130.623341 
L 375.647254 127.016212 
L 377.278684 122.153605 
L 378.910114 140.241796 
L 380.541544 134.841056 
L 382.172974 128.024623 
L 383.804404 130.17837 
L 385.435834 139.08373 
L 387.067264 143.05573 
L 388.698693 123.619385 
L 390.330123 118.580048 
L 391.961553 128.776669 
L 393.592983 127.954057 
L 395.224413 125.682403 
L 396.855843 122.206924 
L 398.487273 126.081697 
L 398.487273 126.081697 
" style="fill:none;stroke:#2ca02c;stroke-linecap:square;stroke-width:0.75;"/>
   </g>
   <g id="patch_3">
    <path d="M 57.6 307.584 
L 57.6 41.472 
" style="fill:none;stroke:#000000;stroke-linecap:square;stroke-linejoin:miter;stroke-width:0.8;"/>
   </g>
   <g id="patch_4">
    <path d="M 414.72 307.584 
L 414.72 41.472 
" style="fill:none;stroke:#000000;stroke-linecap:square;stroke-linejoin:miter;stroke-width:0.8;"/>
   </g>
   <g id="patch_5">
    <path d="M 57.6 307.584 
L 414.72 307.584 
" style="fill:none;stroke:#000000;stroke-linecap:square;stroke-linejoin:miter;stroke-width:0.8;"/>
   </g>
   <g id="patch_6">
    <path d="M 57.6 41.472 
L 414.72 41.472 
" style="fill:none;stroke:#000000;stroke-linecap:square;stroke-linejoin:miter;stroke-width:0.8;"/>
   </g>
   <g id="legend_1">
    <g id="patch_7">
     <path d="M 338.234063 78.82825 
L 407.72 78.82825 
Q 409.72 78.82825 409.72 76.82825 
L 409.72 48.472 
Q 409.72 46.472 407.72 46.472 
L 338.234063 46.472 
Q 336.234063 46.472 336.234063 48.472 
L 336.234063 76.82825 
Q 336.234063 78.82825 338.234063 78.82825 
z
" style="fill:#ffffff;opacity:0.8;stroke:#cccccc;stroke-linejoin:miter;"/>
    </g>
    <g id="line2d_21">
     <path d="M 340.234063 54.570437 
L 360.234063 54.570437 
" style="fill:none;stroke:#1f77b4;stroke-linecap:square;stroke-width:0.25;"/>
    </g>
    <g id="line2d_22"/>
    <g id="text_19">
     <!-- median -->
     <defs>
      <path d="M 52 44.1875 
Q 55.375 50.25 60.0625 53.125 
Q 64.75 56 71.09375 56 
Q 79.640625 56 84.28125 50.015625 
Q 88.921875 44.046875 88.921875 33.015625 
L 88.921875 0 
L 79.890625 0 
L 79.890625 32.71875 
Q 79.890625 40.578125 77.09375 44.375 
Q 74.3125 48.1875 68.609375 48.1875 
Q 61.625 48.1875 57.5625 43.546875 
Q 53.515625 38.921875 53.515625 30.90625 
L 53.515625 0 
L 44.484375 0 
L 44.484375 32.71875 
Q 44.484375 40.625 41.703125 44.40625 
Q 38.921875 48.1875 33.109375 48.1875 
Q 26.21875 48.1875 22.15625 43.53125 
Q 18.109375 38.875 18.109375 30.90625 
L 18.109375 0 
L 9.078125 0 
L 9.078125 54.6875 
L 18.109375 54.6875 
L 18.109375 46.1875 
Q 21.1875 51.21875 25.484375 53.609375 
Q 29.78125 56 35.6875 56 
Q 41.65625 56 45.828125 52.96875 
Q 50 49.953125 52 44.1875 
z
" id="DejaVuSans-109"/>
      <path d="M 56.203125 29.59375 
L 56.203125 25.203125 
L 14.890625 25.203125 
Q 15.484375 15.921875 20.484375 11.0625 
Q 25.484375 6.203125 34.421875 6.203125 
Q 39.59375 6.203125 44.453125 7.46875 
Q 49.3125 8.734375 54.109375 11.28125 
L 54.109375 2.78125 
Q 49.265625 0.734375 44.1875 -0.34375 
Q 39.109375 -1.421875 33.890625 -1.421875 
Q 20.796875 -1.421875 13.15625 6.1875 
Q 5.515625 13.8125 5.515625 26.8125 
Q 5.515625 40.234375 12.765625 48.109375 
Q 20.015625 56 32.328125 56 
Q 43.359375 56 49.78125 48.890625 
Q 56.203125 41.796875 56.203125 29.59375 
z
M 47.21875 32.234375 
Q 47.125 39.59375 43.09375 43.984375 
Q 39.0625 48.390625 32.421875 48.390625 
Q 24.90625 48.390625 20.390625 44.140625 
Q 15.875 39.890625 15.1875 32.171875 
z
" id="DejaVuSans-101"/>
      <path d="M 45.40625 46.390625 
L 45.40625 75.984375 
L 54.390625 75.984375 
L 54.390625 0 
L 45.40625 0 
L 45.40625 8.203125 
Q 42.578125 3.328125 38.25 0.953125 
Q 33.9375 -1.421875 27.875 -1.421875 
Q 17.96875 -1.421875 11.734375 6.484375 
Q 5.515625 14.40625 5.515625 27.296875 
Q 5.515625 40.1875 11.734375 48.09375 
Q 17.96875 56 27.875 56 
Q 33.9375 56 38.25 53.625 
Q 42.578125 51.265625 45.40625 46.390625 
z
M 14.796875 27.296875 
Q 14.796875 17.390625 18.875 11.75 
Q 22.953125 6.109375 30.078125 6.109375 
Q 37.203125 6.109375 41.296875 11.75 
Q 45.40625 17.390625 45.40625 27.296875 
Q 45.40625 37.203125 41.296875 42.84375 
Q 37.203125 48.484375 30.078125 48.484375 
Q 22.953125 48.484375 18.875 42.84375 
Q 14.796875 37.203125 14.796875 27.296875 
z
" id="DejaVuSans-100"/>
      <path d="M 9.421875 54.6875 
L 18.40625 54.6875 
L 18.40625 0 
L 9.421875 0 
z
M 9.421875 75.984375 
L 18.40625 75.984375 
L 18.40625 64.59375 
L 9.421875 64.59375 
z
" id="DejaVuSans-105"/>
      <path d="M 34.28125 27.484375 
Q 23.390625 27.484375 19.1875 25 
Q 14.984375 22.515625 14.984375 16.5 
Q 14.984375 11.71875 18.140625 8.90625 
Q 21.296875 6.109375 26.703125 6.109375 
Q 34.1875 6.109375 38.703125 11.40625 
Q 43.21875 16.703125 43.21875 25.484375 
L 43.21875 27.484375 
z
M 52.203125 31.203125 
L 52.203125 0 
L 43.21875 0 
L 43.21875 8.296875 
Q 40.140625 3.328125 35.546875 0.953125 
Q 30.953125 -1.421875 24.3125 -1.421875 
Q 15.921875 -1.421875 10.953125 3.296875 
Q 6 8.015625 6 15.921875 
Q 6 25.140625 12.171875 29.828125 
Q 18.359375 34.515625 30.609375 34.515625 
L 43.21875 34.515625 
L 43.21875 35.40625 
Q 43.21875 41.609375 39.140625 45 
Q 35.0625 48.390625 27.6875 48.390625 
Q 23 48.390625 18.546875 47.265625 
Q 14.109375 46.140625 10.015625 43.890625 
L 10.015625 52.203125 
Q 14.9375 54.109375 19.578125 55.046875 
Q 24.21875 56 28.609375 56 
Q 40.484375 56 46.34375 49.84375 
Q 52.203125 43.703125 52.203125 31.203125 
z
" id="DejaVuSans-97"/>
      <path d="M 54.890625 33.015625 
L 54.890625 0 
L 45.90625 0 
L 45.90625 32.71875 
Q 45.90625 40.484375 42.875 44.328125 
Q 39.84375 48.1875 33.796875 48.1875 
Q 26.515625 48.1875 22.3125 43.546875 
Q 18.109375 38.921875 18.109375 30.90625 
L 18.109375 0 
L 9.078125 0 
L 9.078125 54.6875 
L 18.109375 54.6875 
L 18.109375 46.1875 
Q 21.34375 51.125 25.703125 53.5625 
Q 30.078125 56 35.796875 56 
Q 45.21875 56 50.046875 50.171875 
Q 54.890625 44.34375 54.890625 33.015625 
z
" id="DejaVuSans-110"/>
     </defs>
     <g transform="translate(368.234063 58.070437)scale(0.1 -0.1)">
      <use xlink:href="#DejaVuSans-109"/>
      <use x="97.412109" xlink:href="#DejaVuSans-101"/>
      <use x="158.935547" xlink:href="#DejaVuSans-100"/>
      <use x="222.412109" xlink:href="#DejaVuSans-105"/>
      <use x="250.195312" xlink:href="#DejaVuSans-97"/>
      <use x="311.474609" xlink:href="#DejaVuSans-110"/>
     </g>
    </g>
    <g id="line2d_23">
     <path d="M 340.234063 69.248562 
L 360.234063 69.248562 
" style="fill:none;stroke:#2ca02c;stroke-linecap:square;stroke-width:0.75;"/>
    </g>
    <g id="line2d_24"/>
    <g id="text_20">
     <!-- mean -->
     <g transform="translate(368.234063 72.748562)scale(0.1 -0.1)">
      <use xlink:href="#DejaVuSans-109"/>
      <use x="97.412109" xlink:href="#DejaVuSans-101"/>
      <use x="158.935547" xlink:href="#DejaVuSans-97"/>
      <use x="220.214844" xlink:href="#DejaVuSans-110"/>
     </g>
    </g>
   </g>
  </g>
  <g id="text_21">
   <!-- accuracy.mean over generations -->
   <defs>
    <path d="M 48.78125 52.59375 
L 48.78125 44.1875 
Q 44.96875 46.296875 41.140625 47.34375 
Q 37.3125 48.390625 33.40625 48.390625 
Q 24.65625 48.390625 19.8125 42.84375 
Q 14.984375 37.3125 14.984375 27.296875 
Q 14.984375 17.28125 19.8125 11.734375 
Q 24.65625 6.203125 33.40625 6.203125 
Q 37.3125 6.203125 41.140625 7.25 
Q 44.96875 8.296875 48.78125 10.40625 
L 48.78125 2.09375 
Q 45.015625 0.34375 40.984375 -0.53125 
Q 36.96875 -1.421875 32.421875 -1.421875 
Q 20.0625 -1.421875 12.78125 6.34375 
Q 5.515625 14.109375 5.515625 27.296875 
Q 5.515625 40.671875 12.859375 48.328125 
Q 20.21875 56 33.015625 56 
Q 37.15625 56 41.109375 55.140625 
Q 45.0625 54.296875 48.78125 52.59375 
z
" id="DejaVuSans-99"/>
    <path d="M 8.5 21.578125 
L 8.5 54.6875 
L 17.484375 54.6875 
L 17.484375 21.921875 
Q 17.484375 14.15625 20.5 10.265625 
Q 23.53125 6.390625 29.59375 6.390625 
Q 36.859375 6.390625 41.078125 11.03125 
Q 45.3125 15.671875 45.3125 23.6875 
L 45.3125 54.6875 
L 54.296875 54.6875 
L 54.296875 0 
L 45.3125 0 
L 45.3125 8.40625 
Q 42.046875 3.421875 37.71875 1 
Q 33.40625 -1.421875 27.6875 -1.421875 
Q 18.265625 -1.421875 13.375 4.4375 
Q 8.5 10.296875 8.5 21.578125 
z
M 31.109375 56 
z
" id="DejaVuSans-117"/>
    <path d="M 41.109375 46.296875 
Q 39.59375 47.171875 37.8125 47.578125 
Q 36.03125 48 33.890625 48 
Q 26.265625 48 22.1875 43.046875 
Q 18.109375 38.09375 18.109375 28.8125 
L 18.109375 0 
L 9.078125 0 
L 9.078125 54.6875 
L 18.109375 54.6875 
L 18.109375 46.1875 
Q 20.953125 51.171875 25.484375 53.578125 
Q 30.03125 56 36.53125 56 
Q 37.453125 56 38.578125 55.875 
Q 39.703125 55.765625 41.0625 55.515625 
z
" id="DejaVuSans-114"/>
    <path d="M 32.171875 -5.078125 
Q 28.375 -14.84375 24.75 -17.8125 
Q 21.140625 -20.796875 15.09375 -20.796875 
L 7.90625 -20.796875 
L 7.90625 -13.28125 
L 13.1875 -13.28125 
Q 16.890625 -13.28125 18.9375 -11.515625 
Q 21 -9.765625 23.484375 -3.21875 
L 25.09375 0.875 
L 2.984375 54.6875 
L 12.5 54.6875 
L 29.59375 11.921875 
L 46.6875 54.6875 
L 56.203125 54.6875 
z
" id="DejaVuSans-121"/>
    <path id="DejaVuSans-32"/>
    <path d="M 30.609375 48.390625 
Q 23.390625 48.390625 19.1875 42.75 
Q 14.984375 37.109375 14.984375 27.296875 
Q 14.984375 17.484375 19.15625 11.84375 
Q 23.34375 6.203125 30.609375 6.203125 
Q 37.796875 6.203125 41.984375 11.859375 
Q 46.1875 17.53125 46.1875 27.296875 
Q 46.1875 37.015625 41.984375 42.703125 
Q 37.796875 48.390625 30.609375 48.390625 
z
M 30.609375 56 
Q 42.328125 56 49.015625 48.375 
Q 55.71875 40.765625 55.71875 27.296875 
Q 55.71875 13.875 49.015625 6.21875 
Q 42.328125 -1.421875 30.609375 -1.421875 
Q 18.84375 -1.421875 12.171875 6.21875 
Q 5.515625 13.875 5.515625 27.296875 
Q 5.515625 40.765625 12.171875 48.375 
Q 18.84375 56 30.609375 56 
z
" id="DejaVuSans-111"/>
    <path d="M 2.984375 54.6875 
L 12.5 54.6875 
L 29.59375 8.796875 
L 46.6875 54.6875 
L 56.203125 54.6875 
L 35.6875 0 
L 23.484375 0 
z
" id="DejaVuSans-118"/>
    <path d="M 45.40625 27.984375 
Q 45.40625 37.75 41.375 43.109375 
Q 37.359375 48.484375 30.078125 48.484375 
Q 22.859375 48.484375 18.828125 43.109375 
Q 14.796875 37.75 14.796875 27.984375 
Q 14.796875 18.265625 18.828125 12.890625 
Q 22.859375 7.515625 30.078125 7.515625 
Q 37.359375 7.515625 41.375 12.890625 
Q 45.40625 18.265625 45.40625 27.984375 
z
M 54.390625 6.78125 
Q 54.390625 -7.171875 48.1875 -13.984375 
Q 42 -20.796875 29.203125 -20.796875 
Q 24.46875 -20.796875 20.265625 -20.09375 
Q 16.0625 -19.390625 12.109375 -17.921875 
L 12.109375 -9.1875 
Q 16.0625 -11.328125 19.921875 -12.34375 
Q 23.78125 -13.375 27.78125 -13.375 
Q 36.625 -13.375 41.015625 -8.765625 
Q 45.40625 -4.15625 45.40625 5.171875 
L 45.40625 9.625 
Q 42.625 4.78125 38.28125 2.390625 
Q 33.9375 0 27.875 0 
Q 17.828125 0 11.671875 7.65625 
Q 5.515625 15.328125 5.515625 27.984375 
Q 5.515625 40.671875 11.671875 48.328125 
Q 17.828125 56 27.875 56 
Q 33.9375 56 38.28125 53.609375 
Q 42.625 51.21875 45.40625 46.390625 
L 45.40625 54.6875 
L 54.390625 54.6875 
z
" id="DejaVuSans-103"/>
    <path d="M 18.3125 70.21875 
L 18.3125 54.6875 
L 36.8125 54.6875 
L 36.8125 47.703125 
L 18.3125 47.703125 
L 18.3125 18.015625 
Q 18.3125 11.328125 20.140625 9.421875 
Q 21.96875 7.515625 27.59375 7.515625 
L 36.8125 7.515625 
L 36.8125 0 
L 27.59375 0 
Q 17.1875 0 13.234375 3.875 
Q 9.28125 7.765625 9.28125 18.015625 
L 9.28125 47.703125 
L 2.6875 47.703125 
L 2.6875 54.6875 
L 9.28125 54.6875 
L 9.28125 70.21875 
z
" id="DejaVuSans-116"/>
    <path d="M 44.28125 53.078125 
L 44.28125 44.578125 
Q 40.484375 46.53125 36.375 47.5 
Q 32.28125 48.484375 27.875 48.484375 
Q 21.1875 48.484375 17.84375 46.4375 
Q 14.5 44.390625 14.5 40.28125 
Q 14.5 37.15625 16.890625 35.375 
Q 19.28125 33.59375 26.515625 31.984375 
L 29.59375 31.296875 
Q 39.15625 29.25 43.1875 25.515625 
Q 47.21875 21.78125 47.21875 15.09375 
Q 47.21875 7.46875 41.1875 3.015625 
Q 35.15625 -1.421875 24.609375 -1.421875 
Q 20.21875 -1.421875 15.453125 -0.5625 
Q 10.6875 0.296875 5.421875 2 
L 5.421875 11.28125 
Q 10.40625 8.6875 15.234375 7.390625 
Q 20.0625 6.109375 24.8125 6.109375 
Q 31.15625 6.109375 34.5625 8.28125 
Q 37.984375 10.453125 37.984375 14.40625 
Q 37.984375 18.0625 35.515625 20.015625 
Q 33.0625 21.96875 24.703125 23.78125 
L 21.578125 24.515625 
Q 13.234375 26.265625 9.515625 29.90625 
Q 5.8125 33.546875 5.8125 39.890625 
Q 5.8125 47.609375 11.28125 51.796875 
Q 16.75 56 26.8125 56 
Q 31.78125 56 36.171875 55.265625 
Q 40.578125 54.546875 44.28125 53.078125 
z
" id="DejaVuSans-115"/>
   </defs>
   <g transform="translate(132.309375 16.030125)scale(0.12 -0.12)">
    <use xlink:href="#DejaVuSans-97"/>
    <use x="61.279297" xlink:href="#DejaVuSans-99"/>
    <use x="116.259766" xlink:href="#DejaVuSans-99"/>
    <use x="171.240234" xlink:href="#DejaVuSans-117"/>
    <use x="234.619141" xlink:href="#DejaVuSans-114"/>
    <use x="275.732422" xlink:href="#DejaVuSans-97"/>
    <use x="337.011719" xlink:href="#DejaVuSans-99"/>
    <use x="391.992188" xlink:href="#DejaVuSans-121"/>
    <use x="436.921875" xlink:href="#DejaVuSans-46"/>
    <use x="468.708984" xlink:href="#DejaVuSans-109"/>
    <use x="566.121094" xlink:href="#DejaVuSans-101"/>
    <use x="627.644531" xlink:href="#DejaVuSans-97"/>
    <use x="688.923828" xlink:href="#DejaVuSans-110"/>
    <use x="752.302734" xlink:href="#DejaVuSans-32"/>
    <use x="784.089844" xlink:href="#DejaVuSans-111"/>
    <use x="845.271484" xlink:href="#DejaVuSans-118"/>
    <use x="904.451172" xlink:href="#DejaVuSans-101"/>
    <use x="965.974609" xlink:href="#DejaVuSans-114"/>
    <use x="1007.087891" xlink:href="#DejaVuSans-32"/>
    <use x="1038.875" xlink:href="#DejaVuSans-103"/>
    <use x="1102.351562" xlink:href="#DejaVuSans-101"/>
    <use x="1163.875" xlink:href="#DejaVuSans-110"/>
    <use x="1227.253906" xlink:href="#DejaVuSans-101"/>
    <use x="1288.777344" xlink:href="#DejaVuSans-114"/>
    <use x="1329.890625" xlink:href="#DejaVuSans-97"/>
    <use x="1391.169922" xlink:href="#DejaVuSans-116"/>
    <use x="1430.378906" xlink:href="#DejaVuSans-105"/>
    <use x="1458.162109" xlink:href="#DejaVuSans-111"/>
    <use x="1519.34375" xlink:href="#DejaVuSans-110"/>
    <use x="1582.722656" xlink:href="#DejaVuSans-115"/>
   </g>
  </g>
 </g>
 <defs>
  <clipPath id="p29428ad314">
   <rect height="266.112" width="357.12" x="57.6" y="41.472"/>
  </clipPath>
 </defs>
</svg>
