<?xml version="1.0" encoding="utf-8" standalone="no"?>
<!DOCTYPE svg PUBLIC "-//W3C//DTD SVG 1.1//EN"
  "http://www.w3.org/Graphics/SVG/1.1/DTD/svg11.dtd">
<!-- Created with matplotlib (https://matplotlib.org/) -->
<svg height="345.6pt" version="1.1" viewBox="0 0 460.8 345.6" width="460.8pt" xmlns="http://www.w3.org/2000/svg" xmlns:xlink="http://www.w3.org/1999/xlink">
 <defs>
  <style type="text/css">
*{stroke-linecap:butt;stroke-linejoin:round;}
  </style>
 </defs>
 <g id="figure_1">
  <g id="patch_1">
   <path d="M 0 345.6 
L 460.8 345.6 
L 460.8 0 
L 0 0 
z
" style="fill:#ffffff;"/>
  </g>
  <g id="axes_1">
   <g id="patch_2">
    <path d="M 57.6 307.584 
L 414.72 307.584 
L 414.72 41.472 
L 57.6 41.472 
z
" style="fill:#ffffff;"/>
   </g>
   <g id="PolyCollection_1">
    <path clip-path="url(#p044abe9255)" d="M 73.832727 286.235156 
L 73.832727 287.510094 
L 75.464157 287.510094 
L 77.095587 287.510094 
L 78.727017 287.510094 
L 80.358447 287.510094 
L 81.989877 287.510094 
L 83.621307 287.510094 
L 85.252736 287.510094 
L 86.884166 287.510094 
L 88.515596 287.510094 
L 90.147026 287.510094 
L 91.778456 287.510094 
L 93.409886 287.510094 
L 95.041316 287.510094 
L 96.672746 287.510094 
L 98.304175 287.510094 
L 99.935605 287.510094 
L 101.567035 287.510094 
L 103.198465 287.510094 
L 104.829895 287.510094 
L 106.461325 287.510094 
L 108.092755 287.510094 
L 109.724185 287.510094 
L 111.355614 287.510094 
L 112.987044 287.510094 
L 114.618474 287.510094 
L 116.249904 287.510094 
L 117.881334 287.510094 
L 119.512764 287.510094 
L 121.144194 287.510094 
L 122.775624 287.510094 
L 124.407053 287.510094 
L 126.038483 287.510094 
L 127.669913 287.510094 
L 129.301343 287.510094 
L 130.932773 287.510094 
L 132.564203 287.510094 
L 134.195633 287.510094 
L 135.827063 287.510094 
L 137.458492 287.510094 
L 139.089922 287.510094 
L 140.721352 287.510094 
L 142.352782 287.510094 
L 143.984212 287.510094 
L 145.615642 287.510094 
L 147.247072 287.510094 
L 148.878502 287.510094 
L 150.509931 287.510094 
L 152.141361 287.510094 
L 153.772791 287.510094 
L 155.404221 287.510094 
L 157.035651 287.510094 
L 158.667081 287.510094 
L 160.298511 287.510094 
L 161.929941 287.510094 
L 163.56137 287.510094 
L 165.1928 287.510094 
L 166.82423 287.510094 
L 168.45566 287.510094 
L 170.08709 287.510094 
L 171.71852 287.510094 
L 173.34995 287.510094 
L 174.98138 287.510094 
L 176.61281 287.510094 
L 178.244239 287.510094 
L 179.875669 287.510094 
L 181.507099 287.510094 
L 183.138529 287.510094 
L 184.769959 287.510094 
L 186.401389 287.510094 
L 188.032819 287.510094 
L 189.664249 287.510094 
L 191.295678 287.510094 
L 192.927108 287.510094 
L 194.558538 287.510094 
L 196.189968 287.510094 
L 197.821398 287.510094 
L 199.452828 287.510094 
L 201.084258 287.510094 
L 202.715688 287.510094 
L 204.347117 287.510094 
L 205.978547 287.510094 
L 207.609977 287.510094 
L 209.241407 287.510094 
L 210.872837 287.510094 
L 212.504267 287.510094 
L 214.135697 287.305337 
L 215.767127 287.870774 
L 217.398556 287.981748 
L 219.029986 288.111571 
L 220.661416 288.049295 
L 222.292846 286.050277 
L 223.924276 287.5182 
L 225.555706 288.281671 
L 227.187136 287.419165 
L 228.818566 288.118341 
L 230.449995 286.272288 
L 232.081425 287.568505 
L 233.712855 286.493444 
L 235.344285 287.944679 
L 236.975715 287.587217 
L 238.607145 287.168822 
L 240.238575 288.108605 
L 241.870005 287.68091 
L 243.501434 286.750697 
L 245.132864 288.006498 
L 246.764294 287.659629 
L 248.395724 287.340245 
L 250.027154 288.007303 
L 251.658584 289.532302 
L 253.290014 287.903075 
L 254.921444 287.31465 
L 256.552873 287.665579 
L 258.184303 287.35379 
L 259.815733 287.719449 
L 261.447163 287.557258 
L 263.078593 287.839839 
L 264.710023 287.140483 
L 266.341453 287.357539 
L 267.972883 287.829405 
L 269.604312 287.314819 
L 271.235742 287.529106 
L 272.867172 288.08696 
L 274.498602 287.669526 
L 276.130032 287.875315 
L 277.761462 286.499554 
L 279.392892 288.818133 
L 281.024322 287.922726 
L 282.655751 287.606485 
L 284.287181 288.572227 
L 285.918611 287.468313 
L 287.550041 288.078198 
L 289.181471 291.439899 
L 290.812901 291.554408 
L 292.444331 291.772418 
L 294.075761 291.382477 
L 295.70719 290.651127 
L 297.33862 291.847226 
L 298.97005 289.587794 
L 300.60148 291.796433 
L 302.23291 290.767788 
L 303.86434 291.818439 
L 305.49577 288.536542 
L 307.1272 291.351222 
L 308.75863 288.964765 
L 310.390059 291.747301 
L 312.021489 291.706984 
L 313.652919 292.829523 
L 315.284349 290.168078 
L 316.915779 291.942633 
L 318.547209 291.281073 
L 320.178639 292.04788 
L 321.810069 289.978273 
L 323.441498 292.113112 
L 325.072928 291.565715 
L 326.704358 291.56193 
L 328.335788 291.733216 
L 329.967218 291.889625 
L 331.598648 292.486452 
L 333.230078 292.379951 
L 334.861508 292.897807 
L 336.492937 289.716045 
L 338.124367 291.550823 
L 339.755797 291.846773 
L 341.387227 291.124967 
L 343.018657 291.628542 
L 344.650087 291.010437 
L 346.281517 290.007382 
L 347.912947 293.12577 
L 349.544376 292.562215 
L 351.175806 292.038883 
L 352.807236 293.044028 
L 354.438666 291.811755 
L 356.070096 289.129458 
L 357.701526 291.441484 
L 359.332956 288.128959 
L 360.964386 290.542737 
L 362.595815 291.86407 
L 364.227245 291.246288 
L 365.858675 291.683378 
L 367.490105 290.997687 
L 369.121535 290.415219 
L 370.752965 293.807915 
L 372.384395 287.447331 
L 374.015825 293.072878 
L 375.647254 293.654978 
L 377.278684 291.831566 
L 378.910114 292.277945 
L 380.541544 293.097661 
L 382.172974 291.233114 
L 383.804404 293.159544 
L 385.435834 293.631109 
L 387.067264 294.878708 
L 388.698693 291.712073 
L 390.330123 291.760376 
L 391.961553 292.248153 
L 393.592983 294.173754 
L 395.224413 292.569762 
L 396.855843 292.130912 
L 398.487273 292.769926 
L 398.487273 284.674831 
L 398.487273 284.674831 
L 396.855843 285.908579 
L 395.224413 283.227977 
L 393.592983 285.630473 
L 391.961553 287.410207 
L 390.330123 285.886547 
L 388.698693 284.875596 
L 387.067264 286.974008 
L 385.435834 287.948807 
L 383.804404 284.647209 
L 382.172974 281.610503 
L 380.541544 286.162047 
L 378.910114 281.719338 
L 377.278684 285.049985 
L 375.647254 284.166329 
L 374.015825 283.393146 
L 372.384395 283.90147 
L 370.752965 287.85963 
L 369.121535 284.216319 
L 367.490105 285.20451 
L 365.858675 279.220817 
L 364.227245 279.177319 
L 362.595815 286.472034 
L 360.964386 284.156454 
L 359.332956 278.764855 
L 357.701526 280.87971 
L 356.070096 285.861213 
L 354.438666 286.419583 
L 352.807236 284.585842 
L 351.175806 284.635827 
L 349.544376 285.988931 
L 347.912947 287.984833 
L 346.281517 284.521477 
L 344.650087 278.904954 
L 343.018657 285.382288 
L 341.387227 285.085874 
L 339.755797 285.473514 
L 338.124367 285.518028 
L 336.492937 284.145204 
L 334.861508 287.03133 
L 333.230078 286.154148 
L 331.598648 286.576252 
L 329.967218 285.208677 
L 328.335788 284.386603 
L 326.704358 285.730307 
L 325.072928 285.6116 
L 323.441498 286.014771 
L 321.810069 285.116106 
L 320.178639 286.415692 
L 318.547209 285.14223 
L 316.915779 286.067659 
L 315.284349 274.204586 
L 313.652919 287.38221 
L 312.021489 286.487028 
L 310.390059 285.755289 
L 308.75863 286.121519 
L 307.1272 285.402658 
L 305.49577 285.315525 
L 303.86434 283.22358 
L 302.23291 284.504427 
L 300.60148 285.92247 
L 298.97005 285.458327 
L 297.33862 286.464276 
L 295.70719 284.625459 
L 294.075761 287.105508 
L 292.444331 284.261032 
L 290.812901 278.530174 
L 289.181471 276.882727 
L 287.550041 284.97163 
L 285.918611 285.27286 
L 284.287181 286.589746 
L 282.655751 285.442897 
L 281.024322 280.195375 
L 279.392892 285.583052 
L 277.761462 273.756781 
L 276.130032 278.726676 
L 274.498602 280.448447 
L 272.867172 278.196298 
L 271.235742 275.690598 
L 269.604312 272.104737 
L 267.972883 281.308614 
L 266.341453 276.218229 
L 264.710023 271.983391 
L 263.078593 278.904894 
L 261.447163 279.823522 
L 259.815733 277.22794 
L 258.184303 276.781937 
L 256.552873 285.799205 
L 254.921444 284.424359 
L 253.290014 285.965348 
L 251.658584 287.94286 
L 250.027154 286.171385 
L 248.395724 285.114922 
L 246.764294 285.556976 
L 245.132864 285.764896 
L 243.501434 284.562303 
L 241.870005 285.526529 
L 240.238575 285.836159 
L 238.607145 284.96131 
L 236.975715 285.437746 
L 235.344285 285.794299 
L 233.712855 284.233235 
L 232.081425 285.488995 
L 230.449995 283.907979 
L 228.818566 285.494664 
L 227.187136 285.30624 
L 225.555706 287.368229 
L 223.924276 285.237145 
L 222.292846 283.449973 
L 220.661416 286.543372 
L 219.029986 286.49016 
L 217.398556 286.47672 
L 215.767127 285.873789 
L 214.135697 285.204879 
L 212.504267 286.235156 
L 210.872837 286.235156 
L 209.241407 286.235156 
L 207.609977 286.235156 
L 205.978547 286.235156 
L 204.347117 286.235156 
L 202.715688 286.235156 
L 201.084258 286.235156 
L 199.452828 286.235156 
L 197.821398 286.235156 
L 196.189968 286.235156 
L 194.558538 287.199648 
L 192.927108 286.235156 
L 191.295678 286.235156 
L 189.664249 286.235156 
L 188.032819 287.199648 
L 186.401389 286.235156 
L 184.769959 286.235156 
L 183.138529 286.235156 
L 181.507099 286.235156 
L 179.875669 286.235156 
L 178.244239 286.235156 
L 176.61281 286.235156 
L 174.98138 286.235156 
L 173.34995 287.199648 
L 171.71852 286.235156 
L 170.08709 286.235156 
L 168.45566 286.235156 
L 166.82423 286.235156 
L 165.1928 286.235156 
L 163.56137 286.235156 
L 161.929941 286.235156 
L 160.298511 286.235156 
L 158.667081 286.235156 
L 157.035651 286.235156 
L 155.404221 286.235156 
L 153.772791 286.235156 
L 152.141361 286.235156 
L 150.509931 286.235156 
L 148.878502 286.235156 
L 147.247072 287.199648 
L 145.615642 286.235156 
L 143.984212 286.235156 
L 142.352782 286.235156 
L 140.721352 286.235156 
L 139.089922 286.235156 
L 137.458492 287.199648 
L 135.827063 287.199648 
L 134.195633 286.235156 
L 132.564203 286.235156 
L 130.932773 286.235156 
L 129.301343 286.235156 
L 127.669913 286.235156 
L 126.038483 286.235156 
L 124.407053 286.235156 
L 122.775624 286.235156 
L 121.144194 286.958525 
L 119.512764 286.235156 
L 117.881334 286.235156 
L 116.249904 286.235156 
L 114.618474 286.235156 
L 112.987044 286.235156 
L 111.355614 286.235156 
L 109.724185 286.235156 
L 108.092755 286.958525 
L 106.461325 286.235156 
L 104.829895 287.199648 
L 103.198465 286.235156 
L 101.567035 286.235156 
L 99.935605 286.235156 
L 98.304175 286.235156 
L 96.672746 286.235156 
L 95.041316 286.235156 
L 93.409886 286.235156 
L 91.778456 286.235156 
L 90.147026 286.235156 
L 88.515596 286.235156 
L 86.884166 286.235156 
L 85.252736 286.235156 
L 83.621307 286.235156 
L 81.989877 287.199648 
L 80.358447 286.235156 
L 78.727017 286.235156 
L 77.095587 286.235156 
L 75.464157 286.235156 
L 73.832727 286.235156 
z
" style="fill:#1f77b4;fill-opacity:0.2;"/>
   </g>
   <g id="PolyCollection_2">
    <path clip-path="url(#p044abe9255)" d="M 73.832727 286.235156 
L 73.832727 287.510094 
L 75.464157 287.510094 
L 77.095587 287.510094 
L 78.727017 287.510094 
L 80.358447 287.510094 
L 81.989877 287.510094 
L 83.621307 287.510094 
L 85.252736 287.510094 
L 86.884166 287.510094 
L 88.515596 287.510094 
L 90.147026 287.510094 
L 91.778456 287.510094 
L 93.409886 287.510094 
L 95.041316 287.510094 
L 96.672746 287.510094 
L 98.304175 287.510094 
L 99.935605 287.510094 
L 101.567035 287.510094 
L 103.198465 287.510094 
L 104.829895 287.510094 
L 106.461325 287.510094 
L 108.092755 287.510094 
L 109.724185 287.510094 
L 111.355614 287.510094 
L 112.987044 287.510094 
L 114.618474 287.510094 
L 116.249904 287.510094 
L 117.881334 287.510094 
L 119.512764 287.510094 
L 121.144194 287.510094 
L 122.775624 287.510094 
L 124.407053 287.510094 
L 126.038483 287.510094 
L 127.669913 287.510094 
L 129.301343 287.510094 
L 130.932773 287.510094 
L 132.564203 287.510094 
L 134.195633 287.510094 
L 135.827063 287.510094 
L 137.458492 287.510094 
L 139.089922 287.510094 
L 140.721352 287.510094 
L 142.352782 287.510094 
L 143.984212 287.510094 
L 145.615642 287.510094 
L 147.247072 287.510094 
L 148.878502 287.510094 
L 150.509931 287.510094 
L 152.141361 287.510094 
L 153.772791 287.510094 
L 155.404221 287.510094 
L 157.035651 287.510094 
L 158.667081 287.510094 
L 160.298511 287.510094 
L 161.929941 287.510094 
L 163.56137 287.510094 
L 165.1928 287.510094 
L 166.82423 287.510094 
L 168.45566 287.510094 
L 170.08709 287.510094 
L 171.71852 287.510094 
L 173.34995 287.510094 
L 174.98138 287.510094 
L 176.61281 287.510094 
L 178.244239 287.510094 
L 179.875669 287.510094 
L 181.507099 287.510094 
L 183.138529 287.510094 
L 184.769959 287.510094 
L 186.401389 287.510094 
L 188.032819 287.510094 
L 189.664249 287.510094 
L 191.295678 287.510094 
L 192.927108 287.510094 
L 194.558538 287.510094 
L 196.189968 287.510094 
L 197.821398 287.510094 
L 199.452828 287.510094 
L 201.084258 287.510094 
L 202.715688 287.510094 
L 204.347117 287.510094 
L 205.978547 287.510094 
L 207.609977 287.510094 
L 209.241407 287.510094 
L 210.872837 287.510094 
L 212.504267 287.938824 
L 214.135697 288.071521 
L 215.767127 288.30961 
L 217.398556 288.628061 
L 219.029986 288.664589 
L 220.661416 288.435108 
L 222.292846 288.232668 
L 223.924276 288.201748 
L 225.555706 289.056857 
L 227.187136 288.205121 
L 228.818566 288.614776 
L 230.449995 288.14885 
L 232.081425 288.128274 
L 233.712855 288.085826 
L 235.344285 288.312859 
L 236.975715 288.278342 
L 238.607145 288.227955 
L 240.238575 288.379648 
L 241.870005 288.211612 
L 243.501434 288.153241 
L 245.132864 288.249569 
L 246.764294 288.138704 
L 248.395724 288.110199 
L 250.027154 288.186786 
L 251.658584 289.736435 
L 253.290014 288.262197 
L 254.921444 288.217547 
L 256.552873 288.200267 
L 258.184303 288.166969 
L 259.815733 288.159211 
L 261.447163 288.416702 
L 263.078593 288.214073 
L 264.710023 288.139088 
L 266.341453 288.111402 
L 267.972883 288.145741 
L 269.604312 288.111993 
L 271.235742 288.10774 
L 272.867172 288.191263 
L 274.498602 288.735514 
L 276.130032 288.661435 
L 277.761462 288.140479 
L 279.392892 289.017272 
L 281.024322 288.328897 
L 282.655751 289.447049 
L 284.287181 290.858809 
L 285.918611 291.83573 
L 287.550041 292.809155 
L 289.181471 292.999904 
L 290.812901 292.998102 
L 292.444331 293.105432 
L 294.075761 293.080877 
L 295.70719 293.083636 
L 297.33862 293.075854 
L 298.97005 293.107934 
L 300.60148 293.105108 
L 302.23291 293.143441 
L 303.86434 293.103291 
L 305.49577 293.103745 
L 307.1272 293.101686 
L 308.75863 293.107224 
L 310.390059 293.084038 
L 312.021489 293.069083 
L 313.652919 293.114951 
L 315.284349 293.027222 
L 316.915779 293.055164 
L 318.547209 293.106964 
L 320.178639 293.114186 
L 321.810069 293.108716 
L 323.441498 293.133609 
L 325.072928 293.131744 
L 326.704358 293.154627 
L 328.335788 293.128818 
L 329.967218 293.130511 
L 331.598648 293.147023 
L 333.230078 293.145903 
L 334.861508 293.12094 
L 336.492937 293.123367 
L 338.124367 293.154315 
L 339.755797 293.143363 
L 341.387227 293.147925 
L 343.018657 293.155997 
L 344.650087 293.148288 
L 346.281517 293.142665 
L 347.912947 293.166716 
L 349.544376 293.151911 
L 351.175806 293.142924 
L 352.807236 293.151305 
L 354.438666 293.150868 
L 356.070096 293.156379 
L 357.701526 293.157356 
L 359.332956 293.147619 
L 360.964386 293.146354 
L 362.595815 293.258632 
L 364.227245 294.996916 
L 365.858675 294.995403 
L 367.490105 294.993723 
L 369.121535 295.038557 
L 370.752965 294.97267 
L 372.384395 295.202473 
L 374.015825 295.027553 
L 375.647254 295.076994 
L 377.278684 295.06892 
L 378.910114 295.20168 
L 380.541544 295.160371 
L 382.172974 295.108253 
L 383.804404 295.233724 
L 385.435834 295.234517 
L 387.067264 295.324143 
L 388.698693 295.488 
L 390.330123 295.316384 
L 391.961553 295.242137 
L 393.592983 295.236383 
L 395.224413 295.225321 
L 396.855843 295.248788 
L 398.487273 295.243109 
L 398.487273 87.143758 
L 398.487273 87.143758 
L 396.855843 89.693448 
L 395.224413 171.013907 
L 393.592983 128.40896 
L 391.961553 234.764427 
L 390.330123 139.645931 
L 388.698693 55.124079 
L 387.067264 126.76966 
L 385.435834 118.394309 
L 383.804404 141.557871 
L 382.172974 78.796041 
L 380.541544 58.525638 
L 378.910114 79.928868 
L 377.278684 101.519903 
L 375.647254 79.314467 
L 374.015825 79.879766 
L 372.384395 53.885373 
L 370.752965 248.382304 
L 369.121535 137.957685 
L 367.490105 157.820341 
L 365.858675 110.452546 
L 364.227245 65.154728 
L 362.595815 136.447493 
L 360.964386 99.230615 
L 359.332956 88.827398 
L 357.701526 75.178292 
L 356.070096 168.917313 
L 354.438666 128.790608 
L 352.807236 87.187947 
L 351.175806 200.465094 
L 349.544376 101.351903 
L 347.912947 119.916349 
L 346.281517 110.158301 
L 344.650087 72.098174 
L 343.018657 54.894878 
L 341.387227 83.776111 
L 339.755797 92.692556 
L 338.124367 72.58641 
L 336.492937 143.442811 
L 334.861508 149.229011 
L 333.230078 89.680227 
L 331.598648 108.057001 
L 329.967218 91.561352 
L 328.335788 135.79641 
L 326.704358 53.568 
L 325.072928 109.482778 
L 323.441498 155.979951 
L 321.810069 97.626723 
L 320.178639 183.71561 
L 318.547209 140.687769 
L 316.915779 95.331009 
L 315.284349 67.856066 
L 313.652919 228.905913 
L 312.021489 155.854892 
L 310.390059 107.297686 
L 308.75863 71.047419 
L 307.1272 102.348942 
L 305.49577 127.117493 
L 303.86434 96.874325 
L 302.23291 53.568 
L 300.60148 103.092459 
L 298.97005 79.586019 
L 297.33862 104.045953 
L 295.70719 67.575522 
L 294.075761 129.817024 
L 292.444331 53.568 
L 290.812901 87.301807 
L 289.181471 89.548404 
L 287.550041 56.707571 
L 285.918611 198.427823 
L 284.287181 211.663673 
L 282.655751 211.91008 
L 281.024322 211.069201 
L 279.392892 181.798116 
L 277.761462 128.425901 
L 276.130032 164.156289 
L 274.498602 183.278535 
L 272.867172 177.330347 
L 271.235742 146.394943 
L 269.604312 139.611345 
L 267.972883 177.287052 
L 266.341453 135.451206 
L 264.710023 110.026175 
L 263.078593 192.273178 
L 261.447163 142.959447 
L 259.815733 183.056326 
L 258.184303 109.758103 
L 256.552873 153.153474 
L 254.921444 212.917608 
L 253.290014 201.723621 
L 251.658584 253.355386 
L 250.027154 252.633509 
L 248.395724 176.729215 
L 246.764294 188.442554 
L 245.132864 208.820776 
L 243.501434 161.616503 
L 241.870005 188.603883 
L 240.238575 254.109611 
L 238.607145 243.159706 
L 236.975715 260.049918 
L 235.344285 264.411032 
L 233.712855 153.175299 
L 232.081425 213.058904 
L 230.449995 144.205663 
L 228.818566 245.23879 
L 227.187136 182.146302 
L 225.555706 261.961203 
L 223.924276 211.06647 
L 222.292846 131.559534 
L 220.661416 244.05578 
L 219.029986 222.052353 
L 217.398556 254.252305 
L 215.767127 252.060695 
L 214.135697 248.016328 
L 212.504267 225.063444 
L 210.872837 280.620738 
L 209.241407 223.34451 
L 207.609977 198.563596 
L 205.978547 216.015397 
L 204.347117 210.514305 
L 202.715688 222.586137 
L 201.084258 253.288665 
L 199.452828 213.33523 
L 197.821398 286.235156 
L 196.189968 286.235156 
L 194.558538 286.235156 
L 192.927108 286.235156 
L 191.295678 286.235156 
L 189.664249 286.235156 
L 188.032819 286.235156 
L 186.401389 286.235156 
L 184.769959 286.235156 
L 183.138529 286.235156 
L 181.507099 286.235156 
L 179.875669 286.235156 
L 178.244239 286.235156 
L 176.61281 286.235156 
L 174.98138 286.235156 
L 173.34995 286.235156 
L 171.71852 286.235156 
L 170.08709 286.235156 
L 168.45566 286.235156 
L 166.82423 286.235156 
L 165.1928 286.235156 
L 163.56137 286.235156 
L 161.929941 286.235156 
L 160.298511 286.235156 
L 158.667081 286.235156 
L 157.035651 286.235156 
L 155.404221 286.235156 
L 153.772791 286.235156 
L 152.141361 286.235156 
L 150.509931 286.235156 
L 148.878502 286.235156 
L 147.247072 286.235156 
L 145.615642 286.235156 
L 143.984212 286.235156 
L 142.352782 286.235156 
L 140.721352 286.235156 
L 139.089922 286.235156 
L 137.458492 286.235156 
L 135.827063 286.235156 
L 134.195633 286.235156 
L 132.564203 286.235156 
L 130.932773 286.235156 
L 129.301343 286.235156 
L 127.669913 286.235156 
L 126.038483 286.235156 
L 124.407053 286.235156 
L 122.775624 286.235156 
L 121.144194 286.235156 
L 119.512764 286.235156 
L 117.881334 286.235156 
L 116.249904 286.235156 
L 114.618474 286.235156 
L 112.987044 286.235156 
L 111.355614 286.235156 
L 109.724185 286.235156 
L 108.092755 286.235156 
L 106.461325 286.235156 
L 104.829895 286.235156 
L 103.198465 286.235156 
L 101.567035 286.235156 
L 99.935605 286.235156 
L 98.304175 286.235156 
L 96.672746 286.235156 
L 95.041316 286.235156 
L 93.409886 286.235156 
L 91.778456 286.235156 
L 90.147026 286.235156 
L 88.515596 286.235156 
L 86.884166 286.235156 
L 85.252736 286.235156 
L 83.621307 286.235156 
L 81.989877 286.235156 
L 80.358447 286.235156 
L 78.727017 286.235156 
L 77.095587 286.235156 
L 75.464157 286.235156 
L 73.832727 286.235156 
z
" style="fill:#1f77b4;fill-opacity:0.1;"/>
   </g>
   <g id="matplotlib.axis_1">
    <g id="xtick_1">
     <g id="line2d_1">
      <defs>
       <path d="M 0 0 
L 0 3.5 
" id="m9995af13c2" style="stroke:#000000;stroke-width:0.8;"/>
      </defs>
      <g>
       <use style="stroke:#000000;stroke-width:0.8;" x="73.832727" xlink:href="#m9995af13c2" y="307.584"/>
      </g>
     </g>
     <g id="text_1">
      <!-- 0 -->
      <defs>
       <path d="M 31.78125 66.40625 
Q 24.171875 66.40625 20.328125 58.90625 
Q 16.5 51.421875 16.5 36.375 
Q 16.5 21.390625 20.328125 13.890625 
Q 24.171875 6.390625 31.78125 6.390625 
Q 39.453125 6.390625 43.28125 13.890625 
Q 47.125 21.390625 47.125 36.375 
Q 47.125 51.421875 43.28125 58.90625 
Q 39.453125 66.40625 31.78125 66.40625 
z
M 31.78125 74.21875 
Q 44.046875 74.21875 50.515625 64.515625 
Q 56.984375 54.828125 56.984375 36.375 
Q 56.984375 17.96875 50.515625 8.265625 
Q 44.046875 -1.421875 31.78125 -1.421875 
Q 19.53125 -1.421875 13.0625 8.265625 
Q 6.59375 17.96875 6.59375 36.375 
Q 6.59375 54.828125 13.0625 64.515625 
Q 19.53125 74.21875 31.78125 74.21875 
z
" id="DejaVuSans-48"/>
      </defs>
      <g transform="translate(70.651477 322.182437)scale(0.1 -0.1)">
       <use xlink:href="#DejaVuSans-48"/>
      </g>
     </g>
    </g>
    <g id="xtick_2">
     <g id="line2d_2">
      <g>
       <use style="stroke:#000000;stroke-width:0.8;" x="114.618474" xlink:href="#m9995af13c2" y="307.584"/>
      </g>
     </g>
     <g id="text_2">
      <!-- 25 -->
      <defs>
       <path d="M 19.1875 8.296875 
L 53.609375 8.296875 
L 53.609375 0 
L 7.328125 0 
L 7.328125 8.296875 
Q 12.9375 14.109375 22.625 23.890625 
Q 32.328125 33.6875 34.8125 36.53125 
Q 39.546875 41.84375 41.421875 45.53125 
Q 43.3125 49.21875 43.3125 52.78125 
Q 43.3125 58.59375 39.234375 62.25 
Q 35.15625 65.921875 28.609375 65.921875 
Q 23.96875 65.921875 18.8125 64.3125 
Q 13.671875 62.703125 7.8125 59.421875 
L 7.8125 69.390625 
Q 13.765625 71.78125 18.9375 73 
Q 24.125 74.21875 28.421875 74.21875 
Q 39.75 74.21875 46.484375 68.546875 
Q 53.21875 62.890625 53.21875 53.421875 
Q 53.21875 48.921875 51.53125 44.890625 
Q 49.859375 40.875 45.40625 35.40625 
Q 44.1875 33.984375 37.640625 27.21875 
Q 31.109375 20.453125 19.1875 8.296875 
z
" id="DejaVuSans-50"/>
       <path d="M 10.796875 72.90625 
L 49.515625 72.90625 
L 49.515625 64.59375 
L 19.828125 64.59375 
L 19.828125 46.734375 
Q 21.96875 47.46875 24.109375 47.828125 
Q 26.265625 48.1875 28.421875 48.1875 
Q 40.625 48.1875 47.75 41.5 
Q 54.890625 34.8125 54.890625 23.390625 
Q 54.890625 11.625 47.5625 5.09375 
Q 40.234375 -1.421875 26.90625 -1.421875 
Q 22.3125 -1.421875 17.546875 -0.640625 
Q 12.796875 0.140625 7.71875 1.703125 
L 7.71875 11.625 
Q 12.109375 9.234375 16.796875 8.0625 
Q 21.484375 6.890625 26.703125 6.890625 
Q 35.15625 6.890625 40.078125 11.328125 
Q 45.015625 15.765625 45.015625 23.390625 
Q 45.015625 31 40.078125 35.4375 
Q 35.15625 39.890625 26.703125 39.890625 
Q 22.75 39.890625 18.8125 39.015625 
Q 14.890625 38.140625 10.796875 36.28125 
z
" id="DejaVuSans-53"/>
      </defs>
      <g transform="translate(108.255974 322.182437)scale(0.1 -0.1)">
       <use xlink:href="#DejaVuSans-50"/>
       <use x="63.623047" xlink:href="#DejaVuSans-53"/>
      </g>
     </g>
    </g>
    <g id="xtick_3">
     <g id="line2d_3">
      <g>
       <use style="stroke:#000000;stroke-width:0.8;" x="155.404221" xlink:href="#m9995af13c2" y="307.584"/>
      </g>
     </g>
     <g id="text_3">
      <!-- 50 -->
      <g transform="translate(149.041721 322.182437)scale(0.1 -0.1)">
       <use xlink:href="#DejaVuSans-53"/>
       <use x="63.623047" xlink:href="#DejaVuSans-48"/>
      </g>
     </g>
    </g>
    <g id="xtick_4">
     <g id="line2d_4">
      <g>
       <use style="stroke:#000000;stroke-width:0.8;" x="196.189968" xlink:href="#m9995af13c2" y="307.584"/>
      </g>
     </g>
     <g id="text_4">
      <!-- 75 -->
      <defs>
       <path d="M 8.203125 72.90625 
L 55.078125 72.90625 
L 55.078125 68.703125 
L 28.609375 0 
L 18.3125 0 
L 43.21875 64.59375 
L 8.203125 64.59375 
z
" id="DejaVuSans-55"/>
      </defs>
      <g transform="translate(189.827468 322.182437)scale(0.1 -0.1)">
       <use xlink:href="#DejaVuSans-55"/>
       <use x="63.623047" xlink:href="#DejaVuSans-53"/>
      </g>
     </g>
    </g>
    <g id="xtick_5">
     <g id="line2d_5">
      <g>
       <use style="stroke:#000000;stroke-width:0.8;" x="236.975715" xlink:href="#m9995af13c2" y="307.584"/>
      </g>
     </g>
     <g id="text_5">
      <!-- 100 -->
      <defs>
       <path d="M 12.40625 8.296875 
L 28.515625 8.296875 
L 28.515625 63.921875 
L 10.984375 60.40625 
L 10.984375 69.390625 
L 28.421875 72.90625 
L 38.28125 72.90625 
L 38.28125 8.296875 
L 54.390625 8.296875 
L 54.390625 0 
L 12.40625 0 
z
" id="DejaVuSans-49"/>
      </defs>
      <g transform="translate(227.431965 322.182437)scale(0.1 -0.1)">
       <use xlink:href="#DejaVuSans-49"/>
       <use x="63.623047" xlink:href="#DejaVuSans-48"/>
       <use x="127.246094" xlink:href="#DejaVuSans-48"/>
      </g>
     </g>
    </g>
    <g id="xtick_6">
     <g id="line2d_6">
      <g>
       <use style="stroke:#000000;stroke-width:0.8;" x="277.761462" xlink:href="#m9995af13c2" y="307.584"/>
      </g>
     </g>
     <g id="text_6">
      <!-- 125 -->
      <g transform="translate(268.217712 322.182437)scale(0.1 -0.1)">
       <use xlink:href="#DejaVuSans-49"/>
       <use x="63.623047" xlink:href="#DejaVuSans-50"/>
       <use x="127.246094" xlink:href="#DejaVuSans-53"/>
      </g>
     </g>
    </g>
    <g id="xtick_7">
     <g id="line2d_7">
      <g>
       <use style="stroke:#000000;stroke-width:0.8;" x="318.547209" xlink:href="#m9995af13c2" y="307.584"/>
      </g>
     </g>
     <g id="text_7">
      <!-- 150 -->
      <g transform="translate(309.003459 322.182437)scale(0.1 -0.1)">
       <use xlink:href="#DejaVuSans-49"/>
       <use x="63.623047" xlink:href="#DejaVuSans-53"/>
       <use x="127.246094" xlink:href="#DejaVuSans-48"/>
      </g>
     </g>
    </g>
    <g id="xtick_8">
     <g id="line2d_8">
      <g>
       <use style="stroke:#000000;stroke-width:0.8;" x="359.332956" xlink:href="#m9995af13c2" y="307.584"/>
      </g>
     </g>
     <g id="text_8">
      <!-- 175 -->
      <g transform="translate(349.789206 322.182437)scale(0.1 -0.1)">
       <use xlink:href="#DejaVuSans-49"/>
       <use x="63.623047" xlink:href="#DejaVuSans-55"/>
       <use x="127.246094" xlink:href="#DejaVuSans-53"/>
      </g>
     </g>
    </g>
    <g id="xtick_9">
     <g id="line2d_9">
      <g>
       <use style="stroke:#000000;stroke-width:0.8;" x="400.118703" xlink:href="#m9995af13c2" y="307.584"/>
      </g>
     </g>
     <g id="text_9">
      <!-- 200 -->
      <g transform="translate(390.574953 322.182437)scale(0.1 -0.1)">
       <use xlink:href="#DejaVuSans-50"/>
       <use x="63.623047" xlink:href="#DejaVuSans-48"/>
       <use x="127.246094" xlink:href="#DejaVuSans-48"/>
      </g>
     </g>
    </g>
   </g>
   <g id="matplotlib.axis_2">
    <g id="ytick_1">
     <g id="line2d_10">
      <defs>
       <path d="M 0 0 
L -3.5 0 
" id="mf9b6c0b870" style="stroke:#000000;stroke-width:0.8;"/>
      </defs>
      <g>
       <use style="stroke:#000000;stroke-width:0.8;" x="57.6" xlink:href="#mf9b6c0b870" y="299.231207"/>
      </g>
     </g>
     <g id="text_10">
      <!-- 0 -->
      <g transform="translate(44.2375 303.030426)scale(0.1 -0.1)">
       <use xlink:href="#DejaVuSans-48"/>
      </g>
     </g>
    </g>
    <g id="ytick_2">
     <g id="line2d_11">
      <g>
       <use style="stroke:#000000;stroke-width:0.8;" x="57.6" xlink:href="#mf9b6c0b870" y="245.88612"/>
      </g>
     </g>
     <g id="text_11">
      <!-- 5 -->
      <g transform="translate(44.2375 249.685338)scale(0.1 -0.1)">
       <use xlink:href="#DejaVuSans-53"/>
      </g>
     </g>
    </g>
    <g id="ytick_3">
     <g id="line2d_12">
      <g>
       <use style="stroke:#000000;stroke-width:0.8;" x="57.6" xlink:href="#mf9b6c0b870" y="192.541032"/>
      </g>
     </g>
     <g id="text_12">
      <!-- 10 -->
      <g transform="translate(37.875 196.340251)scale(0.1 -0.1)">
       <use xlink:href="#DejaVuSans-49"/>
       <use x="63.623047" xlink:href="#DejaVuSans-48"/>
      </g>
     </g>
    </g>
    <g id="ytick_4">
     <g id="line2d_13">
      <g>
       <use style="stroke:#000000;stroke-width:0.8;" x="57.6" xlink:href="#mf9b6c0b870" y="139.195944"/>
      </g>
     </g>
     <g id="text_13">
      <!-- 15 -->
      <g transform="translate(37.875 142.995163)scale(0.1 -0.1)">
       <use xlink:href="#DejaVuSans-49"/>
       <use x="63.623047" xlink:href="#DejaVuSans-53"/>
      </g>
     </g>
    </g>
    <g id="ytick_5">
     <g id="line2d_14">
      <g>
       <use style="stroke:#000000;stroke-width:0.8;" x="57.6" xlink:href="#mf9b6c0b870" y="85.850857"/>
      </g>
     </g>
     <g id="text_14">
      <!-- 20 -->
      <g transform="translate(37.875 89.650075)scale(0.1 -0.1)">
       <use xlink:href="#DejaVuSans-50"/>
       <use x="63.623047" xlink:href="#DejaVuSans-48"/>
      </g>
     </g>
    </g>
   </g>
   <g id="line2d_15">
    <path clip-path="url(#p044abe9255)" d="M 73.832727 287.510094 
L 75.464157 287.510094 
L 77.095587 287.199648 
L 78.727017 287.510094 
L 86.884166 287.510094 
L 88.515596 287.354871 
L 90.147026 287.510094 
L 96.672746 287.510094 
L 98.304175 287.199648 
L 99.935605 287.510094 
L 101.567035 287.199648 
L 103.198465 287.510094 
L 108.092755 287.510094 
L 109.724185 287.354871 
L 111.355614 287.510094 
L 112.987044 287.199648 
L 114.618474 287.510094 
L 117.881334 287.510094 
L 119.512764 287.199648 
L 121.144194 287.510094 
L 124.407053 287.510094 
L 126.038483 287.354871 
L 127.669913 287.354871 
L 129.301343 287.510094 
L 130.932773 287.510094 
L 132.564203 287.354871 
L 134.195633 287.510094 
L 178.244239 287.510094 
L 179.875669 287.199648 
L 181.507099 287.199648 
L 184.769959 287.510094 
L 189.664249 287.510094 
L 191.295678 287.199648 
L 192.927108 287.510094 
L 194.558538 287.510094 
L 196.189968 287.199648 
L 197.821398 287.199648 
L 199.452828 287.510094 
L 207.609977 287.510094 
L 209.241407 287.354871 
L 210.872837 286.696501 
L 212.504267 287.062241 
L 214.135697 286.532722 
L 215.767127 287.512977 
L 217.398556 287.564278 
L 219.029986 287.813489 
L 220.661416 287.651778 
L 222.292846 285.240556 
L 223.924276 285.806155 
L 225.555706 287.900033 
L 227.187136 286.501917 
L 228.818566 287.107619 
L 230.449995 286.134744 
L 232.081425 286.673021 
L 233.712855 285.496572 
L 235.344285 286.760572 
L 236.975715 286.489125 
L 238.607145 285.999304 
L 240.238575 287.522892 
L 241.870005 287.259618 
L 243.501434 286.602253 
L 245.132864 287.415443 
L 248.395724 286.357325 
L 250.027154 286.566689 
L 251.658584 288.282568 
L 254.921444 285.826677 
L 256.552873 286.506608 
L 258.184303 285.242916 
L 261.447163 286.407452 
L 263.078593 286.119135 
L 264.710023 285.158397 
L 266.341453 286.487653 
L 267.972883 286.53129 
L 269.604312 285.344379 
L 271.235742 285.873216 
L 272.867172 286.809939 
L 274.498602 286.51871 
L 276.130032 286.502507 
L 277.761462 276.267564 
L 279.392892 287.20744 
L 281.024322 286.369655 
L 282.655751 286.971428 
L 284.287181 287.936281 
L 285.918611 286.502462 
L 287.550041 287.041049 
L 289.181471 286.797362 
L 290.812901 287.232943 
L 292.444331 286.99767 
L 294.075761 288.114397 
L 295.70719 286.74385 
L 297.33862 288.497196 
L 298.97005 287.380969 
L 300.60148 288.10111 
L 302.23291 286.919516 
L 303.86434 288.080024 
L 305.49577 287.516888 
L 307.1272 287.13538 
L 308.75863 287.757955 
L 310.390059 288.201685 
L 312.021489 287.919445 
L 313.652919 289.171883 
L 315.284349 286.82435 
L 316.915779 288.409845 
L 318.547209 287.45583 
L 320.178639 287.951374 
L 321.810069 287.172518 
L 323.441498 288.224009 
L 325.072928 287.545391 
L 326.704358 288.093668 
L 328.335788 287.520809 
L 331.598648 287.915958 
L 333.230078 288.261441 
L 334.861508 290.504943 
L 336.492937 286.602033 
L 338.124367 287.676752 
L 339.755797 287.694428 
L 341.387227 287.110641 
L 343.018657 287.604116 
L 344.650087 286.743566 
L 346.281517 286.867765 
L 347.912947 292.330554 
L 349.544376 288.452823 
L 351.175806 288.182029 
L 352.807236 288.047878 
L 354.438666 288.341491 
L 356.070096 287.843967 
L 357.701526 286.134391 
L 359.332956 286.308996 
L 360.964386 286.738682 
L 362.595815 288.218449 
L 364.227245 287.295776 
L 367.490105 287.519012 
L 369.121535 287.376336 
L 370.752965 290.890707 
L 372.384395 285.194934 
L 374.015825 287.408667 
L 375.647254 290.005843 
L 377.278684 288.004183 
L 378.910114 286.922649 
L 380.541544 289.161395 
L 382.172974 285.572419 
L 383.804404 291.035342 
L 385.435834 290.741708 
L 387.067264 291.880718 
L 388.698693 288.040651 
L 390.330123 287.481144 
L 391.961553 289.225948 
L 393.592983 290.789404 
L 395.224413 288.007209 
L 398.487273 288.064993 
L 398.487273 288.064993 
" style="fill:none;stroke:#1f77b4;stroke-linecap:square;stroke-width:0.25;"/>
   </g>
   <g id="line2d_16">
    <path clip-path="url(#p044abe9255)" d="M 73.832727 287.089696 
L 77.095587 286.963197 
L 78.727017 287.10344 
L 80.358447 287.030048 
L 81.989877 287.157542 
L 83.621307 286.981492 
L 86.884166 287.039361 
L 88.515596 286.940139 
L 90.147026 287.116189 
L 91.778456 286.988032 
L 96.672746 287.065192 
L 98.304175 286.975946 
L 99.935605 287.09069 
L 101.567035 287.01109 
L 104.829895 287.154769 
L 106.461325 287.062087 
L 108.092755 287.135479 
L 109.724185 287.026943 
L 111.355614 287.061424 
L 112.987044 286.908763 
L 114.618474 287.093463 
L 117.881334 287.074173 
L 119.512764 286.99834 
L 121.144194 287.126166 
L 132.564203 287.017298 
L 135.827063 287.170291 
L 143.984212 287.097231 
L 145.615642 287.004218 
L 147.247072 287.14856 
L 158.667081 287.016967 
L 161.929941 287.106544 
L 165.1928 287.074836 
L 171.71852 287.026612 
L 173.34995 287.180268 
L 174.98138 287.06486 
L 178.244239 287.091022 
L 179.875669 286.912199 
L 183.138529 287.036588 
L 186.401389 287.042466 
L 188.032819 287.148228 
L 192.927108 286.991468 
L 194.558538 287.196453 
L 196.189968 286.975614 
L 197.821398 286.982155 
L 199.452828 285.707324 
L 201.084258 286.546425 
L 202.715688 286.301099 
L 204.347117 285.908213 
L 205.978547 284.984943 
L 207.609977 283.62345 
L 209.241407 285.700403 
L 210.872837 286.31458 
L 212.504267 285.49224 
L 214.135697 284.150382 
L 217.398556 285.680652 
L 219.029986 285.507657 
L 220.661416 285.793987 
L 222.292846 275.31163 
L 223.924276 281.965205 
L 225.555706 285.680493 
L 227.187136 282.753941 
L 228.818566 283.195217 
L 230.449995 279.995005 
L 232.081425 283.830524 
L 233.712855 277.177711 
L 235.344285 284.774168 
L 236.975715 284.485029 
L 238.607145 283.293011 
L 240.238575 283.551017 
L 241.870005 280.384685 
L 243.501434 282.976701 
L 245.132864 283.049517 
L 246.764294 282.260608 
L 248.395724 280.492243 
L 250.027154 284.606664 
L 251.658584 286.573574 
L 253.290014 282.408531 
L 254.921444 280.961841 
L 256.552873 280.495476 
L 258.184303 277.592083 
L 259.815733 276.278324 
L 261.447163 279.075695 
L 263.078593 280.261414 
L 264.710023 275.219646 
L 267.972883 278.523712 
L 269.604312 272.837299 
L 271.235742 277.699829 
L 274.498602 278.658884 
L 277.761462 267.514854 
L 279.392892 283.17509 
L 281.024322 282.203699 
L 282.655751 283.949088 
L 284.287181 284.645927 
L 285.918611 282.419793 
L 287.550041 270.769984 
L 289.181471 268.37301 
L 290.812901 269.0703 
L 292.444331 267.831579 
L 294.075761 282.945438 
L 295.70719 274.866326 
L 297.33862 279.273262 
L 298.97005 273.453533 
L 300.60148 273.869628 
L 302.23291 266.016278 
L 303.86434 272.848398 
L 305.49577 281.105017 
L 307.1272 279.400883 
L 308.75863 281.500918 
L 310.390059 278.6165 
L 313.652919 287.079581 
L 315.284349 265.808719 
L 316.915779 275.625103 
L 318.547209 277.68657 
L 320.178639 281.358171 
L 321.810069 272.768898 
L 323.441498 280.461359 
L 325.072928 280.345045 
L 326.704358 272.244889 
L 328.335788 277.092963 
L 329.967218 273.129675 
L 331.598648 279.457963 
L 333.230078 278.265913 
L 334.861508 282.396318 
L 336.492937 275.516153 
L 338.124367 278.579256 
L 339.755797 276.102852 
L 341.387227 280.598293 
L 343.018657 270.551235 
L 344.650087 276.00436 
L 346.281517 275.369449 
L 347.912947 285.739905 
L 349.544376 274.632071 
L 351.175806 282.058613 
L 352.807236 278.169152 
L 354.438666 280.953227 
L 356.070096 280.952063 
L 357.701526 271.480176 
L 359.332956 271.563255 
L 360.964386 273.769145 
L 362.595815 280.166339 
L 364.227245 269.433874 
L 365.858675 275.742762 
L 367.490105 283.268107 
L 369.121535 279.752112 
L 370.752965 288.553609 
L 372.384395 280.145188 
L 374.015825 279.6547 
L 375.647254 275.59836 
L 377.278684 279.699559 
L 378.910114 275.177435 
L 380.541544 275.15808 
L 382.172974 272.986747 
L 383.804404 283.439131 
L 385.435834 283.72838 
L 387.067264 279.435802 
L 388.698693 269.811223 
L 390.330123 281.556113 
L 391.961553 287.694529 
L 393.592983 278.655767 
L 395.224413 276.460136 
L 396.855843 280.227001 
L 398.487273 275.239425 
L 398.487273 275.239425 
" style="fill:none;stroke:#2ca02c;stroke-linecap:square;stroke-width:0.75;"/>
   </g>
   <g id="patch_3">
    <path d="M 57.6 307.584 
L 57.6 41.472 
" style="fill:none;stroke:#000000;stroke-linecap:square;stroke-linejoin:miter;stroke-width:0.8;"/>
   </g>
   <g id="patch_4">
    <path d="M 414.72 307.584 
L 414.72 41.472 
" style="fill:none;stroke:#000000;stroke-linecap:square;stroke-linejoin:miter;stroke-width:0.8;"/>
   </g>
   <g id="patch_5">
    <path d="M 57.6 307.584 
L 414.72 307.584 
" style="fill:none;stroke:#000000;stroke-linecap:square;stroke-linejoin:miter;stroke-width:0.8;"/>
   </g>
   <g id="patch_6">
    <path d="M 57.6 41.472 
L 414.72 41.472 
" style="fill:none;stroke:#000000;stroke-linecap:square;stroke-linejoin:miter;stroke-width:0.8;"/>
   </g>
   <g id="legend_1">
    <g id="patch_7">
     <path d="M 338.234063 78.82825 
L 407.72 78.82825 
Q 409.72 78.82825 409.72 76.82825 
L 409.72 48.472 
Q 409.72 46.472 407.72 46.472 
L 338.234063 46.472 
Q 336.234063 46.472 336.234063 48.472 
L 336.234063 76.82825 
Q 336.234063 78.82825 338.234063 78.82825 
z
" style="fill:#ffffff;opacity:0.8;stroke:#cccccc;stroke-linejoin:miter;"/>
    </g>
    <g id="line2d_17">
     <path d="M 340.234063 54.570437 
L 360.234063 54.570437 
" style="fill:none;stroke:#1f77b4;stroke-linecap:square;stroke-width:0.25;"/>
    </g>
    <g id="line2d_18"/>
    <g id="text_15">
     <!-- median -->
     <defs>
      <path d="M 52 44.1875 
Q 55.375 50.25 60.0625 53.125 
Q 64.75 56 71.09375 56 
Q 79.640625 56 84.28125 50.015625 
Q 88.921875 44.046875 88.921875 33.015625 
L 88.921875 0 
L 79.890625 0 
L 79.890625 32.71875 
Q 79.890625 40.578125 77.09375 44.375 
Q 74.3125 48.1875 68.609375 48.1875 
Q 61.625 48.1875 57.5625 43.546875 
Q 53.515625 38.921875 53.515625 30.90625 
L 53.515625 0 
L 44.484375 0 
L 44.484375 32.71875 
Q 44.484375 40.625 41.703125 44.40625 
Q 38.921875 48.1875 33.109375 48.1875 
Q 26.21875 48.1875 22.15625 43.53125 
Q 18.109375 38.875 18.109375 30.90625 
L 18.109375 0 
L 9.078125 0 
L 9.078125 54.6875 
L 18.109375 54.6875 
L 18.109375 46.1875 
Q 21.1875 51.21875 25.484375 53.609375 
Q 29.78125 56 35.6875 56 
Q 41.65625 56 45.828125 52.96875 
Q 50 49.953125 52 44.1875 
z
" id="DejaVuSans-109"/>
      <path d="M 56.203125 29.59375 
L 56.203125 25.203125 
L 14.890625 25.203125 
Q 15.484375 15.921875 20.484375 11.0625 
Q 25.484375 6.203125 34.421875 6.203125 
Q 39.59375 6.203125 44.453125 7.46875 
Q 49.3125 8.734375 54.109375 11.28125 
L 54.109375 2.78125 
Q 49.265625 0.734375 44.1875 -0.34375 
Q 39.109375 -1.421875 33.890625 -1.421875 
Q 20.796875 -1.421875 13.15625 6.1875 
Q 5.515625 13.8125 5.515625 26.8125 
Q 5.515625 40.234375 12.765625 48.109375 
Q 20.015625 56 32.328125 56 
Q 43.359375 56 49.78125 48.890625 
Q 56.203125 41.796875 56.203125 29.59375 
z
M 47.21875 32.234375 
Q 47.125 39.59375 43.09375 43.984375 
Q 39.0625 48.390625 32.421875 48.390625 
Q 24.90625 48.390625 20.390625 44.140625 
Q 15.875 39.890625 15.1875 32.171875 
z
" id="DejaVuSans-101"/>
      <path d="M 45.40625 46.390625 
L 45.40625 75.984375 
L 54.390625 75.984375 
L 54.390625 0 
L 45.40625 0 
L 45.40625 8.203125 
Q 42.578125 3.328125 38.25 0.953125 
Q 33.9375 -1.421875 27.875 -1.421875 
Q 17.96875 -1.421875 11.734375 6.484375 
Q 5.515625 14.40625 5.515625 27.296875 
Q 5.515625 40.1875 11.734375 48.09375 
Q 17.96875 56 27.875 56 
Q 33.9375 56 38.25 53.625 
Q 42.578125 51.265625 45.40625 46.390625 
z
M 14.796875 27.296875 
Q 14.796875 17.390625 18.875 11.75 
Q 22.953125 6.109375 30.078125 6.109375 
Q 37.203125 6.109375 41.296875 11.75 
Q 45.40625 17.390625 45.40625 27.296875 
Q 45.40625 37.203125 41.296875 42.84375 
Q 37.203125 48.484375 30.078125 48.484375 
Q 22.953125 48.484375 18.875 42.84375 
Q 14.796875 37.203125 14.796875 27.296875 
z
" id="DejaVuSans-100"/>
      <path d="M 9.421875 54.6875 
L 18.40625 54.6875 
L 18.40625 0 
L 9.421875 0 
z
M 9.421875 75.984375 
L 18.40625 75.984375 
L 18.40625 64.59375 
L 9.421875 64.59375 
z
" id="DejaVuSans-105"/>
      <path d="M 34.28125 27.484375 
Q 23.390625 27.484375 19.1875 25 
Q 14.984375 22.515625 14.984375 16.5 
Q 14.984375 11.71875 18.140625 8.90625 
Q 21.296875 6.109375 26.703125 6.109375 
Q 34.1875 6.109375 38.703125 11.40625 
Q 43.21875 16.703125 43.21875 25.484375 
L 43.21875 27.484375 
z
M 52.203125 31.203125 
L 52.203125 0 
L 43.21875 0 
L 43.21875 8.296875 
Q 40.140625 3.328125 35.546875 0.953125 
Q 30.953125 -1.421875 24.3125 -1.421875 
Q 15.921875 -1.421875 10.953125 3.296875 
Q 6 8.015625 6 15.921875 
Q 6 25.140625 12.171875 29.828125 
Q 18.359375 34.515625 30.609375 34.515625 
L 43.21875 34.515625 
L 43.21875 35.40625 
Q 43.21875 41.609375 39.140625 45 
Q 35.0625 48.390625 27.6875 48.390625 
Q 23 48.390625 18.546875 47.265625 
Q 14.109375 46.140625 10.015625 43.890625 
L 10.015625 52.203125 
Q 14.9375 54.109375 19.578125 55.046875 
Q 24.21875 56 28.609375 56 
Q 40.484375 56 46.34375 49.84375 
Q 52.203125 43.703125 52.203125 31.203125 
z
" id="DejaVuSans-97"/>
      <path d="M 54.890625 33.015625 
L 54.890625 0 
L 45.90625 0 
L 45.90625 32.71875 
Q 45.90625 40.484375 42.875 44.328125 
Q 39.84375 48.1875 33.796875 48.1875 
Q 26.515625 48.1875 22.3125 43.546875 
Q 18.109375 38.921875 18.109375 30.90625 
L 18.109375 0 
L 9.078125 0 
L 9.078125 54.6875 
L 18.109375 54.6875 
L 18.109375 46.1875 
Q 21.34375 51.125 25.703125 53.5625 
Q 30.078125 56 35.796875 56 
Q 45.21875 56 50.046875 50.171875 
Q 54.890625 44.34375 54.890625 33.015625 
z
" id="DejaVuSans-110"/>
     </defs>
     <g transform="translate(368.234063 58.070437)scale(0.1 -0.1)">
      <use xlink:href="#DejaVuSans-109"/>
      <use x="97.412109" xlink:href="#DejaVuSans-101"/>
      <use x="158.935547" xlink:href="#DejaVuSans-100"/>
      <use x="222.412109" xlink:href="#DejaVuSans-105"/>
      <use x="250.195312" xlink:href="#DejaVuSans-97"/>
      <use x="311.474609" xlink:href="#DejaVuSans-110"/>
     </g>
    </g>
    <g id="line2d_19">
     <path d="M 340.234063 69.248562 
L 360.234063 69.248562 
" style="fill:none;stroke:#2ca02c;stroke-linecap:square;stroke-width:0.75;"/>
    </g>
    <g id="line2d_20"/>
    <g id="text_16">
     <!-- mean -->
     <g transform="translate(368.234063 72.748562)scale(0.1 -0.1)">
      <use xlink:href="#DejaVuSans-109"/>
      <use x="97.412109" xlink:href="#DejaVuSans-101"/>
      <use x="158.935547" xlink:href="#DejaVuSans-97"/>
      <use x="220.214844" xlink:href="#DejaVuSans-110"/>
     </g>
    </g>
   </g>
  </g>
  <g id="text_17">
   <!-- log_loss.mean over generations -->
   <defs>
    <path d="M 9.421875 75.984375 
L 18.40625 75.984375 
L 18.40625 0 
L 9.421875 0 
z
" id="DejaVuSans-108"/>
    <path d="M 30.609375 48.390625 
Q 23.390625 48.390625 19.1875 42.75 
Q 14.984375 37.109375 14.984375 27.296875 
Q 14.984375 17.484375 19.15625 11.84375 
Q 23.34375 6.203125 30.609375 6.203125 
Q 37.796875 6.203125 41.984375 11.859375 
Q 46.1875 17.53125 46.1875 27.296875 
Q 46.1875 37.015625 41.984375 42.703125 
Q 37.796875 48.390625 30.609375 48.390625 
z
M 30.609375 56 
Q 42.328125 56 49.015625 48.375 
Q 55.71875 40.765625 55.71875 27.296875 
Q 55.71875 13.875 49.015625 6.21875 
Q 42.328125 -1.421875 30.609375 -1.421875 
Q 18.84375 -1.421875 12.171875 6.21875 
Q 5.515625 13.875 5.515625 27.296875 
Q 5.515625 40.765625 12.171875 48.375 
Q 18.84375 56 30.609375 56 
z
" id="DejaVuSans-111"/>
    <path d="M 45.40625 27.984375 
Q 45.40625 37.75 41.375 43.109375 
Q 37.359375 48.484375 30.078125 48.484375 
Q 22.859375 48.484375 18.828125 43.109375 
Q 14.796875 37.75 14.796875 27.984375 
Q 14.796875 18.265625 18.828125 12.890625 
Q 22.859375 7.515625 30.078125 7.515625 
Q 37.359375 7.515625 41.375 12.890625 
Q 45.40625 18.265625 45.40625 27.984375 
z
M 54.390625 6.78125 
Q 54.390625 -7.171875 48.1875 -13.984375 
Q 42 -20.796875 29.203125 -20.796875 
Q 24.46875 -20.796875 20.265625 -20.09375 
Q 16.0625 -19.390625 12.109375 -17.921875 
L 12.109375 -9.1875 
Q 16.0625 -11.328125 19.921875 -12.34375 
Q 23.78125 -13.375 27.78125 -13.375 
Q 36.625 -13.375 41.015625 -8.765625 
Q 45.40625 -4.15625 45.40625 5.171875 
L 45.40625 9.625 
Q 42.625 4.78125 38.28125 2.390625 
Q 33.9375 0 27.875 0 
Q 17.828125 0 11.671875 7.65625 
Q 5.515625 15.328125 5.515625 27.984375 
Q 5.515625 40.671875 11.671875 48.328125 
Q 17.828125 56 27.875 56 
Q 33.9375 56 38.28125 53.609375 
Q 42.625 51.21875 45.40625 46.390625 
L 45.40625 54.6875 
L 54.390625 54.6875 
z
" id="DejaVuSans-103"/>
    <path d="M 50.984375 -16.609375 
L 50.984375 -23.578125 
L -0.984375 -23.578125 
L -0.984375 -16.609375 
z
" id="DejaVuSans-95"/>
    <path d="M 44.28125 53.078125 
L 44.28125 44.578125 
Q 40.484375 46.53125 36.375 47.5 
Q 32.28125 48.484375 27.875 48.484375 
Q 21.1875 48.484375 17.84375 46.4375 
Q 14.5 44.390625 14.5 40.28125 
Q 14.5 37.15625 16.890625 35.375 
Q 19.28125 33.59375 26.515625 31.984375 
L 29.59375 31.296875 
Q 39.15625 29.25 43.1875 25.515625 
Q 47.21875 21.78125 47.21875 15.09375 
Q 47.21875 7.46875 41.1875 3.015625 
Q 35.15625 -1.421875 24.609375 -1.421875 
Q 20.21875 -1.421875 15.453125 -0.5625 
Q 10.6875 0.296875 5.421875 2 
L 5.421875 11.28125 
Q 10.40625 8.6875 15.234375 7.390625 
Q 20.0625 6.109375 24.8125 6.109375 
Q 31.15625 6.109375 34.5625 8.28125 
Q 37.984375 10.453125 37.984375 14.40625 
Q 37.984375 18.0625 35.515625 20.015625 
Q 33.0625 21.96875 24.703125 23.78125 
L 21.578125 24.515625 
Q 13.234375 26.265625 9.515625 29.90625 
Q 5.8125 33.546875 5.8125 39.890625 
Q 5.8125 47.609375 11.28125 51.796875 
Q 16.75 56 26.8125 56 
Q 31.78125 56 36.171875 55.265625 
Q 40.578125 54.546875 44.28125 53.078125 
z
" id="DejaVuSans-115"/>
    <path d="M 10.6875 12.40625 
L 21 12.40625 
L 21 0 
L 10.6875 0 
z
" id="DejaVuSans-46"/>
    <path id="DejaVuSans-32"/>
    <path d="M 2.984375 54.6875 
L 12.5 54.6875 
L 29.59375 8.796875 
L 46.6875 54.6875 
L 56.203125 54.6875 
L 35.6875 0 
L 23.484375 0 
z
" id="DejaVuSans-118"/>
    <path d="M 41.109375 46.296875 
Q 39.59375 47.171875 37.8125 47.578125 
Q 36.03125 48 33.890625 48 
Q 26.265625 48 22.1875 43.046875 
Q 18.109375 38.09375 18.109375 28.8125 
L 18.109375 0 
L 9.078125 0 
L 9.078125 54.6875 
L 18.109375 54.6875 
L 18.109375 46.1875 
Q 20.953125 51.171875 25.484375 53.578125 
Q 30.03125 56 36.53125 56 
Q 37.453125 56 38.578125 55.875 
Q 39.703125 55.765625 41.0625 55.515625 
z
" id="DejaVuSans-114"/>
    <path d="M 18.3125 70.21875 
L 18.3125 54.6875 
L 36.8125 54.6875 
L 36.8125 47.703125 
L 18.3125 47.703125 
L 18.3125 18.015625 
Q 18.3125 11.328125 20.140625 9.421875 
Q 21.96875 7.515625 27.59375 7.515625 
L 36.8125 7.515625 
L 36.8125 0 
L 27.59375 0 
Q 17.1875 0 13.234375 3.875 
Q 9.28125 7.765625 9.28125 18.015625 
L 9.28125 47.703125 
L 2.6875 47.703125 
L 2.6875 54.6875 
L 9.28125 54.6875 
L 9.28125 70.21875 
z
" id="DejaVuSans-116"/>
   </defs>
   <g transform="translate(134.789062 16.030125)scale(0.12 -0.12)">
    <use xlink:href="#DejaVuSans-108"/>
    <use x="27.783203" xlink:href="#DejaVuSans-111"/>
    <use x="88.964844" xlink:href="#DejaVuSans-103"/>
    <use x="152.441406" xlink:href="#DejaVuSans-95"/>
    <use x="202.441406" xlink:href="#DejaVuSans-108"/>
    <use x="230.224609" xlink:href="#DejaVuSans-111"/>
    <use x="291.40625" xlink:href="#DejaVuSans-115"/>
    <use x="343.505859" xlink:href="#DejaVuSans-115"/>
    <use x="395.605469" xlink:href="#DejaVuSans-46"/>
    <use x="427.392578" xlink:href="#DejaVuSans-109"/>
    <use x="524.804688" xlink:href="#DejaVuSans-101"/>
    <use x="586.328125" xlink:href="#DejaVuSans-97"/>
    <use x="647.607422" xlink:href="#DejaVuSans-110"/>
    <use x="710.986328" xlink:href="#DejaVuSans-32"/>
    <use x="742.773438" xlink:href="#DejaVuSans-111"/>
    <use x="803.955078" xlink:href="#DejaVuSans-118"/>
    <use x="863.134766" xlink:href="#DejaVuSans-101"/>
    <use x="924.658203" xlink:href="#DejaVuSans-114"/>
    <use x="965.771484" xlink:href="#DejaVuSans-32"/>
    <use x="997.558594" xlink:href="#DejaVuSans-103"/>
    <use x="1061.035156" xlink:href="#DejaVuSans-101"/>
    <use x="1122.558594" xlink:href="#DejaVuSans-110"/>
    <use x="1185.9375" xlink:href="#DejaVuSans-101"/>
    <use x="1247.460938" xlink:href="#DejaVuSans-114"/>
    <use x="1288.574219" xlink:href="#DejaVuSans-97"/>
    <use x="1349.853516" xlink:href="#DejaVuSans-116"/>
    <use x="1389.0625" xlink:href="#DejaVuSans-105"/>
    <use x="1416.845703" xlink:href="#DejaVuSans-111"/>
    <use x="1478.027344" xlink:href="#DejaVuSans-110"/>
    <use x="1541.40625" xlink:href="#DejaVuSans-115"/>
   </g>
  </g>
 </g>
 <defs>
  <clipPath id="p044abe9255">
   <rect height="266.112" width="357.12" x="57.6" y="41.472"/>
  </clipPath>
 </defs>
</svg>
