<?xml version="1.0" encoding="utf-8" standalone="no"?>
<!DOCTYPE svg PUBLIC "-//W3C//DTD SVG 1.1//EN"
  "http://www.w3.org/Graphics/SVG/1.1/DTD/svg11.dtd">
<!-- Created with matplotlib (https://matplotlib.org/) -->
<svg height="345.6pt" version="1.1" viewBox="0 0 460.8 345.6" width="460.8pt" xmlns="http://www.w3.org/2000/svg" xmlns:xlink="http://www.w3.org/1999/xlink">
 <defs>
  <style type="text/css">
*{stroke-linecap:butt;stroke-linejoin:round;}
  </style>
 </defs>
 <g id="figure_1">
  <g id="patch_1">
   <path d="M 0 345.6 
L 460.8 345.6 
L 460.8 0 
L 0 0 
z
" style="fill:#ffffff;"/>
  </g>
  <g id="axes_1">
   <g id="patch_2">
    <path d="M 57.6 307.584 
L 414.72 307.584 
L 414.72 41.472 
L 57.6 41.472 
z
" style="fill:#ffffff;"/>
   </g>
   <g id="PolyCollection_1">
    <path clip-path="url(#pc1f9b09058)" d="M 73.832727 226.234306 
L 73.832727 226.234306 
L 75.464157 226.234306 
L 77.095587 226.234306 
L 78.727017 226.234306 
L 80.358447 226.234306 
L 81.989877 226.234306 
L 83.621307 226.234306 
L 85.252736 226.234306 
L 86.884166 226.234306 
L 88.515596 226.234306 
L 90.147026 226.234306 
L 91.778456 226.234306 
L 93.409886 226.234306 
L 95.041316 226.234306 
L 96.672746 226.234306 
L 98.304175 226.234306 
L 99.935605 226.234306 
L 101.567035 226.234306 
L 103.198465 226.234306 
L 104.829895 226.234306 
L 106.461325 226.234306 
L 108.092755 226.234306 
L 109.724185 226.234306 
L 111.355614 226.234306 
L 112.987044 226.234306 
L 114.618474 226.234306 
L 116.249904 226.234306 
L 117.881334 226.234306 
L 119.512764 226.234306 
L 121.144194 226.234306 
L 122.775624 226.234306 
L 124.407053 226.234306 
L 126.038483 226.234306 
L 127.669913 226.234306 
L 129.301343 226.234306 
L 130.932773 226.234306 
L 132.564203 226.234306 
L 134.195633 226.234306 
L 135.827063 226.234306 
L 137.458492 226.234306 
L 139.089922 226.234306 
L 140.721352 226.234306 
L 142.352782 226.234306 
L 143.984212 226.234306 
L 145.615642 226.234306 
L 147.247072 226.234306 
L 148.878502 226.234306 
L 150.509931 226.234306 
L 152.141361 226.234306 
L 153.772791 226.234306 
L 155.404221 226.234306 
L 157.035651 226.234306 
L 158.667081 226.234306 
L 160.298511 226.234306 
L 161.929941 226.234306 
L 163.56137 226.234306 
L 165.1928 226.234306 
L 166.82423 226.234306 
L 168.45566 226.234306 
L 170.08709 226.234306 
L 171.71852 226.234306 
L 173.34995 226.234306 
L 174.98138 226.234306 
L 176.61281 226.234306 
L 178.244239 226.234306 
L 179.875669 226.234306 
L 181.507099 226.234306 
L 183.138529 226.234306 
L 184.769959 226.234306 
L 186.401389 226.234306 
L 188.032819 226.234306 
L 189.664249 226.234306 
L 191.295678 226.234306 
L 192.927108 226.234306 
L 194.558538 226.234306 
L 196.189968 226.234306 
L 197.821398 226.234306 
L 199.452828 226.234306 
L 201.084258 226.234306 
L 202.715688 226.234306 
L 204.347117 226.234306 
L 205.978547 226.234306 
L 207.609977 226.234306 
L 209.241407 226.234306 
L 210.872837 226.234306 
L 212.504267 226.234306 
L 214.135697 226.234306 
L 215.767127 226.234306 
L 217.398556 226.234306 
L 219.029986 226.234306 
L 220.661416 222.958793 
L 222.292846 221.555002 
L 223.924276 220.455366 
L 225.555706 226.234306 
L 227.187136 213.132255 
L 228.818566 199.094344 
L 230.449995 214.770012 
L 232.081425 226.234306 
L 233.712855 226.234306 
L 235.344285 199.211327 
L 236.975715 226.234306 
L 238.607145 226.234306 
L 240.238575 226.234306 
L 241.870005 225.766375 
L 243.501434 205.645369 
L 245.132864 193.531822 
L 246.764294 200.147188 
L 248.395724 207.049161 
L 250.027154 202.837787 
L 251.658584 223.075776 
L 253.290014 226.234306 
L 254.921444 223.894654 
L 256.552873 226.234306 
L 258.184303 189.267807 
L 259.815733 202.837787 
L 261.447163 209.505795 
L 263.078593 226.234306 
L 264.710023 226.234306 
L 266.341453 191.027863 
L 267.972883 202.837787 
L 269.604312 206.1133 
L 271.235742 206.1133 
L 272.867172 200.147188 
L 274.498602 225.298445 
L 276.130032 193.783335 
L 277.761462 206.1133 
L 279.392892 222.958793 
L 281.024322 206.1133 
L 282.655751 226.234306 
L 284.287181 189.267807 
L 285.918611 189.267807 
L 287.550041 184.030177 
L 289.181471 206.1133 
L 290.812901 177.160108 
L 292.444331 186.226259 
L 294.075761 192.008542 
L 295.70719 180.962043 
L 297.33862 182.131868 
L 298.97005 200.381153 
L 300.60148 201.317014 
L 302.23291 169.28523 
L 303.86434 206.1133 
L 305.49577 192.075389 
L 307.1272 215.471907 
L 308.75863 226.234306 
L 310.390059 207.985021 
L 312.021489 194.536897 
L 313.652919 185.758329 
L 315.284349 226.234306 
L 316.915779 206.1133 
L 318.547209 206.58123 
L 320.178639 180.84506 
L 321.810069 180.895195 
L 323.441498 202.837787 
L 325.072928 193.47918 
L 326.704358 226.234306 
L 328.335788 226.234306 
L 329.967218 207.049161 
L 331.598648 197.456588 
L 333.230078 206.1133 
L 334.861508 183.142558 
L 336.492937 202.369857 
L 338.124367 172.700843 
L 339.755797 193.631257 
L 341.387227 226.234306 
L 343.018657 202.837787 
L 344.650087 188.097981 
L 346.281517 197.573571 
L 347.912947 185.992294 
L 349.544376 187.846468 
L 351.175806 221.555002 
L 352.807236 170.470831 
L 354.438666 207.517091 
L 356.070096 189.746372 
L 357.701526 222.490863 
L 359.332956 226.234306 
L 360.964386 199.445292 
L 362.595815 226.234306 
L 364.227245 185.992294 
L 365.858675 226.234306 
L 367.490105 202.837787 
L 369.121535 219.68328 
L 370.752965 182.248851 
L 372.384395 206.1133 
L 374.015825 172.890244 
L 375.647254 206.347265 
L 377.278684 167.468101 
L 378.910114 179.909199 
L 380.541544 202.837787 
L 382.172974 176.399721 
L 383.804404 188.955853 
L 385.435834 207.517091 
L 387.067264 207.166143 
L 388.698693 189.649272 
L 390.330123 226.234306 
L 391.961553 206.1133 
L 393.592983 172.890244 
L 395.224413 186.460224 
L 396.855843 221.555002 
L 398.487273 179.909199 
L 398.487273 165.871288 
L 398.487273 165.871288 
L 396.855843 202.837787 
L 395.224413 151.833377 
L 393.592983 132.648232 
L 391.961553 196.169779 
L 390.330123 203.773648 
L 388.698693 149.610708 
L 387.067264 199.211327 
L 385.435834 179.441269 
L 383.804404 156.04475 
L 382.172974 146.263989 
L 380.541544 183.418677 
L 378.910114 136.859605 
L 377.278684 116.972565 
L 375.647254 156.04475 
L 374.015825 132.648232 
L 372.384395 189.735737 
L 370.752965 125.629277 
L 369.121535 185.992294 
L 367.490105 161.558884 
L 365.858675 206.1133 
L 364.227245 163.636921 
L 362.595815 226.234306 
L 360.964386 174.42119 
L 359.332956 206.1133 
L 357.701526 202.837787 
L 356.070096 154.056046 
L 354.438666 185.992294 
L 352.807236 125.395311 
L 351.175806 181.780921 
L 349.544376 158.384402 
L 347.912947 156.04475 
L 346.281517 162.127845 
L 344.650087 155.342855 
L 343.018657 179.441269 
L 341.387227 226.234306 
L 339.755797 147.855969 
L 338.124367 131.595389 
L 336.492937 162.881733 
L 334.861508 137.327536 
L 333.230078 180.340803 
L 331.598648 163.531636 
L 329.967218 180.093181 
L 328.335788 202.837787 
L 326.704358 226.234306 
L 325.072928 166.509375 
L 323.441498 179.441269 
L 321.810069 133.584093 
L 320.178639 132.648232 
L 318.547209 202.837787 
L 316.915779 183.652642 
L 315.284349 215.471907 
L 313.652919 141.070979 
L 312.021489 178.939692 
L 310.390059 202.252874 
L 308.75863 185.056433 
L 307.1272 202.837787 
L 305.49577 156.04475 
L 303.86434 185.992294 
L 302.23291 152.678842 
L 300.60148 179.441269 
L 298.97005 160.490089 
L 297.33862 156.512681 
L 295.70719 156.04475 
L 294.075761 141.304944 
L 292.444331 156.04475 
L 290.812901 125.629277 
L 289.181471 202.837787 
L 287.550041 156.512681 
L 285.918611 176.570739 
L 284.287181 158.26742 
L 282.655751 226.234306 
L 281.024322 179.909199 
L 279.392892 202.837787 
L 277.761462 202.837787 
L 276.130032 156.04475 
L 274.498602 180.37713 
L 272.867172 165.871288 
L 271.235742 179.909199 
L 269.604312 202.837787 
L 267.972883 165.871288 
L 266.341453 125.629277 
L 264.710023 160.724054 
L 263.078593 179.441269 
L 261.447163 145.750282 
L 259.815733 145.750282 
L 258.184303 144.697439 
L 256.552873 202.837787 
L 254.921444 179.441269 
L 253.290014 145.750282 
L 251.658584 179.441269 
L 250.027154 165.871288 
L 248.395724 202.837787 
L 246.764294 156.512681 
L 245.132864 145.750282 
L 243.501434 165.871288 
L 241.870005 185.992294 
L 240.238575 179.441269 
L 238.607145 226.234306 
L 236.975715 186.790282 
L 235.344285 179.441269 
L 233.712855 180.37713 
L 232.081425 225.368634 
L 230.449995 181.31299 
L 228.818566 154.173029 
L 227.187136 161.191985 
L 225.555706 202.837787 
L 223.924276 161.075002 
L 222.292846 202.837787 
L 220.661416 179.441269 
L 219.029986 202.837787 
L 217.398556 204.592526 
L 215.767127 203.305718 
L 214.135697 156.512681 
L 212.504267 202.837787 
L 210.872837 222.958793 
L 209.241407 226.234306 
L 207.609977 226.234306 
L 205.978547 226.234306 
L 204.347117 226.234306 
L 202.715688 226.234306 
L 201.084258 226.234306 
L 199.452828 226.234306 
L 197.821398 226.234306 
L 196.189968 226.234306 
L 194.558538 226.234306 
L 192.927108 226.234306 
L 191.295678 226.234306 
L 189.664249 226.234306 
L 188.032819 226.234306 
L 186.401389 226.234306 
L 184.769959 226.234306 
L 183.138529 226.234306 
L 181.507099 226.234306 
L 179.875669 226.234306 
L 178.244239 226.234306 
L 176.61281 226.234306 
L 174.98138 226.234306 
L 173.34995 226.234306 
L 171.71852 226.234306 
L 170.08709 226.234306 
L 168.45566 226.234306 
L 166.82423 226.234306 
L 165.1928 226.234306 
L 163.56137 226.234306 
L 161.929941 226.234306 
L 160.298511 226.234306 
L 158.667081 226.234306 
L 157.035651 226.234306 
L 155.404221 226.234306 
L 153.772791 226.234306 
L 152.141361 226.234306 
L 150.509931 226.234306 
L 148.878502 226.234306 
L 147.247072 226.234306 
L 145.615642 226.234306 
L 143.984212 226.234306 
L 142.352782 226.234306 
L 140.721352 226.234306 
L 139.089922 226.234306 
L 137.458492 226.234306 
L 135.827063 226.234306 
L 134.195633 226.234306 
L 132.564203 226.234306 
L 130.932773 226.234306 
L 129.301343 226.234306 
L 127.669913 226.234306 
L 126.038483 226.234306 
L 124.407053 226.234306 
L 122.775624 226.234306 
L 121.144194 226.234306 
L 119.512764 226.234306 
L 117.881334 226.234306 
L 116.249904 226.234306 
L 114.618474 226.234306 
L 112.987044 226.234306 
L 111.355614 226.234306 
L 109.724185 226.234306 
L 108.092755 226.234306 
L 106.461325 226.234306 
L 104.829895 226.234306 
L 103.198465 226.234306 
L 101.567035 226.234306 
L 99.935605 226.234306 
L 98.304175 226.234306 
L 96.672746 226.234306 
L 95.041316 226.234306 
L 93.409886 226.234306 
L 91.778456 226.234306 
L 90.147026 226.234306 
L 88.515596 226.234306 
L 86.884166 226.234306 
L 85.252736 226.234306 
L 83.621307 226.234306 
L 81.989877 226.234306 
L 80.358447 226.234306 
L 78.727017 226.234306 
L 77.095587 226.234306 
L 75.464157 226.234306 
L 73.832727 226.234306 
z
" style="fill:#1f77b4;fill-opacity:0.2;"/>
   </g>
   <g id="PolyCollection_2">
    <path clip-path="url(#pc1f9b09058)" d="M 73.832727 226.234306 
L 73.832727 226.234306 
L 75.464157 226.234306 
L 77.095587 226.234306 
L 78.727017 226.234306 
L 80.358447 226.234306 
L 81.989877 226.234306 
L 83.621307 226.234306 
L 85.252736 226.234306 
L 86.884166 226.234306 
L 88.515596 226.234306 
L 90.147026 226.234306 
L 91.778456 226.234306 
L 93.409886 226.234306 
L 95.041316 226.234306 
L 96.672746 226.234306 
L 98.304175 226.234306 
L 99.935605 226.234306 
L 101.567035 226.234306 
L 103.198465 226.234306 
L 104.829895 226.234306 
L 106.461325 226.234306 
L 108.092755 226.234306 
L 109.724185 226.234306 
L 111.355614 226.234306 
L 112.987044 226.234306 
L 114.618474 226.234306 
L 116.249904 226.234306 
L 117.881334 226.234306 
L 119.512764 226.234306 
L 121.144194 226.234306 
L 122.775624 226.234306 
L 124.407053 226.234306 
L 126.038483 226.234306 
L 127.669913 226.234306 
L 129.301343 226.234306 
L 130.932773 226.234306 
L 132.564203 226.234306 
L 134.195633 226.234306 
L 135.827063 226.234306 
L 137.458492 226.234306 
L 139.089922 226.234306 
L 140.721352 226.234306 
L 142.352782 226.234306 
L 143.984212 226.234306 
L 145.615642 226.234306 
L 147.247072 226.234306 
L 148.878502 226.234306 
L 150.509931 226.234306 
L 152.141361 226.234306 
L 153.772791 226.234306 
L 155.404221 226.234306 
L 157.035651 226.234306 
L 158.667081 226.234306 
L 160.298511 226.234306 
L 161.929941 226.234306 
L 163.56137 226.234306 
L 165.1928 226.234306 
L 166.82423 226.234306 
L 168.45566 226.234306 
L 170.08709 226.234306 
L 171.71852 226.234306 
L 173.34995 226.234306 
L 174.98138 226.234306 
L 176.61281 226.234306 
L 178.244239 226.234306 
L 179.875669 226.234306 
L 181.507099 226.234306 
L 183.138529 226.234306 
L 184.769959 226.234306 
L 186.401389 226.234306 
L 188.032819 226.234306 
L 189.664249 226.234306 
L 191.295678 226.234306 
L 192.927108 226.234306 
L 194.558538 226.234306 
L 196.189968 226.234306 
L 197.821398 226.234306 
L 199.452828 226.234306 
L 201.084258 226.234306 
L 202.715688 226.234306 
L 204.347117 226.234306 
L 205.978547 242.143938 
L 207.609977 260.861153 
L 209.241407 226.234306 
L 210.872837 273.027342 
L 212.504267 226.702236 
L 214.135697 295.488 
L 215.767127 226.234306 
L 217.398556 272.091482 
L 219.029986 226.234306 
L 220.661416 269.75183 
L 222.292846 246.355311 
L 223.924276 226.234306 
L 225.555706 226.234306 
L 227.187136 294.084209 
L 228.818566 266.008387 
L 230.449995 249.630824 
L 232.081425 249.630824 
L 233.712855 272.091482 
L 235.344285 246.823242 
L 236.975715 249.162894 
L 238.607145 226.234306 
L 240.238575 226.234306 
L 241.870005 226.234306 
L 243.501434 273.027342 
L 245.132864 260.393222 
L 246.764294 226.234306 
L 248.395724 226.234306 
L 250.027154 226.234306 
L 251.658584 250.098754 
L 253.290014 226.234306 
L 254.921444 250.566685 
L 256.552873 226.234306 
L 258.184303 226.234306 
L 259.815733 236.528774 
L 261.447163 271.155621 
L 263.078593 226.234306 
L 264.710023 233.253261 
L 266.341453 266.008387 
L 267.972883 234.657052 
L 269.604312 226.234306 
L 271.235742 239.336356 
L 272.867172 226.234306 
L 274.498602 232.785331 
L 276.130032 226.234306 
L 277.761462 226.234306 
L 279.392892 233.253261 
L 281.024322 236.996704 
L 282.655751 268.815969 
L 284.287181 260.393222 
L 285.918611 226.234306 
L 287.550041 249.630824 
L 289.181471 249.630824 
L 290.812901 226.234306 
L 292.444331 238.400495 
L 294.075761 244.01566 
L 295.70719 252.438406 
L 297.33862 226.234306 
L 298.97005 230.445679 
L 300.60148 242.143938 
L 302.23291 255.713919 
L 303.86434 244.95152 
L 305.49577 226.234306 
L 307.1272 229.509818 
L 308.75863 226.234306 
L 310.390059 242.143938 
L 312.021489 226.234306 
L 313.652919 252.906337 
L 315.284349 232.785331 
L 316.915779 226.234306 
L 318.547209 226.234306 
L 320.178639 226.234306 
L 321.810069 231.38154 
L 323.441498 229.041888 
L 325.072928 229.977749 
L 326.704358 295.02007 
L 328.335788 253.842197 
L 329.967218 272.091482 
L 331.598648 226.234306 
L 333.230078 226.234306 
L 334.861508 249.162894 
L 336.492937 240.740147 
L 338.124367 235.124983 
L 339.755797 226.234306 
L 341.387227 226.234306 
L 343.018657 244.48359 
L 344.650087 226.234306 
L 346.281517 226.234306 
L 347.912947 236.060843 
L 349.544376 226.234306 
L 351.175806 240.272217 
L 352.807236 226.234306 
L 354.438666 279.110437 
L 356.070096 227.170166 
L 357.701526 226.234306 
L 359.332956 249.630824 
L 360.964386 226.234306 
L 362.595815 226.234306 
L 364.227245 228.106027 
L 365.858675 226.234306 
L 367.490105 226.234306 
L 369.121535 250.098754 
L 370.752965 278.174576 
L 372.384395 226.234306 
L 374.015825 226.234306 
L 375.647254 236.060843 
L 377.278684 235.124983 
L 378.910114 258.053571 
L 380.541544 226.234306 
L 382.172974 227.638097 
L 383.804404 229.041888 
L 385.435834 226.702236 
L 387.067264 226.234306 
L 388.698693 226.234306 
L 390.330123 232.785331 
L 391.961553 227.170166 
L 393.592983 229.509818 
L 395.224413 234.189122 
L 396.855843 226.234306 
L 398.487273 233.253261 
L 398.487273 128.507048 
L 398.487273 128.507048 
L 396.855843 134.354802 
L 395.224413 132.26538 
L 393.592983 92.406221 
L 391.961553 133.116162 
L 390.330123 131.416015 
L 388.698693 113.463087 
L 387.067264 129.406143 
L 385.435834 127.379683 
L 383.804404 125.935231 
L 382.172974 94.277942 
L 380.541544 127.15005 
L 378.910114 113.931017 
L 377.278684 56.843513 
L 375.647254 95.681733 
L 374.015825 54.503861 
L 372.384395 148.335041 
L 370.752965 81.643822 
L 369.121535 151.187188 
L 367.490105 144.814422 
L 365.858675 149.25976 
L 364.227245 140.603048 
L 362.595815 146.530166 
L 360.964386 143.064769 
L 359.332956 142.602387 
L 357.701526 138.775892 
L 356.070096 133.116162 
L 354.438666 147.581314 
L 352.807236 53.568 
L 351.175806 148.335041 
L 349.544376 140.491636 
L 347.912947 140.135118 
L 346.281517 102.232758 
L 344.650087 116.270669 
L 343.018657 147.060487 
L 341.387227 156.272031 
L 339.755797 105.508271 
L 338.124367 66.20212 
L 336.492937 112.543362 
L 334.861508 72.753145 
L 333.230078 112.995157 
L 331.598648 111.573368 
L 329.967218 110.318595 
L 328.335788 108.374344 
L 326.704358 106.261028 
L 325.072928 103.998132 
L 323.441498 102.009934 
L 321.810069 85.855195 
L 320.178639 90.066569 
L 318.547209 149.092642 
L 316.915779 147.388039 
L 315.284349 152.993031 
L 313.652919 113.463087 
L 312.021489 139.199257 
L 310.390059 150.780534 
L 308.75863 157.952467 
L 307.1272 156.868308 
L 305.49577 105.508271 
L 303.86434 146.686143 
L 302.23291 94.745872 
L 300.60148 132.831335 
L 298.97005 130.457467 
L 297.33862 86.791056 
L 295.70719 119.078251 
L 294.075761 80.707961 
L 292.444331 113.088743 
L 290.812901 81.643822 
L 289.181471 132.063319 
L 287.550041 140.135118 
L 285.918611 156.04475 
L 284.287181 156.04475 
L 282.655751 166.116395 
L 281.024322 163.110499 
L 279.392892 155.10889 
L 277.761462 166.138677 
L 276.130032 146.686143 
L 274.498602 166.22627 
L 272.867172 156.04475 
L 271.235742 165.819296 
L 269.604312 165.043411 
L 267.972883 156.04475 
L 266.341453 109.251714 
L 264.710023 138.263397 
L 263.078593 165.594784 
L 261.447163 132.648232 
L 259.815733 132.648232 
L 258.184303 132.648232 
L 256.552873 169.529653 
L 254.921444 145.750282 
L 253.290014 132.648232 
L 251.658584 171.620147 
L 250.027154 156.04475 
L 248.395724 176.410863 
L 246.764294 138.263397 
L 245.132864 117.67446 
L 243.501434 156.04475 
L 241.870005 172.57829 
L 240.238575 132.648232 
L 238.607145 149.493725 
L 236.975715 157.916472 
L 235.344285 175.529371 
L 233.712855 156.04475 
L 232.081425 156.04475 
L 230.449995 134.052023 
L 228.818566 132.648232 
L 227.187136 128.436859 
L 225.555706 170.327768 
L 223.924276 109.719644 
L 222.292846 150.897516 
L 220.661416 155.57682 
L 219.029986 176.165756 
L 217.398556 170.550592 
L 215.767127 161.191985 
L 214.135697 132.648232 
L 212.504267 141.070979 
L 210.872837 162.127845 
L 209.241407 177.101617 
L 207.609977 183.184712 
L 205.978547 183.652642 
L 204.347117 226.234306 
L 202.715688 226.234306 
L 201.084258 226.234306 
L 199.452828 226.234306 
L 197.821398 226.234306 
L 196.189968 226.234306 
L 194.558538 226.234306 
L 192.927108 226.234306 
L 191.295678 226.234306 
L 189.664249 226.234306 
L 188.032819 226.234306 
L 186.401389 226.234306 
L 184.769959 226.234306 
L 183.138529 226.234306 
L 181.507099 226.234306 
L 179.875669 226.234306 
L 178.244239 226.234306 
L 176.61281 226.234306 
L 174.98138 226.234306 
L 173.34995 226.234306 
L 171.71852 226.234306 
L 170.08709 226.234306 
L 168.45566 226.234306 
L 166.82423 226.234306 
L 165.1928 226.234306 
L 163.56137 226.234306 
L 161.929941 226.234306 
L 160.298511 226.234306 
L 158.667081 226.234306 
L 157.035651 226.234306 
L 155.404221 226.234306 
L 153.772791 226.234306 
L 152.141361 226.234306 
L 150.509931 226.234306 
L 148.878502 226.234306 
L 147.247072 226.234306 
L 145.615642 226.234306 
L 143.984212 226.234306 
L 142.352782 226.234306 
L 140.721352 226.234306 
L 139.089922 226.234306 
L 137.458492 226.234306 
L 135.827063 226.234306 
L 134.195633 226.234306 
L 132.564203 226.234306 
L 130.932773 226.234306 
L 129.301343 226.234306 
L 127.669913 226.234306 
L 126.038483 226.234306 
L 124.407053 226.234306 
L 122.775624 226.234306 
L 121.144194 226.234306 
L 119.512764 226.234306 
L 117.881334 226.234306 
L 116.249904 226.234306 
L 114.618474 226.234306 
L 112.987044 226.234306 
L 111.355614 226.234306 
L 109.724185 226.234306 
L 108.092755 226.234306 
L 106.461325 226.234306 
L 104.829895 226.234306 
L 103.198465 226.234306 
L 101.567035 226.234306 
L 99.935605 226.234306 
L 98.304175 226.234306 
L 96.672746 226.234306 
L 95.041316 226.234306 
L 93.409886 226.234306 
L 91.778456 226.234306 
L 90.147026 226.234306 
L 88.515596 226.234306 
L 86.884166 226.234306 
L 85.252736 226.234306 
L 83.621307 226.234306 
L 81.989877 226.234306 
L 80.358447 226.234306 
L 78.727017 226.234306 
L 77.095587 226.234306 
L 75.464157 226.234306 
L 73.832727 226.234306 
z
" style="fill:#1f77b4;fill-opacity:0.1;"/>
   </g>
   <g id="matplotlib.axis_1">
    <g id="xtick_1">
     <g id="line2d_1">
      <defs>
       <path d="M 0 0 
L 0 3.5 
" id="m2a74c39e80" style="stroke:#000000;stroke-width:0.8;"/>
      </defs>
      <g>
       <use style="stroke:#000000;stroke-width:0.8;" x="73.832727" xlink:href="#m2a74c39e80" y="307.584"/>
      </g>
     </g>
     <g id="text_1">
      <!-- 0 -->
      <defs>
       <path d="M 31.78125 66.40625 
Q 24.171875 66.40625 20.328125 58.90625 
Q 16.5 51.421875 16.5 36.375 
Q 16.5 21.390625 20.328125 13.890625 
Q 24.171875 6.390625 31.78125 6.390625 
Q 39.453125 6.390625 43.28125 13.890625 
Q 47.125 21.390625 47.125 36.375 
Q 47.125 51.421875 43.28125 58.90625 
Q 39.453125 66.40625 31.78125 66.40625 
z
M 31.78125 74.21875 
Q 44.046875 74.21875 50.515625 64.515625 
Q 56.984375 54.828125 56.984375 36.375 
Q 56.984375 17.96875 50.515625 8.265625 
Q 44.046875 -1.421875 31.78125 -1.421875 
Q 19.53125 -1.421875 13.0625 8.265625 
Q 6.59375 17.96875 6.59375 36.375 
Q 6.59375 54.828125 13.0625 64.515625 
Q 19.53125 74.21875 31.78125 74.21875 
z
" id="DejaVuSans-48"/>
      </defs>
      <g transform="translate(70.651477 322.182437)scale(0.1 -0.1)">
       <use xlink:href="#DejaVuSans-48"/>
      </g>
     </g>
    </g>
    <g id="xtick_2">
     <g id="line2d_2">
      <g>
       <use style="stroke:#000000;stroke-width:0.8;" x="114.618474" xlink:href="#m2a74c39e80" y="307.584"/>
      </g>
     </g>
     <g id="text_2">
      <!-- 25 -->
      <defs>
       <path d="M 19.1875 8.296875 
L 53.609375 8.296875 
L 53.609375 0 
L 7.328125 0 
L 7.328125 8.296875 
Q 12.9375 14.109375 22.625 23.890625 
Q 32.328125 33.6875 34.8125 36.53125 
Q 39.546875 41.84375 41.421875 45.53125 
Q 43.3125 49.21875 43.3125 52.78125 
Q 43.3125 58.59375 39.234375 62.25 
Q 35.15625 65.921875 28.609375 65.921875 
Q 23.96875 65.921875 18.8125 64.3125 
Q 13.671875 62.703125 7.8125 59.421875 
L 7.8125 69.390625 
Q 13.765625 71.78125 18.9375 73 
Q 24.125 74.21875 28.421875 74.21875 
Q 39.75 74.21875 46.484375 68.546875 
Q 53.21875 62.890625 53.21875 53.421875 
Q 53.21875 48.921875 51.53125 44.890625 
Q 49.859375 40.875 45.40625 35.40625 
Q 44.1875 33.984375 37.640625 27.21875 
Q 31.109375 20.453125 19.1875 8.296875 
z
" id="DejaVuSans-50"/>
       <path d="M 10.796875 72.90625 
L 49.515625 72.90625 
L 49.515625 64.59375 
L 19.828125 64.59375 
L 19.828125 46.734375 
Q 21.96875 47.46875 24.109375 47.828125 
Q 26.265625 48.1875 28.421875 48.1875 
Q 40.625 48.1875 47.75 41.5 
Q 54.890625 34.8125 54.890625 23.390625 
Q 54.890625 11.625 47.5625 5.09375 
Q 40.234375 -1.421875 26.90625 -1.421875 
Q 22.3125 -1.421875 17.546875 -0.640625 
Q 12.796875 0.140625 7.71875 1.703125 
L 7.71875 11.625 
Q 12.109375 9.234375 16.796875 8.0625 
Q 21.484375 6.890625 26.703125 6.890625 
Q 35.15625 6.890625 40.078125 11.328125 
Q 45.015625 15.765625 45.015625 23.390625 
Q 45.015625 31 40.078125 35.4375 
Q 35.15625 39.890625 26.703125 39.890625 
Q 22.75 39.890625 18.8125 39.015625 
Q 14.890625 38.140625 10.796875 36.28125 
z
" id="DejaVuSans-53"/>
      </defs>
      <g transform="translate(108.255974 322.182437)scale(0.1 -0.1)">
       <use xlink:href="#DejaVuSans-50"/>
       <use x="63.623047" xlink:href="#DejaVuSans-53"/>
      </g>
     </g>
    </g>
    <g id="xtick_3">
     <g id="line2d_3">
      <g>
       <use style="stroke:#000000;stroke-width:0.8;" x="155.404221" xlink:href="#m2a74c39e80" y="307.584"/>
      </g>
     </g>
     <g id="text_3">
      <!-- 50 -->
      <g transform="translate(149.041721 322.182437)scale(0.1 -0.1)">
       <use xlink:href="#DejaVuSans-53"/>
       <use x="63.623047" xlink:href="#DejaVuSans-48"/>
      </g>
     </g>
    </g>
    <g id="xtick_4">
     <g id="line2d_4">
      <g>
       <use style="stroke:#000000;stroke-width:0.8;" x="196.189968" xlink:href="#m2a74c39e80" y="307.584"/>
      </g>
     </g>
     <g id="text_4">
      <!-- 75 -->
      <defs>
       <path d="M 8.203125 72.90625 
L 55.078125 72.90625 
L 55.078125 68.703125 
L 28.609375 0 
L 18.3125 0 
L 43.21875 64.59375 
L 8.203125 64.59375 
z
" id="DejaVuSans-55"/>
      </defs>
      <g transform="translate(189.827468 322.182437)scale(0.1 -0.1)">
       <use xlink:href="#DejaVuSans-55"/>
       <use x="63.623047" xlink:href="#DejaVuSans-53"/>
      </g>
     </g>
    </g>
    <g id="xtick_5">
     <g id="line2d_5">
      <g>
       <use style="stroke:#000000;stroke-width:0.8;" x="236.975715" xlink:href="#m2a74c39e80" y="307.584"/>
      </g>
     </g>
     <g id="text_5">
      <!-- 100 -->
      <defs>
       <path d="M 12.40625 8.296875 
L 28.515625 8.296875 
L 28.515625 63.921875 
L 10.984375 60.40625 
L 10.984375 69.390625 
L 28.421875 72.90625 
L 38.28125 72.90625 
L 38.28125 8.296875 
L 54.390625 8.296875 
L 54.390625 0 
L 12.40625 0 
z
" id="DejaVuSans-49"/>
      </defs>
      <g transform="translate(227.431965 322.182437)scale(0.1 -0.1)">
       <use xlink:href="#DejaVuSans-49"/>
       <use x="63.623047" xlink:href="#DejaVuSans-48"/>
       <use x="127.246094" xlink:href="#DejaVuSans-48"/>
      </g>
     </g>
    </g>
    <g id="xtick_6">
     <g id="line2d_6">
      <g>
       <use style="stroke:#000000;stroke-width:0.8;" x="277.761462" xlink:href="#m2a74c39e80" y="307.584"/>
      </g>
     </g>
     <g id="text_6">
      <!-- 125 -->
      <g transform="translate(268.217712 322.182437)scale(0.1 -0.1)">
       <use xlink:href="#DejaVuSans-49"/>
       <use x="63.623047" xlink:href="#DejaVuSans-50"/>
       <use x="127.246094" xlink:href="#DejaVuSans-53"/>
      </g>
     </g>
    </g>
    <g id="xtick_7">
     <g id="line2d_7">
      <g>
       <use style="stroke:#000000;stroke-width:0.8;" x="318.547209" xlink:href="#m2a74c39e80" y="307.584"/>
      </g>
     </g>
     <g id="text_7">
      <!-- 150 -->
      <g transform="translate(309.003459 322.182437)scale(0.1 -0.1)">
       <use xlink:href="#DejaVuSans-49"/>
       <use x="63.623047" xlink:href="#DejaVuSans-53"/>
       <use x="127.246094" xlink:href="#DejaVuSans-48"/>
      </g>
     </g>
    </g>
    <g id="xtick_8">
     <g id="line2d_8">
      <g>
       <use style="stroke:#000000;stroke-width:0.8;" x="359.332956" xlink:href="#m2a74c39e80" y="307.584"/>
      </g>
     </g>
     <g id="text_8">
      <!-- 175 -->
      <g transform="translate(349.789206 322.182437)scale(0.1 -0.1)">
       <use xlink:href="#DejaVuSans-49"/>
       <use x="63.623047" xlink:href="#DejaVuSans-55"/>
       <use x="127.246094" xlink:href="#DejaVuSans-53"/>
      </g>
     </g>
    </g>
    <g id="xtick_9">
     <g id="line2d_9">
      <g>
       <use style="stroke:#000000;stroke-width:0.8;" x="400.118703" xlink:href="#m2a74c39e80" y="307.584"/>
      </g>
     </g>
     <g id="text_9">
      <!-- 200 -->
      <g transform="translate(390.574953 322.182437)scale(0.1 -0.1)">
       <use xlink:href="#DejaVuSans-50"/>
       <use x="63.623047" xlink:href="#DejaVuSans-48"/>
       <use x="127.246094" xlink:href="#DejaVuSans-48"/>
      </g>
     </g>
    </g>
   </g>
   <g id="matplotlib.axis_2">
    <g id="ytick_1">
     <g id="line2d_10">
      <defs>
       <path d="M 0 0 
L -3.5 0 
" id="m8998bf44f6" style="stroke:#000000;stroke-width:0.8;"/>
      </defs>
      <g>
       <use style="stroke:#000000;stroke-width:0.8;" x="57.6" xlink:href="#m8998bf44f6" y="273.027342"/>
      </g>
     </g>
     <g id="text_10">
      <!-- −0.2 -->
      <defs>
       <path d="M 10.59375 35.5 
L 73.1875 35.5 
L 73.1875 27.203125 
L 10.59375 27.203125 
z
" id="DejaVuSans-8722"/>
       <path d="M 10.6875 12.40625 
L 21 12.40625 
L 21 0 
L 10.6875 0 
z
" id="DejaVuSans-46"/>
      </defs>
      <g transform="translate(26.317187 276.826561)scale(0.1 -0.1)">
       <use xlink:href="#DejaVuSans-8722"/>
       <use x="83.789062" xlink:href="#DejaVuSans-48"/>
       <use x="147.412109" xlink:href="#DejaVuSans-46"/>
       <use x="179.199219" xlink:href="#DejaVuSans-50"/>
      </g>
     </g>
    </g>
    <g id="ytick_2">
     <g id="line2d_11">
      <g>
       <use style="stroke:#000000;stroke-width:0.8;" x="57.6" xlink:href="#m8998bf44f6" y="226.234306"/>
      </g>
     </g>
     <g id="text_11">
      <!-- 0.0 -->
      <g transform="translate(34.696875 230.033524)scale(0.1 -0.1)">
       <use xlink:href="#DejaVuSans-48"/>
       <use x="63.623047" xlink:href="#DejaVuSans-46"/>
       <use x="95.410156" xlink:href="#DejaVuSans-48"/>
      </g>
     </g>
    </g>
    <g id="ytick_3">
     <g id="line2d_12">
      <g>
       <use style="stroke:#000000;stroke-width:0.8;" x="57.6" xlink:href="#m8998bf44f6" y="179.441269"/>
      </g>
     </g>
     <g id="text_12">
      <!-- 0.2 -->
      <g transform="translate(34.696875 183.240488)scale(0.1 -0.1)">
       <use xlink:href="#DejaVuSans-48"/>
       <use x="63.623047" xlink:href="#DejaVuSans-46"/>
       <use x="95.410156" xlink:href="#DejaVuSans-50"/>
      </g>
     </g>
    </g>
    <g id="ytick_4">
     <g id="line2d_13">
      <g>
       <use style="stroke:#000000;stroke-width:0.8;" x="57.6" xlink:href="#m8998bf44f6" y="132.648232"/>
      </g>
     </g>
     <g id="text_13">
      <!-- 0.4 -->
      <defs>
       <path d="M 37.796875 64.3125 
L 12.890625 25.390625 
L 37.796875 25.390625 
z
M 35.203125 72.90625 
L 47.609375 72.90625 
L 47.609375 25.390625 
L 58.015625 25.390625 
L 58.015625 17.1875 
L 47.609375 17.1875 
L 47.609375 0 
L 37.796875 0 
L 37.796875 17.1875 
L 4.890625 17.1875 
L 4.890625 26.703125 
z
" id="DejaVuSans-52"/>
      </defs>
      <g transform="translate(34.696875 136.447451)scale(0.1 -0.1)">
       <use xlink:href="#DejaVuSans-48"/>
       <use x="63.623047" xlink:href="#DejaVuSans-46"/>
       <use x="95.410156" xlink:href="#DejaVuSans-52"/>
      </g>
     </g>
    </g>
    <g id="ytick_5">
     <g id="line2d_14">
      <g>
       <use style="stroke:#000000;stroke-width:0.8;" x="57.6" xlink:href="#m8998bf44f6" y="85.855195"/>
      </g>
     </g>
     <g id="text_14">
      <!-- 0.6 -->
      <defs>
       <path d="M 33.015625 40.375 
Q 26.375 40.375 22.484375 35.828125 
Q 18.609375 31.296875 18.609375 23.390625 
Q 18.609375 15.53125 22.484375 10.953125 
Q 26.375 6.390625 33.015625 6.390625 
Q 39.65625 6.390625 43.53125 10.953125 
Q 47.40625 15.53125 47.40625 23.390625 
Q 47.40625 31.296875 43.53125 35.828125 
Q 39.65625 40.375 33.015625 40.375 
z
M 52.59375 71.296875 
L 52.59375 62.3125 
Q 48.875 64.0625 45.09375 64.984375 
Q 41.3125 65.921875 37.59375 65.921875 
Q 27.828125 65.921875 22.671875 59.328125 
Q 17.53125 52.734375 16.796875 39.40625 
Q 19.671875 43.65625 24.015625 45.921875 
Q 28.375 48.1875 33.59375 48.1875 
Q 44.578125 48.1875 50.953125 41.515625 
Q 57.328125 34.859375 57.328125 23.390625 
Q 57.328125 12.15625 50.6875 5.359375 
Q 44.046875 -1.421875 33.015625 -1.421875 
Q 20.359375 -1.421875 13.671875 8.265625 
Q 6.984375 17.96875 6.984375 36.375 
Q 6.984375 53.65625 15.1875 63.9375 
Q 23.390625 74.21875 37.203125 74.21875 
Q 40.921875 74.21875 44.703125 73.484375 
Q 48.484375 72.75 52.59375 71.296875 
z
" id="DejaVuSans-54"/>
      </defs>
      <g transform="translate(34.696875 89.654414)scale(0.1 -0.1)">
       <use xlink:href="#DejaVuSans-48"/>
       <use x="63.623047" xlink:href="#DejaVuSans-46"/>
       <use x="95.410156" xlink:href="#DejaVuSans-54"/>
      </g>
     </g>
    </g>
   </g>
   <g id="line2d_15">
    <path clip-path="url(#pc1f9b09058)" d="M 73.832727 226.234306 
L 210.872837 226.234306 
L 212.504267 219.698473 
L 214.135697 188.027791 
L 215.767127 203.305718 
L 217.398556 215.471907 
L 219.029986 206.1133 
L 220.661416 200.147188 
L 222.292846 207.517091 
L 223.924276 186.226259 
L 225.555706 206.1133 
L 227.187136 201.634538 
L 228.818566 176.043203 
L 230.449995 189.501772 
L 232.081425 226.234306 
L 233.712855 215.076648 
L 235.344285 181.31299 
L 238.607145 226.234306 
L 240.238575 186.748781 
L 241.870005 197.924518 
L 243.501434 178.400124 
L 245.132864 174.862236 
L 246.764294 165.871288 
L 248.395724 206.1133 
L 250.027154 179.909199 
L 251.658584 185.992294 
L 253.290014 172.135174 
L 254.921444 185.992294 
L 256.552873 203.773648 
L 258.184303 156.04475 
L 259.815733 165.871288 
L 261.447163 185.546646 
L 263.078593 185.992294 
L 264.710023 172.01566 
L 266.341453 169.614731 
L 267.972883 171.018522 
L 269.604312 206.1133 
L 271.235742 185.992294 
L 272.867172 176.854004 
L 274.498602 185.992294 
L 276.130032 165.871288 
L 277.761462 203.305718 
L 279.392892 203.773648 
L 281.024322 185.992294 
L 282.655751 226.234306 
L 284.287181 168.70014 
L 285.918611 179.441269 
L 287.550041 165.871288 
L 289.181471 203.305718 
L 290.812901 138.497362 
L 292.444331 170.550592 
L 294.075761 179.675234 
L 295.70719 171.954383 
L 297.33862 160.068952 
L 298.97005 170.272062 
L 300.60148 185.992294 
L 302.23291 160.160411 
L 303.86434 197.222623 
L 305.49577 165.871288 
L 307.1272 206.1133 
L 308.75863 207.517091 
L 310.390059 202.837787 
L 312.021489 179.441269 
L 313.652919 160.256124 
L 315.284349 219.917246 
L 316.915779 197.297066 
L 318.547209 203.539683 
L 320.178639 145.750282 
L 321.810069 152.102004 
L 323.441498 185.992294 
L 325.072928 179.441269 
L 326.704358 226.234306 
L 328.335788 210.324673 
L 329.967218 185.992294 
L 331.598648 178.505408 
L 333.230078 202.837787 
L 334.861508 165.871288 
L 336.492937 183.652642 
L 338.124367 147.622004 
L 339.755797 170.539451 
L 341.387227 226.234306 
L 343.018657 185.992294 
L 344.650087 165.871288 
L 346.281517 179.909199 
L 347.912947 175.229896 
L 349.544376 179.441269 
L 351.175806 185.992294 
L 352.807236 145.750282 
L 354.438666 202.837787 
L 356.070096 171.481953 
L 357.701526 202.837787 
L 359.332956 222.958793 
L 360.964386 182.950747 
L 362.595815 226.234306 
L 364.227245 179.441269 
L 365.858675 222.958793 
L 367.490105 177.101617 
L 369.121535 203.539683 
L 370.752965 152.41829 
L 372.384395 202.837787 
L 374.015825 139.667188 
L 375.647254 156.775892 
L 377.278684 135.923745 
L 378.910114 159.609934 
L 380.541544 187.63005 
L 382.172974 157.194232 
L 383.804404 171.954383 
L 385.435834 190.671598 
L 387.067264 202.837787 
L 388.698693 164.925679 
L 390.330123 219.68328 
L 391.961553 202.837787 
L 393.592983 156.04475 
L 395.224413 179.441269 
L 396.855843 206.815195 
L 398.487273 176.867652 
L 398.487273 176.867652 
" style="fill:none;stroke:#1f77b4;stroke-linecap:square;stroke-width:0.25;"/>
   </g>
   <g id="line2d_16">
    <path clip-path="url(#pc1f9b09058)" d="M 73.832727 226.234306 
L 204.347117 226.234306 
L 205.978547 224.947497 
L 207.609977 224.484246 
L 209.241407 225.539663 
L 210.872837 219.419836 
L 212.504267 209.285525 
L 214.135697 191.981045 
L 215.767127 208.904598 
L 217.398556 212.676632 
L 219.029986 211.195155 
L 220.661416 199.233895 
L 222.292846 209.460359 
L 223.924276 188.333856 
L 225.555706 211.830964 
L 227.187136 190.891427 
L 228.818566 177.586757 
L 232.081425 218.294689 
L 233.712855 204.742695 
L 235.344285 192.285709 
L 236.975715 204.3637 
L 238.607145 220.685739 
L 240.238575 192.351997 
L 241.870005 201.083063 
L 243.501434 185.365701 
L 245.132864 175.245836 
L 246.764294 180.11108 
L 248.395724 206.275087 
L 250.027154 185.293617 
L 251.658584 198.747811 
L 253.290014 179.785883 
L 254.921444 194.854046 
L 256.552873 206.16546 
L 258.184303 169.634395 
L 259.815733 172.427503 
L 261.447163 179.882381 
L 263.078593 199.413229 
L 264.710023 184.557126 
L 266.341453 168.318114 
L 267.972883 184.500516 
L 269.604312 205.524436 
L 271.235742 196.783739 
L 272.867172 183.452559 
L 274.498602 195.24632 
L 276.130032 177.558068 
L 277.761462 205.124707 
L 279.392892 207.680561 
L 281.024322 193.889454 
L 282.655751 220.495779 
L 284.287181 181.292574 
L 285.918611 185.124389 
L 287.550041 176.941899 
L 289.181471 202.386995 
L 290.812901 150.696735 
L 292.444331 174.940191 
L 294.075761 171.691678 
L 297.33862 172.251848 
L 298.97005 179.287766 
L 300.60148 191.507199 
L 302.23291 159.987537 
L 303.86434 197.646774 
L 305.49577 171.051381 
L 307.1272 206.586886 
L 308.75863 203.36062 
L 310.390059 202.730319 
L 312.021489 185.98309 
L 313.652919 167.025138 
L 315.284349 214.472383 
L 316.915779 195.034948 
L 318.547209 202.487506 
L 320.178639 160.063517 
L 321.810069 159.032031 
L 323.441498 190.232866 
L 325.072928 181.918751 
L 326.704358 213.635024 
L 328.335788 206.848399 
L 329.967218 192.565615 
L 331.598648 181.391229 
L 333.230078 193.543453 
L 334.861508 166.212645 
L 336.492937 184.972102 
L 338.124367 153.044012 
L 339.755797 171.421655 
L 341.387227 220.704244 
L 343.018657 190.813955 
L 344.650087 174.59433 
L 346.281517 181.555065 
L 347.912947 173.899674 
L 349.544376 180.553407 
L 351.175806 195.299359 
L 352.807236 146.182164 
L 354.438666 198.800907 
L 356.070096 174.137748 
L 357.701526 203.702364 
L 359.332956 214.575987 
L 360.964386 186.339469 
L 362.595815 219.970465 
L 364.227245 178.236333 
L 365.858675 212.023932 
L 367.490105 182.058246 
L 369.121535 202.519989 
L 370.752965 155.392113 
L 372.384395 199.328707 
L 374.015825 148.164885 
L 375.647254 172.617486 
L 377.278684 143.499773 
L 378.910114 164.333224 
L 380.541544 192.484604 
L 382.172974 162.539679 
L 383.804404 174.743561 
L 385.435834 193.143727 
L 387.067264 201.280082 
L 388.698693 169.462267 
L 390.330123 210.519535 
L 391.961553 201.141165 
L 393.592983 154.473439 
L 395.224413 175.330808 
L 396.855843 206.506386 
L 398.487273 175.001598 
L 398.487273 175.001598 
" style="fill:none;stroke:#2ca02c;stroke-linecap:square;stroke-width:0.75;"/>
   </g>
   <g id="patch_3">
    <path d="M 57.6 307.584 
L 57.6 41.472 
" style="fill:none;stroke:#000000;stroke-linecap:square;stroke-linejoin:miter;stroke-width:0.8;"/>
   </g>
   <g id="patch_4">
    <path d="M 414.72 307.584 
L 414.72 41.472 
" style="fill:none;stroke:#000000;stroke-linecap:square;stroke-linejoin:miter;stroke-width:0.8;"/>
   </g>
   <g id="patch_5">
    <path d="M 57.6 307.584 
L 414.72 307.584 
" style="fill:none;stroke:#000000;stroke-linecap:square;stroke-linejoin:miter;stroke-width:0.8;"/>
   </g>
   <g id="patch_6">
    <path d="M 57.6 41.472 
L 414.72 41.472 
" style="fill:none;stroke:#000000;stroke-linecap:square;stroke-linejoin:miter;stroke-width:0.8;"/>
   </g>
   <g id="legend_1">
    <g id="patch_7">
     <path d="M 338.234063 78.82825 
L 407.72 78.82825 
Q 409.72 78.82825 409.72 76.82825 
L 409.72 48.472 
Q 409.72 46.472 407.72 46.472 
L 338.234063 46.472 
Q 336.234063 46.472 336.234063 48.472 
L 336.234063 76.82825 
Q 336.234063 78.82825 338.234063 78.82825 
z
" style="fill:#ffffff;opacity:0.8;stroke:#cccccc;stroke-linejoin:miter;"/>
    </g>
    <g id="line2d_17">
     <path d="M 340.234063 54.570437 
L 360.234063 54.570437 
" style="fill:none;stroke:#1f77b4;stroke-linecap:square;stroke-width:0.25;"/>
    </g>
    <g id="line2d_18"/>
    <g id="text_15">
     <!-- median -->
     <defs>
      <path d="M 52 44.1875 
Q 55.375 50.25 60.0625 53.125 
Q 64.75 56 71.09375 56 
Q 79.640625 56 84.28125 50.015625 
Q 88.921875 44.046875 88.921875 33.015625 
L 88.921875 0 
L 79.890625 0 
L 79.890625 32.71875 
Q 79.890625 40.578125 77.09375 44.375 
Q 74.3125 48.1875 68.609375 48.1875 
Q 61.625 48.1875 57.5625 43.546875 
Q 53.515625 38.921875 53.515625 30.90625 
L 53.515625 0 
L 44.484375 0 
L 44.484375 32.71875 
Q 44.484375 40.625 41.703125 44.40625 
Q 38.921875 48.1875 33.109375 48.1875 
Q 26.21875 48.1875 22.15625 43.53125 
Q 18.109375 38.875 18.109375 30.90625 
L 18.109375 0 
L 9.078125 0 
L 9.078125 54.6875 
L 18.109375 54.6875 
L 18.109375 46.1875 
Q 21.1875 51.21875 25.484375 53.609375 
Q 29.78125 56 35.6875 56 
Q 41.65625 56 45.828125 52.96875 
Q 50 49.953125 52 44.1875 
z
" id="DejaVuSans-109"/>
      <path d="M 56.203125 29.59375 
L 56.203125 25.203125 
L 14.890625 25.203125 
Q 15.484375 15.921875 20.484375 11.0625 
Q 25.484375 6.203125 34.421875 6.203125 
Q 39.59375 6.203125 44.453125 7.46875 
Q 49.3125 8.734375 54.109375 11.28125 
L 54.109375 2.78125 
Q 49.265625 0.734375 44.1875 -0.34375 
Q 39.109375 -1.421875 33.890625 -1.421875 
Q 20.796875 -1.421875 13.15625 6.1875 
Q 5.515625 13.8125 5.515625 26.8125 
Q 5.515625 40.234375 12.765625 48.109375 
Q 20.015625 56 32.328125 56 
Q 43.359375 56 49.78125 48.890625 
Q 56.203125 41.796875 56.203125 29.59375 
z
M 47.21875 32.234375 
Q 47.125 39.59375 43.09375 43.984375 
Q 39.0625 48.390625 32.421875 48.390625 
Q 24.90625 48.390625 20.390625 44.140625 
Q 15.875 39.890625 15.1875 32.171875 
z
" id="DejaVuSans-101"/>
      <path d="M 45.40625 46.390625 
L 45.40625 75.984375 
L 54.390625 75.984375 
L 54.390625 0 
L 45.40625 0 
L 45.40625 8.203125 
Q 42.578125 3.328125 38.25 0.953125 
Q 33.9375 -1.421875 27.875 -1.421875 
Q 17.96875 -1.421875 11.734375 6.484375 
Q 5.515625 14.40625 5.515625 27.296875 
Q 5.515625 40.1875 11.734375 48.09375 
Q 17.96875 56 27.875 56 
Q 33.9375 56 38.25 53.625 
Q 42.578125 51.265625 45.40625 46.390625 
z
M 14.796875 27.296875 
Q 14.796875 17.390625 18.875 11.75 
Q 22.953125 6.109375 30.078125 6.109375 
Q 37.203125 6.109375 41.296875 11.75 
Q 45.40625 17.390625 45.40625 27.296875 
Q 45.40625 37.203125 41.296875 42.84375 
Q 37.203125 48.484375 30.078125 48.484375 
Q 22.953125 48.484375 18.875 42.84375 
Q 14.796875 37.203125 14.796875 27.296875 
z
" id="DejaVuSans-100"/>
      <path d="M 9.421875 54.6875 
L 18.40625 54.6875 
L 18.40625 0 
L 9.421875 0 
z
M 9.421875 75.984375 
L 18.40625 75.984375 
L 18.40625 64.59375 
L 9.421875 64.59375 
z
" id="DejaVuSans-105"/>
      <path d="M 34.28125 27.484375 
Q 23.390625 27.484375 19.1875 25 
Q 14.984375 22.515625 14.984375 16.5 
Q 14.984375 11.71875 18.140625 8.90625 
Q 21.296875 6.109375 26.703125 6.109375 
Q 34.1875 6.109375 38.703125 11.40625 
Q 43.21875 16.703125 43.21875 25.484375 
L 43.21875 27.484375 
z
M 52.203125 31.203125 
L 52.203125 0 
L 43.21875 0 
L 43.21875 8.296875 
Q 40.140625 3.328125 35.546875 0.953125 
Q 30.953125 -1.421875 24.3125 -1.421875 
Q 15.921875 -1.421875 10.953125 3.296875 
Q 6 8.015625 6 15.921875 
Q 6 25.140625 12.171875 29.828125 
Q 18.359375 34.515625 30.609375 34.515625 
L 43.21875 34.515625 
L 43.21875 35.40625 
Q 43.21875 41.609375 39.140625 45 
Q 35.0625 48.390625 27.6875 48.390625 
Q 23 48.390625 18.546875 47.265625 
Q 14.109375 46.140625 10.015625 43.890625 
L 10.015625 52.203125 
Q 14.9375 54.109375 19.578125 55.046875 
Q 24.21875 56 28.609375 56 
Q 40.484375 56 46.34375 49.84375 
Q 52.203125 43.703125 52.203125 31.203125 
z
" id="DejaVuSans-97"/>
      <path d="M 54.890625 33.015625 
L 54.890625 0 
L 45.90625 0 
L 45.90625 32.71875 
Q 45.90625 40.484375 42.875 44.328125 
Q 39.84375 48.1875 33.796875 48.1875 
Q 26.515625 48.1875 22.3125 43.546875 
Q 18.109375 38.921875 18.109375 30.90625 
L 18.109375 0 
L 9.078125 0 
L 9.078125 54.6875 
L 18.109375 54.6875 
L 18.109375 46.1875 
Q 21.34375 51.125 25.703125 53.5625 
Q 30.078125 56 35.796875 56 
Q 45.21875 56 50.046875 50.171875 
Q 54.890625 44.34375 54.890625 33.015625 
z
" id="DejaVuSans-110"/>
     </defs>
     <g transform="translate(368.234063 58.070437)scale(0.1 -0.1)">
      <use xlink:href="#DejaVuSans-109"/>
      <use x="97.412109" xlink:href="#DejaVuSans-101"/>
      <use x="158.935547" xlink:href="#DejaVuSans-100"/>
      <use x="222.412109" xlink:href="#DejaVuSans-105"/>
      <use x="250.195312" xlink:href="#DejaVuSans-97"/>
      <use x="311.474609" xlink:href="#DejaVuSans-110"/>
     </g>
    </g>
    <g id="line2d_19">
     <path d="M 340.234063 69.248562 
L 360.234063 69.248562 
" style="fill:none;stroke:#2ca02c;stroke-linecap:square;stroke-width:0.75;"/>
    </g>
    <g id="line2d_20"/>
    <g id="text_16">
     <!-- mean -->
     <g transform="translate(368.234063 72.748562)scale(0.1 -0.1)">
      <use xlink:href="#DejaVuSans-109"/>
      <use x="97.412109" xlink:href="#DejaVuSans-101"/>
      <use x="158.935547" xlink:href="#DejaVuSans-97"/>
      <use x="220.214844" xlink:href="#DejaVuSans-110"/>
     </g>
    </g>
   </g>
  </g>
  <g id="text_17">
   <!-- kappa.mean over generations -->
   <defs>
    <path d="M 9.078125 75.984375 
L 18.109375 75.984375 
L 18.109375 31.109375 
L 44.921875 54.6875 
L 56.390625 54.6875 
L 27.390625 29.109375 
L 57.625 0 
L 45.90625 0 
L 18.109375 26.703125 
L 18.109375 0 
L 9.078125 0 
z
" id="DejaVuSans-107"/>
    <path d="M 18.109375 8.203125 
L 18.109375 -20.796875 
L 9.078125 -20.796875 
L 9.078125 54.6875 
L 18.109375 54.6875 
L 18.109375 46.390625 
Q 20.953125 51.265625 25.265625 53.625 
Q 29.59375 56 35.59375 56 
Q 45.5625 56 51.78125 48.09375 
Q 58.015625 40.1875 58.015625 27.296875 
Q 58.015625 14.40625 51.78125 6.484375 
Q 45.5625 -1.421875 35.59375 -1.421875 
Q 29.59375 -1.421875 25.265625 0.953125 
Q 20.953125 3.328125 18.109375 8.203125 
z
M 48.6875 27.296875 
Q 48.6875 37.203125 44.609375 42.84375 
Q 40.53125 48.484375 33.40625 48.484375 
Q 26.265625 48.484375 22.1875 42.84375 
Q 18.109375 37.203125 18.109375 27.296875 
Q 18.109375 17.390625 22.1875 11.75 
Q 26.265625 6.109375 33.40625 6.109375 
Q 40.53125 6.109375 44.609375 11.75 
Q 48.6875 17.390625 48.6875 27.296875 
z
" id="DejaVuSans-112"/>
    <path id="DejaVuSans-32"/>
    <path d="M 30.609375 48.390625 
Q 23.390625 48.390625 19.1875 42.75 
Q 14.984375 37.109375 14.984375 27.296875 
Q 14.984375 17.484375 19.15625 11.84375 
Q 23.34375 6.203125 30.609375 6.203125 
Q 37.796875 6.203125 41.984375 11.859375 
Q 46.1875 17.53125 46.1875 27.296875 
Q 46.1875 37.015625 41.984375 42.703125 
Q 37.796875 48.390625 30.609375 48.390625 
z
M 30.609375 56 
Q 42.328125 56 49.015625 48.375 
Q 55.71875 40.765625 55.71875 27.296875 
Q 55.71875 13.875 49.015625 6.21875 
Q 42.328125 -1.421875 30.609375 -1.421875 
Q 18.84375 -1.421875 12.171875 6.21875 
Q 5.515625 13.875 5.515625 27.296875 
Q 5.515625 40.765625 12.171875 48.375 
Q 18.84375 56 30.609375 56 
z
" id="DejaVuSans-111"/>
    <path d="M 2.984375 54.6875 
L 12.5 54.6875 
L 29.59375 8.796875 
L 46.6875 54.6875 
L 56.203125 54.6875 
L 35.6875 0 
L 23.484375 0 
z
" id="DejaVuSans-118"/>
    <path d="M 41.109375 46.296875 
Q 39.59375 47.171875 37.8125 47.578125 
Q 36.03125 48 33.890625 48 
Q 26.265625 48 22.1875 43.046875 
Q 18.109375 38.09375 18.109375 28.8125 
L 18.109375 0 
L 9.078125 0 
L 9.078125 54.6875 
L 18.109375 54.6875 
L 18.109375 46.1875 
Q 20.953125 51.171875 25.484375 53.578125 
Q 30.03125 56 36.53125 56 
Q 37.453125 56 38.578125 55.875 
Q 39.703125 55.765625 41.0625 55.515625 
z
" id="DejaVuSans-114"/>
    <path d="M 45.40625 27.984375 
Q 45.40625 37.75 41.375 43.109375 
Q 37.359375 48.484375 30.078125 48.484375 
Q 22.859375 48.484375 18.828125 43.109375 
Q 14.796875 37.75 14.796875 27.984375 
Q 14.796875 18.265625 18.828125 12.890625 
Q 22.859375 7.515625 30.078125 7.515625 
Q 37.359375 7.515625 41.375 12.890625 
Q 45.40625 18.265625 45.40625 27.984375 
z
M 54.390625 6.78125 
Q 54.390625 -7.171875 48.1875 -13.984375 
Q 42 -20.796875 29.203125 -20.796875 
Q 24.46875 -20.796875 20.265625 -20.09375 
Q 16.0625 -19.390625 12.109375 -17.921875 
L 12.109375 -9.1875 
Q 16.0625 -11.328125 19.921875 -12.34375 
Q 23.78125 -13.375 27.78125 -13.375 
Q 36.625 -13.375 41.015625 -8.765625 
Q 45.40625 -4.15625 45.40625 5.171875 
L 45.40625 9.625 
Q 42.625 4.78125 38.28125 2.390625 
Q 33.9375 0 27.875 0 
Q 17.828125 0 11.671875 7.65625 
Q 5.515625 15.328125 5.515625 27.984375 
Q 5.515625 40.671875 11.671875 48.328125 
Q 17.828125 56 27.875 56 
Q 33.9375 56 38.28125 53.609375 
Q 42.625 51.21875 45.40625 46.390625 
L 45.40625 54.6875 
L 54.390625 54.6875 
z
" id="DejaVuSans-103"/>
    <path d="M 18.3125 70.21875 
L 18.3125 54.6875 
L 36.8125 54.6875 
L 36.8125 47.703125 
L 18.3125 47.703125 
L 18.3125 18.015625 
Q 18.3125 11.328125 20.140625 9.421875 
Q 21.96875 7.515625 27.59375 7.515625 
L 36.8125 7.515625 
L 36.8125 0 
L 27.59375 0 
Q 17.1875 0 13.234375 3.875 
Q 9.28125 7.765625 9.28125 18.015625 
L 9.28125 47.703125 
L 2.6875 47.703125 
L 2.6875 54.6875 
L 9.28125 54.6875 
L 9.28125 70.21875 
z
" id="DejaVuSans-116"/>
    <path d="M 44.28125 53.078125 
L 44.28125 44.578125 
Q 40.484375 46.53125 36.375 47.5 
Q 32.28125 48.484375 27.875 48.484375 
Q 21.1875 48.484375 17.84375 46.4375 
Q 14.5 44.390625 14.5 40.28125 
Q 14.5 37.15625 16.890625 35.375 
Q 19.28125 33.59375 26.515625 31.984375 
L 29.59375 31.296875 
Q 39.15625 29.25 43.1875 25.515625 
Q 47.21875 21.78125 47.21875 15.09375 
Q 47.21875 7.46875 41.1875 3.015625 
Q 35.15625 -1.421875 24.609375 -1.421875 
Q 20.21875 -1.421875 15.453125 -0.5625 
Q 10.6875 0.296875 5.421875 2 
L 5.421875 11.28125 
Q 10.40625 8.6875 15.234375 7.390625 
Q 20.0625 6.109375 24.8125 6.109375 
Q 31.15625 6.109375 34.5625 8.28125 
Q 37.984375 10.453125 37.984375 14.40625 
Q 37.984375 18.0625 35.515625 20.015625 
Q 33.0625 21.96875 24.703125 23.78125 
L 21.578125 24.515625 
Q 13.234375 26.265625 9.515625 29.90625 
Q 5.8125 33.546875 5.8125 39.890625 
Q 5.8125 47.609375 11.28125 51.796875 
Q 16.75 56 26.8125 56 
Q 31.78125 56 36.171875 55.265625 
Q 40.578125 54.546875 44.28125 53.078125 
z
" id="DejaVuSans-115"/>
   </defs>
   <g transform="translate(140.184375 16.030125)scale(0.12 -0.12)">
    <use xlink:href="#DejaVuSans-107"/>
    <use x="56.160156" xlink:href="#DejaVuSans-97"/>
    <use x="117.439453" xlink:href="#DejaVuSans-112"/>
    <use x="180.916016" xlink:href="#DejaVuSans-112"/>
    <use x="244.392578" xlink:href="#DejaVuSans-97"/>
    <use x="305.671875" xlink:href="#DejaVuSans-46"/>
    <use x="337.458984" xlink:href="#DejaVuSans-109"/>
    <use x="434.871094" xlink:href="#DejaVuSans-101"/>
    <use x="496.394531" xlink:href="#DejaVuSans-97"/>
    <use x="557.673828" xlink:href="#DejaVuSans-110"/>
    <use x="621.052734" xlink:href="#DejaVuSans-32"/>
    <use x="652.839844" xlink:href="#DejaVuSans-111"/>
    <use x="714.021484" xlink:href="#DejaVuSans-118"/>
    <use x="773.201172" xlink:href="#DejaVuSans-101"/>
    <use x="834.724609" xlink:href="#DejaVuSans-114"/>
    <use x="875.837891" xlink:href="#DejaVuSans-32"/>
    <use x="907.625" xlink:href="#DejaVuSans-103"/>
    <use x="971.101562" xlink:href="#DejaVuSans-101"/>
    <use x="1032.625" xlink:href="#DejaVuSans-110"/>
    <use x="1096.003906" xlink:href="#DejaVuSans-101"/>
    <use x="1157.527344" xlink:href="#DejaVuSans-114"/>
    <use x="1198.640625" xlink:href="#DejaVuSans-97"/>
    <use x="1259.919922" xlink:href="#DejaVuSans-116"/>
    <use x="1299.128906" xlink:href="#DejaVuSans-105"/>
    <use x="1326.912109" xlink:href="#DejaVuSans-111"/>
    <use x="1388.09375" xlink:href="#DejaVuSans-110"/>
    <use x="1451.472656" xlink:href="#DejaVuSans-115"/>
   </g>
  </g>
 </g>
 <defs>
  <clipPath id="pc1f9b09058">
   <rect height="266.112" width="357.12" x="57.6" y="41.472"/>
  </clipPath>
 </defs>
</svg>
