<?xml version="1.0" encoding="utf-8" standalone="no"?>
<!DOCTYPE svg PUBLIC "-//W3C//DTD SVG 1.1//EN"
  "http://www.w3.org/Graphics/SVG/1.1/DTD/svg11.dtd">
<!-- Created with matplotlib (https://matplotlib.org/) -->
<svg height="345.6pt" version="1.1" viewBox="0 0 460.8 345.6" width="460.8pt" xmlns="http://www.w3.org/2000/svg" xmlns:xlink="http://www.w3.org/1999/xlink">
 <defs>
  <style type="text/css">
*{stroke-linecap:butt;stroke-linejoin:round;}
  </style>
 </defs>
 <g id="figure_1">
  <g id="patch_1">
   <path d="M 0 345.6 
L 460.8 345.6 
L 460.8 0 
L 0 0 
z
" style="fill:#ffffff;"/>
  </g>
  <g id="axes_1">
   <g id="patch_2">
    <path clip-path="url(#p661ffa4953)" d="M 88.589752 235.008 
Q 136.018971 230.965404 183.448191 226.922808 
" style="fill:none;stroke:#000000;stroke-linecap:round;stroke-opacity:0.9;stroke-width:0.4;"/>
   </g>
   <g id="patch_3">
    <path clip-path="url(#p661ffa4953)" d="M 88.589752 235.008 
Q 136.616434 180.05194 184.643116 125.09588 
" style="fill:none;stroke:#000000;stroke-linecap:round;stroke-opacity:0.9;stroke-width:0.4;"/>
   </g>
   <g id="patch_4">
    <path clip-path="url(#p661ffa4953)" d="M 88.589752 235.008 
Q 234.396885 245.920073 380.204018 256.832145 
" style="fill:none;stroke:#000000;stroke-linecap:round;stroke-opacity:0.9;stroke-width:0.4;"/>
   </g>
   <g id="patch_5">
    <path clip-path="url(#p661ffa4953)" d="M 186.969917 226.622636 
Q 234.59729 201.40281 282.224663 176.182984 
" style="fill:none;stroke:#000000;stroke-linecap:round;stroke-opacity:0.9;stroke-width:0.4;"/>
   </g>
   <g id="patch_6">
    <path clip-path="url(#p661ffa4953)" d="M 186.969917 122.433364 
Q 283.604231 107.467049 380.238545 92.500735 
" style="fill:none;stroke:#000000;stroke-linecap:round;stroke-opacity:0.9;stroke-width:0.4;"/>
   </g>
   <g id="patch_7">
    <path clip-path="url(#p661ffa4953)" d="M 285.350083 174.528 
Q 332.773297 174.528 380.196512 174.528 
" style="fill:none;stroke:#000000;stroke-linecap:round;stroke-opacity:0.9;stroke-width:0.4;"/>
   </g>
   <g id="PathCollection_1">
    <defs>
     <path d="M 0 3.535534 
C 0.937635 3.535534 1.836992 3.163008 2.5 2.5 
C 3.163008 1.836992 3.535534 0.937635 3.535534 0 
C 3.535534 -0.937635 3.163008 -1.836992 2.5 -2.5 
C 1.836992 -3.163008 0.937635 -3.535534 0 -3.535534 
C -0.937635 -3.535534 -1.836992 -3.163008 -2.5 -2.5 
C -3.163008 -1.836992 -3.535534 -0.937635 -3.535534 0 
C -3.535534 0.937635 -3.163008 1.836992 -2.5 2.5 
C -1.836992 3.163008 -0.937635 3.535534 0 3.535534 
z
" id="C0_0_a9f2e360bc"/>
    </defs>
    <g clip-path="url(#p661ffa4953)">
     <use style="fill:#fdb462;fill-opacity:0.9;" x="88.589752" xlink:href="#C0_0_a9f2e360bc" y="53.568"/>
    </g>
    <g clip-path="url(#p661ffa4953)">
     <use style="fill:#fdb462;fill-opacity:0.9;" x="88.589752" xlink:href="#C0_0_a9f2e360bc" y="114.048"/>
    </g>
    <g clip-path="url(#p661ffa4953)">
     <use style="fill:#fdb462;fill-opacity:0.9;" x="88.589752" xlink:href="#C0_0_a9f2e360bc" y="174.528"/>
    </g>
    <g clip-path="url(#p661ffa4953)">
     <use style="fill:#fdb462;fill-opacity:0.9;" x="88.589752" xlink:href="#C0_0_a9f2e360bc" y="235.008"/>
    </g>
    <g clip-path="url(#p661ffa4953)">
     <use style="fill:#ffed6f;fill-opacity:0.9;" x="88.589752" xlink:href="#C0_0_a9f2e360bc" y="295.488"/>
    </g>
    <g clip-path="url(#p661ffa4953)">
     <use style="fill:#80b1d3;fill-opacity:0.9;" x="186.969917" xlink:href="#C0_0_a9f2e360bc" y="226.622636"/>
    </g>
    <g clip-path="url(#p661ffa4953)">
     <use style="fill:#80b1d3;fill-opacity:0.9;" x="186.969917" xlink:href="#C0_0_a9f2e360bc" y="122.433364"/>
    </g>
    <g clip-path="url(#p661ffa4953)">
     <use style="fill:#80b1d3;fill-opacity:0.9;" x="285.350083" xlink:href="#C0_0_a9f2e360bc" y="174.528"/>
    </g>
    <g clip-path="url(#p661ffa4953)">
     <use style="fill:#b3de69;fill-opacity:0.9;" x="383.730248" xlink:href="#C0_0_a9f2e360bc" y="91.959955"/>
    </g>
    <g clip-path="url(#p661ffa4953)">
     <use style="fill:#b3de69;fill-opacity:0.9;" x="383.730248" xlink:href="#C0_0_a9f2e360bc" y="174.528"/>
    </g>
    <g clip-path="url(#p661ffa4953)">
     <use style="fill:#b3de69;fill-opacity:0.9;" x="383.730248" xlink:href="#C0_0_a9f2e360bc" y="257.096045"/>
    </g>
   </g>
  </g>
 </g>
 <defs>
  <clipPath id="p661ffa4953">
   <rect height="266.112" width="357.12" x="57.6" y="41.472"/>
  </clipPath>
 </defs>
</svg>
