<?xml version="1.0" encoding="utf-8" standalone="no"?>
<!DOCTYPE svg PUBLIC "-//W3C//DTD SVG 1.1//EN"
  "http://www.w3.org/Graphics/SVG/1.1/DTD/svg11.dtd">
<!-- Created with matplotlib (https://matplotlib.org/) -->
<svg height="345.6pt" version="1.1" viewBox="0 0 460.8 345.6" width="460.8pt" xmlns="http://www.w3.org/2000/svg" xmlns:xlink="http://www.w3.org/1999/xlink">
 <defs>
  <style type="text/css">
*{stroke-linecap:butt;stroke-linejoin:round;}
  </style>
 </defs>
 <g id="figure_1">
  <g id="patch_1">
   <path d="M 0 345.6 
L 460.8 345.6 
L 460.8 0 
L 0 0 
z
" style="fill:#ffffff;"/>
  </g>
  <g id="axes_1">
   <g id="patch_2">
    <path d="M 57.6 307.584 
L 414.72 307.584 
L 414.72 41.472 
L 57.6 41.472 
z
" style="fill:#ffffff;"/>
   </g>
   <g id="PolyCollection_1">
    <path clip-path="url(#pac92fb60c5)" d="M 73.832727 283.635629 
L 73.832727 285.231915 
L 75.464157 285.231915 
L 77.095587 285.231915 
L 78.727017 285.231915 
L 80.358447 285.231915 
L 81.989877 285.231915 
L 83.621307 285.231915 
L 85.252736 285.231915 
L 86.884166 285.231915 
L 88.515596 285.231915 
L 90.147026 285.231915 
L 91.778456 285.231915 
L 93.409886 285.231915 
L 95.041316 285.231915 
L 96.672746 285.231915 
L 98.304175 285.231915 
L 99.935605 285.231915 
L 101.567035 285.231915 
L 103.198465 285.231915 
L 104.829895 285.231915 
L 106.461325 285.231915 
L 108.092755 285.231915 
L 109.724185 285.231915 
L 111.355614 285.231915 
L 112.987044 285.231915 
L 114.618474 285.231915 
L 116.249904 285.231915 
L 117.881334 285.231915 
L 119.512764 285.231915 
L 121.144194 285.231915 
L 122.775624 285.231915 
L 124.407053 285.231915 
L 126.038483 285.231915 
L 127.669913 285.231915 
L 129.301343 285.231915 
L 130.932773 285.231915 
L 132.564203 285.231915 
L 134.195633 285.231915 
L 135.827063 285.231915 
L 137.458492 285.231915 
L 139.089922 285.231915 
L 140.721352 285.231915 
L 142.352782 285.231915 
L 143.984212 285.231915 
L 145.615642 285.231915 
L 147.247072 285.231915 
L 148.878502 285.231915 
L 150.509931 285.231915 
L 152.141361 285.231915 
L 153.772791 285.231915 
L 155.404221 285.231915 
L 157.035651 285.231915 
L 158.667081 285.231915 
L 160.298511 285.231915 
L 161.929941 285.231915 
L 163.56137 285.231915 
L 165.1928 285.231915 
L 166.82423 285.231915 
L 168.45566 285.231915 
L 170.08709 285.231915 
L 171.71852 285.231915 
L 173.34995 285.231915 
L 174.98138 285.231915 
L 176.61281 285.231915 
L 178.244239 285.231915 
L 179.875669 285.231915 
L 181.507099 285.231915 
L 183.138529 285.231915 
L 184.769959 285.231915 
L 186.401389 285.231915 
L 188.032819 285.231915 
L 189.664249 285.231915 
L 191.295678 285.231915 
L 192.927108 285.231915 
L 194.558538 285.231915 
L 196.189968 285.231915 
L 197.821398 285.231915 
L 199.452828 285.231915 
L 201.084258 285.231915 
L 202.715688 285.231915 
L 204.347117 285.231915 
L 205.978547 285.231915 
L 207.609977 285.231915 
L 209.241407 285.231915 
L 210.872837 285.231915 
L 212.504267 285.415885 
L 214.135697 285.884595 
L 215.767127 287.183919 
L 217.398556 287.419935 
L 219.029986 287.078911 
L 220.661416 288.596939 
L 222.292846 287.30252 
L 223.924276 286.836104 
L 225.555706 288.405475 
L 227.187136 286.913727 
L 228.818566 287.027625 
L 230.449995 288.209067 
L 232.081425 287.374707 
L 233.712855 285.960587 
L 235.344285 286.977477 
L 236.975715 286.623642 
L 238.607145 287.355035 
L 240.238575 288.020457 
L 241.870005 286.394335 
L 243.501434 286.704348 
L 245.132864 286.808018 
L 246.764294 286.460682 
L 248.395724 286.708862 
L 250.027154 286.920384 
L 251.658584 287.454789 
L 253.290014 287.670012 
L 254.921444 287.262739 
L 256.552873 287.262692 
L 258.184303 286.784521 
L 259.815733 286.195211 
L 261.447163 287.66391 
L 263.078593 286.293095 
L 264.710023 288.351088 
L 266.341453 286.891796 
L 267.972883 287.45838 
L 269.604312 285.939762 
L 271.235742 285.537922 
L 272.867172 288.546546 
L 274.498602 285.734157 
L 276.130032 286.015345 
L 277.761462 286.73428 
L 279.392892 286.967309 
L 281.024322 285.962646 
L 282.655751 286.299557 
L 284.287181 287.735684 
L 285.918611 286.802474 
L 287.550041 287.194323 
L 289.181471 286.517935 
L 290.812901 287.772594 
L 292.444331 286.036316 
L 294.075761 285.899056 
L 295.70719 288.618323 
L 297.33862 286.044589 
L 298.97005 286.980487 
L 300.60148 286.457286 
L 302.23291 287.723085 
L 303.86434 286.299897 
L 305.49577 286.549484 
L 307.1272 288.193242 
L 308.75863 286.074544 
L 310.390059 286.463428 
L 312.021489 287.171 
L 313.652919 285.913556 
L 315.284349 288.76825 
L 316.915779 286.50505 
L 318.547209 287.188832 
L 320.178639 287.598118 
L 321.810069 286.350972 
L 323.441498 287.315962 
L 325.072928 286.077231 
L 326.704358 285.924978 
L 328.335788 286.362624 
L 329.967218 286.873743 
L 331.598648 286.961084 
L 333.230078 286.642459 
L 334.861508 288.429658 
L 336.492937 286.138119 
L 338.124367 287.181235 
L 339.755797 287.51053 
L 341.387227 287.472435 
L 343.018657 287.308967 
L 344.650087 287.380092 
L 346.281517 288.072456 
L 347.912947 288.335357 
L 349.544376 288.216367 
L 351.175806 288.485396 
L 352.807236 288.29729 
L 354.438666 287.874194 
L 356.070096 286.965104 
L 357.701526 287.495742 
L 359.332956 286.871357 
L 360.964386 287.28799 
L 362.595815 289.267338 
L 364.227245 289.463586 
L 365.858675 289.297439 
L 367.490105 289.465713 
L 369.121535 287.44787 
L 370.752965 289.408381 
L 372.384395 289.45722 
L 374.015825 289.643595 
L 375.647254 292.099253 
L 377.278684 287.155705 
L 378.910114 289.423836 
L 380.541544 292.897837 
L 382.172974 289.438906 
L 383.804404 289.469932 
L 385.435834 289.710617 
L 387.067264 290.553321 
L 388.698693 292.15164 
L 390.330123 293.349268 
L 391.961553 288.875267 
L 393.592983 289.403667 
L 395.224413 289.514249 
L 396.855843 291.293302 
L 398.487273 292.521849 
L 398.487273 273.816011 
L 398.487273 273.816011 
L 396.855843 278.286666 
L 395.224413 280.337509 
L 393.592983 281.205905 
L 391.961553 278.021276 
L 390.330123 281.991139 
L 388.698693 284.235532 
L 387.067264 278.47876 
L 385.435834 283.948102 
L 383.804404 276.374873 
L 382.172974 279.463654 
L 380.541544 282.081934 
L 378.910114 280.806287 
L 377.278684 280.569932 
L 375.647254 281.698462 
L 374.015825 282.163882 
L 372.384395 280.414559 
L 370.752965 280.691429 
L 369.121535 281.919591 
L 367.490105 285.930067 
L 365.858675 285.399442 
L 364.227245 284.363739 
L 362.595815 284.819234 
L 360.964386 280.312113 
L 359.332956 279.881158 
L 357.701526 280.723132 
L 356.070096 277.446614 
L 354.438666 283.142243 
L 352.807236 282.066602 
L 351.175806 280.279608 
L 349.544376 281.227912 
L 347.912947 284.40186 
L 346.281517 282.679671 
L 344.650087 281.425182 
L 343.018657 282.083771 
L 341.387227 283.177944 
L 339.755797 282.447622 
L 338.124367 283.07743 
L 336.492937 278.019154 
L 334.861508 284.941784 
L 333.230078 282.253279 
L 331.598648 280.139351 
L 329.967218 276.128047 
L 328.335788 276.364216 
L 326.704358 279.472877 
L 325.072928 279.208649 
L 323.441498 282.772827 
L 321.810069 278.505396 
L 320.178639 281.349343 
L 318.547209 277.588265 
L 316.915779 277.732509 
L 315.284349 281.287421 
L 313.652919 271.623159 
L 312.021489 280.685332 
L 310.390059 275.794097 
L 308.75863 278.650987 
L 307.1272 284.04885 
L 305.49577 276.725197 
L 303.86434 278.355089 
L 302.23291 282.797825 
L 300.60148 276.677913 
L 298.97005 280.494935 
L 297.33862 274.837221 
L 295.70719 284.78446 
L 294.075761 273.076455 
L 292.444331 276.167516 
L 290.812901 279.673397 
L 289.181471 278.306807 
L 287.550041 282.19059 
L 285.918611 281.315528 
L 284.287181 283.239302 
L 282.655751 279.932077 
L 281.024322 277.95642 
L 279.392892 279.910187 
L 277.761462 277.864376 
L 276.130032 279.859959 
L 274.498602 273.254485 
L 272.867172 285.440027 
L 271.235742 277.966839 
L 269.604312 278.14932 
L 267.972883 283.725068 
L 266.341453 279.282994 
L 264.710023 284.830625 
L 263.078593 278.156635 
L 261.447163 280.97905 
L 259.815733 278.681568 
L 258.184303 280.41894 
L 256.552873 280.231004 
L 254.921444 281.477181 
L 253.290014 283.435214 
L 251.658584 281.023139 
L 250.027154 278.726547 
L 248.395724 276.81049 
L 246.764294 279.429352 
L 245.132864 279.588415 
L 243.501434 278.170783 
L 241.870005 276.764046 
L 240.238575 282.613931 
L 238.607145 275.85802 
L 236.975715 280.111985 
L 235.344285 279.367759 
L 233.712855 276.23805 
L 232.081425 281.471938 
L 230.449995 283.370168 
L 228.818566 280.608781 
L 227.187136 283.004291 
L 225.555706 285.194814 
L 223.924276 274.939391 
L 222.292846 282.363473 
L 220.661416 285.927781 
L 219.029986 281.669955 
L 217.398556 282.783791 
L 215.767127 283.34837 
L 214.135697 283.397347 
L 212.504267 283.444843 
L 210.872837 284.141124 
L 209.241407 283.635629 
L 207.609977 283.635629 
L 205.978547 283.635629 
L 204.347117 283.635629 
L 202.715688 283.635629 
L 201.084258 283.635629 
L 199.452828 284.843222 
L 197.821398 283.635629 
L 196.189968 283.635629 
L 194.558538 284.541324 
L 192.927108 283.635629 
L 191.295678 283.635629 
L 189.664249 283.635629 
L 188.032819 283.635629 
L 186.401389 283.635629 
L 184.769959 283.635629 
L 183.138529 283.635629 
L 181.507099 283.635629 
L 179.875669 283.635629 
L 178.244239 283.635629 
L 176.61281 283.635629 
L 174.98138 283.635629 
L 173.34995 283.635629 
L 171.71852 284.843222 
L 170.08709 283.635629 
L 168.45566 283.635629 
L 166.82423 284.843222 
L 165.1928 283.635629 
L 163.56137 283.635629 
L 161.929941 283.635629 
L 160.298511 283.635629 
L 158.667081 283.635629 
L 157.035651 283.635629 
L 155.404221 283.635629 
L 153.772791 283.635629 
L 152.141361 283.635629 
L 150.509931 283.635629 
L 148.878502 283.635629 
L 147.247072 283.635629 
L 145.615642 283.635629 
L 143.984212 283.635629 
L 142.352782 283.635629 
L 140.721352 283.635629 
L 139.089922 283.635629 
L 137.458492 283.635629 
L 135.827063 283.635629 
L 134.195633 283.635629 
L 132.564203 283.635629 
L 130.932773 283.635629 
L 129.301343 283.635629 
L 127.669913 283.635629 
L 126.038483 283.635629 
L 124.407053 283.635629 
L 122.775624 283.635629 
L 121.144194 283.635629 
L 119.512764 283.635629 
L 117.881334 283.635629 
L 116.249904 283.635629 
L 114.618474 283.635629 
L 112.987044 283.635629 
L 111.355614 283.635629 
L 109.724185 283.635629 
L 108.092755 283.635629 
L 106.461325 283.635629 
L 104.829895 283.635629 
L 103.198465 283.635629 
L 101.567035 283.635629 
L 99.935605 283.635629 
L 98.304175 283.635629 
L 96.672746 283.635629 
L 95.041316 283.635629 
L 93.409886 283.635629 
L 91.778456 283.635629 
L 90.147026 283.635629 
L 88.515596 283.635629 
L 86.884166 283.635629 
L 85.252736 283.635629 
L 83.621307 283.635629 
L 81.989877 283.635629 
L 80.358447 283.635629 
L 78.727017 283.635629 
L 77.095587 283.635629 
L 75.464157 283.635629 
L 73.832727 283.635629 
z
" style="fill:#1f77b4;fill-opacity:0.2;"/>
   </g>
   <g id="PolyCollection_2">
    <path clip-path="url(#pac92fb60c5)" d="M 73.832727 283.635629 
L 73.832727 285.231915 
L 75.464157 285.231915 
L 77.095587 285.231915 
L 78.727017 285.231915 
L 80.358447 285.231915 
L 81.989877 285.231915 
L 83.621307 285.231915 
L 85.252736 285.231915 
L 86.884166 285.231915 
L 88.515596 285.231915 
L 90.147026 285.231915 
L 91.778456 285.231915 
L 93.409886 285.231915 
L 95.041316 285.231915 
L 96.672746 285.231915 
L 98.304175 285.231915 
L 99.935605 285.231915 
L 101.567035 285.231915 
L 103.198465 285.231915 
L 104.829895 285.231915 
L 106.461325 285.231915 
L 108.092755 285.231915 
L 109.724185 285.231915 
L 111.355614 285.231915 
L 112.987044 285.231915 
L 114.618474 285.231915 
L 116.249904 285.231915 
L 117.881334 285.231915 
L 119.512764 285.231915 
L 121.144194 285.231915 
L 122.775624 285.231915 
L 124.407053 285.231915 
L 126.038483 285.231915 
L 127.669913 285.231915 
L 129.301343 285.231915 
L 130.932773 285.231915 
L 132.564203 285.231915 
L 134.195633 285.231915 
L 135.827063 285.231915 
L 137.458492 285.231915 
L 139.089922 285.231915 
L 140.721352 285.231915 
L 142.352782 285.231915 
L 143.984212 285.231915 
L 145.615642 285.231915 
L 147.247072 285.231915 
L 148.878502 285.231915 
L 150.509931 285.231915 
L 152.141361 285.231915 
L 153.772791 285.231915 
L 155.404221 285.231915 
L 157.035651 285.231915 
L 158.667081 285.231915 
L 160.298511 285.231915 
L 161.929941 285.231915 
L 163.56137 285.231915 
L 165.1928 285.231915 
L 166.82423 285.231915 
L 168.45566 285.231915 
L 170.08709 285.231915 
L 171.71852 285.231915 
L 173.34995 285.231915 
L 174.98138 285.231915 
L 176.61281 285.231915 
L 178.244239 285.231915 
L 179.875669 285.231915 
L 181.507099 285.231915 
L 183.138529 285.231915 
L 184.769959 285.231915 
L 186.401389 285.231915 
L 188.032819 285.231915 
L 189.664249 285.231915 
L 191.295678 285.231915 
L 192.927108 285.231915 
L 194.558538 285.231915 
L 196.189968 285.231915 
L 197.821398 285.231915 
L 199.452828 285.231915 
L 201.084258 285.231915 
L 202.715688 285.231915 
L 204.347117 285.231915 
L 205.978547 285.231915 
L 207.609977 285.231915 
L 209.241407 285.293803 
L 210.872837 285.842322 
L 212.504267 286.316569 
L 214.135697 288.016683 
L 215.767127 288.438743 
L 217.398556 289.466202 
L 219.029986 289.468569 
L 220.661416 289.566786 
L 222.292846 289.557106 
L 223.924276 289.528145 
L 225.555706 289.533775 
L 227.187136 289.533352 
L 228.818566 289.523077 
L 230.449995 289.67542 
L 232.081425 289.534408 
L 233.712855 289.528994 
L 235.344285 289.523068 
L 236.975715 289.521205 
L 238.607145 289.590886 
L 240.238575 289.522739 
L 241.870005 289.519535 
L 243.501434 289.512442 
L 245.132864 289.511471 
L 246.764294 289.509873 
L 248.395724 289.508883 
L 250.027154 289.504867 
L 251.658584 289.505567 
L 253.290014 289.506095 
L 254.921444 289.509178 
L 256.552873 289.505131 
L 258.184303 289.503091 
L 259.815733 289.499217 
L 261.447163 289.685342 
L 263.078593 289.519919 
L 264.710023 290.169703 
L 266.341453 289.503637 
L 267.972883 289.502321 
L 269.604312 289.498223 
L 271.235742 289.492671 
L 272.867172 289.855618 
L 274.498602 289.495753 
L 276.130032 289.493346 
L 277.761462 289.501371 
L 279.392892 289.488645 
L 281.024322 289.482904 
L 282.655751 289.480415 
L 284.287181 289.483025 
L 285.918611 289.482088 
L 287.550041 289.48016 
L 289.181471 289.477516 
L 290.812901 289.476492 
L 292.444331 289.473874 
L 294.075761 289.470281 
L 295.70719 289.764393 
L 297.33862 289.471456 
L 298.97005 289.471053 
L 300.60148 289.470499 
L 302.23291 289.523597 
L 303.86434 289.511536 
L 305.49577 289.509988 
L 307.1272 289.519415 
L 308.75863 289.511886 
L 310.390059 289.507653 
L 312.021489 289.509531 
L 313.652919 289.508398 
L 315.284349 289.49988 
L 316.915779 289.500585 
L 318.547209 289.567966 
L 320.178639 289.504063 
L 321.810069 289.501924 
L 323.441498 289.505237 
L 325.072928 289.501984 
L 326.704358 289.495468 
L 328.335788 289.492982 
L 329.967218 289.572152 
L 331.598648 289.492688 
L 333.230078 289.491698 
L 334.861508 289.585391 
L 336.492937 289.495161 
L 338.124367 289.49695 
L 339.755797 289.500915 
L 341.387227 289.502225 
L 343.018657 289.50291 
L 344.650087 289.565445 
L 346.281517 290.0442 
L 347.912947 290.630255 
L 349.544376 290.463168 
L 351.175806 291.535101 
L 352.807236 292.406519 
L 354.438666 292.459671 
L 356.070096 292.330983 
L 357.701526 292.775112 
L 359.332956 293.124121 
L 360.964386 294.305778 
L 362.595815 293.497451 
L 364.227245 293.447712 
L 365.858675 293.486771 
L 367.490105 293.449488 
L 369.121535 293.722356 
L 370.752965 294.400734 
L 372.384395 294.058945 
L 374.015825 294.601855 
L 375.647254 294.741148 
L 377.278684 294.737885 
L 378.910114 295.047833 
L 380.541544 294.712201 
L 382.172974 295.256157 
L 383.804404 295.486504 
L 385.435834 294.827905 
L 387.067264 295.300643 
L 388.698693 295.331672 
L 390.330123 294.853252 
L 391.961553 294.699403 
L 393.592983 295.336053 
L 395.224413 294.850812 
L 396.855843 295.398436 
L 398.487273 295.488 
L 398.487273 175.278607 
L 398.487273 175.278607 
L 396.855843 160.835011 
L 395.224413 206.334663 
L 393.592983 86.480283 
L 391.961553 216.656641 
L 390.330123 146.481544 
L 388.698693 220.015995 
L 387.067264 194.107194 
L 385.435834 223.240689 
L 383.804404 58.990141 
L 382.172974 193.20302 
L 380.541544 151.804843 
L 378.910114 198.330505 
L 377.278684 195.226675 
L 375.647254 139.447994 
L 374.015825 184.6682 
L 372.384395 192.757246 
L 370.752965 207.509036 
L 369.121535 152.010612 
L 367.490105 235.506448 
L 365.858675 225.288791 
L 364.227245 173.367675 
L 362.595815 222.916643 
L 360.964386 53.568 
L 359.332956 112.593263 
L 357.701526 99.256452 
L 356.070096 191.211426 
L 354.438666 84.03254 
L 352.807236 203.357906 
L 351.175806 105.236273 
L 349.544376 187.295036 
L 347.912947 207.838111 
L 346.281517 210.684847 
L 344.650087 196.264877 
L 343.018657 209.301032 
L 341.387227 225.510351 
L 339.755797 209.01744 
L 338.124367 184.296917 
L 336.492937 169.010032 
L 334.861508 223.887704 
L 333.230078 157.901812 
L 331.598648 109.756187 
L 329.967218 87.093432 
L 328.335788 189.865338 
L 326.704358 81.367633 
L 325.072928 173.061607 
L 323.441498 198.235483 
L 321.810069 184.066716 
L 320.178639 126.065696 
L 318.547209 67.498064 
L 316.915779 70.760416 
L 315.284349 132.736291 
L 313.652919 109.378569 
L 312.021489 237.661381 
L 310.390059 93.048695 
L 308.75863 140.672333 
L 307.1272 221.204765 
L 305.49577 68.652777 
L 303.86434 78.577517 
L 302.23291 132.077361 
L 300.60148 170.525485 
L 298.97005 122.217028 
L 297.33862 184.990339 
L 295.70719 258.212272 
L 294.075761 133.279932 
L 292.444331 195.879662 
L 290.812901 132.57864 
L 289.181471 119.958863 
L 287.550041 160.270131 
L 285.918611 175.088339 
L 284.287181 202.329611 
L 282.655751 132.019442 
L 281.024322 185.262719 
L 279.392892 200.316214 
L 277.761462 63.642072 
L 276.130032 172.090033 
L 274.498602 77.705123 
L 272.867172 171.44104 
L 271.235742 189.831741 
L 269.604312 139.350539 
L 267.972883 188.000495 
L 266.341453 195.640755 
L 264.710023 224.17208 
L 263.078593 140.701727 
L 261.447163 122.533634 
L 259.815733 68.080189 
L 258.184303 98.889906 
L 256.552873 140.70249 
L 254.921444 175.414711 
L 253.290014 207.806136 
L 251.658584 156.917742 
L 250.027154 136.22931 
L 248.395724 85.835311 
L 246.764294 71.386731 
L 245.132864 181.961076 
L 243.501434 54.820798 
L 241.870005 206.937235 
L 240.238575 158.209319 
L 238.607145 189.114957 
L 236.975715 223.588668 
L 235.344285 180.603852 
L 233.712855 147.944554 
L 232.081425 110.347301 
L 230.449995 221.922266 
L 228.818566 175.304142 
L 227.187136 196.717737 
L 225.555706 232.19404 
L 223.924276 155.284407 
L 222.292846 193.39086 
L 220.661416 233.995651 
L 219.029986 208.580996 
L 217.398556 231.82438 
L 215.767127 237.364229 
L 214.135697 263.985569 
L 212.504267 260.582446 
L 210.872837 252.867417 
L 209.241407 237.6083 
L 207.609977 279.058375 
L 205.978547 283.635629 
L 204.347117 206.291178 
L 202.715688 231.909718 
L 201.084258 174.519528 
L 199.452828 186.81471 
L 197.821398 283.635629 
L 196.189968 283.635629 
L 194.558538 283.635629 
L 192.927108 283.635629 
L 191.295678 283.635629 
L 189.664249 283.635629 
L 188.032819 283.635629 
L 186.401389 283.635629 
L 184.769959 283.635629 
L 183.138529 283.635629 
L 181.507099 283.635629 
L 179.875669 283.635629 
L 178.244239 283.635629 
L 176.61281 283.635629 
L 174.98138 283.635629 
L 173.34995 283.635629 
L 171.71852 283.635629 
L 170.08709 283.635629 
L 168.45566 283.635629 
L 166.82423 283.635629 
L 165.1928 283.635629 
L 163.56137 283.635629 
L 161.929941 283.635629 
L 160.298511 283.635629 
L 158.667081 283.635629 
L 157.035651 283.635629 
L 155.404221 283.635629 
L 153.772791 283.635629 
L 152.141361 283.635629 
L 150.509931 283.635629 
L 148.878502 283.635629 
L 147.247072 283.635629 
L 145.615642 283.635629 
L 143.984212 283.635629 
L 142.352782 283.635629 
L 140.721352 283.635629 
L 139.089922 283.635629 
L 137.458492 283.635629 
L 135.827063 283.635629 
L 134.195633 283.635629 
L 132.564203 283.635629 
L 130.932773 283.635629 
L 129.301343 283.635629 
L 127.669913 283.635629 
L 126.038483 283.635629 
L 124.407053 283.635629 
L 122.775624 283.635629 
L 121.144194 283.635629 
L 119.512764 283.635629 
L 117.881334 283.635629 
L 116.249904 283.635629 
L 114.618474 283.635629 
L 112.987044 283.635629 
L 111.355614 283.635629 
L 109.724185 283.635629 
L 108.092755 283.635629 
L 106.461325 283.635629 
L 104.829895 283.635629 
L 103.198465 283.635629 
L 101.567035 283.635629 
L 99.935605 283.635629 
L 98.304175 283.635629 
L 96.672746 283.635629 
L 95.041316 283.635629 
L 93.409886 283.635629 
L 91.778456 283.635629 
L 90.147026 283.635629 
L 88.515596 283.635629 
L 86.884166 283.635629 
L 85.252736 283.635629 
L 83.621307 283.635629 
L 81.989877 283.635629 
L 80.358447 283.635629 
L 78.727017 283.635629 
L 77.095587 283.635629 
L 75.464157 283.635629 
L 73.832727 283.635629 
z
" style="fill:#1f77b4;fill-opacity:0.1;"/>
   </g>
   <g id="matplotlib.axis_1">
    <g id="xtick_1">
     <g id="line2d_1">
      <defs>
       <path d="M 0 0 
L 0 3.5 
" id="mdf2dd707d4" style="stroke:#000000;stroke-width:0.8;"/>
      </defs>
      <g>
       <use style="stroke:#000000;stroke-width:0.8;" x="73.832727" xlink:href="#mdf2dd707d4" y="307.584"/>
      </g>
     </g>
     <g id="text_1">
      <!-- 0 -->
      <defs>
       <path d="M 31.78125 66.40625 
Q 24.171875 66.40625 20.328125 58.90625 
Q 16.5 51.421875 16.5 36.375 
Q 16.5 21.390625 20.328125 13.890625 
Q 24.171875 6.390625 31.78125 6.390625 
Q 39.453125 6.390625 43.28125 13.890625 
Q 47.125 21.390625 47.125 36.375 
Q 47.125 51.421875 43.28125 58.90625 
Q 39.453125 66.40625 31.78125 66.40625 
z
M 31.78125 74.21875 
Q 44.046875 74.21875 50.515625 64.515625 
Q 56.984375 54.828125 56.984375 36.375 
Q 56.984375 17.96875 50.515625 8.265625 
Q 44.046875 -1.421875 31.78125 -1.421875 
Q 19.53125 -1.421875 13.0625 8.265625 
Q 6.59375 17.96875 6.59375 36.375 
Q 6.59375 54.828125 13.0625 64.515625 
Q 19.53125 74.21875 31.78125 74.21875 
z
" id="DejaVuSans-48"/>
      </defs>
      <g transform="translate(70.651477 322.182437)scale(0.1 -0.1)">
       <use xlink:href="#DejaVuSans-48"/>
      </g>
     </g>
    </g>
    <g id="xtick_2">
     <g id="line2d_2">
      <g>
       <use style="stroke:#000000;stroke-width:0.8;" x="114.618474" xlink:href="#mdf2dd707d4" y="307.584"/>
      </g>
     </g>
     <g id="text_2">
      <!-- 25 -->
      <defs>
       <path d="M 19.1875 8.296875 
L 53.609375 8.296875 
L 53.609375 0 
L 7.328125 0 
L 7.328125 8.296875 
Q 12.9375 14.109375 22.625 23.890625 
Q 32.328125 33.6875 34.8125 36.53125 
Q 39.546875 41.84375 41.421875 45.53125 
Q 43.3125 49.21875 43.3125 52.78125 
Q 43.3125 58.59375 39.234375 62.25 
Q 35.15625 65.921875 28.609375 65.921875 
Q 23.96875 65.921875 18.8125 64.3125 
Q 13.671875 62.703125 7.8125 59.421875 
L 7.8125 69.390625 
Q 13.765625 71.78125 18.9375 73 
Q 24.125 74.21875 28.421875 74.21875 
Q 39.75 74.21875 46.484375 68.546875 
Q 53.21875 62.890625 53.21875 53.421875 
Q 53.21875 48.921875 51.53125 44.890625 
Q 49.859375 40.875 45.40625 35.40625 
Q 44.1875 33.984375 37.640625 27.21875 
Q 31.109375 20.453125 19.1875 8.296875 
z
" id="DejaVuSans-50"/>
       <path d="M 10.796875 72.90625 
L 49.515625 72.90625 
L 49.515625 64.59375 
L 19.828125 64.59375 
L 19.828125 46.734375 
Q 21.96875 47.46875 24.109375 47.828125 
Q 26.265625 48.1875 28.421875 48.1875 
Q 40.625 48.1875 47.75 41.5 
Q 54.890625 34.8125 54.890625 23.390625 
Q 54.890625 11.625 47.5625 5.09375 
Q 40.234375 -1.421875 26.90625 -1.421875 
Q 22.3125 -1.421875 17.546875 -0.640625 
Q 12.796875 0.140625 7.71875 1.703125 
L 7.71875 11.625 
Q 12.109375 9.234375 16.796875 8.0625 
Q 21.484375 6.890625 26.703125 6.890625 
Q 35.15625 6.890625 40.078125 11.328125 
Q 45.015625 15.765625 45.015625 23.390625 
Q 45.015625 31 40.078125 35.4375 
Q 35.15625 39.890625 26.703125 39.890625 
Q 22.75 39.890625 18.8125 39.015625 
Q 14.890625 38.140625 10.796875 36.28125 
z
" id="DejaVuSans-53"/>
      </defs>
      <g transform="translate(108.255974 322.182437)scale(0.1 -0.1)">
       <use xlink:href="#DejaVuSans-50"/>
       <use x="63.623047" xlink:href="#DejaVuSans-53"/>
      </g>
     </g>
    </g>
    <g id="xtick_3">
     <g id="line2d_3">
      <g>
       <use style="stroke:#000000;stroke-width:0.8;" x="155.404221" xlink:href="#mdf2dd707d4" y="307.584"/>
      </g>
     </g>
     <g id="text_3">
      <!-- 50 -->
      <g transform="translate(149.041721 322.182437)scale(0.1 -0.1)">
       <use xlink:href="#DejaVuSans-53"/>
       <use x="63.623047" xlink:href="#DejaVuSans-48"/>
      </g>
     </g>
    </g>
    <g id="xtick_4">
     <g id="line2d_4">
      <g>
       <use style="stroke:#000000;stroke-width:0.8;" x="196.189968" xlink:href="#mdf2dd707d4" y="307.584"/>
      </g>
     </g>
     <g id="text_4">
      <!-- 75 -->
      <defs>
       <path d="M 8.203125 72.90625 
L 55.078125 72.90625 
L 55.078125 68.703125 
L 28.609375 0 
L 18.3125 0 
L 43.21875 64.59375 
L 8.203125 64.59375 
z
" id="DejaVuSans-55"/>
      </defs>
      <g transform="translate(189.827468 322.182437)scale(0.1 -0.1)">
       <use xlink:href="#DejaVuSans-55"/>
       <use x="63.623047" xlink:href="#DejaVuSans-53"/>
      </g>
     </g>
    </g>
    <g id="xtick_5">
     <g id="line2d_5">
      <g>
       <use style="stroke:#000000;stroke-width:0.8;" x="236.975715" xlink:href="#mdf2dd707d4" y="307.584"/>
      </g>
     </g>
     <g id="text_5">
      <!-- 100 -->
      <defs>
       <path d="M 12.40625 8.296875 
L 28.515625 8.296875 
L 28.515625 63.921875 
L 10.984375 60.40625 
L 10.984375 69.390625 
L 28.421875 72.90625 
L 38.28125 72.90625 
L 38.28125 8.296875 
L 54.390625 8.296875 
L 54.390625 0 
L 12.40625 0 
z
" id="DejaVuSans-49"/>
      </defs>
      <g transform="translate(227.431965 322.182437)scale(0.1 -0.1)">
       <use xlink:href="#DejaVuSans-49"/>
       <use x="63.623047" xlink:href="#DejaVuSans-48"/>
       <use x="127.246094" xlink:href="#DejaVuSans-48"/>
      </g>
     </g>
    </g>
    <g id="xtick_6">
     <g id="line2d_6">
      <g>
       <use style="stroke:#000000;stroke-width:0.8;" x="277.761462" xlink:href="#mdf2dd707d4" y="307.584"/>
      </g>
     </g>
     <g id="text_6">
      <!-- 125 -->
      <g transform="translate(268.217712 322.182437)scale(0.1 -0.1)">
       <use xlink:href="#DejaVuSans-49"/>
       <use x="63.623047" xlink:href="#DejaVuSans-50"/>
       <use x="127.246094" xlink:href="#DejaVuSans-53"/>
      </g>
     </g>
    </g>
    <g id="xtick_7">
     <g id="line2d_7">
      <g>
       <use style="stroke:#000000;stroke-width:0.8;" x="318.547209" xlink:href="#mdf2dd707d4" y="307.584"/>
      </g>
     </g>
     <g id="text_7">
      <!-- 150 -->
      <g transform="translate(309.003459 322.182437)scale(0.1 -0.1)">
       <use xlink:href="#DejaVuSans-49"/>
       <use x="63.623047" xlink:href="#DejaVuSans-53"/>
       <use x="127.246094" xlink:href="#DejaVuSans-48"/>
      </g>
     </g>
    </g>
    <g id="xtick_8">
     <g id="line2d_8">
      <g>
       <use style="stroke:#000000;stroke-width:0.8;" x="359.332956" xlink:href="#mdf2dd707d4" y="307.584"/>
      </g>
     </g>
     <g id="text_8">
      <!-- 175 -->
      <g transform="translate(349.789206 322.182437)scale(0.1 -0.1)">
       <use xlink:href="#DejaVuSans-49"/>
       <use x="63.623047" xlink:href="#DejaVuSans-55"/>
       <use x="127.246094" xlink:href="#DejaVuSans-53"/>
      </g>
     </g>
    </g>
    <g id="xtick_9">
     <g id="line2d_9">
      <g>
       <use style="stroke:#000000;stroke-width:0.8;" x="400.118703" xlink:href="#mdf2dd707d4" y="307.584"/>
      </g>
     </g>
     <g id="text_9">
      <!-- 200 -->
      <g transform="translate(390.574953 322.182437)scale(0.1 -0.1)">
       <use xlink:href="#DejaVuSans-50"/>
       <use x="63.623047" xlink:href="#DejaVuSans-48"/>
       <use x="127.246094" xlink:href="#DejaVuSans-48"/>
      </g>
     </g>
    </g>
   </g>
   <g id="matplotlib.axis_2">
    <g id="ytick_1">
     <g id="line2d_10">
      <defs>
       <path d="M 0 0 
L -3.5 0 
" id="mb8786b0a7e" style="stroke:#000000;stroke-width:0.8;"/>
      </defs>
      <g>
       <use style="stroke:#000000;stroke-width:0.8;" x="57.6" xlink:href="#mb8786b0a7e" y="299.907329"/>
      </g>
     </g>
     <g id="text_10">
      <!-- 0.0 -->
      <defs>
       <path d="M 10.6875 12.40625 
L 21 12.40625 
L 21 0 
L 10.6875 0 
z
" id="DejaVuSans-46"/>
      </defs>
      <g transform="translate(34.696875 303.706548)scale(0.1 -0.1)">
       <use xlink:href="#DejaVuSans-48"/>
       <use x="63.623047" xlink:href="#DejaVuSans-46"/>
       <use x="95.410156" xlink:href="#DejaVuSans-48"/>
      </g>
     </g>
    </g>
    <g id="ytick_2">
     <g id="line2d_11">
      <g>
       <use style="stroke:#000000;stroke-width:0.8;" x="57.6" xlink:href="#mb8786b0a7e" y="266.511984"/>
      </g>
     </g>
     <g id="text_11">
      <!-- 2.5 -->
      <g transform="translate(34.696875 270.311203)scale(0.1 -0.1)">
       <use xlink:href="#DejaVuSans-50"/>
       <use x="63.623047" xlink:href="#DejaVuSans-46"/>
       <use x="95.410156" xlink:href="#DejaVuSans-53"/>
      </g>
     </g>
    </g>
    <g id="ytick_3">
     <g id="line2d_12">
      <g>
       <use style="stroke:#000000;stroke-width:0.8;" x="57.6" xlink:href="#mb8786b0a7e" y="233.116639"/>
      </g>
     </g>
     <g id="text_12">
      <!-- 5.0 -->
      <g transform="translate(34.696875 236.915857)scale(0.1 -0.1)">
       <use xlink:href="#DejaVuSans-53"/>
       <use x="63.623047" xlink:href="#DejaVuSans-46"/>
       <use x="95.410156" xlink:href="#DejaVuSans-48"/>
      </g>
     </g>
    </g>
    <g id="ytick_4">
     <g id="line2d_13">
      <g>
       <use style="stroke:#000000;stroke-width:0.8;" x="57.6" xlink:href="#mb8786b0a7e" y="199.721293"/>
      </g>
     </g>
     <g id="text_13">
      <!-- 7.5 -->
      <g transform="translate(34.696875 203.520512)scale(0.1 -0.1)">
       <use xlink:href="#DejaVuSans-55"/>
       <use x="63.623047" xlink:href="#DejaVuSans-46"/>
       <use x="95.410156" xlink:href="#DejaVuSans-53"/>
      </g>
     </g>
    </g>
    <g id="ytick_5">
     <g id="line2d_14">
      <g>
       <use style="stroke:#000000;stroke-width:0.8;" x="57.6" xlink:href="#mb8786b0a7e" y="166.325948"/>
      </g>
     </g>
     <g id="text_14">
      <!-- 10.0 -->
      <g transform="translate(28.334375 170.125166)scale(0.1 -0.1)">
       <use xlink:href="#DejaVuSans-49"/>
       <use x="63.623047" xlink:href="#DejaVuSans-48"/>
       <use x="127.246094" xlink:href="#DejaVuSans-46"/>
       <use x="159.033203" xlink:href="#DejaVuSans-48"/>
      </g>
     </g>
    </g>
    <g id="ytick_6">
     <g id="line2d_15">
      <g>
       <use style="stroke:#000000;stroke-width:0.8;" x="57.6" xlink:href="#mb8786b0a7e" y="132.930602"/>
      </g>
     </g>
     <g id="text_15">
      <!-- 12.5 -->
      <g transform="translate(28.334375 136.729821)scale(0.1 -0.1)">
       <use xlink:href="#DejaVuSans-49"/>
       <use x="63.623047" xlink:href="#DejaVuSans-50"/>
       <use x="127.246094" xlink:href="#DejaVuSans-46"/>
       <use x="159.033203" xlink:href="#DejaVuSans-53"/>
      </g>
     </g>
    </g>
    <g id="ytick_7">
     <g id="line2d_16">
      <g>
       <use style="stroke:#000000;stroke-width:0.8;" x="57.6" xlink:href="#mb8786b0a7e" y="99.535257"/>
      </g>
     </g>
     <g id="text_16">
      <!-- 15.0 -->
      <g transform="translate(28.334375 103.334476)scale(0.1 -0.1)">
       <use xlink:href="#DejaVuSans-49"/>
       <use x="63.623047" xlink:href="#DejaVuSans-53"/>
       <use x="127.246094" xlink:href="#DejaVuSans-46"/>
       <use x="159.033203" xlink:href="#DejaVuSans-48"/>
      </g>
     </g>
    </g>
    <g id="ytick_8">
     <g id="line2d_17">
      <g>
       <use style="stroke:#000000;stroke-width:0.8;" x="57.6" xlink:href="#mb8786b0a7e" y="66.139911"/>
      </g>
     </g>
     <g id="text_17">
      <!-- 17.5 -->
      <g transform="translate(28.334375 69.93913)scale(0.1 -0.1)">
       <use xlink:href="#DejaVuSans-49"/>
       <use x="63.623047" xlink:href="#DejaVuSans-55"/>
       <use x="127.246094" xlink:href="#DejaVuSans-46"/>
       <use x="159.033203" xlink:href="#DejaVuSans-53"/>
      </g>
     </g>
    </g>
   </g>
   <g id="line2d_18">
    <path clip-path="url(#pac92fb60c5)" d="M 73.832727 284.843222 
L 75.464157 285.231915 
L 78.727017 285.231915 
L 80.358447 284.843222 
L 81.989877 285.231915 
L 90.147026 285.231915 
L 91.778456 284.843222 
L 93.409886 285.231915 
L 99.935605 285.231915 
L 101.567035 284.843222 
L 103.198465 285.231915 
L 109.724185 285.231915 
L 111.355614 284.843222 
L 112.987044 285.231915 
L 119.512764 285.231915 
L 121.144194 285.037568 
L 122.775624 285.231915 
L 130.932773 285.231915 
L 132.564203 284.843222 
L 134.195633 284.843222 
L 135.827063 285.231915 
L 137.458492 285.231915 
L 139.089922 284.843222 
L 140.721352 285.231915 
L 142.352782 285.231915 
L 143.984212 284.843222 
L 147.247072 285.231915 
L 148.878502 284.843222 
L 150.509931 284.843222 
L 152.141361 285.231915 
L 161.929941 285.231915 
L 163.56137 285.037568 
L 165.1928 285.231915 
L 173.34995 285.231915 
L 174.98138 284.843222 
L 178.244239 284.843222 
L 179.875669 285.231915 
L 181.507099 284.843222 
L 183.138529 285.231915 
L 188.032819 285.231915 
L 189.664249 284.843222 
L 191.295678 285.231915 
L 192.927108 284.843222 
L 194.558538 285.231915 
L 199.452828 285.231915 
L 201.084258 284.843222 
L 202.715688 285.231915 
L 205.978547 285.231915 
L 207.609977 284.843222 
L 210.872837 284.926886 
L 212.504267 285.172114 
L 215.767127 285.947949 
L 217.398556 285.067928 
L 219.029986 285.398301 
L 220.661416 287.560183 
L 222.292846 285.430146 
L 223.924276 282.19705 
L 225.555706 287.163935 
L 227.187136 286.025792 
L 228.818566 284.323233 
L 230.449995 286.658065 
L 232.081425 284.948664 
L 233.712855 282.449168 
L 235.344285 285.101811 
L 236.975715 285.187932 
L 240.238575 286.398388 
L 241.870005 283.619403 
L 243.501434 283.911943 
L 245.132864 284.857442 
L 246.764294 283.282626 
L 248.395724 283.771114 
L 250.027154 284.706223 
L 251.658584 285.026004 
L 253.290014 286.653004 
L 254.921444 285.52206 
L 256.552873 285.131089 
L 258.184303 285.395909 
L 259.815733 283.577635 
L 261.447163 285.636326 
L 263.078593 284.160196 
L 264.710023 286.415621 
L 266.341453 284.570777 
L 267.972883 286.474765 
L 269.604312 283.108013 
L 271.235742 282.638049 
L 272.867172 287.633003 
L 274.498602 281.338068 
L 276.130032 284.962294 
L 277.761462 284.815543 
L 279.392892 285.532558 
L 281.024322 284.283941 
L 284.287181 285.242974 
L 285.918611 284.424208 
L 287.550041 285.587607 
L 290.812901 283.32918 
L 292.444331 282.560617 
L 294.075761 283.006466 
L 295.70719 286.686281 
L 297.33862 282.445315 
L 298.97005 284.345846 
L 300.60148 283.59153 
L 302.23291 286.670518 
L 303.86434 283.975807 
L 305.49577 283.548895 
L 307.1272 286.206359 
L 308.75863 283.405333 
L 310.390059 283.684853 
L 312.021489 285.040863 
L 313.652919 282.191337 
L 315.284349 286.160661 
L 316.915779 284.075069 
L 318.547209 283.049255 
L 320.178639 285.191747 
L 321.810069 285.011929 
L 323.441498 286.629862 
L 325.072928 283.605139 
L 326.704358 284.604164 
L 328.335788 285.138348 
L 329.967218 285.270377 
L 331.598648 284.938476 
L 333.230078 285.281722 
L 334.861508 286.388575 
L 336.492937 284.009338 
L 338.124367 285.803457 
L 339.755797 285.857818 
L 341.387227 285.367117 
L 343.018657 285.411269 
L 344.650087 285.732315 
L 346.281517 286.877505 
L 347.912947 287.330984 
L 349.544376 286.638059 
L 351.175806 286.090993 
L 352.807236 286.66972 
L 354.438666 285.933518 
L 356.070096 283.992144 
L 359.332956 285.332226 
L 360.964386 284.842242 
L 362.595815 286.989404 
L 364.227245 287.324582 
L 365.858675 288.018458 
L 367.490105 288.13275 
L 369.121535 286.19973 
L 370.752965 286.73078 
L 372.384395 286.361424 
L 374.015825 286.589968 
L 375.647254 286.092728 
L 377.278684 285.262351 
L 378.910114 286.294964 
L 380.541544 287.768027 
L 382.172974 285.465934 
L 383.804404 285.435458 
L 385.435834 287.70618 
L 387.067264 286.755764 
L 388.698693 287.81091 
L 390.330123 287.166387 
L 391.961553 286.116206 
L 393.592983 286.854222 
L 395.224413 287.247743 
L 396.855843 285.210249 
L 398.487273 285.934137 
L 398.487273 285.934137 
" style="fill:none;stroke:#1f77b4;stroke-linecap:square;stroke-width:0.25;"/>
   </g>
   <g id="line2d_19">
    <path clip-path="url(#pac92fb60c5)" d="M 73.832727 284.588118 
L 78.727017 284.709858 
L 80.358447 284.53121 
L 81.989877 284.538153 
L 83.621307 284.721934 
L 88.515596 284.646006 
L 90.147026 284.711103 
L 93.409886 284.658913 
L 95.041316 284.762463 
L 101.567035 284.563135 
L 103.198465 284.718462 
L 108.092755 284.722764 
L 117.881334 284.594646 
L 121.144194 284.699442 
L 137.458492 284.666686 
L 139.089922 284.523436 
L 142.352782 284.735255 
L 143.984212 284.619213 
L 147.247072 284.62227 
L 148.878502 284.514832 
L 152.141361 284.634346 
L 153.772791 284.739142 
L 155.404221 284.662799 
L 157.035651 284.710273 
L 160.298511 284.630874 
L 166.82423 284.837976 
L 168.45566 284.570494 
L 171.71852 284.774955 
L 173.34995 284.65461 
L 174.98138 284.667517 
L 178.244239 284.563135 
L 179.875669 284.694725 
L 181.507099 284.534681 
L 183.138529 284.650724 
L 184.769959 284.586457 
L 186.401389 284.742614 
L 192.927108 284.6231 
L 194.558538 284.782313 
L 197.821398 284.690423 
L 199.452828 283.82179 
L 201.084258 282.020662 
L 202.715688 283.852641 
L 204.347117 283.413701 
L 205.978547 284.657017 
L 210.872837 284.014456 
L 212.504267 283.400825 
L 214.135697 283.2914 
L 215.767127 284.103856 
L 217.398556 283.421147 
L 219.029986 282.053219 
L 220.661416 285.407343 
L 222.292846 281.783091 
L 223.924276 274.337826 
L 225.555706 285.291119 
L 227.187136 282.605754 
L 228.818566 277.637414 
L 230.449995 283.83763 
L 232.081425 280.403294 
L 233.712855 275.112054 
L 235.344285 280.564352 
L 236.975715 281.46178 
L 238.607145 276.323083 
L 240.238575 281.633224 
L 241.870005 275.549331 
L 243.501434 276.819304 
L 245.132864 280.28208 
L 246.764294 278.349836 
L 248.395724 274.693366 
L 250.027154 278.877629 
L 251.658584 278.611171 
L 253.290014 282.45045 
L 254.921444 280.196239 
L 256.552873 279.888931 
L 258.184303 277.208053 
L 259.815733 277.195474 
L 261.447163 278.412639 
L 263.078593 277.803777 
L 264.710023 283.305721 
L 266.341453 278.553956 
L 267.972883 282.676106 
L 269.604312 277.407768 
L 271.235742 279.218822 
L 272.867172 284.444004 
L 274.498602 274.234887 
L 276.130032 280.264722 
L 277.761462 275.636506 
L 279.392892 279.484501 
L 281.024322 278.008221 
L 282.655751 277.995346 
L 284.287181 281.546799 
L 285.918611 280.988915 
L 287.550041 280.736921 
L 289.181471 276.290262 
L 290.812901 275.764184 
L 292.444331 278.707421 
L 294.075761 272.785486 
L 295.70719 285.111429 
L 297.33862 274.882064 
L 298.97005 279.499002 
L 300.60148 275.195236 
L 302.23291 281.654964 
L 303.86434 277.21251 
L 305.49577 273.581985 
L 307.1272 283.434237 
L 308.75863 278.35296 
L 310.390059 275.231448 
L 312.021489 282.397903 
L 313.652919 271.407652 
L 315.284349 279.927275 
L 316.915779 274.521961 
L 318.547209 270.034548 
L 320.178639 276.147111 
L 321.810069 278.360299 
L 323.441498 283.086487 
L 325.072928 278.678131 
L 326.704358 276.818324 
L 328.335788 277.690102 
L 329.967218 277.055618 
L 331.598648 278.216165 
L 333.230078 279.962219 
L 334.861508 283.044281 
L 336.492937 279.729454 
L 338.124367 278.456763 
L 339.755797 281.388752 
L 341.387227 283.220062 
L 343.018657 283.02173 
L 344.650087 280.214677 
L 346.281517 282.356501 
L 347.912947 283.731246 
L 349.544376 281.891094 
L 351.175806 277.910762 
L 352.807236 282.102891 
L 354.438666 277.019639 
L 356.070096 280.054857 
L 357.701526 277.255352 
L 359.332956 276.511723 
L 360.964386 276.74649 
L 362.595815 284.234808 
L 364.227245 281.988586 
L 365.858675 286.075948 
L 367.490105 285.56972 
L 369.121535 280.320903 
L 370.752965 282.406733 
L 372.384395 282.385737 
L 374.015825 281.862451 
L 375.647254 281.668087 
L 377.278684 280.809496 
L 378.910114 281.388276 
L 380.541544 281.380028 
L 382.172974 280.293518 
L 383.804404 274.285691 
L 385.435834 285.139543 
L 387.067264 279.330221 
L 388.698693 285.217128 
L 390.330123 280.97285 
L 391.961553 280.363025 
L 393.592983 280.533709 
L 395.224413 282.555705 
L 396.855843 277.909242 
L 398.487273 276.962803 
L 398.487273 276.962803 
" style="fill:none;stroke:#2ca02c;stroke-linecap:square;stroke-width:0.75;"/>
   </g>
   <g id="patch_3">
    <path d="M 57.6 307.584 
L 57.6 41.472 
" style="fill:none;stroke:#000000;stroke-linecap:square;stroke-linejoin:miter;stroke-width:0.8;"/>
   </g>
   <g id="patch_4">
    <path d="M 414.72 307.584 
L 414.72 41.472 
" style="fill:none;stroke:#000000;stroke-linecap:square;stroke-linejoin:miter;stroke-width:0.8;"/>
   </g>
   <g id="patch_5">
    <path d="M 57.6 307.584 
L 414.72 307.584 
" style="fill:none;stroke:#000000;stroke-linecap:square;stroke-linejoin:miter;stroke-width:0.8;"/>
   </g>
   <g id="patch_6">
    <path d="M 57.6 41.472 
L 414.72 41.472 
" style="fill:none;stroke:#000000;stroke-linecap:square;stroke-linejoin:miter;stroke-width:0.8;"/>
   </g>
   <g id="legend_1">
    <g id="patch_7">
     <path d="M 338.234063 78.82825 
L 407.72 78.82825 
Q 409.72 78.82825 409.72 76.82825 
L 409.72 48.472 
Q 409.72 46.472 407.72 46.472 
L 338.234063 46.472 
Q 336.234063 46.472 336.234063 48.472 
L 336.234063 76.82825 
Q 336.234063 78.82825 338.234063 78.82825 
z
" style="fill:#ffffff;opacity:0.8;stroke:#cccccc;stroke-linejoin:miter;"/>
    </g>
    <g id="line2d_20">
     <path d="M 340.234063 54.570437 
L 360.234063 54.570437 
" style="fill:none;stroke:#1f77b4;stroke-linecap:square;stroke-width:0.25;"/>
    </g>
    <g id="line2d_21"/>
    <g id="text_18">
     <!-- median -->
     <defs>
      <path d="M 52 44.1875 
Q 55.375 50.25 60.0625 53.125 
Q 64.75 56 71.09375 56 
Q 79.640625 56 84.28125 50.015625 
Q 88.921875 44.046875 88.921875 33.015625 
L 88.921875 0 
L 79.890625 0 
L 79.890625 32.71875 
Q 79.890625 40.578125 77.09375 44.375 
Q 74.3125 48.1875 68.609375 48.1875 
Q 61.625 48.1875 57.5625 43.546875 
Q 53.515625 38.921875 53.515625 30.90625 
L 53.515625 0 
L 44.484375 0 
L 44.484375 32.71875 
Q 44.484375 40.625 41.703125 44.40625 
Q 38.921875 48.1875 33.109375 48.1875 
Q 26.21875 48.1875 22.15625 43.53125 
Q 18.109375 38.875 18.109375 30.90625 
L 18.109375 0 
L 9.078125 0 
L 9.078125 54.6875 
L 18.109375 54.6875 
L 18.109375 46.1875 
Q 21.1875 51.21875 25.484375 53.609375 
Q 29.78125 56 35.6875 56 
Q 41.65625 56 45.828125 52.96875 
Q 50 49.953125 52 44.1875 
z
" id="DejaVuSans-109"/>
      <path d="M 56.203125 29.59375 
L 56.203125 25.203125 
L 14.890625 25.203125 
Q 15.484375 15.921875 20.484375 11.0625 
Q 25.484375 6.203125 34.421875 6.203125 
Q 39.59375 6.203125 44.453125 7.46875 
Q 49.3125 8.734375 54.109375 11.28125 
L 54.109375 2.78125 
Q 49.265625 0.734375 44.1875 -0.34375 
Q 39.109375 -1.421875 33.890625 -1.421875 
Q 20.796875 -1.421875 13.15625 6.1875 
Q 5.515625 13.8125 5.515625 26.8125 
Q 5.515625 40.234375 12.765625 48.109375 
Q 20.015625 56 32.328125 56 
Q 43.359375 56 49.78125 48.890625 
Q 56.203125 41.796875 56.203125 29.59375 
z
M 47.21875 32.234375 
Q 47.125 39.59375 43.09375 43.984375 
Q 39.0625 48.390625 32.421875 48.390625 
Q 24.90625 48.390625 20.390625 44.140625 
Q 15.875 39.890625 15.1875 32.171875 
z
" id="DejaVuSans-101"/>
      <path d="M 45.40625 46.390625 
L 45.40625 75.984375 
L 54.390625 75.984375 
L 54.390625 0 
L 45.40625 0 
L 45.40625 8.203125 
Q 42.578125 3.328125 38.25 0.953125 
Q 33.9375 -1.421875 27.875 -1.421875 
Q 17.96875 -1.421875 11.734375 6.484375 
Q 5.515625 14.40625 5.515625 27.296875 
Q 5.515625 40.1875 11.734375 48.09375 
Q 17.96875 56 27.875 56 
Q 33.9375 56 38.25 53.625 
Q 42.578125 51.265625 45.40625 46.390625 
z
M 14.796875 27.296875 
Q 14.796875 17.390625 18.875 11.75 
Q 22.953125 6.109375 30.078125 6.109375 
Q 37.203125 6.109375 41.296875 11.75 
Q 45.40625 17.390625 45.40625 27.296875 
Q 45.40625 37.203125 41.296875 42.84375 
Q 37.203125 48.484375 30.078125 48.484375 
Q 22.953125 48.484375 18.875 42.84375 
Q 14.796875 37.203125 14.796875 27.296875 
z
" id="DejaVuSans-100"/>
      <path d="M 9.421875 54.6875 
L 18.40625 54.6875 
L 18.40625 0 
L 9.421875 0 
z
M 9.421875 75.984375 
L 18.40625 75.984375 
L 18.40625 64.59375 
L 9.421875 64.59375 
z
" id="DejaVuSans-105"/>
      <path d="M 34.28125 27.484375 
Q 23.390625 27.484375 19.1875 25 
Q 14.984375 22.515625 14.984375 16.5 
Q 14.984375 11.71875 18.140625 8.90625 
Q 21.296875 6.109375 26.703125 6.109375 
Q 34.1875 6.109375 38.703125 11.40625 
Q 43.21875 16.703125 43.21875 25.484375 
L 43.21875 27.484375 
z
M 52.203125 31.203125 
L 52.203125 0 
L 43.21875 0 
L 43.21875 8.296875 
Q 40.140625 3.328125 35.546875 0.953125 
Q 30.953125 -1.421875 24.3125 -1.421875 
Q 15.921875 -1.421875 10.953125 3.296875 
Q 6 8.015625 6 15.921875 
Q 6 25.140625 12.171875 29.828125 
Q 18.359375 34.515625 30.609375 34.515625 
L 43.21875 34.515625 
L 43.21875 35.40625 
Q 43.21875 41.609375 39.140625 45 
Q 35.0625 48.390625 27.6875 48.390625 
Q 23 48.390625 18.546875 47.265625 
Q 14.109375 46.140625 10.015625 43.890625 
L 10.015625 52.203125 
Q 14.9375 54.109375 19.578125 55.046875 
Q 24.21875 56 28.609375 56 
Q 40.484375 56 46.34375 49.84375 
Q 52.203125 43.703125 52.203125 31.203125 
z
" id="DejaVuSans-97"/>
      <path d="M 54.890625 33.015625 
L 54.890625 0 
L 45.90625 0 
L 45.90625 32.71875 
Q 45.90625 40.484375 42.875 44.328125 
Q 39.84375 48.1875 33.796875 48.1875 
Q 26.515625 48.1875 22.3125 43.546875 
Q 18.109375 38.921875 18.109375 30.90625 
L 18.109375 0 
L 9.078125 0 
L 9.078125 54.6875 
L 18.109375 54.6875 
L 18.109375 46.1875 
Q 21.34375 51.125 25.703125 53.5625 
Q 30.078125 56 35.796875 56 
Q 45.21875 56 50.046875 50.171875 
Q 54.890625 44.34375 54.890625 33.015625 
z
" id="DejaVuSans-110"/>
     </defs>
     <g transform="translate(368.234063 58.070437)scale(0.1 -0.1)">
      <use xlink:href="#DejaVuSans-109"/>
      <use x="97.412109" xlink:href="#DejaVuSans-101"/>
      <use x="158.935547" xlink:href="#DejaVuSans-100"/>
      <use x="222.412109" xlink:href="#DejaVuSans-105"/>
      <use x="250.195312" xlink:href="#DejaVuSans-97"/>
      <use x="311.474609" xlink:href="#DejaVuSans-110"/>
     </g>
    </g>
    <g id="line2d_22">
     <path d="M 340.234063 69.248562 
L 360.234063 69.248562 
" style="fill:none;stroke:#2ca02c;stroke-linecap:square;stroke-width:0.75;"/>
    </g>
    <g id="line2d_23"/>
    <g id="text_19">
     <!-- mean -->
     <g transform="translate(368.234063 72.748562)scale(0.1 -0.1)">
      <use xlink:href="#DejaVuSans-109"/>
      <use x="97.412109" xlink:href="#DejaVuSans-101"/>
      <use x="158.935547" xlink:href="#DejaVuSans-97"/>
      <use x="220.214844" xlink:href="#DejaVuSans-110"/>
     </g>
    </g>
   </g>
  </g>
  <g id="text_20">
   <!-- log_loss.mean over generations -->
   <defs>
    <path d="M 9.421875 75.984375 
L 18.40625 75.984375 
L 18.40625 0 
L 9.421875 0 
z
" id="DejaVuSans-108"/>
    <path d="M 30.609375 48.390625 
Q 23.390625 48.390625 19.1875 42.75 
Q 14.984375 37.109375 14.984375 27.296875 
Q 14.984375 17.484375 19.15625 11.84375 
Q 23.34375 6.203125 30.609375 6.203125 
Q 37.796875 6.203125 41.984375 11.859375 
Q 46.1875 17.53125 46.1875 27.296875 
Q 46.1875 37.015625 41.984375 42.703125 
Q 37.796875 48.390625 30.609375 48.390625 
z
M 30.609375 56 
Q 42.328125 56 49.015625 48.375 
Q 55.71875 40.765625 55.71875 27.296875 
Q 55.71875 13.875 49.015625 6.21875 
Q 42.328125 -1.421875 30.609375 -1.421875 
Q 18.84375 -1.421875 12.171875 6.21875 
Q 5.515625 13.875 5.515625 27.296875 
Q 5.515625 40.765625 12.171875 48.375 
Q 18.84375 56 30.609375 56 
z
" id="DejaVuSans-111"/>
    <path d="M 45.40625 27.984375 
Q 45.40625 37.75 41.375 43.109375 
Q 37.359375 48.484375 30.078125 48.484375 
Q 22.859375 48.484375 18.828125 43.109375 
Q 14.796875 37.75 14.796875 27.984375 
Q 14.796875 18.265625 18.828125 12.890625 
Q 22.859375 7.515625 30.078125 7.515625 
Q 37.359375 7.515625 41.375 12.890625 
Q 45.40625 18.265625 45.40625 27.984375 
z
M 54.390625 6.78125 
Q 54.390625 -7.171875 48.1875 -13.984375 
Q 42 -20.796875 29.203125 -20.796875 
Q 24.46875 -20.796875 20.265625 -20.09375 
Q 16.0625 -19.390625 12.109375 -17.921875 
L 12.109375 -9.1875 
Q 16.0625 -11.328125 19.921875 -12.34375 
Q 23.78125 -13.375 27.78125 -13.375 
Q 36.625 -13.375 41.015625 -8.765625 
Q 45.40625 -4.15625 45.40625 5.171875 
L 45.40625 9.625 
Q 42.625 4.78125 38.28125 2.390625 
Q 33.9375 0 27.875 0 
Q 17.828125 0 11.671875 7.65625 
Q 5.515625 15.328125 5.515625 27.984375 
Q 5.515625 40.671875 11.671875 48.328125 
Q 17.828125 56 27.875 56 
Q 33.9375 56 38.28125 53.609375 
Q 42.625 51.21875 45.40625 46.390625 
L 45.40625 54.6875 
L 54.390625 54.6875 
z
" id="DejaVuSans-103"/>
    <path d="M 50.984375 -16.609375 
L 50.984375 -23.578125 
L -0.984375 -23.578125 
L -0.984375 -16.609375 
z
" id="DejaVuSans-95"/>
    <path d="M 44.28125 53.078125 
L 44.28125 44.578125 
Q 40.484375 46.53125 36.375 47.5 
Q 32.28125 48.484375 27.875 48.484375 
Q 21.1875 48.484375 17.84375 46.4375 
Q 14.5 44.390625 14.5 40.28125 
Q 14.5 37.15625 16.890625 35.375 
Q 19.28125 33.59375 26.515625 31.984375 
L 29.59375 31.296875 
Q 39.15625 29.25 43.1875 25.515625 
Q 47.21875 21.78125 47.21875 15.09375 
Q 47.21875 7.46875 41.1875 3.015625 
Q 35.15625 -1.421875 24.609375 -1.421875 
Q 20.21875 -1.421875 15.453125 -0.5625 
Q 10.6875 0.296875 5.421875 2 
L 5.421875 11.28125 
Q 10.40625 8.6875 15.234375 7.390625 
Q 20.0625 6.109375 24.8125 6.109375 
Q 31.15625 6.109375 34.5625 8.28125 
Q 37.984375 10.453125 37.984375 14.40625 
Q 37.984375 18.0625 35.515625 20.015625 
Q 33.0625 21.96875 24.703125 23.78125 
L 21.578125 24.515625 
Q 13.234375 26.265625 9.515625 29.90625 
Q 5.8125 33.546875 5.8125 39.890625 
Q 5.8125 47.609375 11.28125 51.796875 
Q 16.75 56 26.8125 56 
Q 31.78125 56 36.171875 55.265625 
Q 40.578125 54.546875 44.28125 53.078125 
z
" id="DejaVuSans-115"/>
    <path id="DejaVuSans-32"/>
    <path d="M 2.984375 54.6875 
L 12.5 54.6875 
L 29.59375 8.796875 
L 46.6875 54.6875 
L 56.203125 54.6875 
L 35.6875 0 
L 23.484375 0 
z
" id="DejaVuSans-118"/>
    <path d="M 41.109375 46.296875 
Q 39.59375 47.171875 37.8125 47.578125 
Q 36.03125 48 33.890625 48 
Q 26.265625 48 22.1875 43.046875 
Q 18.109375 38.09375 18.109375 28.8125 
L 18.109375 0 
L 9.078125 0 
L 9.078125 54.6875 
L 18.109375 54.6875 
L 18.109375 46.1875 
Q 20.953125 51.171875 25.484375 53.578125 
Q 30.03125 56 36.53125 56 
Q 37.453125 56 38.578125 55.875 
Q 39.703125 55.765625 41.0625 55.515625 
z
" id="DejaVuSans-114"/>
    <path d="M 18.3125 70.21875 
L 18.3125 54.6875 
L 36.8125 54.6875 
L 36.8125 47.703125 
L 18.3125 47.703125 
L 18.3125 18.015625 
Q 18.3125 11.328125 20.140625 9.421875 
Q 21.96875 7.515625 27.59375 7.515625 
L 36.8125 7.515625 
L 36.8125 0 
L 27.59375 0 
Q 17.1875 0 13.234375 3.875 
Q 9.28125 7.765625 9.28125 18.015625 
L 9.28125 47.703125 
L 2.6875 47.703125 
L 2.6875 54.6875 
L 9.28125 54.6875 
L 9.28125 70.21875 
z
" id="DejaVuSans-116"/>
   </defs>
   <g transform="translate(134.789062 16.030125)scale(0.12 -0.12)">
    <use xlink:href="#DejaVuSans-108"/>
    <use x="27.783203" xlink:href="#DejaVuSans-111"/>
    <use x="88.964844" xlink:href="#DejaVuSans-103"/>
    <use x="152.441406" xlink:href="#DejaVuSans-95"/>
    <use x="202.441406" xlink:href="#DejaVuSans-108"/>
    <use x="230.224609" xlink:href="#DejaVuSans-111"/>
    <use x="291.40625" xlink:href="#DejaVuSans-115"/>
    <use x="343.505859" xlink:href="#DejaVuSans-115"/>
    <use x="395.605469" xlink:href="#DejaVuSans-46"/>
    <use x="427.392578" xlink:href="#DejaVuSans-109"/>
    <use x="524.804688" xlink:href="#DejaVuSans-101"/>
    <use x="586.328125" xlink:href="#DejaVuSans-97"/>
    <use x="647.607422" xlink:href="#DejaVuSans-110"/>
    <use x="710.986328" xlink:href="#DejaVuSans-32"/>
    <use x="742.773438" xlink:href="#DejaVuSans-111"/>
    <use x="803.955078" xlink:href="#DejaVuSans-118"/>
    <use x="863.134766" xlink:href="#DejaVuSans-101"/>
    <use x="924.658203" xlink:href="#DejaVuSans-114"/>
    <use x="965.771484" xlink:href="#DejaVuSans-32"/>
    <use x="997.558594" xlink:href="#DejaVuSans-103"/>
    <use x="1061.035156" xlink:href="#DejaVuSans-101"/>
    <use x="1122.558594" xlink:href="#DejaVuSans-110"/>
    <use x="1185.9375" xlink:href="#DejaVuSans-101"/>
    <use x="1247.460938" xlink:href="#DejaVuSans-114"/>
    <use x="1288.574219" xlink:href="#DejaVuSans-97"/>
    <use x="1349.853516" xlink:href="#DejaVuSans-116"/>
    <use x="1389.0625" xlink:href="#DejaVuSans-105"/>
    <use x="1416.845703" xlink:href="#DejaVuSans-111"/>
    <use x="1478.027344" xlink:href="#DejaVuSans-110"/>
    <use x="1541.40625" xlink:href="#DejaVuSans-115"/>
   </g>
  </g>
 </g>
 <defs>
  <clipPath id="pac92fb60c5">
   <rect height="266.112" width="357.12" x="57.6" y="41.472"/>
  </clipPath>
 </defs>
</svg>
