<?xml version="1.0" encoding="utf-8" standalone="no"?>
<!DOCTYPE svg PUBLIC "-//W3C//DTD SVG 1.1//EN"
  "http://www.w3.org/Graphics/SVG/1.1/DTD/svg11.dtd">
<!-- Created with matplotlib (https://matplotlib.org/) -->
<svg height="345.6pt" version="1.1" viewBox="0 0 460.8 345.6" width="460.8pt" xmlns="http://www.w3.org/2000/svg" xmlns:xlink="http://www.w3.org/1999/xlink">
 <defs>
  <style type="text/css">
*{stroke-linecap:butt;stroke-linejoin:round;}
  </style>
 </defs>
 <g id="figure_1">
  <g id="patch_1">
   <path d="M 0 345.6 
L 460.8 345.6 
L 460.8 0 
L 0 0 
z
" style="fill:#ffffff;"/>
  </g>
  <g id="axes_1">
   <g id="patch_2">
    <path clip-path="url(#pa4aef98c85)" d="M 88.589752 169.645195 
Q 215.946382 169.645195 343.303012 169.645195 
" style="fill:none;stroke:#000000;stroke-linecap:round;stroke-opacity:0.9;stroke-width:0.4;"/>
   </g>
   <g id="patch_3">
    <path clip-path="url(#pa4aef98c85)" d="M 88.589752 227.683792 
Q 106.464653 175.341768 124.339554 122.999744 
" style="fill:none;stroke:#000000;stroke-linecap:round;stroke-opacity:0.9;stroke-width:0.4;"/>
   </g>
   <g id="patch_4">
    <path clip-path="url(#pa4aef98c85)" d="M 88.589752 285.72239 
Q 106.174741 254.222483 123.75973 222.722577 
" style="fill:none;stroke:#000000;stroke-linecap:round;stroke-opacity:0.9;stroke-width:0.4;"/>
   </g>
   <g id="patch_5">
    <path clip-path="url(#pa4aef98c85)" d="M 125.482314 119.653468 
Q 142.878157 143.225922 160.274 166.798376 
" style="fill:none;stroke:#000000;stroke-linecap:round;stroke-opacity:0.9;stroke-width:0.4;"/>
   </g>
   <g id="patch_6">
    <path clip-path="url(#pa4aef98c85)" d="M 125.482314 119.653468 
Q 252.850766 105.230615 380.219217 90.807762 
" style="fill:none;stroke:#000000;stroke-linecap:round;stroke-opacity:0.9;stroke-width:0.4;"/>
   </g>
   <g id="patch_7">
    <path clip-path="url(#pa4aef98c85)" d="M 125.482314 119.653468 
Q 253.02415 183.475142 380.565986 247.296817 
" style="fill:none;stroke:#000000;stroke-linecap:round;stroke-opacity:0.9;stroke-width:0.4;"/>
   </g>
   <g id="patch_8">
    <path clip-path="url(#pa4aef98c85)" d="M 125.482314 219.636922 
Q 234.435728 195.030474 343.389141 170.424027 
" style="fill:none;stroke:#000000;stroke-linecap:round;stroke-opacity:0.9;stroke-width:0.4;"/>
   </g>
   <g id="patch_9">
    <path clip-path="url(#pa4aef98c85)" d="M 125.482314 219.636922 
Q 253.02415 155.815247 380.565986 91.993573 
" style="fill:none;stroke:#000000;stroke-linecap:round;stroke-opacity:0.9;stroke-width:0.4;"/>
   </g>
   <g id="patch_10">
    <path clip-path="url(#pa4aef98c85)" d="M 125.482314 219.636922 
Q 252.850766 234.059775 380.219217 248.482628 
" style="fill:none;stroke:#000000;stroke-linecap:round;stroke-opacity:0.9;stroke-width:0.4;"/>
   </g>
   <g id="patch_11">
    <path clip-path="url(#pa4aef98c85)" d="M 162.374876 169.645195 
Q 179.053539 169.645195 195.732201 169.645195 
" style="fill:none;stroke:#000000;stroke-linecap:round;stroke-opacity:0.9;stroke-width:0.4;"/>
   </g>
   <g id="patch_12">
    <path clip-path="url(#pa4aef98c85)" d="M 162.374876 169.645195 
Q 215.945538 169.645195 269.516199 169.645195 
" style="fill:none;stroke:#000000;stroke-linecap:round;stroke-opacity:0.9;stroke-width:0.4;"/>
   </g>
   <g id="patch_13">
    <path clip-path="url(#pa4aef98c85)" d="M 162.374876 169.645195 
Q 234.392382 169.645195 306.409887 169.645195 
" style="fill:none;stroke:#000000;stroke-linecap:round;stroke-opacity:0.9;stroke-width:0.4;"/>
   </g>
   <g id="patch_14">
    <path clip-path="url(#pa4aef98c85)" d="M 199.267438 169.645195 
Q 216.663281 146.072741 234.059124 122.500287 
" style="fill:none;stroke:#000000;stroke-linecap:round;stroke-opacity:0.9;stroke-width:0.4;"/>
   </g>
   <g id="patch_15">
    <path clip-path="url(#pa4aef98c85)" d="M 199.267438 169.645195 
Q 216.663281 193.217649 234.059124 216.790103 
" style="fill:none;stroke:#000000;stroke-linecap:round;stroke-opacity:0.9;stroke-width:0.4;"/>
   </g>
   <g id="patch_16">
    <path clip-path="url(#pa4aef98c85)" d="M 199.267438 169.645195 
Q 234.392382 169.645195 269.517325 169.645195 
" style="fill:none;stroke:#000000;stroke-linecap:round;stroke-opacity:0.9;stroke-width:0.4;"/>
   </g>
   <g id="patch_17">
    <path clip-path="url(#pa4aef98c85)" d="M 199.267438 169.645195 
Q 289.729817 169.645195 380.192196 169.645195 
" style="fill:none;stroke:#000000;stroke-linecap:round;stroke-opacity:0.9;stroke-width:0.4;"/>
   </g>
   <g id="patch_18">
    <path clip-path="url(#pa4aef98c85)" d="M 236.16 119.653468 
Q 253.555843 143.225922 270.951685 166.798376 
" style="fill:none;stroke:#000000;stroke-linecap:round;stroke-opacity:0.9;stroke-width:0.4;"/>
   </g>
   <g id="patch_19">
    <path clip-path="url(#pa4aef98c85)" d="M 236.16 219.636922 
Q 289.889409 195.368019 343.618819 171.099117 
" style="fill:none;stroke:#000000;stroke-linecap:round;stroke-opacity:0.9;stroke-width:0.4;"/>
   </g>
   <g id="patch_20">
    <path clip-path="url(#pa4aef98c85)" d="M 273.052562 169.645195 
Q 289.731224 169.645195 306.409887 169.645195 
" style="fill:none;stroke:#000000;stroke-linecap:round;stroke-opacity:0.9;stroke-width:0.4;"/>
   </g>
   <g id="patch_21">
    <path clip-path="url(#pa4aef98c85)" d="M 309.945124 169.645195 
Q 326.623786 169.645195 343.302449 169.645195 
" style="fill:none;stroke:#000000;stroke-linecap:round;stroke-opacity:0.9;stroke-width:0.4;"/>
   </g>
   <g id="patch_22">
    <path clip-path="url(#pa4aef98c85)" d="M 346.837686 169.645195 
Q 363.516348 169.645195 380.195011 169.645195 
" style="fill:none;stroke:#000000;stroke-linecap:round;stroke-opacity:0.9;stroke-width:0.4;"/>
   </g>
   <g id="PathCollection_1">
    <defs>
     <path d="M 0 3.535534 
C 0.937635 3.535534 1.836992 3.163008 2.5 2.5 
C 3.163008 1.836992 3.535534 0.937635 3.535534 0 
C 3.535534 -0.937635 3.163008 -1.836992 2.5 -2.5 
C 1.836992 -3.163008 0.937635 -3.535534 0 -3.535534 
C -0.937635 -3.535534 -1.836992 -3.163008 -2.5 -2.5 
C -3.163008 -1.836992 -3.535534 -0.937635 -3.535534 0 
C -3.535534 0.937635 -3.163008 1.836992 -2.5 2.5 
C -1.836992 3.163008 -0.937635 3.535534 0 3.535534 
z
" id="C0_0_acae625c92"/>
    </defs>
    <g clip-path="url(#pa4aef98c85)">
     <use style="fill:#fdb462;fill-opacity:0.9;" x="88.589752" xlink:href="#C0_0_acae625c92" y="53.568"/>
    </g>
    <g clip-path="url(#pa4aef98c85)">
     <use style="fill:#fdb462;fill-opacity:0.9;" x="88.589752" xlink:href="#C0_0_acae625c92" y="111.606597"/>
    </g>
    <g clip-path="url(#pa4aef98c85)">
     <use style="fill:#fdb462;fill-opacity:0.9;" x="88.589752" xlink:href="#C0_0_acae625c92" y="169.645195"/>
    </g>
    <g clip-path="url(#pa4aef98c85)">
     <use style="fill:#fdb462;fill-opacity:0.9;" x="88.589752" xlink:href="#C0_0_acae625c92" y="227.683792"/>
    </g>
    <g clip-path="url(#pa4aef98c85)">
     <use style="fill:#ffed6f;fill-opacity:0.9;" x="88.589752" xlink:href="#C0_0_acae625c92" y="285.72239"/>
    </g>
    <g clip-path="url(#pa4aef98c85)">
     <use style="fill:#80b1d3;fill-opacity:0.9;" x="125.482314" xlink:href="#C0_0_acae625c92" y="119.653468"/>
    </g>
    <g clip-path="url(#pa4aef98c85)">
     <use style="fill:#80b1d3;fill-opacity:0.9;" x="125.482314" xlink:href="#C0_0_acae625c92" y="219.636922"/>
    </g>
    <g clip-path="url(#pa4aef98c85)">
     <use style="fill:#80b1d3;fill-opacity:0.9;" x="162.374876" xlink:href="#C0_0_acae625c92" y="169.645195"/>
    </g>
    <g clip-path="url(#pa4aef98c85)">
     <use style="fill:#80b1d3;fill-opacity:0.9;" x="199.267438" xlink:href="#C0_0_acae625c92" y="169.645195"/>
    </g>
    <g clip-path="url(#pa4aef98c85)">
     <use style="fill:#80b1d3;fill-opacity:0.9;" x="236.16" xlink:href="#C0_0_acae625c92" y="119.653468"/>
    </g>
    <g clip-path="url(#pa4aef98c85)">
     <use style="fill:#80b1d3;fill-opacity:0.9;" x="236.16" xlink:href="#C0_0_acae625c92" y="219.636922"/>
    </g>
    <g clip-path="url(#pa4aef98c85)">
     <use style="fill:#80b1d3;fill-opacity:0.9;" x="273.052562" xlink:href="#C0_0_acae625c92" y="169.645195"/>
    </g>
    <g clip-path="url(#pa4aef98c85)">
     <use style="fill:#80b1d3;fill-opacity:0.9;" x="309.945124" xlink:href="#C0_0_acae625c92" y="169.645195"/>
    </g>
    <g clip-path="url(#pa4aef98c85)">
     <use style="fill:#80b1d3;fill-opacity:0.9;" x="346.837686" xlink:href="#C0_0_acae625c92" y="169.645195"/>
    </g>
    <g clip-path="url(#pa4aef98c85)">
     <use style="fill:#b3de69;fill-opacity:0.9;" x="383.730248" xlink:href="#C0_0_acae625c92" y="90.410183"/>
    </g>
    <g clip-path="url(#pa4aef98c85)">
     <use style="fill:#b3de69;fill-opacity:0.9;" x="383.730248" xlink:href="#C0_0_acae625c92" y="169.645195"/>
    </g>
    <g clip-path="url(#pa4aef98c85)">
     <use style="fill:#b3de69;fill-opacity:0.9;" x="383.730248" xlink:href="#C0_0_acae625c92" y="248.880207"/>
    </g>
   </g>
  </g>
 </g>
 <defs>
  <clipPath id="pa4aef98c85">
   <rect height="266.112" width="357.12" x="57.6" y="41.472"/>
  </clipPath>
 </defs>
</svg>
