<?xml version="1.0" encoding="utf-8" standalone="no"?>
<!DOCTYPE svg PUBLIC "-//W3C//DTD SVG 1.1//EN"
  "http://www.w3.org/Graphics/SVG/1.1/DTD/svg11.dtd">
<!-- Created with matplotlib (https://matplotlib.org/) -->
<svg height="345.6pt" version="1.1" viewBox="0 0 460.8 345.6" width="460.8pt" xmlns="http://www.w3.org/2000/svg" xmlns:xlink="http://www.w3.org/1999/xlink">
 <defs>
  <style type="text/css">
*{stroke-linecap:butt;stroke-linejoin:round;}
  </style>
 </defs>
 <g id="figure_1">
  <g id="patch_1">
   <path d="M 0 345.6 
L 460.8 345.6 
L 460.8 0 
L 0 0 
z
" style="fill:#ffffff;"/>
  </g>
  <g id="axes_1">
   <g id="patch_2">
    <path clip-path="url(#p9ea332adcc)" d="M 88.589752 64.564364 
Q 111.742177 80.991674 134.894601 97.418984 
" style="fill:none;stroke:#000000;stroke-linecap:round;stroke-opacity:0.9;stroke-width:0.4;"/>
   </g>
   <g id="patch_3">
    <path clip-path="url(#p9ea332adcc)" d="M 88.589752 174.528 
Q 111.417925 174.528 134.246099 174.528 
" style="fill:none;stroke:#000000;stroke-linecap:round;stroke-opacity:0.9;stroke-width:0.4;"/>
   </g>
   <g id="patch_4">
    <path clip-path="url(#p9ea332adcc)" d="M 88.589752 229.509818 
Q 209.840499 202.404409 331.091245 175.299001 
" style="fill:none;stroke:#000000;stroke-linecap:round;stroke-opacity:0.9;stroke-width:0.4;"/>
   </g>
   <g id="patch_5">
    <path clip-path="url(#p9ea332adcc)" d="M 88.589752 229.509818 
Q 234.540997 165.201339 380.492241 100.892859 
" style="fill:none;stroke:#000000;stroke-linecap:round;stroke-opacity:0.9;stroke-width:0.4;"/>
   </g>
   <g id="patch_6">
    <path clip-path="url(#p9ea332adcc)" d="M 88.589752 229.509818 
Q 234.423906 202.342327 380.25806 175.174835 
" style="fill:none;stroke:#000000;stroke-linecap:round;stroke-opacity:0.9;stroke-width:0.4;"/>
   </g>
   <g id="patch_7">
    <path clip-path="url(#p9ea332adcc)" d="M 88.589752 229.509818 
Q 234.396885 239.429884 380.204018 249.34995 
" style="fill:none;stroke:#000000;stroke-linecap:round;stroke-opacity:0.9;stroke-width:0.4;"/>
   </g>
   <g id="patch_8">
    <path clip-path="url(#p9ea332adcc)" d="M 88.589752 284.491636 
Q 111.742177 268.064326 134.894601 251.637016 
" style="fill:none;stroke:#000000;stroke-linecap:round;stroke-opacity:0.9;stroke-width:0.4;"/>
   </g>
   <g id="patch_9">
    <path clip-path="url(#p9ea332adcc)" d="M 137.779835 99.466141 
Q 209.989864 136.195896 282.199894 172.925651 
" style="fill:none;stroke:#000000;stroke-linecap:round;stroke-opacity:0.9;stroke-width:0.4;"/>
   </g>
   <g id="patch_10">
    <path clip-path="url(#p9ea332adcc)" d="M 137.779835 174.528 
Q 209.79734 174.528 281.814846 174.528 
" style="fill:none;stroke:#000000;stroke-linecap:round;stroke-opacity:0.9;stroke-width:0.4;"/>
   </g>
   <g id="patch_11">
    <path clip-path="url(#p9ea332adcc)" d="M 137.779835 249.589859 
Q 161.405876 213.53758 185.031917 177.485302 
" style="fill:none;stroke:#000000;stroke-linecap:round;stroke-opacity:0.9;stroke-width:0.4;"/>
   </g>
   <g id="patch_12">
    <path clip-path="url(#p9ea332adcc)" d="M 186.969917 174.528 
Q 209.798091 174.528 232.626264 174.528 
" style="fill:none;stroke:#000000;stroke-linecap:round;stroke-opacity:0.9;stroke-width:0.4;"/>
   </g>
   <g id="patch_13">
    <path clip-path="url(#p9ea332adcc)" d="M 236.16 174.528 
Q 258.988173 174.528 281.816347 174.528 
" style="fill:none;stroke:#000000;stroke-linecap:round;stroke-opacity:0.9;stroke-width:0.4;"/>
   </g>
   <g id="patch_14">
    <path clip-path="url(#p9ea332adcc)" d="M 285.350083 174.528 
Q 308.178256 174.528 331.006429 174.528 
" style="fill:none;stroke:#000000;stroke-linecap:round;stroke-opacity:0.9;stroke-width:0.4;"/>
   </g>
   <g id="patch_15">
    <path clip-path="url(#p9ea332adcc)" d="M 285.350083 174.528 
Q 333.133576 210.985734 380.91707 247.443468 
" style="fill:none;stroke:#000000;stroke-linecap:round;stroke-opacity:0.9;stroke-width:0.4;"/>
   </g>
   <g id="patch_16">
    <path clip-path="url(#p9ea332adcc)" d="M 334.540165 174.528 
Q 357.368339 174.528 380.196512 174.528 
" style="fill:none;stroke:#000000;stroke-linecap:round;stroke-opacity:0.9;stroke-width:0.4;"/>
   </g>
   <g id="PathCollection_1">
    <defs>
     <path d="M 0 3.535534 
C 0.937635 3.535534 1.836992 3.163008 2.5 2.5 
C 3.163008 1.836992 3.535534 0.937635 3.535534 0 
C 3.535534 -0.937635 3.163008 -1.836992 2.5 -2.5 
C 1.836992 -3.163008 0.937635 -3.535534 0 -3.535534 
C -0.937635 -3.535534 -1.836992 -3.163008 -2.5 -2.5 
C -3.163008 -1.836992 -3.535534 -0.937635 -3.535534 0 
C -3.535534 0.937635 -3.163008 1.836992 -2.5 2.5 
C -1.836992 3.163008 -0.937635 3.535534 0 3.535534 
z
" id="C0_0_18cf450e47"/>
    </defs>
    <g clip-path="url(#p9ea332adcc)">
     <use style="fill:#fdb462;fill-opacity:0.9;" x="88.589752" xlink:href="#C0_0_18cf450e47" y="64.564364"/>
    </g>
    <g clip-path="url(#p9ea332adcc)">
     <use style="fill:#fdb462;fill-opacity:0.9;" x="88.589752" xlink:href="#C0_0_18cf450e47" y="119.546182"/>
    </g>
    <g clip-path="url(#p9ea332adcc)">
     <use style="fill:#fdb462;fill-opacity:0.9;" x="88.589752" xlink:href="#C0_0_18cf450e47" y="174.528"/>
    </g>
    <g clip-path="url(#p9ea332adcc)">
     <use style="fill:#fdb462;fill-opacity:0.9;" x="88.589752" xlink:href="#C0_0_18cf450e47" y="229.509818"/>
    </g>
    <g clip-path="url(#p9ea332adcc)">
     <use style="fill:#ffed6f;fill-opacity:0.9;" x="88.589752" xlink:href="#C0_0_18cf450e47" y="284.491636"/>
    </g>
    <g clip-path="url(#p9ea332adcc)">
     <use style="fill:#80b1d3;fill-opacity:0.9;" x="137.779835" xlink:href="#C0_0_18cf450e47" y="99.466141"/>
    </g>
    <g clip-path="url(#p9ea332adcc)">
     <use style="fill:#80b1d3;fill-opacity:0.9;" x="137.779835" xlink:href="#C0_0_18cf450e47" y="174.528"/>
    </g>
    <g clip-path="url(#p9ea332adcc)">
     <use style="fill:#80b1d3;fill-opacity:0.9;" x="137.779835" xlink:href="#C0_0_18cf450e47" y="249.589859"/>
    </g>
    <g clip-path="url(#p9ea332adcc)">
     <use style="fill:#80b1d3;fill-opacity:0.9;" x="186.969917" xlink:href="#C0_0_18cf450e47" y="174.528"/>
    </g>
    <g clip-path="url(#p9ea332adcc)">
     <use style="fill:#80b1d3;fill-opacity:0.9;" x="236.16" xlink:href="#C0_0_18cf450e47" y="174.528"/>
    </g>
    <g clip-path="url(#p9ea332adcc)">
     <use style="fill:#80b1d3;fill-opacity:0.9;" x="285.350083" xlink:href="#C0_0_18cf450e47" y="174.528"/>
    </g>
    <g clip-path="url(#p9ea332adcc)">
     <use style="fill:#80b1d3;fill-opacity:0.9;" x="334.540165" xlink:href="#C0_0_18cf450e47" y="174.528"/>
    </g>
    <g clip-path="url(#p9ea332adcc)">
     <use style="fill:#b3de69;fill-opacity:0.9;" x="383.730248" xlink:href="#C0_0_18cf450e47" y="99.466141"/>
    </g>
    <g clip-path="url(#p9ea332adcc)">
     <use style="fill:#b3de69;fill-opacity:0.9;" x="383.730248" xlink:href="#C0_0_18cf450e47" y="174.528"/>
    </g>
    <g clip-path="url(#p9ea332adcc)">
     <use style="fill:#b3de69;fill-opacity:0.9;" x="383.730248" xlink:href="#C0_0_18cf450e47" y="249.589859"/>
    </g>
   </g>
  </g>
 </g>
 <defs>
  <clipPath id="p9ea332adcc">
   <rect height="266.112" width="357.12" x="57.6" y="41.472"/>
  </clipPath>
 </defs>
</svg>
