<?xml version="1.0" encoding="utf-8" standalone="no"?>
<!DOCTYPE svg PUBLIC "-//W3C//DTD SVG 1.1//EN"
  "http://www.w3.org/Graphics/SVG/1.1/DTD/svg11.dtd">
<!-- Created with matplotlib (https://matplotlib.org/) -->
<svg height="345.6pt" version="1.1" viewBox="0 0 460.8 345.6" width="460.8pt" xmlns="http://www.w3.org/2000/svg" xmlns:xlink="http://www.w3.org/1999/xlink">
 <defs>
  <style type="text/css">
*{stroke-linecap:butt;stroke-linejoin:round;}
  </style>
 </defs>
 <g id="figure_1">
  <g id="patch_1">
   <path d="M 0 345.6 
L 460.8 345.6 
L 460.8 0 
L 0 0 
z
" style="fill:#ffffff;"/>
  </g>
  <g id="axes_1">
   <g id="patch_2">
    <path d="M 57.6 307.584 
L 414.72 307.584 
L 414.72 41.472 
L 57.6 41.472 
z
" style="fill:#ffffff;"/>
   </g>
   <g id="PolyCollection_1">
    <path clip-path="url(#p055ffcd62b)" d="M 73.832727 288.524674 
L 73.832727 289.812158 
L 75.464157 289.812158 
L 77.095587 289.812158 
L 78.727017 289.812158 
L 80.358447 289.812158 
L 81.989877 289.812158 
L 83.621307 289.812158 
L 85.252736 289.812158 
L 86.884166 289.812158 
L 88.515596 289.812158 
L 90.147026 289.812158 
L 91.778456 289.812158 
L 93.409886 289.812158 
L 95.041316 289.812158 
L 96.672746 289.812158 
L 98.304175 289.812158 
L 99.935605 289.812158 
L 101.567035 289.812158 
L 103.198465 289.812158 
L 104.829895 289.812158 
L 106.461325 289.812158 
L 108.092755 289.812158 
L 109.724185 289.812158 
L 111.355614 289.812158 
L 112.987044 289.812158 
L 114.618474 289.812158 
L 116.249904 289.812158 
L 117.881334 289.812158 
L 119.512764 289.812158 
L 121.144194 289.812158 
L 122.775624 289.812158 
L 124.407053 289.812158 
L 126.038483 289.812158 
L 127.669913 289.812158 
L 129.301343 289.812158 
L 130.932773 289.812158 
L 132.564203 289.812158 
L 134.195633 289.812158 
L 135.827063 289.812158 
L 137.458492 289.812158 
L 139.089922 289.812158 
L 140.721352 289.812158 
L 142.352782 289.812158 
L 143.984212 289.812158 
L 145.615642 289.812158 
L 147.247072 289.812158 
L 148.878502 289.812158 
L 150.509931 289.812158 
L 152.141361 289.812158 
L 153.772791 289.812158 
L 155.404221 289.812158 
L 157.035651 289.812158 
L 158.667081 289.812158 
L 160.298511 289.812158 
L 161.929941 289.812158 
L 163.56137 289.812158 
L 165.1928 289.812158 
L 166.82423 289.812158 
L 168.45566 289.812158 
L 170.08709 289.812158 
L 171.71852 289.812158 
L 173.34995 289.812158 
L 174.98138 289.812158 
L 176.61281 289.812158 
L 178.244239 289.812158 
L 179.875669 289.812158 
L 181.507099 289.812158 
L 183.138529 289.812158 
L 184.769959 289.812158 
L 186.401389 289.812158 
L 188.032819 289.812158 
L 189.664249 289.812158 
L 191.295678 289.812158 
L 192.927108 289.812158 
L 194.558538 289.812158 
L 196.189968 289.812158 
L 197.821398 289.812158 
L 199.452828 289.812158 
L 201.084258 289.812158 
L 202.715688 289.812158 
L 204.347117 289.812158 
L 205.978547 289.812158 
L 207.609977 289.812158 
L 209.241407 289.812158 
L 210.872837 289.812158 
L 212.504267 289.812158 
L 214.135697 289.812158 
L 215.767127 289.812158 
L 217.398556 289.812158 
L 219.029986 289.812158 
L 220.661416 289.812158 
L 222.292846 289.812158 
L 223.924276 289.812158 
L 225.555706 289.812158 
L 227.187136 289.812158 
L 228.818566 289.812158 
L 230.449995 289.812158 
L 232.081425 289.812158 
L 233.712855 289.812158 
L 235.344285 289.812158 
L 236.975715 289.812158 
L 238.607145 289.812158 
L 240.238575 289.812158 
L 241.870005 289.812158 
L 243.501434 289.812158 
L 245.132864 289.812158 
L 246.764294 289.812158 
L 248.395724 289.812158 
L 250.027154 289.812158 
L 251.658584 289.812158 
L 253.290014 289.812158 
L 254.921444 289.812158 
L 256.552873 289.812158 
L 258.184303 289.812158 
L 259.815733 289.812158 
L 261.447163 289.812158 
L 263.078593 289.812158 
L 264.710023 289.812158 
L 266.341453 289.812158 
L 267.972883 289.812158 
L 269.604312 289.812158 
L 271.235742 289.812158 
L 272.867172 289.812158 
L 274.498602 289.812158 
L 276.130032 289.812158 
L 277.761462 289.812158 
L 279.392892 289.812158 
L 281.024322 289.812158 
L 282.655751 289.812158 
L 284.287181 289.812158 
L 285.918611 289.812158 
L 287.550041 289.606887 
L 289.181471 289.662883 
L 290.812901 289.906016 
L 292.444331 290.032573 
L 294.075761 290.701078 
L 295.70719 290.210249 
L 297.33862 289.71872 
L 298.97005 290.732608 
L 300.60148 290.903409 
L 302.23291 290.244765 
L 303.86434 290.658275 
L 305.49577 290.484589 
L 307.1272 290.915321 
L 308.75863 290.308173 
L 310.390059 290.030762 
L 312.021489 290.941819 
L 313.652919 290.620159 
L 315.284349 290.95851 
L 316.915779 290.599582 
L 318.547209 291.137716 
L 320.178639 290.600739 
L 321.810069 289.811066 
L 323.441498 290.127371 
L 325.072928 290.694627 
L 326.704358 291.144328 
L 328.335788 290.573726 
L 329.967218 290.627441 
L 331.598648 290.008352 
L 333.230078 290.633609 
L 334.861508 290.586709 
L 336.492937 291.637482 
L 338.124367 292.02315 
L 339.755797 290.610728 
L 341.387227 291.001449 
L 343.018657 291.950757 
L 344.650087 291.006939 
L 346.281517 290.836202 
L 347.912947 290.885516 
L 349.544376 290.4535 
L 351.175806 291.111699 
L 352.807236 290.975105 
L 354.438666 292.203922 
L 356.070096 292.195182 
L 357.701526 292.679901 
L 359.332956 293.044797 
L 360.964386 292.113362 
L 362.595815 293.135605 
L 364.227245 291.863442 
L 365.858675 293.860047 
L 367.490105 291.320119 
L 369.121535 291.21615 
L 370.752965 290.993578 
L 372.384395 290.911172 
L 374.015825 292.538936 
L 375.647254 293.036203 
L 377.278684 293.798739 
L 378.910114 292.90979 
L 380.541544 292.832563 
L 382.172974 293.509829 
L 383.804404 291.924404 
L 385.435834 292.665458 
L 387.067264 291.740726 
L 388.698693 292.707619 
L 390.330123 291.85547 
L 391.961553 292.263448 
L 393.592983 291.752425 
L 395.224413 294.236221 
L 396.855843 293.52715 
L 398.487273 294.562491 
L 398.487273 282.262136 
L 398.487273 282.262136 
L 396.855843 280.738023 
L 395.224413 281.408543 
L 393.592983 269.505274 
L 391.961553 269.912803 
L 390.330123 270.136564 
L 388.698693 274.701372 
L 387.067264 268.11067 
L 385.435834 270.135193 
L 383.804404 285.522983 
L 382.172974 276.015411 
L 380.541544 272.721476 
L 378.910114 276.546378 
L 377.278684 277.152795 
L 375.647254 276.693101 
L 374.015825 288.456885 
L 372.384395 268.845926 
L 370.752965 275.444503 
L 369.121535 276.351807 
L 367.490105 286.520122 
L 365.858675 285.149654 
L 364.227245 279.888183 
L 362.595815 271.175776 
L 360.964386 277.350045 
L 359.332956 278.828773 
L 357.701526 271.618091 
L 356.070096 271.836613 
L 354.438666 279.952912 
L 352.807236 274.038947 
L 351.175806 276.027068 
L 349.544376 272.571132 
L 347.912947 268.818609 
L 346.281517 271.941334 
L 344.650087 273.722224 
L 343.018657 280.553326 
L 341.387227 276.93574 
L 339.755797 271.781624 
L 338.124367 276.502276 
L 336.492937 274.374754 
L 334.861508 275.211904 
L 333.230078 272.764695 
L 331.598648 266.981414 
L 329.967218 276.594819 
L 328.335788 277.338918 
L 326.704358 283.555305 
L 325.072928 280.230953 
L 323.441498 275.687827 
L 321.810069 277.868469 
L 320.178639 279.399175 
L 318.547209 288.167635 
L 316.915779 277.673548 
L 315.284349 284.766232 
L 313.652919 277.459995 
L 312.021489 280.573476 
L 310.390059 267.976048 
L 308.75863 287.129797 
L 307.1272 285.611837 
L 305.49577 276.781817 
L 303.86434 277.15887 
L 302.23291 285.274419 
L 300.60148 283.116466 
L 298.97005 288.329529 
L 297.33862 260.84475 
L 295.70719 276.795935 
L 294.075761 289.226435 
L 292.444331 289.327701 
L 290.812901 289.216669 
L 289.181471 289.370493 
L 287.550041 288.679949 
L 285.918611 288.524674 
L 284.287181 288.524674 
L 282.655751 288.524674 
L 281.024322 288.524674 
L 279.392892 288.524674 
L 277.761462 288.524674 
L 276.130032 288.524674 
L 274.498602 288.524674 
L 272.867172 288.524674 
L 271.235742 288.524674 
L 269.604312 288.524674 
L 267.972883 288.524674 
L 266.341453 288.524674 
L 264.710023 288.524674 
L 263.078593 288.524674 
L 261.447163 289.498658 
L 259.815733 289.498658 
L 258.184303 288.524674 
L 256.552873 288.525956 
L 254.921444 288.524674 
L 253.290014 289.498658 
L 251.658584 288.524801 
L 250.027154 288.524674 
L 248.395724 288.524674 
L 246.764294 288.524674 
L 245.132864 288.524674 
L 243.501434 288.524674 
L 241.870005 288.524674 
L 240.238575 288.524674 
L 238.607145 288.524674 
L 236.975715 288.54665 
L 235.344285 288.930547 
L 233.712855 288.524674 
L 232.081425 288.524674 
L 230.449995 288.524674 
L 228.818566 288.607727 
L 227.187136 288.524674 
L 225.555706 288.524674 
L 223.924276 289.498658 
L 222.292846 288.527635 
L 220.661416 288.524674 
L 219.029986 288.524674 
L 217.398556 289.498658 
L 215.767127 288.524674 
L 214.135697 288.524674 
L 212.504267 288.524674 
L 210.872837 288.524674 
L 209.241407 288.524674 
L 207.609977 288.524674 
L 205.978547 288.524674 
L 204.347117 288.524674 
L 202.715688 288.524674 
L 201.084258 288.524674 
L 199.452828 289.498658 
L 197.821398 288.524674 
L 196.189968 288.524674 
L 194.558538 289.255162 
L 192.927108 288.524674 
L 191.295678 288.524674 
L 189.664249 288.524674 
L 188.032819 288.524674 
L 186.401389 288.524674 
L 184.769959 288.524674 
L 183.138529 288.524674 
L 181.507099 288.524674 
L 179.875669 288.524674 
L 178.244239 288.524674 
L 176.61281 288.524674 
L 174.98138 288.524674 
L 173.34995 288.524674 
L 171.71852 289.498658 
L 170.08709 288.524674 
L 168.45566 288.524674 
L 166.82423 289.498658 
L 165.1928 288.524674 
L 163.56137 288.524674 
L 161.929941 288.524674 
L 160.298511 288.524674 
L 158.667081 288.524674 
L 157.035651 288.524674 
L 155.404221 288.524674 
L 153.772791 288.524674 
L 152.141361 288.524674 
L 150.509931 288.524674 
L 148.878502 288.524674 
L 147.247072 288.524674 
L 145.615642 288.524674 
L 143.984212 288.524674 
L 142.352782 288.524674 
L 140.721352 288.524674 
L 139.089922 288.524674 
L 137.458492 288.524674 
L 135.827063 288.524674 
L 134.195633 288.524674 
L 132.564203 288.524674 
L 130.932773 288.524674 
L 129.301343 288.524674 
L 127.669913 288.524674 
L 126.038483 288.524674 
L 124.407053 288.524674 
L 122.775624 288.524674 
L 121.144194 288.524674 
L 119.512764 288.524674 
L 117.881334 288.524674 
L 116.249904 288.524674 
L 114.618474 288.524674 
L 112.987044 288.524674 
L 111.355614 288.524674 
L 109.724185 288.524674 
L 108.092755 288.524674 
L 106.461325 288.524674 
L 104.829895 288.524674 
L 103.198465 288.524674 
L 101.567035 288.524674 
L 99.935605 288.524674 
L 98.304175 288.524674 
L 96.672746 288.524674 
L 95.041316 288.524674 
L 93.409886 288.524674 
L 91.778456 288.524674 
L 90.147026 288.524674 
L 88.515596 288.524674 
L 86.884166 288.524674 
L 85.252736 288.524674 
L 83.621307 288.524674 
L 81.989877 288.524674 
L 80.358447 288.524674 
L 78.727017 288.524674 
L 77.095587 288.524674 
L 75.464157 288.524674 
L 73.832727 288.524674 
z
" style="fill:#1f77b4;fill-opacity:0.2;"/>
   </g>
   <g id="PolyCollection_2">
    <path clip-path="url(#p055ffcd62b)" d="M 73.832727 288.524674 
L 73.832727 289.812158 
L 75.464157 289.812158 
L 77.095587 289.812158 
L 78.727017 289.812158 
L 80.358447 289.812158 
L 81.989877 289.812158 
L 83.621307 289.812158 
L 85.252736 289.812158 
L 86.884166 289.812158 
L 88.515596 289.812158 
L 90.147026 289.812158 
L 91.778456 289.812158 
L 93.409886 289.812158 
L 95.041316 289.812158 
L 96.672746 289.812158 
L 98.304175 289.812158 
L 99.935605 289.812158 
L 101.567035 289.812158 
L 103.198465 289.812158 
L 104.829895 289.812158 
L 106.461325 289.812158 
L 108.092755 289.812158 
L 109.724185 289.812158 
L 111.355614 289.812158 
L 112.987044 289.812158 
L 114.618474 289.812158 
L 116.249904 289.812158 
L 117.881334 289.812158 
L 119.512764 289.812158 
L 121.144194 289.812158 
L 122.775624 289.812158 
L 124.407053 289.812158 
L 126.038483 289.812158 
L 127.669913 289.812158 
L 129.301343 289.812158 
L 130.932773 289.812158 
L 132.564203 289.812158 
L 134.195633 289.812158 
L 135.827063 289.812158 
L 137.458492 289.812158 
L 139.089922 289.812158 
L 140.721352 289.812158 
L 142.352782 289.812158 
L 143.984212 289.812158 
L 145.615642 289.812158 
L 147.247072 289.812158 
L 148.878502 289.812158 
L 150.509931 289.812158 
L 152.141361 289.812158 
L 153.772791 289.812158 
L 155.404221 289.812158 
L 157.035651 289.812158 
L 158.667081 289.812158 
L 160.298511 289.812158 
L 161.929941 289.812158 
L 163.56137 289.812158 
L 165.1928 289.812158 
L 166.82423 289.812158 
L 168.45566 289.812158 
L 170.08709 289.812158 
L 171.71852 289.812158 
L 173.34995 289.812158 
L 174.98138 289.812158 
L 176.61281 289.812158 
L 178.244239 289.812158 
L 179.875669 289.812158 
L 181.507099 289.812158 
L 183.138529 289.812158 
L 184.769959 289.812158 
L 186.401389 289.812158 
L 188.032819 289.812158 
L 189.664249 289.812158 
L 191.295678 289.812158 
L 192.927108 289.812158 
L 194.558538 289.812158 
L 196.189968 289.812158 
L 197.821398 289.812158 
L 199.452828 289.812158 
L 201.084258 289.812158 
L 202.715688 289.812158 
L 204.347117 289.812158 
L 205.978547 289.812158 
L 207.609977 289.812158 
L 209.241407 289.812158 
L 210.872837 289.812158 
L 212.504267 289.812158 
L 214.135697 289.812158 
L 215.767127 289.812158 
L 217.398556 289.812158 
L 219.029986 289.812158 
L 220.661416 289.812158 
L 222.292846 289.812158 
L 223.924276 289.812158 
L 225.555706 289.812158 
L 227.187136 289.812158 
L 228.818566 289.812158 
L 230.449995 289.812158 
L 232.081425 289.812158 
L 233.712855 289.812158 
L 235.344285 289.812158 
L 236.975715 289.812158 
L 238.607145 289.812158 
L 240.238575 289.812158 
L 241.870005 289.812158 
L 243.501434 289.812158 
L 245.132864 289.812158 
L 246.764294 289.812158 
L 248.395724 289.812158 
L 250.027154 289.812158 
L 251.658584 289.812158 
L 253.290014 289.812158 
L 254.921444 289.812158 
L 256.552873 289.812158 
L 258.184303 289.812158 
L 259.815733 289.812158 
L 261.447163 289.812158 
L 263.078593 289.812158 
L 264.710023 289.812158 
L 266.341453 289.812158 
L 267.972883 289.812158 
L 269.604312 289.812158 
L 271.235742 289.812158 
L 272.867172 289.812158 
L 274.498602 289.812158 
L 276.130032 289.812158 
L 277.761462 289.812158 
L 279.392892 289.812158 
L 281.024322 289.812158 
L 282.655751 289.812158 
L 284.287181 289.812158 
L 285.918611 289.922849 
L 287.550041 289.926566 
L 289.181471 290.114904 
L 290.812901 290.571251 
L 292.444331 290.686696 
L 294.075761 291.009963 
L 295.70719 290.875853 
L 297.33862 290.83008 
L 298.97005 290.99021 
L 300.60148 291.169746 
L 302.23291 290.99698 
L 303.86434 290.995558 
L 305.49577 290.984834 
L 307.1272 291.392008 
L 308.75863 290.890173 
L 310.390059 290.861814 
L 312.021489 291.61207 
L 313.652919 291.418971 
L 315.284349 291.961488 
L 316.915779 290.964773 
L 318.547209 291.890024 
L 320.178639 291.248226 
L 321.810069 291.236145 
L 323.441498 290.950938 
L 325.072928 293.338322 
L 326.704358 293.323491 
L 328.335788 292.232854 
L 329.967218 292.228889 
L 331.598648 292.186049 
L 333.230078 292.559346 
L 334.861508 292.924894 
L 336.492937 293.468289 
L 338.124367 292.842046 
L 339.755797 292.61396 
L 341.387227 292.678031 
L 343.018657 293.862482 
L 344.650087 293.670125 
L 346.281517 293.422415 
L 347.912947 293.346641 
L 349.544376 293.330761 
L 351.175806 293.432218 
L 352.807236 293.926666 
L 354.438666 294.115369 
L 356.070096 293.998918 
L 357.701526 293.996211 
L 359.332956 294.344823 
L 360.964386 294.321344 
L 362.595815 294.087971 
L 364.227245 294.404722 
L 365.858675 294.095474 
L 367.490105 294.241335 
L 369.121535 293.917569 
L 370.752965 293.922124 
L 372.384395 293.918027 
L 374.015825 294.083514 
L 375.647254 294.016371 
L 377.278684 294.464116 
L 378.910114 294.059861 
L 380.541544 294.385591 
L 382.172974 294.689899 
L 383.804404 294.295543 
L 385.435834 294.283874 
L 387.067264 294.251325 
L 388.698693 294.561637 
L 390.330123 294.201756 
L 391.961553 294.199791 
L 393.592983 294.164526 
L 395.224413 295.488 
L 396.855843 294.492332 
L 398.487273 294.78037 
L 398.487273 104.004155 
L 398.487273 104.004155 
L 396.855843 107.431871 
L 395.224413 103.992078 
L 393.592983 95.85181 
L 391.961553 65.675249 
L 390.330123 108.704684 
L 388.698693 95.989731 
L 387.067264 102.241288 
L 385.435834 56.133978 
L 383.804404 206.975313 
L 382.172974 162.314992 
L 380.541544 66.59585 
L 378.910114 86.219615 
L 377.278684 80.031251 
L 375.647254 91.101183 
L 374.015825 150.948056 
L 372.384395 65.57118 
L 370.752965 95.945104 
L 369.121535 60.879937 
L 367.490105 122.789023 
L 365.858675 73.172743 
L 364.227245 102.162703 
L 362.595815 159.784168 
L 360.964386 86.51406 
L 359.332956 91.774159 
L 357.701526 66.655019 
L 356.070096 73.919231 
L 354.438666 104.014471 
L 352.807236 76.730732 
L 351.175806 157.681825 
L 349.544376 86.340791 
L 347.912947 53.568 
L 346.281517 89.610233 
L 344.650087 58.527296 
L 343.018657 105.76034 
L 341.387227 53.77714 
L 339.755797 76.728347 
L 338.124367 70.788391 
L 336.492937 96.275348 
L 334.861508 74.807999 
L 333.230078 121.552013 
L 331.598648 61.078017 
L 329.967218 111.397399 
L 328.335788 75.041835 
L 326.704358 210.674022 
L 325.072928 109.297039 
L 323.441498 93.099657 
L 321.810069 188.762582 
L 320.178639 197.401302 
L 318.547209 193.546011 
L 316.915779 113.132654 
L 315.284349 236.242135 
L 313.652919 162.528984 
L 312.021489 176.596996 
L 310.390059 86.636531 
L 308.75863 94.436227 
L 307.1272 151.540641 
L 305.49577 102.73276 
L 303.86434 120.391803 
L 302.23291 87.780446 
L 300.60148 154.508071 
L 298.97005 128.982006 
L 297.33862 57.210176 
L 295.70719 138.226905 
L 294.075761 102.192735 
L 292.444331 175.63576 
L 290.812901 208.96133 
L 289.181471 175.229732 
L 287.550041 212.772537 
L 285.918611 140.439787 
L 284.287181 257.913436 
L 282.655751 211.37076 
L 281.024322 227.59561 
L 279.392892 208.084924 
L 277.761462 189.979383 
L 276.130032 76.05141 
L 274.498602 199.928696 
L 272.867172 252.830677 
L 271.235742 269.111034 
L 269.604312 215.52505 
L 267.972883 124.271288 
L 266.341453 262.857346 
L 264.710023 209.164026 
L 263.078593 119.331344 
L 261.447163 231.663418 
L 259.815733 128.763745 
L 258.184303 234.756901 
L 256.552873 181.853739 
L 254.921444 108.38591 
L 253.290014 86.970262 
L 251.658584 209.933742 
L 250.027154 148.719336 
L 248.395724 233.277765 
L 246.764294 247.369486 
L 245.132864 255.89433 
L 243.501434 193.373844 
L 241.870005 201.343659 
L 240.238575 190.807132 
L 238.607145 254.501739 
L 236.975715 280.950922 
L 235.344285 288.524674 
L 233.712855 244.048751 
L 232.081425 80.353251 
L 230.449995 166.393597 
L 228.818566 142.159402 
L 227.187136 195.066613 
L 225.555706 193.386347 
L 223.924276 288.524674 
L 222.292846 114.719617 
L 220.661416 176.913307 
L 219.029986 182.746385 
L 217.398556 263.240013 
L 215.767127 208.084837 
L 214.135697 238.728172 
L 212.504267 173.582281 
L 210.872837 227.298806 
L 209.241407 198.138315 
L 207.609977 267.251895 
L 205.978547 288.524674 
L 204.347117 144.341013 
L 202.715688 199.184904 
L 201.084258 70.983767 
L 199.452828 100.531256 
L 197.821398 288.524674 
L 196.189968 288.524674 
L 194.558538 288.524674 
L 192.927108 288.524674 
L 191.295678 288.524674 
L 189.664249 288.524674 
L 188.032819 288.524674 
L 186.401389 288.524674 
L 184.769959 288.524674 
L 183.138529 288.524674 
L 181.507099 288.524674 
L 179.875669 288.524674 
L 178.244239 288.524674 
L 176.61281 288.524674 
L 174.98138 288.524674 
L 173.34995 288.524674 
L 171.71852 288.524674 
L 170.08709 288.524674 
L 168.45566 288.524674 
L 166.82423 288.524674 
L 165.1928 288.524674 
L 163.56137 288.524674 
L 161.929941 288.524674 
L 160.298511 288.524674 
L 158.667081 288.524674 
L 157.035651 288.524674 
L 155.404221 288.524674 
L 153.772791 288.524674 
L 152.141361 288.524674 
L 150.509931 288.524674 
L 148.878502 288.524674 
L 147.247072 288.524674 
L 145.615642 288.524674 
L 143.984212 288.524674 
L 142.352782 288.524674 
L 140.721352 288.524674 
L 139.089922 288.524674 
L 137.458492 288.524674 
L 135.827063 288.524674 
L 134.195633 288.524674 
L 132.564203 288.524674 
L 130.932773 288.524674 
L 129.301343 288.524674 
L 127.669913 288.524674 
L 126.038483 288.524674 
L 124.407053 288.524674 
L 122.775624 288.524674 
L 121.144194 288.524674 
L 119.512764 288.524674 
L 117.881334 288.524674 
L 116.249904 288.524674 
L 114.618474 288.524674 
L 112.987044 288.524674 
L 111.355614 288.524674 
L 109.724185 288.524674 
L 108.092755 288.524674 
L 106.461325 288.524674 
L 104.829895 288.524674 
L 103.198465 288.524674 
L 101.567035 288.524674 
L 99.935605 288.524674 
L 98.304175 288.524674 
L 96.672746 288.524674 
L 95.041316 288.524674 
L 93.409886 288.524674 
L 91.778456 288.524674 
L 90.147026 288.524674 
L 88.515596 288.524674 
L 86.884166 288.524674 
L 85.252736 288.524674 
L 83.621307 288.524674 
L 81.989877 288.524674 
L 80.358447 288.524674 
L 78.727017 288.524674 
L 77.095587 288.524674 
L 75.464157 288.524674 
L 73.832727 288.524674 
z
" style="fill:#1f77b4;fill-opacity:0.1;"/>
   </g>
   <g id="matplotlib.axis_1">
    <g id="xtick_1">
     <g id="line2d_1">
      <defs>
       <path d="M 0 0 
L 0 3.5 
" id="m729cc75a56" style="stroke:#000000;stroke-width:0.8;"/>
      </defs>
      <g>
       <use style="stroke:#000000;stroke-width:0.8;" x="73.832727" xlink:href="#m729cc75a56" y="307.584"/>
      </g>
     </g>
     <g id="text_1">
      <!-- 0 -->
      <defs>
       <path d="M 31.78125 66.40625 
Q 24.171875 66.40625 20.328125 58.90625 
Q 16.5 51.421875 16.5 36.375 
Q 16.5 21.390625 20.328125 13.890625 
Q 24.171875 6.390625 31.78125 6.390625 
Q 39.453125 6.390625 43.28125 13.890625 
Q 47.125 21.390625 47.125 36.375 
Q 47.125 51.421875 43.28125 58.90625 
Q 39.453125 66.40625 31.78125 66.40625 
z
M 31.78125 74.21875 
Q 44.046875 74.21875 50.515625 64.515625 
Q 56.984375 54.828125 56.984375 36.375 
Q 56.984375 17.96875 50.515625 8.265625 
Q 44.046875 -1.421875 31.78125 -1.421875 
Q 19.53125 -1.421875 13.0625 8.265625 
Q 6.59375 17.96875 6.59375 36.375 
Q 6.59375 54.828125 13.0625 64.515625 
Q 19.53125 74.21875 31.78125 74.21875 
z
" id="DejaVuSans-48"/>
      </defs>
      <g transform="translate(70.651477 322.182437)scale(0.1 -0.1)">
       <use xlink:href="#DejaVuSans-48"/>
      </g>
     </g>
    </g>
    <g id="xtick_2">
     <g id="line2d_2">
      <g>
       <use style="stroke:#000000;stroke-width:0.8;" x="114.618474" xlink:href="#m729cc75a56" y="307.584"/>
      </g>
     </g>
     <g id="text_2">
      <!-- 25 -->
      <defs>
       <path d="M 19.1875 8.296875 
L 53.609375 8.296875 
L 53.609375 0 
L 7.328125 0 
L 7.328125 8.296875 
Q 12.9375 14.109375 22.625 23.890625 
Q 32.328125 33.6875 34.8125 36.53125 
Q 39.546875 41.84375 41.421875 45.53125 
Q 43.3125 49.21875 43.3125 52.78125 
Q 43.3125 58.59375 39.234375 62.25 
Q 35.15625 65.921875 28.609375 65.921875 
Q 23.96875 65.921875 18.8125 64.3125 
Q 13.671875 62.703125 7.8125 59.421875 
L 7.8125 69.390625 
Q 13.765625 71.78125 18.9375 73 
Q 24.125 74.21875 28.421875 74.21875 
Q 39.75 74.21875 46.484375 68.546875 
Q 53.21875 62.890625 53.21875 53.421875 
Q 53.21875 48.921875 51.53125 44.890625 
Q 49.859375 40.875 45.40625 35.40625 
Q 44.1875 33.984375 37.640625 27.21875 
Q 31.109375 20.453125 19.1875 8.296875 
z
" id="DejaVuSans-50"/>
       <path d="M 10.796875 72.90625 
L 49.515625 72.90625 
L 49.515625 64.59375 
L 19.828125 64.59375 
L 19.828125 46.734375 
Q 21.96875 47.46875 24.109375 47.828125 
Q 26.265625 48.1875 28.421875 48.1875 
Q 40.625 48.1875 47.75 41.5 
Q 54.890625 34.8125 54.890625 23.390625 
Q 54.890625 11.625 47.5625 5.09375 
Q 40.234375 -1.421875 26.90625 -1.421875 
Q 22.3125 -1.421875 17.546875 -0.640625 
Q 12.796875 0.140625 7.71875 1.703125 
L 7.71875 11.625 
Q 12.109375 9.234375 16.796875 8.0625 
Q 21.484375 6.890625 26.703125 6.890625 
Q 35.15625 6.890625 40.078125 11.328125 
Q 45.015625 15.765625 45.015625 23.390625 
Q 45.015625 31 40.078125 35.4375 
Q 35.15625 39.890625 26.703125 39.890625 
Q 22.75 39.890625 18.8125 39.015625 
Q 14.890625 38.140625 10.796875 36.28125 
z
" id="DejaVuSans-53"/>
      </defs>
      <g transform="translate(108.255974 322.182437)scale(0.1 -0.1)">
       <use xlink:href="#DejaVuSans-50"/>
       <use x="63.623047" xlink:href="#DejaVuSans-53"/>
      </g>
     </g>
    </g>
    <g id="xtick_3">
     <g id="line2d_3">
      <g>
       <use style="stroke:#000000;stroke-width:0.8;" x="155.404221" xlink:href="#m729cc75a56" y="307.584"/>
      </g>
     </g>
     <g id="text_3">
      <!-- 50 -->
      <g transform="translate(149.041721 322.182437)scale(0.1 -0.1)">
       <use xlink:href="#DejaVuSans-53"/>
       <use x="63.623047" xlink:href="#DejaVuSans-48"/>
      </g>
     </g>
    </g>
    <g id="xtick_4">
     <g id="line2d_4">
      <g>
       <use style="stroke:#000000;stroke-width:0.8;" x="196.189968" xlink:href="#m729cc75a56" y="307.584"/>
      </g>
     </g>
     <g id="text_4">
      <!-- 75 -->
      <defs>
       <path d="M 8.203125 72.90625 
L 55.078125 72.90625 
L 55.078125 68.703125 
L 28.609375 0 
L 18.3125 0 
L 43.21875 64.59375 
L 8.203125 64.59375 
z
" id="DejaVuSans-55"/>
      </defs>
      <g transform="translate(189.827468 322.182437)scale(0.1 -0.1)">
       <use xlink:href="#DejaVuSans-55"/>
       <use x="63.623047" xlink:href="#DejaVuSans-53"/>
      </g>
     </g>
    </g>
    <g id="xtick_5">
     <g id="line2d_5">
      <g>
       <use style="stroke:#000000;stroke-width:0.8;" x="236.975715" xlink:href="#m729cc75a56" y="307.584"/>
      </g>
     </g>
     <g id="text_5">
      <!-- 100 -->
      <defs>
       <path d="M 12.40625 8.296875 
L 28.515625 8.296875 
L 28.515625 63.921875 
L 10.984375 60.40625 
L 10.984375 69.390625 
L 28.421875 72.90625 
L 38.28125 72.90625 
L 38.28125 8.296875 
L 54.390625 8.296875 
L 54.390625 0 
L 12.40625 0 
z
" id="DejaVuSans-49"/>
      </defs>
      <g transform="translate(227.431965 322.182437)scale(0.1 -0.1)">
       <use xlink:href="#DejaVuSans-49"/>
       <use x="63.623047" xlink:href="#DejaVuSans-48"/>
       <use x="127.246094" xlink:href="#DejaVuSans-48"/>
      </g>
     </g>
    </g>
    <g id="xtick_6">
     <g id="line2d_6">
      <g>
       <use style="stroke:#000000;stroke-width:0.8;" x="277.761462" xlink:href="#m729cc75a56" y="307.584"/>
      </g>
     </g>
     <g id="text_6">
      <!-- 125 -->
      <g transform="translate(268.217712 322.182437)scale(0.1 -0.1)">
       <use xlink:href="#DejaVuSans-49"/>
       <use x="63.623047" xlink:href="#DejaVuSans-50"/>
       <use x="127.246094" xlink:href="#DejaVuSans-53"/>
      </g>
     </g>
    </g>
    <g id="xtick_7">
     <g id="line2d_7">
      <g>
       <use style="stroke:#000000;stroke-width:0.8;" x="318.547209" xlink:href="#m729cc75a56" y="307.584"/>
      </g>
     </g>
     <g id="text_7">
      <!-- 150 -->
      <g transform="translate(309.003459 322.182437)scale(0.1 -0.1)">
       <use xlink:href="#DejaVuSans-49"/>
       <use x="63.623047" xlink:href="#DejaVuSans-53"/>
       <use x="127.246094" xlink:href="#DejaVuSans-48"/>
      </g>
     </g>
    </g>
    <g id="xtick_8">
     <g id="line2d_8">
      <g>
       <use style="stroke:#000000;stroke-width:0.8;" x="359.332956" xlink:href="#m729cc75a56" y="307.584"/>
      </g>
     </g>
     <g id="text_8">
      <!-- 175 -->
      <g transform="translate(349.789206 322.182437)scale(0.1 -0.1)">
       <use xlink:href="#DejaVuSans-49"/>
       <use x="63.623047" xlink:href="#DejaVuSans-55"/>
       <use x="127.246094" xlink:href="#DejaVuSans-53"/>
      </g>
     </g>
    </g>
    <g id="xtick_9">
     <g id="line2d_9">
      <g>
       <use style="stroke:#000000;stroke-width:0.8;" x="400.118703" xlink:href="#m729cc75a56" y="307.584"/>
      </g>
     </g>
     <g id="text_9">
      <!-- 200 -->
      <g transform="translate(390.574953 322.182437)scale(0.1 -0.1)">
       <use xlink:href="#DejaVuSans-50"/>
       <use x="63.623047" xlink:href="#DejaVuSans-48"/>
       <use x="127.246094" xlink:href="#DejaVuSans-48"/>
      </g>
     </g>
    </g>
   </g>
   <g id="matplotlib.axis_2">
    <g id="ytick_1">
     <g id="line2d_10">
      <defs>
       <path d="M 0 0 
L -3.5 0 
" id="mdc3fc182c6" style="stroke:#000000;stroke-width:0.8;"/>
      </defs>
      <g>
       <use style="stroke:#000000;stroke-width:0.8;" x="57.6" xlink:href="#mdc3fc182c6" y="301.648611"/>
      </g>
     </g>
     <g id="text_10">
      <!-- 0 -->
      <g transform="translate(44.2375 305.44783)scale(0.1 -0.1)">
       <use xlink:href="#DejaVuSans-48"/>
      </g>
     </g>
    </g>
    <g id="ytick_2">
     <g id="line2d_11">
      <g>
       <use style="stroke:#000000;stroke-width:0.8;" x="57.6" xlink:href="#mdc3fc182c6" y="247.778591"/>
      </g>
     </g>
     <g id="text_11">
      <!-- 5 -->
      <g transform="translate(44.2375 251.57781)scale(0.1 -0.1)">
       <use xlink:href="#DejaVuSans-53"/>
      </g>
     </g>
    </g>
    <g id="ytick_3">
     <g id="line2d_12">
      <g>
       <use style="stroke:#000000;stroke-width:0.8;" x="57.6" xlink:href="#mdc3fc182c6" y="193.908571"/>
      </g>
     </g>
     <g id="text_12">
      <!-- 10 -->
      <g transform="translate(37.875 197.70779)scale(0.1 -0.1)">
       <use xlink:href="#DejaVuSans-49"/>
       <use x="63.623047" xlink:href="#DejaVuSans-48"/>
      </g>
     </g>
    </g>
    <g id="ytick_4">
     <g id="line2d_13">
      <g>
       <use style="stroke:#000000;stroke-width:0.8;" x="57.6" xlink:href="#mdc3fc182c6" y="140.03855"/>
      </g>
     </g>
     <g id="text_13">
      <!-- 15 -->
      <g transform="translate(37.875 143.837769)scale(0.1 -0.1)">
       <use xlink:href="#DejaVuSans-49"/>
       <use x="63.623047" xlink:href="#DejaVuSans-53"/>
      </g>
     </g>
    </g>
    <g id="ytick_5">
     <g id="line2d_14">
      <g>
       <use style="stroke:#000000;stroke-width:0.8;" x="57.6" xlink:href="#mdc3fc182c6" y="86.16853"/>
      </g>
     </g>
     <g id="text_14">
      <!-- 20 -->
      <g transform="translate(37.875 89.967749)scale(0.1 -0.1)">
       <use xlink:href="#DejaVuSans-50"/>
       <use x="63.623047" xlink:href="#DejaVuSans-48"/>
      </g>
     </g>
    </g>
   </g>
   <g id="line2d_15">
    <path clip-path="url(#p055ffcd62b)" d="M 73.832727 289.498658 
L 75.464157 289.812158 
L 78.727017 289.812158 
L 80.358447 289.498658 
L 81.989877 289.812158 
L 90.147026 289.812158 
L 91.778456 289.498658 
L 93.409886 289.812158 
L 99.935605 289.812158 
L 101.567035 289.498658 
L 103.198465 289.812158 
L 109.724185 289.812158 
L 111.355614 289.498658 
L 112.987044 289.812158 
L 119.512764 289.812158 
L 121.144194 289.655408 
L 122.775624 289.812158 
L 130.932773 289.812158 
L 132.564203 289.498658 
L 134.195633 289.498658 
L 135.827063 289.812158 
L 137.458492 289.812158 
L 139.089922 289.498658 
L 140.721352 289.812158 
L 142.352782 289.812158 
L 143.984212 289.498658 
L 147.247072 289.812158 
L 148.878502 289.498658 
L 150.509931 289.498658 
L 152.141361 289.812158 
L 161.929941 289.812158 
L 163.56137 289.655408 
L 165.1928 289.812158 
L 173.34995 289.812158 
L 174.98138 289.498658 
L 178.244239 289.498658 
L 179.875669 289.812158 
L 181.507099 289.498658 
L 183.138529 289.812158 
L 188.032819 289.812158 
L 189.664249 289.498658 
L 191.295678 289.812158 
L 192.927108 289.498658 
L 194.558538 289.812158 
L 199.452828 289.812158 
L 201.084258 289.498658 
L 202.715688 289.812158 
L 205.978547 289.812158 
L 207.609977 289.498658 
L 209.241407 289.812158 
L 210.872837 289.498658 
L 212.504267 289.498658 
L 214.135697 289.812158 
L 215.767127 289.498658 
L 217.398556 289.812158 
L 220.661416 289.812158 
L 222.292846 289.498658 
L 223.924276 289.812158 
L 225.555706 289.812158 
L 227.187136 289.498658 
L 228.818566 289.812158 
L 230.449995 289.655408 
L 232.081425 289.812158 
L 233.712855 289.655408 
L 235.344285 289.812158 
L 241.870005 289.812158 
L 243.501434 289.498658 
L 245.132864 289.498658 
L 246.764294 289.812158 
L 253.290014 289.812158 
L 254.921444 289.498658 
L 256.552873 289.812158 
L 261.447163 289.812158 
L 263.078593 289.498658 
L 264.710023 289.812158 
L 266.341453 289.498658 
L 267.972883 289.812158 
L 272.867172 289.812158 
L 274.498602 289.655408 
L 276.130032 289.812158 
L 277.761462 289.498658 
L 279.392892 289.498658 
L 281.024322 289.812158 
L 282.655751 289.498658 
L 285.918611 289.498658 
L 287.550041 289.2209 
L 289.181471 289.531633 
L 292.444331 289.812958 
L 294.075761 290.165808 
L 295.70719 289.153713 
L 297.33862 289.31686 
L 298.97005 290.471104 
L 300.60148 290.075473 
L 302.23291 289.974221 
L 303.86434 290.339735 
L 305.49577 289.777661 
L 307.1272 290.54821 
L 310.390059 289.564245 
L 312.021489 290.104434 
L 313.652919 288.542815 
L 315.284349 289.657579 
L 316.915779 289.489535 
L 318.547209 290.485456 
L 320.178639 288.340499 
L 321.810069 287.859576 
L 323.441498 289.54727 
L 325.072928 289.332947 
L 326.704358 290.237351 
L 328.335788 289.937675 
L 329.967218 289.901437 
L 331.598648 275.785054 
L 333.230078 288.620131 
L 334.861508 288.832264 
L 336.492937 289.998799 
L 338.124367 290.614146 
L 339.755797 290.071468 
L 341.387227 290.174682 
L 343.018657 290.611781 
L 344.650087 290.125665 
L 346.281517 289.107853 
L 347.912947 289.121485 
L 349.544376 288.877728 
L 351.175806 290.331665 
L 352.807236 284.201263 
L 354.438666 290.899782 
L 356.070096 290.248778 
L 359.332956 290.485243 
L 362.595815 290.453854 
L 364.227245 290.517613 
L 365.858675 290.949743 
L 367.490105 290.281975 
L 369.121535 289.814747 
L 370.752965 289.546595 
L 372.384395 289.931842 
L 374.015825 290.965109 
L 375.647254 290.094763 
L 377.278684 291.165994 
L 378.910114 290.944072 
L 380.541544 290.16519 
L 382.172974 290.434052 
L 383.804404 290.579993 
L 385.435834 289.901371 
L 387.067264 274.35677 
L 388.698693 289.424801 
L 390.330123 290.264864 
L 391.961553 289.983973 
L 393.592983 289.884419 
L 395.224413 290.236281 
L 396.855843 290.358927 
L 398.487273 291.053206 
L 398.487273 291.053206 
" style="fill:none;stroke:#1f77b4;stroke-linecap:square;stroke-width:0.25;"/>
   </g>
   <g id="line2d_16">
    <path clip-path="url(#p055ffcd62b)" d="M 73.832727 289.292904 
L 78.727017 289.391093 
L 80.358447 289.247005 
L 81.989877 289.252605 
L 83.621307 289.400833 
L 88.515596 289.339594 
L 91.778456 289.347203 
L 132.564203 289.321454 
L 139.089922 289.240735 
L 142.352782 289.411577 
L 145.615642 289.324254 
L 163.56137 289.343733 
L 166.82423 289.494427 
L 168.45566 289.278689 
L 171.71852 289.443597 
L 174.98138 289.356943 
L 178.244239 289.272754 
L 179.875669 289.378888 
L 181.507099 289.249805 
L 183.138529 289.343399 
L 184.769959 289.291564 
L 186.401389 289.417513 
L 192.927108 289.321119 
L 194.558538 289.449532 
L 197.821398 289.375418 
L 199.452828 287.573652 
L 201.084258 283.996319 
L 202.715688 287.797757 
L 204.347117 286.922914 
L 205.978547 289.344209 
L 207.609977 288.981019 
L 209.241407 288.423585 
L 210.872837 288.372699 
L 212.504267 284.151808 
L 214.135697 288.716559 
L 215.767127 287.072311 
L 217.398556 289.206431 
L 219.029986 287.687882 
L 220.661416 287.771663 
L 222.292846 287.655763 
L 223.924276 289.484556 
L 225.555706 287.13837 
L 227.187136 286.918822 
L 228.818566 287.126014 
L 230.449995 285.963312 
L 232.081425 284.392539 
L 233.712855 288.771662 
L 235.344285 289.440959 
L 236.975715 289.31484 
L 238.607145 289.032596 
L 240.238575 285.889523 
L 241.870005 287.229817 
L 243.501434 287.905835 
L 245.132864 288.883197 
L 246.764294 288.912832 
L 250.027154 287.340925 
L 251.658584 288.412725 
L 253.290014 286.043293 
L 254.921444 286.739565 
L 256.552873 286.74348 
L 258.184303 287.998729 
L 259.815733 285.662348 
L 261.447163 288.573083 
L 263.078593 286.81097 
L 264.710023 285.711472 
L 266.341453 288.847537 
L 267.972883 286.704719 
L 269.604312 286.523546 
L 271.235742 289.208574 
L 272.867172 288.909152 
L 274.498602 286.696038 
L 276.130032 283.282661 
L 277.761462 288.314642 
L 279.392892 288.375136 
L 281.024322 288.640377 
L 282.655751 287.655963 
L 284.287181 288.680322 
L 285.918611 284.860762 
L 287.550041 287.281845 
L 289.181471 288.273446 
L 290.812901 287.705656 
L 292.444331 283.664584 
L 294.075761 278.199811 
L 295.70719 279.739465 
L 297.33862 270.063792 
L 298.97005 279.15213 
L 300.60148 280.006897 
L 302.23291 277.007805 
L 303.86434 275.740933 
L 305.49577 279.198025 
L 307.1272 280.472486 
L 308.75863 282.199979 
L 310.390059 267.09504 
L 312.021489 278.679026 
L 313.652919 277.229893 
L 315.284349 284.713783 
L 316.915779 279.633386 
L 318.547209 285.7215 
L 320.178639 282.069813 
L 321.810069 281.7398 
L 323.441498 281.682244 
L 325.072928 279.227972 
L 326.704358 285.25928 
L 328.335788 277.30752 
L 329.967218 278.672072 
L 331.598648 267.61138 
L 333.230078 273.133328 
L 334.861508 271.802532 
L 336.492937 271.232537 
L 338.124367 278.699735 
L 339.755797 270.467073 
L 341.387227 267.710256 
L 343.018657 276.542364 
L 344.650087 276.781288 
L 346.281517 273.013053 
L 347.912947 267.076708 
L 349.544376 274.991237 
L 351.175806 277.207285 
L 352.807236 265.719783 
L 354.438666 283.507721 
L 356.070096 270.424157 
L 357.701526 277.344765 
L 359.332956 279.95571 
L 360.964386 277.977666 
L 362.595815 276.613006 
L 364.227245 276.150941 
L 365.858675 282.626203 
L 367.490105 282.263045 
L 369.121535 278.909668 
L 370.752965 272.337278 
L 372.384395 271.657075 
L 374.015825 285.203182 
L 375.647254 279.379152 
L 377.278684 274.535307 
L 378.910114 275.853561 
L 380.541544 275.146577 
L 382.172974 278.127769 
L 383.804404 285.896139 
L 385.435834 273.841119 
L 387.067264 268.931301 
L 388.698693 274.198533 
L 390.330123 273.235212 
L 391.961553 275.641166 
L 393.592983 272.428282 
L 395.224413 283.014224 
L 396.855843 282.356773 
L 398.487273 283.202322 
L 398.487273 283.202322 
" style="fill:none;stroke:#2ca02c;stroke-linecap:square;stroke-width:0.75;"/>
   </g>
   <g id="patch_3">
    <path d="M 57.6 307.584 
L 57.6 41.472 
" style="fill:none;stroke:#000000;stroke-linecap:square;stroke-linejoin:miter;stroke-width:0.8;"/>
   </g>
   <g id="patch_4">
    <path d="M 414.72 307.584 
L 414.72 41.472 
" style="fill:none;stroke:#000000;stroke-linecap:square;stroke-linejoin:miter;stroke-width:0.8;"/>
   </g>
   <g id="patch_5">
    <path d="M 57.6 307.584 
L 414.72 307.584 
" style="fill:none;stroke:#000000;stroke-linecap:square;stroke-linejoin:miter;stroke-width:0.8;"/>
   </g>
   <g id="patch_6">
    <path d="M 57.6 41.472 
L 414.72 41.472 
" style="fill:none;stroke:#000000;stroke-linecap:square;stroke-linejoin:miter;stroke-width:0.8;"/>
   </g>
   <g id="legend_1">
    <g id="patch_7">
     <path d="M 338.234063 78.82825 
L 407.72 78.82825 
Q 409.72 78.82825 409.72 76.82825 
L 409.72 48.472 
Q 409.72 46.472 407.72 46.472 
L 338.234063 46.472 
Q 336.234063 46.472 336.234063 48.472 
L 336.234063 76.82825 
Q 336.234063 78.82825 338.234063 78.82825 
z
" style="fill:#ffffff;opacity:0.8;stroke:#cccccc;stroke-linejoin:miter;"/>
    </g>
    <g id="line2d_17">
     <path d="M 340.234063 54.570437 
L 360.234063 54.570437 
" style="fill:none;stroke:#1f77b4;stroke-linecap:square;stroke-width:0.25;"/>
    </g>
    <g id="line2d_18"/>
    <g id="text_15">
     <!-- median -->
     <defs>
      <path d="M 52 44.1875 
Q 55.375 50.25 60.0625 53.125 
Q 64.75 56 71.09375 56 
Q 79.640625 56 84.28125 50.015625 
Q 88.921875 44.046875 88.921875 33.015625 
L 88.921875 0 
L 79.890625 0 
L 79.890625 32.71875 
Q 79.890625 40.578125 77.09375 44.375 
Q 74.3125 48.1875 68.609375 48.1875 
Q 61.625 48.1875 57.5625 43.546875 
Q 53.515625 38.921875 53.515625 30.90625 
L 53.515625 0 
L 44.484375 0 
L 44.484375 32.71875 
Q 44.484375 40.625 41.703125 44.40625 
Q 38.921875 48.1875 33.109375 48.1875 
Q 26.21875 48.1875 22.15625 43.53125 
Q 18.109375 38.875 18.109375 30.90625 
L 18.109375 0 
L 9.078125 0 
L 9.078125 54.6875 
L 18.109375 54.6875 
L 18.109375 46.1875 
Q 21.1875 51.21875 25.484375 53.609375 
Q 29.78125 56 35.6875 56 
Q 41.65625 56 45.828125 52.96875 
Q 50 49.953125 52 44.1875 
z
" id="DejaVuSans-109"/>
      <path d="M 56.203125 29.59375 
L 56.203125 25.203125 
L 14.890625 25.203125 
Q 15.484375 15.921875 20.484375 11.0625 
Q 25.484375 6.203125 34.421875 6.203125 
Q 39.59375 6.203125 44.453125 7.46875 
Q 49.3125 8.734375 54.109375 11.28125 
L 54.109375 2.78125 
Q 49.265625 0.734375 44.1875 -0.34375 
Q 39.109375 -1.421875 33.890625 -1.421875 
Q 20.796875 -1.421875 13.15625 6.1875 
Q 5.515625 13.8125 5.515625 26.8125 
Q 5.515625 40.234375 12.765625 48.109375 
Q 20.015625 56 32.328125 56 
Q 43.359375 56 49.78125 48.890625 
Q 56.203125 41.796875 56.203125 29.59375 
z
M 47.21875 32.234375 
Q 47.125 39.59375 43.09375 43.984375 
Q 39.0625 48.390625 32.421875 48.390625 
Q 24.90625 48.390625 20.390625 44.140625 
Q 15.875 39.890625 15.1875 32.171875 
z
" id="DejaVuSans-101"/>
      <path d="M 45.40625 46.390625 
L 45.40625 75.984375 
L 54.390625 75.984375 
L 54.390625 0 
L 45.40625 0 
L 45.40625 8.203125 
Q 42.578125 3.328125 38.25 0.953125 
Q 33.9375 -1.421875 27.875 -1.421875 
Q 17.96875 -1.421875 11.734375 6.484375 
Q 5.515625 14.40625 5.515625 27.296875 
Q 5.515625 40.1875 11.734375 48.09375 
Q 17.96875 56 27.875 56 
Q 33.9375 56 38.25 53.625 
Q 42.578125 51.265625 45.40625 46.390625 
z
M 14.796875 27.296875 
Q 14.796875 17.390625 18.875 11.75 
Q 22.953125 6.109375 30.078125 6.109375 
Q 37.203125 6.109375 41.296875 11.75 
Q 45.40625 17.390625 45.40625 27.296875 
Q 45.40625 37.203125 41.296875 42.84375 
Q 37.203125 48.484375 30.078125 48.484375 
Q 22.953125 48.484375 18.875 42.84375 
Q 14.796875 37.203125 14.796875 27.296875 
z
" id="DejaVuSans-100"/>
      <path d="M 9.421875 54.6875 
L 18.40625 54.6875 
L 18.40625 0 
L 9.421875 0 
z
M 9.421875 75.984375 
L 18.40625 75.984375 
L 18.40625 64.59375 
L 9.421875 64.59375 
z
" id="DejaVuSans-105"/>
      <path d="M 34.28125 27.484375 
Q 23.390625 27.484375 19.1875 25 
Q 14.984375 22.515625 14.984375 16.5 
Q 14.984375 11.71875 18.140625 8.90625 
Q 21.296875 6.109375 26.703125 6.109375 
Q 34.1875 6.109375 38.703125 11.40625 
Q 43.21875 16.703125 43.21875 25.484375 
L 43.21875 27.484375 
z
M 52.203125 31.203125 
L 52.203125 0 
L 43.21875 0 
L 43.21875 8.296875 
Q 40.140625 3.328125 35.546875 0.953125 
Q 30.953125 -1.421875 24.3125 -1.421875 
Q 15.921875 -1.421875 10.953125 3.296875 
Q 6 8.015625 6 15.921875 
Q 6 25.140625 12.171875 29.828125 
Q 18.359375 34.515625 30.609375 34.515625 
L 43.21875 34.515625 
L 43.21875 35.40625 
Q 43.21875 41.609375 39.140625 45 
Q 35.0625 48.390625 27.6875 48.390625 
Q 23 48.390625 18.546875 47.265625 
Q 14.109375 46.140625 10.015625 43.890625 
L 10.015625 52.203125 
Q 14.9375 54.109375 19.578125 55.046875 
Q 24.21875 56 28.609375 56 
Q 40.484375 56 46.34375 49.84375 
Q 52.203125 43.703125 52.203125 31.203125 
z
" id="DejaVuSans-97"/>
      <path d="M 54.890625 33.015625 
L 54.890625 0 
L 45.90625 0 
L 45.90625 32.71875 
Q 45.90625 40.484375 42.875 44.328125 
Q 39.84375 48.1875 33.796875 48.1875 
Q 26.515625 48.1875 22.3125 43.546875 
Q 18.109375 38.921875 18.109375 30.90625 
L 18.109375 0 
L 9.078125 0 
L 9.078125 54.6875 
L 18.109375 54.6875 
L 18.109375 46.1875 
Q 21.34375 51.125 25.703125 53.5625 
Q 30.078125 56 35.796875 56 
Q 45.21875 56 50.046875 50.171875 
Q 54.890625 44.34375 54.890625 33.015625 
z
" id="DejaVuSans-110"/>
     </defs>
     <g transform="translate(368.234063 58.070437)scale(0.1 -0.1)">
      <use xlink:href="#DejaVuSans-109"/>
      <use x="97.412109" xlink:href="#DejaVuSans-101"/>
      <use x="158.935547" xlink:href="#DejaVuSans-100"/>
      <use x="222.412109" xlink:href="#DejaVuSans-105"/>
      <use x="250.195312" xlink:href="#DejaVuSans-97"/>
      <use x="311.474609" xlink:href="#DejaVuSans-110"/>
     </g>
    </g>
    <g id="line2d_19">
     <path d="M 340.234063 69.248562 
L 360.234063 69.248562 
" style="fill:none;stroke:#2ca02c;stroke-linecap:square;stroke-width:0.75;"/>
    </g>
    <g id="line2d_20"/>
    <g id="text_16">
     <!-- mean -->
     <g transform="translate(368.234063 72.748562)scale(0.1 -0.1)">
      <use xlink:href="#DejaVuSans-109"/>
      <use x="97.412109" xlink:href="#DejaVuSans-101"/>
      <use x="158.935547" xlink:href="#DejaVuSans-97"/>
      <use x="220.214844" xlink:href="#DejaVuSans-110"/>
     </g>
    </g>
   </g>
  </g>
  <g id="text_17">
   <!-- log_loss.mean over generations -->
   <defs>
    <path d="M 9.421875 75.984375 
L 18.40625 75.984375 
L 18.40625 0 
L 9.421875 0 
z
" id="DejaVuSans-108"/>
    <path d="M 30.609375 48.390625 
Q 23.390625 48.390625 19.1875 42.75 
Q 14.984375 37.109375 14.984375 27.296875 
Q 14.984375 17.484375 19.15625 11.84375 
Q 23.34375 6.203125 30.609375 6.203125 
Q 37.796875 6.203125 41.984375 11.859375 
Q 46.1875 17.53125 46.1875 27.296875 
Q 46.1875 37.015625 41.984375 42.703125 
Q 37.796875 48.390625 30.609375 48.390625 
z
M 30.609375 56 
Q 42.328125 56 49.015625 48.375 
Q 55.71875 40.765625 55.71875 27.296875 
Q 55.71875 13.875 49.015625 6.21875 
Q 42.328125 -1.421875 30.609375 -1.421875 
Q 18.84375 -1.421875 12.171875 6.21875 
Q 5.515625 13.875 5.515625 27.296875 
Q 5.515625 40.765625 12.171875 48.375 
Q 18.84375 56 30.609375 56 
z
" id="DejaVuSans-111"/>
    <path d="M 45.40625 27.984375 
Q 45.40625 37.75 41.375 43.109375 
Q 37.359375 48.484375 30.078125 48.484375 
Q 22.859375 48.484375 18.828125 43.109375 
Q 14.796875 37.75 14.796875 27.984375 
Q 14.796875 18.265625 18.828125 12.890625 
Q 22.859375 7.515625 30.078125 7.515625 
Q 37.359375 7.515625 41.375 12.890625 
Q 45.40625 18.265625 45.40625 27.984375 
z
M 54.390625 6.78125 
Q 54.390625 -7.171875 48.1875 -13.984375 
Q 42 -20.796875 29.203125 -20.796875 
Q 24.46875 -20.796875 20.265625 -20.09375 
Q 16.0625 -19.390625 12.109375 -17.921875 
L 12.109375 -9.1875 
Q 16.0625 -11.328125 19.921875 -12.34375 
Q 23.78125 -13.375 27.78125 -13.375 
Q 36.625 -13.375 41.015625 -8.765625 
Q 45.40625 -4.15625 45.40625 5.171875 
L 45.40625 9.625 
Q 42.625 4.78125 38.28125 2.390625 
Q 33.9375 0 27.875 0 
Q 17.828125 0 11.671875 7.65625 
Q 5.515625 15.328125 5.515625 27.984375 
Q 5.515625 40.671875 11.671875 48.328125 
Q 17.828125 56 27.875 56 
Q 33.9375 56 38.28125 53.609375 
Q 42.625 51.21875 45.40625 46.390625 
L 45.40625 54.6875 
L 54.390625 54.6875 
z
" id="DejaVuSans-103"/>
    <path d="M 50.984375 -16.609375 
L 50.984375 -23.578125 
L -0.984375 -23.578125 
L -0.984375 -16.609375 
z
" id="DejaVuSans-95"/>
    <path d="M 44.28125 53.078125 
L 44.28125 44.578125 
Q 40.484375 46.53125 36.375 47.5 
Q 32.28125 48.484375 27.875 48.484375 
Q 21.1875 48.484375 17.84375 46.4375 
Q 14.5 44.390625 14.5 40.28125 
Q 14.5 37.15625 16.890625 35.375 
Q 19.28125 33.59375 26.515625 31.984375 
L 29.59375 31.296875 
Q 39.15625 29.25 43.1875 25.515625 
Q 47.21875 21.78125 47.21875 15.09375 
Q 47.21875 7.46875 41.1875 3.015625 
Q 35.15625 -1.421875 24.609375 -1.421875 
Q 20.21875 -1.421875 15.453125 -0.5625 
Q 10.6875 0.296875 5.421875 2 
L 5.421875 11.28125 
Q 10.40625 8.6875 15.234375 7.390625 
Q 20.0625 6.109375 24.8125 6.109375 
Q 31.15625 6.109375 34.5625 8.28125 
Q 37.984375 10.453125 37.984375 14.40625 
Q 37.984375 18.0625 35.515625 20.015625 
Q 33.0625 21.96875 24.703125 23.78125 
L 21.578125 24.515625 
Q 13.234375 26.265625 9.515625 29.90625 
Q 5.8125 33.546875 5.8125 39.890625 
Q 5.8125 47.609375 11.28125 51.796875 
Q 16.75 56 26.8125 56 
Q 31.78125 56 36.171875 55.265625 
Q 40.578125 54.546875 44.28125 53.078125 
z
" id="DejaVuSans-115"/>
    <path d="M 10.6875 12.40625 
L 21 12.40625 
L 21 0 
L 10.6875 0 
z
" id="DejaVuSans-46"/>
    <path id="DejaVuSans-32"/>
    <path d="M 2.984375 54.6875 
L 12.5 54.6875 
L 29.59375 8.796875 
L 46.6875 54.6875 
L 56.203125 54.6875 
L 35.6875 0 
L 23.484375 0 
z
" id="DejaVuSans-118"/>
    <path d="M 41.109375 46.296875 
Q 39.59375 47.171875 37.8125 47.578125 
Q 36.03125 48 33.890625 48 
Q 26.265625 48 22.1875 43.046875 
Q 18.109375 38.09375 18.109375 28.8125 
L 18.109375 0 
L 9.078125 0 
L 9.078125 54.6875 
L 18.109375 54.6875 
L 18.109375 46.1875 
Q 20.953125 51.171875 25.484375 53.578125 
Q 30.03125 56 36.53125 56 
Q 37.453125 56 38.578125 55.875 
Q 39.703125 55.765625 41.0625 55.515625 
z
" id="DejaVuSans-114"/>
    <path d="M 18.3125 70.21875 
L 18.3125 54.6875 
L 36.8125 54.6875 
L 36.8125 47.703125 
L 18.3125 47.703125 
L 18.3125 18.015625 
Q 18.3125 11.328125 20.140625 9.421875 
Q 21.96875 7.515625 27.59375 7.515625 
L 36.8125 7.515625 
L 36.8125 0 
L 27.59375 0 
Q 17.1875 0 13.234375 3.875 
Q 9.28125 7.765625 9.28125 18.015625 
L 9.28125 47.703125 
L 2.6875 47.703125 
L 2.6875 54.6875 
L 9.28125 54.6875 
L 9.28125 70.21875 
z
" id="DejaVuSans-116"/>
   </defs>
   <g transform="translate(134.789062 16.030125)scale(0.12 -0.12)">
    <use xlink:href="#DejaVuSans-108"/>
    <use x="27.783203" xlink:href="#DejaVuSans-111"/>
    <use x="88.964844" xlink:href="#DejaVuSans-103"/>
    <use x="152.441406" xlink:href="#DejaVuSans-95"/>
    <use x="202.441406" xlink:href="#DejaVuSans-108"/>
    <use x="230.224609" xlink:href="#DejaVuSans-111"/>
    <use x="291.40625" xlink:href="#DejaVuSans-115"/>
    <use x="343.505859" xlink:href="#DejaVuSans-115"/>
    <use x="395.605469" xlink:href="#DejaVuSans-46"/>
    <use x="427.392578" xlink:href="#DejaVuSans-109"/>
    <use x="524.804688" xlink:href="#DejaVuSans-101"/>
    <use x="586.328125" xlink:href="#DejaVuSans-97"/>
    <use x="647.607422" xlink:href="#DejaVuSans-110"/>
    <use x="710.986328" xlink:href="#DejaVuSans-32"/>
    <use x="742.773438" xlink:href="#DejaVuSans-111"/>
    <use x="803.955078" xlink:href="#DejaVuSans-118"/>
    <use x="863.134766" xlink:href="#DejaVuSans-101"/>
    <use x="924.658203" xlink:href="#DejaVuSans-114"/>
    <use x="965.771484" xlink:href="#DejaVuSans-32"/>
    <use x="997.558594" xlink:href="#DejaVuSans-103"/>
    <use x="1061.035156" xlink:href="#DejaVuSans-101"/>
    <use x="1122.558594" xlink:href="#DejaVuSans-110"/>
    <use x="1185.9375" xlink:href="#DejaVuSans-101"/>
    <use x="1247.460938" xlink:href="#DejaVuSans-114"/>
    <use x="1288.574219" xlink:href="#DejaVuSans-97"/>
    <use x="1349.853516" xlink:href="#DejaVuSans-116"/>
    <use x="1389.0625" xlink:href="#DejaVuSans-105"/>
    <use x="1416.845703" xlink:href="#DejaVuSans-111"/>
    <use x="1478.027344" xlink:href="#DejaVuSans-110"/>
    <use x="1541.40625" xlink:href="#DejaVuSans-115"/>
   </g>
  </g>
 </g>
 <defs>
  <clipPath id="p055ffcd62b">
   <rect height="266.112" width="357.12" x="57.6" y="41.472"/>
  </clipPath>
 </defs>
</svg>
