<?xml version="1.0" encoding="utf-8" standalone="no"?>
<!DOCTYPE svg PUBLIC "-//W3C//DTD SVG 1.1//EN"
  "http://www.w3.org/Graphics/SVG/1.1/DTD/svg11.dtd">
<!-- Created with matplotlib (https://matplotlib.org/) -->
<svg height="345.6pt" version="1.1" viewBox="0 0 460.8 345.6" width="460.8pt" xmlns="http://www.w3.org/2000/svg" xmlns:xlink="http://www.w3.org/1999/xlink">
 <defs>
  <style type="text/css">
*{stroke-linecap:butt;stroke-linejoin:round;}
  </style>
 </defs>
 <g id="figure_1">
  <g id="patch_1">
   <path d="M 0 345.6 
L 460.8 345.6 
L 460.8 0 
L 0 0 
z
" style="fill:#ffffff;"/>
  </g>
  <g id="axes_1">
   <g id="patch_2">
    <path clip-path="url(#p6a1fd5eb7e)" d="M 88.589752 64.564364 
Q 142.673811 118.299493 196.75787 172.034623 
" style="fill:none;stroke:#000000;stroke-linecap:round;stroke-opacity:0.9;stroke-width:0.4;"/>
   </g>
   <g id="patch_3">
    <path clip-path="url(#p6a1fd5eb7e)" d="M 88.589752 174.528 
Q 105.949567 196.81269 123.309382 219.09738 
" style="fill:none;stroke:#000000;stroke-linecap:round;stroke-opacity:0.9;stroke-width:0.4;"/>
   </g>
   <g id="patch_4">
    <path clip-path="url(#p6a1fd5eb7e)" d="M 88.589752 229.509818 
Q 106.436506 180.002626 124.283261 130.495433 
" style="fill:none;stroke:#000000;stroke-linecap:round;stroke-opacity:0.9;stroke-width:0.4;"/>
   </g>
   <g id="patch_5">
    <path clip-path="url(#p6a1fd5eb7e)" d="M 88.589752 229.509818 
Q 234.423906 202.342327 380.25806 175.174835 
" style="fill:none;stroke:#000000;stroke-linecap:round;stroke-opacity:0.9;stroke-width:0.4;"/>
   </g>
   <g id="patch_6">
    <path clip-path="url(#p6a1fd5eb7e)" d="M 88.589752 229.509818 
Q 234.396885 239.429884 380.204018 249.34995 
" style="fill:none;stroke:#000000;stroke-linecap:round;stroke-opacity:0.9;stroke-width:0.4;"/>
   </g>
   <g id="patch_7">
    <path clip-path="url(#p6a1fd5eb7e)" d="M 88.589752 284.491636 
Q 142.673811 230.756507 196.75787 177.021377 
" style="fill:none;stroke:#000000;stroke-linecap:round;stroke-opacity:0.9;stroke-width:0.4;"/>
   </g>
   <g id="patch_8">
    <path clip-path="url(#p6a1fd5eb7e)" d="M 125.482314 127.16924 
Q 234.391819 127.16924 343.301323 127.16924 
" style="fill:none;stroke:#000000;stroke-linecap:round;stroke-opacity:0.9;stroke-width:0.4;"/>
   </g>
   <g id="patch_9">
    <path clip-path="url(#p6a1fd5eb7e)" d="M 125.482314 127.16924 
Q 252.846825 113.506433 380.211336 99.843626 
" style="fill:none;stroke:#000000;stroke-linecap:round;stroke-opacity:0.9;stroke-width:0.4;"/>
   </g>
   <g id="patch_10">
    <path clip-path="url(#p6a1fd5eb7e)" d="M 125.482314 221.88676 
Q 142.842129 199.60207 160.201944 177.31738 
" style="fill:none;stroke:#000000;stroke-linecap:round;stroke-opacity:0.9;stroke-width:0.4;"/>
   </g>
   <g id="patch_11">
    <path clip-path="url(#p6a1fd5eb7e)" d="M 162.374876 174.528 
Q 179.053539 174.528 195.732201 174.528 
" style="fill:none;stroke:#000000;stroke-linecap:round;stroke-opacity:0.9;stroke-width:0.4;"/>
   </g>
   <g id="patch_12">
    <path clip-path="url(#p6a1fd5eb7e)" d="M 199.267438 174.528 
Q 215.946101 174.528 232.624763 174.528 
" style="fill:none;stroke:#000000;stroke-linecap:round;stroke-opacity:0.9;stroke-width:0.4;"/>
   </g>
   <g id="patch_13">
    <path clip-path="url(#p6a1fd5eb7e)" d="M 236.16 174.528 
Q 252.838663 174.528 269.517325 174.528 
" style="fill:none;stroke:#000000;stroke-linecap:round;stroke-opacity:0.9;stroke-width:0.4;"/>
   </g>
   <g id="patch_14">
    <path clip-path="url(#p6a1fd5eb7e)" d="M 273.052562 174.528 
Q 289.731224 174.528 306.409887 174.528 
" style="fill:none;stroke:#000000;stroke-linecap:round;stroke-opacity:0.9;stroke-width:0.4;"/>
   </g>
   <g id="patch_15">
    <path clip-path="url(#p6a1fd5eb7e)" d="M 309.945124 174.528 
Q 327.304939 152.24331 344.664754 129.95862 
" style="fill:none;stroke:#000000;stroke-linecap:round;stroke-opacity:0.9;stroke-width:0.4;"/>
   </g>
   <g id="patch_16">
    <path clip-path="url(#p6a1fd5eb7e)" d="M 309.945124 174.528 
Q 327.304939 196.81269 344.664754 219.09738 
" style="fill:none;stroke:#000000;stroke-linecap:round;stroke-opacity:0.9;stroke-width:0.4;"/>
   </g>
   <g id="patch_17">
    <path clip-path="url(#p6a1fd5eb7e)" d="M 346.837686 127.16924 
Q 364.197501 149.45393 381.557316 171.73862 
" style="fill:none;stroke:#000000;stroke-linecap:round;stroke-opacity:0.9;stroke-width:0.4;"/>
   </g>
   <g id="patch_18">
    <path clip-path="url(#p6a1fd5eb7e)" d="M 346.837686 221.88676 
Q 363.870998 234.677293 380.90431 247.467826 
" style="fill:none;stroke:#000000;stroke-linecap:round;stroke-opacity:0.9;stroke-width:0.4;"/>
   </g>
   <g id="PathCollection_1">
    <defs>
     <path d="M 0 3.535534 
C 0.937635 3.535534 1.836992 3.163008 2.5 2.5 
C 3.163008 1.836992 3.535534 0.937635 3.535534 0 
C 3.535534 -0.937635 3.163008 -1.836992 2.5 -2.5 
C 1.836992 -3.163008 0.937635 -3.535534 0 -3.535534 
C -0.937635 -3.535534 -1.836992 -3.163008 -2.5 -2.5 
C -3.163008 -1.836992 -3.535534 -0.937635 -3.535534 0 
C -3.535534 0.937635 -3.163008 1.836992 -2.5 2.5 
C -1.836992 3.163008 -0.937635 3.535534 0 3.535534 
z
" id="C0_0_a444875c13"/>
    </defs>
    <g clip-path="url(#p6a1fd5eb7e)">
     <use style="fill:#fdb462;fill-opacity:0.9;" x="88.589752" xlink:href="#C0_0_a444875c13" y="64.564364"/>
    </g>
    <g clip-path="url(#p6a1fd5eb7e)">
     <use style="fill:#fdb462;fill-opacity:0.9;" x="88.589752" xlink:href="#C0_0_a444875c13" y="119.546182"/>
    </g>
    <g clip-path="url(#p6a1fd5eb7e)">
     <use style="fill:#fdb462;fill-opacity:0.9;" x="88.589752" xlink:href="#C0_0_a444875c13" y="174.528"/>
    </g>
    <g clip-path="url(#p6a1fd5eb7e)">
     <use style="fill:#fdb462;fill-opacity:0.9;" x="88.589752" xlink:href="#C0_0_a444875c13" y="229.509818"/>
    </g>
    <g clip-path="url(#p6a1fd5eb7e)">
     <use style="fill:#ffed6f;fill-opacity:0.9;" x="88.589752" xlink:href="#C0_0_a444875c13" y="284.491636"/>
    </g>
    <g clip-path="url(#p6a1fd5eb7e)">
     <use style="fill:#80b1d3;fill-opacity:0.9;" x="125.482314" xlink:href="#C0_0_a444875c13" y="127.16924"/>
    </g>
    <g clip-path="url(#p6a1fd5eb7e)">
     <use style="fill:#80b1d3;fill-opacity:0.9;" x="125.482314" xlink:href="#C0_0_a444875c13" y="221.88676"/>
    </g>
    <g clip-path="url(#p6a1fd5eb7e)">
     <use style="fill:#80b1d3;fill-opacity:0.9;" x="162.374876" xlink:href="#C0_0_a444875c13" y="174.528"/>
    </g>
    <g clip-path="url(#p6a1fd5eb7e)">
     <use style="fill:#80b1d3;fill-opacity:0.9;" x="199.267438" xlink:href="#C0_0_a444875c13" y="174.528"/>
    </g>
    <g clip-path="url(#p6a1fd5eb7e)">
     <use style="fill:#80b1d3;fill-opacity:0.9;" x="236.16" xlink:href="#C0_0_a444875c13" y="174.528"/>
    </g>
    <g clip-path="url(#p6a1fd5eb7e)">
     <use style="fill:#80b1d3;fill-opacity:0.9;" x="273.052562" xlink:href="#C0_0_a444875c13" y="174.528"/>
    </g>
    <g clip-path="url(#p6a1fd5eb7e)">
     <use style="fill:#80b1d3;fill-opacity:0.9;" x="309.945124" xlink:href="#C0_0_a444875c13" y="174.528"/>
    </g>
    <g clip-path="url(#p6a1fd5eb7e)">
     <use style="fill:#80b1d3;fill-opacity:0.9;" x="346.837686" xlink:href="#C0_0_a444875c13" y="127.16924"/>
    </g>
    <g clip-path="url(#p6a1fd5eb7e)">
     <use style="fill:#80b1d3;fill-opacity:0.9;" x="346.837686" xlink:href="#C0_0_a444875c13" y="221.88676"/>
    </g>
    <g clip-path="url(#p6a1fd5eb7e)">
     <use style="fill:#b3de69;fill-opacity:0.9;" x="383.730248" xlink:href="#C0_0_a444875c13" y="99.466141"/>
    </g>
    <g clip-path="url(#p6a1fd5eb7e)">
     <use style="fill:#b3de69;fill-opacity:0.9;" x="383.730248" xlink:href="#C0_0_a444875c13" y="174.528"/>
    </g>
    <g clip-path="url(#p6a1fd5eb7e)">
     <use style="fill:#b3de69;fill-opacity:0.9;" x="383.730248" xlink:href="#C0_0_a444875c13" y="249.589859"/>
    </g>
   </g>
  </g>
 </g>
 <defs>
  <clipPath id="p6a1fd5eb7e">
   <rect height="266.112" width="357.12" x="57.6" y="41.472"/>
  </clipPath>
 </defs>
</svg>
