<?xml version="1.0" encoding="utf-8" standalone="no"?>
<!DOCTYPE svg PUBLIC "-//W3C//DTD SVG 1.1//EN"
  "http://www.w3.org/Graphics/SVG/1.1/DTD/svg11.dtd">
<!-- Created with matplotlib (https://matplotlib.org/) -->
<svg height="345.6pt" version="1.1" viewBox="0 0 460.8 345.6" width="460.8pt" xmlns="http://www.w3.org/2000/svg" xmlns:xlink="http://www.w3.org/1999/xlink">
 <defs>
  <style type="text/css">
*{stroke-linecap:butt;stroke-linejoin:round;}
  </style>
 </defs>
 <g id="figure_1">
  <g id="patch_1">
   <path d="M 0 345.6 
L 460.8 345.6 
L 460.8 0 
L 0 0 
z
" style="fill:#ffffff;"/>
  </g>
  <g id="axes_1">
   <g id="patch_2">
    <path clip-path="url(#p2ae5062e9a)" d="M 88.589752 64.564364 
Q 136.601422 118.229021 184.613093 171.893678 
" style="fill:none;stroke:#000000;stroke-linecap:round;stroke-opacity:0.9;stroke-width:0.4;"/>
   </g>
   <g id="patch_3">
    <path clip-path="url(#p2ae5062e9a)" d="M 88.589752 174.528 
Q 111.910307 196.980342 135.230861 219.432684 
" style="fill:none;stroke:#000000;stroke-linecap:round;stroke-opacity:0.9;stroke-width:0.4;"/>
   </g>
   <g id="patch_4">
    <path clip-path="url(#p2ae5062e9a)" d="M 88.589752 229.509818 
Q 112.41845 179.933916 136.247148 130.358013 
" style="fill:none;stroke:#000000;stroke-linecap:round;stroke-opacity:0.9;stroke-width:0.4;"/>
   </g>
   <g id="patch_5">
    <path clip-path="url(#p2ae5062e9a)" d="M 88.589752 229.509818 
Q 234.423906 202.342327 380.25806 175.174835 
" style="fill:none;stroke:#000000;stroke-linecap:round;stroke-opacity:0.9;stroke-width:0.4;"/>
   </g>
   <g id="patch_6">
    <path clip-path="url(#p2ae5062e9a)" d="M 88.589752 229.509818 
Q 234.396885 239.429884 380.204018 249.34995 
" style="fill:none;stroke:#000000;stroke-linecap:round;stroke-opacity:0.9;stroke-width:0.4;"/>
   </g>
   <g id="patch_7">
    <path clip-path="url(#p2ae5062e9a)" d="M 88.589752 284.491636 
Q 136.601422 230.826979 184.613093 177.162322 
" style="fill:none;stroke:#000000;stroke-linecap:round;stroke-opacity:0.9;stroke-width:0.4;"/>
   </g>
   <g id="patch_8">
    <path clip-path="url(#p2ae5062e9a)" d="M 137.779835 127.16924 
Q 234.567267 173.761282 331.354699 220.353324 
" style="fill:none;stroke:#000000;stroke-linecap:round;stroke-opacity:0.9;stroke-width:0.4;"/>
   </g>
   <g id="patch_9">
    <path clip-path="url(#p2ae5062e9a)" d="M 137.779835 127.16924 
Q 258.996805 113.515732 380.213776 99.862225 
" style="fill:none;stroke:#000000;stroke-linecap:round;stroke-opacity:0.9;stroke-width:0.4;"/>
   </g>
   <g id="patch_10">
    <path clip-path="url(#p2ae5062e9a)" d="M 137.779835 221.88676 
Q 161.100389 199.434418 184.420944 176.982076 
" style="fill:none;stroke:#000000;stroke-linecap:round;stroke-opacity:0.9;stroke-width:0.4;"/>
   </g>
   <g id="patch_11">
    <path clip-path="url(#p2ae5062e9a)" d="M 186.969917 174.528 
Q 209.798091 174.528 232.626264 174.528 
" style="fill:none;stroke:#000000;stroke-linecap:round;stroke-opacity:0.9;stroke-width:0.4;"/>
   </g>
   <g id="patch_12">
    <path clip-path="url(#p2ae5062e9a)" d="M 236.16 174.528 
Q 258.988173 174.528 281.816347 174.528 
" style="fill:none;stroke:#000000;stroke-linecap:round;stroke-opacity:0.9;stroke-width:0.4;"/>
   </g>
   <g id="patch_13">
    <path clip-path="url(#p2ae5062e9a)" d="M 285.350083 174.528 
Q 308.670637 196.980342 331.991192 219.432684 
" style="fill:none;stroke:#000000;stroke-linecap:round;stroke-opacity:0.9;stroke-width:0.4;"/>
   </g>
   <g id="patch_14">
    <path clip-path="url(#p2ae5062e9a)" d="M 285.350083 174.528 
Q 308.670637 152.075658 331.991192 129.623316 
" style="fill:none;stroke:#000000;stroke-linecap:round;stroke-opacity:0.9;stroke-width:0.4;"/>
   </g>
   <g id="patch_15">
    <path clip-path="url(#p2ae5062e9a)" d="M 334.540165 221.88676 
Q 357.86072 199.434418 381.181275 176.982076 
" style="fill:none;stroke:#000000;stroke-linecap:round;stroke-opacity:0.9;stroke-width:0.4;"/>
   </g>
   <g id="patch_16">
    <path clip-path="url(#p2ae5062e9a)" d="M 334.540165 127.16924 
Q 357.593513 114.185948 380.646861 101.202657 
" style="fill:none;stroke:#000000;stroke-linecap:round;stroke-opacity:0.9;stroke-width:0.4;"/>
   </g>
   <g id="patch_17">
    <path clip-path="url(#p2ae5062e9a)" d="M 334.540165 127.16924 
Q 358.475446 186.737586 382.410726 246.305932 
" style="fill:none;stroke:#000000;stroke-linecap:round;stroke-opacity:0.9;stroke-width:0.4;"/>
   </g>
   <g id="PathCollection_1">
    <defs>
     <path d="M 0 3.535534 
C 0.937635 3.535534 1.836992 3.163008 2.5 2.5 
C 3.163008 1.836992 3.535534 0.937635 3.535534 0 
C 3.535534 -0.937635 3.163008 -1.836992 2.5 -2.5 
C 1.836992 -3.163008 0.937635 -3.535534 0 -3.535534 
C -0.937635 -3.535534 -1.836992 -3.163008 -2.5 -2.5 
C -3.163008 -1.836992 -3.535534 -0.937635 -3.535534 0 
C -3.535534 0.937635 -3.163008 1.836992 -2.5 2.5 
C -1.836992 3.163008 -0.937635 3.535534 0 3.535534 
z
" id="C0_0_63063f4948"/>
    </defs>
    <g clip-path="url(#p2ae5062e9a)">
     <use style="fill:#fdb462;fill-opacity:0.9;" x="88.589752" xlink:href="#C0_0_63063f4948" y="64.564364"/>
    </g>
    <g clip-path="url(#p2ae5062e9a)">
     <use style="fill:#fdb462;fill-opacity:0.9;" x="88.589752" xlink:href="#C0_0_63063f4948" y="119.546182"/>
    </g>
    <g clip-path="url(#p2ae5062e9a)">
     <use style="fill:#fdb462;fill-opacity:0.9;" x="88.589752" xlink:href="#C0_0_63063f4948" y="174.528"/>
    </g>
    <g clip-path="url(#p2ae5062e9a)">
     <use style="fill:#fdb462;fill-opacity:0.9;" x="88.589752" xlink:href="#C0_0_63063f4948" y="229.509818"/>
    </g>
    <g clip-path="url(#p2ae5062e9a)">
     <use style="fill:#ffed6f;fill-opacity:0.9;" x="88.589752" xlink:href="#C0_0_63063f4948" y="284.491636"/>
    </g>
    <g clip-path="url(#p2ae5062e9a)">
     <use style="fill:#80b1d3;fill-opacity:0.9;" x="137.779835" xlink:href="#C0_0_63063f4948" y="127.16924"/>
    </g>
    <g clip-path="url(#p2ae5062e9a)">
     <use style="fill:#80b1d3;fill-opacity:0.9;" x="137.779835" xlink:href="#C0_0_63063f4948" y="221.88676"/>
    </g>
    <g clip-path="url(#p2ae5062e9a)">
     <use style="fill:#80b1d3;fill-opacity:0.9;" x="186.969917" xlink:href="#C0_0_63063f4948" y="174.528"/>
    </g>
    <g clip-path="url(#p2ae5062e9a)">
     <use style="fill:#80b1d3;fill-opacity:0.9;" x="236.16" xlink:href="#C0_0_63063f4948" y="174.528"/>
    </g>
    <g clip-path="url(#p2ae5062e9a)">
     <use style="fill:#80b1d3;fill-opacity:0.9;" x="285.350083" xlink:href="#C0_0_63063f4948" y="174.528"/>
    </g>
    <g clip-path="url(#p2ae5062e9a)">
     <use style="fill:#80b1d3;fill-opacity:0.9;" x="334.540165" xlink:href="#C0_0_63063f4948" y="221.88676"/>
    </g>
    <g clip-path="url(#p2ae5062e9a)">
     <use style="fill:#80b1d3;fill-opacity:0.9;" x="334.540165" xlink:href="#C0_0_63063f4948" y="127.16924"/>
    </g>
    <g clip-path="url(#p2ae5062e9a)">
     <use style="fill:#b3de69;fill-opacity:0.9;" x="383.730248" xlink:href="#C0_0_63063f4948" y="99.466141"/>
    </g>
    <g clip-path="url(#p2ae5062e9a)">
     <use style="fill:#b3de69;fill-opacity:0.9;" x="383.730248" xlink:href="#C0_0_63063f4948" y="174.528"/>
    </g>
    <g clip-path="url(#p2ae5062e9a)">
     <use style="fill:#b3de69;fill-opacity:0.9;" x="383.730248" xlink:href="#C0_0_63063f4948" y="249.589859"/>
    </g>
   </g>
  </g>
 </g>
 <defs>
  <clipPath id="p2ae5062e9a">
   <rect height="266.112" width="357.12" x="57.6" y="41.472"/>
  </clipPath>
 </defs>
</svg>
