<?xml version="1.0" encoding="utf-8" standalone="no"?>
<!DOCTYPE svg PUBLIC "-//W3C//DTD SVG 1.1//EN"
  "http://www.w3.org/Graphics/SVG/1.1/DTD/svg11.dtd">
<!-- Created with matplotlib (https://matplotlib.org/) -->
<svg height="345.6pt" version="1.1" viewBox="0 0 460.8 345.6" width="460.8pt" xmlns="http://www.w3.org/2000/svg" xmlns:xlink="http://www.w3.org/1999/xlink">
 <defs>
  <style type="text/css">
*{stroke-linecap:butt;stroke-linejoin:round;}
  </style>
 </defs>
 <g id="figure_1">
  <g id="patch_1">
   <path d="M 0 345.6 
L 460.8 345.6 
L 460.8 0 
L 0 0 
z
" style="fill:#ffffff;"/>
  </g>
  <g id="axes_1">
   <g id="patch_2">
    <path d="M 57.6 307.584 
L 414.72 307.584 
L 414.72 41.472 
L 57.6 41.472 
z
" style="fill:#ffffff;"/>
   </g>
   <g id="PolyCollection_1">
    <path clip-path="url(#p8574482a82)" d="M 73.832727 289.953243 
L 73.832727 291.248555 
L 75.464157 291.248555 
L 77.095587 291.248555 
L 78.727017 291.248555 
L 80.358447 291.248555 
L 81.989877 291.248555 
L 83.621307 291.248555 
L 85.252736 291.248555 
L 86.884166 291.248555 
L 88.515596 291.248555 
L 90.147026 291.248555 
L 91.778456 291.248555 
L 93.409886 291.248555 
L 95.041316 291.248555 
L 96.672746 291.248555 
L 98.304175 291.248555 
L 99.935605 291.248555 
L 101.567035 291.248555 
L 103.198465 291.248555 
L 104.829895 291.248555 
L 106.461325 291.248555 
L 108.092755 291.248555 
L 109.724185 291.248555 
L 111.355614 291.248555 
L 112.987044 291.248555 
L 114.618474 291.248555 
L 116.249904 291.248555 
L 117.881334 291.248555 
L 119.512764 291.248555 
L 121.144194 291.248555 
L 122.775624 291.248555 
L 124.407053 291.248555 
L 126.038483 291.248555 
L 127.669913 291.248555 
L 129.301343 291.248555 
L 130.932773 291.248555 
L 132.564203 291.248555 
L 134.195633 291.248555 
L 135.827063 291.248555 
L 137.458492 291.248555 
L 139.089922 291.248555 
L 140.721352 291.248555 
L 142.352782 291.248555 
L 143.984212 291.248555 
L 145.615642 291.248555 
L 147.247072 291.248555 
L 148.878502 291.248555 
L 150.509931 291.248555 
L 152.141361 291.248555 
L 153.772791 291.248555 
L 155.404221 291.248555 
L 157.035651 291.248555 
L 158.667081 291.248555 
L 160.298511 291.248555 
L 161.929941 291.248555 
L 163.56137 291.248555 
L 165.1928 291.248555 
L 166.82423 291.248555 
L 168.45566 291.248555 
L 170.08709 291.248555 
L 171.71852 291.248555 
L 173.34995 291.248555 
L 174.98138 291.248555 
L 176.61281 291.248555 
L 178.244239 291.248555 
L 179.875669 291.248555 
L 181.507099 291.248555 
L 183.138529 291.248555 
L 184.769959 291.248555 
L 186.401389 291.248555 
L 188.032819 291.248555 
L 189.664249 291.248555 
L 191.295678 291.248555 
L 192.927108 291.248555 
L 194.558538 291.248555 
L 196.189968 291.248555 
L 197.821398 291.248555 
L 199.452828 291.248555 
L 201.084258 291.248555 
L 202.715688 291.248555 
L 204.347117 291.248555 
L 205.978547 291.248555 
L 207.609977 291.248555 
L 209.241407 291.248555 
L 210.872837 291.248555 
L 212.504267 291.248555 
L 214.135697 291.248555 
L 215.767127 291.248555 
L 217.398556 291.248555 
L 219.029986 291.248555 
L 220.661416 291.248555 
L 222.292846 291.248555 
L 223.924276 291.248555 
L 225.555706 291.248555 
L 227.187136 291.248555 
L 228.818566 291.248555 
L 230.449995 291.248555 
L 232.081425 291.248555 
L 233.712855 291.248555 
L 235.344285 291.248555 
L 236.975715 291.248555 
L 238.607145 291.248555 
L 240.238575 291.248555 
L 241.870005 291.248555 
L 243.501434 291.248555 
L 245.132864 291.248555 
L 246.764294 291.248555 
L 248.395724 291.248555 
L 250.027154 291.248555 
L 251.658584 291.248555 
L 253.290014 291.248555 
L 254.921444 291.248555 
L 256.552873 291.248555 
L 258.184303 291.248555 
L 259.815733 291.248555 
L 261.447163 291.248555 
L 263.078593 291.248555 
L 264.710023 291.248555 
L 266.341453 291.248555 
L 267.972883 291.248555 
L 269.604312 291.248555 
L 271.235742 291.248555 
L 272.867172 291.171775 
L 274.498602 291.248555 
L 276.130032 291.386779 
L 277.761462 291.387043 
L 279.392892 291.432693 
L 281.024322 291.411342 
L 282.655751 291.349263 
L 284.287181 291.313322 
L 285.918611 291.434801 
L 287.550041 291.404617 
L 289.181471 291.471698 
L 290.812901 291.562371 
L 292.444331 291.571962 
L 294.075761 291.438173 
L 295.70719 291.463559 
L 297.33862 291.51162 
L 298.97005 291.583018 
L 300.60148 291.444278 
L 302.23291 291.344015 
L 303.86434 291.401215 
L 305.49577 291.498374 
L 307.1272 291.552275 
L 308.75863 291.537839 
L 310.390059 291.253417 
L 312.021489 291.41524 
L 313.652919 291.074387 
L 315.284349 291.456627 
L 316.915779 291.078297 
L 318.547209 291.402635 
L 320.178639 291.473783 
L 321.810069 291.464275 
L 323.441498 291.256572 
L 325.072928 292.317886 
L 326.704358 291.256759 
L 328.335788 291.248558 
L 329.967218 291.422137 
L 331.598648 291.411104 
L 333.230078 291.556861 
L 334.861508 291.271948 
L 336.492937 291.357391 
L 338.124367 291.35877 
L 339.755797 290.905369 
L 341.387227 290.998656 
L 343.018657 291.126208 
L 344.650087 291.483563 
L 346.281517 291.196185 
L 347.912947 291.262583 
L 349.544376 291.232104 
L 351.175806 291.541884 
L 352.807236 291.377182 
L 354.438666 291.383066 
L 356.070096 291.355163 
L 357.701526 291.183846 
L 359.332956 290.392779 
L 360.964386 291.113132 
L 362.595815 291.393569 
L 364.227245 291.76526 
L 365.858675 291.608513 
L 367.490105 291.248555 
L 369.121535 291.281924 
L 370.752965 292.45413 
L 372.384395 288.63352 
L 374.015825 291.648875 
L 375.647254 291.407926 
L 377.278684 291.399797 
L 378.910114 291.36755 
L 380.541544 291.440205 
L 382.172974 291.298479 
L 383.804404 291.508722 
L 385.435834 291.453955 
L 387.067264 291.355062 
L 388.698693 291.300771 
L 390.330123 291.748583 
L 391.961553 291.233486 
L 393.592983 291.380386 
L 395.224413 291.418178 
L 396.855843 291.421109 
L 398.487273 291.411837 
L 398.487273 252.227164 
L 398.487273 252.227164 
L 396.855843 257.158799 
L 395.224413 257.748058 
L 393.592983 289.244471 
L 391.961553 255.988269 
L 390.330123 261.220647 
L 388.698693 266.246887 
L 387.067264 247.964421 
L 385.435834 282.110056 
L 383.804404 237.512401 
L 382.172974 243.426098 
L 380.541544 253.075212 
L 378.910114 256.418345 
L 377.278684 254.634345 
L 375.647254 252.754643 
L 374.015825 276.858088 
L 372.384395 278.387735 
L 370.752965 274.583598 
L 369.121535 257.681371 
L 367.490105 263.881113 
L 365.858675 260.864229 
L 364.227245 263.94974 
L 362.595815 284.830058 
L 360.964386 275.029307 
L 359.332956 262.208622 
L 357.701526 259.392338 
L 356.070096 276.899569 
L 354.438666 250.294801 
L 352.807236 250.00174 
L 351.175806 244.621562 
L 349.544376 263.550378 
L 347.912947 261.413865 
L 346.281517 256.966113 
L 344.650087 274.292244 
L 343.018657 259.526152 
L 341.387227 235.633852 
L 339.755797 253.545034 
L 338.124367 272.274704 
L 336.492937 254.481933 
L 334.861508 254.301519 
L 333.230078 266.393118 
L 331.598648 280.199947 
L 329.967218 261.278189 
L 328.335788 247.961148 
L 326.704358 232.774456 
L 325.072928 267.778811 
L 323.441498 244.228746 
L 321.810069 266.828196 
L 320.178639 264.162684 
L 318.547209 247.721323 
L 316.915779 251.960614 
L 315.284349 264.494099 
L 313.652919 246.143151 
L 312.021489 242.819538 
L 310.390059 229.305498 
L 308.75863 275.752044 
L 307.1272 267.888961 
L 305.49577 261.857809 
L 303.86434 244.881715 
L 302.23291 290.322048 
L 300.60148 290.434524 
L 298.97005 271.282447 
L 297.33862 265.255862 
L 295.70719 255.366581 
L 294.075761 258.321407 
L 292.444331 260.888169 
L 290.812901 290.200203 
L 289.181471 263.249908 
L 287.550041 249.210318 
L 285.918611 288.767395 
L 284.287181 290.329737 
L 282.655751 289.982924 
L 281.024322 289.914526 
L 279.392892 290.178543 
L 277.761462 280.681394 
L 276.130032 254.222393 
L 274.498602 289.953243 
L 272.867172 253.076124 
L 271.235742 281.831489 
L 269.604312 289.953243 
L 267.972883 289.953243 
L 266.341453 257.973792 
L 264.710023 252.761407 
L 263.078593 274.873585 
L 261.447163 250.976998 
L 259.815733 227.017292 
L 258.184303 289.953243 
L 256.552873 289.953243 
L 254.921444 289.953243 
L 253.290014 289.953243 
L 251.658584 289.953243 
L 250.027154 289.953243 
L 248.395724 289.953243 
L 246.764294 289.953243 
L 245.132864 289.953243 
L 243.501434 289.953243 
L 241.870005 289.953243 
L 240.238575 289.953243 
L 238.607145 289.953243 
L 236.975715 289.953243 
L 235.344285 289.953243 
L 233.712855 289.953243 
L 232.081425 289.953383 
L 230.449995 289.953243 
L 228.818566 289.953243 
L 227.187136 289.953243 
L 225.555706 289.953243 
L 223.924276 289.953243 
L 222.292846 289.953243 
L 220.661416 289.953243 
L 219.029986 289.953243 
L 217.398556 289.953243 
L 215.767127 289.953243 
L 214.135697 289.953243 
L 212.504267 289.953243 
L 210.872837 289.953243 
L 209.241407 290.688173 
L 207.609977 289.953243 
L 205.978547 289.953243 
L 204.347117 289.953243 
L 202.715688 290.933149 
L 201.084258 289.953243 
L 199.452828 289.953243 
L 197.821398 289.953243 
L 196.189968 289.953243 
L 194.558538 289.953243 
L 192.927108 289.953243 
L 191.295678 289.953243 
L 189.664249 289.953243 
L 188.032819 289.953243 
L 186.401389 289.953243 
L 184.769959 289.953243 
L 183.138529 289.953243 
L 181.507099 289.953243 
L 179.875669 289.953243 
L 178.244239 289.953243 
L 176.61281 289.953243 
L 174.98138 289.953243 
L 173.34995 289.953243 
L 171.71852 289.953243 
L 170.08709 289.953243 
L 168.45566 289.953243 
L 166.82423 289.953243 
L 165.1928 289.953243 
L 163.56137 289.953243 
L 161.929941 289.953243 
L 160.298511 289.953243 
L 158.667081 289.953243 
L 157.035651 289.953243 
L 155.404221 290.933149 
L 153.772791 289.953243 
L 152.141361 290.933149 
L 150.509931 289.953243 
L 148.878502 289.953243 
L 147.247072 289.953243 
L 145.615642 289.953243 
L 143.984212 289.953243 
L 142.352782 289.953243 
L 140.721352 289.953243 
L 139.089922 289.953243 
L 137.458492 289.953243 
L 135.827063 289.953243 
L 134.195633 290.688173 
L 132.564203 289.953243 
L 130.932773 290.933149 
L 129.301343 289.953243 
L 127.669913 289.953243 
L 126.038483 289.953243 
L 124.407053 289.953243 
L 122.775624 289.953243 
L 121.144194 289.953243 
L 119.512764 289.953243 
L 117.881334 289.953243 
L 116.249904 289.953243 
L 114.618474 289.953243 
L 112.987044 289.953243 
L 111.355614 289.953243 
L 109.724185 289.953243 
L 108.092755 289.953243 
L 106.461325 289.953243 
L 104.829895 289.953243 
L 103.198465 289.953243 
L 101.567035 289.953243 
L 99.935605 289.953243 
L 98.304175 289.953243 
L 96.672746 289.953243 
L 95.041316 289.953243 
L 93.409886 289.953243 
L 91.778456 289.953243 
L 90.147026 289.953243 
L 88.515596 290.933149 
L 86.884166 289.953243 
L 85.252736 289.953243 
L 83.621307 289.953243 
L 81.989877 289.953243 
L 80.358447 289.953243 
L 78.727017 290.688173 
L 77.095587 289.953243 
L 75.464157 289.953243 
L 73.832727 289.953243 
z
" style="fill:#1f77b4;fill-opacity:0.2;"/>
   </g>
   <g id="PolyCollection_2">
    <path clip-path="url(#p8574482a82)" d="M 73.832727 289.953243 
L 73.832727 291.248555 
L 75.464157 291.248555 
L 77.095587 291.248555 
L 78.727017 291.248555 
L 80.358447 291.248555 
L 81.989877 291.248555 
L 83.621307 291.248555 
L 85.252736 291.248555 
L 86.884166 291.248555 
L 88.515596 291.248555 
L 90.147026 291.248555 
L 91.778456 291.248555 
L 93.409886 291.248555 
L 95.041316 291.248555 
L 96.672746 291.248555 
L 98.304175 291.248555 
L 99.935605 291.248555 
L 101.567035 291.248555 
L 103.198465 291.248555 
L 104.829895 291.248555 
L 106.461325 291.248555 
L 108.092755 291.248555 
L 109.724185 291.248555 
L 111.355614 291.248555 
L 112.987044 291.248555 
L 114.618474 291.248555 
L 116.249904 291.248555 
L 117.881334 291.248555 
L 119.512764 291.248555 
L 121.144194 291.248555 
L 122.775624 291.248555 
L 124.407053 291.248555 
L 126.038483 291.248555 
L 127.669913 291.248555 
L 129.301343 291.248555 
L 130.932773 291.248555 
L 132.564203 291.248555 
L 134.195633 291.248555 
L 135.827063 291.248555 
L 137.458492 291.248555 
L 139.089922 291.248555 
L 140.721352 291.248555 
L 142.352782 291.248555 
L 143.984212 291.248555 
L 145.615642 291.248555 
L 147.247072 291.248555 
L 148.878502 291.248555 
L 150.509931 291.248555 
L 152.141361 291.248555 
L 153.772791 291.248555 
L 155.404221 291.248555 
L 157.035651 291.248555 
L 158.667081 291.248555 
L 160.298511 291.248555 
L 161.929941 291.248555 
L 163.56137 291.248555 
L 165.1928 291.248555 
L 166.82423 291.248555 
L 168.45566 291.248555 
L 170.08709 291.248555 
L 171.71852 291.248555 
L 173.34995 291.248555 
L 174.98138 291.248555 
L 176.61281 291.248555 
L 178.244239 291.248555 
L 179.875669 291.248555 
L 181.507099 291.248555 
L 183.138529 291.248555 
L 184.769959 291.248555 
L 186.401389 291.248555 
L 188.032819 291.248555 
L 189.664249 291.248555 
L 191.295678 291.248555 
L 192.927108 291.248555 
L 194.558538 291.248555 
L 196.189968 291.248555 
L 197.821398 291.248555 
L 199.452828 291.248555 
L 201.084258 291.248555 
L 202.715688 291.248555 
L 204.347117 291.248555 
L 205.978547 291.248555 
L 207.609977 291.248555 
L 209.241407 291.248555 
L 210.872837 291.248555 
L 212.504267 291.248555 
L 214.135697 291.248555 
L 215.767127 291.248555 
L 217.398556 291.248555 
L 219.029986 291.248555 
L 220.661416 291.248555 
L 222.292846 291.248555 
L 223.924276 291.248555 
L 225.555706 291.248555 
L 227.187136 291.248555 
L 228.818566 291.248555 
L 230.449995 291.248555 
L 232.081425 291.248555 
L 233.712855 291.248555 
L 235.344285 291.248555 
L 236.975715 291.248555 
L 238.607145 291.248555 
L 240.238575 291.248555 
L 241.870005 291.248555 
L 243.501434 291.248555 
L 245.132864 291.248555 
L 246.764294 291.248555 
L 248.395724 291.248555 
L 250.027154 291.248555 
L 251.658584 291.248555 
L 253.290014 291.248555 
L 254.921444 291.248555 
L 256.552873 291.248555 
L 258.184303 291.248555 
L 259.815733 291.248555 
L 261.447163 291.248555 
L 263.078593 291.248555 
L 264.710023 291.248555 
L 266.341453 291.248555 
L 267.972883 291.248555 
L 269.604312 291.248555 
L 271.235742 291.248555 
L 272.867172 291.419368 
L 274.498602 291.441312 
L 276.130032 291.438717 
L 277.761462 291.436407 
L 279.392892 291.4396 
L 281.024322 291.457812 
L 282.655751 291.570104 
L 284.287181 291.81613 
L 285.918611 292.254001 
L 287.550041 292.251291 
L 289.181471 292.23471 
L 290.812901 292.410789 
L 292.444331 292.197996 
L 294.075761 292.606413 
L 295.70719 292.283501 
L 297.33862 292.38954 
L 298.97005 292.588688 
L 300.60148 292.540361 
L 302.23291 292.84871 
L 303.86434 292.765825 
L 305.49577 292.603608 
L 307.1272 292.579641 
L 308.75863 292.561828 
L 310.390059 293.024851 
L 312.021489 292.759321 
L 313.652919 292.769882 
L 315.284349 292.617054 
L 316.915779 292.692365 
L 318.547209 292.760301 
L 320.178639 292.706262 
L 321.810069 292.688587 
L 323.441498 292.742711 
L 325.072928 292.675434 
L 326.704358 292.987275 
L 328.335788 293.775788 
L 329.967218 293.630586 
L 331.598648 292.731453 
L 333.230078 292.707377 
L 334.861508 293.097976 
L 336.492937 292.749989 
L 338.124367 291.97571 
L 339.755797 291.888851 
L 341.387227 291.398073 
L 343.018657 291.429148 
L 344.650087 293.293086 
L 346.281517 291.421546 
L 347.912947 291.72617 
L 349.544376 291.728345 
L 351.175806 291.775262 
L 352.807236 291.907881 
L 354.438666 293.785084 
L 356.070096 291.994479 
L 357.701526 292.228389 
L 359.332956 291.432191 
L 360.964386 291.997944 
L 362.595815 291.973277 
L 364.227245 292.713941 
L 365.858675 295.040154 
L 367.490105 292.599152 
L 369.121535 292.552202 
L 370.752965 294.825124 
L 372.384395 292.478876 
L 374.015825 295.488 
L 375.647254 294.411198 
L 377.278684 292.75343 
L 378.910114 292.441114 
L 380.541544 292.871919 
L 382.172974 292.827605 
L 383.804404 292.935324 
L 385.435834 292.673006 
L 387.067264 294.231136 
L 388.698693 292.366194 
L 390.330123 293.015598 
L 391.961553 292.349521 
L 393.592983 292.334019 
L 395.224413 293.073301 
L 396.855843 293.463892 
L 398.487273 292.616713 
L 398.487273 77.8975 
L 398.487273 77.8975 
L 396.855843 70.276527 
L 395.224413 69.08803 
L 393.592983 76.558141 
L 391.961553 81.449722 
L 390.330123 73.593123 
L 388.698693 71.787581 
L 387.067264 78.112384 
L 385.435834 156.12538 
L 383.804404 53.568 
L 382.172974 53.568 
L 380.541544 98.333787 
L 378.910114 89.190972 
L 377.278684 87.108075 
L 375.647254 64.300114 
L 374.015825 53.568 
L 372.384395 135.277427 
L 370.752965 53.568 
L 369.121535 59.985414 
L 367.490105 78.790715 
L 365.858675 138.617233 
L 364.227245 68.757362 
L 362.595815 115.253419 
L 360.964386 81.719051 
L 359.332956 75.149048 
L 357.701526 83.481046 
L 356.070096 107.737972 
L 354.438666 57.658989 
L 352.807236 57.731367 
L 351.175806 54.162659 
L 349.544376 107.132975 
L 347.912947 100.405756 
L 346.281517 126.46499 
L 344.650087 91.180642 
L 343.018657 83.160217 
L 341.387227 62.736918 
L 339.755797 53.640931 
L 338.124367 84.125251 
L 336.492937 61.0252 
L 334.861508 87.962731 
L 333.230078 190.357507 
L 331.598648 107.010007 
L 329.967218 173.219687 
L 328.335788 76.608289 
L 326.704358 54.954413 
L 325.072928 53.568 
L 323.441498 53.568 
L 321.810069 88.679472 
L 320.178639 106.97876 
L 318.547209 55.207641 
L 316.915779 53.568 
L 315.284349 53.568 
L 313.652919 82.526928 
L 312.021489 53.568 
L 310.390059 53.568 
L 308.75863 77.315558 
L 307.1272 53.568 
L 305.49577 112.587341 
L 303.86434 90.424531 
L 302.23291 53.568 
L 300.60148 88.761395 
L 298.97005 79.328042 
L 297.33862 116.688649 
L 295.70719 106.240309 
L 294.075761 73.363624 
L 292.444331 130.513231 
L 290.812901 86.087945 
L 289.181471 95.554207 
L 287.550041 76.285158 
L 285.918611 67.482167 
L 284.287181 53.568 
L 282.655751 183.176546 
L 281.024322 84.494518 
L 279.392892 101.651402 
L 277.761462 78.878342 
L 276.130032 58.979978 
L 274.498602 199.175122 
L 272.867172 75.907607 
L 271.235742 93.997779 
L 269.604312 69.034385 
L 267.972883 84.879764 
L 266.341453 142.470196 
L 264.710023 57.426937 
L 263.078593 124.4347 
L 261.447163 83.924828 
L 259.815733 54.234217 
L 258.184303 93.834335 
L 256.552873 68.237134 
L 254.921444 53.667228 
L 253.290014 85.604485 
L 251.658584 87.223525 
L 250.027154 203.498042 
L 248.395724 246.89417 
L 246.764294 79.298056 
L 245.132864 68.497084 
L 243.501434 193.633866 
L 241.870005 142.700805 
L 240.238575 96.060749 
L 238.607145 154.697561 
L 236.975715 159.753138 
L 235.344285 53.832273 
L 233.712855 94.381214 
L 232.081425 69.311431 
L 230.449995 68.301782 
L 228.818566 53.568 
L 227.187136 232.81073 
L 225.555706 56.436975 
L 223.924276 72.787911 
L 222.292846 132.897063 
L 220.661416 57.011577 
L 219.029986 86.125926 
L 217.398556 57.978147 
L 215.767127 118.496623 
L 214.135697 125.587654 
L 212.504267 53.930363 
L 210.872837 74.055984 
L 209.241407 197.422776 
L 207.609977 71.281499 
L 205.978547 147.428017 
L 204.347117 90.434792 
L 202.715688 88.203813 
L 201.084258 95.122607 
L 199.452828 110.895896 
L 197.821398 289.953243 
L 196.189968 289.953243 
L 194.558538 289.953243 
L 192.927108 289.953243 
L 191.295678 289.953243 
L 189.664249 289.953243 
L 188.032819 289.953243 
L 186.401389 289.953243 
L 184.769959 289.953243 
L 183.138529 289.953243 
L 181.507099 289.953243 
L 179.875669 289.953243 
L 178.244239 289.953243 
L 176.61281 289.953243 
L 174.98138 289.953243 
L 173.34995 289.953243 
L 171.71852 289.953243 
L 170.08709 289.953243 
L 168.45566 289.953243 
L 166.82423 289.953243 
L 165.1928 289.953243 
L 163.56137 289.953243 
L 161.929941 289.953243 
L 160.298511 289.953243 
L 158.667081 289.953243 
L 157.035651 289.953243 
L 155.404221 289.953243 
L 153.772791 289.953243 
L 152.141361 289.953243 
L 150.509931 289.953243 
L 148.878502 289.953243 
L 147.247072 289.953243 
L 145.615642 289.953243 
L 143.984212 289.953243 
L 142.352782 289.953243 
L 140.721352 289.953243 
L 139.089922 289.953243 
L 137.458492 289.953243 
L 135.827063 289.953243 
L 134.195633 289.953243 
L 132.564203 289.953243 
L 130.932773 289.953243 
L 129.301343 289.953243 
L 127.669913 289.953243 
L 126.038483 289.953243 
L 124.407053 289.953243 
L 122.775624 289.953243 
L 121.144194 289.953243 
L 119.512764 289.953243 
L 117.881334 289.953243 
L 116.249904 289.953243 
L 114.618474 289.953243 
L 112.987044 289.953243 
L 111.355614 289.953243 
L 109.724185 289.953243 
L 108.092755 289.953243 
L 106.461325 289.953243 
L 104.829895 289.953243 
L 103.198465 289.953243 
L 101.567035 289.953243 
L 99.935605 289.953243 
L 98.304175 289.953243 
L 96.672746 289.953243 
L 95.041316 289.953243 
L 93.409886 289.953243 
L 91.778456 289.953243 
L 90.147026 289.953243 
L 88.515596 289.953243 
L 86.884166 289.953243 
L 85.252736 289.953243 
L 83.621307 289.953243 
L 81.989877 289.953243 
L 80.358447 289.953243 
L 78.727017 289.953243 
L 77.095587 289.953243 
L 75.464157 289.953243 
L 73.832727 289.953243 
z
" style="fill:#1f77b4;fill-opacity:0.1;"/>
   </g>
   <g id="matplotlib.axis_1">
    <g id="xtick_1">
     <g id="line2d_1">
      <defs>
       <path d="M 0 0 
L 0 3.5 
" id="mc33f9badf4" style="stroke:#000000;stroke-width:0.8;"/>
      </defs>
      <g>
       <use style="stroke:#000000;stroke-width:0.8;" x="73.832727" xlink:href="#mc33f9badf4" y="307.584"/>
      </g>
     </g>
     <g id="text_1">
      <!-- 0 -->
      <defs>
       <path d="M 31.78125 66.40625 
Q 24.171875 66.40625 20.328125 58.90625 
Q 16.5 51.421875 16.5 36.375 
Q 16.5 21.390625 20.328125 13.890625 
Q 24.171875 6.390625 31.78125 6.390625 
Q 39.453125 6.390625 43.28125 13.890625 
Q 47.125 21.390625 47.125 36.375 
Q 47.125 51.421875 43.28125 58.90625 
Q 39.453125 66.40625 31.78125 66.40625 
z
M 31.78125 74.21875 
Q 44.046875 74.21875 50.515625 64.515625 
Q 56.984375 54.828125 56.984375 36.375 
Q 56.984375 17.96875 50.515625 8.265625 
Q 44.046875 -1.421875 31.78125 -1.421875 
Q 19.53125 -1.421875 13.0625 8.265625 
Q 6.59375 17.96875 6.59375 36.375 
Q 6.59375 54.828125 13.0625 64.515625 
Q 19.53125 74.21875 31.78125 74.21875 
z
" id="DejaVuSans-48"/>
      </defs>
      <g transform="translate(70.651477 322.182437)scale(0.1 -0.1)">
       <use xlink:href="#DejaVuSans-48"/>
      </g>
     </g>
    </g>
    <g id="xtick_2">
     <g id="line2d_2">
      <g>
       <use style="stroke:#000000;stroke-width:0.8;" x="114.618474" xlink:href="#mc33f9badf4" y="307.584"/>
      </g>
     </g>
     <g id="text_2">
      <!-- 25 -->
      <defs>
       <path d="M 19.1875 8.296875 
L 53.609375 8.296875 
L 53.609375 0 
L 7.328125 0 
L 7.328125 8.296875 
Q 12.9375 14.109375 22.625 23.890625 
Q 32.328125 33.6875 34.8125 36.53125 
Q 39.546875 41.84375 41.421875 45.53125 
Q 43.3125 49.21875 43.3125 52.78125 
Q 43.3125 58.59375 39.234375 62.25 
Q 35.15625 65.921875 28.609375 65.921875 
Q 23.96875 65.921875 18.8125 64.3125 
Q 13.671875 62.703125 7.8125 59.421875 
L 7.8125 69.390625 
Q 13.765625 71.78125 18.9375 73 
Q 24.125 74.21875 28.421875 74.21875 
Q 39.75 74.21875 46.484375 68.546875 
Q 53.21875 62.890625 53.21875 53.421875 
Q 53.21875 48.921875 51.53125 44.890625 
Q 49.859375 40.875 45.40625 35.40625 
Q 44.1875 33.984375 37.640625 27.21875 
Q 31.109375 20.453125 19.1875 8.296875 
z
" id="DejaVuSans-50"/>
       <path d="M 10.796875 72.90625 
L 49.515625 72.90625 
L 49.515625 64.59375 
L 19.828125 64.59375 
L 19.828125 46.734375 
Q 21.96875 47.46875 24.109375 47.828125 
Q 26.265625 48.1875 28.421875 48.1875 
Q 40.625 48.1875 47.75 41.5 
Q 54.890625 34.8125 54.890625 23.390625 
Q 54.890625 11.625 47.5625 5.09375 
Q 40.234375 -1.421875 26.90625 -1.421875 
Q 22.3125 -1.421875 17.546875 -0.640625 
Q 12.796875 0.140625 7.71875 1.703125 
L 7.71875 11.625 
Q 12.109375 9.234375 16.796875 8.0625 
Q 21.484375 6.890625 26.703125 6.890625 
Q 35.15625 6.890625 40.078125 11.328125 
Q 45.015625 15.765625 45.015625 23.390625 
Q 45.015625 31 40.078125 35.4375 
Q 35.15625 39.890625 26.703125 39.890625 
Q 22.75 39.890625 18.8125 39.015625 
Q 14.890625 38.140625 10.796875 36.28125 
z
" id="DejaVuSans-53"/>
      </defs>
      <g transform="translate(108.255974 322.182437)scale(0.1 -0.1)">
       <use xlink:href="#DejaVuSans-50"/>
       <use x="63.623047" xlink:href="#DejaVuSans-53"/>
      </g>
     </g>
    </g>
    <g id="xtick_3">
     <g id="line2d_3">
      <g>
       <use style="stroke:#000000;stroke-width:0.8;" x="155.404221" xlink:href="#mc33f9badf4" y="307.584"/>
      </g>
     </g>
     <g id="text_3">
      <!-- 50 -->
      <g transform="translate(149.041721 322.182437)scale(0.1 -0.1)">
       <use xlink:href="#DejaVuSans-53"/>
       <use x="63.623047" xlink:href="#DejaVuSans-48"/>
      </g>
     </g>
    </g>
    <g id="xtick_4">
     <g id="line2d_4">
      <g>
       <use style="stroke:#000000;stroke-width:0.8;" x="196.189968" xlink:href="#mc33f9badf4" y="307.584"/>
      </g>
     </g>
     <g id="text_4">
      <!-- 75 -->
      <defs>
       <path d="M 8.203125 72.90625 
L 55.078125 72.90625 
L 55.078125 68.703125 
L 28.609375 0 
L 18.3125 0 
L 43.21875 64.59375 
L 8.203125 64.59375 
z
" id="DejaVuSans-55"/>
      </defs>
      <g transform="translate(189.827468 322.182437)scale(0.1 -0.1)">
       <use xlink:href="#DejaVuSans-55"/>
       <use x="63.623047" xlink:href="#DejaVuSans-53"/>
      </g>
     </g>
    </g>
    <g id="xtick_5">
     <g id="line2d_5">
      <g>
       <use style="stroke:#000000;stroke-width:0.8;" x="236.975715" xlink:href="#mc33f9badf4" y="307.584"/>
      </g>
     </g>
     <g id="text_5">
      <!-- 100 -->
      <defs>
       <path d="M 12.40625 8.296875 
L 28.515625 8.296875 
L 28.515625 63.921875 
L 10.984375 60.40625 
L 10.984375 69.390625 
L 28.421875 72.90625 
L 38.28125 72.90625 
L 38.28125 8.296875 
L 54.390625 8.296875 
L 54.390625 0 
L 12.40625 0 
z
" id="DejaVuSans-49"/>
      </defs>
      <g transform="translate(227.431965 322.182437)scale(0.1 -0.1)">
       <use xlink:href="#DejaVuSans-49"/>
       <use x="63.623047" xlink:href="#DejaVuSans-48"/>
       <use x="127.246094" xlink:href="#DejaVuSans-48"/>
      </g>
     </g>
    </g>
    <g id="xtick_6">
     <g id="line2d_6">
      <g>
       <use style="stroke:#000000;stroke-width:0.8;" x="277.761462" xlink:href="#mc33f9badf4" y="307.584"/>
      </g>
     </g>
     <g id="text_6">
      <!-- 125 -->
      <g transform="translate(268.217712 322.182437)scale(0.1 -0.1)">
       <use xlink:href="#DejaVuSans-49"/>
       <use x="63.623047" xlink:href="#DejaVuSans-50"/>
       <use x="127.246094" xlink:href="#DejaVuSans-53"/>
      </g>
     </g>
    </g>
    <g id="xtick_7">
     <g id="line2d_7">
      <g>
       <use style="stroke:#000000;stroke-width:0.8;" x="318.547209" xlink:href="#mc33f9badf4" y="307.584"/>
      </g>
     </g>
     <g id="text_7">
      <!-- 150 -->
      <g transform="translate(309.003459 322.182437)scale(0.1 -0.1)">
       <use xlink:href="#DejaVuSans-49"/>
       <use x="63.623047" xlink:href="#DejaVuSans-53"/>
       <use x="127.246094" xlink:href="#DejaVuSans-48"/>
      </g>
     </g>
    </g>
    <g id="xtick_8">
     <g id="line2d_8">
      <g>
       <use style="stroke:#000000;stroke-width:0.8;" x="359.332956" xlink:href="#mc33f9badf4" y="307.584"/>
      </g>
     </g>
     <g id="text_8">
      <!-- 175 -->
      <g transform="translate(349.789206 322.182437)scale(0.1 -0.1)">
       <use xlink:href="#DejaVuSans-49"/>
       <use x="63.623047" xlink:href="#DejaVuSans-55"/>
       <use x="127.246094" xlink:href="#DejaVuSans-53"/>
      </g>
     </g>
    </g>
    <g id="xtick_9">
     <g id="line2d_9">
      <g>
       <use style="stroke:#000000;stroke-width:0.8;" x="400.118703" xlink:href="#mc33f9badf4" y="307.584"/>
      </g>
     </g>
     <g id="text_9">
      <!-- 200 -->
      <g transform="translate(390.574953 322.182437)scale(0.1 -0.1)">
       <use xlink:href="#DejaVuSans-50"/>
       <use x="63.623047" xlink:href="#DejaVuSans-48"/>
       <use x="127.246094" xlink:href="#DejaVuSans-48"/>
      </g>
     </g>
    </g>
   </g>
   <g id="matplotlib.axis_2">
    <g id="ytick_1">
     <g id="line2d_10">
      <defs>
       <path d="M 0 0 
L -3.5 0 
" id="md19df030c9" style="stroke:#000000;stroke-width:0.8;"/>
      </defs>
      <g>
       <use style="stroke:#000000;stroke-width:0.8;" x="57.6" xlink:href="#md19df030c9" y="303.156976"/>
      </g>
     </g>
     <g id="text_10">
      <!-- 0 -->
      <g transform="translate(44.2375 306.956194)scale(0.1 -0.1)">
       <use xlink:href="#DejaVuSans-48"/>
      </g>
     </g>
    </g>
    <g id="ytick_2">
     <g id="line2d_11">
      <g>
       <use style="stroke:#000000;stroke-width:0.8;" x="57.6" xlink:href="#md19df030c9" y="248.959418"/>
      </g>
     </g>
     <g id="text_11">
      <!-- 5 -->
      <g transform="translate(44.2375 252.758637)scale(0.1 -0.1)">
       <use xlink:href="#DejaVuSans-53"/>
      </g>
     </g>
    </g>
    <g id="ytick_3">
     <g id="line2d_12">
      <g>
       <use style="stroke:#000000;stroke-width:0.8;" x="57.6" xlink:href="#md19df030c9" y="194.761861"/>
      </g>
     </g>
     <g id="text_12">
      <!-- 10 -->
      <g transform="translate(37.875 198.56108)scale(0.1 -0.1)">
       <use xlink:href="#DejaVuSans-49"/>
       <use x="63.623047" xlink:href="#DejaVuSans-48"/>
      </g>
     </g>
    </g>
    <g id="ytick_4">
     <g id="line2d_13">
      <g>
       <use style="stroke:#000000;stroke-width:0.8;" x="57.6" xlink:href="#md19df030c9" y="140.564303"/>
      </g>
     </g>
     <g id="text_13">
      <!-- 15 -->
      <g transform="translate(37.875 144.363522)scale(0.1 -0.1)">
       <use xlink:href="#DejaVuSans-49"/>
       <use x="63.623047" xlink:href="#DejaVuSans-53"/>
      </g>
     </g>
    </g>
    <g id="ytick_5">
     <g id="line2d_14">
      <g>
       <use style="stroke:#000000;stroke-width:0.8;" x="57.6" xlink:href="#md19df030c9" y="86.366746"/>
      </g>
     </g>
     <g id="text_14">
      <!-- 20 -->
      <g transform="translate(37.875 90.165965)scale(0.1 -0.1)">
       <use xlink:href="#DejaVuSans-50"/>
       <use x="63.623047" xlink:href="#DejaVuSans-48"/>
      </g>
     </g>
    </g>
   </g>
   <g id="line2d_15">
    <path clip-path="url(#p8574482a82)" d="M 73.832727 291.248555 
L 75.464157 290.933149 
L 77.095587 291.248555 
L 78.727017 291.248555 
L 80.358447 290.933149 
L 81.989877 291.248555 
L 91.778456 291.248555 
L 93.409886 290.933149 
L 95.041316 291.248555 
L 96.672746 290.933149 
L 98.304175 291.248555 
L 101.567035 291.248555 
L 103.198465 290.933149 
L 104.829895 290.933149 
L 106.461325 291.248555 
L 134.195633 291.248555 
L 135.827063 290.933149 
L 137.458492 291.248555 
L 143.984212 291.248555 
L 145.615642 291.090852 
L 147.247072 291.248555 
L 152.141361 291.248555 
L 153.772791 291.090852 
L 155.404221 291.248555 
L 163.56137 291.248555 
L 165.1928 290.933149 
L 166.82423 291.248555 
L 170.08709 291.248555 
L 171.71852 290.933149 
L 173.34995 290.933149 
L 174.98138 291.248555 
L 178.244239 291.248555 
L 179.875669 290.933149 
L 181.507099 291.248555 
L 184.769959 291.248555 
L 186.401389 290.933149 
L 188.032819 291.248555 
L 191.295678 291.248555 
L 194.558538 290.933149 
L 196.189968 291.248555 
L 197.821398 291.090852 
L 199.452828 291.248555 
L 210.872837 291.248555 
L 212.504267 290.933149 
L 214.135697 290.933149 
L 215.767127 291.248555 
L 223.924276 291.248555 
L 225.555706 290.933149 
L 227.187136 291.248555 
L 228.818566 290.933149 
L 230.449995 290.933149 
L 232.081425 291.248555 
L 233.712855 290.933149 
L 235.344285 291.248555 
L 238.607145 291.248555 
L 240.238575 290.933149 
L 241.870005 290.933149 
L 243.501434 291.248555 
L 245.132864 291.090852 
L 246.764294 291.248555 
L 248.395724 291.090852 
L 250.027154 291.090852 
L 251.658584 290.933149 
L 253.290014 291.248555 
L 254.921444 290.933149 
L 258.184303 290.933149 
L 259.815733 289.953243 
L 261.447163 290.076723 
L 263.078593 289.953243 
L 267.972883 289.953243 
L 269.604312 290.933149 
L 271.235742 290.41138 
L 272.867172 290.396164 
L 274.498602 290.933149 
L 276.130032 290.849963 
L 277.761462 291.126894 
L 279.392892 291.244509 
L 282.655751 291.075966 
L 284.287181 290.802582 
L 285.918611 291.252152 
L 287.550041 291.100543 
L 290.812901 291.433862 
L 294.075761 290.927221 
L 295.70719 291.26647 
L 302.23291 291.173364 
L 303.86434 290.82775 
L 305.49577 291.338312 
L 307.1272 291.008451 
L 308.75863 286.758814 
L 310.390059 240.972312 
L 312.021489 290.386858 
L 313.652919 254.743 
L 315.284349 290.46607 
L 316.915779 287.570713 
L 318.547209 290.386543 
L 320.178639 281.029084 
L 321.810069 291.183194 
L 323.441498 286.313862 
L 325.072928 291.456559 
L 326.704358 287.799272 
L 328.335788 260.813179 
L 329.967218 290.157672 
L 331.598648 290.408062 
L 333.230078 291.296093 
L 334.861508 290.748992 
L 336.492937 290.357089 
L 338.124367 289.07735 
L 339.755797 290.344982 
L 341.387227 290.476243 
L 343.018657 290.432959 
L 344.650087 289.931403 
L 346.281517 288.981252 
L 347.912947 289.050101 
L 349.544376 287.910402 
L 351.175806 291.188393 
L 352.807236 290.989071 
L 354.438666 291.1281 
L 356.070096 289.529173 
L 357.701526 290.130912 
L 359.332956 287.124397 
L 360.964386 289.959064 
L 362.595815 287.938427 
L 364.227245 291.254636 
L 365.858675 290.603376 
L 367.490105 289.265268 
L 369.121535 288.381822 
L 370.752965 291.248555 
L 372.384395 281.423449 
L 374.015825 291.282079 
L 375.647254 290.477977 
L 377.278684 290.866269 
L 378.910114 290.214185 
L 380.541544 284.02627 
L 382.172974 290.251066 
L 383.804404 284.967605 
L 385.435834 290.465197 
L 387.067264 290.337169 
L 388.698693 288.331599 
L 390.330123 291.224741 
L 391.961553 290.203862 
L 393.592983 290.368845 
L 395.224413 290.420478 
L 396.855843 290.28164 
L 398.487273 290.410122 
L 398.487273 290.410122 
" style="fill:none;stroke:#1f77b4;stroke-linecap:square;stroke-width:0.25;"/>
   </g>
   <g id="line2d_16">
    <path clip-path="url(#p8574482a82)" d="M 73.832727 290.744394 
L 91.778456 290.776945 
L 93.409886 290.722316 
L 95.041316 290.802852 
L 96.672746 290.653722 
L 98.304175 290.854327 
L 104.829895 290.741577 
L 109.724185 290.783253 
L 112.987044 290.763992 
L 114.618474 290.734258 
L 116.249904 290.844865 
L 153.772791 290.689091 
L 155.404221 290.884061 
L 165.1928 290.709026 
L 168.45566 290.855001 
L 174.98138 290.734595 
L 178.244239 290.821776 
L 179.875669 290.754867 
L 183.138529 290.793053 
L 186.401389 290.715334 
L 188.032819 290.714997 
L 189.664249 290.831575 
L 194.558538 290.667012 
L 196.189968 290.763992 
L 197.821398 290.747885 
L 199.452828 283.493251 
L 201.084258 284.412375 
L 202.715688 284.896158 
L 204.347117 283.732492 
L 205.978547 286.666365 
L 207.609977 278.288831 
L 209.241407 288.63996 
L 210.872837 286.077336 
L 212.504267 284.509207 
L 214.135697 284.850105 
L 215.767127 284.742677 
L 217.398556 282.264228 
L 219.029986 282.974309 
L 220.661416 282.205133 
L 222.292846 283.589975 
L 223.924276 284.591561 
L 225.555706 286.558711 
L 227.187136 289.785523 
L 228.818566 281.708802 
L 230.449995 284.835549 
L 232.081425 285.159981 
L 233.712855 278.153844 
L 235.344285 282.556679 
L 236.975715 285.520755 
L 238.607145 289.070189 
L 240.238575 288.117003 
L 241.870005 282.508241 
L 243.501434 289.285018 
L 245.132864 278.60724 
L 246.764294 284.819022 
L 248.395724 289.375677 
L 250.027154 289.022066 
L 251.658584 280.659108 
L 253.290014 280.559868 
L 254.921444 274.865189 
L 256.552873 276.454997 
L 258.184303 277.148484 
L 259.815733 254.345996 
L 261.447163 268.552687 
L 263.078593 280.201772 
L 264.710023 268.73138 
L 266.341453 269.595435 
L 267.972883 275.273306 
L 269.604312 280.525009 
L 271.235742 269.596713 
L 272.867172 266.971136 
L 274.498602 286.210083 
L 276.130032 274.594824 
L 277.761462 271.875286 
L 279.392892 279.316969 
L 281.024322 278.900389 
L 282.655751 281.814428 
L 284.287181 271.382329 
L 285.918611 277.006506 
L 287.550041 265.458437 
L 289.181471 277.771151 
L 290.812901 279.105913 
L 292.444331 274.454495 
L 294.075761 268.379305 
L 295.70719 274.221856 
L 297.33862 275.73813 
L 298.97005 277.004944 
L 300.60148 277.168755 
L 302.23291 273.450242 
L 303.86434 261.95994 
L 305.49577 275.893123 
L 307.1272 277.290267 
L 308.75863 274.644649 
L 310.390059 247.090662 
L 312.021489 260.159104 
L 313.652919 259.382682 
L 315.284349 262.338063 
L 316.915779 264.751094 
L 318.547209 260.872366 
L 320.178639 267.644095 
L 321.810069 276.362037 
L 323.441498 261.240034 
L 325.072928 270.546608 
L 326.704358 256.622121 
L 328.335788 254.349164 
L 329.967218 278.58579 
L 331.598648 273.045995 
L 333.230078 279.846133 
L 334.861508 271.022768 
L 336.492937 270.334842 
L 338.124367 271.208179 
L 339.755797 259.413052 
L 341.387227 260.80383 
L 343.018657 271.406425 
L 344.650087 273.42947 
L 346.281517 271.332232 
L 347.912947 274.945975 
L 349.544376 274.302557 
L 351.175806 262.660564 
L 352.807236 268.649812 
L 354.438666 267.015336 
L 356.070096 275.287185 
L 357.701526 270.239439 
L 359.332956 267.789086 
L 360.964386 273.714749 
L 362.595815 276.994129 
L 364.227245 272.266564 
L 365.858675 275.799823 
L 367.490105 275.124934 
L 369.121535 271.04829 
L 370.752965 268.883676 
L 372.384395 275.494745 
L 374.015825 267.395257 
L 375.647254 270.08227 
L 377.278684 267.805453 
L 378.910114 271.574846 
L 380.541544 260.521527 
L 382.172974 252.391481 
L 383.804404 247.226821 
L 385.435834 278.46753 
L 387.067264 268.541726 
L 388.698693 268.824295 
L 390.330123 271.623864 
L 391.961553 265.835866 
L 393.592983 275.048357 
L 395.224413 273.41893 
L 396.855843 269.708485 
L 398.487273 265.017389 
L 398.487273 265.017389 
" style="fill:none;stroke:#2ca02c;stroke-linecap:square;stroke-width:0.75;"/>
   </g>
   <g id="patch_3">
    <path d="M 57.6 307.584 
L 57.6 41.472 
" style="fill:none;stroke:#000000;stroke-linecap:square;stroke-linejoin:miter;stroke-width:0.8;"/>
   </g>
   <g id="patch_4">
    <path d="M 414.72 307.584 
L 414.72 41.472 
" style="fill:none;stroke:#000000;stroke-linecap:square;stroke-linejoin:miter;stroke-width:0.8;"/>
   </g>
   <g id="patch_5">
    <path d="M 57.6 307.584 
L 414.72 307.584 
" style="fill:none;stroke:#000000;stroke-linecap:square;stroke-linejoin:miter;stroke-width:0.8;"/>
   </g>
   <g id="patch_6">
    <path d="M 57.6 41.472 
L 414.72 41.472 
" style="fill:none;stroke:#000000;stroke-linecap:square;stroke-linejoin:miter;stroke-width:0.8;"/>
   </g>
   <g id="legend_1">
    <g id="patch_7">
     <path d="M 338.234063 78.82825 
L 407.72 78.82825 
Q 409.72 78.82825 409.72 76.82825 
L 409.72 48.472 
Q 409.72 46.472 407.72 46.472 
L 338.234063 46.472 
Q 336.234063 46.472 336.234063 48.472 
L 336.234063 76.82825 
Q 336.234063 78.82825 338.234063 78.82825 
z
" style="fill:#ffffff;opacity:0.8;stroke:#cccccc;stroke-linejoin:miter;"/>
    </g>
    <g id="line2d_17">
     <path d="M 340.234063 54.570437 
L 360.234063 54.570437 
" style="fill:none;stroke:#1f77b4;stroke-linecap:square;stroke-width:0.25;"/>
    </g>
    <g id="line2d_18"/>
    <g id="text_15">
     <!-- median -->
     <defs>
      <path d="M 52 44.1875 
Q 55.375 50.25 60.0625 53.125 
Q 64.75 56 71.09375 56 
Q 79.640625 56 84.28125 50.015625 
Q 88.921875 44.046875 88.921875 33.015625 
L 88.921875 0 
L 79.890625 0 
L 79.890625 32.71875 
Q 79.890625 40.578125 77.09375 44.375 
Q 74.3125 48.1875 68.609375 48.1875 
Q 61.625 48.1875 57.5625 43.546875 
Q 53.515625 38.921875 53.515625 30.90625 
L 53.515625 0 
L 44.484375 0 
L 44.484375 32.71875 
Q 44.484375 40.625 41.703125 44.40625 
Q 38.921875 48.1875 33.109375 48.1875 
Q 26.21875 48.1875 22.15625 43.53125 
Q 18.109375 38.875 18.109375 30.90625 
L 18.109375 0 
L 9.078125 0 
L 9.078125 54.6875 
L 18.109375 54.6875 
L 18.109375 46.1875 
Q 21.1875 51.21875 25.484375 53.609375 
Q 29.78125 56 35.6875 56 
Q 41.65625 56 45.828125 52.96875 
Q 50 49.953125 52 44.1875 
z
" id="DejaVuSans-109"/>
      <path d="M 56.203125 29.59375 
L 56.203125 25.203125 
L 14.890625 25.203125 
Q 15.484375 15.921875 20.484375 11.0625 
Q 25.484375 6.203125 34.421875 6.203125 
Q 39.59375 6.203125 44.453125 7.46875 
Q 49.3125 8.734375 54.109375 11.28125 
L 54.109375 2.78125 
Q 49.265625 0.734375 44.1875 -0.34375 
Q 39.109375 -1.421875 33.890625 -1.421875 
Q 20.796875 -1.421875 13.15625 6.1875 
Q 5.515625 13.8125 5.515625 26.8125 
Q 5.515625 40.234375 12.765625 48.109375 
Q 20.015625 56 32.328125 56 
Q 43.359375 56 49.78125 48.890625 
Q 56.203125 41.796875 56.203125 29.59375 
z
M 47.21875 32.234375 
Q 47.125 39.59375 43.09375 43.984375 
Q 39.0625 48.390625 32.421875 48.390625 
Q 24.90625 48.390625 20.390625 44.140625 
Q 15.875 39.890625 15.1875 32.171875 
z
" id="DejaVuSans-101"/>
      <path d="M 45.40625 46.390625 
L 45.40625 75.984375 
L 54.390625 75.984375 
L 54.390625 0 
L 45.40625 0 
L 45.40625 8.203125 
Q 42.578125 3.328125 38.25 0.953125 
Q 33.9375 -1.421875 27.875 -1.421875 
Q 17.96875 -1.421875 11.734375 6.484375 
Q 5.515625 14.40625 5.515625 27.296875 
Q 5.515625 40.1875 11.734375 48.09375 
Q 17.96875 56 27.875 56 
Q 33.9375 56 38.25 53.625 
Q 42.578125 51.265625 45.40625 46.390625 
z
M 14.796875 27.296875 
Q 14.796875 17.390625 18.875 11.75 
Q 22.953125 6.109375 30.078125 6.109375 
Q 37.203125 6.109375 41.296875 11.75 
Q 45.40625 17.390625 45.40625 27.296875 
Q 45.40625 37.203125 41.296875 42.84375 
Q 37.203125 48.484375 30.078125 48.484375 
Q 22.953125 48.484375 18.875 42.84375 
Q 14.796875 37.203125 14.796875 27.296875 
z
" id="DejaVuSans-100"/>
      <path d="M 9.421875 54.6875 
L 18.40625 54.6875 
L 18.40625 0 
L 9.421875 0 
z
M 9.421875 75.984375 
L 18.40625 75.984375 
L 18.40625 64.59375 
L 9.421875 64.59375 
z
" id="DejaVuSans-105"/>
      <path d="M 34.28125 27.484375 
Q 23.390625 27.484375 19.1875 25 
Q 14.984375 22.515625 14.984375 16.5 
Q 14.984375 11.71875 18.140625 8.90625 
Q 21.296875 6.109375 26.703125 6.109375 
Q 34.1875 6.109375 38.703125 11.40625 
Q 43.21875 16.703125 43.21875 25.484375 
L 43.21875 27.484375 
z
M 52.203125 31.203125 
L 52.203125 0 
L 43.21875 0 
L 43.21875 8.296875 
Q 40.140625 3.328125 35.546875 0.953125 
Q 30.953125 -1.421875 24.3125 -1.421875 
Q 15.921875 -1.421875 10.953125 3.296875 
Q 6 8.015625 6 15.921875 
Q 6 25.140625 12.171875 29.828125 
Q 18.359375 34.515625 30.609375 34.515625 
L 43.21875 34.515625 
L 43.21875 35.40625 
Q 43.21875 41.609375 39.140625 45 
Q 35.0625 48.390625 27.6875 48.390625 
Q 23 48.390625 18.546875 47.265625 
Q 14.109375 46.140625 10.015625 43.890625 
L 10.015625 52.203125 
Q 14.9375 54.109375 19.578125 55.046875 
Q 24.21875 56 28.609375 56 
Q 40.484375 56 46.34375 49.84375 
Q 52.203125 43.703125 52.203125 31.203125 
z
" id="DejaVuSans-97"/>
      <path d="M 54.890625 33.015625 
L 54.890625 0 
L 45.90625 0 
L 45.90625 32.71875 
Q 45.90625 40.484375 42.875 44.328125 
Q 39.84375 48.1875 33.796875 48.1875 
Q 26.515625 48.1875 22.3125 43.546875 
Q 18.109375 38.921875 18.109375 30.90625 
L 18.109375 0 
L 9.078125 0 
L 9.078125 54.6875 
L 18.109375 54.6875 
L 18.109375 46.1875 
Q 21.34375 51.125 25.703125 53.5625 
Q 30.078125 56 35.796875 56 
Q 45.21875 56 50.046875 50.171875 
Q 54.890625 44.34375 54.890625 33.015625 
z
" id="DejaVuSans-110"/>
     </defs>
     <g transform="translate(368.234063 58.070437)scale(0.1 -0.1)">
      <use xlink:href="#DejaVuSans-109"/>
      <use x="97.412109" xlink:href="#DejaVuSans-101"/>
      <use x="158.935547" xlink:href="#DejaVuSans-100"/>
      <use x="222.412109" xlink:href="#DejaVuSans-105"/>
      <use x="250.195312" xlink:href="#DejaVuSans-97"/>
      <use x="311.474609" xlink:href="#DejaVuSans-110"/>
     </g>
    </g>
    <g id="line2d_19">
     <path d="M 340.234063 69.248562 
L 360.234063 69.248562 
" style="fill:none;stroke:#2ca02c;stroke-linecap:square;stroke-width:0.75;"/>
    </g>
    <g id="line2d_20"/>
    <g id="text_16">
     <!-- mean -->
     <g transform="translate(368.234063 72.748562)scale(0.1 -0.1)">
      <use xlink:href="#DejaVuSans-109"/>
      <use x="97.412109" xlink:href="#DejaVuSans-101"/>
      <use x="158.935547" xlink:href="#DejaVuSans-97"/>
      <use x="220.214844" xlink:href="#DejaVuSans-110"/>
     </g>
    </g>
   </g>
  </g>
  <g id="text_17">
   <!-- log_loss.mean over generations -->
   <defs>
    <path d="M 9.421875 75.984375 
L 18.40625 75.984375 
L 18.40625 0 
L 9.421875 0 
z
" id="DejaVuSans-108"/>
    <path d="M 30.609375 48.390625 
Q 23.390625 48.390625 19.1875 42.75 
Q 14.984375 37.109375 14.984375 27.296875 
Q 14.984375 17.484375 19.15625 11.84375 
Q 23.34375 6.203125 30.609375 6.203125 
Q 37.796875 6.203125 41.984375 11.859375 
Q 46.1875 17.53125 46.1875 27.296875 
Q 46.1875 37.015625 41.984375 42.703125 
Q 37.796875 48.390625 30.609375 48.390625 
z
M 30.609375 56 
Q 42.328125 56 49.015625 48.375 
Q 55.71875 40.765625 55.71875 27.296875 
Q 55.71875 13.875 49.015625 6.21875 
Q 42.328125 -1.421875 30.609375 -1.421875 
Q 18.84375 -1.421875 12.171875 6.21875 
Q 5.515625 13.875 5.515625 27.296875 
Q 5.515625 40.765625 12.171875 48.375 
Q 18.84375 56 30.609375 56 
z
" id="DejaVuSans-111"/>
    <path d="M 45.40625 27.984375 
Q 45.40625 37.75 41.375 43.109375 
Q 37.359375 48.484375 30.078125 48.484375 
Q 22.859375 48.484375 18.828125 43.109375 
Q 14.796875 37.75 14.796875 27.984375 
Q 14.796875 18.265625 18.828125 12.890625 
Q 22.859375 7.515625 30.078125 7.515625 
Q 37.359375 7.515625 41.375 12.890625 
Q 45.40625 18.265625 45.40625 27.984375 
z
M 54.390625 6.78125 
Q 54.390625 -7.171875 48.1875 -13.984375 
Q 42 -20.796875 29.203125 -20.796875 
Q 24.46875 -20.796875 20.265625 -20.09375 
Q 16.0625 -19.390625 12.109375 -17.921875 
L 12.109375 -9.1875 
Q 16.0625 -11.328125 19.921875 -12.34375 
Q 23.78125 -13.375 27.78125 -13.375 
Q 36.625 -13.375 41.015625 -8.765625 
Q 45.40625 -4.15625 45.40625 5.171875 
L 45.40625 9.625 
Q 42.625 4.78125 38.28125 2.390625 
Q 33.9375 0 27.875 0 
Q 17.828125 0 11.671875 7.65625 
Q 5.515625 15.328125 5.515625 27.984375 
Q 5.515625 40.671875 11.671875 48.328125 
Q 17.828125 56 27.875 56 
Q 33.9375 56 38.28125 53.609375 
Q 42.625 51.21875 45.40625 46.390625 
L 45.40625 54.6875 
L 54.390625 54.6875 
z
" id="DejaVuSans-103"/>
    <path d="M 50.984375 -16.609375 
L 50.984375 -23.578125 
L -0.984375 -23.578125 
L -0.984375 -16.609375 
z
" id="DejaVuSans-95"/>
    <path d="M 44.28125 53.078125 
L 44.28125 44.578125 
Q 40.484375 46.53125 36.375 47.5 
Q 32.28125 48.484375 27.875 48.484375 
Q 21.1875 48.484375 17.84375 46.4375 
Q 14.5 44.390625 14.5 40.28125 
Q 14.5 37.15625 16.890625 35.375 
Q 19.28125 33.59375 26.515625 31.984375 
L 29.59375 31.296875 
Q 39.15625 29.25 43.1875 25.515625 
Q 47.21875 21.78125 47.21875 15.09375 
Q 47.21875 7.46875 41.1875 3.015625 
Q 35.15625 -1.421875 24.609375 -1.421875 
Q 20.21875 -1.421875 15.453125 -0.5625 
Q 10.6875 0.296875 5.421875 2 
L 5.421875 11.28125 
Q 10.40625 8.6875 15.234375 7.390625 
Q 20.0625 6.109375 24.8125 6.109375 
Q 31.15625 6.109375 34.5625 8.28125 
Q 37.984375 10.453125 37.984375 14.40625 
Q 37.984375 18.0625 35.515625 20.015625 
Q 33.0625 21.96875 24.703125 23.78125 
L 21.578125 24.515625 
Q 13.234375 26.265625 9.515625 29.90625 
Q 5.8125 33.546875 5.8125 39.890625 
Q 5.8125 47.609375 11.28125 51.796875 
Q 16.75 56 26.8125 56 
Q 31.78125 56 36.171875 55.265625 
Q 40.578125 54.546875 44.28125 53.078125 
z
" id="DejaVuSans-115"/>
    <path d="M 10.6875 12.40625 
L 21 12.40625 
L 21 0 
L 10.6875 0 
z
" id="DejaVuSans-46"/>
    <path id="DejaVuSans-32"/>
    <path d="M 2.984375 54.6875 
L 12.5 54.6875 
L 29.59375 8.796875 
L 46.6875 54.6875 
L 56.203125 54.6875 
L 35.6875 0 
L 23.484375 0 
z
" id="DejaVuSans-118"/>
    <path d="M 41.109375 46.296875 
Q 39.59375 47.171875 37.8125 47.578125 
Q 36.03125 48 33.890625 48 
Q 26.265625 48 22.1875 43.046875 
Q 18.109375 38.09375 18.109375 28.8125 
L 18.109375 0 
L 9.078125 0 
L 9.078125 54.6875 
L 18.109375 54.6875 
L 18.109375 46.1875 
Q 20.953125 51.171875 25.484375 53.578125 
Q 30.03125 56 36.53125 56 
Q 37.453125 56 38.578125 55.875 
Q 39.703125 55.765625 41.0625 55.515625 
z
" id="DejaVuSans-114"/>
    <path d="M 18.3125 70.21875 
L 18.3125 54.6875 
L 36.8125 54.6875 
L 36.8125 47.703125 
L 18.3125 47.703125 
L 18.3125 18.015625 
Q 18.3125 11.328125 20.140625 9.421875 
Q 21.96875 7.515625 27.59375 7.515625 
L 36.8125 7.515625 
L 36.8125 0 
L 27.59375 0 
Q 17.1875 0 13.234375 3.875 
Q 9.28125 7.765625 9.28125 18.015625 
L 9.28125 47.703125 
L 2.6875 47.703125 
L 2.6875 54.6875 
L 9.28125 54.6875 
L 9.28125 70.21875 
z
" id="DejaVuSans-116"/>
   </defs>
   <g transform="translate(134.789062 16.030125)scale(0.12 -0.12)">
    <use xlink:href="#DejaVuSans-108"/>
    <use x="27.783203" xlink:href="#DejaVuSans-111"/>
    <use x="88.964844" xlink:href="#DejaVuSans-103"/>
    <use x="152.441406" xlink:href="#DejaVuSans-95"/>
    <use x="202.441406" xlink:href="#DejaVuSans-108"/>
    <use x="230.224609" xlink:href="#DejaVuSans-111"/>
    <use x="291.40625" xlink:href="#DejaVuSans-115"/>
    <use x="343.505859" xlink:href="#DejaVuSans-115"/>
    <use x="395.605469" xlink:href="#DejaVuSans-46"/>
    <use x="427.392578" xlink:href="#DejaVuSans-109"/>
    <use x="524.804688" xlink:href="#DejaVuSans-101"/>
    <use x="586.328125" xlink:href="#DejaVuSans-97"/>
    <use x="647.607422" xlink:href="#DejaVuSans-110"/>
    <use x="710.986328" xlink:href="#DejaVuSans-32"/>
    <use x="742.773438" xlink:href="#DejaVuSans-111"/>
    <use x="803.955078" xlink:href="#DejaVuSans-118"/>
    <use x="863.134766" xlink:href="#DejaVuSans-101"/>
    <use x="924.658203" xlink:href="#DejaVuSans-114"/>
    <use x="965.771484" xlink:href="#DejaVuSans-32"/>
    <use x="997.558594" xlink:href="#DejaVuSans-103"/>
    <use x="1061.035156" xlink:href="#DejaVuSans-101"/>
    <use x="1122.558594" xlink:href="#DejaVuSans-110"/>
    <use x="1185.9375" xlink:href="#DejaVuSans-101"/>
    <use x="1247.460938" xlink:href="#DejaVuSans-114"/>
    <use x="1288.574219" xlink:href="#DejaVuSans-97"/>
    <use x="1349.853516" xlink:href="#DejaVuSans-116"/>
    <use x="1389.0625" xlink:href="#DejaVuSans-105"/>
    <use x="1416.845703" xlink:href="#DejaVuSans-111"/>
    <use x="1478.027344" xlink:href="#DejaVuSans-110"/>
    <use x="1541.40625" xlink:href="#DejaVuSans-115"/>
   </g>
  </g>
 </g>
 <defs>
  <clipPath id="p8574482a82">
   <rect height="266.112" width="357.12" x="57.6" y="41.472"/>
  </clipPath>
 </defs>
</svg>
