<?xml version="1.0" encoding="utf-8" standalone="no"?>
<!DOCTYPE svg PUBLIC "-//W3C//DTD SVG 1.1//EN"
  "http://www.w3.org/Graphics/SVG/1.1/DTD/svg11.dtd">
<!-- Created with matplotlib (https://matplotlib.org/) -->
<svg height="345.6pt" version="1.1" viewBox="0 0 460.8 345.6" width="460.8pt" xmlns="http://www.w3.org/2000/svg" xmlns:xlink="http://www.w3.org/1999/xlink">
 <defs>
  <style type="text/css">
*{stroke-linecap:butt;stroke-linejoin:round;}
  </style>
 </defs>
 <g id="figure_1">
  <g id="patch_1">
   <path d="M 0 345.6 
L 460.8 345.6 
L 460.8 0 
L 0 0 
z
" style="fill:#ffffff;"/>
  </g>
  <g id="axes_1">
   <g id="patch_2">
    <path d="M 57.6 307.584 
L 414.72 307.584 
L 414.72 41.472 
L 57.6 41.472 
z
" style="fill:#ffffff;"/>
   </g>
   <g id="PolyCollection_1">
    <path clip-path="url(#p2b432eb258)" d="M 73.832727 193.676108 
L 73.832727 193.676108 
L 75.464157 193.676108 
L 77.095587 193.676108 
L 78.727017 193.676108 
L 80.358447 193.676108 
L 81.989877 193.676108 
L 83.621307 193.676108 
L 85.252736 193.676108 
L 86.884166 193.676108 
L 88.515596 193.676108 
L 90.147026 193.676108 
L 91.778456 193.676108 
L 93.409886 193.676108 
L 95.041316 193.676108 
L 96.672746 193.676108 
L 98.304175 193.676108 
L 99.935605 193.676108 
L 101.567035 193.676108 
L 103.198465 193.676108 
L 104.829895 193.676108 
L 106.461325 193.676108 
L 108.092755 193.676108 
L 109.724185 193.676108 
L 111.355614 193.676108 
L 112.987044 193.676108 
L 114.618474 193.676108 
L 116.249904 193.676108 
L 117.881334 193.676108 
L 119.512764 193.676108 
L 121.144194 193.676108 
L 122.775624 193.676108 
L 124.407053 193.676108 
L 126.038483 193.676108 
L 127.669913 193.676108 
L 129.301343 193.676108 
L 130.932773 193.676108 
L 132.564203 193.676108 
L 134.195633 193.676108 
L 135.827063 193.676108 
L 137.458492 193.676108 
L 139.089922 193.676108 
L 140.721352 193.676108 
L 142.352782 193.676108 
L 143.984212 193.676108 
L 145.615642 193.676108 
L 147.247072 193.676108 
L 148.878502 193.676108 
L 150.509931 193.676108 
L 152.141361 193.676108 
L 153.772791 193.676108 
L 155.404221 193.676108 
L 157.035651 193.676108 
L 158.667081 193.676108 
L 160.298511 193.676108 
L 161.929941 193.676108 
L 163.56137 193.676108 
L 165.1928 193.676108 
L 166.82423 193.676108 
L 168.45566 193.676108 
L 170.08709 193.676108 
L 171.71852 193.676108 
L 173.34995 193.676108 
L 174.98138 193.676108 
L 176.61281 193.676108 
L 178.244239 193.676108 
L 179.875669 193.676108 
L 181.507099 193.676108 
L 183.138529 193.676108 
L 184.769959 193.676108 
L 186.401389 193.676108 
L 188.032819 193.676108 
L 189.664249 193.676108 
L 191.295678 193.676108 
L 192.927108 193.676108 
L 194.558538 193.676108 
L 196.189968 193.676108 
L 197.821398 193.676108 
L 199.452828 193.676108 
L 201.084258 193.676108 
L 202.715688 193.676108 
L 204.347117 193.676108 
L 205.978547 193.676108 
L 207.609977 193.676108 
L 209.241407 193.676108 
L 210.872837 193.676108 
L 212.504267 193.676108 
L 214.135697 193.676108 
L 215.767127 193.676108 
L 217.398556 193.676108 
L 219.029986 193.676108 
L 220.661416 193.676108 
L 222.292846 193.676108 
L 223.924276 193.676108 
L 225.555706 193.676108 
L 227.187136 193.676108 
L 228.818566 193.676108 
L 230.449995 193.676108 
L 232.081425 192.958054 
L 233.712855 193.676108 
L 235.344285 193.676108 
L 236.975715 193.676108 
L 238.607145 193.676108 
L 240.238575 193.676108 
L 241.870005 193.676108 
L 243.501434 188.772324 
L 245.132864 193.676108 
L 246.764294 193.676108 
L 248.395724 193.676108 
L 250.027154 193.676108 
L 251.658584 193.676108 
L 253.290014 193.676108 
L 254.921444 193.676108 
L 256.552873 193.676108 
L 258.184303 193.676108 
L 259.815733 193.676108 
L 261.447163 193.676108 
L 263.078593 193.676108 
L 264.710023 193.676108 
L 266.341453 193.676108 
L 267.972883 193.676108 
L 269.604312 193.676108 
L 271.235742 193.676108 
L 272.867172 193.676108 
L 274.498602 193.676108 
L 276.130032 180.832865 
L 277.761462 193.676108 
L 279.392892 193.676108 
L 281.024322 193.676108 
L 282.655751 193.676108 
L 284.287181 193.676108 
L 285.918611 193.676108 
L 287.550041 193.676108 
L 289.181471 193.676108 
L 290.812901 193.676108 
L 292.444331 187.721514 
L 294.075761 193.676108 
L 295.70719 193.676108 
L 297.33862 193.676108 
L 298.97005 193.676108 
L 300.60148 193.676108 
L 302.23291 193.676108 
L 303.86434 191.918919 
L 305.49577 193.676108 
L 307.1272 193.676108 
L 308.75863 193.676108 
L 310.390059 193.676108 
L 312.021489 193.676108 
L 313.652919 193.676108 
L 315.284349 193.676108 
L 316.915779 193.676108 
L 318.547209 193.676108 
L 320.178639 193.676108 
L 321.810069 193.676108 
L 323.441498 193.676108 
L 325.072928 193.676108 
L 326.704358 193.676108 
L 328.335788 193.676108 
L 329.967218 193.676108 
L 331.598648 193.676108 
L 333.230078 193.676108 
L 334.861508 193.676108 
L 336.492937 193.676108 
L 338.124367 193.676108 
L 339.755797 193.676108 
L 341.387227 193.676108 
L 343.018657 193.676108 
L 344.650087 193.676108 
L 346.281517 193.676108 
L 347.912947 193.676108 
L 349.544376 193.676108 
L 351.175806 193.676108 
L 352.807236 186.904216 
L 354.438666 193.676108 
L 356.070096 193.676108 
L 357.701526 191.224216 
L 359.332956 193.676108 
L 360.964386 185.503135 
L 362.595815 173.593946 
L 364.227245 193.676108 
L 365.858675 193.209081 
L 367.490105 180.599351 
L 369.121535 193.676108 
L 370.752965 172.659892 
L 372.384395 192.391784 
L 374.015825 193.676108 
L 375.647254 193.676108 
L 377.278684 190.406919 
L 378.910114 193.325838 
L 380.541544 160.421449 
L 382.172974 193.676108 
L 383.804404 193.676108 
L 385.435834 165.187459 
L 387.067264 190.406919 
L 388.698693 193.676108 
L 390.330123 172.309622 
L 391.961553 192.275027 
L 393.592983 178.380973 
L 395.224413 171.609081 
L 396.855843 170.55827 
L 398.487273 170.791784 
L 398.487273 122.629622 
L 398.487273 122.629622 
L 396.855843 126.774486 
L 395.224413 126.307459 
L 393.592983 123.622054 
L 391.961553 146.973405 
L 390.330123 124.322595 
L 388.698693 122.294919 
L 387.067264 123.622054 
L 385.435834 146.973405 
L 383.804404 154.710332 
L 382.172974 101.671784 
L 380.541544 122.454486 
L 378.910114 104.940973 
L 377.278684 101.671784 
L 375.647254 150.683086 
L 374.015825 148.374486 
L 372.384395 124.089081 
L 370.752965 105.408 
L 369.121535 159.923676 
L 367.490105 145.885445 
L 365.858675 140.394162 
L 364.227245 146.039351 
L 362.595815 123.622054 
L 360.964386 125.023135 
L 359.332956 146.623135 
L 357.701526 143.470703 
L 356.070096 168.456649 
L 354.438666 146.973405 
L 352.807236 146.354595 
L 351.175806 167.122286 
L 349.544376 146.973405 
L 347.912947 146.973405 
L 346.281517 170.324757 
L 344.650087 146.973405 
L 343.018657 167.055568 
L 341.387227 170.324757 
L 339.755797 123.622054 
L 338.124367 162.468695 
L 336.492937 146.973405 
L 334.861508 146.973405 
L 333.230078 159.064735 
L 331.598648 155.379892 
L 329.967218 148.851764 
L 328.335788 146.973405 
L 326.704358 167.055568 
L 325.072928 146.973405 
L 323.441498 146.973405 
L 321.810069 171.258811 
L 320.178639 149.290578 
L 318.547209 170.324757 
L 316.915779 151.176649 
L 315.284349 148.500584 
L 313.652919 170.324757 
L 312.021489 171.725838 
L 310.390059 154.445838 
L 308.75863 146.973405 
L 307.1272 123.622054 
L 305.49577 156.547459 
L 303.86434 170.324757 
L 302.23291 101.204757 
L 300.60148 146.973405 
L 298.97005 147.440432 
L 297.33862 170.324757 
L 295.70719 170.324757 
L 294.075761 147.907459 
L 292.444331 123.622054 
L 290.812901 124.556108 
L 289.181471 144.132995 
L 287.550041 103.656649 
L 285.918611 127.475027 
L 284.287181 146.973405 
L 282.655751 170.121514 
L 281.024322 168.223135 
L 279.392892 160.978378 
L 277.761462 159.047665 
L 276.130032 147.907459 
L 274.498602 170.324757 
L 272.867172 155.846919 
L 271.235742 170.675027 
L 269.604312 191.808 
L 267.972883 142.471558 
L 266.341453 154.171459 
L 264.710023 169.66223 
L 263.078593 147.323676 
L 261.447163 134.363676 
L 259.815733 166.080902 
L 258.184303 193.676108 
L 256.552873 170.324757 
L 254.921444 146.973405 
L 253.290014 174.995027 
L 251.658584 147.440432 
L 250.027154 170.324757 
L 248.395724 170.324757 
L 246.764294 170.208 
L 245.132864 173.827459 
L 243.501434 166.872093 
L 241.870005 143.087073 
L 240.238575 162.852324 
L 238.607145 150.242595 
L 236.975715 154.796108 
L 235.344285 193.506811 
L 233.712855 148.351135 
L 232.081425 170.324757 
L 230.449995 165.691636 
L 228.818566 160.19027 
L 227.187136 128.992865 
L 225.555706 170.324757 
L 223.924276 152.110703 
L 222.292846 170.324757 
L 220.661416 146.973405 
L 219.029986 156.924265 
L 217.398556 157.203521 
L 215.767127 157.014486 
L 214.135697 193.676108 
L 212.504267 170.791784 
L 210.872837 193.676108 
L 209.241407 193.676108 
L 207.609977 193.676108 
L 205.978547 193.676108 
L 204.347117 193.676108 
L 202.715688 193.676108 
L 201.084258 193.676108 
L 199.452828 193.676108 
L 197.821398 193.676108 
L 196.189968 193.676108 
L 194.558538 193.676108 
L 192.927108 193.676108 
L 191.295678 193.676108 
L 189.664249 193.676108 
L 188.032819 193.676108 
L 186.401389 193.676108 
L 184.769959 193.676108 
L 183.138529 193.676108 
L 181.507099 193.676108 
L 179.875669 193.676108 
L 178.244239 193.676108 
L 176.61281 193.676108 
L 174.98138 193.676108 
L 173.34995 193.676108 
L 171.71852 193.676108 
L 170.08709 193.676108 
L 168.45566 193.676108 
L 166.82423 193.676108 
L 165.1928 193.676108 
L 163.56137 193.676108 
L 161.929941 193.676108 
L 160.298511 193.676108 
L 158.667081 193.676108 
L 157.035651 193.676108 
L 155.404221 193.676108 
L 153.772791 193.676108 
L 152.141361 193.676108 
L 150.509931 193.676108 
L 148.878502 193.676108 
L 147.247072 193.676108 
L 145.615642 193.676108 
L 143.984212 193.676108 
L 142.352782 193.676108 
L 140.721352 193.676108 
L 139.089922 193.676108 
L 137.458492 193.676108 
L 135.827063 193.676108 
L 134.195633 193.676108 
L 132.564203 193.676108 
L 130.932773 193.676108 
L 129.301343 193.676108 
L 127.669913 193.676108 
L 126.038483 193.676108 
L 124.407053 193.676108 
L 122.775624 193.676108 
L 121.144194 193.676108 
L 119.512764 193.676108 
L 117.881334 193.676108 
L 116.249904 193.676108 
L 114.618474 193.676108 
L 112.987044 193.676108 
L 111.355614 193.676108 
L 109.724185 193.676108 
L 108.092755 193.676108 
L 106.461325 193.676108 
L 104.829895 193.676108 
L 103.198465 193.676108 
L 101.567035 193.676108 
L 99.935605 193.676108 
L 98.304175 193.676108 
L 96.672746 193.676108 
L 95.041316 193.676108 
L 93.409886 193.676108 
L 91.778456 193.676108 
L 90.147026 193.676108 
L 88.515596 193.676108 
L 86.884166 193.676108 
L 85.252736 193.676108 
L 83.621307 193.676108 
L 81.989877 193.676108 
L 80.358447 193.676108 
L 78.727017 193.676108 
L 77.095587 193.676108 
L 75.464157 193.676108 
L 73.832727 193.676108 
z
" style="fill:#1f77b4;fill-opacity:0.2;"/>
   </g>
   <g id="PolyCollection_2">
    <path clip-path="url(#p2b432eb258)" d="M 73.832727 193.676108 
L 73.832727 193.676108 
L 75.464157 193.676108 
L 77.095587 193.676108 
L 78.727017 193.676108 
L 80.358447 193.676108 
L 81.989877 193.676108 
L 83.621307 193.676108 
L 85.252736 193.676108 
L 86.884166 193.676108 
L 88.515596 193.676108 
L 90.147026 193.676108 
L 91.778456 193.676108 
L 93.409886 193.676108 
L 95.041316 193.676108 
L 96.672746 193.676108 
L 98.304175 193.676108 
L 99.935605 193.676108 
L 101.567035 193.676108 
L 103.198465 193.676108 
L 104.829895 193.676108 
L 106.461325 193.676108 
L 108.092755 193.676108 
L 109.724185 193.676108 
L 111.355614 193.676108 
L 112.987044 193.676108 
L 114.618474 193.676108 
L 116.249904 193.676108 
L 117.881334 193.676108 
L 119.512764 193.676108 
L 121.144194 193.676108 
L 122.775624 193.676108 
L 124.407053 193.676108 
L 126.038483 193.676108 
L 127.669913 193.676108 
L 129.301343 193.676108 
L 130.932773 193.676108 
L 132.564203 193.676108 
L 134.195633 193.676108 
L 135.827063 193.676108 
L 137.458492 193.676108 
L 139.089922 193.676108 
L 140.721352 193.676108 
L 142.352782 193.676108 
L 143.984212 193.676108 
L 145.615642 193.676108 
L 147.247072 193.676108 
L 148.878502 193.676108 
L 150.509931 193.676108 
L 152.141361 193.676108 
L 153.772791 193.676108 
L 155.404221 193.676108 
L 157.035651 193.676108 
L 158.667081 193.676108 
L 160.298511 193.676108 
L 161.929941 193.676108 
L 163.56137 193.676108 
L 165.1928 193.676108 
L 166.82423 193.676108 
L 168.45566 193.676108 
L 170.08709 193.676108 
L 171.71852 193.676108 
L 173.34995 193.676108 
L 174.98138 193.676108 
L 176.61281 193.676108 
L 178.244239 193.676108 
L 179.875669 193.676108 
L 181.507099 193.676108 
L 183.138529 193.676108 
L 184.769959 193.676108 
L 186.401389 193.676108 
L 188.032819 193.676108 
L 189.664249 193.676108 
L 191.295678 193.676108 
L 192.927108 193.676108 
L 194.558538 193.676108 
L 196.189968 193.676108 
L 197.821398 193.676108 
L 199.452828 193.676108 
L 201.084258 254.389622 
L 202.715688 224.966919 
L 204.347117 193.676108 
L 205.978547 196.011243 
L 207.609977 211.890162 
L 209.241407 242.713946 
L 210.872837 193.676108 
L 212.504267 280.543135 
L 214.135697 293.619892 
L 215.767127 263.263135 
L 217.398556 286.147459 
L 219.029986 240.378811 
L 220.661416 281.477189 
L 222.292846 218.428541 
L 223.924276 246.450162 
L 225.555706 284.746378 
L 227.187136 264.197189 
L 228.818566 239.911784 
L 230.449995 217.027459 
L 232.081425 201.615568 
L 233.712855 240.378811 
L 235.344285 221.230703 
L 236.975715 273.53773 
L 238.607145 240.378811 
L 240.238575 255.790703 
L 241.870005 263.263135 
L 243.501434 221.230703 
L 245.132864 214.692324 
L 246.764294 217.027459 
L 248.395724 251.120432 
L 250.027154 238.97773 
L 251.658584 240.378811 
L 253.290014 217.961514 
L 254.921444 274.471784 
L 256.552873 217.027459 
L 258.184303 259.526919 
L 259.815733 227.769081 
L 261.447163 263.730162 
L 263.078593 209.555027 
L 264.710023 261.395027 
L 266.341453 250.186378 
L 267.972883 263.730162 
L 269.604312 246.450162 
L 271.235742 216.560432 
L 272.867172 232.906378 
L 274.498602 237.576649 
L 276.130032 275.405838 
L 277.761462 236.175568 
L 279.392892 236.642595 
L 281.024322 235.708541 
L 282.655751 252.054486 
L 284.287181 239.444757 
L 285.918611 263.263135 
L 287.550041 287.081514 
L 289.181471 239.911784 
L 290.812901 263.730162 
L 292.444331 263.730162 
L 294.075761 193.676108 
L 295.70719 217.027459 
L 297.33862 291.284757 
L 298.97005 239.444757 
L 300.60148 240.378811 
L 302.23291 285.213405 
L 303.86434 236.642595 
L 305.49577 253.922595 
L 307.1272 286.147459 
L 308.75863 246.450162 
L 310.390059 256.25773 
L 312.021489 216.093405 
L 313.652919 217.027459 
L 315.284349 241.312865 
L 316.915779 238.043676 
L 318.547209 217.027459 
L 320.178639 241.312865 
L 321.810069 212.824216 
L 323.441498 240.378811 
L 325.072928 244.115027 
L 326.704358 225.900973 
L 328.335788 263.263135 
L 329.967218 234.307459 
L 331.598648 238.97773 
L 333.230078 217.961514 
L 334.861508 274.004757 
L 336.492937 240.378811 
L 338.124367 217.027459 
L 339.755797 295.488 
L 341.387227 224.966919 
L 343.018657 217.027459 
L 344.650087 259.059892 
L 346.281517 217.027459 
L 347.912947 217.027459 
L 349.544376 240.378811 
L 351.175806 205.818811 
L 352.807236 237.109622 
L 354.438666 281.010162 
L 356.070096 217.494486 
L 357.701526 263.730162 
L 359.332956 210.956108 
L 360.964386 208.620973 
L 362.595815 255.790703 
L 364.227245 214.692324 
L 365.858675 215.159351 
L 367.490105 206.752865 
L 369.121535 231.505297 
L 370.752965 217.027459 
L 372.384395 257.658811 
L 374.015825 240.378811 
L 375.647254 239.911784 
L 377.278684 285.213405 
L 378.910114 210.022054 
L 380.541544 236.642595 
L 382.172974 223.098811 
L 383.804404 213.75827 
L 385.435834 238.97773 
L 387.067264 239.911784 
L 388.698693 194.610162 
L 390.330123 238.97773 
L 391.961553 235.708541 
L 393.592983 217.027459 
L 395.224413 193.676108 
L 396.855843 207.219892 
L 398.487273 217.027459 
L 398.487273 77.004265 
L 398.487273 77.004265 
L 396.855843 76.919351 
L 395.224413 76.919351 
L 393.592983 76.919351 
L 391.961553 76.919351 
L 390.330123 76.919351 
L 388.698693 76.919351 
L 387.067264 53.568 
L 385.435834 77.010162 
L 383.804404 76.919351 
L 382.172974 76.919351 
L 380.541544 76.919351 
L 378.910114 76.919351 
L 377.278684 76.919351 
L 375.647254 76.919351 
L 374.015825 76.919351 
L 372.384395 76.919351 
L 370.752965 76.919351 
L 369.121535 76.919351 
L 367.490105 76.994076 
L 365.858675 76.919351 
L 364.227245 76.980268 
L 362.595815 76.919351 
L 360.964386 76.919351 
L 359.332956 61.507459 
L 357.701526 76.919351 
L 356.070096 76.919351 
L 354.438666 60.573405 
L 352.807236 60.573405 
L 351.175806 61.787676 
L 349.544376 76.919351 
L 347.912947 61.507459 
L 346.281517 76.919351 
L 344.650087 60.573405 
L 343.018657 61.640896 
L 341.387227 61.69427 
L 339.755797 76.919351 
L 338.124367 61.273946 
L 336.492937 76.919351 
L 334.861508 76.919351 
L 333.230078 76.919351 
L 331.598648 76.919351 
L 329.967218 76.919351 
L 328.335788 76.919351 
L 326.704358 76.919351 
L 325.072928 81.764757 
L 323.441498 78.320432 
L 321.810069 76.919351 
L 320.178639 76.919351 
L 318.547209 76.919351 
L 316.915779 123.622054 
L 315.284349 123.622054 
L 313.652919 106.342054 
L 312.021489 145.689081 
L 310.390059 104.940973 
L 308.75863 143.704216 
L 307.1272 101.204757 
L 305.49577 128.759351 
L 303.86434 141.369081 
L 302.23291 93.265297 
L 300.60148 87.193946 
L 298.97005 123.622054 
L 297.33862 101.671784 
L 295.70719 129.693405 
L 294.075761 136.120587 
L 292.444331 69.913946 
L 290.812901 95.133405 
L 289.181471 122.688 
L 287.550041 88.128 
L 285.918611 76.919351 
L 284.287181 64.309622 
L 282.655751 100.270703 
L 281.024322 118.484757 
L 279.392892 103.072865 
L 277.761462 130.627459 
L 276.130032 130.627459 
L 274.498602 121.286919 
L 272.867172 123.622054 
L 271.235742 128.292324 
L 269.604312 101.204757 
L 267.972883 88.595027 
L 266.341453 106.342054 
L 264.710023 111.012324 
L 263.078593 139.812324 
L 261.447163 77.386378 
L 259.815733 125.023135 
L 258.184303 123.622054 
L 256.552873 130.627459 
L 254.921444 114.748541 
L 253.290014 100.73773 
L 251.658584 133.052407 
L 250.027154 131.580195 
L 248.395724 131.892324 
L 246.764294 104.006919 
L 245.132864 133.45085 
L 243.501434 124.556108 
L 241.870005 68.979892 
L 240.238575 123.622054 
L 238.607145 134.875181 
L 236.975715 129.226378 
L 235.344285 122.991568 
L 233.712855 105.875027 
L 232.081425 110.07827 
L 230.449995 100.270703 
L 228.818566 134.385915 
L 227.187136 123.622054 
L 225.555706 77.853405 
L 223.924276 129.226378 
L 222.292846 147.017884 
L 220.661416 100.270703 
L 219.029986 128.292324 
L 217.398556 126.891243 
L 215.767127 123.622054 
L 214.135697 89.529081 
L 212.504267 89.529081 
L 210.872837 102.372324 
L 209.241407 123.622054 
L 207.609977 146.973405 
L 205.978547 125.957189 
L 204.347117 125.490162 
L 202.715688 123.622054 
L 201.084258 193.676108 
L 199.452828 193.676108 
L 197.821398 193.676108 
L 196.189968 193.676108 
L 194.558538 193.676108 
L 192.927108 193.676108 
L 191.295678 193.676108 
L 189.664249 193.676108 
L 188.032819 193.676108 
L 186.401389 193.676108 
L 184.769959 193.676108 
L 183.138529 193.676108 
L 181.507099 193.676108 
L 179.875669 193.676108 
L 178.244239 193.676108 
L 176.61281 193.676108 
L 174.98138 193.676108 
L 173.34995 193.676108 
L 171.71852 193.676108 
L 170.08709 193.676108 
L 168.45566 193.676108 
L 166.82423 193.676108 
L 165.1928 193.676108 
L 163.56137 193.676108 
L 161.929941 193.676108 
L 160.298511 193.676108 
L 158.667081 193.676108 
L 157.035651 193.676108 
L 155.404221 193.676108 
L 153.772791 193.676108 
L 152.141361 193.676108 
L 150.509931 193.676108 
L 148.878502 193.676108 
L 147.247072 193.676108 
L 145.615642 193.676108 
L 143.984212 193.676108 
L 142.352782 193.676108 
L 140.721352 193.676108 
L 139.089922 193.676108 
L 137.458492 193.676108 
L 135.827063 193.676108 
L 134.195633 193.676108 
L 132.564203 193.676108 
L 130.932773 193.676108 
L 129.301343 193.676108 
L 127.669913 193.676108 
L 126.038483 193.676108 
L 124.407053 193.676108 
L 122.775624 193.676108 
L 121.144194 193.676108 
L 119.512764 193.676108 
L 117.881334 193.676108 
L 116.249904 193.676108 
L 114.618474 193.676108 
L 112.987044 193.676108 
L 111.355614 193.676108 
L 109.724185 193.676108 
L 108.092755 193.676108 
L 106.461325 193.676108 
L 104.829895 193.676108 
L 103.198465 193.676108 
L 101.567035 193.676108 
L 99.935605 193.676108 
L 98.304175 193.676108 
L 96.672746 193.676108 
L 95.041316 193.676108 
L 93.409886 193.676108 
L 91.778456 193.676108 
L 90.147026 193.676108 
L 88.515596 193.676108 
L 86.884166 193.676108 
L 85.252736 193.676108 
L 83.621307 193.676108 
L 81.989877 193.676108 
L 80.358447 193.676108 
L 78.727017 193.676108 
L 77.095587 193.676108 
L 75.464157 193.676108 
L 73.832727 193.676108 
z
" style="fill:#1f77b4;fill-opacity:0.1;"/>
   </g>
   <g id="matplotlib.axis_1">
    <g id="xtick_1">
     <g id="line2d_1">
      <defs>
       <path d="M 0 0 
L 0 3.5 
" id="m25f64e82e4" style="stroke:#000000;stroke-width:0.8;"/>
      </defs>
      <g>
       <use style="stroke:#000000;stroke-width:0.8;" x="73.832727" xlink:href="#m25f64e82e4" y="307.584"/>
      </g>
     </g>
     <g id="text_1">
      <!-- 0 -->
      <defs>
       <path d="M 31.78125 66.40625 
Q 24.171875 66.40625 20.328125 58.90625 
Q 16.5 51.421875 16.5 36.375 
Q 16.5 21.390625 20.328125 13.890625 
Q 24.171875 6.390625 31.78125 6.390625 
Q 39.453125 6.390625 43.28125 13.890625 
Q 47.125 21.390625 47.125 36.375 
Q 47.125 51.421875 43.28125 58.90625 
Q 39.453125 66.40625 31.78125 66.40625 
z
M 31.78125 74.21875 
Q 44.046875 74.21875 50.515625 64.515625 
Q 56.984375 54.828125 56.984375 36.375 
Q 56.984375 17.96875 50.515625 8.265625 
Q 44.046875 -1.421875 31.78125 -1.421875 
Q 19.53125 -1.421875 13.0625 8.265625 
Q 6.59375 17.96875 6.59375 36.375 
Q 6.59375 54.828125 13.0625 64.515625 
Q 19.53125 74.21875 31.78125 74.21875 
z
" id="DejaVuSans-48"/>
      </defs>
      <g transform="translate(70.651477 322.182437)scale(0.1 -0.1)">
       <use xlink:href="#DejaVuSans-48"/>
      </g>
     </g>
    </g>
    <g id="xtick_2">
     <g id="line2d_2">
      <g>
       <use style="stroke:#000000;stroke-width:0.8;" x="114.618474" xlink:href="#m25f64e82e4" y="307.584"/>
      </g>
     </g>
     <g id="text_2">
      <!-- 25 -->
      <defs>
       <path d="M 19.1875 8.296875 
L 53.609375 8.296875 
L 53.609375 0 
L 7.328125 0 
L 7.328125 8.296875 
Q 12.9375 14.109375 22.625 23.890625 
Q 32.328125 33.6875 34.8125 36.53125 
Q 39.546875 41.84375 41.421875 45.53125 
Q 43.3125 49.21875 43.3125 52.78125 
Q 43.3125 58.59375 39.234375 62.25 
Q 35.15625 65.921875 28.609375 65.921875 
Q 23.96875 65.921875 18.8125 64.3125 
Q 13.671875 62.703125 7.8125 59.421875 
L 7.8125 69.390625 
Q 13.765625 71.78125 18.9375 73 
Q 24.125 74.21875 28.421875 74.21875 
Q 39.75 74.21875 46.484375 68.546875 
Q 53.21875 62.890625 53.21875 53.421875 
Q 53.21875 48.921875 51.53125 44.890625 
Q 49.859375 40.875 45.40625 35.40625 
Q 44.1875 33.984375 37.640625 27.21875 
Q 31.109375 20.453125 19.1875 8.296875 
z
" id="DejaVuSans-50"/>
       <path d="M 10.796875 72.90625 
L 49.515625 72.90625 
L 49.515625 64.59375 
L 19.828125 64.59375 
L 19.828125 46.734375 
Q 21.96875 47.46875 24.109375 47.828125 
Q 26.265625 48.1875 28.421875 48.1875 
Q 40.625 48.1875 47.75 41.5 
Q 54.890625 34.8125 54.890625 23.390625 
Q 54.890625 11.625 47.5625 5.09375 
Q 40.234375 -1.421875 26.90625 -1.421875 
Q 22.3125 -1.421875 17.546875 -0.640625 
Q 12.796875 0.140625 7.71875 1.703125 
L 7.71875 11.625 
Q 12.109375 9.234375 16.796875 8.0625 
Q 21.484375 6.890625 26.703125 6.890625 
Q 35.15625 6.890625 40.078125 11.328125 
Q 45.015625 15.765625 45.015625 23.390625 
Q 45.015625 31 40.078125 35.4375 
Q 35.15625 39.890625 26.703125 39.890625 
Q 22.75 39.890625 18.8125 39.015625 
Q 14.890625 38.140625 10.796875 36.28125 
z
" id="DejaVuSans-53"/>
      </defs>
      <g transform="translate(108.255974 322.182437)scale(0.1 -0.1)">
       <use xlink:href="#DejaVuSans-50"/>
       <use x="63.623047" xlink:href="#DejaVuSans-53"/>
      </g>
     </g>
    </g>
    <g id="xtick_3">
     <g id="line2d_3">
      <g>
       <use style="stroke:#000000;stroke-width:0.8;" x="155.404221" xlink:href="#m25f64e82e4" y="307.584"/>
      </g>
     </g>
     <g id="text_3">
      <!-- 50 -->
      <g transform="translate(149.041721 322.182437)scale(0.1 -0.1)">
       <use xlink:href="#DejaVuSans-53"/>
       <use x="63.623047" xlink:href="#DejaVuSans-48"/>
      </g>
     </g>
    </g>
    <g id="xtick_4">
     <g id="line2d_4">
      <g>
       <use style="stroke:#000000;stroke-width:0.8;" x="196.189968" xlink:href="#m25f64e82e4" y="307.584"/>
      </g>
     </g>
     <g id="text_4">
      <!-- 75 -->
      <defs>
       <path d="M 8.203125 72.90625 
L 55.078125 72.90625 
L 55.078125 68.703125 
L 28.609375 0 
L 18.3125 0 
L 43.21875 64.59375 
L 8.203125 64.59375 
z
" id="DejaVuSans-55"/>
      </defs>
      <g transform="translate(189.827468 322.182437)scale(0.1 -0.1)">
       <use xlink:href="#DejaVuSans-55"/>
       <use x="63.623047" xlink:href="#DejaVuSans-53"/>
      </g>
     </g>
    </g>
    <g id="xtick_5">
     <g id="line2d_5">
      <g>
       <use style="stroke:#000000;stroke-width:0.8;" x="236.975715" xlink:href="#m25f64e82e4" y="307.584"/>
      </g>
     </g>
     <g id="text_5">
      <!-- 100 -->
      <defs>
       <path d="M 12.40625 8.296875 
L 28.515625 8.296875 
L 28.515625 63.921875 
L 10.984375 60.40625 
L 10.984375 69.390625 
L 28.421875 72.90625 
L 38.28125 72.90625 
L 38.28125 8.296875 
L 54.390625 8.296875 
L 54.390625 0 
L 12.40625 0 
z
" id="DejaVuSans-49"/>
      </defs>
      <g transform="translate(227.431965 322.182437)scale(0.1 -0.1)">
       <use xlink:href="#DejaVuSans-49"/>
       <use x="63.623047" xlink:href="#DejaVuSans-48"/>
       <use x="127.246094" xlink:href="#DejaVuSans-48"/>
      </g>
     </g>
    </g>
    <g id="xtick_6">
     <g id="line2d_6">
      <g>
       <use style="stroke:#000000;stroke-width:0.8;" x="277.761462" xlink:href="#m25f64e82e4" y="307.584"/>
      </g>
     </g>
     <g id="text_6">
      <!-- 125 -->
      <g transform="translate(268.217712 322.182437)scale(0.1 -0.1)">
       <use xlink:href="#DejaVuSans-49"/>
       <use x="63.623047" xlink:href="#DejaVuSans-50"/>
       <use x="127.246094" xlink:href="#DejaVuSans-53"/>
      </g>
     </g>
    </g>
    <g id="xtick_7">
     <g id="line2d_7">
      <g>
       <use style="stroke:#000000;stroke-width:0.8;" x="318.547209" xlink:href="#m25f64e82e4" y="307.584"/>
      </g>
     </g>
     <g id="text_7">
      <!-- 150 -->
      <g transform="translate(309.003459 322.182437)scale(0.1 -0.1)">
       <use xlink:href="#DejaVuSans-49"/>
       <use x="63.623047" xlink:href="#DejaVuSans-53"/>
       <use x="127.246094" xlink:href="#DejaVuSans-48"/>
      </g>
     </g>
    </g>
    <g id="xtick_8">
     <g id="line2d_8">
      <g>
       <use style="stroke:#000000;stroke-width:0.8;" x="359.332956" xlink:href="#m25f64e82e4" y="307.584"/>
      </g>
     </g>
     <g id="text_8">
      <!-- 175 -->
      <g transform="translate(349.789206 322.182437)scale(0.1 -0.1)">
       <use xlink:href="#DejaVuSans-49"/>
       <use x="63.623047" xlink:href="#DejaVuSans-55"/>
       <use x="127.246094" xlink:href="#DejaVuSans-53"/>
      </g>
     </g>
    </g>
    <g id="xtick_9">
     <g id="line2d_9">
      <g>
       <use style="stroke:#000000;stroke-width:0.8;" x="400.118703" xlink:href="#m25f64e82e4" y="307.584"/>
      </g>
     </g>
     <g id="text_9">
      <!-- 200 -->
      <g transform="translate(390.574953 322.182437)scale(0.1 -0.1)">
       <use xlink:href="#DejaVuSans-50"/>
       <use x="63.623047" xlink:href="#DejaVuSans-48"/>
       <use x="127.246094" xlink:href="#DejaVuSans-48"/>
      </g>
     </g>
    </g>
   </g>
   <g id="matplotlib.axis_2">
    <g id="ytick_1">
     <g id="line2d_10">
      <defs>
       <path d="M 0 0 
L -3.5 0 
" id="m29aac124f8" style="stroke:#000000;stroke-width:0.8;"/>
      </defs>
      <g>
       <use style="stroke:#000000;stroke-width:0.8;" x="57.6" xlink:href="#m29aac124f8" y="287.081514"/>
      </g>
     </g>
     <g id="text_10">
      <!-- −0.4 -->
      <defs>
       <path d="M 10.59375 35.5 
L 73.1875 35.5 
L 73.1875 27.203125 
L 10.59375 27.203125 
z
" id="DejaVuSans-8722"/>
       <path d="M 10.6875 12.40625 
L 21 12.40625 
L 21 0 
L 10.6875 0 
z
" id="DejaVuSans-46"/>
       <path d="M 37.796875 64.3125 
L 12.890625 25.390625 
L 37.796875 25.390625 
z
M 35.203125 72.90625 
L 47.609375 72.90625 
L 47.609375 25.390625 
L 58.015625 25.390625 
L 58.015625 17.1875 
L 47.609375 17.1875 
L 47.609375 0 
L 37.796875 0 
L 37.796875 17.1875 
L 4.890625 17.1875 
L 4.890625 26.703125 
z
" id="DejaVuSans-52"/>
      </defs>
      <g transform="translate(26.317187 290.880732)scale(0.1 -0.1)">
       <use xlink:href="#DejaVuSans-8722"/>
       <use x="83.789062" xlink:href="#DejaVuSans-48"/>
       <use x="147.412109" xlink:href="#DejaVuSans-46"/>
       <use x="179.199219" xlink:href="#DejaVuSans-52"/>
      </g>
     </g>
    </g>
    <g id="ytick_2">
     <g id="line2d_11">
      <g>
       <use style="stroke:#000000;stroke-width:0.8;" x="57.6" xlink:href="#m29aac124f8" y="240.378811"/>
      </g>
     </g>
     <g id="text_11">
      <!-- −0.2 -->
      <g transform="translate(26.317187 244.17803)scale(0.1 -0.1)">
       <use xlink:href="#DejaVuSans-8722"/>
       <use x="83.789062" xlink:href="#DejaVuSans-48"/>
       <use x="147.412109" xlink:href="#DejaVuSans-46"/>
       <use x="179.199219" xlink:href="#DejaVuSans-50"/>
      </g>
     </g>
    </g>
    <g id="ytick_3">
     <g id="line2d_12">
      <g>
       <use style="stroke:#000000;stroke-width:0.8;" x="57.6" xlink:href="#m29aac124f8" y="193.676108"/>
      </g>
     </g>
     <g id="text_12">
      <!-- 0.0 -->
      <g transform="translate(34.696875 197.475327)scale(0.1 -0.1)">
       <use xlink:href="#DejaVuSans-48"/>
       <use x="63.623047" xlink:href="#DejaVuSans-46"/>
       <use x="95.410156" xlink:href="#DejaVuSans-48"/>
      </g>
     </g>
    </g>
    <g id="ytick_4">
     <g id="line2d_13">
      <g>
       <use style="stroke:#000000;stroke-width:0.8;" x="57.6" xlink:href="#m29aac124f8" y="146.973405"/>
      </g>
     </g>
     <g id="text_13">
      <!-- 0.2 -->
      <g transform="translate(34.696875 150.772624)scale(0.1 -0.1)">
       <use xlink:href="#DejaVuSans-48"/>
       <use x="63.623047" xlink:href="#DejaVuSans-46"/>
       <use x="95.410156" xlink:href="#DejaVuSans-50"/>
      </g>
     </g>
    </g>
    <g id="ytick_5">
     <g id="line2d_14">
      <g>
       <use style="stroke:#000000;stroke-width:0.8;" x="57.6" xlink:href="#m29aac124f8" y="100.270703"/>
      </g>
     </g>
     <g id="text_14">
      <!-- 0.4 -->
      <g transform="translate(34.696875 104.069921)scale(0.1 -0.1)">
       <use xlink:href="#DejaVuSans-48"/>
       <use x="63.623047" xlink:href="#DejaVuSans-46"/>
       <use x="95.410156" xlink:href="#DejaVuSans-52"/>
      </g>
     </g>
    </g>
    <g id="ytick_6">
     <g id="line2d_15">
      <g>
       <use style="stroke:#000000;stroke-width:0.8;" x="57.6" xlink:href="#m29aac124f8" y="53.568"/>
      </g>
     </g>
     <g id="text_15">
      <!-- 0.6 -->
      <defs>
       <path d="M 33.015625 40.375 
Q 26.375 40.375 22.484375 35.828125 
Q 18.609375 31.296875 18.609375 23.390625 
Q 18.609375 15.53125 22.484375 10.953125 
Q 26.375 6.390625 33.015625 6.390625 
Q 39.65625 6.390625 43.53125 10.953125 
Q 47.40625 15.53125 47.40625 23.390625 
Q 47.40625 31.296875 43.53125 35.828125 
Q 39.65625 40.375 33.015625 40.375 
z
M 52.59375 71.296875 
L 52.59375 62.3125 
Q 48.875 64.0625 45.09375 64.984375 
Q 41.3125 65.921875 37.59375 65.921875 
Q 27.828125 65.921875 22.671875 59.328125 
Q 17.53125 52.734375 16.796875 39.40625 
Q 19.671875 43.65625 24.015625 45.921875 
Q 28.375 48.1875 33.59375 48.1875 
Q 44.578125 48.1875 50.953125 41.515625 
Q 57.328125 34.859375 57.328125 23.390625 
Q 57.328125 12.15625 50.6875 5.359375 
Q 44.046875 -1.421875 33.015625 -1.421875 
Q 20.359375 -1.421875 13.671875 8.265625 
Q 6.984375 17.96875 6.984375 36.375 
Q 6.984375 53.65625 15.1875 63.9375 
Q 23.390625 74.21875 37.203125 74.21875 
Q 40.921875 74.21875 44.703125 73.484375 
Q 48.484375 72.75 52.59375 71.296875 
z
" id="DejaVuSans-54"/>
      </defs>
      <g transform="translate(34.696875 57.367219)scale(0.1 -0.1)">
       <use xlink:href="#DejaVuSans-48"/>
       <use x="63.623047" xlink:href="#DejaVuSans-46"/>
       <use x="95.410156" xlink:href="#DejaVuSans-54"/>
      </g>
     </g>
    </g>
   </g>
   <g id="line2d_16">
    <path clip-path="url(#p2b432eb258)" d="M 73.832727 193.676108 
L 214.135697 193.676108 
L 215.767127 192.742054 
L 217.398556 184.746996 
L 219.029986 181.533405 
L 220.661416 152.605142 
L 222.292846 175.462054 
L 223.924276 167.811707 
L 225.555706 193.430919 
L 227.187136 182.000432 
L 228.818566 174.761514 
L 230.449995 193.209081 
L 232.081425 172.192865 
L 233.712855 180.949622 
L 235.344285 193.676108 
L 236.975715 173.593946 
L 238.607145 193.676108 
L 240.238575 172.281822 
L 241.870005 170.348108 
L 243.501434 170.324757 
L 245.132864 193.676108 
L 246.764294 193.442595 
L 248.395724 192.275027 
L 250.027154 193.153483 
L 251.658584 174.761514 
L 253.290014 193.676108 
L 254.921444 161.451243 
L 256.552873 171.492324 
L 258.184303 193.676108 
L 259.815733 171.025297 
L 261.447163 167.533986 
L 263.078593 166.098162 
L 264.710023 193.676108 
L 266.341453 170.324757 
L 267.972883 183.401514 
L 269.604312 193.676108 
L 271.235742 193.676108 
L 272.867172 170.324757 
L 274.498602 172.192865 
L 276.130032 168.624778 
L 277.761462 170.324757 
L 279.392892 170.324757 
L 281.024322 178.030703 
L 282.655751 193.676108 
L 284.287181 158.649081 
L 285.918611 164.764911 
L 287.550041 166.448432 
L 289.181471 152.811243 
L 290.812901 171.492324 
L 292.444331 147.907459 
L 294.075761 181.323243 
L 295.70719 170.55827 
L 297.33862 170.791784 
L 298.97005 170.324757 
L 300.60148 170.55827 
L 302.23291 179.187324 
L 303.86434 170.324757 
L 305.49577 170.324757 
L 307.1272 156.734145 
L 308.75863 171.492324 
L 310.390059 158.882595 
L 312.021489 193.676108 
L 313.652919 174.528 
L 315.284349 183.267497 
L 316.915779 176.162595 
L 318.547209 170.791784 
L 321.810069 193.676108 
L 323.441498 173.593946 
L 325.072928 166.775351 
L 326.704358 170.324757 
L 328.335788 171.492324 
L 329.967218 179.665297 
L 331.598648 193.676108 
L 333.230078 170.55827 
L 334.861508 153.511784 
L 336.492937 153.511784 
L 338.124367 193.676108 
L 339.755797 151.082378 
L 341.387227 174.528 
L 343.018657 171.492324 
L 344.650087 171.258811 
L 346.281517 171.258811 
L 347.912947 149.308541 
L 349.544376 179.898811 
L 351.175806 170.324757 
L 352.807236 155.379892 
L 354.438666 147.440432 
L 356.070096 173.126919 
L 357.701526 148.247115 
L 359.332956 167.989622 
L 360.964386 153.511784 
L 362.595815 143.213838 
L 364.227245 153.646888 
L 365.858675 147.136865 
L 367.490105 170.324757 
L 369.121535 186.670703 
L 370.752965 123.622054 
L 375.647254 193.676108 
L 377.278684 167.055568 
L 378.910114 170.324757 
L 380.541544 147.440432 
L 382.172974 173.827459 
L 383.804404 170.791784 
L 385.435834 154.468565 
L 387.067264 152.989158 
L 388.698693 146.973405 
L 390.330123 151.176649 
L 391.961553 157.248 
L 393.592983 170.324757 
L 395.224413 146.973405 
L 396.855843 151.410162 
L 398.487273 154.631237 
L 398.487273 154.631237 
" style="fill:none;stroke:#1f77b4;stroke-linecap:square;stroke-width:0.25;"/>
   </g>
   <g id="line2d_17">
    <path clip-path="url(#p2b432eb258)" d="M 73.832727 193.676108 
L 199.452828 193.676108 
L 201.084258 194.283243 
L 202.715688 193.288476 
L 204.347117 189.800951 
L 205.978547 187.913606 
L 207.609977 192.385648 
L 209.241407 189.098101 
L 210.872837 184.06923 
L 212.504267 181.710918 
L 214.135697 189.266913 
L 215.767127 175.309011 
L 217.398556 178.575579 
L 219.029986 176.864192 
L 220.661416 165.627108 
L 222.292846 180.991042 
L 223.924276 170.358318 
L 225.555706 175.664526 
L 227.187136 170.2305 
L 228.818566 176.729476 
L 230.449995 174.740474 
L 232.081425 176.246496 
L 233.712855 176.517179 
L 235.344285 187.084164 
L 236.975715 176.247871 
L 238.607145 178.771354 
L 240.238575 178.15278 
L 241.870005 167.16915 
L 243.501434 172.277367 
L 245.132864 183.71108 
L 246.764294 178.053249 
L 248.395724 184.035376 
L 250.027154 182.899981 
L 251.658584 173.99037 
L 253.290014 181.554615 
L 254.921444 171.262176 
L 258.184303 188.603867 
L 259.815733 175.992861 
L 261.447163 165.890196 
L 263.078593 169.904485 
L 264.710023 183.734457 
L 266.341453 172.244343 
L 267.972883 173.541029 
L 269.604312 186.389763 
L 271.235742 183.493999 
L 272.867172 172.740827 
L 274.498602 179.706347 
L 276.130032 168.535648 
L 277.761462 171.927819 
L 279.392892 171.115726 
L 281.024322 179.989626 
L 282.655751 183.096602 
L 284.287181 166.318877 
L 285.918611 164.030798 
L 287.550041 155.90583 
L 289.181471 161.931088 
L 290.812901 165.732421 
L 292.444331 152.400679 
L 294.075761 174.012378 
L 295.70719 176.558516 
L 297.33862 176.603757 
L 298.97005 169.330367 
L 300.60148 170.828719 
L 302.23291 160.322603 
L 303.86434 176.796939 
L 305.49577 174.153949 
L 307.1272 160.861678 
L 308.75863 173.079976 
L 310.390059 171.261245 
L 312.021489 184.775765 
L 315.284349 176.097081 
L 316.915779 173.512659 
L 318.547209 174.472231 
L 320.178639 173.401586 
L 321.810069 180.132358 
L 323.441498 172.326635 
L 325.072928 168.947185 
L 326.704358 175.998833 
L 328.335788 166.186492 
L 329.967218 166.338861 
L 331.598648 169.605686 
L 333.230078 171.113712 
L 334.861508 163.587483 
L 336.492937 159.945125 
L 338.124367 175.913317 
L 339.755797 154.097944 
L 341.387227 174.559439 
L 343.018657 171.026674 
L 344.650087 166.605771 
L 346.281517 168.575909 
L 347.912947 158.76424 
L 349.544376 167.706582 
L 351.175806 168.493547 
L 352.807236 154.095251 
L 354.438666 162.2707 
L 356.070096 172.339719 
L 357.701526 160.120726 
L 359.332956 156.923323 
L 360.964386 148.90275 
L 362.595815 144.308958 
L 364.227245 157.73357 
L 365.858675 156.104242 
L 367.490105 156.855593 
L 369.121535 170.619574 
L 370.752965 136.751639 
L 372.384395 149.313231 
L 374.015825 166.413494 
L 375.647254 176.954831 
L 377.278684 146.907542 
L 378.910114 152.113351 
L 380.541544 142.873481 
L 382.172974 151.545542 
L 383.804404 165.281942 
L 385.435834 157.688911 
L 387.067264 150.850798 
L 388.698693 144.843998 
L 390.330123 151.053604 
L 391.961553 155.352637 
L 393.592983 155.021353 
L 395.224413 148.792738 
L 396.855843 149.003298 
L 398.487273 146.62549 
L 398.487273 146.62549 
" style="fill:none;stroke:#2ca02c;stroke-linecap:square;stroke-width:0.75;"/>
   </g>
   <g id="patch_3">
    <path d="M 57.6 307.584 
L 57.6 41.472 
" style="fill:none;stroke:#000000;stroke-linecap:square;stroke-linejoin:miter;stroke-width:0.8;"/>
   </g>
   <g id="patch_4">
    <path d="M 414.72 307.584 
L 414.72 41.472 
" style="fill:none;stroke:#000000;stroke-linecap:square;stroke-linejoin:miter;stroke-width:0.8;"/>
   </g>
   <g id="patch_5">
    <path d="M 57.6 307.584 
L 414.72 307.584 
" style="fill:none;stroke:#000000;stroke-linecap:square;stroke-linejoin:miter;stroke-width:0.8;"/>
   </g>
   <g id="patch_6">
    <path d="M 57.6 41.472 
L 414.72 41.472 
" style="fill:none;stroke:#000000;stroke-linecap:square;stroke-linejoin:miter;stroke-width:0.8;"/>
   </g>
   <g id="legend_1">
    <g id="patch_7">
     <path d="M 338.234063 78.82825 
L 407.72 78.82825 
Q 409.72 78.82825 409.72 76.82825 
L 409.72 48.472 
Q 409.72 46.472 407.72 46.472 
L 338.234063 46.472 
Q 336.234063 46.472 336.234063 48.472 
L 336.234063 76.82825 
Q 336.234063 78.82825 338.234063 78.82825 
z
" style="fill:#ffffff;opacity:0.8;stroke:#cccccc;stroke-linejoin:miter;"/>
    </g>
    <g id="line2d_18">
     <path d="M 340.234063 54.570437 
L 360.234063 54.570437 
" style="fill:none;stroke:#1f77b4;stroke-linecap:square;stroke-width:0.25;"/>
    </g>
    <g id="line2d_19"/>
    <g id="text_16">
     <!-- median -->
     <defs>
      <path d="M 52 44.1875 
Q 55.375 50.25 60.0625 53.125 
Q 64.75 56 71.09375 56 
Q 79.640625 56 84.28125 50.015625 
Q 88.921875 44.046875 88.921875 33.015625 
L 88.921875 0 
L 79.890625 0 
L 79.890625 32.71875 
Q 79.890625 40.578125 77.09375 44.375 
Q 74.3125 48.1875 68.609375 48.1875 
Q 61.625 48.1875 57.5625 43.546875 
Q 53.515625 38.921875 53.515625 30.90625 
L 53.515625 0 
L 44.484375 0 
L 44.484375 32.71875 
Q 44.484375 40.625 41.703125 44.40625 
Q 38.921875 48.1875 33.109375 48.1875 
Q 26.21875 48.1875 22.15625 43.53125 
Q 18.109375 38.875 18.109375 30.90625 
L 18.109375 0 
L 9.078125 0 
L 9.078125 54.6875 
L 18.109375 54.6875 
L 18.109375 46.1875 
Q 21.1875 51.21875 25.484375 53.609375 
Q 29.78125 56 35.6875 56 
Q 41.65625 56 45.828125 52.96875 
Q 50 49.953125 52 44.1875 
z
" id="DejaVuSans-109"/>
      <path d="M 56.203125 29.59375 
L 56.203125 25.203125 
L 14.890625 25.203125 
Q 15.484375 15.921875 20.484375 11.0625 
Q 25.484375 6.203125 34.421875 6.203125 
Q 39.59375 6.203125 44.453125 7.46875 
Q 49.3125 8.734375 54.109375 11.28125 
L 54.109375 2.78125 
Q 49.265625 0.734375 44.1875 -0.34375 
Q 39.109375 -1.421875 33.890625 -1.421875 
Q 20.796875 -1.421875 13.15625 6.1875 
Q 5.515625 13.8125 5.515625 26.8125 
Q 5.515625 40.234375 12.765625 48.109375 
Q 20.015625 56 32.328125 56 
Q 43.359375 56 49.78125 48.890625 
Q 56.203125 41.796875 56.203125 29.59375 
z
M 47.21875 32.234375 
Q 47.125 39.59375 43.09375 43.984375 
Q 39.0625 48.390625 32.421875 48.390625 
Q 24.90625 48.390625 20.390625 44.140625 
Q 15.875 39.890625 15.1875 32.171875 
z
" id="DejaVuSans-101"/>
      <path d="M 45.40625 46.390625 
L 45.40625 75.984375 
L 54.390625 75.984375 
L 54.390625 0 
L 45.40625 0 
L 45.40625 8.203125 
Q 42.578125 3.328125 38.25 0.953125 
Q 33.9375 -1.421875 27.875 -1.421875 
Q 17.96875 -1.421875 11.734375 6.484375 
Q 5.515625 14.40625 5.515625 27.296875 
Q 5.515625 40.1875 11.734375 48.09375 
Q 17.96875 56 27.875 56 
Q 33.9375 56 38.25 53.625 
Q 42.578125 51.265625 45.40625 46.390625 
z
M 14.796875 27.296875 
Q 14.796875 17.390625 18.875 11.75 
Q 22.953125 6.109375 30.078125 6.109375 
Q 37.203125 6.109375 41.296875 11.75 
Q 45.40625 17.390625 45.40625 27.296875 
Q 45.40625 37.203125 41.296875 42.84375 
Q 37.203125 48.484375 30.078125 48.484375 
Q 22.953125 48.484375 18.875 42.84375 
Q 14.796875 37.203125 14.796875 27.296875 
z
" id="DejaVuSans-100"/>
      <path d="M 9.421875 54.6875 
L 18.40625 54.6875 
L 18.40625 0 
L 9.421875 0 
z
M 9.421875 75.984375 
L 18.40625 75.984375 
L 18.40625 64.59375 
L 9.421875 64.59375 
z
" id="DejaVuSans-105"/>
      <path d="M 34.28125 27.484375 
Q 23.390625 27.484375 19.1875 25 
Q 14.984375 22.515625 14.984375 16.5 
Q 14.984375 11.71875 18.140625 8.90625 
Q 21.296875 6.109375 26.703125 6.109375 
Q 34.1875 6.109375 38.703125 11.40625 
Q 43.21875 16.703125 43.21875 25.484375 
L 43.21875 27.484375 
z
M 52.203125 31.203125 
L 52.203125 0 
L 43.21875 0 
L 43.21875 8.296875 
Q 40.140625 3.328125 35.546875 0.953125 
Q 30.953125 -1.421875 24.3125 -1.421875 
Q 15.921875 -1.421875 10.953125 3.296875 
Q 6 8.015625 6 15.921875 
Q 6 25.140625 12.171875 29.828125 
Q 18.359375 34.515625 30.609375 34.515625 
L 43.21875 34.515625 
L 43.21875 35.40625 
Q 43.21875 41.609375 39.140625 45 
Q 35.0625 48.390625 27.6875 48.390625 
Q 23 48.390625 18.546875 47.265625 
Q 14.109375 46.140625 10.015625 43.890625 
L 10.015625 52.203125 
Q 14.9375 54.109375 19.578125 55.046875 
Q 24.21875 56 28.609375 56 
Q 40.484375 56 46.34375 49.84375 
Q 52.203125 43.703125 52.203125 31.203125 
z
" id="DejaVuSans-97"/>
      <path d="M 54.890625 33.015625 
L 54.890625 0 
L 45.90625 0 
L 45.90625 32.71875 
Q 45.90625 40.484375 42.875 44.328125 
Q 39.84375 48.1875 33.796875 48.1875 
Q 26.515625 48.1875 22.3125 43.546875 
Q 18.109375 38.921875 18.109375 30.90625 
L 18.109375 0 
L 9.078125 0 
L 9.078125 54.6875 
L 18.109375 54.6875 
L 18.109375 46.1875 
Q 21.34375 51.125 25.703125 53.5625 
Q 30.078125 56 35.796875 56 
Q 45.21875 56 50.046875 50.171875 
Q 54.890625 44.34375 54.890625 33.015625 
z
" id="DejaVuSans-110"/>
     </defs>
     <g transform="translate(368.234063 58.070437)scale(0.1 -0.1)">
      <use xlink:href="#DejaVuSans-109"/>
      <use x="97.412109" xlink:href="#DejaVuSans-101"/>
      <use x="158.935547" xlink:href="#DejaVuSans-100"/>
      <use x="222.412109" xlink:href="#DejaVuSans-105"/>
      <use x="250.195312" xlink:href="#DejaVuSans-97"/>
      <use x="311.474609" xlink:href="#DejaVuSans-110"/>
     </g>
    </g>
    <g id="line2d_20">
     <path d="M 340.234063 69.248562 
L 360.234063 69.248562 
" style="fill:none;stroke:#2ca02c;stroke-linecap:square;stroke-width:0.75;"/>
    </g>
    <g id="line2d_21"/>
    <g id="text_17">
     <!-- mean -->
     <g transform="translate(368.234063 72.748562)scale(0.1 -0.1)">
      <use xlink:href="#DejaVuSans-109"/>
      <use x="97.412109" xlink:href="#DejaVuSans-101"/>
      <use x="158.935547" xlink:href="#DejaVuSans-97"/>
      <use x="220.214844" xlink:href="#DejaVuSans-110"/>
     </g>
    </g>
   </g>
  </g>
  <g id="text_18">
   <!-- kappa.mean over generations -->
   <defs>
    <path d="M 9.078125 75.984375 
L 18.109375 75.984375 
L 18.109375 31.109375 
L 44.921875 54.6875 
L 56.390625 54.6875 
L 27.390625 29.109375 
L 57.625 0 
L 45.90625 0 
L 18.109375 26.703125 
L 18.109375 0 
L 9.078125 0 
z
" id="DejaVuSans-107"/>
    <path d="M 18.109375 8.203125 
L 18.109375 -20.796875 
L 9.078125 -20.796875 
L 9.078125 54.6875 
L 18.109375 54.6875 
L 18.109375 46.390625 
Q 20.953125 51.265625 25.265625 53.625 
Q 29.59375 56 35.59375 56 
Q 45.5625 56 51.78125 48.09375 
Q 58.015625 40.1875 58.015625 27.296875 
Q 58.015625 14.40625 51.78125 6.484375 
Q 45.5625 -1.421875 35.59375 -1.421875 
Q 29.59375 -1.421875 25.265625 0.953125 
Q 20.953125 3.328125 18.109375 8.203125 
z
M 48.6875 27.296875 
Q 48.6875 37.203125 44.609375 42.84375 
Q 40.53125 48.484375 33.40625 48.484375 
Q 26.265625 48.484375 22.1875 42.84375 
Q 18.109375 37.203125 18.109375 27.296875 
Q 18.109375 17.390625 22.1875 11.75 
Q 26.265625 6.109375 33.40625 6.109375 
Q 40.53125 6.109375 44.609375 11.75 
Q 48.6875 17.390625 48.6875 27.296875 
z
" id="DejaVuSans-112"/>
    <path id="DejaVuSans-32"/>
    <path d="M 30.609375 48.390625 
Q 23.390625 48.390625 19.1875 42.75 
Q 14.984375 37.109375 14.984375 27.296875 
Q 14.984375 17.484375 19.15625 11.84375 
Q 23.34375 6.203125 30.609375 6.203125 
Q 37.796875 6.203125 41.984375 11.859375 
Q 46.1875 17.53125 46.1875 27.296875 
Q 46.1875 37.015625 41.984375 42.703125 
Q 37.796875 48.390625 30.609375 48.390625 
z
M 30.609375 56 
Q 42.328125 56 49.015625 48.375 
Q 55.71875 40.765625 55.71875 27.296875 
Q 55.71875 13.875 49.015625 6.21875 
Q 42.328125 -1.421875 30.609375 -1.421875 
Q 18.84375 -1.421875 12.171875 6.21875 
Q 5.515625 13.875 5.515625 27.296875 
Q 5.515625 40.765625 12.171875 48.375 
Q 18.84375 56 30.609375 56 
z
" id="DejaVuSans-111"/>
    <path d="M 2.984375 54.6875 
L 12.5 54.6875 
L 29.59375 8.796875 
L 46.6875 54.6875 
L 56.203125 54.6875 
L 35.6875 0 
L 23.484375 0 
z
" id="DejaVuSans-118"/>
    <path d="M 41.109375 46.296875 
Q 39.59375 47.171875 37.8125 47.578125 
Q 36.03125 48 33.890625 48 
Q 26.265625 48 22.1875 43.046875 
Q 18.109375 38.09375 18.109375 28.8125 
L 18.109375 0 
L 9.078125 0 
L 9.078125 54.6875 
L 18.109375 54.6875 
L 18.109375 46.1875 
Q 20.953125 51.171875 25.484375 53.578125 
Q 30.03125 56 36.53125 56 
Q 37.453125 56 38.578125 55.875 
Q 39.703125 55.765625 41.0625 55.515625 
z
" id="DejaVuSans-114"/>
    <path d="M 45.40625 27.984375 
Q 45.40625 37.75 41.375 43.109375 
Q 37.359375 48.484375 30.078125 48.484375 
Q 22.859375 48.484375 18.828125 43.109375 
Q 14.796875 37.75 14.796875 27.984375 
Q 14.796875 18.265625 18.828125 12.890625 
Q 22.859375 7.515625 30.078125 7.515625 
Q 37.359375 7.515625 41.375 12.890625 
Q 45.40625 18.265625 45.40625 27.984375 
z
M 54.390625 6.78125 
Q 54.390625 -7.171875 48.1875 -13.984375 
Q 42 -20.796875 29.203125 -20.796875 
Q 24.46875 -20.796875 20.265625 -20.09375 
Q 16.0625 -19.390625 12.109375 -17.921875 
L 12.109375 -9.1875 
Q 16.0625 -11.328125 19.921875 -12.34375 
Q 23.78125 -13.375 27.78125 -13.375 
Q 36.625 -13.375 41.015625 -8.765625 
Q 45.40625 -4.15625 45.40625 5.171875 
L 45.40625 9.625 
Q 42.625 4.78125 38.28125 2.390625 
Q 33.9375 0 27.875 0 
Q 17.828125 0 11.671875 7.65625 
Q 5.515625 15.328125 5.515625 27.984375 
Q 5.515625 40.671875 11.671875 48.328125 
Q 17.828125 56 27.875 56 
Q 33.9375 56 38.28125 53.609375 
Q 42.625 51.21875 45.40625 46.390625 
L 45.40625 54.6875 
L 54.390625 54.6875 
z
" id="DejaVuSans-103"/>
    <path d="M 18.3125 70.21875 
L 18.3125 54.6875 
L 36.8125 54.6875 
L 36.8125 47.703125 
L 18.3125 47.703125 
L 18.3125 18.015625 
Q 18.3125 11.328125 20.140625 9.421875 
Q 21.96875 7.515625 27.59375 7.515625 
L 36.8125 7.515625 
L 36.8125 0 
L 27.59375 0 
Q 17.1875 0 13.234375 3.875 
Q 9.28125 7.765625 9.28125 18.015625 
L 9.28125 47.703125 
L 2.6875 47.703125 
L 2.6875 54.6875 
L 9.28125 54.6875 
L 9.28125 70.21875 
z
" id="DejaVuSans-116"/>
    <path d="M 44.28125 53.078125 
L 44.28125 44.578125 
Q 40.484375 46.53125 36.375 47.5 
Q 32.28125 48.484375 27.875 48.484375 
Q 21.1875 48.484375 17.84375 46.4375 
Q 14.5 44.390625 14.5 40.28125 
Q 14.5 37.15625 16.890625 35.375 
Q 19.28125 33.59375 26.515625 31.984375 
L 29.59375 31.296875 
Q 39.15625 29.25 43.1875 25.515625 
Q 47.21875 21.78125 47.21875 15.09375 
Q 47.21875 7.46875 41.1875 3.015625 
Q 35.15625 -1.421875 24.609375 -1.421875 
Q 20.21875 -1.421875 15.453125 -0.5625 
Q 10.6875 0.296875 5.421875 2 
L 5.421875 11.28125 
Q 10.40625 8.6875 15.234375 7.390625 
Q 20.0625 6.109375 24.8125 6.109375 
Q 31.15625 6.109375 34.5625 8.28125 
Q 37.984375 10.453125 37.984375 14.40625 
Q 37.984375 18.0625 35.515625 20.015625 
Q 33.0625 21.96875 24.703125 23.78125 
L 21.578125 24.515625 
Q 13.234375 26.265625 9.515625 29.90625 
Q 5.8125 33.546875 5.8125 39.890625 
Q 5.8125 47.609375 11.28125 51.796875 
Q 16.75 56 26.8125 56 
Q 31.78125 56 36.171875 55.265625 
Q 40.578125 54.546875 44.28125 53.078125 
z
" id="DejaVuSans-115"/>
   </defs>
   <g transform="translate(140.184375 16.030125)scale(0.12 -0.12)">
    <use xlink:href="#DejaVuSans-107"/>
    <use x="56.160156" xlink:href="#DejaVuSans-97"/>
    <use x="117.439453" xlink:href="#DejaVuSans-112"/>
    <use x="180.916016" xlink:href="#DejaVuSans-112"/>
    <use x="244.392578" xlink:href="#DejaVuSans-97"/>
    <use x="305.671875" xlink:href="#DejaVuSans-46"/>
    <use x="337.458984" xlink:href="#DejaVuSans-109"/>
    <use x="434.871094" xlink:href="#DejaVuSans-101"/>
    <use x="496.394531" xlink:href="#DejaVuSans-97"/>
    <use x="557.673828" xlink:href="#DejaVuSans-110"/>
    <use x="621.052734" xlink:href="#DejaVuSans-32"/>
    <use x="652.839844" xlink:href="#DejaVuSans-111"/>
    <use x="714.021484" xlink:href="#DejaVuSans-118"/>
    <use x="773.201172" xlink:href="#DejaVuSans-101"/>
    <use x="834.724609" xlink:href="#DejaVuSans-114"/>
    <use x="875.837891" xlink:href="#DejaVuSans-32"/>
    <use x="907.625" xlink:href="#DejaVuSans-103"/>
    <use x="971.101562" xlink:href="#DejaVuSans-101"/>
    <use x="1032.625" xlink:href="#DejaVuSans-110"/>
    <use x="1096.003906" xlink:href="#DejaVuSans-101"/>
    <use x="1157.527344" xlink:href="#DejaVuSans-114"/>
    <use x="1198.640625" xlink:href="#DejaVuSans-97"/>
    <use x="1259.919922" xlink:href="#DejaVuSans-116"/>
    <use x="1299.128906" xlink:href="#DejaVuSans-105"/>
    <use x="1326.912109" xlink:href="#DejaVuSans-111"/>
    <use x="1388.09375" xlink:href="#DejaVuSans-110"/>
    <use x="1451.472656" xlink:href="#DejaVuSans-115"/>
   </g>
  </g>
 </g>
 <defs>
  <clipPath id="p2b432eb258">
   <rect height="266.112" width="357.12" x="57.6" y="41.472"/>
  </clipPath>
 </defs>
</svg>
