<?xml version="1.0" encoding="utf-8" standalone="no"?>
<!DOCTYPE svg PUBLIC "-//W3C//DTD SVG 1.1//EN"
  "http://www.w3.org/Graphics/SVG/1.1/DTD/svg11.dtd">
<!-- Created with matplotlib (https://matplotlib.org/) -->
<svg height="345.6pt" version="1.1" viewBox="0 0 460.8 345.6" width="460.8pt" xmlns="http://www.w3.org/2000/svg" xmlns:xlink="http://www.w3.org/1999/xlink">
 <defs>
  <style type="text/css">
*{stroke-linecap:butt;stroke-linejoin:round;}
  </style>
 </defs>
 <g id="figure_1">
  <g id="patch_1">
   <path d="M 0 345.6 
L 460.8 345.6 
L 460.8 0 
L 0 0 
z
" style="fill:#ffffff;"/>
  </g>
  <g id="axes_1">
   <g id="patch_2">
    <path clip-path="url(#p02f0e065d0)" d="M 88.589752 111.606597 
Q 146.030823 139.845684 203.471893 168.08477 
" style="fill:none;stroke:#000000;stroke-linecap:round;stroke-opacity:0.9;stroke-width:0.4;"/>
   </g>
   <g id="patch_3">
    <path clip-path="url(#p02f0e065d0)" d="M 88.589752 111.606597 
Q 175.622782 164.701121 262.655813 217.795645 
" style="fill:none;stroke:#000000;stroke-linecap:round;stroke-opacity:0.9;stroke-width:0.4;"/>
   </g>
   <g id="patch_4">
    <path clip-path="url(#p02f0e065d0)" d="M 88.589752 169.645195 
Q 117.047284 131.445881 145.504815 93.246568 
" style="fill:none;stroke:#000000;stroke-linecap:round;stroke-opacity:0.9;stroke-width:0.4;"/>
   </g>
   <g id="patch_5">
    <path clip-path="url(#p02f0e065d0)" d="M 88.589752 169.645195 
Q 204.878782 169.645195 321.167813 169.645195 
" style="fill:none;stroke:#000000;stroke-linecap:round;stroke-opacity:0.9;stroke-width:0.4;"/>
   </g>
   <g id="patch_6">
    <path clip-path="url(#p02f0e065d0)" d="M 88.589752 227.683792 
Q 116.441114 237.684945 144.292477 247.686097 
" style="fill:none;stroke:#000000;stroke-linecap:round;stroke-opacity:0.9;stroke-width:0.4;"/>
   </g>
   <g id="patch_7">
    <path clip-path="url(#p02f0e065d0)" d="M 88.589752 227.683792 
Q 116.843726 199.903446 145.0977 172.1231 
" style="fill:none;stroke:#000000;stroke-linecap:round;stroke-opacity:0.9;stroke-width:0.4;"/>
   </g>
   <g id="patch_8">
    <path clip-path="url(#p02f0e065d0)" d="M 88.589752 227.683792 
Q 234.396885 238.155376 380.204018 248.62696 
" style="fill:none;stroke:#000000;stroke-linecap:round;stroke-opacity:0.9;stroke-width:0.4;"/>
   </g>
   <g id="patch_9">
    <path clip-path="url(#p02f0e065d0)" d="M 88.589752 285.72239 
Q 175.47687 253.297291 262.363987 220.872192 
" style="fill:none;stroke:#000000;stroke-linecap:round;stroke-opacity:0.9;stroke-width:0.4;"/>
   </g>
   <g id="patch_10">
    <path clip-path="url(#p02f0e065d0)" d="M 147.617851 90.410183 
Q 175.364733 90.410183 203.111614 90.410183 
" style="fill:none;stroke:#000000;stroke-linecap:round;stroke-opacity:0.9;stroke-width:0.4;"/>
   </g>
   <g id="patch_11">
    <path clip-path="url(#p02f0e065d0)" d="M 147.617851 248.880207 
Q 175.364733 248.880207 203.111614 248.880207 
" style="fill:none;stroke:#000000;stroke-linecap:round;stroke-opacity:0.9;stroke-width:0.4;"/>
   </g>
   <g id="patch_12">
    <path clip-path="url(#p02f0e065d0)" d="M 147.617851 169.645195 
Q 175.364733 169.645195 203.111614 169.645195 
" style="fill:none;stroke:#000000;stroke-linecap:round;stroke-opacity:0.9;stroke-width:0.4;"/>
   </g>
   <g id="patch_13">
    <path clip-path="url(#p02f0e065d0)" d="M 206.64595 169.645195 
Q 234.810755 193.498364 262.97556 217.351533 
" style="fill:none;stroke:#000000;stroke-linecap:round;stroke-opacity:0.9;stroke-width:0.4;"/>
   </g>
   <g id="patch_14">
    <path clip-path="url(#p02f0e065d0)" d="M 206.64595 169.645195 
Q 234.810755 145.792026 262.97556 121.938856 
" style="fill:none;stroke:#000000;stroke-linecap:round;stroke-opacity:0.9;stroke-width:0.4;"/>
   </g>
   <g id="patch_15">
    <path clip-path="url(#p02f0e065d0)" d="M 206.64595 248.880207 
Q 264.205913 210.248061 321.765876 171.615914 
" style="fill:none;stroke:#000000;stroke-linecap:round;stroke-opacity:0.9;stroke-width:0.4;"/>
   </g>
   <g id="patch_16">
    <path clip-path="url(#p02f0e065d0)" d="M 206.64595 90.410183 
Q 234.576574 104.247376 262.507198 118.084569 
" style="fill:none;stroke:#000000;stroke-linecap:round;stroke-opacity:0.9;stroke-width:0.4;"/>
   </g>
   <g id="patch_17">
    <path clip-path="url(#p02f0e065d0)" d="M 206.64595 90.410183 
Q 293.573599 129.305293 380.501248 168.200404 
" style="fill:none;stroke:#000000;stroke-linecap:round;stroke-opacity:0.9;stroke-width:0.4;"/>
   </g>
   <g id="patch_18">
    <path clip-path="url(#p02f0e065d0)" d="M 265.67405 219.636922 
Q 323.510526 156.327927 381.347003 93.018932 
" style="fill:none;stroke:#000000;stroke-linecap:round;stroke-opacity:0.9;stroke-width:0.4;"/>
   </g>
   <g id="patch_19">
    <path clip-path="url(#p02f0e065d0)" d="M 265.67405 119.653468 
Q 293.838855 143.506637 322.00366 167.359806 
" style="fill:none;stroke:#000000;stroke-linecap:round;stroke-opacity:0.9;stroke-width:0.4;"/>
   </g>
   <g id="patch_20">
    <path clip-path="url(#p02f0e065d0)" d="M 265.67405 119.653468 
Q 323.075489 143.960511 380.476929 168.267554 
" style="fill:none;stroke:#000000;stroke-linecap:round;stroke-opacity:0.9;stroke-width:0.4;"/>
   </g>
   <g id="patch_21">
    <path clip-path="url(#p02f0e065d0)" d="M 324.702149 169.645195 
Q 353.15968 131.445881 381.617212 93.246568 
" style="fill:none;stroke:#000000;stroke-linecap:round;stroke-opacity:0.9;stroke-width:0.4;"/>
   </g>
   <g id="PathCollection_1">
    <defs>
     <path d="M 0 3.535534 
C 0.937635 3.535534 1.836992 3.163008 2.5 2.5 
C 3.163008 1.836992 3.535534 0.937635 3.535534 0 
C 3.535534 -0.937635 3.163008 -1.836992 2.5 -2.5 
C 1.836992 -3.163008 0.937635 -3.535534 0 -3.535534 
C -0.937635 -3.535534 -1.836992 -3.163008 -2.5 -2.5 
C -3.163008 -1.836992 -3.535534 -0.937635 -3.535534 0 
C -3.535534 0.937635 -3.163008 1.836992 -2.5 2.5 
C -1.836992 3.163008 -0.937635 3.535534 0 3.535534 
z
" id="C0_0_0116005889"/>
    </defs>
    <g clip-path="url(#p02f0e065d0)">
     <use style="fill:#fdb462;fill-opacity:0.9;" x="88.589752" xlink:href="#C0_0_0116005889" y="53.568"/>
    </g>
    <g clip-path="url(#p02f0e065d0)">
     <use style="fill:#fdb462;fill-opacity:0.9;" x="88.589752" xlink:href="#C0_0_0116005889" y="111.606597"/>
    </g>
    <g clip-path="url(#p02f0e065d0)">
     <use style="fill:#fdb462;fill-opacity:0.9;" x="88.589752" xlink:href="#C0_0_0116005889" y="169.645195"/>
    </g>
    <g clip-path="url(#p02f0e065d0)">
     <use style="fill:#fdb462;fill-opacity:0.9;" x="88.589752" xlink:href="#C0_0_0116005889" y="227.683792"/>
    </g>
    <g clip-path="url(#p02f0e065d0)">
     <use style="fill:#ffed6f;fill-opacity:0.9;" x="88.589752" xlink:href="#C0_0_0116005889" y="285.72239"/>
    </g>
    <g clip-path="url(#p02f0e065d0)">
     <use style="fill:#80b1d3;fill-opacity:0.9;" x="147.617851" xlink:href="#C0_0_0116005889" y="90.410183"/>
    </g>
    <g clip-path="url(#p02f0e065d0)">
     <use style="fill:#80b1d3;fill-opacity:0.9;" x="147.617851" xlink:href="#C0_0_0116005889" y="248.880207"/>
    </g>
    <g clip-path="url(#p02f0e065d0)">
     <use style="fill:#80b1d3;fill-opacity:0.9;" x="147.617851" xlink:href="#C0_0_0116005889" y="169.645195"/>
    </g>
    <g clip-path="url(#p02f0e065d0)">
     <use style="fill:#80b1d3;fill-opacity:0.9;" x="206.64595" xlink:href="#C0_0_0116005889" y="169.645195"/>
    </g>
    <g clip-path="url(#p02f0e065d0)">
     <use style="fill:#80b1d3;fill-opacity:0.9;" x="206.64595" xlink:href="#C0_0_0116005889" y="248.880207"/>
    </g>
    <g clip-path="url(#p02f0e065d0)">
     <use style="fill:#80b1d3;fill-opacity:0.9;" x="206.64595" xlink:href="#C0_0_0116005889" y="90.410183"/>
    </g>
    <g clip-path="url(#p02f0e065d0)">
     <use style="fill:#80b1d3;fill-opacity:0.9;" x="265.67405" xlink:href="#C0_0_0116005889" y="219.636922"/>
    </g>
    <g clip-path="url(#p02f0e065d0)">
     <use style="fill:#80b1d3;fill-opacity:0.9;" x="265.67405" xlink:href="#C0_0_0116005889" y="119.653468"/>
    </g>
    <g clip-path="url(#p02f0e065d0)">
     <use style="fill:#80b1d3;fill-opacity:0.9;" x="324.702149" xlink:href="#C0_0_0116005889" y="169.645195"/>
    </g>
    <g clip-path="url(#p02f0e065d0)">
     <use style="fill:#b3de69;fill-opacity:0.9;" x="383.730248" xlink:href="#C0_0_0116005889" y="90.410183"/>
    </g>
    <g clip-path="url(#p02f0e065d0)">
     <use style="fill:#b3de69;fill-opacity:0.9;" x="383.730248" xlink:href="#C0_0_0116005889" y="169.645195"/>
    </g>
    <g clip-path="url(#p02f0e065d0)">
     <use style="fill:#b3de69;fill-opacity:0.9;" x="383.730248" xlink:href="#C0_0_0116005889" y="248.880207"/>
    </g>
   </g>
  </g>
 </g>
 <defs>
  <clipPath id="p02f0e065d0">
   <rect height="266.112" width="357.12" x="57.6" y="41.472"/>
  </clipPath>
 </defs>
</svg>
