<?xml version="1.0" encoding="utf-8" standalone="no"?>
<!DOCTYPE svg PUBLIC "-//W3C//DTD SVG 1.1//EN"
  "http://www.w3.org/Graphics/SVG/1.1/DTD/svg11.dtd">
<!-- Created with matplotlib (https://matplotlib.org/) -->
<svg height="345.6pt" version="1.1" viewBox="0 0 460.8 345.6" width="460.8pt" xmlns="http://www.w3.org/2000/svg" xmlns:xlink="http://www.w3.org/1999/xlink">
 <defs>
  <style type="text/css">
*{stroke-linecap:butt;stroke-linejoin:round;}
  </style>
 </defs>
 <g id="figure_1">
  <g id="patch_1">
   <path d="M 0 345.6 
L 460.8 345.6 
L 460.8 0 
L 0 0 
z
" style="fill:#ffffff;"/>
  </g>
  <g id="axes_1">
   <g id="patch_2">
    <path clip-path="url(#p9fcec08a45)" d="M 88.589752 114.048 
Q 116.682501 93.245812 144.775251 72.443623 
" style="fill:none;stroke:#000000;stroke-linecap:round;stroke-opacity:0.9;stroke-width:0.4;"/>
   </g>
   <g id="patch_3">
    <path clip-path="url(#p9fcec08a45)" d="M 88.589752 114.048 
Q 175.366084 118.157066 262.142415 122.266132 
" style="fill:none;stroke:#000000;stroke-linecap:round;stroke-opacity:0.9;stroke-width:0.4;"/>
   </g>
   <g id="patch_4">
    <path clip-path="url(#p9fcec08a45)" d="M 88.589752 174.528 
Q 116.581623 190.99729 144.573494 207.466581 
" style="fill:none;stroke:#000000;stroke-linecap:round;stroke-opacity:0.9;stroke-width:0.4;"/>
   </g>
   <g id="patch_5">
    <path clip-path="url(#p9fcec08a45)" d="M 88.589752 174.528 
Q 204.878782 174.528 321.167813 174.528 
" style="fill:none;stroke:#000000;stroke-linecap:round;stroke-opacity:0.9;stroke-width:0.4;"/>
   </g>
   <g id="patch_6">
    <path clip-path="url(#p9fcec08a45)" d="M 88.589752 235.008 
Q 117.17158 188.906754 145.753408 142.805509 
" style="fill:none;stroke:#000000;stroke-linecap:round;stroke-opacity:0.9;stroke-width:0.4;"/>
   </g>
   <g id="patch_7">
    <path clip-path="url(#p9fcec08a45)" d="M 88.589752 235.008 
Q 116.682501 255.810188 144.775251 276.612377 
" style="fill:none;stroke:#000000;stroke-linecap:round;stroke-opacity:0.9;stroke-width:0.4;"/>
   </g>
   <g id="patch_8">
    <path clip-path="url(#p9fcec08a45)" d="M 88.589752 235.008 
Q 234.396885 245.920073 380.204018 256.832145 
" style="fill:none;stroke:#000000;stroke-linecap:round;stroke-opacity:0.9;stroke-width:0.4;"/>
   </g>
   <g id="patch_9">
    <path clip-path="url(#p9fcec08a45)" d="M 147.617851 209.257758 
Q 204.896796 217.682914 262.175741 226.108071 
" style="fill:none;stroke:#000000;stroke-linecap:round;stroke-opacity:0.9;stroke-width:0.4;"/>
   </g>
   <g id="patch_10">
    <path clip-path="url(#p9fcec08a45)" d="M 147.617851 139.798242 
Q 263.942909 116.229842 380.267967 92.661441 
" style="fill:none;stroke:#000000;stroke-linecap:round;stroke-opacity:0.9;stroke-width:0.4;"/>
   </g>
   <g id="patch_11">
    <path clip-path="url(#p9fcec08a45)" d="M 147.617851 278.717273 
Q 205.580425 201.98587 263.543 125.254467 
" style="fill:none;stroke:#000000;stroke-linecap:round;stroke-opacity:0.9;stroke-width:0.4;"/>
   </g>
   <g id="patch_12">
    <path clip-path="url(#p9fcec08a45)" d="M 147.617851 278.717273 
Q 264.058199 227.335663 380.498546 175.954053 
" style="fill:none;stroke:#000000;stroke-linecap:round;stroke-opacity:0.9;stroke-width:0.4;"/>
   </g>
   <g id="patch_13">
    <path clip-path="url(#p9fcec08a45)" d="M 147.617851 70.338727 
Q 176.260927 120.896025 204.904002 171.453323 
" style="fill:none;stroke:#000000;stroke-linecap:round;stroke-opacity:0.9;stroke-width:0.4;"/>
   </g>
   <g id="patch_14">
    <path clip-path="url(#p9fcec08a45)" d="M 206.64595 174.528 
Q 234.835975 199.406814 263.025999 224.285627 
" style="fill:none;stroke:#000000;stroke-linecap:round;stroke-opacity:0.9;stroke-width:0.4;"/>
   </g>
   <g id="patch_15">
    <path clip-path="url(#p9fcec08a45)" d="M 206.64595 174.528 
Q 234.835975 149.649186 263.025999 124.770373 
" style="fill:none;stroke:#000000;stroke-linecap:round;stroke-opacity:0.9;stroke-width:0.4;"/>
   </g>
   <g id="patch_16">
    <path clip-path="url(#p9fcec08a45)" d="M 265.67405 226.622636 
Q 293.864074 201.743823 322.054099 176.865009 
" style="fill:none;stroke:#000000;stroke-linecap:round;stroke-opacity:0.9;stroke-width:0.4;"/>
   </g>
   <g id="patch_17">
    <path clip-path="url(#p9fcec08a45)" d="M 265.67405 122.433364 
Q 293.864074 147.312177 322.054099 172.190991 
" style="fill:none;stroke:#000000;stroke-linecap:round;stroke-opacity:0.9;stroke-width:0.4;"/>
   </g>
   <g id="patch_18">
    <path clip-path="url(#p9fcec08a45)" d="M 324.702149 174.528 
Q 353.188503 134.68151 381.674857 94.83502 
" style="fill:none;stroke:#000000;stroke-linecap:round;stroke-opacity:0.9;stroke-width:0.4;"/>
   </g>
   <g id="patch_19">
    <path clip-path="url(#p9fcec08a45)" d="M 324.702149 174.528 
Q 352.44903 174.528 380.195912 174.528 
" style="fill:none;stroke:#000000;stroke-linecap:round;stroke-opacity:0.9;stroke-width:0.4;"/>
   </g>
   <g id="patch_20">
    <path clip-path="url(#p9fcec08a45)" d="M 324.702149 174.528 
Q 353.188503 214.37449 381.674857 254.22098 
" style="fill:none;stroke:#000000;stroke-linecap:round;stroke-opacity:0.9;stroke-width:0.4;"/>
   </g>
   <g id="PathCollection_1">
    <defs>
     <path d="M 0 3.535534 
C 0.937635 3.535534 1.836992 3.163008 2.5 2.5 
C 3.163008 1.836992 3.535534 0.937635 3.535534 0 
C 3.535534 -0.937635 3.163008 -1.836992 2.5 -2.5 
C 1.836992 -3.163008 0.937635 -3.535534 0 -3.535534 
C -0.937635 -3.535534 -1.836992 -3.163008 -2.5 -2.5 
C -3.163008 -1.836992 -3.535534 -0.937635 -3.535534 0 
C -3.535534 0.937635 -3.163008 1.836992 -2.5 2.5 
C -1.836992 3.163008 -0.937635 3.535534 0 3.535534 
z
" id="C0_0_4c2e10837d"/>
    </defs>
    <g clip-path="url(#p9fcec08a45)">
     <use style="fill:#fdb462;fill-opacity:0.9;" x="88.589752" xlink:href="#C0_0_4c2e10837d" y="53.568"/>
    </g>
    <g clip-path="url(#p9fcec08a45)">
     <use style="fill:#fdb462;fill-opacity:0.9;" x="88.589752" xlink:href="#C0_0_4c2e10837d" y="114.048"/>
    </g>
    <g clip-path="url(#p9fcec08a45)">
     <use style="fill:#fdb462;fill-opacity:0.9;" x="88.589752" xlink:href="#C0_0_4c2e10837d" y="174.528"/>
    </g>
    <g clip-path="url(#p9fcec08a45)">
     <use style="fill:#fdb462;fill-opacity:0.9;" x="88.589752" xlink:href="#C0_0_4c2e10837d" y="235.008"/>
    </g>
    <g clip-path="url(#p9fcec08a45)">
     <use style="fill:#ffed6f;fill-opacity:0.9;" x="88.589752" xlink:href="#C0_0_4c2e10837d" y="295.488"/>
    </g>
    <g clip-path="url(#p9fcec08a45)">
     <use style="fill:#80b1d3;fill-opacity:0.9;" x="147.617851" xlink:href="#C0_0_4c2e10837d" y="209.257758"/>
    </g>
    <g clip-path="url(#p9fcec08a45)">
     <use style="fill:#80b1d3;fill-opacity:0.9;" x="147.617851" xlink:href="#C0_0_4c2e10837d" y="139.798242"/>
    </g>
    <g clip-path="url(#p9fcec08a45)">
     <use style="fill:#80b1d3;fill-opacity:0.9;" x="147.617851" xlink:href="#C0_0_4c2e10837d" y="278.717273"/>
    </g>
    <g clip-path="url(#p9fcec08a45)">
     <use style="fill:#80b1d3;fill-opacity:0.9;" x="147.617851" xlink:href="#C0_0_4c2e10837d" y="70.338727"/>
    </g>
    <g clip-path="url(#p9fcec08a45)">
     <use style="fill:#80b1d3;fill-opacity:0.9;" x="206.64595" xlink:href="#C0_0_4c2e10837d" y="174.528"/>
    </g>
    <g clip-path="url(#p9fcec08a45)">
     <use style="fill:#80b1d3;fill-opacity:0.9;" x="265.67405" xlink:href="#C0_0_4c2e10837d" y="226.622636"/>
    </g>
    <g clip-path="url(#p9fcec08a45)">
     <use style="fill:#80b1d3;fill-opacity:0.9;" x="265.67405" xlink:href="#C0_0_4c2e10837d" y="122.433364"/>
    </g>
    <g clip-path="url(#p9fcec08a45)">
     <use style="fill:#80b1d3;fill-opacity:0.9;" x="324.702149" xlink:href="#C0_0_4c2e10837d" y="174.528"/>
    </g>
    <g clip-path="url(#p9fcec08a45)">
     <use style="fill:#b3de69;fill-opacity:0.9;" x="383.730248" xlink:href="#C0_0_4c2e10837d" y="91.959955"/>
    </g>
    <g clip-path="url(#p9fcec08a45)">
     <use style="fill:#b3de69;fill-opacity:0.9;" x="383.730248" xlink:href="#C0_0_4c2e10837d" y="174.528"/>
    </g>
    <g clip-path="url(#p9fcec08a45)">
     <use style="fill:#b3de69;fill-opacity:0.9;" x="383.730248" xlink:href="#C0_0_4c2e10837d" y="257.096045"/>
    </g>
   </g>
  </g>
 </g>
 <defs>
  <clipPath id="p9fcec08a45">
   <rect height="266.112" width="357.12" x="57.6" y="41.472"/>
  </clipPath>
 </defs>
</svg>
