<?xml version="1.0" encoding="utf-8" standalone="no"?>
<!DOCTYPE svg PUBLIC "-//W3C//DTD SVG 1.1//EN"
  "http://www.w3.org/Graphics/SVG/1.1/DTD/svg11.dtd">
<!-- Created with matplotlib (https://matplotlib.org/) -->
<svg height="345.6pt" version="1.1" viewBox="0 0 460.8 345.6" width="460.8pt" xmlns="http://www.w3.org/2000/svg" xmlns:xlink="http://www.w3.org/1999/xlink">
 <defs>
  <style type="text/css">
*{stroke-linecap:butt;stroke-linejoin:round;}
  </style>
 </defs>
 <g id="figure_1">
  <g id="patch_1">
   <path d="M 0 345.6 
L 460.8 345.6 
L 460.8 0 
L 0 0 
z
" style="fill:#ffffff;"/>
  </g>
  <g id="axes_1">
   <g id="patch_2">
    <path d="M 57.6 307.584 
L 414.72 307.584 
L 414.72 41.472 
L 57.6 41.472 
z
" style="fill:#ffffff;"/>
   </g>
   <g id="PolyCollection_1">
    <path clip-path="url(#pb634b5202e)" d="M 73.832727 210.184756 
L 73.832727 210.184756 
L 75.464157 210.184756 
L 77.095587 210.184756 
L 78.727017 210.184756 
L 80.358447 210.184756 
L 81.989877 210.184756 
L 83.621307 210.184756 
L 85.252736 219.738719 
L 86.884166 230.998748 
L 88.515596 219.397506 
L 90.147026 214.279312 
L 91.778456 227.927831 
L 93.409886 223.90233 
L 95.041316 210.465481 
L 96.672746 210.184756 
L 98.304175 210.184756 
L 99.935605 210.184756 
L 101.567035 220.165236 
L 103.198465 210.184756 
L 104.829895 210.184756 
L 106.461325 210.184756 
L 108.092755 210.184756 
L 109.724185 210.184756 
L 111.355614 210.184756 
L 112.987044 210.184756 
L 114.618474 210.184756 
L 116.249904 210.184756 
L 117.881334 210.184756 
L 119.512764 210.184756 
L 121.144194 210.184756 
L 122.775624 208.176672 
L 124.407053 210.184756 
L 126.038483 210.184756 
L 127.669913 210.184756 
L 129.301343 210.184756 
L 130.932773 210.184756 
L 132.564203 210.184756 
L 134.195633 210.184756 
L 135.827063 209.928846 
L 137.458492 197.218663 
L 139.089922 210.184756 
L 140.721352 210.184756 
L 142.352782 210.184756 
L 143.984212 206.60202 
L 145.615642 208.222781 
L 147.247072 210.184756 
L 148.878502 209.50233 
L 150.509931 210.184756 
L 152.141361 210.184756 
L 153.772791 210.184756 
L 155.404221 210.184756 
L 157.035651 200.118973 
L 158.667081 210.184756 
L 160.298511 210.184756 
L 161.929941 209.928846 
L 163.56137 209.928846 
L 165.1928 210.184756 
L 166.82423 202.678071 
L 168.45566 210.184756 
L 170.08709 210.184756 
L 171.71852 210.184756 
L 173.34995 210.184756 
L 174.98138 210.184756 
L 176.61281 210.184756 
L 178.244239 210.184756 
L 179.875669 210.184756 
L 181.507099 210.184756 
L 183.138529 210.184756 
L 184.769959 208.214526 
L 186.401389 210.184756 
L 188.032819 210.184756 
L 189.664249 210.184756 
L 191.295678 210.184756 
L 192.927108 210.184756 
L 194.558538 210.184756 
L 196.189968 210.184756 
L 197.821398 210.184756 
L 199.452828 210.184756 
L 201.084258 210.184756 
L 202.715688 210.184756 
L 204.347117 210.184756 
L 205.978547 210.184756 
L 207.609977 210.184756 
L 209.241407 210.184756 
L 210.872837 210.184756 
L 212.504267 210.184756 
L 214.135697 210.184756 
L 215.767127 210.184756 
L 217.398556 177.172401 
L 219.029986 196.450934 
L 220.661416 170.494375 
L 222.292846 170.355896 
L 223.924276 165.734657 
L 225.555706 162.321512 
L 227.187136 210.184756 
L 228.818566 190.394403 
L 230.449995 176.063458 
L 232.081425 188.005913 
L 233.712855 168.21556 
L 235.344285 200.886702 
L 236.975715 176.063458 
L 238.607145 145.483339 
L 240.238575 159.344023 
L 241.870005 198.839425 
L 243.501434 189.456068 
L 245.132864 196.792147 
L 246.764294 187.323487 
L 248.395724 193.124107 
L 250.027154 175.381032 
L 251.658584 186.982274 
L 253.290014 142.671504 
L 254.921444 162.756152 
L 256.552873 193.124107 
L 258.184303 167.191921 
L 259.815733 159.344023 
L 261.447163 177.001794 
L 263.078593 210.184756 
L 264.710023 170.262838 
L 266.341453 186.982274 
L 267.972883 177.513614 
L 269.604312 159.685236 
L 271.235742 159.599932 
L 272.867172 176.063458 
L 274.498602 169.751018 
L 276.130032 193.124107 
L 277.761462 155.07886 
L 279.392892 176.063458 
L 281.024322 176.063458 
L 282.655751 186.470454 
L 284.287181 193.124107 
L 285.918611 199.010031 
L 287.550041 186.982274 
L 289.181471 144.415955 
L 290.812901 160.197055 
L 292.444331 165.393135 
L 294.075761 176.575278 
L 295.70719 175.381032 
L 297.33862 165.436096 
L 298.97005 183.399537 
L 300.60148 192.441681 
L 302.23291 167.191921 
L 303.86434 210.184756 
L 305.49577 163.779791 
L 307.1272 170.262838 
L 308.75863 169.921625 
L 310.390059 201.479763 
L 312.021489 204.384135 
L 313.652919 164.406042 
L 315.284349 176.063458 
L 316.915779 190.05319 
L 318.547209 165.415606 
L 320.178639 158.277732 
L 321.810069 177.854827 
L 323.441498 161.157263 
L 325.072928 186.470454 
L 326.704358 210.184756 
L 328.335788 170.604051 
L 329.967218 200.801399 
L 331.598648 157.688364 
L 333.230078 193.124107 
L 334.861508 198.583515 
L 336.492937 193.891836 
L 338.124367 184.934996 
L 339.755797 176.831188 
L 341.387227 195.853811 
L 343.018657 153.833804 
L 344.650087 176.745884 
L 346.281517 176.745884 
L 347.912947 160.367661 
L 349.544376 192.271075 
L 351.175806 190.394403 
L 352.807236 175.039819 
L 354.438666 176.063458 
L 356.070096 160.538268 
L 357.701526 166.216021 
L 359.332956 168.727379 
L 360.964386 177.769523 
L 362.595815 158.661597 
L 364.227245 163.851766 
L 365.858675 152.17855 
L 367.490105 160.367661 
L 369.121535 162.073726 
L 370.752965 163.746947 
L 372.384395 162.77346 
L 374.015825 180.413924 
L 375.647254 164.590172 
L 377.278684 210.184756 
L 378.910114 209.172749 
L 380.541544 195.256688 
L 382.172974 160.708874 
L 383.804404 195.683205 
L 385.435834 176.063458 
L 387.067264 163.097365 
L 388.698693 189.882584 
L 390.330123 178.793162 
L 391.961553 163.392075 
L 393.592983 180.925743 
L 395.224413 170.945264 
L 396.855843 154.822951 
L 398.487273 176.063458 
L 398.487273 150.131272 
L 398.487273 150.131272 
L 396.855843 112.256632 
L 395.224413 138.530031 
L 393.592983 129.8505 
L 391.961553 129.178663 
L 390.330123 152.860976 
L 388.698693 173.674968 
L 387.067264 129.317281 
L 385.435834 156.273106 
L 383.804404 183.228931 
L 382.172974 143.221709 
L 380.541544 190.991526 
L 378.910114 140.236096 
L 377.278684 193.124107 
L 375.647254 140.577309 
L 374.015825 143.209918 
L 372.384395 124.881512 
L 370.752965 146.608683 
L 369.121535 143.989439 
L 367.490105 149.790059 
L 365.858675 108.247379 
L 364.227245 150.598409 
L 362.595815 126.618596 
L 360.964386 145.013078 
L 359.332956 151.410821 
L 357.701526 137.05221 
L 356.070096 130.767436 
L 354.438666 156.273106 
L 352.807236 138.112045 
L 351.175806 156.273106 
L 349.544376 166.576753 
L 347.912947 134.861992 
L 346.281517 156.273106 
L 344.650087 154.839199 
L 343.018657 123.175447 
L 341.387227 181.522866 
L 339.755797 152.860976 
L 338.124367 141.541213 
L 336.492937 182.546505 
L 334.861508 181.522866 
L 333.230078 165.676427 
L 331.598648 135.17932 
L 329.967218 181.522866 
L 328.335788 137.079876 
L 326.704358 192.953501 
L 325.072928 165.138174 
L 323.441498 135.05186 
L 321.810069 165.918255 
L 320.178639 130.75464 
L 318.547209 140.786302 
L 316.915779 163.682302 
L 315.284349 164.462217 
L 313.652919 135.081602 
L 312.021489 183.228931 
L 310.390059 135.299634 
L 308.75863 137.847605 
L 307.1272 135.235561 
L 305.49577 134.435475 
L 303.86434 210.184756 
L 302.23291 129.658494 
L 300.60148 152.860976 
L 298.97005 149.790059 
L 297.33862 135.629721 
L 295.70719 153.884615 
L 294.075761 156.273106 
L 292.444331 136.167131 
L 290.812901 135.117901 
L 289.181471 129.086646 
L 287.550041 155.761286 
L 285.918611 181.522866 
L 284.287181 181.522866 
L 282.655751 156.273106 
L 281.024322 152.860976 
L 279.392892 152.860976 
L 277.761462 106.882528 
L 276.130032 183.228931 
L 274.498602 129.317281 
L 272.867172 154.567041 
L 271.235742 146.719142 
L 269.604312 139.894883 
L 267.972883 166.168282 
L 266.341453 152.860976 
L 264.710023 139.734685 
L 263.078593 183.228931 
L 261.447163 164.462217 
L 259.815733 142.006138 
L 258.184303 138.063035 
L 256.552873 187.494093 
L 254.921444 129.8291 
L 253.290014 71.993501 
L 251.658584 154.055221 
L 250.027154 145.000282 
L 248.395724 181.522866 
L 246.764294 159.344023 
L 245.132864 181.522866 
L 243.501434 163.609185 
L 241.870005 183.228931 
L 240.238575 143.989439 
L 238.607145 98.693416 
L 236.975715 143.721897 
L 235.344285 183.228931 
L 233.712855 144.211227 
L 232.081425 156.273106 
L 230.449995 160.367661 
L 228.818566 158.661597 
L 227.187136 190.735616 
L 225.555706 141.942161 
L 223.924276 141.942161 
L 222.292846 159.00281 
L 220.661416 159.00281 
L 219.029986 176.063458 
L 217.398556 159.00281 
L 215.767127 176.063458 
L 214.135697 176.063458 
L 212.504267 159.00281 
L 210.872837 176.063458 
L 209.241407 193.124107 
L 207.609977 184.398804 
L 205.978547 158.661597 
L 204.347117 176.063458 
L 202.715688 210.184756 
L 201.084258 185.702725 
L 199.452828 191.55666 
L 197.821398 167.462233 
L 196.189968 193.46532 
L 194.558538 192.348331 
L 192.927108 198.924728 
L 191.295678 177.700062 
L 189.664249 195.853811 
L 188.032819 176.063458 
L 186.401389 186.299848 
L 184.769959 175.244547 
L 183.138529 210.184756 
L 181.507099 172.566025 
L 179.875669 202.251554 
L 178.244239 197.559876 
L 176.61281 175.210426 
L 174.98138 200.90609 
L 173.34995 204.469439 
L 171.71852 193.806533 
L 170.08709 197.256196 
L 168.45566 191.784616 
L 166.82423 175.287199 
L 165.1928 188.347126 
L 163.56137 179.241004 
L 161.929941 180.43525 
L 160.298511 193.124107 
L 158.667081 193.124107 
L 157.035651 160.636695 
L 155.404221 181.120519 
L 153.772791 176.404671 
L 152.141361 188.005913 
L 150.509931 194.679251 
L 148.878502 176.063458 
L 147.247072 179.451216 
L 145.615642 182.887718 
L 143.984212 162.073726 
L 142.352782 207.710962 
L 140.721352 181.181653 
L 139.089922 190.05319 
L 137.458492 168.897986 
L 135.827063 176.234065 
L 134.195633 190.05319 
L 132.564203 193.46532 
L 130.932773 194.147746 
L 129.301343 191.403419 
L 127.669913 184.456781 
L 126.038483 191.673952 
L 124.407053 193.038804 
L 122.775624 143.307013 
L 121.144194 179.902104 
L 119.512764 179.902104 
L 117.881334 190.786023 
L 116.249904 183.143628 
L 114.618474 195.853811 
L 112.987044 206.857929 
L 111.355614 193.46532 
L 109.724185 193.124107 
L 108.092755 175.722245 
L 106.461325 192.990059 
L 104.829895 192.782894 
L 103.198465 197.389269 
L 101.567035 196.536237 
L 99.935605 193.124107 
L 98.304175 188.858945 
L 96.672746 193.806533 
L 95.041316 191.076829 
L 93.409886 198.152733 
L 91.778456 210.184756 
L 90.147026 204.042922 
L 88.515596 210.184756 
L 86.884166 210.184756 
L 85.252736 210.184756 
L 83.621307 210.184756 
L 81.989877 210.184756 
L 80.358447 210.184756 
L 78.727017 207.540355 
L 77.095587 210.184756 
L 75.464157 210.184756 
L 73.832727 210.184756 
z
" style="fill:#1f77b4;fill-opacity:0.2;"/>
   </g>
   <g id="PolyCollection_2">
    <path clip-path="url(#pb634b5202e)" d="M 73.832727 210.184756 
L 73.832727 210.184756 
L 75.464157 211.890821 
L 77.095587 210.184756 
L 78.727017 225.198127 
L 80.358447 263.755193 
L 81.989877 246.012118 
L 83.621307 244.306054 
L 85.252736 248.861247 
L 86.884166 277.403712 
L 88.515596 295.488 
L 90.147026 250.56657 
L 91.778456 279.45099 
L 93.409886 250.980179 
L 95.041316 260.343063 
L 96.672746 251.256688 
L 98.304175 250.7891 
L 99.935605 278.427351 
L 101.567035 261.366702 
L 103.198465 244.306054 
L 104.829895 244.306054 
L 106.461325 252.153952 
L 108.092755 237.823007 
L 109.724185 259.319425 
L 111.355614 246.012118 
L 112.987044 278.427351 
L 114.618474 244.647267 
L 116.249904 244.484784 
L 117.881334 261.025489 
L 119.512764 234.75209 
L 121.144194 241.235137 
L 122.775624 217.640891 
L 124.407053 235.775729 
L 126.038483 266.484897 
L 127.669913 227.803753 
L 129.301343 247.035757 
L 130.932773 269.555814 
L 132.564203 249.765461 
L 134.195633 245.947126 
L 135.827063 238.310454 
L 137.458492 221.481343 
L 139.089922 263.41398 
L 140.721352 225.53934 
L 142.352782 256.248508 
L 143.984212 226.904192 
L 145.615642 230.998748 
L 147.247072 250.447887 
L 148.878502 227.245405 
L 150.509931 286.27525 
L 152.141361 247.701123 
L 153.772791 248.059396 
L 155.404221 258.636999 
L 157.035651 226.562979 
L 158.667081 259.319425 
L 160.298511 276.380073 
L 161.929941 239.870285 
L 163.56137 243.964841 
L 165.1928 247.206364 
L 166.82423 243.009444 
L 168.45566 243.282415 
L 170.08709 267.849749 
L 171.71852 277.062499 
L 173.34995 268.873388 
L 174.98138 226.221766 
L 176.61281 220.421145 
L 178.244239 243.964841 
L 179.875669 265.120045 
L 181.507099 237.140581 
L 183.138529 295.488 
L 184.769959 229.633896 
L 186.401389 242.941202 
L 188.032819 245.329693 
L 189.664249 269.897027 
L 191.295678 257.272147 
L 192.927108 267.167323 
L 194.558538 244.306054 
L 196.189968 278.427351 
L 197.821398 226.562979 
L 199.452828 227.245405 
L 201.084258 244.306054 
L 202.715688 295.488 
L 204.347117 223.833275 
L 205.978547 227.245405 
L 207.609977 261.025489 
L 209.241407 277.744925 
L 210.872837 258.295786 
L 212.504267 247.37697 
L 214.135697 234.922697 
L 215.767127 236.799368 
L 217.398556 234.27129 
L 219.029986 218.71508 
L 220.661416 210.184756 
L 222.292846 210.184756 
L 223.924276 210.184756 
L 225.555706 210.184756 
L 227.187136 210.184756 
L 228.818566 210.184756 
L 230.449995 213.596886 
L 232.081425 221.785997 
L 233.712855 210.184756 
L 235.344285 258.636999 
L 236.975715 210.184756 
L 238.607145 210.184756 
L 240.238575 210.184756 
L 241.870005 230.998748 
L 243.501434 227.245405 
L 245.132864 261.366702 
L 246.764294 210.184756 
L 248.395724 258.636999 
L 250.027154 210.184756 
L 251.658584 210.184756 
L 253.290014 210.184756 
L 254.921444 210.184756 
L 256.552873 227.245405 
L 258.184303 210.184756 
L 259.815733 210.184756 
L 261.447163 218.373867 
L 263.078593 244.306054 
L 264.710023 227.586618 
L 266.341453 210.184756 
L 267.972883 227.927831 
L 269.604312 210.184756 
L 271.235742 210.184756 
L 272.867172 210.184756 
L 274.498602 210.184756 
L 276.130032 225.198127 
L 277.761462 210.184756 
L 279.392892 210.184756 
L 281.024322 227.245405 
L 282.655751 225.198127 
L 284.287181 225.880553 
L 285.918611 210.184756 
L 287.550041 227.245405 
L 289.181471 210.184756 
L 290.812901 227.586618 
L 292.444331 210.184756 
L 294.075761 227.245405 
L 295.70719 210.184756 
L 297.33862 227.927831 
L 298.97005 210.184756 
L 300.60148 215.644164 
L 302.23291 210.184756 
L 303.86434 284.227972 
L 305.49577 217.009016 
L 307.1272 210.184756 
L 308.75863 210.184756 
L 310.390059 210.184756 
L 312.021489 235.434516 
L 313.652919 210.184756 
L 315.284349 210.184756 
L 316.915779 215.302951 
L 318.547209 211.890821 
L 320.178639 210.184756 
L 321.810069 210.184756 
L 323.441498 238.846646 
L 325.072928 227.245405 
L 326.704358 236.116942 
L 328.335788 210.184756 
L 329.967218 227.245405 
L 331.598648 210.184756 
L 333.230078 210.184756 
L 334.861508 240.552711 
L 336.492937 228.610257 
L 338.124367 213.596886 
L 339.755797 218.71508 
L 341.387227 257.272147 
L 343.018657 210.184756 
L 344.650087 210.184756 
L 346.281517 211.890821 
L 347.912947 210.184756 
L 349.544376 210.184756 
L 351.175806 243.282415 
L 352.807236 210.184756 
L 354.438666 210.184756 
L 356.070096 240.211498 
L 357.701526 210.184756 
L 359.332956 210.184756 
L 360.964386 210.184756 
L 362.595815 210.184756 
L 364.227245 210.184756 
L 365.858675 210.184756 
L 367.490105 210.184756 
L 369.121535 210.184756 
L 370.752965 210.184756 
L 372.384395 210.184756 
L 374.015825 210.184756 
L 375.647254 210.184756 
L 377.278684 244.306054 
L 378.910114 210.184756 
L 380.541544 254.883656 
L 382.172974 210.184756 
L 383.804404 228.610257 
L 385.435834 210.184756 
L 387.067264 210.184756 
L 388.698693 213.255673 
L 390.330123 213.255673 
L 391.961553 210.184756 
L 393.592983 210.184756 
L 395.224413 210.184756 
L 396.855843 210.184756 
L 398.487273 210.184756 
L 398.487273 130.82172 
L 398.487273 130.82172 
L 396.855843 97.925687 
L 395.224413 121.810595 
L 393.592983 107.138437 
L 391.961553 87.006872 
L 390.330123 126.385951 
L 388.698693 125.417704 
L 387.067264 116.009975 
L 385.435834 125.382669 
L 383.804404 124.672381 
L 382.172974 115.327549 
L 380.541544 123.128383 
L 378.910114 95.537196 
L 377.278684 122.493021 
L 375.647254 120.327631 
L 374.015825 116.009975 
L 372.384395 68.922584 
L 370.752965 124.035897 
L 369.121535 116.692401 
L 367.490105 124.800271 
L 365.858675 83.594742 
L 364.227245 123.175447 
L 362.595815 90.419001 
L 360.964386 118.739678 
L 359.332956 126.246364 
L 357.701526 89.05415 
L 356.070096 85.64202 
L 354.438666 135.408564 
L 352.807236 124.199086 
L 351.175806 135.732085 
L 349.544376 135.245856 
L 347.912947 95.537196 
L 346.281517 136.343166 
L 344.650087 135.816575 
L 343.018657 84.618381 
L 341.387227 129.459453 
L 339.755797 127.314509 
L 338.124367 116.009975 
L 336.492937 126.896293 
L 334.861508 124.30145 
L 333.230078 135.597913 
L 331.598648 97.243261 
L 329.967218 135.997872 
L 328.335788 101.67903 
L 326.704358 135.570784 
L 325.072928 133.509326 
L 323.441498 95.537196 
L 321.810069 124.605292 
L 320.178639 87.689298 
L 318.547209 95.537196 
L 316.915779 136.016197 
L 315.284349 135.622612 
L 313.652919 95.537196 
L 312.021489 134.638071 
L 310.390059 97.243261 
L 308.75863 123.51666 
L 307.1272 87.689298 
L 305.49577 92.125066 
L 303.86434 137.455842 
L 302.23291 120.786956 
L 300.60148 131.202076 
L 298.97005 126.587577 
L 297.33862 99.290539 
L 295.70719 119.080891 
L 294.075761 127.156265 
L 292.444331 118.057252 
L 290.812901 88.712937 
L 289.181471 84.618381 
L 287.550041 130.130942 
L 285.918611 129.440117 
L 284.287181 127.38374 
L 282.655751 125.148548 
L 281.024322 124.137047 
L 279.392892 123.029213 
L 277.761462 83.935955 
L 276.130032 134.478127 
L 274.498602 116.009975 
L 272.867172 132.496765 
L 271.235742 124.199086 
L 269.604312 113.962697 
L 267.972883 136.14154 
L 266.341453 140.122358 
L 264.710023 119.080891 
L 263.078593 140.317987 
L 261.447163 138.530031 
L 259.815733 132.72941 
L 258.184303 127.952429 
L 256.552873 137.506392 
L 254.921444 121.810595 
L 253.290014 53.568 
L 251.658584 139.741337 
L 250.027154 116.351188 
L 248.395724 143.870756 
L 246.764294 142.159296 
L 245.132864 141.552203 
L 243.501434 139.55367 
L 241.870005 142.610938 
L 240.238575 121.469382 
L 238.607145 92.807492 
L 236.975715 131.705772 
L 235.344285 139.673094 
L 233.712855 118.057252 
L 232.081425 137.63991 
L 230.449995 137.180689 
L 228.818566 136.677732 
L 227.187136 136.12448 
L 225.555706 132.046984 
L 223.924276 133.411836 
L 222.292846 147.401568 
L 220.661416 159.00281 
L 219.029986 160.432654 
L 217.398556 159.00281 
L 215.767127 162.557111 
L 214.135697 161.969879 
L 212.504267 159.00281 
L 210.872837 161.440045 
L 209.241407 160.708874 
L 207.609977 162.414939 
L 205.978547 141.942161 
L 204.347117 141.942161 
L 202.715688 167.257962 
L 201.084258 159.00281 
L 199.452828 141.600948 
L 197.821398 125.563938 
L 196.189968 167.849072 
L 194.558538 144.671865 
L 192.927108 167.191921 
L 191.295678 124.881512 
L 189.664249 167.904018 
L 188.032819 146.377929 
L 186.401389 159.00281 
L 184.769959 159.00281 
L 183.138529 170.831526 
L 181.507099 142.283374 
L 179.875669 175.811257 
L 178.244239 159.00281 
L 176.61281 141.942161 
L 174.98138 141.942161 
L 173.34995 176.063458 
L 171.71852 176.093129 
L 170.08709 174.357394 
L 168.45566 159.00281 
L 166.82423 142.9658 
L 165.1928 154.11209 
L 163.56137 153.696948 
L 161.929941 156.614319 
L 160.298511 162.219961 
L 158.667081 161.075362 
L 157.035651 137.506392 
L 155.404221 161.404949 
L 153.772791 149.790059 
L 152.141361 161.643501 
L 150.509931 161.065597 
L 148.878502 122.493021 
L 147.247072 131.364559 
L 145.615642 162.756152 
L 143.984212 135.117901 
L 142.352782 176.063458 
L 140.721352 163.097365 
L 139.089922 172.992542 
L 137.458492 144.330652 
L 135.827063 151.154911 
L 134.195633 159.344023 
L 132.564203 159.00281 
L 130.932773 181.926118 
L 129.301343 159.00281 
L 127.669913 142.9658 
L 126.038483 176.063458 
L 124.407053 172.651329 
L 122.775624 127.952429 
L 121.144194 159.00281 
L 119.512764 160.026449 
L 117.881334 169.921625 
L 116.249904 159.00281 
L 114.618474 167.533134 
L 112.987044 184.807041 
L 111.355614 164.884671 
L 109.724185 160.903853 
L 108.092755 135.117901 
L 106.461325 176.063458 
L 104.829895 159.685236 
L 103.198465 159.344023 
L 101.567035 175.722245 
L 99.935605 183.802789 
L 98.304175 172.651329 
L 96.672746 177.087097 
L 95.041316 176.063458 
L 93.409886 158.320384 
L 91.778456 188.313004 
L 90.147026 144.671865 
L 88.515596 137.506392 
L 86.884166 175.573892 
L 85.252736 174.776155 
L 83.621307 159.685236 
L 81.989877 174.289151 
L 80.358447 196.195024 
L 78.727017 202.678071 
L 77.095587 203.457986 
L 75.464157 203.121647 
L 73.832727 210.184756 
z
" style="fill:#1f77b4;fill-opacity:0.1;"/>
   </g>
   <g id="matplotlib.axis_1">
    <g id="xtick_1">
     <g id="line2d_1">
      <defs>
       <path d="M 0 0 
L 0 3.5 
" id="m5874a04372" style="stroke:#000000;stroke-width:0.8;"/>
      </defs>
      <g>
       <use style="stroke:#000000;stroke-width:0.8;" x="73.832727" xlink:href="#m5874a04372" y="307.584"/>
      </g>
     </g>
     <g id="text_1">
      <!-- 0 -->
      <defs>
       <path d="M 31.78125 66.40625 
Q 24.171875 66.40625 20.328125 58.90625 
Q 16.5 51.421875 16.5 36.375 
Q 16.5 21.390625 20.328125 13.890625 
Q 24.171875 6.390625 31.78125 6.390625 
Q 39.453125 6.390625 43.28125 13.890625 
Q 47.125 21.390625 47.125 36.375 
Q 47.125 51.421875 43.28125 58.90625 
Q 39.453125 66.40625 31.78125 66.40625 
z
M 31.78125 74.21875 
Q 44.046875 74.21875 50.515625 64.515625 
Q 56.984375 54.828125 56.984375 36.375 
Q 56.984375 17.96875 50.515625 8.265625 
Q 44.046875 -1.421875 31.78125 -1.421875 
Q 19.53125 -1.421875 13.0625 8.265625 
Q 6.59375 17.96875 6.59375 36.375 
Q 6.59375 54.828125 13.0625 64.515625 
Q 19.53125 74.21875 31.78125 74.21875 
z
" id="DejaVuSans-48"/>
      </defs>
      <g transform="translate(70.651477 322.182437)scale(0.1 -0.1)">
       <use xlink:href="#DejaVuSans-48"/>
      </g>
     </g>
    </g>
    <g id="xtick_2">
     <g id="line2d_2">
      <g>
       <use style="stroke:#000000;stroke-width:0.8;" x="114.618474" xlink:href="#m5874a04372" y="307.584"/>
      </g>
     </g>
     <g id="text_2">
      <!-- 25 -->
      <defs>
       <path d="M 19.1875 8.296875 
L 53.609375 8.296875 
L 53.609375 0 
L 7.328125 0 
L 7.328125 8.296875 
Q 12.9375 14.109375 22.625 23.890625 
Q 32.328125 33.6875 34.8125 36.53125 
Q 39.546875 41.84375 41.421875 45.53125 
Q 43.3125 49.21875 43.3125 52.78125 
Q 43.3125 58.59375 39.234375 62.25 
Q 35.15625 65.921875 28.609375 65.921875 
Q 23.96875 65.921875 18.8125 64.3125 
Q 13.671875 62.703125 7.8125 59.421875 
L 7.8125 69.390625 
Q 13.765625 71.78125 18.9375 73 
Q 24.125 74.21875 28.421875 74.21875 
Q 39.75 74.21875 46.484375 68.546875 
Q 53.21875 62.890625 53.21875 53.421875 
Q 53.21875 48.921875 51.53125 44.890625 
Q 49.859375 40.875 45.40625 35.40625 
Q 44.1875 33.984375 37.640625 27.21875 
Q 31.109375 20.453125 19.1875 8.296875 
z
" id="DejaVuSans-50"/>
       <path d="M 10.796875 72.90625 
L 49.515625 72.90625 
L 49.515625 64.59375 
L 19.828125 64.59375 
L 19.828125 46.734375 
Q 21.96875 47.46875 24.109375 47.828125 
Q 26.265625 48.1875 28.421875 48.1875 
Q 40.625 48.1875 47.75 41.5 
Q 54.890625 34.8125 54.890625 23.390625 
Q 54.890625 11.625 47.5625 5.09375 
Q 40.234375 -1.421875 26.90625 -1.421875 
Q 22.3125 -1.421875 17.546875 -0.640625 
Q 12.796875 0.140625 7.71875 1.703125 
L 7.71875 11.625 
Q 12.109375 9.234375 16.796875 8.0625 
Q 21.484375 6.890625 26.703125 6.890625 
Q 35.15625 6.890625 40.078125 11.328125 
Q 45.015625 15.765625 45.015625 23.390625 
Q 45.015625 31 40.078125 35.4375 
Q 35.15625 39.890625 26.703125 39.890625 
Q 22.75 39.890625 18.8125 39.015625 
Q 14.890625 38.140625 10.796875 36.28125 
z
" id="DejaVuSans-53"/>
      </defs>
      <g transform="translate(108.255974 322.182437)scale(0.1 -0.1)">
       <use xlink:href="#DejaVuSans-50"/>
       <use x="63.623047" xlink:href="#DejaVuSans-53"/>
      </g>
     </g>
    </g>
    <g id="xtick_3">
     <g id="line2d_3">
      <g>
       <use style="stroke:#000000;stroke-width:0.8;" x="155.404221" xlink:href="#m5874a04372" y="307.584"/>
      </g>
     </g>
     <g id="text_3">
      <!-- 50 -->
      <g transform="translate(149.041721 322.182437)scale(0.1 -0.1)">
       <use xlink:href="#DejaVuSans-53"/>
       <use x="63.623047" xlink:href="#DejaVuSans-48"/>
      </g>
     </g>
    </g>
    <g id="xtick_4">
     <g id="line2d_4">
      <g>
       <use style="stroke:#000000;stroke-width:0.8;" x="196.189968" xlink:href="#m5874a04372" y="307.584"/>
      </g>
     </g>
     <g id="text_4">
      <!-- 75 -->
      <defs>
       <path d="M 8.203125 72.90625 
L 55.078125 72.90625 
L 55.078125 68.703125 
L 28.609375 0 
L 18.3125 0 
L 43.21875 64.59375 
L 8.203125 64.59375 
z
" id="DejaVuSans-55"/>
      </defs>
      <g transform="translate(189.827468 322.182437)scale(0.1 -0.1)">
       <use xlink:href="#DejaVuSans-55"/>
       <use x="63.623047" xlink:href="#DejaVuSans-53"/>
      </g>
     </g>
    </g>
    <g id="xtick_5">
     <g id="line2d_5">
      <g>
       <use style="stroke:#000000;stroke-width:0.8;" x="236.975715" xlink:href="#m5874a04372" y="307.584"/>
      </g>
     </g>
     <g id="text_5">
      <!-- 100 -->
      <defs>
       <path d="M 12.40625 8.296875 
L 28.515625 8.296875 
L 28.515625 63.921875 
L 10.984375 60.40625 
L 10.984375 69.390625 
L 28.421875 72.90625 
L 38.28125 72.90625 
L 38.28125 8.296875 
L 54.390625 8.296875 
L 54.390625 0 
L 12.40625 0 
z
" id="DejaVuSans-49"/>
      </defs>
      <g transform="translate(227.431965 322.182437)scale(0.1 -0.1)">
       <use xlink:href="#DejaVuSans-49"/>
       <use x="63.623047" xlink:href="#DejaVuSans-48"/>
       <use x="127.246094" xlink:href="#DejaVuSans-48"/>
      </g>
     </g>
    </g>
    <g id="xtick_6">
     <g id="line2d_6">
      <g>
       <use style="stroke:#000000;stroke-width:0.8;" x="277.761462" xlink:href="#m5874a04372" y="307.584"/>
      </g>
     </g>
     <g id="text_6">
      <!-- 125 -->
      <g transform="translate(268.217712 322.182437)scale(0.1 -0.1)">
       <use xlink:href="#DejaVuSans-49"/>
       <use x="63.623047" xlink:href="#DejaVuSans-50"/>
       <use x="127.246094" xlink:href="#DejaVuSans-53"/>
      </g>
     </g>
    </g>
    <g id="xtick_7">
     <g id="line2d_7">
      <g>
       <use style="stroke:#000000;stroke-width:0.8;" x="318.547209" xlink:href="#m5874a04372" y="307.584"/>
      </g>
     </g>
     <g id="text_7">
      <!-- 150 -->
      <g transform="translate(309.003459 322.182437)scale(0.1 -0.1)">
       <use xlink:href="#DejaVuSans-49"/>
       <use x="63.623047" xlink:href="#DejaVuSans-53"/>
       <use x="127.246094" xlink:href="#DejaVuSans-48"/>
      </g>
     </g>
    </g>
    <g id="xtick_8">
     <g id="line2d_8">
      <g>
       <use style="stroke:#000000;stroke-width:0.8;" x="359.332956" xlink:href="#m5874a04372" y="307.584"/>
      </g>
     </g>
     <g id="text_8">
      <!-- 175 -->
      <g transform="translate(349.789206 322.182437)scale(0.1 -0.1)">
       <use xlink:href="#DejaVuSans-49"/>
       <use x="63.623047" xlink:href="#DejaVuSans-55"/>
       <use x="127.246094" xlink:href="#DejaVuSans-53"/>
      </g>
     </g>
    </g>
    <g id="xtick_9">
     <g id="line2d_9">
      <g>
       <use style="stroke:#000000;stroke-width:0.8;" x="400.118703" xlink:href="#m5874a04372" y="307.584"/>
      </g>
     </g>
     <g id="text_9">
      <!-- 200 -->
      <g transform="translate(390.574953 322.182437)scale(0.1 -0.1)">
       <use xlink:href="#DejaVuSans-50"/>
       <use x="63.623047" xlink:href="#DejaVuSans-48"/>
       <use x="127.246094" xlink:href="#DejaVuSans-48"/>
      </g>
     </g>
    </g>
   </g>
   <g id="matplotlib.axis_2">
    <g id="ytick_1">
     <g id="line2d_10">
      <defs>
       <path d="M 0 0 
L -3.5 0 
" id="m51f6d90537" style="stroke:#000000;stroke-width:0.8;"/>
      </defs>
      <g>
       <use style="stroke:#000000;stroke-width:0.8;" x="57.6" xlink:href="#m51f6d90537" y="278.427351"/>
      </g>
     </g>
     <g id="text_10">
      <!-- −0.4 -->
      <defs>
       <path d="M 10.59375 35.5 
L 73.1875 35.5 
L 73.1875 27.203125 
L 10.59375 27.203125 
z
" id="DejaVuSans-8722"/>
       <path d="M 10.6875 12.40625 
L 21 12.40625 
L 21 0 
L 10.6875 0 
z
" id="DejaVuSans-46"/>
       <path d="M 37.796875 64.3125 
L 12.890625 25.390625 
L 37.796875 25.390625 
z
M 35.203125 72.90625 
L 47.609375 72.90625 
L 47.609375 25.390625 
L 58.015625 25.390625 
L 58.015625 17.1875 
L 47.609375 17.1875 
L 47.609375 0 
L 37.796875 0 
L 37.796875 17.1875 
L 4.890625 17.1875 
L 4.890625 26.703125 
z
" id="DejaVuSans-52"/>
      </defs>
      <g transform="translate(26.317187 282.22657)scale(0.1 -0.1)">
       <use xlink:href="#DejaVuSans-8722"/>
       <use x="83.789062" xlink:href="#DejaVuSans-48"/>
       <use x="147.412109" xlink:href="#DejaVuSans-46"/>
       <use x="179.199219" xlink:href="#DejaVuSans-52"/>
      </g>
     </g>
    </g>
    <g id="ytick_2">
     <g id="line2d_11">
      <g>
       <use style="stroke:#000000;stroke-width:0.8;" x="57.6" xlink:href="#m51f6d90537" y="244.306054"/>
      </g>
     </g>
     <g id="text_11">
      <!-- −0.2 -->
      <g transform="translate(26.317187 248.105272)scale(0.1 -0.1)">
       <use xlink:href="#DejaVuSans-8722"/>
       <use x="83.789062" xlink:href="#DejaVuSans-48"/>
       <use x="147.412109" xlink:href="#DejaVuSans-46"/>
       <use x="179.199219" xlink:href="#DejaVuSans-50"/>
      </g>
     </g>
    </g>
    <g id="ytick_3">
     <g id="line2d_12">
      <g>
       <use style="stroke:#000000;stroke-width:0.8;" x="57.6" xlink:href="#m51f6d90537" y="210.184756"/>
      </g>
     </g>
     <g id="text_12">
      <!-- 0.0 -->
      <g transform="translate(34.696875 213.983975)scale(0.1 -0.1)">
       <use xlink:href="#DejaVuSans-48"/>
       <use x="63.623047" xlink:href="#DejaVuSans-46"/>
       <use x="95.410156" xlink:href="#DejaVuSans-48"/>
      </g>
     </g>
    </g>
    <g id="ytick_4">
     <g id="line2d_13">
      <g>
       <use style="stroke:#000000;stroke-width:0.8;" x="57.6" xlink:href="#m51f6d90537" y="176.063458"/>
      </g>
     </g>
     <g id="text_13">
      <!-- 0.2 -->
      <g transform="translate(34.696875 179.862677)scale(0.1 -0.1)">
       <use xlink:href="#DejaVuSans-48"/>
       <use x="63.623047" xlink:href="#DejaVuSans-46"/>
       <use x="95.410156" xlink:href="#DejaVuSans-50"/>
      </g>
     </g>
    </g>
    <g id="ytick_5">
     <g id="line2d_14">
      <g>
       <use style="stroke:#000000;stroke-width:0.8;" x="57.6" xlink:href="#m51f6d90537" y="141.942161"/>
      </g>
     </g>
     <g id="text_14">
      <!-- 0.4 -->
      <g transform="translate(34.696875 145.74138)scale(0.1 -0.1)">
       <use xlink:href="#DejaVuSans-48"/>
       <use x="63.623047" xlink:href="#DejaVuSans-46"/>
       <use x="95.410156" xlink:href="#DejaVuSans-52"/>
      </g>
     </g>
    </g>
    <g id="ytick_6">
     <g id="line2d_15">
      <g>
       <use style="stroke:#000000;stroke-width:0.8;" x="57.6" xlink:href="#m51f6d90537" y="107.820863"/>
      </g>
     </g>
     <g id="text_15">
      <!-- 0.6 -->
      <defs>
       <path d="M 33.015625 40.375 
Q 26.375 40.375 22.484375 35.828125 
Q 18.609375 31.296875 18.609375 23.390625 
Q 18.609375 15.53125 22.484375 10.953125 
Q 26.375 6.390625 33.015625 6.390625 
Q 39.65625 6.390625 43.53125 10.953125 
Q 47.40625 15.53125 47.40625 23.390625 
Q 47.40625 31.296875 43.53125 35.828125 
Q 39.65625 40.375 33.015625 40.375 
z
M 52.59375 71.296875 
L 52.59375 62.3125 
Q 48.875 64.0625 45.09375 64.984375 
Q 41.3125 65.921875 37.59375 65.921875 
Q 27.828125 65.921875 22.671875 59.328125 
Q 17.53125 52.734375 16.796875 39.40625 
Q 19.671875 43.65625 24.015625 45.921875 
Q 28.375 48.1875 33.59375 48.1875 
Q 44.578125 48.1875 50.953125 41.515625 
Q 57.328125 34.859375 57.328125 23.390625 
Q 57.328125 12.15625 50.6875 5.359375 
Q 44.046875 -1.421875 33.015625 -1.421875 
Q 20.359375 -1.421875 13.671875 8.265625 
Q 6.984375 17.96875 6.984375 36.375 
Q 6.984375 53.65625 15.1875 63.9375 
Q 23.390625 74.21875 37.203125 74.21875 
Q 40.921875 74.21875 44.703125 73.484375 
Q 48.484375 72.75 52.59375 71.296875 
z
" id="DejaVuSans-54"/>
      </defs>
      <g transform="translate(34.696875 111.620082)scale(0.1 -0.1)">
       <use xlink:href="#DejaVuSans-48"/>
       <use x="63.623047" xlink:href="#DejaVuSans-46"/>
       <use x="95.410156" xlink:href="#DejaVuSans-54"/>
      </g>
     </g>
    </g>
    <g id="ytick_7">
     <g id="line2d_16">
      <g>
       <use style="stroke:#000000;stroke-width:0.8;" x="57.6" xlink:href="#m51f6d90537" y="73.699566"/>
      </g>
     </g>
     <g id="text_16">
      <!-- 0.8 -->
      <defs>
       <path d="M 31.78125 34.625 
Q 24.75 34.625 20.71875 30.859375 
Q 16.703125 27.09375 16.703125 20.515625 
Q 16.703125 13.921875 20.71875 10.15625 
Q 24.75 6.390625 31.78125 6.390625 
Q 38.8125 6.390625 42.859375 10.171875 
Q 46.921875 13.96875 46.921875 20.515625 
Q 46.921875 27.09375 42.890625 30.859375 
Q 38.875 34.625 31.78125 34.625 
z
M 21.921875 38.8125 
Q 15.578125 40.375 12.03125 44.71875 
Q 8.5 49.078125 8.5 55.328125 
Q 8.5 64.0625 14.71875 69.140625 
Q 20.953125 74.21875 31.78125 74.21875 
Q 42.671875 74.21875 48.875 69.140625 
Q 55.078125 64.0625 55.078125 55.328125 
Q 55.078125 49.078125 51.53125 44.71875 
Q 48 40.375 41.703125 38.8125 
Q 48.828125 37.15625 52.796875 32.3125 
Q 56.78125 27.484375 56.78125 20.515625 
Q 56.78125 9.90625 50.3125 4.234375 
Q 43.84375 -1.421875 31.78125 -1.421875 
Q 19.734375 -1.421875 13.25 4.234375 
Q 6.78125 9.90625 6.78125 20.515625 
Q 6.78125 27.484375 10.78125 32.3125 
Q 14.796875 37.15625 21.921875 38.8125 
z
M 18.3125 54.390625 
Q 18.3125 48.734375 21.84375 45.5625 
Q 25.390625 42.390625 31.78125 42.390625 
Q 38.140625 42.390625 41.71875 45.5625 
Q 45.3125 48.734375 45.3125 54.390625 
Q 45.3125 60.0625 41.71875 63.234375 
Q 38.140625 66.40625 31.78125 66.40625 
Q 25.390625 66.40625 21.84375 63.234375 
Q 18.3125 60.0625 18.3125 54.390625 
z
" id="DejaVuSans-56"/>
      </defs>
      <g transform="translate(34.696875 77.498784)scale(0.1 -0.1)">
       <use xlink:href="#DejaVuSans-48"/>
       <use x="63.623047" xlink:href="#DejaVuSans-46"/>
       <use x="95.410156" xlink:href="#DejaVuSans-56"/>
      </g>
     </g>
    </g>
   </g>
   <g id="line2d_17">
    <path clip-path="url(#pb634b5202e)" d="M 73.832727 210.184756 
L 93.409886 210.184756 
L 95.041316 208.478691 
L 96.672746 202.507464 
L 98.304175 196.024417 
L 99.935605 210.184756 
L 101.567035 208.941766 
L 103.198465 210.184756 
L 104.829895 208.819904 
L 106.461325 201.098336 
L 108.092755 194.830172 
L 109.724185 210.184756 
L 111.355614 204.213529 
L 112.987044 210.184756 
L 114.618474 210.184756 
L 116.249904 197.901089 
L 117.881334 203.701709 
L 119.512764 192.953501 
L 121.144194 193.806533 
L 122.775624 181.767402 
L 124.407053 206.0902 
L 126.038483 199.265941 
L 127.669913 204.725348 
L 129.301343 204.042922 
L 130.932773 206.260807 
L 132.564203 204.384135 
L 134.195633 200.043148 
L 135.827063 190.05319 
L 137.458492 187.323487 
L 139.089922 201.313219 
L 140.721352 194.488959 
L 142.352782 209.843543 
L 143.984212 183.911357 
L 145.615642 195.171385 
L 147.247072 193.635927 
L 148.878502 191.418042 
L 150.509931 210.184756 
L 152.141361 193.730708 
L 153.772791 188.915814 
L 155.404221 196.988344 
L 157.035651 183.058324 
L 158.667081 200.972006 
L 160.298511 203.019283 
L 161.929941 195.902556 
L 163.56137 194.659566 
L 165.1928 193.124107 
L 166.82423 192.202832 
L 168.45566 210.184756 
L 170.08709 210.184756 
L 171.71852 210.01415 
L 173.34995 210.184756 
L 174.98138 210.184756 
L 176.61281 205.066561 
L 178.244239 209.331724 
L 179.875669 210.184756 
L 181.507099 207.966872 
L 183.138529 210.184756 
L 184.769959 193.124107 
L 186.401389 192.441681 
L 188.032819 193.124107 
L 189.664249 208.048466 
L 191.295678 204.213529 
L 192.927108 210.184756 
L 194.558538 209.843543 
L 196.189968 210.184756 
L 197.821398 188.005913 
L 199.452828 206.401998 
L 201.084258 208.819904 
L 202.715688 210.184756 
L 204.347117 195.441512 
L 205.978547 176.234065 
L 207.609977 193.124107 
L 209.241407 200.972006 
L 210.872837 192.441681 
L 212.504267 177.087097 
L 215.767127 176.063458 
L 217.398556 159.00281 
L 219.029986 176.063458 
L 220.661416 159.00281 
L 222.292846 160.708874 
L 223.924276 142.795193 
L 225.555706 143.648226 
L 227.187136 193.124107 
L 228.818566 173.845574 
L 230.449995 170.689354 
L 232.081425 176.063458 
L 233.712855 159.00281 
L 235.344285 193.124107 
L 236.975715 159.00281 
L 238.607145 141.942161 
L 240.238575 156.614319 
L 241.870005 193.124107 
L 243.501434 176.063458 
L 245.132864 193.124107 
L 246.764294 176.063458 
L 248.395724 193.124107 
L 250.027154 159.00281 
L 251.658584 174.357394 
L 253.290014 124.881512 
L 256.552873 191.418042 
L 258.184303 159.00281 
L 259.815733 156.273106 
L 261.447163 172.992542 
L 263.078593 193.124107 
L 264.710023 159.00281 
L 266.341453 176.063458 
L 267.972883 176.063458 
L 269.604312 159.00281 
L 271.235742 155.249467 
L 272.867172 173.333755 
L 274.498602 159.00281 
L 276.130032 191.076829 
L 277.761462 141.942161 
L 279.392892 173.674968 
L 281.024322 172.480722 
L 282.655751 176.063458 
L 284.287181 193.124107 
L 285.918611 193.124107 
L 287.550041 175.381032 
L 289.181471 141.942161 
L 290.812901 141.942161 
L 294.075761 176.063458 
L 297.33862 141.942161 
L 300.60148 176.063458 
L 302.23291 159.00281 
L 303.86434 210.184756 
L 305.49577 141.942161 
L 307.1272 141.942161 
L 308.75863 159.00281 
L 310.390059 143.477619 
L 312.021489 193.124107 
L 313.652919 141.942161 
L 315.284349 176.063458 
L 316.915779 176.063458 
L 318.547209 141.942161 
L 320.178639 141.942161 
L 321.810069 176.063458 
L 323.441498 141.942161 
L 325.072928 176.063458 
L 326.704358 193.124107 
L 328.335788 141.942161 
L 329.967218 193.124107 
L 331.598648 141.942161 
L 333.230078 176.063458 
L 334.861508 193.124107 
L 336.492937 191.759255 
L 338.124367 159.00281 
L 341.387227 193.124107 
L 343.018657 141.942161 
L 344.650087 171.968903 
L 346.281517 176.063458 
L 347.912947 141.942161 
L 349.544376 176.063458 
L 351.175806 176.063458 
L 352.807236 159.00281 
L 354.438666 176.063458 
L 356.070096 141.942161 
L 357.701526 141.942161 
L 359.332956 159.00281 
L 360.964386 159.00281 
L 362.595815 141.942161 
L 364.227245 159.00281 
L 365.858675 141.942161 
L 367.490105 159.00281 
L 370.752965 159.00281 
L 372.384395 124.881512 
L 374.015825 159.00281 
L 375.647254 141.942161 
L 377.278684 193.124107 
L 378.910114 142.513693 
L 380.541544 193.124107 
L 382.172974 159.00281 
L 383.804404 193.124107 
L 385.435834 172.651329 
L 387.067264 159.00281 
L 388.698693 176.063458 
L 390.330123 175.210426 
L 391.961553 141.942161 
L 393.592983 141.942161 
L 395.224413 159.00281 
L 396.855843 140.747915 
L 398.487273 176.063458 
L 398.487273 176.063458 
" style="fill:none;stroke:#1f77b4;stroke-linecap:square;stroke-width:0.25;"/>
   </g>
   <g id="line2d_18">
    <path clip-path="url(#pb634b5202e)" d="M 73.832727 210.184756 
L 75.464157 210.131186 
L 77.095587 209.962066 
L 78.727017 209.177851 
L 80.358447 209.213477 
L 81.989877 210.612863 
L 83.621307 208.081039 
L 85.252736 211.985047 
L 86.884166 220.102304 
L 88.515596 218.035112 
L 90.147026 207.096847 
L 91.778456 222.85518 
L 93.409886 208.325566 
L 95.041316 207.873643 
L 96.672746 204.1177 
L 98.304175 199.484256 
L 99.935605 209.149373 
L 101.567035 211.373014 
L 103.198465 202.244677 
L 104.829895 202.161981 
L 106.461325 201.604498 
L 108.092755 187.145211 
L 109.724185 204.83662 
L 111.355614 200.366694 
L 112.987044 215.430579 
L 114.618474 204.229875 
L 116.249904 194.851748 
L 117.881334 204.269695 
L 119.512764 194.702785 
L 121.144194 192.585 
L 122.775624 176.998996 
L 124.407053 201.345455 
L 126.038483 200.666854 
L 127.669913 197.486992 
L 129.301343 200.196963 
L 130.932773 205.169341 
L 132.564203 201.154939 
L 134.195633 197.959628 
L 135.827063 189.409054 
L 137.458492 183.578419 
L 139.089922 201.731076 
L 140.721352 195.86402 
L 142.352782 206.892184 
L 143.984212 181.934933 
L 145.615642 195.462079 
L 147.247072 191.070501 
L 148.878502 192.14873 
L 150.509931 207.349877 
L 152.141361 197.906022 
L 153.772791 190.316552 
L 155.404221 197.384058 
L 157.035651 181.163065 
L 158.667081 201.762503 
L 160.298511 205.70789 
L 161.929941 191.745873 
L 163.56137 194.427932 
L 165.1928 196.215907 
L 166.82423 188.879434 
L 168.45566 203.425333 
L 170.08709 203.946774 
L 171.71852 205.442341 
L 173.34995 205.519379 
L 174.98138 199.956437 
L 176.61281 190.231325 
L 178.244239 202.753316 
L 179.875669 207.369024 
L 181.507099 194.148012 
L 183.138529 210.081214 
L 184.769959 190.776618 
L 186.401389 195.08167 
L 188.032819 193.760929 
L 189.664249 209.569037 
L 191.295678 186.382731 
L 192.927108 211.759419 
L 194.558538 198.964321 
L 196.189968 213.036528 
L 197.821398 185.341663 
L 199.452828 194.983708 
L 201.084258 199.789191 
L 202.715688 212.417975 
L 204.347117 191.134301 
L 205.978547 180.150858 
L 207.609977 198.022018 
L 209.241407 204.181881 
L 210.872837 195.528802 
L 212.504267 185.138988 
L 214.135697 190.754702 
L 215.767127 187.400941 
L 217.398556 172.607507 
L 219.029986 184.621667 
L 220.661416 170.466421 
L 222.292846 167.863882 
L 225.555706 154.559908 
L 227.187136 191.748265 
L 228.818566 174.850235 
L 230.449995 171.927891 
L 232.081425 174.959687 
L 233.712855 159.08271 
L 235.344285 190.402322 
L 236.975715 160.761244 
L 238.607145 133.474856 
L 240.238575 158.67893 
L 241.870005 191.25879 
L 243.501434 176.5472 
L 245.132864 190.861063 
L 246.764294 175.819765 
L 248.395724 189.672126 
L 250.027154 160.646727 
L 251.658584 172.237298 
L 253.290014 120.530211 
L 256.552873 188.038473 
L 258.184303 159.821093 
L 259.815733 157.798834 
L 261.447163 173.251383 
L 263.078593 191.756358 
L 264.710023 158.907757 
L 266.341453 172.796389 
L 267.972883 174.946106 
L 269.604312 158.044228 
L 271.235742 158.657548 
L 272.867172 172.075065 
L 274.498602 157.324455 
L 276.130032 186.75864 
L 277.761462 140.732395 
L 279.392892 169.621433 
L 281.024322 169.503174 
L 282.655751 174.341351 
L 284.287181 186.148837 
L 285.918611 188.343145 
L 287.550041 172.779765 
L 289.181471 141.689292 
L 290.812901 145.994287 
L 292.444331 158.230555 
L 294.075761 173.158114 
L 295.70719 165.391823 
L 297.33862 152.445411 
L 298.97005 166.774268 
L 300.60148 174.109686 
L 302.23291 156.794891 
L 303.86434 206.374903 
L 305.49577 148.093987 
L 307.1272 148.367582 
L 308.75863 161.623356 
L 310.390059 155.920418 
L 312.021489 191.203123 
L 313.652919 148.829136 
L 315.284349 174.115598 
L 316.915779 178.423544 
L 318.547209 150.431853 
L 320.178639 145.370335 
L 321.810069 175.521802 
L 323.441498 149.668814 
L 325.072928 177.710716 
L 326.704358 195.837851 
L 328.335788 153.149978 
L 329.967218 190.633172 
L 331.598648 148.564306 
L 333.230078 179.332399 
L 334.861508 190.164562 
L 336.492937 189.037015 
L 338.124367 163.933778 
L 339.755797 173.221775 
L 341.387227 190.57338 
L 343.018657 147.055349 
L 344.650087 170.964231 
L 346.281517 174.995639 
L 347.912947 146.908091 
L 349.544376 179.403182 
L 351.175806 176.971221 
L 352.807236 159.808435 
L 354.438666 172.250741 
L 356.070096 146.4269 
L 357.701526 151.403948 
L 359.332956 164.525467 
L 360.964386 163.207268 
L 362.595815 144.890898 
L 364.227245 161.960482 
L 365.858675 141.123131 
L 367.490105 161.501688 
L 369.121535 159.494491 
L 370.752965 161.893025 
L 372.384395 140.902119 
L 374.015825 164.454302 
L 375.647254 157.113588 
L 377.278684 194.005469 
L 378.910114 158.283738 
L 380.541544 190.780869 
L 382.172974 157.156634 
L 383.804404 188.127221 
L 385.435834 169.820763 
L 387.067264 154.243384 
L 388.698693 178.271999 
L 390.330123 172.490806 
L 391.961553 148.455413 
L 393.592983 152.418366 
L 395.224413 157.559313 
L 396.855843 140.955782 
L 398.487273 170.31249 
L 398.487273 170.31249 
" style="fill:none;stroke:#2ca02c;stroke-linecap:square;stroke-width:0.75;"/>
   </g>
   <g id="patch_3">
    <path d="M 57.6 307.584 
L 57.6 41.472 
" style="fill:none;stroke:#000000;stroke-linecap:square;stroke-linejoin:miter;stroke-width:0.8;"/>
   </g>
   <g id="patch_4">
    <path d="M 414.72 307.584 
L 414.72 41.472 
" style="fill:none;stroke:#000000;stroke-linecap:square;stroke-linejoin:miter;stroke-width:0.8;"/>
   </g>
   <g id="patch_5">
    <path d="M 57.6 307.584 
L 414.72 307.584 
" style="fill:none;stroke:#000000;stroke-linecap:square;stroke-linejoin:miter;stroke-width:0.8;"/>
   </g>
   <g id="patch_6">
    <path d="M 57.6 41.472 
L 414.72 41.472 
" style="fill:none;stroke:#000000;stroke-linecap:square;stroke-linejoin:miter;stroke-width:0.8;"/>
   </g>
   <g id="legend_1">
    <g id="patch_7">
     <path d="M 338.234063 78.82825 
L 407.72 78.82825 
Q 409.72 78.82825 409.72 76.82825 
L 409.72 48.472 
Q 409.72 46.472 407.72 46.472 
L 338.234063 46.472 
Q 336.234063 46.472 336.234063 48.472 
L 336.234063 76.82825 
Q 336.234063 78.82825 338.234063 78.82825 
z
" style="fill:#ffffff;opacity:0.8;stroke:#cccccc;stroke-linejoin:miter;"/>
    </g>
    <g id="line2d_19">
     <path d="M 340.234063 54.570437 
L 360.234063 54.570437 
" style="fill:none;stroke:#1f77b4;stroke-linecap:square;stroke-width:0.25;"/>
    </g>
    <g id="line2d_20"/>
    <g id="text_17">
     <!-- median -->
     <defs>
      <path d="M 52 44.1875 
Q 55.375 50.25 60.0625 53.125 
Q 64.75 56 71.09375 56 
Q 79.640625 56 84.28125 50.015625 
Q 88.921875 44.046875 88.921875 33.015625 
L 88.921875 0 
L 79.890625 0 
L 79.890625 32.71875 
Q 79.890625 40.578125 77.09375 44.375 
Q 74.3125 48.1875 68.609375 48.1875 
Q 61.625 48.1875 57.5625 43.546875 
Q 53.515625 38.921875 53.515625 30.90625 
L 53.515625 0 
L 44.484375 0 
L 44.484375 32.71875 
Q 44.484375 40.625 41.703125 44.40625 
Q 38.921875 48.1875 33.109375 48.1875 
Q 26.21875 48.1875 22.15625 43.53125 
Q 18.109375 38.875 18.109375 30.90625 
L 18.109375 0 
L 9.078125 0 
L 9.078125 54.6875 
L 18.109375 54.6875 
L 18.109375 46.1875 
Q 21.1875 51.21875 25.484375 53.609375 
Q 29.78125 56 35.6875 56 
Q 41.65625 56 45.828125 52.96875 
Q 50 49.953125 52 44.1875 
z
" id="DejaVuSans-109"/>
      <path d="M 56.203125 29.59375 
L 56.203125 25.203125 
L 14.890625 25.203125 
Q 15.484375 15.921875 20.484375 11.0625 
Q 25.484375 6.203125 34.421875 6.203125 
Q 39.59375 6.203125 44.453125 7.46875 
Q 49.3125 8.734375 54.109375 11.28125 
L 54.109375 2.78125 
Q 49.265625 0.734375 44.1875 -0.34375 
Q 39.109375 -1.421875 33.890625 -1.421875 
Q 20.796875 -1.421875 13.15625 6.1875 
Q 5.515625 13.8125 5.515625 26.8125 
Q 5.515625 40.234375 12.765625 48.109375 
Q 20.015625 56 32.328125 56 
Q 43.359375 56 49.78125 48.890625 
Q 56.203125 41.796875 56.203125 29.59375 
z
M 47.21875 32.234375 
Q 47.125 39.59375 43.09375 43.984375 
Q 39.0625 48.390625 32.421875 48.390625 
Q 24.90625 48.390625 20.390625 44.140625 
Q 15.875 39.890625 15.1875 32.171875 
z
" id="DejaVuSans-101"/>
      <path d="M 45.40625 46.390625 
L 45.40625 75.984375 
L 54.390625 75.984375 
L 54.390625 0 
L 45.40625 0 
L 45.40625 8.203125 
Q 42.578125 3.328125 38.25 0.953125 
Q 33.9375 -1.421875 27.875 -1.421875 
Q 17.96875 -1.421875 11.734375 6.484375 
Q 5.515625 14.40625 5.515625 27.296875 
Q 5.515625 40.1875 11.734375 48.09375 
Q 17.96875 56 27.875 56 
Q 33.9375 56 38.25 53.625 
Q 42.578125 51.265625 45.40625 46.390625 
z
M 14.796875 27.296875 
Q 14.796875 17.390625 18.875 11.75 
Q 22.953125 6.109375 30.078125 6.109375 
Q 37.203125 6.109375 41.296875 11.75 
Q 45.40625 17.390625 45.40625 27.296875 
Q 45.40625 37.203125 41.296875 42.84375 
Q 37.203125 48.484375 30.078125 48.484375 
Q 22.953125 48.484375 18.875 42.84375 
Q 14.796875 37.203125 14.796875 27.296875 
z
" id="DejaVuSans-100"/>
      <path d="M 9.421875 54.6875 
L 18.40625 54.6875 
L 18.40625 0 
L 9.421875 0 
z
M 9.421875 75.984375 
L 18.40625 75.984375 
L 18.40625 64.59375 
L 9.421875 64.59375 
z
" id="DejaVuSans-105"/>
      <path d="M 34.28125 27.484375 
Q 23.390625 27.484375 19.1875 25 
Q 14.984375 22.515625 14.984375 16.5 
Q 14.984375 11.71875 18.140625 8.90625 
Q 21.296875 6.109375 26.703125 6.109375 
Q 34.1875 6.109375 38.703125 11.40625 
Q 43.21875 16.703125 43.21875 25.484375 
L 43.21875 27.484375 
z
M 52.203125 31.203125 
L 52.203125 0 
L 43.21875 0 
L 43.21875 8.296875 
Q 40.140625 3.328125 35.546875 0.953125 
Q 30.953125 -1.421875 24.3125 -1.421875 
Q 15.921875 -1.421875 10.953125 3.296875 
Q 6 8.015625 6 15.921875 
Q 6 25.140625 12.171875 29.828125 
Q 18.359375 34.515625 30.609375 34.515625 
L 43.21875 34.515625 
L 43.21875 35.40625 
Q 43.21875 41.609375 39.140625 45 
Q 35.0625 48.390625 27.6875 48.390625 
Q 23 48.390625 18.546875 47.265625 
Q 14.109375 46.140625 10.015625 43.890625 
L 10.015625 52.203125 
Q 14.9375 54.109375 19.578125 55.046875 
Q 24.21875 56 28.609375 56 
Q 40.484375 56 46.34375 49.84375 
Q 52.203125 43.703125 52.203125 31.203125 
z
" id="DejaVuSans-97"/>
      <path d="M 54.890625 33.015625 
L 54.890625 0 
L 45.90625 0 
L 45.90625 32.71875 
Q 45.90625 40.484375 42.875 44.328125 
Q 39.84375 48.1875 33.796875 48.1875 
Q 26.515625 48.1875 22.3125 43.546875 
Q 18.109375 38.921875 18.109375 30.90625 
L 18.109375 0 
L 9.078125 0 
L 9.078125 54.6875 
L 18.109375 54.6875 
L 18.109375 46.1875 
Q 21.34375 51.125 25.703125 53.5625 
Q 30.078125 56 35.796875 56 
Q 45.21875 56 50.046875 50.171875 
Q 54.890625 44.34375 54.890625 33.015625 
z
" id="DejaVuSans-110"/>
     </defs>
     <g transform="translate(368.234063 58.070437)scale(0.1 -0.1)">
      <use xlink:href="#DejaVuSans-109"/>
      <use x="97.412109" xlink:href="#DejaVuSans-101"/>
      <use x="158.935547" xlink:href="#DejaVuSans-100"/>
      <use x="222.412109" xlink:href="#DejaVuSans-105"/>
      <use x="250.195312" xlink:href="#DejaVuSans-97"/>
      <use x="311.474609" xlink:href="#DejaVuSans-110"/>
     </g>
    </g>
    <g id="line2d_21">
     <path d="M 340.234063 69.248562 
L 360.234063 69.248562 
" style="fill:none;stroke:#2ca02c;stroke-linecap:square;stroke-width:0.75;"/>
    </g>
    <g id="line2d_22"/>
    <g id="text_18">
     <!-- mean -->
     <g transform="translate(368.234063 72.748562)scale(0.1 -0.1)">
      <use xlink:href="#DejaVuSans-109"/>
      <use x="97.412109" xlink:href="#DejaVuSans-101"/>
      <use x="158.935547" xlink:href="#DejaVuSans-97"/>
      <use x="220.214844" xlink:href="#DejaVuSans-110"/>
     </g>
    </g>
   </g>
  </g>
  <g id="text_19">
   <!-- kappa.mean over generations -->
   <defs>
    <path d="M 9.078125 75.984375 
L 18.109375 75.984375 
L 18.109375 31.109375 
L 44.921875 54.6875 
L 56.390625 54.6875 
L 27.390625 29.109375 
L 57.625 0 
L 45.90625 0 
L 18.109375 26.703125 
L 18.109375 0 
L 9.078125 0 
z
" id="DejaVuSans-107"/>
    <path d="M 18.109375 8.203125 
L 18.109375 -20.796875 
L 9.078125 -20.796875 
L 9.078125 54.6875 
L 18.109375 54.6875 
L 18.109375 46.390625 
Q 20.953125 51.265625 25.265625 53.625 
Q 29.59375 56 35.59375 56 
Q 45.5625 56 51.78125 48.09375 
Q 58.015625 40.1875 58.015625 27.296875 
Q 58.015625 14.40625 51.78125 6.484375 
Q 45.5625 -1.421875 35.59375 -1.421875 
Q 29.59375 -1.421875 25.265625 0.953125 
Q 20.953125 3.328125 18.109375 8.203125 
z
M 48.6875 27.296875 
Q 48.6875 37.203125 44.609375 42.84375 
Q 40.53125 48.484375 33.40625 48.484375 
Q 26.265625 48.484375 22.1875 42.84375 
Q 18.109375 37.203125 18.109375 27.296875 
Q 18.109375 17.390625 22.1875 11.75 
Q 26.265625 6.109375 33.40625 6.109375 
Q 40.53125 6.109375 44.609375 11.75 
Q 48.6875 17.390625 48.6875 27.296875 
z
" id="DejaVuSans-112"/>
    <path id="DejaVuSans-32"/>
    <path d="M 30.609375 48.390625 
Q 23.390625 48.390625 19.1875 42.75 
Q 14.984375 37.109375 14.984375 27.296875 
Q 14.984375 17.484375 19.15625 11.84375 
Q 23.34375 6.203125 30.609375 6.203125 
Q 37.796875 6.203125 41.984375 11.859375 
Q 46.1875 17.53125 46.1875 27.296875 
Q 46.1875 37.015625 41.984375 42.703125 
Q 37.796875 48.390625 30.609375 48.390625 
z
M 30.609375 56 
Q 42.328125 56 49.015625 48.375 
Q 55.71875 40.765625 55.71875 27.296875 
Q 55.71875 13.875 49.015625 6.21875 
Q 42.328125 -1.421875 30.609375 -1.421875 
Q 18.84375 -1.421875 12.171875 6.21875 
Q 5.515625 13.875 5.515625 27.296875 
Q 5.515625 40.765625 12.171875 48.375 
Q 18.84375 56 30.609375 56 
z
" id="DejaVuSans-111"/>
    <path d="M 2.984375 54.6875 
L 12.5 54.6875 
L 29.59375 8.796875 
L 46.6875 54.6875 
L 56.203125 54.6875 
L 35.6875 0 
L 23.484375 0 
z
" id="DejaVuSans-118"/>
    <path d="M 41.109375 46.296875 
Q 39.59375 47.171875 37.8125 47.578125 
Q 36.03125 48 33.890625 48 
Q 26.265625 48 22.1875 43.046875 
Q 18.109375 38.09375 18.109375 28.8125 
L 18.109375 0 
L 9.078125 0 
L 9.078125 54.6875 
L 18.109375 54.6875 
L 18.109375 46.1875 
Q 20.953125 51.171875 25.484375 53.578125 
Q 30.03125 56 36.53125 56 
Q 37.453125 56 38.578125 55.875 
Q 39.703125 55.765625 41.0625 55.515625 
z
" id="DejaVuSans-114"/>
    <path d="M 45.40625 27.984375 
Q 45.40625 37.75 41.375 43.109375 
Q 37.359375 48.484375 30.078125 48.484375 
Q 22.859375 48.484375 18.828125 43.109375 
Q 14.796875 37.75 14.796875 27.984375 
Q 14.796875 18.265625 18.828125 12.890625 
Q 22.859375 7.515625 30.078125 7.515625 
Q 37.359375 7.515625 41.375 12.890625 
Q 45.40625 18.265625 45.40625 27.984375 
z
M 54.390625 6.78125 
Q 54.390625 -7.171875 48.1875 -13.984375 
Q 42 -20.796875 29.203125 -20.796875 
Q 24.46875 -20.796875 20.265625 -20.09375 
Q 16.0625 -19.390625 12.109375 -17.921875 
L 12.109375 -9.1875 
Q 16.0625 -11.328125 19.921875 -12.34375 
Q 23.78125 -13.375 27.78125 -13.375 
Q 36.625 -13.375 41.015625 -8.765625 
Q 45.40625 -4.15625 45.40625 5.171875 
L 45.40625 9.625 
Q 42.625 4.78125 38.28125 2.390625 
Q 33.9375 0 27.875 0 
Q 17.828125 0 11.671875 7.65625 
Q 5.515625 15.328125 5.515625 27.984375 
Q 5.515625 40.671875 11.671875 48.328125 
Q 17.828125 56 27.875 56 
Q 33.9375 56 38.28125 53.609375 
Q 42.625 51.21875 45.40625 46.390625 
L 45.40625 54.6875 
L 54.390625 54.6875 
z
" id="DejaVuSans-103"/>
    <path d="M 18.3125 70.21875 
L 18.3125 54.6875 
L 36.8125 54.6875 
L 36.8125 47.703125 
L 18.3125 47.703125 
L 18.3125 18.015625 
Q 18.3125 11.328125 20.140625 9.421875 
Q 21.96875 7.515625 27.59375 7.515625 
L 36.8125 7.515625 
L 36.8125 0 
L 27.59375 0 
Q 17.1875 0 13.234375 3.875 
Q 9.28125 7.765625 9.28125 18.015625 
L 9.28125 47.703125 
L 2.6875 47.703125 
L 2.6875 54.6875 
L 9.28125 54.6875 
L 9.28125 70.21875 
z
" id="DejaVuSans-116"/>
    <path d="M 44.28125 53.078125 
L 44.28125 44.578125 
Q 40.484375 46.53125 36.375 47.5 
Q 32.28125 48.484375 27.875 48.484375 
Q 21.1875 48.484375 17.84375 46.4375 
Q 14.5 44.390625 14.5 40.28125 
Q 14.5 37.15625 16.890625 35.375 
Q 19.28125 33.59375 26.515625 31.984375 
L 29.59375 31.296875 
Q 39.15625 29.25 43.1875 25.515625 
Q 47.21875 21.78125 47.21875 15.09375 
Q 47.21875 7.46875 41.1875 3.015625 
Q 35.15625 -1.421875 24.609375 -1.421875 
Q 20.21875 -1.421875 15.453125 -0.5625 
Q 10.6875 0.296875 5.421875 2 
L 5.421875 11.28125 
Q 10.40625 8.6875 15.234375 7.390625 
Q 20.0625 6.109375 24.8125 6.109375 
Q 31.15625 6.109375 34.5625 8.28125 
Q 37.984375 10.453125 37.984375 14.40625 
Q 37.984375 18.0625 35.515625 20.015625 
Q 33.0625 21.96875 24.703125 23.78125 
L 21.578125 24.515625 
Q 13.234375 26.265625 9.515625 29.90625 
Q 5.8125 33.546875 5.8125 39.890625 
Q 5.8125 47.609375 11.28125 51.796875 
Q 16.75 56 26.8125 56 
Q 31.78125 56 36.171875 55.265625 
Q 40.578125 54.546875 44.28125 53.078125 
z
" id="DejaVuSans-115"/>
   </defs>
   <g transform="translate(140.184375 16.030125)scale(0.12 -0.12)">
    <use xlink:href="#DejaVuSans-107"/>
    <use x="56.160156" xlink:href="#DejaVuSans-97"/>
    <use x="117.439453" xlink:href="#DejaVuSans-112"/>
    <use x="180.916016" xlink:href="#DejaVuSans-112"/>
    <use x="244.392578" xlink:href="#DejaVuSans-97"/>
    <use x="305.671875" xlink:href="#DejaVuSans-46"/>
    <use x="337.458984" xlink:href="#DejaVuSans-109"/>
    <use x="434.871094" xlink:href="#DejaVuSans-101"/>
    <use x="496.394531" xlink:href="#DejaVuSans-97"/>
    <use x="557.673828" xlink:href="#DejaVuSans-110"/>
    <use x="621.052734" xlink:href="#DejaVuSans-32"/>
    <use x="652.839844" xlink:href="#DejaVuSans-111"/>
    <use x="714.021484" xlink:href="#DejaVuSans-118"/>
    <use x="773.201172" xlink:href="#DejaVuSans-101"/>
    <use x="834.724609" xlink:href="#DejaVuSans-114"/>
    <use x="875.837891" xlink:href="#DejaVuSans-32"/>
    <use x="907.625" xlink:href="#DejaVuSans-103"/>
    <use x="971.101562" xlink:href="#DejaVuSans-101"/>
    <use x="1032.625" xlink:href="#DejaVuSans-110"/>
    <use x="1096.003906" xlink:href="#DejaVuSans-101"/>
    <use x="1157.527344" xlink:href="#DejaVuSans-114"/>
    <use x="1198.640625" xlink:href="#DejaVuSans-97"/>
    <use x="1259.919922" xlink:href="#DejaVuSans-116"/>
    <use x="1299.128906" xlink:href="#DejaVuSans-105"/>
    <use x="1326.912109" xlink:href="#DejaVuSans-111"/>
    <use x="1388.09375" xlink:href="#DejaVuSans-110"/>
    <use x="1451.472656" xlink:href="#DejaVuSans-115"/>
   </g>
  </g>
 </g>
 <defs>
  <clipPath id="pb634b5202e">
   <rect height="266.112" width="357.12" x="57.6" y="41.472"/>
  </clipPath>
 </defs>
</svg>
