<?xml version="1.0" encoding="utf-8" standalone="no"?>
<!DOCTYPE svg PUBLIC "-//W3C//DTD SVG 1.1//EN"
  "http://www.w3.org/Graphics/SVG/1.1/DTD/svg11.dtd">
<!-- Created with matplotlib (https://matplotlib.org/) -->
<svg height="345.6pt" version="1.1" viewBox="0 0 460.8 345.6" width="460.8pt" xmlns="http://www.w3.org/2000/svg" xmlns:xlink="http://www.w3.org/1999/xlink">
 <defs>
  <style type="text/css">
*{stroke-linecap:butt;stroke-linejoin:round;}
  </style>
 </defs>
 <g id="figure_1">
  <g id="patch_1">
   <path d="M 0 345.6 
L 460.8 345.6 
L 460.8 0 
L 0 0 
z
" style="fill:#ffffff;"/>
  </g>
  <g id="axes_1">
   <g id="patch_2">
    <path clip-path="url(#pee216c1b0a)" d="M 88.589752 64.564364 
Q 136.033983 71.916864 183.478214 79.269365 
" style="fill:none;stroke:#000000;stroke-linecap:round;stroke-opacity:0.9;stroke-width:0.4;"/>
   </g>
   <g id="patch_3">
    <path clip-path="url(#pee216c1b0a)" d="M 88.589752 119.546182 
Q 136.142067 100.339824 183.694381 81.133467 
" style="fill:none;stroke:#000000;stroke-linecap:round;stroke-opacity:0.9;stroke-width:0.4;"/>
   </g>
   <g id="patch_4">
    <path clip-path="url(#pee216c1b0a)" d="M 88.589752 119.546182 
Q 234.396885 109.626116 380.204018 99.70605 
" style="fill:none;stroke:#000000;stroke-linecap:round;stroke-opacity:0.9;stroke-width:0.4;"/>
   </g>
   <g id="patch_5">
    <path clip-path="url(#pee216c1b0a)" d="M 88.589752 174.528 
Q 234.392382 174.528 380.195011 174.528 
" style="fill:none;stroke:#000000;stroke-linecap:round;stroke-opacity:0.9;stroke-width:0.4;"/>
   </g>
   <g id="patch_6">
    <path clip-path="url(#pee216c1b0a)" d="M 88.589752 174.528 
Q 234.446423 211.623123 380.303095 248.718246 
" style="fill:none;stroke:#000000;stroke-linecap:round;stroke-opacity:0.9;stroke-width:0.4;"/>
   </g>
   <g id="patch_7">
    <path clip-path="url(#pee216c1b0a)" d="M 88.589752 229.509818 
Q 136.451306 187.401488 184.31286 145.293157 
" style="fill:none;stroke:#000000;stroke-linecap:round;stroke-opacity:0.9;stroke-width:0.4;"/>
   </g>
   <g id="patch_8">
    <path clip-path="url(#pee216c1b0a)" d="M 88.589752 229.509818 
Q 136.809333 156.136904 185.028915 82.763989 
" style="fill:none;stroke:#000000;stroke-linecap:round;stroke-opacity:0.9;stroke-width:0.4;"/>
   </g>
   <g id="patch_9">
    <path clip-path="url(#pee216c1b0a)" d="M 88.589752 229.509818 
Q 234.396885 239.429884 380.204018 249.34995 
" style="fill:none;stroke:#000000;stroke-linecap:round;stroke-opacity:0.9;stroke-width:0.4;"/>
   </g>
   <g id="patch_10">
    <path clip-path="url(#pee216c1b0a)" d="M 88.589752 284.491636 
Q 136.770303 215.175943 184.950854 145.860249 
" style="fill:none;stroke:#000000;stroke-linecap:round;stroke-opacity:0.9;stroke-width:0.4;"/>
   </g>
   <g id="patch_11">
    <path clip-path="url(#pee216c1b0a)" d="M 88.589752 284.491636 
Q 137.013491 183.745445 185.437231 82.999253 
" style="fill:none;stroke:#000000;stroke-linecap:round;stroke-opacity:0.9;stroke-width:0.4;"/>
   </g>
   <g id="patch_12">
    <path clip-path="url(#pee216c1b0a)" d="M 88.589752 284.491636 
Q 136.397264 246.397729 184.204777 208.303822 
" style="fill:none;stroke:#000000;stroke-linecap:round;stroke-opacity:0.9;stroke-width:0.4;"/>
   </g>
   <g id="patch_13">
    <path clip-path="url(#pee216c1b0a)" d="M 88.589752 284.491636 
Q 136.033983 277.139136 183.478214 269.786635 
" style="fill:none;stroke:#000000;stroke-linecap:round;stroke-opacity:0.9;stroke-width:0.4;"/>
   </g>
   <g id="patch_14">
    <path clip-path="url(#pee216c1b0a)" d="M 186.969917 142.955493 
Q 283.625247 121.592052 380.280577 100.228611 
" style="fill:none;stroke:#000000;stroke-linecap:round;stroke-opacity:0.9;stroke-width:0.4;"/>
   </g>
   <g id="patch_15">
    <path clip-path="url(#pee216c1b0a)" d="M 186.969917 142.955493 
Q 283.79638 195.430646 380.622842 247.905799 
" style="fill:none;stroke:#000000;stroke-linecap:round;stroke-opacity:0.9;stroke-width:0.4;"/>
   </g>
   <g id="patch_16">
    <path clip-path="url(#pee216c1b0a)" d="M 186.969917 79.810479 
Q 235.07466 141.562248 283.179402 203.314017 
" style="fill:none;stroke:#000000;stroke-linecap:round;stroke-opacity:0.9;stroke-width:0.4;"/>
   </g>
   <g id="patch_17">
    <path clip-path="url(#pee216c1b0a)" d="M 186.969917 79.810479 
Q 234.393132 79.810479 281.816347 79.810479 
" style="fill:none;stroke:#000000;stroke-linecap:round;stroke-opacity:0.9;stroke-width:0.4;"/>
   </g>
   <g id="patch_18">
    <path clip-path="url(#pee216c1b0a)" d="M 186.969917 206.100507 
Q 234.672348 175.482845 282.374779 144.865183 
" style="fill:none;stroke:#000000;stroke-linecap:round;stroke-opacity:0.9;stroke-width:0.4;"/>
   </g>
   <g id="patch_19">
    <path clip-path="url(#pee216c1b0a)" d="M 186.969917 269.245521 
Q 234.393132 269.245521 281.816347 269.245521 
" style="fill:none;stroke:#000000;stroke-linecap:round;stroke-opacity:0.9;stroke-width:0.4;"/>
   </g>
   <g id="patch_20">
    <path clip-path="url(#pee216c1b0a)" d="M 285.350083 269.245521 
Q 333.265679 223.113799 381.181275 176.982076 
" style="fill:none;stroke:#000000;stroke-linecap:round;stroke-opacity:0.9;stroke-width:0.4;"/>
   </g>
   <g id="patch_21">
    <path clip-path="url(#pee216c1b0a)" d="M 285.350083 142.955493 
Q 332.923414 121.925509 380.496745 100.895524 
" style="fill:none;stroke:#000000;stroke-linecap:round;stroke-opacity:0.9;stroke-width:0.4;"/>
   </g>
   <g id="patch_22">
    <path clip-path="url(#pee216c1b0a)" d="M 285.350083 206.100507 
Q 332.857362 190.854304 380.364642 175.608102 
" style="fill:none;stroke:#000000;stroke-linecap:round;stroke-opacity:0.9;stroke-width:0.4;"/>
   </g>
   <g id="patch_23">
    <path clip-path="url(#pee216c1b0a)" d="M 285.350083 79.810479 
Q 332.806323 89.2919 380.262563 98.773322 
" style="fill:none;stroke:#000000;stroke-linecap:round;stroke-opacity:0.9;stroke-width:0.4;"/>
   </g>
   <g id="PathCollection_1">
    <defs>
     <path d="M 0 3.535534 
C 0.937635 3.535534 1.836992 3.163008 2.5 2.5 
C 3.163008 1.836992 3.535534 0.937635 3.535534 0 
C 3.535534 -0.937635 3.163008 -1.836992 2.5 -2.5 
C 1.836992 -3.163008 0.937635 -3.535534 0 -3.535534 
C -0.937635 -3.535534 -1.836992 -3.163008 -2.5 -2.5 
C -3.163008 -1.836992 -3.535534 -0.937635 -3.535534 0 
C -3.535534 0.937635 -3.163008 1.836992 -2.5 2.5 
C -1.836992 3.163008 -0.937635 3.535534 0 3.535534 
z
" id="C0_0_31d53513a4"/>
    </defs>
    <g clip-path="url(#pee216c1b0a)">
     <use style="fill:#fdb462;fill-opacity:0.9;" x="88.589752" xlink:href="#C0_0_31d53513a4" y="64.564364"/>
    </g>
    <g clip-path="url(#pee216c1b0a)">
     <use style="fill:#fdb462;fill-opacity:0.9;" x="88.589752" xlink:href="#C0_0_31d53513a4" y="119.546182"/>
    </g>
    <g clip-path="url(#pee216c1b0a)">
     <use style="fill:#fdb462;fill-opacity:0.9;" x="88.589752" xlink:href="#C0_0_31d53513a4" y="174.528"/>
    </g>
    <g clip-path="url(#pee216c1b0a)">
     <use style="fill:#fdb462;fill-opacity:0.9;" x="88.589752" xlink:href="#C0_0_31d53513a4" y="229.509818"/>
    </g>
    <g clip-path="url(#pee216c1b0a)">
     <use style="fill:#ffed6f;fill-opacity:0.9;" x="88.589752" xlink:href="#C0_0_31d53513a4" y="284.491636"/>
    </g>
    <g clip-path="url(#pee216c1b0a)">
     <use style="fill:#80b1d3;fill-opacity:0.9;" x="186.969917" xlink:href="#C0_0_31d53513a4" y="142.955493"/>
    </g>
    <g clip-path="url(#pee216c1b0a)">
     <use style="fill:#80b1d3;fill-opacity:0.9;" x="186.969917" xlink:href="#C0_0_31d53513a4" y="79.810479"/>
    </g>
    <g clip-path="url(#pee216c1b0a)">
     <use style="fill:#80b1d3;fill-opacity:0.9;" x="186.969917" xlink:href="#C0_0_31d53513a4" y="206.100507"/>
    </g>
    <g clip-path="url(#pee216c1b0a)">
     <use style="fill:#80b1d3;fill-opacity:0.9;" x="186.969917" xlink:href="#C0_0_31d53513a4" y="269.245521"/>
    </g>
    <g clip-path="url(#pee216c1b0a)">
     <use style="fill:#80b1d3;fill-opacity:0.9;" x="285.350083" xlink:href="#C0_0_31d53513a4" y="269.245521"/>
    </g>
    <g clip-path="url(#pee216c1b0a)">
     <use style="fill:#80b1d3;fill-opacity:0.9;" x="285.350083" xlink:href="#C0_0_31d53513a4" y="142.955493"/>
    </g>
    <g clip-path="url(#pee216c1b0a)">
     <use style="fill:#80b1d3;fill-opacity:0.9;" x="285.350083" xlink:href="#C0_0_31d53513a4" y="206.100507"/>
    </g>
    <g clip-path="url(#pee216c1b0a)">
     <use style="fill:#80b1d3;fill-opacity:0.9;" x="285.350083" xlink:href="#C0_0_31d53513a4" y="79.810479"/>
    </g>
    <g clip-path="url(#pee216c1b0a)">
     <use style="fill:#b3de69;fill-opacity:0.9;" x="383.730248" xlink:href="#C0_0_31d53513a4" y="99.466141"/>
    </g>
    <g clip-path="url(#pee216c1b0a)">
     <use style="fill:#b3de69;fill-opacity:0.9;" x="383.730248" xlink:href="#C0_0_31d53513a4" y="174.528"/>
    </g>
    <g clip-path="url(#pee216c1b0a)">
     <use style="fill:#b3de69;fill-opacity:0.9;" x="383.730248" xlink:href="#C0_0_31d53513a4" y="249.589859"/>
    </g>
   </g>
  </g>
 </g>
 <defs>
  <clipPath id="pee216c1b0a">
   <rect height="266.112" width="357.12" x="57.6" y="41.472"/>
  </clipPath>
 </defs>
</svg>
