<?xml version="1.0" encoding="utf-8" standalone="no"?>
<!DOCTYPE svg PUBLIC "-//W3C//DTD SVG 1.1//EN"
  "http://www.w3.org/Graphics/SVG/1.1/DTD/svg11.dtd">
<!-- Created with matplotlib (https://matplotlib.org/) -->
<svg height="345.6pt" version="1.1" viewBox="0 0 460.8 345.6" width="460.8pt" xmlns="http://www.w3.org/2000/svg" xmlns:xlink="http://www.w3.org/1999/xlink">
 <defs>
  <style type="text/css">
*{stroke-linecap:butt;stroke-linejoin:round;}
  </style>
 </defs>
 <g id="figure_1">
  <g id="patch_1">
   <path d="M 0 345.6 
L 460.8 345.6 
L 460.8 0 
L 0 0 
z
" style="fill:#ffffff;"/>
  </g>
  <g id="axes_1">
   <g id="patch_2">
    <path d="M 57.6 307.584 
L 414.72 307.584 
L 414.72 41.472 
L 57.6 41.472 
z
" style="fill:#ffffff;"/>
   </g>
   <g id="PolyCollection_1">
    <path clip-path="url(#pff6272267e)" d="M 73.832727 191.146852 
L 73.832727 191.146852 
L 75.464157 191.146852 
L 77.095587 191.146852 
L 78.727017 191.146852 
L 80.358447 191.146852 
L 81.989877 191.146852 
L 83.621307 191.146852 
L 85.252736 191.146852 
L 86.884166 191.146852 
L 88.515596 191.146852 
L 90.147026 191.146852 
L 91.778456 191.146852 
L 93.409886 191.146852 
L 95.041316 191.146852 
L 96.672746 191.146852 
L 98.304175 191.146852 
L 99.935605 191.146852 
L 101.567035 191.146852 
L 103.198465 191.146852 
L 104.829895 191.146852 
L 106.461325 191.146852 
L 108.092755 191.146852 
L 109.724185 191.146852 
L 111.355614 191.146852 
L 112.987044 191.146852 
L 114.618474 191.146852 
L 116.249904 191.146852 
L 117.881334 191.146852 
L 119.512764 191.146852 
L 121.144194 191.146852 
L 122.775624 191.146852 
L 124.407053 191.146852 
L 126.038483 191.146852 
L 127.669913 191.146852 
L 129.301343 191.146852 
L 130.932773 191.146852 
L 132.564203 191.146852 
L 134.195633 191.146852 
L 135.827063 191.146852 
L 137.458492 191.146852 
L 139.089922 191.146852 
L 140.721352 191.146852 
L 142.352782 191.146852 
L 143.984212 191.146852 
L 145.615642 191.146852 
L 147.247072 191.146852 
L 148.878502 191.146852 
L 150.509931 191.146852 
L 152.141361 191.146852 
L 153.772791 191.146852 
L 155.404221 191.146852 
L 157.035651 191.146852 
L 158.667081 191.146852 
L 160.298511 191.146852 
L 161.929941 191.146852 
L 163.56137 191.146852 
L 165.1928 191.146852 
L 166.82423 191.146852 
L 168.45566 191.146852 
L 170.08709 191.146852 
L 171.71852 191.146852 
L 173.34995 191.146852 
L 174.98138 191.146852 
L 176.61281 191.146852 
L 178.244239 191.146852 
L 179.875669 191.146852 
L 181.507099 191.146852 
L 183.138529 191.146852 
L 184.769959 191.146852 
L 186.401389 191.146852 
L 188.032819 191.146852 
L 189.664249 191.146852 
L 191.295678 191.146852 
L 192.927108 191.146852 
L 194.558538 191.146852 
L 196.189968 191.146852 
L 197.821398 191.146852 
L 199.452828 191.146852 
L 201.084258 191.146852 
L 202.715688 191.146852 
L 204.347117 191.146852 
L 205.978547 191.146852 
L 207.609977 191.146852 
L 209.241407 191.146852 
L 210.872837 191.146852 
L 212.504267 191.146852 
L 214.135697 191.146852 
L 215.767127 191.146852 
L 217.398556 191.146852 
L 219.029986 175.579826 
L 220.661416 166.954852 
L 222.292846 175.579826 
L 223.924276 191.146852 
L 225.555706 186.939548 
L 227.187136 191.146852 
L 228.818566 173.055443 
L 230.449995 179.78713 
L 232.081425 174.04153 
L 233.712855 182.732243 
L 235.344285 175.37472 
L 236.975715 188.201739 
L 238.607145 175.159096 
L 240.238575 177.788661 
L 241.870005 188.517287 
L 243.501434 182.732243 
L 245.132864 183.994435 
L 246.764294 183.934984 
L 248.395724 186.098087 
L 250.027154 191.146852 
L 251.658584 188.62247 
L 253.290014 188.412104 
L 254.921444 170.552097 
L 256.552873 191.146852 
L 258.184303 191.146852 
L 259.815733 198.825183 
L 261.447163 191.146852 
L 263.078593 191.146852 
L 264.710023 178.244452 
L 266.341453 188.201739 
L 267.972883 176.421287 
L 269.604312 188.201739 
L 271.235742 191.146852 
L 272.867172 178.524939 
L 274.498602 190.410574 
L 276.130032 186.939548 
L 277.761462 187.781009 
L 279.392892 190.410574 
L 281.024322 175.264278 
L 282.655751 176.126776 
L 284.287181 191.146852 
L 285.918611 185.782539 
L 287.550041 189.46393 
L 289.181471 191.146852 
L 290.812901 176.52647 
L 292.444331 167.060035 
L 294.075761 189.46393 
L 295.70719 191.146852 
L 297.33862 190.515757 
L 298.97005 191.146852 
L 300.60148 191.146852 
L 302.23291 191.146852 
L 303.86434 191.146852 
L 305.49577 169.681185 
L 307.1272 176.521461 
L 308.75863 188.727652 
L 310.390059 179.261217 
L 312.021489 190.726122 
L 313.652919 187.886191 
L 315.284349 173.896904 
L 316.915779 182.942609 
L 318.547209 186.098087 
L 320.178639 191.146852 
L 321.810069 190.410574 
L 323.441498 170.531061 
L 325.072928 183.994435 
L 326.704358 164.16 
L 328.335788 167.128948 
L 329.967218 190.515757 
L 331.598648 166.471968 
L 333.230078 181.049322 
L 334.861508 189.989843 
L 336.492937 171.793252 
L 338.124367 189.46393 
L 339.755797 191.146852 
L 341.387227 172.1088 
L 343.018657 172.213983 
L 344.650087 166.59885 
L 346.281517 171.477704 
L 347.912947 179.471583 
L 349.544376 190.831304 
L 351.175806 191.146852 
L 352.807236 191.146852 
L 354.438666 179.681948 
L 356.070096 191.146852 
L 357.701526 191.146852 
L 359.332956 191.146852 
L 360.964386 189.46393 
L 362.595815 179.897094 
L 364.227245 171.056974 
L 365.858675 186.518817 
L 367.490105 191.146852 
L 369.121535 193.671235 
L 370.752965 195.564522 
L 372.384395 191.146852 
L 374.015825 191.146852 
L 375.647254 191.146852 
L 377.278684 191.146852 
L 378.910114 183.994435 
L 380.541544 217.442504 
L 382.172974 191.146852 
L 383.804404 170.846609 
L 385.435834 178.94567 
L 387.067264 193.776417 
L 388.698693 191.146852 
L 390.330123 191.146852 
L 391.961553 190.305391 
L 393.592983 189.674296 
L 395.224413 194.197148 
L 396.855843 191.988313 
L 398.487273 187.928264 
L 398.487273 111.944348 
L 398.487273 111.944348 
L 396.855843 143.183583 
L 395.224413 156.226226 
L 393.592983 149.810087 
L 391.961553 150.562143 
L 390.330123 165.903026 
L 388.698693 152.625744 
L 387.067264 140.465958 
L 385.435834 166.744487 
L 383.804404 148.653078 
L 382.172974 175.027617 
L 380.541544 155.745391 
L 378.910114 153.281113 
L 377.278684 157.698783 
L 375.647254 120.358957 
L 374.015825 163.960121 
L 372.384395 161.921113 
L 370.752965 155.59513 
L 369.121535 169.6896 
L 367.490105 133.717148 
L 365.858675 142.131757 
L 364.227245 151.177461 
L 362.595815 147.811617 
L 360.964386 154.543304 
L 359.332956 168.427409 
L 357.701526 149.704904 
L 356.070096 158.991026 
L 354.438666 145.813148 
L 352.807236 149.073809 
L 351.175806 137.293357 
L 349.544376 151.598191 
L 347.912947 137.293357 
L 346.281517 96.903235 
L 344.650087 132.349774 
L 343.018657 136.451896 
L 341.387227 151.282643 
L 339.755797 139.251811 
L 338.124367 151.598191 
L 336.492937 141.217125 
L 334.861508 117.308661 
L 333.230078 147.390887 
L 331.598648 121.936696 
L 329.967218 135.925983 
L 328.335788 144.596035 
L 326.704358 128.037287 
L 325.072928 143.49913 
L 323.441498 124.355896 
L 321.810069 143.919861 
L 320.178639 152.018922 
L 318.547209 139.968 
L 316.915779 142.33256 
L 315.284349 145.91833 
L 313.652919 165.319457 
L 312.021489 153.596661 
L 310.390059 147.285704 
L 308.75863 140.6592 
L 307.1272 135.084522 
L 305.49577 139.772661 
L 303.86434 157.328139 
L 302.23291 168.427409 
L 300.60148 134.243061 
L 298.97005 164.68583 
L 297.33862 157.940703 
L 295.70719 171.056974 
L 294.075761 164.723478 
L 292.444331 136.3968 
L 290.812901 136.54656 
L 289.181471 147.463134 
L 287.550041 170.531061 
L 285.918611 150.199263 
L 284.287181 166.353809 
L 282.655751 147.075339 
L 281.024322 149.494539 
L 279.392892 154.798748 
L 277.761462 148.968626 
L 276.130032 149.073809 
L 274.498602 158.750609 
L 272.867172 140.532981 
L 271.235742 157.488417 
L 269.604312 149.073809 
L 267.972883 148.232348 
L 266.341453 149.073809 
L 264.710023 145.234643 
L 263.078593 163.721157 
L 261.447163 139.817739 
L 259.815733 152.229287 
L 258.184303 167.992677 
L 256.552873 172.193948 
L 254.921444 141.07993 
L 253.290014 151.598191 
L 251.658584 167.585948 
L 250.027154 188.201739 
L 248.395724 153.281113 
L 246.764294 160.538713 
L 245.132864 149.073809 
L 243.501434 149.494539 
L 241.870005 168.585183 
L 240.238575 149.494539 
L 238.607145 150.75673 
L 236.975715 172.170459 
L 235.344285 160.43353 
L 233.712855 154.122574 
L 232.081425 149.91527 
L 230.449995 160.43353 
L 228.818566 133.927513 
L 227.187136 179.3664 
L 225.555706 170.531061 
L 223.924276 163.311709 
L 222.292846 128.037287 
L 220.661416 136.451896 
L 219.029986 149.073809 
L 217.398556 170.11033 
L 215.767127 148.442713 
L 214.135697 157.909148 
L 212.504267 164.220104 
L 210.872837 170.11033 
L 209.241407 176.361934 
L 207.609977 190.147617 
L 205.978547 191.146852 
L 204.347117 191.146852 
L 202.715688 191.146852 
L 201.084258 191.146852 
L 199.452828 191.146852 
L 197.821398 191.146852 
L 196.189968 191.146852 
L 194.558538 191.146852 
L 192.927108 191.146852 
L 191.295678 191.146852 
L 189.664249 191.146852 
L 188.032819 191.146852 
L 186.401389 191.146852 
L 184.769959 191.146852 
L 183.138529 191.146852 
L 181.507099 191.146852 
L 179.875669 191.146852 
L 178.244239 191.146852 
L 176.61281 191.146852 
L 174.98138 191.146852 
L 173.34995 191.146852 
L 171.71852 191.146852 
L 170.08709 191.146852 
L 168.45566 191.146852 
L 166.82423 191.146852 
L 165.1928 191.146852 
L 163.56137 191.146852 
L 161.929941 191.146852 
L 160.298511 191.146852 
L 158.667081 191.146852 
L 157.035651 191.146852 
L 155.404221 191.146852 
L 153.772791 191.146852 
L 152.141361 191.146852 
L 150.509931 191.146852 
L 148.878502 191.146852 
L 147.247072 191.146852 
L 145.615642 191.146852 
L 143.984212 191.146852 
L 142.352782 191.146852 
L 140.721352 191.146852 
L 139.089922 191.146852 
L 137.458492 191.146852 
L 135.827063 191.146852 
L 134.195633 191.146852 
L 132.564203 191.146852 
L 130.932773 191.146852 
L 129.301343 191.146852 
L 127.669913 191.146852 
L 126.038483 191.146852 
L 124.407053 191.146852 
L 122.775624 191.146852 
L 121.144194 191.146852 
L 119.512764 191.146852 
L 117.881334 191.146852 
L 116.249904 191.146852 
L 114.618474 191.146852 
L 112.987044 191.146852 
L 111.355614 191.146852 
L 109.724185 191.146852 
L 108.092755 191.146852 
L 106.461325 191.146852 
L 104.829895 191.146852 
L 103.198465 191.146852 
L 101.567035 191.146852 
L 99.935605 191.146852 
L 98.304175 191.146852 
L 96.672746 191.146852 
L 95.041316 191.146852 
L 93.409886 191.146852 
L 91.778456 191.146852 
L 90.147026 191.146852 
L 88.515596 191.146852 
L 86.884166 191.146852 
L 85.252736 191.146852 
L 83.621307 191.146852 
L 81.989877 191.146852 
L 80.358447 191.146852 
L 78.727017 191.146852 
L 77.095587 191.146852 
L 75.464157 191.146852 
L 73.832727 191.146852 
z
" style="fill:#1f77b4;fill-opacity:0.2;"/>
   </g>
   <g id="PolyCollection_2">
    <path clip-path="url(#pff6272267e)" d="M 73.832727 191.146852 
L 73.832727 191.146852 
L 75.464157 191.146852 
L 77.095587 191.146852 
L 78.727017 191.146852 
L 80.358447 191.146852 
L 81.989877 191.146852 
L 83.621307 191.146852 
L 85.252736 191.146852 
L 86.884166 191.146852 
L 88.515596 191.146852 
L 90.147026 191.146852 
L 91.778456 191.146852 
L 93.409886 191.146852 
L 95.041316 191.146852 
L 96.672746 191.146852 
L 98.304175 191.146852 
L 99.935605 191.146852 
L 101.567035 191.146852 
L 103.198465 191.146852 
L 104.829895 191.146852 
L 106.461325 191.146852 
L 108.092755 191.146852 
L 109.724185 191.146852 
L 111.355614 191.146852 
L 112.987044 191.146852 
L 114.618474 191.146852 
L 116.249904 191.146852 
L 117.881334 191.146852 
L 119.512764 191.146852 
L 121.144194 191.146852 
L 122.775624 191.146852 
L 124.407053 191.146852 
L 126.038483 191.146852 
L 127.669913 191.146852 
L 129.301343 191.146852 
L 130.932773 191.146852 
L 132.564203 191.146852 
L 134.195633 191.146852 
L 135.827063 191.146852 
L 137.458492 191.146852 
L 139.089922 191.146852 
L 140.721352 191.146852 
L 142.352782 191.146852 
L 143.984212 191.146852 
L 145.615642 191.146852 
L 147.247072 191.146852 
L 148.878502 191.146852 
L 150.509931 191.146852 
L 152.141361 191.146852 
L 153.772791 191.146852 
L 155.404221 191.146852 
L 157.035651 191.146852 
L 158.667081 191.146852 
L 160.298511 191.146852 
L 161.929941 191.146852 
L 163.56137 191.146852 
L 165.1928 191.146852 
L 166.82423 191.146852 
L 168.45566 191.146852 
L 170.08709 191.146852 
L 171.71852 191.146852 
L 173.34995 191.146852 
L 174.98138 191.146852 
L 176.61281 191.146852 
L 178.244239 191.146852 
L 179.875669 191.146852 
L 181.507099 191.146852 
L 183.138529 191.146852 
L 184.769959 191.146852 
L 186.401389 191.146852 
L 188.032819 191.146852 
L 189.664249 191.146852 
L 191.295678 191.146852 
L 192.927108 191.146852 
L 194.558538 191.146852 
L 196.189968 191.146852 
L 197.821398 191.146852 
L 199.452828 191.146852 
L 201.084258 191.146852 
L 202.715688 191.146852 
L 204.347117 191.146852 
L 205.978547 191.146852 
L 207.609977 218.915061 
L 209.241407 252.152765 
L 210.872837 273.610017 
L 212.504267 261.408835 
L 214.135697 227.32967 
L 215.767127 270.664904 
L 217.398556 211.341913 
L 219.029986 246.68327 
L 220.661416 227.32967 
L 222.292846 212.183374 
L 223.924276 212.604104 
L 225.555706 209.238261 
L 227.187136 193.671235 
L 228.818566 196.616348 
L 230.449995 216.390678 
L 232.081425 261.829565 
L 233.712855 191.146852 
L 235.344285 221.860174 
L 236.975715 204.610226 
L 238.607145 210.079722 
L 240.238575 197.457809 
L 241.870005 229.433322 
L 243.501434 209.238261 
L 245.132864 194.512696 
L 246.764294 211.762643 
L 248.395724 222.701635 
L 250.027154 275.71367 
L 251.658584 205.872417 
L 253.290014 258.884452 
L 254.921444 218.49433 
L 256.552873 264.774678 
L 258.184303 276.1344 
L 259.815733 234.902817 
L 261.447163 224.384557 
L 263.078593 215.549217 
L 264.710023 252.573496 
L 266.341453 233.219896 
L 267.972883 230.695513 
L 269.604312 233.219896 
L 271.235742 230.695513 
L 272.867172 212.183374 
L 274.498602 258.463722 
L 276.130032 228.591861 
L 277.761462 213.445565 
L 279.392892 254.256417 
L 281.024322 232.378435 
L 282.655751 199.561461 
L 284.287181 192.829774 
L 285.918611 254.256417 
L 287.550041 210.079722 
L 289.181471 279.500243 
L 290.812901 232.799165 
L 292.444331 200.823652 
L 294.075761 233.219896 
L 295.70719 212.183374 
L 297.33862 230.274783 
L 298.97005 253.414957 
L 300.60148 254.256417 
L 302.23291 244.158887 
L 303.86434 233.219896 
L 305.49577 260.988104 
L 307.1272 226.067478 
L 308.75863 215.549217 
L 310.390059 230.274783 
L 312.021489 229.854052 
L 313.652919 230.695513 
L 315.284349 252.152765 
L 316.915779 271.085635 
L 318.547209 240.372313 
L 320.178639 229.433322 
L 321.810069 227.7504 
L 323.441498 218.915061 
L 325.072928 212.183374 
L 326.704358 191.146852 
L 328.335788 231.116243 
L 329.967218 231.957704 
L 331.598648 223.122365 
L 333.230078 250.049113 
L 334.861508 213.024835 
L 336.492937 214.287026 
L 338.124367 210.500452 
L 339.755797 233.219896 
L 341.387227 216.811409 
L 343.018657 201.244383 
L 344.650087 233.640626 
L 346.281517 264.774678 
L 347.912947 200.402922 
L 349.544376 223.963826 
L 351.175806 256.36007 
L 352.807236 213.024835 
L 354.438666 209.238261 
L 356.070096 253.835687 
L 357.701526 230.274783 
L 359.332956 228.17113 
L 360.964386 231.536974 
L 362.595815 230.695513 
L 364.227245 207.134609 
L 365.858675 214.287026 
L 367.490105 234.061357 
L 369.121535 235.744278 
L 370.752965 239.951583 
L 372.384395 272.768557 
L 374.015825 244.158887 
L 375.647254 219.756522 
L 377.278684 260.988104 
L 378.910114 207.97607 
L 380.541544 263.933217 
L 382.172974 227.7504 
L 383.804404 263.091757 
L 385.435834 253.835687 
L 387.067264 295.488 
L 388.698693 212.183374 
L 390.330123 248.786922 
L 391.961553 191.146852 
L 393.592983 243.738157 
L 395.224413 243.738157 
L 396.855843 245.000348 
L 398.487273 234.061357 
L 398.487273 107.000765 
L 398.487273 107.000765 
L 396.855843 60.299687 
L 395.224413 109.525148 
L 393.592983 136.031165 
L 391.961553 101.53127 
L 390.330123 114.273391 
L 388.698693 111.060814 
L 387.067264 85.964243 
L 385.435834 139.796703 
L 383.804404 112.04953 
L 382.172974 139.681002 
L 380.541544 108.262957 
L 378.910114 121.72633 
L 377.278684 98.586157 
L 375.647254 53.568 
L 374.015825 107.842226 
L 372.384395 95.641043 
L 370.752965 128.037287 
L 369.121535 132.665322 
L 367.490105 92.2752 
L 365.858675 53.98873 
L 364.227245 129.720209 
L 362.595815 114.994643 
L 360.964386 126.775096 
L 359.332956 135.189704 
L 357.701526 113.311722 
L 356.070096 129.299478 
L 354.438666 105.317843 
L 352.807236 89.330087 
L 351.175806 114.994643 
L 349.544376 91.433739 
L 347.912947 127.195826 
L 346.281517 96.482504 
L 344.650087 78.391096 
L 343.018657 118.360487 
L 341.387227 107.842226 
L 339.755797 75.866713 
L 338.124367 126.316117 
L 336.492937 107.421496 
L 334.861508 89.750817 
L 333.230078 88.067896 
L 331.598648 86.384974 
L 329.967218 114.076686 
L 328.335788 109.525148 
L 326.704358 101.110539 
L 325.072928 107.000765 
L 323.441498 59.037496 
L 321.810069 99.427617 
L 320.178639 121.3056 
L 318.547209 91.013009 
L 316.915779 81.336209 
L 315.284349 112.04953 
L 313.652919 140.544455 
L 312.021489 111.688904 
L 310.390059 104.476383 
L 308.75863 110.366609 
L 307.1272 114.994643 
L 305.49577 98.586157 
L 303.86434 104.897113 
L 302.23291 146.309009 
L 300.60148 101.110539 
L 298.97005 102.793461 
L 297.33862 95.641043 
L 295.70719 110.366609 
L 294.075761 118.420591 
L 292.444331 114.994643 
L 290.812901 109.945878 
L 289.181471 106.580035 
L 287.550041 119.254539 
L 285.918611 104.897113 
L 284.287181 105.696501 
L 282.655751 70.397217 
L 281.024322 115.310191 
L 279.392892 86.384974 
L 277.761462 56.933843 
L 276.130032 114.153183 
L 274.498602 92.2752 
L 272.867172 76.708174 
L 271.235742 107.842226 
L 269.604312 111.6288 
L 267.972883 116.677565 
L 266.341453 114.153183 
L 264.710023 97.323965 
L 263.078593 108.683687 
L 261.447163 113.311722 
L 259.815733 96.903235 
L 258.184303 94.378852 
L 256.552873 128.337809 
L 254.921444 94.799583 
L 253.290014 109.104417 
L 251.658584 113.311722 
L 250.027154 135.610435 
L 248.395724 122.147061 
L 246.764294 126.254191 
L 245.132864 92.69593 
L 243.501434 108.683687 
L 241.870005 132.665322 
L 240.238575 109.525148 
L 238.607145 114.994643 
L 236.975715 131.087583 
L 235.344285 125.092174 
L 233.712855 128.458017 
L 232.081425 83.860591 
L 230.449995 134.768974 
L 228.818566 108.262957 
L 227.187136 136.220494 
L 225.555706 137.197736 
L 223.924276 135.450157 
L 222.292846 88.067896 
L 220.661416 101.53127 
L 219.029986 119.201948 
L 217.398556 137.356466 
L 215.767127 107.421496 
L 214.135697 113.732452 
L 212.504267 128.037287 
L 210.872837 113.732452 
L 209.241407 94.799583 
L 207.609977 149.073809 
L 205.978547 167.165217 
L 204.347117 170.531061 
L 202.715688 191.146852 
L 201.084258 152.439652 
L 199.452828 191.146852 
L 197.821398 191.146852 
L 196.189968 191.146852 
L 194.558538 191.146852 
L 192.927108 191.146852 
L 191.295678 191.146852 
L 189.664249 191.146852 
L 188.032819 191.146852 
L 186.401389 191.146852 
L 184.769959 191.146852 
L 183.138529 191.146852 
L 181.507099 191.146852 
L 179.875669 191.146852 
L 178.244239 191.146852 
L 176.61281 191.146852 
L 174.98138 191.146852 
L 173.34995 191.146852 
L 171.71852 191.146852 
L 170.08709 191.146852 
L 168.45566 191.146852 
L 166.82423 191.146852 
L 165.1928 191.146852 
L 163.56137 191.146852 
L 161.929941 191.146852 
L 160.298511 191.146852 
L 158.667081 191.146852 
L 157.035651 191.146852 
L 155.404221 191.146852 
L 153.772791 191.146852 
L 152.141361 191.146852 
L 150.509931 191.146852 
L 148.878502 191.146852 
L 147.247072 191.146852 
L 145.615642 191.146852 
L 143.984212 191.146852 
L 142.352782 191.146852 
L 140.721352 191.146852 
L 139.089922 191.146852 
L 137.458492 191.146852 
L 135.827063 191.146852 
L 134.195633 191.146852 
L 132.564203 191.146852 
L 130.932773 191.146852 
L 129.301343 191.146852 
L 127.669913 191.146852 
L 126.038483 191.146852 
L 124.407053 191.146852 
L 122.775624 191.146852 
L 121.144194 191.146852 
L 119.512764 191.146852 
L 117.881334 191.146852 
L 116.249904 191.146852 
L 114.618474 191.146852 
L 112.987044 191.146852 
L 111.355614 191.146852 
L 109.724185 191.146852 
L 108.092755 191.146852 
L 106.461325 191.146852 
L 104.829895 191.146852 
L 103.198465 191.146852 
L 101.567035 191.146852 
L 99.935605 191.146852 
L 98.304175 191.146852 
L 96.672746 191.146852 
L 95.041316 191.146852 
L 93.409886 191.146852 
L 91.778456 191.146852 
L 90.147026 191.146852 
L 88.515596 191.146852 
L 86.884166 191.146852 
L 85.252736 191.146852 
L 83.621307 191.146852 
L 81.989877 191.146852 
L 80.358447 191.146852 
L 78.727017 191.146852 
L 77.095587 191.146852 
L 75.464157 191.146852 
L 73.832727 191.146852 
z
" style="fill:#1f77b4;fill-opacity:0.1;"/>
   </g>
   <g id="matplotlib.axis_1">
    <g id="xtick_1">
     <g id="line2d_1">
      <defs>
       <path d="M 0 0 
L 0 3.5 
" id="ma0d65849e5" style="stroke:#000000;stroke-width:0.8;"/>
      </defs>
      <g>
       <use style="stroke:#000000;stroke-width:0.8;" x="73.832727" xlink:href="#ma0d65849e5" y="307.584"/>
      </g>
     </g>
     <g id="text_1">
      <!-- 0 -->
      <defs>
       <path d="M 31.78125 66.40625 
Q 24.171875 66.40625 20.328125 58.90625 
Q 16.5 51.421875 16.5 36.375 
Q 16.5 21.390625 20.328125 13.890625 
Q 24.171875 6.390625 31.78125 6.390625 
Q 39.453125 6.390625 43.28125 13.890625 
Q 47.125 21.390625 47.125 36.375 
Q 47.125 51.421875 43.28125 58.90625 
Q 39.453125 66.40625 31.78125 66.40625 
z
M 31.78125 74.21875 
Q 44.046875 74.21875 50.515625 64.515625 
Q 56.984375 54.828125 56.984375 36.375 
Q 56.984375 17.96875 50.515625 8.265625 
Q 44.046875 -1.421875 31.78125 -1.421875 
Q 19.53125 -1.421875 13.0625 8.265625 
Q 6.59375 17.96875 6.59375 36.375 
Q 6.59375 54.828125 13.0625 64.515625 
Q 19.53125 74.21875 31.78125 74.21875 
z
" id="DejaVuSans-48"/>
      </defs>
      <g transform="translate(70.651477 322.182437)scale(0.1 -0.1)">
       <use xlink:href="#DejaVuSans-48"/>
      </g>
     </g>
    </g>
    <g id="xtick_2">
     <g id="line2d_2">
      <g>
       <use style="stroke:#000000;stroke-width:0.8;" x="114.618474" xlink:href="#ma0d65849e5" y="307.584"/>
      </g>
     </g>
     <g id="text_2">
      <!-- 25 -->
      <defs>
       <path d="M 19.1875 8.296875 
L 53.609375 8.296875 
L 53.609375 0 
L 7.328125 0 
L 7.328125 8.296875 
Q 12.9375 14.109375 22.625 23.890625 
Q 32.328125 33.6875 34.8125 36.53125 
Q 39.546875 41.84375 41.421875 45.53125 
Q 43.3125 49.21875 43.3125 52.78125 
Q 43.3125 58.59375 39.234375 62.25 
Q 35.15625 65.921875 28.609375 65.921875 
Q 23.96875 65.921875 18.8125 64.3125 
Q 13.671875 62.703125 7.8125 59.421875 
L 7.8125 69.390625 
Q 13.765625 71.78125 18.9375 73 
Q 24.125 74.21875 28.421875 74.21875 
Q 39.75 74.21875 46.484375 68.546875 
Q 53.21875 62.890625 53.21875 53.421875 
Q 53.21875 48.921875 51.53125 44.890625 
Q 49.859375 40.875 45.40625 35.40625 
Q 44.1875 33.984375 37.640625 27.21875 
Q 31.109375 20.453125 19.1875 8.296875 
z
" id="DejaVuSans-50"/>
       <path d="M 10.796875 72.90625 
L 49.515625 72.90625 
L 49.515625 64.59375 
L 19.828125 64.59375 
L 19.828125 46.734375 
Q 21.96875 47.46875 24.109375 47.828125 
Q 26.265625 48.1875 28.421875 48.1875 
Q 40.625 48.1875 47.75 41.5 
Q 54.890625 34.8125 54.890625 23.390625 
Q 54.890625 11.625 47.5625 5.09375 
Q 40.234375 -1.421875 26.90625 -1.421875 
Q 22.3125 -1.421875 17.546875 -0.640625 
Q 12.796875 0.140625 7.71875 1.703125 
L 7.71875 11.625 
Q 12.109375 9.234375 16.796875 8.0625 
Q 21.484375 6.890625 26.703125 6.890625 
Q 35.15625 6.890625 40.078125 11.328125 
Q 45.015625 15.765625 45.015625 23.390625 
Q 45.015625 31 40.078125 35.4375 
Q 35.15625 39.890625 26.703125 39.890625 
Q 22.75 39.890625 18.8125 39.015625 
Q 14.890625 38.140625 10.796875 36.28125 
z
" id="DejaVuSans-53"/>
      </defs>
      <g transform="translate(108.255974 322.182437)scale(0.1 -0.1)">
       <use xlink:href="#DejaVuSans-50"/>
       <use x="63.623047" xlink:href="#DejaVuSans-53"/>
      </g>
     </g>
    </g>
    <g id="xtick_3">
     <g id="line2d_3">
      <g>
       <use style="stroke:#000000;stroke-width:0.8;" x="155.404221" xlink:href="#ma0d65849e5" y="307.584"/>
      </g>
     </g>
     <g id="text_3">
      <!-- 50 -->
      <g transform="translate(149.041721 322.182437)scale(0.1 -0.1)">
       <use xlink:href="#DejaVuSans-53"/>
       <use x="63.623047" xlink:href="#DejaVuSans-48"/>
      </g>
     </g>
    </g>
    <g id="xtick_4">
     <g id="line2d_4">
      <g>
       <use style="stroke:#000000;stroke-width:0.8;" x="196.189968" xlink:href="#ma0d65849e5" y="307.584"/>
      </g>
     </g>
     <g id="text_4">
      <!-- 75 -->
      <defs>
       <path d="M 8.203125 72.90625 
L 55.078125 72.90625 
L 55.078125 68.703125 
L 28.609375 0 
L 18.3125 0 
L 43.21875 64.59375 
L 8.203125 64.59375 
z
" id="DejaVuSans-55"/>
      </defs>
      <g transform="translate(189.827468 322.182437)scale(0.1 -0.1)">
       <use xlink:href="#DejaVuSans-55"/>
       <use x="63.623047" xlink:href="#DejaVuSans-53"/>
      </g>
     </g>
    </g>
    <g id="xtick_5">
     <g id="line2d_5">
      <g>
       <use style="stroke:#000000;stroke-width:0.8;" x="236.975715" xlink:href="#ma0d65849e5" y="307.584"/>
      </g>
     </g>
     <g id="text_5">
      <!-- 100 -->
      <defs>
       <path d="M 12.40625 8.296875 
L 28.515625 8.296875 
L 28.515625 63.921875 
L 10.984375 60.40625 
L 10.984375 69.390625 
L 28.421875 72.90625 
L 38.28125 72.90625 
L 38.28125 8.296875 
L 54.390625 8.296875 
L 54.390625 0 
L 12.40625 0 
z
" id="DejaVuSans-49"/>
      </defs>
      <g transform="translate(227.431965 322.182437)scale(0.1 -0.1)">
       <use xlink:href="#DejaVuSans-49"/>
       <use x="63.623047" xlink:href="#DejaVuSans-48"/>
       <use x="127.246094" xlink:href="#DejaVuSans-48"/>
      </g>
     </g>
    </g>
    <g id="xtick_6">
     <g id="line2d_6">
      <g>
       <use style="stroke:#000000;stroke-width:0.8;" x="277.761462" xlink:href="#ma0d65849e5" y="307.584"/>
      </g>
     </g>
     <g id="text_6">
      <!-- 125 -->
      <g transform="translate(268.217712 322.182437)scale(0.1 -0.1)">
       <use xlink:href="#DejaVuSans-49"/>
       <use x="63.623047" xlink:href="#DejaVuSans-50"/>
       <use x="127.246094" xlink:href="#DejaVuSans-53"/>
      </g>
     </g>
    </g>
    <g id="xtick_7">
     <g id="line2d_7">
      <g>
       <use style="stroke:#000000;stroke-width:0.8;" x="318.547209" xlink:href="#ma0d65849e5" y="307.584"/>
      </g>
     </g>
     <g id="text_7">
      <!-- 150 -->
      <g transform="translate(309.003459 322.182437)scale(0.1 -0.1)">
       <use xlink:href="#DejaVuSans-49"/>
       <use x="63.623047" xlink:href="#DejaVuSans-53"/>
       <use x="127.246094" xlink:href="#DejaVuSans-48"/>
      </g>
     </g>
    </g>
    <g id="xtick_8">
     <g id="line2d_8">
      <g>
       <use style="stroke:#000000;stroke-width:0.8;" x="359.332956" xlink:href="#ma0d65849e5" y="307.584"/>
      </g>
     </g>
     <g id="text_8">
      <!-- 175 -->
      <g transform="translate(349.789206 322.182437)scale(0.1 -0.1)">
       <use xlink:href="#DejaVuSans-49"/>
       <use x="63.623047" xlink:href="#DejaVuSans-55"/>
       <use x="127.246094" xlink:href="#DejaVuSans-53"/>
      </g>
     </g>
    </g>
    <g id="xtick_9">
     <g id="line2d_9">
      <g>
       <use style="stroke:#000000;stroke-width:0.8;" x="400.118703" xlink:href="#ma0d65849e5" y="307.584"/>
      </g>
     </g>
     <g id="text_9">
      <!-- 200 -->
      <g transform="translate(390.574953 322.182437)scale(0.1 -0.1)">
       <use xlink:href="#DejaVuSans-50"/>
       <use x="63.623047" xlink:href="#DejaVuSans-48"/>
       <use x="127.246094" xlink:href="#DejaVuSans-48"/>
      </g>
     </g>
    </g>
   </g>
   <g id="matplotlib.axis_2">
    <g id="ytick_1">
     <g id="line2d_10">
      <defs>
       <path d="M 0 0 
L -3.5 0 
" id="mde4694aed3" style="stroke:#000000;stroke-width:0.8;"/>
      </defs>
      <g>
       <use style="stroke:#000000;stroke-width:0.8;" x="57.6" xlink:href="#mde4694aed3" y="296.329461"/>
      </g>
     </g>
     <g id="text_10">
      <!-- 0.0 -->
      <defs>
       <path d="M 10.6875 12.40625 
L 21 12.40625 
L 21 0 
L 10.6875 0 
z
" id="DejaVuSans-46"/>
      </defs>
      <g transform="translate(34.696875 300.12868)scale(0.1 -0.1)">
       <use xlink:href="#DejaVuSans-48"/>
       <use x="63.623047" xlink:href="#DejaVuSans-46"/>
       <use x="95.410156" xlink:href="#DejaVuSans-48"/>
      </g>
     </g>
    </g>
    <g id="ytick_2">
     <g id="line2d_11">
      <g>
       <use style="stroke:#000000;stroke-width:0.8;" x="57.6" xlink:href="#mde4694aed3" y="264.774678"/>
      </g>
     </g>
     <g id="text_11">
      <!-- 0.1 -->
      <g transform="translate(34.696875 268.573897)scale(0.1 -0.1)">
       <use xlink:href="#DejaVuSans-48"/>
       <use x="63.623047" xlink:href="#DejaVuSans-46"/>
       <use x="95.410156" xlink:href="#DejaVuSans-49"/>
      </g>
     </g>
    </g>
    <g id="ytick_3">
     <g id="line2d_12">
      <g>
       <use style="stroke:#000000;stroke-width:0.8;" x="57.6" xlink:href="#mde4694aed3" y="233.219896"/>
      </g>
     </g>
     <g id="text_12">
      <!-- 0.2 -->
      <g transform="translate(34.696875 237.019114)scale(0.1 -0.1)">
       <use xlink:href="#DejaVuSans-48"/>
       <use x="63.623047" xlink:href="#DejaVuSans-46"/>
       <use x="95.410156" xlink:href="#DejaVuSans-50"/>
      </g>
     </g>
    </g>
    <g id="ytick_4">
     <g id="line2d_13">
      <g>
       <use style="stroke:#000000;stroke-width:0.8;" x="57.6" xlink:href="#mde4694aed3" y="201.665113"/>
      </g>
     </g>
     <g id="text_13">
      <!-- 0.3 -->
      <defs>
       <path d="M 40.578125 39.3125 
Q 47.65625 37.796875 51.625 33 
Q 55.609375 28.21875 55.609375 21.1875 
Q 55.609375 10.40625 48.1875 4.484375 
Q 40.765625 -1.421875 27.09375 -1.421875 
Q 22.515625 -1.421875 17.65625 -0.515625 
Q 12.796875 0.390625 7.625 2.203125 
L 7.625 11.71875 
Q 11.71875 9.328125 16.59375 8.109375 
Q 21.484375 6.890625 26.8125 6.890625 
Q 36.078125 6.890625 40.9375 10.546875 
Q 45.796875 14.203125 45.796875 21.1875 
Q 45.796875 27.640625 41.28125 31.265625 
Q 36.765625 34.90625 28.71875 34.90625 
L 20.21875 34.90625 
L 20.21875 43.015625 
L 29.109375 43.015625 
Q 36.375 43.015625 40.234375 45.921875 
Q 44.09375 48.828125 44.09375 54.296875 
Q 44.09375 59.90625 40.109375 62.90625 
Q 36.140625 65.921875 28.71875 65.921875 
Q 24.65625 65.921875 20.015625 65.03125 
Q 15.375 64.15625 9.8125 62.3125 
L 9.8125 71.09375 
Q 15.4375 72.65625 20.34375 73.4375 
Q 25.25 74.21875 29.59375 74.21875 
Q 40.828125 74.21875 47.359375 69.109375 
Q 53.90625 64.015625 53.90625 55.328125 
Q 53.90625 49.265625 50.4375 45.09375 
Q 46.96875 40.921875 40.578125 39.3125 
z
" id="DejaVuSans-51"/>
      </defs>
      <g transform="translate(34.696875 205.464332)scale(0.1 -0.1)">
       <use xlink:href="#DejaVuSans-48"/>
       <use x="63.623047" xlink:href="#DejaVuSans-46"/>
       <use x="95.410156" xlink:href="#DejaVuSans-51"/>
      </g>
     </g>
    </g>
    <g id="ytick_5">
     <g id="line2d_14">
      <g>
       <use style="stroke:#000000;stroke-width:0.8;" x="57.6" xlink:href="#mde4694aed3" y="170.11033"/>
      </g>
     </g>
     <g id="text_14">
      <!-- 0.4 -->
      <defs>
       <path d="M 37.796875 64.3125 
L 12.890625 25.390625 
L 37.796875 25.390625 
z
M 35.203125 72.90625 
L 47.609375 72.90625 
L 47.609375 25.390625 
L 58.015625 25.390625 
L 58.015625 17.1875 
L 47.609375 17.1875 
L 47.609375 0 
L 37.796875 0 
L 37.796875 17.1875 
L 4.890625 17.1875 
L 4.890625 26.703125 
z
" id="DejaVuSans-52"/>
      </defs>
      <g transform="translate(34.696875 173.909549)scale(0.1 -0.1)">
       <use xlink:href="#DejaVuSans-48"/>
       <use x="63.623047" xlink:href="#DejaVuSans-46"/>
       <use x="95.410156" xlink:href="#DejaVuSans-52"/>
      </g>
     </g>
    </g>
    <g id="ytick_6">
     <g id="line2d_15">
      <g>
       <use style="stroke:#000000;stroke-width:0.8;" x="57.6" xlink:href="#mde4694aed3" y="138.555548"/>
      </g>
     </g>
     <g id="text_15">
      <!-- 0.5 -->
      <g transform="translate(34.696875 142.354767)scale(0.1 -0.1)">
       <use xlink:href="#DejaVuSans-48"/>
       <use x="63.623047" xlink:href="#DejaVuSans-46"/>
       <use x="95.410156" xlink:href="#DejaVuSans-53"/>
      </g>
     </g>
    </g>
    <g id="ytick_7">
     <g id="line2d_16">
      <g>
       <use style="stroke:#000000;stroke-width:0.8;" x="57.6" xlink:href="#mde4694aed3" y="107.000765"/>
      </g>
     </g>
     <g id="text_16">
      <!-- 0.6 -->
      <defs>
       <path d="M 33.015625 40.375 
Q 26.375 40.375 22.484375 35.828125 
Q 18.609375 31.296875 18.609375 23.390625 
Q 18.609375 15.53125 22.484375 10.953125 
Q 26.375 6.390625 33.015625 6.390625 
Q 39.65625 6.390625 43.53125 10.953125 
Q 47.40625 15.53125 47.40625 23.390625 
Q 47.40625 31.296875 43.53125 35.828125 
Q 39.65625 40.375 33.015625 40.375 
z
M 52.59375 71.296875 
L 52.59375 62.3125 
Q 48.875 64.0625 45.09375 64.984375 
Q 41.3125 65.921875 37.59375 65.921875 
Q 27.828125 65.921875 22.671875 59.328125 
Q 17.53125 52.734375 16.796875 39.40625 
Q 19.671875 43.65625 24.015625 45.921875 
Q 28.375 48.1875 33.59375 48.1875 
Q 44.578125 48.1875 50.953125 41.515625 
Q 57.328125 34.859375 57.328125 23.390625 
Q 57.328125 12.15625 50.6875 5.359375 
Q 44.046875 -1.421875 33.015625 -1.421875 
Q 20.359375 -1.421875 13.671875 8.265625 
Q 6.984375 17.96875 6.984375 36.375 
Q 6.984375 53.65625 15.1875 63.9375 
Q 23.390625 74.21875 37.203125 74.21875 
Q 40.921875 74.21875 44.703125 73.484375 
Q 48.484375 72.75 52.59375 71.296875 
z
" id="DejaVuSans-54"/>
      </defs>
      <g transform="translate(34.696875 110.799984)scale(0.1 -0.1)">
       <use xlink:href="#DejaVuSans-48"/>
       <use x="63.623047" xlink:href="#DejaVuSans-46"/>
       <use x="95.410156" xlink:href="#DejaVuSans-54"/>
      </g>
     </g>
    </g>
    <g id="ytick_8">
     <g id="line2d_17">
      <g>
       <use style="stroke:#000000;stroke-width:0.8;" x="57.6" xlink:href="#mde4694aed3" y="75.445983"/>
      </g>
     </g>
     <g id="text_17">
      <!-- 0.7 -->
      <g transform="translate(34.696875 79.245201)scale(0.1 -0.1)">
       <use xlink:href="#DejaVuSans-48"/>
       <use x="63.623047" xlink:href="#DejaVuSans-46"/>
       <use x="95.410156" xlink:href="#DejaVuSans-55"/>
      </g>
     </g>
    </g>
    <g id="ytick_9">
     <g id="line2d_18">
      <g>
       <use style="stroke:#000000;stroke-width:0.8;" x="57.6" xlink:href="#mde4694aed3" y="43.8912"/>
      </g>
     </g>
     <g id="text_18">
      <!-- 0.8 -->
      <defs>
       <path d="M 31.78125 34.625 
Q 24.75 34.625 20.71875 30.859375 
Q 16.703125 27.09375 16.703125 20.515625 
Q 16.703125 13.921875 20.71875 10.15625 
Q 24.75 6.390625 31.78125 6.390625 
Q 38.8125 6.390625 42.859375 10.171875 
Q 46.921875 13.96875 46.921875 20.515625 
Q 46.921875 27.09375 42.890625 30.859375 
Q 38.875 34.625 31.78125 34.625 
z
M 21.921875 38.8125 
Q 15.578125 40.375 12.03125 44.71875 
Q 8.5 49.078125 8.5 55.328125 
Q 8.5 64.0625 14.71875 69.140625 
Q 20.953125 74.21875 31.78125 74.21875 
Q 42.671875 74.21875 48.875 69.140625 
Q 55.078125 64.0625 55.078125 55.328125 
Q 55.078125 49.078125 51.53125 44.71875 
Q 48 40.375 41.703125 38.8125 
Q 48.828125 37.15625 52.796875 32.3125 
Q 56.78125 27.484375 56.78125 20.515625 
Q 56.78125 9.90625 50.3125 4.234375 
Q 43.84375 -1.421875 31.78125 -1.421875 
Q 19.734375 -1.421875 13.25 4.234375 
Q 6.78125 9.90625 6.78125 20.515625 
Q 6.78125 27.484375 10.78125 32.3125 
Q 14.796875 37.15625 21.921875 38.8125 
z
M 18.3125 54.390625 
Q 18.3125 48.734375 21.84375 45.5625 
Q 25.390625 42.390625 31.78125 42.390625 
Q 38.140625 42.390625 41.71875 45.5625 
Q 45.3125 48.734375 45.3125 54.390625 
Q 45.3125 60.0625 41.71875 63.234375 
Q 38.140625 66.40625 31.78125 66.40625 
Q 25.390625 66.40625 21.84375 63.234375 
Q 18.3125 60.0625 18.3125 54.390625 
z
" id="DejaVuSans-56"/>
      </defs>
      <g transform="translate(34.696875 47.690419)scale(0.1 -0.1)">
       <use xlink:href="#DejaVuSans-48"/>
       <use x="63.623047" xlink:href="#DejaVuSans-46"/>
       <use x="95.410156" xlink:href="#DejaVuSans-56"/>
      </g>
     </g>
    </g>
   </g>
   <g id="line2d_19">
    <path clip-path="url(#pff6272267e)" d="M 73.832727 191.146852 
L 209.241407 191.146852 
L 210.872837 184.62553 
L 212.504267 177.420522 
L 214.135697 172.845078 
L 215.767127 172.424348 
L 217.398556 182.732243 
L 219.029986 156.226226 
L 220.661416 153.044224 
L 222.292846 147.390887 
L 223.924276 186.939548 
L 225.555706 172.634713 
L 227.187136 188.62247 
L 228.818566 159.171339 
L 230.449995 175.579826 
L 232.081425 172.634713 
L 233.712855 163.799374 
L 235.344285 165.482296 
L 236.975715 188.201739 
L 238.607145 169.6896 
L 240.238575 157.488417 
L 241.870005 176.000557 
L 243.501434 167.585948 
L 245.132864 173.896904 
L 246.764294 170.930755 
L 248.395724 169.35433 
L 250.027154 191.146852 
L 251.658584 173.695685 
L 253.290014 170.531061 
L 254.921444 155.9233 
L 256.552873 190.095026 
L 258.184303 181.049322 
L 259.815733 176.611617 
L 261.447163 178.610998 
L 263.078593 188.201739 
L 264.710023 160.43353 
L 266.341453 170.11033 
L 267.972883 165.566442 
L 269.604312 183.994435 
L 271.235742 175.665885 
L 272.867172 154.543304 
L 274.498602 172.634713 
L 276.130032 168.275946 
L 277.761462 164.381418 
L 279.392892 170.11033 
L 281.024322 165.27193 
L 282.655751 152.467091 
L 284.287181 191.146852 
L 285.918611 170.531061 
L 287.550041 173.476174 
L 289.181471 191.146852 
L 290.812901 168.637774 
L 292.444331 152.860383 
L 295.70719 191.146852 
L 297.33862 170.11033 
L 298.97005 191.146852 
L 300.60148 171.993099 
L 302.23291 181.890783 
L 303.86434 170.11033 
L 305.49577 149.967861 
L 307.1272 159.300795 
L 308.75863 170.11033 
L 310.390059 168.848139 
L 312.021489 168.848139 
L 313.652919 172.003617 
L 315.284349 163.378643 
L 316.915779 150.420146 
L 318.547209 167.238845 
L 320.178639 169.529322 
L 321.810069 167.710255 
L 323.441498 162.957913 
L 325.072928 168.217043 
L 326.704358 134.348243 
L 328.335788 158.265854 
L 329.967218 168.198751 
L 331.598648 144.866504 
L 333.230078 160.959443 
L 334.861508 157.816821 
L 336.492937 165.692661 
L 338.124367 169.26887 
L 339.755797 160.104263 
L 341.387227 162.457043 
L 343.018657 163.888529 
L 344.650087 148.232348 
L 346.281517 151.808557 
L 347.912947 159.918136 
L 349.544376 173.055443 
L 351.175806 165.262146 
L 352.807236 165.473872 
L 354.438666 170.320696 
L 356.070096 170.320696 
L 357.701526 168.848139 
L 359.332956 176.000557 
L 360.964386 170.320696 
L 362.595815 161.612532 
L 364.227245 162.491451 
L 365.858675 164.527561 
L 367.490105 167.403367 
L 369.121535 191.146852 
L 370.752965 173.686539 
L 372.384395 175.159096 
L 374.015825 186.853489 
L 375.647254 176.000557 
L 377.278684 180.27097 
L 378.910114 170.531061 
L 380.541544 196.195617 
L 382.172974 191.146852 
L 383.804404 156.226226 
L 385.435834 172.845078 
L 387.067264 191.146852 
L 388.698693 174.10727 
L 390.330123 178.524939 
L 391.961553 170.11033 
L 393.592983 166.229646 
L 395.224413 186.308452 
L 396.855843 181.470052 
L 398.487273 142.612591 
L 398.487273 142.612591 
" style="fill:none;stroke:#1f77b4;stroke-linecap:square;stroke-width:0.25;"/>
   </g>
   <g id="line2d_20">
    <path clip-path="url(#pff6272267e)" d="M 73.832727 191.146852 
L 199.452828 191.146852 
L 201.084258 190.75978 
L 202.715688 191.146852 
L 204.347117 190.879268 
L 205.978547 190.259512 
L 207.609977 187.17466 
L 209.241407 179.10741 
L 210.872837 178.032393 
L 214.135697 172.850897 
L 215.767127 166.80071 
L 217.398556 178.858925 
L 219.029986 162.752297 
L 220.661416 154.408677 
L 222.292846 151.793555 
L 223.924276 174.689151 
L 225.555706 175.097538 
L 227.187136 181.629286 
L 228.818566 155.61928 
L 230.449995 172.185053 
L 232.081425 164.883114 
L 233.712855 166.811819 
L 235.344285 165.896269 
L 236.975715 180.943436 
L 238.607145 166.639471 
L 240.238575 163.765771 
L 241.870005 176.36819 
L 243.501434 164.900481 
L 245.132864 165.375286 
L 246.764294 172.39508 
L 248.395724 167.11063 
L 250.027154 184.230992 
L 251.658584 174.324856 
L 253.290014 171.183486 
L 254.921444 156.059062 
L 256.552873 185.791487 
L 258.184303 179.598987 
L 259.815733 176.462486 
L 261.447163 167.602645 
L 263.078593 177.175616 
L 264.710023 164.123567 
L 266.341453 168.969156 
L 267.972883 164.208064 
L 269.604312 172.920506 
L 271.235742 174.280247 
L 272.867172 156.935498 
L 274.498602 170.630483 
L 276.130032 166.451982 
L 277.761462 161.762855 
L 279.392892 165.912747 
L 281.024322 166.433592 
L 282.655751 157.223117 
L 284.287181 173.100428 
L 285.918611 164.283896 
L 287.550041 176.698218 
L 289.181471 173.77723 
L 290.812901 159.258262 
L 292.444331 153.469701 
L 294.075761 174.61659 
L 295.70719 180.288686 
L 297.33862 166.698312 
L 298.97005 182.567165 
L 300.60148 168.103132 
L 302.23291 181.170329 
L 303.86434 172.493598 
L 305.49577 156.68879 
L 307.1272 158.316818 
L 308.75863 163.182375 
L 310.390059 164.137879 
L 312.021489 170.243113 
L 313.652919 175.395474 
L 315.284349 164.537309 
L 316.915779 157.968733 
L 318.547209 161.291552 
L 320.178639 173.265606 
L 321.810069 165.426317 
L 323.441498 149.335766 
L 325.072928 163.320503 
L 326.704358 144.827722 
L 328.335788 154.915143 
L 329.967218 162.825142 
L 331.598648 143.072271 
L 333.230078 163.14649 
L 334.861508 151.370195 
L 336.492937 158.000479 
L 338.124367 165.81638 
L 339.755797 159.325618 
L 341.387227 160.545067 
L 343.018657 156.970669 
L 344.650087 143.454221 
L 346.281517 142.792292 
L 347.912947 159.602488 
L 349.544376 166.341142 
L 351.175806 169.311576 
L 352.807236 164.316723 
L 354.438666 161.777174 
L 356.070096 172.778178 
L 357.701526 169.645953 
L 359.332956 177.936973 
L 360.964386 172.284762 
L 362.595815 167.293662 
L 364.227245 163.663177 
L 365.858675 158.1892 
L 367.490105 160.082606 
L 369.121535 183.193475 
L 370.752965 179.246869 
L 372.384395 173.005895 
L 374.015825 176.517744 
L 375.647254 152.098373 
L 377.278684 174.767493 
L 378.910114 167.913025 
L 380.541544 189.696204 
L 382.172974 183.839332 
L 383.804404 161.363943 
L 385.435834 173.543532 
L 387.067264 180.12023 
L 388.698693 171.377713 
L 390.330123 178.06176 
L 391.961553 166.195717 
L 393.592983 169.739521 
L 395.224413 175.801471 
L 396.855843 167.567253 
L 398.487273 148.665556 
L 398.487273 148.665556 
" style="fill:none;stroke:#2ca02c;stroke-linecap:square;stroke-width:0.75;"/>
   </g>
   <g id="patch_3">
    <path d="M 57.6 307.584 
L 57.6 41.472 
" style="fill:none;stroke:#000000;stroke-linecap:square;stroke-linejoin:miter;stroke-width:0.8;"/>
   </g>
   <g id="patch_4">
    <path d="M 414.72 307.584 
L 414.72 41.472 
" style="fill:none;stroke:#000000;stroke-linecap:square;stroke-linejoin:miter;stroke-width:0.8;"/>
   </g>
   <g id="patch_5">
    <path d="M 57.6 307.584 
L 414.72 307.584 
" style="fill:none;stroke:#000000;stroke-linecap:square;stroke-linejoin:miter;stroke-width:0.8;"/>
   </g>
   <g id="patch_6">
    <path d="M 57.6 41.472 
L 414.72 41.472 
" style="fill:none;stroke:#000000;stroke-linecap:square;stroke-linejoin:miter;stroke-width:0.8;"/>
   </g>
   <g id="legend_1">
    <g id="patch_7">
     <path d="M 338.234063 78.82825 
L 407.72 78.82825 
Q 409.72 78.82825 409.72 76.82825 
L 409.72 48.472 
Q 409.72 46.472 407.72 46.472 
L 338.234063 46.472 
Q 336.234063 46.472 336.234063 48.472 
L 336.234063 76.82825 
Q 336.234063 78.82825 338.234063 78.82825 
z
" style="fill:#ffffff;opacity:0.8;stroke:#cccccc;stroke-linejoin:miter;"/>
    </g>
    <g id="line2d_21">
     <path d="M 340.234063 54.570437 
L 360.234063 54.570437 
" style="fill:none;stroke:#1f77b4;stroke-linecap:square;stroke-width:0.25;"/>
    </g>
    <g id="line2d_22"/>
    <g id="text_19">
     <!-- median -->
     <defs>
      <path d="M 52 44.1875 
Q 55.375 50.25 60.0625 53.125 
Q 64.75 56 71.09375 56 
Q 79.640625 56 84.28125 50.015625 
Q 88.921875 44.046875 88.921875 33.015625 
L 88.921875 0 
L 79.890625 0 
L 79.890625 32.71875 
Q 79.890625 40.578125 77.09375 44.375 
Q 74.3125 48.1875 68.609375 48.1875 
Q 61.625 48.1875 57.5625 43.546875 
Q 53.515625 38.921875 53.515625 30.90625 
L 53.515625 0 
L 44.484375 0 
L 44.484375 32.71875 
Q 44.484375 40.625 41.703125 44.40625 
Q 38.921875 48.1875 33.109375 48.1875 
Q 26.21875 48.1875 22.15625 43.53125 
Q 18.109375 38.875 18.109375 30.90625 
L 18.109375 0 
L 9.078125 0 
L 9.078125 54.6875 
L 18.109375 54.6875 
L 18.109375 46.1875 
Q 21.1875 51.21875 25.484375 53.609375 
Q 29.78125 56 35.6875 56 
Q 41.65625 56 45.828125 52.96875 
Q 50 49.953125 52 44.1875 
z
" id="DejaVuSans-109"/>
      <path d="M 56.203125 29.59375 
L 56.203125 25.203125 
L 14.890625 25.203125 
Q 15.484375 15.921875 20.484375 11.0625 
Q 25.484375 6.203125 34.421875 6.203125 
Q 39.59375 6.203125 44.453125 7.46875 
Q 49.3125 8.734375 54.109375 11.28125 
L 54.109375 2.78125 
Q 49.265625 0.734375 44.1875 -0.34375 
Q 39.109375 -1.421875 33.890625 -1.421875 
Q 20.796875 -1.421875 13.15625 6.1875 
Q 5.515625 13.8125 5.515625 26.8125 
Q 5.515625 40.234375 12.765625 48.109375 
Q 20.015625 56 32.328125 56 
Q 43.359375 56 49.78125 48.890625 
Q 56.203125 41.796875 56.203125 29.59375 
z
M 47.21875 32.234375 
Q 47.125 39.59375 43.09375 43.984375 
Q 39.0625 48.390625 32.421875 48.390625 
Q 24.90625 48.390625 20.390625 44.140625 
Q 15.875 39.890625 15.1875 32.171875 
z
" id="DejaVuSans-101"/>
      <path d="M 45.40625 46.390625 
L 45.40625 75.984375 
L 54.390625 75.984375 
L 54.390625 0 
L 45.40625 0 
L 45.40625 8.203125 
Q 42.578125 3.328125 38.25 0.953125 
Q 33.9375 -1.421875 27.875 -1.421875 
Q 17.96875 -1.421875 11.734375 6.484375 
Q 5.515625 14.40625 5.515625 27.296875 
Q 5.515625 40.1875 11.734375 48.09375 
Q 17.96875 56 27.875 56 
Q 33.9375 56 38.25 53.625 
Q 42.578125 51.265625 45.40625 46.390625 
z
M 14.796875 27.296875 
Q 14.796875 17.390625 18.875 11.75 
Q 22.953125 6.109375 30.078125 6.109375 
Q 37.203125 6.109375 41.296875 11.75 
Q 45.40625 17.390625 45.40625 27.296875 
Q 45.40625 37.203125 41.296875 42.84375 
Q 37.203125 48.484375 30.078125 48.484375 
Q 22.953125 48.484375 18.875 42.84375 
Q 14.796875 37.203125 14.796875 27.296875 
z
" id="DejaVuSans-100"/>
      <path d="M 9.421875 54.6875 
L 18.40625 54.6875 
L 18.40625 0 
L 9.421875 0 
z
M 9.421875 75.984375 
L 18.40625 75.984375 
L 18.40625 64.59375 
L 9.421875 64.59375 
z
" id="DejaVuSans-105"/>
      <path d="M 34.28125 27.484375 
Q 23.390625 27.484375 19.1875 25 
Q 14.984375 22.515625 14.984375 16.5 
Q 14.984375 11.71875 18.140625 8.90625 
Q 21.296875 6.109375 26.703125 6.109375 
Q 34.1875 6.109375 38.703125 11.40625 
Q 43.21875 16.703125 43.21875 25.484375 
L 43.21875 27.484375 
z
M 52.203125 31.203125 
L 52.203125 0 
L 43.21875 0 
L 43.21875 8.296875 
Q 40.140625 3.328125 35.546875 0.953125 
Q 30.953125 -1.421875 24.3125 -1.421875 
Q 15.921875 -1.421875 10.953125 3.296875 
Q 6 8.015625 6 15.921875 
Q 6 25.140625 12.171875 29.828125 
Q 18.359375 34.515625 30.609375 34.515625 
L 43.21875 34.515625 
L 43.21875 35.40625 
Q 43.21875 41.609375 39.140625 45 
Q 35.0625 48.390625 27.6875 48.390625 
Q 23 48.390625 18.546875 47.265625 
Q 14.109375 46.140625 10.015625 43.890625 
L 10.015625 52.203125 
Q 14.9375 54.109375 19.578125 55.046875 
Q 24.21875 56 28.609375 56 
Q 40.484375 56 46.34375 49.84375 
Q 52.203125 43.703125 52.203125 31.203125 
z
" id="DejaVuSans-97"/>
      <path d="M 54.890625 33.015625 
L 54.890625 0 
L 45.90625 0 
L 45.90625 32.71875 
Q 45.90625 40.484375 42.875 44.328125 
Q 39.84375 48.1875 33.796875 48.1875 
Q 26.515625 48.1875 22.3125 43.546875 
Q 18.109375 38.921875 18.109375 30.90625 
L 18.109375 0 
L 9.078125 0 
L 9.078125 54.6875 
L 18.109375 54.6875 
L 18.109375 46.1875 
Q 21.34375 51.125 25.703125 53.5625 
Q 30.078125 56 35.796875 56 
Q 45.21875 56 50.046875 50.171875 
Q 54.890625 44.34375 54.890625 33.015625 
z
" id="DejaVuSans-110"/>
     </defs>
     <g transform="translate(368.234063 58.070437)scale(0.1 -0.1)">
      <use xlink:href="#DejaVuSans-109"/>
      <use x="97.412109" xlink:href="#DejaVuSans-101"/>
      <use x="158.935547" xlink:href="#DejaVuSans-100"/>
      <use x="222.412109" xlink:href="#DejaVuSans-105"/>
      <use x="250.195312" xlink:href="#DejaVuSans-97"/>
      <use x="311.474609" xlink:href="#DejaVuSans-110"/>
     </g>
    </g>
    <g id="line2d_23">
     <path d="M 340.234063 69.248562 
L 360.234063 69.248562 
" style="fill:none;stroke:#2ca02c;stroke-linecap:square;stroke-width:0.75;"/>
    </g>
    <g id="line2d_24"/>
    <g id="text_20">
     <!-- mean -->
     <g transform="translate(368.234063 72.748562)scale(0.1 -0.1)">
      <use xlink:href="#DejaVuSans-109"/>
      <use x="97.412109" xlink:href="#DejaVuSans-101"/>
      <use x="158.935547" xlink:href="#DejaVuSans-97"/>
      <use x="220.214844" xlink:href="#DejaVuSans-110"/>
     </g>
    </g>
   </g>
  </g>
  <g id="text_21">
   <!-- accuracy.mean over generations -->
   <defs>
    <path d="M 48.78125 52.59375 
L 48.78125 44.1875 
Q 44.96875 46.296875 41.140625 47.34375 
Q 37.3125 48.390625 33.40625 48.390625 
Q 24.65625 48.390625 19.8125 42.84375 
Q 14.984375 37.3125 14.984375 27.296875 
Q 14.984375 17.28125 19.8125 11.734375 
Q 24.65625 6.203125 33.40625 6.203125 
Q 37.3125 6.203125 41.140625 7.25 
Q 44.96875 8.296875 48.78125 10.40625 
L 48.78125 2.09375 
Q 45.015625 0.34375 40.984375 -0.53125 
Q 36.96875 -1.421875 32.421875 -1.421875 
Q 20.0625 -1.421875 12.78125 6.34375 
Q 5.515625 14.109375 5.515625 27.296875 
Q 5.515625 40.671875 12.859375 48.328125 
Q 20.21875 56 33.015625 56 
Q 37.15625 56 41.109375 55.140625 
Q 45.0625 54.296875 48.78125 52.59375 
z
" id="DejaVuSans-99"/>
    <path d="M 8.5 21.578125 
L 8.5 54.6875 
L 17.484375 54.6875 
L 17.484375 21.921875 
Q 17.484375 14.15625 20.5 10.265625 
Q 23.53125 6.390625 29.59375 6.390625 
Q 36.859375 6.390625 41.078125 11.03125 
Q 45.3125 15.671875 45.3125 23.6875 
L 45.3125 54.6875 
L 54.296875 54.6875 
L 54.296875 0 
L 45.3125 0 
L 45.3125 8.40625 
Q 42.046875 3.421875 37.71875 1 
Q 33.40625 -1.421875 27.6875 -1.421875 
Q 18.265625 -1.421875 13.375 4.4375 
Q 8.5 10.296875 8.5 21.578125 
z
M 31.109375 56 
z
" id="DejaVuSans-117"/>
    <path d="M 41.109375 46.296875 
Q 39.59375 47.171875 37.8125 47.578125 
Q 36.03125 48 33.890625 48 
Q 26.265625 48 22.1875 43.046875 
Q 18.109375 38.09375 18.109375 28.8125 
L 18.109375 0 
L 9.078125 0 
L 9.078125 54.6875 
L 18.109375 54.6875 
L 18.109375 46.1875 
Q 20.953125 51.171875 25.484375 53.578125 
Q 30.03125 56 36.53125 56 
Q 37.453125 56 38.578125 55.875 
Q 39.703125 55.765625 41.0625 55.515625 
z
" id="DejaVuSans-114"/>
    <path d="M 32.171875 -5.078125 
Q 28.375 -14.84375 24.75 -17.8125 
Q 21.140625 -20.796875 15.09375 -20.796875 
L 7.90625 -20.796875 
L 7.90625 -13.28125 
L 13.1875 -13.28125 
Q 16.890625 -13.28125 18.9375 -11.515625 
Q 21 -9.765625 23.484375 -3.21875 
L 25.09375 0.875 
L 2.984375 54.6875 
L 12.5 54.6875 
L 29.59375 11.921875 
L 46.6875 54.6875 
L 56.203125 54.6875 
z
" id="DejaVuSans-121"/>
    <path id="DejaVuSans-32"/>
    <path d="M 30.609375 48.390625 
Q 23.390625 48.390625 19.1875 42.75 
Q 14.984375 37.109375 14.984375 27.296875 
Q 14.984375 17.484375 19.15625 11.84375 
Q 23.34375 6.203125 30.609375 6.203125 
Q 37.796875 6.203125 41.984375 11.859375 
Q 46.1875 17.53125 46.1875 27.296875 
Q 46.1875 37.015625 41.984375 42.703125 
Q 37.796875 48.390625 30.609375 48.390625 
z
M 30.609375 56 
Q 42.328125 56 49.015625 48.375 
Q 55.71875 40.765625 55.71875 27.296875 
Q 55.71875 13.875 49.015625 6.21875 
Q 42.328125 -1.421875 30.609375 -1.421875 
Q 18.84375 -1.421875 12.171875 6.21875 
Q 5.515625 13.875 5.515625 27.296875 
Q 5.515625 40.765625 12.171875 48.375 
Q 18.84375 56 30.609375 56 
z
" id="DejaVuSans-111"/>
    <path d="M 2.984375 54.6875 
L 12.5 54.6875 
L 29.59375 8.796875 
L 46.6875 54.6875 
L 56.203125 54.6875 
L 35.6875 0 
L 23.484375 0 
z
" id="DejaVuSans-118"/>
    <path d="M 45.40625 27.984375 
Q 45.40625 37.75 41.375 43.109375 
Q 37.359375 48.484375 30.078125 48.484375 
Q 22.859375 48.484375 18.828125 43.109375 
Q 14.796875 37.75 14.796875 27.984375 
Q 14.796875 18.265625 18.828125 12.890625 
Q 22.859375 7.515625 30.078125 7.515625 
Q 37.359375 7.515625 41.375 12.890625 
Q 45.40625 18.265625 45.40625 27.984375 
z
M 54.390625 6.78125 
Q 54.390625 -7.171875 48.1875 -13.984375 
Q 42 -20.796875 29.203125 -20.796875 
Q 24.46875 -20.796875 20.265625 -20.09375 
Q 16.0625 -19.390625 12.109375 -17.921875 
L 12.109375 -9.1875 
Q 16.0625 -11.328125 19.921875 -12.34375 
Q 23.78125 -13.375 27.78125 -13.375 
Q 36.625 -13.375 41.015625 -8.765625 
Q 45.40625 -4.15625 45.40625 5.171875 
L 45.40625 9.625 
Q 42.625 4.78125 38.28125 2.390625 
Q 33.9375 0 27.875 0 
Q 17.828125 0 11.671875 7.65625 
Q 5.515625 15.328125 5.515625 27.984375 
Q 5.515625 40.671875 11.671875 48.328125 
Q 17.828125 56 27.875 56 
Q 33.9375 56 38.28125 53.609375 
Q 42.625 51.21875 45.40625 46.390625 
L 45.40625 54.6875 
L 54.390625 54.6875 
z
" id="DejaVuSans-103"/>
    <path d="M 18.3125 70.21875 
L 18.3125 54.6875 
L 36.8125 54.6875 
L 36.8125 47.703125 
L 18.3125 47.703125 
L 18.3125 18.015625 
Q 18.3125 11.328125 20.140625 9.421875 
Q 21.96875 7.515625 27.59375 7.515625 
L 36.8125 7.515625 
L 36.8125 0 
L 27.59375 0 
Q 17.1875 0 13.234375 3.875 
Q 9.28125 7.765625 9.28125 18.015625 
L 9.28125 47.703125 
L 2.6875 47.703125 
L 2.6875 54.6875 
L 9.28125 54.6875 
L 9.28125 70.21875 
z
" id="DejaVuSans-116"/>
    <path d="M 44.28125 53.078125 
L 44.28125 44.578125 
Q 40.484375 46.53125 36.375 47.5 
Q 32.28125 48.484375 27.875 48.484375 
Q 21.1875 48.484375 17.84375 46.4375 
Q 14.5 44.390625 14.5 40.28125 
Q 14.5 37.15625 16.890625 35.375 
Q 19.28125 33.59375 26.515625 31.984375 
L 29.59375 31.296875 
Q 39.15625 29.25 43.1875 25.515625 
Q 47.21875 21.78125 47.21875 15.09375 
Q 47.21875 7.46875 41.1875 3.015625 
Q 35.15625 -1.421875 24.609375 -1.421875 
Q 20.21875 -1.421875 15.453125 -0.5625 
Q 10.6875 0.296875 5.421875 2 
L 5.421875 11.28125 
Q 10.40625 8.6875 15.234375 7.390625 
Q 20.0625 6.109375 24.8125 6.109375 
Q 31.15625 6.109375 34.5625 8.28125 
Q 37.984375 10.453125 37.984375 14.40625 
Q 37.984375 18.0625 35.515625 20.015625 
Q 33.0625 21.96875 24.703125 23.78125 
L 21.578125 24.515625 
Q 13.234375 26.265625 9.515625 29.90625 
Q 5.8125 33.546875 5.8125 39.890625 
Q 5.8125 47.609375 11.28125 51.796875 
Q 16.75 56 26.8125 56 
Q 31.78125 56 36.171875 55.265625 
Q 40.578125 54.546875 44.28125 53.078125 
z
" id="DejaVuSans-115"/>
   </defs>
   <g transform="translate(132.309375 16.030125)scale(0.12 -0.12)">
    <use xlink:href="#DejaVuSans-97"/>
    <use x="61.279297" xlink:href="#DejaVuSans-99"/>
    <use x="116.259766" xlink:href="#DejaVuSans-99"/>
    <use x="171.240234" xlink:href="#DejaVuSans-117"/>
    <use x="234.619141" xlink:href="#DejaVuSans-114"/>
    <use x="275.732422" xlink:href="#DejaVuSans-97"/>
    <use x="337.011719" xlink:href="#DejaVuSans-99"/>
    <use x="391.992188" xlink:href="#DejaVuSans-121"/>
    <use x="436.921875" xlink:href="#DejaVuSans-46"/>
    <use x="468.708984" xlink:href="#DejaVuSans-109"/>
    <use x="566.121094" xlink:href="#DejaVuSans-101"/>
    <use x="627.644531" xlink:href="#DejaVuSans-97"/>
    <use x="688.923828" xlink:href="#DejaVuSans-110"/>
    <use x="752.302734" xlink:href="#DejaVuSans-32"/>
    <use x="784.089844" xlink:href="#DejaVuSans-111"/>
    <use x="845.271484" xlink:href="#DejaVuSans-118"/>
    <use x="904.451172" xlink:href="#DejaVuSans-101"/>
    <use x="965.974609" xlink:href="#DejaVuSans-114"/>
    <use x="1007.087891" xlink:href="#DejaVuSans-32"/>
    <use x="1038.875" xlink:href="#DejaVuSans-103"/>
    <use x="1102.351562" xlink:href="#DejaVuSans-101"/>
    <use x="1163.875" xlink:href="#DejaVuSans-110"/>
    <use x="1227.253906" xlink:href="#DejaVuSans-101"/>
    <use x="1288.777344" xlink:href="#DejaVuSans-114"/>
    <use x="1329.890625" xlink:href="#DejaVuSans-97"/>
    <use x="1391.169922" xlink:href="#DejaVuSans-116"/>
    <use x="1430.378906" xlink:href="#DejaVuSans-105"/>
    <use x="1458.162109" xlink:href="#DejaVuSans-111"/>
    <use x="1519.34375" xlink:href="#DejaVuSans-110"/>
    <use x="1582.722656" xlink:href="#DejaVuSans-115"/>
   </g>
  </g>
 </g>
 <defs>
  <clipPath id="pff6272267e">
   <rect height="266.112" width="357.12" x="57.6" y="41.472"/>
  </clipPath>
 </defs>
</svg>
