<?xml version="1.0" encoding="utf-8" standalone="no"?>
<!DOCTYPE svg PUBLIC "-//W3C//DTD SVG 1.1//EN"
  "http://www.w3.org/Graphics/SVG/1.1/DTD/svg11.dtd">
<!-- Created with matplotlib (https://matplotlib.org/) -->
<svg height="345.6pt" version="1.1" viewBox="0 0 460.8 345.6" width="460.8pt" xmlns="http://www.w3.org/2000/svg" xmlns:xlink="http://www.w3.org/1999/xlink">
 <defs>
  <style type="text/css">
*{stroke-linecap:butt;stroke-linejoin:round;}
  </style>
 </defs>
 <g id="figure_1">
  <g id="patch_1">
   <path d="M 0 345.6 
L 460.8 345.6 
L 460.8 0 
L 0 0 
z
" style="fill:#ffffff;"/>
  </g>
  <g id="axes_1">
   <g id="patch_2">
    <path clip-path="url(#p0a412474aa)" d="M 88.589752 64.564364 
Q 136.770303 133.880057 184.950854 203.195751 
" style="fill:none;stroke:#000000;stroke-linecap:round;stroke-opacity:0.9;stroke-width:0.4;"/>
   </g>
   <g id="patch_3">
    <path clip-path="url(#p0a412474aa)" d="M 88.589752 119.546182 
Q 185.266098 146.560983 281.942444 173.575785 
" style="fill:none;stroke:#000000;stroke-linecap:round;stroke-opacity:0.9;stroke-width:0.4;"/>
   </g>
   <g id="patch_4">
    <path clip-path="url(#p0a412474aa)" d="M 88.589752 174.528 
Q 136.505348 128.396278 184.420944 82.264556 
" style="fill:none;stroke:#000000;stroke-linecap:round;stroke-opacity:0.9;stroke-width:0.4;"/>
   </g>
   <g id="patch_5">
    <path clip-path="url(#p0a412474aa)" d="M 88.589752 174.528 
Q 136.097032 159.281797 183.604312 144.035595 
" style="fill:none;stroke:#000000;stroke-linecap:round;stroke-opacity:0.9;stroke-width:0.4;"/>
   </g>
   <g id="patch_6">
    <path clip-path="url(#p0a412474aa)" d="M 88.589752 229.509818 
Q 234.423906 202.342327 380.25806 175.174835 
" style="fill:none;stroke:#000000;stroke-linecap:round;stroke-opacity:0.9;stroke-width:0.4;"/>
   </g>
   <g id="patch_7">
    <path clip-path="url(#p0a412474aa)" d="M 88.589752 229.509818 
Q 234.396885 239.429884 380.204018 249.34995 
" style="fill:none;stroke:#000000;stroke-linecap:round;stroke-opacity:0.9;stroke-width:0.4;"/>
   </g>
   <g id="patch_8">
    <path clip-path="url(#p0a412474aa)" d="M 88.589752 284.491636 
Q 136.397264 246.397729 184.204777 208.303822 
" style="fill:none;stroke:#000000;stroke-linecap:round;stroke-opacity:0.9;stroke-width:0.4;"/>
   </g>
   <g id="patch_9">
    <path clip-path="url(#p0a412474aa)" d="M 88.589752 284.491636 
Q 136.033983 277.139136 183.478214 269.786635 
" style="fill:none;stroke:#000000;stroke-linecap:round;stroke-opacity:0.9;stroke-width:0.4;"/>
   </g>
   <g id="patch_10">
    <path clip-path="url(#p0a412474aa)" d="M 186.969917 206.100507 
Q 234.477197 190.854304 281.984477 175.608102 
" style="fill:none;stroke:#000000;stroke-linecap:round;stroke-opacity:0.9;stroke-width:0.4;"/>
   </g>
   <g id="patch_11">
    <path clip-path="url(#p0a412474aa)" d="M 186.969917 79.810479 
Q 283.592222 89.462706 380.214526 99.114932 
" style="fill:none;stroke:#000000;stroke-linecap:round;stroke-opacity:0.9;stroke-width:0.4;"/>
   </g>
   <g id="patch_12">
    <path clip-path="url(#p0a412474aa)" d="M 186.969917 269.245521 
Q 234.885513 223.113799 282.801109 176.982076 
" style="fill:none;stroke:#000000;stroke-linecap:round;stroke-opacity:0.9;stroke-width:0.4;"/>
   </g>
   <g id="patch_13">
    <path clip-path="url(#p0a412474aa)" d="M 186.969917 142.955493 
Q 283.604231 158.461604 380.238545 173.967715 
" style="fill:none;stroke:#000000;stroke-linecap:round;stroke-opacity:0.9;stroke-width:0.4;"/>
   </g>
   <g id="patch_14">
    <path clip-path="url(#p0a412474aa)" d="M 285.350083 174.528 
Q 332.773297 174.528 380.196512 174.528 
" style="fill:none;stroke:#000000;stroke-linecap:round;stroke-opacity:0.9;stroke-width:0.4;"/>
   </g>
   <g id="PathCollection_1">
    <defs>
     <path d="M 0 3.535534 
C 0.937635 3.535534 1.836992 3.163008 2.5 2.5 
C 3.163008 1.836992 3.535534 0.937635 3.535534 0 
C 3.535534 -0.937635 3.163008 -1.836992 2.5 -2.5 
C 1.836992 -3.163008 0.937635 -3.535534 0 -3.535534 
C -0.937635 -3.535534 -1.836992 -3.163008 -2.5 -2.5 
C -3.163008 -1.836992 -3.535534 -0.937635 -3.535534 0 
C -3.535534 0.937635 -3.163008 1.836992 -2.5 2.5 
C -1.836992 3.163008 -0.937635 3.535534 0 3.535534 
z
" id="C0_0_ce62e75514"/>
    </defs>
    <g clip-path="url(#p0a412474aa)">
     <use style="fill:#fdb462;fill-opacity:0.9;" x="88.589752" xlink:href="#C0_0_ce62e75514" y="64.564364"/>
    </g>
    <g clip-path="url(#p0a412474aa)">
     <use style="fill:#fdb462;fill-opacity:0.9;" x="88.589752" xlink:href="#C0_0_ce62e75514" y="119.546182"/>
    </g>
    <g clip-path="url(#p0a412474aa)">
     <use style="fill:#fdb462;fill-opacity:0.9;" x="88.589752" xlink:href="#C0_0_ce62e75514" y="174.528"/>
    </g>
    <g clip-path="url(#p0a412474aa)">
     <use style="fill:#fdb462;fill-opacity:0.9;" x="88.589752" xlink:href="#C0_0_ce62e75514" y="229.509818"/>
    </g>
    <g clip-path="url(#p0a412474aa)">
     <use style="fill:#ffed6f;fill-opacity:0.9;" x="88.589752" xlink:href="#C0_0_ce62e75514" y="284.491636"/>
    </g>
    <g clip-path="url(#p0a412474aa)">
     <use style="fill:#80b1d3;fill-opacity:0.9;" x="186.969917" xlink:href="#C0_0_ce62e75514" y="206.100507"/>
    </g>
    <g clip-path="url(#p0a412474aa)">
     <use style="fill:#80b1d3;fill-opacity:0.9;" x="186.969917" xlink:href="#C0_0_ce62e75514" y="79.810479"/>
    </g>
    <g clip-path="url(#p0a412474aa)">
     <use style="fill:#80b1d3;fill-opacity:0.9;" x="186.969917" xlink:href="#C0_0_ce62e75514" y="269.245521"/>
    </g>
    <g clip-path="url(#p0a412474aa)">
     <use style="fill:#80b1d3;fill-opacity:0.9;" x="186.969917" xlink:href="#C0_0_ce62e75514" y="142.955493"/>
    </g>
    <g clip-path="url(#p0a412474aa)">
     <use style="fill:#80b1d3;fill-opacity:0.9;" x="285.350083" xlink:href="#C0_0_ce62e75514" y="174.528"/>
    </g>
    <g clip-path="url(#p0a412474aa)">
     <use style="fill:#b3de69;fill-opacity:0.9;" x="383.730248" xlink:href="#C0_0_ce62e75514" y="99.466141"/>
    </g>
    <g clip-path="url(#p0a412474aa)">
     <use style="fill:#b3de69;fill-opacity:0.9;" x="383.730248" xlink:href="#C0_0_ce62e75514" y="174.528"/>
    </g>
    <g clip-path="url(#p0a412474aa)">
     <use style="fill:#b3de69;fill-opacity:0.9;" x="383.730248" xlink:href="#C0_0_ce62e75514" y="249.589859"/>
    </g>
   </g>
  </g>
 </g>
 <defs>
  <clipPath id="p0a412474aa">
   <rect height="266.112" width="357.12" x="57.6" y="41.472"/>
  </clipPath>
 </defs>
</svg>
