<?xml version="1.0" encoding="utf-8" standalone="no"?>
<!DOCTYPE svg PUBLIC "-//W3C//DTD SVG 1.1//EN"
  "http://www.w3.org/Graphics/SVG/1.1/DTD/svg11.dtd">
<!-- Created with matplotlib (https://matplotlib.org/) -->
<svg height="345.6pt" version="1.1" viewBox="0 0 460.8 345.6" width="460.8pt" xmlns="http://www.w3.org/2000/svg" xmlns:xlink="http://www.w3.org/1999/xlink">
 <defs>
  <style type="text/css">
*{stroke-linecap:butt;stroke-linejoin:round;}
  </style>
 </defs>
 <g id="figure_1">
  <g id="patch_1">
   <path d="M 0 345.6 
L 460.8 345.6 
L 460.8 0 
L 0 0 
z
" style="fill:#ffffff;"/>
  </g>
  <g id="axes_1">
   <g id="patch_2">
    <path d="M 57.6 307.584 
L 414.72 307.584 
L 414.72 41.472 
L 57.6 41.472 
z
" style="fill:#ffffff;"/>
   </g>
   <g id="PolyCollection_1">
    <path clip-path="url(#pcc3b0318e0)" d="M 73.832727 289.08281 
L 73.832727 289.312178 
L 75.464157 289.312178 
L 77.095587 289.312178 
L 78.727017 289.312178 
L 80.358447 289.312178 
L 81.989877 289.312178 
L 83.621307 289.312178 
L 85.252736 289.312178 
L 86.884166 289.312178 
L 88.515596 289.312178 
L 90.147026 289.312178 
L 91.778456 289.312178 
L 93.409886 289.312178 
L 95.041316 289.312178 
L 96.672746 289.312178 
L 98.304175 289.312178 
L 99.935605 289.312178 
L 101.567035 289.312178 
L 103.198465 289.312178 
L 104.829895 289.312178 
L 106.461325 289.312178 
L 108.092755 289.312178 
L 109.724185 289.312178 
L 111.355614 289.312178 
L 112.987044 289.312178 
L 114.618474 289.312178 
L 116.249904 289.312178 
L 117.881334 289.312178 
L 119.512764 289.312178 
L 121.144194 289.312178 
L 122.775624 289.312178 
L 124.407053 289.312178 
L 126.038483 289.312178 
L 127.669913 289.312178 
L 129.301343 289.312178 
L 130.932773 289.312178 
L 132.564203 289.312178 
L 134.195633 289.312178 
L 135.827063 289.312178 
L 137.458492 289.312178 
L 139.089922 289.312178 
L 140.721352 289.312178 
L 142.352782 289.312178 
L 143.984212 289.312178 
L 145.615642 289.312178 
L 147.247072 289.312178 
L 148.878502 289.312178 
L 150.509931 289.312178 
L 152.141361 289.312178 
L 153.772791 289.312178 
L 155.404221 289.312178 
L 157.035651 289.312178 
L 158.667081 289.312178 
L 160.298511 289.312178 
L 161.929941 289.312178 
L 163.56137 289.312178 
L 165.1928 289.312178 
L 166.82423 289.312178 
L 168.45566 289.312178 
L 170.08709 289.312178 
L 171.71852 289.312178 
L 173.34995 289.312178 
L 174.98138 289.312178 
L 176.61281 289.312178 
L 178.244239 289.312178 
L 179.875669 289.312178 
L 181.507099 289.312178 
L 183.138529 289.312178 
L 184.769959 289.312178 
L 186.401389 289.312178 
L 188.032819 289.312178 
L 189.664249 289.312178 
L 191.295678 289.312178 
L 192.927108 289.312178 
L 194.558538 289.312178 
L 196.189968 289.312178 
L 197.821398 289.312178 
L 199.452828 289.312178 
L 201.084258 289.312178 
L 202.715688 289.312178 
L 204.347117 289.278652 
L 205.978547 289.312178 
L 207.609977 289.312178 
L 209.241407 289.312178 
L 210.872837 289.312178 
L 212.504267 289.312178 
L 214.135697 289.495701 
L 215.767127 289.957916 
L 217.398556 289.882813 
L 219.029986 289.82665 
L 220.661416 289.786581 
L 222.292846 290.089116 
L 223.924276 289.584821 
L 225.555706 289.896827 
L 227.187136 289.868595 
L 228.818566 290.213959 
L 230.449995 290.049011 
L 232.081425 290.228441 
L 233.712855 290.022813 
L 235.344285 290.333596 
L 236.975715 290.033093 
L 238.607145 289.216544 
L 240.238575 289.937291 
L 241.870005 289.77077 
L 243.501434 289.889899 
L 245.132864 288.688124 
L 246.764294 289.93169 
L 248.395724 289.772052 
L 250.027154 289.887074 
L 251.658584 290.106425 
L 253.290014 290.19809 
L 254.921444 289.287397 
L 256.552873 289.626522 
L 258.184303 289.726874 
L 259.815733 290.092147 
L 261.447163 289.418051 
L 263.078593 289.650711 
L 264.710023 291.502457 
L 266.341453 289.483806 
L 267.972883 290.100946 
L 269.604312 291.871151 
L 271.235742 291.553436 
L 272.867172 292.024142 
L 274.498602 290.439763 
L 276.130032 292.312125 
L 277.761462 290.972488 
L 279.392892 291.454214 
L 281.024322 292.390095 
L 282.655751 290.574838 
L 284.287181 291.287661 
L 285.918611 290.125133 
L 287.550041 292.136238 
L 289.181471 291.331416 
L 290.812901 290.395761 
L 292.444331 290.763936 
L 294.075761 290.610952 
L 295.70719 291.028076 
L 297.33862 290.468903 
L 298.97005 290.120315 
L 300.60148 290.598919 
L 302.23291 291.283236 
L 303.86434 290.627035 
L 305.49577 291.087641 
L 307.1272 289.91475 
L 308.75863 290.609968 
L 310.390059 292.418367 
L 312.021489 290.503269 
L 313.652919 290.539473 
L 315.284349 291.924246 
L 316.915779 292.044189 
L 318.547209 291.871714 
L 320.178639 291.082262 
L 321.810069 294.325207 
L 323.441498 291.344228 
L 325.072928 292.559837 
L 326.704358 290.349892 
L 328.335788 291.981764 
L 329.967218 291.630981 
L 331.598648 290.351595 
L 333.230078 291.653088 
L 334.861508 289.558786 
L 336.492937 290.2641 
L 338.124367 291.409436 
L 339.755797 291.46466 
L 341.387227 290.968659 
L 343.018657 292.248045 
L 344.650087 290.939486 
L 346.281517 292.447854 
L 347.912947 291.886563 
L 349.544376 289.991332 
L 351.175806 291.042541 
L 352.807236 291.296982 
L 354.438666 290.363256 
L 356.070096 290.195696 
L 357.701526 291.328276 
L 359.332956 291.60785 
L 360.964386 292.172288 
L 362.595815 290.228836 
L 364.227245 291.622018 
L 365.858675 291.554332 
L 367.490105 290.243924 
L 369.121535 290.440097 
L 370.752965 291.457448 
L 372.384395 291.712512 
L 374.015825 291.789748 
L 375.647254 290.292474 
L 377.278684 289.435039 
L 378.910114 292.5569 
L 380.541544 290.231427 
L 382.172974 289.803277 
L 383.804404 290.869783 
L 385.435834 291.840572 
L 387.067264 291.364247 
L 388.698693 291.058541 
L 390.330123 289.902132 
L 391.961553 292.199169 
L 393.592983 289.866752 
L 395.224413 289.841886 
L 396.855843 290.218315 
L 398.487273 290.400758 
L 398.487273 269.200682 
L 398.487273 269.200682 
L 396.855843 282.885669 
L 395.224413 283.833792 
L 393.592983 283.95206 
L 391.961553 286.447952 
L 390.330123 278.344865 
L 388.698693 279.84832 
L 387.067264 282.33147 
L 385.435834 287.124154 
L 383.804404 281.347647 
L 382.172974 278.010418 
L 380.541544 251.548161 
L 378.910114 259.126477 
L 377.278684 273.973438 
L 375.647254 264.75844 
L 374.015825 269.944487 
L 372.384395 283.856574 
L 370.752965 272.931966 
L 369.121535 268.238316 
L 367.490105 274.14817 
L 365.858675 275.487126 
L 364.227245 280.280059 
L 362.595815 285.058448 
L 360.964386 276.746674 
L 359.332956 284.676087 
L 357.701526 265.72829 
L 356.070096 284.475834 
L 354.438666 281.726966 
L 352.807236 288.417474 
L 351.175806 280.935397 
L 349.544376 281.342483 
L 347.912947 262.178382 
L 346.281517 274.795847 
L 344.650087 280.437391 
L 343.018657 277.045289 
L 341.387227 281.537641 
L 339.755797 282.618945 
L 338.124367 278.034225 
L 336.492937 284.379999 
L 334.861508 286.147852 
L 333.230078 285.787899 
L 331.598648 282.90855 
L 329.967218 274.834178 
L 328.335788 259.563237 
L 326.704358 284.229369 
L 325.072928 278.217978 
L 323.441498 288.346779 
L 321.810069 268.85163 
L 320.178639 283.049455 
L 318.547209 289.312178 
L 316.915779 283.994559 
L 315.284349 287.136449 
L 313.652919 279.927496 
L 312.021489 288.3806 
L 310.390059 287.675934 
L 308.75863 286.297371 
L 307.1272 288.678444 
L 305.49577 288.812693 
L 303.86434 288.543642 
L 302.23291 281.922131 
L 300.60148 289.204248 
L 298.97005 288.946221 
L 297.33862 287.340417 
L 295.70719 284.97866 
L 294.075761 288.5498 
L 292.444331 287.614015 
L 290.812901 285.224753 
L 289.181471 288.308476 
L 287.550041 286.712869 
L 285.918611 286.506852 
L 284.287181 289.013721 
L 282.655751 288.531178 
L 281.024322 280.41079 
L 279.392892 288.031323 
L 277.761462 286.564139 
L 276.130032 288.5498 
L 274.498602 286.91946 
L 272.867172 287.774192 
L 271.235742 287.693991 
L 269.604312 285.536863 
L 267.972883 266.755043 
L 266.341453 261.86207 
L 264.710023 281.612799 
L 263.078593 284.610911 
L 261.447163 260.143292 
L 259.815733 246.73773 
L 258.184303 277.869482 
L 256.552873 275.206094 
L 254.921444 284.160282 
L 253.290014 273.36806 
L 251.658584 273.723238 
L 250.027154 256.705618 
L 248.395724 269.23338 
L 246.764294 284.036637 
L 245.132864 274.902598 
L 243.501434 281.143365 
L 241.870005 285.496895 
L 240.238575 285.804703 
L 238.607145 283.178628 
L 236.975715 275.134543 
L 235.344285 286.82161 
L 233.712855 286.676329 
L 232.081425 286.044333 
L 230.449995 278.005344 
L 228.818566 285.77158 
L 227.187136 286.549571 
L 225.555706 284.750057 
L 223.924276 284.176417 
L 222.292846 286.64479 
L 220.661416 288.415818 
L 219.029986 288.291142 
L 217.398556 287.806682 
L 215.767127 288.392945 
L 214.135697 288.943222 
L 212.504267 288.212704 
L 210.872837 286.801326 
L 209.241407 288.134113 
L 207.609977 284.085677 
L 205.978547 287.422961 
L 204.347117 287.57516 
L 202.715688 288.370207 
L 201.084258 288.852275 
L 199.452828 288.558601 
L 197.821398 288.93539 
L 196.189968 288.93539 
L 194.558538 288.93539 
L 192.927108 288.370207 
L 191.295678 289.312178 
L 189.664249 288.93539 
L 188.032819 288.93539 
L 186.401389 288.93539 
L 184.769959 288.93539 
L 183.138529 288.93539 
L 181.507099 288.746995 
L 179.875669 288.370207 
L 178.244239 289.123784 
L 176.61281 288.93539 
L 174.98138 288.93539 
L 173.34995 289.312178 
L 171.71852 288.746995 
L 170.08709 288.93539 
L 168.45566 288.93539 
L 166.82423 288.746995 
L 165.1928 288.558601 
L 163.56137 288.93539 
L 161.929941 288.746995 
L 160.298511 288.558601 
L 158.667081 289.08281 
L 157.035651 288.746995 
L 155.404221 288.558601 
L 153.772791 288.746995 
L 152.141361 288.746995 
L 150.509931 288.93539 
L 148.878502 288.93539 
L 147.247072 288.93539 
L 145.615642 289.08281 
L 143.984212 288.746995 
L 142.352782 288.93539 
L 140.721352 289.08281 
L 139.089922 288.558601 
L 137.458492 288.558601 
L 135.827063 288.558601 
L 134.195633 288.93539 
L 132.564203 288.746995 
L 130.932773 288.93539 
L 129.301343 289.08281 
L 127.669913 288.746995 
L 126.038483 288.558601 
L 124.407053 289.08281 
L 122.775624 288.558601 
L 121.144194 289.08281 
L 119.512764 288.558601 
L 117.881334 289.08281 
L 116.249904 288.93539 
L 114.618474 288.746995 
L 112.987044 288.370207 
L 111.355614 289.08281 
L 109.724185 288.93539 
L 108.092755 288.746995 
L 106.461325 288.746995 
L 104.829895 288.746995 
L 103.198465 289.123784 
L 101.567035 288.558601 
L 99.935605 288.746995 
L 98.304175 288.93539 
L 96.672746 288.93539 
L 95.041316 288.746995 
L 93.409886 288.93539 
L 91.778456 289.123784 
L 90.147026 289.113541 
L 88.515596 288.746995 
L 86.884166 289.08281 
L 85.252736 289.08281 
L 83.621307 288.746995 
L 81.989877 288.558601 
L 80.358447 288.746995 
L 78.727017 288.746995 
L 77.095587 288.93539 
L 75.464157 288.746995 
L 73.832727 289.08281 
z
" style="fill:#1f77b4;fill-opacity:0.2;"/>
   </g>
   <g id="PolyCollection_2">
    <path clip-path="url(#pcc3b0318e0)" d="M 73.832727 288.370207 
L 73.832727 289.312178 
L 75.464157 289.312178 
L 77.095587 289.312178 
L 78.727017 289.312178 
L 80.358447 289.312178 
L 81.989877 289.312178 
L 83.621307 289.312178 
L 85.252736 289.312178 
L 86.884166 289.312178 
L 88.515596 289.312178 
L 90.147026 289.312178 
L 91.778456 289.312178 
L 93.409886 289.312178 
L 95.041316 289.312178 
L 96.672746 289.312178 
L 98.304175 289.312178 
L 99.935605 289.312178 
L 101.567035 289.312178 
L 103.198465 289.312178 
L 104.829895 289.312178 
L 106.461325 289.312178 
L 108.092755 289.312178 
L 109.724185 289.312178 
L 111.355614 289.312178 
L 112.987044 289.312178 
L 114.618474 289.312178 
L 116.249904 289.312178 
L 117.881334 289.312178 
L 119.512764 289.312178 
L 121.144194 289.312178 
L 122.775624 289.312178 
L 124.407053 289.312178 
L 126.038483 289.312178 
L 127.669913 289.312178 
L 129.301343 289.312178 
L 130.932773 289.312178 
L 132.564203 289.312178 
L 134.195633 289.312178 
L 135.827063 289.312178 
L 137.458492 289.312178 
L 139.089922 289.312178 
L 140.721352 289.312178 
L 142.352782 289.312178 
L 143.984212 289.312178 
L 145.615642 289.312178 
L 147.247072 289.312178 
L 148.878502 289.312178 
L 150.509931 289.312178 
L 152.141361 289.312178 
L 153.772791 289.312178 
L 155.404221 289.312178 
L 157.035651 289.312178 
L 158.667081 289.312178 
L 160.298511 289.312178 
L 161.929941 289.312178 
L 163.56137 289.312178 
L 165.1928 289.312178 
L 166.82423 289.312178 
L 168.45566 289.312178 
L 170.08709 289.312178 
L 171.71852 289.312178 
L 173.34995 289.312178 
L 174.98138 289.312178 
L 176.61281 289.312178 
L 178.244239 289.312178 
L 179.875669 289.312178 
L 181.507099 289.312178 
L 183.138529 289.312178 
L 184.769959 289.312178 
L 186.401389 289.312178 
L 188.032819 289.312178 
L 189.664249 289.312178 
L 191.295678 289.312178 
L 192.927108 289.312178 
L 194.558538 289.312178 
L 196.189968 289.312178 
L 197.821398 289.312178 
L 199.452828 289.312178 
L 201.084258 289.312178 
L 202.715688 289.312178 
L 204.347117 289.399151 
L 205.978547 289.398231 
L 207.609977 289.400094 
L 209.241407 289.81168 
L 210.872837 289.851569 
L 212.504267 290.216857 
L 214.135697 290.192346 
L 215.767127 290.391833 
L 217.398556 291.200004 
L 219.029986 291.382172 
L 220.661416 291.375 
L 222.292846 291.720542 
L 223.924276 291.62891 
L 225.555706 291.614005 
L 227.187136 291.61016 
L 228.818566 292.400964 
L 230.449995 292.114797 
L 232.081425 292.358654 
L 233.712855 292.023414 
L 235.344285 291.992911 
L 236.975715 291.987927 
L 238.607145 292.042364 
L 240.238575 292.012185 
L 241.870005 292.443671 
L 243.501434 292.378498 
L 245.132864 293.551705 
L 246.764294 292.02567 
L 248.395724 292.004993 
L 250.027154 292.741451 
L 251.658584 293.052315 
L 253.290014 293.288551 
L 254.921444 292.493909 
L 256.552873 293.680383 
L 258.184303 292.988695 
L 259.815733 293.090513 
L 261.447163 293.210974 
L 263.078593 293.552476 
L 264.710023 293.766095 
L 266.341453 292.932482 
L 267.972883 292.875277 
L 269.604312 292.913697 
L 271.235742 292.827648 
L 272.867172 293.006501 
L 274.498602 293.953186 
L 276.130032 294.067655 
L 277.761462 293.033758 
L 279.392892 293.015089 
L 281.024322 293.34586 
L 282.655751 292.947557 
L 284.287181 292.923155 
L 285.918611 293.097811 
L 287.550041 293.287229 
L 289.181471 292.875929 
L 290.812901 293.441917 
L 292.444331 292.889219 
L 294.075761 293.375008 
L 295.70719 293.183393 
L 297.33862 293.341849 
L 298.97005 292.984504 
L 300.60148 293.01752 
L 302.23291 292.866039 
L 303.86434 292.790231 
L 305.49577 292.760144 
L 307.1272 292.691474 
L 308.75863 293.071939 
L 310.390059 294.437417 
L 312.021489 293.570029 
L 313.652919 292.912852 
L 315.284349 295.036355 
L 316.915779 294.746303 
L 318.547209 293.338368 
L 320.178639 293.308547 
L 321.810069 295.392816 
L 323.441498 292.862563 
L 325.072928 294.222859 
L 326.704358 292.820095 
L 328.335788 292.811647 
L 329.967218 294.606645 
L 331.598648 292.85521 
L 333.230078 292.508309 
L 334.861508 292.368456 
L 336.492937 293.807693 
L 338.124367 292.427798 
L 339.755797 293.182621 
L 341.387227 294.287736 
L 343.018657 293.794577 
L 344.650087 292.675631 
L 346.281517 293.945466 
L 347.912947 293.498925 
L 349.544376 292.840513 
L 351.175806 292.822168 
L 352.807236 292.763158 
L 354.438666 293.064758 
L 356.070096 293.044086 
L 357.701526 292.983031 
L 359.332956 292.948436 
L 360.964386 293.734524 
L 362.595815 292.18204 
L 364.227245 293.280494 
L 365.858675 292.541375 
L 367.490105 293.365211 
L 369.121535 294.445615 
L 370.752965 293.166772 
L 372.384395 293.54495 
L 374.015825 294.264319 
L 375.647254 293.05031 
L 377.278684 292.922394 
L 378.910114 294.927043 
L 380.541544 293.498123 
L 382.172974 293.454139 
L 383.804404 293.624705 
L 385.435834 292.795584 
L 387.067264 293.462705 
L 388.698693 295.488 
L 390.330123 293.538334 
L 391.961553 295.146049 
L 393.592983 292.946912 
L 395.224413 292.887969 
L 396.855843 292.87302 
L 398.487273 293.40909 
L 398.487273 149.501421 
L 398.487273 149.501421 
L 396.855843 208.833688 
L 395.224413 226.525546 
L 393.592983 240.572205 
L 391.961553 156.279264 
L 390.330123 166.546385 
L 388.698693 151.681552 
L 387.067264 176.089312 
L 385.435834 194.434961 
L 383.804404 185.656276 
L 382.172974 217.968375 
L 380.541544 215.858364 
L 378.910114 163.40435 
L 377.278684 244.699127 
L 375.647254 185.861461 
L 374.015825 179.165747 
L 372.384395 200.25587 
L 370.752965 232.932146 
L 369.121535 163.658385 
L 367.490105 199.070631 
L 365.858675 236.494612 
L 364.227245 214.643479 
L 362.595815 214.307611 
L 360.964386 137.618269 
L 359.332956 206.848933 
L 357.701526 235.818399 
L 356.070096 229.014856 
L 354.438666 242.175511 
L 352.807236 264.258018 
L 351.175806 194.305332 
L 349.544376 250.488703 
L 347.912947 150.956288 
L 346.281517 179.437215 
L 344.650087 188.118383 
L 343.018657 197.251864 
L 341.387227 200.999092 
L 339.755797 212.385032 
L 338.124367 199.018197 
L 336.492937 191.212012 
L 334.861508 272.201827 
L 333.230078 232.58626 
L 331.598648 207.983753 
L 329.967218 173.803223 
L 328.335788 154.524306 
L 326.704358 254.735643 
L 325.072928 165.818326 
L 323.441498 222.17786 
L 321.810069 53.568 
L 320.178639 230.734064 
L 318.547209 164.16948 
L 316.915779 190.22228 
L 315.284349 178.700365 
L 313.652919 246.312355 
L 312.021489 257.476377 
L 310.390059 164.448274 
L 308.75863 251.417906 
L 307.1272 254.936092 
L 305.49577 272.446415 
L 303.86434 258.675655 
L 302.23291 197.613581 
L 300.60148 233.716636 
L 298.97005 248.812985 
L 297.33862 213.580086 
L 295.70719 205.814581 
L 294.075761 203.947339 
L 292.444331 220.360389 
L 290.812901 209.239641 
L 289.181471 218.442099 
L 287.550041 203.034275 
L 285.918611 200.624237 
L 284.287181 229.695076 
L 282.655751 278.601315 
L 281.024322 158.441554 
L 279.392892 255.113422 
L 277.761462 217.121182 
L 276.130032 211.271384 
L 274.498602 157.03891 
L 272.867172 251.205197 
L 271.235742 215.68962 
L 269.604312 204.246243 
L 267.972883 248.302778 
L 266.341453 158.098546 
L 264.710023 256.362825 
L 263.078593 226.36297 
L 261.447163 169.636751 
L 259.815733 185.492785 
L 258.184303 161.391182 
L 256.552873 185.029978 
L 254.921444 268.588775 
L 253.290014 205.938981 
L 251.658584 238.575524 
L 250.027154 198.698292 
L 248.395724 200.155992 
L 246.764294 223.707458 
L 245.132864 227.648808 
L 243.501434 201.108719 
L 241.870005 239.716701 
L 240.238575 244.479682 
L 238.607145 173.17034 
L 236.975715 181.397012 
L 235.344285 213.920584 
L 233.712855 265.448145 
L 232.081425 250.97932 
L 230.449995 169.496717 
L 228.818566 261.976543 
L 227.187136 222.666978 
L 225.555706 155.529499 
L 223.924276 184.937201 
L 222.292846 138.896958 
L 220.661416 199.060631 
L 219.029986 171.97803 
L 217.398556 219.829032 
L 215.767127 227.98133 
L 214.135697 242.931459 
L 212.504267 191.695216 
L 210.872837 190.483427 
L 209.241407 244.72236 
L 207.609977 171.787068 
L 205.978547 220.612989 
L 204.347117 223.125139 
L 202.715688 242.246961 
L 201.084258 265.783544 
L 199.452828 263.864444 
L 197.821398 288.370207 
L 196.189968 288.370207 
L 194.558538 288.370207 
L 192.927108 288.370207 
L 191.295678 288.370207 
L 189.664249 288.370207 
L 188.032819 288.370207 
L 186.401389 288.370207 
L 184.769959 288.370207 
L 183.138529 288.370207 
L 181.507099 288.370207 
L 179.875669 288.370207 
L 178.244239 288.370207 
L 176.61281 288.370207 
L 174.98138 288.370207 
L 173.34995 288.370207 
L 171.71852 288.370207 
L 170.08709 288.370207 
L 168.45566 288.370207 
L 166.82423 288.370207 
L 165.1928 288.370207 
L 163.56137 288.370207 
L 161.929941 288.370207 
L 160.298511 288.370207 
L 158.667081 288.370207 
L 157.035651 288.370207 
L 155.404221 288.370207 
L 153.772791 288.370207 
L 152.141361 288.370207 
L 150.509931 288.370207 
L 148.878502 288.370207 
L 147.247072 288.370207 
L 145.615642 288.370207 
L 143.984212 288.370207 
L 142.352782 288.370207 
L 140.721352 288.370207 
L 139.089922 288.370207 
L 137.458492 288.370207 
L 135.827063 288.370207 
L 134.195633 288.370207 
L 132.564203 288.370207 
L 130.932773 288.370207 
L 129.301343 288.370207 
L 127.669913 288.370207 
L 126.038483 288.370207 
L 124.407053 288.370207 
L 122.775624 288.370207 
L 121.144194 288.370207 
L 119.512764 288.370207 
L 117.881334 288.370207 
L 116.249904 288.370207 
L 114.618474 288.370207 
L 112.987044 288.370207 
L 111.355614 288.370207 
L 109.724185 288.370207 
L 108.092755 288.370207 
L 106.461325 288.370207 
L 104.829895 288.370207 
L 103.198465 288.370207 
L 101.567035 288.370207 
L 99.935605 288.370207 
L 98.304175 288.370207 
L 96.672746 288.370207 
L 95.041316 288.370207 
L 93.409886 288.370207 
L 91.778456 288.370207 
L 90.147026 288.370207 
L 88.515596 288.370207 
L 86.884166 288.370207 
L 85.252736 288.370207 
L 83.621307 288.370207 
L 81.989877 288.370207 
L 80.358447 288.370207 
L 78.727017 288.370207 
L 77.095587 288.370207 
L 75.464157 288.370207 
L 73.832727 288.370207 
z
" style="fill:#1f77b4;fill-opacity:0.1;"/>
   </g>
   <g id="matplotlib.axis_1">
    <g id="xtick_1">
     <g id="line2d_1">
      <defs>
       <path d="M 0 0 
L 0 3.5 
" id="m2423b2d2a8" style="stroke:#000000;stroke-width:0.8;"/>
      </defs>
      <g>
       <use style="stroke:#000000;stroke-width:0.8;" x="73.832727" xlink:href="#m2423b2d2a8" y="307.584"/>
      </g>
     </g>
     <g id="text_1">
      <!-- 0 -->
      <defs>
       <path d="M 31.78125 66.40625 
Q 24.171875 66.40625 20.328125 58.90625 
Q 16.5 51.421875 16.5 36.375 
Q 16.5 21.390625 20.328125 13.890625 
Q 24.171875 6.390625 31.78125 6.390625 
Q 39.453125 6.390625 43.28125 13.890625 
Q 47.125 21.390625 47.125 36.375 
Q 47.125 51.421875 43.28125 58.90625 
Q 39.453125 66.40625 31.78125 66.40625 
z
M 31.78125 74.21875 
Q 44.046875 74.21875 50.515625 64.515625 
Q 56.984375 54.828125 56.984375 36.375 
Q 56.984375 17.96875 50.515625 8.265625 
Q 44.046875 -1.421875 31.78125 -1.421875 
Q 19.53125 -1.421875 13.0625 8.265625 
Q 6.59375 17.96875 6.59375 36.375 
Q 6.59375 54.828125 13.0625 64.515625 
Q 19.53125 74.21875 31.78125 74.21875 
z
" id="DejaVuSans-48"/>
      </defs>
      <g transform="translate(70.651477 322.182437)scale(0.1 -0.1)">
       <use xlink:href="#DejaVuSans-48"/>
      </g>
     </g>
    </g>
    <g id="xtick_2">
     <g id="line2d_2">
      <g>
       <use style="stroke:#000000;stroke-width:0.8;" x="114.618474" xlink:href="#m2423b2d2a8" y="307.584"/>
      </g>
     </g>
     <g id="text_2">
      <!-- 25 -->
      <defs>
       <path d="M 19.1875 8.296875 
L 53.609375 8.296875 
L 53.609375 0 
L 7.328125 0 
L 7.328125 8.296875 
Q 12.9375 14.109375 22.625 23.890625 
Q 32.328125 33.6875 34.8125 36.53125 
Q 39.546875 41.84375 41.421875 45.53125 
Q 43.3125 49.21875 43.3125 52.78125 
Q 43.3125 58.59375 39.234375 62.25 
Q 35.15625 65.921875 28.609375 65.921875 
Q 23.96875 65.921875 18.8125 64.3125 
Q 13.671875 62.703125 7.8125 59.421875 
L 7.8125 69.390625 
Q 13.765625 71.78125 18.9375 73 
Q 24.125 74.21875 28.421875 74.21875 
Q 39.75 74.21875 46.484375 68.546875 
Q 53.21875 62.890625 53.21875 53.421875 
Q 53.21875 48.921875 51.53125 44.890625 
Q 49.859375 40.875 45.40625 35.40625 
Q 44.1875 33.984375 37.640625 27.21875 
Q 31.109375 20.453125 19.1875 8.296875 
z
" id="DejaVuSans-50"/>
       <path d="M 10.796875 72.90625 
L 49.515625 72.90625 
L 49.515625 64.59375 
L 19.828125 64.59375 
L 19.828125 46.734375 
Q 21.96875 47.46875 24.109375 47.828125 
Q 26.265625 48.1875 28.421875 48.1875 
Q 40.625 48.1875 47.75 41.5 
Q 54.890625 34.8125 54.890625 23.390625 
Q 54.890625 11.625 47.5625 5.09375 
Q 40.234375 -1.421875 26.90625 -1.421875 
Q 22.3125 -1.421875 17.546875 -0.640625 
Q 12.796875 0.140625 7.71875 1.703125 
L 7.71875 11.625 
Q 12.109375 9.234375 16.796875 8.0625 
Q 21.484375 6.890625 26.703125 6.890625 
Q 35.15625 6.890625 40.078125 11.328125 
Q 45.015625 15.765625 45.015625 23.390625 
Q 45.015625 31 40.078125 35.4375 
Q 35.15625 39.890625 26.703125 39.890625 
Q 22.75 39.890625 18.8125 39.015625 
Q 14.890625 38.140625 10.796875 36.28125 
z
" id="DejaVuSans-53"/>
      </defs>
      <g transform="translate(108.255974 322.182437)scale(0.1 -0.1)">
       <use xlink:href="#DejaVuSans-50"/>
       <use x="63.623047" xlink:href="#DejaVuSans-53"/>
      </g>
     </g>
    </g>
    <g id="xtick_3">
     <g id="line2d_3">
      <g>
       <use style="stroke:#000000;stroke-width:0.8;" x="155.404221" xlink:href="#m2423b2d2a8" y="307.584"/>
      </g>
     </g>
     <g id="text_3">
      <!-- 50 -->
      <g transform="translate(149.041721 322.182437)scale(0.1 -0.1)">
       <use xlink:href="#DejaVuSans-53"/>
       <use x="63.623047" xlink:href="#DejaVuSans-48"/>
      </g>
     </g>
    </g>
    <g id="xtick_4">
     <g id="line2d_4">
      <g>
       <use style="stroke:#000000;stroke-width:0.8;" x="196.189968" xlink:href="#m2423b2d2a8" y="307.584"/>
      </g>
     </g>
     <g id="text_4">
      <!-- 75 -->
      <defs>
       <path d="M 8.203125 72.90625 
L 55.078125 72.90625 
L 55.078125 68.703125 
L 28.609375 0 
L 18.3125 0 
L 43.21875 64.59375 
L 8.203125 64.59375 
z
" id="DejaVuSans-55"/>
      </defs>
      <g transform="translate(189.827468 322.182437)scale(0.1 -0.1)">
       <use xlink:href="#DejaVuSans-55"/>
       <use x="63.623047" xlink:href="#DejaVuSans-53"/>
      </g>
     </g>
    </g>
    <g id="xtick_5">
     <g id="line2d_5">
      <g>
       <use style="stroke:#000000;stroke-width:0.8;" x="236.975715" xlink:href="#m2423b2d2a8" y="307.584"/>
      </g>
     </g>
     <g id="text_5">
      <!-- 100 -->
      <defs>
       <path d="M 12.40625 8.296875 
L 28.515625 8.296875 
L 28.515625 63.921875 
L 10.984375 60.40625 
L 10.984375 69.390625 
L 28.421875 72.90625 
L 38.28125 72.90625 
L 38.28125 8.296875 
L 54.390625 8.296875 
L 54.390625 0 
L 12.40625 0 
z
" id="DejaVuSans-49"/>
      </defs>
      <g transform="translate(227.431965 322.182437)scale(0.1 -0.1)">
       <use xlink:href="#DejaVuSans-49"/>
       <use x="63.623047" xlink:href="#DejaVuSans-48"/>
       <use x="127.246094" xlink:href="#DejaVuSans-48"/>
      </g>
     </g>
    </g>
    <g id="xtick_6">
     <g id="line2d_6">
      <g>
       <use style="stroke:#000000;stroke-width:0.8;" x="277.761462" xlink:href="#m2423b2d2a8" y="307.584"/>
      </g>
     </g>
     <g id="text_6">
      <!-- 125 -->
      <g transform="translate(268.217712 322.182437)scale(0.1 -0.1)">
       <use xlink:href="#DejaVuSans-49"/>
       <use x="63.623047" xlink:href="#DejaVuSans-50"/>
       <use x="127.246094" xlink:href="#DejaVuSans-53"/>
      </g>
     </g>
    </g>
    <g id="xtick_7">
     <g id="line2d_7">
      <g>
       <use style="stroke:#000000;stroke-width:0.8;" x="318.547209" xlink:href="#m2423b2d2a8" y="307.584"/>
      </g>
     </g>
     <g id="text_7">
      <!-- 150 -->
      <g transform="translate(309.003459 322.182437)scale(0.1 -0.1)">
       <use xlink:href="#DejaVuSans-49"/>
       <use x="63.623047" xlink:href="#DejaVuSans-53"/>
       <use x="127.246094" xlink:href="#DejaVuSans-48"/>
      </g>
     </g>
    </g>
    <g id="xtick_8">
     <g id="line2d_8">
      <g>
       <use style="stroke:#000000;stroke-width:0.8;" x="359.332956" xlink:href="#m2423b2d2a8" y="307.584"/>
      </g>
     </g>
     <g id="text_8">
      <!-- 175 -->
      <g transform="translate(349.789206 322.182437)scale(0.1 -0.1)">
       <use xlink:href="#DejaVuSans-49"/>
       <use x="63.623047" xlink:href="#DejaVuSans-55"/>
       <use x="127.246094" xlink:href="#DejaVuSans-53"/>
      </g>
     </g>
    </g>
    <g id="xtick_9">
     <g id="line2d_9">
      <g>
       <use style="stroke:#000000;stroke-width:0.8;" x="400.118703" xlink:href="#m2423b2d2a8" y="307.584"/>
      </g>
     </g>
     <g id="text_9">
      <!-- 200 -->
      <g transform="translate(390.574953 322.182437)scale(0.1 -0.1)">
       <use xlink:href="#DejaVuSans-50"/>
       <use x="63.623047" xlink:href="#DejaVuSans-48"/>
       <use x="127.246094" xlink:href="#DejaVuSans-48"/>
      </g>
     </g>
    </g>
   </g>
   <g id="matplotlib.axis_2">
    <g id="ytick_1">
     <g id="line2d_10">
      <defs>
       <path d="M 0 0 
L -3.5 0 
" id="m64d1993b30" style="stroke:#000000;stroke-width:0.8;"/>
      </defs>
      <g>
       <use style="stroke:#000000;stroke-width:0.8;" x="57.6" xlink:href="#m64d1993b30" y="297.972171"/>
      </g>
     </g>
     <g id="text_10">
      <!-- 0 -->
      <g transform="translate(44.2375 301.77139)scale(0.1 -0.1)">
       <use xlink:href="#DejaVuSans-48"/>
      </g>
     </g>
    </g>
    <g id="ytick_2">
     <g id="line2d_11">
      <g>
       <use style="stroke:#000000;stroke-width:0.8;" x="57.6" xlink:href="#m64d1993b30" y="258.558844"/>
      </g>
     </g>
     <g id="text_11">
      <!-- 5 -->
      <g transform="translate(44.2375 262.358063)scale(0.1 -0.1)">
       <use xlink:href="#DejaVuSans-53"/>
      </g>
     </g>
    </g>
    <g id="ytick_3">
     <g id="line2d_12">
      <g>
       <use style="stroke:#000000;stroke-width:0.8;" x="57.6" xlink:href="#m64d1993b30" y="219.145517"/>
      </g>
     </g>
     <g id="text_12">
      <!-- 10 -->
      <g transform="translate(37.875 222.944736)scale(0.1 -0.1)">
       <use xlink:href="#DejaVuSans-49"/>
       <use x="63.623047" xlink:href="#DejaVuSans-48"/>
      </g>
     </g>
    </g>
    <g id="ytick_4">
     <g id="line2d_13">
      <g>
       <use style="stroke:#000000;stroke-width:0.8;" x="57.6" xlink:href="#m64d1993b30" y="179.73219"/>
      </g>
     </g>
     <g id="text_13">
      <!-- 15 -->
      <g transform="translate(37.875 183.531409)scale(0.1 -0.1)">
       <use xlink:href="#DejaVuSans-49"/>
       <use x="63.623047" xlink:href="#DejaVuSans-53"/>
      </g>
     </g>
    </g>
    <g id="ytick_5">
     <g id="line2d_14">
      <g>
       <use style="stroke:#000000;stroke-width:0.8;" x="57.6" xlink:href="#m64d1993b30" y="140.318863"/>
      </g>
     </g>
     <g id="text_14">
      <!-- 20 -->
      <g transform="translate(37.875 144.118082)scale(0.1 -0.1)">
       <use xlink:href="#DejaVuSans-50"/>
       <use x="63.623047" xlink:href="#DejaVuSans-48"/>
      </g>
     </g>
    </g>
    <g id="ytick_6">
     <g id="line2d_15">
      <g>
       <use style="stroke:#000000;stroke-width:0.8;" x="57.6" xlink:href="#m64d1993b30" y="100.905536"/>
      </g>
     </g>
     <g id="text_15">
      <!-- 25 -->
      <g transform="translate(37.875 104.704755)scale(0.1 -0.1)">
       <use xlink:href="#DejaVuSans-50"/>
       <use x="63.623047" xlink:href="#DejaVuSans-53"/>
      </g>
     </g>
    </g>
    <g id="ytick_7">
     <g id="line2d_16">
      <g>
       <use style="stroke:#000000;stroke-width:0.8;" x="57.6" xlink:href="#m64d1993b30" y="61.492209"/>
      </g>
     </g>
     <g id="text_16">
      <!-- 30 -->
      <defs>
       <path d="M 40.578125 39.3125 
Q 47.65625 37.796875 51.625 33 
Q 55.609375 28.21875 55.609375 21.1875 
Q 55.609375 10.40625 48.1875 4.484375 
Q 40.765625 -1.421875 27.09375 -1.421875 
Q 22.515625 -1.421875 17.65625 -0.515625 
Q 12.796875 0.390625 7.625 2.203125 
L 7.625 11.71875 
Q 11.71875 9.328125 16.59375 8.109375 
Q 21.484375 6.890625 26.8125 6.890625 
Q 36.078125 6.890625 40.9375 10.546875 
Q 45.796875 14.203125 45.796875 21.1875 
Q 45.796875 27.640625 41.28125 31.265625 
Q 36.765625 34.90625 28.71875 34.90625 
L 20.21875 34.90625 
L 20.21875 43.015625 
L 29.109375 43.015625 
Q 36.375 43.015625 40.234375 45.921875 
Q 44.09375 48.828125 44.09375 54.296875 
Q 44.09375 59.90625 40.109375 62.90625 
Q 36.140625 65.921875 28.71875 65.921875 
Q 24.65625 65.921875 20.015625 65.03125 
Q 15.375 64.15625 9.8125 62.3125 
L 9.8125 71.09375 
Q 15.4375 72.65625 20.34375 73.4375 
Q 25.25 74.21875 29.59375 74.21875 
Q 40.828125 74.21875 47.359375 69.109375 
Q 53.90625 64.015625 53.90625 55.328125 
Q 53.90625 49.265625 50.4375 45.09375 
Q 46.96875 40.921875 40.578125 39.3125 
z
" id="DejaVuSans-51"/>
      </defs>
      <g transform="translate(37.875 65.291428)scale(0.1 -0.1)">
       <use xlink:href="#DejaVuSans-51"/>
       <use x="63.623047" xlink:href="#DejaVuSans-48"/>
      </g>
     </g>
    </g>
   </g>
   <g id="line2d_17">
    <path clip-path="url(#pcc3b0318e0)" d="M 73.832727 289.312178 
L 78.727017 289.312178 
L 80.358447 289.08281 
L 81.989877 289.312178 
L 86.884166 289.312178 
L 88.515596 289.197494 
L 90.147026 289.312178 
L 103.198465 289.312178 
L 104.829895 289.08281 
L 106.461325 289.312178 
L 109.724185 289.312178 
L 111.355614 289.123784 
L 112.987044 289.312178 
L 114.618474 289.312178 
L 116.249904 289.197494 
L 117.881334 289.312178 
L 119.512764 289.08281 
L 121.144194 289.312178 
L 124.407053 289.312178 
L 126.038483 289.08281 
L 127.669913 289.08281 
L 129.301343 289.312178 
L 132.564203 289.312178 
L 134.195633 289.08281 
L 137.458492 289.312178 
L 153.772791 289.312178 
L 155.404221 289.08281 
L 157.035651 289.312178 
L 158.667081 289.312178 
L 160.298511 289.08281 
L 161.929941 289.08281 
L 163.56137 289.312178 
L 165.1928 289.08281 
L 166.82423 289.08281 
L 168.45566 289.312178 
L 174.98138 289.312178 
L 176.61281 289.197494 
L 178.244239 289.312178 
L 179.875669 289.08281 
L 181.507099 289.312178 
L 183.138529 289.08281 
L 188.032819 289.08281 
L 189.664249 289.312178 
L 199.452828 289.312178 
L 201.084258 289.08281 
L 202.715688 288.578463 
L 205.978547 288.909229 
L 207.609977 288.93539 
L 209.241407 289.074256 
L 210.872837 289.079091 
L 212.504267 288.564291 
L 214.135697 289.27109 
L 215.767127 289.499832 
L 217.398556 289.200504 
L 220.661416 289.073637 
L 222.292846 289.124711 
L 225.555706 288.542493 
L 227.187136 288.864595 
L 228.818566 288.284604 
L 233.712855 289.113704 
L 235.344285 289.009168 
L 236.975715 288.386564 
L 238.607145 287.43736 
L 240.238575 289.154872 
L 241.870005 288.599976 
L 243.501434 288.702315 
L 245.132864 285.927237 
L 246.764294 289.110516 
L 248.395724 288.500084 
L 250.027154 286.315058 
L 251.658584 288.738515 
L 253.290014 283.568872 
L 254.921444 288.552049 
L 256.552873 282.007295 
L 258.184303 281.567664 
L 259.815733 281.8597 
L 261.447163 270.151536 
L 263.078593 286.253429 
L 264.710023 288.459083 
L 266.341453 287.55181 
L 267.972883 288.746995 
L 269.604312 289.800001 
L 271.235742 289.533349 
L 272.867172 289.013167 
L 274.498602 288.945219 
L 276.130032 290.117115 
L 277.761462 289.101377 
L 279.392892 289.443294 
L 281.024322 289.009066 
L 284.287181 289.971759 
L 285.918611 288.781332 
L 287.550041 289.166469 
L 289.181471 289.887947 
L 290.812901 289.020752 
L 292.444331 289.075795 
L 294.075761 289.663061 
L 295.70719 288.551818 
L 297.33862 288.91719 
L 300.60148 290.279696 
L 302.23291 289.593419 
L 303.86434 290.043891 
L 305.49577 290.00902 
L 307.1272 289.22087 
L 308.75863 289.794595 
L 310.390059 289.77112 
L 312.021489 289.877749 
L 313.652919 288.518016 
L 315.284349 290.414283 
L 316.915779 289.826364 
L 318.547209 291.314 
L 320.178639 288.894403 
L 321.810069 289.709323 
L 323.441498 289.791943 
L 325.072928 289.159535 
L 326.704358 289.189441 
L 328.335788 287.198299 
L 329.967218 288.631059 
L 331.598648 289.228197 
L 333.230078 289.954654 
L 334.861508 289.107902 
L 336.492937 289.345723 
L 338.124367 290.063538 
L 339.755797 289.000004 
L 341.387227 289.716475 
L 343.018657 289.468329 
L 344.650087 290.044311 
L 347.912947 289.565159 
L 349.544376 287.847673 
L 351.175806 289.519878 
L 352.807236 290.10464 
L 354.438666 289.299397 
L 356.070096 288.815523 
L 357.701526 289.055112 
L 359.332956 289.653444 
L 360.964386 285.577485 
L 362.595815 289.194039 
L 364.227245 288.658497 
L 365.858675 290.10714 
L 367.490105 288.560317 
L 369.121535 288.682041 
L 370.752965 289.392138 
L 372.384395 289.864845 
L 374.015825 289.220174 
L 375.647254 289.107843 
L 377.278684 286.978892 
L 378.910114 289.911409 
L 380.541544 286.886443 
L 382.172974 286.587952 
L 383.804404 289.978754 
L 385.435834 289.75043 
L 387.067264 290.318123 
L 388.698693 289.900831 
L 390.330123 289.063795 
L 391.961553 290.203175 
L 395.224413 288.35904 
L 396.855843 288.977842 
L 398.487273 289.30318 
L 398.487273 289.30318 
" style="fill:none;stroke:#1f77b4;stroke-linecap:square;stroke-width:0.25;"/>
   </g>
   <g id="line2d_18">
    <path clip-path="url(#pcc3b0318e0)" d="M 73.832727 289.07013 
L 81.989877 289.02557 
L 93.409886 289.093966 
L 96.672746 289.061365 
L 103.198465 289.109612 
L 104.829895 288.967742 
L 111.355614 289.108628 
L 112.987044 288.985762 
L 117.881334 289.090034 
L 119.512764 288.950787 
L 121.144194 289.104205 
L 122.775624 289.009843 
L 124.407053 289.101912 
L 126.038483 288.976342 
L 130.932773 289.064478 
L 137.458492 288.993707 
L 142.352782 289.082662 
L 145.615642 289.101992 
L 155.404221 288.978226 
L 158.667081 289.162443 
L 160.298511 288.994362 
L 170.08709 289.124189 
L 171.71852 289.027618 
L 173.34995 289.181037 
L 174.98138 289.066362 
L 178.244239 289.12239 
L 179.875669 288.945789 
L 181.507099 289.06931 
L 188.032819 289.047932 
L 191.295678 289.198525 
L 192.927108 288.957503 
L 194.558538 289.135168 
L 197.821398 289.098224 
L 199.452828 288.773356 
L 201.084258 288.653344 
L 202.715688 284.00146 
L 204.347117 284.063529 
L 205.978547 284.364716 
L 207.609977 280.622694 
L 209.241407 285.983633 
L 210.872837 282.520376 
L 212.504267 282.981665 
L 214.135697 288.131373 
L 215.767127 285.00541 
L 217.398556 282.975231 
L 219.029986 287.257288 
L 220.661416 284.219543 
L 222.292846 279.247347 
L 223.924276 281.753404 
L 225.555706 282.14497 
L 227.187136 286.748171 
L 228.818566 285.689332 
L 230.449995 280.95061 
L 232.081425 285.895093 
L 233.712855 287.335374 
L 235.344285 286.214121 
L 236.975715 281.673025 
L 238.607145 279.914294 
L 240.238575 286.555983 
L 241.870005 285.090356 
L 243.501434 283.347225 
L 245.132864 280.168755 
L 246.764294 284.942341 
L 250.027154 273.480338 
L 251.658584 281.651456 
L 253.290014 279.053797 
L 254.921444 286.803117 
L 256.552873 277.79472 
L 258.184303 277.774613 
L 259.815733 269.531825 
L 261.447163 271.565274 
L 263.078593 281.910973 
L 264.710023 285.164751 
L 266.341453 274.461978 
L 267.972883 280.435187 
L 269.604312 282.16198 
L 271.235742 286.500549 
L 272.867172 287.427544 
L 274.498602 283.543187 
L 276.130032 289.039124 
L 277.761462 284.137957 
L 279.392892 288.002541 
L 281.024322 281.165895 
L 282.655751 289.198421 
L 284.287181 288.251398 
L 285.918611 284.266779 
L 287.550041 284.338235 
L 289.181471 287.575026 
L 290.812901 283.57523 
L 292.444331 286.182228 
L 294.075761 284.984489 
L 295.70719 280.270158 
L 297.33862 282.832983 
L 298.97005 288.400006 
L 300.60148 288.937502 
L 302.23291 281.071555 
L 303.86434 289.061556 
L 305.49577 289.246585 
L 307.1272 287.616784 
L 308.75863 286.964437 
L 310.390059 283.575999 
L 312.021489 288.350397 
L 313.652919 281.816599 
L 315.284349 282.815813 
L 316.915779 282.099144 
L 318.547209 283.890297 
L 320.178639 283.304338 
L 321.810069 267.640371 
L 323.441498 287.832565 
L 325.072928 280.074103 
L 326.704358 286.058774 
L 328.335788 271.488981 
L 329.967218 278.641892 
L 333.230078 285.437502 
L 334.861508 287.99595 
L 336.492937 283.868409 
L 338.124367 281.099774 
L 339.755797 281.305335 
L 341.387227 283.53482 
L 343.018657 278.986281 
L 344.650087 279.382592 
L 346.281517 277.776229 
L 347.912947 271.566097 
L 349.544376 283.452042 
L 351.175806 280.52876 
L 352.807236 287.797133 
L 354.438666 284.295153 
L 356.070096 284.81888 
L 357.701526 279.49387 
L 359.332956 279.34905 
L 360.964386 270.996613 
L 362.595815 286.69899 
L 364.227245 281.78912 
L 365.858675 282.798773 
L 367.490105 280.85731 
L 369.121535 271.270893 
L 370.752965 280.31863 
L 372.384395 280.297985 
L 374.015825 276.209325 
L 375.647254 276.558655 
L 377.278684 281.809088 
L 378.910114 272.482754 
L 380.541544 274.138477 
L 382.172974 278.15737 
L 383.804404 276.464921 
L 385.435834 283.187739 
L 387.067264 282.918148 
L 388.698693 275.790257 
L 390.330123 271.971519 
L 391.961553 275.133464 
L 393.592983 283.973131 
L 395.224413 282.322804 
L 396.855843 280.112911 
L 398.487273 277.130623 
L 398.487273 277.130623 
" style="fill:none;stroke:#2ca02c;stroke-linecap:square;stroke-width:0.75;"/>
   </g>
   <g id="patch_3">
    <path d="M 57.6 307.584 
L 57.6 41.472 
" style="fill:none;stroke:#000000;stroke-linecap:square;stroke-linejoin:miter;stroke-width:0.8;"/>
   </g>
   <g id="patch_4">
    <path d="M 414.72 307.584 
L 414.72 41.472 
" style="fill:none;stroke:#000000;stroke-linecap:square;stroke-linejoin:miter;stroke-width:0.8;"/>
   </g>
   <g id="patch_5">
    <path d="M 57.6 307.584 
L 414.72 307.584 
" style="fill:none;stroke:#000000;stroke-linecap:square;stroke-linejoin:miter;stroke-width:0.8;"/>
   </g>
   <g id="patch_6">
    <path d="M 57.6 41.472 
L 414.72 41.472 
" style="fill:none;stroke:#000000;stroke-linecap:square;stroke-linejoin:miter;stroke-width:0.8;"/>
   </g>
   <g id="legend_1">
    <g id="patch_7">
     <path d="M 338.234063 78.82825 
L 407.72 78.82825 
Q 409.72 78.82825 409.72 76.82825 
L 409.72 48.472 
Q 409.72 46.472 407.72 46.472 
L 338.234063 46.472 
Q 336.234063 46.472 336.234063 48.472 
L 336.234063 76.82825 
Q 336.234063 78.82825 338.234063 78.82825 
z
" style="fill:#ffffff;opacity:0.8;stroke:#cccccc;stroke-linejoin:miter;"/>
    </g>
    <g id="line2d_19">
     <path d="M 340.234063 54.570437 
L 360.234063 54.570437 
" style="fill:none;stroke:#1f77b4;stroke-linecap:square;stroke-width:0.25;"/>
    </g>
    <g id="line2d_20"/>
    <g id="text_17">
     <!-- median -->
     <defs>
      <path d="M 52 44.1875 
Q 55.375 50.25 60.0625 53.125 
Q 64.75 56 71.09375 56 
Q 79.640625 56 84.28125 50.015625 
Q 88.921875 44.046875 88.921875 33.015625 
L 88.921875 0 
L 79.890625 0 
L 79.890625 32.71875 
Q 79.890625 40.578125 77.09375 44.375 
Q 74.3125 48.1875 68.609375 48.1875 
Q 61.625 48.1875 57.5625 43.546875 
Q 53.515625 38.921875 53.515625 30.90625 
L 53.515625 0 
L 44.484375 0 
L 44.484375 32.71875 
Q 44.484375 40.625 41.703125 44.40625 
Q 38.921875 48.1875 33.109375 48.1875 
Q 26.21875 48.1875 22.15625 43.53125 
Q 18.109375 38.875 18.109375 30.90625 
L 18.109375 0 
L 9.078125 0 
L 9.078125 54.6875 
L 18.109375 54.6875 
L 18.109375 46.1875 
Q 21.1875 51.21875 25.484375 53.609375 
Q 29.78125 56 35.6875 56 
Q 41.65625 56 45.828125 52.96875 
Q 50 49.953125 52 44.1875 
z
" id="DejaVuSans-109"/>
      <path d="M 56.203125 29.59375 
L 56.203125 25.203125 
L 14.890625 25.203125 
Q 15.484375 15.921875 20.484375 11.0625 
Q 25.484375 6.203125 34.421875 6.203125 
Q 39.59375 6.203125 44.453125 7.46875 
Q 49.3125 8.734375 54.109375 11.28125 
L 54.109375 2.78125 
Q 49.265625 0.734375 44.1875 -0.34375 
Q 39.109375 -1.421875 33.890625 -1.421875 
Q 20.796875 -1.421875 13.15625 6.1875 
Q 5.515625 13.8125 5.515625 26.8125 
Q 5.515625 40.234375 12.765625 48.109375 
Q 20.015625 56 32.328125 56 
Q 43.359375 56 49.78125 48.890625 
Q 56.203125 41.796875 56.203125 29.59375 
z
M 47.21875 32.234375 
Q 47.125 39.59375 43.09375 43.984375 
Q 39.0625 48.390625 32.421875 48.390625 
Q 24.90625 48.390625 20.390625 44.140625 
Q 15.875 39.890625 15.1875 32.171875 
z
" id="DejaVuSans-101"/>
      <path d="M 45.40625 46.390625 
L 45.40625 75.984375 
L 54.390625 75.984375 
L 54.390625 0 
L 45.40625 0 
L 45.40625 8.203125 
Q 42.578125 3.328125 38.25 0.953125 
Q 33.9375 -1.421875 27.875 -1.421875 
Q 17.96875 -1.421875 11.734375 6.484375 
Q 5.515625 14.40625 5.515625 27.296875 
Q 5.515625 40.1875 11.734375 48.09375 
Q 17.96875 56 27.875 56 
Q 33.9375 56 38.25 53.625 
Q 42.578125 51.265625 45.40625 46.390625 
z
M 14.796875 27.296875 
Q 14.796875 17.390625 18.875 11.75 
Q 22.953125 6.109375 30.078125 6.109375 
Q 37.203125 6.109375 41.296875 11.75 
Q 45.40625 17.390625 45.40625 27.296875 
Q 45.40625 37.203125 41.296875 42.84375 
Q 37.203125 48.484375 30.078125 48.484375 
Q 22.953125 48.484375 18.875 42.84375 
Q 14.796875 37.203125 14.796875 27.296875 
z
" id="DejaVuSans-100"/>
      <path d="M 9.421875 54.6875 
L 18.40625 54.6875 
L 18.40625 0 
L 9.421875 0 
z
M 9.421875 75.984375 
L 18.40625 75.984375 
L 18.40625 64.59375 
L 9.421875 64.59375 
z
" id="DejaVuSans-105"/>
      <path d="M 34.28125 27.484375 
Q 23.390625 27.484375 19.1875 25 
Q 14.984375 22.515625 14.984375 16.5 
Q 14.984375 11.71875 18.140625 8.90625 
Q 21.296875 6.109375 26.703125 6.109375 
Q 34.1875 6.109375 38.703125 11.40625 
Q 43.21875 16.703125 43.21875 25.484375 
L 43.21875 27.484375 
z
M 52.203125 31.203125 
L 52.203125 0 
L 43.21875 0 
L 43.21875 8.296875 
Q 40.140625 3.328125 35.546875 0.953125 
Q 30.953125 -1.421875 24.3125 -1.421875 
Q 15.921875 -1.421875 10.953125 3.296875 
Q 6 8.015625 6 15.921875 
Q 6 25.140625 12.171875 29.828125 
Q 18.359375 34.515625 30.609375 34.515625 
L 43.21875 34.515625 
L 43.21875 35.40625 
Q 43.21875 41.609375 39.140625 45 
Q 35.0625 48.390625 27.6875 48.390625 
Q 23 48.390625 18.546875 47.265625 
Q 14.109375 46.140625 10.015625 43.890625 
L 10.015625 52.203125 
Q 14.9375 54.109375 19.578125 55.046875 
Q 24.21875 56 28.609375 56 
Q 40.484375 56 46.34375 49.84375 
Q 52.203125 43.703125 52.203125 31.203125 
z
" id="DejaVuSans-97"/>
      <path d="M 54.890625 33.015625 
L 54.890625 0 
L 45.90625 0 
L 45.90625 32.71875 
Q 45.90625 40.484375 42.875 44.328125 
Q 39.84375 48.1875 33.796875 48.1875 
Q 26.515625 48.1875 22.3125 43.546875 
Q 18.109375 38.921875 18.109375 30.90625 
L 18.109375 0 
L 9.078125 0 
L 9.078125 54.6875 
L 18.109375 54.6875 
L 18.109375 46.1875 
Q 21.34375 51.125 25.703125 53.5625 
Q 30.078125 56 35.796875 56 
Q 45.21875 56 50.046875 50.171875 
Q 54.890625 44.34375 54.890625 33.015625 
z
" id="DejaVuSans-110"/>
     </defs>
     <g transform="translate(368.234063 58.070437)scale(0.1 -0.1)">
      <use xlink:href="#DejaVuSans-109"/>
      <use x="97.412109" xlink:href="#DejaVuSans-101"/>
      <use x="158.935547" xlink:href="#DejaVuSans-100"/>
      <use x="222.412109" xlink:href="#DejaVuSans-105"/>
      <use x="250.195312" xlink:href="#DejaVuSans-97"/>
      <use x="311.474609" xlink:href="#DejaVuSans-110"/>
     </g>
    </g>
    <g id="line2d_21">
     <path d="M 340.234063 69.248562 
L 360.234063 69.248562 
" style="fill:none;stroke:#2ca02c;stroke-linecap:square;stroke-width:0.75;"/>
    </g>
    <g id="line2d_22"/>
    <g id="text_18">
     <!-- mean -->
     <g transform="translate(368.234063 72.748562)scale(0.1 -0.1)">
      <use xlink:href="#DejaVuSans-109"/>
      <use x="97.412109" xlink:href="#DejaVuSans-101"/>
      <use x="158.935547" xlink:href="#DejaVuSans-97"/>
      <use x="220.214844" xlink:href="#DejaVuSans-110"/>
     </g>
    </g>
   </g>
  </g>
  <g id="text_19">
   <!-- log_loss.mean over generations -->
   <defs>
    <path d="M 9.421875 75.984375 
L 18.40625 75.984375 
L 18.40625 0 
L 9.421875 0 
z
" id="DejaVuSans-108"/>
    <path d="M 30.609375 48.390625 
Q 23.390625 48.390625 19.1875 42.75 
Q 14.984375 37.109375 14.984375 27.296875 
Q 14.984375 17.484375 19.15625 11.84375 
Q 23.34375 6.203125 30.609375 6.203125 
Q 37.796875 6.203125 41.984375 11.859375 
Q 46.1875 17.53125 46.1875 27.296875 
Q 46.1875 37.015625 41.984375 42.703125 
Q 37.796875 48.390625 30.609375 48.390625 
z
M 30.609375 56 
Q 42.328125 56 49.015625 48.375 
Q 55.71875 40.765625 55.71875 27.296875 
Q 55.71875 13.875 49.015625 6.21875 
Q 42.328125 -1.421875 30.609375 -1.421875 
Q 18.84375 -1.421875 12.171875 6.21875 
Q 5.515625 13.875 5.515625 27.296875 
Q 5.515625 40.765625 12.171875 48.375 
Q 18.84375 56 30.609375 56 
z
" id="DejaVuSans-111"/>
    <path d="M 45.40625 27.984375 
Q 45.40625 37.75 41.375 43.109375 
Q 37.359375 48.484375 30.078125 48.484375 
Q 22.859375 48.484375 18.828125 43.109375 
Q 14.796875 37.75 14.796875 27.984375 
Q 14.796875 18.265625 18.828125 12.890625 
Q 22.859375 7.515625 30.078125 7.515625 
Q 37.359375 7.515625 41.375 12.890625 
Q 45.40625 18.265625 45.40625 27.984375 
z
M 54.390625 6.78125 
Q 54.390625 -7.171875 48.1875 -13.984375 
Q 42 -20.796875 29.203125 -20.796875 
Q 24.46875 -20.796875 20.265625 -20.09375 
Q 16.0625 -19.390625 12.109375 -17.921875 
L 12.109375 -9.1875 
Q 16.0625 -11.328125 19.921875 -12.34375 
Q 23.78125 -13.375 27.78125 -13.375 
Q 36.625 -13.375 41.015625 -8.765625 
Q 45.40625 -4.15625 45.40625 5.171875 
L 45.40625 9.625 
Q 42.625 4.78125 38.28125 2.390625 
Q 33.9375 0 27.875 0 
Q 17.828125 0 11.671875 7.65625 
Q 5.515625 15.328125 5.515625 27.984375 
Q 5.515625 40.671875 11.671875 48.328125 
Q 17.828125 56 27.875 56 
Q 33.9375 56 38.28125 53.609375 
Q 42.625 51.21875 45.40625 46.390625 
L 45.40625 54.6875 
L 54.390625 54.6875 
z
" id="DejaVuSans-103"/>
    <path d="M 50.984375 -16.609375 
L 50.984375 -23.578125 
L -0.984375 -23.578125 
L -0.984375 -16.609375 
z
" id="DejaVuSans-95"/>
    <path d="M 44.28125 53.078125 
L 44.28125 44.578125 
Q 40.484375 46.53125 36.375 47.5 
Q 32.28125 48.484375 27.875 48.484375 
Q 21.1875 48.484375 17.84375 46.4375 
Q 14.5 44.390625 14.5 40.28125 
Q 14.5 37.15625 16.890625 35.375 
Q 19.28125 33.59375 26.515625 31.984375 
L 29.59375 31.296875 
Q 39.15625 29.25 43.1875 25.515625 
Q 47.21875 21.78125 47.21875 15.09375 
Q 47.21875 7.46875 41.1875 3.015625 
Q 35.15625 -1.421875 24.609375 -1.421875 
Q 20.21875 -1.421875 15.453125 -0.5625 
Q 10.6875 0.296875 5.421875 2 
L 5.421875 11.28125 
Q 10.40625 8.6875 15.234375 7.390625 
Q 20.0625 6.109375 24.8125 6.109375 
Q 31.15625 6.109375 34.5625 8.28125 
Q 37.984375 10.453125 37.984375 14.40625 
Q 37.984375 18.0625 35.515625 20.015625 
Q 33.0625 21.96875 24.703125 23.78125 
L 21.578125 24.515625 
Q 13.234375 26.265625 9.515625 29.90625 
Q 5.8125 33.546875 5.8125 39.890625 
Q 5.8125 47.609375 11.28125 51.796875 
Q 16.75 56 26.8125 56 
Q 31.78125 56 36.171875 55.265625 
Q 40.578125 54.546875 44.28125 53.078125 
z
" id="DejaVuSans-115"/>
    <path d="M 10.6875 12.40625 
L 21 12.40625 
L 21 0 
L 10.6875 0 
z
" id="DejaVuSans-46"/>
    <path id="DejaVuSans-32"/>
    <path d="M 2.984375 54.6875 
L 12.5 54.6875 
L 29.59375 8.796875 
L 46.6875 54.6875 
L 56.203125 54.6875 
L 35.6875 0 
L 23.484375 0 
z
" id="DejaVuSans-118"/>
    <path d="M 41.109375 46.296875 
Q 39.59375 47.171875 37.8125 47.578125 
Q 36.03125 48 33.890625 48 
Q 26.265625 48 22.1875 43.046875 
Q 18.109375 38.09375 18.109375 28.8125 
L 18.109375 0 
L 9.078125 0 
L 9.078125 54.6875 
L 18.109375 54.6875 
L 18.109375 46.1875 
Q 20.953125 51.171875 25.484375 53.578125 
Q 30.03125 56 36.53125 56 
Q 37.453125 56 38.578125 55.875 
Q 39.703125 55.765625 41.0625 55.515625 
z
" id="DejaVuSans-114"/>
    <path d="M 18.3125 70.21875 
L 18.3125 54.6875 
L 36.8125 54.6875 
L 36.8125 47.703125 
L 18.3125 47.703125 
L 18.3125 18.015625 
Q 18.3125 11.328125 20.140625 9.421875 
Q 21.96875 7.515625 27.59375 7.515625 
L 36.8125 7.515625 
L 36.8125 0 
L 27.59375 0 
Q 17.1875 0 13.234375 3.875 
Q 9.28125 7.765625 9.28125 18.015625 
L 9.28125 47.703125 
L 2.6875 47.703125 
L 2.6875 54.6875 
L 9.28125 54.6875 
L 9.28125 70.21875 
z
" id="DejaVuSans-116"/>
   </defs>
   <g transform="translate(134.789062 16.030125)scale(0.12 -0.12)">
    <use xlink:href="#DejaVuSans-108"/>
    <use x="27.783203" xlink:href="#DejaVuSans-111"/>
    <use x="88.964844" xlink:href="#DejaVuSans-103"/>
    <use x="152.441406" xlink:href="#DejaVuSans-95"/>
    <use x="202.441406" xlink:href="#DejaVuSans-108"/>
    <use x="230.224609" xlink:href="#DejaVuSans-111"/>
    <use x="291.40625" xlink:href="#DejaVuSans-115"/>
    <use x="343.505859" xlink:href="#DejaVuSans-115"/>
    <use x="395.605469" xlink:href="#DejaVuSans-46"/>
    <use x="427.392578" xlink:href="#DejaVuSans-109"/>
    <use x="524.804688" xlink:href="#DejaVuSans-101"/>
    <use x="586.328125" xlink:href="#DejaVuSans-97"/>
    <use x="647.607422" xlink:href="#DejaVuSans-110"/>
    <use x="710.986328" xlink:href="#DejaVuSans-32"/>
    <use x="742.773438" xlink:href="#DejaVuSans-111"/>
    <use x="803.955078" xlink:href="#DejaVuSans-118"/>
    <use x="863.134766" xlink:href="#DejaVuSans-101"/>
    <use x="924.658203" xlink:href="#DejaVuSans-114"/>
    <use x="965.771484" xlink:href="#DejaVuSans-32"/>
    <use x="997.558594" xlink:href="#DejaVuSans-103"/>
    <use x="1061.035156" xlink:href="#DejaVuSans-101"/>
    <use x="1122.558594" xlink:href="#DejaVuSans-110"/>
    <use x="1185.9375" xlink:href="#DejaVuSans-101"/>
    <use x="1247.460938" xlink:href="#DejaVuSans-114"/>
    <use x="1288.574219" xlink:href="#DejaVuSans-97"/>
    <use x="1349.853516" xlink:href="#DejaVuSans-116"/>
    <use x="1389.0625" xlink:href="#DejaVuSans-105"/>
    <use x="1416.845703" xlink:href="#DejaVuSans-111"/>
    <use x="1478.027344" xlink:href="#DejaVuSans-110"/>
    <use x="1541.40625" xlink:href="#DejaVuSans-115"/>
   </g>
  </g>
 </g>
 <defs>
  <clipPath id="pcc3b0318e0">
   <rect height="266.112" width="357.12" x="57.6" y="41.472"/>
  </clipPath>
 </defs>
</svg>
