<?xml version="1.0" encoding="utf-8" standalone="no"?>
<!DOCTYPE svg PUBLIC "-//W3C//DTD SVG 1.1//EN"
  "http://www.w3.org/Graphics/SVG/1.1/DTD/svg11.dtd">
<!-- Created with matplotlib (https://matplotlib.org/) -->
<svg height="345.6pt" version="1.1" viewBox="0 0 460.8 345.6" width="460.8pt" xmlns="http://www.w3.org/2000/svg" xmlns:xlink="http://www.w3.org/1999/xlink">
 <defs>
  <style type="text/css">
*{stroke-linecap:butt;stroke-linejoin:round;}
  </style>
 </defs>
 <g id="figure_1">
  <g id="patch_1">
   <path d="M 0 345.6 
L 460.8 345.6 
L 460.8 0 
L 0 0 
z
" style="fill:#ffffff;"/>
  </g>
  <g id="axes_1">
   <g id="patch_2">
    <path d="M 57.6 307.584 
L 414.72 307.584 
L 414.72 41.472 
L 57.6 41.472 
z
" style="fill:#ffffff;"/>
   </g>
   <g id="PolyCollection_1">
    <path clip-path="url(#p53eab7fe36)" d="M 73.832727 290.252954 
L 73.832727 291.511803 
L 75.464157 291.511803 
L 77.095587 291.511803 
L 78.727017 291.511803 
L 80.358447 291.511803 
L 81.989877 291.511803 
L 83.621307 291.511803 
L 85.252736 291.511803 
L 86.884166 291.511803 
L 88.515596 291.511803 
L 90.147026 291.511803 
L 91.778456 291.511803 
L 93.409886 291.511803 
L 95.041316 291.511803 
L 96.672746 291.511803 
L 98.304175 291.511803 
L 99.935605 291.511803 
L 101.567035 291.511803 
L 103.198465 291.511803 
L 104.829895 291.511803 
L 106.461325 291.511803 
L 108.092755 291.511803 
L 109.724185 291.511803 
L 111.355614 291.511803 
L 112.987044 291.511803 
L 114.618474 291.511803 
L 116.249904 291.511803 
L 117.881334 291.511803 
L 119.512764 291.511803 
L 121.144194 291.511803 
L 122.775624 291.511803 
L 124.407053 291.511803 
L 126.038483 291.511803 
L 127.669913 291.511803 
L 129.301343 291.511803 
L 130.932773 291.511803 
L 132.564203 291.511803 
L 134.195633 291.511803 
L 135.827063 291.511803 
L 137.458492 291.511803 
L 139.089922 291.511803 
L 140.721352 291.511803 
L 142.352782 291.511803 
L 143.984212 291.511803 
L 145.615642 291.511803 
L 147.247072 291.511803 
L 148.878502 291.511803 
L 150.509931 291.511803 
L 152.141361 291.511803 
L 153.772791 291.511803 
L 155.404221 291.511803 
L 157.035651 291.511803 
L 158.667081 291.511803 
L 160.298511 291.511803 
L 161.929941 291.511803 
L 163.56137 291.511803 
L 165.1928 291.511803 
L 166.82423 291.511803 
L 168.45566 291.511803 
L 170.08709 291.511803 
L 171.71852 291.511803 
L 173.34995 291.511803 
L 174.98138 291.511803 
L 176.61281 291.511803 
L 178.244239 291.511803 
L 179.875669 291.511803 
L 181.507099 291.511803 
L 183.138529 291.511803 
L 184.769959 291.511803 
L 186.401389 291.511803 
L 188.032819 291.511803 
L 189.664249 291.511803 
L 191.295678 291.511803 
L 192.927108 291.511803 
L 194.558538 291.511803 
L 196.189968 291.511803 
L 197.821398 291.511803 
L 199.452828 291.511803 
L 201.084258 291.511803 
L 202.715688 291.511803 
L 204.347117 291.511803 
L 205.978547 291.511803 
L 207.609977 291.511803 
L 209.241407 291.511803 
L 210.872837 291.511803 
L 212.504267 291.511803 
L 214.135697 291.511803 
L 215.767127 291.511803 
L 217.398556 291.511803 
L 219.029986 291.511803 
L 220.661416 291.511803 
L 222.292846 291.511803 
L 223.924276 291.511803 
L 225.555706 291.511803 
L 227.187136 291.511803 
L 228.818566 291.511803 
L 230.449995 291.511803 
L 232.081425 291.511803 
L 233.712855 291.511803 
L 235.344285 291.511803 
L 236.975715 291.511803 
L 238.607145 291.511803 
L 240.238575 291.511803 
L 241.870005 291.511803 
L 243.501434 291.511803 
L 245.132864 291.511803 
L 246.764294 291.511803 
L 248.395724 291.511803 
L 250.027154 291.511803 
L 251.658584 291.511803 
L 253.290014 291.511803 
L 254.921444 291.511803 
L 256.552873 291.511803 
L 258.184303 291.511803 
L 259.815733 291.511803 
L 261.447163 291.511803 
L 263.078593 291.511803 
L 264.710023 291.511803 
L 266.341453 291.511803 
L 267.972883 291.511803 
L 269.604312 291.450407 
L 271.235742 291.511803 
L 272.867172 291.511803 
L 274.498602 291.511803 
L 276.130032 291.511803 
L 277.761462 291.247364 
L 279.392892 291.23724 
L 281.024322 291.324167 
L 282.655751 291.339164 
L 284.287181 291.447975 
L 285.918611 291.51361 
L 287.550041 291.520491 
L 289.181471 291.639579 
L 290.812901 291.617601 
L 292.444331 291.669545 
L 294.075761 291.692858 
L 295.70719 291.762564 
L 297.33862 291.559254 
L 298.97005 291.712901 
L 300.60148 291.593641 
L 302.23291 291.931993 
L 303.86434 291.823013 
L 305.49577 291.640408 
L 307.1272 291.660722 
L 308.75863 291.5143 
L 310.390059 291.534508 
L 312.021489 291.637994 
L 313.652919 291.437433 
L 315.284349 291.535117 
L 316.915779 291.615191 
L 318.547209 291.712429 
L 320.178639 291.537223 
L 321.810069 291.612572 
L 323.441498 291.590591 
L 325.072928 291.610429 
L 326.704358 291.642509 
L 328.335788 291.641591 
L 329.967218 291.71715 
L 331.598648 291.842393 
L 333.230078 291.738107 
L 334.861508 292.372838 
L 336.492937 292.284471 
L 338.124367 291.599602 
L 339.755797 291.703476 
L 341.387227 291.582631 
L 343.018657 291.697099 
L 344.650087 291.612087 
L 346.281517 291.615849 
L 347.912947 291.709102 
L 349.544376 291.797245 
L 351.175806 291.514217 
L 352.807236 292.404613 
L 354.438666 292.337642 
L 356.070096 291.652208 
L 357.701526 291.66793 
L 359.332956 291.916035 
L 360.964386 291.733246 
L 362.595815 293.088073 
L 364.227245 291.508312 
L 365.858675 292.059371 
L 367.490105 291.468396 
L 369.121535 291.521093 
L 370.752965 291.727286 
L 372.384395 291.865492 
L 374.015825 292.097903 
L 375.647254 291.574459 
L 377.278684 292.000789 
L 378.910114 293.279921 
L 380.541544 291.812232 
L 382.172974 292.106858 
L 383.804404 292.374099 
L 385.435834 291.703767 
L 387.067264 293.315693 
L 388.698693 291.669427 
L 390.330123 291.682338 
L 391.961553 291.531836 
L 393.592983 292.70942 
L 395.224413 292.625439 
L 396.855843 291.544968 
L 398.487273 293.721599 
L 398.487273 275.558332 
L 398.487273 275.558332 
L 396.855843 213.79682 
L 395.224413 244.696938 
L 393.592983 246.97928 
L 391.961553 204.93645 
L 390.330123 223.668608 
L 388.698693 234.166995 
L 387.067264 262.919711 
L 385.435834 256.844885 
L 383.804404 246.871341 
L 382.172974 266.557959 
L 380.541544 255.72141 
L 378.910114 270.221945 
L 377.278684 275.768975 
L 375.647254 242.109699 
L 374.015825 248.263468 
L 372.384395 269.613908 
L 370.752965 282.847446 
L 369.121535 244.328331 
L 367.490105 252.285606 
L 365.858675 272.155054 
L 364.227245 253.13546 
L 362.595815 288.977065 
L 360.964386 262.082613 
L 359.332956 288.179785 
L 357.701526 242.138979 
L 356.070096 258.173715 
L 354.438666 290.013034 
L 352.807236 284.833273 
L 351.175806 264.989147 
L 349.544376 271.699752 
L 347.912947 288.363949 
L 346.281517 260.35078 
L 344.650087 278.776396 
L 343.018657 288.322384 
L 341.387227 288.098347 
L 339.755797 287.941497 
L 338.124367 257.935676 
L 336.492937 289.283263 
L 334.861508 262.794954 
L 333.230078 288.418429 
L 331.598648 288.260388 
L 329.967218 281.21008 
L 328.335788 255.437723 
L 326.704358 288.691422 
L 325.072928 249.552571 
L 323.441498 280.803507 
L 321.810069 255.008032 
L 320.178639 254.905523 
L 318.547209 288.866414 
L 316.915779 280.742383 
L 315.284349 255.47319 
L 313.652919 245.40481 
L 312.021489 288.769267 
L 310.390059 288.045655 
L 308.75863 282.825421 
L 307.1272 288.726546 
L 305.49577 288.570494 
L 303.86434 274.600412 
L 302.23291 288.418424 
L 300.60148 288.589114 
L 298.97005 289.380156 
L 297.33862 280.952239 
L 295.70719 267.763507 
L 294.075761 258.491149 
L 292.444331 252.513207 
L 290.812901 247.591748 
L 289.181471 260.75912 
L 287.550041 290.224256 
L 285.918611 290.328131 
L 284.287181 253.97086 
L 282.655751 236.905402 
L 281.024322 244.855745 
L 279.392892 263.270074 
L 277.761462 290.228068 
L 276.130032 288.983279 
L 274.498602 289.401693 
L 272.867172 290.252954 
L 271.235742 290.634407 
L 269.604312 290.332204 
L 267.972883 290.444321 
L 266.341453 290.252954 
L 264.710023 290.269561 
L 263.078593 290.274748 
L 261.447163 290.257942 
L 259.815733 290.252954 
L 258.184303 290.252954 
L 256.552873 290.252954 
L 254.921444 290.252954 
L 253.290014 290.252954 
L 251.658584 290.252954 
L 250.027154 290.252954 
L 248.395724 290.252954 
L 246.764294 290.252954 
L 245.132864 290.252954 
L 243.501434 290.252954 
L 241.870005 290.252954 
L 240.238575 290.252954 
L 238.607145 290.252954 
L 236.975715 290.252954 
L 235.344285 290.252954 
L 233.712855 290.252954 
L 232.081425 290.252954 
L 230.449995 290.252954 
L 228.818566 290.252954 
L 227.187136 290.252954 
L 225.555706 290.252954 
L 223.924276 290.252954 
L 222.292846 290.252954 
L 220.661416 290.252954 
L 219.029986 290.252954 
L 217.398556 290.252954 
L 215.767127 290.252954 
L 214.135697 290.252954 
L 212.504267 290.252954 
L 210.872837 290.252954 
L 209.241407 290.252954 
L 207.609977 290.252954 
L 205.978547 290.252954 
L 204.347117 290.252954 
L 202.715688 290.252954 
L 201.084258 291.205275 
L 199.452828 290.252954 
L 197.821398 290.252954 
L 196.189968 290.252954 
L 194.558538 290.252954 
L 192.927108 290.252954 
L 191.295678 290.252954 
L 189.664249 290.252954 
L 188.032819 290.252954 
L 186.401389 290.252954 
L 184.769959 290.252954 
L 183.138529 290.252954 
L 181.507099 290.252954 
L 179.875669 290.252954 
L 178.244239 290.252954 
L 176.61281 290.252954 
L 174.98138 290.252954 
L 173.34995 290.252954 
L 171.71852 290.252954 
L 170.08709 290.252954 
L 168.45566 290.252954 
L 166.82423 290.252954 
L 165.1928 290.252954 
L 163.56137 290.252954 
L 161.929941 290.252954 
L 160.298511 290.252954 
L 158.667081 290.967195 
L 157.035651 290.252954 
L 155.404221 290.252954 
L 153.772791 290.252954 
L 152.141361 290.252954 
L 150.509931 290.252954 
L 148.878502 290.967195 
L 147.247072 290.252954 
L 145.615642 290.252954 
L 143.984212 290.252954 
L 142.352782 290.252954 
L 140.721352 290.252954 
L 139.089922 290.252954 
L 137.458492 290.252954 
L 135.827063 290.252954 
L 134.195633 290.252954 
L 132.564203 290.252954 
L 130.932773 290.252954 
L 129.301343 290.252954 
L 127.669913 290.252954 
L 126.038483 290.252954 
L 124.407053 290.252954 
L 122.775624 290.252954 
L 121.144194 290.967195 
L 119.512764 290.252954 
L 117.881334 290.252954 
L 116.249904 290.252954 
L 114.618474 290.252954 
L 112.987044 290.252954 
L 111.355614 290.252954 
L 109.724185 290.252954 
L 108.092755 290.252954 
L 106.461325 290.252954 
L 104.829895 290.252954 
L 103.198465 290.252954 
L 101.567035 290.252954 
L 99.935605 290.252954 
L 98.304175 290.252954 
L 96.672746 290.252954 
L 95.041316 290.252954 
L 93.409886 290.252954 
L 91.778456 290.252954 
L 90.147026 290.252954 
L 88.515596 290.252954 
L 86.884166 290.252954 
L 85.252736 290.252954 
L 83.621307 290.252954 
L 81.989877 290.252954 
L 80.358447 290.252954 
L 78.727017 290.252954 
L 77.095587 290.252954 
L 75.464157 290.252954 
L 73.832727 290.252954 
z
" style="fill:#1f77b4;fill-opacity:0.2;"/>
   </g>
   <g id="PolyCollection_2">
    <path clip-path="url(#p53eab7fe36)" d="M 73.832727 290.252954 
L 73.832727 291.511803 
L 75.464157 291.511803 
L 77.095587 291.511803 
L 78.727017 291.511803 
L 80.358447 291.511803 
L 81.989877 291.511803 
L 83.621307 291.511803 
L 85.252736 291.511803 
L 86.884166 291.511803 
L 88.515596 291.511803 
L 90.147026 291.511803 
L 91.778456 291.511803 
L 93.409886 291.511803 
L 95.041316 291.511803 
L 96.672746 291.511803 
L 98.304175 291.511803 
L 99.935605 291.511803 
L 101.567035 291.511803 
L 103.198465 291.511803 
L 104.829895 291.511803 
L 106.461325 291.511803 
L 108.092755 291.511803 
L 109.724185 291.511803 
L 111.355614 291.511803 
L 112.987044 291.511803 
L 114.618474 291.511803 
L 116.249904 291.511803 
L 117.881334 291.511803 
L 119.512764 291.511803 
L 121.144194 291.511803 
L 122.775624 291.511803 
L 124.407053 291.511803 
L 126.038483 291.511803 
L 127.669913 291.511803 
L 129.301343 291.511803 
L 130.932773 291.511803 
L 132.564203 291.511803 
L 134.195633 291.511803 
L 135.827063 291.511803 
L 137.458492 291.511803 
L 139.089922 291.511803 
L 140.721352 291.511803 
L 142.352782 291.511803 
L 143.984212 291.511803 
L 145.615642 291.511803 
L 147.247072 291.511803 
L 148.878502 291.511803 
L 150.509931 291.511803 
L 152.141361 291.511803 
L 153.772791 291.511803 
L 155.404221 291.511803 
L 157.035651 291.511803 
L 158.667081 291.511803 
L 160.298511 291.511803 
L 161.929941 291.511803 
L 163.56137 291.511803 
L 165.1928 291.511803 
L 166.82423 291.511803 
L 168.45566 291.511803 
L 170.08709 291.511803 
L 171.71852 291.511803 
L 173.34995 291.511803 
L 174.98138 291.511803 
L 176.61281 291.511803 
L 178.244239 291.511803 
L 179.875669 291.511803 
L 181.507099 291.511803 
L 183.138529 291.511803 
L 184.769959 291.511803 
L 186.401389 291.511803 
L 188.032819 291.511803 
L 189.664249 291.511803 
L 191.295678 291.511803 
L 192.927108 291.511803 
L 194.558538 291.511803 
L 196.189968 291.511803 
L 197.821398 291.511803 
L 199.452828 291.511803 
L 201.084258 291.511803 
L 202.715688 291.511803 
L 204.347117 291.511803 
L 205.978547 291.511803 
L 207.609977 291.511803 
L 209.241407 291.511803 
L 210.872837 291.511803 
L 212.504267 291.511803 
L 214.135697 291.511803 
L 215.767127 291.511803 
L 217.398556 291.511803 
L 219.029986 291.511803 
L 220.661416 291.511803 
L 222.292846 291.511803 
L 223.924276 291.511803 
L 225.555706 291.511803 
L 227.187136 291.511803 
L 228.818566 291.511803 
L 230.449995 291.511803 
L 232.081425 291.511803 
L 233.712855 291.511803 
L 235.344285 291.511803 
L 236.975715 291.511803 
L 238.607145 291.511803 
L 240.238575 291.511803 
L 241.870005 291.511803 
L 243.501434 291.511803 
L 245.132864 291.511803 
L 246.764294 291.511803 
L 248.395724 291.511803 
L 250.027154 291.511803 
L 251.658584 291.511803 
L 253.290014 291.511803 
L 254.921444 291.511803 
L 256.552873 291.511803 
L 258.184303 291.511803 
L 259.815733 291.511803 
L 261.447163 291.511803 
L 263.078593 291.511803 
L 264.710023 291.511803 
L 266.341453 291.511803 
L 267.972883 291.511803 
L 269.604312 291.511803 
L 271.235742 291.511803 
L 272.867172 291.511803 
L 274.498602 291.511803 
L 276.130032 291.511803 
L 277.761462 291.669168 
L 279.392892 291.675151 
L 281.024322 291.710656 
L 282.655751 291.705139 
L 284.287181 291.705245 
L 285.918611 291.702749 
L 287.550041 291.705838 
L 289.181471 291.722685 
L 290.812901 291.698178 
L 292.444331 291.697546 
L 294.075761 291.837221 
L 295.70719 292.493915 
L 297.33862 292.499375 
L 298.97005 292.538099 
L 300.60148 292.537458 
L 302.23291 292.877733 
L 303.86434 293.00797 
L 305.49577 292.891653 
L 307.1272 292.925945 
L 308.75863 292.929871 
L 310.390059 292.930384 
L 312.021489 292.944023 
L 313.652919 292.941577 
L 315.284349 292.940328 
L 316.915779 292.940145 
L 318.547209 293.054453 
L 320.178639 292.958505 
L 321.810069 292.957993 
L 323.441498 292.954886 
L 325.072928 292.952093 
L 326.704358 292.9493 
L 328.335788 292.946655 
L 329.967218 292.980128 
L 331.598648 292.972022 
L 333.230078 292.967281 
L 334.861508 292.965267 
L 336.492937 292.96268 
L 338.124367 292.957377 
L 339.755797 292.955835 
L 341.387227 292.95029 
L 343.018657 292.958316 
L 344.650087 292.945592 
L 346.281517 292.94503 
L 347.912947 292.944931 
L 349.544376 293.07292 
L 351.175806 292.994245 
L 352.807236 293.094974 
L 354.438666 292.930296 
L 356.070096 292.928883 
L 357.701526 292.926526 
L 359.332956 293.090191 
L 360.964386 292.973281 
L 362.595815 293.791092 
L 364.227245 292.331812 
L 365.858675 293.287127 
L 367.490105 293.280942 
L 369.121535 293.278344 
L 370.752965 293.255635 
L 372.384395 293.591678 
L 374.015825 293.137877 
L 375.647254 293.304801 
L 377.278684 294.044422 
L 378.910114 294.116444 
L 380.541544 293.563891 
L 382.172974 294.275553 
L 383.804404 293.776686 
L 385.435834 293.978953 
L 387.067264 294.239064 
L 388.698693 293.308178 
L 390.330123 294.305409 
L 391.961553 294.073444 
L 393.592983 295.220074 
L 395.224413 295.438608 
L 396.855843 295.446686 
L 398.487273 295.488 
L 398.487273 151.469677 
L 398.487273 151.469677 
L 396.855843 64.725429 
L 395.224413 60.727682 
L 393.592983 60.521967 
L 391.961553 53.568 
L 390.330123 98.508355 
L 388.698693 60.521876 
L 387.067264 106.228598 
L 385.435834 135.789313 
L 383.804404 104.767902 
L 382.172974 68.02838 
L 380.541544 82.0022 
L 378.910114 124.881924 
L 377.278684 129.848178 
L 375.647254 61.330693 
L 374.015825 62.494746 
L 372.384395 177.906404 
L 370.752965 60.521967 
L 369.121535 81.771514 
L 367.490105 177.054332 
L 365.858675 177.787001 
L 364.227245 72.553628 
L 362.595815 174.256113 
L 360.964386 108.201247 
L 359.332956 170.480116 
L 357.701526 149.23216 
L 356.070096 60.521967 
L 354.438666 60.521967 
L 352.807236 67.832924 
L 351.175806 70.933948 
L 349.544376 175.044309 
L 347.912947 112.496525 
L 346.281517 60.515317 
L 344.650087 102.656579 
L 343.018657 77.523547 
L 341.387227 72.077004 
L 339.755797 108.006937 
L 338.124367 60.521967 
L 336.492937 182.06889 
L 334.861508 203.443652 
L 333.230078 186.163033 
L 331.598648 137.45329 
L 329.967218 131.695899 
L 328.335788 83.630645 
L 326.704358 105.491059 
L 325.072928 69.708338 
L 323.441498 60.508981 
L 321.810069 170.212431 
L 320.178639 112.420579 
L 318.547209 165.419338 
L 316.915779 124.381308 
L 315.284349 90.645422 
L 313.652919 83.462249 
L 312.021489 127.555457 
L 310.390059 118.399224 
L 308.75863 150.098361 
L 307.1272 86.665602 
L 305.49577 60.521967 
L 303.86434 202.189766 
L 302.23291 144.814652 
L 300.60148 93.288658 
L 298.97005 151.934969 
L 297.33862 94.005924 
L 295.70719 199.22892 
L 294.075761 160.272709 
L 292.444331 125.983169 
L 290.812901 85.272383 
L 289.181471 162.214489 
L 287.550041 199.672418 
L 285.918611 124.706832 
L 284.287181 133.91102 
L 282.655751 60.929053 
L 281.024322 85.820249 
L 279.392892 89.226466 
L 277.761462 76.974418 
L 276.130032 137.533265 
L 274.498602 98.914339 
L 272.867172 205.539632 
L 271.235742 231.79791 
L 269.604312 173.073653 
L 267.972883 96.131798 
L 266.341453 61.794575 
L 264.710023 107.686545 
L 263.078593 134.331179 
L 261.447163 90.991362 
L 259.815733 137.795375 
L 258.184303 64.653766 
L 256.552873 99.889004 
L 254.921444 99.241428 
L 253.290014 148.344938 
L 251.658584 253.109772 
L 250.027154 103.933265 
L 248.395724 105.929674 
L 246.764294 77.951146 
L 245.132864 61.680112 
L 243.501434 93.888406 
L 241.870005 149.160113 
L 240.238575 93.436149 
L 238.607145 127.941368 
L 236.975715 217.974661 
L 235.344285 99.387745 
L 233.712855 65.589325 
L 232.081425 290.252954 
L 230.449995 79.389597 
L 228.818566 90.482974 
L 227.187136 94.070917 
L 225.555706 97.845267 
L 223.924276 79.306046 
L 222.292846 82.1832 
L 220.661416 87.192524 
L 219.029986 202.360483 
L 217.398556 113.092762 
L 215.767127 136.096005 
L 214.135697 93.349603 
L 212.504267 99.890948 
L 210.872837 60.55122 
L 209.241407 110.097008 
L 207.609977 105.197077 
L 205.978547 95.478697 
L 204.347117 103.893097 
L 202.715688 150.900076 
L 201.084258 60.63915 
L 199.452828 90.483577 
L 197.821398 290.252954 
L 196.189968 290.252954 
L 194.558538 290.252954 
L 192.927108 290.252954 
L 191.295678 290.252954 
L 189.664249 290.252954 
L 188.032819 290.252954 
L 186.401389 290.252954 
L 184.769959 290.252954 
L 183.138529 290.252954 
L 181.507099 290.252954 
L 179.875669 290.252954 
L 178.244239 290.252954 
L 176.61281 290.252954 
L 174.98138 290.252954 
L 173.34995 290.252954 
L 171.71852 290.252954 
L 170.08709 290.252954 
L 168.45566 290.252954 
L 166.82423 290.252954 
L 165.1928 290.252954 
L 163.56137 290.252954 
L 161.929941 290.252954 
L 160.298511 290.252954 
L 158.667081 290.252954 
L 157.035651 290.252954 
L 155.404221 290.252954 
L 153.772791 290.252954 
L 152.141361 290.252954 
L 150.509931 290.252954 
L 148.878502 290.252954 
L 147.247072 290.252954 
L 145.615642 290.252954 
L 143.984212 290.252954 
L 142.352782 290.252954 
L 140.721352 290.252954 
L 139.089922 290.252954 
L 137.458492 290.252954 
L 135.827063 290.252954 
L 134.195633 290.252954 
L 132.564203 290.252954 
L 130.932773 290.252954 
L 129.301343 290.252954 
L 127.669913 290.252954 
L 126.038483 290.252954 
L 124.407053 290.252954 
L 122.775624 290.252954 
L 121.144194 290.252954 
L 119.512764 290.252954 
L 117.881334 290.252954 
L 116.249904 290.252954 
L 114.618474 290.252954 
L 112.987044 290.252954 
L 111.355614 290.252954 
L 109.724185 290.252954 
L 108.092755 290.252954 
L 106.461325 290.252954 
L 104.829895 290.252954 
L 103.198465 290.252954 
L 101.567035 290.252954 
L 99.935605 290.252954 
L 98.304175 290.252954 
L 96.672746 290.252954 
L 95.041316 290.252954 
L 93.409886 290.252954 
L 91.778456 290.252954 
L 90.147026 290.252954 
L 88.515596 290.252954 
L 86.884166 290.252954 
L 85.252736 290.252954 
L 83.621307 290.252954 
L 81.989877 290.252954 
L 80.358447 290.252954 
L 78.727017 290.252954 
L 77.095587 290.252954 
L 75.464157 290.252954 
L 73.832727 290.252954 
z
" style="fill:#1f77b4;fill-opacity:0.1;"/>
   </g>
   <g id="matplotlib.axis_1">
    <g id="xtick_1">
     <g id="line2d_1">
      <defs>
       <path d="M 0 0 
L 0 3.5 
" id="m91b48c1847" style="stroke:#000000;stroke-width:0.8;"/>
      </defs>
      <g>
       <use style="stroke:#000000;stroke-width:0.8;" x="73.832727" xlink:href="#m91b48c1847" y="307.584"/>
      </g>
     </g>
     <g id="text_1">
      <!-- 0 -->
      <defs>
       <path d="M 31.78125 66.40625 
Q 24.171875 66.40625 20.328125 58.90625 
Q 16.5 51.421875 16.5 36.375 
Q 16.5 21.390625 20.328125 13.890625 
Q 24.171875 6.390625 31.78125 6.390625 
Q 39.453125 6.390625 43.28125 13.890625 
Q 47.125 21.390625 47.125 36.375 
Q 47.125 51.421875 43.28125 58.90625 
Q 39.453125 66.40625 31.78125 66.40625 
z
M 31.78125 74.21875 
Q 44.046875 74.21875 50.515625 64.515625 
Q 56.984375 54.828125 56.984375 36.375 
Q 56.984375 17.96875 50.515625 8.265625 
Q 44.046875 -1.421875 31.78125 -1.421875 
Q 19.53125 -1.421875 13.0625 8.265625 
Q 6.59375 17.96875 6.59375 36.375 
Q 6.59375 54.828125 13.0625 64.515625 
Q 19.53125 74.21875 31.78125 74.21875 
z
" id="DejaVuSans-48"/>
      </defs>
      <g transform="translate(70.651477 322.182437)scale(0.1 -0.1)">
       <use xlink:href="#DejaVuSans-48"/>
      </g>
     </g>
    </g>
    <g id="xtick_2">
     <g id="line2d_2">
      <g>
       <use style="stroke:#000000;stroke-width:0.8;" x="114.618474" xlink:href="#m91b48c1847" y="307.584"/>
      </g>
     </g>
     <g id="text_2">
      <!-- 25 -->
      <defs>
       <path d="M 19.1875 8.296875 
L 53.609375 8.296875 
L 53.609375 0 
L 7.328125 0 
L 7.328125 8.296875 
Q 12.9375 14.109375 22.625 23.890625 
Q 32.328125 33.6875 34.8125 36.53125 
Q 39.546875 41.84375 41.421875 45.53125 
Q 43.3125 49.21875 43.3125 52.78125 
Q 43.3125 58.59375 39.234375 62.25 
Q 35.15625 65.921875 28.609375 65.921875 
Q 23.96875 65.921875 18.8125 64.3125 
Q 13.671875 62.703125 7.8125 59.421875 
L 7.8125 69.390625 
Q 13.765625 71.78125 18.9375 73 
Q 24.125 74.21875 28.421875 74.21875 
Q 39.75 74.21875 46.484375 68.546875 
Q 53.21875 62.890625 53.21875 53.421875 
Q 53.21875 48.921875 51.53125 44.890625 
Q 49.859375 40.875 45.40625 35.40625 
Q 44.1875 33.984375 37.640625 27.21875 
Q 31.109375 20.453125 19.1875 8.296875 
z
" id="DejaVuSans-50"/>
       <path d="M 10.796875 72.90625 
L 49.515625 72.90625 
L 49.515625 64.59375 
L 19.828125 64.59375 
L 19.828125 46.734375 
Q 21.96875 47.46875 24.109375 47.828125 
Q 26.265625 48.1875 28.421875 48.1875 
Q 40.625 48.1875 47.75 41.5 
Q 54.890625 34.8125 54.890625 23.390625 
Q 54.890625 11.625 47.5625 5.09375 
Q 40.234375 -1.421875 26.90625 -1.421875 
Q 22.3125 -1.421875 17.546875 -0.640625 
Q 12.796875 0.140625 7.71875 1.703125 
L 7.71875 11.625 
Q 12.109375 9.234375 16.796875 8.0625 
Q 21.484375 6.890625 26.703125 6.890625 
Q 35.15625 6.890625 40.078125 11.328125 
Q 45.015625 15.765625 45.015625 23.390625 
Q 45.015625 31 40.078125 35.4375 
Q 35.15625 39.890625 26.703125 39.890625 
Q 22.75 39.890625 18.8125 39.015625 
Q 14.890625 38.140625 10.796875 36.28125 
z
" id="DejaVuSans-53"/>
      </defs>
      <g transform="translate(108.255974 322.182437)scale(0.1 -0.1)">
       <use xlink:href="#DejaVuSans-50"/>
       <use x="63.623047" xlink:href="#DejaVuSans-53"/>
      </g>
     </g>
    </g>
    <g id="xtick_3">
     <g id="line2d_3">
      <g>
       <use style="stroke:#000000;stroke-width:0.8;" x="155.404221" xlink:href="#m91b48c1847" y="307.584"/>
      </g>
     </g>
     <g id="text_3">
      <!-- 50 -->
      <g transform="translate(149.041721 322.182437)scale(0.1 -0.1)">
       <use xlink:href="#DejaVuSans-53"/>
       <use x="63.623047" xlink:href="#DejaVuSans-48"/>
      </g>
     </g>
    </g>
    <g id="xtick_4">
     <g id="line2d_4">
      <g>
       <use style="stroke:#000000;stroke-width:0.8;" x="196.189968" xlink:href="#m91b48c1847" y="307.584"/>
      </g>
     </g>
     <g id="text_4">
      <!-- 75 -->
      <defs>
       <path d="M 8.203125 72.90625 
L 55.078125 72.90625 
L 55.078125 68.703125 
L 28.609375 0 
L 18.3125 0 
L 43.21875 64.59375 
L 8.203125 64.59375 
z
" id="DejaVuSans-55"/>
      </defs>
      <g transform="translate(189.827468 322.182437)scale(0.1 -0.1)">
       <use xlink:href="#DejaVuSans-55"/>
       <use x="63.623047" xlink:href="#DejaVuSans-53"/>
      </g>
     </g>
    </g>
    <g id="xtick_5">
     <g id="line2d_5">
      <g>
       <use style="stroke:#000000;stroke-width:0.8;" x="236.975715" xlink:href="#m91b48c1847" y="307.584"/>
      </g>
     </g>
     <g id="text_5">
      <!-- 100 -->
      <defs>
       <path d="M 12.40625 8.296875 
L 28.515625 8.296875 
L 28.515625 63.921875 
L 10.984375 60.40625 
L 10.984375 69.390625 
L 28.421875 72.90625 
L 38.28125 72.90625 
L 38.28125 8.296875 
L 54.390625 8.296875 
L 54.390625 0 
L 12.40625 0 
z
" id="DejaVuSans-49"/>
      </defs>
      <g transform="translate(227.431965 322.182437)scale(0.1 -0.1)">
       <use xlink:href="#DejaVuSans-49"/>
       <use x="63.623047" xlink:href="#DejaVuSans-48"/>
       <use x="127.246094" xlink:href="#DejaVuSans-48"/>
      </g>
     </g>
    </g>
    <g id="xtick_6">
     <g id="line2d_6">
      <g>
       <use style="stroke:#000000;stroke-width:0.8;" x="277.761462" xlink:href="#m91b48c1847" y="307.584"/>
      </g>
     </g>
     <g id="text_6">
      <!-- 125 -->
      <g transform="translate(268.217712 322.182437)scale(0.1 -0.1)">
       <use xlink:href="#DejaVuSans-49"/>
       <use x="63.623047" xlink:href="#DejaVuSans-50"/>
       <use x="127.246094" xlink:href="#DejaVuSans-53"/>
      </g>
     </g>
    </g>
    <g id="xtick_7">
     <g id="line2d_7">
      <g>
       <use style="stroke:#000000;stroke-width:0.8;" x="318.547209" xlink:href="#m91b48c1847" y="307.584"/>
      </g>
     </g>
     <g id="text_7">
      <!-- 150 -->
      <g transform="translate(309.003459 322.182437)scale(0.1 -0.1)">
       <use xlink:href="#DejaVuSans-49"/>
       <use x="63.623047" xlink:href="#DejaVuSans-53"/>
       <use x="127.246094" xlink:href="#DejaVuSans-48"/>
      </g>
     </g>
    </g>
    <g id="xtick_8">
     <g id="line2d_8">
      <g>
       <use style="stroke:#000000;stroke-width:0.8;" x="359.332956" xlink:href="#m91b48c1847" y="307.584"/>
      </g>
     </g>
     <g id="text_8">
      <!-- 175 -->
      <g transform="translate(349.789206 322.182437)scale(0.1 -0.1)">
       <use xlink:href="#DejaVuSans-49"/>
       <use x="63.623047" xlink:href="#DejaVuSans-55"/>
       <use x="127.246094" xlink:href="#DejaVuSans-53"/>
      </g>
     </g>
    </g>
    <g id="xtick_9">
     <g id="line2d_9">
      <g>
       <use style="stroke:#000000;stroke-width:0.8;" x="400.118703" xlink:href="#m91b48c1847" y="307.584"/>
      </g>
     </g>
     <g id="text_9">
      <!-- 200 -->
      <g transform="translate(390.574953 322.182437)scale(0.1 -0.1)">
       <use xlink:href="#DejaVuSans-50"/>
       <use x="63.623047" xlink:href="#DejaVuSans-48"/>
       <use x="127.246094" xlink:href="#DejaVuSans-48"/>
      </g>
     </g>
    </g>
   </g>
   <g id="matplotlib.axis_2">
    <g id="ytick_1">
     <g id="line2d_10">
      <defs>
       <path d="M 0 0 
L -3.5 0 
" id="m76653277b7" style="stroke:#000000;stroke-width:0.8;"/>
      </defs>
      <g>
       <use style="stroke:#000000;stroke-width:0.8;" x="57.6" xlink:href="#m76653277b7" y="303.085001"/>
      </g>
     </g>
     <g id="text_10">
      <!-- 0 -->
      <g transform="translate(44.2375 306.88422)scale(0.1 -0.1)">
       <use xlink:href="#DejaVuSans-48"/>
      </g>
     </g>
    </g>
    <g id="ytick_2">
     <g id="line2d_11">
      <g>
       <use style="stroke:#000000;stroke-width:0.8;" x="57.6" xlink:href="#m76653277b7" y="250.413107"/>
      </g>
     </g>
     <g id="text_11">
      <!-- 5 -->
      <g transform="translate(44.2375 254.212326)scale(0.1 -0.1)">
       <use xlink:href="#DejaVuSans-53"/>
      </g>
     </g>
    </g>
    <g id="ytick_3">
     <g id="line2d_12">
      <g>
       <use style="stroke:#000000;stroke-width:0.8;" x="57.6" xlink:href="#m76653277b7" y="197.741214"/>
      </g>
     </g>
     <g id="text_12">
      <!-- 10 -->
      <g transform="translate(37.875 201.540432)scale(0.1 -0.1)">
       <use xlink:href="#DejaVuSans-49"/>
       <use x="63.623047" xlink:href="#DejaVuSans-48"/>
      </g>
     </g>
    </g>
    <g id="ytick_4">
     <g id="line2d_13">
      <g>
       <use style="stroke:#000000;stroke-width:0.8;" x="57.6" xlink:href="#m76653277b7" y="145.06932"/>
      </g>
     </g>
     <g id="text_13">
      <!-- 15 -->
      <g transform="translate(37.875 148.868539)scale(0.1 -0.1)">
       <use xlink:href="#DejaVuSans-49"/>
       <use x="63.623047" xlink:href="#DejaVuSans-53"/>
      </g>
     </g>
    </g>
    <g id="ytick_5">
     <g id="line2d_14">
      <g>
       <use style="stroke:#000000;stroke-width:0.8;" x="57.6" xlink:href="#m76653277b7" y="92.397427"/>
      </g>
     </g>
     <g id="text_14">
      <!-- 20 -->
      <g transform="translate(37.875 96.196645)scale(0.1 -0.1)">
       <use xlink:href="#DejaVuSans-50"/>
       <use x="63.623047" xlink:href="#DejaVuSans-48"/>
      </g>
     </g>
    </g>
   </g>
   <g id="line2d_15">
    <path clip-path="url(#p53eab7fe36)" d="M 73.832727 291.511803 
L 77.095587 291.511803 
L 78.727017 291.205275 
L 80.358447 291.511803 
L 83.621307 291.511803 
L 85.252736 291.205275 
L 86.884166 291.511803 
L 88.515596 291.358539 
L 90.147026 291.511803 
L 95.041316 291.511803 
L 96.672746 291.358539 
L 98.304175 291.511803 
L 99.935605 291.358539 
L 101.567035 291.511803 
L 114.618474 291.511803 
L 116.249904 291.358539 
L 117.881334 291.511803 
L 122.775624 291.511803 
L 124.407053 291.205275 
L 126.038483 291.205275 
L 127.669913 291.511803 
L 132.564203 291.511803 
L 134.195633 291.205275 
L 135.827063 291.511803 
L 137.458492 291.205275 
L 139.089922 291.205275 
L 140.721352 291.511803 
L 142.352782 291.358539 
L 143.984212 291.511803 
L 145.615642 291.205275 
L 147.247072 291.511803 
L 153.772791 291.511803 
L 155.404221 291.205275 
L 157.035651 291.205275 
L 158.667081 291.511803 
L 163.56137 291.511803 
L 165.1928 291.205275 
L 166.82423 291.511803 
L 168.45566 291.511803 
L 170.08709 291.205275 
L 171.71852 291.511803 
L 173.34995 291.511803 
L 174.98138 291.358539 
L 176.61281 291.511803 
L 178.244239 291.511803 
L 179.875669 291.205275 
L 181.507099 291.511803 
L 186.401389 291.511803 
L 188.032819 291.205275 
L 189.664249 291.511803 
L 191.295678 291.511803 
L 192.927108 291.205275 
L 194.558538 291.511803 
L 202.715688 291.511803 
L 204.347117 291.205275 
L 205.978547 291.511803 
L 219.029986 291.511803 
L 220.661416 291.205275 
L 222.292846 291.511803 
L 225.555706 291.511803 
L 227.187136 291.205275 
L 228.818566 291.511803 
L 230.449995 291.205275 
L 232.081425 291.511803 
L 235.344285 291.511803 
L 236.975715 291.205275 
L 238.607145 291.205275 
L 241.870005 291.511803 
L 243.501434 291.511803 
L 246.764294 291.205275 
L 248.395724 291.205275 
L 250.027154 291.511803 
L 251.658584 291.511803 
L 253.290014 291.205275 
L 254.921444 291.511803 
L 256.552873 291.205275 
L 259.815733 291.511803 
L 261.447163 290.654039 
L 264.710023 290.71437 
L 266.341453 290.543608 
L 267.972883 291.205275 
L 269.604312 290.727666 
L 271.235742 290.878066 
L 272.867172 291.205275 
L 274.498602 291.141421 
L 276.130032 291.205275 
L 277.761462 290.851558 
L 281.024322 290.575402 
L 282.655751 290.530272 
L 284.287181 290.812115 
L 287.550041 290.77778 
L 289.181471 290.969035 
L 290.812901 290.667263 
L 294.075761 290.744104 
L 295.70719 291.512779 
L 297.33862 291.061927 
L 298.97005 291.475329 
L 300.60148 291.180377 
L 302.23291 291.476262 
L 305.49577 290.659068 
L 307.1272 290.788354 
L 308.75863 291.191041 
L 310.390059 290.875835 
L 312.021489 290.834812 
L 313.652919 290.337158 
L 315.284349 290.96413 
L 316.915779 290.69964 
L 320.178639 291.006302 
L 321.810069 290.722617 
L 325.072928 290.668922 
L 328.335788 290.658697 
L 329.967218 291.067776 
L 331.598648 290.745781 
L 333.230078 291.326767 
L 336.492937 291.660652 
L 338.124367 290.604837 
L 339.755797 291.038632 
L 341.387227 290.486405 
L 343.018657 290.611905 
L 344.650087 290.851858 
L 346.281517 290.331894 
L 347.912947 291.060306 
L 349.544376 291.020105 
L 351.175806 290.574299 
L 352.807236 291.57808 
L 354.438666 290.984238 
L 356.070096 291.338265 
L 357.701526 290.654517 
L 359.332956 291.626673 
L 360.964386 290.349338 
L 362.595815 292.118057 
L 364.227245 290.905549 
L 365.858675 291.525706 
L 367.490105 290.759154 
L 369.121535 290.722667 
L 370.752965 290.90634 
L 372.384395 291.328466 
L 374.015825 290.496528 
L 375.647254 290.467018 
L 377.278684 290.835009 
L 378.910114 291.512181 
L 380.541544 290.591104 
L 382.172974 290.896157 
L 383.804404 291.08502 
L 385.435834 291.475897 
L 387.067264 291.51794 
L 388.698693 289.449241 
L 390.330123 258.149291 
L 391.961553 290.140692 
L 393.592983 290.589233 
L 395.224413 290.558049 
L 396.855843 256.406345 
L 398.487273 290.88758 
L 398.487273 290.88758 
" style="fill:none;stroke:#1f77b4;stroke-linecap:square;stroke-width:0.25;"/>
   </g>
   <g id="line2d_16">
    <path clip-path="url(#p53eab7fe36)" d="M 73.832727 291.085104 
L 80.358447 291.031357 
L 83.621307 291.053142 
L 85.252736 291.006508 
L 86.884166 291.116084 
L 90.147026 291.066057 
L 98.304175 291.046356 
L 103.198465 291.027965 
L 104.829895 291.091234 
L 106.461325 290.980676 
L 109.724185 291.122869 
L 112.987044 291.084776 
L 116.249904 290.977611 
L 117.881334 291.097692 
L 119.512764 291.053469 
L 121.144194 291.135785 
L 124.407053 291.00005 
L 126.038483 290.91193 
L 130.932773 291.090907 
L 135.827063 290.999395 
L 137.458492 290.933387 
L 139.089922 291.079301 
L 140.721352 291.110281 
L 142.352782 290.949041 
L 143.984212 291.132065 
L 145.615642 290.961957 
L 147.247072 291.125607 
L 150.509931 291.109953 
L 157.035651 291.006835 
L 158.667081 291.141916 
L 161.929941 291.078319 
L 163.56137 291.150784 
L 165.1928 291.003442 
L 168.45566 291.091234 
L 170.08709 290.990527 
L 171.71852 291.075908 
L 174.98138 291.025227 
L 176.61281 291.097365 
L 179.875669 290.940173 
L 181.507099 291.138523 
L 183.138529 291.021834 
L 184.769959 291.132065 
L 188.032819 290.955499 
L 189.664249 291.10415 
L 191.295678 291.100758 
L 192.927108 290.974873 
L 197.821398 291.091562 
L 199.452828 284.314744 
L 201.084258 284.342812 
L 202.715688 289.36012 
L 204.347117 283.901278 
L 205.978547 285.406045 
L 207.609977 288.771151 
L 209.241407 286.446258 
L 210.872837 285.682909 
L 212.504267 287.334921 
L 214.135697 286.636034 
L 215.767127 288.161886 
L 217.398556 286.666901 
L 219.029986 287.667748 
L 220.661416 286.533607 
L 222.292846 288.347618 
L 223.924276 283.228154 
L 225.555706 274.154947 
L 227.187136 289.13649 
L 228.818566 285.155565 
L 230.449995 285.352941 
L 232.081425 291.129 
L 233.712855 286.97166 
L 235.344285 279.202689 
L 236.975715 289.129597 
L 238.607145 283.971548 
L 240.238575 279.236446 
L 241.870005 288.92522 
L 243.501434 284.255431 
L 245.132864 283.234261 
L 246.764294 287.306953 
L 248.395724 286.486307 
L 250.027154 285.172179 
L 251.658584 290.737424 
L 253.290014 284.825732 
L 254.921444 276.902598 
L 256.552873 284.886519 
L 258.184303 284.917295 
L 261.447163 285.826464 
L 263.078593 285.801102 
L 264.710023 286.036715 
L 266.341453 284.967902 
L 267.972883 284.55986 
L 269.604312 287.986997 
L 271.235742 289.295741 
L 272.867172 288.928287 
L 274.498602 275.759709 
L 276.130032 276.273703 
L 277.761462 275.067011 
L 279.392892 271.742534 
L 281.024322 271.185506 
L 282.655751 262.173479 
L 284.287181 271.352553 
L 285.918611 281.766051 
L 287.550041 281.777248 
L 289.181471 277.51788 
L 290.812901 266.560778 
L 292.444331 271.056395 
L 294.075761 273.954117 
L 295.70719 278.304526 
L 297.33862 270.789487 
L 298.97005 280.537865 
L 300.60148 272.749946 
L 302.23291 281.112817 
L 303.86434 282.652452 
L 305.49577 273.874816 
L 307.1272 279.799135 
L 308.75863 277.386993 
L 310.390059 271.527353 
L 312.021489 278.380761 
L 313.652919 257.922546 
L 315.284349 273.205819 
L 316.915779 276.687217 
L 318.547209 285.874622 
L 320.178639 273.841858 
L 321.810069 272.140237 
L 323.441498 273.227644 
L 325.072928 269.158077 
L 326.704358 272.223323 
L 328.335788 273.07585 
L 329.967218 274.872586 
L 331.598648 277.896768 
L 333.230078 279.897004 
L 334.861508 278.983495 
L 336.492937 282.181704 
L 338.124367 267.35887 
L 339.755797 274.634576 
L 341.387227 272.94163 
L 343.018657 275.334486 
L 344.650087 276.929091 
L 346.281517 274.531236 
L 347.912947 277.406932 
L 349.544376 278.144326 
L 351.175806 273.490078 
L 352.807236 280.965558 
L 354.438666 275.327692 
L 356.070096 274.254689 
L 357.701526 269.506673 
L 359.332956 283.529168 
L 360.964386 271.376752 
L 362.595815 283.243845 
L 364.227245 264.630362 
L 365.858675 279.591265 
L 367.490105 269.71874 
L 369.121535 254.378664 
L 370.752965 274.826869 
L 372.384395 279.977772 
L 374.015825 267.232461 
L 375.647254 266.705107 
L 377.278684 278.472746 
L 378.910114 277.906081 
L 380.541544 267.197526 
L 382.172974 275.809885 
L 383.804404 267.294533 
L 385.435834 272.95745 
L 387.067264 272.978399 
L 388.698693 250.849709 
L 390.330123 255.461629 
L 391.961553 242.170183 
L 393.592983 264.146037 
L 395.224413 260.241979 
L 396.855843 246.537375 
L 398.487273 276.978929 
L 398.487273 276.978929 
" style="fill:none;stroke:#2ca02c;stroke-linecap:square;stroke-width:0.75;"/>
   </g>
   <g id="patch_3">
    <path d="M 57.6 307.584 
L 57.6 41.472 
" style="fill:none;stroke:#000000;stroke-linecap:square;stroke-linejoin:miter;stroke-width:0.8;"/>
   </g>
   <g id="patch_4">
    <path d="M 414.72 307.584 
L 414.72 41.472 
" style="fill:none;stroke:#000000;stroke-linecap:square;stroke-linejoin:miter;stroke-width:0.8;"/>
   </g>
   <g id="patch_5">
    <path d="M 57.6 307.584 
L 414.72 307.584 
" style="fill:none;stroke:#000000;stroke-linecap:square;stroke-linejoin:miter;stroke-width:0.8;"/>
   </g>
   <g id="patch_6">
    <path d="M 57.6 41.472 
L 414.72 41.472 
" style="fill:none;stroke:#000000;stroke-linecap:square;stroke-linejoin:miter;stroke-width:0.8;"/>
   </g>
   <g id="legend_1">
    <g id="patch_7">
     <path d="M 338.234063 78.82825 
L 407.72 78.82825 
Q 409.72 78.82825 409.72 76.82825 
L 409.72 48.472 
Q 409.72 46.472 407.72 46.472 
L 338.234063 46.472 
Q 336.234063 46.472 336.234063 48.472 
L 336.234063 76.82825 
Q 336.234063 78.82825 338.234063 78.82825 
z
" style="fill:#ffffff;opacity:0.8;stroke:#cccccc;stroke-linejoin:miter;"/>
    </g>
    <g id="line2d_17">
     <path d="M 340.234063 54.570437 
L 360.234063 54.570437 
" style="fill:none;stroke:#1f77b4;stroke-linecap:square;stroke-width:0.25;"/>
    </g>
    <g id="line2d_18"/>
    <g id="text_15">
     <!-- median -->
     <defs>
      <path d="M 52 44.1875 
Q 55.375 50.25 60.0625 53.125 
Q 64.75 56 71.09375 56 
Q 79.640625 56 84.28125 50.015625 
Q 88.921875 44.046875 88.921875 33.015625 
L 88.921875 0 
L 79.890625 0 
L 79.890625 32.71875 
Q 79.890625 40.578125 77.09375 44.375 
Q 74.3125 48.1875 68.609375 48.1875 
Q 61.625 48.1875 57.5625 43.546875 
Q 53.515625 38.921875 53.515625 30.90625 
L 53.515625 0 
L 44.484375 0 
L 44.484375 32.71875 
Q 44.484375 40.625 41.703125 44.40625 
Q 38.921875 48.1875 33.109375 48.1875 
Q 26.21875 48.1875 22.15625 43.53125 
Q 18.109375 38.875 18.109375 30.90625 
L 18.109375 0 
L 9.078125 0 
L 9.078125 54.6875 
L 18.109375 54.6875 
L 18.109375 46.1875 
Q 21.1875 51.21875 25.484375 53.609375 
Q 29.78125 56 35.6875 56 
Q 41.65625 56 45.828125 52.96875 
Q 50 49.953125 52 44.1875 
z
" id="DejaVuSans-109"/>
      <path d="M 56.203125 29.59375 
L 56.203125 25.203125 
L 14.890625 25.203125 
Q 15.484375 15.921875 20.484375 11.0625 
Q 25.484375 6.203125 34.421875 6.203125 
Q 39.59375 6.203125 44.453125 7.46875 
Q 49.3125 8.734375 54.109375 11.28125 
L 54.109375 2.78125 
Q 49.265625 0.734375 44.1875 -0.34375 
Q 39.109375 -1.421875 33.890625 -1.421875 
Q 20.796875 -1.421875 13.15625 6.1875 
Q 5.515625 13.8125 5.515625 26.8125 
Q 5.515625 40.234375 12.765625 48.109375 
Q 20.015625 56 32.328125 56 
Q 43.359375 56 49.78125 48.890625 
Q 56.203125 41.796875 56.203125 29.59375 
z
M 47.21875 32.234375 
Q 47.125 39.59375 43.09375 43.984375 
Q 39.0625 48.390625 32.421875 48.390625 
Q 24.90625 48.390625 20.390625 44.140625 
Q 15.875 39.890625 15.1875 32.171875 
z
" id="DejaVuSans-101"/>
      <path d="M 45.40625 46.390625 
L 45.40625 75.984375 
L 54.390625 75.984375 
L 54.390625 0 
L 45.40625 0 
L 45.40625 8.203125 
Q 42.578125 3.328125 38.25 0.953125 
Q 33.9375 -1.421875 27.875 -1.421875 
Q 17.96875 -1.421875 11.734375 6.484375 
Q 5.515625 14.40625 5.515625 27.296875 
Q 5.515625 40.1875 11.734375 48.09375 
Q 17.96875 56 27.875 56 
Q 33.9375 56 38.25 53.625 
Q 42.578125 51.265625 45.40625 46.390625 
z
M 14.796875 27.296875 
Q 14.796875 17.390625 18.875 11.75 
Q 22.953125 6.109375 30.078125 6.109375 
Q 37.203125 6.109375 41.296875 11.75 
Q 45.40625 17.390625 45.40625 27.296875 
Q 45.40625 37.203125 41.296875 42.84375 
Q 37.203125 48.484375 30.078125 48.484375 
Q 22.953125 48.484375 18.875 42.84375 
Q 14.796875 37.203125 14.796875 27.296875 
z
" id="DejaVuSans-100"/>
      <path d="M 9.421875 54.6875 
L 18.40625 54.6875 
L 18.40625 0 
L 9.421875 0 
z
M 9.421875 75.984375 
L 18.40625 75.984375 
L 18.40625 64.59375 
L 9.421875 64.59375 
z
" id="DejaVuSans-105"/>
      <path d="M 34.28125 27.484375 
Q 23.390625 27.484375 19.1875 25 
Q 14.984375 22.515625 14.984375 16.5 
Q 14.984375 11.71875 18.140625 8.90625 
Q 21.296875 6.109375 26.703125 6.109375 
Q 34.1875 6.109375 38.703125 11.40625 
Q 43.21875 16.703125 43.21875 25.484375 
L 43.21875 27.484375 
z
M 52.203125 31.203125 
L 52.203125 0 
L 43.21875 0 
L 43.21875 8.296875 
Q 40.140625 3.328125 35.546875 0.953125 
Q 30.953125 -1.421875 24.3125 -1.421875 
Q 15.921875 -1.421875 10.953125 3.296875 
Q 6 8.015625 6 15.921875 
Q 6 25.140625 12.171875 29.828125 
Q 18.359375 34.515625 30.609375 34.515625 
L 43.21875 34.515625 
L 43.21875 35.40625 
Q 43.21875 41.609375 39.140625 45 
Q 35.0625 48.390625 27.6875 48.390625 
Q 23 48.390625 18.546875 47.265625 
Q 14.109375 46.140625 10.015625 43.890625 
L 10.015625 52.203125 
Q 14.9375 54.109375 19.578125 55.046875 
Q 24.21875 56 28.609375 56 
Q 40.484375 56 46.34375 49.84375 
Q 52.203125 43.703125 52.203125 31.203125 
z
" id="DejaVuSans-97"/>
      <path d="M 54.890625 33.015625 
L 54.890625 0 
L 45.90625 0 
L 45.90625 32.71875 
Q 45.90625 40.484375 42.875 44.328125 
Q 39.84375 48.1875 33.796875 48.1875 
Q 26.515625 48.1875 22.3125 43.546875 
Q 18.109375 38.921875 18.109375 30.90625 
L 18.109375 0 
L 9.078125 0 
L 9.078125 54.6875 
L 18.109375 54.6875 
L 18.109375 46.1875 
Q 21.34375 51.125 25.703125 53.5625 
Q 30.078125 56 35.796875 56 
Q 45.21875 56 50.046875 50.171875 
Q 54.890625 44.34375 54.890625 33.015625 
z
" id="DejaVuSans-110"/>
     </defs>
     <g transform="translate(368.234063 58.070437)scale(0.1 -0.1)">
      <use xlink:href="#DejaVuSans-109"/>
      <use x="97.412109" xlink:href="#DejaVuSans-101"/>
      <use x="158.935547" xlink:href="#DejaVuSans-100"/>
      <use x="222.412109" xlink:href="#DejaVuSans-105"/>
      <use x="250.195312" xlink:href="#DejaVuSans-97"/>
      <use x="311.474609" xlink:href="#DejaVuSans-110"/>
     </g>
    </g>
    <g id="line2d_19">
     <path d="M 340.234063 69.248562 
L 360.234063 69.248562 
" style="fill:none;stroke:#2ca02c;stroke-linecap:square;stroke-width:0.75;"/>
    </g>
    <g id="line2d_20"/>
    <g id="text_16">
     <!-- mean -->
     <g transform="translate(368.234063 72.748562)scale(0.1 -0.1)">
      <use xlink:href="#DejaVuSans-109"/>
      <use x="97.412109" xlink:href="#DejaVuSans-101"/>
      <use x="158.935547" xlink:href="#DejaVuSans-97"/>
      <use x="220.214844" xlink:href="#DejaVuSans-110"/>
     </g>
    </g>
   </g>
  </g>
  <g id="text_17">
   <!-- log_loss.mean over generations -->
   <defs>
    <path d="M 9.421875 75.984375 
L 18.40625 75.984375 
L 18.40625 0 
L 9.421875 0 
z
" id="DejaVuSans-108"/>
    <path d="M 30.609375 48.390625 
Q 23.390625 48.390625 19.1875 42.75 
Q 14.984375 37.109375 14.984375 27.296875 
Q 14.984375 17.484375 19.15625 11.84375 
Q 23.34375 6.203125 30.609375 6.203125 
Q 37.796875 6.203125 41.984375 11.859375 
Q 46.1875 17.53125 46.1875 27.296875 
Q 46.1875 37.015625 41.984375 42.703125 
Q 37.796875 48.390625 30.609375 48.390625 
z
M 30.609375 56 
Q 42.328125 56 49.015625 48.375 
Q 55.71875 40.765625 55.71875 27.296875 
Q 55.71875 13.875 49.015625 6.21875 
Q 42.328125 -1.421875 30.609375 -1.421875 
Q 18.84375 -1.421875 12.171875 6.21875 
Q 5.515625 13.875 5.515625 27.296875 
Q 5.515625 40.765625 12.171875 48.375 
Q 18.84375 56 30.609375 56 
z
" id="DejaVuSans-111"/>
    <path d="M 45.40625 27.984375 
Q 45.40625 37.75 41.375 43.109375 
Q 37.359375 48.484375 30.078125 48.484375 
Q 22.859375 48.484375 18.828125 43.109375 
Q 14.796875 37.75 14.796875 27.984375 
Q 14.796875 18.265625 18.828125 12.890625 
Q 22.859375 7.515625 30.078125 7.515625 
Q 37.359375 7.515625 41.375 12.890625 
Q 45.40625 18.265625 45.40625 27.984375 
z
M 54.390625 6.78125 
Q 54.390625 -7.171875 48.1875 -13.984375 
Q 42 -20.796875 29.203125 -20.796875 
Q 24.46875 -20.796875 20.265625 -20.09375 
Q 16.0625 -19.390625 12.109375 -17.921875 
L 12.109375 -9.1875 
Q 16.0625 -11.328125 19.921875 -12.34375 
Q 23.78125 -13.375 27.78125 -13.375 
Q 36.625 -13.375 41.015625 -8.765625 
Q 45.40625 -4.15625 45.40625 5.171875 
L 45.40625 9.625 
Q 42.625 4.78125 38.28125 2.390625 
Q 33.9375 0 27.875 0 
Q 17.828125 0 11.671875 7.65625 
Q 5.515625 15.328125 5.515625 27.984375 
Q 5.515625 40.671875 11.671875 48.328125 
Q 17.828125 56 27.875 56 
Q 33.9375 56 38.28125 53.609375 
Q 42.625 51.21875 45.40625 46.390625 
L 45.40625 54.6875 
L 54.390625 54.6875 
z
" id="DejaVuSans-103"/>
    <path d="M 50.984375 -16.609375 
L 50.984375 -23.578125 
L -0.984375 -23.578125 
L -0.984375 -16.609375 
z
" id="DejaVuSans-95"/>
    <path d="M 44.28125 53.078125 
L 44.28125 44.578125 
Q 40.484375 46.53125 36.375 47.5 
Q 32.28125 48.484375 27.875 48.484375 
Q 21.1875 48.484375 17.84375 46.4375 
Q 14.5 44.390625 14.5 40.28125 
Q 14.5 37.15625 16.890625 35.375 
Q 19.28125 33.59375 26.515625 31.984375 
L 29.59375 31.296875 
Q 39.15625 29.25 43.1875 25.515625 
Q 47.21875 21.78125 47.21875 15.09375 
Q 47.21875 7.46875 41.1875 3.015625 
Q 35.15625 -1.421875 24.609375 -1.421875 
Q 20.21875 -1.421875 15.453125 -0.5625 
Q 10.6875 0.296875 5.421875 2 
L 5.421875 11.28125 
Q 10.40625 8.6875 15.234375 7.390625 
Q 20.0625 6.109375 24.8125 6.109375 
Q 31.15625 6.109375 34.5625 8.28125 
Q 37.984375 10.453125 37.984375 14.40625 
Q 37.984375 18.0625 35.515625 20.015625 
Q 33.0625 21.96875 24.703125 23.78125 
L 21.578125 24.515625 
Q 13.234375 26.265625 9.515625 29.90625 
Q 5.8125 33.546875 5.8125 39.890625 
Q 5.8125 47.609375 11.28125 51.796875 
Q 16.75 56 26.8125 56 
Q 31.78125 56 36.171875 55.265625 
Q 40.578125 54.546875 44.28125 53.078125 
z
" id="DejaVuSans-115"/>
    <path d="M 10.6875 12.40625 
L 21 12.40625 
L 21 0 
L 10.6875 0 
z
" id="DejaVuSans-46"/>
    <path id="DejaVuSans-32"/>
    <path d="M 2.984375 54.6875 
L 12.5 54.6875 
L 29.59375 8.796875 
L 46.6875 54.6875 
L 56.203125 54.6875 
L 35.6875 0 
L 23.484375 0 
z
" id="DejaVuSans-118"/>
    <path d="M 41.109375 46.296875 
Q 39.59375 47.171875 37.8125 47.578125 
Q 36.03125 48 33.890625 48 
Q 26.265625 48 22.1875 43.046875 
Q 18.109375 38.09375 18.109375 28.8125 
L 18.109375 0 
L 9.078125 0 
L 9.078125 54.6875 
L 18.109375 54.6875 
L 18.109375 46.1875 
Q 20.953125 51.171875 25.484375 53.578125 
Q 30.03125 56 36.53125 56 
Q 37.453125 56 38.578125 55.875 
Q 39.703125 55.765625 41.0625 55.515625 
z
" id="DejaVuSans-114"/>
    <path d="M 18.3125 70.21875 
L 18.3125 54.6875 
L 36.8125 54.6875 
L 36.8125 47.703125 
L 18.3125 47.703125 
L 18.3125 18.015625 
Q 18.3125 11.328125 20.140625 9.421875 
Q 21.96875 7.515625 27.59375 7.515625 
L 36.8125 7.515625 
L 36.8125 0 
L 27.59375 0 
Q 17.1875 0 13.234375 3.875 
Q 9.28125 7.765625 9.28125 18.015625 
L 9.28125 47.703125 
L 2.6875 47.703125 
L 2.6875 54.6875 
L 9.28125 54.6875 
L 9.28125 70.21875 
z
" id="DejaVuSans-116"/>
   </defs>
   <g transform="translate(134.789062 16.030125)scale(0.12 -0.12)">
    <use xlink:href="#DejaVuSans-108"/>
    <use x="27.783203" xlink:href="#DejaVuSans-111"/>
    <use x="88.964844" xlink:href="#DejaVuSans-103"/>
    <use x="152.441406" xlink:href="#DejaVuSans-95"/>
    <use x="202.441406" xlink:href="#DejaVuSans-108"/>
    <use x="230.224609" xlink:href="#DejaVuSans-111"/>
    <use x="291.40625" xlink:href="#DejaVuSans-115"/>
    <use x="343.505859" xlink:href="#DejaVuSans-115"/>
    <use x="395.605469" xlink:href="#DejaVuSans-46"/>
    <use x="427.392578" xlink:href="#DejaVuSans-109"/>
    <use x="524.804688" xlink:href="#DejaVuSans-101"/>
    <use x="586.328125" xlink:href="#DejaVuSans-97"/>
    <use x="647.607422" xlink:href="#DejaVuSans-110"/>
    <use x="710.986328" xlink:href="#DejaVuSans-32"/>
    <use x="742.773438" xlink:href="#DejaVuSans-111"/>
    <use x="803.955078" xlink:href="#DejaVuSans-118"/>
    <use x="863.134766" xlink:href="#DejaVuSans-101"/>
    <use x="924.658203" xlink:href="#DejaVuSans-114"/>
    <use x="965.771484" xlink:href="#DejaVuSans-32"/>
    <use x="997.558594" xlink:href="#DejaVuSans-103"/>
    <use x="1061.035156" xlink:href="#DejaVuSans-101"/>
    <use x="1122.558594" xlink:href="#DejaVuSans-110"/>
    <use x="1185.9375" xlink:href="#DejaVuSans-101"/>
    <use x="1247.460938" xlink:href="#DejaVuSans-114"/>
    <use x="1288.574219" xlink:href="#DejaVuSans-97"/>
    <use x="1349.853516" xlink:href="#DejaVuSans-116"/>
    <use x="1389.0625" xlink:href="#DejaVuSans-105"/>
    <use x="1416.845703" xlink:href="#DejaVuSans-111"/>
    <use x="1478.027344" xlink:href="#DejaVuSans-110"/>
    <use x="1541.40625" xlink:href="#DejaVuSans-115"/>
   </g>
  </g>
 </g>
 <defs>
  <clipPath id="p53eab7fe36">
   <rect height="266.112" width="357.12" x="57.6" y="41.472"/>
  </clipPath>
 </defs>
</svg>
