<?xml version="1.0" encoding="utf-8" standalone="no"?>
<!DOCTYPE svg PUBLIC "-//W3C//DTD SVG 1.1//EN"
  "http://www.w3.org/Graphics/SVG/1.1/DTD/svg11.dtd">
<!-- Created with matplotlib (https://matplotlib.org/) -->
<svg height="345.6pt" version="1.1" viewBox="0 0 460.8 345.6" width="460.8pt" xmlns="http://www.w3.org/2000/svg" xmlns:xlink="http://www.w3.org/1999/xlink">
 <defs>
  <style type="text/css">
*{stroke-linecap:butt;stroke-linejoin:round;}
  </style>
 </defs>
 <g id="figure_1">
  <g id="patch_1">
   <path d="M 0 345.6 
L 460.8 345.6 
L 460.8 0 
L 0 0 
z
" style="fill:#ffffff;"/>
  </g>
  <g id="axes_1">
   <g id="patch_2">
    <path d="M 57.6 307.584 
L 414.72 307.584 
L 414.72 41.472 
L 57.6 41.472 
z
" style="fill:#ffffff;"/>
   </g>
   <g id="PolyCollection_1">
    <path clip-path="url(#pa048b3fb01)" d="M 73.832727 211.563506 
L 73.832727 211.563506 
L 75.464157 211.563506 
L 77.095587 211.563506 
L 78.727017 211.563506 
L 80.358447 211.563506 
L 81.989877 211.563506 
L 83.621307 211.563506 
L 85.252736 211.563506 
L 86.884166 211.563506 
L 88.515596 211.563506 
L 90.147026 211.563506 
L 91.778456 211.563506 
L 93.409886 211.563506 
L 95.041316 211.563506 
L 96.672746 211.563506 
L 98.304175 211.563506 
L 99.935605 211.563506 
L 101.567035 211.563506 
L 103.198465 211.563506 
L 104.829895 211.563506 
L 106.461325 211.563506 
L 108.092755 211.563506 
L 109.724185 211.563506 
L 111.355614 211.563506 
L 112.987044 211.563506 
L 114.618474 211.563506 
L 116.249904 211.563506 
L 117.881334 211.563506 
L 119.512764 211.563506 
L 121.144194 211.563506 
L 122.775624 211.563506 
L 124.407053 211.563506 
L 126.038483 211.563506 
L 127.669913 211.563506 
L 129.301343 211.563506 
L 130.932773 211.563506 
L 132.564203 211.563506 
L 134.195633 211.563506 
L 135.827063 211.563506 
L 137.458492 211.563506 
L 139.089922 211.563506 
L 140.721352 211.563506 
L 142.352782 211.563506 
L 143.984212 211.563506 
L 145.615642 211.563506 
L 147.247072 211.563506 
L 148.878502 211.563506 
L 150.509931 211.563506 
L 152.141361 211.563506 
L 153.772791 211.563506 
L 155.404221 211.563506 
L 157.035651 211.563506 
L 158.667081 211.563506 
L 160.298511 211.563506 
L 161.929941 211.563506 
L 163.56137 211.563506 
L 165.1928 211.563506 
L 166.82423 211.563506 
L 168.45566 211.563506 
L 170.08709 211.563506 
L 171.71852 211.563506 
L 173.34995 211.563506 
L 174.98138 211.563506 
L 176.61281 211.563506 
L 178.244239 211.563506 
L 179.875669 211.563506 
L 181.507099 211.563506 
L 183.138529 211.563506 
L 184.769959 211.563506 
L 186.401389 211.563506 
L 188.032819 211.563506 
L 189.664249 211.563506 
L 191.295678 211.563506 
L 192.927108 211.563506 
L 194.558538 211.563506 
L 196.189968 211.563506 
L 197.821398 211.563506 
L 199.452828 211.563506 
L 201.084258 211.563506 
L 202.715688 211.563506 
L 204.347117 211.563506 
L 205.978547 211.563506 
L 207.609977 211.563506 
L 209.241407 211.563506 
L 210.872837 211.563506 
L 212.504267 211.563506 
L 214.135697 211.563506 
L 215.767127 211.563506 
L 217.398556 211.563506 
L 219.029986 211.563506 
L 220.661416 211.563506 
L 222.292846 211.563506 
L 223.924276 211.563506 
L 225.555706 211.563506 
L 227.187136 211.563506 
L 228.818566 211.563506 
L 230.449995 211.563506 
L 232.081425 211.563506 
L 233.712855 211.563506 
L 235.344285 211.563506 
L 236.975715 211.563506 
L 238.607145 211.563506 
L 240.238575 211.563506 
L 241.870005 211.563506 
L 243.501434 211.563506 
L 245.132864 211.563506 
L 246.764294 211.563506 
L 248.395724 211.563506 
L 250.027154 211.563506 
L 251.658584 211.563506 
L 253.290014 211.563506 
L 254.921444 211.563506 
L 256.552873 211.563506 
L 258.184303 211.563506 
L 259.815733 211.563506 
L 261.447163 211.563506 
L 263.078593 211.563506 
L 264.710023 211.563506 
L 266.341453 211.563506 
L 267.972883 211.563506 
L 269.604312 211.563506 
L 271.235742 211.563506 
L 272.867172 211.563506 
L 274.498602 211.563506 
L 276.130032 205.787326 
L 277.761462 210.968899 
L 279.392892 211.563506 
L 281.024322 211.563506 
L 282.655751 211.563506 
L 284.287181 211.22373 
L 285.918611 211.22373 
L 287.550041 211.563506 
L 289.181471 211.563506 
L 290.812901 200.011146 
L 292.444331 211.563506 
L 294.075761 211.563506 
L 295.70719 211.563506 
L 297.33862 210.289348 
L 298.97005 211.563506 
L 300.60148 207.231371 
L 302.23291 203.154067 
L 303.86434 210.204404 
L 305.49577 211.563506 
L 307.1272 211.563506 
L 308.75863 211.563506 
L 310.390059 202.219685 
L 312.021489 197.632719 
L 313.652919 209.864629 
L 315.284349 209.524854 
L 316.915779 206.466876 
L 318.547209 182.713331 
L 320.178639 201.370247 
L 321.810069 193.555416 
L 323.441498 200.011146 
L 325.072928 197.632719 
L 326.704358 200.011146 
L 328.335788 198.31227 
L 329.967218 198.142382 
L 331.598648 209.864629 
L 333.230078 209.864629 
L 334.861508 197.038112 
L 336.492937 182.379445 
L 338.124367 183.362157 
L 339.755797 200.011146 
L 341.387227 179.84047 
L 343.018657 197.632719 
L 344.650087 181.068674 
L 346.281517 181.493393 
L 347.912947 194.574742 
L 349.544376 186.165303 
L 351.175806 209.864629 
L 352.807236 183.389639 
L 354.438666 196.613393 
L 356.070096 170.210151 
L 357.701526 173.508674 
L 359.332956 181.92236 
L 360.964386 191.601708 
L 362.595815 204.768 
L 364.227245 211.563506 
L 365.858675 181.389449 
L 367.490105 175.887101 
L 369.121535 181.138061 
L 370.752965 203.069124 
L 372.384395 191.176989 
L 374.015825 209.864629 
L 375.647254 194.914517 
L 377.278684 211.563506 
L 378.910114 182.892944 
L 380.541544 183.362157 
L 382.172974 179.913438 
L 383.804404 200.945528 
L 385.435834 187.779236 
L 387.067264 188.119011 
L 388.698693 202.219685 
L 390.330123 176.061236 
L 391.961553 175.887101 
L 393.592983 190.157663 
L 395.224413 197.038112 
L 396.855843 182.147014 
L 398.487273 204.768 
L 398.487273 71.57609 
L 398.487273 71.57609 
L 396.855843 101.136539 
L 395.224413 109.970697 
L 393.592983 95.36036 
L 391.961553 127.214292 
L 390.330123 116.766202 
L 388.698693 77.776989 
L 387.067264 94.001258 
L 385.435834 92.981933 
L 383.804404 110.48036 
L 382.172974 120.50373 
L 380.541544 67.059295 
L 378.910114 122.457438 
L 377.278684 124.618987 
L 375.647254 84.487551 
L 374.015825 128.488449 
L 372.384395 142.249348 
L 370.752965 116.426427 
L 369.121535 130.866876 
L 367.490105 122.882157 
L 365.858675 100.590472 
L 364.227245 89.146719 
L 362.595815 75.14373 
L 360.964386 117.886542 
L 359.332956 83.05564 
L 357.701526 76.927551 
L 356.070096 79.051146 
L 354.438666 74.294292 
L 352.807236 77.267326 
L 351.175806 100.117213 
L 349.544376 143.608449 
L 347.912947 136.473169 
L 346.281517 137.492494 
L 344.650087 105.043955 
L 343.018657 128.06373 
L 341.387227 121.489079 
L 339.755797 124.241258 
L 338.124367 145.307326 
L 336.492937 133.075416 
L 334.861508 158.898337 
L 333.230078 130.152576 
L 331.598648 135.712535 
L 329.967218 133.754966 
L 328.335788 101.81609 
L 326.704358 137.747326 
L 325.072928 129.00236 
L 323.441498 127.214292 
L 321.810069 94.341034 
L 320.178639 132.650697 
L 318.547209 132.990472 
L 316.915779 127.893843 
L 315.284349 155.075865 
L 313.652919 127.639011 
L 312.021489 128.318562 
L 310.390059 137.83227 
L 308.75863 150.74373 
L 307.1272 161.276764 
L 305.49577 170.715953 
L 303.86434 170.527146 
L 302.23291 139.777888 
L 300.60148 136.133393 
L 298.97005 139.870921 
L 297.33862 183.38814 
L 295.70719 171.130247 
L 294.075761 168.75182 
L 292.444331 183.362157 
L 290.812901 141.569798 
L 289.181471 159.238112 
L 287.550041 177.925753 
L 285.918611 168.412045 
L 284.287181 170.550313 
L 282.655751 204.768 
L 281.024322 188.458787 
L 279.392892 165.354067 
L 277.761462 189.817888 
L 276.130032 188.119011 
L 274.498602 195.933843 
L 272.867172 199.926202 
L 271.235742 208.165753 
L 269.604312 211.563506 
L 267.972883 204.768 
L 266.341453 211.563506 
L 264.710023 211.563506 
L 263.078593 211.563506 
L 261.447163 211.563506 
L 259.815733 211.563506 
L 258.184303 211.563506 
L 256.552873 211.563506 
L 254.921444 211.563506 
L 253.290014 211.563506 
L 251.658584 211.563506 
L 250.027154 211.563506 
L 248.395724 211.563506 
L 246.764294 211.563506 
L 245.132864 211.563506 
L 243.501434 211.563506 
L 241.870005 211.563506 
L 240.238575 211.563506 
L 238.607145 211.563506 
L 236.975715 211.563506 
L 235.344285 211.563506 
L 233.712855 211.563506 
L 232.081425 211.563506 
L 230.449995 211.563506 
L 228.818566 211.563506 
L 227.187136 211.563506 
L 225.555706 211.563506 
L 223.924276 211.563506 
L 222.292846 211.563506 
L 220.661416 211.563506 
L 219.029986 211.563506 
L 217.398556 211.563506 
L 215.767127 211.563506 
L 214.135697 211.563506 
L 212.504267 211.563506 
L 210.872837 211.563506 
L 209.241407 211.563506 
L 207.609977 211.563506 
L 205.978547 211.563506 
L 204.347117 211.563506 
L 202.715688 211.563506 
L 201.084258 211.563506 
L 199.452828 211.563506 
L 197.821398 211.563506 
L 196.189968 211.563506 
L 194.558538 211.563506 
L 192.927108 211.563506 
L 191.295678 211.563506 
L 189.664249 211.563506 
L 188.032819 211.563506 
L 186.401389 211.563506 
L 184.769959 211.563506 
L 183.138529 211.563506 
L 181.507099 211.563506 
L 179.875669 211.563506 
L 178.244239 211.563506 
L 176.61281 211.563506 
L 174.98138 211.563506 
L 173.34995 211.563506 
L 171.71852 211.563506 
L 170.08709 211.563506 
L 168.45566 211.563506 
L 166.82423 211.563506 
L 165.1928 211.563506 
L 163.56137 211.563506 
L 161.929941 211.563506 
L 160.298511 211.563506 
L 158.667081 211.563506 
L 157.035651 211.563506 
L 155.404221 211.563506 
L 153.772791 211.563506 
L 152.141361 211.563506 
L 150.509931 211.563506 
L 148.878502 211.563506 
L 147.247072 211.563506 
L 145.615642 211.563506 
L 143.984212 211.563506 
L 142.352782 211.563506 
L 140.721352 211.563506 
L 139.089922 211.563506 
L 137.458492 211.563506 
L 135.827063 211.563506 
L 134.195633 211.563506 
L 132.564203 211.563506 
L 130.932773 211.563506 
L 129.301343 211.563506 
L 127.669913 211.563506 
L 126.038483 211.563506 
L 124.407053 211.563506 
L 122.775624 211.563506 
L 121.144194 211.563506 
L 119.512764 211.563506 
L 117.881334 211.563506 
L 116.249904 211.563506 
L 114.618474 211.563506 
L 112.987044 211.563506 
L 111.355614 211.563506 
L 109.724185 211.563506 
L 108.092755 211.563506 
L 106.461325 211.563506 
L 104.829895 211.563506 
L 103.198465 211.563506 
L 101.567035 211.563506 
L 99.935605 211.563506 
L 98.304175 211.563506 
L 96.672746 211.563506 
L 95.041316 211.563506 
L 93.409886 211.563506 
L 91.778456 211.563506 
L 90.147026 211.563506 
L 88.515596 211.563506 
L 86.884166 211.563506 
L 85.252736 211.563506 
L 83.621307 211.563506 
L 81.989877 211.563506 
L 80.358447 211.563506 
L 78.727017 211.563506 
L 77.095587 211.563506 
L 75.464157 211.563506 
L 73.832727 211.563506 
z
" style="fill:#1f77b4;fill-opacity:0.2;"/>
   </g>
   <g id="PolyCollection_2">
    <path clip-path="url(#pa048b3fb01)" d="M 73.832727 211.563506 
L 73.832727 211.563506 
L 75.464157 211.563506 
L 77.095587 211.563506 
L 78.727017 211.563506 
L 80.358447 211.563506 
L 81.989877 211.563506 
L 83.621307 211.563506 
L 85.252736 211.563506 
L 86.884166 211.563506 
L 88.515596 211.563506 
L 90.147026 211.563506 
L 91.778456 211.563506 
L 93.409886 211.563506 
L 95.041316 211.563506 
L 96.672746 211.563506 
L 98.304175 211.563506 
L 99.935605 211.563506 
L 101.567035 211.563506 
L 103.198465 211.563506 
L 104.829895 211.563506 
L 106.461325 211.563506 
L 108.092755 211.563506 
L 109.724185 211.563506 
L 111.355614 211.563506 
L 112.987044 211.563506 
L 114.618474 211.563506 
L 116.249904 211.563506 
L 117.881334 211.563506 
L 119.512764 211.563506 
L 121.144194 211.563506 
L 122.775624 211.563506 
L 124.407053 211.563506 
L 126.038483 211.563506 
L 127.669913 211.563506 
L 129.301343 211.563506 
L 130.932773 211.563506 
L 132.564203 211.563506 
L 134.195633 211.563506 
L 135.827063 211.563506 
L 137.458492 211.563506 
L 139.089922 211.563506 
L 140.721352 211.563506 
L 142.352782 211.563506 
L 143.984212 211.563506 
L 145.615642 211.563506 
L 147.247072 211.563506 
L 148.878502 211.563506 
L 150.509931 211.563506 
L 152.141361 211.563506 
L 153.772791 211.563506 
L 155.404221 211.563506 
L 157.035651 211.563506 
L 158.667081 211.563506 
L 160.298511 211.563506 
L 161.929941 211.563506 
L 163.56137 211.563506 
L 165.1928 211.563506 
L 166.82423 211.563506 
L 168.45566 211.563506 
L 170.08709 211.563506 
L 171.71852 211.563506 
L 173.34995 211.563506 
L 174.98138 211.563506 
L 176.61281 211.563506 
L 178.244239 211.563506 
L 179.875669 211.563506 
L 181.507099 211.563506 
L 183.138529 211.563506 
L 184.769959 211.563506 
L 186.401389 211.563506 
L 188.032819 211.563506 
L 189.664249 211.563506 
L 191.295678 211.563506 
L 192.927108 211.563506 
L 194.558538 211.563506 
L 196.189968 211.563506 
L 197.821398 211.563506 
L 199.452828 211.563506 
L 201.084258 211.563506 
L 202.715688 211.563506 
L 204.347117 211.563506 
L 205.978547 211.563506 
L 207.609977 211.563506 
L 209.241407 211.563506 
L 210.872837 211.563506 
L 212.504267 211.563506 
L 214.135697 211.563506 
L 215.767127 211.563506 
L 217.398556 211.563506 
L 219.029986 211.563506 
L 220.661416 211.563506 
L 222.292846 211.563506 
L 223.924276 211.563506 
L 225.555706 211.563506 
L 227.187136 211.563506 
L 228.818566 211.563506 
L 230.449995 211.563506 
L 232.081425 211.563506 
L 233.712855 211.563506 
L 235.344285 211.563506 
L 236.975715 211.563506 
L 238.607145 211.563506 
L 240.238575 211.563506 
L 241.870005 211.563506 
L 243.501434 211.563506 
L 245.132864 211.563506 
L 246.764294 211.563506 
L 248.395724 211.563506 
L 250.027154 211.563506 
L 251.658584 211.563506 
L 253.290014 211.563506 
L 254.921444 211.563506 
L 256.552873 211.563506 
L 258.184303 211.563506 
L 259.815733 211.563506 
L 261.447163 262.190022 
L 263.078593 261.170697 
L 264.710023 287.333393 
L 266.341453 289.03227 
L 267.972883 292.430022 
L 269.604312 290.731146 
L 271.235742 211.563506 
L 272.867172 216.32036 
L 274.498602 211.563506 
L 276.130032 283.25609 
L 277.761462 273.062831 
L 279.392892 289.372045 
L 281.024322 242.143281 
L 282.655751 213.602157 
L 284.287181 271.70373 
L 285.918611 259.47182 
L 287.550041 211.563506 
L 289.181471 255.394517 
L 290.812901 211.563506 
L 292.444331 295.488 
L 294.075761 277.140135 
L 295.70719 279.858337 
L 297.33862 278.499236 
L 298.97005 262.869573 
L 300.60148 278.159461 
L 302.23291 252.676315 
L 303.86434 211.563506 
L 305.49577 278.499236 
L 307.1272 260.151371 
L 308.75863 242.822831 
L 310.390059 223.115865 
L 312.021489 222.096539 
L 313.652919 216.32036 
L 315.284349 211.563506 
L 316.915779 212.582831 
L 318.547209 211.563506 
L 320.178639 213.602157 
L 321.810069 211.563506 
L 323.441498 211.563506 
L 325.072928 211.563506 
L 326.704358 217.339685 
L 328.335788 211.563506 
L 329.967218 211.563506 
L 331.598648 216.32036 
L 333.230078 214.281708 
L 334.861508 211.563506 
L 336.492937 263.209348 
L 338.124367 215.997573 
L 339.755797 217.339685 
L 341.387227 213.602157 
L 343.018657 211.563506 
L 344.650087 217.339685 
L 346.281517 211.563506 
L 347.912947 218.359011 
L 349.544376 211.563506 
L 351.175806 211.563506 
L 352.807236 211.563506 
L 354.438666 222.096539 
L 356.070096 211.563506 
L 357.701526 211.563506 
L 359.332956 255.394517 
L 360.964386 211.563506 
L 362.595815 211.563506 
L 364.227245 211.563506 
L 365.858675 211.563506 
L 367.490105 241.803506 
L 369.121535 211.563506 
L 370.752965 211.563506 
L 372.384395 211.563506 
L 374.015825 221.077213 
L 375.647254 216.32036 
L 377.278684 211.563506 
L 378.910114 211.563506 
L 380.541544 217.339685 
L 382.172974 223.115865 
L 383.804404 211.563506 
L 385.435834 211.563506 
L 387.067264 211.563506 
L 388.698693 216.32036 
L 390.330123 211.563506 
L 391.961553 217.339685 
L 393.592983 217.339685 
L 395.224413 211.563506 
L 396.855843 219.378337 
L 398.487273 211.563506 
L 398.487273 55.266876 
L 398.487273 55.266876 
L 396.855843 58.293965 
L 395.224413 57.87182 
L 393.592983 57.96809 
L 391.961553 62.402157 
L 390.330123 62.596315 
L 388.698693 55.266876 
L 387.067264 57.305528 
L 385.435834 61.988518 
L 383.804404 56.286202 
L 382.172974 61.981483 
L 380.541544 56.965753 
L 378.910114 60.329528 
L 377.278684 67.110472 
L 375.647254 56.965753 
L 374.015825 67.532764 
L 372.384395 88.176539 
L 370.752965 65.79991 
L 369.121535 81.73846 
L 367.490105 80.474966 
L 365.858675 79.560809 
L 364.227245 70.556764 
L 362.595815 53.568 
L 360.964386 79.282811 
L 359.332956 73.614742 
L 357.701526 61.722607 
L 356.070096 61.043056 
L 354.438666 60.363506 
L 352.807236 56.965753 
L 351.175806 70.896539 
L 349.544376 64.101034 
L 347.912947 73.869573 
L 346.281517 73.230648 
L 344.650087 70.896539 
L 343.018657 67.498787 
L 341.387227 69.197663 
L 339.755797 69.197663 
L 338.124367 73.954517 
L 336.492937 73.76764 
L 334.861508 77.287551 
L 333.230078 78.133753 
L 331.598648 70.556764 
L 329.967218 82.77609 
L 328.335788 62.741933 
L 326.704358 60.363506 
L 325.072928 67.822382 
L 323.441498 67.600719 
L 321.810069 76.300584 
L 320.178639 75.857258 
L 318.547209 82.194067 
L 316.915779 78.371595 
L 315.284349 87.011595 
L 313.652919 79.730697 
L 312.021489 87.406529 
L 310.390059 87.254292 
L 308.75863 87.188764 
L 307.1272 87.732404 
L 305.49577 101.692535 
L 303.86434 101.07182 
L 302.23291 100.338067 
L 300.60148 103.362067 
L 298.97005 124.36018 
L 297.33862 122.321528 
L 295.70719 129.337888 
L 294.075761 129.337888 
L 292.444331 131.954157 
L 290.812901 141.569798 
L 289.181471 159.238112 
L 287.550041 170.358031 
L 285.918611 163.315416 
L 284.287181 151.083506 
L 282.655751 171.470022 
L 281.024322 169.890067 
L 279.392892 131.376539 
L 277.761462 126.619685 
L 276.130032 126.619685 
L 274.498602 127.747122 
L 272.867172 127.73609 
L 271.235742 127.723955 
L 269.604312 127.774921 
L 267.972883 171.130247 
L 266.341453 192.273536 
L 264.710023 188.458787 
L 263.078593 192.247281 
L 261.447163 211.563506 
L 259.815733 211.563506 
L 258.184303 211.563506 
L 256.552873 211.563506 
L 254.921444 211.563506 
L 253.290014 211.563506 
L 251.658584 211.563506 
L 250.027154 211.563506 
L 248.395724 211.563506 
L 246.764294 211.563506 
L 245.132864 211.563506 
L 243.501434 211.563506 
L 241.870005 211.563506 
L 240.238575 211.563506 
L 238.607145 211.563506 
L 236.975715 211.563506 
L 235.344285 211.563506 
L 233.712855 211.563506 
L 232.081425 211.563506 
L 230.449995 211.563506 
L 228.818566 211.563506 
L 227.187136 211.563506 
L 225.555706 211.563506 
L 223.924276 211.563506 
L 222.292846 211.563506 
L 220.661416 211.563506 
L 219.029986 211.563506 
L 217.398556 211.563506 
L 215.767127 211.563506 
L 214.135697 211.563506 
L 212.504267 211.563506 
L 210.872837 211.563506 
L 209.241407 211.563506 
L 207.609977 211.563506 
L 205.978547 211.563506 
L 204.347117 211.563506 
L 202.715688 211.563506 
L 201.084258 211.563506 
L 199.452828 211.563506 
L 197.821398 211.563506 
L 196.189968 211.563506 
L 194.558538 211.563506 
L 192.927108 211.563506 
L 191.295678 211.563506 
L 189.664249 211.563506 
L 188.032819 211.563506 
L 186.401389 211.563506 
L 184.769959 211.563506 
L 183.138529 211.563506 
L 181.507099 211.563506 
L 179.875669 211.563506 
L 178.244239 211.563506 
L 176.61281 211.563506 
L 174.98138 211.563506 
L 173.34995 211.563506 
L 171.71852 211.563506 
L 170.08709 211.563506 
L 168.45566 211.563506 
L 166.82423 211.563506 
L 165.1928 211.563506 
L 163.56137 211.563506 
L 161.929941 211.563506 
L 160.298511 211.563506 
L 158.667081 211.563506 
L 157.035651 211.563506 
L 155.404221 211.563506 
L 153.772791 211.563506 
L 152.141361 211.563506 
L 150.509931 211.563506 
L 148.878502 211.563506 
L 147.247072 211.563506 
L 145.615642 211.563506 
L 143.984212 211.563506 
L 142.352782 211.563506 
L 140.721352 211.563506 
L 139.089922 211.563506 
L 137.458492 211.563506 
L 135.827063 211.563506 
L 134.195633 211.563506 
L 132.564203 211.563506 
L 130.932773 211.563506 
L 129.301343 211.563506 
L 127.669913 211.563506 
L 126.038483 211.563506 
L 124.407053 211.563506 
L 122.775624 211.563506 
L 121.144194 211.563506 
L 119.512764 211.563506 
L 117.881334 211.563506 
L 116.249904 211.563506 
L 114.618474 211.563506 
L 112.987044 211.563506 
L 111.355614 211.563506 
L 109.724185 211.563506 
L 108.092755 211.563506 
L 106.461325 211.563506 
L 104.829895 211.563506 
L 103.198465 211.563506 
L 101.567035 211.563506 
L 99.935605 211.563506 
L 98.304175 211.563506 
L 96.672746 211.563506 
L 95.041316 211.563506 
L 93.409886 211.563506 
L 91.778456 211.563506 
L 90.147026 211.563506 
L 88.515596 211.563506 
L 86.884166 211.563506 
L 85.252736 211.563506 
L 83.621307 211.563506 
L 81.989877 211.563506 
L 80.358447 211.563506 
L 78.727017 211.563506 
L 77.095587 211.563506 
L 75.464157 211.563506 
L 73.832727 211.563506 
z
" style="fill:#1f77b4;fill-opacity:0.1;"/>
   </g>
   <g id="matplotlib.axis_1">
    <g id="xtick_1">
     <g id="line2d_1">
      <defs>
       <path d="M 0 0 
L 0 3.5 
" id="m1affa77696" style="stroke:#000000;stroke-width:0.8;"/>
      </defs>
      <g>
       <use style="stroke:#000000;stroke-width:0.8;" x="73.832727" xlink:href="#m1affa77696" y="307.584"/>
      </g>
     </g>
     <g id="text_1">
      <!-- 0 -->
      <defs>
       <path d="M 31.78125 66.40625 
Q 24.171875 66.40625 20.328125 58.90625 
Q 16.5 51.421875 16.5 36.375 
Q 16.5 21.390625 20.328125 13.890625 
Q 24.171875 6.390625 31.78125 6.390625 
Q 39.453125 6.390625 43.28125 13.890625 
Q 47.125 21.390625 47.125 36.375 
Q 47.125 51.421875 43.28125 58.90625 
Q 39.453125 66.40625 31.78125 66.40625 
z
M 31.78125 74.21875 
Q 44.046875 74.21875 50.515625 64.515625 
Q 56.984375 54.828125 56.984375 36.375 
Q 56.984375 17.96875 50.515625 8.265625 
Q 44.046875 -1.421875 31.78125 -1.421875 
Q 19.53125 -1.421875 13.0625 8.265625 
Q 6.59375 17.96875 6.59375 36.375 
Q 6.59375 54.828125 13.0625 64.515625 
Q 19.53125 74.21875 31.78125 74.21875 
z
" id="DejaVuSans-48"/>
      </defs>
      <g transform="translate(70.651477 322.182437)scale(0.1 -0.1)">
       <use xlink:href="#DejaVuSans-48"/>
      </g>
     </g>
    </g>
    <g id="xtick_2">
     <g id="line2d_2">
      <g>
       <use style="stroke:#000000;stroke-width:0.8;" x="114.618474" xlink:href="#m1affa77696" y="307.584"/>
      </g>
     </g>
     <g id="text_2">
      <!-- 25 -->
      <defs>
       <path d="M 19.1875 8.296875 
L 53.609375 8.296875 
L 53.609375 0 
L 7.328125 0 
L 7.328125 8.296875 
Q 12.9375 14.109375 22.625 23.890625 
Q 32.328125 33.6875 34.8125 36.53125 
Q 39.546875 41.84375 41.421875 45.53125 
Q 43.3125 49.21875 43.3125 52.78125 
Q 43.3125 58.59375 39.234375 62.25 
Q 35.15625 65.921875 28.609375 65.921875 
Q 23.96875 65.921875 18.8125 64.3125 
Q 13.671875 62.703125 7.8125 59.421875 
L 7.8125 69.390625 
Q 13.765625 71.78125 18.9375 73 
Q 24.125 74.21875 28.421875 74.21875 
Q 39.75 74.21875 46.484375 68.546875 
Q 53.21875 62.890625 53.21875 53.421875 
Q 53.21875 48.921875 51.53125 44.890625 
Q 49.859375 40.875 45.40625 35.40625 
Q 44.1875 33.984375 37.640625 27.21875 
Q 31.109375 20.453125 19.1875 8.296875 
z
" id="DejaVuSans-50"/>
       <path d="M 10.796875 72.90625 
L 49.515625 72.90625 
L 49.515625 64.59375 
L 19.828125 64.59375 
L 19.828125 46.734375 
Q 21.96875 47.46875 24.109375 47.828125 
Q 26.265625 48.1875 28.421875 48.1875 
Q 40.625 48.1875 47.75 41.5 
Q 54.890625 34.8125 54.890625 23.390625 
Q 54.890625 11.625 47.5625 5.09375 
Q 40.234375 -1.421875 26.90625 -1.421875 
Q 22.3125 -1.421875 17.546875 -0.640625 
Q 12.796875 0.140625 7.71875 1.703125 
L 7.71875 11.625 
Q 12.109375 9.234375 16.796875 8.0625 
Q 21.484375 6.890625 26.703125 6.890625 
Q 35.15625 6.890625 40.078125 11.328125 
Q 45.015625 15.765625 45.015625 23.390625 
Q 45.015625 31 40.078125 35.4375 
Q 35.15625 39.890625 26.703125 39.890625 
Q 22.75 39.890625 18.8125 39.015625 
Q 14.890625 38.140625 10.796875 36.28125 
z
" id="DejaVuSans-53"/>
      </defs>
      <g transform="translate(108.255974 322.182437)scale(0.1 -0.1)">
       <use xlink:href="#DejaVuSans-50"/>
       <use x="63.623047" xlink:href="#DejaVuSans-53"/>
      </g>
     </g>
    </g>
    <g id="xtick_3">
     <g id="line2d_3">
      <g>
       <use style="stroke:#000000;stroke-width:0.8;" x="155.404221" xlink:href="#m1affa77696" y="307.584"/>
      </g>
     </g>
     <g id="text_3">
      <!-- 50 -->
      <g transform="translate(149.041721 322.182437)scale(0.1 -0.1)">
       <use xlink:href="#DejaVuSans-53"/>
       <use x="63.623047" xlink:href="#DejaVuSans-48"/>
      </g>
     </g>
    </g>
    <g id="xtick_4">
     <g id="line2d_4">
      <g>
       <use style="stroke:#000000;stroke-width:0.8;" x="196.189968" xlink:href="#m1affa77696" y="307.584"/>
      </g>
     </g>
     <g id="text_4">
      <!-- 75 -->
      <defs>
       <path d="M 8.203125 72.90625 
L 55.078125 72.90625 
L 55.078125 68.703125 
L 28.609375 0 
L 18.3125 0 
L 43.21875 64.59375 
L 8.203125 64.59375 
z
" id="DejaVuSans-55"/>
      </defs>
      <g transform="translate(189.827468 322.182437)scale(0.1 -0.1)">
       <use xlink:href="#DejaVuSans-55"/>
       <use x="63.623047" xlink:href="#DejaVuSans-53"/>
      </g>
     </g>
    </g>
    <g id="xtick_5">
     <g id="line2d_5">
      <g>
       <use style="stroke:#000000;stroke-width:0.8;" x="236.975715" xlink:href="#m1affa77696" y="307.584"/>
      </g>
     </g>
     <g id="text_5">
      <!-- 100 -->
      <defs>
       <path d="M 12.40625 8.296875 
L 28.515625 8.296875 
L 28.515625 63.921875 
L 10.984375 60.40625 
L 10.984375 69.390625 
L 28.421875 72.90625 
L 38.28125 72.90625 
L 38.28125 8.296875 
L 54.390625 8.296875 
L 54.390625 0 
L 12.40625 0 
z
" id="DejaVuSans-49"/>
      </defs>
      <g transform="translate(227.431965 322.182437)scale(0.1 -0.1)">
       <use xlink:href="#DejaVuSans-49"/>
       <use x="63.623047" xlink:href="#DejaVuSans-48"/>
       <use x="127.246094" xlink:href="#DejaVuSans-48"/>
      </g>
     </g>
    </g>
    <g id="xtick_6">
     <g id="line2d_6">
      <g>
       <use style="stroke:#000000;stroke-width:0.8;" x="277.761462" xlink:href="#m1affa77696" y="307.584"/>
      </g>
     </g>
     <g id="text_6">
      <!-- 125 -->
      <g transform="translate(268.217712 322.182437)scale(0.1 -0.1)">
       <use xlink:href="#DejaVuSans-49"/>
       <use x="63.623047" xlink:href="#DejaVuSans-50"/>
       <use x="127.246094" xlink:href="#DejaVuSans-53"/>
      </g>
     </g>
    </g>
    <g id="xtick_7">
     <g id="line2d_7">
      <g>
       <use style="stroke:#000000;stroke-width:0.8;" x="318.547209" xlink:href="#m1affa77696" y="307.584"/>
      </g>
     </g>
     <g id="text_7">
      <!-- 150 -->
      <g transform="translate(309.003459 322.182437)scale(0.1 -0.1)">
       <use xlink:href="#DejaVuSans-49"/>
       <use x="63.623047" xlink:href="#DejaVuSans-53"/>
       <use x="127.246094" xlink:href="#DejaVuSans-48"/>
      </g>
     </g>
    </g>
    <g id="xtick_8">
     <g id="line2d_8">
      <g>
       <use style="stroke:#000000;stroke-width:0.8;" x="359.332956" xlink:href="#m1affa77696" y="307.584"/>
      </g>
     </g>
     <g id="text_8">
      <!-- 175 -->
      <g transform="translate(349.789206 322.182437)scale(0.1 -0.1)">
       <use xlink:href="#DejaVuSans-49"/>
       <use x="63.623047" xlink:href="#DejaVuSans-55"/>
       <use x="127.246094" xlink:href="#DejaVuSans-53"/>
      </g>
     </g>
    </g>
    <g id="xtick_9">
     <g id="line2d_9">
      <g>
       <use style="stroke:#000000;stroke-width:0.8;" x="400.118703" xlink:href="#m1affa77696" y="307.584"/>
      </g>
     </g>
     <g id="text_9">
      <!-- 200 -->
      <g transform="translate(390.574953 322.182437)scale(0.1 -0.1)">
       <use xlink:href="#DejaVuSans-50"/>
       <use x="63.623047" xlink:href="#DejaVuSans-48"/>
       <use x="127.246094" xlink:href="#DejaVuSans-48"/>
      </g>
     </g>
    </g>
   </g>
   <g id="matplotlib.axis_2">
    <g id="ytick_1">
     <g id="line2d_10">
      <defs>
       <path d="M 0 0 
L -3.5 0 
" id="m7cc775e492" style="stroke:#000000;stroke-width:0.8;"/>
      </defs>
      <g>
       <use style="stroke:#000000;stroke-width:0.8;" x="57.6" xlink:href="#m7cc775e492" y="296.507326"/>
      </g>
     </g>
     <g id="text_10">
      <!-- 0.0 -->
      <defs>
       <path d="M 10.6875 12.40625 
L 21 12.40625 
L 21 0 
L 10.6875 0 
z
" id="DejaVuSans-46"/>
      </defs>
      <g transform="translate(34.696875 300.306545)scale(0.1 -0.1)">
       <use xlink:href="#DejaVuSans-48"/>
       <use x="63.623047" xlink:href="#DejaVuSans-46"/>
       <use x="95.410156" xlink:href="#DejaVuSans-48"/>
      </g>
     </g>
    </g>
    <g id="ytick_2">
     <g id="line2d_11">
      <g>
       <use style="stroke:#000000;stroke-width:0.8;" x="57.6" xlink:href="#m7cc775e492" y="245.541034"/>
      </g>
     </g>
     <g id="text_11">
      <!-- 0.2 -->
      <g transform="translate(34.696875 249.340252)scale(0.1 -0.1)">
       <use xlink:href="#DejaVuSans-48"/>
       <use x="63.623047" xlink:href="#DejaVuSans-46"/>
       <use x="95.410156" xlink:href="#DejaVuSans-50"/>
      </g>
     </g>
    </g>
    <g id="ytick_3">
     <g id="line2d_12">
      <g>
       <use style="stroke:#000000;stroke-width:0.8;" x="57.6" xlink:href="#m7cc775e492" y="194.574742"/>
      </g>
     </g>
     <g id="text_12">
      <!-- 0.4 -->
      <defs>
       <path d="M 37.796875 64.3125 
L 12.890625 25.390625 
L 37.796875 25.390625 
z
M 35.203125 72.90625 
L 47.609375 72.90625 
L 47.609375 25.390625 
L 58.015625 25.390625 
L 58.015625 17.1875 
L 47.609375 17.1875 
L 47.609375 0 
L 37.796875 0 
L 37.796875 17.1875 
L 4.890625 17.1875 
L 4.890625 26.703125 
z
" id="DejaVuSans-52"/>
      </defs>
      <g transform="translate(34.696875 198.37396)scale(0.1 -0.1)">
       <use xlink:href="#DejaVuSans-48"/>
       <use x="63.623047" xlink:href="#DejaVuSans-46"/>
       <use x="95.410156" xlink:href="#DejaVuSans-52"/>
      </g>
     </g>
    </g>
    <g id="ytick_4">
     <g id="line2d_13">
      <g>
       <use style="stroke:#000000;stroke-width:0.8;" x="57.6" xlink:href="#m7cc775e492" y="143.608449"/>
      </g>
     </g>
     <g id="text_13">
      <!-- 0.6 -->
      <defs>
       <path d="M 33.015625 40.375 
Q 26.375 40.375 22.484375 35.828125 
Q 18.609375 31.296875 18.609375 23.390625 
Q 18.609375 15.53125 22.484375 10.953125 
Q 26.375 6.390625 33.015625 6.390625 
Q 39.65625 6.390625 43.53125 10.953125 
Q 47.40625 15.53125 47.40625 23.390625 
Q 47.40625 31.296875 43.53125 35.828125 
Q 39.65625 40.375 33.015625 40.375 
z
M 52.59375 71.296875 
L 52.59375 62.3125 
Q 48.875 64.0625 45.09375 64.984375 
Q 41.3125 65.921875 37.59375 65.921875 
Q 27.828125 65.921875 22.671875 59.328125 
Q 17.53125 52.734375 16.796875 39.40625 
Q 19.671875 43.65625 24.015625 45.921875 
Q 28.375 48.1875 33.59375 48.1875 
Q 44.578125 48.1875 50.953125 41.515625 
Q 57.328125 34.859375 57.328125 23.390625 
Q 57.328125 12.15625 50.6875 5.359375 
Q 44.046875 -1.421875 33.015625 -1.421875 
Q 20.359375 -1.421875 13.671875 8.265625 
Q 6.984375 17.96875 6.984375 36.375 
Q 6.984375 53.65625 15.1875 63.9375 
Q 23.390625 74.21875 37.203125 74.21875 
Q 40.921875 74.21875 44.703125 73.484375 
Q 48.484375 72.75 52.59375 71.296875 
z
" id="DejaVuSans-54"/>
      </defs>
      <g transform="translate(34.696875 147.407668)scale(0.1 -0.1)">
       <use xlink:href="#DejaVuSans-48"/>
       <use x="63.623047" xlink:href="#DejaVuSans-46"/>
       <use x="95.410156" xlink:href="#DejaVuSans-54"/>
      </g>
     </g>
    </g>
    <g id="ytick_5">
     <g id="line2d_14">
      <g>
       <use style="stroke:#000000;stroke-width:0.8;" x="57.6" xlink:href="#m7cc775e492" y="92.642157"/>
      </g>
     </g>
     <g id="text_14">
      <!-- 0.8 -->
      <defs>
       <path d="M 31.78125 34.625 
Q 24.75 34.625 20.71875 30.859375 
Q 16.703125 27.09375 16.703125 20.515625 
Q 16.703125 13.921875 20.71875 10.15625 
Q 24.75 6.390625 31.78125 6.390625 
Q 38.8125 6.390625 42.859375 10.171875 
Q 46.921875 13.96875 46.921875 20.515625 
Q 46.921875 27.09375 42.890625 30.859375 
Q 38.875 34.625 31.78125 34.625 
z
M 21.921875 38.8125 
Q 15.578125 40.375 12.03125 44.71875 
Q 8.5 49.078125 8.5 55.328125 
Q 8.5 64.0625 14.71875 69.140625 
Q 20.953125 74.21875 31.78125 74.21875 
Q 42.671875 74.21875 48.875 69.140625 
Q 55.078125 64.0625 55.078125 55.328125 
Q 55.078125 49.078125 51.53125 44.71875 
Q 48 40.375 41.703125 38.8125 
Q 48.828125 37.15625 52.796875 32.3125 
Q 56.78125 27.484375 56.78125 20.515625 
Q 56.78125 9.90625 50.3125 4.234375 
Q 43.84375 -1.421875 31.78125 -1.421875 
Q 19.734375 -1.421875 13.25 4.234375 
Q 6.78125 9.90625 6.78125 20.515625 
Q 6.78125 27.484375 10.78125 32.3125 
Q 14.796875 37.15625 21.921875 38.8125 
z
M 18.3125 54.390625 
Q 18.3125 48.734375 21.84375 45.5625 
Q 25.390625 42.390625 31.78125 42.390625 
Q 38.140625 42.390625 41.71875 45.5625 
Q 45.3125 48.734375 45.3125 54.390625 
Q 45.3125 60.0625 41.71875 63.234375 
Q 38.140625 66.40625 31.78125 66.40625 
Q 25.390625 66.40625 21.84375 63.234375 
Q 18.3125 60.0625 18.3125 54.390625 
z
" id="DejaVuSans-56"/>
      </defs>
      <g transform="translate(34.696875 96.441376)scale(0.1 -0.1)">
       <use xlink:href="#DejaVuSans-48"/>
       <use x="63.623047" xlink:href="#DejaVuSans-46"/>
       <use x="95.410156" xlink:href="#DejaVuSans-56"/>
      </g>
     </g>
    </g>
    <g id="ytick_6">
     <g id="line2d_15">
      <g>
       <use style="stroke:#000000;stroke-width:0.8;" x="57.6" xlink:href="#m7cc775e492" y="41.675865"/>
      </g>
     </g>
     <g id="text_15">
      <!-- 1.0 -->
      <g transform="translate(34.696875 45.475084)scale(0.1 -0.1)">
       <use xlink:href="#DejaVuSans-49"/>
       <use x="63.623047" xlink:href="#DejaVuSans-46"/>
       <use x="95.410156" xlink:href="#DejaVuSans-48"/>
      </g>
     </g>
    </g>
   </g>
   <g id="line2d_16">
    <path clip-path="url(#pa048b3fb01)" d="M 73.832727 211.563506 
L 274.498602 211.563506 
L 276.130032 195.254292 
L 277.761462 194.914517 
L 279.392892 181.436249 
L 281.024322 209.015191 
L 282.655751 211.563506 
L 284.287181 195.933843 
L 285.918611 195.254292 
L 287.550041 198.31227 
L 289.181471 170.502402 
L 290.812901 177.925753 
L 292.444331 211.563506 
L 294.075761 183.089124 
L 295.70719 173.508674 
L 297.33862 190.837213 
L 298.97005 178.605303 
L 300.60148 190.837213 
L 302.23291 173.168899 
L 305.49577 194.234966 
L 307.1272 179.284854 
L 308.75863 177.909573 
L 310.390059 182.003056 
L 312.021489 177.925753 
L 313.652919 171.130247 
L 315.284349 179.624629 
L 316.915779 173.797483 
L 318.547209 155.500584 
L 320.178639 165.693843 
L 321.810069 153.801708 
L 323.441498 178.265528 
L 325.072928 183.397737 
L 326.704358 178.605303 
L 328.335788 142.322157 
L 329.967218 187.779236 
L 331.598648 168.75182 
L 333.230078 190.837213 
L 334.861508 182.682607 
L 336.492937 152.612494 
L 338.124367 151.932944 
L 339.755797 157.539236 
L 341.387227 137.96115 
L 343.018657 172.387416 
L 344.650087 161.106876 
L 346.281517 172.829124 
L 347.912947 177.925753 
L 349.544376 166.033618 
L 352.807236 150.06418 
L 354.438666 130.362067 
L 356.070096 127.299236 
L 357.701526 127.299236 
L 359.332956 133.585079 
L 360.964386 165.693843 
L 362.595815 203.069124 
L 364.227245 161.276764 
L 365.858675 144.967551 
L 367.490105 155.500584 
L 369.121535 162.635865 
L 370.752965 140.890247 
L 372.384395 167.392719 
L 374.015825 168.75182 
L 375.647254 128.318562 
L 377.278684 182.682607 
L 380.541544 126.789573 
L 383.804404 153.801708 
L 385.435834 132.565753 
L 387.067264 131.376539 
L 388.698693 136.133393 
L 390.330123 153.63182 
L 391.961553 145.816989 
L 393.592983 162.126202 
L 395.224413 166.373393 
L 396.855843 126.27991 
L 398.487273 147.85564 
L 398.487273 147.85564 
" style="fill:none;stroke:#1f77b4;stroke-linecap:square;stroke-width:0.25;"/>
   </g>
   <g id="line2d_17">
    <path clip-path="url(#pa048b3fb01)" d="M 73.832727 211.563506 
L 259.815733 211.563506 
L 261.447163 213.56818 
L 263.078593 212.858559 
L 264.710023 213.740171 
L 267.972883 210.031241 
L 269.604312 210.69423 
L 271.235742 203.726315 
L 272.867172 202.25507 
L 274.498602 196.971449 
L 276.130032 196.312783 
L 277.761462 196.745186 
L 279.392892 186.443066 
L 281.024322 201.6054 
L 282.655751 207.192815 
L 284.287181 190.174624 
L 285.918611 190.02175 
L 287.550041 194.342647 
L 289.181471 181.69077 
L 290.812901 173.480813 
L 292.444331 199.91894 
L 294.075761 184.493185 
L 295.70719 179.960774 
L 297.33862 186.752834 
L 298.97005 177.625959 
L 300.60148 178.221203 
L 302.23291 169.345875 
L 303.86434 179.841944 
L 305.49577 185.177388 
L 307.1272 177.768095 
L 308.75863 172.544704 
L 310.390059 169.751751 
L 313.652919 161.881663 
L 315.284349 170.361565 
L 316.915779 160.967349 
L 318.547209 156.341574 
L 320.178639 163.032723 
L 321.810069 149.776103 
L 323.441498 161.516952 
L 325.072928 160.119266 
L 326.704358 168.606091 
L 328.335788 150.679045 
L 329.967218 165.179465 
L 331.598648 166.107967 
L 333.230078 170.102743 
L 334.861508 177.646062 
L 336.492937 155.18583 
L 338.124367 156.295646 
L 339.755797 155.143454 
L 341.387227 144.955444 
L 343.018657 155.412606 
L 344.650087 149.264588 
L 346.281517 161.455698 
L 347.912947 167.851417 
L 349.544376 157.541146 
L 351.175806 152.711155 
L 352.807236 139.118192 
L 354.438666 140.18959 
L 356.070096 128.661091 
L 357.701526 134.846357 
L 359.332956 138.578464 
L 360.964386 156.47714 
L 364.227245 148.89135 
L 365.858675 147.444498 
L 367.490105 151.819218 
L 369.121535 162.15658 
L 370.752965 148.330322 
L 372.384395 165.935451 
L 374.015825 160.748515 
L 375.647254 139.565129 
L 377.278684 165.33803 
L 380.541544 132.119948 
L 382.172974 149.95356 
L 383.804404 150.536036 
L 385.435834 138.467825 
L 387.067264 140.414401 
L 388.698693 139.309027 
L 390.330123 148.577741 
L 391.961553 149.669061 
L 393.592983 142.395412 
L 395.224413 156.794256 
L 396.855843 140.407681 
L 398.487273 142.503586 
L 398.487273 142.503586 
" style="fill:none;stroke:#2ca02c;stroke-linecap:square;stroke-width:0.75;"/>
   </g>
   <g id="patch_3">
    <path d="M 57.6 307.584 
L 57.6 41.472 
" style="fill:none;stroke:#000000;stroke-linecap:square;stroke-linejoin:miter;stroke-width:0.8;"/>
   </g>
   <g id="patch_4">
    <path d="M 414.72 307.584 
L 414.72 41.472 
" style="fill:none;stroke:#000000;stroke-linecap:square;stroke-linejoin:miter;stroke-width:0.8;"/>
   </g>
   <g id="patch_5">
    <path d="M 57.6 307.584 
L 414.72 307.584 
" style="fill:none;stroke:#000000;stroke-linecap:square;stroke-linejoin:miter;stroke-width:0.8;"/>
   </g>
   <g id="patch_6">
    <path d="M 57.6 41.472 
L 414.72 41.472 
" style="fill:none;stroke:#000000;stroke-linecap:square;stroke-linejoin:miter;stroke-width:0.8;"/>
   </g>
   <g id="legend_1">
    <g id="patch_7">
     <path d="M 338.234063 78.82825 
L 407.72 78.82825 
Q 409.72 78.82825 409.72 76.82825 
L 409.72 48.472 
Q 409.72 46.472 407.72 46.472 
L 338.234063 46.472 
Q 336.234063 46.472 336.234063 48.472 
L 336.234063 76.82825 
Q 336.234063 78.82825 338.234063 78.82825 
z
" style="fill:#ffffff;opacity:0.8;stroke:#cccccc;stroke-linejoin:miter;"/>
    </g>
    <g id="line2d_18">
     <path d="M 340.234063 54.570437 
L 360.234063 54.570437 
" style="fill:none;stroke:#1f77b4;stroke-linecap:square;stroke-width:0.25;"/>
    </g>
    <g id="line2d_19"/>
    <g id="text_16">
     <!-- median -->
     <defs>
      <path d="M 52 44.1875 
Q 55.375 50.25 60.0625 53.125 
Q 64.75 56 71.09375 56 
Q 79.640625 56 84.28125 50.015625 
Q 88.921875 44.046875 88.921875 33.015625 
L 88.921875 0 
L 79.890625 0 
L 79.890625 32.71875 
Q 79.890625 40.578125 77.09375 44.375 
Q 74.3125 48.1875 68.609375 48.1875 
Q 61.625 48.1875 57.5625 43.546875 
Q 53.515625 38.921875 53.515625 30.90625 
L 53.515625 0 
L 44.484375 0 
L 44.484375 32.71875 
Q 44.484375 40.625 41.703125 44.40625 
Q 38.921875 48.1875 33.109375 48.1875 
Q 26.21875 48.1875 22.15625 43.53125 
Q 18.109375 38.875 18.109375 30.90625 
L 18.109375 0 
L 9.078125 0 
L 9.078125 54.6875 
L 18.109375 54.6875 
L 18.109375 46.1875 
Q 21.1875 51.21875 25.484375 53.609375 
Q 29.78125 56 35.6875 56 
Q 41.65625 56 45.828125 52.96875 
Q 50 49.953125 52 44.1875 
z
" id="DejaVuSans-109"/>
      <path d="M 56.203125 29.59375 
L 56.203125 25.203125 
L 14.890625 25.203125 
Q 15.484375 15.921875 20.484375 11.0625 
Q 25.484375 6.203125 34.421875 6.203125 
Q 39.59375 6.203125 44.453125 7.46875 
Q 49.3125 8.734375 54.109375 11.28125 
L 54.109375 2.78125 
Q 49.265625 0.734375 44.1875 -0.34375 
Q 39.109375 -1.421875 33.890625 -1.421875 
Q 20.796875 -1.421875 13.15625 6.1875 
Q 5.515625 13.8125 5.515625 26.8125 
Q 5.515625 40.234375 12.765625 48.109375 
Q 20.015625 56 32.328125 56 
Q 43.359375 56 49.78125 48.890625 
Q 56.203125 41.796875 56.203125 29.59375 
z
M 47.21875 32.234375 
Q 47.125 39.59375 43.09375 43.984375 
Q 39.0625 48.390625 32.421875 48.390625 
Q 24.90625 48.390625 20.390625 44.140625 
Q 15.875 39.890625 15.1875 32.171875 
z
" id="DejaVuSans-101"/>
      <path d="M 45.40625 46.390625 
L 45.40625 75.984375 
L 54.390625 75.984375 
L 54.390625 0 
L 45.40625 0 
L 45.40625 8.203125 
Q 42.578125 3.328125 38.25 0.953125 
Q 33.9375 -1.421875 27.875 -1.421875 
Q 17.96875 -1.421875 11.734375 6.484375 
Q 5.515625 14.40625 5.515625 27.296875 
Q 5.515625 40.1875 11.734375 48.09375 
Q 17.96875 56 27.875 56 
Q 33.9375 56 38.25 53.625 
Q 42.578125 51.265625 45.40625 46.390625 
z
M 14.796875 27.296875 
Q 14.796875 17.390625 18.875 11.75 
Q 22.953125 6.109375 30.078125 6.109375 
Q 37.203125 6.109375 41.296875 11.75 
Q 45.40625 17.390625 45.40625 27.296875 
Q 45.40625 37.203125 41.296875 42.84375 
Q 37.203125 48.484375 30.078125 48.484375 
Q 22.953125 48.484375 18.875 42.84375 
Q 14.796875 37.203125 14.796875 27.296875 
z
" id="DejaVuSans-100"/>
      <path d="M 9.421875 54.6875 
L 18.40625 54.6875 
L 18.40625 0 
L 9.421875 0 
z
M 9.421875 75.984375 
L 18.40625 75.984375 
L 18.40625 64.59375 
L 9.421875 64.59375 
z
" id="DejaVuSans-105"/>
      <path d="M 34.28125 27.484375 
Q 23.390625 27.484375 19.1875 25 
Q 14.984375 22.515625 14.984375 16.5 
Q 14.984375 11.71875 18.140625 8.90625 
Q 21.296875 6.109375 26.703125 6.109375 
Q 34.1875 6.109375 38.703125 11.40625 
Q 43.21875 16.703125 43.21875 25.484375 
L 43.21875 27.484375 
z
M 52.203125 31.203125 
L 52.203125 0 
L 43.21875 0 
L 43.21875 8.296875 
Q 40.140625 3.328125 35.546875 0.953125 
Q 30.953125 -1.421875 24.3125 -1.421875 
Q 15.921875 -1.421875 10.953125 3.296875 
Q 6 8.015625 6 15.921875 
Q 6 25.140625 12.171875 29.828125 
Q 18.359375 34.515625 30.609375 34.515625 
L 43.21875 34.515625 
L 43.21875 35.40625 
Q 43.21875 41.609375 39.140625 45 
Q 35.0625 48.390625 27.6875 48.390625 
Q 23 48.390625 18.546875 47.265625 
Q 14.109375 46.140625 10.015625 43.890625 
L 10.015625 52.203125 
Q 14.9375 54.109375 19.578125 55.046875 
Q 24.21875 56 28.609375 56 
Q 40.484375 56 46.34375 49.84375 
Q 52.203125 43.703125 52.203125 31.203125 
z
" id="DejaVuSans-97"/>
      <path d="M 54.890625 33.015625 
L 54.890625 0 
L 45.90625 0 
L 45.90625 32.71875 
Q 45.90625 40.484375 42.875 44.328125 
Q 39.84375 48.1875 33.796875 48.1875 
Q 26.515625 48.1875 22.3125 43.546875 
Q 18.109375 38.921875 18.109375 30.90625 
L 18.109375 0 
L 9.078125 0 
L 9.078125 54.6875 
L 18.109375 54.6875 
L 18.109375 46.1875 
Q 21.34375 51.125 25.703125 53.5625 
Q 30.078125 56 35.796875 56 
Q 45.21875 56 50.046875 50.171875 
Q 54.890625 44.34375 54.890625 33.015625 
z
" id="DejaVuSans-110"/>
     </defs>
     <g transform="translate(368.234063 58.070437)scale(0.1 -0.1)">
      <use xlink:href="#DejaVuSans-109"/>
      <use x="97.412109" xlink:href="#DejaVuSans-101"/>
      <use x="158.935547" xlink:href="#DejaVuSans-100"/>
      <use x="222.412109" xlink:href="#DejaVuSans-105"/>
      <use x="250.195312" xlink:href="#DejaVuSans-97"/>
      <use x="311.474609" xlink:href="#DejaVuSans-110"/>
     </g>
    </g>
    <g id="line2d_20">
     <path d="M 340.234063 69.248562 
L 360.234063 69.248562 
" style="fill:none;stroke:#2ca02c;stroke-linecap:square;stroke-width:0.75;"/>
    </g>
    <g id="line2d_21"/>
    <g id="text_17">
     <!-- mean -->
     <g transform="translate(368.234063 72.748562)scale(0.1 -0.1)">
      <use xlink:href="#DejaVuSans-109"/>
      <use x="97.412109" xlink:href="#DejaVuSans-101"/>
      <use x="158.935547" xlink:href="#DejaVuSans-97"/>
      <use x="220.214844" xlink:href="#DejaVuSans-110"/>
     </g>
    </g>
   </g>
  </g>
  <g id="text_18">
   <!-- accuracy.mean over generations -->
   <defs>
    <path d="M 48.78125 52.59375 
L 48.78125 44.1875 
Q 44.96875 46.296875 41.140625 47.34375 
Q 37.3125 48.390625 33.40625 48.390625 
Q 24.65625 48.390625 19.8125 42.84375 
Q 14.984375 37.3125 14.984375 27.296875 
Q 14.984375 17.28125 19.8125 11.734375 
Q 24.65625 6.203125 33.40625 6.203125 
Q 37.3125 6.203125 41.140625 7.25 
Q 44.96875 8.296875 48.78125 10.40625 
L 48.78125 2.09375 
Q 45.015625 0.34375 40.984375 -0.53125 
Q 36.96875 -1.421875 32.421875 -1.421875 
Q 20.0625 -1.421875 12.78125 6.34375 
Q 5.515625 14.109375 5.515625 27.296875 
Q 5.515625 40.671875 12.859375 48.328125 
Q 20.21875 56 33.015625 56 
Q 37.15625 56 41.109375 55.140625 
Q 45.0625 54.296875 48.78125 52.59375 
z
" id="DejaVuSans-99"/>
    <path d="M 8.5 21.578125 
L 8.5 54.6875 
L 17.484375 54.6875 
L 17.484375 21.921875 
Q 17.484375 14.15625 20.5 10.265625 
Q 23.53125 6.390625 29.59375 6.390625 
Q 36.859375 6.390625 41.078125 11.03125 
Q 45.3125 15.671875 45.3125 23.6875 
L 45.3125 54.6875 
L 54.296875 54.6875 
L 54.296875 0 
L 45.3125 0 
L 45.3125 8.40625 
Q 42.046875 3.421875 37.71875 1 
Q 33.40625 -1.421875 27.6875 -1.421875 
Q 18.265625 -1.421875 13.375 4.4375 
Q 8.5 10.296875 8.5 21.578125 
z
M 31.109375 56 
z
" id="DejaVuSans-117"/>
    <path d="M 41.109375 46.296875 
Q 39.59375 47.171875 37.8125 47.578125 
Q 36.03125 48 33.890625 48 
Q 26.265625 48 22.1875 43.046875 
Q 18.109375 38.09375 18.109375 28.8125 
L 18.109375 0 
L 9.078125 0 
L 9.078125 54.6875 
L 18.109375 54.6875 
L 18.109375 46.1875 
Q 20.953125 51.171875 25.484375 53.578125 
Q 30.03125 56 36.53125 56 
Q 37.453125 56 38.578125 55.875 
Q 39.703125 55.765625 41.0625 55.515625 
z
" id="DejaVuSans-114"/>
    <path d="M 32.171875 -5.078125 
Q 28.375 -14.84375 24.75 -17.8125 
Q 21.140625 -20.796875 15.09375 -20.796875 
L 7.90625 -20.796875 
L 7.90625 -13.28125 
L 13.1875 -13.28125 
Q 16.890625 -13.28125 18.9375 -11.515625 
Q 21 -9.765625 23.484375 -3.21875 
L 25.09375 0.875 
L 2.984375 54.6875 
L 12.5 54.6875 
L 29.59375 11.921875 
L 46.6875 54.6875 
L 56.203125 54.6875 
z
" id="DejaVuSans-121"/>
    <path id="DejaVuSans-32"/>
    <path d="M 30.609375 48.390625 
Q 23.390625 48.390625 19.1875 42.75 
Q 14.984375 37.109375 14.984375 27.296875 
Q 14.984375 17.484375 19.15625 11.84375 
Q 23.34375 6.203125 30.609375 6.203125 
Q 37.796875 6.203125 41.984375 11.859375 
Q 46.1875 17.53125 46.1875 27.296875 
Q 46.1875 37.015625 41.984375 42.703125 
Q 37.796875 48.390625 30.609375 48.390625 
z
M 30.609375 56 
Q 42.328125 56 49.015625 48.375 
Q 55.71875 40.765625 55.71875 27.296875 
Q 55.71875 13.875 49.015625 6.21875 
Q 42.328125 -1.421875 30.609375 -1.421875 
Q 18.84375 -1.421875 12.171875 6.21875 
Q 5.515625 13.875 5.515625 27.296875 
Q 5.515625 40.765625 12.171875 48.375 
Q 18.84375 56 30.609375 56 
z
" id="DejaVuSans-111"/>
    <path d="M 2.984375 54.6875 
L 12.5 54.6875 
L 29.59375 8.796875 
L 46.6875 54.6875 
L 56.203125 54.6875 
L 35.6875 0 
L 23.484375 0 
z
" id="DejaVuSans-118"/>
    <path d="M 45.40625 27.984375 
Q 45.40625 37.75 41.375 43.109375 
Q 37.359375 48.484375 30.078125 48.484375 
Q 22.859375 48.484375 18.828125 43.109375 
Q 14.796875 37.75 14.796875 27.984375 
Q 14.796875 18.265625 18.828125 12.890625 
Q 22.859375 7.515625 30.078125 7.515625 
Q 37.359375 7.515625 41.375 12.890625 
Q 45.40625 18.265625 45.40625 27.984375 
z
M 54.390625 6.78125 
Q 54.390625 -7.171875 48.1875 -13.984375 
Q 42 -20.796875 29.203125 -20.796875 
Q 24.46875 -20.796875 20.265625 -20.09375 
Q 16.0625 -19.390625 12.109375 -17.921875 
L 12.109375 -9.1875 
Q 16.0625 -11.328125 19.921875 -12.34375 
Q 23.78125 -13.375 27.78125 -13.375 
Q 36.625 -13.375 41.015625 -8.765625 
Q 45.40625 -4.15625 45.40625 5.171875 
L 45.40625 9.625 
Q 42.625 4.78125 38.28125 2.390625 
Q 33.9375 0 27.875 0 
Q 17.828125 0 11.671875 7.65625 
Q 5.515625 15.328125 5.515625 27.984375 
Q 5.515625 40.671875 11.671875 48.328125 
Q 17.828125 56 27.875 56 
Q 33.9375 56 38.28125 53.609375 
Q 42.625 51.21875 45.40625 46.390625 
L 45.40625 54.6875 
L 54.390625 54.6875 
z
" id="DejaVuSans-103"/>
    <path d="M 18.3125 70.21875 
L 18.3125 54.6875 
L 36.8125 54.6875 
L 36.8125 47.703125 
L 18.3125 47.703125 
L 18.3125 18.015625 
Q 18.3125 11.328125 20.140625 9.421875 
Q 21.96875 7.515625 27.59375 7.515625 
L 36.8125 7.515625 
L 36.8125 0 
L 27.59375 0 
Q 17.1875 0 13.234375 3.875 
Q 9.28125 7.765625 9.28125 18.015625 
L 9.28125 47.703125 
L 2.6875 47.703125 
L 2.6875 54.6875 
L 9.28125 54.6875 
L 9.28125 70.21875 
z
" id="DejaVuSans-116"/>
    <path d="M 44.28125 53.078125 
L 44.28125 44.578125 
Q 40.484375 46.53125 36.375 47.5 
Q 32.28125 48.484375 27.875 48.484375 
Q 21.1875 48.484375 17.84375 46.4375 
Q 14.5 44.390625 14.5 40.28125 
Q 14.5 37.15625 16.890625 35.375 
Q 19.28125 33.59375 26.515625 31.984375 
L 29.59375 31.296875 
Q 39.15625 29.25 43.1875 25.515625 
Q 47.21875 21.78125 47.21875 15.09375 
Q 47.21875 7.46875 41.1875 3.015625 
Q 35.15625 -1.421875 24.609375 -1.421875 
Q 20.21875 -1.421875 15.453125 -0.5625 
Q 10.6875 0.296875 5.421875 2 
L 5.421875 11.28125 
Q 10.40625 8.6875 15.234375 7.390625 
Q 20.0625 6.109375 24.8125 6.109375 
Q 31.15625 6.109375 34.5625 8.28125 
Q 37.984375 10.453125 37.984375 14.40625 
Q 37.984375 18.0625 35.515625 20.015625 
Q 33.0625 21.96875 24.703125 23.78125 
L 21.578125 24.515625 
Q 13.234375 26.265625 9.515625 29.90625 
Q 5.8125 33.546875 5.8125 39.890625 
Q 5.8125 47.609375 11.28125 51.796875 
Q 16.75 56 26.8125 56 
Q 31.78125 56 36.171875 55.265625 
Q 40.578125 54.546875 44.28125 53.078125 
z
" id="DejaVuSans-115"/>
   </defs>
   <g transform="translate(132.309375 16.030125)scale(0.12 -0.12)">
    <use xlink:href="#DejaVuSans-97"/>
    <use x="61.279297" xlink:href="#DejaVuSans-99"/>
    <use x="116.259766" xlink:href="#DejaVuSans-99"/>
    <use x="171.240234" xlink:href="#DejaVuSans-117"/>
    <use x="234.619141" xlink:href="#DejaVuSans-114"/>
    <use x="275.732422" xlink:href="#DejaVuSans-97"/>
    <use x="337.011719" xlink:href="#DejaVuSans-99"/>
    <use x="391.992188" xlink:href="#DejaVuSans-121"/>
    <use x="436.921875" xlink:href="#DejaVuSans-46"/>
    <use x="468.708984" xlink:href="#DejaVuSans-109"/>
    <use x="566.121094" xlink:href="#DejaVuSans-101"/>
    <use x="627.644531" xlink:href="#DejaVuSans-97"/>
    <use x="688.923828" xlink:href="#DejaVuSans-110"/>
    <use x="752.302734" xlink:href="#DejaVuSans-32"/>
    <use x="784.089844" xlink:href="#DejaVuSans-111"/>
    <use x="845.271484" xlink:href="#DejaVuSans-118"/>
    <use x="904.451172" xlink:href="#DejaVuSans-101"/>
    <use x="965.974609" xlink:href="#DejaVuSans-114"/>
    <use x="1007.087891" xlink:href="#DejaVuSans-32"/>
    <use x="1038.875" xlink:href="#DejaVuSans-103"/>
    <use x="1102.351562" xlink:href="#DejaVuSans-101"/>
    <use x="1163.875" xlink:href="#DejaVuSans-110"/>
    <use x="1227.253906" xlink:href="#DejaVuSans-101"/>
    <use x="1288.777344" xlink:href="#DejaVuSans-114"/>
    <use x="1329.890625" xlink:href="#DejaVuSans-97"/>
    <use x="1391.169922" xlink:href="#DejaVuSans-116"/>
    <use x="1430.378906" xlink:href="#DejaVuSans-105"/>
    <use x="1458.162109" xlink:href="#DejaVuSans-111"/>
    <use x="1519.34375" xlink:href="#DejaVuSans-110"/>
    <use x="1582.722656" xlink:href="#DejaVuSans-115"/>
   </g>
  </g>
 </g>
 <defs>
  <clipPath id="pa048b3fb01">
   <rect height="266.112" width="357.12" x="57.6" y="41.472"/>
  </clipPath>
 </defs>
</svg>
