<?xml version="1.0" encoding="utf-8" standalone="no"?>
<!DOCTYPE svg PUBLIC "-//W3C//DTD SVG 1.1//EN"
  "http://www.w3.org/Graphics/SVG/1.1/DTD/svg11.dtd">
<!-- Created with matplotlib (https://matplotlib.org/) -->
<svg height="345.6pt" version="1.1" viewBox="0 0 460.8 345.6" width="460.8pt" xmlns="http://www.w3.org/2000/svg" xmlns:xlink="http://www.w3.org/1999/xlink">
 <defs>
  <style type="text/css">
*{stroke-linecap:butt;stroke-linejoin:round;}
  </style>
 </defs>
 <g id="figure_1">
  <g id="patch_1">
   <path d="M 0 345.6 
L 460.8 345.6 
L 460.8 0 
L 0 0 
z
" style="fill:#ffffff;"/>
  </g>
  <g id="axes_1">
   <g id="patch_2">
    <path d="M 57.6 307.584 
L 414.72 307.584 
L 414.72 41.472 
L 57.6 41.472 
z
" style="fill:#ffffff;"/>
   </g>
   <g id="PolyCollection_1">
    <path clip-path="url(#pba911daa69)" d="M 73.832727 288.180869 
L 73.832727 289.466469 
L 75.464157 289.466469 
L 77.095587 289.466469 
L 78.727017 289.466469 
L 80.358447 289.466469 
L 81.989877 289.466469 
L 83.621307 289.466469 
L 85.252736 289.466469 
L 86.884166 289.466469 
L 88.515596 289.466469 
L 90.147026 289.466469 
L 91.778456 289.466469 
L 93.409886 289.466469 
L 95.041316 289.466469 
L 96.672746 289.466469 
L 98.304175 289.466469 
L 99.935605 289.466469 
L 101.567035 289.466469 
L 103.198465 289.466469 
L 104.829895 289.466469 
L 106.461325 289.466469 
L 108.092755 289.466469 
L 109.724185 289.466469 
L 111.355614 289.466469 
L 112.987044 289.466469 
L 114.618474 289.466469 
L 116.249904 289.466469 
L 117.881334 289.466469 
L 119.512764 289.466469 
L 121.144194 289.466469 
L 122.775624 289.466469 
L 124.407053 289.466469 
L 126.038483 289.466469 
L 127.669913 289.466469 
L 129.301343 289.466469 
L 130.932773 289.466469 
L 132.564203 289.466469 
L 134.195633 289.466469 
L 135.827063 289.466469 
L 137.458492 289.466469 
L 139.089922 289.466469 
L 140.721352 289.466469 
L 142.352782 289.466469 
L 143.984212 289.466469 
L 145.615642 289.466469 
L 147.247072 289.466469 
L 148.878502 289.466469 
L 150.509931 289.466469 
L 152.141361 289.466469 
L 153.772791 289.466469 
L 155.404221 289.466469 
L 157.035651 289.466469 
L 158.667081 289.466469 
L 160.298511 289.466469 
L 161.929941 289.466469 
L 163.56137 289.466469 
L 165.1928 289.466469 
L 166.82423 289.466469 
L 168.45566 289.466469 
L 170.08709 289.466469 
L 171.71852 289.466469 
L 173.34995 289.466469 
L 174.98138 289.466469 
L 176.61281 289.466469 
L 178.244239 289.466469 
L 179.875669 289.466469 
L 181.507099 289.466469 
L 183.138529 289.466469 
L 184.769959 289.466469 
L 186.401389 289.466469 
L 188.032819 289.466469 
L 189.664249 289.466469 
L 191.295678 289.466469 
L 192.927108 289.466469 
L 194.558538 289.466469 
L 196.189968 289.466469 
L 197.821398 289.466469 
L 199.452828 289.466469 
L 201.084258 289.466469 
L 202.715688 289.466469 
L 204.347117 289.466469 
L 205.978547 289.466469 
L 207.609977 289.466469 
L 209.241407 289.466469 
L 210.872837 289.466469 
L 212.504267 289.466469 
L 214.135697 289.466469 
L 215.767127 289.466469 
L 217.398556 289.466469 
L 219.029986 289.466469 
L 220.661416 289.466469 
L 222.292846 289.466469 
L 223.924276 289.466469 
L 225.555706 289.466469 
L 227.187136 289.466469 
L 228.818566 289.466469 
L 230.449995 289.466469 
L 232.081425 289.466469 
L 233.712855 289.466469 
L 235.344285 289.466469 
L 236.975715 289.466469 
L 238.607145 289.466469 
L 240.238575 289.466469 
L 241.870005 289.466469 
L 243.501434 289.466469 
L 245.132864 289.466469 
L 246.764294 289.466469 
L 248.395724 289.466469 
L 250.027154 289.466469 
L 251.658584 289.466469 
L 253.290014 289.179863 
L 254.921444 289.32527 
L 256.552873 289.466469 
L 258.184303 289.54958 
L 259.815733 289.694265 
L 261.447163 289.823478 
L 263.078593 290.37151 
L 264.710023 290.502636 
L 266.341453 290.145554 
L 267.972883 290.576394 
L 269.604312 290.642957 
L 271.235742 289.925255 
L 272.867172 290.122095 
L 274.498602 289.800626 
L 276.130032 289.773238 
L 277.761462 289.973135 
L 279.392892 289.77173 
L 281.024322 290.7552 
L 282.655751 290.737733 
L 284.287181 289.782799 
L 285.918611 290.498873 
L 287.550041 290.264062 
L 289.181471 290.448197 
L 290.812901 290.4789 
L 292.444331 290.490081 
L 294.075761 290.645316 
L 295.70719 290.715646 
L 297.33862 290.968108 
L 298.97005 290.51174 
L 300.60148 290.036037 
L 302.23291 290.645182 
L 303.86434 290.862468 
L 305.49577 290.313402 
L 307.1272 290.177816 
L 308.75863 290.378184 
L 310.390059 290.700515 
L 312.021489 291.909013 
L 313.652919 290.352127 
L 315.284349 290.156941 
L 316.915779 290.850244 
L 318.547209 290.41423 
L 320.178639 290.146375 
L 321.810069 290.117025 
L 323.441498 290.79538 
L 325.072928 291.423692 
L 326.704358 290.518996 
L 328.335788 288.777621 
L 329.967218 290.405244 
L 331.598648 289.30683 
L 333.230078 289.088502 
L 334.861508 290.009787 
L 336.492937 290.284581 
L 338.124367 289.986061 
L 339.755797 290.382464 
L 341.387227 290.744185 
L 343.018657 290.545771 
L 344.650087 289.872649 
L 346.281517 290.303125 
L 347.912947 289.850229 
L 349.544376 290.690435 
L 351.175806 292.332211 
L 352.807236 291.698836 
L 354.438666 291.465301 
L 356.070096 291.426502 
L 357.701526 290.362301 
L 359.332956 290.278665 
L 360.964386 292.655191 
L 362.595815 291.011805 
L 364.227245 290.326588 
L 365.858675 290.392011 
L 367.490105 290.523547 
L 369.121535 291.895147 
L 370.752965 290.711282 
L 372.384395 289.376763 
L 374.015825 293.834402 
L 375.647254 291.862981 
L 377.278684 292.157605 
L 378.910114 290.640612 
L 380.541544 291.203596 
L 382.172974 290.210856 
L 383.804404 291.264163 
L 385.435834 289.867654 
L 387.067264 292.11992 
L 388.698693 291.878057 
L 390.330123 290.651724 
L 391.961553 290.608439 
L 393.592983 292.76576 
L 395.224413 290.232384 
L 396.855843 290.963813 
L 398.487273 290.368123 
L 398.487273 269.262325 
L 398.487273 269.262325 
L 396.855843 288.562722 
L 395.224413 285.74587 
L 393.592983 284.025366 
L 391.961553 266.217909 
L 390.330123 278.00906 
L 388.698693 283.873955 
L 387.067264 279.927008 
L 385.435834 264.331953 
L 383.804404 261.66902 
L 382.172974 246.527489 
L 380.541544 288.676021 
L 378.910114 280.974389 
L 377.278684 288.57228 
L 375.647254 286.826461 
L 374.015825 286.972759 
L 372.384395 245.328064 
L 370.752965 274.245725 
L 369.121535 286.823945 
L 367.490105 286.336058 
L 365.858675 288.596231 
L 364.227245 286.674642 
L 362.595815 260.637682 
L 360.964386 255.035831 
L 359.332956 253.774382 
L 357.701526 288.760333 
L 356.070096 277.472153 
L 354.438666 289.839246 
L 352.807236 276.051851 
L 351.175806 262.391066 
L 349.544376 242.787726 
L 347.912947 241.247911 
L 346.281517 263.333213 
L 344.650087 254.391237 
L 343.018657 280.388969 
L 341.387227 242.547263 
L 339.755797 240.02369 
L 338.124367 212.108047 
L 336.492937 244.923096 
L 334.861508 243.49276 
L 333.230078 236.377682 
L 331.598648 262.888906 
L 329.967218 264.848968 
L 328.335788 221.501581 
L 326.704358 265.337235 
L 325.072928 287.96544 
L 323.441498 269.365461 
L 321.810069 257.628112 
L 320.178639 260.802638 
L 318.547209 265.874497 
L 316.915779 286.981891 
L 315.284349 261.555013 
L 313.652919 258.55912 
L 312.021489 272.741882 
L 310.390059 280.176692 
L 308.75863 255.16054 
L 307.1272 269.103096 
L 305.49577 234.713176 
L 303.86434 264.812276 
L 302.23291 251.259451 
L 300.60148 249.390905 
L 298.97005 238.542593 
L 297.33862 269.624662 
L 295.70719 254.045894 
L 294.075761 256.897599 
L 292.444331 269.086951 
L 290.812901 211.239321 
L 289.181471 234.61008 
L 287.550041 245.522251 
L 285.918611 261.026963 
L 284.287181 228.901414 
L 282.655751 280.975504 
L 281.024322 285.646956 
L 279.392892 287.871508 
L 277.761462 258.176921 
L 276.130032 252.78461 
L 274.498602 287.824205 
L 272.867172 267.097434 
L 271.235742 271.991762 
L 269.604312 288.874545 
L 267.972883 289.142774 
L 266.341453 288.939625 
L 264.710023 289.00368 
L 263.078593 289.076131 
L 261.447163 289.114166 
L 259.815733 288.746268 
L 258.184303 289.01807 
L 256.552873 288.412217 
L 254.921444 288.3245 
L 253.290014 288.378768 
L 251.658584 288.253129 
L 250.027154 288.18127 
L 248.395724 288.180869 
L 246.764294 288.181392 
L 245.132864 288.190263 
L 243.501434 288.180869 
L 241.870005 288.180869 
L 240.238575 288.180869 
L 238.607145 288.180869 
L 236.975715 288.182494 
L 235.344285 288.180869 
L 233.712855 288.182556 
L 232.081425 288.180869 
L 230.449995 288.180869 
L 228.818566 288.185895 
L 227.187136 288.180869 
L 225.555706 288.180869 
L 223.924276 288.180869 
L 222.292846 288.180869 
L 220.661416 288.180869 
L 219.029986 288.180869 
L 217.398556 288.180869 
L 215.767127 288.180869 
L 214.135697 288.180869 
L 212.504267 288.180869 
L 210.872837 288.180869 
L 209.241407 288.180869 
L 207.609977 288.180869 
L 205.978547 288.213194 
L 204.347117 288.180869 
L 202.715688 288.180869 
L 201.084258 288.180877 
L 199.452828 288.180869 
L 197.821398 288.180869 
L 196.189968 288.180869 
L 194.558538 288.180869 
L 192.927108 288.180869 
L 191.295678 288.180869 
L 189.664249 288.180869 
L 188.032819 288.180869 
L 186.401389 288.180869 
L 184.769959 289.153427 
L 183.138529 288.180869 
L 181.507099 288.180869 
L 179.875669 288.180869 
L 178.244239 288.180869 
L 176.61281 288.180869 
L 174.98138 288.180869 
L 173.34995 288.180869 
L 171.71852 288.180869 
L 170.08709 288.180869 
L 168.45566 288.180869 
L 166.82423 288.180869 
L 165.1928 288.180869 
L 163.56137 288.180869 
L 161.929941 288.180869 
L 160.298511 288.180869 
L 158.667081 288.180869 
L 157.035651 288.180869 
L 155.404221 288.180869 
L 153.772791 288.180869 
L 152.141361 288.180869 
L 150.509931 288.180869 
L 148.878502 288.180869 
L 147.247072 288.180869 
L 145.615642 288.180869 
L 143.984212 288.180869 
L 142.352782 288.180869 
L 140.721352 288.180869 
L 139.089922 288.180869 
L 137.458492 288.180869 
L 135.827063 288.180869 
L 134.195633 288.180869 
L 132.564203 288.180869 
L 130.932773 288.180869 
L 129.301343 288.180869 
L 127.669913 288.180869 
L 126.038483 288.180869 
L 124.407053 288.180869 
L 122.775624 289.153427 
L 121.144194 288.180869 
L 119.512764 288.180869 
L 117.881334 288.180869 
L 116.249904 288.180869 
L 114.618474 288.910288 
L 112.987044 288.180869 
L 111.355614 288.180869 
L 109.724185 288.180869 
L 108.092755 288.180869 
L 106.461325 288.180869 
L 104.829895 288.180869 
L 103.198465 288.180869 
L 101.567035 288.180869 
L 99.935605 288.180869 
L 98.304175 288.180869 
L 96.672746 288.180869 
L 95.041316 288.180869 
L 93.409886 288.180869 
L 91.778456 288.180869 
L 90.147026 288.180869 
L 88.515596 288.180869 
L 86.884166 288.180869 
L 85.252736 288.180869 
L 83.621307 288.180869 
L 81.989877 288.180869 
L 80.358447 288.180869 
L 78.727017 288.180869 
L 77.095587 288.180869 
L 75.464157 288.180869 
L 73.832727 288.180869 
z
" style="fill:#1f77b4;fill-opacity:0.2;"/>
   </g>
   <g id="PolyCollection_2">
    <path clip-path="url(#pba911daa69)" d="M 73.832727 288.180869 
L 73.832727 289.466469 
L 75.464157 289.466469 
L 77.095587 289.466469 
L 78.727017 289.466469 
L 80.358447 289.466469 
L 81.989877 289.466469 
L 83.621307 289.466469 
L 85.252736 289.466469 
L 86.884166 289.466469 
L 88.515596 289.466469 
L 90.147026 289.466469 
L 91.778456 289.466469 
L 93.409886 289.466469 
L 95.041316 289.466469 
L 96.672746 289.466469 
L 98.304175 289.466469 
L 99.935605 289.466469 
L 101.567035 289.466469 
L 103.198465 289.466469 
L 104.829895 289.466469 
L 106.461325 289.466469 
L 108.092755 289.466469 
L 109.724185 289.466469 
L 111.355614 289.466469 
L 112.987044 289.466469 
L 114.618474 289.466469 
L 116.249904 289.466469 
L 117.881334 289.466469 
L 119.512764 289.466469 
L 121.144194 289.466469 
L 122.775624 289.466469 
L 124.407053 289.466469 
L 126.038483 289.466469 
L 127.669913 289.466469 
L 129.301343 289.466469 
L 130.932773 289.466469 
L 132.564203 289.466469 
L 134.195633 289.466469 
L 135.827063 289.466469 
L 137.458492 289.466469 
L 139.089922 289.466469 
L 140.721352 289.466469 
L 142.352782 289.466469 
L 143.984212 289.466469 
L 145.615642 289.466469 
L 147.247072 289.466469 
L 148.878502 289.466469 
L 150.509931 289.466469 
L 152.141361 289.466469 
L 153.772791 289.466469 
L 155.404221 289.466469 
L 157.035651 289.466469 
L 158.667081 289.466469 
L 160.298511 289.466469 
L 161.929941 289.466469 
L 163.56137 289.466469 
L 165.1928 289.466469 
L 166.82423 289.466469 
L 168.45566 289.466469 
L 170.08709 289.466469 
L 171.71852 289.466469 
L 173.34995 289.466469 
L 174.98138 289.466469 
L 176.61281 289.466469 
L 178.244239 289.466469 
L 179.875669 289.466469 
L 181.507099 289.466469 
L 183.138529 289.466469 
L 184.769959 289.466469 
L 186.401389 289.466469 
L 188.032819 289.466469 
L 189.664249 289.466469 
L 191.295678 289.466469 
L 192.927108 289.466469 
L 194.558538 289.466469 
L 196.189968 289.466469 
L 197.821398 289.466469 
L 199.452828 289.466469 
L 201.084258 289.466469 
L 202.715688 289.466469 
L 204.347117 289.466469 
L 205.978547 289.466469 
L 207.609977 289.466469 
L 209.241407 289.466469 
L 210.872837 289.466469 
L 212.504267 289.466469 
L 214.135697 289.466469 
L 215.767127 289.466469 
L 217.398556 289.466469 
L 219.029986 289.466469 
L 220.661416 289.466469 
L 222.292846 289.466469 
L 223.924276 289.466469 
L 225.555706 289.466469 
L 227.187136 289.466469 
L 228.818566 289.466469 
L 230.449995 289.466469 
L 232.081425 289.466469 
L 233.712855 289.466469 
L 235.344285 289.466469 
L 236.975715 289.466469 
L 238.607145 289.466469 
L 240.238575 289.466469 
L 241.870005 289.466469 
L 243.501434 289.466469 
L 245.132864 289.466469 
L 246.764294 289.466469 
L 248.395724 289.466469 
L 250.027154 289.466469 
L 251.658584 289.466469 
L 253.290014 289.466469 
L 254.921444 289.506263 
L 256.552873 289.758594 
L 258.184303 289.754411 
L 259.815733 290.381567 
L 261.447163 290.74358 
L 263.078593 290.487551 
L 264.710023 290.815468 
L 266.341453 290.752014 
L 267.972883 291.087097 
L 269.604312 291.064792 
L 271.235742 291.126526 
L 272.867172 291.966145 
L 274.498602 291.924094 
L 276.130032 291.915515 
L 277.761462 291.889785 
L 279.392892 291.851975 
L 281.024322 292.362557 
L 282.655751 292.155876 
L 284.287181 291.906333 
L 285.918611 292.203381 
L 287.550041 291.981255 
L 289.181471 292.190119 
L 290.812901 291.985527 
L 292.444331 292.056818 
L 294.075761 291.978455 
L 295.70719 292.183882 
L 297.33862 292.343126 
L 298.97005 291.953093 
L 300.60148 292.089522 
L 302.23291 292.422107 
L 303.86434 292.390642 
L 305.49577 291.970556 
L 307.1272 291.998434 
L 308.75863 292.145292 
L 310.390059 292.384897 
L 312.021489 292.69171 
L 313.652919 291.998314 
L 315.284349 292.016373 
L 316.915779 291.979087 
L 318.547209 291.977528 
L 320.178639 291.962467 
L 321.810069 292.180939 
L 323.441498 292.452243 
L 325.072928 292.98352 
L 326.704358 292.355983 
L 328.335788 291.565673 
L 329.967218 291.561423 
L 331.598648 291.432237 
L 333.230078 291.398591 
L 334.861508 293.94842 
L 336.492937 292.085652 
L 338.124367 292.617292 
L 339.755797 292.759674 
L 341.387227 292.969673 
L 343.018657 293.822495 
L 344.650087 292.404067 
L 346.281517 292.394395 
L 347.912947 292.283968 
L 349.544376 293.454065 
L 351.175806 294.779482 
L 352.807236 292.686916 
L 354.438666 292.820905 
L 356.070096 292.661161 
L 357.701526 292.578931 
L 359.332956 292.531107 
L 360.964386 294.896927 
L 362.595815 293.483113 
L 364.227245 292.568739 
L 365.858675 292.49785 
L 367.490105 292.468594 
L 369.121535 295.198228 
L 370.752965 292.814951 
L 372.384395 292.370618 
L 374.015825 295.488 
L 375.647254 293.375818 
L 377.278684 293.528173 
L 378.910114 293.271745 
L 380.541544 293.211978 
L 382.172974 293.102352 
L 383.804404 294.624871 
L 385.435834 293.0253 
L 387.067264 293.010118 
L 388.698693 293.521047 
L 390.330123 292.954209 
L 391.961553 293.29547 
L 393.592983 294.599355 
L 395.224413 292.835561 
L 396.855843 292.79192 
L 398.487273 292.732832 
L 398.487273 142.425857 
L 398.487273 142.425857 
L 396.855843 245.264917 
L 395.224413 210.652024 
L 393.592983 167.142907 
L 391.961553 94.318883 
L 390.330123 72.748054 
L 388.698693 176.18728 
L 387.067264 172.912004 
L 385.435834 144.945641 
L 383.804404 162.066192 
L 382.172974 69.807979 
L 380.541544 145.455604 
L 378.910114 210.142128 
L 377.278684 226.123292 
L 375.647254 126.781418 
L 374.015825 83.230902 
L 372.384395 53.568 
L 370.752965 193.445729 
L 369.121535 160.325371 
L 367.490105 104.908361 
L 365.858675 138.645355 
L 364.227245 240.496487 
L 362.595815 99.921069 
L 360.964386 91.883381 
L 359.332956 56.456819 
L 357.701526 141.912248 
L 356.070096 152.631021 
L 354.438666 214.53632 
L 352.807236 170.015611 
L 351.175806 172.307705 
L 349.544376 100.488652 
L 347.912947 66.039514 
L 346.281517 184.5683 
L 344.650087 168.342215 
L 343.018657 147.095239 
L 341.387227 66.840026 
L 339.755797 105.488207 
L 338.124367 53.568 
L 336.492937 109.998332 
L 334.861508 66.227931 
L 333.230078 121.183237 
L 331.598648 162.691271 
L 329.967218 91.214045 
L 328.335788 138.968471 
L 326.704358 89.742473 
L 325.072928 146.967435 
L 323.441498 150.025301 
L 321.810069 96.811891 
L 320.178639 102.353735 
L 318.547209 192.435831 
L 316.915779 139.300532 
L 315.284349 97.397082 
L 313.652919 74.014142 
L 312.021489 155.526876 
L 310.390059 167.666466 
L 308.75863 103.705585 
L 307.1272 112.083913 
L 305.49577 65.498241 
L 303.86434 118.159496 
L 302.23291 158.496541 
L 300.60148 96.243262 
L 298.97005 53.568 
L 297.33862 153.899319 
L 295.70719 76.570549 
L 294.075761 139.560727 
L 292.444331 145.136465 
L 290.812901 99.772442 
L 289.181471 184.89022 
L 287.550041 125.920115 
L 285.918611 129.042345 
L 284.287181 107.703934 
L 282.655751 133.807397 
L 281.024322 188.956134 
L 279.392892 158.835705 
L 277.761462 102.390325 
L 276.130032 58.100863 
L 274.498602 100.367927 
L 272.867172 100.418931 
L 271.235742 55.167519 
L 269.604312 208.774992 
L 267.972883 146.701165 
L 266.341453 179.250358 
L 264.710023 207.172288 
L 263.078593 232.403547 
L 261.447163 219.596903 
L 259.815733 90.046691 
L 258.184303 231.897129 
L 256.552873 232.971213 
L 254.921444 267.699112 
L 253.290014 244.137377 
L 251.658584 203.28057 
L 250.027154 211.176646 
L 248.395724 189.482418 
L 246.764294 288.180869 
L 245.132864 207.23191 
L 243.501434 171.656998 
L 241.870005 228.639591 
L 240.238575 192.62944 
L 238.607145 242.586776 
L 236.975715 198.619535 
L 235.344285 238.742986 
L 233.712855 193.741558 
L 232.081425 229.983196 
L 230.449995 288.180869 
L 228.818566 194.331762 
L 227.187136 218.050177 
L 225.555706 288.180258 
L 223.924276 255.841402 
L 222.292846 232.471182 
L 220.661416 197.58886 
L 219.029986 224.340886 
L 217.398556 247.744267 
L 215.767127 228.074554 
L 214.135697 201.230721 
L 212.504267 205.707207 
L 210.872837 213.172753 
L 209.241407 202.701811 
L 207.609977 244.199705 
L 205.978547 215.424685 
L 204.347117 251.029905 
L 202.715688 209.314673 
L 201.084258 255.401793 
L 199.452828 270.623987 
L 197.821398 288.180869 
L 196.189968 288.180869 
L 194.558538 288.180869 
L 192.927108 288.180869 
L 191.295678 288.180869 
L 189.664249 288.180869 
L 188.032819 288.180869 
L 186.401389 288.180869 
L 184.769959 288.180869 
L 183.138529 288.180869 
L 181.507099 288.180869 
L 179.875669 288.180869 
L 178.244239 288.180869 
L 176.61281 288.180869 
L 174.98138 288.180869 
L 173.34995 288.180869 
L 171.71852 288.180869 
L 170.08709 288.180869 
L 168.45566 288.180869 
L 166.82423 288.180869 
L 165.1928 288.180869 
L 163.56137 288.180869 
L 161.929941 288.180869 
L 160.298511 288.180869 
L 158.667081 288.180869 
L 157.035651 288.180869 
L 155.404221 288.180869 
L 153.772791 288.180869 
L 152.141361 288.180869 
L 150.509931 288.180869 
L 148.878502 288.180869 
L 147.247072 288.180869 
L 145.615642 288.180869 
L 143.984212 288.180869 
L 142.352782 288.180869 
L 140.721352 288.180869 
L 139.089922 288.180869 
L 137.458492 288.180869 
L 135.827063 288.180869 
L 134.195633 288.180869 
L 132.564203 288.180869 
L 130.932773 288.180869 
L 129.301343 288.180869 
L 127.669913 288.180869 
L 126.038483 288.180869 
L 124.407053 288.180869 
L 122.775624 288.180869 
L 121.144194 288.180869 
L 119.512764 288.180869 
L 117.881334 288.180869 
L 116.249904 288.180869 
L 114.618474 288.180869 
L 112.987044 288.180869 
L 111.355614 288.180869 
L 109.724185 288.180869 
L 108.092755 288.180869 
L 106.461325 288.180869 
L 104.829895 288.180869 
L 103.198465 288.180869 
L 101.567035 288.180869 
L 99.935605 288.180869 
L 98.304175 288.180869 
L 96.672746 288.180869 
L 95.041316 288.180869 
L 93.409886 288.180869 
L 91.778456 288.180869 
L 90.147026 288.180869 
L 88.515596 288.180869 
L 86.884166 288.180869 
L 85.252736 288.180869 
L 83.621307 288.180869 
L 81.989877 288.180869 
L 80.358447 288.180869 
L 78.727017 288.180869 
L 77.095587 288.180869 
L 75.464157 288.180869 
L 73.832727 288.180869 
z
" style="fill:#1f77b4;fill-opacity:0.1;"/>
   </g>
   <g id="matplotlib.axis_1">
    <g id="xtick_1">
     <g id="line2d_1">
      <defs>
       <path d="M 0 0 
L 0 3.5 
" id="m54e74b7dcb" style="stroke:#000000;stroke-width:0.8;"/>
      </defs>
      <g>
       <use style="stroke:#000000;stroke-width:0.8;" x="73.832727" xlink:href="#m54e74b7dcb" y="307.584"/>
      </g>
     </g>
     <g id="text_1">
      <!-- 0 -->
      <defs>
       <path d="M 31.78125 66.40625 
Q 24.171875 66.40625 20.328125 58.90625 
Q 16.5 51.421875 16.5 36.375 
Q 16.5 21.390625 20.328125 13.890625 
Q 24.171875 6.390625 31.78125 6.390625 
Q 39.453125 6.390625 43.28125 13.890625 
Q 47.125 21.390625 47.125 36.375 
Q 47.125 51.421875 43.28125 58.90625 
Q 39.453125 66.40625 31.78125 66.40625 
z
M 31.78125 74.21875 
Q 44.046875 74.21875 50.515625 64.515625 
Q 56.984375 54.828125 56.984375 36.375 
Q 56.984375 17.96875 50.515625 8.265625 
Q 44.046875 -1.421875 31.78125 -1.421875 
Q 19.53125 -1.421875 13.0625 8.265625 
Q 6.59375 17.96875 6.59375 36.375 
Q 6.59375 54.828125 13.0625 64.515625 
Q 19.53125 74.21875 31.78125 74.21875 
z
" id="DejaVuSans-48"/>
      </defs>
      <g transform="translate(70.651477 322.182437)scale(0.1 -0.1)">
       <use xlink:href="#DejaVuSans-48"/>
      </g>
     </g>
    </g>
    <g id="xtick_2">
     <g id="line2d_2">
      <g>
       <use style="stroke:#000000;stroke-width:0.8;" x="114.618474" xlink:href="#m54e74b7dcb" y="307.584"/>
      </g>
     </g>
     <g id="text_2">
      <!-- 25 -->
      <defs>
       <path d="M 19.1875 8.296875 
L 53.609375 8.296875 
L 53.609375 0 
L 7.328125 0 
L 7.328125 8.296875 
Q 12.9375 14.109375 22.625 23.890625 
Q 32.328125 33.6875 34.8125 36.53125 
Q 39.546875 41.84375 41.421875 45.53125 
Q 43.3125 49.21875 43.3125 52.78125 
Q 43.3125 58.59375 39.234375 62.25 
Q 35.15625 65.921875 28.609375 65.921875 
Q 23.96875 65.921875 18.8125 64.3125 
Q 13.671875 62.703125 7.8125 59.421875 
L 7.8125 69.390625 
Q 13.765625 71.78125 18.9375 73 
Q 24.125 74.21875 28.421875 74.21875 
Q 39.75 74.21875 46.484375 68.546875 
Q 53.21875 62.890625 53.21875 53.421875 
Q 53.21875 48.921875 51.53125 44.890625 
Q 49.859375 40.875 45.40625 35.40625 
Q 44.1875 33.984375 37.640625 27.21875 
Q 31.109375 20.453125 19.1875 8.296875 
z
" id="DejaVuSans-50"/>
       <path d="M 10.796875 72.90625 
L 49.515625 72.90625 
L 49.515625 64.59375 
L 19.828125 64.59375 
L 19.828125 46.734375 
Q 21.96875 47.46875 24.109375 47.828125 
Q 26.265625 48.1875 28.421875 48.1875 
Q 40.625 48.1875 47.75 41.5 
Q 54.890625 34.8125 54.890625 23.390625 
Q 54.890625 11.625 47.5625 5.09375 
Q 40.234375 -1.421875 26.90625 -1.421875 
Q 22.3125 -1.421875 17.546875 -0.640625 
Q 12.796875 0.140625 7.71875 1.703125 
L 7.71875 11.625 
Q 12.109375 9.234375 16.796875 8.0625 
Q 21.484375 6.890625 26.703125 6.890625 
Q 35.15625 6.890625 40.078125 11.328125 
Q 45.015625 15.765625 45.015625 23.390625 
Q 45.015625 31 40.078125 35.4375 
Q 35.15625 39.890625 26.703125 39.890625 
Q 22.75 39.890625 18.8125 39.015625 
Q 14.890625 38.140625 10.796875 36.28125 
z
" id="DejaVuSans-53"/>
      </defs>
      <g transform="translate(108.255974 322.182437)scale(0.1 -0.1)">
       <use xlink:href="#DejaVuSans-50"/>
       <use x="63.623047" xlink:href="#DejaVuSans-53"/>
      </g>
     </g>
    </g>
    <g id="xtick_3">
     <g id="line2d_3">
      <g>
       <use style="stroke:#000000;stroke-width:0.8;" x="155.404221" xlink:href="#m54e74b7dcb" y="307.584"/>
      </g>
     </g>
     <g id="text_3">
      <!-- 50 -->
      <g transform="translate(149.041721 322.182437)scale(0.1 -0.1)">
       <use xlink:href="#DejaVuSans-53"/>
       <use x="63.623047" xlink:href="#DejaVuSans-48"/>
      </g>
     </g>
    </g>
    <g id="xtick_4">
     <g id="line2d_4">
      <g>
       <use style="stroke:#000000;stroke-width:0.8;" x="196.189968" xlink:href="#m54e74b7dcb" y="307.584"/>
      </g>
     </g>
     <g id="text_4">
      <!-- 75 -->
      <defs>
       <path d="M 8.203125 72.90625 
L 55.078125 72.90625 
L 55.078125 68.703125 
L 28.609375 0 
L 18.3125 0 
L 43.21875 64.59375 
L 8.203125 64.59375 
z
" id="DejaVuSans-55"/>
      </defs>
      <g transform="translate(189.827468 322.182437)scale(0.1 -0.1)">
       <use xlink:href="#DejaVuSans-55"/>
       <use x="63.623047" xlink:href="#DejaVuSans-53"/>
      </g>
     </g>
    </g>
    <g id="xtick_5">
     <g id="line2d_5">
      <g>
       <use style="stroke:#000000;stroke-width:0.8;" x="236.975715" xlink:href="#m54e74b7dcb" y="307.584"/>
      </g>
     </g>
     <g id="text_5">
      <!-- 100 -->
      <defs>
       <path d="M 12.40625 8.296875 
L 28.515625 8.296875 
L 28.515625 63.921875 
L 10.984375 60.40625 
L 10.984375 69.390625 
L 28.421875 72.90625 
L 38.28125 72.90625 
L 38.28125 8.296875 
L 54.390625 8.296875 
L 54.390625 0 
L 12.40625 0 
z
" id="DejaVuSans-49"/>
      </defs>
      <g transform="translate(227.431965 322.182437)scale(0.1 -0.1)">
       <use xlink:href="#DejaVuSans-49"/>
       <use x="63.623047" xlink:href="#DejaVuSans-48"/>
       <use x="127.246094" xlink:href="#DejaVuSans-48"/>
      </g>
     </g>
    </g>
    <g id="xtick_6">
     <g id="line2d_6">
      <g>
       <use style="stroke:#000000;stroke-width:0.8;" x="277.761462" xlink:href="#m54e74b7dcb" y="307.584"/>
      </g>
     </g>
     <g id="text_6">
      <!-- 125 -->
      <g transform="translate(268.217712 322.182437)scale(0.1 -0.1)">
       <use xlink:href="#DejaVuSans-49"/>
       <use x="63.623047" xlink:href="#DejaVuSans-50"/>
       <use x="127.246094" xlink:href="#DejaVuSans-53"/>
      </g>
     </g>
    </g>
    <g id="xtick_7">
     <g id="line2d_7">
      <g>
       <use style="stroke:#000000;stroke-width:0.8;" x="318.547209" xlink:href="#m54e74b7dcb" y="307.584"/>
      </g>
     </g>
     <g id="text_7">
      <!-- 150 -->
      <g transform="translate(309.003459 322.182437)scale(0.1 -0.1)">
       <use xlink:href="#DejaVuSans-49"/>
       <use x="63.623047" xlink:href="#DejaVuSans-53"/>
       <use x="127.246094" xlink:href="#DejaVuSans-48"/>
      </g>
     </g>
    </g>
    <g id="xtick_8">
     <g id="line2d_8">
      <g>
       <use style="stroke:#000000;stroke-width:0.8;" x="359.332956" xlink:href="#m54e74b7dcb" y="307.584"/>
      </g>
     </g>
     <g id="text_8">
      <!-- 175 -->
      <g transform="translate(349.789206 322.182437)scale(0.1 -0.1)">
       <use xlink:href="#DejaVuSans-49"/>
       <use x="63.623047" xlink:href="#DejaVuSans-55"/>
       <use x="127.246094" xlink:href="#DejaVuSans-53"/>
      </g>
     </g>
    </g>
    <g id="xtick_9">
     <g id="line2d_9">
      <g>
       <use style="stroke:#000000;stroke-width:0.8;" x="400.118703" xlink:href="#m54e74b7dcb" y="307.584"/>
      </g>
     </g>
     <g id="text_9">
      <!-- 200 -->
      <g transform="translate(390.574953 322.182437)scale(0.1 -0.1)">
       <use xlink:href="#DejaVuSans-50"/>
       <use x="63.623047" xlink:href="#DejaVuSans-48"/>
       <use x="127.246094" xlink:href="#DejaVuSans-48"/>
      </g>
     </g>
    </g>
   </g>
   <g id="matplotlib.axis_2">
    <g id="ytick_1">
     <g id="line2d_10">
      <defs>
       <path d="M 0 0 
L -3.5 0 
" id="m12520bcc66" style="stroke:#000000;stroke-width:0.8;"/>
      </defs>
      <g>
       <use style="stroke:#000000;stroke-width:0.8;" x="57.6" xlink:href="#m12520bcc66" y="301.285602"/>
      </g>
     </g>
     <g id="text_10">
      <!-- 0 -->
      <g transform="translate(44.2375 305.084821)scale(0.1 -0.1)">
       <use xlink:href="#DejaVuSans-48"/>
      </g>
     </g>
    </g>
    <g id="ytick_2">
     <g id="line2d_11">
      <g>
       <use style="stroke:#000000;stroke-width:0.8;" x="57.6" xlink:href="#m12520bcc66" y="247.494408"/>
      </g>
     </g>
     <g id="text_11">
      <!-- 5 -->
      <g transform="translate(44.2375 251.293627)scale(0.1 -0.1)">
       <use xlink:href="#DejaVuSans-53"/>
      </g>
     </g>
    </g>
    <g id="ytick_3">
     <g id="line2d_12">
      <g>
       <use style="stroke:#000000;stroke-width:0.8;" x="57.6" xlink:href="#m12520bcc66" y="193.703214"/>
      </g>
     </g>
     <g id="text_12">
      <!-- 10 -->
      <g transform="translate(37.875 197.502433)scale(0.1 -0.1)">
       <use xlink:href="#DejaVuSans-49"/>
       <use x="63.623047" xlink:href="#DejaVuSans-48"/>
      </g>
     </g>
    </g>
    <g id="ytick_4">
     <g id="line2d_13">
      <g>
       <use style="stroke:#000000;stroke-width:0.8;" x="57.6" xlink:href="#m12520bcc66" y="139.912021"/>
      </g>
     </g>
     <g id="text_13">
      <!-- 15 -->
      <g transform="translate(37.875 143.711239)scale(0.1 -0.1)">
       <use xlink:href="#DejaVuSans-49"/>
       <use x="63.623047" xlink:href="#DejaVuSans-53"/>
      </g>
     </g>
    </g>
    <g id="ytick_5">
     <g id="line2d_14">
      <g>
       <use style="stroke:#000000;stroke-width:0.8;" x="57.6" xlink:href="#m12520bcc66" y="86.120827"/>
      </g>
     </g>
     <g id="text_14">
      <!-- 20 -->
      <g transform="translate(37.875 89.920046)scale(0.1 -0.1)">
       <use xlink:href="#DejaVuSans-50"/>
       <use x="63.623047" xlink:href="#DejaVuSans-48"/>
      </g>
     </g>
    </g>
   </g>
   <g id="line2d_15">
    <path clip-path="url(#pba911daa69)" d="M 73.832727 289.466469 
L 88.515596 289.466469 
L 90.147026 289.153427 
L 91.778456 289.466469 
L 96.672746 289.466469 
L 98.304175 289.153427 
L 99.935605 289.466469 
L 109.724185 289.466469 
L 111.355614 289.153427 
L 112.987044 289.466469 
L 124.407053 289.466469 
L 126.038483 289.153427 
L 127.669913 289.153427 
L 129.301343 289.466469 
L 139.089922 289.466469 
L 140.721352 289.153427 
L 142.352782 289.466469 
L 143.984212 289.153427 
L 145.615642 289.466469 
L 147.247072 289.466469 
L 148.878502 289.153427 
L 150.509931 289.466469 
L 152.141361 289.466469 
L 153.772791 289.309948 
L 155.404221 289.466469 
L 157.035651 289.153427 
L 158.667081 289.466469 
L 160.298511 289.153427 
L 161.929941 289.466469 
L 168.45566 289.466469 
L 170.08709 289.153427 
L 171.71852 289.153427 
L 173.34995 289.466469 
L 179.875669 289.466469 
L 181.507099 289.153427 
L 183.138529 289.466469 
L 184.769959 289.466469 
L 186.401389 289.309948 
L 188.032819 289.466469 
L 189.664249 289.466469 
L 191.295678 289.153427 
L 192.927108 289.466469 
L 194.558538 289.153427 
L 196.189968 289.466469 
L 199.452828 289.153427 
L 201.084258 289.466469 
L 202.715688 289.153427 
L 204.347117 289.153427 
L 205.978547 289.466469 
L 215.767127 289.466469 
L 217.398556 289.153427 
L 219.029986 289.466469 
L 222.292846 289.466469 
L 223.924276 289.153427 
L 225.555706 289.466469 
L 227.187136 289.309948 
L 228.818566 289.466469 
L 232.081425 289.466469 
L 233.712855 289.153427 
L 240.238575 289.153427 
L 241.870005 288.685794 
L 243.501434 289.153427 
L 245.132864 289.153427 
L 246.764294 289.294532 
L 248.395724 288.247658 
L 250.027154 289.153427 
L 251.658584 289.153427 
L 254.921444 288.577096 
L 259.815733 289.473372 
L 264.710023 289.825872 
L 266.341453 289.521997 
L 267.972883 289.515716 
L 269.604312 289.802563 
L 271.235742 289.593696 
L 272.867172 289.008949 
L 274.498602 288.906492 
L 276.130032 288.302204 
L 277.761462 288.234612 
L 279.392892 289.139149 
L 281.024322 289.596774 
L 282.655751 288.771814 
L 284.287181 287.810207 
L 285.918611 288.773568 
L 287.550041 277.529189 
L 289.181471 288.769395 
L 290.812901 288.228171 
L 292.444331 289.258856 
L 294.075761 289.870069 
L 295.70719 289.155583 
L 297.33862 289.618285 
L 298.97005 287.680093 
L 300.60148 286.510063 
L 302.23291 288.883987 
L 303.86434 289.060248 
L 305.49577 289.060029 
L 307.1272 288.584709 
L 308.75863 287.325146 
L 310.390059 289.496211 
L 313.652919 287.518688 
L 315.284349 288.504598 
L 316.915779 289.702273 
L 318.547209 288.973597 
L 320.178639 288.677985 
L 321.810069 266.629146 
L 323.441498 289.409282 
L 325.072928 290.596939 
L 326.704358 271.35344 
L 328.335788 228.145974 
L 329.967218 289.007315 
L 331.598648 281.0168 
L 333.230078 259.63296 
L 334.861508 259.73151 
L 336.492937 263.726117 
L 338.124367 257.716336 
L 339.755797 289.111308 
L 341.387227 289.13948 
L 343.018657 287.992809 
L 344.650087 286.376045 
L 346.281517 289.306116 
L 347.912947 258.369164 
L 349.544376 285.555163 
L 351.175806 290.081113 
L 352.807236 290.127549 
L 354.438666 290.567303 
L 356.070096 289.87665 
L 357.701526 289.677226 
L 359.332956 288.953624 
L 360.964386 289.807812 
L 362.595815 290.06424 
L 364.227245 289.621005 
L 365.858675 289.991413 
L 369.121535 290.182908 
L 370.752965 289.639055 
L 372.384395 283.049506 
L 374.015825 290.654102 
L 375.647254 290.274101 
L 377.278684 290.581913 
L 380.541544 289.652558 
L 382.172974 288.700626 
L 383.804404 288.712548 
L 385.435834 289.27634 
L 387.067264 290.83094 
L 390.330123 289.714196 
L 391.961553 289.102724 
L 393.592983 290.3996 
L 395.224413 289.562894 
L 396.855843 290.219948 
L 398.487273 289.542896 
L 398.487273 289.542896 
" style="fill:none;stroke:#1f77b4;stroke-linecap:square;stroke-width:0.25;"/>
   </g>
   <g id="line2d_16">
    <path clip-path="url(#pba911daa69)" d="M 73.832727 289.011251 
L 83.621307 288.969218 
L 85.252736 289.085257 
L 86.884166 288.959493 
L 88.515596 289.024107 
L 90.147026 288.963292 
L 93.409886 289.030033 
L 99.935605 288.985205 
L 101.567035 288.972683 
L 103.198465 289.071732 
L 108.092755 288.956362 
L 109.724185 289.066474 
L 111.355614 288.93758 
L 114.618474 289.104373 
L 116.249904 289.00186 
L 124.407053 289.033833 
L 127.669913 288.960161 
L 130.932773 289.017512 
L 143.984212 288.892417 
L 145.615642 289.088387 
L 150.509931 289.020642 
L 155.404221 289.017512 
L 161.929941 288.985539 
L 171.71852 288.979613 
L 173.34995 289.049485 
L 174.98138 289.001525 
L 176.61281 289.071732 
L 178.244239 288.946637 
L 179.875669 289.043558 
L 181.507099 288.957031 
L 184.769959 289.149537 
L 188.032819 289.004656 
L 192.927108 288.985205 
L 194.558538 288.888617 
L 197.821398 288.969553 
L 201.084258 288.714097 
L 202.715688 287.010941 
L 204.347117 288.601573 
L 205.978547 287.288117 
L 207.609977 288.138629 
L 210.872837 287.590207 
L 212.504267 287.757926 
L 214.135697 287.721093 
L 215.767127 288.254438 
L 217.398556 287.957958 
L 219.029986 288.001052 
L 220.661416 286.493468 
L 222.292846 288.195831 
L 225.555706 289.05302 
L 227.187136 287.902863 
L 228.818566 288.01516 
L 230.449995 289.000992 
L 232.081425 288.138162 
L 235.344285 287.752353 
L 236.975715 286.615229 
L 238.607145 287.855178 
L 240.238575 286.353236 
L 241.870005 287.751061 
L 243.501434 286.139763 
L 245.132864 286.904114 
L 246.764294 288.957699 
L 248.395724 284.110483 
L 250.027154 287.253358 
L 251.658584 286.713967 
L 253.290014 287.320298 
L 254.921444 288.081059 
L 256.552873 287.301407 
L 258.184303 287.039211 
L 259.815733 280.525347 
L 261.447163 285.872218 
L 263.078593 285.307272 
L 264.710023 286.287521 
L 266.341453 285.667797 
L 267.972883 287.499689 
L 269.604312 286.488379 
L 271.235742 262.931248 
L 272.867172 270.27923 
L 274.498602 270.801601 
L 276.130032 258.277411 
L 277.761462 266.876244 
L 279.392892 280.717995 
L 281.024322 279.98098 
L 282.655751 273.108601 
L 284.287181 261.366841 
L 285.918611 271.282164 
L 287.550041 265.31535 
L 289.181471 266.08835 
L 290.812901 257.337552 
L 292.444331 272.909203 
L 294.075761 271.4424 
L 295.70719 272.351301 
L 297.33862 274.34587 
L 298.97005 265.493832 
L 300.60148 267.414099 
L 302.23291 274.57552 
L 303.86434 272.454411 
L 305.49577 261.984035 
L 307.1272 275.281158 
L 308.75863 264.015819 
L 310.390059 283.052197 
L 313.652919 266.528234 
L 315.284349 270.282854 
L 316.915779 280.047898 
L 318.547209 276.706086 
L 320.178639 269.334534 
L 321.810069 260.71594 
L 323.441498 276.424833 
L 325.072928 283.580786 
L 326.704358 269.817243 
L 328.335788 243.329401 
L 329.967218 266.811338 
L 331.598648 269.928347 
L 333.230078 253.586818 
L 334.861508 253.61789 
L 336.492937 257.180092 
L 338.124367 239.737905 
L 339.755797 263.045506 
L 341.387227 259.063248 
L 343.018657 277.017478 
L 344.650087 270.043186 
L 346.281517 272.981849 
L 347.912947 258.587704 
L 349.544376 257.833518 
L 351.175806 272.625399 
L 352.807236 278.019475 
L 354.438666 287.501834 
L 356.070096 271.504257 
L 357.701526 278.649905 
L 359.332956 261.557818 
L 360.964386 264.344286 
L 362.595815 271.369169 
L 364.227245 285.461554 
L 365.858675 278.160708 
L 367.490105 275.288263 
L 369.121535 278.153112 
L 370.752965 277.170778 
L 372.384395 253.632394 
L 374.015825 276.628068 
L 375.647254 276.097548 
L 377.278684 285.582685 
L 378.910114 281.277603 
L 380.541544 275.985292 
L 382.172974 261.53125 
L 383.804404 272.566426 
L 385.435834 271.681992 
L 387.067264 280.986204 
L 388.698693 278.578439 
L 390.330123 269.554488 
L 391.961553 269.527379 
L 393.592983 281.11919 
L 395.224413 280.322057 
L 396.855843 287.64842 
L 398.487273 273.118434 
L 398.487273 273.118434 
" style="fill:none;stroke:#2ca02c;stroke-linecap:square;stroke-width:0.75;"/>
   </g>
   <g id="patch_3">
    <path d="M 57.6 307.584 
L 57.6 41.472 
" style="fill:none;stroke:#000000;stroke-linecap:square;stroke-linejoin:miter;stroke-width:0.8;"/>
   </g>
   <g id="patch_4">
    <path d="M 414.72 307.584 
L 414.72 41.472 
" style="fill:none;stroke:#000000;stroke-linecap:square;stroke-linejoin:miter;stroke-width:0.8;"/>
   </g>
   <g id="patch_5">
    <path d="M 57.6 307.584 
L 414.72 307.584 
" style="fill:none;stroke:#000000;stroke-linecap:square;stroke-linejoin:miter;stroke-width:0.8;"/>
   </g>
   <g id="patch_6">
    <path d="M 57.6 41.472 
L 414.72 41.472 
" style="fill:none;stroke:#000000;stroke-linecap:square;stroke-linejoin:miter;stroke-width:0.8;"/>
   </g>
   <g id="legend_1">
    <g id="patch_7">
     <path d="M 338.234063 78.82825 
L 407.72 78.82825 
Q 409.72 78.82825 409.72 76.82825 
L 409.72 48.472 
Q 409.72 46.472 407.72 46.472 
L 338.234063 46.472 
Q 336.234063 46.472 336.234063 48.472 
L 336.234063 76.82825 
Q 336.234063 78.82825 338.234063 78.82825 
z
" style="fill:#ffffff;opacity:0.8;stroke:#cccccc;stroke-linejoin:miter;"/>
    </g>
    <g id="line2d_17">
     <path d="M 340.234063 54.570437 
L 360.234063 54.570437 
" style="fill:none;stroke:#1f77b4;stroke-linecap:square;stroke-width:0.25;"/>
    </g>
    <g id="line2d_18"/>
    <g id="text_15">
     <!-- median -->
     <defs>
      <path d="M 52 44.1875 
Q 55.375 50.25 60.0625 53.125 
Q 64.75 56 71.09375 56 
Q 79.640625 56 84.28125 50.015625 
Q 88.921875 44.046875 88.921875 33.015625 
L 88.921875 0 
L 79.890625 0 
L 79.890625 32.71875 
Q 79.890625 40.578125 77.09375 44.375 
Q 74.3125 48.1875 68.609375 48.1875 
Q 61.625 48.1875 57.5625 43.546875 
Q 53.515625 38.921875 53.515625 30.90625 
L 53.515625 0 
L 44.484375 0 
L 44.484375 32.71875 
Q 44.484375 40.625 41.703125 44.40625 
Q 38.921875 48.1875 33.109375 48.1875 
Q 26.21875 48.1875 22.15625 43.53125 
Q 18.109375 38.875 18.109375 30.90625 
L 18.109375 0 
L 9.078125 0 
L 9.078125 54.6875 
L 18.109375 54.6875 
L 18.109375 46.1875 
Q 21.1875 51.21875 25.484375 53.609375 
Q 29.78125 56 35.6875 56 
Q 41.65625 56 45.828125 52.96875 
Q 50 49.953125 52 44.1875 
z
" id="DejaVuSans-109"/>
      <path d="M 56.203125 29.59375 
L 56.203125 25.203125 
L 14.890625 25.203125 
Q 15.484375 15.921875 20.484375 11.0625 
Q 25.484375 6.203125 34.421875 6.203125 
Q 39.59375 6.203125 44.453125 7.46875 
Q 49.3125 8.734375 54.109375 11.28125 
L 54.109375 2.78125 
Q 49.265625 0.734375 44.1875 -0.34375 
Q 39.109375 -1.421875 33.890625 -1.421875 
Q 20.796875 -1.421875 13.15625 6.1875 
Q 5.515625 13.8125 5.515625 26.8125 
Q 5.515625 40.234375 12.765625 48.109375 
Q 20.015625 56 32.328125 56 
Q 43.359375 56 49.78125 48.890625 
Q 56.203125 41.796875 56.203125 29.59375 
z
M 47.21875 32.234375 
Q 47.125 39.59375 43.09375 43.984375 
Q 39.0625 48.390625 32.421875 48.390625 
Q 24.90625 48.390625 20.390625 44.140625 
Q 15.875 39.890625 15.1875 32.171875 
z
" id="DejaVuSans-101"/>
      <path d="M 45.40625 46.390625 
L 45.40625 75.984375 
L 54.390625 75.984375 
L 54.390625 0 
L 45.40625 0 
L 45.40625 8.203125 
Q 42.578125 3.328125 38.25 0.953125 
Q 33.9375 -1.421875 27.875 -1.421875 
Q 17.96875 -1.421875 11.734375 6.484375 
Q 5.515625 14.40625 5.515625 27.296875 
Q 5.515625 40.1875 11.734375 48.09375 
Q 17.96875 56 27.875 56 
Q 33.9375 56 38.25 53.625 
Q 42.578125 51.265625 45.40625 46.390625 
z
M 14.796875 27.296875 
Q 14.796875 17.390625 18.875 11.75 
Q 22.953125 6.109375 30.078125 6.109375 
Q 37.203125 6.109375 41.296875 11.75 
Q 45.40625 17.390625 45.40625 27.296875 
Q 45.40625 37.203125 41.296875 42.84375 
Q 37.203125 48.484375 30.078125 48.484375 
Q 22.953125 48.484375 18.875 42.84375 
Q 14.796875 37.203125 14.796875 27.296875 
z
" id="DejaVuSans-100"/>
      <path d="M 9.421875 54.6875 
L 18.40625 54.6875 
L 18.40625 0 
L 9.421875 0 
z
M 9.421875 75.984375 
L 18.40625 75.984375 
L 18.40625 64.59375 
L 9.421875 64.59375 
z
" id="DejaVuSans-105"/>
      <path d="M 34.28125 27.484375 
Q 23.390625 27.484375 19.1875 25 
Q 14.984375 22.515625 14.984375 16.5 
Q 14.984375 11.71875 18.140625 8.90625 
Q 21.296875 6.109375 26.703125 6.109375 
Q 34.1875 6.109375 38.703125 11.40625 
Q 43.21875 16.703125 43.21875 25.484375 
L 43.21875 27.484375 
z
M 52.203125 31.203125 
L 52.203125 0 
L 43.21875 0 
L 43.21875 8.296875 
Q 40.140625 3.328125 35.546875 0.953125 
Q 30.953125 -1.421875 24.3125 -1.421875 
Q 15.921875 -1.421875 10.953125 3.296875 
Q 6 8.015625 6 15.921875 
Q 6 25.140625 12.171875 29.828125 
Q 18.359375 34.515625 30.609375 34.515625 
L 43.21875 34.515625 
L 43.21875 35.40625 
Q 43.21875 41.609375 39.140625 45 
Q 35.0625 48.390625 27.6875 48.390625 
Q 23 48.390625 18.546875 47.265625 
Q 14.109375 46.140625 10.015625 43.890625 
L 10.015625 52.203125 
Q 14.9375 54.109375 19.578125 55.046875 
Q 24.21875 56 28.609375 56 
Q 40.484375 56 46.34375 49.84375 
Q 52.203125 43.703125 52.203125 31.203125 
z
" id="DejaVuSans-97"/>
      <path d="M 54.890625 33.015625 
L 54.890625 0 
L 45.90625 0 
L 45.90625 32.71875 
Q 45.90625 40.484375 42.875 44.328125 
Q 39.84375 48.1875 33.796875 48.1875 
Q 26.515625 48.1875 22.3125 43.546875 
Q 18.109375 38.921875 18.109375 30.90625 
L 18.109375 0 
L 9.078125 0 
L 9.078125 54.6875 
L 18.109375 54.6875 
L 18.109375 46.1875 
Q 21.34375 51.125 25.703125 53.5625 
Q 30.078125 56 35.796875 56 
Q 45.21875 56 50.046875 50.171875 
Q 54.890625 44.34375 54.890625 33.015625 
z
" id="DejaVuSans-110"/>
     </defs>
     <g transform="translate(368.234063 58.070437)scale(0.1 -0.1)">
      <use xlink:href="#DejaVuSans-109"/>
      <use x="97.412109" xlink:href="#DejaVuSans-101"/>
      <use x="158.935547" xlink:href="#DejaVuSans-100"/>
      <use x="222.412109" xlink:href="#DejaVuSans-105"/>
      <use x="250.195312" xlink:href="#DejaVuSans-97"/>
      <use x="311.474609" xlink:href="#DejaVuSans-110"/>
     </g>
    </g>
    <g id="line2d_19">
     <path d="M 340.234063 69.248562 
L 360.234063 69.248562 
" style="fill:none;stroke:#2ca02c;stroke-linecap:square;stroke-width:0.75;"/>
    </g>
    <g id="line2d_20"/>
    <g id="text_16">
     <!-- mean -->
     <g transform="translate(368.234063 72.748562)scale(0.1 -0.1)">
      <use xlink:href="#DejaVuSans-109"/>
      <use x="97.412109" xlink:href="#DejaVuSans-101"/>
      <use x="158.935547" xlink:href="#DejaVuSans-97"/>
      <use x="220.214844" xlink:href="#DejaVuSans-110"/>
     </g>
    </g>
   </g>
  </g>
  <g id="text_17">
   <!-- log_loss.mean over generations -->
   <defs>
    <path d="M 9.421875 75.984375 
L 18.40625 75.984375 
L 18.40625 0 
L 9.421875 0 
z
" id="DejaVuSans-108"/>
    <path d="M 30.609375 48.390625 
Q 23.390625 48.390625 19.1875 42.75 
Q 14.984375 37.109375 14.984375 27.296875 
Q 14.984375 17.484375 19.15625 11.84375 
Q 23.34375 6.203125 30.609375 6.203125 
Q 37.796875 6.203125 41.984375 11.859375 
Q 46.1875 17.53125 46.1875 27.296875 
Q 46.1875 37.015625 41.984375 42.703125 
Q 37.796875 48.390625 30.609375 48.390625 
z
M 30.609375 56 
Q 42.328125 56 49.015625 48.375 
Q 55.71875 40.765625 55.71875 27.296875 
Q 55.71875 13.875 49.015625 6.21875 
Q 42.328125 -1.421875 30.609375 -1.421875 
Q 18.84375 -1.421875 12.171875 6.21875 
Q 5.515625 13.875 5.515625 27.296875 
Q 5.515625 40.765625 12.171875 48.375 
Q 18.84375 56 30.609375 56 
z
" id="DejaVuSans-111"/>
    <path d="M 45.40625 27.984375 
Q 45.40625 37.75 41.375 43.109375 
Q 37.359375 48.484375 30.078125 48.484375 
Q 22.859375 48.484375 18.828125 43.109375 
Q 14.796875 37.75 14.796875 27.984375 
Q 14.796875 18.265625 18.828125 12.890625 
Q 22.859375 7.515625 30.078125 7.515625 
Q 37.359375 7.515625 41.375 12.890625 
Q 45.40625 18.265625 45.40625 27.984375 
z
M 54.390625 6.78125 
Q 54.390625 -7.171875 48.1875 -13.984375 
Q 42 -20.796875 29.203125 -20.796875 
Q 24.46875 -20.796875 20.265625 -20.09375 
Q 16.0625 -19.390625 12.109375 -17.921875 
L 12.109375 -9.1875 
Q 16.0625 -11.328125 19.921875 -12.34375 
Q 23.78125 -13.375 27.78125 -13.375 
Q 36.625 -13.375 41.015625 -8.765625 
Q 45.40625 -4.15625 45.40625 5.171875 
L 45.40625 9.625 
Q 42.625 4.78125 38.28125 2.390625 
Q 33.9375 0 27.875 0 
Q 17.828125 0 11.671875 7.65625 
Q 5.515625 15.328125 5.515625 27.984375 
Q 5.515625 40.671875 11.671875 48.328125 
Q 17.828125 56 27.875 56 
Q 33.9375 56 38.28125 53.609375 
Q 42.625 51.21875 45.40625 46.390625 
L 45.40625 54.6875 
L 54.390625 54.6875 
z
" id="DejaVuSans-103"/>
    <path d="M 50.984375 -16.609375 
L 50.984375 -23.578125 
L -0.984375 -23.578125 
L -0.984375 -16.609375 
z
" id="DejaVuSans-95"/>
    <path d="M 44.28125 53.078125 
L 44.28125 44.578125 
Q 40.484375 46.53125 36.375 47.5 
Q 32.28125 48.484375 27.875 48.484375 
Q 21.1875 48.484375 17.84375 46.4375 
Q 14.5 44.390625 14.5 40.28125 
Q 14.5 37.15625 16.890625 35.375 
Q 19.28125 33.59375 26.515625 31.984375 
L 29.59375 31.296875 
Q 39.15625 29.25 43.1875 25.515625 
Q 47.21875 21.78125 47.21875 15.09375 
Q 47.21875 7.46875 41.1875 3.015625 
Q 35.15625 -1.421875 24.609375 -1.421875 
Q 20.21875 -1.421875 15.453125 -0.5625 
Q 10.6875 0.296875 5.421875 2 
L 5.421875 11.28125 
Q 10.40625 8.6875 15.234375 7.390625 
Q 20.0625 6.109375 24.8125 6.109375 
Q 31.15625 6.109375 34.5625 8.28125 
Q 37.984375 10.453125 37.984375 14.40625 
Q 37.984375 18.0625 35.515625 20.015625 
Q 33.0625 21.96875 24.703125 23.78125 
L 21.578125 24.515625 
Q 13.234375 26.265625 9.515625 29.90625 
Q 5.8125 33.546875 5.8125 39.890625 
Q 5.8125 47.609375 11.28125 51.796875 
Q 16.75 56 26.8125 56 
Q 31.78125 56 36.171875 55.265625 
Q 40.578125 54.546875 44.28125 53.078125 
z
" id="DejaVuSans-115"/>
    <path d="M 10.6875 12.40625 
L 21 12.40625 
L 21 0 
L 10.6875 0 
z
" id="DejaVuSans-46"/>
    <path id="DejaVuSans-32"/>
    <path d="M 2.984375 54.6875 
L 12.5 54.6875 
L 29.59375 8.796875 
L 46.6875 54.6875 
L 56.203125 54.6875 
L 35.6875 0 
L 23.484375 0 
z
" id="DejaVuSans-118"/>
    <path d="M 41.109375 46.296875 
Q 39.59375 47.171875 37.8125 47.578125 
Q 36.03125 48 33.890625 48 
Q 26.265625 48 22.1875 43.046875 
Q 18.109375 38.09375 18.109375 28.8125 
L 18.109375 0 
L 9.078125 0 
L 9.078125 54.6875 
L 18.109375 54.6875 
L 18.109375 46.1875 
Q 20.953125 51.171875 25.484375 53.578125 
Q 30.03125 56 36.53125 56 
Q 37.453125 56 38.578125 55.875 
Q 39.703125 55.765625 41.0625 55.515625 
z
" id="DejaVuSans-114"/>
    <path d="M 18.3125 70.21875 
L 18.3125 54.6875 
L 36.8125 54.6875 
L 36.8125 47.703125 
L 18.3125 47.703125 
L 18.3125 18.015625 
Q 18.3125 11.328125 20.140625 9.421875 
Q 21.96875 7.515625 27.59375 7.515625 
L 36.8125 7.515625 
L 36.8125 0 
L 27.59375 0 
Q 17.1875 0 13.234375 3.875 
Q 9.28125 7.765625 9.28125 18.015625 
L 9.28125 47.703125 
L 2.6875 47.703125 
L 2.6875 54.6875 
L 9.28125 54.6875 
L 9.28125 70.21875 
z
" id="DejaVuSans-116"/>
   </defs>
   <g transform="translate(134.789062 16.030125)scale(0.12 -0.12)">
    <use xlink:href="#DejaVuSans-108"/>
    <use x="27.783203" xlink:href="#DejaVuSans-111"/>
    <use x="88.964844" xlink:href="#DejaVuSans-103"/>
    <use x="152.441406" xlink:href="#DejaVuSans-95"/>
    <use x="202.441406" xlink:href="#DejaVuSans-108"/>
    <use x="230.224609" xlink:href="#DejaVuSans-111"/>
    <use x="291.40625" xlink:href="#DejaVuSans-115"/>
    <use x="343.505859" xlink:href="#DejaVuSans-115"/>
    <use x="395.605469" xlink:href="#DejaVuSans-46"/>
    <use x="427.392578" xlink:href="#DejaVuSans-109"/>
    <use x="524.804688" xlink:href="#DejaVuSans-101"/>
    <use x="586.328125" xlink:href="#DejaVuSans-97"/>
    <use x="647.607422" xlink:href="#DejaVuSans-110"/>
    <use x="710.986328" xlink:href="#DejaVuSans-32"/>
    <use x="742.773438" xlink:href="#DejaVuSans-111"/>
    <use x="803.955078" xlink:href="#DejaVuSans-118"/>
    <use x="863.134766" xlink:href="#DejaVuSans-101"/>
    <use x="924.658203" xlink:href="#DejaVuSans-114"/>
    <use x="965.771484" xlink:href="#DejaVuSans-32"/>
    <use x="997.558594" xlink:href="#DejaVuSans-103"/>
    <use x="1061.035156" xlink:href="#DejaVuSans-101"/>
    <use x="1122.558594" xlink:href="#DejaVuSans-110"/>
    <use x="1185.9375" xlink:href="#DejaVuSans-101"/>
    <use x="1247.460938" xlink:href="#DejaVuSans-114"/>
    <use x="1288.574219" xlink:href="#DejaVuSans-97"/>
    <use x="1349.853516" xlink:href="#DejaVuSans-116"/>
    <use x="1389.0625" xlink:href="#DejaVuSans-105"/>
    <use x="1416.845703" xlink:href="#DejaVuSans-111"/>
    <use x="1478.027344" xlink:href="#DejaVuSans-110"/>
    <use x="1541.40625" xlink:href="#DejaVuSans-115"/>
   </g>
  </g>
 </g>
 <defs>
  <clipPath id="pba911daa69">
   <rect height="266.112" width="357.12" x="57.6" y="41.472"/>
  </clipPath>
 </defs>
</svg>
