<?xml version="1.0" encoding="utf-8" standalone="no"?>
<!DOCTYPE svg PUBLIC "-//W3C//DTD SVG 1.1//EN"
  "http://www.w3.org/Graphics/SVG/1.1/DTD/svg11.dtd">
<!-- Created with matplotlib (https://matplotlib.org/) -->
<svg height="345.6pt" version="1.1" viewBox="0 0 460.8 345.6" width="460.8pt" xmlns="http://www.w3.org/2000/svg" xmlns:xlink="http://www.w3.org/1999/xlink">
 <defs>
  <style type="text/css">
*{stroke-linecap:butt;stroke-linejoin:round;}
  </style>
 </defs>
 <g id="figure_1">
  <g id="patch_1">
   <path d="M 0 345.6 
L 460.8 345.6 
L 460.8 0 
L 0 0 
z
" style="fill:#ffffff;"/>
  </g>
  <g id="axes_1">
   <g id="patch_2">
    <path clip-path="url(#pe16d79f24a)" d="M 88.589752 119.546182 
Q 160.957404 173.471754 233.325055 227.397327 
" style="fill:none;stroke:#000000;stroke-linecap:round;stroke-opacity:0.9;stroke-width:0.4;"/>
   </g>
   <g id="patch_3">
    <path clip-path="url(#pe16d79f24a)" d="M 88.589752 119.546182 
Q 160.719845 146.420458 232.849937 173.294735 
" style="fill:none;stroke:#000000;stroke-linecap:round;stroke-opacity:0.9;stroke-width:0.4;"/>
   </g>
   <g id="patch_4">
    <path clip-path="url(#pe16d79f24a)" d="M 88.589752 174.528 
Q 160.719845 201.402276 232.849937 228.276553 
" style="fill:none;stroke:#000000;stroke-linecap:round;stroke-opacity:0.9;stroke-width:0.4;"/>
   </g>
   <g id="patch_5">
    <path clip-path="url(#pe16d79f24a)" d="M 88.589752 174.528 
Q 160.607258 174.528 232.624763 174.528 
" style="fill:none;stroke:#000000;stroke-linecap:round;stroke-opacity:0.9;stroke-width:0.4;"/>
   </g>
   <g id="patch_6">
    <path clip-path="url(#pe16d79f24a)" d="M 88.589752 229.509818 
Q 160.957404 175.584246 233.325055 121.658673 
" style="fill:none;stroke:#000000;stroke-linecap:round;stroke-opacity:0.9;stroke-width:0.4;"/>
   </g>
   <g id="patch_7">
    <path clip-path="url(#pe16d79f24a)" d="M 88.589752 229.509818 
Q 161.196088 148.354671 233.802425 67.199524 
" style="fill:none;stroke:#000000;stroke-linecap:round;stroke-opacity:0.9;stroke-width:0.4;"/>
   </g>
   <g id="patch_8">
    <path clip-path="url(#pe16d79f24a)" d="M 88.589752 229.509818 
Q 160.607258 229.509818 232.624763 229.509818 
" style="fill:none;stroke:#000000;stroke-linecap:round;stroke-opacity:0.9;stroke-width:0.4;"/>
   </g>
   <g id="patch_9">
    <path clip-path="url(#pe16d79f24a)" d="M 88.589752 229.509818 
Q 160.719845 202.635542 232.849937 175.761265 
" style="fill:none;stroke:#000000;stroke-linecap:round;stroke-opacity:0.9;stroke-width:0.4;"/>
   </g>
   <g id="patch_10">
    <path clip-path="url(#pe16d79f24a)" d="M 88.589752 229.509818 
Q 234.423906 202.342327 380.25806 175.174835 
" style="fill:none;stroke:#000000;stroke-linecap:round;stroke-opacity:0.9;stroke-width:0.4;"/>
   </g>
   <g id="patch_11">
    <path clip-path="url(#pe16d79f24a)" d="M 88.589752 284.491636 
Q 160.719845 257.61736 232.849937 230.743083 
" style="fill:none;stroke:#000000;stroke-linecap:round;stroke-opacity:0.9;stroke-width:0.4;"/>
   </g>
   <g id="patch_12">
    <path clip-path="url(#pe16d79f24a)" d="M 88.589752 284.491636 
Q 160.607258 284.491636 232.624763 284.491636 
" style="fill:none;stroke:#000000;stroke-linecap:round;stroke-opacity:0.9;stroke-width:0.4;"/>
   </g>
   <g id="patch_13">
    <path clip-path="url(#pe16d79f24a)" d="M 236.16 119.546182 
Q 308.195519 109.744232 380.231039 99.942282 
" style="fill:none;stroke:#000000;stroke-linecap:round;stroke-opacity:0.9;stroke-width:0.4;"/>
   </g>
   <g id="patch_14">
    <path clip-path="url(#pe16d79f24a)" d="M 236.16 119.546182 
Q 308.619973 183.400255 381.079946 247.254328 
" style="fill:none;stroke:#000000;stroke-linecap:round;stroke-opacity:0.9;stroke-width:0.4;"/>
   </g>
   <g id="patch_15">
    <path clip-path="url(#pe16d79f24a)" d="M 236.16 64.564364 
Q 308.227044 81.60891 380.294088 98.653456 
" style="fill:none;stroke:#000000;stroke-linecap:round;stroke-opacity:0.9;stroke-width:0.4;"/>
   </g>
   <g id="patch_16">
    <path clip-path="url(#pe16d79f24a)" d="M 236.16 229.509818 
Q 308.195519 239.311768 380.231039 249.113718 
" style="fill:none;stroke:#000000;stroke-linecap:round;stroke-opacity:0.9;stroke-width:0.4;"/>
   </g>
   <g id="patch_17">
    <path clip-path="url(#pe16d79f24a)" d="M 236.16 174.528 
Q 308.37003 211.257755 380.580059 247.98751 
" style="fill:none;stroke:#000000;stroke-linecap:round;stroke-opacity:0.9;stroke-width:0.4;"/>
   </g>
   <g id="patch_18">
    <path clip-path="url(#pe16d79f24a)" d="M 236.16 284.491636 
Q 308.227044 267.44709 380.294088 250.402544 
" style="fill:none;stroke:#000000;stroke-linecap:round;stroke-opacity:0.9;stroke-width:0.4;"/>
   </g>
   <g id="PathCollection_1">
    <defs>
     <path d="M 0 3.535534 
C 0.937635 3.535534 1.836992 3.163008 2.5 2.5 
C 3.163008 1.836992 3.535534 0.937635 3.535534 0 
C 3.535534 -0.937635 3.163008 -1.836992 2.5 -2.5 
C 1.836992 -3.163008 0.937635 -3.535534 0 -3.535534 
C -0.937635 -3.535534 -1.836992 -3.163008 -2.5 -2.5 
C -3.163008 -1.836992 -3.535534 -0.937635 -3.535534 0 
C -3.535534 0.937635 -3.163008 1.836992 -2.5 2.5 
C -1.836992 3.163008 -0.937635 3.535534 0 3.535534 
z
" id="C0_0_7f3b7a39fc"/>
    </defs>
    <g clip-path="url(#pe16d79f24a)">
     <use style="fill:#fdb462;fill-opacity:0.9;" x="88.589752" xlink:href="#C0_0_7f3b7a39fc" y="64.564364"/>
    </g>
    <g clip-path="url(#pe16d79f24a)">
     <use style="fill:#fdb462;fill-opacity:0.9;" x="88.589752" xlink:href="#C0_0_7f3b7a39fc" y="119.546182"/>
    </g>
    <g clip-path="url(#pe16d79f24a)">
     <use style="fill:#fdb462;fill-opacity:0.9;" x="88.589752" xlink:href="#C0_0_7f3b7a39fc" y="174.528"/>
    </g>
    <g clip-path="url(#pe16d79f24a)">
     <use style="fill:#fdb462;fill-opacity:0.9;" x="88.589752" xlink:href="#C0_0_7f3b7a39fc" y="229.509818"/>
    </g>
    <g clip-path="url(#pe16d79f24a)">
     <use style="fill:#ffed6f;fill-opacity:0.9;" x="88.589752" xlink:href="#C0_0_7f3b7a39fc" y="284.491636"/>
    </g>
    <g clip-path="url(#pe16d79f24a)">
     <use style="fill:#80b1d3;fill-opacity:0.9;" x="236.16" xlink:href="#C0_0_7f3b7a39fc" y="119.546182"/>
    </g>
    <g clip-path="url(#pe16d79f24a)">
     <use style="fill:#80b1d3;fill-opacity:0.9;" x="236.16" xlink:href="#C0_0_7f3b7a39fc" y="64.564364"/>
    </g>
    <g clip-path="url(#pe16d79f24a)">
     <use style="fill:#80b1d3;fill-opacity:0.9;" x="236.16" xlink:href="#C0_0_7f3b7a39fc" y="229.509818"/>
    </g>
    <g clip-path="url(#pe16d79f24a)">
     <use style="fill:#80b1d3;fill-opacity:0.9;" x="236.16" xlink:href="#C0_0_7f3b7a39fc" y="174.528"/>
    </g>
    <g clip-path="url(#pe16d79f24a)">
     <use style="fill:#80b1d3;fill-opacity:0.9;" x="236.16" xlink:href="#C0_0_7f3b7a39fc" y="284.491636"/>
    </g>
    <g clip-path="url(#pe16d79f24a)">
     <use style="fill:#b3de69;fill-opacity:0.9;" x="383.730248" xlink:href="#C0_0_7f3b7a39fc" y="99.466141"/>
    </g>
    <g clip-path="url(#pe16d79f24a)">
     <use style="fill:#b3de69;fill-opacity:0.9;" x="383.730248" xlink:href="#C0_0_7f3b7a39fc" y="174.528"/>
    </g>
    <g clip-path="url(#pe16d79f24a)">
     <use style="fill:#b3de69;fill-opacity:0.9;" x="383.730248" xlink:href="#C0_0_7f3b7a39fc" y="249.589859"/>
    </g>
   </g>
  </g>
 </g>
 <defs>
  <clipPath id="pe16d79f24a">
   <rect height="266.112" width="357.12" x="57.6" y="41.472"/>
  </clipPath>
 </defs>
</svg>
