<?xml version="1.0" encoding="utf-8" standalone="no"?>
<!DOCTYPE svg PUBLIC "-//W3C//DTD SVG 1.1//EN"
  "http://www.w3.org/Graphics/SVG/1.1/DTD/svg11.dtd">
<!-- Created with matplotlib (https://matplotlib.org/) -->
<svg height="345.6pt" version="1.1" viewBox="0 0 460.8 345.6" width="460.8pt" xmlns="http://www.w3.org/2000/svg" xmlns:xlink="http://www.w3.org/1999/xlink">
 <defs>
  <style type="text/css">
*{stroke-linecap:butt;stroke-linejoin:round;}
  </style>
 </defs>
 <g id="figure_1">
  <g id="patch_1">
   <path d="M 0 345.6 
L 460.8 345.6 
L 460.8 0 
L 0 0 
z
" style="fill:#ffffff;"/>
  </g>
  <g id="axes_1">
   <g id="patch_2">
    <path d="M 57.6 307.584 
L 414.72 307.584 
L 414.72 41.472 
L 57.6 41.472 
z
" style="fill:#ffffff;"/>
   </g>
   <g id="PolyCollection_1">
    <path clip-path="url(#p158a976084)" d="M 73.832727 287.699613 
L 73.832727 288.904454 
L 75.464157 288.904454 
L 77.095587 288.904454 
L 78.727017 288.904454 
L 80.358447 288.904454 
L 81.989877 288.904454 
L 83.621307 288.904454 
L 85.252736 288.904454 
L 86.884166 288.904454 
L 88.515596 288.904454 
L 90.147026 288.904454 
L 91.778456 288.904454 
L 93.409886 288.904454 
L 95.041316 288.904454 
L 96.672746 288.904454 
L 98.304175 288.904454 
L 99.935605 288.904454 
L 101.567035 288.904454 
L 103.198465 288.904454 
L 104.829895 288.904454 
L 106.461325 288.904454 
L 108.092755 288.904454 
L 109.724185 288.904454 
L 111.355614 288.904454 
L 112.987044 288.904454 
L 114.618474 288.904454 
L 116.249904 288.904454 
L 117.881334 288.904454 
L 119.512764 288.904454 
L 121.144194 288.904454 
L 122.775624 288.904454 
L 124.407053 288.904454 
L 126.038483 288.904454 
L 127.669913 288.904454 
L 129.301343 288.904454 
L 130.932773 288.904454 
L 132.564203 288.904454 
L 134.195633 288.904454 
L 135.827063 288.904454 
L 137.458492 288.904454 
L 139.089922 288.904454 
L 140.721352 288.904454 
L 142.352782 288.904454 
L 143.984212 288.904454 
L 145.615642 288.904454 
L 147.247072 288.904454 
L 148.878502 288.904454 
L 150.509931 288.904454 
L 152.141361 288.904454 
L 153.772791 288.904454 
L 155.404221 288.904454 
L 157.035651 288.904454 
L 158.667081 288.904454 
L 160.298511 288.904454 
L 161.929941 288.904454 
L 163.56137 288.904454 
L 165.1928 288.904454 
L 166.82423 288.904454 
L 168.45566 288.904454 
L 170.08709 288.904454 
L 171.71852 288.904454 
L 173.34995 288.904454 
L 174.98138 288.904454 
L 176.61281 288.904454 
L 178.244239 288.904454 
L 179.875669 288.904454 
L 181.507099 288.904454 
L 183.138529 288.904454 
L 184.769959 288.904454 
L 186.401389 288.904454 
L 188.032819 288.904454 
L 189.664249 288.904454 
L 191.295678 288.904454 
L 192.927108 288.904454 
L 194.558538 288.904454 
L 196.189968 288.904454 
L 197.821398 288.904454 
L 199.452828 288.904454 
L 201.084258 288.904454 
L 202.715688 288.904454 
L 204.347117 288.904454 
L 205.978547 288.904454 
L 207.609977 288.812219 
L 209.241407 288.760607 
L 210.872837 288.904929 
L 212.504267 289.119849 
L 214.135697 289.546638 
L 215.767127 289.599465 
L 217.398556 290.305643 
L 219.029986 289.631341 
L 220.661416 290.222913 
L 222.292846 289.626692 
L 223.924276 288.657407 
L 225.555706 290.041476 
L 227.187136 294.474161 
L 228.818566 290.366823 
L 230.449995 289.968339 
L 232.081425 290.134292 
L 233.712855 289.239305 
L 235.344285 288.427856 
L 236.975715 288.496745 
L 238.607145 288.696833 
L 240.238575 288.307432 
L 241.870005 287.907858 
L 243.501434 289.08292 
L 245.132864 289.177988 
L 246.764294 291.003177 
L 248.395724 288.542981 
L 250.027154 293.582885 
L 251.658584 289.186824 
L 253.290014 288.386232 
L 254.921444 293.083165 
L 256.552873 294.217339 
L 258.184303 294.37742 
L 259.815733 289.439271 
L 261.447163 290.484443 
L 263.078593 291.038687 
L 264.710023 288.935763 
L 266.341453 289.475114 
L 267.972883 294.436033 
L 269.604312 293.490184 
L 271.235742 288.545743 
L 272.867172 289.684399 
L 274.498602 294.454572 
L 276.130032 289.176308 
L 277.761462 288.178234 
L 279.392892 286.012554 
L 281.024322 288.263804 
L 282.655751 288.574165 
L 284.287181 291.250863 
L 285.918611 287.837811 
L 287.550041 288.138402 
L 289.181471 289.049437 
L 290.812901 288.99948 
L 292.444331 288.985175 
L 294.075761 286.081711 
L 295.70719 290.378638 
L 297.33862 288.031475 
L 298.97005 291.646237 
L 300.60148 285.393042 
L 302.23291 288.763732 
L 303.86434 287.938684 
L 305.49577 289.01158 
L 307.1272 287.057248 
L 308.75863 286.905288 
L 310.390059 288.677635 
L 312.021489 286.032597 
L 313.652919 285.557442 
L 315.284349 288.393135 
L 316.915779 290.443222 
L 318.547209 288.144905 
L 320.178639 287.438561 
L 321.810069 287.966307 
L 323.441498 286.150311 
L 325.072928 288.179387 
L 326.704358 289.391895 
L 328.335788 287.469522 
L 329.967218 288.333021 
L 331.598648 290.199494 
L 333.230078 286.920187 
L 334.861508 287.281616 
L 336.492937 291.111135 
L 338.124367 291.362583 
L 339.755797 287.934363 
L 341.387227 291.061477 
L 343.018657 288.70856 
L 344.650087 289.78457 
L 346.281517 286.992598 
L 347.912947 289.748158 
L 349.544376 286.899592 
L 351.175806 292.327884 
L 352.807236 291.714673 
L 354.438666 287.875766 
L 356.070096 287.745884 
L 357.701526 288.993278 
L 359.332956 289.482298 
L 360.964386 290.680572 
L 362.595815 284.266075 
L 364.227245 286.401692 
L 365.858675 289.152902 
L 367.490105 287.713694 
L 369.121535 288.495552 
L 370.752965 287.505243 
L 372.384395 289.432039 
L 374.015825 290.544805 
L 375.647254 294.604709 
L 377.278684 291.996989 
L 378.910114 289.634249 
L 380.541544 286.805743 
L 382.172974 289.611609 
L 383.804404 293.365527 
L 385.435834 290.126926 
L 387.067264 293.898616 
L 388.698693 289.88702 
L 390.330123 294.695576 
L 391.961553 291.068092 
L 393.592983 293.932392 
L 395.224413 287.023577 
L 396.855843 294.32122 
L 398.487273 293.763647 
L 398.487273 254.857742 
L 398.487273 254.857742 
L 396.855843 251.439955 
L 395.224413 214.643366 
L 393.592983 264.956416 
L 391.961553 255.804099 
L 390.330123 252.990534 
L 388.698693 265.178889 
L 387.067264 268.044257 
L 385.435834 255.866395 
L 383.804404 240.394932 
L 382.172974 235.168252 
L 380.541544 208.225901 
L 378.910114 243.028058 
L 377.278684 237.970948 
L 375.647254 240.742716 
L 374.015825 245.03401 
L 372.384395 237.633322 
L 370.752965 241.88028 
L 369.121535 252.458977 
L 367.490105 228.610923 
L 365.858675 259.131927 
L 364.227245 241.19491 
L 362.595815 188.787118 
L 360.964386 261.950053 
L 359.332956 261.306363 
L 357.701526 240.855667 
L 356.070096 235.841599 
L 354.438666 247.864667 
L 352.807236 269.503651 
L 351.175806 259.065416 
L 349.544376 202.793846 
L 347.912947 269.80691 
L 346.281517 223.440222 
L 344.650087 253.819804 
L 343.018657 237.674686 
L 341.387227 266.042252 
L 339.755797 226.916763 
L 338.124367 257.714492 
L 336.492937 260.575729 
L 334.861508 231.475816 
L 333.230078 223.122093 
L 331.598648 236.492702 
L 329.967218 237.807517 
L 328.335788 254.283719 
L 326.704358 255.494656 
L 325.072928 257.725355 
L 323.441498 219.033492 
L 321.810069 249.989461 
L 320.178639 252.451377 
L 318.547209 236.715536 
L 316.915779 252.186338 
L 315.284349 243.622497 
L 313.652919 217.237342 
L 312.021489 232.341914 
L 310.390059 241.838321 
L 308.75863 221.269895 
L 307.1272 232.940566 
L 305.49577 246.331723 
L 303.86434 234.746267 
L 302.23291 244.399271 
L 300.60148 231.848465 
L 298.97005 246.609508 
L 297.33862 234.020533 
L 295.70719 270.696684 
L 294.075761 214.639312 
L 292.444331 242.246928 
L 290.812901 247.45439 
L 289.181471 247.358384 
L 287.550041 252.766695 
L 285.918611 232.49623 
L 284.287181 225.728828 
L 282.655751 243.283573 
L 281.024322 240.935541 
L 279.392892 240.228175 
L 277.761462 241.463479 
L 276.130032 257.720052 
L 274.498602 247.66831 
L 272.867172 228.090916 
L 271.235742 236.295024 
L 269.604312 242.971628 
L 267.972883 248.618949 
L 266.341453 236.111603 
L 264.710023 228.763785 
L 263.078593 249.218602 
L 261.447163 265.262345 
L 259.815733 250.91751 
L 258.184303 240.749548 
L 256.552873 267.69539 
L 254.921444 256.524596 
L 253.290014 235.340131 
L 251.658584 238.856995 
L 250.027154 262.358249 
L 248.395724 237.430031 
L 246.764294 267.930968 
L 245.132864 245.475238 
L 243.501434 246.814383 
L 241.870005 240.113965 
L 240.238575 235.669119 
L 238.607145 244.244426 
L 236.975715 239.83674 
L 235.344285 234.838115 
L 233.712855 247.028494 
L 232.081425 233.898332 
L 230.449995 232.850768 
L 228.818566 245.092432 
L 227.187136 241.125834 
L 225.555706 261.465896 
L 223.924276 261.036537 
L 222.292846 287.543094 
L 220.661416 288.295057 
L 219.029986 287.804335 
L 217.398556 287.852985 
L 215.767127 288.819775 
L 214.135697 288.572884 
L 212.504267 288.087941 
L 210.872837 288.012801 
L 209.241407 287.699613 
L 207.609977 287.709807 
L 205.978547 287.771601 
L 204.347117 287.699613 
L 202.715688 287.699613 
L 201.084258 287.699613 
L 199.452828 287.699613 
L 197.821398 287.699613 
L 196.189968 287.699613 
L 194.558538 287.699613 
L 192.927108 287.699613 
L 191.295678 287.699613 
L 189.664249 287.699613 
L 188.032819 287.699613 
L 186.401389 287.699613 
L 184.769959 287.699613 
L 183.138529 287.699613 
L 181.507099 287.699613 
L 179.875669 287.699613 
L 178.244239 287.699613 
L 176.61281 287.699613 
L 174.98138 287.699613 
L 173.34995 287.699613 
L 171.71852 287.699613 
L 170.08709 287.699613 
L 168.45566 287.699613 
L 166.82423 287.699613 
L 165.1928 287.699613 
L 163.56137 287.699613 
L 161.929941 287.699613 
L 160.298511 287.699613 
L 158.667081 288.611078 
L 157.035651 287.699613 
L 155.404221 287.699613 
L 153.772791 287.699613 
L 152.141361 287.699613 
L 150.509931 287.699613 
L 148.878502 287.699613 
L 147.247072 287.699613 
L 145.615642 288.611078 
L 143.984212 287.699613 
L 142.352782 287.699613 
L 140.721352 287.699613 
L 139.089922 287.699613 
L 137.458492 287.699613 
L 135.827063 287.699613 
L 134.195633 287.699613 
L 132.564203 287.699613 
L 130.932773 287.699613 
L 129.301343 287.699613 
L 127.669913 287.699613 
L 126.038483 287.699613 
L 124.407053 287.699613 
L 122.775624 287.699613 
L 121.144194 287.699613 
L 119.512764 287.699613 
L 117.881334 288.611078 
L 116.249904 287.699613 
L 114.618474 287.699613 
L 112.987044 287.699613 
L 111.355614 287.699613 
L 109.724185 287.699613 
L 108.092755 287.699613 
L 106.461325 287.699613 
L 104.829895 287.699613 
L 103.198465 287.699613 
L 101.567035 287.699613 
L 99.935605 287.699613 
L 98.304175 287.699613 
L 96.672746 287.699613 
L 95.041316 287.699613 
L 93.409886 287.699613 
L 91.778456 287.699613 
L 90.147026 287.699613 
L 88.515596 287.699613 
L 86.884166 288.611078 
L 85.252736 288.611078 
L 83.621307 287.699613 
L 81.989877 287.699613 
L 80.358447 287.699613 
L 78.727017 287.699613 
L 77.095587 287.699613 
L 75.464157 287.699613 
L 73.832727 287.699613 
z
" style="fill:#1f77b4;fill-opacity:0.2;"/>
   </g>
   <g id="PolyCollection_2">
    <path clip-path="url(#p158a976084)" d="M 73.832727 287.699613 
L 73.832727 288.904454 
L 75.464157 288.904454 
L 77.095587 288.904454 
L 78.727017 288.904454 
L 80.358447 288.904454 
L 81.989877 288.904454 
L 83.621307 288.904454 
L 85.252736 288.904454 
L 86.884166 288.904454 
L 88.515596 288.904454 
L 90.147026 288.904454 
L 91.778456 288.904454 
L 93.409886 288.904454 
L 95.041316 288.904454 
L 96.672746 288.904454 
L 98.304175 288.904454 
L 99.935605 288.904454 
L 101.567035 288.904454 
L 103.198465 288.904454 
L 104.829895 288.904454 
L 106.461325 288.904454 
L 108.092755 288.904454 
L 109.724185 288.904454 
L 111.355614 288.904454 
L 112.987044 288.904454 
L 114.618474 288.904454 
L 116.249904 288.904454 
L 117.881334 288.904454 
L 119.512764 288.904454 
L 121.144194 288.904454 
L 122.775624 288.904454 
L 124.407053 288.904454 
L 126.038483 288.904454 
L 127.669913 288.904454 
L 129.301343 288.904454 
L 130.932773 288.904454 
L 132.564203 288.904454 
L 134.195633 288.904454 
L 135.827063 288.904454 
L 137.458492 288.904454 
L 139.089922 288.904454 
L 140.721352 288.904454 
L 142.352782 288.904454 
L 143.984212 288.904454 
L 145.615642 288.904454 
L 147.247072 288.904454 
L 148.878502 288.904454 
L 150.509931 288.904454 
L 152.141361 288.904454 
L 153.772791 288.904454 
L 155.404221 288.904454 
L 157.035651 288.904454 
L 158.667081 288.904454 
L 160.298511 288.904454 
L 161.929941 288.904454 
L 163.56137 288.904454 
L 165.1928 288.904454 
L 166.82423 288.904454 
L 168.45566 288.904454 
L 170.08709 288.904454 
L 171.71852 288.904454 
L 173.34995 288.904454 
L 174.98138 288.904454 
L 176.61281 288.904454 
L 178.244239 288.904454 
L 179.875669 288.904454 
L 181.507099 288.904454 
L 183.138529 288.904454 
L 184.769959 288.904454 
L 186.401389 288.904454 
L 188.032819 288.904454 
L 189.664249 288.904454 
L 191.295678 288.904454 
L 192.927108 288.904454 
L 194.558538 288.904454 
L 196.189968 288.904454 
L 197.821398 288.904454 
L 199.452828 288.904454 
L 201.084258 288.904454 
L 202.715688 288.904454 
L 204.347117 288.904454 
L 205.978547 288.904454 
L 207.609977 288.904454 
L 209.241407 289.734037 
L 210.872837 289.932599 
L 212.504267 289.991647 
L 214.135697 289.998915 
L 215.767127 290.305541 
L 217.398556 291.02793 
L 219.029986 290.379486 
L 220.661416 291.006503 
L 222.292846 291.322437 
L 223.924276 294.351005 
L 225.555706 294.542761 
L 227.187136 295.022522 
L 228.818566 294.78406 
L 230.449995 294.547288 
L 232.081425 294.973616 
L 233.712855 294.793733 
L 235.344285 294.681473 
L 236.975715 294.592582 
L 238.607145 294.730279 
L 240.238575 294.696547 
L 241.870005 294.716487 
L 243.501434 294.686536 
L 245.132864 294.681365 
L 246.764294 294.645372 
L 248.395724 294.709989 
L 250.027154 294.61061 
L 251.658584 294.588502 
L 253.290014 294.865282 
L 254.921444 294.914015 
L 256.552873 294.659099 
L 258.184303 294.651264 
L 259.815733 294.642663 
L 261.447163 294.546715 
L 263.078593 294.516973 
L 264.710023 294.89349 
L 266.341453 294.695825 
L 267.972883 294.963615 
L 269.604312 294.522547 
L 271.235742 294.694813 
L 272.867172 294.521478 
L 274.498602 294.913819 
L 276.130032 294.65359 
L 277.761462 294.644928 
L 279.392892 294.682398 
L 281.024322 294.5147 
L 282.655751 294.914031 
L 284.287181 295.488 
L 285.918611 294.4664 
L 287.550041 294.529105 
L 289.181471 294.938739 
L 290.812901 294.567858 
L 292.444331 294.676284 
L 294.075761 295.270912 
L 295.70719 294.553931 
L 297.33862 294.995832 
L 298.97005 294.614297 
L 300.60148 294.634806 
L 302.23291 294.632298 
L 303.86434 294.830312 
L 305.49577 294.640291 
L 307.1272 295.025122 
L 308.75863 295.199387 
L 310.390059 294.753222 
L 312.021489 295.174111 
L 313.652919 295.071975 
L 315.284349 294.508151 
L 316.915779 294.476428 
L 318.547209 294.438368 
L 320.178639 294.421886 
L 321.810069 294.471563 
L 323.441498 295.229166 
L 325.072928 294.628023 
L 326.704358 294.619776 
L 328.335788 294.597588 
L 329.967218 294.781917 
L 331.598648 294.902463 
L 333.230078 295.013174 
L 334.861508 294.512793 
L 336.492937 294.489427 
L 338.124367 295.11999 
L 339.755797 294.872862 
L 341.387227 294.724621 
L 343.018657 295.104174 
L 344.650087 294.700743 
L 346.281517 295.154839 
L 347.912947 294.646129 
L 349.544376 294.639747 
L 351.175806 294.955867 
L 352.807236 294.484678 
L 354.438666 294.447863 
L 356.070096 294.905983 
L 357.701526 294.588844 
L 359.332956 294.55476 
L 360.964386 294.535999 
L 362.595815 295.322063 
L 364.227245 294.726165 
L 365.858675 294.441322 
L 367.490105 294.877283 
L 369.121535 295.089023 
L 370.752965 294.803726 
L 372.384395 294.603066 
L 374.015825 294.602196 
L 375.647254 294.685473 
L 377.278684 294.574416 
L 378.910114 294.595911 
L 380.541544 295.227196 
L 382.172974 294.693327 
L 383.804404 294.277199 
L 385.435834 294.468305 
L 387.067264 294.395089 
L 388.698693 294.368241 
L 390.330123 295.120867 
L 391.961553 294.550012 
L 393.592983 294.522004 
L 395.224413 294.615372 
L 396.855843 294.66508 
L 398.487273 294.628816 
L 398.487273 112.047107 
L 398.487273 112.047107 
L 396.855843 107.4133 
L 395.224413 104.442976 
L 393.592983 94.142324 
L 391.961553 110.704139 
L 390.330123 67.824601 
L 388.698693 119.327393 
L 387.067264 145.294695 
L 385.435834 177.145892 
L 383.804404 146.745186 
L 382.172974 86.451106 
L 380.541544 67.824601 
L 378.910114 109.268119 
L 377.278684 94.903711 
L 375.647254 84.190261 
L 374.015825 79.68599 
L 372.384395 97.99876 
L 370.752965 74.794081 
L 369.121535 86.009922 
L 367.490105 85.423009 
L 365.858675 123.801027 
L 364.227245 71.919226 
L 362.595815 53.568 
L 360.964386 119.986187 
L 359.332956 112.216492 
L 357.701526 97.013173 
L 356.070096 91.357766 
L 354.438666 148.111609 
L 352.807236 143.781322 
L 351.175806 76.233776 
L 349.544376 110.23177 
L 347.912947 207.526841 
L 346.281517 67.824601 
L 344.650087 111.58421 
L 343.018657 67.824601 
L 341.387227 118.702021 
L 339.755797 75.247392 
L 338.124367 76.670767 
L 336.492937 97.110643 
L 334.861508 111.544784 
L 333.230078 67.824601 
L 331.598648 68.61627 
L 329.967218 79.075257 
L 328.335788 119.969908 
L 326.704358 108.741485 
L 325.072928 105.381238 
L 323.441498 67.824601 
L 321.810069 110.612959 
L 320.178639 119.193429 
L 318.547209 148.265945 
L 316.915779 153.212447 
L 315.284349 104.826026 
L 313.652919 67.824601 
L 312.021489 67.824601 
L 310.390059 67.824601 
L 308.75863 67.824592 
L 307.1272 67.824601 
L 305.49577 107.816536 
L 303.86434 67.977773 
L 302.23291 117.958436 
L 300.60148 67.824601 
L 298.97005 106.348196 
L 297.33862 67.824601 
L 295.70719 156.805673 
L 294.075761 67.824601 
L 292.444331 98.829659 
L 290.812901 111.933989 
L 289.181471 67.824601 
L 287.550041 175.03272 
L 285.918611 81.352148 
L 284.287181 67.824601 
L 282.655751 111.486441 
L 281.024322 110.516826 
L 279.392892 104.621059 
L 277.761462 106.941674 
L 276.130032 94.67678 
L 274.498602 67.824601 
L 272.867172 111.741561 
L 271.235742 98.915029 
L 269.604312 108.087985 
L 267.972883 67.824601 
L 266.341453 78.427112 
L 264.710023 95.877342 
L 263.078593 128.736379 
L 261.447163 187.048017 
L 259.815733 117.987051 
L 258.184303 87.886788 
L 256.552873 173.017688 
L 254.921444 67.905326 
L 253.290014 72.704895 
L 251.658584 112.016164 
L 250.027154 131.658369 
L 248.395724 82.143514 
L 246.764294 163.111585 
L 245.132864 99.082602 
L 243.501434 69.050602 
L 241.870005 101.064232 
L 240.238575 77.41926 
L 238.607145 67.824601 
L 236.975715 110.655165 
L 235.344285 101.381349 
L 233.712855 109.224759 
L 232.081425 73.474159 
L 230.449995 132.822438 
L 228.818566 89.434289 
L 227.187136 70.440264 
L 225.555706 95.927831 
L 223.924276 174.901806 
L 222.292846 170.017501 
L 220.661416 105.686386 
L 219.029986 99.641034 
L 217.398556 72.535114 
L 215.767127 152.010712 
L 214.135697 135.05922 
L 212.504267 232.417622 
L 210.872837 95.292346 
L 209.241407 240.096691 
L 207.609977 195.734278 
L 205.978547 261.308156 
L 204.347117 197.270142 
L 202.715688 184.616948 
L 201.084258 187.659623 
L 199.452828 179.334815 
L 197.821398 287.699613 
L 196.189968 287.699613 
L 194.558538 287.699613 
L 192.927108 287.699613 
L 191.295678 287.699613 
L 189.664249 287.699613 
L 188.032819 287.699613 
L 186.401389 287.699613 
L 184.769959 287.699613 
L 183.138529 287.699613 
L 181.507099 287.699613 
L 179.875669 287.699613 
L 178.244239 287.699613 
L 176.61281 287.699613 
L 174.98138 287.699613 
L 173.34995 287.699613 
L 171.71852 287.699613 
L 170.08709 287.699613 
L 168.45566 287.699613 
L 166.82423 287.699613 
L 165.1928 287.699613 
L 163.56137 287.699613 
L 161.929941 287.699613 
L 160.298511 287.699613 
L 158.667081 287.699613 
L 157.035651 287.699613 
L 155.404221 287.699613 
L 153.772791 287.699613 
L 152.141361 287.699613 
L 150.509931 287.699613 
L 148.878502 287.699613 
L 147.247072 287.699613 
L 145.615642 287.699613 
L 143.984212 287.699613 
L 142.352782 287.699613 
L 140.721352 287.699613 
L 139.089922 287.699613 
L 137.458492 287.699613 
L 135.827063 287.699613 
L 134.195633 287.699613 
L 132.564203 287.699613 
L 130.932773 287.699613 
L 129.301343 287.699613 
L 127.669913 287.699613 
L 126.038483 287.699613 
L 124.407053 287.699613 
L 122.775624 287.699613 
L 121.144194 287.699613 
L 119.512764 287.699613 
L 117.881334 287.699613 
L 116.249904 287.699613 
L 114.618474 287.699613 
L 112.987044 287.699613 
L 111.355614 287.699613 
L 109.724185 287.699613 
L 108.092755 287.699613 
L 106.461325 287.699613 
L 104.829895 287.699613 
L 103.198465 287.699613 
L 101.567035 287.699613 
L 99.935605 287.699613 
L 98.304175 287.699613 
L 96.672746 287.699613 
L 95.041316 287.699613 
L 93.409886 287.699613 
L 91.778456 287.699613 
L 90.147026 287.699613 
L 88.515596 287.699613 
L 86.884166 287.699613 
L 85.252736 287.699613 
L 83.621307 287.699613 
L 81.989877 287.699613 
L 80.358447 287.699613 
L 78.727017 287.699613 
L 77.095587 287.699613 
L 75.464157 287.699613 
L 73.832727 287.699613 
z
" style="fill:#1f77b4;fill-opacity:0.1;"/>
   </g>
   <g id="matplotlib.axis_1">
    <g id="xtick_1">
     <g id="line2d_1">
      <defs>
       <path d="M 0 0 
L 0 3.5 
" id="m9c1186d109" style="stroke:#000000;stroke-width:0.8;"/>
      </defs>
      <g>
       <use style="stroke:#000000;stroke-width:0.8;" x="73.832727" xlink:href="#m9c1186d109" y="307.584"/>
      </g>
     </g>
     <g id="text_1">
      <!-- 0 -->
      <defs>
       <path d="M 31.78125 66.40625 
Q 24.171875 66.40625 20.328125 58.90625 
Q 16.5 51.421875 16.5 36.375 
Q 16.5 21.390625 20.328125 13.890625 
Q 24.171875 6.390625 31.78125 6.390625 
Q 39.453125 6.390625 43.28125 13.890625 
Q 47.125 21.390625 47.125 36.375 
Q 47.125 51.421875 43.28125 58.90625 
Q 39.453125 66.40625 31.78125 66.40625 
z
M 31.78125 74.21875 
Q 44.046875 74.21875 50.515625 64.515625 
Q 56.984375 54.828125 56.984375 36.375 
Q 56.984375 17.96875 50.515625 8.265625 
Q 44.046875 -1.421875 31.78125 -1.421875 
Q 19.53125 -1.421875 13.0625 8.265625 
Q 6.59375 17.96875 6.59375 36.375 
Q 6.59375 54.828125 13.0625 64.515625 
Q 19.53125 74.21875 31.78125 74.21875 
z
" id="DejaVuSans-48"/>
      </defs>
      <g transform="translate(70.651477 322.182437)scale(0.1 -0.1)">
       <use xlink:href="#DejaVuSans-48"/>
      </g>
     </g>
    </g>
    <g id="xtick_2">
     <g id="line2d_2">
      <g>
       <use style="stroke:#000000;stroke-width:0.8;" x="114.618474" xlink:href="#m9c1186d109" y="307.584"/>
      </g>
     </g>
     <g id="text_2">
      <!-- 25 -->
      <defs>
       <path d="M 19.1875 8.296875 
L 53.609375 8.296875 
L 53.609375 0 
L 7.328125 0 
L 7.328125 8.296875 
Q 12.9375 14.109375 22.625 23.890625 
Q 32.328125 33.6875 34.8125 36.53125 
Q 39.546875 41.84375 41.421875 45.53125 
Q 43.3125 49.21875 43.3125 52.78125 
Q 43.3125 58.59375 39.234375 62.25 
Q 35.15625 65.921875 28.609375 65.921875 
Q 23.96875 65.921875 18.8125 64.3125 
Q 13.671875 62.703125 7.8125 59.421875 
L 7.8125 69.390625 
Q 13.765625 71.78125 18.9375 73 
Q 24.125 74.21875 28.421875 74.21875 
Q 39.75 74.21875 46.484375 68.546875 
Q 53.21875 62.890625 53.21875 53.421875 
Q 53.21875 48.921875 51.53125 44.890625 
Q 49.859375 40.875 45.40625 35.40625 
Q 44.1875 33.984375 37.640625 27.21875 
Q 31.109375 20.453125 19.1875 8.296875 
z
" id="DejaVuSans-50"/>
       <path d="M 10.796875 72.90625 
L 49.515625 72.90625 
L 49.515625 64.59375 
L 19.828125 64.59375 
L 19.828125 46.734375 
Q 21.96875 47.46875 24.109375 47.828125 
Q 26.265625 48.1875 28.421875 48.1875 
Q 40.625 48.1875 47.75 41.5 
Q 54.890625 34.8125 54.890625 23.390625 
Q 54.890625 11.625 47.5625 5.09375 
Q 40.234375 -1.421875 26.90625 -1.421875 
Q 22.3125 -1.421875 17.546875 -0.640625 
Q 12.796875 0.140625 7.71875 1.703125 
L 7.71875 11.625 
Q 12.109375 9.234375 16.796875 8.0625 
Q 21.484375 6.890625 26.703125 6.890625 
Q 35.15625 6.890625 40.078125 11.328125 
Q 45.015625 15.765625 45.015625 23.390625 
Q 45.015625 31 40.078125 35.4375 
Q 35.15625 39.890625 26.703125 39.890625 
Q 22.75 39.890625 18.8125 39.015625 
Q 14.890625 38.140625 10.796875 36.28125 
z
" id="DejaVuSans-53"/>
      </defs>
      <g transform="translate(108.255974 322.182437)scale(0.1 -0.1)">
       <use xlink:href="#DejaVuSans-50"/>
       <use x="63.623047" xlink:href="#DejaVuSans-53"/>
      </g>
     </g>
    </g>
    <g id="xtick_3">
     <g id="line2d_3">
      <g>
       <use style="stroke:#000000;stroke-width:0.8;" x="155.404221" xlink:href="#m9c1186d109" y="307.584"/>
      </g>
     </g>
     <g id="text_3">
      <!-- 50 -->
      <g transform="translate(149.041721 322.182437)scale(0.1 -0.1)">
       <use xlink:href="#DejaVuSans-53"/>
       <use x="63.623047" xlink:href="#DejaVuSans-48"/>
      </g>
     </g>
    </g>
    <g id="xtick_4">
     <g id="line2d_4">
      <g>
       <use style="stroke:#000000;stroke-width:0.8;" x="196.189968" xlink:href="#m9c1186d109" y="307.584"/>
      </g>
     </g>
     <g id="text_4">
      <!-- 75 -->
      <defs>
       <path d="M 8.203125 72.90625 
L 55.078125 72.90625 
L 55.078125 68.703125 
L 28.609375 0 
L 18.3125 0 
L 43.21875 64.59375 
L 8.203125 64.59375 
z
" id="DejaVuSans-55"/>
      </defs>
      <g transform="translate(189.827468 322.182437)scale(0.1 -0.1)">
       <use xlink:href="#DejaVuSans-55"/>
       <use x="63.623047" xlink:href="#DejaVuSans-53"/>
      </g>
     </g>
    </g>
    <g id="xtick_5">
     <g id="line2d_5">
      <g>
       <use style="stroke:#000000;stroke-width:0.8;" x="236.975715" xlink:href="#m9c1186d109" y="307.584"/>
      </g>
     </g>
     <g id="text_5">
      <!-- 100 -->
      <defs>
       <path d="M 12.40625 8.296875 
L 28.515625 8.296875 
L 28.515625 63.921875 
L 10.984375 60.40625 
L 10.984375 69.390625 
L 28.421875 72.90625 
L 38.28125 72.90625 
L 38.28125 8.296875 
L 54.390625 8.296875 
L 54.390625 0 
L 12.40625 0 
z
" id="DejaVuSans-49"/>
      </defs>
      <g transform="translate(227.431965 322.182437)scale(0.1 -0.1)">
       <use xlink:href="#DejaVuSans-49"/>
       <use x="63.623047" xlink:href="#DejaVuSans-48"/>
       <use x="127.246094" xlink:href="#DejaVuSans-48"/>
      </g>
     </g>
    </g>
    <g id="xtick_6">
     <g id="line2d_6">
      <g>
       <use style="stroke:#000000;stroke-width:0.8;" x="277.761462" xlink:href="#m9c1186d109" y="307.584"/>
      </g>
     </g>
     <g id="text_6">
      <!-- 125 -->
      <g transform="translate(268.217712 322.182437)scale(0.1 -0.1)">
       <use xlink:href="#DejaVuSans-49"/>
       <use x="63.623047" xlink:href="#DejaVuSans-50"/>
       <use x="127.246094" xlink:href="#DejaVuSans-53"/>
      </g>
     </g>
    </g>
    <g id="xtick_7">
     <g id="line2d_7">
      <g>
       <use style="stroke:#000000;stroke-width:0.8;" x="318.547209" xlink:href="#m9c1186d109" y="307.584"/>
      </g>
     </g>
     <g id="text_7">
      <!-- 150 -->
      <g transform="translate(309.003459 322.182437)scale(0.1 -0.1)">
       <use xlink:href="#DejaVuSans-49"/>
       <use x="63.623047" xlink:href="#DejaVuSans-53"/>
       <use x="127.246094" xlink:href="#DejaVuSans-48"/>
      </g>
     </g>
    </g>
    <g id="xtick_8">
     <g id="line2d_8">
      <g>
       <use style="stroke:#000000;stroke-width:0.8;" x="359.332956" xlink:href="#m9c1186d109" y="307.584"/>
      </g>
     </g>
     <g id="text_8">
      <!-- 175 -->
      <g transform="translate(349.789206 322.182437)scale(0.1 -0.1)">
       <use xlink:href="#DejaVuSans-49"/>
       <use x="63.623047" xlink:href="#DejaVuSans-55"/>
       <use x="127.246094" xlink:href="#DejaVuSans-53"/>
      </g>
     </g>
    </g>
    <g id="xtick_9">
     <g id="line2d_9">
      <g>
       <use style="stroke:#000000;stroke-width:0.8;" x="400.118703" xlink:href="#m9c1186d109" y="307.584"/>
      </g>
     </g>
     <g id="text_9">
      <!-- 200 -->
      <g transform="translate(390.574953 322.182437)scale(0.1 -0.1)">
       <use xlink:href="#DejaVuSans-50"/>
       <use x="63.623047" xlink:href="#DejaVuSans-48"/>
       <use x="127.246094" xlink:href="#DejaVuSans-48"/>
      </g>
     </g>
    </g>
   </g>
   <g id="matplotlib.axis_2">
    <g id="ytick_1">
     <g id="line2d_10">
      <defs>
       <path d="M 0 0 
L -3.5 0 
" id="mab47583033" style="stroke:#000000;stroke-width:0.8;"/>
      </defs>
      <g>
       <use style="stroke:#000000;stroke-width:0.8;" x="57.6" xlink:href="#mab47583033" y="299.981136"/>
      </g>
     </g>
     <g id="text_10">
      <!-- 0 -->
      <g transform="translate(44.2375 303.780355)scale(0.1 -0.1)">
       <use xlink:href="#DejaVuSans-48"/>
      </g>
     </g>
    </g>
    <g id="ytick_2">
     <g id="line2d_11">
      <g>
       <use style="stroke:#000000;stroke-width:0.8;" x="57.6" xlink:href="#mab47583033" y="249.568985"/>
      </g>
     </g>
     <g id="text_11">
      <!-- 5 -->
      <g transform="translate(44.2375 253.368204)scale(0.1 -0.1)">
       <use xlink:href="#DejaVuSans-53"/>
      </g>
     </g>
    </g>
    <g id="ytick_3">
     <g id="line2d_12">
      <g>
       <use style="stroke:#000000;stroke-width:0.8;" x="57.6" xlink:href="#mab47583033" y="199.156834"/>
      </g>
     </g>
     <g id="text_12">
      <!-- 10 -->
      <g transform="translate(37.875 202.956053)scale(0.1 -0.1)">
       <use xlink:href="#DejaVuSans-49"/>
       <use x="63.623047" xlink:href="#DejaVuSans-48"/>
      </g>
     </g>
    </g>
    <g id="ytick_4">
     <g id="line2d_13">
      <g>
       <use style="stroke:#000000;stroke-width:0.8;" x="57.6" xlink:href="#mab47583033" y="148.744683"/>
      </g>
     </g>
     <g id="text_13">
      <!-- 15 -->
      <g transform="translate(37.875 152.543901)scale(0.1 -0.1)">
       <use xlink:href="#DejaVuSans-49"/>
       <use x="63.623047" xlink:href="#DejaVuSans-53"/>
      </g>
     </g>
    </g>
    <g id="ytick_5">
     <g id="line2d_14">
      <g>
       <use style="stroke:#000000;stroke-width:0.8;" x="57.6" xlink:href="#mab47583033" y="98.332532"/>
      </g>
     </g>
     <g id="text_14">
      <!-- 20 -->
      <g transform="translate(37.875 102.13175)scale(0.1 -0.1)">
       <use xlink:href="#DejaVuSans-50"/>
       <use x="63.623047" xlink:href="#DejaVuSans-48"/>
      </g>
     </g>
    </g>
    <g id="ytick_6">
     <g id="line2d_15">
      <g>
       <use style="stroke:#000000;stroke-width:0.8;" x="57.6" xlink:href="#mab47583033" y="47.920381"/>
      </g>
     </g>
     <g id="text_15">
      <!-- 25 -->
      <g transform="translate(37.875 51.719599)scale(0.1 -0.1)">
       <use xlink:href="#DejaVuSans-50"/>
       <use x="63.623047" xlink:href="#DejaVuSans-53"/>
      </g>
     </g>
    </g>
   </g>
   <g id="line2d_16">
    <path clip-path="url(#p158a976084)" d="M 73.832727 288.904454 
L 78.727017 288.904454 
L 80.358447 288.611078 
L 81.989877 288.904454 
L 86.884166 288.904454 
L 88.515596 288.757766 
L 90.147026 288.904454 
L 103.198465 288.904454 
L 104.829895 288.611078 
L 106.461325 288.904454 
L 109.724185 288.904454 
L 111.355614 288.611078 
L 112.987044 288.904454 
L 114.618474 288.904454 
L 116.249904 288.757766 
L 117.881334 288.904454 
L 119.512764 288.611078 
L 121.144194 288.904454 
L 124.407053 288.904454 
L 126.038483 288.611078 
L 127.669913 288.611078 
L 129.301343 288.904454 
L 132.564203 288.904454 
L 134.195633 288.611078 
L 137.458492 288.904454 
L 153.772791 288.904454 
L 155.404221 288.611078 
L 157.035651 288.904454 
L 158.667081 288.904454 
L 160.298511 288.611078 
L 161.929941 288.611078 
L 163.56137 288.904454 
L 165.1928 288.611078 
L 166.82423 288.611078 
L 168.45566 288.904454 
L 174.98138 288.904454 
L 176.61281 288.757766 
L 178.244239 288.904454 
L 179.875669 288.611078 
L 181.507099 288.904454 
L 183.138529 288.611078 
L 188.032819 288.611078 
L 189.664249 288.904454 
L 199.452828 288.904454 
L 201.084258 288.611078 
L 202.715688 288.611078 
L 204.347117 288.212982 
L 205.978547 288.611078 
L 207.609977 288.05363 
L 209.241407 288.081255 
L 210.872837 288.751582 
L 212.504267 288.88902 
L 214.135697 289.159214 
L 215.767127 289.242051 
L 217.398556 288.970267 
L 219.029986 289.018522 
L 220.661416 289.183468 
L 222.292846 288.953416 
L 223.924276 270.714131 
L 225.555706 285.393354 
L 227.187136 283.528264 
L 228.818566 278.486741 
L 230.449995 285.113502 
L 232.081425 284.655941 
L 235.344285 263.640624 
L 236.975715 261.968958 
L 240.238575 271.529059 
L 241.870005 271.310321 
L 243.501434 276.362153 
L 245.132864 273.439914 
L 246.764294 280.017212 
L 248.395724 260.460963 
L 250.027154 278.705184 
L 251.658584 271.781165 
L 253.290014 260.72305 
L 254.921444 287.612101 
L 256.552873 286.976606 
L 258.184303 275.31459 
L 259.815733 285.012439 
L 261.447163 287.054089 
L 263.078593 286.81356 
L 264.710023 281.182652 
L 266.341453 267.152576 
L 267.972883 284.465566 
L 269.604312 281.008758 
L 271.235742 266.20102 
L 272.867172 283.774666 
L 274.498602 285.458841 
L 276.130032 284.589249 
L 277.761462 285.362618 
L 279.392892 269.921296 
L 281.024322 268.329144 
L 282.655751 280.13507 
L 284.287181 273.615124 
L 285.918611 273.412289 
L 287.550041 273.893216 
L 289.181471 276.862391 
L 290.812901 270.069564 
L 292.444331 272.379019 
L 294.075761 268.339287 
L 295.70719 288.206114 
L 297.33862 268.927829 
L 298.97005 280.746615 
L 300.60148 256.795866 
L 302.23291 270.963762 
L 303.86434 264.592546 
L 305.49577 275.322174 
L 307.1272 270.528721 
L 308.75863 268.958477 
L 310.390059 275.578944 
L 312.021489 278.032602 
L 313.652919 262.43322 
L 315.284349 273.723915 
L 316.915779 284.001993 
L 318.547209 270.123378 
L 320.178639 279.888197 
L 321.810069 282.376685 
L 323.441498 277.898718 
L 325.072928 273.772909 
L 326.704358 284.962382 
L 328.335788 276.95833 
L 329.967218 279.781741 
L 331.598648 279.22082 
L 333.230078 267.567114 
L 334.861508 271.541603 
L 336.492937 287.791453 
L 338.124367 285.822996 
L 339.755797 264.584598 
L 341.387227 282.889814 
L 343.018657 272.558615 
L 344.650087 283.8643 
L 346.281517 271.439767 
L 347.912947 284.806776 
L 349.544376 281.825459 
L 351.175806 285.578518 
L 352.807236 289.655969 
L 354.438666 284.088961 
L 356.070096 273.372562 
L 357.701526 278.09164 
L 359.332956 281.14595 
L 360.964386 287.895486 
L 362.595815 267.233865 
L 364.227245 270.218716 
L 365.858675 285.636649 
L 367.490105 268.500574 
L 369.121535 282.373314 
L 370.752965 284.196676 
L 372.384395 271.498179 
L 374.015825 286.254781 
L 375.647254 283.293079 
L 377.278684 277.130191 
L 378.910114 280.869821 
L 380.541544 278.049202 
L 382.172974 283.322551 
L 383.804404 283.169894 
L 385.435834 284.721208 
L 387.067264 288.322242 
L 388.698693 283.169101 
L 390.330123 284.621763 
L 391.961553 287.083128 
L 393.592983 288.131512 
L 395.224413 272.186335 
L 396.855843 285.831466 
L 398.487273 284.137017 
L 398.487273 284.137017 
" style="fill:none;stroke:#1f77b4;stroke-linecap:square;stroke-width:0.25;"/>
   </g>
   <g id="line2d_17">
    <path clip-path="url(#p158a976084)" d="M 73.832727 288.459916 
L 78.727017 288.520158 
L 80.358447 288.378511 
L 81.989877 288.48726 
L 83.621307 288.474899 
L 86.884166 288.59863 
L 88.515596 288.447868 
L 90.147026 288.546876 
L 93.409886 288.480766 
L 197.821398 288.529586 
L 199.452828 287.122277 
L 201.084258 286.655396 
L 202.715688 286.416309 
L 204.347117 285.790805 
L 205.978547 288.153798 
L 207.609977 286.321868 
L 209.241407 286.193412 
L 210.872837 280.538588 
L 212.504267 285.65876 
L 214.135697 285.197594 
L 215.767127 282.974011 
L 217.398556 274.786958 
L 219.029986 276.623707 
L 220.661416 281.328964 
L 222.292846 282.51749 
L 223.924276 268.81081 
L 225.555706 264.983422 
L 227.187136 252.786101 
L 228.818566 254.315482 
L 230.449995 254.343386 
L 232.081425 255.214693 
L 233.712855 260.03903 
L 235.344285 251.009625 
L 236.975715 249.027621 
L 238.607145 257.204066 
L 240.238575 251.908351 
L 241.870005 257.787581 
L 243.501434 261.780944 
L 245.132864 252.991537 
L 246.764294 272.12431 
L 248.395724 247.410082 
L 250.027154 264.883083 
L 251.658584 253.963208 
L 253.290014 251.494749 
L 254.921444 260.014608 
L 256.552873 274.848703 
L 258.184303 256.814401 
L 259.815733 263.385105 
L 261.447163 273.628651 
L 264.710023 249.424027 
L 266.341453 249.957252 
L 269.604312 264.348123 
L 271.235742 252.066025 
L 272.867172 248.701382 
L 276.130032 261.20658 
L 277.761462 254.38352 
L 279.392892 257.032909 
L 281.024322 253.421454 
L 282.655751 256.554484 
L 284.287181 237.844209 
L 287.550041 266.145316 
L 289.181471 251.091237 
L 290.812901 255.796389 
L 292.444331 252.172766 
L 294.075761 238.393766 
L 295.70719 274.471139 
L 297.33862 248.115217 
L 298.97005 256.610761 
L 300.60148 244.62445 
L 302.23291 259.273598 
L 303.86434 249.981946 
L 305.49577 261.09828 
L 307.1272 252.124671 
L 308.75863 244.188397 
L 310.390059 252.934022 
L 312.021489 248.817455 
L 313.652919 237.531761 
L 315.284349 255.111442 
L 316.915779 264.383175 
L 318.547209 259.442124 
L 320.178639 262.033602 
L 321.810069 260.909098 
L 323.441498 241.504926 
L 325.072928 257.015841 
L 326.704358 262.879231 
L 328.335788 256.73633 
L 329.967218 249.464679 
L 333.230078 247.314042 
L 334.861508 247.443953 
L 336.492937 268.975835 
L 338.124367 260.726246 
L 339.755797 245.916178 
L 341.387227 271.376695 
L 343.018657 244.98565 
L 344.650087 261.249872 
L 346.281517 244.587268 
L 347.912947 276.941356 
L 349.544376 240.451921 
L 351.175806 258.789765 
L 352.807236 275.088318 
L 356.070096 249.136957 
L 357.701526 254.896007 
L 359.332956 262.138043 
L 360.964386 266.933375 
L 362.595815 220.923863 
L 364.227245 249.163837 
L 365.858675 263.229354 
L 367.490105 245.661481 
L 369.121535 259.387401 
L 372.384395 248.746074 
L 374.015825 258.253181 
L 375.647254 258.902871 
L 377.278684 253.857922 
L 378.910114 259.849507 
L 380.541544 241.253741 
L 382.172974 255.586781 
L 383.804404 261.207462 
L 385.435834 267.499726 
L 387.067264 267.732571 
L 388.698693 272.305798 
L 390.330123 252.875289 
L 391.961553 266.676883 
L 393.592983 270.749988 
L 395.224413 243.220323 
L 396.855843 263.214852 
L 398.487273 262.797679 
L 398.487273 262.797679 
" style="fill:none;stroke:#2ca02c;stroke-linecap:square;stroke-width:0.75;"/>
   </g>
   <g id="patch_3">
    <path d="M 57.6 307.584 
L 57.6 41.472 
" style="fill:none;stroke:#000000;stroke-linecap:square;stroke-linejoin:miter;stroke-width:0.8;"/>
   </g>
   <g id="patch_4">
    <path d="M 414.72 307.584 
L 414.72 41.472 
" style="fill:none;stroke:#000000;stroke-linecap:square;stroke-linejoin:miter;stroke-width:0.8;"/>
   </g>
   <g id="patch_5">
    <path d="M 57.6 307.584 
L 414.72 307.584 
" style="fill:none;stroke:#000000;stroke-linecap:square;stroke-linejoin:miter;stroke-width:0.8;"/>
   </g>
   <g id="patch_6">
    <path d="M 57.6 41.472 
L 414.72 41.472 
" style="fill:none;stroke:#000000;stroke-linecap:square;stroke-linejoin:miter;stroke-width:0.8;"/>
   </g>
   <g id="legend_1">
    <g id="patch_7">
     <path d="M 338.234063 78.82825 
L 407.72 78.82825 
Q 409.72 78.82825 409.72 76.82825 
L 409.72 48.472 
Q 409.72 46.472 407.72 46.472 
L 338.234063 46.472 
Q 336.234063 46.472 336.234063 48.472 
L 336.234063 76.82825 
Q 336.234063 78.82825 338.234063 78.82825 
z
" style="fill:#ffffff;opacity:0.8;stroke:#cccccc;stroke-linejoin:miter;"/>
    </g>
    <g id="line2d_18">
     <path d="M 340.234063 54.570437 
L 360.234063 54.570437 
" style="fill:none;stroke:#1f77b4;stroke-linecap:square;stroke-width:0.25;"/>
    </g>
    <g id="line2d_19"/>
    <g id="text_16">
     <!-- median -->
     <defs>
      <path d="M 52 44.1875 
Q 55.375 50.25 60.0625 53.125 
Q 64.75 56 71.09375 56 
Q 79.640625 56 84.28125 50.015625 
Q 88.921875 44.046875 88.921875 33.015625 
L 88.921875 0 
L 79.890625 0 
L 79.890625 32.71875 
Q 79.890625 40.578125 77.09375 44.375 
Q 74.3125 48.1875 68.609375 48.1875 
Q 61.625 48.1875 57.5625 43.546875 
Q 53.515625 38.921875 53.515625 30.90625 
L 53.515625 0 
L 44.484375 0 
L 44.484375 32.71875 
Q 44.484375 40.625 41.703125 44.40625 
Q 38.921875 48.1875 33.109375 48.1875 
Q 26.21875 48.1875 22.15625 43.53125 
Q 18.109375 38.875 18.109375 30.90625 
L 18.109375 0 
L 9.078125 0 
L 9.078125 54.6875 
L 18.109375 54.6875 
L 18.109375 46.1875 
Q 21.1875 51.21875 25.484375 53.609375 
Q 29.78125 56 35.6875 56 
Q 41.65625 56 45.828125 52.96875 
Q 50 49.953125 52 44.1875 
z
" id="DejaVuSans-109"/>
      <path d="M 56.203125 29.59375 
L 56.203125 25.203125 
L 14.890625 25.203125 
Q 15.484375 15.921875 20.484375 11.0625 
Q 25.484375 6.203125 34.421875 6.203125 
Q 39.59375 6.203125 44.453125 7.46875 
Q 49.3125 8.734375 54.109375 11.28125 
L 54.109375 2.78125 
Q 49.265625 0.734375 44.1875 -0.34375 
Q 39.109375 -1.421875 33.890625 -1.421875 
Q 20.796875 -1.421875 13.15625 6.1875 
Q 5.515625 13.8125 5.515625 26.8125 
Q 5.515625 40.234375 12.765625 48.109375 
Q 20.015625 56 32.328125 56 
Q 43.359375 56 49.78125 48.890625 
Q 56.203125 41.796875 56.203125 29.59375 
z
M 47.21875 32.234375 
Q 47.125 39.59375 43.09375 43.984375 
Q 39.0625 48.390625 32.421875 48.390625 
Q 24.90625 48.390625 20.390625 44.140625 
Q 15.875 39.890625 15.1875 32.171875 
z
" id="DejaVuSans-101"/>
      <path d="M 45.40625 46.390625 
L 45.40625 75.984375 
L 54.390625 75.984375 
L 54.390625 0 
L 45.40625 0 
L 45.40625 8.203125 
Q 42.578125 3.328125 38.25 0.953125 
Q 33.9375 -1.421875 27.875 -1.421875 
Q 17.96875 -1.421875 11.734375 6.484375 
Q 5.515625 14.40625 5.515625 27.296875 
Q 5.515625 40.1875 11.734375 48.09375 
Q 17.96875 56 27.875 56 
Q 33.9375 56 38.25 53.625 
Q 42.578125 51.265625 45.40625 46.390625 
z
M 14.796875 27.296875 
Q 14.796875 17.390625 18.875 11.75 
Q 22.953125 6.109375 30.078125 6.109375 
Q 37.203125 6.109375 41.296875 11.75 
Q 45.40625 17.390625 45.40625 27.296875 
Q 45.40625 37.203125 41.296875 42.84375 
Q 37.203125 48.484375 30.078125 48.484375 
Q 22.953125 48.484375 18.875 42.84375 
Q 14.796875 37.203125 14.796875 27.296875 
z
" id="DejaVuSans-100"/>
      <path d="M 9.421875 54.6875 
L 18.40625 54.6875 
L 18.40625 0 
L 9.421875 0 
z
M 9.421875 75.984375 
L 18.40625 75.984375 
L 18.40625 64.59375 
L 9.421875 64.59375 
z
" id="DejaVuSans-105"/>
      <path d="M 34.28125 27.484375 
Q 23.390625 27.484375 19.1875 25 
Q 14.984375 22.515625 14.984375 16.5 
Q 14.984375 11.71875 18.140625 8.90625 
Q 21.296875 6.109375 26.703125 6.109375 
Q 34.1875 6.109375 38.703125 11.40625 
Q 43.21875 16.703125 43.21875 25.484375 
L 43.21875 27.484375 
z
M 52.203125 31.203125 
L 52.203125 0 
L 43.21875 0 
L 43.21875 8.296875 
Q 40.140625 3.328125 35.546875 0.953125 
Q 30.953125 -1.421875 24.3125 -1.421875 
Q 15.921875 -1.421875 10.953125 3.296875 
Q 6 8.015625 6 15.921875 
Q 6 25.140625 12.171875 29.828125 
Q 18.359375 34.515625 30.609375 34.515625 
L 43.21875 34.515625 
L 43.21875 35.40625 
Q 43.21875 41.609375 39.140625 45 
Q 35.0625 48.390625 27.6875 48.390625 
Q 23 48.390625 18.546875 47.265625 
Q 14.109375 46.140625 10.015625 43.890625 
L 10.015625 52.203125 
Q 14.9375 54.109375 19.578125 55.046875 
Q 24.21875 56 28.609375 56 
Q 40.484375 56 46.34375 49.84375 
Q 52.203125 43.703125 52.203125 31.203125 
z
" id="DejaVuSans-97"/>
      <path d="M 54.890625 33.015625 
L 54.890625 0 
L 45.90625 0 
L 45.90625 32.71875 
Q 45.90625 40.484375 42.875 44.328125 
Q 39.84375 48.1875 33.796875 48.1875 
Q 26.515625 48.1875 22.3125 43.546875 
Q 18.109375 38.921875 18.109375 30.90625 
L 18.109375 0 
L 9.078125 0 
L 9.078125 54.6875 
L 18.109375 54.6875 
L 18.109375 46.1875 
Q 21.34375 51.125 25.703125 53.5625 
Q 30.078125 56 35.796875 56 
Q 45.21875 56 50.046875 50.171875 
Q 54.890625 44.34375 54.890625 33.015625 
z
" id="DejaVuSans-110"/>
     </defs>
     <g transform="translate(368.234063 58.070437)scale(0.1 -0.1)">
      <use xlink:href="#DejaVuSans-109"/>
      <use x="97.412109" xlink:href="#DejaVuSans-101"/>
      <use x="158.935547" xlink:href="#DejaVuSans-100"/>
      <use x="222.412109" xlink:href="#DejaVuSans-105"/>
      <use x="250.195312" xlink:href="#DejaVuSans-97"/>
      <use x="311.474609" xlink:href="#DejaVuSans-110"/>
     </g>
    </g>
    <g id="line2d_20">
     <path d="M 340.234063 69.248562 
L 360.234063 69.248562 
" style="fill:none;stroke:#2ca02c;stroke-linecap:square;stroke-width:0.75;"/>
    </g>
    <g id="line2d_21"/>
    <g id="text_17">
     <!-- mean -->
     <g transform="translate(368.234063 72.748562)scale(0.1 -0.1)">
      <use xlink:href="#DejaVuSans-109"/>
      <use x="97.412109" xlink:href="#DejaVuSans-101"/>
      <use x="158.935547" xlink:href="#DejaVuSans-97"/>
      <use x="220.214844" xlink:href="#DejaVuSans-110"/>
     </g>
    </g>
   </g>
  </g>
  <g id="text_18">
   <!-- log_loss.mean over generations -->
   <defs>
    <path d="M 9.421875 75.984375 
L 18.40625 75.984375 
L 18.40625 0 
L 9.421875 0 
z
" id="DejaVuSans-108"/>
    <path d="M 30.609375 48.390625 
Q 23.390625 48.390625 19.1875 42.75 
Q 14.984375 37.109375 14.984375 27.296875 
Q 14.984375 17.484375 19.15625 11.84375 
Q 23.34375 6.203125 30.609375 6.203125 
Q 37.796875 6.203125 41.984375 11.859375 
Q 46.1875 17.53125 46.1875 27.296875 
Q 46.1875 37.015625 41.984375 42.703125 
Q 37.796875 48.390625 30.609375 48.390625 
z
M 30.609375 56 
Q 42.328125 56 49.015625 48.375 
Q 55.71875 40.765625 55.71875 27.296875 
Q 55.71875 13.875 49.015625 6.21875 
Q 42.328125 -1.421875 30.609375 -1.421875 
Q 18.84375 -1.421875 12.171875 6.21875 
Q 5.515625 13.875 5.515625 27.296875 
Q 5.515625 40.765625 12.171875 48.375 
Q 18.84375 56 30.609375 56 
z
" id="DejaVuSans-111"/>
    <path d="M 45.40625 27.984375 
Q 45.40625 37.75 41.375 43.109375 
Q 37.359375 48.484375 30.078125 48.484375 
Q 22.859375 48.484375 18.828125 43.109375 
Q 14.796875 37.75 14.796875 27.984375 
Q 14.796875 18.265625 18.828125 12.890625 
Q 22.859375 7.515625 30.078125 7.515625 
Q 37.359375 7.515625 41.375 12.890625 
Q 45.40625 18.265625 45.40625 27.984375 
z
M 54.390625 6.78125 
Q 54.390625 -7.171875 48.1875 -13.984375 
Q 42 -20.796875 29.203125 -20.796875 
Q 24.46875 -20.796875 20.265625 -20.09375 
Q 16.0625 -19.390625 12.109375 -17.921875 
L 12.109375 -9.1875 
Q 16.0625 -11.328125 19.921875 -12.34375 
Q 23.78125 -13.375 27.78125 -13.375 
Q 36.625 -13.375 41.015625 -8.765625 
Q 45.40625 -4.15625 45.40625 5.171875 
L 45.40625 9.625 
Q 42.625 4.78125 38.28125 2.390625 
Q 33.9375 0 27.875 0 
Q 17.828125 0 11.671875 7.65625 
Q 5.515625 15.328125 5.515625 27.984375 
Q 5.515625 40.671875 11.671875 48.328125 
Q 17.828125 56 27.875 56 
Q 33.9375 56 38.28125 53.609375 
Q 42.625 51.21875 45.40625 46.390625 
L 45.40625 54.6875 
L 54.390625 54.6875 
z
" id="DejaVuSans-103"/>
    <path d="M 50.984375 -16.609375 
L 50.984375 -23.578125 
L -0.984375 -23.578125 
L -0.984375 -16.609375 
z
" id="DejaVuSans-95"/>
    <path d="M 44.28125 53.078125 
L 44.28125 44.578125 
Q 40.484375 46.53125 36.375 47.5 
Q 32.28125 48.484375 27.875 48.484375 
Q 21.1875 48.484375 17.84375 46.4375 
Q 14.5 44.390625 14.5 40.28125 
Q 14.5 37.15625 16.890625 35.375 
Q 19.28125 33.59375 26.515625 31.984375 
L 29.59375 31.296875 
Q 39.15625 29.25 43.1875 25.515625 
Q 47.21875 21.78125 47.21875 15.09375 
Q 47.21875 7.46875 41.1875 3.015625 
Q 35.15625 -1.421875 24.609375 -1.421875 
Q 20.21875 -1.421875 15.453125 -0.5625 
Q 10.6875 0.296875 5.421875 2 
L 5.421875 11.28125 
Q 10.40625 8.6875 15.234375 7.390625 
Q 20.0625 6.109375 24.8125 6.109375 
Q 31.15625 6.109375 34.5625 8.28125 
Q 37.984375 10.453125 37.984375 14.40625 
Q 37.984375 18.0625 35.515625 20.015625 
Q 33.0625 21.96875 24.703125 23.78125 
L 21.578125 24.515625 
Q 13.234375 26.265625 9.515625 29.90625 
Q 5.8125 33.546875 5.8125 39.890625 
Q 5.8125 47.609375 11.28125 51.796875 
Q 16.75 56 26.8125 56 
Q 31.78125 56 36.171875 55.265625 
Q 40.578125 54.546875 44.28125 53.078125 
z
" id="DejaVuSans-115"/>
    <path d="M 10.6875 12.40625 
L 21 12.40625 
L 21 0 
L 10.6875 0 
z
" id="DejaVuSans-46"/>
    <path id="DejaVuSans-32"/>
    <path d="M 2.984375 54.6875 
L 12.5 54.6875 
L 29.59375 8.796875 
L 46.6875 54.6875 
L 56.203125 54.6875 
L 35.6875 0 
L 23.484375 0 
z
" id="DejaVuSans-118"/>
    <path d="M 41.109375 46.296875 
Q 39.59375 47.171875 37.8125 47.578125 
Q 36.03125 48 33.890625 48 
Q 26.265625 48 22.1875 43.046875 
Q 18.109375 38.09375 18.109375 28.8125 
L 18.109375 0 
L 9.078125 0 
L 9.078125 54.6875 
L 18.109375 54.6875 
L 18.109375 46.1875 
Q 20.953125 51.171875 25.484375 53.578125 
Q 30.03125 56 36.53125 56 
Q 37.453125 56 38.578125 55.875 
Q 39.703125 55.765625 41.0625 55.515625 
z
" id="DejaVuSans-114"/>
    <path d="M 18.3125 70.21875 
L 18.3125 54.6875 
L 36.8125 54.6875 
L 36.8125 47.703125 
L 18.3125 47.703125 
L 18.3125 18.015625 
Q 18.3125 11.328125 20.140625 9.421875 
Q 21.96875 7.515625 27.59375 7.515625 
L 36.8125 7.515625 
L 36.8125 0 
L 27.59375 0 
Q 17.1875 0 13.234375 3.875 
Q 9.28125 7.765625 9.28125 18.015625 
L 9.28125 47.703125 
L 2.6875 47.703125 
L 2.6875 54.6875 
L 9.28125 54.6875 
L 9.28125 70.21875 
z
" id="DejaVuSans-116"/>
   </defs>
   <g transform="translate(134.789062 16.030125)scale(0.12 -0.12)">
    <use xlink:href="#DejaVuSans-108"/>
    <use x="27.783203" xlink:href="#DejaVuSans-111"/>
    <use x="88.964844" xlink:href="#DejaVuSans-103"/>
    <use x="152.441406" xlink:href="#DejaVuSans-95"/>
    <use x="202.441406" xlink:href="#DejaVuSans-108"/>
    <use x="230.224609" xlink:href="#DejaVuSans-111"/>
    <use x="291.40625" xlink:href="#DejaVuSans-115"/>
    <use x="343.505859" xlink:href="#DejaVuSans-115"/>
    <use x="395.605469" xlink:href="#DejaVuSans-46"/>
    <use x="427.392578" xlink:href="#DejaVuSans-109"/>
    <use x="524.804688" xlink:href="#DejaVuSans-101"/>
    <use x="586.328125" xlink:href="#DejaVuSans-97"/>
    <use x="647.607422" xlink:href="#DejaVuSans-110"/>
    <use x="710.986328" xlink:href="#DejaVuSans-32"/>
    <use x="742.773438" xlink:href="#DejaVuSans-111"/>
    <use x="803.955078" xlink:href="#DejaVuSans-118"/>
    <use x="863.134766" xlink:href="#DejaVuSans-101"/>
    <use x="924.658203" xlink:href="#DejaVuSans-114"/>
    <use x="965.771484" xlink:href="#DejaVuSans-32"/>
    <use x="997.558594" xlink:href="#DejaVuSans-103"/>
    <use x="1061.035156" xlink:href="#DejaVuSans-101"/>
    <use x="1122.558594" xlink:href="#DejaVuSans-110"/>
    <use x="1185.9375" xlink:href="#DejaVuSans-101"/>
    <use x="1247.460938" xlink:href="#DejaVuSans-114"/>
    <use x="1288.574219" xlink:href="#DejaVuSans-97"/>
    <use x="1349.853516" xlink:href="#DejaVuSans-116"/>
    <use x="1389.0625" xlink:href="#DejaVuSans-105"/>
    <use x="1416.845703" xlink:href="#DejaVuSans-111"/>
    <use x="1478.027344" xlink:href="#DejaVuSans-110"/>
    <use x="1541.40625" xlink:href="#DejaVuSans-115"/>
   </g>
  </g>
 </g>
 <defs>
  <clipPath id="p158a976084">
   <rect height="266.112" width="357.12" x="57.6" y="41.472"/>
  </clipPath>
 </defs>
</svg>
