<?xml version="1.0" encoding="utf-8" standalone="no"?>
<!DOCTYPE svg PUBLIC "-//W3C//DTD SVG 1.1//EN"
  "http://www.w3.org/Graphics/SVG/1.1/DTD/svg11.dtd">
<!-- Created with matplotlib (https://matplotlib.org/) -->
<svg height="345.6pt" version="1.1" viewBox="0 0 460.8 345.6" width="460.8pt" xmlns="http://www.w3.org/2000/svg" xmlns:xlink="http://www.w3.org/1999/xlink">
 <defs>
  <style type="text/css">
*{stroke-linecap:butt;stroke-linejoin:round;}
  </style>
 </defs>
 <g id="figure_1">
  <g id="patch_1">
   <path d="M 0 345.6 
L 460.8 345.6 
L 460.8 0 
L 0 0 
z
" style="fill:#ffffff;"/>
  </g>
  <g id="axes_1">
   <g id="patch_2">
    <path d="M 57.6 307.584 
L 414.72 307.584 
L 414.72 41.472 
L 57.6 41.472 
z
" style="fill:#ffffff;"/>
   </g>
   <g id="PolyCollection_1">
    <path clip-path="url(#p23b3640fa5)" d="M 73.832727 195.189493 
L 73.832727 195.189493 
L 75.464157 195.189493 
L 77.095587 195.189493 
L 78.727017 195.189493 
L 80.358447 195.189493 
L 81.989877 195.189493 
L 83.621307 195.189493 
L 85.252736 195.189493 
L 86.884166 195.189493 
L 88.515596 195.189493 
L 90.147026 195.189493 
L 91.778456 195.189493 
L 93.409886 195.189493 
L 95.041316 195.189493 
L 96.672746 195.189493 
L 98.304175 195.189493 
L 99.935605 195.189493 
L 101.567035 195.189493 
L 103.198465 195.189493 
L 104.829895 195.189493 
L 106.461325 195.189493 
L 108.092755 195.189493 
L 109.724185 195.189493 
L 111.355614 195.189493 
L 112.987044 195.189493 
L 114.618474 195.189493 
L 116.249904 195.189493 
L 117.881334 195.189493 
L 119.512764 195.189493 
L 121.144194 195.189493 
L 122.775624 195.189493 
L 124.407053 195.189493 
L 126.038483 195.189493 
L 127.669913 195.189493 
L 129.301343 195.189493 
L 130.932773 195.189493 
L 132.564203 195.189493 
L 134.195633 195.189493 
L 135.827063 195.189493 
L 137.458492 195.189493 
L 139.089922 195.189493 
L 140.721352 195.189493 
L 142.352782 195.189493 
L 143.984212 195.189493 
L 145.615642 195.189493 
L 147.247072 195.189493 
L 148.878502 195.189493 
L 150.509931 195.189493 
L 152.141361 195.189493 
L 153.772791 195.189493 
L 155.404221 195.189493 
L 157.035651 195.189493 
L 158.667081 195.189493 
L 160.298511 195.189493 
L 161.929941 195.189493 
L 163.56137 195.189493 
L 165.1928 195.189493 
L 166.82423 195.189493 
L 168.45566 195.189493 
L 170.08709 195.189493 
L 171.71852 195.189493 
L 173.34995 195.189493 
L 174.98138 195.189493 
L 176.61281 195.189493 
L 178.244239 195.189493 
L 179.875669 195.189493 
L 181.507099 195.189493 
L 183.138529 195.189493 
L 184.769959 195.189493 
L 186.401389 195.189493 
L 188.032819 195.189493 
L 189.664249 195.189493 
L 191.295678 195.189493 
L 192.927108 195.189493 
L 194.558538 195.189493 
L 196.189968 195.189493 
L 197.821398 195.189493 
L 199.452828 195.189493 
L 201.084258 195.189493 
L 202.715688 195.189493 
L 204.347117 195.189493 
L 205.978547 195.189493 
L 207.609977 195.189493 
L 209.241407 195.189493 
L 210.872837 195.189493 
L 212.504267 195.189493 
L 214.135697 195.189493 
L 215.767127 195.189493 
L 217.398556 195.189493 
L 219.029986 195.189493 
L 220.661416 195.189493 
L 222.292846 195.189493 
L 223.924276 181.548896 
L 225.555706 195.189493 
L 227.187136 195.189493 
L 228.818566 181.147701 
L 230.449995 177.938149 
L 232.081425 195.189493 
L 233.712855 195.189493 
L 235.344285 195.189493 
L 236.975715 189.171582 
L 238.607145 193.183522 
L 240.238575 194.888597 
L 241.870005 195.189493 
L 243.501434 191.779343 
L 245.132864 195.189493 
L 246.764294 171.862925 
L 248.395724 171.519045 
L 250.027154 195.189493 
L 251.658584 179.542925 
L 253.290014 195.189493 
L 254.921444 195.189493 
L 256.552873 167.564776 
L 258.184303 179.342328 
L 259.815733 175.129791 
L 261.447163 177.642269 
L 263.078593 178.740537 
L 264.710023 195.189493 
L 266.341453 195.189493 
L 267.972883 195.189493 
L 269.604312 195.189493 
L 271.235742 193.685015 
L 272.867172 193.183522 
L 274.498602 195.189493 
L 276.130032 195.189493 
L 277.761462 177.938149 
L 279.392892 186.162627 
L 281.024322 175.129791 
L 282.655751 195.189493 
L 284.287181 195.189493 
L 285.918611 195.189493 
L 287.550041 179.944119 
L 289.181471 195.189493 
L 290.812901 177.536955 
L 292.444331 181.147701 
L 294.075761 195.189493 
L 295.70719 168.582806 
L 297.33862 195.189493 
L 298.97005 186.262925 
L 300.60148 195.189493 
L 302.23291 175.631284 
L 303.86434 193.98591 
L 305.49577 181.248 
L 307.1272 189.171582 
L 308.75863 191.177552 
L 310.390059 195.189493 
L 312.021489 195.189493 
L 313.652919 195.189493 
L 315.284349 193.584716 
L 316.915779 168.17318 
L 318.547209 175.129791 
L 320.178639 179.141731 
L 321.810069 178.038448 
L 323.441498 195.189493 
L 325.072928 188.870687 
L 326.704358 177.135761 
L 328.335788 194.487403 
L 329.967218 195.189493 
L 331.598648 175.530985 
L 333.230078 190.776358 
L 334.861508 191.177552 
L 336.492937 179.944119 
L 338.124367 195.189493 
L 339.755797 195.189493 
L 341.387227 193.584716 
L 343.018657 195.189493 
L 344.650087 186.363224 
L 346.281517 195.189493 
L 347.912947 159.483224 
L 349.544376 191.177552 
L 351.175806 175.932179 
L 352.807236 175.129791 
L 354.438666 178.559045 
L 356.070096 194.788298 
L 357.701526 193.584716 
L 359.332956 175.129791 
L 360.964386 195.189493 
L 362.595815 195.189493 
L 364.227245 195.189493 
L 365.858675 177.938149 
L 367.490105 195.189493 
L 369.121535 195.189493 
L 370.752965 181.117612 
L 372.384395 183.279854 
L 374.015825 195.189493 
L 375.647254 185.487891 
L 377.278684 174.192 
L 378.910114 184.801433 
L 380.541544 195.189493 
L 382.172974 186.005402 
L 383.804404 181.145062 
L 385.435834 185.460537 
L 387.067264 176.53397 
L 388.698693 174.427702 
L 390.330123 192.381134 
L 391.961553 171.117851 
L 393.592983 178.640239 
L 395.224413 176.132776 
L 396.855843 168.335657 
L 398.487273 181.548896 
L 398.487273 112.543522 
L 398.487273 112.543522 
L 396.855843 106.224716 
L 395.224413 103.817552 
L 393.592983 108.932776 
L 391.961553 101.31009 
L 390.330123 94.890985 
L 388.698693 106.525612 
L 387.067264 99.103522 
L 385.435834 106.124418 
L 383.804404 106.926806 
L 382.172974 99.561704 
L 380.541544 103.072478 
L 378.910114 103.211303 
L 377.278684 103.45283 
L 375.647254 96.495761 
L 374.015825 105.32203 
L 372.384395 105.021134 
L 370.752965 94.890985 
L 369.121535 97.859821 
L 367.490105 103.31606 
L 365.858675 120.667701 
L 364.227245 133.204418 
L 362.595815 94.890985 
L 360.964386 100.507701 
L 359.332956 123.375761 
L 357.701526 100.94975 
L 356.070096 132.675532 
L 354.438666 120.567403 
L 352.807236 108.932776 
L 351.175806 103.050985 
L 349.544376 132.814751 
L 347.912947 108.230687 
L 346.281517 103.591881 
L 344.650087 108.932776 
L 343.018657 106.124418 
L 341.387227 105.269493 
L 339.755797 109.634866 
L 338.124367 95.109243 
L 336.492937 108.431284 
L 334.861508 101.711284 
L 333.230078 95.101612 
L 331.598648 94.890985 
L 329.967218 94.890985 
L 328.335788 114.348896 
L 326.704358 94.890985 
L 325.072928 119.965612 
L 323.441498 98.200836 
L 321.810069 101.335164 
L 320.178639 94.890985 
L 318.547209 101.209791 
L 316.915779 94.890985 
L 315.284349 94.991284 
L 313.652919 95.292179 
L 312.021489 114.148298 
L 310.390059 122.056119 
L 308.75863 96.450627 
L 307.1272 99.003224 
L 305.49577 97.398448 
L 303.86434 108.932776 
L 302.23291 95.306507 
L 300.60148 111.741134 
L 298.97005 99.003224 
L 297.33862 100.507701 
L 295.70719 108.732179 
L 294.075761 108.932776 
L 292.444331 108.932776 
L 290.812901 108.230687 
L 289.181471 125.682627 
L 287.550041 138.031379 
L 285.918611 135.010388 
L 284.287181 94.890985 
L 282.655751 108.932776 
L 281.024322 117.357851 
L 279.392892 108.932776 
L 277.761462 106.753563 
L 276.130032 127.387701 
L 274.498602 108.531582 
L 272.867172 115.351881 
L 271.235742 108.932776 
L 269.604312 108.932776 
L 267.972883 103.31606 
L 266.341453 108.932776 
L 264.710023 108.932776 
L 263.078593 115.853373 
L 261.447163 126.384716 
L 259.815733 108.932776 
L 258.184303 108.932776 
L 256.552873 104.920836 
L 254.921444 106.485493 
L 253.290014 172.302328 
L 251.658584 113.747104 
L 250.027154 108.932776 
L 248.395724 164.455164 
L 246.764294 126.585313 
L 245.132864 167.908299 
L 243.501434 108.230687 
L 241.870005 109.835463 
L 240.238575 156.795224 
L 238.607145 126.48 
L 236.975715 164.197254 
L 235.344285 100.92394 
L 233.712855 108.025313 
L 232.081425 94.977838 
L 230.449995 95.292179 
L 228.818566 103.192966 
L 227.187136 106.069254 
L 225.555706 154.78743 
L 223.924276 133.806806 
L 222.292846 176.901427 
L 220.661416 136.21397 
L 219.029986 155.07009 
L 217.398556 153.007588 
L 215.767127 155.07009 
L 214.135697 154.969791 
L 212.504267 169.111881 
L 210.872837 195.189493 
L 209.241407 195.189493 
L 207.609977 195.189493 
L 205.978547 195.189493 
L 204.347117 195.189493 
L 202.715688 195.189493 
L 201.084258 195.189493 
L 199.452828 195.189493 
L 197.821398 195.189493 
L 196.189968 195.189493 
L 194.558538 195.189493 
L 192.927108 195.189493 
L 191.295678 195.189493 
L 189.664249 195.189493 
L 188.032819 195.189493 
L 186.401389 195.189493 
L 184.769959 195.189493 
L 183.138529 195.189493 
L 181.507099 195.189493 
L 179.875669 195.189493 
L 178.244239 195.189493 
L 176.61281 195.189493 
L 174.98138 195.189493 
L 173.34995 195.189493 
L 171.71852 195.189493 
L 170.08709 195.189493 
L 168.45566 195.189493 
L 166.82423 195.189493 
L 165.1928 195.189493 
L 163.56137 195.189493 
L 161.929941 195.189493 
L 160.298511 195.189493 
L 158.667081 195.189493 
L 157.035651 195.189493 
L 155.404221 195.189493 
L 153.772791 195.189493 
L 152.141361 195.189493 
L 150.509931 195.189493 
L 148.878502 195.189493 
L 147.247072 195.189493 
L 145.615642 195.189493 
L 143.984212 195.189493 
L 142.352782 195.189493 
L 140.721352 195.189493 
L 139.089922 195.189493 
L 137.458492 195.189493 
L 135.827063 195.189493 
L 134.195633 195.189493 
L 132.564203 195.189493 
L 130.932773 195.189493 
L 129.301343 195.189493 
L 127.669913 195.189493 
L 126.038483 195.189493 
L 124.407053 195.189493 
L 122.775624 195.189493 
L 121.144194 195.189493 
L 119.512764 195.189493 
L 117.881334 195.189493 
L 116.249904 195.189493 
L 114.618474 195.189493 
L 112.987044 195.189493 
L 111.355614 195.189493 
L 109.724185 195.189493 
L 108.092755 195.189493 
L 106.461325 195.189493 
L 104.829895 195.189493 
L 103.198465 195.189493 
L 101.567035 195.189493 
L 99.935605 195.189493 
L 98.304175 195.189493 
L 96.672746 195.189493 
L 95.041316 195.189493 
L 93.409886 195.189493 
L 91.778456 195.189493 
L 90.147026 195.189493 
L 88.515596 195.189493 
L 86.884166 195.189493 
L 85.252736 195.189493 
L 83.621307 195.189493 
L 81.989877 195.189493 
L 80.358447 195.189493 
L 78.727017 195.189493 
L 77.095587 195.189493 
L 75.464157 195.189493 
L 73.832727 195.189493 
z
" style="fill:#1f77b4;fill-opacity:0.2;"/>
   </g>
   <g id="PolyCollection_2">
    <path clip-path="url(#p23b3640fa5)" d="M 73.832727 195.189493 
L 73.832727 195.189493 
L 75.464157 195.189493 
L 77.095587 195.189493 
L 78.727017 195.189493 
L 80.358447 195.189493 
L 81.989877 195.189493 
L 83.621307 195.189493 
L 85.252736 195.189493 
L 86.884166 195.189493 
L 88.515596 195.189493 
L 90.147026 195.189493 
L 91.778456 195.189493 
L 93.409886 195.189493 
L 95.041316 195.189493 
L 96.672746 195.189493 
L 98.304175 195.189493 
L 99.935605 195.189493 
L 101.567035 195.189493 
L 103.198465 195.189493 
L 104.829895 195.189493 
L 106.461325 195.189493 
L 108.092755 195.189493 
L 109.724185 195.189493 
L 111.355614 195.189493 
L 112.987044 195.189493 
L 114.618474 195.189493 
L 116.249904 195.189493 
L 117.881334 195.189493 
L 119.512764 195.189493 
L 121.144194 195.189493 
L 122.775624 195.189493 
L 124.407053 195.189493 
L 126.038483 195.189493 
L 127.669913 195.189493 
L 129.301343 195.189493 
L 130.932773 195.189493 
L 132.564203 195.189493 
L 134.195633 195.189493 
L 135.827063 195.189493 
L 137.458492 195.189493 
L 139.089922 195.189493 
L 140.721352 195.189493 
L 142.352782 195.189493 
L 143.984212 195.189493 
L 145.615642 195.189493 
L 147.247072 195.189493 
L 148.878502 195.189493 
L 150.509931 195.189493 
L 152.141361 195.189493 
L 153.772791 195.189493 
L 155.404221 195.189493 
L 157.035651 195.189493 
L 158.667081 195.189493 
L 160.298511 195.189493 
L 161.929941 195.189493 
L 163.56137 195.189493 
L 165.1928 195.189493 
L 166.82423 195.189493 
L 168.45566 195.189493 
L 170.08709 195.189493 
L 171.71852 195.189493 
L 173.34995 195.189493 
L 174.98138 195.189493 
L 176.61281 195.189493 
L 178.244239 195.189493 
L 179.875669 195.189493 
L 181.507099 195.189493 
L 183.138529 195.189493 
L 184.769959 195.189493 
L 186.401389 195.189493 
L 188.032819 195.189493 
L 189.664249 195.189493 
L 191.295678 195.189493 
L 192.927108 195.189493 
L 194.558538 195.189493 
L 196.189968 195.189493 
L 197.821398 195.189493 
L 199.452828 195.189493 
L 201.084258 195.189493 
L 202.715688 195.189493 
L 204.347117 253.362627 
L 205.978547 254.967403 
L 207.609977 275.027104 
L 209.241407 195.189493 
L 210.872837 255.368597 
L 212.504267 267.003224 
L 214.135697 265.398448 
L 215.767127 211.638448 
L 217.398556 295.488 
L 219.029986 241.728 
L 220.661416 269.009194 
L 222.292846 195.189493 
L 223.924276 195.189493 
L 225.555706 195.189493 
L 227.187136 195.189493 
L 228.818566 195.189493 
L 230.449995 195.189493 
L 232.081425 195.189493 
L 233.712855 195.189493 
L 235.344285 210.434866 
L 236.975715 195.189493 
L 238.607145 206.824119 
L 240.238575 241.728 
L 241.870005 214.045612 
L 243.501434 202.009791 
L 245.132864 195.189493 
L 246.764294 197.997851 
L 248.395724 195.189493 
L 250.027154 200.003821 
L 251.658584 218.85994 
L 253.290014 206.021731 
L 254.921444 220.464716 
L 256.552873 195.189493 
L 258.184303 200.806209 
L 259.815733 200.806209 
L 261.447163 195.189493 
L 263.078593 195.189493 
L 264.710023 195.189493 
L 266.341453 200.405015 
L 267.972883 211.638448 
L 269.604312 195.189493 
L 271.235742 200.806209 
L 272.867172 195.189493 
L 274.498602 195.189493 
L 276.130032 210.434866 
L 277.761462 203.213373 
L 279.392892 225.279045 
L 281.024322 212.039642 
L 282.655751 222.069493 
L 284.287181 195.189493 
L 285.918611 195.189493 
L 287.550041 214.446806 
L 289.181471 237.71606 
L 290.812901 206.021731 
L 292.444331 236.512478 
L 294.075761 273.422328 
L 295.70719 195.189493 
L 297.33862 254.165015 
L 298.97005 253.362627 
L 300.60148 255.368597 
L 302.23291 234.506507 
L 303.86434 201.608597 
L 305.49577 226.883821 
L 307.1272 195.189493 
L 308.75863 204.818149 
L 310.390059 203.614567 
L 312.021489 195.189493 
L 313.652919 209.231284 
L 315.284349 195.189493 
L 316.915779 213.644418 
L 318.547209 216.051582 
L 320.178639 195.189493 
L 321.810069 211.638448 
L 323.441498 283.452179 
L 325.072928 195.189493 
L 326.704358 195.189493 
L 328.335788 195.189493 
L 329.967218 255.769791 
L 331.598648 245.338746 
L 333.230078 206.422925 
L 334.861508 195.991881 
L 336.492937 201.608597 
L 338.124367 195.189493 
L 339.755797 200.806209 
L 341.387227 195.189493 
L 343.018657 195.189493 
L 344.650087 195.189493 
L 346.281517 240.524418 
L 347.912947 195.189493 
L 349.544376 195.189493 
L 351.175806 206.422925 
L 352.807236 195.189493 
L 354.438666 198.800239 
L 356.070096 195.189493 
L 357.701526 195.189493 
L 359.332956 206.824119 
L 360.964386 208.83009 
L 362.595815 295.488 
L 364.227245 244.536358 
L 365.858675 195.189493 
L 367.490105 200.806209 
L 369.121535 263.793672 
L 370.752965 246.542328 
L 372.384395 230.093373 
L 374.015825 200.806209 
L 375.647254 214.446806 
L 377.278684 213.644418 
L 378.910114 218.458746 
L 380.541544 277.835463 
L 382.172974 253.362627 
L 383.804404 195.189493 
L 385.435834 212.039642 
L 387.067264 205.219343 
L 388.698693 195.189493 
L 390.330123 198.399045 
L 391.961553 198.800239 
L 393.592983 213.644418 
L 395.224413 212.039642 
L 396.855843 216.85397 
L 398.487273 210.033672 
L 398.487273 95.292179 
L 398.487273 95.292179 
L 396.855843 94.890985 
L 395.224413 83.657552 
L 393.592983 88.070687 
L 391.961553 68.813373 
L 390.330123 55.57397 
L 388.698693 94.890985 
L 387.067264 90.076657 
L 385.435834 88.471881 
L 383.804404 94.890985 
L 382.172974 94.489791 
L 380.541544 83.657552 
L 378.910114 73.226507 
L 377.278684 90.076657 
L 375.647254 78.040836 
L 374.015825 90.477851 
L 372.384395 94.890985 
L 370.752965 94.890985 
L 369.121535 94.890985 
L 367.490105 94.890985 
L 365.858675 83.256358 
L 364.227245 80.046806 
L 362.595815 94.489791 
L 360.964386 94.890985 
L 359.332956 94.890985 
L 357.701526 84.861134 
L 356.070096 86.064716 
L 354.438666 95.292179 
L 352.807236 90.879045 
L 351.175806 94.890985 
L 349.544376 83.657552 
L 347.912947 77.238448 
L 346.281517 75.232478 
L 344.650087 88.471881 
L 343.018657 61.190687 
L 341.387227 94.890985 
L 339.755797 94.890985 
L 338.124367 94.890985 
L 336.492937 81.651582 
L 334.861508 81.250388 
L 333.230078 81.432749 
L 331.598648 62.795463 
L 329.967218 65.202627 
L 328.335788 82.296358 
L 326.704358 63.597851 
L 325.072928 82.74715 
L 323.441498 76.837254 
L 321.810069 81.651582 
L 320.178639 82.488857 
L 318.547209 82.052776 
L 316.915779 81.154866 
L 315.284349 75.232478 
L 313.652919 83.406806 
L 312.021489 83.282242 
L 310.390059 82.975522 
L 308.75863 74.028896 
L 307.1272 53.568 
L 305.49577 84.088464 
L 303.86434 77.639642 
L 302.23291 75.633672 
L 300.60148 84.69397 
L 298.97005 63.597851 
L 297.33862 85.025259 
L 295.70719 84.612776 
L 294.075761 83.858149 
L 292.444331 86.867104 
L 290.812901 94.890985 
L 289.181471 94.890985 
L 287.550041 94.890985 
L 285.918611 94.890985 
L 284.287181 80.849194 
L 282.655751 94.890985 
L 281.024322 94.890985 
L 279.392892 94.890985 
L 277.761462 94.890985 
L 276.130032 94.890985 
L 274.498602 94.890985 
L 272.867172 93.687403 
L 271.235742 94.890985 
L 269.604312 94.890985 
L 267.972883 89.274269 
L 266.341453 94.890985 
L 264.710023 94.890985 
L 263.078593 94.890985 
L 261.447163 94.890985 
L 259.815733 94.890985 
L 258.184303 89.274269 
L 256.552873 94.890985 
L 254.921444 89.274269 
L 253.290014 94.890985 
L 251.658584 94.890985 
L 250.027154 94.890985 
L 248.395724 89.274269 
L 246.764294 94.890985 
L 245.132864 94.890985 
L 243.501434 94.890985 
L 241.870005 94.890985 
L 240.238575 87.268299 
L 238.607145 94.890985 
L 236.975715 94.935562 
L 235.344285 94.890985 
L 233.712855 94.890985 
L 232.081425 94.890985 
L 230.449995 94.890985 
L 228.818566 94.890985 
L 227.187136 94.890985 
L 225.555706 94.890985 
L 223.924276 99.484657 
L 222.292846 133.004418 
L 220.661416 114.950687 
L 219.029986 130.597254 
L 217.398556 95.292179 
L 215.767127 140.526806 
L 214.135697 136.21397 
L 212.504267 137.933373 
L 210.872837 135.010388 
L 209.241407 137.838806 
L 207.609977 181.548896 
L 205.978547 194.346985 
L 204.347117 195.189493 
L 202.715688 195.189493 
L 201.084258 195.189493 
L 199.452828 195.189493 
L 197.821398 195.189493 
L 196.189968 195.189493 
L 194.558538 195.189493 
L 192.927108 195.189493 
L 191.295678 195.189493 
L 189.664249 195.189493 
L 188.032819 195.189493 
L 186.401389 195.189493 
L 184.769959 195.189493 
L 183.138529 195.189493 
L 181.507099 195.189493 
L 179.875669 195.189493 
L 178.244239 195.189493 
L 176.61281 195.189493 
L 174.98138 195.189493 
L 173.34995 195.189493 
L 171.71852 195.189493 
L 170.08709 195.189493 
L 168.45566 195.189493 
L 166.82423 195.189493 
L 165.1928 195.189493 
L 163.56137 195.189493 
L 161.929941 195.189493 
L 160.298511 195.189493 
L 158.667081 195.189493 
L 157.035651 195.189493 
L 155.404221 195.189493 
L 153.772791 195.189493 
L 152.141361 195.189493 
L 150.509931 195.189493 
L 148.878502 195.189493 
L 147.247072 195.189493 
L 145.615642 195.189493 
L 143.984212 195.189493 
L 142.352782 195.189493 
L 140.721352 195.189493 
L 139.089922 195.189493 
L 137.458492 195.189493 
L 135.827063 195.189493 
L 134.195633 195.189493 
L 132.564203 195.189493 
L 130.932773 195.189493 
L 129.301343 195.189493 
L 127.669913 195.189493 
L 126.038483 195.189493 
L 124.407053 195.189493 
L 122.775624 195.189493 
L 121.144194 195.189493 
L 119.512764 195.189493 
L 117.881334 195.189493 
L 116.249904 195.189493 
L 114.618474 195.189493 
L 112.987044 195.189493 
L 111.355614 195.189493 
L 109.724185 195.189493 
L 108.092755 195.189493 
L 106.461325 195.189493 
L 104.829895 195.189493 
L 103.198465 195.189493 
L 101.567035 195.189493 
L 99.935605 195.189493 
L 98.304175 195.189493 
L 96.672746 195.189493 
L 95.041316 195.189493 
L 93.409886 195.189493 
L 91.778456 195.189493 
L 90.147026 195.189493 
L 88.515596 195.189493 
L 86.884166 195.189493 
L 85.252736 195.189493 
L 83.621307 195.189493 
L 81.989877 195.189493 
L 80.358447 195.189493 
L 78.727017 195.189493 
L 77.095587 195.189493 
L 75.464157 195.189493 
L 73.832727 195.189493 
z
" style="fill:#1f77b4;fill-opacity:0.1;"/>
   </g>
   <g id="matplotlib.axis_1">
    <g id="xtick_1">
     <g id="line2d_1">
      <defs>
       <path d="M 0 0 
L 0 3.5 
" id="m16901f9533" style="stroke:#000000;stroke-width:0.8;"/>
      </defs>
      <g>
       <use style="stroke:#000000;stroke-width:0.8;" x="73.832727" xlink:href="#m16901f9533" y="307.584"/>
      </g>
     </g>
     <g id="text_1">
      <!-- 0 -->
      <defs>
       <path d="M 31.78125 66.40625 
Q 24.171875 66.40625 20.328125 58.90625 
Q 16.5 51.421875 16.5 36.375 
Q 16.5 21.390625 20.328125 13.890625 
Q 24.171875 6.390625 31.78125 6.390625 
Q 39.453125 6.390625 43.28125 13.890625 
Q 47.125 21.390625 47.125 36.375 
Q 47.125 51.421875 43.28125 58.90625 
Q 39.453125 66.40625 31.78125 66.40625 
z
M 31.78125 74.21875 
Q 44.046875 74.21875 50.515625 64.515625 
Q 56.984375 54.828125 56.984375 36.375 
Q 56.984375 17.96875 50.515625 8.265625 
Q 44.046875 -1.421875 31.78125 -1.421875 
Q 19.53125 -1.421875 13.0625 8.265625 
Q 6.59375 17.96875 6.59375 36.375 
Q 6.59375 54.828125 13.0625 64.515625 
Q 19.53125 74.21875 31.78125 74.21875 
z
" id="DejaVuSans-48"/>
      </defs>
      <g transform="translate(70.651477 322.182437)scale(0.1 -0.1)">
       <use xlink:href="#DejaVuSans-48"/>
      </g>
     </g>
    </g>
    <g id="xtick_2">
     <g id="line2d_2">
      <g>
       <use style="stroke:#000000;stroke-width:0.8;" x="114.618474" xlink:href="#m16901f9533" y="307.584"/>
      </g>
     </g>
     <g id="text_2">
      <!-- 25 -->
      <defs>
       <path d="M 19.1875 8.296875 
L 53.609375 8.296875 
L 53.609375 0 
L 7.328125 0 
L 7.328125 8.296875 
Q 12.9375 14.109375 22.625 23.890625 
Q 32.328125 33.6875 34.8125 36.53125 
Q 39.546875 41.84375 41.421875 45.53125 
Q 43.3125 49.21875 43.3125 52.78125 
Q 43.3125 58.59375 39.234375 62.25 
Q 35.15625 65.921875 28.609375 65.921875 
Q 23.96875 65.921875 18.8125 64.3125 
Q 13.671875 62.703125 7.8125 59.421875 
L 7.8125 69.390625 
Q 13.765625 71.78125 18.9375 73 
Q 24.125 74.21875 28.421875 74.21875 
Q 39.75 74.21875 46.484375 68.546875 
Q 53.21875 62.890625 53.21875 53.421875 
Q 53.21875 48.921875 51.53125 44.890625 
Q 49.859375 40.875 45.40625 35.40625 
Q 44.1875 33.984375 37.640625 27.21875 
Q 31.109375 20.453125 19.1875 8.296875 
z
" id="DejaVuSans-50"/>
       <path d="M 10.796875 72.90625 
L 49.515625 72.90625 
L 49.515625 64.59375 
L 19.828125 64.59375 
L 19.828125 46.734375 
Q 21.96875 47.46875 24.109375 47.828125 
Q 26.265625 48.1875 28.421875 48.1875 
Q 40.625 48.1875 47.75 41.5 
Q 54.890625 34.8125 54.890625 23.390625 
Q 54.890625 11.625 47.5625 5.09375 
Q 40.234375 -1.421875 26.90625 -1.421875 
Q 22.3125 -1.421875 17.546875 -0.640625 
Q 12.796875 0.140625 7.71875 1.703125 
L 7.71875 11.625 
Q 12.109375 9.234375 16.796875 8.0625 
Q 21.484375 6.890625 26.703125 6.890625 
Q 35.15625 6.890625 40.078125 11.328125 
Q 45.015625 15.765625 45.015625 23.390625 
Q 45.015625 31 40.078125 35.4375 
Q 35.15625 39.890625 26.703125 39.890625 
Q 22.75 39.890625 18.8125 39.015625 
Q 14.890625 38.140625 10.796875 36.28125 
z
" id="DejaVuSans-53"/>
      </defs>
      <g transform="translate(108.255974 322.182437)scale(0.1 -0.1)">
       <use xlink:href="#DejaVuSans-50"/>
       <use x="63.623047" xlink:href="#DejaVuSans-53"/>
      </g>
     </g>
    </g>
    <g id="xtick_3">
     <g id="line2d_3">
      <g>
       <use style="stroke:#000000;stroke-width:0.8;" x="155.404221" xlink:href="#m16901f9533" y="307.584"/>
      </g>
     </g>
     <g id="text_3">
      <!-- 50 -->
      <g transform="translate(149.041721 322.182437)scale(0.1 -0.1)">
       <use xlink:href="#DejaVuSans-53"/>
       <use x="63.623047" xlink:href="#DejaVuSans-48"/>
      </g>
     </g>
    </g>
    <g id="xtick_4">
     <g id="line2d_4">
      <g>
       <use style="stroke:#000000;stroke-width:0.8;" x="196.189968" xlink:href="#m16901f9533" y="307.584"/>
      </g>
     </g>
     <g id="text_4">
      <!-- 75 -->
      <defs>
       <path d="M 8.203125 72.90625 
L 55.078125 72.90625 
L 55.078125 68.703125 
L 28.609375 0 
L 18.3125 0 
L 43.21875 64.59375 
L 8.203125 64.59375 
z
" id="DejaVuSans-55"/>
      </defs>
      <g transform="translate(189.827468 322.182437)scale(0.1 -0.1)">
       <use xlink:href="#DejaVuSans-55"/>
       <use x="63.623047" xlink:href="#DejaVuSans-53"/>
      </g>
     </g>
    </g>
    <g id="xtick_5">
     <g id="line2d_5">
      <g>
       <use style="stroke:#000000;stroke-width:0.8;" x="236.975715" xlink:href="#m16901f9533" y="307.584"/>
      </g>
     </g>
     <g id="text_5">
      <!-- 100 -->
      <defs>
       <path d="M 12.40625 8.296875 
L 28.515625 8.296875 
L 28.515625 63.921875 
L 10.984375 60.40625 
L 10.984375 69.390625 
L 28.421875 72.90625 
L 38.28125 72.90625 
L 38.28125 8.296875 
L 54.390625 8.296875 
L 54.390625 0 
L 12.40625 0 
z
" id="DejaVuSans-49"/>
      </defs>
      <g transform="translate(227.431965 322.182437)scale(0.1 -0.1)">
       <use xlink:href="#DejaVuSans-49"/>
       <use x="63.623047" xlink:href="#DejaVuSans-48"/>
       <use x="127.246094" xlink:href="#DejaVuSans-48"/>
      </g>
     </g>
    </g>
    <g id="xtick_6">
     <g id="line2d_6">
      <g>
       <use style="stroke:#000000;stroke-width:0.8;" x="277.761462" xlink:href="#m16901f9533" y="307.584"/>
      </g>
     </g>
     <g id="text_6">
      <!-- 125 -->
      <g transform="translate(268.217712 322.182437)scale(0.1 -0.1)">
       <use xlink:href="#DejaVuSans-49"/>
       <use x="63.623047" xlink:href="#DejaVuSans-50"/>
       <use x="127.246094" xlink:href="#DejaVuSans-53"/>
      </g>
     </g>
    </g>
    <g id="xtick_7">
     <g id="line2d_7">
      <g>
       <use style="stroke:#000000;stroke-width:0.8;" x="318.547209" xlink:href="#m16901f9533" y="307.584"/>
      </g>
     </g>
     <g id="text_7">
      <!-- 150 -->
      <g transform="translate(309.003459 322.182437)scale(0.1 -0.1)">
       <use xlink:href="#DejaVuSans-49"/>
       <use x="63.623047" xlink:href="#DejaVuSans-53"/>
       <use x="127.246094" xlink:href="#DejaVuSans-48"/>
      </g>
     </g>
    </g>
    <g id="xtick_8">
     <g id="line2d_8">
      <g>
       <use style="stroke:#000000;stroke-width:0.8;" x="359.332956" xlink:href="#m16901f9533" y="307.584"/>
      </g>
     </g>
     <g id="text_8">
      <!-- 175 -->
      <g transform="translate(349.789206 322.182437)scale(0.1 -0.1)">
       <use xlink:href="#DejaVuSans-49"/>
       <use x="63.623047" xlink:href="#DejaVuSans-55"/>
       <use x="127.246094" xlink:href="#DejaVuSans-53"/>
      </g>
     </g>
    </g>
    <g id="xtick_9">
     <g id="line2d_9">
      <g>
       <use style="stroke:#000000;stroke-width:0.8;" x="400.118703" xlink:href="#m16901f9533" y="307.584"/>
      </g>
     </g>
     <g id="text_9">
      <!-- 200 -->
      <g transform="translate(390.574953 322.182437)scale(0.1 -0.1)">
       <use xlink:href="#DejaVuSans-50"/>
       <use x="63.623047" xlink:href="#DejaVuSans-48"/>
       <use x="127.246094" xlink:href="#DejaVuSans-48"/>
      </g>
     </g>
    </g>
   </g>
   <g id="matplotlib.axis_2">
    <g id="ytick_1">
     <g id="line2d_10">
      <defs>
       <path d="M 0 0 
L -3.5 0 
" id="mbe444eb95f" style="stroke:#000000;stroke-width:0.8;"/>
      </defs>
      <g>
       <use style="stroke:#000000;stroke-width:0.8;" x="57.6" xlink:href="#mbe444eb95f" y="295.488"/>
      </g>
     </g>
     <g id="text_10">
      <!-- 0.0 -->
      <defs>
       <path d="M 10.6875 12.40625 
L 21 12.40625 
L 21 0 
L 10.6875 0 
z
" id="DejaVuSans-46"/>
      </defs>
      <g transform="translate(34.696875 299.287219)scale(0.1 -0.1)">
       <use xlink:href="#DejaVuSans-48"/>
       <use x="63.623047" xlink:href="#DejaVuSans-46"/>
       <use x="95.410156" xlink:href="#DejaVuSans-48"/>
      </g>
     </g>
    </g>
    <g id="ytick_2">
     <g id="line2d_11">
      <g>
       <use style="stroke:#000000;stroke-width:0.8;" x="57.6" xlink:href="#mbe444eb95f" y="265.398448"/>
      </g>
     </g>
     <g id="text_11">
      <!-- 0.1 -->
      <g transform="translate(34.696875 269.197667)scale(0.1 -0.1)">
       <use xlink:href="#DejaVuSans-48"/>
       <use x="63.623047" xlink:href="#DejaVuSans-46"/>
       <use x="95.410156" xlink:href="#DejaVuSans-49"/>
      </g>
     </g>
    </g>
    <g id="ytick_3">
     <g id="line2d_12">
      <g>
       <use style="stroke:#000000;stroke-width:0.8;" x="57.6" xlink:href="#mbe444eb95f" y="235.308896"/>
      </g>
     </g>
     <g id="text_12">
      <!-- 0.2 -->
      <g transform="translate(34.696875 239.108114)scale(0.1 -0.1)">
       <use xlink:href="#DejaVuSans-48"/>
       <use x="63.623047" xlink:href="#DejaVuSans-46"/>
       <use x="95.410156" xlink:href="#DejaVuSans-50"/>
      </g>
     </g>
    </g>
    <g id="ytick_4">
     <g id="line2d_13">
      <g>
       <use style="stroke:#000000;stroke-width:0.8;" x="57.6" xlink:href="#mbe444eb95f" y="205.219343"/>
      </g>
     </g>
     <g id="text_13">
      <!-- 0.3 -->
      <defs>
       <path d="M 40.578125 39.3125 
Q 47.65625 37.796875 51.625 33 
Q 55.609375 28.21875 55.609375 21.1875 
Q 55.609375 10.40625 48.1875 4.484375 
Q 40.765625 -1.421875 27.09375 -1.421875 
Q 22.515625 -1.421875 17.65625 -0.515625 
Q 12.796875 0.390625 7.625 2.203125 
L 7.625 11.71875 
Q 11.71875 9.328125 16.59375 8.109375 
Q 21.484375 6.890625 26.8125 6.890625 
Q 36.078125 6.890625 40.9375 10.546875 
Q 45.796875 14.203125 45.796875 21.1875 
Q 45.796875 27.640625 41.28125 31.265625 
Q 36.765625 34.90625 28.71875 34.90625 
L 20.21875 34.90625 
L 20.21875 43.015625 
L 29.109375 43.015625 
Q 36.375 43.015625 40.234375 45.921875 
Q 44.09375 48.828125 44.09375 54.296875 
Q 44.09375 59.90625 40.109375 62.90625 
Q 36.140625 65.921875 28.71875 65.921875 
Q 24.65625 65.921875 20.015625 65.03125 
Q 15.375 64.15625 9.8125 62.3125 
L 9.8125 71.09375 
Q 15.4375 72.65625 20.34375 73.4375 
Q 25.25 74.21875 29.59375 74.21875 
Q 40.828125 74.21875 47.359375 69.109375 
Q 53.90625 64.015625 53.90625 55.328125 
Q 53.90625 49.265625 50.4375 45.09375 
Q 46.96875 40.921875 40.578125 39.3125 
z
" id="DejaVuSans-51"/>
      </defs>
      <g transform="translate(34.696875 209.018562)scale(0.1 -0.1)">
       <use xlink:href="#DejaVuSans-48"/>
       <use x="63.623047" xlink:href="#DejaVuSans-46"/>
       <use x="95.410156" xlink:href="#DejaVuSans-51"/>
      </g>
     </g>
    </g>
    <g id="ytick_5">
     <g id="line2d_14">
      <g>
       <use style="stroke:#000000;stroke-width:0.8;" x="57.6" xlink:href="#mbe444eb95f" y="175.129791"/>
      </g>
     </g>
     <g id="text_14">
      <!-- 0.4 -->
      <defs>
       <path d="M 37.796875 64.3125 
L 12.890625 25.390625 
L 37.796875 25.390625 
z
M 35.203125 72.90625 
L 47.609375 72.90625 
L 47.609375 25.390625 
L 58.015625 25.390625 
L 58.015625 17.1875 
L 47.609375 17.1875 
L 47.609375 0 
L 37.796875 0 
L 37.796875 17.1875 
L 4.890625 17.1875 
L 4.890625 26.703125 
z
" id="DejaVuSans-52"/>
      </defs>
      <g transform="translate(34.696875 178.92901)scale(0.1 -0.1)">
       <use xlink:href="#DejaVuSans-48"/>
       <use x="63.623047" xlink:href="#DejaVuSans-46"/>
       <use x="95.410156" xlink:href="#DejaVuSans-52"/>
      </g>
     </g>
    </g>
    <g id="ytick_6">
     <g id="line2d_15">
      <g>
       <use style="stroke:#000000;stroke-width:0.8;" x="57.6" xlink:href="#mbe444eb95f" y="145.040239"/>
      </g>
     </g>
     <g id="text_15">
      <!-- 0.5 -->
      <g transform="translate(34.696875 148.839458)scale(0.1 -0.1)">
       <use xlink:href="#DejaVuSans-48"/>
       <use x="63.623047" xlink:href="#DejaVuSans-46"/>
       <use x="95.410156" xlink:href="#DejaVuSans-53"/>
      </g>
     </g>
    </g>
    <g id="ytick_7">
     <g id="line2d_16">
      <g>
       <use style="stroke:#000000;stroke-width:0.8;" x="57.6" xlink:href="#mbe444eb95f" y="114.950687"/>
      </g>
     </g>
     <g id="text_16">
      <!-- 0.6 -->
      <defs>
       <path d="M 33.015625 40.375 
Q 26.375 40.375 22.484375 35.828125 
Q 18.609375 31.296875 18.609375 23.390625 
Q 18.609375 15.53125 22.484375 10.953125 
Q 26.375 6.390625 33.015625 6.390625 
Q 39.65625 6.390625 43.53125 10.953125 
Q 47.40625 15.53125 47.40625 23.390625 
Q 47.40625 31.296875 43.53125 35.828125 
Q 39.65625 40.375 33.015625 40.375 
z
M 52.59375 71.296875 
L 52.59375 62.3125 
Q 48.875 64.0625 45.09375 64.984375 
Q 41.3125 65.921875 37.59375 65.921875 
Q 27.828125 65.921875 22.671875 59.328125 
Q 17.53125 52.734375 16.796875 39.40625 
Q 19.671875 43.65625 24.015625 45.921875 
Q 28.375 48.1875 33.59375 48.1875 
Q 44.578125 48.1875 50.953125 41.515625 
Q 57.328125 34.859375 57.328125 23.390625 
Q 57.328125 12.15625 50.6875 5.359375 
Q 44.046875 -1.421875 33.015625 -1.421875 
Q 20.359375 -1.421875 13.671875 8.265625 
Q 6.984375 17.96875 6.984375 36.375 
Q 6.984375 53.65625 15.1875 63.9375 
Q 23.390625 74.21875 37.203125 74.21875 
Q 40.921875 74.21875 44.703125 73.484375 
Q 48.484375 72.75 52.59375 71.296875 
z
" id="DejaVuSans-54"/>
      </defs>
      <g transform="translate(34.696875 118.749905)scale(0.1 -0.1)">
       <use xlink:href="#DejaVuSans-48"/>
       <use x="63.623047" xlink:href="#DejaVuSans-46"/>
       <use x="95.410156" xlink:href="#DejaVuSans-54"/>
      </g>
     </g>
    </g>
    <g id="ytick_8">
     <g id="line2d_17">
      <g>
       <use style="stroke:#000000;stroke-width:0.8;" x="57.6" xlink:href="#mbe444eb95f" y="84.861134"/>
      </g>
     </g>
     <g id="text_17">
      <!-- 0.7 -->
      <g transform="translate(34.696875 88.660353)scale(0.1 -0.1)">
       <use xlink:href="#DejaVuSans-48"/>
       <use x="63.623047" xlink:href="#DejaVuSans-46"/>
       <use x="95.410156" xlink:href="#DejaVuSans-55"/>
      </g>
     </g>
    </g>
    <g id="ytick_9">
     <g id="line2d_18">
      <g>
       <use style="stroke:#000000;stroke-width:0.8;" x="57.6" xlink:href="#mbe444eb95f" y="54.771582"/>
      </g>
     </g>
     <g id="text_18">
      <!-- 0.8 -->
      <defs>
       <path d="M 31.78125 34.625 
Q 24.75 34.625 20.71875 30.859375 
Q 16.703125 27.09375 16.703125 20.515625 
Q 16.703125 13.921875 20.71875 10.15625 
Q 24.75 6.390625 31.78125 6.390625 
Q 38.8125 6.390625 42.859375 10.171875 
Q 46.921875 13.96875 46.921875 20.515625 
Q 46.921875 27.09375 42.890625 30.859375 
Q 38.875 34.625 31.78125 34.625 
z
M 21.921875 38.8125 
Q 15.578125 40.375 12.03125 44.71875 
Q 8.5 49.078125 8.5 55.328125 
Q 8.5 64.0625 14.71875 69.140625 
Q 20.953125 74.21875 31.78125 74.21875 
Q 42.671875 74.21875 48.875 69.140625 
Q 55.078125 64.0625 55.078125 55.328125 
Q 55.078125 49.078125 51.53125 44.71875 
Q 48 40.375 41.703125 38.8125 
Q 48.828125 37.15625 52.796875 32.3125 
Q 56.78125 27.484375 56.78125 20.515625 
Q 56.78125 9.90625 50.3125 4.234375 
Q 43.84375 -1.421875 31.78125 -1.421875 
Q 19.734375 -1.421875 13.25 4.234375 
Q 6.78125 9.90625 6.78125 20.515625 
Q 6.78125 27.484375 10.78125 32.3125 
Q 14.796875 37.15625 21.921875 38.8125 
z
M 18.3125 54.390625 
Q 18.3125 48.734375 21.84375 45.5625 
Q 25.390625 42.390625 31.78125 42.390625 
Q 38.140625 42.390625 41.71875 45.5625 
Q 45.3125 48.734375 45.3125 54.390625 
Q 45.3125 60.0625 41.71875 63.234375 
Q 38.140625 66.40625 31.78125 66.40625 
Q 25.390625 66.40625 21.84375 63.234375 
Q 18.3125 60.0625 18.3125 54.390625 
z
" id="DejaVuSans-56"/>
      </defs>
      <g transform="translate(34.696875 58.570801)scale(0.1 -0.1)">
       <use xlink:href="#DejaVuSans-48"/>
       <use x="63.623047" xlink:href="#DejaVuSans-46"/>
       <use x="95.410156" xlink:href="#DejaVuSans-56"/>
      </g>
     </g>
    </g>
   </g>
   <g id="line2d_19">
    <path clip-path="url(#p23b3640fa5)" d="M 73.832727 195.189493 
L 212.504267 195.189493 
L 214.135697 168.309493 
L 215.767127 163.675701 
L 217.398556 195.189493 
L 219.029986 177.536955 
L 220.661416 174.126806 
L 222.292846 195.189493 
L 223.924276 144.639045 
L 225.555706 182.351284 
L 227.187136 191.177552 
L 228.818566 172.722627 
L 230.449995 169.472955 
L 232.081425 189.171582 
L 233.712855 163.896358 
L 235.344285 174.728597 
L 236.975715 187.968 
L 238.607145 163.09397 
L 240.238575 162.291582 
L 241.870005 171.920239 
L 243.501434 158.279642 
L 245.132864 167.908299 
L 246.764294 126.585313 
L 248.395724 171.519045 
L 250.027154 156.474269 
L 251.658584 175.129791 
L 253.290014 174.728597 
L 254.921444 161.042811 
L 256.552873 125.284668 
L 258.184303 159.884418 
L 259.815733 159.483224 
L 261.447163 166.504119 
L 263.078593 157.276657 
L 264.710023 174.728597 
L 266.341453 170.716657 
L 267.972883 140.025313 
L 269.604312 130.19606 
L 271.235742 174.728597 
L 272.867172 175.129791 
L 274.498602 154.668896 
L 276.130032 156.674866 
L 277.761462 171.117851 
L 279.392892 171.519045 
L 281.024322 171.117851 
L 282.655751 175.530985 
L 284.287181 191.177552 
L 285.918611 179.542925 
L 287.550041 172.722627 
L 289.181471 175.774567 
L 290.812901 167.755463 
L 292.444331 169.111881 
L 294.075761 193.183522 
L 295.70719 152.261731 
L 297.33862 146.845612 
L 298.97005 136.172467 
L 300.60148 179.542925 
L 303.86434 163.09397 
L 305.49577 169.513075 
L 307.1272 177.773557 
L 308.75863 131.55009 
L 310.390059 162.291582 
L 312.021489 181.548896 
L 313.652919 193.183522 
L 315.284349 171.117851 
L 316.915779 132.803821 
L 318.547209 151.65994 
L 320.178639 139.022328 
L 321.810069 161.489194 
L 323.441498 160.686806 
L 325.072928 171.117851 
L 326.704358 122.120412 
L 328.335788 154.067104 
L 329.967218 163.896358 
L 331.598648 147.246806 
L 333.230078 181.548896 
L 334.861508 175.129791 
L 336.492937 139.345872 
L 338.124367 157.878448 
L 339.755797 165.902328 
L 341.387227 128.992478 
L 343.018657 187.165612 
L 344.650087 139.824716 
L 346.281517 191.177552 
L 347.912947 139.423522 
L 349.544376 175.932179 
L 351.175806 129.66753 
L 352.807236 116.154269 
L 354.438666 173.123821 
L 356.070096 165.902328 
L 357.701526 156.674866 
L 359.332956 174.728597 
L 360.964386 137.818746 
L 362.595815 195.189493 
L 364.227245 169.914269 
L 365.858675 170.898149 
L 367.490105 169.513075 
L 369.121535 187.165612 
L 370.752965 159.536323 
L 372.384395 156.273672 
L 374.015825 153.866507 
L 375.647254 159.08203 
L 377.278684 160.845172 
L 378.910114 137.216955 
L 380.541544 144.919881 
L 382.172974 135.010388 
L 383.804404 144.839642 
L 385.435834 147.246806 
L 387.067264 148.650985 
L 388.698693 145.842627 
L 390.330123 131.204776 
L 391.961553 153.465313 
L 393.592983 126.184119 
L 395.224413 173.123821 
L 396.855843 138.621134 
L 398.487273 122.974567 
L 398.487273 122.974567 
" style="fill:none;stroke:#1f77b4;stroke-linecap:square;stroke-width:0.25;"/>
   </g>
   <g id="line2d_20">
    <path clip-path="url(#p23b3640fa5)" d="M 73.832727 195.189493 
L 202.715688 195.189493 
L 205.978547 196.368602 
L 207.609977 199.205445 
L 209.241407 194.608327 
L 210.872837 188.746269 
L 212.504267 183.938063 
L 214.135697 175.534275 
L 215.767127 173.051563 
L 217.398556 183.814094 
L 219.029986 176.661305 
L 220.661416 167.152016 
L 222.292846 181.614685 
L 223.924276 156.791157 
L 225.555706 165.79805 
L 227.187136 156.299923 
L 228.818566 154.361495 
L 230.449995 152.714289 
L 232.081425 155.891556 
L 233.712855 154.636329 
L 235.344285 157.328096 
L 236.975715 170.620102 
L 238.607145 153.813451 
L 240.238575 161.099225 
L 241.870005 159.707903 
L 243.501434 153.92797 
L 245.132864 168.302648 
L 246.764294 143.356374 
L 248.395724 161.708971 
L 250.027154 150.218673 
L 251.658584 156.004758 
L 253.290014 168.223766 
L 254.921444 146.63648 
L 256.552873 135.758988 
L 258.184303 146.478328 
L 259.815733 147.809933 
L 261.447163 153.475615 
L 263.078593 150.775114 
L 264.710023 152.507278 
L 266.341453 155.108739 
L 267.972883 145.988294 
L 269.604312 147.165733 
L 271.235742 155.685899 
L 272.867172 154.331866 
L 274.498602 148.807674 
L 276.130032 157.657689 
L 277.761462 151.531968 
L 279.392892 152.661773 
L 281.024322 152.263257 
L 282.655751 157.834254 
L 284.287181 155.123749 
L 285.918611 160.782222 
L 287.550041 159.646763 
L 289.181471 159.321148 
L 290.812901 150.754498 
L 292.444331 148.799266 
L 294.075761 162.65806 
L 295.70719 140.236676 
L 297.33862 147.703525 
L 298.97005 143.409573 
L 300.60148 157.501347 
L 302.23291 143.265408 
L 303.86434 152.171033 
L 305.49577 148.868539 
L 307.1272 148.629354 
L 308.75863 144.970108 
L 310.390059 153.238319 
L 312.021489 159.241605 
L 313.652919 155.566994 
L 315.284349 150.035313 
L 316.915779 135.399597 
L 318.547209 144.693756 
L 320.178639 138.164777 
L 321.810069 144.502586 
L 323.441498 148.438934 
L 325.072928 152.939995 
L 326.704358 134.568908 
L 328.335788 152.687575 
L 329.967218 143.098709 
L 331.598648 140.980894 
L 333.230078 152.657716 
L 334.861508 154.111018 
L 336.492937 146.095088 
L 338.124367 147.598391 
L 339.755797 155.314608 
L 341.387227 143.873163 
L 343.018657 154.082816 
L 344.650087 145.324751 
L 346.281517 156.536201 
L 347.912947 139.442278 
L 349.544376 162.281926 
L 351.175806 142.853608 
L 352.807236 140.455972 
L 354.438666 155.169163 
L 356.070096 155.800763 
L 357.701526 145.456326 
L 359.332956 153.883202 
L 360.964386 146.057062 
L 362.595815 156.056997 
L 364.227245 158.126856 
L 365.858675 150.641313 
L 367.490105 152.014554 
L 369.121535 155.731328 
L 370.752965 145.180414 
L 372.384395 146.355978 
L 374.015825 147.374541 
L 375.647254 145.429384 
L 377.278684 145.789664 
L 378.910114 142.204554 
L 380.541544 149.748852 
L 382.172974 141.061041 
L 383.804404 143.228645 
L 385.435834 149.225521 
L 387.067264 141.611211 
L 388.698693 142.558542 
L 390.330123 141.838519 
L 391.961553 142.333077 
L 393.592983 138.138273 
L 395.224413 149.839675 
L 396.855843 140.821741 
L 398.487273 141.233804 
L 398.487273 141.233804 
" style="fill:none;stroke:#2ca02c;stroke-linecap:square;stroke-width:0.75;"/>
   </g>
   <g id="patch_3">
    <path d="M 57.6 307.584 
L 57.6 41.472 
" style="fill:none;stroke:#000000;stroke-linecap:square;stroke-linejoin:miter;stroke-width:0.8;"/>
   </g>
   <g id="patch_4">
    <path d="M 414.72 307.584 
L 414.72 41.472 
" style="fill:none;stroke:#000000;stroke-linecap:square;stroke-linejoin:miter;stroke-width:0.8;"/>
   </g>
   <g id="patch_5">
    <path d="M 57.6 307.584 
L 414.72 307.584 
" style="fill:none;stroke:#000000;stroke-linecap:square;stroke-linejoin:miter;stroke-width:0.8;"/>
   </g>
   <g id="patch_6">
    <path d="M 57.6 41.472 
L 414.72 41.472 
" style="fill:none;stroke:#000000;stroke-linecap:square;stroke-linejoin:miter;stroke-width:0.8;"/>
   </g>
   <g id="legend_1">
    <g id="patch_7">
     <path d="M 338.234063 78.82825 
L 407.72 78.82825 
Q 409.72 78.82825 409.72 76.82825 
L 409.72 48.472 
Q 409.72 46.472 407.72 46.472 
L 338.234063 46.472 
Q 336.234063 46.472 336.234063 48.472 
L 336.234063 76.82825 
Q 336.234063 78.82825 338.234063 78.82825 
z
" style="fill:#ffffff;opacity:0.8;stroke:#cccccc;stroke-linejoin:miter;"/>
    </g>
    <g id="line2d_21">
     <path d="M 340.234063 54.570437 
L 360.234063 54.570437 
" style="fill:none;stroke:#1f77b4;stroke-linecap:square;stroke-width:0.25;"/>
    </g>
    <g id="line2d_22"/>
    <g id="text_19">
     <!-- median -->
     <defs>
      <path d="M 52 44.1875 
Q 55.375 50.25 60.0625 53.125 
Q 64.75 56 71.09375 56 
Q 79.640625 56 84.28125 50.015625 
Q 88.921875 44.046875 88.921875 33.015625 
L 88.921875 0 
L 79.890625 0 
L 79.890625 32.71875 
Q 79.890625 40.578125 77.09375 44.375 
Q 74.3125 48.1875 68.609375 48.1875 
Q 61.625 48.1875 57.5625 43.546875 
Q 53.515625 38.921875 53.515625 30.90625 
L 53.515625 0 
L 44.484375 0 
L 44.484375 32.71875 
Q 44.484375 40.625 41.703125 44.40625 
Q 38.921875 48.1875 33.109375 48.1875 
Q 26.21875 48.1875 22.15625 43.53125 
Q 18.109375 38.875 18.109375 30.90625 
L 18.109375 0 
L 9.078125 0 
L 9.078125 54.6875 
L 18.109375 54.6875 
L 18.109375 46.1875 
Q 21.1875 51.21875 25.484375 53.609375 
Q 29.78125 56 35.6875 56 
Q 41.65625 56 45.828125 52.96875 
Q 50 49.953125 52 44.1875 
z
" id="DejaVuSans-109"/>
      <path d="M 56.203125 29.59375 
L 56.203125 25.203125 
L 14.890625 25.203125 
Q 15.484375 15.921875 20.484375 11.0625 
Q 25.484375 6.203125 34.421875 6.203125 
Q 39.59375 6.203125 44.453125 7.46875 
Q 49.3125 8.734375 54.109375 11.28125 
L 54.109375 2.78125 
Q 49.265625 0.734375 44.1875 -0.34375 
Q 39.109375 -1.421875 33.890625 -1.421875 
Q 20.796875 -1.421875 13.15625 6.1875 
Q 5.515625 13.8125 5.515625 26.8125 
Q 5.515625 40.234375 12.765625 48.109375 
Q 20.015625 56 32.328125 56 
Q 43.359375 56 49.78125 48.890625 
Q 56.203125 41.796875 56.203125 29.59375 
z
M 47.21875 32.234375 
Q 47.125 39.59375 43.09375 43.984375 
Q 39.0625 48.390625 32.421875 48.390625 
Q 24.90625 48.390625 20.390625 44.140625 
Q 15.875 39.890625 15.1875 32.171875 
z
" id="DejaVuSans-101"/>
      <path d="M 45.40625 46.390625 
L 45.40625 75.984375 
L 54.390625 75.984375 
L 54.390625 0 
L 45.40625 0 
L 45.40625 8.203125 
Q 42.578125 3.328125 38.25 0.953125 
Q 33.9375 -1.421875 27.875 -1.421875 
Q 17.96875 -1.421875 11.734375 6.484375 
Q 5.515625 14.40625 5.515625 27.296875 
Q 5.515625 40.1875 11.734375 48.09375 
Q 17.96875 56 27.875 56 
Q 33.9375 56 38.25 53.625 
Q 42.578125 51.265625 45.40625 46.390625 
z
M 14.796875 27.296875 
Q 14.796875 17.390625 18.875 11.75 
Q 22.953125 6.109375 30.078125 6.109375 
Q 37.203125 6.109375 41.296875 11.75 
Q 45.40625 17.390625 45.40625 27.296875 
Q 45.40625 37.203125 41.296875 42.84375 
Q 37.203125 48.484375 30.078125 48.484375 
Q 22.953125 48.484375 18.875 42.84375 
Q 14.796875 37.203125 14.796875 27.296875 
z
" id="DejaVuSans-100"/>
      <path d="M 9.421875 54.6875 
L 18.40625 54.6875 
L 18.40625 0 
L 9.421875 0 
z
M 9.421875 75.984375 
L 18.40625 75.984375 
L 18.40625 64.59375 
L 9.421875 64.59375 
z
" id="DejaVuSans-105"/>
      <path d="M 34.28125 27.484375 
Q 23.390625 27.484375 19.1875 25 
Q 14.984375 22.515625 14.984375 16.5 
Q 14.984375 11.71875 18.140625 8.90625 
Q 21.296875 6.109375 26.703125 6.109375 
Q 34.1875 6.109375 38.703125 11.40625 
Q 43.21875 16.703125 43.21875 25.484375 
L 43.21875 27.484375 
z
M 52.203125 31.203125 
L 52.203125 0 
L 43.21875 0 
L 43.21875 8.296875 
Q 40.140625 3.328125 35.546875 0.953125 
Q 30.953125 -1.421875 24.3125 -1.421875 
Q 15.921875 -1.421875 10.953125 3.296875 
Q 6 8.015625 6 15.921875 
Q 6 25.140625 12.171875 29.828125 
Q 18.359375 34.515625 30.609375 34.515625 
L 43.21875 34.515625 
L 43.21875 35.40625 
Q 43.21875 41.609375 39.140625 45 
Q 35.0625 48.390625 27.6875 48.390625 
Q 23 48.390625 18.546875 47.265625 
Q 14.109375 46.140625 10.015625 43.890625 
L 10.015625 52.203125 
Q 14.9375 54.109375 19.578125 55.046875 
Q 24.21875 56 28.609375 56 
Q 40.484375 56 46.34375 49.84375 
Q 52.203125 43.703125 52.203125 31.203125 
z
" id="DejaVuSans-97"/>
      <path d="M 54.890625 33.015625 
L 54.890625 0 
L 45.90625 0 
L 45.90625 32.71875 
Q 45.90625 40.484375 42.875 44.328125 
Q 39.84375 48.1875 33.796875 48.1875 
Q 26.515625 48.1875 22.3125 43.546875 
Q 18.109375 38.921875 18.109375 30.90625 
L 18.109375 0 
L 9.078125 0 
L 9.078125 54.6875 
L 18.109375 54.6875 
L 18.109375 46.1875 
Q 21.34375 51.125 25.703125 53.5625 
Q 30.078125 56 35.796875 56 
Q 45.21875 56 50.046875 50.171875 
Q 54.890625 44.34375 54.890625 33.015625 
z
" id="DejaVuSans-110"/>
     </defs>
     <g transform="translate(368.234063 58.070437)scale(0.1 -0.1)">
      <use xlink:href="#DejaVuSans-109"/>
      <use x="97.412109" xlink:href="#DejaVuSans-101"/>
      <use x="158.935547" xlink:href="#DejaVuSans-100"/>
      <use x="222.412109" xlink:href="#DejaVuSans-105"/>
      <use x="250.195312" xlink:href="#DejaVuSans-97"/>
      <use x="311.474609" xlink:href="#DejaVuSans-110"/>
     </g>
    </g>
    <g id="line2d_23">
     <path d="M 340.234063 69.248562 
L 360.234063 69.248562 
" style="fill:none;stroke:#2ca02c;stroke-linecap:square;stroke-width:0.75;"/>
    </g>
    <g id="line2d_24"/>
    <g id="text_20">
     <!-- mean -->
     <g transform="translate(368.234063 72.748562)scale(0.1 -0.1)">
      <use xlink:href="#DejaVuSans-109"/>
      <use x="97.412109" xlink:href="#DejaVuSans-101"/>
      <use x="158.935547" xlink:href="#DejaVuSans-97"/>
      <use x="220.214844" xlink:href="#DejaVuSans-110"/>
     </g>
    </g>
   </g>
  </g>
  <g id="text_21">
   <!-- accuracy.mean over generations -->
   <defs>
    <path d="M 48.78125 52.59375 
L 48.78125 44.1875 
Q 44.96875 46.296875 41.140625 47.34375 
Q 37.3125 48.390625 33.40625 48.390625 
Q 24.65625 48.390625 19.8125 42.84375 
Q 14.984375 37.3125 14.984375 27.296875 
Q 14.984375 17.28125 19.8125 11.734375 
Q 24.65625 6.203125 33.40625 6.203125 
Q 37.3125 6.203125 41.140625 7.25 
Q 44.96875 8.296875 48.78125 10.40625 
L 48.78125 2.09375 
Q 45.015625 0.34375 40.984375 -0.53125 
Q 36.96875 -1.421875 32.421875 -1.421875 
Q 20.0625 -1.421875 12.78125 6.34375 
Q 5.515625 14.109375 5.515625 27.296875 
Q 5.515625 40.671875 12.859375 48.328125 
Q 20.21875 56 33.015625 56 
Q 37.15625 56 41.109375 55.140625 
Q 45.0625 54.296875 48.78125 52.59375 
z
" id="DejaVuSans-99"/>
    <path d="M 8.5 21.578125 
L 8.5 54.6875 
L 17.484375 54.6875 
L 17.484375 21.921875 
Q 17.484375 14.15625 20.5 10.265625 
Q 23.53125 6.390625 29.59375 6.390625 
Q 36.859375 6.390625 41.078125 11.03125 
Q 45.3125 15.671875 45.3125 23.6875 
L 45.3125 54.6875 
L 54.296875 54.6875 
L 54.296875 0 
L 45.3125 0 
L 45.3125 8.40625 
Q 42.046875 3.421875 37.71875 1 
Q 33.40625 -1.421875 27.6875 -1.421875 
Q 18.265625 -1.421875 13.375 4.4375 
Q 8.5 10.296875 8.5 21.578125 
z
M 31.109375 56 
z
" id="DejaVuSans-117"/>
    <path d="M 41.109375 46.296875 
Q 39.59375 47.171875 37.8125 47.578125 
Q 36.03125 48 33.890625 48 
Q 26.265625 48 22.1875 43.046875 
Q 18.109375 38.09375 18.109375 28.8125 
L 18.109375 0 
L 9.078125 0 
L 9.078125 54.6875 
L 18.109375 54.6875 
L 18.109375 46.1875 
Q 20.953125 51.171875 25.484375 53.578125 
Q 30.03125 56 36.53125 56 
Q 37.453125 56 38.578125 55.875 
Q 39.703125 55.765625 41.0625 55.515625 
z
" id="DejaVuSans-114"/>
    <path d="M 32.171875 -5.078125 
Q 28.375 -14.84375 24.75 -17.8125 
Q 21.140625 -20.796875 15.09375 -20.796875 
L 7.90625 -20.796875 
L 7.90625 -13.28125 
L 13.1875 -13.28125 
Q 16.890625 -13.28125 18.9375 -11.515625 
Q 21 -9.765625 23.484375 -3.21875 
L 25.09375 0.875 
L 2.984375 54.6875 
L 12.5 54.6875 
L 29.59375 11.921875 
L 46.6875 54.6875 
L 56.203125 54.6875 
z
" id="DejaVuSans-121"/>
    <path id="DejaVuSans-32"/>
    <path d="M 30.609375 48.390625 
Q 23.390625 48.390625 19.1875 42.75 
Q 14.984375 37.109375 14.984375 27.296875 
Q 14.984375 17.484375 19.15625 11.84375 
Q 23.34375 6.203125 30.609375 6.203125 
Q 37.796875 6.203125 41.984375 11.859375 
Q 46.1875 17.53125 46.1875 27.296875 
Q 46.1875 37.015625 41.984375 42.703125 
Q 37.796875 48.390625 30.609375 48.390625 
z
M 30.609375 56 
Q 42.328125 56 49.015625 48.375 
Q 55.71875 40.765625 55.71875 27.296875 
Q 55.71875 13.875 49.015625 6.21875 
Q 42.328125 -1.421875 30.609375 -1.421875 
Q 18.84375 -1.421875 12.171875 6.21875 
Q 5.515625 13.875 5.515625 27.296875 
Q 5.515625 40.765625 12.171875 48.375 
Q 18.84375 56 30.609375 56 
z
" id="DejaVuSans-111"/>
    <path d="M 2.984375 54.6875 
L 12.5 54.6875 
L 29.59375 8.796875 
L 46.6875 54.6875 
L 56.203125 54.6875 
L 35.6875 0 
L 23.484375 0 
z
" id="DejaVuSans-118"/>
    <path d="M 45.40625 27.984375 
Q 45.40625 37.75 41.375 43.109375 
Q 37.359375 48.484375 30.078125 48.484375 
Q 22.859375 48.484375 18.828125 43.109375 
Q 14.796875 37.75 14.796875 27.984375 
Q 14.796875 18.265625 18.828125 12.890625 
Q 22.859375 7.515625 30.078125 7.515625 
Q 37.359375 7.515625 41.375 12.890625 
Q 45.40625 18.265625 45.40625 27.984375 
z
M 54.390625 6.78125 
Q 54.390625 -7.171875 48.1875 -13.984375 
Q 42 -20.796875 29.203125 -20.796875 
Q 24.46875 -20.796875 20.265625 -20.09375 
Q 16.0625 -19.390625 12.109375 -17.921875 
L 12.109375 -9.1875 
Q 16.0625 -11.328125 19.921875 -12.34375 
Q 23.78125 -13.375 27.78125 -13.375 
Q 36.625 -13.375 41.015625 -8.765625 
Q 45.40625 -4.15625 45.40625 5.171875 
L 45.40625 9.625 
Q 42.625 4.78125 38.28125 2.390625 
Q 33.9375 0 27.875 0 
Q 17.828125 0 11.671875 7.65625 
Q 5.515625 15.328125 5.515625 27.984375 
Q 5.515625 40.671875 11.671875 48.328125 
Q 17.828125 56 27.875 56 
Q 33.9375 56 38.28125 53.609375 
Q 42.625 51.21875 45.40625 46.390625 
L 45.40625 54.6875 
L 54.390625 54.6875 
z
" id="DejaVuSans-103"/>
    <path d="M 18.3125 70.21875 
L 18.3125 54.6875 
L 36.8125 54.6875 
L 36.8125 47.703125 
L 18.3125 47.703125 
L 18.3125 18.015625 
Q 18.3125 11.328125 20.140625 9.421875 
Q 21.96875 7.515625 27.59375 7.515625 
L 36.8125 7.515625 
L 36.8125 0 
L 27.59375 0 
Q 17.1875 0 13.234375 3.875 
Q 9.28125 7.765625 9.28125 18.015625 
L 9.28125 47.703125 
L 2.6875 47.703125 
L 2.6875 54.6875 
L 9.28125 54.6875 
L 9.28125 70.21875 
z
" id="DejaVuSans-116"/>
    <path d="M 44.28125 53.078125 
L 44.28125 44.578125 
Q 40.484375 46.53125 36.375 47.5 
Q 32.28125 48.484375 27.875 48.484375 
Q 21.1875 48.484375 17.84375 46.4375 
Q 14.5 44.390625 14.5 40.28125 
Q 14.5 37.15625 16.890625 35.375 
Q 19.28125 33.59375 26.515625 31.984375 
L 29.59375 31.296875 
Q 39.15625 29.25 43.1875 25.515625 
Q 47.21875 21.78125 47.21875 15.09375 
Q 47.21875 7.46875 41.1875 3.015625 
Q 35.15625 -1.421875 24.609375 -1.421875 
Q 20.21875 -1.421875 15.453125 -0.5625 
Q 10.6875 0.296875 5.421875 2 
L 5.421875 11.28125 
Q 10.40625 8.6875 15.234375 7.390625 
Q 20.0625 6.109375 24.8125 6.109375 
Q 31.15625 6.109375 34.5625 8.28125 
Q 37.984375 10.453125 37.984375 14.40625 
Q 37.984375 18.0625 35.515625 20.015625 
Q 33.0625 21.96875 24.703125 23.78125 
L 21.578125 24.515625 
Q 13.234375 26.265625 9.515625 29.90625 
Q 5.8125 33.546875 5.8125 39.890625 
Q 5.8125 47.609375 11.28125 51.796875 
Q 16.75 56 26.8125 56 
Q 31.78125 56 36.171875 55.265625 
Q 40.578125 54.546875 44.28125 53.078125 
z
" id="DejaVuSans-115"/>
   </defs>
   <g transform="translate(132.309375 16.030125)scale(0.12 -0.12)">
    <use xlink:href="#DejaVuSans-97"/>
    <use x="61.279297" xlink:href="#DejaVuSans-99"/>
    <use x="116.259766" xlink:href="#DejaVuSans-99"/>
    <use x="171.240234" xlink:href="#DejaVuSans-117"/>
    <use x="234.619141" xlink:href="#DejaVuSans-114"/>
    <use x="275.732422" xlink:href="#DejaVuSans-97"/>
    <use x="337.011719" xlink:href="#DejaVuSans-99"/>
    <use x="391.992188" xlink:href="#DejaVuSans-121"/>
    <use x="436.921875" xlink:href="#DejaVuSans-46"/>
    <use x="468.708984" xlink:href="#DejaVuSans-109"/>
    <use x="566.121094" xlink:href="#DejaVuSans-101"/>
    <use x="627.644531" xlink:href="#DejaVuSans-97"/>
    <use x="688.923828" xlink:href="#DejaVuSans-110"/>
    <use x="752.302734" xlink:href="#DejaVuSans-32"/>
    <use x="784.089844" xlink:href="#DejaVuSans-111"/>
    <use x="845.271484" xlink:href="#DejaVuSans-118"/>
    <use x="904.451172" xlink:href="#DejaVuSans-101"/>
    <use x="965.974609" xlink:href="#DejaVuSans-114"/>
    <use x="1007.087891" xlink:href="#DejaVuSans-32"/>
    <use x="1038.875" xlink:href="#DejaVuSans-103"/>
    <use x="1102.351562" xlink:href="#DejaVuSans-101"/>
    <use x="1163.875" xlink:href="#DejaVuSans-110"/>
    <use x="1227.253906" xlink:href="#DejaVuSans-101"/>
    <use x="1288.777344" xlink:href="#DejaVuSans-114"/>
    <use x="1329.890625" xlink:href="#DejaVuSans-97"/>
    <use x="1391.169922" xlink:href="#DejaVuSans-116"/>
    <use x="1430.378906" xlink:href="#DejaVuSans-105"/>
    <use x="1458.162109" xlink:href="#DejaVuSans-111"/>
    <use x="1519.34375" xlink:href="#DejaVuSans-110"/>
    <use x="1582.722656" xlink:href="#DejaVuSans-115"/>
   </g>
  </g>
 </g>
 <defs>
  <clipPath id="p23b3640fa5">
   <rect height="266.112" width="357.12" x="57.6" y="41.472"/>
  </clipPath>
 </defs>
</svg>
