<?xml version="1.0" encoding="utf-8" standalone="no"?>
<!DOCTYPE svg PUBLIC "-//W3C//DTD SVG 1.1//EN"
  "http://www.w3.org/Graphics/SVG/1.1/DTD/svg11.dtd">
<!-- Created with matplotlib (https://matplotlib.org/) -->
<svg height="345.6pt" version="1.1" viewBox="0 0 460.8 345.6" width="460.8pt" xmlns="http://www.w3.org/2000/svg" xmlns:xlink="http://www.w3.org/1999/xlink">
 <defs>
  <style type="text/css">
*{stroke-linecap:butt;stroke-linejoin:round;}
  </style>
 </defs>
 <g id="figure_1">
  <g id="patch_1">
   <path d="M 0 345.6 
L 460.8 345.6 
L 460.8 0 
L 0 0 
z
" style="fill:#ffffff;"/>
  </g>
  <g id="axes_1">
   <g id="patch_2">
    <path d="M 57.6 307.584 
L 414.72 307.584 
L 414.72 41.472 
L 57.6 41.472 
z
" style="fill:#ffffff;"/>
   </g>
   <g id="PolyCollection_1">
    <path clip-path="url(#pf3c74a3030)" d="M 73.832727 273.325002 
L 73.832727 285.781116 
L 75.87458 288.968232 
L 77.916432 289.348517 
L 79.958285 289.666038 
L 82.000137 290.104764 
L 84.04199 290.297647 
L 86.083842 290.390848 
L 88.125695 290.751331 
L 90.167547 290.7835 
L 92.2094 290.92538 
L 94.251252 291.03627 
L 96.293105 291.108881 
L 98.334957 291.084667 
L 100.37681 290.946156 
L 102.418662 291.26826 
L 104.460515 291.383275 
L 106.502367 291.035132 
L 108.54422 291.090003 
L 110.586072 291.218066 
L 112.627925 291.558171 
L 114.669777 290.863214 
L 116.71163 290.8133 
L 118.753482 291.894011 
L 120.795334 291.941119 
L 122.837187 292.012918 
L 124.879039 291.908343 
L 126.920892 292.037103 
L 128.962744 291.875978 
L 131.004597 291.906102 
L 133.046449 291.16192 
L 135.088302 292.142196 
L 137.130154 291.904705 
L 139.172007 291.152759 
L 141.213859 292.143612 
L 143.255712 291.19117 
L 145.297564 292.13908 
L 147.339417 291.357596 
L 149.381269 291.386461 
L 151.423122 291.532486 
L 153.464974 291.491564 
L 155.506827 291.526429 
L 157.548679 291.374048 
L 159.590532 292.561499 
L 161.632384 292.545016 
L 163.674237 291.462259 
L 165.716089 291.48668 
L 167.757942 291.458452 
L 169.799794 291.466146 
L 171.841647 291.672949 
L 173.883499 291.766053 
L 175.925352 291.513766 
L 177.967204 292.019356 
L 180.009057 291.62236 
L 182.050909 291.562625 
L 184.092762 291.527394 
L 186.134614 291.517347 
L 188.176467 292.828918 
L 190.218319 291.477252 
L 192.260172 291.596277 
L 194.302024 292.929537 
L 196.343877 291.63736 
L 198.385729 291.614619 
L 200.427581 291.604559 
L 202.469434 293.131344 
L 204.511286 293.085341 
L 206.553139 293.270114 
L 208.594991 291.733481 
L 210.636844 291.804782 
L 212.678696 291.797823 
L 214.720549 291.851228 
L 216.762401 292.17358 
L 218.804254 291.938172 
L 220.846106 291.887968 
L 222.887959 292.360038 
L 224.929811 292.062673 
L 226.971664 292.032698 
L 229.013516 292.008508 
L 231.055369 293.537745 
L 233.097221 293.707056 
L 235.139074 293.510015 
L 237.180926 293.57451 
L 239.222779 292.093926 
L 241.264631 292.155336 
L 243.306484 292.265657 
L 245.348336 291.982965 
L 247.390189 293.706546 
L 249.432041 292.05433 
L 251.473894 292.202031 
L 253.515746 293.727864 
L 255.557599 292.114695 
L 257.599451 291.718075 
L 259.641304 293.86882 
L 261.683156 292.286483 
L 263.725009 293.565327 
L 265.766861 291.908835 
L 267.808714 293.964942 
L 269.850566 291.92087 
L 271.892419 291.896022 
L 273.934271 291.863161 
L 275.976123 291.928569 
L 278.017976 291.939381 
L 280.059828 292.065485 
L 282.101681 291.926411 
L 284.143533 292.046747 
L 286.185386 291.938391 
L 288.227238 294.068765 
L 290.269091 294.165948 
L 292.310943 291.996066 
L 294.352796 292.062603 
L 296.394648 293.980971 
L 298.436501 291.961116 
L 300.478353 292.033711 
L 302.520206 292.028294 
L 304.562058 294.394563 
L 306.603911 292.104848 
L 308.645763 291.917359 
L 310.687616 292.074944 
L 312.729468 292.064604 
L 314.771321 292.091811 
L 316.813173 291.926484 
L 318.855026 291.855347 
L 320.896878 291.978351 
L 322.938731 291.895555 
L 324.980583 291.925068 
L 327.022436 294.13284 
L 329.064288 292.041185 
L 331.106141 292.093904 
L 333.147993 294.442207 
L 335.189846 292.144647 
L 337.231698 291.929911 
L 339.273551 291.900891 
L 341.315403 294.191669 
L 343.357256 292.20527 
L 345.399108 294.455241 
L 347.440961 294.406124 
L 349.482813 292.620819 
L 351.524666 294.945243 
L 353.566518 292.266291 
L 355.60837 292.220721 
L 357.650223 294.532144 
L 359.692075 294.749949 
L 361.733928 294.814583 
L 363.77578 294.840864 
L 365.817633 292.23334 
L 367.859485 292.124884 
L 369.901338 294.712406 
L 371.94319 292.33446 
L 373.985043 294.586676 
L 376.026895 294.610833 
L 378.068748 294.811067 
L 380.1106 295.14843 
L 382.152453 292.37299 
L 384.194305 294.850655 
L 386.236158 295.018972 
L 388.27801 292.336062 
L 390.319863 295.179907 
L 392.361715 294.593221 
L 394.403568 294.874268 
L 396.44542 294.788849 
L 398.487273 294.260229 
L 398.487273 286.874606 
L 398.487273 286.874606 
L 396.44542 291.191817 
L 394.403568 289.767142 
L 392.361715 289.250337 
L 390.319863 290.42282 
L 388.27801 288.89983 
L 386.236158 289.843626 
L 384.194305 289.970188 
L 382.152453 287.882387 
L 380.1106 289.704744 
L 378.068748 288.005075 
L 376.026895 287.494188 
L 373.985043 290.814794 
L 371.94319 286.964531 
L 369.901338 286.841385 
L 367.859485 287.46452 
L 365.817633 287.450518 
L 363.77578 289.962871 
L 361.733928 288.227787 
L 359.692075 287.456496 
L 357.650223 287.231444 
L 355.60837 286.963172 
L 353.566518 286.730739 
L 351.524666 289.114803 
L 349.482813 288.029745 
L 347.440961 287.645122 
L 345.399108 288.069052 
L 343.357256 286.822969 
L 341.315403 288.204004 
L 339.273551 286.801194 
L 337.231698 286.983975 
L 335.189846 287.006234 
L 333.147993 286.785363 
L 331.106141 286.772628 
L 329.064288 287.001898 
L 327.022436 287.099233 
L 324.980583 287.389558 
L 322.938731 286.934141 
L 320.896878 286.940207 
L 318.855026 286.797386 
L 316.813173 286.869165 
L 314.771321 286.780394 
L 312.729468 286.958119 
L 310.687616 286.671959 
L 308.645763 286.445673 
L 306.603911 287.136496 
L 304.562058 289.292415 
L 302.520206 287.023628 
L 300.478353 287.119665 
L 298.436501 286.741083 
L 296.394648 286.766216 
L 294.352796 286.908684 
L 292.310943 286.976713 
L 290.269091 290.475739 
L 288.227238 290.895618 
L 286.185386 286.816404 
L 284.143533 286.767479 
L 282.101681 286.867186 
L 280.059828 287.07385 
L 278.017976 286.928475 
L 275.976123 287.022773 
L 273.934271 286.859424 
L 271.892419 287.234857 
L 269.850566 286.904916 
L 267.808714 286.805324 
L 265.766861 286.102301 
L 263.725009 287.928967 
L 261.683156 289.732748 
L 259.641304 287.437572 
L 257.599451 286.439437 
L 255.557599 286.944796 
L 253.515746 286.715025 
L 251.473894 287.293328 
L 249.432041 287.650325 
L 247.390189 289.190515 
L 245.348336 289.070852 
L 243.306484 286.551229 
L 241.264631 287.329486 
L 239.222779 287.759874 
L 237.180926 289.29269 
L 235.139074 286.287207 
L 233.097221 288.775162 
L 231.055369 288.653151 
L 229.013516 287.071926 
L 226.971664 287.183314 
L 224.929811 287.19298 
L 222.887959 287.588591 
L 220.846106 287.10301 
L 218.804254 287.003574 
L 216.762401 286.986253 
L 214.720549 288.240175 
L 212.678696 289.075917 
L 210.636844 288.386404 
L 208.594991 289.164588 
L 206.553139 288.360701 
L 204.511286 289.327971 
L 202.469434 289.126496 
L 200.427581 288.23795 
L 198.385729 288.21811 
L 196.343877 288.52897 
L 194.302024 288.165846 
L 192.260172 288.353128 
L 190.218319 288.28613 
L 188.176467 287.993696 
L 186.134614 288.387955 
L 184.092762 288.481795 
L 182.050909 288.292374 
L 180.009057 288.133599 
L 177.967204 288.164113 
L 175.925352 288.36902 
L 173.883499 288.406775 
L 171.841647 288.260188 
L 169.799794 288.14244 
L 167.757942 288.027491 
L 165.716089 288.447937 
L 163.674237 288.37076 
L 161.632384 289.266887 
L 159.590532 289.484863 
L 157.548679 288.01381 
L 155.506827 288.658489 
L 153.464974 288.219789 
L 151.423122 288.676547 
L 149.381269 288.304573 
L 147.339417 288.336436 
L 145.297564 290.157101 
L 143.255712 288.390803 
L 141.213859 288.649857 
L 139.172007 288.168701 
L 137.130154 289.380684 
L 135.088302 288.224956 
L 133.046449 288.095715 
L 131.004597 288.1178 
L 128.962744 288.065104 
L 126.920892 289.594563 
L 124.879039 290.038463 
L 122.837187 288.099156 
L 120.795334 290.08708 
L 118.753482 289.702985 
L 116.71163 287.921398 
L 114.669777 288.071025 
L 112.627925 288.541086 
L 110.586072 288.097641 
L 108.54422 287.781547 
L 106.502367 287.892693 
L 104.460515 287.869381 
L 102.418662 287.804078 
L 100.37681 288.027495 
L 98.334957 288.96995 
L 96.293105 288.561939 
L 94.251252 288.474693 
L 92.2094 288.13153 
L 90.167547 288.56455 
L 88.125695 287.957902 
L 86.083842 287.936428 
L 84.04199 288.511807 
L 82.000137 288.329055 
L 79.958285 288.164688 
L 77.916432 288.238176 
L 75.87458 286.305805 
L 73.832727 273.325002 
z
" style="fill:#1f77b4;fill-opacity:0.2;"/>
   </g>
   <g id="PolyCollection_2">
    <path clip-path="url(#pf3c74a3030)" d="M 73.832727 164.933766 
L 73.832727 289.245349 
L 75.87458 289.420129 
L 77.916432 289.99828 
L 79.958285 290.307973 
L 82.000137 290.562536 
L 84.04199 290.780176 
L 86.083842 290.862102 
L 88.125695 291.073127 
L 90.167547 291.04078 
L 92.2094 291.217974 
L 94.251252 291.286413 
L 96.293105 291.328887 
L 98.334957 291.379188 
L 100.37681 291.68563 
L 102.418662 291.57943 
L 104.460515 291.652361 
L 106.502367 291.780786 
L 108.54422 291.78561 
L 110.586072 291.87602 
L 112.627925 291.867127 
L 114.669777 291.964078 
L 116.71163 291.965247 
L 118.753482 292.06471 
L 120.795334 292.241037 
L 122.837187 292.308603 
L 124.879039 292.159026 
L 126.920892 292.229397 
L 128.962744 292.204869 
L 131.004597 292.182025 
L 133.046449 292.222583 
L 135.088302 292.32924 
L 137.130154 292.249883 
L 139.172007 292.329341 
L 141.213859 292.310962 
L 143.255712 292.326697 
L 145.297564 292.316883 
L 147.339417 292.456657 
L 149.381269 292.740721 
L 151.423122 292.651028 
L 153.464974 292.769739 
L 155.506827 292.835681 
L 157.548679 292.840159 
L 159.590532 292.788764 
L 161.632384 292.778813 
L 163.674237 292.779331 
L 165.716089 292.989681 
L 167.757942 292.960348 
L 169.799794 292.934919 
L 171.841647 293.040567 
L 173.883499 293.058621 
L 175.925352 292.99221 
L 177.967204 293.162251 
L 180.009057 293.109845 
L 182.050909 293.078726 
L 184.092762 293.20585 
L 186.134614 293.25115 
L 188.176467 293.102201 
L 190.218319 293.182325 
L 192.260172 293.313651 
L 194.302024 293.303568 
L 196.343877 293.295136 
L 198.385729 293.262334 
L 200.427581 293.353699 
L 202.469434 293.390619 
L 204.511286 293.339882 
L 206.553139 293.554298 
L 208.594991 293.439126 
L 210.636844 293.500169 
L 212.678696 293.450589 
L 214.720549 293.458792 
L 216.762401 293.488495 
L 218.804254 293.721234 
L 220.846106 293.568302 
L 222.887959 293.689609 
L 224.929811 293.712442 
L 226.971664 293.759033 
L 229.013516 293.749474 
L 231.055369 293.761464 
L 233.097221 293.941102 
L 235.139074 293.760325 
L 237.180926 293.89143 
L 239.222779 293.874063 
L 241.264631 293.97946 
L 243.306484 293.95028 
L 245.348336 293.915327 
L 247.390189 293.888907 
L 249.432041 293.888617 
L 251.473894 294.024458 
L 253.515746 294.061587 
L 255.557599 294.026791 
L 257.599451 294.071045 
L 259.641304 294.031946 
L 261.683156 294.027644 
L 263.725009 294.168342 
L 265.766861 294.175044 
L 267.808714 294.238315 
L 269.850566 294.074203 
L 271.892419 294.064 
L 273.934271 294.1409 
L 275.976123 294.215798 
L 278.017976 294.353477 
L 280.059828 294.333155 
L 282.101681 294.312607 
L 284.143533 294.288262 
L 286.185386 294.38014 
L 288.227238 294.294178 
L 290.269091 294.364779 
L 292.310943 294.378529 
L 294.352796 294.556882 
L 296.394648 294.396007 
L 298.436501 294.36838 
L 300.478353 294.356498 
L 302.520206 294.375004 
L 304.562058 294.561408 
L 306.603911 294.438539 
L 308.645763 294.418127 
L 310.687616 294.394164 
L 312.729468 294.585519 
L 314.771321 294.552111 
L 316.813173 294.465816 
L 318.855026 294.497426 
L 320.896878 294.446043 
L 322.938731 294.43495 
L 324.980583 294.522744 
L 327.022436 294.425164 
L 329.064288 294.414094 
L 331.106141 294.408046 
L 333.147993 294.6644 
L 335.189846 294.581626 
L 337.231698 294.534365 
L 339.273551 294.639284 
L 341.315403 294.778079 
L 343.357256 294.750992 
L 345.399108 294.716995 
L 347.440961 294.951157 
L 349.482813 295.105071 
L 351.524666 295.104752 
L 353.566518 295.030347 
L 355.60837 295.00786 
L 357.650223 294.960781 
L 359.692075 295.006987 
L 361.733928 295.24072 
L 363.77578 295.079688 
L 365.817633 295.113295 
L 367.859485 294.995915 
L 369.901338 295.34782 
L 371.94319 295.266571 
L 373.985043 295.229124 
L 376.026895 295.193906 
L 378.068748 295.344439 
L 380.1106 295.366156 
L 382.152453 295.259409 
L 384.194305 295.246037 
L 386.236158 295.43282 
L 388.27801 295.488 
L 390.319863 295.449074 
L 392.361715 295.392526 
L 394.403568 295.421586 
L 396.44542 295.465887 
L 398.487273 295.457062 
L 398.487273 198.932326 
L 398.487273 198.932326 
L 396.44542 247.430761 
L 394.403568 238.208228 
L 392.361715 202.286877 
L 390.319863 209.950599 
L 388.27801 163.671903 
L 386.236158 198.338879 
L 384.194305 200.767869 
L 382.152453 237.40304 
L 380.1106 165.269777 
L 378.068748 172.696198 
L 376.026895 214.290606 
L 373.985043 198.745606 
L 371.94319 164.374525 
L 369.901338 162.058449 
L 367.859485 199.544028 
L 365.817633 232.100603 
L 363.77578 273.497282 
L 361.733928 210.485138 
L 359.692075 200.466948 
L 357.650223 213.654301 
L 355.60837 165.128466 
L 353.566518 195.560761 
L 351.524666 222.502644 
L 349.482813 172.685934 
L 347.440961 202.364366 
L 345.399108 212.021372 
L 343.357256 196.258906 
L 341.315403 210.516914 
L 339.273551 214.803766 
L 337.231698 222.625945 
L 335.189846 211.142249 
L 333.147993 221.303607 
L 331.106141 224.774201 
L 329.064288 209.405058 
L 327.022436 229.346465 
L 324.980583 199.909946 
L 322.938731 221.610169 
L 320.896878 210.666473 
L 318.855026 221.124666 
L 316.813173 230.495006 
L 314.771321 200.985268 
L 312.729468 227.139632 
L 310.687616 198.056796 
L 308.645763 250.07293 
L 306.603911 223.225268 
L 304.562058 268.183333 
L 302.520206 212.407773 
L 300.478353 228.83875 
L 298.436501 202.088942 
L 296.394648 238.909132 
L 294.352796 222.626449 
L 292.310943 202.089054 
L 290.269091 208.689116 
L 288.227238 237.696014 
L 286.185386 219.148182 
L 284.143533 115.798098 
L 282.101681 222.981644 
L 280.059828 232.2516 
L 278.017976 227.140779 
L 275.976123 208.658784 
L 273.934271 214.365475 
L 271.892419 270.876953 
L 269.850566 252.570291 
L 267.808714 116.818844 
L 265.766861 238.221654 
L 263.725009 200.210709 
L 261.683156 109.203677 
L 259.641304 271.70399 
L 257.599451 252.561024 
L 255.557599 196.364611 
L 253.515746 217.908806 
L 251.473894 254.318709 
L 249.432041 200.292932 
L 247.390189 235.583497 
L 245.348336 195.430006 
L 243.306484 260.340167 
L 241.264631 249.465688 
L 239.222779 261.015713 
L 237.180926 191.954672 
L 235.139074 146.088691 
L 233.097221 195.191967 
L 231.055369 193.604133 
L 229.013516 198.74668 
L 226.971664 235.106569 
L 224.929811 253.294107 
L 222.887959 212.674644 
L 220.846106 197.85463 
L 218.804254 199.582084 
L 216.762401 254.708507 
L 214.720549 197.875449 
L 212.678696 101.750359 
L 210.636844 53.568 
L 208.594991 198.027583 
L 206.553139 200.244221 
L 204.511286 197.207973 
L 202.469434 202.545231 
L 200.427581 202.5211 
L 198.385729 246.306643 
L 196.343877 246.518893 
L 194.302024 273.652796 
L 192.260172 275.075414 
L 190.218319 198.301204 
L 188.176467 201.36718 
L 186.134614 204.242912 
L 184.092762 259.467111 
L 182.050909 202.130781 
L 180.009057 85.019328 
L 177.967204 195.092339 
L 175.925352 248.507533 
L 173.883499 269.013486 
L 171.841647 207.139428 
L 169.799794 199.826033 
L 167.757942 231.606784 
L 165.716089 200.643583 
L 163.674237 211.092922 
L 161.632384 204.629861 
L 159.590532 204.052745 
L 157.548679 210.037254 
L 155.506827 205.37318 
L 153.464974 271.847608 
L 151.423122 245.879746 
L 149.381269 258.56614 
L 147.339417 227.785702 
L 145.297564 193.273697 
L 143.255712 270.918543 
L 141.213859 262.801672 
L 139.172007 191.694236 
L 137.130154 270.048537 
L 135.088302 259.239671 
L 133.046449 255.452145 
L 131.004597 206.042224 
L 128.962744 250.112368 
L 126.920892 212.844608 
L 124.879039 258.537654 
L 122.837187 256.606221 
L 120.795334 213.432593 
L 118.753482 273.556574 
L 116.71163 272.356674 
L 114.669777 211.788101 
L 112.627925 109.29172 
L 110.586072 279.876226 
L 108.54422 276.99585 
L 106.502367 206.640841 
L 104.460515 209.285731 
L 102.418662 207.53109 
L 100.37681 282.796556 
L 98.334957 270.114262 
L 96.293105 267.737655 
L 94.251252 267.013956 
L 92.2094 269.642773 
L 90.167547 267.361652 
L 88.125695 269.17219 
L 86.083842 209.024321 
L 84.04199 267.941298 
L 82.000137 267.575156 
L 79.958285 250.438372 
L 77.916432 208.365642 
L 75.87458 246.696267 
L 73.832727 164.933766 
z
" style="fill:#1f77b4;fill-opacity:0.1;"/>
   </g>
   <g id="matplotlib.axis_1">
    <g id="xtick_1">
     <g id="line2d_1">
      <defs>
       <path d="M 0 0 
L 0 3.5 
" id="m2559b9386b" style="stroke:#000000;stroke-width:0.8;"/>
      </defs>
      <g>
       <use style="stroke:#000000;stroke-width:0.8;" x="73.832727" xlink:href="#m2559b9386b" y="307.584"/>
      </g>
     </g>
     <g id="text_1">
      <!-- 0 -->
      <defs>
       <path d="M 31.78125 66.40625 
Q 24.171875 66.40625 20.328125 58.90625 
Q 16.5 51.421875 16.5 36.375 
Q 16.5 21.390625 20.328125 13.890625 
Q 24.171875 6.390625 31.78125 6.390625 
Q 39.453125 6.390625 43.28125 13.890625 
Q 47.125 21.390625 47.125 36.375 
Q 47.125 51.421875 43.28125 58.90625 
Q 39.453125 66.40625 31.78125 66.40625 
z
M 31.78125 74.21875 
Q 44.046875 74.21875 50.515625 64.515625 
Q 56.984375 54.828125 56.984375 36.375 
Q 56.984375 17.96875 50.515625 8.265625 
Q 44.046875 -1.421875 31.78125 -1.421875 
Q 19.53125 -1.421875 13.0625 8.265625 
Q 6.59375 17.96875 6.59375 36.375 
Q 6.59375 54.828125 13.0625 64.515625 
Q 19.53125 74.21875 31.78125 74.21875 
z
" id="DejaVuSans-48"/>
      </defs>
      <g transform="translate(70.651477 322.182437)scale(0.1 -0.1)">
       <use xlink:href="#DejaVuSans-48"/>
      </g>
     </g>
    </g>
    <g id="xtick_2">
     <g id="line2d_2">
      <g>
       <use style="stroke:#000000;stroke-width:0.8;" x="114.669777" xlink:href="#m2559b9386b" y="307.584"/>
      </g>
     </g>
     <g id="text_2">
      <!-- 20 -->
      <defs>
       <path d="M 19.1875 8.296875 
L 53.609375 8.296875 
L 53.609375 0 
L 7.328125 0 
L 7.328125 8.296875 
Q 12.9375 14.109375 22.625 23.890625 
Q 32.328125 33.6875 34.8125 36.53125 
Q 39.546875 41.84375 41.421875 45.53125 
Q 43.3125 49.21875 43.3125 52.78125 
Q 43.3125 58.59375 39.234375 62.25 
Q 35.15625 65.921875 28.609375 65.921875 
Q 23.96875 65.921875 18.8125 64.3125 
Q 13.671875 62.703125 7.8125 59.421875 
L 7.8125 69.390625 
Q 13.765625 71.78125 18.9375 73 
Q 24.125 74.21875 28.421875 74.21875 
Q 39.75 74.21875 46.484375 68.546875 
Q 53.21875 62.890625 53.21875 53.421875 
Q 53.21875 48.921875 51.53125 44.890625 
Q 49.859375 40.875 45.40625 35.40625 
Q 44.1875 33.984375 37.640625 27.21875 
Q 31.109375 20.453125 19.1875 8.296875 
z
" id="DejaVuSans-50"/>
      </defs>
      <g transform="translate(108.307277 322.182437)scale(0.1 -0.1)">
       <use xlink:href="#DejaVuSans-50"/>
       <use x="63.623047" xlink:href="#DejaVuSans-48"/>
      </g>
     </g>
    </g>
    <g id="xtick_3">
     <g id="line2d_3">
      <g>
       <use style="stroke:#000000;stroke-width:0.8;" x="155.506827" xlink:href="#m2559b9386b" y="307.584"/>
      </g>
     </g>
     <g id="text_3">
      <!-- 40 -->
      <defs>
       <path d="M 37.796875 64.3125 
L 12.890625 25.390625 
L 37.796875 25.390625 
z
M 35.203125 72.90625 
L 47.609375 72.90625 
L 47.609375 25.390625 
L 58.015625 25.390625 
L 58.015625 17.1875 
L 47.609375 17.1875 
L 47.609375 0 
L 37.796875 0 
L 37.796875 17.1875 
L 4.890625 17.1875 
L 4.890625 26.703125 
z
" id="DejaVuSans-52"/>
      </defs>
      <g transform="translate(149.144327 322.182437)scale(0.1 -0.1)">
       <use xlink:href="#DejaVuSans-52"/>
       <use x="63.623047" xlink:href="#DejaVuSans-48"/>
      </g>
     </g>
    </g>
    <g id="xtick_4">
     <g id="line2d_4">
      <g>
       <use style="stroke:#000000;stroke-width:0.8;" x="196.343877" xlink:href="#m2559b9386b" y="307.584"/>
      </g>
     </g>
     <g id="text_4">
      <!-- 60 -->
      <defs>
       <path d="M 33.015625 40.375 
Q 26.375 40.375 22.484375 35.828125 
Q 18.609375 31.296875 18.609375 23.390625 
Q 18.609375 15.53125 22.484375 10.953125 
Q 26.375 6.390625 33.015625 6.390625 
Q 39.65625 6.390625 43.53125 10.953125 
Q 47.40625 15.53125 47.40625 23.390625 
Q 47.40625 31.296875 43.53125 35.828125 
Q 39.65625 40.375 33.015625 40.375 
z
M 52.59375 71.296875 
L 52.59375 62.3125 
Q 48.875 64.0625 45.09375 64.984375 
Q 41.3125 65.921875 37.59375 65.921875 
Q 27.828125 65.921875 22.671875 59.328125 
Q 17.53125 52.734375 16.796875 39.40625 
Q 19.671875 43.65625 24.015625 45.921875 
Q 28.375 48.1875 33.59375 48.1875 
Q 44.578125 48.1875 50.953125 41.515625 
Q 57.328125 34.859375 57.328125 23.390625 
Q 57.328125 12.15625 50.6875 5.359375 
Q 44.046875 -1.421875 33.015625 -1.421875 
Q 20.359375 -1.421875 13.671875 8.265625 
Q 6.984375 17.96875 6.984375 36.375 
Q 6.984375 53.65625 15.1875 63.9375 
Q 23.390625 74.21875 37.203125 74.21875 
Q 40.921875 74.21875 44.703125 73.484375 
Q 48.484375 72.75 52.59375 71.296875 
z
" id="DejaVuSans-54"/>
      </defs>
      <g transform="translate(189.981377 322.182437)scale(0.1 -0.1)">
       <use xlink:href="#DejaVuSans-54"/>
       <use x="63.623047" xlink:href="#DejaVuSans-48"/>
      </g>
     </g>
    </g>
    <g id="xtick_5">
     <g id="line2d_5">
      <g>
       <use style="stroke:#000000;stroke-width:0.8;" x="237.180926" xlink:href="#m2559b9386b" y="307.584"/>
      </g>
     </g>
     <g id="text_5">
      <!-- 80 -->
      <defs>
       <path d="M 31.78125 34.625 
Q 24.75 34.625 20.71875 30.859375 
Q 16.703125 27.09375 16.703125 20.515625 
Q 16.703125 13.921875 20.71875 10.15625 
Q 24.75 6.390625 31.78125 6.390625 
Q 38.8125 6.390625 42.859375 10.171875 
Q 46.921875 13.96875 46.921875 20.515625 
Q 46.921875 27.09375 42.890625 30.859375 
Q 38.875 34.625 31.78125 34.625 
z
M 21.921875 38.8125 
Q 15.578125 40.375 12.03125 44.71875 
Q 8.5 49.078125 8.5 55.328125 
Q 8.5 64.0625 14.71875 69.140625 
Q 20.953125 74.21875 31.78125 74.21875 
Q 42.671875 74.21875 48.875 69.140625 
Q 55.078125 64.0625 55.078125 55.328125 
Q 55.078125 49.078125 51.53125 44.71875 
Q 48 40.375 41.703125 38.8125 
Q 48.828125 37.15625 52.796875 32.3125 
Q 56.78125 27.484375 56.78125 20.515625 
Q 56.78125 9.90625 50.3125 4.234375 
Q 43.84375 -1.421875 31.78125 -1.421875 
Q 19.734375 -1.421875 13.25 4.234375 
Q 6.78125 9.90625 6.78125 20.515625 
Q 6.78125 27.484375 10.78125 32.3125 
Q 14.796875 37.15625 21.921875 38.8125 
z
M 18.3125 54.390625 
Q 18.3125 48.734375 21.84375 45.5625 
Q 25.390625 42.390625 31.78125 42.390625 
Q 38.140625 42.390625 41.71875 45.5625 
Q 45.3125 48.734375 45.3125 54.390625 
Q 45.3125 60.0625 41.71875 63.234375 
Q 38.140625 66.40625 31.78125 66.40625 
Q 25.390625 66.40625 21.84375 63.234375 
Q 18.3125 60.0625 18.3125 54.390625 
z
" id="DejaVuSans-56"/>
      </defs>
      <g transform="translate(230.818426 322.182437)scale(0.1 -0.1)">
       <use xlink:href="#DejaVuSans-56"/>
       <use x="63.623047" xlink:href="#DejaVuSans-48"/>
      </g>
     </g>
    </g>
    <g id="xtick_6">
     <g id="line2d_6">
      <g>
       <use style="stroke:#000000;stroke-width:0.8;" x="278.017976" xlink:href="#m2559b9386b" y="307.584"/>
      </g>
     </g>
     <g id="text_6">
      <!-- 100 -->
      <defs>
       <path d="M 12.40625 8.296875 
L 28.515625 8.296875 
L 28.515625 63.921875 
L 10.984375 60.40625 
L 10.984375 69.390625 
L 28.421875 72.90625 
L 38.28125 72.90625 
L 38.28125 8.296875 
L 54.390625 8.296875 
L 54.390625 0 
L 12.40625 0 
z
" id="DejaVuSans-49"/>
      </defs>
      <g transform="translate(268.474226 322.182437)scale(0.1 -0.1)">
       <use xlink:href="#DejaVuSans-49"/>
       <use x="63.623047" xlink:href="#DejaVuSans-48"/>
       <use x="127.246094" xlink:href="#DejaVuSans-48"/>
      </g>
     </g>
    </g>
    <g id="xtick_7">
     <g id="line2d_7">
      <g>
       <use style="stroke:#000000;stroke-width:0.8;" x="318.855026" xlink:href="#m2559b9386b" y="307.584"/>
      </g>
     </g>
     <g id="text_7">
      <!-- 120 -->
      <g transform="translate(309.311276 322.182437)scale(0.1 -0.1)">
       <use xlink:href="#DejaVuSans-49"/>
       <use x="63.623047" xlink:href="#DejaVuSans-50"/>
       <use x="127.246094" xlink:href="#DejaVuSans-48"/>
      </g>
     </g>
    </g>
    <g id="xtick_8">
     <g id="line2d_8">
      <g>
       <use style="stroke:#000000;stroke-width:0.8;" x="359.692075" xlink:href="#m2559b9386b" y="307.584"/>
      </g>
     </g>
     <g id="text_8">
      <!-- 140 -->
      <g transform="translate(350.148325 322.182437)scale(0.1 -0.1)">
       <use xlink:href="#DejaVuSans-49"/>
       <use x="63.623047" xlink:href="#DejaVuSans-52"/>
       <use x="127.246094" xlink:href="#DejaVuSans-48"/>
      </g>
     </g>
    </g>
    <g id="xtick_9">
     <g id="line2d_9">
      <g>
       <use style="stroke:#000000;stroke-width:0.8;" x="400.529125" xlink:href="#m2559b9386b" y="307.584"/>
      </g>
     </g>
     <g id="text_9">
      <!-- 160 -->
      <g transform="translate(390.985375 322.182437)scale(0.1 -0.1)">
       <use xlink:href="#DejaVuSans-49"/>
       <use x="63.623047" xlink:href="#DejaVuSans-54"/>
       <use x="127.246094" xlink:href="#DejaVuSans-48"/>
      </g>
     </g>
    </g>
   </g>
   <g id="matplotlib.axis_2">
    <g id="ytick_1">
     <g id="line2d_10">
      <defs>
       <path d="M 0 0 
L -3.5 0 
" id="mc7815deee9" style="stroke:#000000;stroke-width:0.8;"/>
      </defs>
      <g>
       <use style="stroke:#000000;stroke-width:0.8;" x="57.6" xlink:href="#mc7815deee9" y="259.00532"/>
      </g>
     </g>
     <g id="text_10">
      <!-- 5 -->
      <defs>
       <path d="M 10.796875 72.90625 
L 49.515625 72.90625 
L 49.515625 64.59375 
L 19.828125 64.59375 
L 19.828125 46.734375 
Q 21.96875 47.46875 24.109375 47.828125 
Q 26.265625 48.1875 28.421875 48.1875 
Q 40.625 48.1875 47.75 41.5 
Q 54.890625 34.8125 54.890625 23.390625 
Q 54.890625 11.625 47.5625 5.09375 
Q 40.234375 -1.421875 26.90625 -1.421875 
Q 22.3125 -1.421875 17.546875 -0.640625 
Q 12.796875 0.140625 7.71875 1.703125 
L 7.71875 11.625 
Q 12.109375 9.234375 16.796875 8.0625 
Q 21.484375 6.890625 26.703125 6.890625 
Q 35.15625 6.890625 40.078125 11.328125 
Q 45.015625 15.765625 45.015625 23.390625 
Q 45.015625 31 40.078125 35.4375 
Q 35.15625 39.890625 26.703125 39.890625 
Q 22.75 39.890625 18.8125 39.015625 
Q 14.890625 38.140625 10.796875 36.28125 
z
" id="DejaVuSans-53"/>
      </defs>
      <g transform="translate(44.2375 262.804539)scale(0.1 -0.1)">
       <use xlink:href="#DejaVuSans-53"/>
      </g>
     </g>
    </g>
    <g id="ytick_2">
     <g id="line2d_11">
      <g>
       <use style="stroke:#000000;stroke-width:0.8;" x="57.6" xlink:href="#mc7815deee9" y="200.322381"/>
      </g>
     </g>
     <g id="text_11">
      <!-- 10 -->
      <g transform="translate(37.875 204.1216)scale(0.1 -0.1)">
       <use xlink:href="#DejaVuSans-49"/>
       <use x="63.623047" xlink:href="#DejaVuSans-48"/>
      </g>
     </g>
    </g>
    <g id="ytick_3">
     <g id="line2d_12">
      <g>
       <use style="stroke:#000000;stroke-width:0.8;" x="57.6" xlink:href="#mc7815deee9" y="141.639442"/>
      </g>
     </g>
     <g id="text_12">
      <!-- 15 -->
      <g transform="translate(37.875 145.43866)scale(0.1 -0.1)">
       <use xlink:href="#DejaVuSans-49"/>
       <use x="63.623047" xlink:href="#DejaVuSans-53"/>
      </g>
     </g>
    </g>
    <g id="ytick_4">
     <g id="line2d_13">
      <g>
       <use style="stroke:#000000;stroke-width:0.8;" x="57.6" xlink:href="#mc7815deee9" y="82.956502"/>
      </g>
     </g>
     <g id="text_13">
      <!-- 20 -->
      <g transform="translate(37.875 86.755721)scale(0.1 -0.1)">
       <use xlink:href="#DejaVuSans-50"/>
       <use x="63.623047" xlink:href="#DejaVuSans-48"/>
      </g>
     </g>
    </g>
   </g>
   <g id="line2d_14">
    <path clip-path="url(#pf3c74a3030)" d="M 73.832727 282.143013 
L 75.87458 288.001428 
L 77.916432 289.059012 
L 82.000137 289.58331 
L 84.04199 289.677469 
L 86.083842 290.047442 
L 88.125695 289.941168 
L 90.167547 290.371329 
L 92.2094 290.246184 
L 94.251252 290.677078 
L 96.293105 290.540226 
L 98.334957 290.746778 
L 100.37681 289.639815 
L 102.418662 290.7862 
L 104.460515 289.564581 
L 106.502367 289.807968 
L 108.54422 288.399879 
L 110.586072 288.685554 
L 112.627925 290.233231 
L 116.71163 289.981028 
L 118.753482 290.883815 
L 120.795334 291.147691 
L 122.837187 290.912 
L 126.920892 291.007167 
L 128.962744 290.841003 
L 131.004597 290.946934 
L 133.046449 290.185457 
L 135.088302 291.08038 
L 137.130154 290.844484 
L 139.172007 290.388299 
L 141.213859 291.024693 
L 143.255712 290.342291 
L 145.297564 291.312613 
L 147.339417 290.003419 
L 149.381269 289.887869 
L 151.423122 290.322605 
L 153.464974 289.797564 
L 155.506827 290.455358 
L 157.548679 290.069412 
L 159.590532 291.22644 
L 161.632384 291.248685 
L 163.674237 290.595966 
L 165.716089 290.369145 
L 169.799794 290.720221 
L 171.841647 290.453107 
L 173.883499 291.004873 
L 175.925352 290.727934 
L 177.967204 290.862642 
L 180.009057 290.670032 
L 182.050909 290.161644 
L 184.092762 290.64271 
L 186.134614 290.444677 
L 188.176467 290.782608 
L 190.218319 290.776131 
L 194.302024 291.348027 
L 196.343877 290.803928 
L 198.385729 290.429311 
L 200.427581 290.666066 
L 202.469434 291.648737 
L 204.511286 291.761618 
L 208.594991 291.313309 
L 210.636844 290.995906 
L 212.678696 291.143319 
L 214.720549 290.200086 
L 216.762401 291.366729 
L 218.804254 291.007078 
L 220.846106 290.002697 
L 222.887959 291.548601 
L 224.929811 289.297469 
L 226.971664 291.280193 
L 229.013516 289.492765 
L 231.055369 291.836626 
L 233.097221 292.07939 
L 237.180926 291.878409 
L 239.222779 290.350722 
L 241.264631 289.56469 
L 243.306484 289.603135 
L 245.348336 291.445496 
L 247.390189 291.996846 
L 249.432041 289.52237 
L 251.473894 289.253097 
L 253.515746 290.891861 
L 255.557599 289.895544 
L 257.599451 289.919891 
L 259.641304 291.650274 
L 261.683156 291.744219 
L 265.766861 291.477047 
L 267.808714 291.826899 
L 269.850566 290.809032 
L 273.934271 291.409297 
L 275.976123 291.208218 
L 278.017976 291.533668 
L 280.059828 291.494491 
L 282.101681 290.996917 
L 284.143533 290.820909 
L 286.185386 290.255147 
L 288.227238 291.898 
L 290.269091 291.954276 
L 292.310943 291.02625 
L 294.352796 291.587918 
L 296.394648 291.381913 
L 300.478353 291.217795 
L 302.520206 290.879314 
L 304.562058 291.958789 
L 306.603911 291.360012 
L 308.645763 290.551116 
L 312.729468 291.398114 
L 314.771321 290.973151 
L 316.813173 291.192049 
L 318.855026 289.223526 
L 320.896878 291.18188 
L 322.938731 291.518054 
L 324.980583 291.434753 
L 327.022436 291.899663 
L 329.064288 291.794019 
L 331.106141 291.330235 
L 333.147993 291.913311 
L 337.231698 291.474355 
L 339.273551 290.980478 
L 341.315403 291.889021 
L 343.357256 291.550007 
L 347.440961 291.948563 
L 349.482813 291.202666 
L 351.524666 292.040729 
L 353.566518 291.145265 
L 355.60837 291.428259 
L 359.692075 291.083412 
L 361.733928 292.125808 
L 363.77578 292.222193 
L 365.817633 291.305654 
L 367.859485 291.585866 
L 369.901338 291.27271 
L 371.94319 291.118303 
L 373.985043 292.26553 
L 376.026895 291.942733 
L 378.068748 292.27531 
L 380.1106 292.31913 
L 382.152453 291.034777 
L 384.194305 292.310795 
L 386.236158 292.29766 
L 388.27801 290.538407 
L 390.319863 292.401935 
L 392.361715 292.206658 
L 394.403568 292.260108 
L 396.44542 292.50537 
L 398.487273 291.896554 
L 398.487273 291.896554 
" style="fill:none;stroke:#1f77b4;stroke-linecap:square;stroke-width:0.25;"/>
   </g>
   <g id="line2d_15">
    <path clip-path="url(#pf3c74a3030)" d="M 73.832727 275.246207 
L 75.87458 286.377565 
L 77.916432 288.359748 
L 82.000137 288.871458 
L 84.04199 289.039657 
L 86.083842 288.854951 
L 90.167547 289.378761 
L 98.334957 289.774809 
L 102.418662 288.937081 
L 106.502367 289.138034 
L 108.54422 289.157086 
L 110.586072 289.316111 
L 112.627925 288.691117 
L 114.669777 289.405752 
L 116.71163 289.289921 
L 118.753482 290.200722 
L 120.795334 289.893279 
L 122.837187 289.719753 
L 124.879039 290.192618 
L 126.920892 290.082554 
L 128.962744 289.358305 
L 131.004597 289.550611 
L 133.046449 289.513787 
L 135.088302 290.032539 
L 137.130154 290.23918 
L 139.172007 289.140286 
L 141.213859 290.235486 
L 143.255712 289.648475 
L 145.297564 290.318782 
L 147.339417 289.517164 
L 149.381269 289.537112 
L 153.464974 289.734234 
L 155.506827 289.60655 
L 157.548679 289.294312 
L 159.590532 290.270042 
L 161.632384 290.090789 
L 163.674237 289.549479 
L 165.716089 289.625737 
L 171.841647 289.2579 
L 173.883499 290.255352 
L 175.925352 289.847412 
L 177.967204 289.248409 
L 180.009057 288.318674 
L 182.050909 289.412114 
L 184.092762 289.948956 
L 186.134614 289.612965 
L 188.176467 289.679828 
L 190.218319 289.556198 
L 192.260172 290.193536 
L 194.302024 290.327022 
L 196.343877 289.944591 
L 200.427581 289.432101 
L 202.469434 290.708506 
L 204.511286 290.138288 
L 206.553139 290.177754 
L 208.594991 290.015621 
L 210.636844 288.900546 
L 212.678696 289.568097 
L 214.720549 289.057083 
L 216.762401 289.676874 
L 218.804254 288.973497 
L 220.846106 289.070132 
L 222.887959 290.023542 
L 224.929811 289.358378 
L 226.971664 289.796424 
L 229.013516 288.826289 
L 231.055369 289.84026 
L 233.097221 290.073865 
L 235.139074 288.997642 
L 237.180926 290.250521 
L 239.222779 289.844367 
L 243.306484 289.376859 
L 245.348336 289.40331 
L 247.390189 290.582971 
L 249.432041 288.865397 
L 251.473894 289.117902 
L 253.515746 289.798832 
L 255.557599 289.14808 
L 257.599451 289.250448 
L 259.641304 290.510662 
L 261.683156 289.856989 
L 263.725009 289.913902 
L 265.766861 289.220341 
L 267.808714 289.473038 
L 269.850566 289.412326 
L 271.892419 289.977375 
L 273.934271 289.460503 
L 275.976123 289.082485 
L 278.017976 289.582756 
L 280.059828 289.782661 
L 282.101681 289.50817 
L 284.143533 288.541411 
L 286.185386 289.110407 
L 288.227238 291.105212 
L 290.269091 291.153758 
L 292.310943 289.175417 
L 294.352796 289.686171 
L 296.394648 289.830748 
L 298.436501 288.589463 
L 300.478353 289.64414 
L 302.520206 289.324241 
L 304.562058 291.441764 
L 306.603911 289.646918 
L 308.645763 289.155333 
L 310.687616 288.425723 
L 312.729468 289.662248 
L 314.771321 289.04048 
L 316.813173 289.614392 
L 318.855026 288.71075 
L 320.896878 289.426707 
L 324.980583 289.638484 
L 327.022436 290.26471 
L 329.064288 289.640161 
L 331.106141 289.598033 
L 333.147993 290.019146 
L 335.189846 289.404485 
L 339.273551 289.282209 
L 341.315403 289.93444 
L 343.357256 289.722443 
L 345.399108 289.817284 
L 347.440961 289.761093 
L 349.482813 290.057508 
L 351.524666 290.731873 
L 353.566518 289.070237 
L 355.60837 288.865205 
L 357.650223 290.125501 
L 359.692075 290.01141 
L 361.733928 290.910316 
L 363.77578 291.67113 
L 365.817633 289.692347 
L 367.859485 289.959455 
L 371.94319 288.869166 
L 373.985043 290.892485 
L 376.026895 290.58441 
L 380.1106 290.65999 
L 382.152453 289.584889 
L 384.194305 291.27129 
L 386.236158 290.755667 
L 388.27801 289.311333 
L 390.319863 291.138079 
L 392.361715 289.934135 
L 394.403568 291.139255 
L 396.44542 291.59348 
L 398.487273 289.572974 
L 398.487273 289.572974 
" style="fill:none;stroke:#2ca02c;stroke-linecap:square;stroke-width:0.75;"/>
   </g>
   <g id="patch_3">
    <path d="M 57.6 307.584 
L 57.6 41.472 
" style="fill:none;stroke:#000000;stroke-linecap:square;stroke-linejoin:miter;stroke-width:0.8;"/>
   </g>
   <g id="patch_4">
    <path d="M 414.72 307.584 
L 414.72 41.472 
" style="fill:none;stroke:#000000;stroke-linecap:square;stroke-linejoin:miter;stroke-width:0.8;"/>
   </g>
   <g id="patch_5">
    <path d="M 57.6 307.584 
L 414.72 307.584 
" style="fill:none;stroke:#000000;stroke-linecap:square;stroke-linejoin:miter;stroke-width:0.8;"/>
   </g>
   <g id="patch_6">
    <path d="M 57.6 41.472 
L 414.72 41.472 
" style="fill:none;stroke:#000000;stroke-linecap:square;stroke-linejoin:miter;stroke-width:0.8;"/>
   </g>
   <g id="legend_1">
    <g id="patch_7">
     <path d="M 338.234063 78.82825 
L 407.72 78.82825 
Q 409.72 78.82825 409.72 76.82825 
L 409.72 48.472 
Q 409.72 46.472 407.72 46.472 
L 338.234063 46.472 
Q 336.234063 46.472 336.234063 48.472 
L 336.234063 76.82825 
Q 336.234063 78.82825 338.234063 78.82825 
z
" style="fill:#ffffff;opacity:0.8;stroke:#cccccc;stroke-linejoin:miter;"/>
    </g>
    <g id="line2d_16">
     <path d="M 340.234063 54.570437 
L 360.234063 54.570437 
" style="fill:none;stroke:#1f77b4;stroke-linecap:square;stroke-width:0.25;"/>
    </g>
    <g id="line2d_17"/>
    <g id="text_14">
     <!-- median -->
     <defs>
      <path d="M 52 44.1875 
Q 55.375 50.25 60.0625 53.125 
Q 64.75 56 71.09375 56 
Q 79.640625 56 84.28125 50.015625 
Q 88.921875 44.046875 88.921875 33.015625 
L 88.921875 0 
L 79.890625 0 
L 79.890625 32.71875 
Q 79.890625 40.578125 77.09375 44.375 
Q 74.3125 48.1875 68.609375 48.1875 
Q 61.625 48.1875 57.5625 43.546875 
Q 53.515625 38.921875 53.515625 30.90625 
L 53.515625 0 
L 44.484375 0 
L 44.484375 32.71875 
Q 44.484375 40.625 41.703125 44.40625 
Q 38.921875 48.1875 33.109375 48.1875 
Q 26.21875 48.1875 22.15625 43.53125 
Q 18.109375 38.875 18.109375 30.90625 
L 18.109375 0 
L 9.078125 0 
L 9.078125 54.6875 
L 18.109375 54.6875 
L 18.109375 46.1875 
Q 21.1875 51.21875 25.484375 53.609375 
Q 29.78125 56 35.6875 56 
Q 41.65625 56 45.828125 52.96875 
Q 50 49.953125 52 44.1875 
z
" id="DejaVuSans-109"/>
      <path d="M 56.203125 29.59375 
L 56.203125 25.203125 
L 14.890625 25.203125 
Q 15.484375 15.921875 20.484375 11.0625 
Q 25.484375 6.203125 34.421875 6.203125 
Q 39.59375 6.203125 44.453125 7.46875 
Q 49.3125 8.734375 54.109375 11.28125 
L 54.109375 2.78125 
Q 49.265625 0.734375 44.1875 -0.34375 
Q 39.109375 -1.421875 33.890625 -1.421875 
Q 20.796875 -1.421875 13.15625 6.1875 
Q 5.515625 13.8125 5.515625 26.8125 
Q 5.515625 40.234375 12.765625 48.109375 
Q 20.015625 56 32.328125 56 
Q 43.359375 56 49.78125 48.890625 
Q 56.203125 41.796875 56.203125 29.59375 
z
M 47.21875 32.234375 
Q 47.125 39.59375 43.09375 43.984375 
Q 39.0625 48.390625 32.421875 48.390625 
Q 24.90625 48.390625 20.390625 44.140625 
Q 15.875 39.890625 15.1875 32.171875 
z
" id="DejaVuSans-101"/>
      <path d="M 45.40625 46.390625 
L 45.40625 75.984375 
L 54.390625 75.984375 
L 54.390625 0 
L 45.40625 0 
L 45.40625 8.203125 
Q 42.578125 3.328125 38.25 0.953125 
Q 33.9375 -1.421875 27.875 -1.421875 
Q 17.96875 -1.421875 11.734375 6.484375 
Q 5.515625 14.40625 5.515625 27.296875 
Q 5.515625 40.1875 11.734375 48.09375 
Q 17.96875 56 27.875 56 
Q 33.9375 56 38.25 53.625 
Q 42.578125 51.265625 45.40625 46.390625 
z
M 14.796875 27.296875 
Q 14.796875 17.390625 18.875 11.75 
Q 22.953125 6.109375 30.078125 6.109375 
Q 37.203125 6.109375 41.296875 11.75 
Q 45.40625 17.390625 45.40625 27.296875 
Q 45.40625 37.203125 41.296875 42.84375 
Q 37.203125 48.484375 30.078125 48.484375 
Q 22.953125 48.484375 18.875 42.84375 
Q 14.796875 37.203125 14.796875 27.296875 
z
" id="DejaVuSans-100"/>
      <path d="M 9.421875 54.6875 
L 18.40625 54.6875 
L 18.40625 0 
L 9.421875 0 
z
M 9.421875 75.984375 
L 18.40625 75.984375 
L 18.40625 64.59375 
L 9.421875 64.59375 
z
" id="DejaVuSans-105"/>
      <path d="M 34.28125 27.484375 
Q 23.390625 27.484375 19.1875 25 
Q 14.984375 22.515625 14.984375 16.5 
Q 14.984375 11.71875 18.140625 8.90625 
Q 21.296875 6.109375 26.703125 6.109375 
Q 34.1875 6.109375 38.703125 11.40625 
Q 43.21875 16.703125 43.21875 25.484375 
L 43.21875 27.484375 
z
M 52.203125 31.203125 
L 52.203125 0 
L 43.21875 0 
L 43.21875 8.296875 
Q 40.140625 3.328125 35.546875 0.953125 
Q 30.953125 -1.421875 24.3125 -1.421875 
Q 15.921875 -1.421875 10.953125 3.296875 
Q 6 8.015625 6 15.921875 
Q 6 25.140625 12.171875 29.828125 
Q 18.359375 34.515625 30.609375 34.515625 
L 43.21875 34.515625 
L 43.21875 35.40625 
Q 43.21875 41.609375 39.140625 45 
Q 35.0625 48.390625 27.6875 48.390625 
Q 23 48.390625 18.546875 47.265625 
Q 14.109375 46.140625 10.015625 43.890625 
L 10.015625 52.203125 
Q 14.9375 54.109375 19.578125 55.046875 
Q 24.21875 56 28.609375 56 
Q 40.484375 56 46.34375 49.84375 
Q 52.203125 43.703125 52.203125 31.203125 
z
" id="DejaVuSans-97"/>
      <path d="M 54.890625 33.015625 
L 54.890625 0 
L 45.90625 0 
L 45.90625 32.71875 
Q 45.90625 40.484375 42.875 44.328125 
Q 39.84375 48.1875 33.796875 48.1875 
Q 26.515625 48.1875 22.3125 43.546875 
Q 18.109375 38.921875 18.109375 30.90625 
L 18.109375 0 
L 9.078125 0 
L 9.078125 54.6875 
L 18.109375 54.6875 
L 18.109375 46.1875 
Q 21.34375 51.125 25.703125 53.5625 
Q 30.078125 56 35.796875 56 
Q 45.21875 56 50.046875 50.171875 
Q 54.890625 44.34375 54.890625 33.015625 
z
" id="DejaVuSans-110"/>
     </defs>
     <g transform="translate(368.234063 58.070437)scale(0.1 -0.1)">
      <use xlink:href="#DejaVuSans-109"/>
      <use x="97.412109" xlink:href="#DejaVuSans-101"/>
      <use x="158.935547" xlink:href="#DejaVuSans-100"/>
      <use x="222.412109" xlink:href="#DejaVuSans-105"/>
      <use x="250.195312" xlink:href="#DejaVuSans-97"/>
      <use x="311.474609" xlink:href="#DejaVuSans-110"/>
     </g>
    </g>
    <g id="line2d_18">
     <path d="M 340.234063 69.248562 
L 360.234063 69.248562 
" style="fill:none;stroke:#2ca02c;stroke-linecap:square;stroke-width:0.75;"/>
    </g>
    <g id="line2d_19"/>
    <g id="text_15">
     <!-- mean -->
     <g transform="translate(368.234063 72.748562)scale(0.1 -0.1)">
      <use xlink:href="#DejaVuSans-109"/>
      <use x="97.412109" xlink:href="#DejaVuSans-101"/>
      <use x="158.935547" xlink:href="#DejaVuSans-97"/>
      <use x="220.214844" xlink:href="#DejaVuSans-110"/>
     </g>
    </g>
   </g>
  </g>
  <g id="text_16">
   <!-- log_loss.mean over generations -->
   <defs>
    <path d="M 9.421875 75.984375 
L 18.40625 75.984375 
L 18.40625 0 
L 9.421875 0 
z
" id="DejaVuSans-108"/>
    <path d="M 30.609375 48.390625 
Q 23.390625 48.390625 19.1875 42.75 
Q 14.984375 37.109375 14.984375 27.296875 
Q 14.984375 17.484375 19.15625 11.84375 
Q 23.34375 6.203125 30.609375 6.203125 
Q 37.796875 6.203125 41.984375 11.859375 
Q 46.1875 17.53125 46.1875 27.296875 
Q 46.1875 37.015625 41.984375 42.703125 
Q 37.796875 48.390625 30.609375 48.390625 
z
M 30.609375 56 
Q 42.328125 56 49.015625 48.375 
Q 55.71875 40.765625 55.71875 27.296875 
Q 55.71875 13.875 49.015625 6.21875 
Q 42.328125 -1.421875 30.609375 -1.421875 
Q 18.84375 -1.421875 12.171875 6.21875 
Q 5.515625 13.875 5.515625 27.296875 
Q 5.515625 40.765625 12.171875 48.375 
Q 18.84375 56 30.609375 56 
z
" id="DejaVuSans-111"/>
    <path d="M 45.40625 27.984375 
Q 45.40625 37.75 41.375 43.109375 
Q 37.359375 48.484375 30.078125 48.484375 
Q 22.859375 48.484375 18.828125 43.109375 
Q 14.796875 37.75 14.796875 27.984375 
Q 14.796875 18.265625 18.828125 12.890625 
Q 22.859375 7.515625 30.078125 7.515625 
Q 37.359375 7.515625 41.375 12.890625 
Q 45.40625 18.265625 45.40625 27.984375 
z
M 54.390625 6.78125 
Q 54.390625 -7.171875 48.1875 -13.984375 
Q 42 -20.796875 29.203125 -20.796875 
Q 24.46875 -20.796875 20.265625 -20.09375 
Q 16.0625 -19.390625 12.109375 -17.921875 
L 12.109375 -9.1875 
Q 16.0625 -11.328125 19.921875 -12.34375 
Q 23.78125 -13.375 27.78125 -13.375 
Q 36.625 -13.375 41.015625 -8.765625 
Q 45.40625 -4.15625 45.40625 5.171875 
L 45.40625 9.625 
Q 42.625 4.78125 38.28125 2.390625 
Q 33.9375 0 27.875 0 
Q 17.828125 0 11.671875 7.65625 
Q 5.515625 15.328125 5.515625 27.984375 
Q 5.515625 40.671875 11.671875 48.328125 
Q 17.828125 56 27.875 56 
Q 33.9375 56 38.28125 53.609375 
Q 42.625 51.21875 45.40625 46.390625 
L 45.40625 54.6875 
L 54.390625 54.6875 
z
" id="DejaVuSans-103"/>
    <path d="M 50.984375 -16.609375 
L 50.984375 -23.578125 
L -0.984375 -23.578125 
L -0.984375 -16.609375 
z
" id="DejaVuSans-95"/>
    <path d="M 44.28125 53.078125 
L 44.28125 44.578125 
Q 40.484375 46.53125 36.375 47.5 
Q 32.28125 48.484375 27.875 48.484375 
Q 21.1875 48.484375 17.84375 46.4375 
Q 14.5 44.390625 14.5 40.28125 
Q 14.5 37.15625 16.890625 35.375 
Q 19.28125 33.59375 26.515625 31.984375 
L 29.59375 31.296875 
Q 39.15625 29.25 43.1875 25.515625 
Q 47.21875 21.78125 47.21875 15.09375 
Q 47.21875 7.46875 41.1875 3.015625 
Q 35.15625 -1.421875 24.609375 -1.421875 
Q 20.21875 -1.421875 15.453125 -0.5625 
Q 10.6875 0.296875 5.421875 2 
L 5.421875 11.28125 
Q 10.40625 8.6875 15.234375 7.390625 
Q 20.0625 6.109375 24.8125 6.109375 
Q 31.15625 6.109375 34.5625 8.28125 
Q 37.984375 10.453125 37.984375 14.40625 
Q 37.984375 18.0625 35.515625 20.015625 
Q 33.0625 21.96875 24.703125 23.78125 
L 21.578125 24.515625 
Q 13.234375 26.265625 9.515625 29.90625 
Q 5.8125 33.546875 5.8125 39.890625 
Q 5.8125 47.609375 11.28125 51.796875 
Q 16.75 56 26.8125 56 
Q 31.78125 56 36.171875 55.265625 
Q 40.578125 54.546875 44.28125 53.078125 
z
" id="DejaVuSans-115"/>
    <path d="M 10.6875 12.40625 
L 21 12.40625 
L 21 0 
L 10.6875 0 
z
" id="DejaVuSans-46"/>
    <path id="DejaVuSans-32"/>
    <path d="M 2.984375 54.6875 
L 12.5 54.6875 
L 29.59375 8.796875 
L 46.6875 54.6875 
L 56.203125 54.6875 
L 35.6875 0 
L 23.484375 0 
z
" id="DejaVuSans-118"/>
    <path d="M 41.109375 46.296875 
Q 39.59375 47.171875 37.8125 47.578125 
Q 36.03125 48 33.890625 48 
Q 26.265625 48 22.1875 43.046875 
Q 18.109375 38.09375 18.109375 28.8125 
L 18.109375 0 
L 9.078125 0 
L 9.078125 54.6875 
L 18.109375 54.6875 
L 18.109375 46.1875 
Q 20.953125 51.171875 25.484375 53.578125 
Q 30.03125 56 36.53125 56 
Q 37.453125 56 38.578125 55.875 
Q 39.703125 55.765625 41.0625 55.515625 
z
" id="DejaVuSans-114"/>
    <path d="M 18.3125 70.21875 
L 18.3125 54.6875 
L 36.8125 54.6875 
L 36.8125 47.703125 
L 18.3125 47.703125 
L 18.3125 18.015625 
Q 18.3125 11.328125 20.140625 9.421875 
Q 21.96875 7.515625 27.59375 7.515625 
L 36.8125 7.515625 
L 36.8125 0 
L 27.59375 0 
Q 17.1875 0 13.234375 3.875 
Q 9.28125 7.765625 9.28125 18.015625 
L 9.28125 47.703125 
L 2.6875 47.703125 
L 2.6875 54.6875 
L 9.28125 54.6875 
L 9.28125 70.21875 
z
" id="DejaVuSans-116"/>
   </defs>
   <g transform="translate(134.789062 16.030125)scale(0.12 -0.12)">
    <use xlink:href="#DejaVuSans-108"/>
    <use x="27.783203" xlink:href="#DejaVuSans-111"/>
    <use x="88.964844" xlink:href="#DejaVuSans-103"/>
    <use x="152.441406" xlink:href="#DejaVuSans-95"/>
    <use x="202.441406" xlink:href="#DejaVuSans-108"/>
    <use x="230.224609" xlink:href="#DejaVuSans-111"/>
    <use x="291.40625" xlink:href="#DejaVuSans-115"/>
    <use x="343.505859" xlink:href="#DejaVuSans-115"/>
    <use x="395.605469" xlink:href="#DejaVuSans-46"/>
    <use x="427.392578" xlink:href="#DejaVuSans-109"/>
    <use x="524.804688" xlink:href="#DejaVuSans-101"/>
    <use x="586.328125" xlink:href="#DejaVuSans-97"/>
    <use x="647.607422" xlink:href="#DejaVuSans-110"/>
    <use x="710.986328" xlink:href="#DejaVuSans-32"/>
    <use x="742.773438" xlink:href="#DejaVuSans-111"/>
    <use x="803.955078" xlink:href="#DejaVuSans-118"/>
    <use x="863.134766" xlink:href="#DejaVuSans-101"/>
    <use x="924.658203" xlink:href="#DejaVuSans-114"/>
    <use x="965.771484" xlink:href="#DejaVuSans-32"/>
    <use x="997.558594" xlink:href="#DejaVuSans-103"/>
    <use x="1061.035156" xlink:href="#DejaVuSans-101"/>
    <use x="1122.558594" xlink:href="#DejaVuSans-110"/>
    <use x="1185.9375" xlink:href="#DejaVuSans-101"/>
    <use x="1247.460938" xlink:href="#DejaVuSans-114"/>
    <use x="1288.574219" xlink:href="#DejaVuSans-97"/>
    <use x="1349.853516" xlink:href="#DejaVuSans-116"/>
    <use x="1389.0625" xlink:href="#DejaVuSans-105"/>
    <use x="1416.845703" xlink:href="#DejaVuSans-111"/>
    <use x="1478.027344" xlink:href="#DejaVuSans-110"/>
    <use x="1541.40625" xlink:href="#DejaVuSans-115"/>
   </g>
  </g>
 </g>
 <defs>
  <clipPath id="pf3c74a3030">
   <rect height="266.112" width="357.12" x="57.6" y="41.472"/>
  </clipPath>
 </defs>
</svg>
