<?xml version="1.0" encoding="utf-8" standalone="no"?>
<!DOCTYPE svg PUBLIC "-//W3C//DTD SVG 1.1//EN"
  "http://www.w3.org/Graphics/SVG/1.1/DTD/svg11.dtd">
<!-- Created with matplotlib (https://matplotlib.org/) -->
<svg height="345.6pt" version="1.1" viewBox="0 0 460.8 345.6" width="460.8pt" xmlns="http://www.w3.org/2000/svg" xmlns:xlink="http://www.w3.org/1999/xlink">
 <defs>
  <style type="text/css">
*{stroke-linecap:butt;stroke-linejoin:round;}
  </style>
 </defs>
 <g id="figure_1">
  <g id="patch_1">
   <path d="M 0 345.6 
L 460.8 345.6 
L 460.8 0 
L 0 0 
z
" style="fill:#ffffff;"/>
  </g>
  <g id="axes_1">
   <g id="patch_2">
    <path d="M 57.6 307.584 
L 414.72 307.584 
L 414.72 41.472 
L 57.6 41.472 
z
" style="fill:#ffffff;"/>
   </g>
   <g id="PolyCollection_1">
    <path clip-path="url(#p4d630ffa2a)" d="M 73.832727 236.669584 
L 73.832727 253.826858 
L 75.87458 241.323755 
L 77.916432 239.579056 
L 79.958285 228.920301 
L 82.000137 225.002867 
L 84.04199 231.335533 
L 86.083842 234.813498 
L 88.125695 227.93178 
L 90.167547 229.044682 
L 92.2094 220.781541 
L 94.251252 228.678749 
L 96.293105 216.391435 
L 98.334957 218.367269 
L 100.37681 217.712151 
L 102.418662 221.171371 
L 104.460515 220.956399 
L 106.502367 216.624257 
L 108.54422 221.694612 
L 110.586072 217.300839 
L 112.627925 215.195683 
L 114.669777 217.130474 
L 116.71163 217.662382 
L 118.753482 212.93943 
L 120.795334 206.906022 
L 122.837187 217.392221 
L 124.879039 211.103115 
L 126.920892 215.075517 
L 128.962744 219.604278 
L 131.004597 214.599488 
L 133.046449 218.672124 
L 135.088302 220.659491 
L 137.130154 220.447862 
L 139.172007 222.511595 
L 141.213859 216.320376 
L 143.255712 219.309916 
L 145.297564 211.979209 
L 147.339417 221.575854 
L 149.381269 222.746967 
L 151.423122 221.044843 
L 153.464974 222.593746 
L 155.506827 219.567111 
L 157.548679 221.25663 
L 159.590532 219.152528 
L 161.632384 221.784352 
L 163.674237 222.644664 
L 165.716089 219.423842 
L 167.757942 221.585975 
L 169.799794 220.411659 
L 171.841647 219.993922 
L 173.883499 212.416813 
L 175.925352 219.693955 
L 177.967204 219.561538 
L 180.009057 214.860432 
L 182.050909 218.776603 
L 184.092762 216.735227 
L 186.134614 218.682046 
L 188.176467 218.513727 
L 190.218319 215.251427 
L 192.260172 218.08714 
L 194.302024 217.832837 
L 196.343877 214.398678 
L 198.385729 217.372229 
L 200.427581 219.905838 
L 202.469434 206.95675 
L 204.511286 208.011303 
L 206.553139 204.94671 
L 208.594991 213.825188 
L 210.636844 211.800751 
L 212.678696 209.787996 
L 214.720549 207.293343 
L 216.762401 206.577125 
L 218.804254 204.702334 
L 220.846106 204.361452 
L 222.887959 205.95203 
L 224.929811 205.201355 
L 226.971664 203.736469 
L 229.013516 204.156862 
L 231.055369 205.671344 
L 233.097221 204.040004 
L 235.139074 207.208071 
L 237.180926 205.596544 
L 239.222779 204.243313 
L 241.264631 206.467269 
L 243.306484 204.205472 
L 245.348336 200.636049 
L 247.390189 204.227241 
L 249.432041 207.359828 
L 251.473894 200.739138 
L 253.515746 201.12751 
L 255.557599 202.620075 
L 257.599451 205.225444 
L 259.641304 206.497084 
L 261.683156 205.407682 
L 263.725009 204.168152 
L 265.766861 202.812786 
L 267.808714 200.667513 
L 269.850566 201.188171 
L 271.892419 202.035173 
L 273.934271 203.022322 
L 275.976123 203.264446 
L 278.017976 199.012037 
L 280.059828 200.400872 
L 282.101681 205.480647 
L 284.143533 205.07898 
L 286.185386 203.550764 
L 288.227238 182.673452 
L 290.269091 188.358725 
L 292.310943 198.979033 
L 294.352796 198.366105 
L 296.394648 198.211168 
L 298.436501 200.864051 
L 300.478353 194.965651 
L 302.520206 197.589697 
L 304.562058 193.081057 
L 306.603911 201.143672 
L 308.645763 199.255418 
L 310.687616 200.126971 
L 312.729468 199.67934 
L 314.771321 196.530058 
L 316.813173 198.107421 
L 318.855026 212.540135 
L 320.896878 213.969675 
L 322.938731 196.831874 
L 324.980583 197.304175 
L 327.022436 195.300712 
L 329.064288 197.586784 
L 331.106141 196.834071 
L 333.147993 198.812541 
L 335.189846 198.868604 
L 337.231698 197.321906 
L 339.273551 197.643967 
L 341.315403 194.803146 
L 343.357256 204.024678 
L 345.399108 196.702557 
L 347.440961 199.858764 
L 349.482813 205.067064 
L 351.524666 206.304865 
L 353.566518 202.507097 
L 355.60837 200.243813 
L 357.650223 201.402442 
L 359.692075 196.592618 
L 361.733928 204.517537 
L 363.77578 198.969478 
L 365.817633 201.486799 
L 367.859485 207.131597 
L 369.901338 193.343425 
L 371.94319 200.145741 
L 373.985043 196.131774 
L 376.026895 195.767568 
L 378.068748 195.847483 
L 380.1106 197.135018 
L 382.152453 195.661296 
L 384.194305 198.622765 
L 386.236158 190.160583 
L 388.27801 204.745947 
L 390.319863 196.862556 
L 392.361715 202.177668 
L 394.403568 192.70049 
L 396.44542 191.874124 
L 398.487273 189.632055 
L 398.487273 95.902625 
L 398.487273 95.902625 
L 396.44542 63.343149 
L 394.403568 68.576581 
L 392.361715 78.278181 
L 390.319863 70.656143 
L 388.27801 164.761701 
L 386.236158 72.131295 
L 384.194305 74.218343 
L 382.152453 162.904862 
L 380.1106 70.551989 
L 378.068748 73.383017 
L 376.026895 75.528836 
L 373.985043 84.214452 
L 371.94319 147.184886 
L 369.901338 80.302 
L 367.859485 151.439589 
L 365.817633 148.480959 
L 363.77578 75.667569 
L 361.733928 73.443302 
L 359.692075 79.751841 
L 357.650223 83.277649 
L 355.60837 177.220708 
L 353.566518 177.46477 
L 351.524666 62.235241 
L 349.482813 148.148604 
L 347.440961 95.932774 
L 345.399108 82.716892 
L 343.357256 148.735899 
L 341.315403 93.958442 
L 339.273551 154.911162 
L 337.231698 154.997048 
L 335.189846 140.623498 
L 333.147993 88.132611 
L 331.106141 142.050641 
L 329.064288 149.935072 
L 327.022436 95.728061 
L 324.980583 149.202967 
L 322.938731 161.19089 
L 320.896878 163.45252 
L 318.855026 171.959203 
L 316.813173 151.446658 
L 314.771321 145.731418 
L 312.729468 145.908731 
L 310.687616 139.632844 
L 308.645763 150.240585 
L 306.603911 142.668705 
L 304.562058 91.463579 
L 302.520206 144.810568 
L 300.478353 145.346226 
L 298.436501 145.581251 
L 296.394648 102.208896 
L 294.352796 142.522775 
L 292.310943 149.774372 
L 290.269091 97.111653 
L 288.227238 99.594958 
L 286.185386 149.872894 
L 284.143533 138.467078 
L 282.101681 146.693582 
L 280.059828 144.179072 
L 278.017976 145.276093 
L 275.976123 147.607797 
L 273.934271 156.037079 
L 271.892419 149.621794 
L 269.850566 148.282916 
L 267.808714 115.187943 
L 265.766861 146.333798 
L 263.725009 149.551718 
L 261.683156 166.48911 
L 259.641304 125.21096 
L 257.599451 164.290799 
L 255.557599 168.831482 
L 253.515746 138.849227 
L 251.473894 180.344577 
L 249.432041 188.052469 
L 247.390189 129.357841 
L 245.348336 155.85496 
L 243.306484 166.496424 
L 241.264631 186.166642 
L 239.222779 170.924283 
L 237.180926 136.00978 
L 235.139074 146.518746 
L 233.097221 133.660535 
L 231.055369 143.661125 
L 229.013516 188.495644 
L 226.971664 152.859983 
L 224.929811 197.514714 
L 222.887959 155.353674 
L 220.846106 156.13549 
L 218.804254 154.591204 
L 216.762401 163.755174 
L 214.720549 175.711655 
L 212.678696 174.534541 
L 210.636844 170.920385 
L 208.594991 168.691136 
L 206.553139 151.46789 
L 204.511286 153.617399 
L 202.469434 144.863772 
L 200.427581 203.732871 
L 198.385729 179.104332 
L 196.343877 183.270667 
L 194.302024 152.554079 
L 192.260172 175.656341 
L 190.218319 178.622778 
L 188.176467 153.039637 
L 186.134614 195.962159 
L 184.092762 197.31356 
L 182.050909 196.906313 
L 180.009057 183.964765 
L 177.967204 167.451107 
L 175.925352 187.809125 
L 173.883499 181.077806 
L 171.841647 193.781239 
L 169.799794 196.520157 
L 167.757942 195.047128 
L 165.716089 194.363347 
L 163.674237 195.164411 
L 161.632384 136.695998 
L 159.590532 137.453482 
L 157.548679 197.98662 
L 155.506827 194.372799 
L 153.464974 193.036391 
L 151.423122 199.384101 
L 149.381269 197.604298 
L 147.339417 197.718704 
L 145.297564 175.331395 
L 143.255712 197.089506 
L 141.213859 174.263258 
L 139.172007 196.698112 
L 137.130154 172.388157 
L 135.088302 167.769815 
L 133.046449 196.044814 
L 131.004597 175.914932 
L 128.962744 176.088007 
L 126.920892 172.124072 
L 124.879039 173.953042 
L 122.837187 171.062713 
L 120.795334 172.638781 
L 118.753482 160.723627 
L 116.71163 192.573652 
L 114.669777 194.032213 
L 112.627925 176.061559 
L 110.586072 190.244641 
L 108.54422 196.767387 
L 106.502367 193.118571 
L 104.460515 175.80022 
L 102.418662 175.493267 
L 100.37681 196.806516 
L 98.334957 186.571265 
L 96.293105 180.879054 
L 94.251252 210.154924 
L 92.2094 204.120763 
L 90.167547 207.472936 
L 88.125695 211.490958 
L 86.083842 213.976804 
L 84.04199 217.200879 
L 82.000137 215.319693 
L 79.958285 218.203103 
L 77.916432 222.321382 
L 75.87458 228.578995 
L 73.832727 236.669584 
z
" style="fill:#1f77b4;fill-opacity:0.2;"/>
   </g>
   <g id="PolyCollection_2">
    <path clip-path="url(#p4d630ffa2a)" d="M 73.832727 198.865291 
L 73.832727 277.781538 
L 75.87458 258.669545 
L 77.916432 261.254312 
L 79.958285 251.516826 
L 82.000137 253.085845 
L 84.04199 261.88793 
L 86.083842 254.079527 
L 88.125695 256.623674 
L 90.167547 261.636434 
L 92.2094 252.243884 
L 94.251252 253.492655 
L 96.293105 262.271297 
L 98.334957 252.874353 
L 100.37681 252.147389 
L 102.418662 258.079742 
L 104.460515 256.503858 
L 106.502367 260.877413 
L 108.54422 260.090813 
L 110.586072 255.693087 
L 112.627925 250.596413 
L 114.669777 261.483271 
L 116.71163 255.212749 
L 118.753482 248.580454 
L 120.795334 257.619797 
L 122.837187 257.895281 
L 124.879039 237.651286 
L 126.920892 261.719863 
L 128.962744 260.819478 
L 131.004597 253.382563 
L 133.046449 260.356301 
L 135.088302 254.058414 
L 137.130154 260.190738 
L 139.172007 255.51788 
L 141.213859 257.470423 
L 143.255712 265.29267 
L 145.297564 267.357975 
L 147.339417 283.435461 
L 149.381269 257.057744 
L 151.423122 264.325158 
L 153.464974 286.59479 
L 155.506827 281.752224 
L 157.548679 265.219905 
L 159.590532 279.013065 
L 161.632384 279.169866 
L 163.674237 264.896434 
L 165.716089 262.44915 
L 167.757942 282.052239 
L 169.799794 275.818729 
L 171.841647 257.170355 
L 173.883499 263.143839 
L 175.925352 252.268025 
L 177.967204 279.840367 
L 180.009057 280.431897 
L 182.050909 254.192286 
L 184.092762 261.798911 
L 186.134614 263.540032 
L 188.176467 260.038959 
L 190.218319 252.402039 
L 192.260172 248.335942 
L 194.302024 254.149869 
L 196.343877 263.05542 
L 198.385729 260.107426 
L 200.427581 273.083102 
L 202.469434 242.683065 
L 204.511286 260.098478 
L 206.553139 278.61395 
L 208.594991 253.197265 
L 210.636844 285.499565 
L 212.678696 250.658008 
L 214.720549 256.935712 
L 216.762401 257.05955 
L 218.804254 287.896829 
L 220.846106 290.950344 
L 222.887959 268.270891 
L 224.929811 256.243047 
L 226.971664 265.542825 
L 229.013516 268.128979 
L 231.055369 266.364643 
L 233.097221 292.461878 
L 235.139074 262.644871 
L 237.180926 266.835398 
L 239.222779 248.324068 
L 241.264631 253.960985 
L 243.306484 249.775631 
L 245.348336 260.05998 
L 247.390189 252.567708 
L 249.432041 288.234911 
L 251.473894 283.965034 
L 253.515746 257.473156 
L 255.557599 261.363063 
L 257.599451 276.95422 
L 259.641304 278.122321 
L 261.683156 261.124408 
L 263.725009 262.340509 
L 265.766861 244.925018 
L 267.808714 273.352776 
L 269.850566 246.721385 
L 271.892419 234.220685 
L 273.934271 254.994639 
L 275.976123 269.994641 
L 278.017976 267.505128 
L 280.059828 274.08399 
L 282.101681 256.507134 
L 284.143533 261.860497 
L 286.185386 239.359852 
L 288.227238 267.357373 
L 290.269091 259.629084 
L 292.310943 271.897077 
L 294.352796 275.052354 
L 296.394648 251.006043 
L 298.436501 272.830807 
L 300.478353 258.15218 
L 302.520206 258.426454 
L 304.562058 246.179785 
L 306.603911 263.095769 
L 308.645763 257.086977 
L 310.687616 267.38946 
L 312.729468 259.305792 
L 314.771321 264.318548 
L 316.813173 261.789671 
L 318.855026 276.221059 
L 320.896878 260.838754 
L 322.938731 252.256884 
L 324.980583 279.492132 
L 327.022436 257.867985 
L 329.064288 257.410519 
L 331.106141 266.958036 
L 333.147993 270.712292 
L 335.189846 242.235224 
L 337.231698 276.504614 
L 339.273551 259.474761 
L 341.315403 259.997271 
L 343.357256 255.944817 
L 345.399108 258.741934 
L 347.440961 257.595397 
L 349.482813 261.198043 
L 351.524666 266.644704 
L 353.566518 250.127301 
L 355.60837 267.700485 
L 357.650223 247.547223 
L 359.692075 260.433363 
L 361.733928 255.931536 
L 363.77578 257.791471 
L 365.817633 259.581373 
L 367.859485 291.468859 
L 369.901338 256.074279 
L 371.94319 295.488 
L 373.985043 250.811351 
L 376.026895 221.48205 
L 378.068748 259.146099 
L 380.1106 287.825433 
L 382.152453 262.036954 
L 384.194305 289.00866 
L 386.236158 292.886154 
L 388.27801 281.223765 
L 390.319863 261.265805 
L 392.361715 281.672193 
L 394.403568 259.943901 
L 396.44542 286.432399 
L 398.487273 284.820239 
L 398.487273 60.553272 
L 398.487273 60.553272 
L 396.44542 57.706113 
L 394.403568 61.357903 
L 392.361715 63.403228 
L 390.319863 61.113867 
L 388.27801 64.609396 
L 386.236158 61.824323 
L 384.194305 64.793041 
L 382.152453 65.235763 
L 380.1106 62.536593 
L 378.068748 61.473637 
L 376.026895 64.890743 
L 373.985043 65.737654 
L 371.94319 63.883667 
L 369.901338 63.960753 
L 367.859485 68.42984 
L 365.817633 65.958619 
L 363.77578 67.933388 
L 361.733928 64.628871 
L 359.692075 67.913814 
L 357.650223 66.62252 
L 355.60837 65.011005 
L 353.566518 62.295288 
L 351.524666 53.568 
L 349.482813 67.759495 
L 347.440961 70.723517 
L 345.399108 73.398852 
L 343.357256 72.298117 
L 341.315403 69.548655 
L 339.273551 77.433883 
L 337.231698 85.666283 
L 335.189846 82.162762 
L 333.147993 82.746075 
L 331.106141 79.930026 
L 329.064288 85.504844 
L 327.022436 85.082804 
L 324.980583 85.220961 
L 322.938731 86.449455 
L 320.896878 85.439398 
L 318.855026 85.435176 
L 316.813173 84.062073 
L 314.771321 84.335779 
L 312.729468 82.705297 
L 310.687616 85.771827 
L 308.645763 89.610078 
L 306.603911 88.934796 
L 304.562058 84.896409 
L 302.520206 94.162558 
L 300.478353 92.330524 
L 298.436501 93.461668 
L 296.394648 88.095407 
L 294.352796 82.024957 
L 292.310943 89.743946 
L 290.269091 85.302398 
L 288.227238 91.490338 
L 286.185386 86.533426 
L 284.143533 91.757192 
L 282.101681 90.445299 
L 280.059828 86.323444 
L 278.017976 86.693941 
L 275.976123 90.834124 
L 273.934271 104.342462 
L 271.892419 110.291376 
L 269.850566 109.071529 
L 267.808714 97.980031 
L 265.766861 105.550693 
L 263.725009 113.114463 
L 261.683156 116.264312 
L 259.641304 115.890581 
L 257.599451 113.136715 
L 255.557599 116.948327 
L 253.515746 122.209391 
L 251.473894 121.141551 
L 249.432041 115.902419 
L 247.390189 110.436826 
L 245.348336 110.0841 
L 243.306484 124.602003 
L 241.264631 115.158663 
L 239.222779 121.911171 
L 237.180926 114.86269 
L 235.139074 127.190068 
L 233.097221 108.211513 
L 231.055369 127.339133 
L 229.013516 127.362804 
L 226.971664 127.589732 
L 224.929811 127.670248 
L 222.887959 106.480138 
L 220.846106 111.851539 
L 218.804254 127.947335 
L 216.762401 128.174617 
L 214.720549 128.12699 
L 212.678696 128.048497 
L 210.636844 112.207285 
L 208.594991 113.905069 
L 206.553139 128.221448 
L 204.511286 121.616342 
L 202.469434 122.512179 
L 200.427581 126.240708 
L 198.385729 128.480871 
L 196.343877 128.696231 
L 194.302024 125.306128 
L 192.260172 128.913601 
L 190.218319 129.188129 
L 188.176467 126.01129 
L 186.134614 129.055954 
L 184.092762 128.753046 
L 182.050909 123.351753 
L 180.009057 122.780248 
L 177.967204 126.609795 
L 175.925352 130.236764 
L 173.883499 129.966348 
L 171.841647 131.124902 
L 169.799794 132.114468 
L 167.757942 131.945081 
L 165.716089 127.236715 
L 163.674237 130.180536 
L 161.632384 129.268365 
L 159.590532 129.063054 
L 157.548679 124.925877 
L 155.506827 127.975234 
L 153.464974 148.144496 
L 151.423122 133.938298 
L 149.381269 151.274334 
L 147.339417 155.763058 
L 145.297564 160.757171 
L 143.255712 160.383056 
L 141.213859 160.520791 
L 139.172007 159.784478 
L 137.130154 158.596349 
L 135.088302 153.488272 
L 133.046449 157.6734 
L 131.004597 156.985674 
L 128.962744 156.533969 
L 126.920892 155.560415 
L 124.879039 156.494277 
L 122.837187 152.817457 
L 120.795334 150.725923 
L 118.753482 155.764122 
L 116.71163 161.926718 
L 114.669777 159.332719 
L 112.627925 162.115804 
L 110.586072 160.87616 
L 108.54422 160.85049 
L 106.502367 159.976608 
L 104.460515 164.577015 
L 102.418662 166.159685 
L 100.37681 165.414048 
L 98.334957 171.954122 
L 96.293105 171.601076 
L 94.251252 173.756169 
L 92.2094 178.304501 
L 90.167547 190.338433 
L 88.125695 188.469473 
L 86.083842 196.907408 
L 84.04199 183.18942 
L 82.000137 198.396769 
L 79.958285 206.227679 
L 77.916432 203.317636 
L 75.87458 215.144469 
L 73.832727 198.865291 
z
" style="fill:#1f77b4;fill-opacity:0.1;"/>
   </g>
   <g id="matplotlib.axis_1">
    <g id="xtick_1">
     <g id="line2d_1">
      <defs>
       <path d="M 0 0 
L 0 3.5 
" id="m4d57d67954" style="stroke:#000000;stroke-width:0.8;"/>
      </defs>
      <g>
       <use style="stroke:#000000;stroke-width:0.8;" x="73.832727" xlink:href="#m4d57d67954" y="307.584"/>
      </g>
     </g>
     <g id="text_1">
      <!-- 0 -->
      <defs>
       <path d="M 31.78125 66.40625 
Q 24.171875 66.40625 20.328125 58.90625 
Q 16.5 51.421875 16.5 36.375 
Q 16.5 21.390625 20.328125 13.890625 
Q 24.171875 6.390625 31.78125 6.390625 
Q 39.453125 6.390625 43.28125 13.890625 
Q 47.125 21.390625 47.125 36.375 
Q 47.125 51.421875 43.28125 58.90625 
Q 39.453125 66.40625 31.78125 66.40625 
z
M 31.78125 74.21875 
Q 44.046875 74.21875 50.515625 64.515625 
Q 56.984375 54.828125 56.984375 36.375 
Q 56.984375 17.96875 50.515625 8.265625 
Q 44.046875 -1.421875 31.78125 -1.421875 
Q 19.53125 -1.421875 13.0625 8.265625 
Q 6.59375 17.96875 6.59375 36.375 
Q 6.59375 54.828125 13.0625 64.515625 
Q 19.53125 74.21875 31.78125 74.21875 
z
" id="DejaVuSans-48"/>
      </defs>
      <g transform="translate(70.651477 322.182437)scale(0.1 -0.1)">
       <use xlink:href="#DejaVuSans-48"/>
      </g>
     </g>
    </g>
    <g id="xtick_2">
     <g id="line2d_2">
      <g>
       <use style="stroke:#000000;stroke-width:0.8;" x="114.669777" xlink:href="#m4d57d67954" y="307.584"/>
      </g>
     </g>
     <g id="text_2">
      <!-- 20 -->
      <defs>
       <path d="M 19.1875 8.296875 
L 53.609375 8.296875 
L 53.609375 0 
L 7.328125 0 
L 7.328125 8.296875 
Q 12.9375 14.109375 22.625 23.890625 
Q 32.328125 33.6875 34.8125 36.53125 
Q 39.546875 41.84375 41.421875 45.53125 
Q 43.3125 49.21875 43.3125 52.78125 
Q 43.3125 58.59375 39.234375 62.25 
Q 35.15625 65.921875 28.609375 65.921875 
Q 23.96875 65.921875 18.8125 64.3125 
Q 13.671875 62.703125 7.8125 59.421875 
L 7.8125 69.390625 
Q 13.765625 71.78125 18.9375 73 
Q 24.125 74.21875 28.421875 74.21875 
Q 39.75 74.21875 46.484375 68.546875 
Q 53.21875 62.890625 53.21875 53.421875 
Q 53.21875 48.921875 51.53125 44.890625 
Q 49.859375 40.875 45.40625 35.40625 
Q 44.1875 33.984375 37.640625 27.21875 
Q 31.109375 20.453125 19.1875 8.296875 
z
" id="DejaVuSans-50"/>
      </defs>
      <g transform="translate(108.307277 322.182437)scale(0.1 -0.1)">
       <use xlink:href="#DejaVuSans-50"/>
       <use x="63.623047" xlink:href="#DejaVuSans-48"/>
      </g>
     </g>
    </g>
    <g id="xtick_3">
     <g id="line2d_3">
      <g>
       <use style="stroke:#000000;stroke-width:0.8;" x="155.506827" xlink:href="#m4d57d67954" y="307.584"/>
      </g>
     </g>
     <g id="text_3">
      <!-- 40 -->
      <defs>
       <path d="M 37.796875 64.3125 
L 12.890625 25.390625 
L 37.796875 25.390625 
z
M 35.203125 72.90625 
L 47.609375 72.90625 
L 47.609375 25.390625 
L 58.015625 25.390625 
L 58.015625 17.1875 
L 47.609375 17.1875 
L 47.609375 0 
L 37.796875 0 
L 37.796875 17.1875 
L 4.890625 17.1875 
L 4.890625 26.703125 
z
" id="DejaVuSans-52"/>
      </defs>
      <g transform="translate(149.144327 322.182437)scale(0.1 -0.1)">
       <use xlink:href="#DejaVuSans-52"/>
       <use x="63.623047" xlink:href="#DejaVuSans-48"/>
      </g>
     </g>
    </g>
    <g id="xtick_4">
     <g id="line2d_4">
      <g>
       <use style="stroke:#000000;stroke-width:0.8;" x="196.343877" xlink:href="#m4d57d67954" y="307.584"/>
      </g>
     </g>
     <g id="text_4">
      <!-- 60 -->
      <defs>
       <path d="M 33.015625 40.375 
Q 26.375 40.375 22.484375 35.828125 
Q 18.609375 31.296875 18.609375 23.390625 
Q 18.609375 15.53125 22.484375 10.953125 
Q 26.375 6.390625 33.015625 6.390625 
Q 39.65625 6.390625 43.53125 10.953125 
Q 47.40625 15.53125 47.40625 23.390625 
Q 47.40625 31.296875 43.53125 35.828125 
Q 39.65625 40.375 33.015625 40.375 
z
M 52.59375 71.296875 
L 52.59375 62.3125 
Q 48.875 64.0625 45.09375 64.984375 
Q 41.3125 65.921875 37.59375 65.921875 
Q 27.828125 65.921875 22.671875 59.328125 
Q 17.53125 52.734375 16.796875 39.40625 
Q 19.671875 43.65625 24.015625 45.921875 
Q 28.375 48.1875 33.59375 48.1875 
Q 44.578125 48.1875 50.953125 41.515625 
Q 57.328125 34.859375 57.328125 23.390625 
Q 57.328125 12.15625 50.6875 5.359375 
Q 44.046875 -1.421875 33.015625 -1.421875 
Q 20.359375 -1.421875 13.671875 8.265625 
Q 6.984375 17.96875 6.984375 36.375 
Q 6.984375 53.65625 15.1875 63.9375 
Q 23.390625 74.21875 37.203125 74.21875 
Q 40.921875 74.21875 44.703125 73.484375 
Q 48.484375 72.75 52.59375 71.296875 
z
" id="DejaVuSans-54"/>
      </defs>
      <g transform="translate(189.981377 322.182437)scale(0.1 -0.1)">
       <use xlink:href="#DejaVuSans-54"/>
       <use x="63.623047" xlink:href="#DejaVuSans-48"/>
      </g>
     </g>
    </g>
    <g id="xtick_5">
     <g id="line2d_5">
      <g>
       <use style="stroke:#000000;stroke-width:0.8;" x="237.180926" xlink:href="#m4d57d67954" y="307.584"/>
      </g>
     </g>
     <g id="text_5">
      <!-- 80 -->
      <defs>
       <path d="M 31.78125 34.625 
Q 24.75 34.625 20.71875 30.859375 
Q 16.703125 27.09375 16.703125 20.515625 
Q 16.703125 13.921875 20.71875 10.15625 
Q 24.75 6.390625 31.78125 6.390625 
Q 38.8125 6.390625 42.859375 10.171875 
Q 46.921875 13.96875 46.921875 20.515625 
Q 46.921875 27.09375 42.890625 30.859375 
Q 38.875 34.625 31.78125 34.625 
z
M 21.921875 38.8125 
Q 15.578125 40.375 12.03125 44.71875 
Q 8.5 49.078125 8.5 55.328125 
Q 8.5 64.0625 14.71875 69.140625 
Q 20.953125 74.21875 31.78125 74.21875 
Q 42.671875 74.21875 48.875 69.140625 
Q 55.078125 64.0625 55.078125 55.328125 
Q 55.078125 49.078125 51.53125 44.71875 
Q 48 40.375 41.703125 38.8125 
Q 48.828125 37.15625 52.796875 32.3125 
Q 56.78125 27.484375 56.78125 20.515625 
Q 56.78125 9.90625 50.3125 4.234375 
Q 43.84375 -1.421875 31.78125 -1.421875 
Q 19.734375 -1.421875 13.25 4.234375 
Q 6.78125 9.90625 6.78125 20.515625 
Q 6.78125 27.484375 10.78125 32.3125 
Q 14.796875 37.15625 21.921875 38.8125 
z
M 18.3125 54.390625 
Q 18.3125 48.734375 21.84375 45.5625 
Q 25.390625 42.390625 31.78125 42.390625 
Q 38.140625 42.390625 41.71875 45.5625 
Q 45.3125 48.734375 45.3125 54.390625 
Q 45.3125 60.0625 41.71875 63.234375 
Q 38.140625 66.40625 31.78125 66.40625 
Q 25.390625 66.40625 21.84375 63.234375 
Q 18.3125 60.0625 18.3125 54.390625 
z
" id="DejaVuSans-56"/>
      </defs>
      <g transform="translate(230.818426 322.182437)scale(0.1 -0.1)">
       <use xlink:href="#DejaVuSans-56"/>
       <use x="63.623047" xlink:href="#DejaVuSans-48"/>
      </g>
     </g>
    </g>
    <g id="xtick_6">
     <g id="line2d_6">
      <g>
       <use style="stroke:#000000;stroke-width:0.8;" x="278.017976" xlink:href="#m4d57d67954" y="307.584"/>
      </g>
     </g>
     <g id="text_6">
      <!-- 100 -->
      <defs>
       <path d="M 12.40625 8.296875 
L 28.515625 8.296875 
L 28.515625 63.921875 
L 10.984375 60.40625 
L 10.984375 69.390625 
L 28.421875 72.90625 
L 38.28125 72.90625 
L 38.28125 8.296875 
L 54.390625 8.296875 
L 54.390625 0 
L 12.40625 0 
z
" id="DejaVuSans-49"/>
      </defs>
      <g transform="translate(268.474226 322.182437)scale(0.1 -0.1)">
       <use xlink:href="#DejaVuSans-49"/>
       <use x="63.623047" xlink:href="#DejaVuSans-48"/>
       <use x="127.246094" xlink:href="#DejaVuSans-48"/>
      </g>
     </g>
    </g>
    <g id="xtick_7">
     <g id="line2d_7">
      <g>
       <use style="stroke:#000000;stroke-width:0.8;" x="318.855026" xlink:href="#m4d57d67954" y="307.584"/>
      </g>
     </g>
     <g id="text_7">
      <!-- 120 -->
      <g transform="translate(309.311276 322.182437)scale(0.1 -0.1)">
       <use xlink:href="#DejaVuSans-49"/>
       <use x="63.623047" xlink:href="#DejaVuSans-50"/>
       <use x="127.246094" xlink:href="#DejaVuSans-48"/>
      </g>
     </g>
    </g>
    <g id="xtick_8">
     <g id="line2d_8">
      <g>
       <use style="stroke:#000000;stroke-width:0.8;" x="359.692075" xlink:href="#m4d57d67954" y="307.584"/>
      </g>
     </g>
     <g id="text_8">
      <!-- 140 -->
      <g transform="translate(350.148325 322.182437)scale(0.1 -0.1)">
       <use xlink:href="#DejaVuSans-49"/>
       <use x="63.623047" xlink:href="#DejaVuSans-52"/>
       <use x="127.246094" xlink:href="#DejaVuSans-48"/>
      </g>
     </g>
    </g>
    <g id="xtick_9">
     <g id="line2d_9">
      <g>
       <use style="stroke:#000000;stroke-width:0.8;" x="400.529125" xlink:href="#m4d57d67954" y="307.584"/>
      </g>
     </g>
     <g id="text_9">
      <!-- 160 -->
      <g transform="translate(390.985375 322.182437)scale(0.1 -0.1)">
       <use xlink:href="#DejaVuSans-49"/>
       <use x="63.623047" xlink:href="#DejaVuSans-54"/>
       <use x="127.246094" xlink:href="#DejaVuSans-48"/>
      </g>
     </g>
    </g>
   </g>
   <g id="matplotlib.axis_2">
    <g id="ytick_1">
     <g id="line2d_10">
      <defs>
       <path d="M 0 0 
L -3.5 0 
" id="mbfa221f640" style="stroke:#000000;stroke-width:0.8;"/>
      </defs>
      <g>
       <use style="stroke:#000000;stroke-width:0.8;" x="57.6" xlink:href="#mbfa221f640" y="296.922154"/>
      </g>
     </g>
     <g id="text_10">
      <!-- −0.1 -->
      <defs>
       <path d="M 10.59375 35.5 
L 73.1875 35.5 
L 73.1875 27.203125 
L 10.59375 27.203125 
z
" id="DejaVuSans-8722"/>
       <path d="M 10.6875 12.40625 
L 21 12.40625 
L 21 0 
L 10.6875 0 
z
" id="DejaVuSans-46"/>
      </defs>
      <g transform="translate(26.317187 300.721373)scale(0.1 -0.1)">
       <use xlink:href="#DejaVuSans-8722"/>
       <use x="83.789062" xlink:href="#DejaVuSans-48"/>
       <use x="147.412109" xlink:href="#DejaVuSans-46"/>
       <use x="179.199219" xlink:href="#DejaVuSans-49"/>
      </g>
     </g>
    </g>
    <g id="ytick_2">
     <g id="line2d_11">
      <g>
       <use style="stroke:#000000;stroke-width:0.8;" x="57.6" xlink:href="#mbfa221f640" y="244.56256"/>
      </g>
     </g>
     <g id="text_11">
      <!-- 0.0 -->
      <g transform="translate(34.696875 248.361779)scale(0.1 -0.1)">
       <use xlink:href="#DejaVuSans-48"/>
       <use x="63.623047" xlink:href="#DejaVuSans-46"/>
       <use x="95.410156" xlink:href="#DejaVuSans-48"/>
      </g>
     </g>
    </g>
    <g id="ytick_3">
     <g id="line2d_12">
      <g>
       <use style="stroke:#000000;stroke-width:0.8;" x="57.6" xlink:href="#mbfa221f640" y="192.202967"/>
      </g>
     </g>
     <g id="text_12">
      <!-- 0.1 -->
      <g transform="translate(34.696875 196.002185)scale(0.1 -0.1)">
       <use xlink:href="#DejaVuSans-48"/>
       <use x="63.623047" xlink:href="#DejaVuSans-46"/>
       <use x="95.410156" xlink:href="#DejaVuSans-49"/>
      </g>
     </g>
    </g>
    <g id="ytick_4">
     <g id="line2d_13">
      <g>
       <use style="stroke:#000000;stroke-width:0.8;" x="57.6" xlink:href="#mbfa221f640" y="139.843373"/>
      </g>
     </g>
     <g id="text_13">
      <!-- 0.2 -->
      <g transform="translate(34.696875 143.642592)scale(0.1 -0.1)">
       <use xlink:href="#DejaVuSans-48"/>
       <use x="63.623047" xlink:href="#DejaVuSans-46"/>
       <use x="95.410156" xlink:href="#DejaVuSans-50"/>
      </g>
     </g>
    </g>
    <g id="ytick_5">
     <g id="line2d_14">
      <g>
       <use style="stroke:#000000;stroke-width:0.8;" x="57.6" xlink:href="#mbfa221f640" y="87.48378"/>
      </g>
     </g>
     <g id="text_14">
      <!-- 0.3 -->
      <defs>
       <path d="M 40.578125 39.3125 
Q 47.65625 37.796875 51.625 33 
Q 55.609375 28.21875 55.609375 21.1875 
Q 55.609375 10.40625 48.1875 4.484375 
Q 40.765625 -1.421875 27.09375 -1.421875 
Q 22.515625 -1.421875 17.65625 -0.515625 
Q 12.796875 0.390625 7.625 2.203125 
L 7.625 11.71875 
Q 11.71875 9.328125 16.59375 8.109375 
Q 21.484375 6.890625 26.8125 6.890625 
Q 36.078125 6.890625 40.9375 10.546875 
Q 45.796875 14.203125 45.796875 21.1875 
Q 45.796875 27.640625 41.28125 31.265625 
Q 36.765625 34.90625 28.71875 34.90625 
L 20.21875 34.90625 
L 20.21875 43.015625 
L 29.109375 43.015625 
Q 36.375 43.015625 40.234375 45.921875 
Q 44.09375 48.828125 44.09375 54.296875 
Q 44.09375 59.90625 40.109375 62.90625 
Q 36.140625 65.921875 28.71875 65.921875 
Q 24.65625 65.921875 20.015625 65.03125 
Q 15.375 64.15625 9.8125 62.3125 
L 9.8125 71.09375 
Q 15.4375 72.65625 20.34375 73.4375 
Q 25.25 74.21875 29.59375 74.21875 
Q 40.828125 74.21875 47.359375 69.109375 
Q 53.90625 64.015625 53.90625 55.328125 
Q 53.90625 49.265625 50.4375 45.09375 
Q 46.96875 40.921875 40.578125 39.3125 
z
" id="DejaVuSans-51"/>
      </defs>
      <g transform="translate(34.696875 91.282998)scale(0.1 -0.1)">
       <use xlink:href="#DejaVuSans-48"/>
       <use x="63.623047" xlink:href="#DejaVuSans-46"/>
       <use x="95.410156" xlink:href="#DejaVuSans-51"/>
      </g>
     </g>
    </g>
   </g>
   <g id="line2d_15">
    <path clip-path="url(#p4d630ffa2a)" d="M 73.832727 245.750649 
L 75.87458 233.321796 
L 77.916432 234.902677 
L 79.958285 226.678136 
L 82.000137 221.792361 
L 84.04199 223.916763 
L 86.083842 220.700417 
L 88.125695 219.627157 
L 90.167547 217.517823 
L 92.2094 216.484135 
L 94.251252 217.195284 
L 96.293105 200.162643 
L 98.334957 199.822511 
L 100.37681 210.835949 
L 102.418662 199.694369 
L 104.460515 213.544 
L 106.502367 203.401743 
L 108.54422 219.003415 
L 110.586072 210.554934 
L 112.627925 202.989801 
L 114.669777 202.092654 
L 116.71163 205.7189 
L 118.753482 187.603654 
L 120.795334 193.326992 
L 122.837187 191.521 
L 124.879039 190.184057 
L 126.920892 193.057157 
L 128.962744 193.793471 
L 131.004597 191.367379 
L 133.046449 213.656308 
L 135.088302 213.91141 
L 137.130154 201.788789 
L 139.172007 217.066161 
L 141.213859 202.533 
L 143.255712 209.389325 
L 145.297564 190.154125 
L 147.339417 212.398085 
L 149.381269 214.506752 
L 151.423122 212.47161 
L 153.464974 212.796641 
L 155.506827 212.288714 
L 157.548679 214.710164 
L 159.590532 196.683215 
L 161.632384 216.612419 
L 163.674237 213.064435 
L 165.716089 208.818944 
L 167.757942 218.092949 
L 171.841647 201.738135 
L 173.883499 189.278264 
L 175.925352 205.64288 
L 180.009057 203.104759 
L 182.050909 204.290124 
L 184.092762 205.913921 
L 186.134614 201.881937 
L 188.176467 189.207221 
L 190.218319 203.177162 
L 192.260172 196.963625 
L 194.302024 195.920824 
L 196.343877 200.192119 
L 198.385729 205.588248 
L 200.427581 210.011671 
L 202.469434 174.769313 
L 204.511286 173.329626 
L 206.553139 181.683962 
L 208.594991 204.863399 
L 210.636844 208.620222 
L 212.678696 205.100595 
L 214.720549 202.28888 
L 216.762401 197.315056 
L 218.804254 200.372774 
L 220.846106 199.530306 
L 222.887959 199.847013 
L 224.929811 203.055939 
L 226.971664 196.711152 
L 229.013516 201.322927 
L 231.055369 190.534108 
L 233.097221 183.600651 
L 235.139074 186.791109 
L 237.180926 183.555333 
L 239.222779 191.277676 
L 241.264631 203.814104 
L 243.306484 199.019264 
L 245.348336 190.451055 
L 247.390189 190.254662 
L 249.432041 199.968049 
L 251.473894 196.670583 
L 253.515746 194.516385 
L 255.557599 190.773109 
L 257.599451 194.906107 
L 259.641304 163.887334 
L 261.683156 172.919976 
L 263.725009 157.784444 
L 265.766861 168.353731 
L 267.808714 150.516875 
L 269.850566 187.42136 
L 271.892419 181.035115 
L 273.934271 179.701911 
L 275.976123 170.284139 
L 278.017976 156.991943 
L 280.059828 163.828854 
L 282.101681 176.563424 
L 284.143533 180.119157 
L 286.185386 173.842161 
L 288.227238 143.450203 
L 290.269091 145.131447 
L 292.310943 175.606 
L 294.352796 158.73888 
L 296.394648 165.494226 
L 298.436501 173.944423 
L 300.478353 168.926968 
L 302.520206 177.711134 
L 304.562058 151.407879 
L 306.603911 163.959481 
L 308.645763 194.830567 
L 310.687616 189.158262 
L 312.729468 187.168749 
L 314.771321 189.82168 
L 316.813173 185.007971 
L 318.855026 196.275559 
L 320.896878 199.107946 
L 322.938731 177.443333 
L 324.980583 178.213508 
L 327.022436 152.191193 
L 329.064288 159.214262 
L 331.106141 167.884166 
L 333.147993 151.681604 
L 335.189846 158.699408 
L 339.273551 182.927817 
L 341.315403 157.606653 
L 343.357256 194.012995 
L 345.399108 158.936754 
L 347.440961 191.92835 
L 349.482813 189.950503 
L 351.524666 180.695895 
L 353.566518 192.850345 
L 355.60837 191.993859 
L 357.650223 182.730231 
L 359.692075 187.805572 
L 361.733928 169.880392 
L 363.77578 156.730594 
L 365.817633 193.318642 
L 367.859485 196.958785 
L 369.901338 170.097361 
L 371.94319 193.903957 
L 373.985043 152.599067 
L 376.026895 143.317415 
L 378.068748 156.057278 
L 380.1106 152.715933 
L 382.152453 186.756449 
L 384.194305 150.980576 
L 386.236158 153.407061 
L 388.27801 186.671093 
L 390.319863 175.94939 
L 392.361715 182.06935 
L 394.403568 178.481904 
L 396.44542 148.392785 
L 398.487273 167.442241 
L 398.487273 167.442241 
" style="fill:none;stroke:#1f77b4;stroke-linecap:square;stroke-width:0.25;"/>
   </g>
   <g id="line2d_16">
    <path clip-path="url(#p4d630ffa2a)" d="M 73.832727 245.06951 
L 75.87458 235.268416 
L 77.916432 231.16793 
L 79.958285 225.840375 
L 82.000137 221.367813 
L 84.04199 223.118137 
L 86.083842 224.030237 
L 88.125695 219.828101 
L 90.167547 218.62466 
L 92.2094 214.937258 
L 94.251252 214.773228 
L 96.293105 201.401976 
L 98.334957 203.697998 
L 100.37681 205.634326 
L 102.418662 202.149667 
L 104.460515 204.629541 
L 106.502367 202.042699 
L 108.54422 206.6578 
L 110.586072 203.744111 
L 112.627925 199.65435 
L 114.669777 200.528614 
L 116.71163 202.563706 
L 118.753482 188.460921 
L 120.795334 192.416317 
L 122.837187 192.566988 
L 124.879039 192.853448 
L 126.920892 193.707397 
L 128.962744 199.187096 
L 131.004597 196.754802 
L 133.046449 206.541006 
L 135.088302 199.612089 
L 137.130154 199.718577 
L 139.172007 208.036543 
L 141.213859 200.709253 
L 143.255712 206.244212 
L 145.297564 194.379353 
L 147.339417 207.597574 
L 149.381269 207.419979 
L 151.423122 204.651375 
L 153.464974 206.218396 
L 155.506827 202.3337 
L 157.548679 201.936198 
L 159.590532 188.306442 
L 161.632384 191.219814 
L 163.674237 200.333242 
L 165.716089 198.952459 
L 167.757942 206.368725 
L 169.799794 203.978162 
L 171.841647 200.028131 
L 173.883499 191.603576 
L 175.925352 198.266251 
L 177.967204 194.327943 
L 180.009057 195.551375 
L 182.050909 199.707707 
L 186.134614 198.044779 
L 188.176467 188.044388 
L 190.218319 195.043715 
L 192.260172 192.772075 
L 194.302024 189.41735 
L 198.385729 198.345726 
L 200.427581 202.656671 
L 202.469434 175.528105 
L 204.511286 180.116883 
L 206.553139 183.506674 
L 208.594991 191.239258 
L 210.636844 194.742805 
L 212.678696 192.305691 
L 214.720549 192.817914 
L 216.762401 186.1818 
L 218.804254 188.345035 
L 220.846106 187.745908 
L 222.887959 183.426145 
L 224.929811 194.007016 
L 226.971664 184.204047 
L 229.013516 191.173433 
L 231.055369 180.931617 
L 233.097221 175.374977 
L 235.139074 180.925255 
L 237.180926 176.675247 
L 239.222779 183.303674 
L 241.264631 187.651002 
L 243.306484 185.156066 
L 245.348336 179.112927 
L 247.390189 171.957255 
L 249.432041 187.924926 
L 251.473894 185.119858 
L 253.515746 177.606053 
L 255.557599 181.735182 
L 257.599451 178.478124 
L 259.641304 165.17781 
L 261.683156 176.533949 
L 263.725009 171.070708 
L 265.766861 171.685418 
L 267.808714 161.675434 
L 269.850566 172.619912 
L 271.892419 172.149675 
L 273.934271 176.234957 
L 278.017976 164.331131 
L 280.059828 164.459968 
L 282.101681 171.267535 
L 284.143533 170.232289 
L 286.185386 167.657656 
L 288.227238 144.84446 
L 290.269091 144.970946 
L 292.310943 169.633731 
L 294.352796 162.932163 
L 296.394648 160.6865 
L 298.436501 169.913873 
L 300.478353 164.691061 
L 302.520206 167.226134 
L 304.562058 144.058819 
L 306.603911 165.611636 
L 308.645763 169.571128 
L 310.687616 169.534723 
L 312.729468 168.707919 
L 314.771321 168.353472 
L 316.813173 170.196379 
L 318.855026 180.898999 
L 320.896878 179.622687 
L 322.938731 170.511393 
L 324.980583 168.199821 
L 327.022436 150.361349 
L 329.064288 162.329727 
L 331.106141 162.711364 
L 333.147993 150.863055 
L 335.189846 162.716947 
L 337.231698 167.50163 
L 339.273551 168.639717 
L 341.315403 149.452362 
L 343.357256 168.743419 
L 345.399108 147.836411 
L 347.440961 158.437361 
L 349.482813 167.903704 
L 351.524666 147.162687 
L 353.566518 173.229259 
L 355.60837 174.593027 
L 357.650223 155.44113 
L 359.692075 156.469513 
L 361.733928 151.31649 
L 363.77578 145.721854 
L 365.817633 169.528977 
L 367.859485 171.908291 
L 369.901338 149.31571 
L 371.94319 173.852785 
L 373.985043 150.115913 
L 376.026895 143.303578 
L 378.068748 145.944368 
L 380.1106 143.003853 
L 382.152453 168.697502 
L 384.194305 145.197597 
L 386.236158 140.924274 
L 388.27801 170.546682 
L 390.319863 144.86812 
L 392.361715 152.580441 
L 394.403568 144.581555 
L 396.44542 137.316235 
L 398.487273 151.449488 
L 398.487273 151.449488 
" style="fill:none;stroke:#2ca02c;stroke-linecap:square;stroke-width:0.75;"/>
   </g>
   <g id="patch_3">
    <path d="M 57.6 307.584 
L 57.6 41.472 
" style="fill:none;stroke:#000000;stroke-linecap:square;stroke-linejoin:miter;stroke-width:0.8;"/>
   </g>
   <g id="patch_4">
    <path d="M 414.72 307.584 
L 414.72 41.472 
" style="fill:none;stroke:#000000;stroke-linecap:square;stroke-linejoin:miter;stroke-width:0.8;"/>
   </g>
   <g id="patch_5">
    <path d="M 57.6 307.584 
L 414.72 307.584 
" style="fill:none;stroke:#000000;stroke-linecap:square;stroke-linejoin:miter;stroke-width:0.8;"/>
   </g>
   <g id="patch_6">
    <path d="M 57.6 41.472 
L 414.72 41.472 
" style="fill:none;stroke:#000000;stroke-linecap:square;stroke-linejoin:miter;stroke-width:0.8;"/>
   </g>
   <g id="legend_1">
    <g id="patch_7">
     <path d="M 338.234063 78.82825 
L 407.72 78.82825 
Q 409.72 78.82825 409.72 76.82825 
L 409.72 48.472 
Q 409.72 46.472 407.72 46.472 
L 338.234063 46.472 
Q 336.234063 46.472 336.234063 48.472 
L 336.234063 76.82825 
Q 336.234063 78.82825 338.234063 78.82825 
z
" style="fill:#ffffff;opacity:0.8;stroke:#cccccc;stroke-linejoin:miter;"/>
    </g>
    <g id="line2d_17">
     <path d="M 340.234063 54.570437 
L 360.234063 54.570437 
" style="fill:none;stroke:#1f77b4;stroke-linecap:square;stroke-width:0.25;"/>
    </g>
    <g id="line2d_18"/>
    <g id="text_15">
     <!-- median -->
     <defs>
      <path d="M 52 44.1875 
Q 55.375 50.25 60.0625 53.125 
Q 64.75 56 71.09375 56 
Q 79.640625 56 84.28125 50.015625 
Q 88.921875 44.046875 88.921875 33.015625 
L 88.921875 0 
L 79.890625 0 
L 79.890625 32.71875 
Q 79.890625 40.578125 77.09375 44.375 
Q 74.3125 48.1875 68.609375 48.1875 
Q 61.625 48.1875 57.5625 43.546875 
Q 53.515625 38.921875 53.515625 30.90625 
L 53.515625 0 
L 44.484375 0 
L 44.484375 32.71875 
Q 44.484375 40.625 41.703125 44.40625 
Q 38.921875 48.1875 33.109375 48.1875 
Q 26.21875 48.1875 22.15625 43.53125 
Q 18.109375 38.875 18.109375 30.90625 
L 18.109375 0 
L 9.078125 0 
L 9.078125 54.6875 
L 18.109375 54.6875 
L 18.109375 46.1875 
Q 21.1875 51.21875 25.484375 53.609375 
Q 29.78125 56 35.6875 56 
Q 41.65625 56 45.828125 52.96875 
Q 50 49.953125 52 44.1875 
z
" id="DejaVuSans-109"/>
      <path d="M 56.203125 29.59375 
L 56.203125 25.203125 
L 14.890625 25.203125 
Q 15.484375 15.921875 20.484375 11.0625 
Q 25.484375 6.203125 34.421875 6.203125 
Q 39.59375 6.203125 44.453125 7.46875 
Q 49.3125 8.734375 54.109375 11.28125 
L 54.109375 2.78125 
Q 49.265625 0.734375 44.1875 -0.34375 
Q 39.109375 -1.421875 33.890625 -1.421875 
Q 20.796875 -1.421875 13.15625 6.1875 
Q 5.515625 13.8125 5.515625 26.8125 
Q 5.515625 40.234375 12.765625 48.109375 
Q 20.015625 56 32.328125 56 
Q 43.359375 56 49.78125 48.890625 
Q 56.203125 41.796875 56.203125 29.59375 
z
M 47.21875 32.234375 
Q 47.125 39.59375 43.09375 43.984375 
Q 39.0625 48.390625 32.421875 48.390625 
Q 24.90625 48.390625 20.390625 44.140625 
Q 15.875 39.890625 15.1875 32.171875 
z
" id="DejaVuSans-101"/>
      <path d="M 45.40625 46.390625 
L 45.40625 75.984375 
L 54.390625 75.984375 
L 54.390625 0 
L 45.40625 0 
L 45.40625 8.203125 
Q 42.578125 3.328125 38.25 0.953125 
Q 33.9375 -1.421875 27.875 -1.421875 
Q 17.96875 -1.421875 11.734375 6.484375 
Q 5.515625 14.40625 5.515625 27.296875 
Q 5.515625 40.1875 11.734375 48.09375 
Q 17.96875 56 27.875 56 
Q 33.9375 56 38.25 53.625 
Q 42.578125 51.265625 45.40625 46.390625 
z
M 14.796875 27.296875 
Q 14.796875 17.390625 18.875 11.75 
Q 22.953125 6.109375 30.078125 6.109375 
Q 37.203125 6.109375 41.296875 11.75 
Q 45.40625 17.390625 45.40625 27.296875 
Q 45.40625 37.203125 41.296875 42.84375 
Q 37.203125 48.484375 30.078125 48.484375 
Q 22.953125 48.484375 18.875 42.84375 
Q 14.796875 37.203125 14.796875 27.296875 
z
" id="DejaVuSans-100"/>
      <path d="M 9.421875 54.6875 
L 18.40625 54.6875 
L 18.40625 0 
L 9.421875 0 
z
M 9.421875 75.984375 
L 18.40625 75.984375 
L 18.40625 64.59375 
L 9.421875 64.59375 
z
" id="DejaVuSans-105"/>
      <path d="M 34.28125 27.484375 
Q 23.390625 27.484375 19.1875 25 
Q 14.984375 22.515625 14.984375 16.5 
Q 14.984375 11.71875 18.140625 8.90625 
Q 21.296875 6.109375 26.703125 6.109375 
Q 34.1875 6.109375 38.703125 11.40625 
Q 43.21875 16.703125 43.21875 25.484375 
L 43.21875 27.484375 
z
M 52.203125 31.203125 
L 52.203125 0 
L 43.21875 0 
L 43.21875 8.296875 
Q 40.140625 3.328125 35.546875 0.953125 
Q 30.953125 -1.421875 24.3125 -1.421875 
Q 15.921875 -1.421875 10.953125 3.296875 
Q 6 8.015625 6 15.921875 
Q 6 25.140625 12.171875 29.828125 
Q 18.359375 34.515625 30.609375 34.515625 
L 43.21875 34.515625 
L 43.21875 35.40625 
Q 43.21875 41.609375 39.140625 45 
Q 35.0625 48.390625 27.6875 48.390625 
Q 23 48.390625 18.546875 47.265625 
Q 14.109375 46.140625 10.015625 43.890625 
L 10.015625 52.203125 
Q 14.9375 54.109375 19.578125 55.046875 
Q 24.21875 56 28.609375 56 
Q 40.484375 56 46.34375 49.84375 
Q 52.203125 43.703125 52.203125 31.203125 
z
" id="DejaVuSans-97"/>
      <path d="M 54.890625 33.015625 
L 54.890625 0 
L 45.90625 0 
L 45.90625 32.71875 
Q 45.90625 40.484375 42.875 44.328125 
Q 39.84375 48.1875 33.796875 48.1875 
Q 26.515625 48.1875 22.3125 43.546875 
Q 18.109375 38.921875 18.109375 30.90625 
L 18.109375 0 
L 9.078125 0 
L 9.078125 54.6875 
L 18.109375 54.6875 
L 18.109375 46.1875 
Q 21.34375 51.125 25.703125 53.5625 
Q 30.078125 56 35.796875 56 
Q 45.21875 56 50.046875 50.171875 
Q 54.890625 44.34375 54.890625 33.015625 
z
" id="DejaVuSans-110"/>
     </defs>
     <g transform="translate(368.234063 58.070437)scale(0.1 -0.1)">
      <use xlink:href="#DejaVuSans-109"/>
      <use x="97.412109" xlink:href="#DejaVuSans-101"/>
      <use x="158.935547" xlink:href="#DejaVuSans-100"/>
      <use x="222.412109" xlink:href="#DejaVuSans-105"/>
      <use x="250.195312" xlink:href="#DejaVuSans-97"/>
      <use x="311.474609" xlink:href="#DejaVuSans-110"/>
     </g>
    </g>
    <g id="line2d_19">
     <path d="M 340.234063 69.248562 
L 360.234063 69.248562 
" style="fill:none;stroke:#2ca02c;stroke-linecap:square;stroke-width:0.75;"/>
    </g>
    <g id="line2d_20"/>
    <g id="text_16">
     <!-- mean -->
     <g transform="translate(368.234063 72.748562)scale(0.1 -0.1)">
      <use xlink:href="#DejaVuSans-109"/>
      <use x="97.412109" xlink:href="#DejaVuSans-101"/>
      <use x="158.935547" xlink:href="#DejaVuSans-97"/>
      <use x="220.214844" xlink:href="#DejaVuSans-110"/>
     </g>
    </g>
   </g>
  </g>
  <g id="text_17">
   <!-- kappa.mean over generations -->
   <defs>
    <path d="M 9.078125 75.984375 
L 18.109375 75.984375 
L 18.109375 31.109375 
L 44.921875 54.6875 
L 56.390625 54.6875 
L 27.390625 29.109375 
L 57.625 0 
L 45.90625 0 
L 18.109375 26.703125 
L 18.109375 0 
L 9.078125 0 
z
" id="DejaVuSans-107"/>
    <path d="M 18.109375 8.203125 
L 18.109375 -20.796875 
L 9.078125 -20.796875 
L 9.078125 54.6875 
L 18.109375 54.6875 
L 18.109375 46.390625 
Q 20.953125 51.265625 25.265625 53.625 
Q 29.59375 56 35.59375 56 
Q 45.5625 56 51.78125 48.09375 
Q 58.015625 40.1875 58.015625 27.296875 
Q 58.015625 14.40625 51.78125 6.484375 
Q 45.5625 -1.421875 35.59375 -1.421875 
Q 29.59375 -1.421875 25.265625 0.953125 
Q 20.953125 3.328125 18.109375 8.203125 
z
M 48.6875 27.296875 
Q 48.6875 37.203125 44.609375 42.84375 
Q 40.53125 48.484375 33.40625 48.484375 
Q 26.265625 48.484375 22.1875 42.84375 
Q 18.109375 37.203125 18.109375 27.296875 
Q 18.109375 17.390625 22.1875 11.75 
Q 26.265625 6.109375 33.40625 6.109375 
Q 40.53125 6.109375 44.609375 11.75 
Q 48.6875 17.390625 48.6875 27.296875 
z
" id="DejaVuSans-112"/>
    <path id="DejaVuSans-32"/>
    <path d="M 30.609375 48.390625 
Q 23.390625 48.390625 19.1875 42.75 
Q 14.984375 37.109375 14.984375 27.296875 
Q 14.984375 17.484375 19.15625 11.84375 
Q 23.34375 6.203125 30.609375 6.203125 
Q 37.796875 6.203125 41.984375 11.859375 
Q 46.1875 17.53125 46.1875 27.296875 
Q 46.1875 37.015625 41.984375 42.703125 
Q 37.796875 48.390625 30.609375 48.390625 
z
M 30.609375 56 
Q 42.328125 56 49.015625 48.375 
Q 55.71875 40.765625 55.71875 27.296875 
Q 55.71875 13.875 49.015625 6.21875 
Q 42.328125 -1.421875 30.609375 -1.421875 
Q 18.84375 -1.421875 12.171875 6.21875 
Q 5.515625 13.875 5.515625 27.296875 
Q 5.515625 40.765625 12.171875 48.375 
Q 18.84375 56 30.609375 56 
z
" id="DejaVuSans-111"/>
    <path d="M 2.984375 54.6875 
L 12.5 54.6875 
L 29.59375 8.796875 
L 46.6875 54.6875 
L 56.203125 54.6875 
L 35.6875 0 
L 23.484375 0 
z
" id="DejaVuSans-118"/>
    <path d="M 41.109375 46.296875 
Q 39.59375 47.171875 37.8125 47.578125 
Q 36.03125 48 33.890625 48 
Q 26.265625 48 22.1875 43.046875 
Q 18.109375 38.09375 18.109375 28.8125 
L 18.109375 0 
L 9.078125 0 
L 9.078125 54.6875 
L 18.109375 54.6875 
L 18.109375 46.1875 
Q 20.953125 51.171875 25.484375 53.578125 
Q 30.03125 56 36.53125 56 
Q 37.453125 56 38.578125 55.875 
Q 39.703125 55.765625 41.0625 55.515625 
z
" id="DejaVuSans-114"/>
    <path d="M 45.40625 27.984375 
Q 45.40625 37.75 41.375 43.109375 
Q 37.359375 48.484375 30.078125 48.484375 
Q 22.859375 48.484375 18.828125 43.109375 
Q 14.796875 37.75 14.796875 27.984375 
Q 14.796875 18.265625 18.828125 12.890625 
Q 22.859375 7.515625 30.078125 7.515625 
Q 37.359375 7.515625 41.375 12.890625 
Q 45.40625 18.265625 45.40625 27.984375 
z
M 54.390625 6.78125 
Q 54.390625 -7.171875 48.1875 -13.984375 
Q 42 -20.796875 29.203125 -20.796875 
Q 24.46875 -20.796875 20.265625 -20.09375 
Q 16.0625 -19.390625 12.109375 -17.921875 
L 12.109375 -9.1875 
Q 16.0625 -11.328125 19.921875 -12.34375 
Q 23.78125 -13.375 27.78125 -13.375 
Q 36.625 -13.375 41.015625 -8.765625 
Q 45.40625 -4.15625 45.40625 5.171875 
L 45.40625 9.625 
Q 42.625 4.78125 38.28125 2.390625 
Q 33.9375 0 27.875 0 
Q 17.828125 0 11.671875 7.65625 
Q 5.515625 15.328125 5.515625 27.984375 
Q 5.515625 40.671875 11.671875 48.328125 
Q 17.828125 56 27.875 56 
Q 33.9375 56 38.28125 53.609375 
Q 42.625 51.21875 45.40625 46.390625 
L 45.40625 54.6875 
L 54.390625 54.6875 
z
" id="DejaVuSans-103"/>
    <path d="M 18.3125 70.21875 
L 18.3125 54.6875 
L 36.8125 54.6875 
L 36.8125 47.703125 
L 18.3125 47.703125 
L 18.3125 18.015625 
Q 18.3125 11.328125 20.140625 9.421875 
Q 21.96875 7.515625 27.59375 7.515625 
L 36.8125 7.515625 
L 36.8125 0 
L 27.59375 0 
Q 17.1875 0 13.234375 3.875 
Q 9.28125 7.765625 9.28125 18.015625 
L 9.28125 47.703125 
L 2.6875 47.703125 
L 2.6875 54.6875 
L 9.28125 54.6875 
L 9.28125 70.21875 
z
" id="DejaVuSans-116"/>
    <path d="M 44.28125 53.078125 
L 44.28125 44.578125 
Q 40.484375 46.53125 36.375 47.5 
Q 32.28125 48.484375 27.875 48.484375 
Q 21.1875 48.484375 17.84375 46.4375 
Q 14.5 44.390625 14.5 40.28125 
Q 14.5 37.15625 16.890625 35.375 
Q 19.28125 33.59375 26.515625 31.984375 
L 29.59375 31.296875 
Q 39.15625 29.25 43.1875 25.515625 
Q 47.21875 21.78125 47.21875 15.09375 
Q 47.21875 7.46875 41.1875 3.015625 
Q 35.15625 -1.421875 24.609375 -1.421875 
Q 20.21875 -1.421875 15.453125 -0.5625 
Q 10.6875 0.296875 5.421875 2 
L 5.421875 11.28125 
Q 10.40625 8.6875 15.234375 7.390625 
Q 20.0625 6.109375 24.8125 6.109375 
Q 31.15625 6.109375 34.5625 8.28125 
Q 37.984375 10.453125 37.984375 14.40625 
Q 37.984375 18.0625 35.515625 20.015625 
Q 33.0625 21.96875 24.703125 23.78125 
L 21.578125 24.515625 
Q 13.234375 26.265625 9.515625 29.90625 
Q 5.8125 33.546875 5.8125 39.890625 
Q 5.8125 47.609375 11.28125 51.796875 
Q 16.75 56 26.8125 56 
Q 31.78125 56 36.171875 55.265625 
Q 40.578125 54.546875 44.28125 53.078125 
z
" id="DejaVuSans-115"/>
   </defs>
   <g transform="translate(140.184375 16.030125)scale(0.12 -0.12)">
    <use xlink:href="#DejaVuSans-107"/>
    <use x="56.160156" xlink:href="#DejaVuSans-97"/>
    <use x="117.439453" xlink:href="#DejaVuSans-112"/>
    <use x="180.916016" xlink:href="#DejaVuSans-112"/>
    <use x="244.392578" xlink:href="#DejaVuSans-97"/>
    <use x="305.671875" xlink:href="#DejaVuSans-46"/>
    <use x="337.458984" xlink:href="#DejaVuSans-109"/>
    <use x="434.871094" xlink:href="#DejaVuSans-101"/>
    <use x="496.394531" xlink:href="#DejaVuSans-97"/>
    <use x="557.673828" xlink:href="#DejaVuSans-110"/>
    <use x="621.052734" xlink:href="#DejaVuSans-32"/>
    <use x="652.839844" xlink:href="#DejaVuSans-111"/>
    <use x="714.021484" xlink:href="#DejaVuSans-118"/>
    <use x="773.201172" xlink:href="#DejaVuSans-101"/>
    <use x="834.724609" xlink:href="#DejaVuSans-114"/>
    <use x="875.837891" xlink:href="#DejaVuSans-32"/>
    <use x="907.625" xlink:href="#DejaVuSans-103"/>
    <use x="971.101562" xlink:href="#DejaVuSans-101"/>
    <use x="1032.625" xlink:href="#DejaVuSans-110"/>
    <use x="1096.003906" xlink:href="#DejaVuSans-101"/>
    <use x="1157.527344" xlink:href="#DejaVuSans-114"/>
    <use x="1198.640625" xlink:href="#DejaVuSans-97"/>
    <use x="1259.919922" xlink:href="#DejaVuSans-116"/>
    <use x="1299.128906" xlink:href="#DejaVuSans-105"/>
    <use x="1326.912109" xlink:href="#DejaVuSans-111"/>
    <use x="1388.09375" xlink:href="#DejaVuSans-110"/>
    <use x="1451.472656" xlink:href="#DejaVuSans-115"/>
   </g>
  </g>
 </g>
 <defs>
  <clipPath id="p4d630ffa2a">
   <rect height="266.112" width="357.12" x="57.6" y="41.472"/>
  </clipPath>
 </defs>
</svg>
