<?xml version="1.0" encoding="utf-8" standalone="no"?>
<!DOCTYPE svg PUBLIC "-//W3C//DTD SVG 1.1//EN"
  "http://www.w3.org/Graphics/SVG/1.1/DTD/svg11.dtd">
<!-- Created with matplotlib (https://matplotlib.org/) -->
<svg height="345.6pt" version="1.1" viewBox="0 0 460.8 345.6" width="460.8pt" xmlns="http://www.w3.org/2000/svg" xmlns:xlink="http://www.w3.org/1999/xlink">
 <defs>
  <style type="text/css">
*{stroke-linecap:butt;stroke-linejoin:round;}
  </style>
 </defs>
 <g id="figure_1">
  <g id="patch_1">
   <path d="M 0 345.6 
L 460.8 345.6 
L 460.8 0 
L 0 0 
z
" style="fill:#ffffff;"/>
  </g>
  <g id="axes_1">
   <g id="patch_2">
    <path d="M 57.6 307.584 
L 414.72 307.584 
L 414.72 41.472 
L 57.6 41.472 
z
" style="fill:#ffffff;"/>
   </g>
   <g id="PolyCollection_1">
    <path clip-path="url(#p40411adf54)" d="M 73.832727 287.444739 
L 73.832727 288.726295 
L 75.464157 288.726295 
L 77.095587 288.726295 
L 78.727017 288.726295 
L 80.358447 288.726295 
L 81.989877 288.726295 
L 83.621307 288.726295 
L 85.252736 288.726295 
L 86.884166 288.726295 
L 88.515596 288.726295 
L 90.147026 288.726295 
L 91.778456 288.726295 
L 93.409886 288.726295 
L 95.041316 288.726295 
L 96.672746 288.726295 
L 98.304175 288.726295 
L 99.935605 288.726295 
L 101.567035 288.726295 
L 103.198465 288.726295 
L 104.829895 288.726295 
L 106.461325 288.726295 
L 108.092755 288.726295 
L 109.724185 288.726295 
L 111.355614 288.726295 
L 112.987044 288.726295 
L 114.618474 288.726295 
L 116.249904 288.726295 
L 117.881334 288.726295 
L 119.512764 288.726295 
L 121.144194 288.726295 
L 122.775624 288.726295 
L 124.407053 288.726295 
L 126.038483 288.726295 
L 127.669913 288.726295 
L 129.301343 288.726295 
L 130.932773 288.726295 
L 132.564203 288.726295 
L 134.195633 288.726295 
L 135.827063 288.726295 
L 137.458492 288.726295 
L 139.089922 288.726295 
L 140.721352 288.726295 
L 142.352782 288.726295 
L 143.984212 288.726295 
L 145.615642 288.726295 
L 147.247072 288.726295 
L 148.878502 288.726295 
L 150.509931 288.726295 
L 152.141361 288.726295 
L 153.772791 288.726295 
L 155.404221 288.726295 
L 157.035651 288.726295 
L 158.667081 288.726295 
L 160.298511 288.726295 
L 161.929941 288.726295 
L 163.56137 288.726295 
L 165.1928 288.726295 
L 166.82423 288.726295 
L 168.45566 288.726295 
L 170.08709 288.726295 
L 171.71852 288.726295 
L 173.34995 288.726295 
L 174.98138 288.726295 
L 176.61281 288.726295 
L 178.244239 288.726295 
L 179.875669 288.726295 
L 181.507099 288.726295 
L 183.138529 288.726295 
L 184.769959 288.726295 
L 186.401389 288.726295 
L 188.032819 288.726295 
L 189.664249 288.726295 
L 191.295678 288.726295 
L 192.927108 288.726295 
L 194.558538 288.726295 
L 196.189968 288.726295 
L 197.821398 288.726295 
L 199.452828 288.726295 
L 201.084258 288.726295 
L 202.715688 288.726295 
L 204.347117 288.726295 
L 205.978547 288.726295 
L 207.609977 288.726295 
L 209.241407 288.726295 
L 210.872837 288.726295 
L 212.504267 288.726295 
L 214.135697 288.726295 
L 215.767127 288.726295 
L 217.398556 288.726295 
L 219.029986 288.726295 
L 220.661416 288.726295 
L 222.292846 288.726295 
L 223.924276 289.247148 
L 225.555706 289.111839 
L 227.187136 289.370617 
L 228.818566 289.453643 
L 230.449995 289.110383 
L 232.081425 288.902216 
L 233.712855 289.41115 
L 235.344285 288.680161 
L 236.975715 288.856088 
L 238.607145 288.940487 
L 240.238575 288.730985 
L 241.870005 288.596823 
L 243.501434 288.522245 
L 245.132864 289.002643 
L 246.764294 288.480363 
L 248.395724 288.859213 
L 250.027154 289.197448 
L 251.658584 289.016895 
L 253.290014 288.970547 
L 254.921444 288.751929 
L 256.552873 288.684354 
L 258.184303 286.155098 
L 259.815733 288.161058 
L 261.447163 287.547384 
L 263.078593 288.750384 
L 264.710023 288.726295 
L 266.341453 288.865369 
L 267.972883 289.063968 
L 269.604312 288.726295 
L 271.235742 288.741151 
L 272.867172 288.888843 
L 274.498602 288.753643 
L 276.130032 288.734776 
L 277.761462 288.827856 
L 279.392892 283.488219 
L 281.024322 288.035686 
L 282.655751 286.51411 
L 284.287181 288.726295 
L 285.918611 288.391483 
L 287.550041 288.154986 
L 289.181471 288.726295 
L 290.812901 289.083502 
L 292.444331 285.418902 
L 294.075761 289.048636 
L 295.70719 288.199606 
L 297.33862 288.157881 
L 298.97005 259.49683 
L 300.60148 249.684378 
L 302.23291 268.860463 
L 303.86434 288.600538 
L 305.49577 288.741829 
L 307.1272 272.289453 
L 308.75863 269.863292 
L 310.390059 288.131776 
L 312.021489 288.45759 
L 313.652919 284.151906 
L 315.284349 288.552027 
L 316.915779 257.001488 
L 318.547209 287.891131 
L 320.178639 287.907711 
L 321.810069 287.89228 
L 323.441498 285.127312 
L 325.072928 288.640959 
L 326.704358 278.443258 
L 328.335788 283.891357 
L 329.967218 289.068533 
L 331.598648 288.307465 
L 333.230078 266.522091 
L 334.861508 286.237035 
L 336.492937 288.216794 
L 338.124367 288.669692 
L 339.755797 263.787406 
L 341.387227 255.750952 
L 343.018657 288.664245 
L 344.650087 288.023234 
L 346.281517 264.97169 
L 347.912947 258.266891 
L 349.544376 288.343979 
L 351.175806 288.476307 
L 352.807236 291.679417 
L 354.438666 287.804937 
L 356.070096 288.496304 
L 357.701526 289.707455 
L 359.332956 294.741906 
L 360.964386 290.397732 
L 362.595815 294.636454 
L 364.227245 294.16229 
L 365.858675 288.362052 
L 367.490105 289.46074 
L 369.121535 288.674745 
L 370.752965 289.594804 
L 372.384395 288.597427 
L 374.015825 289.033863 
L 375.647254 288.12396 
L 377.278684 294.866643 
L 378.910114 292.474126 
L 380.541544 292.547935 
L 382.172974 288.992911 
L 383.804404 288.893404 
L 385.435834 289.420954 
L 387.067264 294.519157 
L 388.698693 289.029421 
L 390.330123 292.28551 
L 391.961553 288.966933 
L 393.592983 289.431052 
L 395.224413 289.103066 
L 396.855843 288.712757 
L 398.487273 288.556402 
L 398.487273 244.923479 
L 398.487273 244.923479 
L 396.855843 246.455473 
L 395.224413 259.791621 
L 393.592983 274.992841 
L 391.961553 252.062278 
L 390.330123 245.210805 
L 388.698693 257.678211 
L 387.067264 262.387219 
L 385.435834 258.363852 
L 383.804404 251.999851 
L 382.172974 268.238502 
L 380.541544 253.368075 
L 378.910114 269.157469 
L 377.278684 256.785032 
L 375.647254 253.371293 
L 374.015825 256.47406 
L 372.384395 254.440038 
L 370.752965 267.008711 
L 369.121535 246.043339 
L 367.490105 268.211385 
L 365.858675 257.438347 
L 364.227245 253.36923 
L 362.595815 243.315149 
L 360.964386 267.08531 
L 359.332956 241.323159 
L 357.701526 272.20044 
L 356.070096 253.396101 
L 354.438666 231.117328 
L 352.807236 278.814918 
L 351.175806 245.928302 
L 349.544376 233.210194 
L 347.912947 144.705153 
L 346.281517 126.064363 
L 344.650087 204.690295 
L 343.018657 152.007832 
L 341.387227 94.674075 
L 339.755797 195.471014 
L 338.124367 228.903626 
L 336.492937 147.925726 
L 334.861508 193.894115 
L 333.230078 137.0717 
L 331.598648 186.034374 
L 329.967218 146.662889 
L 328.335788 119.630051 
L 326.704358 176.995162 
L 325.072928 186.271142 
L 323.441498 90.172971 
L 321.810069 206.288352 
L 320.178639 147.459768 
L 318.547209 78.090375 
L 316.915779 91.347298 
L 315.284349 152.857742 
L 313.652919 125.82689 
L 312.021489 185.254465 
L 310.390059 128.727218 
L 308.75863 129.038561 
L 307.1272 154.572322 
L 305.49577 183.281931 
L 303.86434 224.519314 
L 302.23291 170.503209 
L 300.60148 71.913096 
L 298.97005 139.238294 
L 297.33862 60.279631 
L 295.70719 100.734558 
L 294.075761 173.818174 
L 292.444331 192.372848 
L 290.812901 258.062803 
L 289.181471 203.064256 
L 287.550041 246.462894 
L 285.918611 245.52963 
L 284.287181 224.996458 
L 282.655751 232.142316 
L 281.024322 238.607698 
L 279.392892 213.44114 
L 277.761462 270.519657 
L 276.130032 252.134493 
L 274.498602 264.615365 
L 272.867172 276.679408 
L 271.235742 262.23266 
L 269.604312 229.074638 
L 267.972883 266.16847 
L 266.341453 260.310598 
L 264.710023 243.171328 
L 263.078593 265.450069 
L 261.447163 248.216745 
L 259.815733 252.529663 
L 258.184303 245.770117 
L 256.552873 254.285761 
L 254.921444 262.371497 
L 253.290014 268.803488 
L 251.658584 285.780379 
L 250.027154 286.416554 
L 248.395724 287.270099 
L 246.764294 243.575876 
L 245.132864 285.773708 
L 243.501434 244.458174 
L 241.870005 286.991385 
L 240.238575 258.99913 
L 238.607145 286.890988 
L 236.975715 259.938167 
L 235.344285 287.210476 
L 233.712855 288.562681 
L 232.081425 287.885129 
L 230.449995 288.020686 
L 228.818566 288.596194 
L 227.187136 288.108711 
L 225.555706 287.913581 
L 223.924276 288.369699 
L 222.292846 283.303148 
L 220.661416 287.444739 
L 219.029986 287.444739 
L 217.398556 287.444739 
L 215.767127 287.444739 
L 214.135697 287.444739 
L 212.504267 287.444739 
L 210.872837 287.444739 
L 209.241407 287.444739 
L 207.609977 288.414239 
L 205.978547 287.444779 
L 204.347117 287.444739 
L 202.715688 287.444739 
L 201.084258 287.444739 
L 199.452828 287.444739 
L 197.821398 287.444739 
L 196.189968 287.444739 
L 194.558538 287.444739 
L 192.927108 287.444739 
L 191.295678 287.444739 
L 189.664249 287.444739 
L 188.032819 287.444739 
L 186.401389 287.444739 
L 184.769959 287.444739 
L 183.138529 288.414239 
L 181.507099 287.444739 
L 179.875669 287.444739 
L 178.244239 287.444739 
L 176.61281 287.444739 
L 174.98138 287.444739 
L 173.34995 287.444739 
L 171.71852 287.444739 
L 170.08709 287.444739 
L 168.45566 287.444739 
L 166.82423 287.444739 
L 165.1928 287.444739 
L 163.56137 287.444739 
L 161.929941 287.444739 
L 160.298511 288.171864 
L 158.667081 287.444739 
L 157.035651 287.444739 
L 155.404221 287.444739 
L 153.772791 287.444739 
L 152.141361 287.444739 
L 150.509931 287.444739 
L 148.878502 288.171864 
L 147.247072 287.444739 
L 145.615642 287.444739 
L 143.984212 287.444739 
L 142.352782 287.444739 
L 140.721352 287.444739 
L 139.089922 287.444739 
L 137.458492 287.444739 
L 135.827063 287.444739 
L 134.195633 287.444739 
L 132.564203 287.444739 
L 130.932773 287.444739 
L 129.301343 287.444739 
L 127.669913 287.444739 
L 126.038483 287.444739 
L 124.407053 287.444739 
L 122.775624 287.444739 
L 121.144194 287.444739 
L 119.512764 287.444739 
L 117.881334 288.414239 
L 116.249904 287.444739 
L 114.618474 288.414239 
L 112.987044 287.444739 
L 111.355614 287.444739 
L 109.724185 287.444739 
L 108.092755 287.444739 
L 106.461325 287.444739 
L 104.829895 288.414239 
L 103.198465 287.444739 
L 101.567035 287.444739 
L 99.935605 287.444739 
L 98.304175 287.444739 
L 96.672746 288.171864 
L 95.041316 287.444739 
L 93.409886 287.444739 
L 91.778456 287.444739 
L 90.147026 287.444739 
L 88.515596 288.171864 
L 86.884166 287.444739 
L 85.252736 287.444739 
L 83.621307 287.444739 
L 81.989877 288.414239 
L 80.358447 287.444739 
L 78.727017 287.444739 
L 77.095587 287.444739 
L 75.464157 288.414239 
L 73.832727 287.444739 
z
" style="fill:#1f77b4;fill-opacity:0.2;"/>
   </g>
   <g id="PolyCollection_2">
    <path clip-path="url(#p40411adf54)" d="M 73.832727 287.444739 
L 73.832727 288.726295 
L 75.464157 288.726295 
L 77.095587 288.726295 
L 78.727017 288.726295 
L 80.358447 288.726295 
L 81.989877 288.726295 
L 83.621307 288.726295 
L 85.252736 288.726295 
L 86.884166 288.726295 
L 88.515596 288.726295 
L 90.147026 288.726295 
L 91.778456 288.726295 
L 93.409886 288.726295 
L 95.041316 288.726295 
L 96.672746 288.726295 
L 98.304175 288.726295 
L 99.935605 288.726295 
L 101.567035 288.726295 
L 103.198465 288.726295 
L 104.829895 288.726295 
L 106.461325 288.726295 
L 108.092755 288.726295 
L 109.724185 288.726295 
L 111.355614 288.726295 
L 112.987044 288.726295 
L 114.618474 288.726295 
L 116.249904 288.726295 
L 117.881334 288.726295 
L 119.512764 288.726295 
L 121.144194 288.726295 
L 122.775624 288.726295 
L 124.407053 288.726295 
L 126.038483 288.726295 
L 127.669913 288.726295 
L 129.301343 288.726295 
L 130.932773 288.726295 
L 132.564203 288.726295 
L 134.195633 288.726295 
L 135.827063 288.726295 
L 137.458492 288.726295 
L 139.089922 288.726295 
L 140.721352 288.726295 
L 142.352782 288.726295 
L 143.984212 288.726295 
L 145.615642 288.726295 
L 147.247072 288.726295 
L 148.878502 288.726295 
L 150.509931 288.726295 
L 152.141361 288.726295 
L 153.772791 288.726295 
L 155.404221 288.726295 
L 157.035651 288.726295 
L 158.667081 288.726295 
L 160.298511 288.726295 
L 161.929941 288.726295 
L 163.56137 288.726295 
L 165.1928 288.726295 
L 166.82423 288.726295 
L 168.45566 288.726295 
L 170.08709 288.726295 
L 171.71852 288.726295 
L 173.34995 288.726295 
L 174.98138 288.726295 
L 176.61281 288.726295 
L 178.244239 288.726295 
L 179.875669 288.726295 
L 181.507099 288.726295 
L 183.138529 288.726295 
L 184.769959 288.726295 
L 186.401389 288.726295 
L 188.032819 288.726295 
L 189.664249 288.726295 
L 191.295678 288.726295 
L 192.927108 288.726295 
L 194.558538 288.726295 
L 196.189968 288.726295 
L 197.821398 288.726295 
L 199.452828 288.726295 
L 201.084258 288.726295 
L 202.715688 288.726295 
L 204.347117 288.726295 
L 205.978547 288.726295 
L 207.609977 288.726295 
L 209.241407 288.726295 
L 210.872837 288.726295 
L 212.504267 288.726295 
L 214.135697 288.726295 
L 215.767127 288.726295 
L 217.398556 288.726295 
L 219.029986 288.726295 
L 220.661416 289.26875 
L 222.292846 289.308046 
L 223.924276 289.475501 
L 225.555706 289.347813 
L 227.187136 289.849498 
L 228.818566 289.663264 
L 230.449995 289.386507 
L 232.081425 289.365451 
L 233.712855 289.514528 
L 235.344285 289.339867 
L 236.975715 289.595724 
L 238.607145 289.402834 
L 240.238575 289.451016 
L 241.870005 289.377081 
L 243.501434 289.36343 
L 245.132864 289.644284 
L 246.764294 289.370675 
L 248.395724 289.383298 
L 250.027154 289.432477 
L 251.658584 289.384331 
L 253.290014 289.456448 
L 254.921444 289.411394 
L 256.552873 289.626858 
L 258.184303 289.357492 
L 259.815733 289.674187 
L 261.447163 289.466661 
L 263.078593 289.466438 
L 264.710023 289.444874 
L 266.341453 289.438439 
L 267.972883 289.604873 
L 269.604312 289.310484 
L 271.235742 289.288275 
L 272.867172 289.312649 
L 274.498602 289.435401 
L 276.130032 289.369323 
L 277.761462 289.973803 
L 279.392892 289.309268 
L 281.024322 289.30636 
L 282.655751 289.400529 
L 284.287181 289.43018 
L 285.918611 289.406333 
L 287.550041 289.400335 
L 289.181471 289.390389 
L 290.812901 289.633575 
L 292.444331 289.527073 
L 294.075761 289.616544 
L 295.70719 289.115108 
L 297.33862 289.169866 
L 298.97005 289.225269 
L 300.60148 289.182688 
L 302.23291 289.343415 
L 303.86434 289.177981 
L 305.49577 289.48604 
L 307.1272 289.220981 
L 308.75863 289.21094 
L 310.390059 289.198716 
L 312.021489 289.185728 
L 313.652919 289.167308 
L 315.284349 289.149188 
L 316.915779 289.120129 
L 318.547209 289.0937 
L 320.178639 289.226609 
L 321.810069 289.06967 
L 323.441498 289.155903 
L 325.072928 289.789448 
L 326.704358 289.259835 
L 328.335788 289.126063 
L 329.967218 289.385062 
L 331.598648 289.090662 
L 333.230078 289.117802 
L 334.861508 289.62813 
L 336.492937 289.095712 
L 338.124367 289.763999 
L 339.755797 289.184007 
L 341.387227 289.068532 
L 343.018657 289.470341 
L 344.650087 291.289027 
L 346.281517 289.023473 
L 347.912947 294.262817 
L 349.544376 295.193098 
L 351.175806 294.579145 
L 352.807236 294.573683 
L 354.438666 295.24128 
L 356.070096 294.752817 
L 357.701526 294.725244 
L 359.332956 295.239247 
L 360.964386 294.733893 
L 362.595815 294.759358 
L 364.227245 295.167641 
L 365.858675 294.664983 
L 367.490105 294.607182 
L 369.121535 294.946412 
L 370.752965 294.611656 
L 372.384395 294.585919 
L 374.015825 295.488 
L 375.647254 295.330888 
L 377.278684 295.350114 
L 378.910114 294.598188 
L 380.541544 294.897647 
L 382.172974 295.378694 
L 383.804404 295.039841 
L 385.435834 294.853139 
L 387.067264 295.327092 
L 388.698693 294.968711 
L 390.330123 295.202335 
L 391.961553 294.664918 
L 393.592983 294.629532 
L 395.224413 294.625207 
L 396.855843 294.843758 
L 398.487273 294.757381 
L 398.487273 92.504639 
L 398.487273 92.504639 
L 396.855843 84.431187 
L 395.224413 81.696406 
L 393.592983 125.200443 
L 391.961553 109.44435 
L 390.330123 56.347626 
L 388.698693 90.637479 
L 387.067264 103.837224 
L 385.435834 132.00691 
L 383.804404 96.096625 
L 382.172974 75.895003 
L 380.541544 95.078071 
L 378.910114 167.615884 
L 377.278684 159.384212 
L 375.647254 78.944876 
L 374.015825 53.569829 
L 372.384395 103.541877 
L 370.752965 133.304195 
L 369.121535 123.951368 
L 367.490105 154.285738 
L 365.858675 91.073268 
L 364.227245 70.192581 
L 362.595815 90.096431 
L 360.964386 144.458501 
L 359.332956 55.024391 
L 357.701526 75.991762 
L 356.070096 134.053625 
L 354.438666 53.568 
L 352.807236 141.107594 
L 351.175806 110.733099 
L 349.544376 55.329882 
L 347.912947 106.127679 
L 346.281517 100.355464 
L 344.650087 53.569829 
L 343.018657 55.200115 
L 341.387227 57.242933 
L 339.755797 100.12946 
L 338.124367 95.341814 
L 336.492937 123.89043 
L 334.861508 123.401895 
L 333.230078 89.829848 
L 331.598648 53.586012 
L 329.967218 56.681591 
L 328.335788 91.408897 
L 326.704358 117.116458 
L 325.072928 102.042506 
L 323.441498 53.58462 
L 321.810069 54.33261 
L 320.178639 104.880893 
L 318.547209 53.569829 
L 316.915779 53.569829 
L 315.284349 100.504086 
L 313.652919 77.083392 
L 312.021489 72.490275 
L 310.390059 83.462235 
L 308.75863 53.569829 
L 307.1272 100.850785 
L 305.49577 95.487561 
L 303.86434 53.569829 
L 302.23291 101.500424 
L 300.60148 53.569829 
L 298.97005 87.693519 
L 297.33862 53.569829 
L 295.70719 100.447235 
L 294.075761 126.635092 
L 292.444331 69.776462 
L 290.812901 114.789814 
L 289.181471 53.569829 
L 287.550041 91.90698 
L 285.918611 84.251431 
L 284.287181 55.249595 
L 282.655751 137.155042 
L 281.024322 73.59868 
L 279.392892 53.569829 
L 277.761462 87.537657 
L 276.130032 70.709372 
L 274.498602 137.316447 
L 272.867172 219.815822 
L 271.235742 140.452901 
L 269.604312 53.569829 
L 267.972883 125.218424 
L 266.341453 91.81005 
L 264.710023 53.629844 
L 263.078593 140.077025 
L 261.447163 53.719787 
L 259.815733 128.313195 
L 258.184303 105.348623 
L 256.552873 146.956989 
L 254.921444 127.453088 
L 253.290014 146.88832 
L 251.658584 99.755388 
L 250.027154 213.937964 
L 248.395724 161.884163 
L 246.764294 99.503267 
L 245.132864 203.638178 
L 243.501434 59.99692 
L 241.870005 100.294884 
L 240.238575 144.335915 
L 238.607145 147.147906 
L 236.975715 185.169176 
L 235.344285 236.07386 
L 233.712855 271.694769 
L 232.081425 213.956722 
L 230.449995 178.6818 
L 228.818566 183.948157 
L 227.187136 202.288008 
L 225.555706 96.976378 
L 223.924276 190.211978 
L 222.292846 101.263068 
L 220.661416 75.570269 
L 219.029986 285.86768 
L 217.398556 100.162754 
L 215.767127 195.190342 
L 214.135697 127.70006 
L 212.504267 86.417791 
L 210.872837 160.330203 
L 209.241407 55.36553 
L 207.609977 205.565477 
L 205.978547 287.444739 
L 204.347117 137.226185 
L 202.715688 136.688512 
L 201.084258 101.234792 
L 199.452828 108.497696 
L 197.821398 287.444739 
L 196.189968 287.444739 
L 194.558538 287.444739 
L 192.927108 287.444739 
L 191.295678 287.444739 
L 189.664249 287.444739 
L 188.032819 287.444739 
L 186.401389 287.444739 
L 184.769959 287.444739 
L 183.138529 287.444739 
L 181.507099 287.444739 
L 179.875669 287.444739 
L 178.244239 287.444739 
L 176.61281 287.444739 
L 174.98138 287.444739 
L 173.34995 287.444739 
L 171.71852 287.444739 
L 170.08709 287.444739 
L 168.45566 287.444739 
L 166.82423 287.444739 
L 165.1928 287.444739 
L 163.56137 287.444739 
L 161.929941 287.444739 
L 160.298511 287.444739 
L 158.667081 287.444739 
L 157.035651 287.444739 
L 155.404221 287.444739 
L 153.772791 287.444739 
L 152.141361 287.444739 
L 150.509931 287.444739 
L 148.878502 287.444739 
L 147.247072 287.444739 
L 145.615642 287.444739 
L 143.984212 287.444739 
L 142.352782 287.444739 
L 140.721352 287.444739 
L 139.089922 287.444739 
L 137.458492 287.444739 
L 135.827063 287.444739 
L 134.195633 287.444739 
L 132.564203 287.444739 
L 130.932773 287.444739 
L 129.301343 287.444739 
L 127.669913 287.444739 
L 126.038483 287.444739 
L 124.407053 287.444739 
L 122.775624 287.444739 
L 121.144194 287.444739 
L 119.512764 287.444739 
L 117.881334 287.444739 
L 116.249904 287.444739 
L 114.618474 287.444739 
L 112.987044 287.444739 
L 111.355614 287.444739 
L 109.724185 287.444739 
L 108.092755 287.444739 
L 106.461325 287.444739 
L 104.829895 287.444739 
L 103.198465 287.444739 
L 101.567035 287.444739 
L 99.935605 287.444739 
L 98.304175 287.444739 
L 96.672746 287.444739 
L 95.041316 287.444739 
L 93.409886 287.444739 
L 91.778456 287.444739 
L 90.147026 287.444739 
L 88.515596 287.444739 
L 86.884166 287.444739 
L 85.252736 287.444739 
L 83.621307 287.444739 
L 81.989877 287.444739 
L 80.358447 287.444739 
L 78.727017 287.444739 
L 77.095587 287.444739 
L 75.464157 287.444739 
L 73.832727 287.444739 
z
" style="fill:#1f77b4;fill-opacity:0.1;"/>
   </g>
   <g id="matplotlib.axis_1">
    <g id="xtick_1">
     <g id="line2d_1">
      <defs>
       <path d="M 0 0 
L 0 3.5 
" id="m270a0e9a64" style="stroke:#000000;stroke-width:0.8;"/>
      </defs>
      <g>
       <use style="stroke:#000000;stroke-width:0.8;" x="73.832727" xlink:href="#m270a0e9a64" y="307.584"/>
      </g>
     </g>
     <g id="text_1">
      <!-- 0 -->
      <defs>
       <path d="M 31.78125 66.40625 
Q 24.171875 66.40625 20.328125 58.90625 
Q 16.5 51.421875 16.5 36.375 
Q 16.5 21.390625 20.328125 13.890625 
Q 24.171875 6.390625 31.78125 6.390625 
Q 39.453125 6.390625 43.28125 13.890625 
Q 47.125 21.390625 47.125 36.375 
Q 47.125 51.421875 43.28125 58.90625 
Q 39.453125 66.40625 31.78125 66.40625 
z
M 31.78125 74.21875 
Q 44.046875 74.21875 50.515625 64.515625 
Q 56.984375 54.828125 56.984375 36.375 
Q 56.984375 17.96875 50.515625 8.265625 
Q 44.046875 -1.421875 31.78125 -1.421875 
Q 19.53125 -1.421875 13.0625 8.265625 
Q 6.59375 17.96875 6.59375 36.375 
Q 6.59375 54.828125 13.0625 64.515625 
Q 19.53125 74.21875 31.78125 74.21875 
z
" id="DejaVuSans-48"/>
      </defs>
      <g transform="translate(70.651477 322.182437)scale(0.1 -0.1)">
       <use xlink:href="#DejaVuSans-48"/>
      </g>
     </g>
    </g>
    <g id="xtick_2">
     <g id="line2d_2">
      <g>
       <use style="stroke:#000000;stroke-width:0.8;" x="114.618474" xlink:href="#m270a0e9a64" y="307.584"/>
      </g>
     </g>
     <g id="text_2">
      <!-- 25 -->
      <defs>
       <path d="M 19.1875 8.296875 
L 53.609375 8.296875 
L 53.609375 0 
L 7.328125 0 
L 7.328125 8.296875 
Q 12.9375 14.109375 22.625 23.890625 
Q 32.328125 33.6875 34.8125 36.53125 
Q 39.546875 41.84375 41.421875 45.53125 
Q 43.3125 49.21875 43.3125 52.78125 
Q 43.3125 58.59375 39.234375 62.25 
Q 35.15625 65.921875 28.609375 65.921875 
Q 23.96875 65.921875 18.8125 64.3125 
Q 13.671875 62.703125 7.8125 59.421875 
L 7.8125 69.390625 
Q 13.765625 71.78125 18.9375 73 
Q 24.125 74.21875 28.421875 74.21875 
Q 39.75 74.21875 46.484375 68.546875 
Q 53.21875 62.890625 53.21875 53.421875 
Q 53.21875 48.921875 51.53125 44.890625 
Q 49.859375 40.875 45.40625 35.40625 
Q 44.1875 33.984375 37.640625 27.21875 
Q 31.109375 20.453125 19.1875 8.296875 
z
" id="DejaVuSans-50"/>
       <path d="M 10.796875 72.90625 
L 49.515625 72.90625 
L 49.515625 64.59375 
L 19.828125 64.59375 
L 19.828125 46.734375 
Q 21.96875 47.46875 24.109375 47.828125 
Q 26.265625 48.1875 28.421875 48.1875 
Q 40.625 48.1875 47.75 41.5 
Q 54.890625 34.8125 54.890625 23.390625 
Q 54.890625 11.625 47.5625 5.09375 
Q 40.234375 -1.421875 26.90625 -1.421875 
Q 22.3125 -1.421875 17.546875 -0.640625 
Q 12.796875 0.140625 7.71875 1.703125 
L 7.71875 11.625 
Q 12.109375 9.234375 16.796875 8.0625 
Q 21.484375 6.890625 26.703125 6.890625 
Q 35.15625 6.890625 40.078125 11.328125 
Q 45.015625 15.765625 45.015625 23.390625 
Q 45.015625 31 40.078125 35.4375 
Q 35.15625 39.890625 26.703125 39.890625 
Q 22.75 39.890625 18.8125 39.015625 
Q 14.890625 38.140625 10.796875 36.28125 
z
" id="DejaVuSans-53"/>
      </defs>
      <g transform="translate(108.255974 322.182437)scale(0.1 -0.1)">
       <use xlink:href="#DejaVuSans-50"/>
       <use x="63.623047" xlink:href="#DejaVuSans-53"/>
      </g>
     </g>
    </g>
    <g id="xtick_3">
     <g id="line2d_3">
      <g>
       <use style="stroke:#000000;stroke-width:0.8;" x="155.404221" xlink:href="#m270a0e9a64" y="307.584"/>
      </g>
     </g>
     <g id="text_3">
      <!-- 50 -->
      <g transform="translate(149.041721 322.182437)scale(0.1 -0.1)">
       <use xlink:href="#DejaVuSans-53"/>
       <use x="63.623047" xlink:href="#DejaVuSans-48"/>
      </g>
     </g>
    </g>
    <g id="xtick_4">
     <g id="line2d_4">
      <g>
       <use style="stroke:#000000;stroke-width:0.8;" x="196.189968" xlink:href="#m270a0e9a64" y="307.584"/>
      </g>
     </g>
     <g id="text_4">
      <!-- 75 -->
      <defs>
       <path d="M 8.203125 72.90625 
L 55.078125 72.90625 
L 55.078125 68.703125 
L 28.609375 0 
L 18.3125 0 
L 43.21875 64.59375 
L 8.203125 64.59375 
z
" id="DejaVuSans-55"/>
      </defs>
      <g transform="translate(189.827468 322.182437)scale(0.1 -0.1)">
       <use xlink:href="#DejaVuSans-55"/>
       <use x="63.623047" xlink:href="#DejaVuSans-53"/>
      </g>
     </g>
    </g>
    <g id="xtick_5">
     <g id="line2d_5">
      <g>
       <use style="stroke:#000000;stroke-width:0.8;" x="236.975715" xlink:href="#m270a0e9a64" y="307.584"/>
      </g>
     </g>
     <g id="text_5">
      <!-- 100 -->
      <defs>
       <path d="M 12.40625 8.296875 
L 28.515625 8.296875 
L 28.515625 63.921875 
L 10.984375 60.40625 
L 10.984375 69.390625 
L 28.421875 72.90625 
L 38.28125 72.90625 
L 38.28125 8.296875 
L 54.390625 8.296875 
L 54.390625 0 
L 12.40625 0 
z
" id="DejaVuSans-49"/>
      </defs>
      <g transform="translate(227.431965 322.182437)scale(0.1 -0.1)">
       <use xlink:href="#DejaVuSans-49"/>
       <use x="63.623047" xlink:href="#DejaVuSans-48"/>
       <use x="127.246094" xlink:href="#DejaVuSans-48"/>
      </g>
     </g>
    </g>
    <g id="xtick_6">
     <g id="line2d_6">
      <g>
       <use style="stroke:#000000;stroke-width:0.8;" x="277.761462" xlink:href="#m270a0e9a64" y="307.584"/>
      </g>
     </g>
     <g id="text_6">
      <!-- 125 -->
      <g transform="translate(268.217712 322.182437)scale(0.1 -0.1)">
       <use xlink:href="#DejaVuSans-49"/>
       <use x="63.623047" xlink:href="#DejaVuSans-50"/>
       <use x="127.246094" xlink:href="#DejaVuSans-53"/>
      </g>
     </g>
    </g>
    <g id="xtick_7">
     <g id="line2d_7">
      <g>
       <use style="stroke:#000000;stroke-width:0.8;" x="318.547209" xlink:href="#m270a0e9a64" y="307.584"/>
      </g>
     </g>
     <g id="text_7">
      <!-- 150 -->
      <g transform="translate(309.003459 322.182437)scale(0.1 -0.1)">
       <use xlink:href="#DejaVuSans-49"/>
       <use x="63.623047" xlink:href="#DejaVuSans-53"/>
       <use x="127.246094" xlink:href="#DejaVuSans-48"/>
      </g>
     </g>
    </g>
    <g id="xtick_8">
     <g id="line2d_8">
      <g>
       <use style="stroke:#000000;stroke-width:0.8;" x="359.332956" xlink:href="#m270a0e9a64" y="307.584"/>
      </g>
     </g>
     <g id="text_8">
      <!-- 175 -->
      <g transform="translate(349.789206 322.182437)scale(0.1 -0.1)">
       <use xlink:href="#DejaVuSans-49"/>
       <use x="63.623047" xlink:href="#DejaVuSans-55"/>
       <use x="127.246094" xlink:href="#DejaVuSans-53"/>
      </g>
     </g>
    </g>
    <g id="xtick_9">
     <g id="line2d_9">
      <g>
       <use style="stroke:#000000;stroke-width:0.8;" x="400.118703" xlink:href="#m270a0e9a64" y="307.584"/>
      </g>
     </g>
     <g id="text_9">
      <!-- 200 -->
      <g transform="translate(390.574953 322.182437)scale(0.1 -0.1)">
       <use xlink:href="#DejaVuSans-50"/>
       <use x="63.623047" xlink:href="#DejaVuSans-48"/>
       <use x="127.246094" xlink:href="#DejaVuSans-48"/>
      </g>
     </g>
    </g>
   </g>
   <g id="matplotlib.axis_2">
    <g id="ytick_1">
     <g id="line2d_10">
      <defs>
       <path d="M 0 0 
L -3.5 0 
" id="m430659a5ca" style="stroke:#000000;stroke-width:0.8;"/>
      </defs>
      <g>
       <use style="stroke:#000000;stroke-width:0.8;" x="57.6" xlink:href="#m430659a5ca" y="300.508252"/>
      </g>
     </g>
     <g id="text_10">
      <!-- 0 -->
      <g transform="translate(44.2375 304.307471)scale(0.1 -0.1)">
       <use xlink:href="#DejaVuSans-48"/>
      </g>
     </g>
    </g>
    <g id="ytick_2">
     <g id="line2d_11">
      <g>
       <use style="stroke:#000000;stroke-width:0.8;" x="57.6" xlink:href="#m430659a5ca" y="246.886255"/>
      </g>
     </g>
     <g id="text_11">
      <!-- 5 -->
      <g transform="translate(44.2375 250.685474)scale(0.1 -0.1)">
       <use xlink:href="#DejaVuSans-53"/>
      </g>
     </g>
    </g>
    <g id="ytick_3">
     <g id="line2d_12">
      <g>
       <use style="stroke:#000000;stroke-width:0.8;" x="57.6" xlink:href="#m430659a5ca" y="193.264258"/>
      </g>
     </g>
     <g id="text_12">
      <!-- 10 -->
      <g transform="translate(37.875 197.063476)scale(0.1 -0.1)">
       <use xlink:href="#DejaVuSans-49"/>
       <use x="63.623047" xlink:href="#DejaVuSans-48"/>
      </g>
     </g>
    </g>
    <g id="ytick_4">
     <g id="line2d_13">
      <g>
       <use style="stroke:#000000;stroke-width:0.8;" x="57.6" xlink:href="#m430659a5ca" y="139.64226"/>
      </g>
     </g>
     <g id="text_13">
      <!-- 15 -->
      <g transform="translate(37.875 143.441479)scale(0.1 -0.1)">
       <use xlink:href="#DejaVuSans-49"/>
       <use x="63.623047" xlink:href="#DejaVuSans-53"/>
      </g>
     </g>
    </g>
    <g id="ytick_5">
     <g id="line2d_14">
      <g>
       <use style="stroke:#000000;stroke-width:0.8;" x="57.6" xlink:href="#m430659a5ca" y="86.020263"/>
      </g>
     </g>
     <g id="text_14">
      <!-- 20 -->
      <g transform="translate(37.875 89.819482)scale(0.1 -0.1)">
       <use xlink:href="#DejaVuSans-50"/>
       <use x="63.623047" xlink:href="#DejaVuSans-48"/>
      </g>
     </g>
    </g>
   </g>
   <g id="line2d_15">
    <path clip-path="url(#p40411adf54)" d="M 73.832727 288.726295 
L 85.252736 288.726295 
L 86.884166 288.414239 
L 88.515596 288.726295 
L 90.147026 288.414239 
L 91.778456 288.414239 
L 93.409886 288.726295 
L 96.672746 288.726295 
L 98.304175 288.414239 
L 99.935605 288.414239 
L 101.567035 288.726295 
L 104.829895 288.726295 
L 106.461325 288.414239 
L 108.092755 288.414239 
L 109.724185 288.726295 
L 114.618474 288.726295 
L 116.249904 288.570267 
L 117.881334 288.726295 
L 121.144194 288.726295 
L 122.775624 288.570267 
L 124.407053 288.570267 
L 126.038483 288.726295 
L 127.669913 288.414239 
L 129.301343 288.726295 
L 130.932773 288.726295 
L 132.564203 288.414239 
L 134.195633 288.726295 
L 135.827063 288.414239 
L 137.458492 288.414239 
L 139.089922 288.726295 
L 143.984212 288.726295 
L 145.615642 288.570267 
L 147.247072 288.726295 
L 148.878502 288.726295 
L 150.509931 288.414239 
L 152.141361 288.726295 
L 153.772791 288.414239 
L 155.404221 288.726295 
L 168.45566 288.726295 
L 170.08709 288.414239 
L 171.71852 288.414239 
L 173.34995 288.726295 
L 176.61281 288.414239 
L 178.244239 288.726295 
L 181.507099 288.414239 
L 183.138529 288.726295 
L 184.769959 288.414239 
L 186.401389 288.726295 
L 188.032819 288.414239 
L 189.664249 288.414239 
L 191.295678 288.726295 
L 192.927108 288.414239 
L 194.558538 288.726295 
L 199.452828 288.726295 
L 201.084258 288.414239 
L 202.715688 288.726295 
L 204.347117 288.414239 
L 205.978547 288.726295 
L 207.609977 288.726295 
L 209.241407 288.570267 
L 210.872837 288.726295 
L 219.029986 288.726295 
L 220.661416 288.570267 
L 222.292846 287.444739 
L 223.924276 288.855981 
L 225.555706 288.72637 
L 227.187136 288.906298 
L 230.449995 288.699595 
L 232.081425 288.470001 
L 233.712855 289.074469 
L 235.344285 288.136482 
L 236.975715 288.726274 
L 238.607145 288.773658 
L 240.238575 287.608285 
L 241.870005 287.821196 
L 243.501434 287.712082 
L 245.132864 288.273083 
L 246.764294 287.993728 
L 250.027154 288.737259 
L 251.658584 288.564345 
L 253.290014 287.444739 
L 254.921444 288.187907 
L 256.552873 286.862989 
L 258.184303 263.874876 
L 259.815733 270.113096 
L 261.447163 261.837607 
L 263.078593 286.931443 
L 264.710023 286.732607 
L 266.341453 287.964377 
L 267.972883 287.759955 
L 269.604312 248.565905 
L 271.235742 287.145901 
L 272.867172 288.307611 
L 274.498602 287.331737 
L 277.761462 287.179899 
L 279.392892 242.836019 
L 281.024322 262.860165 
L 282.655751 255.189656 
L 284.287181 254.647693 
L 285.918611 258.535434 
L 289.181471 256.422287 
L 290.812901 286.201487 
L 292.444331 256.353331 
L 294.075761 287.78778 
L 295.70719 248.456752 
L 297.33862 237.575189 
L 298.97005 247.756332 
L 300.60148 237.762194 
L 302.23291 256.063486 
L 303.86434 257.368797 
L 305.49577 267.35716 
L 307.1272 265.214543 
L 308.75863 261.963003 
L 310.390059 263.139095 
L 312.021489 255.233128 
L 313.652919 242.942139 
L 315.284349 258.860614 
L 316.915779 206.172484 
L 318.547209 249.996598 
L 320.178639 255.817328 
L 321.810069 244.592878 
L 323.441498 248.653939 
L 325.072928 271.205764 
L 326.704358 267.871374 
L 328.335788 241.318782 
L 329.967218 266.94498 
L 331.598648 254.622094 
L 333.230078 249.790299 
L 334.861508 269.738911 
L 336.492937 264.814457 
L 338.124367 271.173032 
L 339.755797 251.982841 
L 341.387227 188.926974 
L 343.018657 274.457544 
L 344.650087 258.900977 
L 346.281517 253.511666 
L 347.912947 234.779075 
L 349.544376 256.589595 
L 351.175806 263.18947 
L 352.807236 287.231381 
L 354.438666 253.068579 
L 356.070096 269.468476 
L 357.701526 287.997804 
L 359.332956 287.920245 
L 360.964386 288.623861 
L 362.595815 270.875402 
L 364.227245 263.611382 
L 365.858675 267.977658 
L 367.490105 287.300696 
L 369.121535 284.122944 
L 370.752965 279.540627 
L 372.384395 286.013466 
L 374.015825 270.00279 
L 375.647254 279.919578 
L 377.278684 288.507778 
L 378.910114 288.694805 
L 380.541544 287.920457 
L 382.172974 288.701538 
L 383.804404 282.168795 
L 385.435834 288.493013 
L 387.067264 288.372062 
L 388.698693 286.135908 
L 390.330123 287.865038 
L 391.961553 281.998811 
L 393.592983 287.79123 
L 395.224413 286.867182 
L 398.487273 283.733743 
L 398.487273 283.733743 
" style="fill:none;stroke:#1f77b4;stroke-linecap:square;stroke-width:0.25;"/>
   </g>
   <g id="line2d_16">
    <path clip-path="url(#p40411adf54)" d="M 73.832727 288.224368 
L 75.464157 288.384396 
L 77.095587 288.253453 
L 85.252736 288.291899 
L 86.884166 288.17968 
L 88.515596 288.359098 
L 91.778456 288.156836 
L 93.409886 288.281871 
L 112.987044 288.326892 
L 114.618474 288.413814 
L 116.249904 288.279417 
L 117.881334 288.362552 
L 121.144194 288.243424 
L 126.038483 288.304382 
L 127.669913 288.195616 
L 129.301343 288.27563 
L 132.564203 288.256907 
L 134.195633 288.279084 
L 135.827063 288.17968 
L 140.721352 288.291899 
L 147.247072 288.29502 
L 148.878502 288.355977 
L 150.509931 288.218127 
L 152.141361 288.314077 
L 153.772791 288.218127 
L 157.035651 288.272509 
L 158.667081 288.211219 
L 160.298511 288.355977 
L 171.71852 288.157169 
L 173.34995 288.307502 
L 176.61281 288.237517 
L 178.244239 288.308169 
L 181.507099 288.115269 
L 183.138529 288.39097 
L 184.769959 288.227822 
L 189.664249 288.20219 
L 191.295678 288.310956 
L 192.927108 288.224701 
L 194.558538 288.324105 
L 196.189968 288.239971 
L 197.821398 288.327225 
L 199.452828 283.218228 
L 201.084258 285.216938 
L 202.715688 283.517916 
L 204.347117 285.626203 
L 205.978547 288.320259 
L 207.609977 287.032612 
L 209.241407 283.056259 
L 210.872837 286.686602 
L 212.504267 285.629513 
L 214.135697 284.312261 
L 215.767127 285.454695 
L 217.398556 281.994842 
L 219.029986 288.275454 
L 220.661416 283.147828 
L 222.292846 269.816881 
L 223.924276 286.782109 
L 225.555706 282.983819 
L 227.187136 286.024137 
L 228.818566 285.41397 
L 230.449995 281.778521 
L 232.081425 284.656659 
L 233.712855 288.570897 
L 235.344285 284.431309 
L 236.975715 275.979145 
L 238.607145 284.420639 
L 240.238575 273.464886 
L 241.870005 275.137648 
L 243.501434 267.101725 
L 245.132864 279.475771 
L 246.764294 266.246969 
L 248.395724 275.180551 
L 250.027154 280.479473 
L 251.658584 276.800714 
L 253.290014 275.364802 
L 254.921444 270.209457 
L 256.552873 267.951143 
L 258.184303 258.600475 
L 259.815733 261.30356 
L 261.447163 257.131612 
L 263.078593 270.997772 
L 264.710023 259.550516 
L 266.341453 267.569128 
L 267.972883 271.710738 
L 269.604312 237.463682 
L 271.235742 269.739364 
L 272.867172 280.820575 
L 276.130032 265.384768 
L 277.761462 273.797397 
L 279.392892 225.261166 
L 281.024322 251.887111 
L 282.655751 250.923058 
L 284.287181 248.028935 
L 285.918611 256.15235 
L 287.550041 255.554754 
L 289.181471 225.631317 
L 290.812901 253.370443 
L 292.444331 233.733287 
L 294.075761 248.198375 
L 295.70719 212.5943 
L 297.33862 190.420316 
L 298.97005 215.584168 
L 300.60148 188.910837 
L 302.23291 231.799708 
L 303.86434 232.467622 
L 305.49577 245.770221 
L 308.75863 219.601744 
L 310.390059 223.015649 
L 312.021489 226.726433 
L 313.652919 210.278412 
L 315.284349 226.184876 
L 316.915779 183.95765 
L 320.178639 223.587062 
L 321.810069 225.625862 
L 323.441498 195.003683 
L 325.072928 246.149384 
L 326.704358 240.138293 
L 328.335788 214.042857 
L 329.967218 233.465912 
L 331.598648 228.423058 
L 333.230078 218.447355 
L 334.861508 240.184201 
L 336.492937 234.33649 
L 338.124367 253.964223 
L 339.755797 232.058589 
L 341.387227 177.576183 
L 343.018657 233.957058 
L 344.650087 232.797129 
L 346.281517 215.413652 
L 347.912947 211.230908 
L 349.544376 244.151527 
L 351.175806 258.775069 
L 352.807236 280.320477 
L 354.438666 242.374641 
L 356.070096 263.418773 
L 357.701526 274.719035 
L 359.332956 259.436413 
L 360.964386 274.376726 
L 362.595815 258.52291 
L 364.227245 260.812758 
L 365.858675 260.703631 
L 367.490105 275.829362 
L 369.121535 261.423923 
L 370.752965 272.239737 
L 372.384395 261.250154 
L 374.015825 265.213165 
L 375.647254 261.574788 
L 377.278684 271.747037 
L 378.910114 278.785194 
L 380.541544 266.310652 
L 382.172974 276.688111 
L 383.804404 261.711522 
L 385.435834 272.825642 
L 387.067264 272.838627 
L 388.698693 264.206274 
L 390.330123 258.810895 
L 391.961553 261.029607 
L 393.592983 275.336916 
L 395.224413 266.543244 
L 396.855843 262.601999 
L 398.487273 260.131291 
L 398.487273 260.131291 
" style="fill:none;stroke:#2ca02c;stroke-linecap:square;stroke-width:0.75;"/>
   </g>
   <g id="patch_3">
    <path d="M 57.6 307.584 
L 57.6 41.472 
" style="fill:none;stroke:#000000;stroke-linecap:square;stroke-linejoin:miter;stroke-width:0.8;"/>
   </g>
   <g id="patch_4">
    <path d="M 414.72 307.584 
L 414.72 41.472 
" style="fill:none;stroke:#000000;stroke-linecap:square;stroke-linejoin:miter;stroke-width:0.8;"/>
   </g>
   <g id="patch_5">
    <path d="M 57.6 307.584 
L 414.72 307.584 
" style="fill:none;stroke:#000000;stroke-linecap:square;stroke-linejoin:miter;stroke-width:0.8;"/>
   </g>
   <g id="patch_6">
    <path d="M 57.6 41.472 
L 414.72 41.472 
" style="fill:none;stroke:#000000;stroke-linecap:square;stroke-linejoin:miter;stroke-width:0.8;"/>
   </g>
   <g id="legend_1">
    <g id="patch_7">
     <path d="M 338.234063 78.82825 
L 407.72 78.82825 
Q 409.72 78.82825 409.72 76.82825 
L 409.72 48.472 
Q 409.72 46.472 407.72 46.472 
L 338.234063 46.472 
Q 336.234063 46.472 336.234063 48.472 
L 336.234063 76.82825 
Q 336.234063 78.82825 338.234063 78.82825 
z
" style="fill:#ffffff;opacity:0.8;stroke:#cccccc;stroke-linejoin:miter;"/>
    </g>
    <g id="line2d_17">
     <path d="M 340.234063 54.570437 
L 360.234063 54.570437 
" style="fill:none;stroke:#1f77b4;stroke-linecap:square;stroke-width:0.25;"/>
    </g>
    <g id="line2d_18"/>
    <g id="text_15">
     <!-- median -->
     <defs>
      <path d="M 52 44.1875 
Q 55.375 50.25 60.0625 53.125 
Q 64.75 56 71.09375 56 
Q 79.640625 56 84.28125 50.015625 
Q 88.921875 44.046875 88.921875 33.015625 
L 88.921875 0 
L 79.890625 0 
L 79.890625 32.71875 
Q 79.890625 40.578125 77.09375 44.375 
Q 74.3125 48.1875 68.609375 48.1875 
Q 61.625 48.1875 57.5625 43.546875 
Q 53.515625 38.921875 53.515625 30.90625 
L 53.515625 0 
L 44.484375 0 
L 44.484375 32.71875 
Q 44.484375 40.625 41.703125 44.40625 
Q 38.921875 48.1875 33.109375 48.1875 
Q 26.21875 48.1875 22.15625 43.53125 
Q 18.109375 38.875 18.109375 30.90625 
L 18.109375 0 
L 9.078125 0 
L 9.078125 54.6875 
L 18.109375 54.6875 
L 18.109375 46.1875 
Q 21.1875 51.21875 25.484375 53.609375 
Q 29.78125 56 35.6875 56 
Q 41.65625 56 45.828125 52.96875 
Q 50 49.953125 52 44.1875 
z
" id="DejaVuSans-109"/>
      <path d="M 56.203125 29.59375 
L 56.203125 25.203125 
L 14.890625 25.203125 
Q 15.484375 15.921875 20.484375 11.0625 
Q 25.484375 6.203125 34.421875 6.203125 
Q 39.59375 6.203125 44.453125 7.46875 
Q 49.3125 8.734375 54.109375 11.28125 
L 54.109375 2.78125 
Q 49.265625 0.734375 44.1875 -0.34375 
Q 39.109375 -1.421875 33.890625 -1.421875 
Q 20.796875 -1.421875 13.15625 6.1875 
Q 5.515625 13.8125 5.515625 26.8125 
Q 5.515625 40.234375 12.765625 48.109375 
Q 20.015625 56 32.328125 56 
Q 43.359375 56 49.78125 48.890625 
Q 56.203125 41.796875 56.203125 29.59375 
z
M 47.21875 32.234375 
Q 47.125 39.59375 43.09375 43.984375 
Q 39.0625 48.390625 32.421875 48.390625 
Q 24.90625 48.390625 20.390625 44.140625 
Q 15.875 39.890625 15.1875 32.171875 
z
" id="DejaVuSans-101"/>
      <path d="M 45.40625 46.390625 
L 45.40625 75.984375 
L 54.390625 75.984375 
L 54.390625 0 
L 45.40625 0 
L 45.40625 8.203125 
Q 42.578125 3.328125 38.25 0.953125 
Q 33.9375 -1.421875 27.875 -1.421875 
Q 17.96875 -1.421875 11.734375 6.484375 
Q 5.515625 14.40625 5.515625 27.296875 
Q 5.515625 40.1875 11.734375 48.09375 
Q 17.96875 56 27.875 56 
Q 33.9375 56 38.25 53.625 
Q 42.578125 51.265625 45.40625 46.390625 
z
M 14.796875 27.296875 
Q 14.796875 17.390625 18.875 11.75 
Q 22.953125 6.109375 30.078125 6.109375 
Q 37.203125 6.109375 41.296875 11.75 
Q 45.40625 17.390625 45.40625 27.296875 
Q 45.40625 37.203125 41.296875 42.84375 
Q 37.203125 48.484375 30.078125 48.484375 
Q 22.953125 48.484375 18.875 42.84375 
Q 14.796875 37.203125 14.796875 27.296875 
z
" id="DejaVuSans-100"/>
      <path d="M 9.421875 54.6875 
L 18.40625 54.6875 
L 18.40625 0 
L 9.421875 0 
z
M 9.421875 75.984375 
L 18.40625 75.984375 
L 18.40625 64.59375 
L 9.421875 64.59375 
z
" id="DejaVuSans-105"/>
      <path d="M 34.28125 27.484375 
Q 23.390625 27.484375 19.1875 25 
Q 14.984375 22.515625 14.984375 16.5 
Q 14.984375 11.71875 18.140625 8.90625 
Q 21.296875 6.109375 26.703125 6.109375 
Q 34.1875 6.109375 38.703125 11.40625 
Q 43.21875 16.703125 43.21875 25.484375 
L 43.21875 27.484375 
z
M 52.203125 31.203125 
L 52.203125 0 
L 43.21875 0 
L 43.21875 8.296875 
Q 40.140625 3.328125 35.546875 0.953125 
Q 30.953125 -1.421875 24.3125 -1.421875 
Q 15.921875 -1.421875 10.953125 3.296875 
Q 6 8.015625 6 15.921875 
Q 6 25.140625 12.171875 29.828125 
Q 18.359375 34.515625 30.609375 34.515625 
L 43.21875 34.515625 
L 43.21875 35.40625 
Q 43.21875 41.609375 39.140625 45 
Q 35.0625 48.390625 27.6875 48.390625 
Q 23 48.390625 18.546875 47.265625 
Q 14.109375 46.140625 10.015625 43.890625 
L 10.015625 52.203125 
Q 14.9375 54.109375 19.578125 55.046875 
Q 24.21875 56 28.609375 56 
Q 40.484375 56 46.34375 49.84375 
Q 52.203125 43.703125 52.203125 31.203125 
z
" id="DejaVuSans-97"/>
      <path d="M 54.890625 33.015625 
L 54.890625 0 
L 45.90625 0 
L 45.90625 32.71875 
Q 45.90625 40.484375 42.875 44.328125 
Q 39.84375 48.1875 33.796875 48.1875 
Q 26.515625 48.1875 22.3125 43.546875 
Q 18.109375 38.921875 18.109375 30.90625 
L 18.109375 0 
L 9.078125 0 
L 9.078125 54.6875 
L 18.109375 54.6875 
L 18.109375 46.1875 
Q 21.34375 51.125 25.703125 53.5625 
Q 30.078125 56 35.796875 56 
Q 45.21875 56 50.046875 50.171875 
Q 54.890625 44.34375 54.890625 33.015625 
z
" id="DejaVuSans-110"/>
     </defs>
     <g transform="translate(368.234063 58.070437)scale(0.1 -0.1)">
      <use xlink:href="#DejaVuSans-109"/>
      <use x="97.412109" xlink:href="#DejaVuSans-101"/>
      <use x="158.935547" xlink:href="#DejaVuSans-100"/>
      <use x="222.412109" xlink:href="#DejaVuSans-105"/>
      <use x="250.195312" xlink:href="#DejaVuSans-97"/>
      <use x="311.474609" xlink:href="#DejaVuSans-110"/>
     </g>
    </g>
    <g id="line2d_19">
     <path d="M 340.234063 69.248562 
L 360.234063 69.248562 
" style="fill:none;stroke:#2ca02c;stroke-linecap:square;stroke-width:0.75;"/>
    </g>
    <g id="line2d_20"/>
    <g id="text_16">
     <!-- mean -->
     <g transform="translate(368.234063 72.748562)scale(0.1 -0.1)">
      <use xlink:href="#DejaVuSans-109"/>
      <use x="97.412109" xlink:href="#DejaVuSans-101"/>
      <use x="158.935547" xlink:href="#DejaVuSans-97"/>
      <use x="220.214844" xlink:href="#DejaVuSans-110"/>
     </g>
    </g>
   </g>
  </g>
  <g id="text_17">
   <!-- log_loss.mean over generations -->
   <defs>
    <path d="M 9.421875 75.984375 
L 18.40625 75.984375 
L 18.40625 0 
L 9.421875 0 
z
" id="DejaVuSans-108"/>
    <path d="M 30.609375 48.390625 
Q 23.390625 48.390625 19.1875 42.75 
Q 14.984375 37.109375 14.984375 27.296875 
Q 14.984375 17.484375 19.15625 11.84375 
Q 23.34375 6.203125 30.609375 6.203125 
Q 37.796875 6.203125 41.984375 11.859375 
Q 46.1875 17.53125 46.1875 27.296875 
Q 46.1875 37.015625 41.984375 42.703125 
Q 37.796875 48.390625 30.609375 48.390625 
z
M 30.609375 56 
Q 42.328125 56 49.015625 48.375 
Q 55.71875 40.765625 55.71875 27.296875 
Q 55.71875 13.875 49.015625 6.21875 
Q 42.328125 -1.421875 30.609375 -1.421875 
Q 18.84375 -1.421875 12.171875 6.21875 
Q 5.515625 13.875 5.515625 27.296875 
Q 5.515625 40.765625 12.171875 48.375 
Q 18.84375 56 30.609375 56 
z
" id="DejaVuSans-111"/>
    <path d="M 45.40625 27.984375 
Q 45.40625 37.75 41.375 43.109375 
Q 37.359375 48.484375 30.078125 48.484375 
Q 22.859375 48.484375 18.828125 43.109375 
Q 14.796875 37.75 14.796875 27.984375 
Q 14.796875 18.265625 18.828125 12.890625 
Q 22.859375 7.515625 30.078125 7.515625 
Q 37.359375 7.515625 41.375 12.890625 
Q 45.40625 18.265625 45.40625 27.984375 
z
M 54.390625 6.78125 
Q 54.390625 -7.171875 48.1875 -13.984375 
Q 42 -20.796875 29.203125 -20.796875 
Q 24.46875 -20.796875 20.265625 -20.09375 
Q 16.0625 -19.390625 12.109375 -17.921875 
L 12.109375 -9.1875 
Q 16.0625 -11.328125 19.921875 -12.34375 
Q 23.78125 -13.375 27.78125 -13.375 
Q 36.625 -13.375 41.015625 -8.765625 
Q 45.40625 -4.15625 45.40625 5.171875 
L 45.40625 9.625 
Q 42.625 4.78125 38.28125 2.390625 
Q 33.9375 0 27.875 0 
Q 17.828125 0 11.671875 7.65625 
Q 5.515625 15.328125 5.515625 27.984375 
Q 5.515625 40.671875 11.671875 48.328125 
Q 17.828125 56 27.875 56 
Q 33.9375 56 38.28125 53.609375 
Q 42.625 51.21875 45.40625 46.390625 
L 45.40625 54.6875 
L 54.390625 54.6875 
z
" id="DejaVuSans-103"/>
    <path d="M 50.984375 -16.609375 
L 50.984375 -23.578125 
L -0.984375 -23.578125 
L -0.984375 -16.609375 
z
" id="DejaVuSans-95"/>
    <path d="M 44.28125 53.078125 
L 44.28125 44.578125 
Q 40.484375 46.53125 36.375 47.5 
Q 32.28125 48.484375 27.875 48.484375 
Q 21.1875 48.484375 17.84375 46.4375 
Q 14.5 44.390625 14.5 40.28125 
Q 14.5 37.15625 16.890625 35.375 
Q 19.28125 33.59375 26.515625 31.984375 
L 29.59375 31.296875 
Q 39.15625 29.25 43.1875 25.515625 
Q 47.21875 21.78125 47.21875 15.09375 
Q 47.21875 7.46875 41.1875 3.015625 
Q 35.15625 -1.421875 24.609375 -1.421875 
Q 20.21875 -1.421875 15.453125 -0.5625 
Q 10.6875 0.296875 5.421875 2 
L 5.421875 11.28125 
Q 10.40625 8.6875 15.234375 7.390625 
Q 20.0625 6.109375 24.8125 6.109375 
Q 31.15625 6.109375 34.5625 8.28125 
Q 37.984375 10.453125 37.984375 14.40625 
Q 37.984375 18.0625 35.515625 20.015625 
Q 33.0625 21.96875 24.703125 23.78125 
L 21.578125 24.515625 
Q 13.234375 26.265625 9.515625 29.90625 
Q 5.8125 33.546875 5.8125 39.890625 
Q 5.8125 47.609375 11.28125 51.796875 
Q 16.75 56 26.8125 56 
Q 31.78125 56 36.171875 55.265625 
Q 40.578125 54.546875 44.28125 53.078125 
z
" id="DejaVuSans-115"/>
    <path d="M 10.6875 12.40625 
L 21 12.40625 
L 21 0 
L 10.6875 0 
z
" id="DejaVuSans-46"/>
    <path id="DejaVuSans-32"/>
    <path d="M 2.984375 54.6875 
L 12.5 54.6875 
L 29.59375 8.796875 
L 46.6875 54.6875 
L 56.203125 54.6875 
L 35.6875 0 
L 23.484375 0 
z
" id="DejaVuSans-118"/>
    <path d="M 41.109375 46.296875 
Q 39.59375 47.171875 37.8125 47.578125 
Q 36.03125 48 33.890625 48 
Q 26.265625 48 22.1875 43.046875 
Q 18.109375 38.09375 18.109375 28.8125 
L 18.109375 0 
L 9.078125 0 
L 9.078125 54.6875 
L 18.109375 54.6875 
L 18.109375 46.1875 
Q 20.953125 51.171875 25.484375 53.578125 
Q 30.03125 56 36.53125 56 
Q 37.453125 56 38.578125 55.875 
Q 39.703125 55.765625 41.0625 55.515625 
z
" id="DejaVuSans-114"/>
    <path d="M 18.3125 70.21875 
L 18.3125 54.6875 
L 36.8125 54.6875 
L 36.8125 47.703125 
L 18.3125 47.703125 
L 18.3125 18.015625 
Q 18.3125 11.328125 20.140625 9.421875 
Q 21.96875 7.515625 27.59375 7.515625 
L 36.8125 7.515625 
L 36.8125 0 
L 27.59375 0 
Q 17.1875 0 13.234375 3.875 
Q 9.28125 7.765625 9.28125 18.015625 
L 9.28125 47.703125 
L 2.6875 47.703125 
L 2.6875 54.6875 
L 9.28125 54.6875 
L 9.28125 70.21875 
z
" id="DejaVuSans-116"/>
   </defs>
   <g transform="translate(134.789062 16.030125)scale(0.12 -0.12)">
    <use xlink:href="#DejaVuSans-108"/>
    <use x="27.783203" xlink:href="#DejaVuSans-111"/>
    <use x="88.964844" xlink:href="#DejaVuSans-103"/>
    <use x="152.441406" xlink:href="#DejaVuSans-95"/>
    <use x="202.441406" xlink:href="#DejaVuSans-108"/>
    <use x="230.224609" xlink:href="#DejaVuSans-111"/>
    <use x="291.40625" xlink:href="#DejaVuSans-115"/>
    <use x="343.505859" xlink:href="#DejaVuSans-115"/>
    <use x="395.605469" xlink:href="#DejaVuSans-46"/>
    <use x="427.392578" xlink:href="#DejaVuSans-109"/>
    <use x="524.804688" xlink:href="#DejaVuSans-101"/>
    <use x="586.328125" xlink:href="#DejaVuSans-97"/>
    <use x="647.607422" xlink:href="#DejaVuSans-110"/>
    <use x="710.986328" xlink:href="#DejaVuSans-32"/>
    <use x="742.773438" xlink:href="#DejaVuSans-111"/>
    <use x="803.955078" xlink:href="#DejaVuSans-118"/>
    <use x="863.134766" xlink:href="#DejaVuSans-101"/>
    <use x="924.658203" xlink:href="#DejaVuSans-114"/>
    <use x="965.771484" xlink:href="#DejaVuSans-32"/>
    <use x="997.558594" xlink:href="#DejaVuSans-103"/>
    <use x="1061.035156" xlink:href="#DejaVuSans-101"/>
    <use x="1122.558594" xlink:href="#DejaVuSans-110"/>
    <use x="1185.9375" xlink:href="#DejaVuSans-101"/>
    <use x="1247.460938" xlink:href="#DejaVuSans-114"/>
    <use x="1288.574219" xlink:href="#DejaVuSans-97"/>
    <use x="1349.853516" xlink:href="#DejaVuSans-116"/>
    <use x="1389.0625" xlink:href="#DejaVuSans-105"/>
    <use x="1416.845703" xlink:href="#DejaVuSans-111"/>
    <use x="1478.027344" xlink:href="#DejaVuSans-110"/>
    <use x="1541.40625" xlink:href="#DejaVuSans-115"/>
   </g>
  </g>
 </g>
 <defs>
  <clipPath id="p40411adf54">
   <rect height="266.112" width="357.12" x="57.6" y="41.472"/>
  </clipPath>
 </defs>
</svg>
