<?xml version="1.0" encoding="utf-8" standalone="no"?>
<!DOCTYPE svg PUBLIC "-//W3C//DTD SVG 1.1//EN"
  "http://www.w3.org/Graphics/SVG/1.1/DTD/svg11.dtd">
<!-- Created with matplotlib (https://matplotlib.org/) -->
<svg height="345.6pt" version="1.1" viewBox="0 0 460.8 345.6" width="460.8pt" xmlns="http://www.w3.org/2000/svg" xmlns:xlink="http://www.w3.org/1999/xlink">
 <defs>
  <style type="text/css">
*{stroke-linecap:butt;stroke-linejoin:round;}
  </style>
 </defs>
 <g id="figure_1">
  <g id="patch_1">
   <path d="M 0 345.6 
L 460.8 345.6 
L 460.8 0 
L 0 0 
z
" style="fill:#ffffff;"/>
  </g>
  <g id="axes_1">
   <g id="patch_2">
    <path clip-path="url(#pd324625603)" d="M 88.589752 63.33361 
Q 117.303082 119.797613 146.016411 176.261616 
" style="fill:none;stroke:#000000;stroke-linecap:round;stroke-opacity:0.9;stroke-width:0.4;"/>
   </g>
   <g id="patch_3">
    <path clip-path="url(#pd324625603)" d="M 88.589752 237.449403 
Q 146.030823 209.210316 203.471893 180.97123 
" style="fill:none;stroke:#000000;stroke-linecap:round;stroke-opacity:0.9;stroke-width:0.4;"/>
   </g>
   <g id="patch_4">
    <path clip-path="url(#pd324625603)" d="M 88.589752 237.449403 
Q 234.423906 208.771502 380.25806 180.093602 
" style="fill:none;stroke:#000000;stroke-linecap:round;stroke-opacity:0.9;stroke-width:0.4;"/>
   </g>
   <g id="patch_5">
    <path clip-path="url(#pd324625603)" d="M 88.589752 237.449403 
Q 234.396885 247.920987 380.204018 258.39257 
" style="fill:none;stroke:#000000;stroke-linecap:round;stroke-opacity:0.9;stroke-width:0.4;"/>
   </g>
   <g id="patch_6">
    <path clip-path="url(#pd324625603)" d="M 147.617851 179.410805 
Q 175.364733 179.410805 203.111614 179.410805 
" style="fill:none;stroke:#000000;stroke-linecap:round;stroke-opacity:0.9;stroke-width:0.4;"/>
   </g>
   <g id="patch_7">
    <path clip-path="url(#pd324625603)" d="M 206.64595 179.410805 
Q 234.392832 179.410805 262.139713 179.410805 
" style="fill:none;stroke:#000000;stroke-linecap:round;stroke-opacity:0.9;stroke-width:0.4;"/>
   </g>
   <g id="patch_8">
    <path clip-path="url(#pd324625603)" d="M 265.67405 179.410805 
Q 293.420931 179.410805 321.167812 179.410805 
" style="fill:none;stroke:#000000;stroke-linecap:round;stroke-opacity:0.9;stroke-width:0.4;"/>
   </g>
   <g id="patch_9">
    <path clip-path="url(#pd324625603)" d="M 324.702149 179.410805 
Q 353.15968 141.211492 381.617212 103.012178 
" style="fill:none;stroke:#000000;stroke-linecap:round;stroke-opacity:0.9;stroke-width:0.4;"/>
   </g>
   <g id="PathCollection_1">
    <defs>
     <path d="M 0 3.535534 
C 0.937635 3.535534 1.836992 3.163008 2.5 2.5 
C 3.163008 1.836992 3.535534 0.937635 3.535534 0 
C 3.535534 -0.937635 3.163008 -1.836992 2.5 -2.5 
C 1.836992 -3.163008 0.937635 -3.535534 0 -3.535534 
C -0.937635 -3.535534 -1.836992 -3.163008 -2.5 -2.5 
C -3.163008 -1.836992 -3.535534 -0.937635 -3.535534 0 
C -3.535534 0.937635 -3.163008 1.836992 -2.5 2.5 
C -1.836992 3.163008 -0.937635 3.535534 0 3.535534 
z
" id="C0_0_8b6e8392bf"/>
    </defs>
    <g clip-path="url(#pd324625603)">
     <use style="fill:#fdb462;fill-opacity:0.9;" x="88.589752" xlink:href="#C0_0_8b6e8392bf" y="63.33361"/>
    </g>
    <g clip-path="url(#pd324625603)">
     <use style="fill:#fdb462;fill-opacity:0.9;" x="88.589752" xlink:href="#C0_0_8b6e8392bf" y="121.372208"/>
    </g>
    <g clip-path="url(#pd324625603)">
     <use style="fill:#fdb462;fill-opacity:0.9;" x="88.589752" xlink:href="#C0_0_8b6e8392bf" y="179.410805"/>
    </g>
    <g clip-path="url(#pd324625603)">
     <use style="fill:#fdb462;fill-opacity:0.9;" x="88.589752" xlink:href="#C0_0_8b6e8392bf" y="237.449403"/>
    </g>
    <g clip-path="url(#pd324625603)">
     <use style="fill:#ffed6f;fill-opacity:0.9;" x="88.589752" xlink:href="#C0_0_8b6e8392bf" y="295.488"/>
    </g>
    <g clip-path="url(#pd324625603)">
     <use style="fill:#80b1d3;fill-opacity:0.9;" x="147.617851" xlink:href="#C0_0_8b6e8392bf" y="179.410805"/>
    </g>
    <g clip-path="url(#pd324625603)">
     <use style="fill:#80b1d3;fill-opacity:0.9;" x="206.64595" xlink:href="#C0_0_8b6e8392bf" y="179.410805"/>
    </g>
    <g clip-path="url(#pd324625603)">
     <use style="fill:#80b1d3;fill-opacity:0.9;" x="265.67405" xlink:href="#C0_0_8b6e8392bf" y="179.410805"/>
    </g>
    <g clip-path="url(#pd324625603)">
     <use style="fill:#80b1d3;fill-opacity:0.9;" x="324.702149" xlink:href="#C0_0_8b6e8392bf" y="179.410805"/>
    </g>
    <g clip-path="url(#pd324625603)">
     <use style="fill:#b3de69;fill-opacity:0.9;" x="383.730248" xlink:href="#C0_0_8b6e8392bf" y="100.175793"/>
    </g>
    <g clip-path="url(#pd324625603)">
     <use style="fill:#b3de69;fill-opacity:0.9;" x="383.730248" xlink:href="#C0_0_8b6e8392bf" y="179.410805"/>
    </g>
    <g clip-path="url(#pd324625603)">
     <use style="fill:#b3de69;fill-opacity:0.9;" x="383.730248" xlink:href="#C0_0_8b6e8392bf" y="258.645817"/>
    </g>
   </g>
  </g>
 </g>
 <defs>
  <clipPath id="pd324625603">
   <rect height="266.112" width="357.12" x="57.6" y="41.472"/>
  </clipPath>
 </defs>
</svg>
