<?xml version="1.0" encoding="utf-8" standalone="no"?>
<!DOCTYPE svg PUBLIC "-//W3C//DTD SVG 1.1//EN"
  "http://www.w3.org/Graphics/SVG/1.1/DTD/svg11.dtd">
<!-- Created with matplotlib (https://matplotlib.org/) -->
<svg height="345.6pt" version="1.1" viewBox="0 0 460.8 345.6" width="460.8pt" xmlns="http://www.w3.org/2000/svg" xmlns:xlink="http://www.w3.org/1999/xlink">
 <defs>
  <style type="text/css">
*{stroke-linecap:butt;stroke-linejoin:round;}
  </style>
 </defs>
 <g id="figure_1">
  <g id="patch_1">
   <path d="M 0 345.6 
L 460.8 345.6 
L 460.8 0 
L 0 0 
z
" style="fill:#ffffff;"/>
  </g>
  <g id="axes_1">
   <g id="patch_2">
    <path d="M 57.6 307.584 
L 414.72 307.584 
L 414.72 41.472 
L 57.6 41.472 
z
" style="fill:#ffffff;"/>
   </g>
   <g id="PolyCollection_1">
    <path clip-path="url(#pa90777de1e)" d="M 73.832727 284.60979 
L 73.832727 285.875818 
L 75.464157 285.875818 
L 77.095587 285.875818 
L 78.727017 285.875818 
L 80.358447 285.875818 
L 81.989877 285.875818 
L 83.621307 285.875818 
L 85.252736 285.875818 
L 86.884166 285.875818 
L 88.515596 285.875818 
L 90.147026 285.875818 
L 91.778456 285.875818 
L 93.409886 285.875818 
L 95.041316 285.875818 
L 96.672746 285.875818 
L 98.304175 285.875818 
L 99.935605 285.875818 
L 101.567035 285.875818 
L 103.198465 285.875818 
L 104.829895 285.875818 
L 106.461325 285.875818 
L 108.092755 285.875818 
L 109.724185 285.875818 
L 111.355614 285.875818 
L 112.987044 285.875818 
L 114.618474 285.875818 
L 116.249904 285.875818 
L 117.881334 285.875818 
L 119.512764 285.875818 
L 121.144194 285.875818 
L 122.775624 285.875818 
L 124.407053 285.875818 
L 126.038483 285.875818 
L 127.669913 285.875818 
L 129.301343 285.875818 
L 130.932773 285.875818 
L 132.564203 285.875818 
L 134.195633 285.875818 
L 135.827063 285.875818 
L 137.458492 285.875818 
L 139.089922 285.875818 
L 140.721352 285.875818 
L 142.352782 285.875818 
L 143.984212 285.875818 
L 145.615642 285.875818 
L 147.247072 285.875818 
L 148.878502 285.875818 
L 150.509931 285.875818 
L 152.141361 285.875818 
L 153.772791 285.875818 
L 155.404221 285.875818 
L 157.035651 285.875818 
L 158.667081 285.875818 
L 160.298511 285.875818 
L 161.929941 285.875818 
L 163.56137 285.875818 
L 165.1928 285.875818 
L 166.82423 285.875818 
L 168.45566 285.875818 
L 170.08709 285.875818 
L 171.71852 285.875818 
L 173.34995 285.875818 
L 174.98138 285.875818 
L 176.61281 285.875818 
L 178.244239 285.875818 
L 179.875669 285.875818 
L 181.507099 285.875818 
L 183.138529 285.875818 
L 184.769959 285.875818 
L 186.401389 285.875818 
L 188.032819 285.875818 
L 189.664249 285.875818 
L 191.295678 285.875818 
L 192.927108 285.875818 
L 194.558538 285.875818 
L 196.189968 285.875818 
L 197.821398 285.875818 
L 199.452828 285.875818 
L 201.084258 285.875818 
L 202.715688 285.875818 
L 204.347117 285.567542 
L 205.978547 286.840612 
L 207.609977 286.519614 
L 209.241407 286.783421 
L 210.872837 286.82799 
L 212.504267 286.883144 
L 214.135697 286.953874 
L 215.767127 286.958754 
L 217.398556 285.818595 
L 219.029986 286.713065 
L 220.661416 287.003731 
L 222.292846 285.629488 
L 223.924276 286.683485 
L 225.555706 286.788981 
L 227.187136 286.774587 
L 228.818566 286.985126 
L 230.449995 286.592328 
L 232.081425 286.427186 
L 233.712855 286.708128 
L 235.344285 286.87712 
L 236.975715 286.742852 
L 238.607145 286.769853 
L 240.238575 286.668951 
L 241.870005 286.813015 
L 243.501434 287.004878 
L 245.132864 286.979369 
L 246.764294 286.925168 
L 248.395724 286.820762 
L 250.027154 287.052244 
L 251.658584 286.262871 
L 253.290014 287.800958 
L 254.921444 287.020248 
L 256.552873 287.599196 
L 258.184303 285.940155 
L 259.815733 285.698522 
L 261.447163 287.709486 
L 263.078593 288.332088 
L 264.710023 288.282262 
L 266.341453 287.077179 
L 267.972883 288.321343 
L 269.604312 287.957215 
L 271.235742 288.133807 
L 272.867172 288.783577 
L 274.498602 288.782502 
L 276.130032 288.183358 
L 277.761462 287.840819 
L 279.392892 287.998455 
L 281.024322 291.372794 
L 282.655751 287.458531 
L 284.287181 287.891943 
L 285.918611 288.148432 
L 287.550041 288.584825 
L 289.181471 288.492909 
L 290.812901 288.595942 
L 292.444331 288.068401 
L 294.075761 288.080514 
L 295.70719 290.597266 
L 297.33862 292.139089 
L 298.97005 288.95803 
L 300.60148 288.22941 
L 302.23291 288.933335 
L 303.86434 290.164891 
L 305.49577 289.252699 
L 307.1272 291.036199 
L 308.75863 288.197354 
L 310.390059 289.415594 
L 312.021489 289.423328 
L 313.652919 288.999994 
L 315.284349 289.467579 
L 316.915779 290.964994 
L 318.547209 290.159639 
L 320.178639 291.615044 
L 321.810069 290.684649 
L 323.441498 291.95757 
L 325.072928 290.645876 
L 326.704358 292.429408 
L 328.335788 292.023891 
L 329.967218 292.539497 
L 331.598648 292.284209 
L 333.230078 291.70187 
L 334.861508 290.689127 
L 336.492937 292.929081 
L 338.124367 291.701159 
L 339.755797 289.714967 
L 341.387227 290.213262 
L 343.018657 290.676285 
L 344.650087 292.094577 
L 346.281517 292.134164 
L 347.912947 290.124282 
L 349.544376 291.616832 
L 351.175806 291.873531 
L 352.807236 291.186964 
L 354.438666 292.076888 
L 356.070096 288.351506 
L 357.701526 291.504997 
L 359.332956 291.129783 
L 360.964386 292.180904 
L 362.595815 289.330021 
L 364.227245 288.932919 
L 365.858675 289.818413 
L 367.490105 293.317569 
L 369.121535 289.78684 
L 370.752965 291.524183 
L 372.384395 290.843164 
L 374.015825 292.584768 
L 375.647254 290.114656 
L 377.278684 290.013178 
L 378.910114 293.675983 
L 380.541544 290.580469 
L 382.172974 293.781153 
L 383.804404 291.203377 
L 385.435834 293.015239 
L 387.067264 290.025132 
L 388.698693 289.597564 
L 390.330123 288.63406 
L 391.961553 289.768819 
L 393.592983 290.467821 
L 395.224413 291.825853 
L 396.855843 289.974045 
L 398.487273 291.712011 
L 398.487273 283.397604 
L 398.487273 283.397604 
L 396.855843 280.812331 
L 395.224413 282.640918 
L 393.592983 281.155603 
L 391.961553 284.981409 
L 390.330123 286.232566 
L 388.698693 281.259599 
L 387.067264 279.514924 
L 385.435834 276.219506 
L 383.804404 285.195953 
L 382.172974 283.00744 
L 380.541544 281.985123 
L 378.910114 280.132962 
L 377.278684 282.553086 
L 375.647254 285.051527 
L 374.015825 284.035214 
L 372.384395 281.352357 
L 370.752965 277.873977 
L 369.121535 283.886821 
L 367.490105 280.452303 
L 365.858675 283.398652 
L 364.227245 285.422816 
L 362.595815 270.854336 
L 360.964386 278.696124 
L 359.332956 283.454813 
L 357.701526 280.310462 
L 356.070096 284.700763 
L 354.438666 281.471813 
L 352.807236 282.70759 
L 351.175806 283.253825 
L 349.544376 283.185946 
L 347.912947 283.574126 
L 346.281517 284.835268 
L 344.650087 280.406312 
L 343.018657 283.119844 
L 341.387227 278.801625 
L 339.755797 279.018374 
L 338.124367 285.284823 
L 336.492937 284.65423 
L 334.861508 281.876846 
L 333.230078 283.817879 
L 331.598648 284.295738 
L 329.967218 281.02022 
L 328.335788 282.413205 
L 326.704358 275.506534 
L 325.072928 278.837591 
L 323.441498 283.740033 
L 321.810069 281.281317 
L 320.178639 277.103882 
L 318.547209 283.538864 
L 316.915779 282.164841 
L 315.284349 279.404976 
L 313.652919 284.326684 
L 312.021489 281.946706 
L 310.390059 279.857219 
L 308.75863 285.024162 
L 307.1272 283.187511 
L 305.49577 277.835897 
L 303.86434 281.147567 
L 302.23291 282.35591 
L 300.60148 275.774484 
L 298.97005 282.633969 
L 297.33862 277.420487 
L 295.70719 283.391852 
L 294.075761 281.045201 
L 292.444331 281.847422 
L 290.812901 282.827619 
L 289.181471 282.966362 
L 287.550041 279.60871 
L 285.918611 284.552858 
L 284.287181 282.373774 
L 282.655751 276.763123 
L 281.024322 277.504945 
L 279.392892 285.025938 
L 277.761462 285.221481 
L 276.130032 285.555671 
L 274.498602 283.822548 
L 272.867172 283.426473 
L 271.235742 281.606069 
L 269.604312 283.233641 
L 267.972883 281.213148 
L 266.341453 282.740016 
L 264.710023 286.592542 
L 263.078593 281.727082 
L 261.447163 280.462104 
L 259.815733 276.254968 
L 258.184303 272.754319 
L 256.552873 279.197927 
L 254.921444 278.034506 
L 253.290014 282.918334 
L 251.658584 280.620615 
L 250.027154 284.551625 
L 248.395724 283.783892 
L 246.764294 285.49556 
L 245.132864 285.663164 
L 243.501434 284.291183 
L 241.870005 284.60979 
L 240.238575 284.561697 
L 238.607145 285.610847 
L 236.975715 285.483652 
L 235.344285 283.809555 
L 233.712855 284.60979 
L 232.081425 284.610634 
L 230.449995 284.393714 
L 228.818566 285.539229 
L 227.187136 285.697915 
L 225.555706 285.58612 
L 223.924276 285.489166 
L 222.292846 285.02157 
L 220.661416 285.841593 
L 219.029986 285.480346 
L 217.398556 284.828493 
L 215.767127 285.772652 
L 214.135697 285.899021 
L 212.504267 285.303718 
L 210.872837 285.870455 
L 209.241407 285.726682 
L 207.609977 284.140039 
L 205.978547 283.905918 
L 204.347117 275.748468 
L 202.715688 284.60979 
L 201.084258 284.60979 
L 199.452828 284.60979 
L 197.821398 284.60979 
L 196.189968 284.60979 
L 194.558538 284.60979 
L 192.927108 284.60979 
L 191.295678 284.60979 
L 189.664249 284.60979 
L 188.032819 284.60979 
L 186.401389 284.60979 
L 184.769959 284.60979 
L 183.138529 285.567542 
L 181.507099 284.60979 
L 179.875669 284.60979 
L 178.244239 284.60979 
L 176.61281 284.60979 
L 174.98138 284.60979 
L 173.34995 284.60979 
L 171.71852 284.60979 
L 170.08709 284.60979 
L 168.45566 284.60979 
L 166.82423 284.60979 
L 165.1928 284.60979 
L 163.56137 284.60979 
L 161.929941 284.60979 
L 160.298511 285.328104 
L 158.667081 284.60979 
L 157.035651 284.60979 
L 155.404221 284.60979 
L 153.772791 284.60979 
L 152.141361 284.60979 
L 150.509931 284.60979 
L 148.878502 285.328104 
L 147.247072 284.60979 
L 145.615642 284.60979 
L 143.984212 284.60979 
L 142.352782 284.60979 
L 140.721352 284.60979 
L 139.089922 284.60979 
L 137.458492 284.60979 
L 135.827063 284.60979 
L 134.195633 284.60979 
L 132.564203 284.60979 
L 130.932773 284.60979 
L 129.301343 284.60979 
L 127.669913 284.60979 
L 126.038483 284.60979 
L 124.407053 284.60979 
L 122.775624 284.60979 
L 121.144194 284.60979 
L 119.512764 284.60979 
L 117.881334 285.567542 
L 116.249904 284.60979 
L 114.618474 285.567542 
L 112.987044 284.60979 
L 111.355614 284.60979 
L 109.724185 284.60979 
L 108.092755 284.60979 
L 106.461325 284.60979 
L 104.829895 285.567542 
L 103.198465 284.60979 
L 101.567035 284.60979 
L 99.935605 284.60979 
L 98.304175 284.60979 
L 96.672746 285.328104 
L 95.041316 284.60979 
L 93.409886 284.60979 
L 91.778456 284.60979 
L 90.147026 284.60979 
L 88.515596 285.328104 
L 86.884166 284.60979 
L 85.252736 284.60979 
L 83.621307 284.60979 
L 81.989877 285.567542 
L 80.358447 284.60979 
L 78.727017 284.60979 
L 77.095587 284.60979 
L 75.464157 285.567542 
L 73.832727 284.60979 
z
" style="fill:#1f77b4;fill-opacity:0.2;"/>
   </g>
   <g id="PolyCollection_2">
    <path clip-path="url(#pa90777de1e)" d="M 73.832727 284.60979 
L 73.832727 285.875818 
L 75.464157 285.875818 
L 77.095587 285.875818 
L 78.727017 285.875818 
L 80.358447 285.875818 
L 81.989877 285.875818 
L 83.621307 285.875818 
L 85.252736 285.875818 
L 86.884166 285.875818 
L 88.515596 285.875818 
L 90.147026 285.875818 
L 91.778456 285.875818 
L 93.409886 285.875818 
L 95.041316 285.875818 
L 96.672746 285.875818 
L 98.304175 285.875818 
L 99.935605 285.875818 
L 101.567035 285.875818 
L 103.198465 285.875818 
L 104.829895 285.875818 
L 106.461325 285.875818 
L 108.092755 285.875818 
L 109.724185 285.875818 
L 111.355614 285.875818 
L 112.987044 285.875818 
L 114.618474 285.875818 
L 116.249904 285.875818 
L 117.881334 285.875818 
L 119.512764 285.875818 
L 121.144194 285.875818 
L 122.775624 285.875818 
L 124.407053 285.875818 
L 126.038483 285.875818 
L 127.669913 285.875818 
L 129.301343 285.875818 
L 130.932773 285.875818 
L 132.564203 285.875818 
L 134.195633 285.875818 
L 135.827063 285.875818 
L 137.458492 285.875818 
L 139.089922 285.875818 
L 140.721352 285.875818 
L 142.352782 285.875818 
L 143.984212 285.875818 
L 145.615642 285.875818 
L 147.247072 285.875818 
L 148.878502 285.875818 
L 150.509931 285.875818 
L 152.141361 285.875818 
L 153.772791 285.875818 
L 155.404221 285.875818 
L 157.035651 285.875818 
L 158.667081 285.875818 
L 160.298511 285.875818 
L 161.929941 285.875818 
L 163.56137 285.875818 
L 165.1928 285.875818 
L 166.82423 285.875818 
L 168.45566 285.875818 
L 170.08709 285.875818 
L 171.71852 285.875818 
L 173.34995 285.875818 
L 174.98138 285.875818 
L 176.61281 285.875818 
L 178.244239 285.875818 
L 179.875669 285.875818 
L 181.507099 285.875818 
L 183.138529 285.875818 
L 184.769959 285.875818 
L 186.401389 285.875818 
L 188.032819 285.875818 
L 189.664249 285.875818 
L 191.295678 285.875818 
L 192.927108 285.875818 
L 194.558538 285.875818 
L 196.189968 285.875818 
L 197.821398 285.875818 
L 199.452828 285.875818 
L 201.084258 285.875818 
L 202.715688 286.95286 
L 204.347117 286.959957 
L 205.978547 287.038323 
L 207.609977 287.033308 
L 209.241407 287.481302 
L 210.872837 287.460302 
L 212.504267 287.126488 
L 214.135697 287.119239 
L 215.767127 287.245438 
L 217.398556 287.060794 
L 219.029986 287.04742 
L 220.661416 287.18885 
L 222.292846 287.00183 
L 223.924276 286.990853 
L 225.555706 286.98584 
L 227.187136 286.979026 
L 228.818566 287.098592 
L 230.449995 286.983604 
L 232.081425 286.966128 
L 233.712855 287.019739 
L 235.344285 287.282647 
L 236.975715 287.030128 
L 238.607145 286.99298 
L 240.238575 287.064596 
L 241.870005 286.985434 
L 243.501434 287.166267 
L 245.132864 287.084877 
L 246.764294 287.077618 
L 248.395724 287.104765 
L 250.027154 288.54608 
L 251.658584 288.536881 
L 253.290014 289.305925 
L 254.921444 288.879221 
L 256.552873 288.882647 
L 258.184303 288.866905 
L 259.815733 291.210828 
L 261.447163 291.804176 
L 263.078593 291.199382 
L 264.710023 291.14451 
L 266.341453 291.11566 
L 267.972883 292.280249 
L 269.604312 291.203984 
L 271.235742 291.160302 
L 272.867172 291.230707 
L 274.498602 291.165192 
L 276.130032 292.031003 
L 277.761462 292.785389 
L 279.392892 292.394139 
L 281.024322 293.16378 
L 282.655751 292.753919 
L 284.287181 292.688375 
L 285.918611 292.621113 
L 287.550041 292.606744 
L 289.181471 293.087247 
L 290.812901 293.033274 
L 292.444331 292.964852 
L 294.075761 292.878656 
L 295.70719 293.86494 
L 297.33862 294.621712 
L 298.97005 292.99766 
L 300.60148 294.443659 
L 302.23291 293.305493 
L 303.86434 293.275619 
L 305.49577 294.496766 
L 307.1272 293.272389 
L 308.75863 293.127893 
L 310.390059 294.248787 
L 312.021489 293.147824 
L 313.652919 293.115395 
L 315.284349 294.19101 
L 316.915779 293.085999 
L 318.547209 293.037383 
L 320.178639 294.632493 
L 321.810069 293.06982 
L 323.441498 293.24977 
L 325.072928 294.516269 
L 326.704358 294.8162 
L 328.335788 293.134243 
L 329.967218 293.955698 
L 331.598648 293.004452 
L 333.230078 292.983715 
L 334.861508 294.186648 
L 336.492937 293.276173 
L 338.124367 292.850793 
L 339.755797 292.819823 
L 341.387227 293.209265 
L 343.018657 292.914578 
L 344.650087 294.998161 
L 346.281517 293.385657 
L 347.912947 292.96894 
L 349.544376 292.961173 
L 351.175806 293.600229 
L 352.807236 293.167593 
L 354.438666 294.403991 
L 356.070096 292.99814 
L 357.701526 295.053354 
L 359.332956 293.06544 
L 360.964386 294.036609 
L 362.595815 293.116746 
L 364.227245 293.056262 
L 365.858675 292.99355 
L 367.490105 295.015781 
L 369.121535 293.628379 
L 370.752965 293.575499 
L 372.384395 295.24726 
L 374.015825 293.745825 
L 375.647254 293.639428 
L 377.278684 293.631815 
L 378.910114 295.488 
L 380.541544 293.650629 
L 382.172974 295.327127 
L 383.804404 293.313725 
L 385.435834 294.846051 
L 387.067264 293.353429 
L 388.698693 293.266424 
L 390.330123 293.197417 
L 391.961553 293.177041 
L 393.592983 293.908136 
L 395.224413 294.173709 
L 396.855843 292.889994 
L 398.487273 292.888889 
L 398.487273 189.623077 
L 398.487273 189.623077 
L 396.855843 146.596138 
L 395.224413 203.25992 
L 393.592983 156.879021 
L 391.961553 226.032852 
L 390.330123 254.685758 
L 388.698693 218.409058 
L 387.067264 137.535188 
L 385.435834 92.006677 
L 383.804404 223.322882 
L 382.172974 101.608172 
L 380.541544 144.514423 
L 378.910114 53.568 
L 377.278684 134.156138 
L 375.647254 172.512174 
L 374.015825 106.218513 
L 372.384395 66.439743 
L 370.752965 142.120227 
L 369.121535 218.356633 
L 367.490105 175.711936 
L 365.858675 175.445662 
L 364.227245 172.620536 
L 362.595815 147.631499 
L 360.964386 93.696509 
L 359.332956 186.847776 
L 357.701526 170.793613 
L 356.070096 246.029868 
L 354.438666 102.539318 
L 352.807236 154.744145 
L 351.175806 145.785485 
L 349.544376 194.190198 
L 347.912947 224.373236 
L 346.281517 116.07926 
L 344.650087 195.289764 
L 343.018657 133.011739 
L 341.387227 168.011957 
L 339.755797 142.979904 
L 338.124367 191.971319 
L 336.492937 140.329531 
L 334.861508 136.49208 
L 333.230078 170.171006 
L 331.598648 179.246791 
L 329.967218 203.706971 
L 328.335788 184.091813 
L 326.704358 96.19864 
L 325.072928 53.568616 
L 323.441498 186.391421 
L 321.810069 142.265657 
L 320.178639 94.594508 
L 318.547209 144.271679 
L 316.915779 179.17333 
L 315.284349 212.364136 
L 313.652919 235.509858 
L 312.021489 134.928929 
L 310.390059 98.070444 
L 308.75863 223.104369 
L 307.1272 191.903757 
L 305.49577 93.816473 
L 303.86434 146.679935 
L 302.23291 160.430675 
L 300.60148 70.431737 
L 298.97005 180.293599 
L 297.33862 79.242802 
L 295.70719 89.911162 
L 294.075761 179.963851 
L 292.444331 223.161689 
L 290.812901 205.24077 
L 289.181471 208.519602 
L 287.550041 158.970997 
L 285.918611 227.618677 
L 284.287181 163.413926 
L 282.655751 100.073488 
L 281.024322 124.309606 
L 279.392892 228.053203 
L 277.761462 135.598751 
L 276.130032 218.990592 
L 274.498602 190.748038 
L 272.867172 168.367686 
L 271.235742 234.766149 
L 269.604312 214.258418 
L 267.972883 118.702688 
L 266.341453 163.886023 
L 264.710023 263.362296 
L 263.078593 222.707468 
L 261.447163 175.036338 
L 259.815733 96.186079 
L 258.184303 162.740689 
L 256.552873 192.650527 
L 254.921444 215.360321 
L 253.290014 261.181973 
L 251.658584 189.523401 
L 250.027154 271.072744 
L 248.395724 248.240691 
L 246.764294 274.301068 
L 245.132864 236.945272 
L 243.501434 226.0148 
L 241.870005 234.025889 
L 240.238575 237.134936 
L 238.607145 235.258028 
L 236.975715 236.485735 
L 235.344285 205.097915 
L 233.712855 243.670997 
L 232.081425 243.455286 
L 230.449995 222.682821 
L 228.818566 256.873541 
L 227.187136 265.556346 
L 225.555706 253.760126 
L 223.924276 245.050071 
L 222.292846 284.322092 
L 220.661416 265.605962 
L 219.029986 271.240075 
L 217.398556 252.007588 
L 215.767127 241.224708 
L 214.135697 208.355916 
L 212.504267 216.004224 
L 210.872837 217.847386 
L 209.241407 224.17014 
L 207.609977 194.061199 
L 205.978547 199.738764 
L 204.347117 124.69095 
L 202.715688 237.632601 
L 201.084258 232.984778 
L 199.452828 238.248916 
L 197.821398 284.60979 
L 196.189968 284.60979 
L 194.558538 284.60979 
L 192.927108 284.60979 
L 191.295678 284.60979 
L 189.664249 284.60979 
L 188.032819 284.60979 
L 186.401389 284.60979 
L 184.769959 284.60979 
L 183.138529 284.60979 
L 181.507099 284.60979 
L 179.875669 284.60979 
L 178.244239 284.60979 
L 176.61281 284.60979 
L 174.98138 284.60979 
L 173.34995 284.60979 
L 171.71852 284.60979 
L 170.08709 284.60979 
L 168.45566 284.60979 
L 166.82423 284.60979 
L 165.1928 284.60979 
L 163.56137 284.60979 
L 161.929941 284.60979 
L 160.298511 284.60979 
L 158.667081 284.60979 
L 157.035651 284.60979 
L 155.404221 284.60979 
L 153.772791 284.60979 
L 152.141361 284.60979 
L 150.509931 284.60979 
L 148.878502 284.60979 
L 147.247072 284.60979 
L 145.615642 284.60979 
L 143.984212 284.60979 
L 142.352782 284.60979 
L 140.721352 284.60979 
L 139.089922 284.60979 
L 137.458492 284.60979 
L 135.827063 284.60979 
L 134.195633 284.60979 
L 132.564203 284.60979 
L 130.932773 284.60979 
L 129.301343 284.60979 
L 127.669913 284.60979 
L 126.038483 284.60979 
L 124.407053 284.60979 
L 122.775624 284.60979 
L 121.144194 284.60979 
L 119.512764 284.60979 
L 117.881334 284.60979 
L 116.249904 284.60979 
L 114.618474 284.60979 
L 112.987044 284.60979 
L 111.355614 284.60979 
L 109.724185 284.60979 
L 108.092755 284.60979 
L 106.461325 284.60979 
L 104.829895 284.60979 
L 103.198465 284.60979 
L 101.567035 284.60979 
L 99.935605 284.60979 
L 98.304175 284.60979 
L 96.672746 284.60979 
L 95.041316 284.60979 
L 93.409886 284.60979 
L 91.778456 284.60979 
L 90.147026 284.60979 
L 88.515596 284.60979 
L 86.884166 284.60979 
L 85.252736 284.60979 
L 83.621307 284.60979 
L 81.989877 284.60979 
L 80.358447 284.60979 
L 78.727017 284.60979 
L 77.095587 284.60979 
L 75.464157 284.60979 
L 73.832727 284.60979 
z
" style="fill:#1f77b4;fill-opacity:0.1;"/>
   </g>
   <g id="matplotlib.axis_1">
    <g id="xtick_1">
     <g id="line2d_1">
      <defs>
       <path d="M 0 0 
L 0 3.5 
" id="m63370f6322" style="stroke:#000000;stroke-width:0.8;"/>
      </defs>
      <g>
       <use style="stroke:#000000;stroke-width:0.8;" x="73.832727" xlink:href="#m63370f6322" y="307.584"/>
      </g>
     </g>
     <g id="text_1">
      <!-- 0 -->
      <defs>
       <path d="M 31.78125 66.40625 
Q 24.171875 66.40625 20.328125 58.90625 
Q 16.5 51.421875 16.5 36.375 
Q 16.5 21.390625 20.328125 13.890625 
Q 24.171875 6.390625 31.78125 6.390625 
Q 39.453125 6.390625 43.28125 13.890625 
Q 47.125 21.390625 47.125 36.375 
Q 47.125 51.421875 43.28125 58.90625 
Q 39.453125 66.40625 31.78125 66.40625 
z
M 31.78125 74.21875 
Q 44.046875 74.21875 50.515625 64.515625 
Q 56.984375 54.828125 56.984375 36.375 
Q 56.984375 17.96875 50.515625 8.265625 
Q 44.046875 -1.421875 31.78125 -1.421875 
Q 19.53125 -1.421875 13.0625 8.265625 
Q 6.59375 17.96875 6.59375 36.375 
Q 6.59375 54.828125 13.0625 64.515625 
Q 19.53125 74.21875 31.78125 74.21875 
z
" id="DejaVuSans-48"/>
      </defs>
      <g transform="translate(70.651477 322.182437)scale(0.1 -0.1)">
       <use xlink:href="#DejaVuSans-48"/>
      </g>
     </g>
    </g>
    <g id="xtick_2">
     <g id="line2d_2">
      <g>
       <use style="stroke:#000000;stroke-width:0.8;" x="114.618474" xlink:href="#m63370f6322" y="307.584"/>
      </g>
     </g>
     <g id="text_2">
      <!-- 25 -->
      <defs>
       <path d="M 19.1875 8.296875 
L 53.609375 8.296875 
L 53.609375 0 
L 7.328125 0 
L 7.328125 8.296875 
Q 12.9375 14.109375 22.625 23.890625 
Q 32.328125 33.6875 34.8125 36.53125 
Q 39.546875 41.84375 41.421875 45.53125 
Q 43.3125 49.21875 43.3125 52.78125 
Q 43.3125 58.59375 39.234375 62.25 
Q 35.15625 65.921875 28.609375 65.921875 
Q 23.96875 65.921875 18.8125 64.3125 
Q 13.671875 62.703125 7.8125 59.421875 
L 7.8125 69.390625 
Q 13.765625 71.78125 18.9375 73 
Q 24.125 74.21875 28.421875 74.21875 
Q 39.75 74.21875 46.484375 68.546875 
Q 53.21875 62.890625 53.21875 53.421875 
Q 53.21875 48.921875 51.53125 44.890625 
Q 49.859375 40.875 45.40625 35.40625 
Q 44.1875 33.984375 37.640625 27.21875 
Q 31.109375 20.453125 19.1875 8.296875 
z
" id="DejaVuSans-50"/>
       <path d="M 10.796875 72.90625 
L 49.515625 72.90625 
L 49.515625 64.59375 
L 19.828125 64.59375 
L 19.828125 46.734375 
Q 21.96875 47.46875 24.109375 47.828125 
Q 26.265625 48.1875 28.421875 48.1875 
Q 40.625 48.1875 47.75 41.5 
Q 54.890625 34.8125 54.890625 23.390625 
Q 54.890625 11.625 47.5625 5.09375 
Q 40.234375 -1.421875 26.90625 -1.421875 
Q 22.3125 -1.421875 17.546875 -0.640625 
Q 12.796875 0.140625 7.71875 1.703125 
L 7.71875 11.625 
Q 12.109375 9.234375 16.796875 8.0625 
Q 21.484375 6.890625 26.703125 6.890625 
Q 35.15625 6.890625 40.078125 11.328125 
Q 45.015625 15.765625 45.015625 23.390625 
Q 45.015625 31 40.078125 35.4375 
Q 35.15625 39.890625 26.703125 39.890625 
Q 22.75 39.890625 18.8125 39.015625 
Q 14.890625 38.140625 10.796875 36.28125 
z
" id="DejaVuSans-53"/>
      </defs>
      <g transform="translate(108.255974 322.182437)scale(0.1 -0.1)">
       <use xlink:href="#DejaVuSans-50"/>
       <use x="63.623047" xlink:href="#DejaVuSans-53"/>
      </g>
     </g>
    </g>
    <g id="xtick_3">
     <g id="line2d_3">
      <g>
       <use style="stroke:#000000;stroke-width:0.8;" x="155.404221" xlink:href="#m63370f6322" y="307.584"/>
      </g>
     </g>
     <g id="text_3">
      <!-- 50 -->
      <g transform="translate(149.041721 322.182437)scale(0.1 -0.1)">
       <use xlink:href="#DejaVuSans-53"/>
       <use x="63.623047" xlink:href="#DejaVuSans-48"/>
      </g>
     </g>
    </g>
    <g id="xtick_4">
     <g id="line2d_4">
      <g>
       <use style="stroke:#000000;stroke-width:0.8;" x="196.189968" xlink:href="#m63370f6322" y="307.584"/>
      </g>
     </g>
     <g id="text_4">
      <!-- 75 -->
      <defs>
       <path d="M 8.203125 72.90625 
L 55.078125 72.90625 
L 55.078125 68.703125 
L 28.609375 0 
L 18.3125 0 
L 43.21875 64.59375 
L 8.203125 64.59375 
z
" id="DejaVuSans-55"/>
      </defs>
      <g transform="translate(189.827468 322.182437)scale(0.1 -0.1)">
       <use xlink:href="#DejaVuSans-55"/>
       <use x="63.623047" xlink:href="#DejaVuSans-53"/>
      </g>
     </g>
    </g>
    <g id="xtick_5">
     <g id="line2d_5">
      <g>
       <use style="stroke:#000000;stroke-width:0.8;" x="236.975715" xlink:href="#m63370f6322" y="307.584"/>
      </g>
     </g>
     <g id="text_5">
      <!-- 100 -->
      <defs>
       <path d="M 12.40625 8.296875 
L 28.515625 8.296875 
L 28.515625 63.921875 
L 10.984375 60.40625 
L 10.984375 69.390625 
L 28.421875 72.90625 
L 38.28125 72.90625 
L 38.28125 8.296875 
L 54.390625 8.296875 
L 54.390625 0 
L 12.40625 0 
z
" id="DejaVuSans-49"/>
      </defs>
      <g transform="translate(227.431965 322.182437)scale(0.1 -0.1)">
       <use xlink:href="#DejaVuSans-49"/>
       <use x="63.623047" xlink:href="#DejaVuSans-48"/>
       <use x="127.246094" xlink:href="#DejaVuSans-48"/>
      </g>
     </g>
    </g>
    <g id="xtick_6">
     <g id="line2d_6">
      <g>
       <use style="stroke:#000000;stroke-width:0.8;" x="277.761462" xlink:href="#m63370f6322" y="307.584"/>
      </g>
     </g>
     <g id="text_6">
      <!-- 125 -->
      <g transform="translate(268.217712 322.182437)scale(0.1 -0.1)">
       <use xlink:href="#DejaVuSans-49"/>
       <use x="63.623047" xlink:href="#DejaVuSans-50"/>
       <use x="127.246094" xlink:href="#DejaVuSans-53"/>
      </g>
     </g>
    </g>
    <g id="xtick_7">
     <g id="line2d_7">
      <g>
       <use style="stroke:#000000;stroke-width:0.8;" x="318.547209" xlink:href="#m63370f6322" y="307.584"/>
      </g>
     </g>
     <g id="text_7">
      <!-- 150 -->
      <g transform="translate(309.003459 322.182437)scale(0.1 -0.1)">
       <use xlink:href="#DejaVuSans-49"/>
       <use x="63.623047" xlink:href="#DejaVuSans-53"/>
       <use x="127.246094" xlink:href="#DejaVuSans-48"/>
      </g>
     </g>
    </g>
    <g id="xtick_8">
     <g id="line2d_8">
      <g>
       <use style="stroke:#000000;stroke-width:0.8;" x="359.332956" xlink:href="#m63370f6322" y="307.584"/>
      </g>
     </g>
     <g id="text_8">
      <!-- 175 -->
      <g transform="translate(349.789206 322.182437)scale(0.1 -0.1)">
       <use xlink:href="#DejaVuSans-49"/>
       <use x="63.623047" xlink:href="#DejaVuSans-55"/>
       <use x="127.246094" xlink:href="#DejaVuSans-53"/>
      </g>
     </g>
    </g>
    <g id="xtick_9">
     <g id="line2d_9">
      <g>
       <use style="stroke:#000000;stroke-width:0.8;" x="400.118703" xlink:href="#m63370f6322" y="307.584"/>
      </g>
     </g>
     <g id="text_9">
      <!-- 200 -->
      <g transform="translate(390.574953 322.182437)scale(0.1 -0.1)">
       <use xlink:href="#DejaVuSans-50"/>
       <use x="63.623047" xlink:href="#DejaVuSans-48"/>
       <use x="127.246094" xlink:href="#DejaVuSans-48"/>
      </g>
     </g>
    </g>
   </g>
   <g id="matplotlib.axis_2">
    <g id="ytick_1">
     <g id="line2d_10">
      <defs>
       <path d="M 0 0 
L -3.5 0 
" id="m090331f684" style="stroke:#000000;stroke-width:0.8;"/>
      </defs>
      <g>
       <use style="stroke:#000000;stroke-width:0.8;" x="57.6" xlink:href="#m090331f684" y="297.515019"/>
      </g>
     </g>
     <g id="text_10">
      <!-- 0 -->
      <g transform="translate(44.2375 301.314238)scale(0.1 -0.1)">
       <use xlink:href="#DejaVuSans-48"/>
      </g>
     </g>
    </g>
    <g id="ytick_2">
     <g id="line2d_11">
      <g>
       <use style="stroke:#000000;stroke-width:0.8;" x="57.6" xlink:href="#m090331f684" y="244.542731"/>
      </g>
     </g>
     <g id="text_11">
      <!-- 5 -->
      <g transform="translate(44.2375 248.341949)scale(0.1 -0.1)">
       <use xlink:href="#DejaVuSans-53"/>
      </g>
     </g>
    </g>
    <g id="ytick_3">
     <g id="line2d_12">
      <g>
       <use style="stroke:#000000;stroke-width:0.8;" x="57.6" xlink:href="#m090331f684" y="191.570442"/>
      </g>
     </g>
     <g id="text_12">
      <!-- 10 -->
      <g transform="translate(37.875 195.369661)scale(0.1 -0.1)">
       <use xlink:href="#DejaVuSans-49"/>
       <use x="63.623047" xlink:href="#DejaVuSans-48"/>
      </g>
     </g>
    </g>
    <g id="ytick_4">
     <g id="line2d_13">
      <g>
       <use style="stroke:#000000;stroke-width:0.8;" x="57.6" xlink:href="#m090331f684" y="138.598154"/>
      </g>
     </g>
     <g id="text_13">
      <!-- 15 -->
      <g transform="translate(37.875 142.397373)scale(0.1 -0.1)">
       <use xlink:href="#DejaVuSans-49"/>
       <use x="63.623047" xlink:href="#DejaVuSans-53"/>
      </g>
     </g>
    </g>
    <g id="ytick_5">
     <g id="line2d_14">
      <g>
       <use style="stroke:#000000;stroke-width:0.8;" x="57.6" xlink:href="#m090331f684" y="85.625865"/>
      </g>
     </g>
     <g id="text_14">
      <!-- 20 -->
      <g transform="translate(37.875 89.425084)scale(0.1 -0.1)">
       <use xlink:href="#DejaVuSans-50"/>
       <use x="63.623047" xlink:href="#DejaVuSans-48"/>
      </g>
     </g>
    </g>
   </g>
   <g id="line2d_15">
    <path clip-path="url(#pa90777de1e)" d="M 73.832727 285.875818 
L 85.252736 285.875818 
L 86.884166 285.567542 
L 88.515596 285.875818 
L 90.147026 285.567542 
L 91.778456 285.567542 
L 93.409886 285.875818 
L 96.672746 285.875818 
L 98.304175 285.567542 
L 99.935605 285.567542 
L 101.567035 285.875818 
L 104.829895 285.875818 
L 106.461325 285.567542 
L 108.092755 285.567542 
L 109.724185 285.875818 
L 114.618474 285.875818 
L 116.249904 285.72168 
L 117.881334 285.875818 
L 121.144194 285.875818 
L 122.775624 285.72168 
L 124.407053 285.72168 
L 126.038483 285.875818 
L 127.669913 285.567542 
L 129.301343 285.875818 
L 130.932773 285.875818 
L 132.564203 285.567542 
L 134.195633 285.875818 
L 135.827063 285.567542 
L 137.458492 285.567542 
L 139.089922 285.875818 
L 143.984212 285.875818 
L 145.615642 285.72168 
L 147.247072 285.875818 
L 148.878502 285.875818 
L 150.509931 285.567542 
L 152.141361 285.875818 
L 153.772791 285.567542 
L 155.404221 285.875818 
L 168.45566 285.875818 
L 170.08709 285.567542 
L 171.71852 285.567542 
L 173.34995 285.875818 
L 176.61281 285.567542 
L 178.244239 285.875818 
L 181.507099 285.567542 
L 183.138529 285.875818 
L 184.769959 285.567542 
L 186.401389 285.875818 
L 188.032819 285.567542 
L 189.664249 285.567542 
L 191.295678 285.875818 
L 192.927108 285.567542 
L 194.558538 285.875818 
L 199.452828 285.875818 
L 201.084258 285.567542 
L 202.715688 285.567542 
L 204.347117 284.5383 
L 205.978547 286.063258 
L 207.609977 285.788125 
L 210.872837 286.615213 
L 212.504267 286.151164 
L 214.135697 286.232577 
L 215.767127 286.515842 
L 217.398556 285.334778 
L 219.029986 286.105626 
L 220.661416 286.433107 
L 222.292846 285.515712 
L 223.924276 285.990826 
L 225.555706 286.25567 
L 227.187136 286.136272 
L 228.818566 286.487796 
L 230.449995 285.814045 
L 232.081425 285.688376 
L 233.712855 286.14032 
L 236.975715 286.211111 
L 238.607145 286.415944 
L 240.238575 285.838604 
L 241.870005 286.23684 
L 243.501434 286.444433 
L 245.132864 286.116227 
L 246.764294 286.436163 
L 248.395724 285.399746 
L 250.027154 286.417479 
L 251.658584 283.815647 
L 253.290014 286.415996 
L 254.921444 285.71482 
L 256.552873 285.523252 
L 258.184303 281.538429 
L 259.815733 283.52799 
L 261.447163 284.911324 
L 263.078593 287.149978 
L 264.710023 287.485668 
L 266.341453 286.09964 
L 267.972883 285.232184 
L 269.604312 286.456967 
L 271.235742 285.904305 
L 272.867172 286.815624 
L 274.498602 286.13791 
L 276.130032 286.491052 
L 279.392892 286.772318 
L 281.024322 285.932918 
L 282.655751 283.224565 
L 284.287181 285.54901 
L 285.918611 286.582115 
L 287.550041 284.797757 
L 289.181471 286.96448 
L 290.812901 287.03426 
L 292.444331 285.995213 
L 294.075761 285.75233 
L 295.70719 288.197509 
L 297.33862 285.450534 
L 298.97005 285.938339 
L 300.60148 283.012394 
L 302.23291 286.51391 
L 303.86434 284.62258 
L 305.49577 286.011733 
L 307.1272 287.591389 
L 308.75863 286.945746 
L 310.390059 285.64467 
L 312.021489 286.822279 
L 313.652919 286.880105 
L 315.284349 285.180899 
L 316.915779 286.359115 
L 318.547209 287.078183 
L 320.178639 283.260821 
L 321.810069 286.353288 
L 323.441498 287.635223 
L 325.072928 286.053991 
L 326.704358 286.284549 
L 328.335788 287.172566 
L 329.967218 287.571583 
L 331.598648 287.284533 
L 333.230078 287.384755 
L 334.861508 285.801715 
L 336.492937 288.738155 
L 338.124367 288.426346 
L 339.755797 285.38015 
L 341.387227 285.494178 
L 343.018657 287.159766 
L 344.650087 284.589738 
L 346.281517 287.919153 
L 347.912947 286.089747 
L 349.544376 287.964819 
L 351.175806 286.995413 
L 352.807236 286.658801 
L 354.438666 287.981528 
L 356.070096 286.560364 
L 357.701526 285.640328 
L 359.332956 287.325038 
L 362.595815 283.5958 
L 364.227245 287.157596 
L 367.490105 286.464922 
L 369.121535 286.27339 
L 372.384395 286.111763 
L 374.015825 287.160647 
L 375.647254 287.379157 
L 377.278684 286.605481 
L 378.910114 287.390693 
L 380.541544 287.058149 
L 382.172974 288.033872 
L 383.804404 287.848007 
L 385.435834 287.07314 
L 387.067264 286.898351 
L 388.698693 285.855503 
L 390.330123 287.553177 
L 391.961553 287.590105 
L 393.592983 287.259419 
L 395.224413 285.585336 
L 396.855843 286.056537 
L 398.487273 285.621565 
L 398.487273 285.621565 
" style="fill:none;stroke:#1f77b4;stroke-linecap:square;stroke-width:0.25;"/>
   </g>
   <g id="line2d_16">
    <path clip-path="url(#pa90777de1e)" d="M 73.832727 285.379972 
L 75.464157 285.538061 
L 77.095587 285.408704 
L 85.252736 285.446685 
L 86.884166 285.335825 
L 88.515596 285.513069 
L 91.778456 285.313258 
L 93.409886 285.436778 
L 112.987044 285.481254 
L 114.618474 285.567123 
L 116.249904 285.434354 
L 117.881334 285.516481 
L 121.144194 285.398798 
L 126.038483 285.459016 
L 127.669913 285.351568 
L 129.301343 285.430613 
L 132.564203 285.412116 
L 134.195633 285.434025 
L 135.827063 285.335825 
L 140.721352 285.446685 
L 147.247072 285.449768 
L 148.878502 285.509987 
L 150.509931 285.373806 
L 152.141361 285.468594 
L 153.772791 285.373806 
L 157.035651 285.42753 
L 158.667081 285.366982 
L 160.298511 285.509987 
L 171.71852 285.313588 
L 173.34995 285.462099 
L 176.61281 285.392961 
L 178.244239 285.462758 
L 181.507099 285.272195 
L 183.138529 285.544555 
L 184.769959 285.383384 
L 189.664249 285.358063 
L 191.295678 285.465511 
L 192.927108 285.380301 
L 194.558538 285.478501 
L 196.189968 285.395386 
L 197.821398 285.481583 
L 199.452828 284.082539 
L 201.084258 284.684348 
L 202.715688 282.956534 
L 204.347117 273.407641 
L 205.978547 283.0408 
L 207.609977 280.844682 
L 209.241407 283.56814 
L 210.872837 285.563895 
L 212.504267 282.974407 
L 214.135697 284.939861 
L 215.767127 285.335811 
L 217.398556 284.461128 
L 219.029986 285.306108 
L 220.661416 285.971188 
L 222.292846 285.493773 
L 223.924276 284.455122 
L 225.555706 285.342269 
L 227.187136 285.638217 
L 228.818566 285.518776 
L 230.449995 283.113378 
L 232.081425 284.394146 
L 233.712855 283.888666 
L 235.344285 282.097901 
L 236.975715 285.127654 
L 238.607145 284.819389 
L 240.238575 283.153801 
L 241.870005 284.231535 
L 243.501434 282.528235 
L 245.132864 284.748309 
L 246.764294 285.744735 
L 248.395724 282.87192 
L 250.027154 285.416845 
L 251.658584 279.847077 
L 253.290014 284.580157 
L 254.921444 280.463303 
L 256.552873 280.693462 
L 258.184303 275.252847 
L 261.447163 275.809065 
L 263.078593 282.15289 
L 264.710023 286.94179 
L 266.341453 280.694636 
L 267.972883 279.010867 
L 269.604312 283.729026 
L 271.235742 283.091735 
L 272.867172 281.514508 
L 276.130032 282.548605 
L 277.761462 281.354127 
L 279.392892 285.187509 
L 281.024322 278.619012 
L 282.655751 268.69018 
L 284.287181 281.558087 
L 285.918611 284.136627 
L 287.550041 278.675918 
L 289.181471 282.23831 
L 290.812901 282.080432 
L 292.444331 282.51228 
L 294.075761 281.41607 
L 295.70719 283.002974 
L 297.33862 275.499472 
L 298.97005 278.621348 
L 300.60148 273.445131 
L 302.23291 279.731329 
L 303.86434 277.346862 
L 305.49577 275.51972 
L 307.1272 283.051661 
L 308.75863 284.099547 
L 310.390059 277.327058 
L 312.021489 278.087902 
L 313.652919 285.40988 
L 315.284349 282.711962 
L 316.915779 279.661091 
L 318.547209 281.249855 
L 320.178639 276.569485 
L 321.810069 280.965427 
L 323.441498 284.506739 
L 325.072928 272.049776 
L 326.704358 275.242519 
L 328.335788 281.793143 
L 329.967218 282.926112 
L 333.230078 284.065744 
L 334.861508 279.689645 
L 336.492937 283.934968 
L 338.124367 284.334577 
L 339.755797 279.704842 
L 341.387227 278.79153 
L 343.018657 281.130917 
L 344.650087 283.237735 
L 346.281517 282.022492 
L 347.912947 283.826205 
L 349.544376 284.201846 
L 351.175806 284.145594 
L 352.807236 280.642619 
L 354.438666 276.149834 
L 356.070096 285.368857 
L 357.701526 281.142847 
L 359.332956 281.341072 
L 360.964386 269.522764 
L 362.595815 273.977056 
L 364.227245 282.707192 
L 365.858675 283.829311 
L 367.490105 281.656523 
L 369.121535 282.598014 
L 370.752965 276.805125 
L 372.384395 277.567553 
L 374.015825 282.13009 
L 375.647254 282.386627 
L 377.278684 278.431498 
L 378.910114 279.323918 
L 380.541544 281.411361 
L 382.172974 280.226111 
L 383.804404 285.021098 
L 385.435834 277.024931 
L 387.067264 277.501519 
L 388.698693 281.680937 
L 390.330123 286.474064 
L 391.961553 285.022846 
L 393.592983 281.06077 
L 395.224413 282.993884 
L 396.855843 279.606114 
L 398.487273 283.494818 
L 398.487273 283.494818 
" style="fill:none;stroke:#2ca02c;stroke-linecap:square;stroke-width:0.75;"/>
   </g>
   <g id="patch_3">
    <path d="M 57.6 307.584 
L 57.6 41.472 
" style="fill:none;stroke:#000000;stroke-linecap:square;stroke-linejoin:miter;stroke-width:0.8;"/>
   </g>
   <g id="patch_4">
    <path d="M 414.72 307.584 
L 414.72 41.472 
" style="fill:none;stroke:#000000;stroke-linecap:square;stroke-linejoin:miter;stroke-width:0.8;"/>
   </g>
   <g id="patch_5">
    <path d="M 57.6 307.584 
L 414.72 307.584 
" style="fill:none;stroke:#000000;stroke-linecap:square;stroke-linejoin:miter;stroke-width:0.8;"/>
   </g>
   <g id="patch_6">
    <path d="M 57.6 41.472 
L 414.72 41.472 
" style="fill:none;stroke:#000000;stroke-linecap:square;stroke-linejoin:miter;stroke-width:0.8;"/>
   </g>
   <g id="legend_1">
    <g id="patch_7">
     <path d="M 338.234063 78.82825 
L 407.72 78.82825 
Q 409.72 78.82825 409.72 76.82825 
L 409.72 48.472 
Q 409.72 46.472 407.72 46.472 
L 338.234063 46.472 
Q 336.234063 46.472 336.234063 48.472 
L 336.234063 76.82825 
Q 336.234063 78.82825 338.234063 78.82825 
z
" style="fill:#ffffff;opacity:0.8;stroke:#cccccc;stroke-linejoin:miter;"/>
    </g>
    <g id="line2d_17">
     <path d="M 340.234063 54.570437 
L 360.234063 54.570437 
" style="fill:none;stroke:#1f77b4;stroke-linecap:square;stroke-width:0.25;"/>
    </g>
    <g id="line2d_18"/>
    <g id="text_15">
     <!-- median -->
     <defs>
      <path d="M 52 44.1875 
Q 55.375 50.25 60.0625 53.125 
Q 64.75 56 71.09375 56 
Q 79.640625 56 84.28125 50.015625 
Q 88.921875 44.046875 88.921875 33.015625 
L 88.921875 0 
L 79.890625 0 
L 79.890625 32.71875 
Q 79.890625 40.578125 77.09375 44.375 
Q 74.3125 48.1875 68.609375 48.1875 
Q 61.625 48.1875 57.5625 43.546875 
Q 53.515625 38.921875 53.515625 30.90625 
L 53.515625 0 
L 44.484375 0 
L 44.484375 32.71875 
Q 44.484375 40.625 41.703125 44.40625 
Q 38.921875 48.1875 33.109375 48.1875 
Q 26.21875 48.1875 22.15625 43.53125 
Q 18.109375 38.875 18.109375 30.90625 
L 18.109375 0 
L 9.078125 0 
L 9.078125 54.6875 
L 18.109375 54.6875 
L 18.109375 46.1875 
Q 21.1875 51.21875 25.484375 53.609375 
Q 29.78125 56 35.6875 56 
Q 41.65625 56 45.828125 52.96875 
Q 50 49.953125 52 44.1875 
z
" id="DejaVuSans-109"/>
      <path d="M 56.203125 29.59375 
L 56.203125 25.203125 
L 14.890625 25.203125 
Q 15.484375 15.921875 20.484375 11.0625 
Q 25.484375 6.203125 34.421875 6.203125 
Q 39.59375 6.203125 44.453125 7.46875 
Q 49.3125 8.734375 54.109375 11.28125 
L 54.109375 2.78125 
Q 49.265625 0.734375 44.1875 -0.34375 
Q 39.109375 -1.421875 33.890625 -1.421875 
Q 20.796875 -1.421875 13.15625 6.1875 
Q 5.515625 13.8125 5.515625 26.8125 
Q 5.515625 40.234375 12.765625 48.109375 
Q 20.015625 56 32.328125 56 
Q 43.359375 56 49.78125 48.890625 
Q 56.203125 41.796875 56.203125 29.59375 
z
M 47.21875 32.234375 
Q 47.125 39.59375 43.09375 43.984375 
Q 39.0625 48.390625 32.421875 48.390625 
Q 24.90625 48.390625 20.390625 44.140625 
Q 15.875 39.890625 15.1875 32.171875 
z
" id="DejaVuSans-101"/>
      <path d="M 45.40625 46.390625 
L 45.40625 75.984375 
L 54.390625 75.984375 
L 54.390625 0 
L 45.40625 0 
L 45.40625 8.203125 
Q 42.578125 3.328125 38.25 0.953125 
Q 33.9375 -1.421875 27.875 -1.421875 
Q 17.96875 -1.421875 11.734375 6.484375 
Q 5.515625 14.40625 5.515625 27.296875 
Q 5.515625 40.1875 11.734375 48.09375 
Q 17.96875 56 27.875 56 
Q 33.9375 56 38.25 53.625 
Q 42.578125 51.265625 45.40625 46.390625 
z
M 14.796875 27.296875 
Q 14.796875 17.390625 18.875 11.75 
Q 22.953125 6.109375 30.078125 6.109375 
Q 37.203125 6.109375 41.296875 11.75 
Q 45.40625 17.390625 45.40625 27.296875 
Q 45.40625 37.203125 41.296875 42.84375 
Q 37.203125 48.484375 30.078125 48.484375 
Q 22.953125 48.484375 18.875 42.84375 
Q 14.796875 37.203125 14.796875 27.296875 
z
" id="DejaVuSans-100"/>
      <path d="M 9.421875 54.6875 
L 18.40625 54.6875 
L 18.40625 0 
L 9.421875 0 
z
M 9.421875 75.984375 
L 18.40625 75.984375 
L 18.40625 64.59375 
L 9.421875 64.59375 
z
" id="DejaVuSans-105"/>
      <path d="M 34.28125 27.484375 
Q 23.390625 27.484375 19.1875 25 
Q 14.984375 22.515625 14.984375 16.5 
Q 14.984375 11.71875 18.140625 8.90625 
Q 21.296875 6.109375 26.703125 6.109375 
Q 34.1875 6.109375 38.703125 11.40625 
Q 43.21875 16.703125 43.21875 25.484375 
L 43.21875 27.484375 
z
M 52.203125 31.203125 
L 52.203125 0 
L 43.21875 0 
L 43.21875 8.296875 
Q 40.140625 3.328125 35.546875 0.953125 
Q 30.953125 -1.421875 24.3125 -1.421875 
Q 15.921875 -1.421875 10.953125 3.296875 
Q 6 8.015625 6 15.921875 
Q 6 25.140625 12.171875 29.828125 
Q 18.359375 34.515625 30.609375 34.515625 
L 43.21875 34.515625 
L 43.21875 35.40625 
Q 43.21875 41.609375 39.140625 45 
Q 35.0625 48.390625 27.6875 48.390625 
Q 23 48.390625 18.546875 47.265625 
Q 14.109375 46.140625 10.015625 43.890625 
L 10.015625 52.203125 
Q 14.9375 54.109375 19.578125 55.046875 
Q 24.21875 56 28.609375 56 
Q 40.484375 56 46.34375 49.84375 
Q 52.203125 43.703125 52.203125 31.203125 
z
" id="DejaVuSans-97"/>
      <path d="M 54.890625 33.015625 
L 54.890625 0 
L 45.90625 0 
L 45.90625 32.71875 
Q 45.90625 40.484375 42.875 44.328125 
Q 39.84375 48.1875 33.796875 48.1875 
Q 26.515625 48.1875 22.3125 43.546875 
Q 18.109375 38.921875 18.109375 30.90625 
L 18.109375 0 
L 9.078125 0 
L 9.078125 54.6875 
L 18.109375 54.6875 
L 18.109375 46.1875 
Q 21.34375 51.125 25.703125 53.5625 
Q 30.078125 56 35.796875 56 
Q 45.21875 56 50.046875 50.171875 
Q 54.890625 44.34375 54.890625 33.015625 
z
" id="DejaVuSans-110"/>
     </defs>
     <g transform="translate(368.234063 58.070437)scale(0.1 -0.1)">
      <use xlink:href="#DejaVuSans-109"/>
      <use x="97.412109" xlink:href="#DejaVuSans-101"/>
      <use x="158.935547" xlink:href="#DejaVuSans-100"/>
      <use x="222.412109" xlink:href="#DejaVuSans-105"/>
      <use x="250.195312" xlink:href="#DejaVuSans-97"/>
      <use x="311.474609" xlink:href="#DejaVuSans-110"/>
     </g>
    </g>
    <g id="line2d_19">
     <path d="M 340.234063 69.248562 
L 360.234063 69.248562 
" style="fill:none;stroke:#2ca02c;stroke-linecap:square;stroke-width:0.75;"/>
    </g>
    <g id="line2d_20"/>
    <g id="text_16">
     <!-- mean -->
     <g transform="translate(368.234063 72.748562)scale(0.1 -0.1)">
      <use xlink:href="#DejaVuSans-109"/>
      <use x="97.412109" xlink:href="#DejaVuSans-101"/>
      <use x="158.935547" xlink:href="#DejaVuSans-97"/>
      <use x="220.214844" xlink:href="#DejaVuSans-110"/>
     </g>
    </g>
   </g>
  </g>
  <g id="text_17">
   <!-- log_loss.mean over generations -->
   <defs>
    <path d="M 9.421875 75.984375 
L 18.40625 75.984375 
L 18.40625 0 
L 9.421875 0 
z
" id="DejaVuSans-108"/>
    <path d="M 30.609375 48.390625 
Q 23.390625 48.390625 19.1875 42.75 
Q 14.984375 37.109375 14.984375 27.296875 
Q 14.984375 17.484375 19.15625 11.84375 
Q 23.34375 6.203125 30.609375 6.203125 
Q 37.796875 6.203125 41.984375 11.859375 
Q 46.1875 17.53125 46.1875 27.296875 
Q 46.1875 37.015625 41.984375 42.703125 
Q 37.796875 48.390625 30.609375 48.390625 
z
M 30.609375 56 
Q 42.328125 56 49.015625 48.375 
Q 55.71875 40.765625 55.71875 27.296875 
Q 55.71875 13.875 49.015625 6.21875 
Q 42.328125 -1.421875 30.609375 -1.421875 
Q 18.84375 -1.421875 12.171875 6.21875 
Q 5.515625 13.875 5.515625 27.296875 
Q 5.515625 40.765625 12.171875 48.375 
Q 18.84375 56 30.609375 56 
z
" id="DejaVuSans-111"/>
    <path d="M 45.40625 27.984375 
Q 45.40625 37.75 41.375 43.109375 
Q 37.359375 48.484375 30.078125 48.484375 
Q 22.859375 48.484375 18.828125 43.109375 
Q 14.796875 37.75 14.796875 27.984375 
Q 14.796875 18.265625 18.828125 12.890625 
Q 22.859375 7.515625 30.078125 7.515625 
Q 37.359375 7.515625 41.375 12.890625 
Q 45.40625 18.265625 45.40625 27.984375 
z
M 54.390625 6.78125 
Q 54.390625 -7.171875 48.1875 -13.984375 
Q 42 -20.796875 29.203125 -20.796875 
Q 24.46875 -20.796875 20.265625 -20.09375 
Q 16.0625 -19.390625 12.109375 -17.921875 
L 12.109375 -9.1875 
Q 16.0625 -11.328125 19.921875 -12.34375 
Q 23.78125 -13.375 27.78125 -13.375 
Q 36.625 -13.375 41.015625 -8.765625 
Q 45.40625 -4.15625 45.40625 5.171875 
L 45.40625 9.625 
Q 42.625 4.78125 38.28125 2.390625 
Q 33.9375 0 27.875 0 
Q 17.828125 0 11.671875 7.65625 
Q 5.515625 15.328125 5.515625 27.984375 
Q 5.515625 40.671875 11.671875 48.328125 
Q 17.828125 56 27.875 56 
Q 33.9375 56 38.28125 53.609375 
Q 42.625 51.21875 45.40625 46.390625 
L 45.40625 54.6875 
L 54.390625 54.6875 
z
" id="DejaVuSans-103"/>
    <path d="M 50.984375 -16.609375 
L 50.984375 -23.578125 
L -0.984375 -23.578125 
L -0.984375 -16.609375 
z
" id="DejaVuSans-95"/>
    <path d="M 44.28125 53.078125 
L 44.28125 44.578125 
Q 40.484375 46.53125 36.375 47.5 
Q 32.28125 48.484375 27.875 48.484375 
Q 21.1875 48.484375 17.84375 46.4375 
Q 14.5 44.390625 14.5 40.28125 
Q 14.5 37.15625 16.890625 35.375 
Q 19.28125 33.59375 26.515625 31.984375 
L 29.59375 31.296875 
Q 39.15625 29.25 43.1875 25.515625 
Q 47.21875 21.78125 47.21875 15.09375 
Q 47.21875 7.46875 41.1875 3.015625 
Q 35.15625 -1.421875 24.609375 -1.421875 
Q 20.21875 -1.421875 15.453125 -0.5625 
Q 10.6875 0.296875 5.421875 2 
L 5.421875 11.28125 
Q 10.40625 8.6875 15.234375 7.390625 
Q 20.0625 6.109375 24.8125 6.109375 
Q 31.15625 6.109375 34.5625 8.28125 
Q 37.984375 10.453125 37.984375 14.40625 
Q 37.984375 18.0625 35.515625 20.015625 
Q 33.0625 21.96875 24.703125 23.78125 
L 21.578125 24.515625 
Q 13.234375 26.265625 9.515625 29.90625 
Q 5.8125 33.546875 5.8125 39.890625 
Q 5.8125 47.609375 11.28125 51.796875 
Q 16.75 56 26.8125 56 
Q 31.78125 56 36.171875 55.265625 
Q 40.578125 54.546875 44.28125 53.078125 
z
" id="DejaVuSans-115"/>
    <path d="M 10.6875 12.40625 
L 21 12.40625 
L 21 0 
L 10.6875 0 
z
" id="DejaVuSans-46"/>
    <path id="DejaVuSans-32"/>
    <path d="M 2.984375 54.6875 
L 12.5 54.6875 
L 29.59375 8.796875 
L 46.6875 54.6875 
L 56.203125 54.6875 
L 35.6875 0 
L 23.484375 0 
z
" id="DejaVuSans-118"/>
    <path d="M 41.109375 46.296875 
Q 39.59375 47.171875 37.8125 47.578125 
Q 36.03125 48 33.890625 48 
Q 26.265625 48 22.1875 43.046875 
Q 18.109375 38.09375 18.109375 28.8125 
L 18.109375 0 
L 9.078125 0 
L 9.078125 54.6875 
L 18.109375 54.6875 
L 18.109375 46.1875 
Q 20.953125 51.171875 25.484375 53.578125 
Q 30.03125 56 36.53125 56 
Q 37.453125 56 38.578125 55.875 
Q 39.703125 55.765625 41.0625 55.515625 
z
" id="DejaVuSans-114"/>
    <path d="M 18.3125 70.21875 
L 18.3125 54.6875 
L 36.8125 54.6875 
L 36.8125 47.703125 
L 18.3125 47.703125 
L 18.3125 18.015625 
Q 18.3125 11.328125 20.140625 9.421875 
Q 21.96875 7.515625 27.59375 7.515625 
L 36.8125 7.515625 
L 36.8125 0 
L 27.59375 0 
Q 17.1875 0 13.234375 3.875 
Q 9.28125 7.765625 9.28125 18.015625 
L 9.28125 47.703125 
L 2.6875 47.703125 
L 2.6875 54.6875 
L 9.28125 54.6875 
L 9.28125 70.21875 
z
" id="DejaVuSans-116"/>
   </defs>
   <g transform="translate(134.789062 16.030125)scale(0.12 -0.12)">
    <use xlink:href="#DejaVuSans-108"/>
    <use x="27.783203" xlink:href="#DejaVuSans-111"/>
    <use x="88.964844" xlink:href="#DejaVuSans-103"/>
    <use x="152.441406" xlink:href="#DejaVuSans-95"/>
    <use x="202.441406" xlink:href="#DejaVuSans-108"/>
    <use x="230.224609" xlink:href="#DejaVuSans-111"/>
    <use x="291.40625" xlink:href="#DejaVuSans-115"/>
    <use x="343.505859" xlink:href="#DejaVuSans-115"/>
    <use x="395.605469" xlink:href="#DejaVuSans-46"/>
    <use x="427.392578" xlink:href="#DejaVuSans-109"/>
    <use x="524.804688" xlink:href="#DejaVuSans-101"/>
    <use x="586.328125" xlink:href="#DejaVuSans-97"/>
    <use x="647.607422" xlink:href="#DejaVuSans-110"/>
    <use x="710.986328" xlink:href="#DejaVuSans-32"/>
    <use x="742.773438" xlink:href="#DejaVuSans-111"/>
    <use x="803.955078" xlink:href="#DejaVuSans-118"/>
    <use x="863.134766" xlink:href="#DejaVuSans-101"/>
    <use x="924.658203" xlink:href="#DejaVuSans-114"/>
    <use x="965.771484" xlink:href="#DejaVuSans-32"/>
    <use x="997.558594" xlink:href="#DejaVuSans-103"/>
    <use x="1061.035156" xlink:href="#DejaVuSans-101"/>
    <use x="1122.558594" xlink:href="#DejaVuSans-110"/>
    <use x="1185.9375" xlink:href="#DejaVuSans-101"/>
    <use x="1247.460938" xlink:href="#DejaVuSans-114"/>
    <use x="1288.574219" xlink:href="#DejaVuSans-97"/>
    <use x="1349.853516" xlink:href="#DejaVuSans-116"/>
    <use x="1389.0625" xlink:href="#DejaVuSans-105"/>
    <use x="1416.845703" xlink:href="#DejaVuSans-111"/>
    <use x="1478.027344" xlink:href="#DejaVuSans-110"/>
    <use x="1541.40625" xlink:href="#DejaVuSans-115"/>
   </g>
  </g>
 </g>
 <defs>
  <clipPath id="pa90777de1e">
   <rect height="266.112" width="357.12" x="57.6" y="41.472"/>
  </clipPath>
 </defs>
</svg>
