<?xml version="1.0" encoding="utf-8" standalone="no"?>
<!DOCTYPE svg PUBLIC "-//W3C//DTD SVG 1.1//EN"
  "http://www.w3.org/Graphics/SVG/1.1/DTD/svg11.dtd">
<!-- Created with matplotlib (https://matplotlib.org/) -->
<svg height="345.6pt" version="1.1" viewBox="0 0 460.8 345.6" width="460.8pt" xmlns="http://www.w3.org/2000/svg" xmlns:xlink="http://www.w3.org/1999/xlink">
 <defs>
  <style type="text/css">
*{stroke-linecap:butt;stroke-linejoin:round;}
  </style>
 </defs>
 <g id="figure_1">
  <g id="patch_1">
   <path d="M 0 345.6 
L 460.8 345.6 
L 460.8 0 
L 0 0 
z
" style="fill:#ffffff;"/>
  </g>
  <g id="axes_1">
   <g id="patch_2">
    <path d="M 57.6 307.584 
L 414.72 307.584 
L 414.72 41.472 
L 57.6 41.472 
z
" style="fill:#ffffff;"/>
   </g>
   <g id="PolyCollection_1">
    <path clip-path="url(#p8d364cfbbf)" d="M 73.832727 290.625269 
L 73.832727 290.940925 
L 75.464157 290.940925 
L 77.095587 290.940925 
L 78.727017 290.940925 
L 80.358447 290.940925 
L 81.989877 290.940925 
L 83.621307 290.940925 
L 85.252736 290.940925 
L 86.884166 290.940925 
L 88.515596 290.940925 
L 90.147026 290.940925 
L 91.778456 290.940925 
L 93.409886 290.940925 
L 95.041316 290.940925 
L 96.672746 290.940925 
L 98.304175 290.940925 
L 99.935605 290.940925 
L 101.567035 290.940925 
L 103.198465 290.940925 
L 104.829895 290.940925 
L 106.461325 290.940925 
L 108.092755 290.940925 
L 109.724185 290.940925 
L 111.355614 290.940925 
L 112.987044 290.940925 
L 114.618474 290.940925 
L 116.249904 290.940925 
L 117.881334 290.940925 
L 119.512764 290.940925 
L 121.144194 290.940925 
L 122.775624 290.940925 
L 124.407053 290.940925 
L 126.038483 290.940925 
L 127.669913 290.940925 
L 129.301343 290.940925 
L 130.932773 290.940925 
L 132.564203 290.940925 
L 134.195633 290.940925 
L 135.827063 290.940925 
L 137.458492 290.940925 
L 139.089922 290.940925 
L 140.721352 290.940925 
L 142.352782 290.940925 
L 143.984212 290.940925 
L 145.615642 290.940925 
L 147.247072 290.940925 
L 148.878502 290.940925 
L 150.509931 290.940925 
L 152.141361 290.940925 
L 153.772791 290.940925 
L 155.404221 290.940925 
L 157.035651 290.940925 
L 158.667081 290.940925 
L 160.298511 290.940925 
L 161.929941 290.940925 
L 163.56137 290.940925 
L 165.1928 290.940925 
L 166.82423 290.940925 
L 168.45566 290.940925 
L 170.08709 290.940925 
L 171.71852 290.940925 
L 173.34995 290.940925 
L 174.98138 290.940925 
L 176.61281 290.940925 
L 178.244239 290.940925 
L 179.875669 290.940925 
L 181.507099 290.940925 
L 183.138529 290.940925 
L 184.769959 290.940925 
L 186.401389 290.940925 
L 188.032819 290.940925 
L 189.664249 290.940925 
L 191.295678 290.940925 
L 192.927108 290.940925 
L 194.558538 290.940925 
L 196.189968 290.940925 
L 197.821398 290.940925 
L 199.452828 290.940925 
L 201.084258 290.940925 
L 202.715688 290.940925 
L 204.347117 290.940925 
L 205.978547 290.940925 
L 207.609977 290.940925 
L 209.241407 290.940925 
L 210.872837 290.940925 
L 212.504267 290.940925 
L 214.135697 290.940925 
L 215.767127 290.938859 
L 217.398556 290.938498 
L 219.029986 290.805108 
L 220.661416 290.941358 
L 222.292846 290.97822 
L 223.924276 291.025662 
L 225.555706 290.999523 
L 227.187136 290.948459 
L 228.818566 290.83982 
L 230.449995 290.942244 
L 232.081425 290.941293 
L 233.712855 291.139307 
L 235.344285 290.966921 
L 236.975715 291.105062 
L 238.607145 291.120555 
L 240.238575 291.19055 
L 241.870005 290.9964 
L 243.501434 290.941752 
L 245.132864 291.9708 
L 246.764294 291.517855 
L 248.395724 291.084904 
L 250.027154 292.474673 
L 251.658584 290.907955 
L 253.290014 291.508353 
L 254.921444 291.281443 
L 256.552873 290.981642 
L 258.184303 291.361422 
L 259.815733 292.121519 
L 261.447163 291.619149 
L 263.078593 290.813173 
L 264.710023 290.950905 
L 266.341453 291.521244 
L 267.972883 291.34991 
L 269.604312 290.940935 
L 271.235742 291.222869 
L 272.867172 291.253311 
L 274.498602 292.133514 
L 276.130032 291.853066 
L 277.761462 292.849274 
L 279.392892 291.743939 
L 281.024322 291.816698 
L 282.655751 291.811697 
L 284.287181 291.125331 
L 285.918611 291.952145 
L 287.550041 291.433191 
L 289.181471 290.941086 
L 290.812901 293.084189 
L 292.444331 291.039506 
L 294.075761 292.251311 
L 295.70719 292.971356 
L 297.33862 293.214462 
L 298.97005 291.738022 
L 300.60148 293.829803 
L 302.23291 292.740799 
L 303.86434 292.119734 
L 305.49577 292.178954 
L 307.1272 292.101726 
L 308.75863 290.940925 
L 310.390059 292.570254 
L 312.021489 291.962445 
L 313.652919 291.210277 
L 315.284349 291.761206 
L 316.915779 292.002579 
L 318.547209 292.189741 
L 320.178639 292.344652 
L 321.810069 291.161473 
L 323.441498 290.940248 
L 325.072928 291.197387 
L 326.704358 291.407577 
L 328.335788 291.884259 
L 329.967218 292.228907 
L 331.598648 291.917424 
L 333.230078 292.541905 
L 334.861508 293.480584 
L 336.492937 291.849931 
L 338.124367 291.35735 
L 339.755797 293.005357 
L 341.387227 291.892319 
L 343.018657 291.136225 
L 344.650087 290.993055 
L 346.281517 291.200408 
L 347.912947 291.069068 
L 349.544376 290.941149 
L 351.175806 291.251112 
L 352.807236 291.568847 
L 354.438666 291.186574 
L 356.070096 292.544559 
L 357.701526 291.064685 
L 359.332956 291.656144 
L 360.964386 292.089337 
L 362.595815 293.342164 
L 364.227245 292.410202 
L 365.858675 291.612517 
L 367.490105 291.498333 
L 369.121535 291.155729 
L 370.752965 291.361887 
L 372.384395 291.842061 
L 374.015825 291.400918 
L 375.647254 292.254253 
L 377.278684 291.854503 
L 378.910114 292.471489 
L 380.541544 292.324759 
L 382.172974 291.387665 
L 383.804404 291.756321 
L 385.435834 292.31546 
L 387.067264 292.67578 
L 388.698693 292.375877 
L 390.330123 292.301293 
L 391.961553 291.817409 
L 393.592983 292.063947 
L 395.224413 292.555716 
L 396.855843 292.575484 
L 398.487273 292.49946 
L 398.487273 288.759217 
L 398.487273 288.759217 
L 396.855843 289.781933 
L 395.224413 238.868818 
L 393.592983 289.759817 
L 391.961553 289.258419 
L 390.330123 289.896734 
L 388.698693 289.88869 
L 387.067264 289.743503 
L 385.435834 290.164601 
L 383.804404 277.253113 
L 382.172974 289.69431 
L 380.541544 289.507097 
L 378.910114 290.083921 
L 377.278684 285.345788 
L 375.647254 288.955413 
L 374.015825 282.351673 
L 372.384395 289.957028 
L 370.752965 288.759004 
L 369.121535 288.781298 
L 367.490105 289.849474 
L 365.858675 286.334054 
L 364.227245 290.230222 
L 362.595815 287.067755 
L 360.964386 289.626837 
L 359.332956 270.891684 
L 357.701526 289.480554 
L 356.070096 289.773742 
L 354.438666 289.743447 
L 352.807236 290.126555 
L 351.175806 289.663105 
L 349.544376 289.842409 
L 347.912947 289.747788 
L 346.281517 259.89512 
L 344.650087 286.017062 
L 343.018657 289.494131 
L 341.387227 289.468915 
L 339.755797 289.772633 
L 338.124367 284.835099 
L 336.492937 290.063237 
L 334.861508 289.94711 
L 333.230078 289.914445 
L 331.598648 289.82004 
L 329.967218 290.034309 
L 328.335788 289.702854 
L 326.704358 289.322582 
L 325.072928 276.011528 
L 323.441498 289.716817 
L 321.810069 289.447126 
L 320.178639 289.348792 
L 318.547209 285.991682 
L 316.915779 290.086198 
L 315.284349 235.232561 
L 313.652919 290.287699 
L 312.021489 289.818463 
L 310.390059 290.102376 
L 308.75863 290.693063 
L 307.1272 289.797017 
L 305.49577 289.792964 
L 303.86434 289.908394 
L 302.23291 289.782487 
L 300.60148 289.81164 
L 298.97005 289.994349 
L 297.33862 289.86785 
L 295.70719 266.036706 
L 294.075761 265.05735 
L 292.444331 290.306182 
L 290.812901 289.646401 
L 289.181471 287.554473 
L 287.550041 289.743862 
L 285.918611 289.780349 
L 284.287181 289.739897 
L 282.655751 290.017386 
L 281.024322 289.353914 
L 279.392892 290.268907 
L 277.761462 289.818314 
L 276.130032 289.748812 
L 274.498602 289.699517 
L 272.867172 289.77888 
L 271.235742 289.631077 
L 269.604312 289.134042 
L 267.972883 289.412155 
L 266.341453 251.250106 
L 264.710023 290.472496 
L 263.078593 289.279642 
L 261.447163 287.897767 
L 259.815733 289.741773 
L 258.184303 289.20515 
L 256.552873 288.714983 
L 254.921444 289.829788 
L 253.290014 281.446559 
L 251.658584 290.325759 
L 250.027154 289.794843 
L 248.395724 288.114896 
L 246.764294 288.207035 
L 245.132864 277.966098 
L 243.501434 290.524455 
L 241.870005 289.43913 
L 240.238575 289.881136 
L 238.607145 289.527378 
L 236.975715 289.970309 
L 235.344285 288.476521 
L 233.712855 289.884177 
L 232.081425 276.006135 
L 230.449995 289.735616 
L 228.818566 279.316396 
L 227.187136 289.841327 
L 225.555706 288.545097 
L 223.924276 289.767489 
L 222.292846 290.61008 
L 220.661416 289.780716 
L 219.029986 290.165462 
L 217.398556 290.059304 
L 215.767127 289.8801 
L 214.135697 289.891743 
L 212.504267 289.973941 
L 210.872837 290.625269 
L 209.241407 290.163123 
L 207.609977 290.443462 
L 205.978547 290.42239 
L 204.347117 290.42239 
L 202.715688 289.902829 
L 201.084258 290.42239 
L 199.452828 290.625269 
L 197.821398 290.42239 
L 196.189968 289.903856 
L 194.558538 290.163123 
L 192.927108 290.66756 
L 191.295678 290.42239 
L 189.664249 289.903856 
L 188.032819 290.42239 
L 186.401389 290.163123 
L 184.769959 290.625269 
L 183.138529 290.42239 
L 181.507099 290.163123 
L 179.875669 290.625269 
L 178.244239 290.42239 
L 176.61281 290.163123 
L 174.98138 289.903856 
L 173.34995 289.903856 
L 171.71852 290.163123 
L 170.08709 289.903856 
L 168.45566 290.163123 
L 166.82423 290.625269 
L 165.1928 290.681657 
L 163.56137 290.163123 
L 161.929941 290.42239 
L 160.298511 290.42239 
L 158.667081 289.903856 
L 157.035651 290.625269 
L 155.404221 290.163123 
L 153.772791 290.42239 
L 152.141361 290.42239 
L 150.509931 290.163123 
L 148.878502 290.42239 
L 147.247072 289.903856 
L 145.615642 289.644588 
L 143.984212 290.42239 
L 142.352782 290.681657 
L 140.721352 290.625269 
L 139.089922 290.42239 
L 137.458492 290.625269 
L 135.827063 290.681657 
L 134.195633 290.163123 
L 132.564203 290.163123 
L 130.932773 290.163123 
L 129.301343 290.42239 
L 127.669913 290.625269 
L 126.038483 289.903856 
L 124.407053 290.42239 
L 122.775624 290.625269 
L 121.144194 290.163123 
L 119.512764 290.163123 
L 117.881334 290.42239 
L 116.249904 290.163123 
L 114.618474 290.625269 
L 112.987044 290.625269 
L 111.355614 290.42239 
L 109.724185 290.42239 
L 108.092755 290.163123 
L 106.461325 290.163123 
L 104.829895 290.42239 
L 103.198465 290.163123 
L 101.567035 290.163123 
L 99.935605 290.625269 
L 98.304175 289.644588 
L 96.672746 289.903856 
L 95.041316 290.66756 
L 93.409886 290.42239 
L 91.778456 290.42239 
L 90.147026 290.625269 
L 88.515596 290.42239 
L 86.884166 290.163123 
L 85.252736 289.903856 
L 83.621307 290.163123 
L 81.989877 290.163123 
L 80.358447 290.163123 
L 78.727017 290.625269 
L 77.095587 290.42239 
L 75.464157 290.42239 
L 73.832727 290.625269 
z
" style="fill:#1f77b4;fill-opacity:0.2;"/>
   </g>
   <g id="PolyCollection_2">
    <path clip-path="url(#p8d364cfbbf)" d="M 73.832727 289.644588 
L 73.832727 290.940925 
L 75.464157 290.940925 
L 77.095587 290.940925 
L 78.727017 290.940925 
L 80.358447 290.940925 
L 81.989877 290.940925 
L 83.621307 290.940925 
L 85.252736 290.940925 
L 86.884166 290.940925 
L 88.515596 290.940925 
L 90.147026 290.940925 
L 91.778456 290.940925 
L 93.409886 290.940925 
L 95.041316 290.940925 
L 96.672746 290.940925 
L 98.304175 290.940925 
L 99.935605 290.940925 
L 101.567035 290.940925 
L 103.198465 290.940925 
L 104.829895 290.940925 
L 106.461325 290.940925 
L 108.092755 290.940925 
L 109.724185 290.940925 
L 111.355614 290.940925 
L 112.987044 290.940925 
L 114.618474 290.940925 
L 116.249904 290.940925 
L 117.881334 290.940925 
L 119.512764 290.940925 
L 121.144194 290.940925 
L 122.775624 290.940925 
L 124.407053 290.940925 
L 126.038483 290.940925 
L 127.669913 290.940925 
L 129.301343 290.940925 
L 130.932773 290.940925 
L 132.564203 290.940925 
L 134.195633 290.940925 
L 135.827063 290.940925 
L 137.458492 290.940925 
L 139.089922 290.940925 
L 140.721352 290.940925 
L 142.352782 290.940925 
L 143.984212 290.940925 
L 145.615642 290.940925 
L 147.247072 290.940925 
L 148.878502 290.940925 
L 150.509931 290.940925 
L 152.141361 290.940925 
L 153.772791 290.940925 
L 155.404221 290.940925 
L 157.035651 290.940925 
L 158.667081 290.940925 
L 160.298511 290.940925 
L 161.929941 290.940925 
L 163.56137 290.940925 
L 165.1928 290.940925 
L 166.82423 290.940925 
L 168.45566 290.940925 
L 170.08709 290.940925 
L 171.71852 290.940925 
L 173.34995 290.940925 
L 174.98138 290.940925 
L 176.61281 290.940925 
L 178.244239 290.940925 
L 179.875669 290.940925 
L 181.507099 290.940925 
L 183.138529 290.940925 
L 184.769959 290.940925 
L 186.401389 290.940925 
L 188.032819 290.940925 
L 189.664249 290.940925 
L 191.295678 290.940925 
L 192.927108 290.940925 
L 194.558538 290.940925 
L 196.189968 290.940925 
L 197.821398 290.940925 
L 199.452828 290.940925 
L 201.084258 290.940925 
L 202.715688 290.940925 
L 204.347117 290.940925 
L 205.978547 290.940925 
L 207.609977 290.940925 
L 209.241407 290.940925 
L 210.872837 290.940925 
L 212.504267 290.940925 
L 214.135697 290.940925 
L 215.767127 291.156558 
L 217.398556 291.16004 
L 219.029986 291.249045 
L 220.661416 291.523105 
L 222.292846 291.495382 
L 223.924276 292.435602 
L 225.555706 292.714144 
L 227.187136 293.173567 
L 228.818566 293.867882 
L 230.449995 293.928708 
L 232.081425 293.63869 
L 233.712855 293.212934 
L 235.344285 293.196188 
L 236.975715 293.155405 
L 238.607145 293.541222 
L 240.238575 292.867939 
L 241.870005 293.608866 
L 243.501434 292.764353 
L 245.132864 293.920844 
L 246.764294 293.248816 
L 248.395724 293.236109 
L 250.027154 293.223 
L 251.658584 293.111669 
L 253.290014 294.466144 
L 254.921444 293.843713 
L 256.552873 292.733878 
L 258.184303 293.549108 
L 259.815733 294.159818 
L 261.447163 293.009376 
L 263.078593 292.871262 
L 264.710023 292.762227 
L 266.341453 293.513199 
L 267.972883 293.401413 
L 269.604312 293.392915 
L 271.235742 293.335731 
L 272.867172 294.240417 
L 274.498602 293.214462 
L 276.130032 294.295517 
L 277.761462 295.44285 
L 279.392892 293.227267 
L 281.024322 293.205984 
L 282.655751 293.156928 
L 284.287181 293.407588 
L 285.918611 293.398374 
L 287.550041 294.351231 
L 289.181471 293.023854 
L 290.812901 294.351231 
L 292.444331 293.425522 
L 294.075761 293.415928 
L 295.70719 293.407169 
L 297.33862 293.399139 
L 298.97005 293.342068 
L 300.60148 294.351231 
L 302.23291 293.619077 
L 303.86434 293.598903 
L 305.49577 294.351231 
L 307.1272 293.345625 
L 308.75863 293.236321 
L 310.390059 294.147766 
L 312.021489 293.318462 
L 313.652919 293.202068 
L 315.284349 293.375292 
L 316.915779 293.357665 
L 318.547209 294.351231 
L 320.178639 295.488 
L 321.810069 293.347018 
L 323.441498 295.487996 
L 325.072928 295.488 
L 326.704358 293.958298 
L 328.335788 295.488 
L 329.967218 293.765724 
L 331.598648 293.740666 
L 333.230078 294.33523 
L 334.861508 294.359869 
L 336.492937 293.413616 
L 338.124367 293.948024 
L 339.755797 294.337259 
L 341.387227 293.067592 
L 343.018657 295.488 
L 344.650087 293.214461 
L 346.281517 293.281794 
L 347.912947 294.351231 
L 349.544376 293.391802 
L 351.175806 294.351231 
L 352.807236 293.078664 
L 354.438666 293.549108 
L 356.070096 294.292739 
L 357.701526 293.403799 
L 359.332956 293.395193 
L 360.964386 295.227832 
L 362.595815 295.475111 
L 364.227245 293.156226 
L 365.858675 293.151613 
L 367.490105 293.115905 
L 369.121535 294.351231 
L 370.752965 294.369381 
L 372.384395 293.364388 
L 374.015825 293.305898 
L 375.647254 294.311188 
L 377.278684 293.415108 
L 378.910114 295.343641 
L 380.541544 293.477201 
L 382.172974 293.408608 
L 383.804404 293.400167 
L 385.435834 293.362277 
L 387.067264 294.351231 
L 388.698693 293.214461 
L 390.330123 293.319939 
L 391.961553 293.260785 
L 393.592983 293.346977 
L 395.224413 294.19644 
L 396.855843 293.358023 
L 398.487273 293.150248 
L 398.487273 195.335119 
L 398.487273 195.335119 
L 396.855843 187.506183 
L 395.224413 151.515958 
L 393.592983 127.641996 
L 391.961553 105.498725 
L 390.330123 192.51555 
L 388.698693 121.322589 
L 387.067264 129.79533 
L 385.435834 173.586938 
L 383.804404 160.745559 
L 382.172974 157.441959 
L 380.541544 191.830022 
L 378.910114 100.501168 
L 377.278684 192.707338 
L 375.647254 147.024197 
L 374.015825 191.012224 
L 372.384395 195.512902 
L 370.752965 145.098358 
L 369.121535 148.09152 
L 367.490105 151.774827 
L 365.858675 195.438983 
L 364.227245 203.781943 
L 362.595815 171.278277 
L 360.964386 108.099822 
L 359.332956 106.059208 
L 357.701526 141.742312 
L 356.070096 148.094649 
L 354.438666 148.081123 
L 352.807236 190.857064 
L 351.175806 147.987509 
L 349.544376 131.508127 
L 347.912947 148.043183 
L 346.281517 144.941897 
L 344.650087 157.066038 
L 343.018657 100.575784 
L 341.387227 185.707973 
L 339.755797 148.205824 
L 338.124367 183.026718 
L 336.492937 219.238077 
L 334.861508 145.397137 
L 333.230078 181.857058 
L 331.598648 154.162834 
L 329.967218 191.502485 
L 328.335788 100.646086 
L 326.704358 194.38535 
L 325.072928 100.646086 
L 323.441498 175.53579 
L 321.810069 211.180581 
L 320.178639 100.646086 
L 318.547209 148.219795 
L 316.915779 223.711238 
L 315.284349 173.375132 
L 313.652919 216.625846 
L 312.021489 225.423234 
L 310.390059 176.496401 
L 308.75863 75.711287 
L 307.1272 187.647543 
L 305.49577 148.075857 
L 303.86434 143.282333 
L 302.23291 195.574207 
L 300.60148 148.219795 
L 298.97005 165.953915 
L 297.33862 190.067848 
L 295.70719 159.003347 
L 294.075761 192.176066 
L 292.444331 155.801584 
L 290.812901 148.219795 
L 289.181471 156.65884 
L 287.550041 148.219795 
L 285.918611 178.57584 
L 284.287181 189.695357 
L 282.655751 182.384214 
L 281.024322 224.19939 
L 279.392892 176.0583 
L 277.761462 100.646086 
L 276.130032 104.719208 
L 274.498602 195.582247 
L 272.867172 143.970143 
L 271.235742 185.895437 
L 269.604312 116.812713 
L 267.972883 268.982362 
L 266.341453 159.835514 
L 264.710023 167.492562 
L 263.078593 259.622136 
L 261.447163 195.512818 
L 259.815733 144.146617 
L 258.184303 144.891926 
L 256.552873 243.808796 
L 254.921444 145.051799 
L 253.290014 149.435652 
L 251.658584 167.547299 
L 250.027154 195.511374 
L 248.395724 180.987353 
L 246.764294 233.564307 
L 245.132864 147.624323 
L 243.501434 182.591437 
L 241.870005 200.238111 
L 240.238575 236.458058 
L 238.607145 209.366406 
L 236.975715 236.489846 
L 235.344285 220.000012 
L 233.712855 242.410432 
L 232.081425 145.063239 
L 230.449995 148.093533 
L 228.818566 144.873584 
L 227.187136 215.487516 
L 225.555706 196.874694 
L 223.924276 200.626796 
L 222.292846 194.63755 
L 220.661416 191.078536 
L 219.029986 113.096847 
L 217.398556 237.33549 
L 215.767127 274.841114 
L 214.135697 53.568 
L 212.504267 201.011127 
L 210.872837 211.816159 
L 209.241407 222.946049 
L 207.609977 192.286078 
L 205.978547 187.916877 
L 204.347117 229.782873 
L 202.715688 246.878061 
L 201.084258 219.077683 
L 199.452828 216.164366 
L 197.821398 289.644588 
L 196.189968 289.644588 
L 194.558538 289.644588 
L 192.927108 289.644588 
L 191.295678 289.644588 
L 189.664249 289.644588 
L 188.032819 289.644588 
L 186.401389 289.644588 
L 184.769959 289.644588 
L 183.138529 289.644588 
L 181.507099 289.644588 
L 179.875669 289.644588 
L 178.244239 289.644588 
L 176.61281 289.644588 
L 174.98138 289.644588 
L 173.34995 289.644588 
L 171.71852 289.644588 
L 170.08709 289.644588 
L 168.45566 289.644588 
L 166.82423 289.644588 
L 165.1928 289.644588 
L 163.56137 289.644588 
L 161.929941 289.644588 
L 160.298511 289.644588 
L 158.667081 289.644588 
L 157.035651 289.644588 
L 155.404221 289.644588 
L 153.772791 289.644588 
L 152.141361 289.644588 
L 150.509931 289.644588 
L 148.878502 289.644588 
L 147.247072 289.644588 
L 145.615642 289.644588 
L 143.984212 289.644588 
L 142.352782 289.644588 
L 140.721352 289.644588 
L 139.089922 289.644588 
L 137.458492 289.644588 
L 135.827063 289.644588 
L 134.195633 289.644588 
L 132.564203 289.644588 
L 130.932773 289.644588 
L 129.301343 289.644588 
L 127.669913 289.644588 
L 126.038483 289.644588 
L 124.407053 289.644588 
L 122.775624 289.644588 
L 121.144194 289.644588 
L 119.512764 289.644588 
L 117.881334 289.644588 
L 116.249904 289.644588 
L 114.618474 289.644588 
L 112.987044 289.644588 
L 111.355614 289.644588 
L 109.724185 289.644588 
L 108.092755 289.644588 
L 106.461325 289.644588 
L 104.829895 289.644588 
L 103.198465 289.644588 
L 101.567035 289.644588 
L 99.935605 289.644588 
L 98.304175 289.644588 
L 96.672746 289.644588 
L 95.041316 289.644588 
L 93.409886 289.644588 
L 91.778456 289.644588 
L 90.147026 289.644588 
L 88.515596 289.644588 
L 86.884166 289.644588 
L 85.252736 289.644588 
L 83.621307 289.644588 
L 81.989877 289.644588 
L 80.358447 289.644588 
L 78.727017 289.644588 
L 77.095587 289.644588 
L 75.464157 289.644588 
L 73.832727 289.644588 
z
" style="fill:#1f77b4;fill-opacity:0.1;"/>
   </g>
   <g id="matplotlib.axis_1">
    <g id="xtick_1">
     <g id="line2d_1">
      <defs>
       <path d="M 0 0 
L 0 3.5 
" id="mbd545198fb" style="stroke:#000000;stroke-width:0.8;"/>
      </defs>
      <g>
       <use style="stroke:#000000;stroke-width:0.8;" x="73.832727" xlink:href="#mbd545198fb" y="307.584"/>
      </g>
     </g>
     <g id="text_1">
      <!-- 0 -->
      <defs>
       <path d="M 31.78125 66.40625 
Q 24.171875 66.40625 20.328125 58.90625 
Q 16.5 51.421875 16.5 36.375 
Q 16.5 21.390625 20.328125 13.890625 
Q 24.171875 6.390625 31.78125 6.390625 
Q 39.453125 6.390625 43.28125 13.890625 
Q 47.125 21.390625 47.125 36.375 
Q 47.125 51.421875 43.28125 58.90625 
Q 39.453125 66.40625 31.78125 66.40625 
z
M 31.78125 74.21875 
Q 44.046875 74.21875 50.515625 64.515625 
Q 56.984375 54.828125 56.984375 36.375 
Q 56.984375 17.96875 50.515625 8.265625 
Q 44.046875 -1.421875 31.78125 -1.421875 
Q 19.53125 -1.421875 13.0625 8.265625 
Q 6.59375 17.96875 6.59375 36.375 
Q 6.59375 54.828125 13.0625 64.515625 
Q 19.53125 74.21875 31.78125 74.21875 
z
" id="DejaVuSans-48"/>
      </defs>
      <g transform="translate(70.651477 322.182437)scale(0.1 -0.1)">
       <use xlink:href="#DejaVuSans-48"/>
      </g>
     </g>
    </g>
    <g id="xtick_2">
     <g id="line2d_2">
      <g>
       <use style="stroke:#000000;stroke-width:0.8;" x="114.618474" xlink:href="#mbd545198fb" y="307.584"/>
      </g>
     </g>
     <g id="text_2">
      <!-- 25 -->
      <defs>
       <path d="M 19.1875 8.296875 
L 53.609375 8.296875 
L 53.609375 0 
L 7.328125 0 
L 7.328125 8.296875 
Q 12.9375 14.109375 22.625 23.890625 
Q 32.328125 33.6875 34.8125 36.53125 
Q 39.546875 41.84375 41.421875 45.53125 
Q 43.3125 49.21875 43.3125 52.78125 
Q 43.3125 58.59375 39.234375 62.25 
Q 35.15625 65.921875 28.609375 65.921875 
Q 23.96875 65.921875 18.8125 64.3125 
Q 13.671875 62.703125 7.8125 59.421875 
L 7.8125 69.390625 
Q 13.765625 71.78125 18.9375 73 
Q 24.125 74.21875 28.421875 74.21875 
Q 39.75 74.21875 46.484375 68.546875 
Q 53.21875 62.890625 53.21875 53.421875 
Q 53.21875 48.921875 51.53125 44.890625 
Q 49.859375 40.875 45.40625 35.40625 
Q 44.1875 33.984375 37.640625 27.21875 
Q 31.109375 20.453125 19.1875 8.296875 
z
" id="DejaVuSans-50"/>
       <path d="M 10.796875 72.90625 
L 49.515625 72.90625 
L 49.515625 64.59375 
L 19.828125 64.59375 
L 19.828125 46.734375 
Q 21.96875 47.46875 24.109375 47.828125 
Q 26.265625 48.1875 28.421875 48.1875 
Q 40.625 48.1875 47.75 41.5 
Q 54.890625 34.8125 54.890625 23.390625 
Q 54.890625 11.625 47.5625 5.09375 
Q 40.234375 -1.421875 26.90625 -1.421875 
Q 22.3125 -1.421875 17.546875 -0.640625 
Q 12.796875 0.140625 7.71875 1.703125 
L 7.71875 11.625 
Q 12.109375 9.234375 16.796875 8.0625 
Q 21.484375 6.890625 26.703125 6.890625 
Q 35.15625 6.890625 40.078125 11.328125 
Q 45.015625 15.765625 45.015625 23.390625 
Q 45.015625 31 40.078125 35.4375 
Q 35.15625 39.890625 26.703125 39.890625 
Q 22.75 39.890625 18.8125 39.015625 
Q 14.890625 38.140625 10.796875 36.28125 
z
" id="DejaVuSans-53"/>
      </defs>
      <g transform="translate(108.255974 322.182437)scale(0.1 -0.1)">
       <use xlink:href="#DejaVuSans-50"/>
       <use x="63.623047" xlink:href="#DejaVuSans-53"/>
      </g>
     </g>
    </g>
    <g id="xtick_3">
     <g id="line2d_3">
      <g>
       <use style="stroke:#000000;stroke-width:0.8;" x="155.404221" xlink:href="#mbd545198fb" y="307.584"/>
      </g>
     </g>
     <g id="text_3">
      <!-- 50 -->
      <g transform="translate(149.041721 322.182437)scale(0.1 -0.1)">
       <use xlink:href="#DejaVuSans-53"/>
       <use x="63.623047" xlink:href="#DejaVuSans-48"/>
      </g>
     </g>
    </g>
    <g id="xtick_4">
     <g id="line2d_4">
      <g>
       <use style="stroke:#000000;stroke-width:0.8;" x="196.189968" xlink:href="#mbd545198fb" y="307.584"/>
      </g>
     </g>
     <g id="text_4">
      <!-- 75 -->
      <defs>
       <path d="M 8.203125 72.90625 
L 55.078125 72.90625 
L 55.078125 68.703125 
L 28.609375 0 
L 18.3125 0 
L 43.21875 64.59375 
L 8.203125 64.59375 
z
" id="DejaVuSans-55"/>
      </defs>
      <g transform="translate(189.827468 322.182437)scale(0.1 -0.1)">
       <use xlink:href="#DejaVuSans-55"/>
       <use x="63.623047" xlink:href="#DejaVuSans-53"/>
      </g>
     </g>
    </g>
    <g id="xtick_5">
     <g id="line2d_5">
      <g>
       <use style="stroke:#000000;stroke-width:0.8;" x="236.975715" xlink:href="#mbd545198fb" y="307.584"/>
      </g>
     </g>
     <g id="text_5">
      <!-- 100 -->
      <defs>
       <path d="M 12.40625 8.296875 
L 28.515625 8.296875 
L 28.515625 63.921875 
L 10.984375 60.40625 
L 10.984375 69.390625 
L 28.421875 72.90625 
L 38.28125 72.90625 
L 38.28125 8.296875 
L 54.390625 8.296875 
L 54.390625 0 
L 12.40625 0 
z
" id="DejaVuSans-49"/>
      </defs>
      <g transform="translate(227.431965 322.182437)scale(0.1 -0.1)">
       <use xlink:href="#DejaVuSans-49"/>
       <use x="63.623047" xlink:href="#DejaVuSans-48"/>
       <use x="127.246094" xlink:href="#DejaVuSans-48"/>
      </g>
     </g>
    </g>
    <g id="xtick_6">
     <g id="line2d_6">
      <g>
       <use style="stroke:#000000;stroke-width:0.8;" x="277.761462" xlink:href="#mbd545198fb" y="307.584"/>
      </g>
     </g>
     <g id="text_6">
      <!-- 125 -->
      <g transform="translate(268.217712 322.182437)scale(0.1 -0.1)">
       <use xlink:href="#DejaVuSans-49"/>
       <use x="63.623047" xlink:href="#DejaVuSans-50"/>
       <use x="127.246094" xlink:href="#DejaVuSans-53"/>
      </g>
     </g>
    </g>
    <g id="xtick_7">
     <g id="line2d_7">
      <g>
       <use style="stroke:#000000;stroke-width:0.8;" x="318.547209" xlink:href="#mbd545198fb" y="307.584"/>
      </g>
     </g>
     <g id="text_7">
      <!-- 150 -->
      <g transform="translate(309.003459 322.182437)scale(0.1 -0.1)">
       <use xlink:href="#DejaVuSans-49"/>
       <use x="63.623047" xlink:href="#DejaVuSans-53"/>
       <use x="127.246094" xlink:href="#DejaVuSans-48"/>
      </g>
     </g>
    </g>
    <g id="xtick_8">
     <g id="line2d_8">
      <g>
       <use style="stroke:#000000;stroke-width:0.8;" x="359.332956" xlink:href="#mbd545198fb" y="307.584"/>
      </g>
     </g>
     <g id="text_8">
      <!-- 175 -->
      <g transform="translate(349.789206 322.182437)scale(0.1 -0.1)">
       <use xlink:href="#DejaVuSans-49"/>
       <use x="63.623047" xlink:href="#DejaVuSans-55"/>
       <use x="127.246094" xlink:href="#DejaVuSans-53"/>
      </g>
     </g>
    </g>
    <g id="xtick_9">
     <g id="line2d_9">
      <g>
       <use style="stroke:#000000;stroke-width:0.8;" x="400.118703" xlink:href="#mbd545198fb" y="307.584"/>
      </g>
     </g>
     <g id="text_9">
      <!-- 200 -->
      <g transform="translate(390.574953 322.182437)scale(0.1 -0.1)">
       <use xlink:href="#DejaVuSans-50"/>
       <use x="63.623047" xlink:href="#DejaVuSans-48"/>
       <use x="127.246094" xlink:href="#DejaVuSans-48"/>
      </g>
     </g>
    </g>
   </g>
   <g id="matplotlib.axis_2">
    <g id="ytick_1">
     <g id="line2d_10">
      <defs>
       <path d="M 0 0 
L -3.5 0 
" id="m8bdad7d9d6" style="stroke:#000000;stroke-width:0.8;"/>
      </defs>
      <g>
       <use style="stroke:#000000;stroke-width:0.8;" x="57.6" xlink:href="#m8bdad7d9d6" y="302.858764"/>
      </g>
     </g>
     <g id="text_10">
      <!-- 0 -->
      <g transform="translate(44.2375 306.657983)scale(0.1 -0.1)">
       <use xlink:href="#DejaVuSans-48"/>
      </g>
     </g>
    </g>
    <g id="ytick_2">
     <g id="line2d_11">
      <g>
       <use style="stroke:#000000;stroke-width:0.8;" x="57.6" xlink:href="#m8bdad7d9d6" y="248.618339"/>
      </g>
     </g>
     <g id="text_11">
      <!-- 5 -->
      <g transform="translate(44.2375 252.417558)scale(0.1 -0.1)">
       <use xlink:href="#DejaVuSans-53"/>
      </g>
     </g>
    </g>
    <g id="ytick_3">
     <g id="line2d_12">
      <g>
       <use style="stroke:#000000;stroke-width:0.8;" x="57.6" xlink:href="#m8bdad7d9d6" y="194.377914"/>
      </g>
     </g>
     <g id="text_12">
      <!-- 10 -->
      <g transform="translate(37.875 198.177133)scale(0.1 -0.1)">
       <use xlink:href="#DejaVuSans-49"/>
       <use x="63.623047" xlink:href="#DejaVuSans-48"/>
      </g>
     </g>
    </g>
    <g id="ytick_4">
     <g id="line2d_13">
      <g>
       <use style="stroke:#000000;stroke-width:0.8;" x="57.6" xlink:href="#m8bdad7d9d6" y="140.137489"/>
      </g>
     </g>
     <g id="text_13">
      <!-- 15 -->
      <g transform="translate(37.875 143.936708)scale(0.1 -0.1)">
       <use xlink:href="#DejaVuSans-49"/>
       <use x="63.623047" xlink:href="#DejaVuSans-53"/>
      </g>
     </g>
    </g>
    <g id="ytick_5">
     <g id="line2d_14">
      <g>
       <use style="stroke:#000000;stroke-width:0.8;" x="57.6" xlink:href="#m8bdad7d9d6" y="85.897064"/>
      </g>
     </g>
     <g id="text_14">
      <!-- 20 -->
      <g transform="translate(37.875 89.696283)scale(0.1 -0.1)">
       <use xlink:href="#DejaVuSans-50"/>
       <use x="63.623047" xlink:href="#DejaVuSans-48"/>
      </g>
     </g>
    </g>
   </g>
   <g id="line2d_15">
    <path clip-path="url(#p8d364cfbbf)" d="M 73.832727 290.940925 
L 88.515596 290.940925 
L 90.147026 290.681657 
L 91.778456 290.940925 
L 96.672746 290.940925 
L 98.304175 290.625269 
L 99.935605 290.940925 
L 109.724185 290.940925 
L 111.355614 290.625269 
L 112.987044 290.940925 
L 124.407053 290.940925 
L 126.038483 290.625269 
L 127.669913 290.681657 
L 129.301343 290.940925 
L 139.089922 290.940925 
L 140.721352 290.681657 
L 142.352782 290.940925 
L 143.984212 290.625269 
L 145.615642 290.940925 
L 147.247072 290.940925 
L 148.878502 290.625269 
L 150.509931 290.940925 
L 152.141361 290.940925 
L 153.772791 290.783097 
L 155.404221 290.940925 
L 157.035651 290.681657 
L 158.667081 290.940925 
L 160.298511 290.625269 
L 161.929941 290.940925 
L 168.45566 290.940925 
L 170.08709 290.625269 
L 171.71852 290.625269 
L 173.34995 290.940925 
L 179.875669 290.940925 
L 181.507099 290.625269 
L 183.138529 290.940925 
L 184.769959 290.940925 
L 186.401389 290.783097 
L 188.032819 290.940925 
L 189.664249 290.940925 
L 191.295678 290.625269 
L 192.927108 290.940925 
L 194.558538 290.625269 
L 196.189968 290.940925 
L 199.452828 290.681657 
L 201.084258 290.940925 
L 202.715688 290.625269 
L 204.347117 290.625269 
L 205.978547 290.940925 
L 210.872837 290.940925 
L 212.504267 290.625269 
L 214.135697 290.163123 
L 217.398556 290.681658 
L 219.029986 290.381422 
L 220.661416 290.422954 
L 222.292846 290.940925 
L 223.924276 290.575331 
L 225.555706 290.459345 
L 227.187136 290.63348 
L 228.818566 290.062792 
L 232.081425 290.163372 
L 233.712855 290.497615 
L 235.344285 290.158646 
L 236.975715 290.683761 
L 238.607145 290.156199 
L 240.238575 290.640184 
L 241.870005 290.486942 
L 243.501434 290.552818 
L 245.132864 290.13613 
L 246.764294 290.465708 
L 248.395724 289.953909 
L 250.027154 290.447655 
L 253.290014 290.584152 
L 254.921444 290.428011 
L 256.552873 290.56747 
L 258.184303 290.201544 
L 259.815733 290.625931 
L 261.447163 290.650769 
L 263.078593 290.201315 
L 264.710023 290.472496 
L 266.341453 289.913966 
L 267.972883 290.563412 
L 269.604312 290.42239 
L 271.235742 290.731088 
L 272.867172 290.282737 
L 274.498602 290.893296 
L 282.655751 291.103623 
L 284.287181 290.599679 
L 285.918611 290.812423 
L 287.550041 290.406386 
L 290.812901 290.940639 
L 292.444331 290.781774 
L 294.075761 290.508435 
L 295.70719 290.864987 
L 298.97005 290.958723 
L 300.60148 291.436018 
L 302.23291 290.94239 
L 303.86434 291.384456 
L 305.49577 290.940926 
L 308.75863 290.940911 
L 310.390059 291.113953 
L 312.021489 290.873918 
L 313.652919 290.757801 
L 315.284349 289.902057 
L 316.915779 291.441126 
L 318.547209 290.376367 
L 320.178639 290.063579 
L 321.810069 290.57776 
L 323.441498 290.107973 
L 325.072928 289.931469 
L 326.704358 290.802309 
L 328.335788 290.323288 
L 329.967218 290.846914 
L 331.598648 290.647361 
L 333.230078 290.964593 
L 334.861508 291.07803 
L 336.492937 291.001261 
L 338.124367 290.405685 
L 341.387227 290.942209 
L 343.018657 289.905282 
L 344.650087 290.421683 
L 347.912947 290.28234 
L 349.544376 290.681657 
L 351.175806 290.252177 
L 352.807236 290.643334 
L 354.438666 290.176504 
L 356.070096 290.376121 
L 359.332956 290.422393 
L 360.964386 290.217164 
L 362.595815 290.137062 
L 364.227245 290.958575 
L 365.858675 290.434244 
L 367.490105 290.689537 
L 369.121535 290.091797 
L 370.752965 290.174834 
L 372.384395 290.551388 
L 374.015825 290.178556 
L 375.647254 290.715244 
L 380.541544 290.727863 
L 383.804404 290.422423 
L 385.435834 291.107829 
L 387.067264 290.357186 
L 388.698693 290.941671 
L 393.592983 290.94316 
L 395.224413 290.105787 
L 396.855843 290.8878 
L 398.487273 290.833929 
L 398.487273 290.833929 
" style="fill:none;stroke:#1f77b4;stroke-linecap:square;stroke-width:0.25;"/>
   </g>
   <g id="line2d_16">
    <path clip-path="url(#p8d364cfbbf)" d="M 73.832727 290.647836 
L 77.095587 290.569492 
L 78.727017 290.676129 
L 81.989877 290.532521 
L 86.884166 290.51268 
L 88.515596 290.634873 
L 91.778456 290.630025 
L 96.672746 290.514482 
L 98.304175 290.365235 
L 99.935605 290.711149 
L 101.567035 290.551907 
L 104.829895 290.6484 
L 106.461325 290.512116 
L 108.092755 290.504338 
L 109.724185 290.662038 
L 111.355614 290.570957 
L 112.987044 290.717793 
L 114.618474 290.700254 
L 116.249904 290.560586 
L 117.881334 290.662154 
L 119.512764 290.570056 
L 124.407053 290.598012 
L 126.038483 290.505576 
L 127.669913 290.627432 
L 134.195633 290.618753 
L 135.827063 290.724715 
L 139.089922 290.607481 
L 147.247072 290.55822 
L 150.509931 290.584711 
L 152.141361 290.663956 
L 155.404221 290.565999 
L 157.035651 290.639832 
L 160.298511 290.492276 
L 161.929941 290.611539 
L 163.56137 290.557883 
L 166.82423 290.74816 
L 170.08709 290.435574 
L 173.34995 290.569719 
L 174.98138 290.508396 
L 176.61281 290.625857 
L 178.244239 290.595646 
L 179.875669 290.701155 
L 181.507099 290.499827 
L 184.769959 290.706904 
L 186.401389 290.58685 
L 192.927108 290.663055 
L 194.558538 290.477511 
L 197.821398 290.587641 
L 199.452828 289.854346 
L 201.084258 289.875654 
L 202.715688 289.435117 
L 204.347117 289.990648 
L 205.978547 288.105884 
L 207.609977 288.538229 
L 209.241407 289.687293 
L 210.872837 289.111715 
L 212.504267 287.314893 
L 214.135697 283.256575 
L 215.767127 289.980714 
L 217.398556 288.461319 
L 219.029986 285.632899 
L 220.661416 286.135029 
L 222.292846 286.96858 
L 223.924276 282.281682 
L 225.555706 282.929588 
L 227.187136 288.188761 
L 228.818566 272.636096 
L 230.449995 269.002181 
L 232.081425 272.95453 
L 233.712855 284.598361 
L 235.344285 284.244908 
L 236.975715 287.187789 
L 238.607145 286.87441 
L 240.238575 286.151343 
L 241.870005 281.880731 
L 243.501434 288.372613 
L 245.132864 266.047502 
L 246.764294 283.878946 
L 248.395724 276.946864 
L 250.027154 282.162441 
L 251.658584 288.543141 
L 253.290014 268.251335 
L 254.921444 274.510266 
L 256.552873 287.935076 
L 258.184303 267.996159 
L 259.815733 276.298898 
L 261.447163 275.800538 
L 263.078593 288.382352 
L 264.710023 288.398162 
L 266.341453 271.522802 
L 267.972883 289.815709 
L 269.604312 277.934344 
L 271.235742 283.840145 
L 272.867172 270.287342 
L 274.498602 278.21036 
L 276.130032 271.468276 
L 277.761462 275.512315 
L 279.392892 283.441401 
L 284.287181 280.383374 
L 285.918611 281.490785 
L 287.550041 271.886576 
L 289.181471 275.55969 
L 290.812901 276.102304 
L 292.444331 287.199555 
L 294.075761 269.723787 
L 295.70719 271.859867 
L 297.33862 275.124833 
L 298.97005 281.855468 
L 300.60148 281.891199 
L 302.23291 282.280874 
L 303.86434 283.066676 
L 305.49577 278.136758 
L 307.1272 276.19276 
L 308.75863 282.090812 
L 310.390059 283.657806 
L 312.021489 283.722427 
L 313.652919 286.931528 
L 315.284349 268.312722 
L 316.915779 286.202883 
L 318.547209 276.643676 
L 320.178639 261.157362 
L 321.810069 281.40867 
L 323.441498 279.095124 
L 325.072928 261.729599 
L 326.704358 282.381161 
L 328.335788 278.57538 
L 329.967218 276.404666 
L 331.598648 282.534916 
L 333.230078 278.852313 
L 334.861508 276.219726 
L 336.492937 285.68326 
L 338.124367 275.946644 
L 339.755797 279.958582 
L 341.387227 281.135288 
L 343.018657 264.119564 
L 344.650087 270.369135 
L 346.281517 269.252892 
L 347.912947 271.719717 
L 349.544376 281.384905 
L 351.175806 268.284461 
L 352.807236 283.967675 
L 354.438666 270.951179 
L 356.070096 271.128407 
L 357.701526 272.961258 
L 359.332956 270.170088 
L 360.964386 270.527438 
L 362.595815 274.44643 
L 364.227245 284.884832 
L 365.858675 276.603993 
L 367.490105 280.070455 
L 369.121535 271.964249 
L 370.752965 276.59491 
L 372.384395 278.539517 
L 374.015825 282.054741 
L 375.647254 276.201275 
L 377.278684 280.423616 
L 378.910114 271.688498 
L 380.541544 278.05964 
L 382.172974 279.971823 
L 383.804404 270.046321 
L 385.435834 278.335101 
L 387.067264 269.577034 
L 390.330123 282.533187 
L 391.961553 279.622965 
L 393.592983 273.546535 
L 395.224413 264.635052 
L 396.855843 273.531875 
L 398.487273 276.744626 
L 398.487273 276.744626 
" style="fill:none;stroke:#2ca02c;stroke-linecap:square;stroke-width:0.75;"/>
   </g>
   <g id="patch_3">
    <path d="M 57.6 307.584 
L 57.6 41.472 
" style="fill:none;stroke:#000000;stroke-linecap:square;stroke-linejoin:miter;stroke-width:0.8;"/>
   </g>
   <g id="patch_4">
    <path d="M 414.72 307.584 
L 414.72 41.472 
" style="fill:none;stroke:#000000;stroke-linecap:square;stroke-linejoin:miter;stroke-width:0.8;"/>
   </g>
   <g id="patch_5">
    <path d="M 57.6 307.584 
L 414.72 307.584 
" style="fill:none;stroke:#000000;stroke-linecap:square;stroke-linejoin:miter;stroke-width:0.8;"/>
   </g>
   <g id="patch_6">
    <path d="M 57.6 41.472 
L 414.72 41.472 
" style="fill:none;stroke:#000000;stroke-linecap:square;stroke-linejoin:miter;stroke-width:0.8;"/>
   </g>
   <g id="legend_1">
    <g id="patch_7">
     <path d="M 338.234063 78.82825 
L 407.72 78.82825 
Q 409.72 78.82825 409.72 76.82825 
L 409.72 48.472 
Q 409.72 46.472 407.72 46.472 
L 338.234063 46.472 
Q 336.234063 46.472 336.234063 48.472 
L 336.234063 76.82825 
Q 336.234063 78.82825 338.234063 78.82825 
z
" style="fill:#ffffff;opacity:0.8;stroke:#cccccc;stroke-linejoin:miter;"/>
    </g>
    <g id="line2d_17">
     <path d="M 340.234063 54.570437 
L 360.234063 54.570437 
" style="fill:none;stroke:#1f77b4;stroke-linecap:square;stroke-width:0.25;"/>
    </g>
    <g id="line2d_18"/>
    <g id="text_15">
     <!-- median -->
     <defs>
      <path d="M 52 44.1875 
Q 55.375 50.25 60.0625 53.125 
Q 64.75 56 71.09375 56 
Q 79.640625 56 84.28125 50.015625 
Q 88.921875 44.046875 88.921875 33.015625 
L 88.921875 0 
L 79.890625 0 
L 79.890625 32.71875 
Q 79.890625 40.578125 77.09375 44.375 
Q 74.3125 48.1875 68.609375 48.1875 
Q 61.625 48.1875 57.5625 43.546875 
Q 53.515625 38.921875 53.515625 30.90625 
L 53.515625 0 
L 44.484375 0 
L 44.484375 32.71875 
Q 44.484375 40.625 41.703125 44.40625 
Q 38.921875 48.1875 33.109375 48.1875 
Q 26.21875 48.1875 22.15625 43.53125 
Q 18.109375 38.875 18.109375 30.90625 
L 18.109375 0 
L 9.078125 0 
L 9.078125 54.6875 
L 18.109375 54.6875 
L 18.109375 46.1875 
Q 21.1875 51.21875 25.484375 53.609375 
Q 29.78125 56 35.6875 56 
Q 41.65625 56 45.828125 52.96875 
Q 50 49.953125 52 44.1875 
z
" id="DejaVuSans-109"/>
      <path d="M 56.203125 29.59375 
L 56.203125 25.203125 
L 14.890625 25.203125 
Q 15.484375 15.921875 20.484375 11.0625 
Q 25.484375 6.203125 34.421875 6.203125 
Q 39.59375 6.203125 44.453125 7.46875 
Q 49.3125 8.734375 54.109375 11.28125 
L 54.109375 2.78125 
Q 49.265625 0.734375 44.1875 -0.34375 
Q 39.109375 -1.421875 33.890625 -1.421875 
Q 20.796875 -1.421875 13.15625 6.1875 
Q 5.515625 13.8125 5.515625 26.8125 
Q 5.515625 40.234375 12.765625 48.109375 
Q 20.015625 56 32.328125 56 
Q 43.359375 56 49.78125 48.890625 
Q 56.203125 41.796875 56.203125 29.59375 
z
M 47.21875 32.234375 
Q 47.125 39.59375 43.09375 43.984375 
Q 39.0625 48.390625 32.421875 48.390625 
Q 24.90625 48.390625 20.390625 44.140625 
Q 15.875 39.890625 15.1875 32.171875 
z
" id="DejaVuSans-101"/>
      <path d="M 45.40625 46.390625 
L 45.40625 75.984375 
L 54.390625 75.984375 
L 54.390625 0 
L 45.40625 0 
L 45.40625 8.203125 
Q 42.578125 3.328125 38.25 0.953125 
Q 33.9375 -1.421875 27.875 -1.421875 
Q 17.96875 -1.421875 11.734375 6.484375 
Q 5.515625 14.40625 5.515625 27.296875 
Q 5.515625 40.1875 11.734375 48.09375 
Q 17.96875 56 27.875 56 
Q 33.9375 56 38.25 53.625 
Q 42.578125 51.265625 45.40625 46.390625 
z
M 14.796875 27.296875 
Q 14.796875 17.390625 18.875 11.75 
Q 22.953125 6.109375 30.078125 6.109375 
Q 37.203125 6.109375 41.296875 11.75 
Q 45.40625 17.390625 45.40625 27.296875 
Q 45.40625 37.203125 41.296875 42.84375 
Q 37.203125 48.484375 30.078125 48.484375 
Q 22.953125 48.484375 18.875 42.84375 
Q 14.796875 37.203125 14.796875 27.296875 
z
" id="DejaVuSans-100"/>
      <path d="M 9.421875 54.6875 
L 18.40625 54.6875 
L 18.40625 0 
L 9.421875 0 
z
M 9.421875 75.984375 
L 18.40625 75.984375 
L 18.40625 64.59375 
L 9.421875 64.59375 
z
" id="DejaVuSans-105"/>
      <path d="M 34.28125 27.484375 
Q 23.390625 27.484375 19.1875 25 
Q 14.984375 22.515625 14.984375 16.5 
Q 14.984375 11.71875 18.140625 8.90625 
Q 21.296875 6.109375 26.703125 6.109375 
Q 34.1875 6.109375 38.703125 11.40625 
Q 43.21875 16.703125 43.21875 25.484375 
L 43.21875 27.484375 
z
M 52.203125 31.203125 
L 52.203125 0 
L 43.21875 0 
L 43.21875 8.296875 
Q 40.140625 3.328125 35.546875 0.953125 
Q 30.953125 -1.421875 24.3125 -1.421875 
Q 15.921875 -1.421875 10.953125 3.296875 
Q 6 8.015625 6 15.921875 
Q 6 25.140625 12.171875 29.828125 
Q 18.359375 34.515625 30.609375 34.515625 
L 43.21875 34.515625 
L 43.21875 35.40625 
Q 43.21875 41.609375 39.140625 45 
Q 35.0625 48.390625 27.6875 48.390625 
Q 23 48.390625 18.546875 47.265625 
Q 14.109375 46.140625 10.015625 43.890625 
L 10.015625 52.203125 
Q 14.9375 54.109375 19.578125 55.046875 
Q 24.21875 56 28.609375 56 
Q 40.484375 56 46.34375 49.84375 
Q 52.203125 43.703125 52.203125 31.203125 
z
" id="DejaVuSans-97"/>
      <path d="M 54.890625 33.015625 
L 54.890625 0 
L 45.90625 0 
L 45.90625 32.71875 
Q 45.90625 40.484375 42.875 44.328125 
Q 39.84375 48.1875 33.796875 48.1875 
Q 26.515625 48.1875 22.3125 43.546875 
Q 18.109375 38.921875 18.109375 30.90625 
L 18.109375 0 
L 9.078125 0 
L 9.078125 54.6875 
L 18.109375 54.6875 
L 18.109375 46.1875 
Q 21.34375 51.125 25.703125 53.5625 
Q 30.078125 56 35.796875 56 
Q 45.21875 56 50.046875 50.171875 
Q 54.890625 44.34375 54.890625 33.015625 
z
" id="DejaVuSans-110"/>
     </defs>
     <g transform="translate(368.234063 58.070437)scale(0.1 -0.1)">
      <use xlink:href="#DejaVuSans-109"/>
      <use x="97.412109" xlink:href="#DejaVuSans-101"/>
      <use x="158.935547" xlink:href="#DejaVuSans-100"/>
      <use x="222.412109" xlink:href="#DejaVuSans-105"/>
      <use x="250.195312" xlink:href="#DejaVuSans-97"/>
      <use x="311.474609" xlink:href="#DejaVuSans-110"/>
     </g>
    </g>
    <g id="line2d_19">
     <path d="M 340.234063 69.248562 
L 360.234063 69.248562 
" style="fill:none;stroke:#2ca02c;stroke-linecap:square;stroke-width:0.75;"/>
    </g>
    <g id="line2d_20"/>
    <g id="text_16">
     <!-- mean -->
     <g transform="translate(368.234063 72.748562)scale(0.1 -0.1)">
      <use xlink:href="#DejaVuSans-109"/>
      <use x="97.412109" xlink:href="#DejaVuSans-101"/>
      <use x="158.935547" xlink:href="#DejaVuSans-97"/>
      <use x="220.214844" xlink:href="#DejaVuSans-110"/>
     </g>
    </g>
   </g>
  </g>
  <g id="text_17">
   <!-- log_loss.mean over generations -->
   <defs>
    <path d="M 9.421875 75.984375 
L 18.40625 75.984375 
L 18.40625 0 
L 9.421875 0 
z
" id="DejaVuSans-108"/>
    <path d="M 30.609375 48.390625 
Q 23.390625 48.390625 19.1875 42.75 
Q 14.984375 37.109375 14.984375 27.296875 
Q 14.984375 17.484375 19.15625 11.84375 
Q 23.34375 6.203125 30.609375 6.203125 
Q 37.796875 6.203125 41.984375 11.859375 
Q 46.1875 17.53125 46.1875 27.296875 
Q 46.1875 37.015625 41.984375 42.703125 
Q 37.796875 48.390625 30.609375 48.390625 
z
M 30.609375 56 
Q 42.328125 56 49.015625 48.375 
Q 55.71875 40.765625 55.71875 27.296875 
Q 55.71875 13.875 49.015625 6.21875 
Q 42.328125 -1.421875 30.609375 -1.421875 
Q 18.84375 -1.421875 12.171875 6.21875 
Q 5.515625 13.875 5.515625 27.296875 
Q 5.515625 40.765625 12.171875 48.375 
Q 18.84375 56 30.609375 56 
z
" id="DejaVuSans-111"/>
    <path d="M 45.40625 27.984375 
Q 45.40625 37.75 41.375 43.109375 
Q 37.359375 48.484375 30.078125 48.484375 
Q 22.859375 48.484375 18.828125 43.109375 
Q 14.796875 37.75 14.796875 27.984375 
Q 14.796875 18.265625 18.828125 12.890625 
Q 22.859375 7.515625 30.078125 7.515625 
Q 37.359375 7.515625 41.375 12.890625 
Q 45.40625 18.265625 45.40625 27.984375 
z
M 54.390625 6.78125 
Q 54.390625 -7.171875 48.1875 -13.984375 
Q 42 -20.796875 29.203125 -20.796875 
Q 24.46875 -20.796875 20.265625 -20.09375 
Q 16.0625 -19.390625 12.109375 -17.921875 
L 12.109375 -9.1875 
Q 16.0625 -11.328125 19.921875 -12.34375 
Q 23.78125 -13.375 27.78125 -13.375 
Q 36.625 -13.375 41.015625 -8.765625 
Q 45.40625 -4.15625 45.40625 5.171875 
L 45.40625 9.625 
Q 42.625 4.78125 38.28125 2.390625 
Q 33.9375 0 27.875 0 
Q 17.828125 0 11.671875 7.65625 
Q 5.515625 15.328125 5.515625 27.984375 
Q 5.515625 40.671875 11.671875 48.328125 
Q 17.828125 56 27.875 56 
Q 33.9375 56 38.28125 53.609375 
Q 42.625 51.21875 45.40625 46.390625 
L 45.40625 54.6875 
L 54.390625 54.6875 
z
" id="DejaVuSans-103"/>
    <path d="M 50.984375 -16.609375 
L 50.984375 -23.578125 
L -0.984375 -23.578125 
L -0.984375 -16.609375 
z
" id="DejaVuSans-95"/>
    <path d="M 44.28125 53.078125 
L 44.28125 44.578125 
Q 40.484375 46.53125 36.375 47.5 
Q 32.28125 48.484375 27.875 48.484375 
Q 21.1875 48.484375 17.84375 46.4375 
Q 14.5 44.390625 14.5 40.28125 
Q 14.5 37.15625 16.890625 35.375 
Q 19.28125 33.59375 26.515625 31.984375 
L 29.59375 31.296875 
Q 39.15625 29.25 43.1875 25.515625 
Q 47.21875 21.78125 47.21875 15.09375 
Q 47.21875 7.46875 41.1875 3.015625 
Q 35.15625 -1.421875 24.609375 -1.421875 
Q 20.21875 -1.421875 15.453125 -0.5625 
Q 10.6875 0.296875 5.421875 2 
L 5.421875 11.28125 
Q 10.40625 8.6875 15.234375 7.390625 
Q 20.0625 6.109375 24.8125 6.109375 
Q 31.15625 6.109375 34.5625 8.28125 
Q 37.984375 10.453125 37.984375 14.40625 
Q 37.984375 18.0625 35.515625 20.015625 
Q 33.0625 21.96875 24.703125 23.78125 
L 21.578125 24.515625 
Q 13.234375 26.265625 9.515625 29.90625 
Q 5.8125 33.546875 5.8125 39.890625 
Q 5.8125 47.609375 11.28125 51.796875 
Q 16.75 56 26.8125 56 
Q 31.78125 56 36.171875 55.265625 
Q 40.578125 54.546875 44.28125 53.078125 
z
" id="DejaVuSans-115"/>
    <path d="M 10.6875 12.40625 
L 21 12.40625 
L 21 0 
L 10.6875 0 
z
" id="DejaVuSans-46"/>
    <path id="DejaVuSans-32"/>
    <path d="M 2.984375 54.6875 
L 12.5 54.6875 
L 29.59375 8.796875 
L 46.6875 54.6875 
L 56.203125 54.6875 
L 35.6875 0 
L 23.484375 0 
z
" id="DejaVuSans-118"/>
    <path d="M 41.109375 46.296875 
Q 39.59375 47.171875 37.8125 47.578125 
Q 36.03125 48 33.890625 48 
Q 26.265625 48 22.1875 43.046875 
Q 18.109375 38.09375 18.109375 28.8125 
L 18.109375 0 
L 9.078125 0 
L 9.078125 54.6875 
L 18.109375 54.6875 
L 18.109375 46.1875 
Q 20.953125 51.171875 25.484375 53.578125 
Q 30.03125 56 36.53125 56 
Q 37.453125 56 38.578125 55.875 
Q 39.703125 55.765625 41.0625 55.515625 
z
" id="DejaVuSans-114"/>
    <path d="M 18.3125 70.21875 
L 18.3125 54.6875 
L 36.8125 54.6875 
L 36.8125 47.703125 
L 18.3125 47.703125 
L 18.3125 18.015625 
Q 18.3125 11.328125 20.140625 9.421875 
Q 21.96875 7.515625 27.59375 7.515625 
L 36.8125 7.515625 
L 36.8125 0 
L 27.59375 0 
Q 17.1875 0 13.234375 3.875 
Q 9.28125 7.765625 9.28125 18.015625 
L 9.28125 47.703125 
L 2.6875 47.703125 
L 2.6875 54.6875 
L 9.28125 54.6875 
L 9.28125 70.21875 
z
" id="DejaVuSans-116"/>
   </defs>
   <g transform="translate(134.789062 16.030125)scale(0.12 -0.12)">
    <use xlink:href="#DejaVuSans-108"/>
    <use x="27.783203" xlink:href="#DejaVuSans-111"/>
    <use x="88.964844" xlink:href="#DejaVuSans-103"/>
    <use x="152.441406" xlink:href="#DejaVuSans-95"/>
    <use x="202.441406" xlink:href="#DejaVuSans-108"/>
    <use x="230.224609" xlink:href="#DejaVuSans-111"/>
    <use x="291.40625" xlink:href="#DejaVuSans-115"/>
    <use x="343.505859" xlink:href="#DejaVuSans-115"/>
    <use x="395.605469" xlink:href="#DejaVuSans-46"/>
    <use x="427.392578" xlink:href="#DejaVuSans-109"/>
    <use x="524.804688" xlink:href="#DejaVuSans-101"/>
    <use x="586.328125" xlink:href="#DejaVuSans-97"/>
    <use x="647.607422" xlink:href="#DejaVuSans-110"/>
    <use x="710.986328" xlink:href="#DejaVuSans-32"/>
    <use x="742.773438" xlink:href="#DejaVuSans-111"/>
    <use x="803.955078" xlink:href="#DejaVuSans-118"/>
    <use x="863.134766" xlink:href="#DejaVuSans-101"/>
    <use x="924.658203" xlink:href="#DejaVuSans-114"/>
    <use x="965.771484" xlink:href="#DejaVuSans-32"/>
    <use x="997.558594" xlink:href="#DejaVuSans-103"/>
    <use x="1061.035156" xlink:href="#DejaVuSans-101"/>
    <use x="1122.558594" xlink:href="#DejaVuSans-110"/>
    <use x="1185.9375" xlink:href="#DejaVuSans-101"/>
    <use x="1247.460938" xlink:href="#DejaVuSans-114"/>
    <use x="1288.574219" xlink:href="#DejaVuSans-97"/>
    <use x="1349.853516" xlink:href="#DejaVuSans-116"/>
    <use x="1389.0625" xlink:href="#DejaVuSans-105"/>
    <use x="1416.845703" xlink:href="#DejaVuSans-111"/>
    <use x="1478.027344" xlink:href="#DejaVuSans-110"/>
    <use x="1541.40625" xlink:href="#DejaVuSans-115"/>
   </g>
  </g>
 </g>
 <defs>
  <clipPath id="p8d364cfbbf">
   <rect height="266.112" width="357.12" x="57.6" y="41.472"/>
  </clipPath>
 </defs>
</svg>
