<?xml version="1.0" encoding="utf-8" standalone="no"?>
<!DOCTYPE svg PUBLIC "-//W3C//DTD SVG 1.1//EN"
  "http://www.w3.org/Graphics/SVG/1.1/DTD/svg11.dtd">
<!-- Created with matplotlib (https://matplotlib.org/) -->
<svg height="345.6pt" version="1.1" viewBox="0 0 460.8 345.6" width="460.8pt" xmlns="http://www.w3.org/2000/svg" xmlns:xlink="http://www.w3.org/1999/xlink">
 <defs>
  <style type="text/css">
*{stroke-linecap:butt;stroke-linejoin:round;}
  </style>
 </defs>
 <g id="figure_1">
  <g id="patch_1">
   <path d="M 0 345.6 
L 460.8 345.6 
L 460.8 0 
L 0 0 
z
" style="fill:#ffffff;"/>
  </g>
  <g id="axes_1">
   <g id="patch_2">
    <path d="M 57.6 307.584 
L 414.72 307.584 
L 414.72 41.472 
L 57.6 41.472 
z
" style="fill:#ffffff;"/>
   </g>
   <g id="PolyCollection_1">
    <path clip-path="url(#p64e40fec1a)" d="M 73.832727 286.837475 
L 73.832727 287.904071 
L 75.464157 287.904071 
L 77.095587 287.904071 
L 78.727017 287.904071 
L 80.358447 287.904071 
L 81.989877 287.904071 
L 83.621307 287.904071 
L 85.252736 287.904071 
L 86.884166 287.904071 
L 88.515596 287.904071 
L 90.147026 287.904071 
L 91.778456 287.904071 
L 93.409886 287.904071 
L 95.041316 287.904071 
L 96.672746 287.904071 
L 98.304175 287.904071 
L 99.935605 287.904071 
L 101.567035 287.904071 
L 103.198465 287.904071 
L 104.829895 287.904071 
L 106.461325 287.904071 
L 108.092755 287.904071 
L 109.724185 287.904071 
L 111.355614 287.904071 
L 112.987044 287.904071 
L 114.618474 287.904071 
L 116.249904 287.904071 
L 117.881334 287.904071 
L 119.512764 287.904071 
L 121.144194 287.904071 
L 122.775624 287.904071 
L 124.407053 287.904071 
L 126.038483 287.904071 
L 127.669913 287.904071 
L 129.301343 287.904071 
L 130.932773 287.904071 
L 132.564203 287.904071 
L 134.195633 287.904071 
L 135.827063 287.904071 
L 137.458492 287.904071 
L 139.089922 287.904071 
L 140.721352 287.904071 
L 142.352782 287.904071 
L 143.984212 287.904071 
L 145.615642 287.904071 
L 147.247072 287.904071 
L 148.878502 287.904071 
L 150.509931 287.904071 
L 152.141361 287.904071 
L 153.772791 287.904071 
L 155.404221 287.904071 
L 157.035651 287.904071 
L 158.667081 287.904071 
L 160.298511 287.904071 
L 161.929941 287.904071 
L 163.56137 287.904071 
L 165.1928 287.904071 
L 166.82423 287.904071 
L 168.45566 287.904071 
L 170.08709 287.904071 
L 171.71852 287.904071 
L 173.34995 287.904071 
L 174.98138 287.904071 
L 176.61281 287.904071 
L 178.244239 287.904071 
L 179.875669 287.904071 
L 181.507099 287.904071 
L 183.138529 287.904071 
L 184.769959 287.904071 
L 186.401389 287.904071 
L 188.032819 287.904071 
L 189.664249 287.904071 
L 191.295678 287.904071 
L 192.927108 287.904071 
L 194.558538 287.904071 
L 196.189968 287.904071 
L 197.821398 287.904071 
L 199.452828 287.904071 
L 201.084258 287.904071 
L 202.715688 287.904071 
L 204.347117 287.904071 
L 205.978547 287.904071 
L 207.609977 287.904071 
L 209.241407 287.904071 
L 210.872837 287.904071 
L 212.504267 287.904071 
L 214.135697 287.904071 
L 215.767127 287.904071 
L 217.398556 287.904071 
L 219.029986 287.904071 
L 220.661416 287.904071 
L 222.292846 287.904071 
L 223.924276 287.904071 
L 225.555706 287.904071 
L 227.187136 287.904071 
L 228.818566 287.904071 
L 230.449995 287.904071 
L 232.081425 287.904071 
L 233.712855 287.904071 
L 235.344285 287.904071 
L 236.975715 287.904071 
L 238.607145 287.904071 
L 240.238575 287.904071 
L 241.870005 287.904071 
L 243.501434 287.904071 
L 245.132864 287.904071 
L 246.764294 287.904071 
L 248.395724 287.904071 
L 250.027154 287.904071 
L 251.658584 287.904071 
L 253.290014 287.904071 
L 254.921444 287.904071 
L 256.552873 287.904071 
L 258.184303 287.904071 
L 259.815733 287.904071 
L 261.447163 287.904071 
L 263.078593 287.904071 
L 264.710023 287.040829 
L 266.341453 287.903965 
L 267.972883 287.935482 
L 269.604312 287.695417 
L 271.235742 288.091166 
L 272.867172 288.430533 
L 274.498602 288.017123 
L 276.130032 287.390815 
L 277.761462 288.060973 
L 279.392892 288.700682 
L 281.024322 287.742951 
L 282.655751 288.163978 
L 284.287181 287.944191 
L 285.918611 287.735223 
L 287.550041 274.9211 
L 289.181471 287.048093 
L 290.812901 274.680004 
L 292.444331 287.364025 
L 294.075761 287.905206 
L 295.70719 288.365343 
L 297.33862 288.119316 
L 298.97005 288.266073 
L 300.60148 285.429962 
L 302.23291 279.314542 
L 303.86434 281.187308 
L 305.49577 281.630362 
L 307.1272 284.528213 
L 308.75863 288.675099 
L 310.390059 282.314043 
L 312.021489 287.581179 
L 313.652919 287.687953 
L 315.284349 288.05197 
L 316.915779 286.553705 
L 318.547209 287.832928 
L 320.178639 287.520332 
L 321.810069 288.051672 
L 323.441498 288.365632 
L 325.072928 287.904071 
L 326.704358 288.931275 
L 328.335788 289.312583 
L 329.967218 287.746872 
L 331.598648 289.713105 
L 333.230078 289.819809 
L 334.861508 289.830167 
L 336.492937 289.48601 
L 338.124367 289.629029 
L 339.755797 289.936616 
L 341.387227 289.806846 
L 343.018657 289.535422 
L 344.650087 290.747259 
L 346.281517 290.437294 
L 347.912947 289.750739 
L 349.544376 289.519641 
L 351.175806 288.938709 
L 352.807236 292.069029 
L 354.438666 290.551815 
L 356.070096 291.017053 
L 357.701526 289.553095 
L 359.332956 288.842245 
L 360.964386 289.409135 
L 362.595815 288.973261 
L 364.227245 291.534225 
L 365.858675 292.148295 
L 367.490105 289.220978 
L 369.121535 290.383534 
L 370.752965 289.925557 
L 372.384395 289.332121 
L 374.015825 289.060392 
L 375.647254 289.618158 
L 377.278684 289.454608 
L 378.910114 290.045942 
L 380.541544 290.117423 
L 382.172974 293.144711 
L 383.804404 289.335713 
L 385.435834 286.187705 
L 387.067264 291.104766 
L 388.698693 289.71603 
L 390.330123 289.581875 
L 391.961553 289.692608 
L 393.592983 289.165451 
L 395.224413 285.215716 
L 396.855843 290.905006 
L 398.487273 290.795443 
L 398.487273 262.215415 
L 398.487273 262.215415 
L 396.855843 251.878538 
L 395.224413 268.793177 
L 393.592983 271.269417 
L 391.961553 257.887656 
L 390.330123 265.551285 
L 388.698693 267.267811 
L 387.067264 253.219884 
L 385.435834 265.389848 
L 383.804404 257.295004 
L 382.172974 255.456369 
L 380.541544 264.078906 
L 378.910114 269.805482 
L 377.278684 256.884357 
L 375.647254 253.358158 
L 374.015825 272.858225 
L 372.384395 268.912958 
L 370.752965 274.408406 
L 369.121535 272.589026 
L 367.490105 268.756928 
L 365.858675 263.387056 
L 364.227245 273.032171 
L 362.595815 264.376126 
L 360.964386 258.789335 
L 359.332956 260.123975 
L 357.701526 245.476924 
L 356.070096 258.896486 
L 354.438666 256.010087 
L 352.807236 272.403015 
L 351.175806 270.01818 
L 349.544376 265.426488 
L 347.912947 263.15947 
L 346.281517 272.782431 
L 344.650087 257.167989 
L 343.018657 269.482326 
L 341.387227 265.856505 
L 339.755797 269.887483 
L 338.124367 254.911173 
L 336.492937 254.451038 
L 334.861508 268.688051 
L 333.230078 270.901528 
L 331.598648 275.232227 
L 329.967218 273.463108 
L 328.335788 270.441262 
L 326.704358 275.102271 
L 325.072928 271.287301 
L 323.441498 255.539629 
L 321.810069 268.564574 
L 320.178639 265.447712 
L 318.547209 260.855042 
L 316.915779 255.189313 
L 315.284349 262.399551 
L 313.652919 263.223671 
L 312.021489 266.699201 
L 310.390059 244.048209 
L 308.75863 281.71636 
L 307.1272 271.543355 
L 305.49577 275.650514 
L 303.86434 262.689436 
L 302.23291 265.719548 
L 300.60148 275.944858 
L 298.97005 274.073162 
L 297.33862 278.026492 
L 295.70719 278.310147 
L 294.075761 273.941136 
L 292.444331 275.46558 
L 290.812901 270.82628 
L 289.181471 267.661526 
L 287.550041 265.587089 
L 285.918611 268.726228 
L 284.287181 268.86081 
L 282.655751 276.579223 
L 281.024322 269.357496 
L 279.392892 281.16193 
L 277.761462 268.389839 
L 276.130032 268.527971 
L 274.498602 274.455347 
L 272.867172 276.973296 
L 271.235742 271.407721 
L 269.604312 279.796642 
L 267.972883 271.433366 
L 266.341453 275.174297 
L 264.710023 274.688339 
L 263.078593 282.728228 
L 261.447163 274.017978 
L 259.815733 264.217647 
L 258.184303 286.837475 
L 256.552873 286.837475 
L 254.921444 286.837475 
L 253.290014 286.837475 
L 251.658584 286.837475 
L 250.027154 286.837475 
L 248.395724 286.837475 
L 246.764294 286.837475 
L 245.132864 286.837475 
L 243.501434 286.837475 
L 241.870005 286.837475 
L 240.238575 286.837475 
L 238.607145 286.837475 
L 236.975715 286.837475 
L 235.344285 286.837475 
L 233.712855 286.837475 
L 232.081425 286.842739 
L 230.449995 286.837475 
L 228.818566 286.837475 
L 227.187136 286.837475 
L 225.555706 286.837475 
L 223.924276 286.837475 
L 222.292846 286.837475 
L 220.661416 286.837475 
L 219.029986 286.837475 
L 217.398556 286.837475 
L 215.767127 286.837475 
L 214.135697 286.837475 
L 212.504267 286.837475 
L 210.872837 286.837475 
L 209.241407 287.442637 
L 207.609977 286.837475 
L 205.978547 286.837475 
L 204.347117 286.837475 
L 202.715688 287.644357 
L 201.084258 286.837475 
L 199.452828 286.837475 
L 197.821398 286.837475 
L 196.189968 286.837475 
L 194.558538 286.837475 
L 192.927108 286.837475 
L 191.295678 286.837475 
L 189.664249 286.837475 
L 188.032819 286.837475 
L 186.401389 286.837475 
L 184.769959 286.837475 
L 183.138529 286.837475 
L 181.507099 286.837475 
L 179.875669 286.837475 
L 178.244239 286.837475 
L 176.61281 286.837475 
L 174.98138 286.837475 
L 173.34995 286.837475 
L 171.71852 286.837475 
L 170.08709 286.837475 
L 168.45566 286.837475 
L 166.82423 286.837475 
L 165.1928 286.837475 
L 163.56137 286.837475 
L 161.929941 286.837475 
L 160.298511 286.837475 
L 158.667081 286.837475 
L 157.035651 286.837475 
L 155.404221 287.644357 
L 153.772791 286.837475 
L 152.141361 287.644357 
L 150.509931 286.837475 
L 148.878502 286.837475 
L 147.247072 286.837475 
L 145.615642 286.837475 
L 143.984212 286.837475 
L 142.352782 286.837475 
L 140.721352 286.837475 
L 139.089922 286.837475 
L 137.458492 286.837475 
L 135.827063 286.837475 
L 134.195633 287.442637 
L 132.564203 286.837475 
L 130.932773 287.644357 
L 129.301343 286.837475 
L 127.669913 286.837475 
L 126.038483 286.837475 
L 124.407053 286.837475 
L 122.775624 286.837475 
L 121.144194 286.837475 
L 119.512764 286.837475 
L 117.881334 286.837475 
L 116.249904 286.837475 
L 114.618474 286.837475 
L 112.987044 286.837475 
L 111.355614 286.837475 
L 109.724185 286.837475 
L 108.092755 286.837475 
L 106.461325 286.837475 
L 104.829895 286.837475 
L 103.198465 286.837475 
L 101.567035 286.837475 
L 99.935605 286.837475 
L 98.304175 286.837475 
L 96.672746 286.837475 
L 95.041316 286.837475 
L 93.409886 286.837475 
L 91.778456 286.837475 
L 90.147026 286.837475 
L 88.515596 287.644357 
L 86.884166 286.837475 
L 85.252736 286.837475 
L 83.621307 286.837475 
L 81.989877 286.837475 
L 80.358447 286.837475 
L 78.727017 287.442637 
L 77.095587 286.837475 
L 75.464157 286.837475 
L 73.832727 286.837475 
z
" style="fill:#1f77b4;fill-opacity:0.2;"/>
   </g>
   <g id="PolyCollection_2">
    <path clip-path="url(#p64e40fec1a)" d="M 73.832727 286.837475 
L 73.832727 287.904071 
L 75.464157 287.904071 
L 77.095587 287.904071 
L 78.727017 287.904071 
L 80.358447 287.904071 
L 81.989877 287.904071 
L 83.621307 287.904071 
L 85.252736 287.904071 
L 86.884166 287.904071 
L 88.515596 287.904071 
L 90.147026 287.904071 
L 91.778456 287.904071 
L 93.409886 287.904071 
L 95.041316 287.904071 
L 96.672746 287.904071 
L 98.304175 287.904071 
L 99.935605 287.904071 
L 101.567035 287.904071 
L 103.198465 287.904071 
L 104.829895 287.904071 
L 106.461325 287.904071 
L 108.092755 287.904071 
L 109.724185 287.904071 
L 111.355614 287.904071 
L 112.987044 287.904071 
L 114.618474 287.904071 
L 116.249904 287.904071 
L 117.881334 287.904071 
L 119.512764 287.904071 
L 121.144194 287.904071 
L 122.775624 287.904071 
L 124.407053 287.904071 
L 126.038483 287.904071 
L 127.669913 287.904071 
L 129.301343 287.904071 
L 130.932773 287.904071 
L 132.564203 287.904071 
L 134.195633 287.904071 
L 135.827063 287.904071 
L 137.458492 287.904071 
L 139.089922 287.904071 
L 140.721352 287.904071 
L 142.352782 287.904071 
L 143.984212 287.904071 
L 145.615642 287.904071 
L 147.247072 287.904071 
L 148.878502 287.904071 
L 150.509931 287.904071 
L 152.141361 287.904071 
L 153.772791 287.904071 
L 155.404221 287.904071 
L 157.035651 287.904071 
L 158.667081 287.904071 
L 160.298511 287.904071 
L 161.929941 287.904071 
L 163.56137 287.904071 
L 165.1928 287.904071 
L 166.82423 287.904071 
L 168.45566 287.904071 
L 170.08709 287.904071 
L 171.71852 287.904071 
L 173.34995 287.904071 
L 174.98138 287.904071 
L 176.61281 287.904071 
L 178.244239 287.904071 
L 179.875669 287.904071 
L 181.507099 287.904071 
L 183.138529 287.904071 
L 184.769959 287.904071 
L 186.401389 287.904071 
L 188.032819 287.904071 
L 189.664249 287.904071 
L 191.295678 287.904071 
L 192.927108 287.904071 
L 194.558538 287.904071 
L 196.189968 287.904071 
L 197.821398 287.904071 
L 199.452828 287.904071 
L 201.084258 287.904071 
L 202.715688 287.904071 
L 204.347117 287.904071 
L 205.978547 287.904071 
L 207.609977 287.904071 
L 209.241407 287.904071 
L 210.872837 287.904071 
L 212.504267 287.904071 
L 214.135697 287.904071 
L 215.767127 287.904071 
L 217.398556 287.904071 
L 219.029986 287.904071 
L 220.661416 287.904071 
L 222.292846 287.904071 
L 223.924276 287.904071 
L 225.555706 287.904071 
L 227.187136 287.904071 
L 228.818566 287.904071 
L 230.449995 287.904071 
L 232.081425 287.904071 
L 233.712855 287.904071 
L 235.344285 287.904071 
L 236.975715 287.904071 
L 238.607145 287.904071 
L 240.238575 287.904071 
L 241.870005 287.904071 
L 243.501434 287.904071 
L 245.132864 287.904071 
L 246.764294 287.904071 
L 248.395724 287.904071 
L 250.027154 287.904071 
L 251.658584 287.904071 
L 253.290014 287.904071 
L 254.921444 287.904071 
L 256.552873 287.904071 
L 258.184303 287.904071 
L 259.815733 287.904071 
L 261.447163 287.904071 
L 263.078593 287.904071 
L 264.710023 288.145556 
L 266.341453 288.602146 
L 267.972883 288.608585 
L 269.604312 288.938574 
L 271.235742 288.594765 
L 272.867172 288.599655 
L 274.498602 288.648223 
L 276.130032 288.633664 
L 277.761462 288.62263 
L 279.392892 289.249701 
L 281.024322 288.816126 
L 282.655751 288.825488 
L 284.287181 288.806979 
L 285.918611 288.787601 
L 287.550041 288.767121 
L 289.181471 288.750982 
L 290.812901 288.747525 
L 292.444331 288.858859 
L 294.075761 288.855257 
L 295.70719 289.132454 
L 297.33862 288.877749 
L 298.97005 288.871233 
L 300.60148 289.025005 
L 302.23291 289.554007 
L 303.86434 289.547447 
L 305.49577 290.116184 
L 307.1272 289.620459 
L 308.75863 290.742394 
L 310.390059 289.723414 
L 312.021489 289.716069 
L 313.652919 289.700097 
L 315.284349 289.798779 
L 316.915779 289.83074 
L 318.547209 292.276529 
L 320.178639 292.300369 
L 321.810069 292.303943 
L 323.441498 292.353039 
L 325.072928 291.971196 
L 326.704358 293.486667 
L 328.335788 292.535538 
L 329.967218 292.930669 
L 331.598648 292.770999 
L 333.230078 293.06193 
L 334.861508 293.107022 
L 336.492937 292.431778 
L 338.124367 292.592083 
L 339.755797 293.189732 
L 341.387227 292.808332 
L 343.018657 293.236279 
L 344.650087 293.409755 
L 346.281517 293.477959 
L 347.912947 293.439029 
L 349.544376 293.507868 
L 351.175806 293.452478 
L 352.807236 293.523335 
L 354.438666 293.41388 
L 356.070096 293.569396 
L 357.701526 292.226116 
L 359.332956 292.163331 
L 360.964386 292.133945 
L 362.595815 292.886496 
L 364.227245 292.46201 
L 365.858675 293.206671 
L 367.490105 293.362203 
L 369.121535 293.392013 
L 370.752965 293.437566 
L 372.384395 293.584349 
L 374.015825 292.923844 
L 375.647254 294.361925 
L 377.278684 293.454262 
L 378.910114 294.481022 
L 380.541544 292.966859 
L 382.172974 293.470495 
L 383.804404 295.488 
L 385.435834 292.875089 
L 387.067264 292.933058 
L 388.698693 293.245288 
L 390.330123 293.221843 
L 391.961553 294.429485 
L 393.592983 294.069359 
L 395.224413 293.765143 
L 396.855843 294.9257 
L 398.487273 294.132751 
L 398.487273 141.616513 
L 398.487273 141.616513 
L 396.855843 93.564949 
L 395.224413 139.617854 
L 393.592983 138.669167 
L 391.961553 102.241854 
L 390.330123 99.151046 
L 388.698693 107.389056 
L 387.067264 97.636219 
L 385.435834 164.064101 
L 383.804404 92.191324 
L 382.172974 92.191324 
L 380.541544 120.080044 
L 378.910114 92.191324 
L 377.278684 92.191324 
L 375.647254 94.913922 
L 374.015825 130.872634 
L 372.384395 92.191324 
L 370.752965 94.001935 
L 369.121535 158.601528 
L 367.490105 122.506946 
L 365.858675 98.6816 
L 364.227245 110.949971 
L 362.595815 92.548682 
L 360.964386 132.833559 
L 359.332956 99.125346 
L 357.701526 128.532296 
L 356.070096 92.191324 
L 354.438666 119.818859 
L 352.807236 92.191324 
L 351.175806 163.124201 
L 349.544376 122.688003 
L 347.912947 130.484071 
L 346.281517 141.184742 
L 344.650087 53.568 
L 343.018657 139.646904 
L 341.387227 113.342126 
L 339.755797 111.552601 
L 338.124367 87.778179 
L 336.492937 119.254944 
L 334.861508 118.874668 
L 333.230078 96.102407 
L 331.598648 119.086552 
L 329.967218 97.653287 
L 328.335788 117.198027 
L 326.704358 93.444203 
L 325.072928 123.712525 
L 323.441498 91.099556 
L 321.810069 117.447033 
L 320.178639 100.870506 
L 318.547209 127.852565 
L 316.915779 122.952873 
L 315.284349 176.22133 
L 313.652919 123.988226 
L 312.021489 120.059733 
L 310.390059 133.985631 
L 308.75863 199.090631 
L 307.1272 130.611817 
L 305.49577 159.559228 
L 303.86434 124.76128 
L 302.23291 161.471296 
L 300.60148 160.841801 
L 298.97005 204.359249 
L 297.33862 160.43076 
L 295.70719 164.347686 
L 294.075761 139.297041 
L 292.444331 159.327866 
L 290.812901 131.853713 
L 289.181471 117.326327 
L 287.550041 109.16647 
L 285.918611 114.60143 
L 284.287181 174.843155 
L 282.655751 179.500694 
L 281.024322 165.716884 
L 279.392892 265.114738 
L 277.761462 124.886966 
L 276.130032 180.894745 
L 274.498602 247.0569 
L 272.867172 203.121478 
L 271.235742 174.392889 
L 269.604312 194.788571 
L 267.972883 183.005858 
L 266.341453 147.081335 
L 264.710023 187.86169 
L 263.078593 226.897432 
L 261.447163 147.382218 
L 259.815733 109.679804 
L 258.184303 138.67791 
L 256.552873 175.215944 
L 254.921444 111.350054 
L 253.290014 138.766919 
L 251.658584 173.981051 
L 250.027154 233.192481 
L 248.395724 269.638835 
L 246.764294 184.431016 
L 245.132864 125.430821 
L 243.501434 246.507226 
L 241.870005 217.943227 
L 240.238575 200.415115 
L 238.607145 220.781711 
L 236.975715 226.099227 
L 235.344285 126.439595 
L 233.712855 136.591518 
L 232.081425 159.957992 
L 230.449995 162.489599 
L 228.818566 108.22365 
L 227.187136 265.041612 
L 225.555706 112.416405 
L 223.924276 131.958072 
L 222.292846 175.651381 
L 220.661416 132.991209 
L 219.029986 140.332021 
L 217.398556 126.432703 
L 215.767127 193.736642 
L 214.135697 172.697797 
L 212.504267 121.338882 
L 210.872837 136.204941 
L 209.241407 242.56572 
L 207.609977 134.860146 
L 205.978547 198.145606 
L 204.347117 143.756104 
L 202.715688 179.079903 
L 201.084258 146.01534 
L 199.452828 166.102718 
L 197.821398 286.837475 
L 196.189968 286.837475 
L 194.558538 286.837475 
L 192.927108 286.837475 
L 191.295678 286.837475 
L 189.664249 286.837475 
L 188.032819 286.837475 
L 186.401389 286.837475 
L 184.769959 286.837475 
L 183.138529 286.837475 
L 181.507099 286.837475 
L 179.875669 286.837475 
L 178.244239 286.837475 
L 176.61281 286.837475 
L 174.98138 286.837475 
L 173.34995 286.837475 
L 171.71852 286.837475 
L 170.08709 286.837475 
L 168.45566 286.837475 
L 166.82423 286.837475 
L 165.1928 286.837475 
L 163.56137 286.837475 
L 161.929941 286.837475 
L 160.298511 286.837475 
L 158.667081 286.837475 
L 157.035651 286.837475 
L 155.404221 286.837475 
L 153.772791 286.837475 
L 152.141361 286.837475 
L 150.509931 286.837475 
L 148.878502 286.837475 
L 147.247072 286.837475 
L 145.615642 286.837475 
L 143.984212 286.837475 
L 142.352782 286.837475 
L 140.721352 286.837475 
L 139.089922 286.837475 
L 137.458492 286.837475 
L 135.827063 286.837475 
L 134.195633 286.837475 
L 132.564203 286.837475 
L 130.932773 286.837475 
L 129.301343 286.837475 
L 127.669913 286.837475 
L 126.038483 286.837475 
L 124.407053 286.837475 
L 122.775624 286.837475 
L 121.144194 286.837475 
L 119.512764 286.837475 
L 117.881334 286.837475 
L 116.249904 286.837475 
L 114.618474 286.837475 
L 112.987044 286.837475 
L 111.355614 286.837475 
L 109.724185 286.837475 
L 108.092755 286.837475 
L 106.461325 286.837475 
L 104.829895 286.837475 
L 103.198465 286.837475 
L 101.567035 286.837475 
L 99.935605 286.837475 
L 98.304175 286.837475 
L 96.672746 286.837475 
L 95.041316 286.837475 
L 93.409886 286.837475 
L 91.778456 286.837475 
L 90.147026 286.837475 
L 88.515596 286.837475 
L 86.884166 286.837475 
L 85.252736 286.837475 
L 83.621307 286.837475 
L 81.989877 286.837475 
L 80.358447 286.837475 
L 78.727017 286.837475 
L 77.095587 286.837475 
L 75.464157 286.837475 
L 73.832727 286.837475 
z
" style="fill:#1f77b4;fill-opacity:0.1;"/>
   </g>
   <g id="matplotlib.axis_1">
    <g id="xtick_1">
     <g id="line2d_1">
      <defs>
       <path d="M 0 0 
L 0 3.5 
" id="md31fc5507a" style="stroke:#000000;stroke-width:0.8;"/>
      </defs>
      <g>
       <use style="stroke:#000000;stroke-width:0.8;" x="73.832727" xlink:href="#md31fc5507a" y="307.584"/>
      </g>
     </g>
     <g id="text_1">
      <!-- 0 -->
      <defs>
       <path d="M 31.78125 66.40625 
Q 24.171875 66.40625 20.328125 58.90625 
Q 16.5 51.421875 16.5 36.375 
Q 16.5 21.390625 20.328125 13.890625 
Q 24.171875 6.390625 31.78125 6.390625 
Q 39.453125 6.390625 43.28125 13.890625 
Q 47.125 21.390625 47.125 36.375 
Q 47.125 51.421875 43.28125 58.90625 
Q 39.453125 66.40625 31.78125 66.40625 
z
M 31.78125 74.21875 
Q 44.046875 74.21875 50.515625 64.515625 
Q 56.984375 54.828125 56.984375 36.375 
Q 56.984375 17.96875 50.515625 8.265625 
Q 44.046875 -1.421875 31.78125 -1.421875 
Q 19.53125 -1.421875 13.0625 8.265625 
Q 6.59375 17.96875 6.59375 36.375 
Q 6.59375 54.828125 13.0625 64.515625 
Q 19.53125 74.21875 31.78125 74.21875 
z
" id="DejaVuSans-48"/>
      </defs>
      <g transform="translate(70.651477 322.182437)scale(0.1 -0.1)">
       <use xlink:href="#DejaVuSans-48"/>
      </g>
     </g>
    </g>
    <g id="xtick_2">
     <g id="line2d_2">
      <g>
       <use style="stroke:#000000;stroke-width:0.8;" x="114.618474" xlink:href="#md31fc5507a" y="307.584"/>
      </g>
     </g>
     <g id="text_2">
      <!-- 25 -->
      <defs>
       <path d="M 19.1875 8.296875 
L 53.609375 8.296875 
L 53.609375 0 
L 7.328125 0 
L 7.328125 8.296875 
Q 12.9375 14.109375 22.625 23.890625 
Q 32.328125 33.6875 34.8125 36.53125 
Q 39.546875 41.84375 41.421875 45.53125 
Q 43.3125 49.21875 43.3125 52.78125 
Q 43.3125 58.59375 39.234375 62.25 
Q 35.15625 65.921875 28.609375 65.921875 
Q 23.96875 65.921875 18.8125 64.3125 
Q 13.671875 62.703125 7.8125 59.421875 
L 7.8125 69.390625 
Q 13.765625 71.78125 18.9375 73 
Q 24.125 74.21875 28.421875 74.21875 
Q 39.75 74.21875 46.484375 68.546875 
Q 53.21875 62.890625 53.21875 53.421875 
Q 53.21875 48.921875 51.53125 44.890625 
Q 49.859375 40.875 45.40625 35.40625 
Q 44.1875 33.984375 37.640625 27.21875 
Q 31.109375 20.453125 19.1875 8.296875 
z
" id="DejaVuSans-50"/>
       <path d="M 10.796875 72.90625 
L 49.515625 72.90625 
L 49.515625 64.59375 
L 19.828125 64.59375 
L 19.828125 46.734375 
Q 21.96875 47.46875 24.109375 47.828125 
Q 26.265625 48.1875 28.421875 48.1875 
Q 40.625 48.1875 47.75 41.5 
Q 54.890625 34.8125 54.890625 23.390625 
Q 54.890625 11.625 47.5625 5.09375 
Q 40.234375 -1.421875 26.90625 -1.421875 
Q 22.3125 -1.421875 17.546875 -0.640625 
Q 12.796875 0.140625 7.71875 1.703125 
L 7.71875 11.625 
Q 12.109375 9.234375 16.796875 8.0625 
Q 21.484375 6.890625 26.703125 6.890625 
Q 35.15625 6.890625 40.078125 11.328125 
Q 45.015625 15.765625 45.015625 23.390625 
Q 45.015625 31 40.078125 35.4375 
Q 35.15625 39.890625 26.703125 39.890625 
Q 22.75 39.890625 18.8125 39.015625 
Q 14.890625 38.140625 10.796875 36.28125 
z
" id="DejaVuSans-53"/>
      </defs>
      <g transform="translate(108.255974 322.182437)scale(0.1 -0.1)">
       <use xlink:href="#DejaVuSans-50"/>
       <use x="63.623047" xlink:href="#DejaVuSans-53"/>
      </g>
     </g>
    </g>
    <g id="xtick_3">
     <g id="line2d_3">
      <g>
       <use style="stroke:#000000;stroke-width:0.8;" x="155.404221" xlink:href="#md31fc5507a" y="307.584"/>
      </g>
     </g>
     <g id="text_3">
      <!-- 50 -->
      <g transform="translate(149.041721 322.182437)scale(0.1 -0.1)">
       <use xlink:href="#DejaVuSans-53"/>
       <use x="63.623047" xlink:href="#DejaVuSans-48"/>
      </g>
     </g>
    </g>
    <g id="xtick_4">
     <g id="line2d_4">
      <g>
       <use style="stroke:#000000;stroke-width:0.8;" x="196.189968" xlink:href="#md31fc5507a" y="307.584"/>
      </g>
     </g>
     <g id="text_4">
      <!-- 75 -->
      <defs>
       <path d="M 8.203125 72.90625 
L 55.078125 72.90625 
L 55.078125 68.703125 
L 28.609375 0 
L 18.3125 0 
L 43.21875 64.59375 
L 8.203125 64.59375 
z
" id="DejaVuSans-55"/>
      </defs>
      <g transform="translate(189.827468 322.182437)scale(0.1 -0.1)">
       <use xlink:href="#DejaVuSans-55"/>
       <use x="63.623047" xlink:href="#DejaVuSans-53"/>
      </g>
     </g>
    </g>
    <g id="xtick_5">
     <g id="line2d_5">
      <g>
       <use style="stroke:#000000;stroke-width:0.8;" x="236.975715" xlink:href="#md31fc5507a" y="307.584"/>
      </g>
     </g>
     <g id="text_5">
      <!-- 100 -->
      <defs>
       <path d="M 12.40625 8.296875 
L 28.515625 8.296875 
L 28.515625 63.921875 
L 10.984375 60.40625 
L 10.984375 69.390625 
L 28.421875 72.90625 
L 38.28125 72.90625 
L 38.28125 8.296875 
L 54.390625 8.296875 
L 54.390625 0 
L 12.40625 0 
z
" id="DejaVuSans-49"/>
      </defs>
      <g transform="translate(227.431965 322.182437)scale(0.1 -0.1)">
       <use xlink:href="#DejaVuSans-49"/>
       <use x="63.623047" xlink:href="#DejaVuSans-48"/>
       <use x="127.246094" xlink:href="#DejaVuSans-48"/>
      </g>
     </g>
    </g>
    <g id="xtick_6">
     <g id="line2d_6">
      <g>
       <use style="stroke:#000000;stroke-width:0.8;" x="277.761462" xlink:href="#md31fc5507a" y="307.584"/>
      </g>
     </g>
     <g id="text_6">
      <!-- 125 -->
      <g transform="translate(268.217712 322.182437)scale(0.1 -0.1)">
       <use xlink:href="#DejaVuSans-49"/>
       <use x="63.623047" xlink:href="#DejaVuSans-50"/>
       <use x="127.246094" xlink:href="#DejaVuSans-53"/>
      </g>
     </g>
    </g>
    <g id="xtick_7">
     <g id="line2d_7">
      <g>
       <use style="stroke:#000000;stroke-width:0.8;" x="318.547209" xlink:href="#md31fc5507a" y="307.584"/>
      </g>
     </g>
     <g id="text_7">
      <!-- 150 -->
      <g transform="translate(309.003459 322.182437)scale(0.1 -0.1)">
       <use xlink:href="#DejaVuSans-49"/>
       <use x="63.623047" xlink:href="#DejaVuSans-53"/>
       <use x="127.246094" xlink:href="#DejaVuSans-48"/>
      </g>
     </g>
    </g>
    <g id="xtick_8">
     <g id="line2d_8">
      <g>
       <use style="stroke:#000000;stroke-width:0.8;" x="359.332956" xlink:href="#md31fc5507a" y="307.584"/>
      </g>
     </g>
     <g id="text_8">
      <!-- 175 -->
      <g transform="translate(349.789206 322.182437)scale(0.1 -0.1)">
       <use xlink:href="#DejaVuSans-49"/>
       <use x="63.623047" xlink:href="#DejaVuSans-55"/>
       <use x="127.246094" xlink:href="#DejaVuSans-53"/>
      </g>
     </g>
    </g>
    <g id="xtick_9">
     <g id="line2d_9">
      <g>
       <use style="stroke:#000000;stroke-width:0.8;" x="400.118703" xlink:href="#md31fc5507a" y="307.584"/>
      </g>
     </g>
     <g id="text_9">
      <!-- 200 -->
      <g transform="translate(390.574953 322.182437)scale(0.1 -0.1)">
       <use xlink:href="#DejaVuSans-50"/>
       <use x="63.623047" xlink:href="#DejaVuSans-48"/>
       <use x="127.246094" xlink:href="#DejaVuSans-48"/>
      </g>
     </g>
    </g>
   </g>
   <g id="matplotlib.axis_2">
    <g id="ytick_1">
     <g id="line2d_10">
      <defs>
       <path d="M 0 0 
L -3.5 0 
" id="mc3735955f8" style="stroke:#000000;stroke-width:0.8;"/>
      </defs>
      <g>
       <use style="stroke:#000000;stroke-width:0.8;" x="57.6" xlink:href="#mc3735955f8" y="297.709794"/>
      </g>
     </g>
     <g id="text_10">
      <!-- 0 -->
      <g transform="translate(44.2375 301.509013)scale(0.1 -0.1)">
       <use xlink:href="#DejaVuSans-48"/>
      </g>
     </g>
    </g>
    <g id="ytick_2">
     <g id="line2d_11">
      <g>
       <use style="stroke:#000000;stroke-width:0.8;" x="57.6" xlink:href="#mc3735955f8" y="253.082025"/>
      </g>
     </g>
     <g id="text_11">
      <!-- 5 -->
      <g transform="translate(44.2375 256.881244)scale(0.1 -0.1)">
       <use xlink:href="#DejaVuSans-53"/>
      </g>
     </g>
    </g>
    <g id="ytick_3">
     <g id="line2d_12">
      <g>
       <use style="stroke:#000000;stroke-width:0.8;" x="57.6" xlink:href="#mc3735955f8" y="208.454256"/>
      </g>
     </g>
     <g id="text_12">
      <!-- 10 -->
      <g transform="translate(37.875 212.253475)scale(0.1 -0.1)">
       <use xlink:href="#DejaVuSans-49"/>
       <use x="63.623047" xlink:href="#DejaVuSans-48"/>
      </g>
     </g>
    </g>
    <g id="ytick_4">
     <g id="line2d_13">
      <g>
       <use style="stroke:#000000;stroke-width:0.8;" x="57.6" xlink:href="#mc3735955f8" y="163.826488"/>
      </g>
     </g>
     <g id="text_13">
      <!-- 15 -->
      <g transform="translate(37.875 167.625706)scale(0.1 -0.1)">
       <use xlink:href="#DejaVuSans-49"/>
       <use x="63.623047" xlink:href="#DejaVuSans-53"/>
      </g>
     </g>
    </g>
    <g id="ytick_5">
     <g id="line2d_14">
      <g>
       <use style="stroke:#000000;stroke-width:0.8;" x="57.6" xlink:href="#mc3735955f8" y="119.198719"/>
      </g>
     </g>
     <g id="text_14">
      <!-- 20 -->
      <g transform="translate(37.875 122.997938)scale(0.1 -0.1)">
       <use xlink:href="#DejaVuSans-50"/>
       <use x="63.623047" xlink:href="#DejaVuSans-48"/>
      </g>
     </g>
    </g>
    <g id="ytick_6">
     <g id="line2d_15">
      <g>
       <use style="stroke:#000000;stroke-width:0.8;" x="57.6" xlink:href="#mc3735955f8" y="74.57095"/>
      </g>
     </g>
     <g id="text_15">
      <!-- 25 -->
      <g transform="translate(37.875 78.370169)scale(0.1 -0.1)">
       <use xlink:href="#DejaVuSans-50"/>
       <use x="63.623047" xlink:href="#DejaVuSans-53"/>
      </g>
     </g>
    </g>
   </g>
   <g id="line2d_16">
    <path clip-path="url(#p64e40fec1a)" d="M 73.832727 287.904071 
L 75.464157 287.644357 
L 77.095587 287.904071 
L 78.727017 287.904071 
L 80.358447 287.644357 
L 81.989877 287.904071 
L 91.778456 287.904071 
L 93.409886 287.644357 
L 95.041316 287.904071 
L 96.672746 287.644357 
L 98.304175 287.904071 
L 101.567035 287.904071 
L 103.198465 287.644357 
L 104.829895 287.644357 
L 106.461325 287.904071 
L 134.195633 287.904071 
L 135.827063 287.644357 
L 137.458492 287.904071 
L 143.984212 287.904071 
L 145.615642 287.774214 
L 147.247072 287.904071 
L 152.141361 287.904071 
L 153.772791 287.774214 
L 155.404221 287.904071 
L 163.56137 287.904071 
L 165.1928 287.644357 
L 166.82423 287.904071 
L 170.08709 287.904071 
L 171.71852 287.644357 
L 173.34995 287.644357 
L 174.98138 287.904071 
L 178.244239 287.904071 
L 179.875669 287.644357 
L 181.507099 287.904071 
L 184.769959 287.904071 
L 186.401389 287.644357 
L 188.032819 287.904071 
L 191.295678 287.904071 
L 194.558538 287.644357 
L 196.189968 287.904071 
L 197.821398 287.774214 
L 199.452828 287.904071 
L 210.872837 287.904071 
L 212.504267 287.644357 
L 214.135697 287.644357 
L 215.767127 287.904071 
L 223.924276 287.904071 
L 225.555706 287.644357 
L 227.187136 287.904071 
L 228.818566 287.644357 
L 230.449995 287.644357 
L 232.081425 287.904071 
L 233.712855 287.644357 
L 235.344285 287.904071 
L 238.607145 287.904071 
L 240.238575 287.644357 
L 241.870005 287.644357 
L 243.501434 287.904071 
L 245.132864 287.774214 
L 246.764294 287.904071 
L 248.395724 287.774214 
L 250.027154 287.774214 
L 251.658584 287.644357 
L 253.290014 287.904071 
L 254.921444 287.644357 
L 258.184303 287.644357 
L 259.815733 286.837475 
L 261.447163 286.939152 
L 263.078593 286.837475 
L 264.710023 276.972425 
L 266.341453 277.3422 
L 267.972883 276.286348 
L 269.604312 281.255385 
L 271.235742 275.363396 
L 272.867172 283.091022 
L 274.498602 280.824032 
L 276.130032 270.268982 
L 277.761462 275.023292 
L 279.392892 287.513607 
L 281.024322 273.182382 
L 282.655751 278.56987 
L 284.287181 272.144707 
L 285.918611 271.114402 
L 287.550041 267.83985 
L 289.181471 268.42644 
L 290.812901 272.73146 
L 292.444331 277.460266 
L 294.075761 275.355329 
L 295.70719 279.840251 
L 297.33862 279.492393 
L 298.97005 287.506012 
L 300.60148 278.246201 
L 302.23291 272.256374 
L 303.86434 273.051846 
L 305.49577 278.575384 
L 307.1272 274.225342 
L 308.75863 286.400883 
L 310.390059 276.652307 
L 312.021489 276.232288 
L 313.652919 274.759835 
L 315.284349 280.055201 
L 316.915779 269.833316 
L 318.547209 276.754156 
L 320.178639 275.870407 
L 321.810069 277.97448 
L 323.441498 286.191413 
L 325.072928 281.654453 
L 326.704358 282.536976 
L 328.335788 279.58714 
L 329.967218 280.984884 
L 331.598648 281.942367 
L 333.230078 280.380146 
L 334.861508 277.198582 
L 336.492937 275.770023 
L 338.124367 277.083438 
L 339.755797 284.001485 
L 341.387227 284.638143 
L 343.018657 279.955758 
L 344.650087 286.437732 
L 346.281517 284.953129 
L 347.912947 279.513845 
L 349.544376 283.031476 
L 351.175806 282.167957 
L 352.807236 287.596961 
L 354.438666 282.341789 
L 356.070096 279.082305 
L 357.701526 273.364101 
L 359.332956 285.750234 
L 360.964386 279.790396 
L 362.595815 287.455465 
L 364.227245 287.884961 
L 365.858675 280.585136 
L 367.490105 280.09169 
L 369.121535 286.415613 
L 370.752965 282.806463 
L 372.384395 285.370667 
L 374.015825 278.290631 
L 377.278684 280.430752 
L 378.910114 279.142466 
L 380.541544 283.732373 
L 382.172974 285.874427 
L 383.804404 280.605722 
L 385.435834 276.713699 
L 387.067264 280.162382 
L 388.698693 281.208544 
L 390.330123 280.069068 
L 391.961553 275.711257 
L 393.592983 286.00492 
L 395.224413 277.23858 
L 396.855843 279.62502 
L 398.487273 279.219874 
L 398.487273 279.219874 
" style="fill:none;stroke:#1f77b4;stroke-linecap:square;stroke-width:0.25;"/>
   </g>
   <g id="line2d_17">
    <path clip-path="url(#p64e40fec1a)" d="M 73.832727 287.488931 
L 91.778456 287.515735 
L 93.409886 287.470751 
L 95.041316 287.537066 
L 96.672746 287.414269 
L 98.304175 287.579453 
L 108.092755 287.494403 
L 112.987044 287.505069 
L 114.618474 287.480585 
L 117.881334 287.569064 
L 121.144194 287.502471 
L 197.821398 287.491805 
L 199.452828 282.855819 
L 201.084258 283.557995 
L 202.715688 284.688187 
L 204.347117 283.15347 
L 205.978547 285.442204 
L 207.609977 280.721049 
L 209.241407 286.659871 
L 210.872837 284.90418 
L 212.504267 284.199009 
L 214.135697 284.010658 
L 215.767127 284.442134 
L 217.398556 282.13157 
L 219.029986 282.641394 
L 220.661416 282.714165 
L 222.292846 283.618155 
L 223.924276 283.730521 
L 225.555706 285.00798 
L 227.187136 287.14713 
L 228.818566 281.756138 
L 230.449995 284.532222 
L 232.081425 284.514865 
L 233.712855 279.286375 
L 235.344285 282.284349 
L 236.975715 285.032776 
L 238.607145 286.699981 
L 240.238575 286.3155 
L 241.870005 283.557993 
L 243.501434 286.911946 
L 245.132864 280.169733 
L 246.764294 284.47891 
L 248.395724 286.993558 
L 250.027154 286.624353 
L 251.658584 282.674169 
L 253.290014 282.618299 
L 254.921444 279.748325 
L 256.552873 281.278505 
L 258.184303 280.936102 
L 259.815733 268.866123 
L 261.447163 277.803766 
L 263.078593 284.58107 
L 264.710023 275.543292 
L 266.341453 277.118962 
L 267.972883 277.924486 
L 269.604312 279.576103 
L 271.235742 275.632391 
L 272.867172 279.845333 
L 274.498602 280.182491 
L 276.130032 272.37288 
L 277.761462 270.70348 
L 279.392892 284.42322 
L 281.024322 273.457911 
L 282.655751 278.537394 
L 284.287181 272.841599 
L 285.918611 272.057951 
L 287.550041 262.502052 
L 289.181471 266.102286 
L 290.812901 262.96255 
L 292.444331 274.725758 
L 294.075761 274.683953 
L 295.70719 279.065379 
L 298.97005 280.255091 
L 300.60148 272.819829 
L 302.23291 266.553719 
L 303.86434 259.359381 
L 305.49577 275.970213 
L 307.1272 266.226704 
L 308.75863 281.253443 
L 310.390059 259.495217 
L 312.021489 264.663769 
L 313.652919 260.590058 
L 315.284349 269.076582 
L 316.915779 250.076539 
L 318.547209 262.115073 
L 320.178639 265.920734 
L 321.810069 266.726759 
L 323.441498 262.645398 
L 325.072928 269.764421 
L 326.704358 273.251135 
L 328.335788 269.63964 
L 329.967218 270.652914 
L 331.598648 270.014769 
L 333.230078 272.322664 
L 334.861508 268.459529 
L 336.492937 260.704826 
L 338.124367 256.716693 
L 339.755797 269.819978 
L 341.387227 268.31758 
L 343.018657 272.380703 
L 344.650087 260.268979 
L 346.281517 276.132111 
L 347.912947 265.200624 
L 349.544376 268.245372 
L 351.175806 274.852254 
L 352.807236 264.477534 
L 354.438666 269.630146 
L 356.070096 260.660782 
L 357.701526 260.716722 
L 359.332956 266.072535 
L 360.964386 263.809831 
L 362.595815 253.705018 
L 364.227245 264.91378 
L 365.858675 267.872476 
L 367.490105 265.221178 
L 369.121535 274.78304 
L 370.752965 272.624555 
L 372.384395 268.589319 
L 374.015825 272.711714 
L 375.647254 259.194027 
L 377.278684 257.897543 
L 378.910114 264.770194 
L 380.541544 264.393022 
L 382.172974 259.059365 
L 383.804404 261.194222 
L 385.435834 267.286238 
L 387.067264 253.369638 
L 388.698693 266.37102 
L 390.330123 266.371538 
L 391.961553 251.17145 
L 393.592983 267.346532 
L 395.224413 266.888002 
L 396.855843 254.799473 
L 398.487273 265.764964 
L 398.487273 265.764964 
" style="fill:none;stroke:#2ca02c;stroke-linecap:square;stroke-width:0.75;"/>
   </g>
   <g id="patch_3">
    <path d="M 57.6 307.584 
L 57.6 41.472 
" style="fill:none;stroke:#000000;stroke-linecap:square;stroke-linejoin:miter;stroke-width:0.8;"/>
   </g>
   <g id="patch_4">
    <path d="M 414.72 307.584 
L 414.72 41.472 
" style="fill:none;stroke:#000000;stroke-linecap:square;stroke-linejoin:miter;stroke-width:0.8;"/>
   </g>
   <g id="patch_5">
    <path d="M 57.6 307.584 
L 414.72 307.584 
" style="fill:none;stroke:#000000;stroke-linecap:square;stroke-linejoin:miter;stroke-width:0.8;"/>
   </g>
   <g id="patch_6">
    <path d="M 57.6 41.472 
L 414.72 41.472 
" style="fill:none;stroke:#000000;stroke-linecap:square;stroke-linejoin:miter;stroke-width:0.8;"/>
   </g>
   <g id="legend_1">
    <g id="patch_7">
     <path d="M 338.234063 78.82825 
L 407.72 78.82825 
Q 409.72 78.82825 409.72 76.82825 
L 409.72 48.472 
Q 409.72 46.472 407.72 46.472 
L 338.234063 46.472 
Q 336.234063 46.472 336.234063 48.472 
L 336.234063 76.82825 
Q 336.234063 78.82825 338.234063 78.82825 
z
" style="fill:#ffffff;opacity:0.8;stroke:#cccccc;stroke-linejoin:miter;"/>
    </g>
    <g id="line2d_18">
     <path d="M 340.234063 54.570437 
L 360.234063 54.570437 
" style="fill:none;stroke:#1f77b4;stroke-linecap:square;stroke-width:0.25;"/>
    </g>
    <g id="line2d_19"/>
    <g id="text_16">
     <!-- median -->
     <defs>
      <path d="M 52 44.1875 
Q 55.375 50.25 60.0625 53.125 
Q 64.75 56 71.09375 56 
Q 79.640625 56 84.28125 50.015625 
Q 88.921875 44.046875 88.921875 33.015625 
L 88.921875 0 
L 79.890625 0 
L 79.890625 32.71875 
Q 79.890625 40.578125 77.09375 44.375 
Q 74.3125 48.1875 68.609375 48.1875 
Q 61.625 48.1875 57.5625 43.546875 
Q 53.515625 38.921875 53.515625 30.90625 
L 53.515625 0 
L 44.484375 0 
L 44.484375 32.71875 
Q 44.484375 40.625 41.703125 44.40625 
Q 38.921875 48.1875 33.109375 48.1875 
Q 26.21875 48.1875 22.15625 43.53125 
Q 18.109375 38.875 18.109375 30.90625 
L 18.109375 0 
L 9.078125 0 
L 9.078125 54.6875 
L 18.109375 54.6875 
L 18.109375 46.1875 
Q 21.1875 51.21875 25.484375 53.609375 
Q 29.78125 56 35.6875 56 
Q 41.65625 56 45.828125 52.96875 
Q 50 49.953125 52 44.1875 
z
" id="DejaVuSans-109"/>
      <path d="M 56.203125 29.59375 
L 56.203125 25.203125 
L 14.890625 25.203125 
Q 15.484375 15.921875 20.484375 11.0625 
Q 25.484375 6.203125 34.421875 6.203125 
Q 39.59375 6.203125 44.453125 7.46875 
Q 49.3125 8.734375 54.109375 11.28125 
L 54.109375 2.78125 
Q 49.265625 0.734375 44.1875 -0.34375 
Q 39.109375 -1.421875 33.890625 -1.421875 
Q 20.796875 -1.421875 13.15625 6.1875 
Q 5.515625 13.8125 5.515625 26.8125 
Q 5.515625 40.234375 12.765625 48.109375 
Q 20.015625 56 32.328125 56 
Q 43.359375 56 49.78125 48.890625 
Q 56.203125 41.796875 56.203125 29.59375 
z
M 47.21875 32.234375 
Q 47.125 39.59375 43.09375 43.984375 
Q 39.0625 48.390625 32.421875 48.390625 
Q 24.90625 48.390625 20.390625 44.140625 
Q 15.875 39.890625 15.1875 32.171875 
z
" id="DejaVuSans-101"/>
      <path d="M 45.40625 46.390625 
L 45.40625 75.984375 
L 54.390625 75.984375 
L 54.390625 0 
L 45.40625 0 
L 45.40625 8.203125 
Q 42.578125 3.328125 38.25 0.953125 
Q 33.9375 -1.421875 27.875 -1.421875 
Q 17.96875 -1.421875 11.734375 6.484375 
Q 5.515625 14.40625 5.515625 27.296875 
Q 5.515625 40.1875 11.734375 48.09375 
Q 17.96875 56 27.875 56 
Q 33.9375 56 38.25 53.625 
Q 42.578125 51.265625 45.40625 46.390625 
z
M 14.796875 27.296875 
Q 14.796875 17.390625 18.875 11.75 
Q 22.953125 6.109375 30.078125 6.109375 
Q 37.203125 6.109375 41.296875 11.75 
Q 45.40625 17.390625 45.40625 27.296875 
Q 45.40625 37.203125 41.296875 42.84375 
Q 37.203125 48.484375 30.078125 48.484375 
Q 22.953125 48.484375 18.875 42.84375 
Q 14.796875 37.203125 14.796875 27.296875 
z
" id="DejaVuSans-100"/>
      <path d="M 9.421875 54.6875 
L 18.40625 54.6875 
L 18.40625 0 
L 9.421875 0 
z
M 9.421875 75.984375 
L 18.40625 75.984375 
L 18.40625 64.59375 
L 9.421875 64.59375 
z
" id="DejaVuSans-105"/>
      <path d="M 34.28125 27.484375 
Q 23.390625 27.484375 19.1875 25 
Q 14.984375 22.515625 14.984375 16.5 
Q 14.984375 11.71875 18.140625 8.90625 
Q 21.296875 6.109375 26.703125 6.109375 
Q 34.1875 6.109375 38.703125 11.40625 
Q 43.21875 16.703125 43.21875 25.484375 
L 43.21875 27.484375 
z
M 52.203125 31.203125 
L 52.203125 0 
L 43.21875 0 
L 43.21875 8.296875 
Q 40.140625 3.328125 35.546875 0.953125 
Q 30.953125 -1.421875 24.3125 -1.421875 
Q 15.921875 -1.421875 10.953125 3.296875 
Q 6 8.015625 6 15.921875 
Q 6 25.140625 12.171875 29.828125 
Q 18.359375 34.515625 30.609375 34.515625 
L 43.21875 34.515625 
L 43.21875 35.40625 
Q 43.21875 41.609375 39.140625 45 
Q 35.0625 48.390625 27.6875 48.390625 
Q 23 48.390625 18.546875 47.265625 
Q 14.109375 46.140625 10.015625 43.890625 
L 10.015625 52.203125 
Q 14.9375 54.109375 19.578125 55.046875 
Q 24.21875 56 28.609375 56 
Q 40.484375 56 46.34375 49.84375 
Q 52.203125 43.703125 52.203125 31.203125 
z
" id="DejaVuSans-97"/>
      <path d="M 54.890625 33.015625 
L 54.890625 0 
L 45.90625 0 
L 45.90625 32.71875 
Q 45.90625 40.484375 42.875 44.328125 
Q 39.84375 48.1875 33.796875 48.1875 
Q 26.515625 48.1875 22.3125 43.546875 
Q 18.109375 38.921875 18.109375 30.90625 
L 18.109375 0 
L 9.078125 0 
L 9.078125 54.6875 
L 18.109375 54.6875 
L 18.109375 46.1875 
Q 21.34375 51.125 25.703125 53.5625 
Q 30.078125 56 35.796875 56 
Q 45.21875 56 50.046875 50.171875 
Q 54.890625 44.34375 54.890625 33.015625 
z
" id="DejaVuSans-110"/>
     </defs>
     <g transform="translate(368.234063 58.070437)scale(0.1 -0.1)">
      <use xlink:href="#DejaVuSans-109"/>
      <use x="97.412109" xlink:href="#DejaVuSans-101"/>
      <use x="158.935547" xlink:href="#DejaVuSans-100"/>
      <use x="222.412109" xlink:href="#DejaVuSans-105"/>
      <use x="250.195312" xlink:href="#DejaVuSans-97"/>
      <use x="311.474609" xlink:href="#DejaVuSans-110"/>
     </g>
    </g>
    <g id="line2d_20">
     <path d="M 340.234063 69.248562 
L 360.234063 69.248562 
" style="fill:none;stroke:#2ca02c;stroke-linecap:square;stroke-width:0.75;"/>
    </g>
    <g id="line2d_21"/>
    <g id="text_17">
     <!-- mean -->
     <g transform="translate(368.234063 72.748562)scale(0.1 -0.1)">
      <use xlink:href="#DejaVuSans-109"/>
      <use x="97.412109" xlink:href="#DejaVuSans-101"/>
      <use x="158.935547" xlink:href="#DejaVuSans-97"/>
      <use x="220.214844" xlink:href="#DejaVuSans-110"/>
     </g>
    </g>
   </g>
  </g>
  <g id="text_18">
   <!-- log_loss.mean over generations -->
   <defs>
    <path d="M 9.421875 75.984375 
L 18.40625 75.984375 
L 18.40625 0 
L 9.421875 0 
z
" id="DejaVuSans-108"/>
    <path d="M 30.609375 48.390625 
Q 23.390625 48.390625 19.1875 42.75 
Q 14.984375 37.109375 14.984375 27.296875 
Q 14.984375 17.484375 19.15625 11.84375 
Q 23.34375 6.203125 30.609375 6.203125 
Q 37.796875 6.203125 41.984375 11.859375 
Q 46.1875 17.53125 46.1875 27.296875 
Q 46.1875 37.015625 41.984375 42.703125 
Q 37.796875 48.390625 30.609375 48.390625 
z
M 30.609375 56 
Q 42.328125 56 49.015625 48.375 
Q 55.71875 40.765625 55.71875 27.296875 
Q 55.71875 13.875 49.015625 6.21875 
Q 42.328125 -1.421875 30.609375 -1.421875 
Q 18.84375 -1.421875 12.171875 6.21875 
Q 5.515625 13.875 5.515625 27.296875 
Q 5.515625 40.765625 12.171875 48.375 
Q 18.84375 56 30.609375 56 
z
" id="DejaVuSans-111"/>
    <path d="M 45.40625 27.984375 
Q 45.40625 37.75 41.375 43.109375 
Q 37.359375 48.484375 30.078125 48.484375 
Q 22.859375 48.484375 18.828125 43.109375 
Q 14.796875 37.75 14.796875 27.984375 
Q 14.796875 18.265625 18.828125 12.890625 
Q 22.859375 7.515625 30.078125 7.515625 
Q 37.359375 7.515625 41.375 12.890625 
Q 45.40625 18.265625 45.40625 27.984375 
z
M 54.390625 6.78125 
Q 54.390625 -7.171875 48.1875 -13.984375 
Q 42 -20.796875 29.203125 -20.796875 
Q 24.46875 -20.796875 20.265625 -20.09375 
Q 16.0625 -19.390625 12.109375 -17.921875 
L 12.109375 -9.1875 
Q 16.0625 -11.328125 19.921875 -12.34375 
Q 23.78125 -13.375 27.78125 -13.375 
Q 36.625 -13.375 41.015625 -8.765625 
Q 45.40625 -4.15625 45.40625 5.171875 
L 45.40625 9.625 
Q 42.625 4.78125 38.28125 2.390625 
Q 33.9375 0 27.875 0 
Q 17.828125 0 11.671875 7.65625 
Q 5.515625 15.328125 5.515625 27.984375 
Q 5.515625 40.671875 11.671875 48.328125 
Q 17.828125 56 27.875 56 
Q 33.9375 56 38.28125 53.609375 
Q 42.625 51.21875 45.40625 46.390625 
L 45.40625 54.6875 
L 54.390625 54.6875 
z
" id="DejaVuSans-103"/>
    <path d="M 50.984375 -16.609375 
L 50.984375 -23.578125 
L -0.984375 -23.578125 
L -0.984375 -16.609375 
z
" id="DejaVuSans-95"/>
    <path d="M 44.28125 53.078125 
L 44.28125 44.578125 
Q 40.484375 46.53125 36.375 47.5 
Q 32.28125 48.484375 27.875 48.484375 
Q 21.1875 48.484375 17.84375 46.4375 
Q 14.5 44.390625 14.5 40.28125 
Q 14.5 37.15625 16.890625 35.375 
Q 19.28125 33.59375 26.515625 31.984375 
L 29.59375 31.296875 
Q 39.15625 29.25 43.1875 25.515625 
Q 47.21875 21.78125 47.21875 15.09375 
Q 47.21875 7.46875 41.1875 3.015625 
Q 35.15625 -1.421875 24.609375 -1.421875 
Q 20.21875 -1.421875 15.453125 -0.5625 
Q 10.6875 0.296875 5.421875 2 
L 5.421875 11.28125 
Q 10.40625 8.6875 15.234375 7.390625 
Q 20.0625 6.109375 24.8125 6.109375 
Q 31.15625 6.109375 34.5625 8.28125 
Q 37.984375 10.453125 37.984375 14.40625 
Q 37.984375 18.0625 35.515625 20.015625 
Q 33.0625 21.96875 24.703125 23.78125 
L 21.578125 24.515625 
Q 13.234375 26.265625 9.515625 29.90625 
Q 5.8125 33.546875 5.8125 39.890625 
Q 5.8125 47.609375 11.28125 51.796875 
Q 16.75 56 26.8125 56 
Q 31.78125 56 36.171875 55.265625 
Q 40.578125 54.546875 44.28125 53.078125 
z
" id="DejaVuSans-115"/>
    <path d="M 10.6875 12.40625 
L 21 12.40625 
L 21 0 
L 10.6875 0 
z
" id="DejaVuSans-46"/>
    <path id="DejaVuSans-32"/>
    <path d="M 2.984375 54.6875 
L 12.5 54.6875 
L 29.59375 8.796875 
L 46.6875 54.6875 
L 56.203125 54.6875 
L 35.6875 0 
L 23.484375 0 
z
" id="DejaVuSans-118"/>
    <path d="M 41.109375 46.296875 
Q 39.59375 47.171875 37.8125 47.578125 
Q 36.03125 48 33.890625 48 
Q 26.265625 48 22.1875 43.046875 
Q 18.109375 38.09375 18.109375 28.8125 
L 18.109375 0 
L 9.078125 0 
L 9.078125 54.6875 
L 18.109375 54.6875 
L 18.109375 46.1875 
Q 20.953125 51.171875 25.484375 53.578125 
Q 30.03125 56 36.53125 56 
Q 37.453125 56 38.578125 55.875 
Q 39.703125 55.765625 41.0625 55.515625 
z
" id="DejaVuSans-114"/>
    <path d="M 18.3125 70.21875 
L 18.3125 54.6875 
L 36.8125 54.6875 
L 36.8125 47.703125 
L 18.3125 47.703125 
L 18.3125 18.015625 
Q 18.3125 11.328125 20.140625 9.421875 
Q 21.96875 7.515625 27.59375 7.515625 
L 36.8125 7.515625 
L 36.8125 0 
L 27.59375 0 
Q 17.1875 0 13.234375 3.875 
Q 9.28125 7.765625 9.28125 18.015625 
L 9.28125 47.703125 
L 2.6875 47.703125 
L 2.6875 54.6875 
L 9.28125 54.6875 
L 9.28125 70.21875 
z
" id="DejaVuSans-116"/>
   </defs>
   <g transform="translate(134.789062 16.030125)scale(0.12 -0.12)">
    <use xlink:href="#DejaVuSans-108"/>
    <use x="27.783203" xlink:href="#DejaVuSans-111"/>
    <use x="88.964844" xlink:href="#DejaVuSans-103"/>
    <use x="152.441406" xlink:href="#DejaVuSans-95"/>
    <use x="202.441406" xlink:href="#DejaVuSans-108"/>
    <use x="230.224609" xlink:href="#DejaVuSans-111"/>
    <use x="291.40625" xlink:href="#DejaVuSans-115"/>
    <use x="343.505859" xlink:href="#DejaVuSans-115"/>
    <use x="395.605469" xlink:href="#DejaVuSans-46"/>
    <use x="427.392578" xlink:href="#DejaVuSans-109"/>
    <use x="524.804688" xlink:href="#DejaVuSans-101"/>
    <use x="586.328125" xlink:href="#DejaVuSans-97"/>
    <use x="647.607422" xlink:href="#DejaVuSans-110"/>
    <use x="710.986328" xlink:href="#DejaVuSans-32"/>
    <use x="742.773438" xlink:href="#DejaVuSans-111"/>
    <use x="803.955078" xlink:href="#DejaVuSans-118"/>
    <use x="863.134766" xlink:href="#DejaVuSans-101"/>
    <use x="924.658203" xlink:href="#DejaVuSans-114"/>
    <use x="965.771484" xlink:href="#DejaVuSans-32"/>
    <use x="997.558594" xlink:href="#DejaVuSans-103"/>
    <use x="1061.035156" xlink:href="#DejaVuSans-101"/>
    <use x="1122.558594" xlink:href="#DejaVuSans-110"/>
    <use x="1185.9375" xlink:href="#DejaVuSans-101"/>
    <use x="1247.460938" xlink:href="#DejaVuSans-114"/>
    <use x="1288.574219" xlink:href="#DejaVuSans-97"/>
    <use x="1349.853516" xlink:href="#DejaVuSans-116"/>
    <use x="1389.0625" xlink:href="#DejaVuSans-105"/>
    <use x="1416.845703" xlink:href="#DejaVuSans-111"/>
    <use x="1478.027344" xlink:href="#DejaVuSans-110"/>
    <use x="1541.40625" xlink:href="#DejaVuSans-115"/>
   </g>
  </g>
 </g>
 <defs>
  <clipPath id="p64e40fec1a">
   <rect height="266.112" width="357.12" x="57.6" y="41.472"/>
  </clipPath>
 </defs>
</svg>
