<?xml version="1.0" encoding="utf-8" standalone="no"?>
<!DOCTYPE svg PUBLIC "-//W3C//DTD SVG 1.1//EN"
  "http://www.w3.org/Graphics/SVG/1.1/DTD/svg11.dtd">
<!-- Created with matplotlib (https://matplotlib.org/) -->
<svg height="345.6pt" version="1.1" viewBox="0 0 460.8 345.6" width="460.8pt" xmlns="http://www.w3.org/2000/svg" xmlns:xlink="http://www.w3.org/1999/xlink">
 <defs>
  <style type="text/css">
*{stroke-linecap:butt;stroke-linejoin:round;}
  </style>
 </defs>
 <g id="figure_1">
  <g id="patch_1">
   <path d="M 0 345.6 
L 460.8 345.6 
L 460.8 0 
L 0 0 
z
" style="fill:#ffffff;"/>
  </g>
  <g id="axes_1">
   <g id="patch_2">
    <path d="M 57.6 307.584 
L 414.72 307.584 
L 414.72 41.472 
L 57.6 41.472 
z
" style="fill:#ffffff;"/>
   </g>
   <g id="PolyCollection_1">
    <path clip-path="url(#p3fc2be9e75)" d="M 73.832727 210.554935 
L 73.832727 210.554935 
L 75.464157 210.554935 
L 77.095587 210.554935 
L 78.727017 210.554935 
L 80.358447 210.554935 
L 81.989877 210.554935 
L 83.621307 210.554935 
L 85.252736 210.554935 
L 86.884166 210.554935 
L 88.515596 210.554935 
L 90.147026 210.554935 
L 91.778456 210.554935 
L 93.409886 210.554935 
L 95.041316 210.554935 
L 96.672746 210.554935 
L 98.304175 210.554935 
L 99.935605 210.554935 
L 101.567035 210.554935 
L 103.198465 210.554935 
L 104.829895 210.554935 
L 106.461325 210.554935 
L 108.092755 210.554935 
L 109.724185 210.554935 
L 111.355614 210.554935 
L 112.987044 210.554935 
L 114.618474 210.554935 
L 116.249904 210.554935 
L 117.881334 210.554935 
L 119.512764 210.554935 
L 121.144194 210.554935 
L 122.775624 210.554935 
L 124.407053 210.554935 
L 126.038483 210.554935 
L 127.669913 210.554935 
L 129.301343 210.554935 
L 130.932773 210.554935 
L 132.564203 210.554935 
L 134.195633 210.554935 
L 135.827063 210.554935 
L 137.458492 210.554935 
L 139.089922 210.554935 
L 140.721352 210.554935 
L 142.352782 210.554935 
L 143.984212 210.554935 
L 145.615642 210.554935 
L 147.247072 210.554935 
L 148.878502 210.554935 
L 150.509931 210.554935 
L 152.141361 210.554935 
L 153.772791 210.554935 
L 155.404221 210.554935 
L 157.035651 210.554935 
L 158.667081 210.554935 
L 160.298511 210.554935 
L 161.929941 210.554935 
L 163.56137 210.554935 
L 165.1928 210.554935 
L 166.82423 210.554935 
L 168.45566 210.554935 
L 170.08709 210.554935 
L 171.71852 210.554935 
L 173.34995 210.554935 
L 174.98138 210.554935 
L 176.61281 210.554935 
L 178.244239 210.554935 
L 179.875669 210.554935 
L 181.507099 210.554935 
L 183.138529 210.554935 
L 184.769959 210.554935 
L 186.401389 210.554935 
L 188.032819 210.554935 
L 189.664249 210.554935 
L 191.295678 210.554935 
L 192.927108 210.554935 
L 194.558538 210.554935 
L 196.189968 210.554935 
L 197.821398 210.554935 
L 199.452828 210.554935 
L 201.084258 210.554935 
L 202.715688 210.554935 
L 204.347117 210.554935 
L 205.978547 210.554935 
L 207.609977 210.554935 
L 209.241407 210.554935 
L 210.872837 210.554935 
L 212.504267 210.554935 
L 214.135697 210.554935 
L 215.767127 210.554935 
L 217.398556 210.554935 
L 219.029986 210.554935 
L 220.661416 210.554935 
L 222.292846 210.554935 
L 223.924276 210.554935 
L 225.555706 210.554935 
L 227.187136 210.554935 
L 228.818566 210.554935 
L 230.449995 210.554935 
L 232.081425 210.554935 
L 233.712855 210.554935 
L 235.344285 210.554935 
L 236.975715 210.554935 
L 238.607145 210.554935 
L 240.238575 210.554935 
L 241.870005 210.554935 
L 243.501434 210.554935 
L 245.132864 210.554935 
L 246.764294 210.554935 
L 248.395724 210.554935 
L 250.027154 210.554935 
L 251.658584 210.554935 
L 253.290014 210.554935 
L 254.921444 210.554935 
L 256.552873 210.554935 
L 258.184303 210.554935 
L 259.815733 210.554935 
L 261.447163 210.554935 
L 263.078593 210.554935 
L 264.710023 210.554935 
L 266.341453 210.554935 
L 267.972883 210.554935 
L 269.604312 210.554935 
L 271.235742 210.554935 
L 272.867172 210.554935 
L 274.498602 210.554935 
L 276.130032 210.554935 
L 277.761462 210.554935 
L 279.392892 210.554935 
L 281.024322 210.554935 
L 282.655751 210.554935 
L 284.287181 210.554935 
L 285.918611 210.554935 
L 287.550041 210.554935 
L 289.181471 210.554935 
L 290.812901 210.554935 
L 292.444331 210.554935 
L 294.075761 210.554935 
L 295.70719 210.554935 
L 297.33862 210.554935 
L 298.97005 197.179718 
L 300.60148 210.554935 
L 302.23291 210.554935 
L 303.86434 210.554935 
L 305.49577 210.554935 
L 307.1272 200.181237 
L 308.75863 210.554935 
L 310.390059 198.981065 
L 312.021489 209.075568 
L 313.652919 210.293871 
L 315.284349 210.554935 
L 316.915779 210.554935 
L 318.547209 210.554935 
L 320.178639 210.554935 
L 321.810069 210.554935 
L 323.441498 210.554935 
L 325.072928 200.982561 
L 326.704358 207.944288 
L 328.335788 198.72 
L 329.967218 198.807022 
L 331.598648 194.717007 
L 333.230078 192.10636 
L 334.861508 196.457439 
L 336.492937 196.283396 
L 338.124367 196.979568 
L 339.755797 209.945784 
L 341.387227 177.960131 
L 343.018657 192.628489 
L 344.650087 208.988547 
L 346.281517 208.118331 
L 347.912947 182.708029 
L 349.544376 207.074072 
L 351.175806 193.063597 
L 352.807236 207.944288 
L 354.438666 184.44846 
L 356.070096 205.681727 
L 357.701526 209.858763 
L 359.332956 193.498705 
L 360.964386 179.923338 
L 362.595815 210.206849 
L 364.227245 209.249612 
L 365.858675 182.76528 
L 367.490105 210.554935 
L 369.121535 200.634475 
L 370.752965 206.029813 
L 372.384395 210.554935 
L 374.015825 179.227165 
L 375.647254 210.554935 
L 377.278684 179.97135 
L 378.910114 207.944288 
L 380.541544 175.746302 
L 382.172974 189.321669 
L 383.804404 201.852777 
L 385.435834 188.647252 
L 387.067264 207.074072 
L 388.698693 180.619511 
L 390.330123 197.849784 
L 391.961553 186.885065 
L 393.592983 174.005871 
L 395.224413 185.753784 
L 396.855843 179.455908 
L 398.487273 191.58423 
L 398.487273 122.489094 
L 398.487273 122.489094 
L 396.855843 132.583597 
L 395.224413 147.638331 
L 393.592983 102.300086 
L 391.961553 108.739683 
L 390.330123 138.849151 
L 388.698693 125.273784 
L 387.067264 128.754647 
L 385.435834 156.253468 
L 383.804404 126.318043 
L 382.172974 95.33836 
L 380.541544 136.673612 
L 378.910114 133.540835 
L 377.278684 122.489094 
L 375.647254 128.406561 
L 374.015825 165.999885 
L 372.384395 123.533353 
L 370.752965 123.533353 
L 369.121535 127.16057 
L 367.490105 155.557295 
L 365.858675 135.629353 
L 364.227245 146.855137 
L 362.595815 144.958791 
L 360.964386 158.864115 
L 359.332956 153.816863 
L 357.701526 151.728345 
L 356.070096 127.014216 
L 354.438666 152.51154 
L 352.807236 126.318043 
L 351.175806 160.77859 
L 349.544376 146.469755 
L 347.912947 147.348259 
L 346.281517 141.758158 
L 344.650087 136.325525 
L 343.018657 160.430504 
L 341.387227 141.285755 
L 339.755797 159.116478 
L 338.124367 152.772604 
L 336.492937 143.374273 
L 334.861508 140.908662 
L 333.230078 140.184176 
L 331.598648 151.032173 
L 329.967218 162.519022 
L 328.335788 141.981928 
L 326.704358 144.070446 
L 325.072928 149.424345 
L 323.441498 149.99444 
L 321.810069 166.347971 
L 320.178639 166.628783 
L 318.547209 163.563281 
L 316.915779 176.094388 
L 315.284349 168.784576 
L 313.652919 166.253039 
L 312.021489 176.094388 
L 310.390059 178.182906 
L 308.75863 174.599793 
L 307.1272 176.094388 
L 305.49577 169.132662 
L 303.86434 182.328298 
L 302.23291 194.542964 
L 300.60148 181.124236 
L 298.97005 190.539971 
L 297.33862 179.022043 
L 295.70719 180.271424 
L 294.075761 186.885065 
L 292.444331 192.10636 
L 290.812901 196.283396 
L 289.181471 203.854273 
L 287.550041 208.814504 
L 285.918611 208.814504 
L 284.287181 208.814504 
L 282.655751 190.365928 
L 281.024322 193.498705 
L 279.392892 169.684914 
L 277.761462 192.10636 
L 276.130032 189.669755 
L 274.498602 188.625496 
L 272.867172 176.790561 
L 271.235742 193.498705 
L 269.604312 157.645813 
L 267.972883 191.758273 
L 266.341453 210.554935 
L 264.710023 176.790561 
L 263.078593 210.554935 
L 261.447163 210.554935 
L 259.815733 210.554935 
L 258.184303 210.554935 
L 256.552873 210.554935 
L 254.921444 210.554935 
L 253.290014 210.554935 
L 251.658584 210.554935 
L 250.027154 210.554935 
L 248.395724 210.554935 
L 246.764294 210.554935 
L 245.132864 210.554935 
L 243.501434 210.554935 
L 241.870005 210.554935 
L 240.238575 210.554935 
L 238.607145 210.554935 
L 236.975715 210.554935 
L 235.344285 210.554935 
L 233.712855 210.554935 
L 232.081425 210.554935 
L 230.449995 210.554935 
L 228.818566 210.554935 
L 227.187136 210.554935 
L 225.555706 210.554935 
L 223.924276 210.554935 
L 222.292846 210.554935 
L 220.661416 210.554935 
L 219.029986 210.554935 
L 217.398556 210.554935 
L 215.767127 210.554935 
L 214.135697 210.554935 
L 212.504267 210.554935 
L 210.872837 210.554935 
L 209.241407 210.554935 
L 207.609977 210.554935 
L 205.978547 210.554935 
L 204.347117 210.554935 
L 202.715688 210.554935 
L 201.084258 210.554935 
L 199.452828 210.554935 
L 197.821398 210.554935 
L 196.189968 210.554935 
L 194.558538 210.554935 
L 192.927108 210.554935 
L 191.295678 210.554935 
L 189.664249 210.554935 
L 188.032819 210.554935 
L 186.401389 210.554935 
L 184.769959 210.554935 
L 183.138529 210.554935 
L 181.507099 210.554935 
L 179.875669 210.554935 
L 178.244239 210.554935 
L 176.61281 210.554935 
L 174.98138 210.554935 
L 173.34995 210.554935 
L 171.71852 210.554935 
L 170.08709 210.554935 
L 168.45566 210.554935 
L 166.82423 210.554935 
L 165.1928 210.554935 
L 163.56137 210.554935 
L 161.929941 210.554935 
L 160.298511 210.554935 
L 158.667081 210.554935 
L 157.035651 210.554935 
L 155.404221 210.554935 
L 153.772791 210.554935 
L 152.141361 210.554935 
L 150.509931 210.554935 
L 148.878502 210.554935 
L 147.247072 210.554935 
L 145.615642 210.554935 
L 143.984212 210.554935 
L 142.352782 210.554935 
L 140.721352 210.554935 
L 139.089922 210.554935 
L 137.458492 210.554935 
L 135.827063 210.554935 
L 134.195633 210.554935 
L 132.564203 210.554935 
L 130.932773 210.554935 
L 129.301343 210.554935 
L 127.669913 210.554935 
L 126.038483 210.554935 
L 124.407053 210.554935 
L 122.775624 210.554935 
L 121.144194 210.554935 
L 119.512764 210.554935 
L 117.881334 210.554935 
L 116.249904 210.554935 
L 114.618474 210.554935 
L 112.987044 210.554935 
L 111.355614 210.554935 
L 109.724185 210.554935 
L 108.092755 210.554935 
L 106.461325 210.554935 
L 104.829895 210.554935 
L 103.198465 210.554935 
L 101.567035 210.554935 
L 99.935605 210.554935 
L 98.304175 210.554935 
L 96.672746 210.554935 
L 95.041316 210.554935 
L 93.409886 210.554935 
L 91.778456 210.554935 
L 90.147026 210.554935 
L 88.515596 210.554935 
L 86.884166 210.554935 
L 85.252736 210.554935 
L 83.621307 210.554935 
L 81.989877 210.554935 
L 80.358447 210.554935 
L 78.727017 210.554935 
L 77.095587 210.554935 
L 75.464157 210.554935 
L 73.832727 210.554935 
z
" style="fill:#1f77b4;fill-opacity:0.2;"/>
   </g>
   <g id="PolyCollection_2">
    <path clip-path="url(#p3fc2be9e75)" d="M 73.832727 210.554935 
L 73.832727 210.554935 
L 75.464157 210.554935 
L 77.095587 210.554935 
L 78.727017 210.554935 
L 80.358447 210.554935 
L 81.989877 210.554935 
L 83.621307 210.554935 
L 85.252736 210.554935 
L 86.884166 210.554935 
L 88.515596 210.554935 
L 90.147026 210.554935 
L 91.778456 210.554935 
L 93.409886 210.554935 
L 95.041316 210.554935 
L 96.672746 210.554935 
L 98.304175 210.554935 
L 99.935605 210.554935 
L 101.567035 210.554935 
L 103.198465 210.554935 
L 104.829895 210.554935 
L 106.461325 210.554935 
L 108.092755 210.554935 
L 109.724185 210.554935 
L 111.355614 210.554935 
L 112.987044 210.554935 
L 114.618474 210.554935 
L 116.249904 210.554935 
L 117.881334 210.554935 
L 119.512764 210.554935 
L 121.144194 210.554935 
L 122.775624 210.554935 
L 124.407053 210.554935 
L 126.038483 210.554935 
L 127.669913 210.554935 
L 129.301343 210.554935 
L 130.932773 210.554935 
L 132.564203 210.554935 
L 134.195633 210.554935 
L 135.827063 210.554935 
L 137.458492 210.554935 
L 139.089922 210.554935 
L 140.721352 210.554935 
L 142.352782 210.554935 
L 143.984212 210.554935 
L 145.615642 210.554935 
L 147.247072 210.554935 
L 148.878502 210.554935 
L 150.509931 210.554935 
L 152.141361 210.554935 
L 153.772791 210.554935 
L 155.404221 210.554935 
L 157.035651 210.554935 
L 158.667081 210.554935 
L 160.298511 210.554935 
L 161.929941 210.554935 
L 163.56137 210.554935 
L 165.1928 210.554935 
L 166.82423 210.554935 
L 168.45566 210.554935 
L 170.08709 210.554935 
L 171.71852 210.554935 
L 173.34995 210.554935 
L 174.98138 210.554935 
L 176.61281 210.554935 
L 178.244239 210.554935 
L 179.875669 210.554935 
L 181.507099 210.554935 
L 183.138529 210.554935 
L 184.769959 210.554935 
L 186.401389 210.554935 
L 188.032819 210.554935 
L 189.664249 210.554935 
L 191.295678 210.554935 
L 192.927108 210.554935 
L 194.558538 210.554935 
L 196.189968 210.554935 
L 197.821398 210.554935 
L 199.452828 210.554935 
L 201.084258 210.554935 
L 202.715688 210.554935 
L 204.347117 210.554935 
L 205.978547 210.554935 
L 207.609977 210.554935 
L 209.241407 210.554935 
L 210.872837 210.554935 
L 212.504267 210.554935 
L 214.135697 210.554935 
L 215.767127 210.554935 
L 217.398556 210.554935 
L 219.029986 210.554935 
L 220.661416 210.554935 
L 222.292846 210.554935 
L 223.924276 210.554935 
L 225.555706 210.554935 
L 227.187136 210.554935 
L 228.818566 210.554935 
L 230.449995 210.554935 
L 232.081425 210.554935 
L 233.712855 210.554935 
L 235.344285 210.554935 
L 236.975715 210.554935 
L 238.607145 210.554935 
L 240.238575 210.554935 
L 241.870005 210.554935 
L 243.501434 210.554935 
L 245.132864 210.554935 
L 246.764294 210.554935 
L 248.395724 210.554935 
L 250.027154 210.554935 
L 251.658584 284.697324 
L 253.290014 278.083683 
L 254.921444 210.554935 
L 256.552873 294.791827 
L 258.184303 210.554935 
L 259.815733 210.554935 
L 261.447163 210.554935 
L 263.078593 292.703309 
L 264.710023 284.697324 
L 266.341453 210.554935 
L 267.972883 239.446101 
L 269.604312 287.830101 
L 271.235742 231.788201 
L 272.867172 264.856403 
L 274.498602 265.204489 
L 276.130032 277.735597 
L 277.761462 234.224806 
L 279.392892 294.095655 
L 281.024322 229.351597 
L 282.655751 290.962878 
L 284.287181 292.355223 
L 285.918611 231.788201 
L 287.550041 229.351597 
L 289.181471 289.918619 
L 290.812901 234.572892 
L 292.444331 210.554935 
L 294.075761 214.035799 
L 295.70719 240.142273 
L 297.33862 210.554935 
L 298.97005 273.558561 
L 300.60148 278.779856 
L 302.23291 210.554935 
L 303.86434 216.472403 
L 305.49577 210.554935 
L 307.1272 210.554935 
L 308.75863 210.554935 
L 310.390059 210.554935 
L 312.021489 210.554935 
L 313.652919 245.363568 
L 315.284349 210.554935 
L 316.915779 262.767885 
L 318.547209 248.496345 
L 320.178639 250.584863 
L 321.810069 216.124317 
L 323.441498 279.476029 
L 325.072928 230.04777 
L 326.704358 286.089669 
L 328.335788 280.172201 
L 329.967218 210.554935 
L 331.598648 263.115971 
L 333.230078 210.554935 
L 334.861508 270.773871 
L 336.492937 212.643453 
L 338.124367 271.121957 
L 339.755797 210.554935 
L 341.387227 210.554935 
L 343.018657 215.080058 
L 344.650087 279.476029 
L 346.281517 210.554935 
L 347.912947 277.735597 
L 349.544376 228.307338 
L 351.175806 210.554935 
L 352.807236 227.263079 
L 354.438666 211.251108 
L 356.070096 218.560921 
L 357.701526 243.971223 
L 359.332956 263.115971 
L 360.964386 210.554935 
L 362.595815 295.488 
L 364.227245 287.830101 
L 365.858675 232.83246 
L 367.490105 210.554935 
L 369.121535 210.554935 
L 370.752965 210.554935 
L 372.384395 210.554935 
L 374.015825 210.554935 
L 375.647254 210.554935 
L 377.278684 227.611165 
L 378.910114 210.554935 
L 380.541544 210.554935 
L 382.172974 210.554935 
L 383.804404 245.711655 
L 385.435834 224.478388 
L 387.067264 210.903022 
L 388.698693 223.434129 
L 390.330123 210.554935 
L 391.961553 210.554935 
L 393.592983 217.516662 
L 395.224413 224.826475 
L 396.855843 243.27505 
L 398.487273 229.351597 
L 398.487273 87.597583 
L 398.487273 87.597583 
L 396.855843 69.579971 
L 395.224413 93.912863 
L 393.592983 83.437122 
L 391.961553 75.149353 
L 390.330123 90.978993 
L 388.698693 90.465151 
L 387.067264 76.541698 
L 385.435834 88.90705 
L 383.804404 53.568 
L 382.172974 83.834106 
L 380.541544 107.173295 
L 378.910114 86.288115 
L 377.278684 90.117065 
L 375.647254 82.807252 
L 374.015825 114.135022 
L 372.384395 107.869468 
L 370.752965 113.212593 
L 369.121535 119.00823 
L 367.490105 123.533353 
L 365.858675 123.533353 
L 364.227245 127.362302 
L 362.595815 123.533353 
L 360.964386 128.058475 
L 359.332956 131.191252 
L 357.701526 123.533353 
L 356.070096 123.533353 
L 354.438666 123.533353 
L 352.807236 123.533353 
L 351.175806 123.91459 
L 349.544376 123.533353 
L 347.912947 123.881439 
L 346.281517 123.533353 
L 344.650087 123.533353 
L 343.018657 124.229525 
L 341.387227 124.577612 
L 339.755797 117.963971 
L 338.124367 123.533353 
L 336.492937 117.963971 
L 334.861508 125.621871 
L 333.230078 123.881439 
L 331.598648 125.621871 
L 329.967218 125.273784 
L 328.335788 127.362302 
L 326.704358 123.881439 
L 325.072928 141.929715 
L 323.441498 124.925698 
L 321.810069 137.061253 
L 320.178639 121.444835 
L 318.547209 129.729289 
L 316.915779 141.981928 
L 315.284349 124.925698 
L 313.652919 140.573007 
L 312.021489 139.963027 
L 310.390059 158.811902 
L 308.75863 136.412547 
L 307.1272 167.773468 
L 305.49577 167.357422 
L 303.86434 169.21554 
L 302.23291 168.714958 
L 300.60148 165.999885 
L 298.97005 149.291741 
L 297.33862 173.657784 
L 295.70719 151.380259 
L 294.075761 174.353957 
L 292.444331 163.563281 
L 290.812901 138.501065 
L 289.181471 149.639827 
L 287.550041 179.42391 
L 285.918611 178.784147 
L 284.287181 141.024691 
L 282.655751 163.563281 
L 281.024322 171.014906 
L 279.392892 145.810878 
L 277.761462 163.493663 
L 276.130032 170.437986 
L 274.498602 169.753164 
L 272.867172 156.253468 
L 271.235742 170.094043 
L 269.604312 144.766619 
L 267.972883 169.344541 
L 266.341453 164.259453 
L 264.710023 123.533353 
L 263.078593 151.728345 
L 261.447163 175.989963 
L 259.815733 191.758273 
L 258.184303 176.094388 
L 256.552873 210.554935 
L 254.921444 191.758273 
L 253.290014 194.542964 
L 251.658584 181.66377 
L 250.027154 210.554935 
L 248.395724 210.554935 
L 246.764294 210.554935 
L 245.132864 210.554935 
L 243.501434 210.554935 
L 241.870005 210.554935 
L 240.238575 210.554935 
L 238.607145 210.554935 
L 236.975715 210.554935 
L 235.344285 210.554935 
L 233.712855 210.554935 
L 232.081425 210.554935 
L 230.449995 210.554935 
L 228.818566 210.554935 
L 227.187136 210.554935 
L 225.555706 210.554935 
L 223.924276 210.554935 
L 222.292846 210.554935 
L 220.661416 210.554935 
L 219.029986 210.554935 
L 217.398556 210.554935 
L 215.767127 210.554935 
L 214.135697 210.554935 
L 212.504267 210.554935 
L 210.872837 210.554935 
L 209.241407 210.554935 
L 207.609977 210.554935 
L 205.978547 210.554935 
L 204.347117 210.554935 
L 202.715688 210.554935 
L 201.084258 210.554935 
L 199.452828 210.554935 
L 197.821398 210.554935 
L 196.189968 210.554935 
L 194.558538 210.554935 
L 192.927108 210.554935 
L 191.295678 210.554935 
L 189.664249 210.554935 
L 188.032819 210.554935 
L 186.401389 210.554935 
L 184.769959 210.554935 
L 183.138529 210.554935 
L 181.507099 210.554935 
L 179.875669 210.554935 
L 178.244239 210.554935 
L 176.61281 210.554935 
L 174.98138 210.554935 
L 173.34995 210.554935 
L 171.71852 210.554935 
L 170.08709 210.554935 
L 168.45566 210.554935 
L 166.82423 210.554935 
L 165.1928 210.554935 
L 163.56137 210.554935 
L 161.929941 210.554935 
L 160.298511 210.554935 
L 158.667081 210.554935 
L 157.035651 210.554935 
L 155.404221 210.554935 
L 153.772791 210.554935 
L 152.141361 210.554935 
L 150.509931 210.554935 
L 148.878502 210.554935 
L 147.247072 210.554935 
L 145.615642 210.554935 
L 143.984212 210.554935 
L 142.352782 210.554935 
L 140.721352 210.554935 
L 139.089922 210.554935 
L 137.458492 210.554935 
L 135.827063 210.554935 
L 134.195633 210.554935 
L 132.564203 210.554935 
L 130.932773 210.554935 
L 129.301343 210.554935 
L 127.669913 210.554935 
L 126.038483 210.554935 
L 124.407053 210.554935 
L 122.775624 210.554935 
L 121.144194 210.554935 
L 119.512764 210.554935 
L 117.881334 210.554935 
L 116.249904 210.554935 
L 114.618474 210.554935 
L 112.987044 210.554935 
L 111.355614 210.554935 
L 109.724185 210.554935 
L 108.092755 210.554935 
L 106.461325 210.554935 
L 104.829895 210.554935 
L 103.198465 210.554935 
L 101.567035 210.554935 
L 99.935605 210.554935 
L 98.304175 210.554935 
L 96.672746 210.554935 
L 95.041316 210.554935 
L 93.409886 210.554935 
L 91.778456 210.554935 
L 90.147026 210.554935 
L 88.515596 210.554935 
L 86.884166 210.554935 
L 85.252736 210.554935 
L 83.621307 210.554935 
L 81.989877 210.554935 
L 80.358447 210.554935 
L 78.727017 210.554935 
L 77.095587 210.554935 
L 75.464157 210.554935 
L 73.832727 210.554935 
z
" style="fill:#1f77b4;fill-opacity:0.1;"/>
   </g>
   <g id="matplotlib.axis_1">
    <g id="xtick_1">
     <g id="line2d_1">
      <defs>
       <path d="M 0 0 
L 0 3.5 
" id="m256b9dd409" style="stroke:#000000;stroke-width:0.8;"/>
      </defs>
      <g>
       <use style="stroke:#000000;stroke-width:0.8;" x="73.832727" xlink:href="#m256b9dd409" y="307.584"/>
      </g>
     </g>
     <g id="text_1">
      <!-- 0 -->
      <defs>
       <path d="M 31.78125 66.40625 
Q 24.171875 66.40625 20.328125 58.90625 
Q 16.5 51.421875 16.5 36.375 
Q 16.5 21.390625 20.328125 13.890625 
Q 24.171875 6.390625 31.78125 6.390625 
Q 39.453125 6.390625 43.28125 13.890625 
Q 47.125 21.390625 47.125 36.375 
Q 47.125 51.421875 43.28125 58.90625 
Q 39.453125 66.40625 31.78125 66.40625 
z
M 31.78125 74.21875 
Q 44.046875 74.21875 50.515625 64.515625 
Q 56.984375 54.828125 56.984375 36.375 
Q 56.984375 17.96875 50.515625 8.265625 
Q 44.046875 -1.421875 31.78125 -1.421875 
Q 19.53125 -1.421875 13.0625 8.265625 
Q 6.59375 17.96875 6.59375 36.375 
Q 6.59375 54.828125 13.0625 64.515625 
Q 19.53125 74.21875 31.78125 74.21875 
z
" id="DejaVuSans-48"/>
      </defs>
      <g transform="translate(70.651477 322.182437)scale(0.1 -0.1)">
       <use xlink:href="#DejaVuSans-48"/>
      </g>
     </g>
    </g>
    <g id="xtick_2">
     <g id="line2d_2">
      <g>
       <use style="stroke:#000000;stroke-width:0.8;" x="114.618474" xlink:href="#m256b9dd409" y="307.584"/>
      </g>
     </g>
     <g id="text_2">
      <!-- 25 -->
      <defs>
       <path d="M 19.1875 8.296875 
L 53.609375 8.296875 
L 53.609375 0 
L 7.328125 0 
L 7.328125 8.296875 
Q 12.9375 14.109375 22.625 23.890625 
Q 32.328125 33.6875 34.8125 36.53125 
Q 39.546875 41.84375 41.421875 45.53125 
Q 43.3125 49.21875 43.3125 52.78125 
Q 43.3125 58.59375 39.234375 62.25 
Q 35.15625 65.921875 28.609375 65.921875 
Q 23.96875 65.921875 18.8125 64.3125 
Q 13.671875 62.703125 7.8125 59.421875 
L 7.8125 69.390625 
Q 13.765625 71.78125 18.9375 73 
Q 24.125 74.21875 28.421875 74.21875 
Q 39.75 74.21875 46.484375 68.546875 
Q 53.21875 62.890625 53.21875 53.421875 
Q 53.21875 48.921875 51.53125 44.890625 
Q 49.859375 40.875 45.40625 35.40625 
Q 44.1875 33.984375 37.640625 27.21875 
Q 31.109375 20.453125 19.1875 8.296875 
z
" id="DejaVuSans-50"/>
       <path d="M 10.796875 72.90625 
L 49.515625 72.90625 
L 49.515625 64.59375 
L 19.828125 64.59375 
L 19.828125 46.734375 
Q 21.96875 47.46875 24.109375 47.828125 
Q 26.265625 48.1875 28.421875 48.1875 
Q 40.625 48.1875 47.75 41.5 
Q 54.890625 34.8125 54.890625 23.390625 
Q 54.890625 11.625 47.5625 5.09375 
Q 40.234375 -1.421875 26.90625 -1.421875 
Q 22.3125 -1.421875 17.546875 -0.640625 
Q 12.796875 0.140625 7.71875 1.703125 
L 7.71875 11.625 
Q 12.109375 9.234375 16.796875 8.0625 
Q 21.484375 6.890625 26.703125 6.890625 
Q 35.15625 6.890625 40.078125 11.328125 
Q 45.015625 15.765625 45.015625 23.390625 
Q 45.015625 31 40.078125 35.4375 
Q 35.15625 39.890625 26.703125 39.890625 
Q 22.75 39.890625 18.8125 39.015625 
Q 14.890625 38.140625 10.796875 36.28125 
z
" id="DejaVuSans-53"/>
      </defs>
      <g transform="translate(108.255974 322.182437)scale(0.1 -0.1)">
       <use xlink:href="#DejaVuSans-50"/>
       <use x="63.623047" xlink:href="#DejaVuSans-53"/>
      </g>
     </g>
    </g>
    <g id="xtick_3">
     <g id="line2d_3">
      <g>
       <use style="stroke:#000000;stroke-width:0.8;" x="155.404221" xlink:href="#m256b9dd409" y="307.584"/>
      </g>
     </g>
     <g id="text_3">
      <!-- 50 -->
      <g transform="translate(149.041721 322.182437)scale(0.1 -0.1)">
       <use xlink:href="#DejaVuSans-53"/>
       <use x="63.623047" xlink:href="#DejaVuSans-48"/>
      </g>
     </g>
    </g>
    <g id="xtick_4">
     <g id="line2d_4">
      <g>
       <use style="stroke:#000000;stroke-width:0.8;" x="196.189968" xlink:href="#m256b9dd409" y="307.584"/>
      </g>
     </g>
     <g id="text_4">
      <!-- 75 -->
      <defs>
       <path d="M 8.203125 72.90625 
L 55.078125 72.90625 
L 55.078125 68.703125 
L 28.609375 0 
L 18.3125 0 
L 43.21875 64.59375 
L 8.203125 64.59375 
z
" id="DejaVuSans-55"/>
      </defs>
      <g transform="translate(189.827468 322.182437)scale(0.1 -0.1)">
       <use xlink:href="#DejaVuSans-55"/>
       <use x="63.623047" xlink:href="#DejaVuSans-53"/>
      </g>
     </g>
    </g>
    <g id="xtick_5">
     <g id="line2d_5">
      <g>
       <use style="stroke:#000000;stroke-width:0.8;" x="236.975715" xlink:href="#m256b9dd409" y="307.584"/>
      </g>
     </g>
     <g id="text_5">
      <!-- 100 -->
      <defs>
       <path d="M 12.40625 8.296875 
L 28.515625 8.296875 
L 28.515625 63.921875 
L 10.984375 60.40625 
L 10.984375 69.390625 
L 28.421875 72.90625 
L 38.28125 72.90625 
L 38.28125 8.296875 
L 54.390625 8.296875 
L 54.390625 0 
L 12.40625 0 
z
" id="DejaVuSans-49"/>
      </defs>
      <g transform="translate(227.431965 322.182437)scale(0.1 -0.1)">
       <use xlink:href="#DejaVuSans-49"/>
       <use x="63.623047" xlink:href="#DejaVuSans-48"/>
       <use x="127.246094" xlink:href="#DejaVuSans-48"/>
      </g>
     </g>
    </g>
    <g id="xtick_6">
     <g id="line2d_6">
      <g>
       <use style="stroke:#000000;stroke-width:0.8;" x="277.761462" xlink:href="#m256b9dd409" y="307.584"/>
      </g>
     </g>
     <g id="text_6">
      <!-- 125 -->
      <g transform="translate(268.217712 322.182437)scale(0.1 -0.1)">
       <use xlink:href="#DejaVuSans-49"/>
       <use x="63.623047" xlink:href="#DejaVuSans-50"/>
       <use x="127.246094" xlink:href="#DejaVuSans-53"/>
      </g>
     </g>
    </g>
    <g id="xtick_7">
     <g id="line2d_7">
      <g>
       <use style="stroke:#000000;stroke-width:0.8;" x="318.547209" xlink:href="#m256b9dd409" y="307.584"/>
      </g>
     </g>
     <g id="text_7">
      <!-- 150 -->
      <g transform="translate(309.003459 322.182437)scale(0.1 -0.1)">
       <use xlink:href="#DejaVuSans-49"/>
       <use x="63.623047" xlink:href="#DejaVuSans-53"/>
       <use x="127.246094" xlink:href="#DejaVuSans-48"/>
      </g>
     </g>
    </g>
    <g id="xtick_8">
     <g id="line2d_8">
      <g>
       <use style="stroke:#000000;stroke-width:0.8;" x="359.332956" xlink:href="#m256b9dd409" y="307.584"/>
      </g>
     </g>
     <g id="text_8">
      <!-- 175 -->
      <g transform="translate(349.789206 322.182437)scale(0.1 -0.1)">
       <use xlink:href="#DejaVuSans-49"/>
       <use x="63.623047" xlink:href="#DejaVuSans-55"/>
       <use x="127.246094" xlink:href="#DejaVuSans-53"/>
      </g>
     </g>
    </g>
    <g id="xtick_9">
     <g id="line2d_9">
      <g>
       <use style="stroke:#000000;stroke-width:0.8;" x="400.118703" xlink:href="#m256b9dd409" y="307.584"/>
      </g>
     </g>
     <g id="text_9">
      <!-- 200 -->
      <g transform="translate(390.574953 322.182437)scale(0.1 -0.1)">
       <use xlink:href="#DejaVuSans-50"/>
       <use x="63.623047" xlink:href="#DejaVuSans-48"/>
       <use x="127.246094" xlink:href="#DejaVuSans-48"/>
      </g>
     </g>
    </g>
   </g>
   <g id="matplotlib.axis_2">
    <g id="ytick_1">
     <g id="line2d_10">
      <defs>
       <path d="M 0 0 
L -3.5 0 
" id="m94423c39b0" style="stroke:#000000;stroke-width:0.8;"/>
      </defs>
      <g>
       <use style="stroke:#000000;stroke-width:0.8;" x="57.6" xlink:href="#m94423c39b0" y="280.172201"/>
      </g>
     </g>
     <g id="text_10">
      <!-- −0.4 -->
      <defs>
       <path d="M 10.59375 35.5 
L 73.1875 35.5 
L 73.1875 27.203125 
L 10.59375 27.203125 
z
" id="DejaVuSans-8722"/>
       <path d="M 10.6875 12.40625 
L 21 12.40625 
L 21 0 
L 10.6875 0 
z
" id="DejaVuSans-46"/>
       <path d="M 37.796875 64.3125 
L 12.890625 25.390625 
L 37.796875 25.390625 
z
M 35.203125 72.90625 
L 47.609375 72.90625 
L 47.609375 25.390625 
L 58.015625 25.390625 
L 58.015625 17.1875 
L 47.609375 17.1875 
L 47.609375 0 
L 37.796875 0 
L 37.796875 17.1875 
L 4.890625 17.1875 
L 4.890625 26.703125 
z
" id="DejaVuSans-52"/>
      </defs>
      <g transform="translate(26.317187 283.97142)scale(0.1 -0.1)">
       <use xlink:href="#DejaVuSans-8722"/>
       <use x="83.789062" xlink:href="#DejaVuSans-48"/>
       <use x="147.412109" xlink:href="#DejaVuSans-46"/>
       <use x="179.199219" xlink:href="#DejaVuSans-52"/>
      </g>
     </g>
    </g>
    <g id="ytick_2">
     <g id="line2d_11">
      <g>
       <use style="stroke:#000000;stroke-width:0.8;" x="57.6" xlink:href="#m94423c39b0" y="245.363568"/>
      </g>
     </g>
     <g id="text_11">
      <!-- −0.2 -->
      <g transform="translate(26.317187 249.162787)scale(0.1 -0.1)">
       <use xlink:href="#DejaVuSans-8722"/>
       <use x="83.789062" xlink:href="#DejaVuSans-48"/>
       <use x="147.412109" xlink:href="#DejaVuSans-46"/>
       <use x="179.199219" xlink:href="#DejaVuSans-50"/>
      </g>
     </g>
    </g>
    <g id="ytick_3">
     <g id="line2d_12">
      <g>
       <use style="stroke:#000000;stroke-width:0.8;" x="57.6" xlink:href="#m94423c39b0" y="210.554935"/>
      </g>
     </g>
     <g id="text_12">
      <!-- 0.0 -->
      <g transform="translate(34.696875 214.354154)scale(0.1 -0.1)">
       <use xlink:href="#DejaVuSans-48"/>
       <use x="63.623047" xlink:href="#DejaVuSans-46"/>
       <use x="95.410156" xlink:href="#DejaVuSans-48"/>
      </g>
     </g>
    </g>
    <g id="ytick_4">
     <g id="line2d_13">
      <g>
       <use style="stroke:#000000;stroke-width:0.8;" x="57.6" xlink:href="#m94423c39b0" y="175.746302"/>
      </g>
     </g>
     <g id="text_13">
      <!-- 0.2 -->
      <g transform="translate(34.696875 179.545521)scale(0.1 -0.1)">
       <use xlink:href="#DejaVuSans-48"/>
       <use x="63.623047" xlink:href="#DejaVuSans-46"/>
       <use x="95.410156" xlink:href="#DejaVuSans-50"/>
      </g>
     </g>
    </g>
    <g id="ytick_5">
     <g id="line2d_14">
      <g>
       <use style="stroke:#000000;stroke-width:0.8;" x="57.6" xlink:href="#m94423c39b0" y="140.937669"/>
      </g>
     </g>
     <g id="text_14">
      <!-- 0.4 -->
      <g transform="translate(34.696875 144.736888)scale(0.1 -0.1)">
       <use xlink:href="#DejaVuSans-48"/>
       <use x="63.623047" xlink:href="#DejaVuSans-46"/>
       <use x="95.410156" xlink:href="#DejaVuSans-52"/>
      </g>
     </g>
    </g>
    <g id="ytick_6">
     <g id="line2d_15">
      <g>
       <use style="stroke:#000000;stroke-width:0.8;" x="57.6" xlink:href="#m94423c39b0" y="106.129036"/>
      </g>
     </g>
     <g id="text_15">
      <!-- 0.6 -->
      <defs>
       <path d="M 33.015625 40.375 
Q 26.375 40.375 22.484375 35.828125 
Q 18.609375 31.296875 18.609375 23.390625 
Q 18.609375 15.53125 22.484375 10.953125 
Q 26.375 6.390625 33.015625 6.390625 
Q 39.65625 6.390625 43.53125 10.953125 
Q 47.40625 15.53125 47.40625 23.390625 
Q 47.40625 31.296875 43.53125 35.828125 
Q 39.65625 40.375 33.015625 40.375 
z
M 52.59375 71.296875 
L 52.59375 62.3125 
Q 48.875 64.0625 45.09375 64.984375 
Q 41.3125 65.921875 37.59375 65.921875 
Q 27.828125 65.921875 22.671875 59.328125 
Q 17.53125 52.734375 16.796875 39.40625 
Q 19.671875 43.65625 24.015625 45.921875 
Q 28.375 48.1875 33.59375 48.1875 
Q 44.578125 48.1875 50.953125 41.515625 
Q 57.328125 34.859375 57.328125 23.390625 
Q 57.328125 12.15625 50.6875 5.359375 
Q 44.046875 -1.421875 33.015625 -1.421875 
Q 20.359375 -1.421875 13.671875 8.265625 
Q 6.984375 17.96875 6.984375 36.375 
Q 6.984375 53.65625 15.1875 63.9375 
Q 23.390625 74.21875 37.203125 74.21875 
Q 40.921875 74.21875 44.703125 73.484375 
Q 48.484375 72.75 52.59375 71.296875 
z
" id="DejaVuSans-54"/>
      </defs>
      <g transform="translate(34.696875 109.928255)scale(0.1 -0.1)">
       <use xlink:href="#DejaVuSans-48"/>
       <use x="63.623047" xlink:href="#DejaVuSans-46"/>
       <use x="95.410156" xlink:href="#DejaVuSans-54"/>
      </g>
     </g>
    </g>
    <g id="ytick_7">
     <g id="line2d_16">
      <g>
       <use style="stroke:#000000;stroke-width:0.8;" x="57.6" xlink:href="#m94423c39b0" y="71.320403"/>
      </g>
     </g>
     <g id="text_16">
      <!-- 0.8 -->
      <defs>
       <path d="M 31.78125 34.625 
Q 24.75 34.625 20.71875 30.859375 
Q 16.703125 27.09375 16.703125 20.515625 
Q 16.703125 13.921875 20.71875 10.15625 
Q 24.75 6.390625 31.78125 6.390625 
Q 38.8125 6.390625 42.859375 10.171875 
Q 46.921875 13.96875 46.921875 20.515625 
Q 46.921875 27.09375 42.890625 30.859375 
Q 38.875 34.625 31.78125 34.625 
z
M 21.921875 38.8125 
Q 15.578125 40.375 12.03125 44.71875 
Q 8.5 49.078125 8.5 55.328125 
Q 8.5 64.0625 14.71875 69.140625 
Q 20.953125 74.21875 31.78125 74.21875 
Q 42.671875 74.21875 48.875 69.140625 
Q 55.078125 64.0625 55.078125 55.328125 
Q 55.078125 49.078125 51.53125 44.71875 
Q 48 40.375 41.703125 38.8125 
Q 48.828125 37.15625 52.796875 32.3125 
Q 56.78125 27.484375 56.78125 20.515625 
Q 56.78125 9.90625 50.3125 4.234375 
Q 43.84375 -1.421875 31.78125 -1.421875 
Q 19.734375 -1.421875 13.25 4.234375 
Q 6.78125 9.90625 6.78125 20.515625 
Q 6.78125 27.484375 10.78125 32.3125 
Q 14.796875 37.15625 21.921875 38.8125 
z
M 18.3125 54.390625 
Q 18.3125 48.734375 21.84375 45.5625 
Q 25.390625 42.390625 31.78125 42.390625 
Q 38.140625 42.390625 41.71875 45.5625 
Q 45.3125 48.734375 45.3125 54.390625 
Q 45.3125 60.0625 41.71875 63.234375 
Q 38.140625 66.40625 31.78125 66.40625 
Q 25.390625 66.40625 21.84375 63.234375 
Q 18.3125 60.0625 18.3125 54.390625 
z
" id="DejaVuSans-56"/>
      </defs>
      <g transform="translate(34.696875 75.119622)scale(0.1 -0.1)">
       <use xlink:href="#DejaVuSans-48"/>
       <use x="63.623047" xlink:href="#DejaVuSans-46"/>
       <use x="95.410156" xlink:href="#DejaVuSans-56"/>
      </g>
     </g>
    </g>
   </g>
   <g id="line2d_17">
    <path clip-path="url(#p3fc2be9e75)" d="M 73.832727 210.554935 
L 295.70719 210.554935 
L 297.33862 196.614078 
L 298.97005 193.150619 
L 300.60148 193.498705 
L 302.23291 203.087655 
L 303.86434 210.554935 
L 305.49577 207.074072 
L 307.1272 193.324662 
L 308.75863 195.239137 
L 310.390059 193.498705 
L 312.021489 186.885065 
L 315.284349 175.746302 
L 316.915779 191.410187 
L 318.547209 176.917138 
L 320.178639 189.321669 
L 321.810069 176.993612 
L 323.441498 189.321669 
L 325.072928 177.520204 
L 328.335788 166.696058 
L 329.967218 170.191839 
L 331.598648 174.353957 
L 333.230078 160.77859 
L 334.861508 175.862331 
L 336.492937 166.347971 
L 338.124367 174.353957 
L 341.387227 166.696058 
L 343.018657 175.398216 
L 344.650087 191.758273 
L 346.281517 164.60754 
L 347.912947 168.088403 
L 349.544376 166.696058 
L 351.175806 176.094388 
L 352.807236 161.474763 
L 354.438666 165.273444 
L 356.070096 154.16495 
L 357.701526 169.881804 
L 359.332956 177.57859 
L 360.964386 161.822849 
L 362.595815 180.924086 
L 364.227245 178.530993 
L 365.858675 154.338993 
L 367.490105 177.019789 
L 369.121535 154.861122 
L 370.752965 169.132662 
L 372.384395 167.09624 
L 374.015825 172.265439 
L 375.647254 181.315683 
L 377.278684 168.820584 
L 378.910114 166.696058 
L 380.541544 154.861122 
L 382.172974 137.924349 
L 383.804404 176.094388 
L 385.435834 174.876086 
L 387.067264 142.504058 
L 388.698693 166.347971 
L 390.330123 170.350964 
L 391.961553 155.209209 
L 393.592983 157.47177 
L 395.224413 173.037282 
L 396.855843 164.60754 
L 398.487273 170.525007 
L 398.487273 170.525007 
" style="fill:none;stroke:#1f77b4;stroke-linecap:square;stroke-width:0.25;"/>
   </g>
   <g id="line2d_18">
    <path clip-path="url(#p3fc2be9e75)" d="M 73.832727 210.554935 
L 250.027154 210.554935 
L 253.290014 214.415213 
L 254.921444 209.973631 
L 256.552873 213.082042 
L 258.184303 209.336633 
L 259.815733 210.366969 
L 261.447163 208.662738 
L 263.078593 206.049869 
L 264.710023 198.819905 
L 266.341453 202.860865 
L 267.972883 203.081176 
L 269.604312 194.534865 
L 271.235742 206.40936 
L 272.867172 198.124772 
L 274.498602 204.345363 
L 276.130032 202.739593 
L 277.761462 203.141276 
L 279.392892 196.137245 
L 281.024322 205.145768 
L 282.655751 200.56815 
L 284.287181 208.224443 
L 285.918611 207.281438 
L 287.550041 207.658233 
L 289.181471 205.919522 
L 290.812901 205.320638 
L 292.444331 200.111444 
L 294.075761 200.905292 
L 295.70719 198.017545 
L 297.33862 196.256202 
L 298.97005 193.865538 
L 300.60148 194.56277 
L 302.23291 199.078628 
L 303.86434 200.339025 
L 305.49577 193.208742 
L 307.1272 191.717846 
L 308.75863 187.286065 
L 310.390059 188.581684 
L 312.021489 186.716365 
L 313.652919 184.607743 
L 315.284349 182.071223 
L 316.915779 187.327018 
L 318.547209 182.047299 
L 320.178639 183.397151 
L 321.810069 183.792255 
L 323.441498 181.601486 
L 325.072928 176.753395 
L 326.704358 174.350608 
L 328.335788 171.500784 
L 329.967218 173.685669 
L 331.598648 174.625193 
L 333.230078 167.428136 
L 334.861508 170.272477 
L 336.492937 170.839934 
L 338.124367 173.488237 
L 339.755797 174.85936 
L 341.387227 167.343425 
L 343.018657 175.241686 
L 344.650087 173.614151 
L 346.281517 171.448744 
L 347.912947 168.46149 
L 349.544376 170.014846 
L 351.175806 177.15627 
L 352.807236 164.127053 
L 354.438666 168.550681 
L 356.070096 164.393319 
L 357.701526 177.556262 
L 359.332956 175.144137 
L 360.964386 170.510867 
L 362.595815 179.73885 
L 364.227245 179.097522 
L 365.858675 163.224033 
L 367.490105 177.41135 
L 369.121535 162.90398 
L 370.752965 164.646205 
L 372.384395 167.717678 
L 374.015825 171.144346 
L 375.647254 166.874947 
L 377.278684 159.57511 
L 378.910114 167.590718 
L 380.541544 158.502924 
L 382.172974 145.400444 
L 383.804404 164.0549 
L 385.435834 173.346089 
L 387.067264 155.163582 
L 388.698693 156.781259 
L 390.330123 167.854172 
L 391.961553 151.086188 
L 393.592983 150.192187 
L 395.224413 168.35551 
L 396.855843 159.063583 
L 398.487273 161.53815 
L 398.487273 161.53815 
" style="fill:none;stroke:#2ca02c;stroke-linecap:square;stroke-width:0.75;"/>
   </g>
   <g id="patch_3">
    <path d="M 57.6 307.584 
L 57.6 41.472 
" style="fill:none;stroke:#000000;stroke-linecap:square;stroke-linejoin:miter;stroke-width:0.8;"/>
   </g>
   <g id="patch_4">
    <path d="M 414.72 307.584 
L 414.72 41.472 
" style="fill:none;stroke:#000000;stroke-linecap:square;stroke-linejoin:miter;stroke-width:0.8;"/>
   </g>
   <g id="patch_5">
    <path d="M 57.6 307.584 
L 414.72 307.584 
" style="fill:none;stroke:#000000;stroke-linecap:square;stroke-linejoin:miter;stroke-width:0.8;"/>
   </g>
   <g id="patch_6">
    <path d="M 57.6 41.472 
L 414.72 41.472 
" style="fill:none;stroke:#000000;stroke-linecap:square;stroke-linejoin:miter;stroke-width:0.8;"/>
   </g>
   <g id="legend_1">
    <g id="patch_7">
     <path d="M 338.234063 78.82825 
L 407.72 78.82825 
Q 409.72 78.82825 409.72 76.82825 
L 409.72 48.472 
Q 409.72 46.472 407.72 46.472 
L 338.234063 46.472 
Q 336.234063 46.472 336.234063 48.472 
L 336.234063 76.82825 
Q 336.234063 78.82825 338.234063 78.82825 
z
" style="fill:#ffffff;opacity:0.8;stroke:#cccccc;stroke-linejoin:miter;"/>
    </g>
    <g id="line2d_19">
     <path d="M 340.234063 54.570437 
L 360.234063 54.570437 
" style="fill:none;stroke:#1f77b4;stroke-linecap:square;stroke-width:0.25;"/>
    </g>
    <g id="line2d_20"/>
    <g id="text_17">
     <!-- median -->
     <defs>
      <path d="M 52 44.1875 
Q 55.375 50.25 60.0625 53.125 
Q 64.75 56 71.09375 56 
Q 79.640625 56 84.28125 50.015625 
Q 88.921875 44.046875 88.921875 33.015625 
L 88.921875 0 
L 79.890625 0 
L 79.890625 32.71875 
Q 79.890625 40.578125 77.09375 44.375 
Q 74.3125 48.1875 68.609375 48.1875 
Q 61.625 48.1875 57.5625 43.546875 
Q 53.515625 38.921875 53.515625 30.90625 
L 53.515625 0 
L 44.484375 0 
L 44.484375 32.71875 
Q 44.484375 40.625 41.703125 44.40625 
Q 38.921875 48.1875 33.109375 48.1875 
Q 26.21875 48.1875 22.15625 43.53125 
Q 18.109375 38.875 18.109375 30.90625 
L 18.109375 0 
L 9.078125 0 
L 9.078125 54.6875 
L 18.109375 54.6875 
L 18.109375 46.1875 
Q 21.1875 51.21875 25.484375 53.609375 
Q 29.78125 56 35.6875 56 
Q 41.65625 56 45.828125 52.96875 
Q 50 49.953125 52 44.1875 
z
" id="DejaVuSans-109"/>
      <path d="M 56.203125 29.59375 
L 56.203125 25.203125 
L 14.890625 25.203125 
Q 15.484375 15.921875 20.484375 11.0625 
Q 25.484375 6.203125 34.421875 6.203125 
Q 39.59375 6.203125 44.453125 7.46875 
Q 49.3125 8.734375 54.109375 11.28125 
L 54.109375 2.78125 
Q 49.265625 0.734375 44.1875 -0.34375 
Q 39.109375 -1.421875 33.890625 -1.421875 
Q 20.796875 -1.421875 13.15625 6.1875 
Q 5.515625 13.8125 5.515625 26.8125 
Q 5.515625 40.234375 12.765625 48.109375 
Q 20.015625 56 32.328125 56 
Q 43.359375 56 49.78125 48.890625 
Q 56.203125 41.796875 56.203125 29.59375 
z
M 47.21875 32.234375 
Q 47.125 39.59375 43.09375 43.984375 
Q 39.0625 48.390625 32.421875 48.390625 
Q 24.90625 48.390625 20.390625 44.140625 
Q 15.875 39.890625 15.1875 32.171875 
z
" id="DejaVuSans-101"/>
      <path d="M 45.40625 46.390625 
L 45.40625 75.984375 
L 54.390625 75.984375 
L 54.390625 0 
L 45.40625 0 
L 45.40625 8.203125 
Q 42.578125 3.328125 38.25 0.953125 
Q 33.9375 -1.421875 27.875 -1.421875 
Q 17.96875 -1.421875 11.734375 6.484375 
Q 5.515625 14.40625 5.515625 27.296875 
Q 5.515625 40.1875 11.734375 48.09375 
Q 17.96875 56 27.875 56 
Q 33.9375 56 38.25 53.625 
Q 42.578125 51.265625 45.40625 46.390625 
z
M 14.796875 27.296875 
Q 14.796875 17.390625 18.875 11.75 
Q 22.953125 6.109375 30.078125 6.109375 
Q 37.203125 6.109375 41.296875 11.75 
Q 45.40625 17.390625 45.40625 27.296875 
Q 45.40625 37.203125 41.296875 42.84375 
Q 37.203125 48.484375 30.078125 48.484375 
Q 22.953125 48.484375 18.875 42.84375 
Q 14.796875 37.203125 14.796875 27.296875 
z
" id="DejaVuSans-100"/>
      <path d="M 9.421875 54.6875 
L 18.40625 54.6875 
L 18.40625 0 
L 9.421875 0 
z
M 9.421875 75.984375 
L 18.40625 75.984375 
L 18.40625 64.59375 
L 9.421875 64.59375 
z
" id="DejaVuSans-105"/>
      <path d="M 34.28125 27.484375 
Q 23.390625 27.484375 19.1875 25 
Q 14.984375 22.515625 14.984375 16.5 
Q 14.984375 11.71875 18.140625 8.90625 
Q 21.296875 6.109375 26.703125 6.109375 
Q 34.1875 6.109375 38.703125 11.40625 
Q 43.21875 16.703125 43.21875 25.484375 
L 43.21875 27.484375 
z
M 52.203125 31.203125 
L 52.203125 0 
L 43.21875 0 
L 43.21875 8.296875 
Q 40.140625 3.328125 35.546875 0.953125 
Q 30.953125 -1.421875 24.3125 -1.421875 
Q 15.921875 -1.421875 10.953125 3.296875 
Q 6 8.015625 6 15.921875 
Q 6 25.140625 12.171875 29.828125 
Q 18.359375 34.515625 30.609375 34.515625 
L 43.21875 34.515625 
L 43.21875 35.40625 
Q 43.21875 41.609375 39.140625 45 
Q 35.0625 48.390625 27.6875 48.390625 
Q 23 48.390625 18.546875 47.265625 
Q 14.109375 46.140625 10.015625 43.890625 
L 10.015625 52.203125 
Q 14.9375 54.109375 19.578125 55.046875 
Q 24.21875 56 28.609375 56 
Q 40.484375 56 46.34375 49.84375 
Q 52.203125 43.703125 52.203125 31.203125 
z
" id="DejaVuSans-97"/>
      <path d="M 54.890625 33.015625 
L 54.890625 0 
L 45.90625 0 
L 45.90625 32.71875 
Q 45.90625 40.484375 42.875 44.328125 
Q 39.84375 48.1875 33.796875 48.1875 
Q 26.515625 48.1875 22.3125 43.546875 
Q 18.109375 38.921875 18.109375 30.90625 
L 18.109375 0 
L 9.078125 0 
L 9.078125 54.6875 
L 18.109375 54.6875 
L 18.109375 46.1875 
Q 21.34375 51.125 25.703125 53.5625 
Q 30.078125 56 35.796875 56 
Q 45.21875 56 50.046875 50.171875 
Q 54.890625 44.34375 54.890625 33.015625 
z
" id="DejaVuSans-110"/>
     </defs>
     <g transform="translate(368.234063 58.070437)scale(0.1 -0.1)">
      <use xlink:href="#DejaVuSans-109"/>
      <use x="97.412109" xlink:href="#DejaVuSans-101"/>
      <use x="158.935547" xlink:href="#DejaVuSans-100"/>
      <use x="222.412109" xlink:href="#DejaVuSans-105"/>
      <use x="250.195312" xlink:href="#DejaVuSans-97"/>
      <use x="311.474609" xlink:href="#DejaVuSans-110"/>
     </g>
    </g>
    <g id="line2d_21">
     <path d="M 340.234063 69.248562 
L 360.234063 69.248562 
" style="fill:none;stroke:#2ca02c;stroke-linecap:square;stroke-width:0.75;"/>
    </g>
    <g id="line2d_22"/>
    <g id="text_18">
     <!-- mean -->
     <g transform="translate(368.234063 72.748562)scale(0.1 -0.1)">
      <use xlink:href="#DejaVuSans-109"/>
      <use x="97.412109" xlink:href="#DejaVuSans-101"/>
      <use x="158.935547" xlink:href="#DejaVuSans-97"/>
      <use x="220.214844" xlink:href="#DejaVuSans-110"/>
     </g>
    </g>
   </g>
  </g>
  <g id="text_19">
   <!-- kappa.mean over generations -->
   <defs>
    <path d="M 9.078125 75.984375 
L 18.109375 75.984375 
L 18.109375 31.109375 
L 44.921875 54.6875 
L 56.390625 54.6875 
L 27.390625 29.109375 
L 57.625 0 
L 45.90625 0 
L 18.109375 26.703125 
L 18.109375 0 
L 9.078125 0 
z
" id="DejaVuSans-107"/>
    <path d="M 18.109375 8.203125 
L 18.109375 -20.796875 
L 9.078125 -20.796875 
L 9.078125 54.6875 
L 18.109375 54.6875 
L 18.109375 46.390625 
Q 20.953125 51.265625 25.265625 53.625 
Q 29.59375 56 35.59375 56 
Q 45.5625 56 51.78125 48.09375 
Q 58.015625 40.1875 58.015625 27.296875 
Q 58.015625 14.40625 51.78125 6.484375 
Q 45.5625 -1.421875 35.59375 -1.421875 
Q 29.59375 -1.421875 25.265625 0.953125 
Q 20.953125 3.328125 18.109375 8.203125 
z
M 48.6875 27.296875 
Q 48.6875 37.203125 44.609375 42.84375 
Q 40.53125 48.484375 33.40625 48.484375 
Q 26.265625 48.484375 22.1875 42.84375 
Q 18.109375 37.203125 18.109375 27.296875 
Q 18.109375 17.390625 22.1875 11.75 
Q 26.265625 6.109375 33.40625 6.109375 
Q 40.53125 6.109375 44.609375 11.75 
Q 48.6875 17.390625 48.6875 27.296875 
z
" id="DejaVuSans-112"/>
    <path id="DejaVuSans-32"/>
    <path d="M 30.609375 48.390625 
Q 23.390625 48.390625 19.1875 42.75 
Q 14.984375 37.109375 14.984375 27.296875 
Q 14.984375 17.484375 19.15625 11.84375 
Q 23.34375 6.203125 30.609375 6.203125 
Q 37.796875 6.203125 41.984375 11.859375 
Q 46.1875 17.53125 46.1875 27.296875 
Q 46.1875 37.015625 41.984375 42.703125 
Q 37.796875 48.390625 30.609375 48.390625 
z
M 30.609375 56 
Q 42.328125 56 49.015625 48.375 
Q 55.71875 40.765625 55.71875 27.296875 
Q 55.71875 13.875 49.015625 6.21875 
Q 42.328125 -1.421875 30.609375 -1.421875 
Q 18.84375 -1.421875 12.171875 6.21875 
Q 5.515625 13.875 5.515625 27.296875 
Q 5.515625 40.765625 12.171875 48.375 
Q 18.84375 56 30.609375 56 
z
" id="DejaVuSans-111"/>
    <path d="M 2.984375 54.6875 
L 12.5 54.6875 
L 29.59375 8.796875 
L 46.6875 54.6875 
L 56.203125 54.6875 
L 35.6875 0 
L 23.484375 0 
z
" id="DejaVuSans-118"/>
    <path d="M 41.109375 46.296875 
Q 39.59375 47.171875 37.8125 47.578125 
Q 36.03125 48 33.890625 48 
Q 26.265625 48 22.1875 43.046875 
Q 18.109375 38.09375 18.109375 28.8125 
L 18.109375 0 
L 9.078125 0 
L 9.078125 54.6875 
L 18.109375 54.6875 
L 18.109375 46.1875 
Q 20.953125 51.171875 25.484375 53.578125 
Q 30.03125 56 36.53125 56 
Q 37.453125 56 38.578125 55.875 
Q 39.703125 55.765625 41.0625 55.515625 
z
" id="DejaVuSans-114"/>
    <path d="M 45.40625 27.984375 
Q 45.40625 37.75 41.375 43.109375 
Q 37.359375 48.484375 30.078125 48.484375 
Q 22.859375 48.484375 18.828125 43.109375 
Q 14.796875 37.75 14.796875 27.984375 
Q 14.796875 18.265625 18.828125 12.890625 
Q 22.859375 7.515625 30.078125 7.515625 
Q 37.359375 7.515625 41.375 12.890625 
Q 45.40625 18.265625 45.40625 27.984375 
z
M 54.390625 6.78125 
Q 54.390625 -7.171875 48.1875 -13.984375 
Q 42 -20.796875 29.203125 -20.796875 
Q 24.46875 -20.796875 20.265625 -20.09375 
Q 16.0625 -19.390625 12.109375 -17.921875 
L 12.109375 -9.1875 
Q 16.0625 -11.328125 19.921875 -12.34375 
Q 23.78125 -13.375 27.78125 -13.375 
Q 36.625 -13.375 41.015625 -8.765625 
Q 45.40625 -4.15625 45.40625 5.171875 
L 45.40625 9.625 
Q 42.625 4.78125 38.28125 2.390625 
Q 33.9375 0 27.875 0 
Q 17.828125 0 11.671875 7.65625 
Q 5.515625 15.328125 5.515625 27.984375 
Q 5.515625 40.671875 11.671875 48.328125 
Q 17.828125 56 27.875 56 
Q 33.9375 56 38.28125 53.609375 
Q 42.625 51.21875 45.40625 46.390625 
L 45.40625 54.6875 
L 54.390625 54.6875 
z
" id="DejaVuSans-103"/>
    <path d="M 18.3125 70.21875 
L 18.3125 54.6875 
L 36.8125 54.6875 
L 36.8125 47.703125 
L 18.3125 47.703125 
L 18.3125 18.015625 
Q 18.3125 11.328125 20.140625 9.421875 
Q 21.96875 7.515625 27.59375 7.515625 
L 36.8125 7.515625 
L 36.8125 0 
L 27.59375 0 
Q 17.1875 0 13.234375 3.875 
Q 9.28125 7.765625 9.28125 18.015625 
L 9.28125 47.703125 
L 2.6875 47.703125 
L 2.6875 54.6875 
L 9.28125 54.6875 
L 9.28125 70.21875 
z
" id="DejaVuSans-116"/>
    <path d="M 44.28125 53.078125 
L 44.28125 44.578125 
Q 40.484375 46.53125 36.375 47.5 
Q 32.28125 48.484375 27.875 48.484375 
Q 21.1875 48.484375 17.84375 46.4375 
Q 14.5 44.390625 14.5 40.28125 
Q 14.5 37.15625 16.890625 35.375 
Q 19.28125 33.59375 26.515625 31.984375 
L 29.59375 31.296875 
Q 39.15625 29.25 43.1875 25.515625 
Q 47.21875 21.78125 47.21875 15.09375 
Q 47.21875 7.46875 41.1875 3.015625 
Q 35.15625 -1.421875 24.609375 -1.421875 
Q 20.21875 -1.421875 15.453125 -0.5625 
Q 10.6875 0.296875 5.421875 2 
L 5.421875 11.28125 
Q 10.40625 8.6875 15.234375 7.390625 
Q 20.0625 6.109375 24.8125 6.109375 
Q 31.15625 6.109375 34.5625 8.28125 
Q 37.984375 10.453125 37.984375 14.40625 
Q 37.984375 18.0625 35.515625 20.015625 
Q 33.0625 21.96875 24.703125 23.78125 
L 21.578125 24.515625 
Q 13.234375 26.265625 9.515625 29.90625 
Q 5.8125 33.546875 5.8125 39.890625 
Q 5.8125 47.609375 11.28125 51.796875 
Q 16.75 56 26.8125 56 
Q 31.78125 56 36.171875 55.265625 
Q 40.578125 54.546875 44.28125 53.078125 
z
" id="DejaVuSans-115"/>
   </defs>
   <g transform="translate(140.184375 16.030125)scale(0.12 -0.12)">
    <use xlink:href="#DejaVuSans-107"/>
    <use x="56.160156" xlink:href="#DejaVuSans-97"/>
    <use x="117.439453" xlink:href="#DejaVuSans-112"/>
    <use x="180.916016" xlink:href="#DejaVuSans-112"/>
    <use x="244.392578" xlink:href="#DejaVuSans-97"/>
    <use x="305.671875" xlink:href="#DejaVuSans-46"/>
    <use x="337.458984" xlink:href="#DejaVuSans-109"/>
    <use x="434.871094" xlink:href="#DejaVuSans-101"/>
    <use x="496.394531" xlink:href="#DejaVuSans-97"/>
    <use x="557.673828" xlink:href="#DejaVuSans-110"/>
    <use x="621.052734" xlink:href="#DejaVuSans-32"/>
    <use x="652.839844" xlink:href="#DejaVuSans-111"/>
    <use x="714.021484" xlink:href="#DejaVuSans-118"/>
    <use x="773.201172" xlink:href="#DejaVuSans-101"/>
    <use x="834.724609" xlink:href="#DejaVuSans-114"/>
    <use x="875.837891" xlink:href="#DejaVuSans-32"/>
    <use x="907.625" xlink:href="#DejaVuSans-103"/>
    <use x="971.101562" xlink:href="#DejaVuSans-101"/>
    <use x="1032.625" xlink:href="#DejaVuSans-110"/>
    <use x="1096.003906" xlink:href="#DejaVuSans-101"/>
    <use x="1157.527344" xlink:href="#DejaVuSans-114"/>
    <use x="1198.640625" xlink:href="#DejaVuSans-97"/>
    <use x="1259.919922" xlink:href="#DejaVuSans-116"/>
    <use x="1299.128906" xlink:href="#DejaVuSans-105"/>
    <use x="1326.912109" xlink:href="#DejaVuSans-111"/>
    <use x="1388.09375" xlink:href="#DejaVuSans-110"/>
    <use x="1451.472656" xlink:href="#DejaVuSans-115"/>
   </g>
  </g>
 </g>
 <defs>
  <clipPath id="p3fc2be9e75">
   <rect height="266.112" width="357.12" x="57.6" y="41.472"/>
  </clipPath>
 </defs>
</svg>
