<?xml version="1.0" encoding="utf-8" standalone="no"?>
<!DOCTYPE svg PUBLIC "-//W3C//DTD SVG 1.1//EN"
  "http://www.w3.org/Graphics/SVG/1.1/DTD/svg11.dtd">
<!-- Created with matplotlib (https://matplotlib.org/) -->
<svg height="345.6pt" version="1.1" viewBox="0 0 460.8 345.6" width="460.8pt" xmlns="http://www.w3.org/2000/svg" xmlns:xlink="http://www.w3.org/1999/xlink">
 <defs>
  <style type="text/css">
*{stroke-linecap:butt;stroke-linejoin:round;}
  </style>
 </defs>
 <g id="figure_1">
  <g id="patch_1">
   <path d="M 0 345.6 
L 460.8 345.6 
L 460.8 0 
L 0 0 
z
" style="fill:#ffffff;"/>
  </g>
  <g id="axes_1">
   <g id="patch_2">
    <path d="M 57.6 307.584 
L 414.72 307.584 
L 414.72 41.472 
L 57.6 41.472 
z
" style="fill:#ffffff;"/>
   </g>
   <g id="PolyCollection_1">
    <path clip-path="url(#p7401142604)" d="M 73.832727 209.088 
L 73.832727 209.088 
L 75.464157 209.088 
L 77.095587 209.088 
L 78.727017 209.088 
L 80.358447 209.088 
L 81.989877 209.088 
L 83.621307 209.088 
L 85.252736 209.088 
L 86.884166 209.088 
L 88.515596 209.088 
L 90.147026 209.088 
L 91.778456 209.088 
L 93.409886 209.088 
L 95.041316 209.088 
L 96.672746 209.088 
L 98.304175 209.088 
L 99.935605 209.088 
L 101.567035 209.088 
L 103.198465 209.088 
L 104.829895 209.088 
L 106.461325 209.088 
L 108.092755 209.088 
L 109.724185 209.088 
L 111.355614 209.088 
L 112.987044 209.088 
L 114.618474 209.088 
L 116.249904 209.088 
L 117.881334 209.088 
L 119.512764 209.088 
L 121.144194 209.088 
L 122.775624 209.088 
L 124.407053 209.088 
L 126.038483 209.088 
L 127.669913 209.088 
L 129.301343 209.088 
L 130.932773 209.088 
L 132.564203 209.088 
L 134.195633 209.088 
L 135.827063 209.088 
L 137.458492 209.088 
L 139.089922 209.088 
L 140.721352 209.088 
L 142.352782 209.088 
L 143.984212 209.088 
L 145.615642 209.088 
L 147.247072 209.088 
L 148.878502 209.088 
L 150.509931 209.088 
L 152.141361 209.088 
L 153.772791 209.088 
L 155.404221 209.088 
L 157.035651 209.088 
L 158.667081 209.088 
L 160.298511 209.088 
L 161.929941 209.088 
L 163.56137 209.088 
L 165.1928 209.088 
L 166.82423 209.088 
L 168.45566 209.088 
L 170.08709 209.088 
L 171.71852 209.088 
L 173.34995 209.088 
L 174.98138 209.088 
L 176.61281 209.088 
L 178.244239 209.088 
L 179.875669 209.088 
L 181.507099 209.088 
L 183.138529 209.088 
L 184.769959 209.088 
L 186.401389 209.088 
L 188.032819 209.088 
L 189.664249 209.088 
L 191.295678 209.088 
L 192.927108 209.088 
L 194.558538 209.088 
L 196.189968 209.088 
L 197.821398 209.088 
L 199.452828 209.088 
L 201.084258 209.088 
L 202.715688 209.088 
L 204.347117 209.088 
L 205.978547 209.088 
L 207.609977 209.088 
L 209.241407 209.088 
L 210.872837 209.088 
L 212.504267 209.088 
L 214.135697 209.088 
L 215.767127 209.088 
L 217.398556 209.088 
L 219.029986 209.088 
L 220.661416 209.088 
L 222.292846 209.088 
L 223.924276 209.088 
L 225.555706 209.088 
L 227.187136 209.088 
L 228.818566 209.088 
L 230.449995 209.088 
L 232.081425 209.088 
L 233.712855 209.088 
L 235.344285 209.088 
L 236.975715 209.088 
L 238.607145 209.088 
L 240.238575 209.088 
L 241.870005 209.088 
L 243.501434 209.088 
L 245.132864 209.088 
L 246.764294 200.5344 
L 248.395724 199.8432 
L 250.027154 209.088 
L 251.658584 194.623855 
L 253.290014 209.088 
L 254.921444 207.36 
L 256.552873 196.992 
L 258.184303 209.088 
L 259.815733 209.088 
L 261.447163 209.088 
L 263.078593 209.088 
L 264.710023 209.088 
L 266.341453 208.8288 
L 267.972883 209.088 
L 269.604312 209.088 
L 271.235742 209.088 
L 272.867172 192.25728 
L 274.498602 209.088 
L 276.130032 209.088 
L 277.761462 207.792 
L 279.392892 204.9408 
L 281.024322 209.088 
L 282.655751 191.9808 
L 284.287181 207.2736 
L 285.918611 192.4992 
L 287.550041 204.224914 
L 289.181471 197.3376 
L 290.812901 209.088 
L 292.444331 208.8288 
L 294.075761 209.088 
L 295.70719 207.36 
L 297.33862 209.088 
L 298.97005 209.088 
L 300.60148 192.5856 
L 302.23291 191.8944 
L 303.86434 196.128 
L 305.49577 203.7312 
L 307.1272 203.2128 
L 308.75863 204.336 
L 310.390059 207.0144 
L 312.021489 197.2512 
L 313.652919 195.0912 
L 315.284349 196.0416 
L 316.915779 206.496 
L 318.547209 198.1152 
L 320.178639 189.65664 
L 321.810069 209.088 
L 323.441498 206.6688 
L 325.072928 197.5968 
L 326.704358 194.3136 
L 328.335788 209.088 
L 329.967218 190.7712 
L 331.598648 192.1536 
L 333.230078 204.2496 
L 334.861508 207.36 
L 336.492937 183.713466 
L 338.124367 209.088 
L 339.755797 209.088 
L 341.387227 209.088 
L 343.018657 198.4608 
L 344.650087 195.6096 
L 346.281517 201.312 
L 347.912947 207.36 
L 349.544376 199.584 
L 351.175806 199.9296 
L 352.807236 209.088 
L 354.438666 192.1536 
L 356.070096 193.1904 
L 357.701526 195.0048 
L 359.332956 209.088 
L 360.964386 209.088 
L 362.595815 197.1648 
L 364.227245 202.5216 
L 365.858675 209.088 
L 367.490105 194.6592 
L 369.121535 209.088 
L 370.752965 206.8416 
L 372.384395 207.1008 
L 374.015825 194.6592 
L 375.647254 193.1904 
L 377.278684 205.632 
L 378.910114 209.088 
L 380.541544 207.0144 
L 382.172974 209.088 
L 383.804404 209.088 
L 385.435834 200.36592 
L 387.067264 209.088 
L 388.698693 191.5488 
L 390.330123 209.088 
L 391.961553 180.8352 
L 393.592983 197.2512 
L 395.224413 206.3232 
L 396.855843 191.808 
L 398.487273 209.088 
L 398.487273 158.618618 
L 398.487273 158.618618 
L 396.855843 139.2768 
L 395.224413 153.36 
L 393.592983 163.819482 
L 391.961553 142.7328 
L 390.330123 149.2992 
L 388.698693 141.696 
L 387.067264 162.0864 
L 385.435834 102.2976 
L 383.804404 148.9536 
L 382.172974 178.3296 
L 380.541544 159.5808 
L 378.910114 164.6784 
L 377.278684 159.2352 
L 375.647254 122.8608 
L 374.015825 160.704 
L 372.384395 151.8048 
L 370.752965 175.4784 
L 369.121535 138.1536 
L 367.490105 159.1488 
L 365.858675 138.8448 
L 364.227245 159.408 
L 362.595815 169.183543 
L 360.964386 145.8432 
L 359.332956 148.655948 
L 357.701526 146.7072 
L 356.070096 139.8816 
L 354.438666 160.3584 
L 352.807236 175.9104 
L 351.175806 167.850514 
L 349.544376 160.9632 
L 347.912947 159.6672 
L 346.281517 162.432 
L 344.650087 147.390887 
L 343.018657 162.7776 
L 341.387227 161.3952 
L 339.755797 133.043657 
L 338.124367 147.168 
L 336.492937 132.9696 
L 334.861508 142.6464 
L 333.230078 157.5072 
L 331.598648 132.7104 
L 329.967218 149.973943 
L 328.335788 160.6176 
L 326.704358 164.4192 
L 325.072928 181.7856 
L 323.441498 88.4736 
L 321.810069 165.888 
L 320.178639 152.4096 
L 318.547209 161.0272 
L 316.915779 161.3088 
L 315.284349 162.0864 
L 313.652919 105.5808 
L 312.021489 149.9904 
L 310.390059 129.3408 
L 308.75863 168.7392 
L 307.1272 161.098971 
L 305.49577 170.4672 
L 303.86434 158.2848 
L 302.23291 159.0624 
L 300.60148 156.6432 
L 298.97005 176.00544 
L 297.33862 142.992 
L 295.70719 141.696 
L 294.075761 138.550255 
L 292.444331 158.6304 
L 290.812901 141.696 
L 289.181471 136.6848 
L 287.550041 171.7632 
L 285.918611 144.205714 
L 284.287181 154.532571 
L 282.655751 143.6832 
L 281.024322 174.741195 
L 279.392892 177.6384 
L 277.761462 162.432 
L 276.130032 174.986296 
L 274.498602 167.92416 
L 272.867172 142.3872 
L 271.235742 182.976 
L 269.604312 187.7472 
L 267.972883 162.3456 
L 266.341453 146.30112 
L 264.710023 191.631086 
L 263.078593 168.2208 
L 261.447163 169.30512 
L 259.815733 158.065297 
L 258.184303 142.992 
L 256.552873 150.291803 
L 254.921444 161.341835 
L 253.290014 157.248 
L 251.658584 146.954057 
L 250.027154 164.6352 
L 248.395724 157.248 
L 246.764294 147.68784 
L 245.132864 159.3216 
L 243.501434 168.3072 
L 241.870005 164.33712 
L 240.238575 157.248 
L 238.607145 173.984914 
L 236.975715 144.939927 
L 235.344285 154.911575 
L 233.712855 157.248 
L 232.081425 145.8432 
L 230.449995 162.7776 
L 228.818566 176.850067 
L 227.187136 174.528 
L 225.555706 173.713371 
L 223.924276 167.689108 
L 222.292846 168.612779 
L 220.661416 162.6912 
L 219.029986 157.5936 
L 217.398556 164.8512 
L 215.767127 174.528 
L 214.135697 183.751763 
L 212.504267 188.6976 
L 210.872837 209.088 
L 209.241407 209.088 
L 207.609977 209.088 
L 205.978547 209.088 
L 204.347117 209.088 
L 202.715688 209.088 
L 201.084258 209.088 
L 199.452828 209.088 
L 197.821398 209.088 
L 196.189968 209.088 
L 194.558538 209.088 
L 192.927108 209.088 
L 191.295678 209.088 
L 189.664249 209.088 
L 188.032819 209.088 
L 186.401389 209.088 
L 184.769959 209.088 
L 183.138529 209.088 
L 181.507099 209.088 
L 179.875669 209.088 
L 178.244239 209.088 
L 176.61281 209.088 
L 174.98138 209.088 
L 173.34995 209.088 
L 171.71852 209.088 
L 170.08709 209.088 
L 168.45566 209.088 
L 166.82423 209.088 
L 165.1928 209.088 
L 163.56137 209.088 
L 161.929941 209.088 
L 160.298511 209.088 
L 158.667081 209.088 
L 157.035651 209.088 
L 155.404221 209.088 
L 153.772791 209.088 
L 152.141361 209.088 
L 150.509931 209.088 
L 148.878502 209.088 
L 147.247072 209.088 
L 145.615642 209.088 
L 143.984212 209.088 
L 142.352782 209.088 
L 140.721352 209.088 
L 139.089922 209.088 
L 137.458492 209.088 
L 135.827063 209.088 
L 134.195633 209.088 
L 132.564203 209.088 
L 130.932773 209.088 
L 129.301343 209.088 
L 127.669913 209.088 
L 126.038483 209.088 
L 124.407053 209.088 
L 122.775624 209.088 
L 121.144194 209.088 
L 119.512764 209.088 
L 117.881334 209.088 
L 116.249904 209.088 
L 114.618474 209.088 
L 112.987044 209.088 
L 111.355614 209.088 
L 109.724185 209.088 
L 108.092755 209.088 
L 106.461325 209.088 
L 104.829895 209.088 
L 103.198465 209.088 
L 101.567035 209.088 
L 99.935605 209.088 
L 98.304175 209.088 
L 96.672746 209.088 
L 95.041316 209.088 
L 93.409886 209.088 
L 91.778456 209.088 
L 90.147026 209.088 
L 88.515596 209.088 
L 86.884166 209.088 
L 85.252736 209.088 
L 83.621307 209.088 
L 81.989877 209.088 
L 80.358447 209.088 
L 78.727017 209.088 
L 77.095587 209.088 
L 75.464157 209.088 
L 73.832727 209.088 
z
" style="fill:#1f77b4;fill-opacity:0.2;"/>
   </g>
   <g id="PolyCollection_2">
    <path clip-path="url(#p7401142604)" d="M 73.832727 209.088 
L 73.832727 209.088 
L 75.464157 209.088 
L 77.095587 209.088 
L 78.727017 209.088 
L 80.358447 209.088 
L 81.989877 209.088 
L 83.621307 209.088 
L 85.252736 209.088 
L 86.884166 209.088 
L 88.515596 209.088 
L 90.147026 209.088 
L 91.778456 209.088 
L 93.409886 209.088 
L 95.041316 209.088 
L 96.672746 209.088 
L 98.304175 209.088 
L 99.935605 209.088 
L 101.567035 209.088 
L 103.198465 209.088 
L 104.829895 209.088 
L 106.461325 209.088 
L 108.092755 209.088 
L 109.724185 209.088 
L 111.355614 209.088 
L 112.987044 209.088 
L 114.618474 209.088 
L 116.249904 209.088 
L 117.881334 209.088 
L 119.512764 209.088 
L 121.144194 209.088 
L 122.775624 209.088 
L 124.407053 209.088 
L 126.038483 209.088 
L 127.669913 209.088 
L 129.301343 209.088 
L 130.932773 209.088 
L 132.564203 209.088 
L 134.195633 209.088 
L 135.827063 209.088 
L 137.458492 209.088 
L 139.089922 209.088 
L 140.721352 209.088 
L 142.352782 209.088 
L 143.984212 209.088 
L 145.615642 209.088 
L 147.247072 209.088 
L 148.878502 209.088 
L 150.509931 209.088 
L 152.141361 209.088 
L 153.772791 209.088 
L 155.404221 209.088 
L 157.035651 209.088 
L 158.667081 209.088 
L 160.298511 209.088 
L 161.929941 209.088 
L 163.56137 209.088 
L 165.1928 209.088 
L 166.82423 209.088 
L 168.45566 209.088 
L 170.08709 209.088 
L 171.71852 209.088 
L 173.34995 209.088 
L 174.98138 209.088 
L 176.61281 209.088 
L 178.244239 209.088 
L 179.875669 209.088 
L 181.507099 209.088 
L 183.138529 209.088 
L 184.769959 209.088 
L 186.401389 209.088 
L 188.032819 209.088 
L 189.664249 209.088 
L 191.295678 209.088 
L 192.927108 209.088 
L 194.558538 209.088 
L 196.189968 209.088 
L 197.821398 209.088 
L 199.452828 209.088 
L 201.084258 209.088 
L 202.715688 226.0224 
L 204.347117 209.7792 
L 205.978547 251.2512 
L 207.609977 242.6112 
L 209.241407 227.4048 
L 210.872837 240.8832 
L 212.504267 293.76 
L 214.135697 260.928 
L 215.767127 277.1712 
L 217.398556 277.1712 
L 219.029986 294.1056 
L 220.661416 260.928 
L 222.292846 256.4352 
L 223.924276 277.1712 
L 225.555706 260.928 
L 227.187136 251.9424 
L 228.818566 243.648 
L 230.449995 262.3104 
L 232.081425 266.112 
L 233.712855 258.8544 
L 235.344285 295.488 
L 236.975715 246.4128 
L 238.607145 260.928 
L 240.238575 275.7888 
L 241.870005 247.4496 
L 243.501434 293.0688 
L 245.132864 254.3616 
L 246.764294 288.9216 
L 248.395724 249.8688 
L 250.027154 260.928 
L 251.658584 259.5456 
L 253.290014 226.368 
L 254.921444 243.3024 
L 256.552873 260.928 
L 258.184303 289.2672 
L 259.815733 260.928 
L 261.447163 260.928 
L 263.078593 243.648 
L 264.710023 243.648 
L 266.341453 251.2512 
L 267.972883 260.5824 
L 269.604312 260.5824 
L 271.235742 226.368 
L 272.867172 255.744 
L 274.498602 275.7888 
L 276.130032 243.648 
L 277.761462 243.648 
L 279.392892 237.7728 
L 281.024322 226.7136 
L 282.655751 252.288 
L 284.287181 243.3024 
L 285.918611 266.112 
L 287.550041 257.8176 
L 289.181471 263.0016 
L 290.812901 259.8912 
L 292.444331 242.9568 
L 294.075761 275.7888 
L 295.70719 278.208 
L 297.33862 242.2656 
L 298.97005 260.5824 
L 300.60148 237.4272 
L 302.23291 240.192 
L 303.86434 238.1184 
L 305.49577 229.1328 
L 307.1272 235.3536 
L 308.75863 278.208 
L 310.390059 209.088 
L 312.021489 248.1408 
L 313.652919 284.7744 
L 315.284349 255.744 
L 316.915779 295.488 
L 318.547209 248.832 
L 320.178639 242.6112 
L 321.810069 243.648 
L 323.441498 282.0096 
L 325.072928 242.9568 
L 326.704358 226.368 
L 328.335788 213.9264 
L 329.967218 271.296 
L 331.598648 244.3392 
L 333.230078 260.928 
L 334.861508 247.7952 
L 336.492937 228.7872 
L 338.124367 240.8832 
L 339.755797 246.0672 
L 341.387227 243.3024 
L 343.018657 238.8096 
L 344.650087 255.0528 
L 346.281517 290.6496 
L 347.912947 245.7216 
L 349.544376 226.0224 
L 351.175806 227.4048 
L 352.807236 241.2288 
L 354.438666 251.9424 
L 356.070096 252.288 
L 357.701526 229.4784 
L 359.332956 295.488 
L 360.964386 243.3024 
L 362.595815 225.3312 
L 364.227245 211.5072 
L 365.858675 238.8096 
L 367.490105 252.6336 
L 369.121535 278.208 
L 370.752965 254.7072 
L 372.384395 260.928 
L 374.015825 246.4128 
L 375.647254 258.1632 
L 377.278684 258.5088 
L 378.910114 248.4864 
L 380.541544 232.9344 
L 382.172974 246.4128 
L 383.804404 271.296 
L 385.435834 286.1568 
L 387.067264 270.9504 
L 388.698693 244.3392 
L 390.330123 295.488 
L 391.961553 227.0592 
L 393.592983 231.8976 
L 395.224413 243.648 
L 396.855843 240.8832 
L 398.487273 278.5536 
L 398.487273 100.224 
L 398.487273 100.224 
L 396.855843 93.6576 
L 395.224413 116.1216 
L 393.592983 99.5328 
L 391.961553 99.1872 
L 390.330123 108.5184 
L 388.698693 79.488 
L 387.067264 98.496 
L 385.435834 53.568 
L 383.804404 87.4368 
L 382.172974 114.3792 
L 380.541544 113.341774 
L 378.910114 112.854109 
L 377.278684 94.6944 
L 375.647254 67.7376 
L 374.015825 120.861257 
L 372.384395 80.1792 
L 370.752965 105.654857 
L 369.121535 97.1136 
L 367.490105 103.68 
L 365.858675 84.3264 
L 364.227245 83.6352 
L 362.595815 106.7904 
L 360.964386 110.592 
L 359.332956 85.3632 
L 357.701526 111.0656 
L 356.070096 93.312 
L 354.438666 110.9376 
L 352.807236 111.073129 
L 351.175806 110.370816 
L 349.544376 100.9152 
L 347.912947 109.6632 
L 346.281517 109.341957 
L 344.650087 76.032 
L 343.018657 109.30944 
L 341.387227 103.68 
L 339.755797 87.4368 
L 338.124367 86.4 
L 336.492937 81.9072 
L 334.861508 87.4368 
L 333.230078 109.120985 
L 331.598648 96.4224 
L 329.967218 84.672 
L 328.335788 108.3264 
L 326.704358 89.5104 
L 325.072928 108.476928 
L 323.441498 77.76 
L 321.810069 105.408 
L 320.178639 98.1504 
L 318.547209 98.1504 
L 316.915779 94.0032 
L 315.284349 103.68 
L 313.652919 78.7968 
L 312.021489 80.73216 
L 310.390059 105.42528 
L 308.75863 87.4368 
L 307.1272 108.713739 
L 305.49577 106.680436 
L 303.86434 96.768 
L 302.23291 102.034286 
L 300.60148 100.9152 
L 298.97005 115.37856 
L 297.33862 106.7904 
L 295.70719 117.504 
L 294.075761 116.4672 
L 292.444331 119.775086 
L 290.812901 111.9744 
L 289.181471 72.9216 
L 287.550041 131.63904 
L 285.918611 89.856 
L 284.287181 103.3344 
L 282.655751 86.4 
L 281.024322 149.2992 
L 279.392892 146.221714 
L 277.761462 123.7248 
L 276.130032 153.792 
L 274.498602 119.9232 
L 272.867172 108.1728 
L 271.235742 144.30528 
L 269.604312 148.873846 
L 267.972883 106.4448 
L 266.341453 123.7248 
L 264.710023 132.0192 
L 263.078593 138.9312 
L 261.447163 138.24 
L 259.815733 109.5552 
L 258.184303 92.2752 
L 256.552873 120.6144 
L 254.921444 138.24 
L 253.290014 118.5408 
L 251.658584 129.9456 
L 250.027154 139.6224 
L 248.395724 109.9008 
L 246.764294 104.0256 
L 245.132864 123.929018 
L 243.501434 119.9232 
L 241.870005 103.3344 
L 240.238575 127.5264 
L 238.607145 143.588571 
L 236.975715 122.688 
L 235.344285 123.0336 
L 233.712855 146.63808 
L 232.081425 122.688 
L 230.449995 139.968 
L 228.818566 147.4848 
L 227.187136 143.424 
L 225.555706 130.6368 
L 223.924276 139.968 
L 222.292846 126.4896 
L 220.661416 143.82144 
L 219.029986 122.688 
L 217.398556 143.52768 
L 215.767127 125.1072 
L 214.135697 139.375543 
L 212.504267 134.0928 
L 210.872837 146.567314 
L 209.241407 139.968 
L 207.609977 127.872 
L 205.978547 140.3136 
L 204.347117 209.088 
L 202.715688 209.088 
L 201.084258 209.088 
L 199.452828 209.088 
L 197.821398 209.088 
L 196.189968 209.088 
L 194.558538 209.088 
L 192.927108 209.088 
L 191.295678 209.088 
L 189.664249 209.088 
L 188.032819 209.088 
L 186.401389 209.088 
L 184.769959 209.088 
L 183.138529 209.088 
L 181.507099 209.088 
L 179.875669 209.088 
L 178.244239 209.088 
L 176.61281 209.088 
L 174.98138 209.088 
L 173.34995 209.088 
L 171.71852 209.088 
L 170.08709 209.088 
L 168.45566 209.088 
L 166.82423 209.088 
L 165.1928 209.088 
L 163.56137 209.088 
L 161.929941 209.088 
L 160.298511 209.088 
L 158.667081 209.088 
L 157.035651 209.088 
L 155.404221 209.088 
L 153.772791 209.088 
L 152.141361 209.088 
L 150.509931 209.088 
L 148.878502 209.088 
L 147.247072 209.088 
L 145.615642 209.088 
L 143.984212 209.088 
L 142.352782 209.088 
L 140.721352 209.088 
L 139.089922 209.088 
L 137.458492 209.088 
L 135.827063 209.088 
L 134.195633 209.088 
L 132.564203 209.088 
L 130.932773 209.088 
L 129.301343 209.088 
L 127.669913 209.088 
L 126.038483 209.088 
L 124.407053 209.088 
L 122.775624 209.088 
L 121.144194 209.088 
L 119.512764 209.088 
L 117.881334 209.088 
L 116.249904 209.088 
L 114.618474 209.088 
L 112.987044 209.088 
L 111.355614 209.088 
L 109.724185 209.088 
L 108.092755 209.088 
L 106.461325 209.088 
L 104.829895 209.088 
L 103.198465 209.088 
L 101.567035 209.088 
L 99.935605 209.088 
L 98.304175 209.088 
L 96.672746 209.088 
L 95.041316 209.088 
L 93.409886 209.088 
L 91.778456 209.088 
L 90.147026 209.088 
L 88.515596 209.088 
L 86.884166 209.088 
L 85.252736 209.088 
L 83.621307 209.088 
L 81.989877 209.088 
L 80.358447 209.088 
L 78.727017 209.088 
L 77.095587 209.088 
L 75.464157 209.088 
L 73.832727 209.088 
z
" style="fill:#1f77b4;fill-opacity:0.1;"/>
   </g>
   <g id="matplotlib.axis_1">
    <g id="xtick_1">
     <g id="line2d_1">
      <defs>
       <path d="M 0 0 
L 0 3.5 
" id="m400a990143" style="stroke:#000000;stroke-width:0.8;"/>
      </defs>
      <g>
       <use style="stroke:#000000;stroke-width:0.8;" x="73.832727" xlink:href="#m400a990143" y="307.584"/>
      </g>
     </g>
     <g id="text_1">
      <!-- 0 -->
      <defs>
       <path d="M 31.78125 66.40625 
Q 24.171875 66.40625 20.328125 58.90625 
Q 16.5 51.421875 16.5 36.375 
Q 16.5 21.390625 20.328125 13.890625 
Q 24.171875 6.390625 31.78125 6.390625 
Q 39.453125 6.390625 43.28125 13.890625 
Q 47.125 21.390625 47.125 36.375 
Q 47.125 51.421875 43.28125 58.90625 
Q 39.453125 66.40625 31.78125 66.40625 
z
M 31.78125 74.21875 
Q 44.046875 74.21875 50.515625 64.515625 
Q 56.984375 54.828125 56.984375 36.375 
Q 56.984375 17.96875 50.515625 8.265625 
Q 44.046875 -1.421875 31.78125 -1.421875 
Q 19.53125 -1.421875 13.0625 8.265625 
Q 6.59375 17.96875 6.59375 36.375 
Q 6.59375 54.828125 13.0625 64.515625 
Q 19.53125 74.21875 31.78125 74.21875 
z
" id="DejaVuSans-48"/>
      </defs>
      <g transform="translate(70.651477 322.182437)scale(0.1 -0.1)">
       <use xlink:href="#DejaVuSans-48"/>
      </g>
     </g>
    </g>
    <g id="xtick_2">
     <g id="line2d_2">
      <g>
       <use style="stroke:#000000;stroke-width:0.8;" x="114.618474" xlink:href="#m400a990143" y="307.584"/>
      </g>
     </g>
     <g id="text_2">
      <!-- 25 -->
      <defs>
       <path d="M 19.1875 8.296875 
L 53.609375 8.296875 
L 53.609375 0 
L 7.328125 0 
L 7.328125 8.296875 
Q 12.9375 14.109375 22.625 23.890625 
Q 32.328125 33.6875 34.8125 36.53125 
Q 39.546875 41.84375 41.421875 45.53125 
Q 43.3125 49.21875 43.3125 52.78125 
Q 43.3125 58.59375 39.234375 62.25 
Q 35.15625 65.921875 28.609375 65.921875 
Q 23.96875 65.921875 18.8125 64.3125 
Q 13.671875 62.703125 7.8125 59.421875 
L 7.8125 69.390625 
Q 13.765625 71.78125 18.9375 73 
Q 24.125 74.21875 28.421875 74.21875 
Q 39.75 74.21875 46.484375 68.546875 
Q 53.21875 62.890625 53.21875 53.421875 
Q 53.21875 48.921875 51.53125 44.890625 
Q 49.859375 40.875 45.40625 35.40625 
Q 44.1875 33.984375 37.640625 27.21875 
Q 31.109375 20.453125 19.1875 8.296875 
z
" id="DejaVuSans-50"/>
       <path d="M 10.796875 72.90625 
L 49.515625 72.90625 
L 49.515625 64.59375 
L 19.828125 64.59375 
L 19.828125 46.734375 
Q 21.96875 47.46875 24.109375 47.828125 
Q 26.265625 48.1875 28.421875 48.1875 
Q 40.625 48.1875 47.75 41.5 
Q 54.890625 34.8125 54.890625 23.390625 
Q 54.890625 11.625 47.5625 5.09375 
Q 40.234375 -1.421875 26.90625 -1.421875 
Q 22.3125 -1.421875 17.546875 -0.640625 
Q 12.796875 0.140625 7.71875 1.703125 
L 7.71875 11.625 
Q 12.109375 9.234375 16.796875 8.0625 
Q 21.484375 6.890625 26.703125 6.890625 
Q 35.15625 6.890625 40.078125 11.328125 
Q 45.015625 15.765625 45.015625 23.390625 
Q 45.015625 31 40.078125 35.4375 
Q 35.15625 39.890625 26.703125 39.890625 
Q 22.75 39.890625 18.8125 39.015625 
Q 14.890625 38.140625 10.796875 36.28125 
z
" id="DejaVuSans-53"/>
      </defs>
      <g transform="translate(108.255974 322.182437)scale(0.1 -0.1)">
       <use xlink:href="#DejaVuSans-50"/>
       <use x="63.623047" xlink:href="#DejaVuSans-53"/>
      </g>
     </g>
    </g>
    <g id="xtick_3">
     <g id="line2d_3">
      <g>
       <use style="stroke:#000000;stroke-width:0.8;" x="155.404221" xlink:href="#m400a990143" y="307.584"/>
      </g>
     </g>
     <g id="text_3">
      <!-- 50 -->
      <g transform="translate(149.041721 322.182437)scale(0.1 -0.1)">
       <use xlink:href="#DejaVuSans-53"/>
       <use x="63.623047" xlink:href="#DejaVuSans-48"/>
      </g>
     </g>
    </g>
    <g id="xtick_4">
     <g id="line2d_4">
      <g>
       <use style="stroke:#000000;stroke-width:0.8;" x="196.189968" xlink:href="#m400a990143" y="307.584"/>
      </g>
     </g>
     <g id="text_4">
      <!-- 75 -->
      <defs>
       <path d="M 8.203125 72.90625 
L 55.078125 72.90625 
L 55.078125 68.703125 
L 28.609375 0 
L 18.3125 0 
L 43.21875 64.59375 
L 8.203125 64.59375 
z
" id="DejaVuSans-55"/>
      </defs>
      <g transform="translate(189.827468 322.182437)scale(0.1 -0.1)">
       <use xlink:href="#DejaVuSans-55"/>
       <use x="63.623047" xlink:href="#DejaVuSans-53"/>
      </g>
     </g>
    </g>
    <g id="xtick_5">
     <g id="line2d_5">
      <g>
       <use style="stroke:#000000;stroke-width:0.8;" x="236.975715" xlink:href="#m400a990143" y="307.584"/>
      </g>
     </g>
     <g id="text_5">
      <!-- 100 -->
      <defs>
       <path d="M 12.40625 8.296875 
L 28.515625 8.296875 
L 28.515625 63.921875 
L 10.984375 60.40625 
L 10.984375 69.390625 
L 28.421875 72.90625 
L 38.28125 72.90625 
L 38.28125 8.296875 
L 54.390625 8.296875 
L 54.390625 0 
L 12.40625 0 
z
" id="DejaVuSans-49"/>
      </defs>
      <g transform="translate(227.431965 322.182437)scale(0.1 -0.1)">
       <use xlink:href="#DejaVuSans-49"/>
       <use x="63.623047" xlink:href="#DejaVuSans-48"/>
       <use x="127.246094" xlink:href="#DejaVuSans-48"/>
      </g>
     </g>
    </g>
    <g id="xtick_6">
     <g id="line2d_6">
      <g>
       <use style="stroke:#000000;stroke-width:0.8;" x="277.761462" xlink:href="#m400a990143" y="307.584"/>
      </g>
     </g>
     <g id="text_6">
      <!-- 125 -->
      <g transform="translate(268.217712 322.182437)scale(0.1 -0.1)">
       <use xlink:href="#DejaVuSans-49"/>
       <use x="63.623047" xlink:href="#DejaVuSans-50"/>
       <use x="127.246094" xlink:href="#DejaVuSans-53"/>
      </g>
     </g>
    </g>
    <g id="xtick_7">
     <g id="line2d_7">
      <g>
       <use style="stroke:#000000;stroke-width:0.8;" x="318.547209" xlink:href="#m400a990143" y="307.584"/>
      </g>
     </g>
     <g id="text_7">
      <!-- 150 -->
      <g transform="translate(309.003459 322.182437)scale(0.1 -0.1)">
       <use xlink:href="#DejaVuSans-49"/>
       <use x="63.623047" xlink:href="#DejaVuSans-53"/>
       <use x="127.246094" xlink:href="#DejaVuSans-48"/>
      </g>
     </g>
    </g>
    <g id="xtick_8">
     <g id="line2d_8">
      <g>
       <use style="stroke:#000000;stroke-width:0.8;" x="359.332956" xlink:href="#m400a990143" y="307.584"/>
      </g>
     </g>
     <g id="text_8">
      <!-- 175 -->
      <g transform="translate(349.789206 322.182437)scale(0.1 -0.1)">
       <use xlink:href="#DejaVuSans-49"/>
       <use x="63.623047" xlink:href="#DejaVuSans-55"/>
       <use x="127.246094" xlink:href="#DejaVuSans-53"/>
      </g>
     </g>
    </g>
    <g id="xtick_9">
     <g id="line2d_9">
      <g>
       <use style="stroke:#000000;stroke-width:0.8;" x="400.118703" xlink:href="#m400a990143" y="307.584"/>
      </g>
     </g>
     <g id="text_9">
      <!-- 200 -->
      <g transform="translate(390.574953 322.182437)scale(0.1 -0.1)">
       <use xlink:href="#DejaVuSans-50"/>
       <use x="63.623047" xlink:href="#DejaVuSans-48"/>
       <use x="127.246094" xlink:href="#DejaVuSans-48"/>
      </g>
     </g>
    </g>
   </g>
   <g id="matplotlib.axis_2">
    <g id="ytick_1">
     <g id="line2d_10">
      <defs>
       <path d="M 0 0 
L -3.5 0 
" id="mb33911a20f" style="stroke:#000000;stroke-width:0.8;"/>
      </defs>
      <g>
       <use style="stroke:#000000;stroke-width:0.8;" x="57.6" xlink:href="#mb33911a20f" y="295.488"/>
      </g>
     </g>
     <g id="text_10">
      <!-- 0.0 -->
      <defs>
       <path d="M 10.6875 12.40625 
L 21 12.40625 
L 21 0 
L 10.6875 0 
z
" id="DejaVuSans-46"/>
      </defs>
      <g transform="translate(34.696875 299.287219)scale(0.1 -0.1)">
       <use xlink:href="#DejaVuSans-48"/>
       <use x="63.623047" xlink:href="#DejaVuSans-46"/>
       <use x="95.410156" xlink:href="#DejaVuSans-48"/>
      </g>
     </g>
    </g>
    <g id="ytick_2">
     <g id="line2d_11">
      <g>
       <use style="stroke:#000000;stroke-width:0.8;" x="57.6" xlink:href="#mb33911a20f" y="243.648"/>
      </g>
     </g>
     <g id="text_11">
      <!-- 0.2 -->
      <g transform="translate(34.696875 247.447219)scale(0.1 -0.1)">
       <use xlink:href="#DejaVuSans-48"/>
       <use x="63.623047" xlink:href="#DejaVuSans-46"/>
       <use x="95.410156" xlink:href="#DejaVuSans-50"/>
      </g>
     </g>
    </g>
    <g id="ytick_3">
     <g id="line2d_12">
      <g>
       <use style="stroke:#000000;stroke-width:0.8;" x="57.6" xlink:href="#mb33911a20f" y="191.808"/>
      </g>
     </g>
     <g id="text_12">
      <!-- 0.4 -->
      <defs>
       <path d="M 37.796875 64.3125 
L 12.890625 25.390625 
L 37.796875 25.390625 
z
M 35.203125 72.90625 
L 47.609375 72.90625 
L 47.609375 25.390625 
L 58.015625 25.390625 
L 58.015625 17.1875 
L 47.609375 17.1875 
L 47.609375 0 
L 37.796875 0 
L 37.796875 17.1875 
L 4.890625 17.1875 
L 4.890625 26.703125 
z
" id="DejaVuSans-52"/>
      </defs>
      <g transform="translate(34.696875 195.607219)scale(0.1 -0.1)">
       <use xlink:href="#DejaVuSans-48"/>
       <use x="63.623047" xlink:href="#DejaVuSans-46"/>
       <use x="95.410156" xlink:href="#DejaVuSans-52"/>
      </g>
     </g>
    </g>
    <g id="ytick_4">
     <g id="line2d_13">
      <g>
       <use style="stroke:#000000;stroke-width:0.8;" x="57.6" xlink:href="#mb33911a20f" y="139.968"/>
      </g>
     </g>
     <g id="text_13">
      <!-- 0.6 -->
      <defs>
       <path d="M 33.015625 40.375 
Q 26.375 40.375 22.484375 35.828125 
Q 18.609375 31.296875 18.609375 23.390625 
Q 18.609375 15.53125 22.484375 10.953125 
Q 26.375 6.390625 33.015625 6.390625 
Q 39.65625 6.390625 43.53125 10.953125 
Q 47.40625 15.53125 47.40625 23.390625 
Q 47.40625 31.296875 43.53125 35.828125 
Q 39.65625 40.375 33.015625 40.375 
z
M 52.59375 71.296875 
L 52.59375 62.3125 
Q 48.875 64.0625 45.09375 64.984375 
Q 41.3125 65.921875 37.59375 65.921875 
Q 27.828125 65.921875 22.671875 59.328125 
Q 17.53125 52.734375 16.796875 39.40625 
Q 19.671875 43.65625 24.015625 45.921875 
Q 28.375 48.1875 33.59375 48.1875 
Q 44.578125 48.1875 50.953125 41.515625 
Q 57.328125 34.859375 57.328125 23.390625 
Q 57.328125 12.15625 50.6875 5.359375 
Q 44.046875 -1.421875 33.015625 -1.421875 
Q 20.359375 -1.421875 13.671875 8.265625 
Q 6.984375 17.96875 6.984375 36.375 
Q 6.984375 53.65625 15.1875 63.9375 
Q 23.390625 74.21875 37.203125 74.21875 
Q 40.921875 74.21875 44.703125 73.484375 
Q 48.484375 72.75 52.59375 71.296875 
z
" id="DejaVuSans-54"/>
      </defs>
      <g transform="translate(34.696875 143.767219)scale(0.1 -0.1)">
       <use xlink:href="#DejaVuSans-48"/>
       <use x="63.623047" xlink:href="#DejaVuSans-46"/>
       <use x="95.410156" xlink:href="#DejaVuSans-54"/>
      </g>
     </g>
    </g>
    <g id="ytick_5">
     <g id="line2d_14">
      <g>
       <use style="stroke:#000000;stroke-width:0.8;" x="57.6" xlink:href="#mb33911a20f" y="88.128"/>
      </g>
     </g>
     <g id="text_14">
      <!-- 0.8 -->
      <defs>
       <path d="M 31.78125 34.625 
Q 24.75 34.625 20.71875 30.859375 
Q 16.703125 27.09375 16.703125 20.515625 
Q 16.703125 13.921875 20.71875 10.15625 
Q 24.75 6.390625 31.78125 6.390625 
Q 38.8125 6.390625 42.859375 10.171875 
Q 46.921875 13.96875 46.921875 20.515625 
Q 46.921875 27.09375 42.890625 30.859375 
Q 38.875 34.625 31.78125 34.625 
z
M 21.921875 38.8125 
Q 15.578125 40.375 12.03125 44.71875 
Q 8.5 49.078125 8.5 55.328125 
Q 8.5 64.0625 14.71875 69.140625 
Q 20.953125 74.21875 31.78125 74.21875 
Q 42.671875 74.21875 48.875 69.140625 
Q 55.078125 64.0625 55.078125 55.328125 
Q 55.078125 49.078125 51.53125 44.71875 
Q 48 40.375 41.703125 38.8125 
Q 48.828125 37.15625 52.796875 32.3125 
Q 56.78125 27.484375 56.78125 20.515625 
Q 56.78125 9.90625 50.3125 4.234375 
Q 43.84375 -1.421875 31.78125 -1.421875 
Q 19.734375 -1.421875 13.25 4.234375 
Q 6.78125 9.90625 6.78125 20.515625 
Q 6.78125 27.484375 10.78125 32.3125 
Q 14.796875 37.15625 21.921875 38.8125 
z
M 18.3125 54.390625 
Q 18.3125 48.734375 21.84375 45.5625 
Q 25.390625 42.390625 31.78125 42.390625 
Q 38.140625 42.390625 41.71875 45.5625 
Q 45.3125 48.734375 45.3125 54.390625 
Q 45.3125 60.0625 41.71875 63.234375 
Q 38.140625 66.40625 31.78125 66.40625 
Q 25.390625 66.40625 21.84375 63.234375 
Q 18.3125 60.0625 18.3125 54.390625 
z
" id="DejaVuSans-56"/>
      </defs>
      <g transform="translate(34.696875 91.927219)scale(0.1 -0.1)">
       <use xlink:href="#DejaVuSans-48"/>
       <use x="63.623047" xlink:href="#DejaVuSans-46"/>
       <use x="95.410156" xlink:href="#DejaVuSans-56"/>
      </g>
     </g>
    </g>
   </g>
   <g id="line2d_15">
    <path clip-path="url(#p7401142604)" d="M 73.832727 209.088 
L 214.135697 209.088 
L 215.767127 186.826423 
L 217.398556 208.7424 
L 219.029986 187.849309 
L 220.661416 191.808 
L 222.292846 208.7424 
L 223.924276 209.088 
L 225.555706 208.7424 
L 227.187136 191.808 
L 230.449995 191.808 
L 232.081425 180.913745 
L 233.712855 166.5792 
L 235.344285 209.088 
L 236.975715 174.528 
L 238.607145 209.088 
L 240.238575 194.7456 
L 241.870005 175.5648 
L 243.501434 191.808 
L 245.132864 188.352 
L 246.764294 163.9872 
L 248.395724 173.61216 
L 250.027154 191.808 
L 251.658584 170.0352 
L 253.290014 158.886982 
L 254.921444 191.808 
L 256.552873 158.842697 
L 258.184303 175.2192 
L 259.815733 176.92992 
L 261.447163 193.7088 
L 263.078593 182.869527 
L 264.710023 192.4992 
L 266.341453 168.9984 
L 267.972883 176.4288 
L 269.604312 199.2384 
L 271.235742 201.4848 
L 272.867172 156.9024 
L 274.498602 191.808 
L 276.130032 193.536 
L 277.761462 175.841673 
L 279.392892 191.808 
L 281.024322 186.380509 
L 282.655751 168.9984 
L 284.287181 161.7408 
L 285.918611 179.44416 
L 287.550041 185.76 
L 289.181471 169.344 
L 290.812901 183.8592 
L 292.444331 185.6376 
L 294.075761 185.912064 
L 295.70719 185.204173 
L 297.33862 184.005 
L 298.97005 196.4736 
L 300.60148 189.7344 
L 302.23291 180.576 
L 303.86434 177.439269 
L 305.49577 188.5248 
L 307.1272 186.9696 
L 308.75863 188.1792 
L 310.390059 176.0832 
L 312.021489 175.0464 
L 313.652919 140.1408 
L 315.284349 177.074922 
L 316.915779 178.355336 
L 318.547209 179.3664 
L 320.178639 164.6784 
L 321.810069 185.420571 
L 323.441498 136.6848 
L 325.072928 189.7344 
L 326.704358 182.6496 
L 328.335788 193.3632 
L 329.967218 180.1728 
L 331.598648 176.9472 
L 333.230078 175.7376 
L 334.861508 185.465829 
L 336.492937 158.2848 
L 338.124367 178.5024 
L 339.755797 178.6752 
L 341.387227 180.0576 
L 343.018657 178.3296 
L 344.650087 174.528 
L 346.281517 176.9472 
L 347.912947 190.4256 
L 349.544376 183.8592 
L 351.175806 185.9328 
L 352.807236 195.6096 
L 354.438666 180.682338 
L 356.070096 175.7664 
L 357.701526 174.528 
L 359.332956 197.3376 
L 360.964386 196.128 
L 362.595815 190.08 
L 364.227245 190.08 
L 365.858675 190.250296 
L 367.490105 176.0832 
L 369.121535 146.3616 
L 370.752965 188.6976 
L 372.384395 182.304 
L 374.015825 180.0576 
L 375.647254 167.142678 
L 378.910114 199.0656 
L 380.541544 183.168 
L 382.172974 201.312 
L 383.804404 178.1568 
L 385.435834 167.184 
L 387.067264 203.904 
L 388.698693 165.024 
L 390.330123 170.7264 
L 391.961553 162.6048 
L 393.592983 192.1536 
L 395.224413 179.3664 
L 396.855843 160.8768 
L 398.487273 191.808 
L 398.487273 191.808 
" style="fill:none;stroke:#1f77b4;stroke-linecap:square;stroke-width:0.25;"/>
   </g>
   <g id="line2d_16">
    <path clip-path="url(#p7401142604)" d="M 73.832727 209.088 
L 201.084258 209.088 
L 202.715688 209.257344 
L 205.978547 208.866816 
L 207.609977 207.404928 
L 209.241407 206.407872 
L 210.872837 205.997151 
L 212.504267 199.593069 
L 214.135697 197.86428 
L 215.767127 186.524023 
L 217.398556 192.995116 
L 219.029986 187.322487 
L 220.661416 191.45518 
L 222.292846 191.569968 
L 223.924276 194.533583 
L 225.555706 191.978228 
L 227.187136 191.003356 
L 228.818566 190.822139 
L 230.449995 188.060897 
L 232.081425 177.441547 
L 233.712855 179.896536 
L 235.344285 190.453947 
L 236.975715 172.324076 
L 238.607145 195.708135 
L 240.238575 187.698092 
L 241.870005 181.829295 
L 243.501434 183.523597 
L 245.132864 182.900324 
L 246.764294 173.277046 
L 248.395724 175.442093 
L 250.027154 188.139689 
L 251.658584 174.158039 
L 253.290014 176.01665 
L 254.921444 185.659336 
L 256.552873 173.069611 
L 258.184303 180.30122 
L 259.815733 179.24159 
L 261.447163 194.434059 
L 263.078593 183.570858 
L 264.710023 196.708698 
L 266.341453 173.807104 
L 267.972883 180.611518 
L 269.604312 197.628944 
L 271.235742 196.263257 
L 272.867172 166.486956 
L 274.498602 186.092222 
L 276.130032 194.276309 
L 277.761462 180.089053 
L 279.392892 189.772541 
L 281.024322 187.831531 
L 282.655751 168.750029 
L 284.287181 173.22219 
L 285.918611 171.851805 
L 287.550041 184.481178 
L 289.181471 168.028121 
L 290.812901 180.743899 
L 292.444331 183.168888 
L 294.075761 176.973521 
L 295.70719 178.790591 
L 297.33862 177.082772 
L 298.97005 189.36384 
L 300.60148 176.172339 
L 302.23291 175.569626 
L 303.86434 176.277562 
L 305.49577 183.307604 
L 307.1272 183.271817 
L 308.75863 181.047372 
L 310.390059 168.657884 
L 312.021489 170.149416 
L 313.652919 151.709352 
L 315.284349 177.516529 
L 316.915779 177.631601 
L 318.547209 175.849155 
L 320.178639 167.570897 
L 321.810069 181.813705 
L 323.441498 144.789739 
L 325.072928 188.050386 
L 326.704358 175.381029 
L 328.335788 183.140524 
L 329.967218 172.240355 
L 331.598648 165.783997 
L 333.230078 174.915066 
L 334.861508 171.393305 
L 336.492937 159.213214 
L 338.124367 173.4463 
L 339.755797 168.117469 
L 341.387227 179.689404 
L 343.018657 179.232546 
L 344.650087 167.936556 
L 346.281517 178.868651 
L 347.912947 181.996411 
L 349.544376 179.125659 
L 351.175806 182.233757 
L 352.807236 191.082893 
L 354.438666 176.797201 
L 356.070096 170.341757 
L 357.701526 171.829677 
L 359.332956 180.226271 
L 360.964386 178.610794 
L 362.595815 179.91409 
L 364.227245 177.651499 
L 365.858675 173.592932 
L 367.490105 176.728483 
L 369.121535 166.11062 
L 370.752965 187.12739 
L 372.384395 178.362316 
L 374.015825 176.866652 
L 375.647254 160.803824 
L 377.278684 179.205835 
L 378.910114 188.373873 
L 380.541544 179.273044 
L 382.172974 192.012143 
L 383.804404 175.63915 
L 385.435834 154.176532 
L 387.067264 189.333834 
L 388.698693 166.053947 
L 390.330123 174.37891 
L 391.961553 161.285512 
L 393.592983 180.51838 
L 395.224413 176.814947 
L 396.855843 163.273457 
L 398.487273 186.526458 
L 398.487273 186.526458 
" style="fill:none;stroke:#2ca02c;stroke-linecap:square;stroke-width:0.75;"/>
   </g>
   <g id="patch_3">
    <path d="M 57.6 307.584 
L 57.6 41.472 
" style="fill:none;stroke:#000000;stroke-linecap:square;stroke-linejoin:miter;stroke-width:0.8;"/>
   </g>
   <g id="patch_4">
    <path d="M 414.72 307.584 
L 414.72 41.472 
" style="fill:none;stroke:#000000;stroke-linecap:square;stroke-linejoin:miter;stroke-width:0.8;"/>
   </g>
   <g id="patch_5">
    <path d="M 57.6 307.584 
L 414.72 307.584 
" style="fill:none;stroke:#000000;stroke-linecap:square;stroke-linejoin:miter;stroke-width:0.8;"/>
   </g>
   <g id="patch_6">
    <path d="M 57.6 41.472 
L 414.72 41.472 
" style="fill:none;stroke:#000000;stroke-linecap:square;stroke-linejoin:miter;stroke-width:0.8;"/>
   </g>
   <g id="legend_1">
    <g id="patch_7">
     <path d="M 338.234063 78.82825 
L 407.72 78.82825 
Q 409.72 78.82825 409.72 76.82825 
L 409.72 48.472 
Q 409.72 46.472 407.72 46.472 
L 338.234063 46.472 
Q 336.234063 46.472 336.234063 48.472 
L 336.234063 76.82825 
Q 336.234063 78.82825 338.234063 78.82825 
z
" style="fill:#ffffff;opacity:0.8;stroke:#cccccc;stroke-linejoin:miter;"/>
    </g>
    <g id="line2d_17">
     <path d="M 340.234063 54.570437 
L 360.234063 54.570437 
" style="fill:none;stroke:#1f77b4;stroke-linecap:square;stroke-width:0.25;"/>
    </g>
    <g id="line2d_18"/>
    <g id="text_15">
     <!-- median -->
     <defs>
      <path d="M 52 44.1875 
Q 55.375 50.25 60.0625 53.125 
Q 64.75 56 71.09375 56 
Q 79.640625 56 84.28125 50.015625 
Q 88.921875 44.046875 88.921875 33.015625 
L 88.921875 0 
L 79.890625 0 
L 79.890625 32.71875 
Q 79.890625 40.578125 77.09375 44.375 
Q 74.3125 48.1875 68.609375 48.1875 
Q 61.625 48.1875 57.5625 43.546875 
Q 53.515625 38.921875 53.515625 30.90625 
L 53.515625 0 
L 44.484375 0 
L 44.484375 32.71875 
Q 44.484375 40.625 41.703125 44.40625 
Q 38.921875 48.1875 33.109375 48.1875 
Q 26.21875 48.1875 22.15625 43.53125 
Q 18.109375 38.875 18.109375 30.90625 
L 18.109375 0 
L 9.078125 0 
L 9.078125 54.6875 
L 18.109375 54.6875 
L 18.109375 46.1875 
Q 21.1875 51.21875 25.484375 53.609375 
Q 29.78125 56 35.6875 56 
Q 41.65625 56 45.828125 52.96875 
Q 50 49.953125 52 44.1875 
z
" id="DejaVuSans-109"/>
      <path d="M 56.203125 29.59375 
L 56.203125 25.203125 
L 14.890625 25.203125 
Q 15.484375 15.921875 20.484375 11.0625 
Q 25.484375 6.203125 34.421875 6.203125 
Q 39.59375 6.203125 44.453125 7.46875 
Q 49.3125 8.734375 54.109375 11.28125 
L 54.109375 2.78125 
Q 49.265625 0.734375 44.1875 -0.34375 
Q 39.109375 -1.421875 33.890625 -1.421875 
Q 20.796875 -1.421875 13.15625 6.1875 
Q 5.515625 13.8125 5.515625 26.8125 
Q 5.515625 40.234375 12.765625 48.109375 
Q 20.015625 56 32.328125 56 
Q 43.359375 56 49.78125 48.890625 
Q 56.203125 41.796875 56.203125 29.59375 
z
M 47.21875 32.234375 
Q 47.125 39.59375 43.09375 43.984375 
Q 39.0625 48.390625 32.421875 48.390625 
Q 24.90625 48.390625 20.390625 44.140625 
Q 15.875 39.890625 15.1875 32.171875 
z
" id="DejaVuSans-101"/>
      <path d="M 45.40625 46.390625 
L 45.40625 75.984375 
L 54.390625 75.984375 
L 54.390625 0 
L 45.40625 0 
L 45.40625 8.203125 
Q 42.578125 3.328125 38.25 0.953125 
Q 33.9375 -1.421875 27.875 -1.421875 
Q 17.96875 -1.421875 11.734375 6.484375 
Q 5.515625 14.40625 5.515625 27.296875 
Q 5.515625 40.1875 11.734375 48.09375 
Q 17.96875 56 27.875 56 
Q 33.9375 56 38.25 53.625 
Q 42.578125 51.265625 45.40625 46.390625 
z
M 14.796875 27.296875 
Q 14.796875 17.390625 18.875 11.75 
Q 22.953125 6.109375 30.078125 6.109375 
Q 37.203125 6.109375 41.296875 11.75 
Q 45.40625 17.390625 45.40625 27.296875 
Q 45.40625 37.203125 41.296875 42.84375 
Q 37.203125 48.484375 30.078125 48.484375 
Q 22.953125 48.484375 18.875 42.84375 
Q 14.796875 37.203125 14.796875 27.296875 
z
" id="DejaVuSans-100"/>
      <path d="M 9.421875 54.6875 
L 18.40625 54.6875 
L 18.40625 0 
L 9.421875 0 
z
M 9.421875 75.984375 
L 18.40625 75.984375 
L 18.40625 64.59375 
L 9.421875 64.59375 
z
" id="DejaVuSans-105"/>
      <path d="M 34.28125 27.484375 
Q 23.390625 27.484375 19.1875 25 
Q 14.984375 22.515625 14.984375 16.5 
Q 14.984375 11.71875 18.140625 8.90625 
Q 21.296875 6.109375 26.703125 6.109375 
Q 34.1875 6.109375 38.703125 11.40625 
Q 43.21875 16.703125 43.21875 25.484375 
L 43.21875 27.484375 
z
M 52.203125 31.203125 
L 52.203125 0 
L 43.21875 0 
L 43.21875 8.296875 
Q 40.140625 3.328125 35.546875 0.953125 
Q 30.953125 -1.421875 24.3125 -1.421875 
Q 15.921875 -1.421875 10.953125 3.296875 
Q 6 8.015625 6 15.921875 
Q 6 25.140625 12.171875 29.828125 
Q 18.359375 34.515625 30.609375 34.515625 
L 43.21875 34.515625 
L 43.21875 35.40625 
Q 43.21875 41.609375 39.140625 45 
Q 35.0625 48.390625 27.6875 48.390625 
Q 23 48.390625 18.546875 47.265625 
Q 14.109375 46.140625 10.015625 43.890625 
L 10.015625 52.203125 
Q 14.9375 54.109375 19.578125 55.046875 
Q 24.21875 56 28.609375 56 
Q 40.484375 56 46.34375 49.84375 
Q 52.203125 43.703125 52.203125 31.203125 
z
" id="DejaVuSans-97"/>
      <path d="M 54.890625 33.015625 
L 54.890625 0 
L 45.90625 0 
L 45.90625 32.71875 
Q 45.90625 40.484375 42.875 44.328125 
Q 39.84375 48.1875 33.796875 48.1875 
Q 26.515625 48.1875 22.3125 43.546875 
Q 18.109375 38.921875 18.109375 30.90625 
L 18.109375 0 
L 9.078125 0 
L 9.078125 54.6875 
L 18.109375 54.6875 
L 18.109375 46.1875 
Q 21.34375 51.125 25.703125 53.5625 
Q 30.078125 56 35.796875 56 
Q 45.21875 56 50.046875 50.171875 
Q 54.890625 44.34375 54.890625 33.015625 
z
" id="DejaVuSans-110"/>
     </defs>
     <g transform="translate(368.234063 58.070437)scale(0.1 -0.1)">
      <use xlink:href="#DejaVuSans-109"/>
      <use x="97.412109" xlink:href="#DejaVuSans-101"/>
      <use x="158.935547" xlink:href="#DejaVuSans-100"/>
      <use x="222.412109" xlink:href="#DejaVuSans-105"/>
      <use x="250.195312" xlink:href="#DejaVuSans-97"/>
      <use x="311.474609" xlink:href="#DejaVuSans-110"/>
     </g>
    </g>
    <g id="line2d_19">
     <path d="M 340.234063 69.248562 
L 360.234063 69.248562 
" style="fill:none;stroke:#2ca02c;stroke-linecap:square;stroke-width:0.75;"/>
    </g>
    <g id="line2d_20"/>
    <g id="text_16">
     <!-- mean -->
     <g transform="translate(368.234063 72.748562)scale(0.1 -0.1)">
      <use xlink:href="#DejaVuSans-109"/>
      <use x="97.412109" xlink:href="#DejaVuSans-101"/>
      <use x="158.935547" xlink:href="#DejaVuSans-97"/>
      <use x="220.214844" xlink:href="#DejaVuSans-110"/>
     </g>
    </g>
   </g>
  </g>
  <g id="text_17">
   <!-- accuracy.mean over generations -->
   <defs>
    <path d="M 48.78125 52.59375 
L 48.78125 44.1875 
Q 44.96875 46.296875 41.140625 47.34375 
Q 37.3125 48.390625 33.40625 48.390625 
Q 24.65625 48.390625 19.8125 42.84375 
Q 14.984375 37.3125 14.984375 27.296875 
Q 14.984375 17.28125 19.8125 11.734375 
Q 24.65625 6.203125 33.40625 6.203125 
Q 37.3125 6.203125 41.140625 7.25 
Q 44.96875 8.296875 48.78125 10.40625 
L 48.78125 2.09375 
Q 45.015625 0.34375 40.984375 -0.53125 
Q 36.96875 -1.421875 32.421875 -1.421875 
Q 20.0625 -1.421875 12.78125 6.34375 
Q 5.515625 14.109375 5.515625 27.296875 
Q 5.515625 40.671875 12.859375 48.328125 
Q 20.21875 56 33.015625 56 
Q 37.15625 56 41.109375 55.140625 
Q 45.0625 54.296875 48.78125 52.59375 
z
" id="DejaVuSans-99"/>
    <path d="M 8.5 21.578125 
L 8.5 54.6875 
L 17.484375 54.6875 
L 17.484375 21.921875 
Q 17.484375 14.15625 20.5 10.265625 
Q 23.53125 6.390625 29.59375 6.390625 
Q 36.859375 6.390625 41.078125 11.03125 
Q 45.3125 15.671875 45.3125 23.6875 
L 45.3125 54.6875 
L 54.296875 54.6875 
L 54.296875 0 
L 45.3125 0 
L 45.3125 8.40625 
Q 42.046875 3.421875 37.71875 1 
Q 33.40625 -1.421875 27.6875 -1.421875 
Q 18.265625 -1.421875 13.375 4.4375 
Q 8.5 10.296875 8.5 21.578125 
z
M 31.109375 56 
z
" id="DejaVuSans-117"/>
    <path d="M 41.109375 46.296875 
Q 39.59375 47.171875 37.8125 47.578125 
Q 36.03125 48 33.890625 48 
Q 26.265625 48 22.1875 43.046875 
Q 18.109375 38.09375 18.109375 28.8125 
L 18.109375 0 
L 9.078125 0 
L 9.078125 54.6875 
L 18.109375 54.6875 
L 18.109375 46.1875 
Q 20.953125 51.171875 25.484375 53.578125 
Q 30.03125 56 36.53125 56 
Q 37.453125 56 38.578125 55.875 
Q 39.703125 55.765625 41.0625 55.515625 
z
" id="DejaVuSans-114"/>
    <path d="M 32.171875 -5.078125 
Q 28.375 -14.84375 24.75 -17.8125 
Q 21.140625 -20.796875 15.09375 -20.796875 
L 7.90625 -20.796875 
L 7.90625 -13.28125 
L 13.1875 -13.28125 
Q 16.890625 -13.28125 18.9375 -11.515625 
Q 21 -9.765625 23.484375 -3.21875 
L 25.09375 0.875 
L 2.984375 54.6875 
L 12.5 54.6875 
L 29.59375 11.921875 
L 46.6875 54.6875 
L 56.203125 54.6875 
z
" id="DejaVuSans-121"/>
    <path id="DejaVuSans-32"/>
    <path d="M 30.609375 48.390625 
Q 23.390625 48.390625 19.1875 42.75 
Q 14.984375 37.109375 14.984375 27.296875 
Q 14.984375 17.484375 19.15625 11.84375 
Q 23.34375 6.203125 30.609375 6.203125 
Q 37.796875 6.203125 41.984375 11.859375 
Q 46.1875 17.53125 46.1875 27.296875 
Q 46.1875 37.015625 41.984375 42.703125 
Q 37.796875 48.390625 30.609375 48.390625 
z
M 30.609375 56 
Q 42.328125 56 49.015625 48.375 
Q 55.71875 40.765625 55.71875 27.296875 
Q 55.71875 13.875 49.015625 6.21875 
Q 42.328125 -1.421875 30.609375 -1.421875 
Q 18.84375 -1.421875 12.171875 6.21875 
Q 5.515625 13.875 5.515625 27.296875 
Q 5.515625 40.765625 12.171875 48.375 
Q 18.84375 56 30.609375 56 
z
" id="DejaVuSans-111"/>
    <path d="M 2.984375 54.6875 
L 12.5 54.6875 
L 29.59375 8.796875 
L 46.6875 54.6875 
L 56.203125 54.6875 
L 35.6875 0 
L 23.484375 0 
z
" id="DejaVuSans-118"/>
    <path d="M 45.40625 27.984375 
Q 45.40625 37.75 41.375 43.109375 
Q 37.359375 48.484375 30.078125 48.484375 
Q 22.859375 48.484375 18.828125 43.109375 
Q 14.796875 37.75 14.796875 27.984375 
Q 14.796875 18.265625 18.828125 12.890625 
Q 22.859375 7.515625 30.078125 7.515625 
Q 37.359375 7.515625 41.375 12.890625 
Q 45.40625 18.265625 45.40625 27.984375 
z
M 54.390625 6.78125 
Q 54.390625 -7.171875 48.1875 -13.984375 
Q 42 -20.796875 29.203125 -20.796875 
Q 24.46875 -20.796875 20.265625 -20.09375 
Q 16.0625 -19.390625 12.109375 -17.921875 
L 12.109375 -9.1875 
Q 16.0625 -11.328125 19.921875 -12.34375 
Q 23.78125 -13.375 27.78125 -13.375 
Q 36.625 -13.375 41.015625 -8.765625 
Q 45.40625 -4.15625 45.40625 5.171875 
L 45.40625 9.625 
Q 42.625 4.78125 38.28125 2.390625 
Q 33.9375 0 27.875 0 
Q 17.828125 0 11.671875 7.65625 
Q 5.515625 15.328125 5.515625 27.984375 
Q 5.515625 40.671875 11.671875 48.328125 
Q 17.828125 56 27.875 56 
Q 33.9375 56 38.28125 53.609375 
Q 42.625 51.21875 45.40625 46.390625 
L 45.40625 54.6875 
L 54.390625 54.6875 
z
" id="DejaVuSans-103"/>
    <path d="M 18.3125 70.21875 
L 18.3125 54.6875 
L 36.8125 54.6875 
L 36.8125 47.703125 
L 18.3125 47.703125 
L 18.3125 18.015625 
Q 18.3125 11.328125 20.140625 9.421875 
Q 21.96875 7.515625 27.59375 7.515625 
L 36.8125 7.515625 
L 36.8125 0 
L 27.59375 0 
Q 17.1875 0 13.234375 3.875 
Q 9.28125 7.765625 9.28125 18.015625 
L 9.28125 47.703125 
L 2.6875 47.703125 
L 2.6875 54.6875 
L 9.28125 54.6875 
L 9.28125 70.21875 
z
" id="DejaVuSans-116"/>
    <path d="M 44.28125 53.078125 
L 44.28125 44.578125 
Q 40.484375 46.53125 36.375 47.5 
Q 32.28125 48.484375 27.875 48.484375 
Q 21.1875 48.484375 17.84375 46.4375 
Q 14.5 44.390625 14.5 40.28125 
Q 14.5 37.15625 16.890625 35.375 
Q 19.28125 33.59375 26.515625 31.984375 
L 29.59375 31.296875 
Q 39.15625 29.25 43.1875 25.515625 
Q 47.21875 21.78125 47.21875 15.09375 
Q 47.21875 7.46875 41.1875 3.015625 
Q 35.15625 -1.421875 24.609375 -1.421875 
Q 20.21875 -1.421875 15.453125 -0.5625 
Q 10.6875 0.296875 5.421875 2 
L 5.421875 11.28125 
Q 10.40625 8.6875 15.234375 7.390625 
Q 20.0625 6.109375 24.8125 6.109375 
Q 31.15625 6.109375 34.5625 8.28125 
Q 37.984375 10.453125 37.984375 14.40625 
Q 37.984375 18.0625 35.515625 20.015625 
Q 33.0625 21.96875 24.703125 23.78125 
L 21.578125 24.515625 
Q 13.234375 26.265625 9.515625 29.90625 
Q 5.8125 33.546875 5.8125 39.890625 
Q 5.8125 47.609375 11.28125 51.796875 
Q 16.75 56 26.8125 56 
Q 31.78125 56 36.171875 55.265625 
Q 40.578125 54.546875 44.28125 53.078125 
z
" id="DejaVuSans-115"/>
   </defs>
   <g transform="translate(132.309375 16.030125)scale(0.12 -0.12)">
    <use xlink:href="#DejaVuSans-97"/>
    <use x="61.279297" xlink:href="#DejaVuSans-99"/>
    <use x="116.259766" xlink:href="#DejaVuSans-99"/>
    <use x="171.240234" xlink:href="#DejaVuSans-117"/>
    <use x="234.619141" xlink:href="#DejaVuSans-114"/>
    <use x="275.732422" xlink:href="#DejaVuSans-97"/>
    <use x="337.011719" xlink:href="#DejaVuSans-99"/>
    <use x="391.992188" xlink:href="#DejaVuSans-121"/>
    <use x="436.921875" xlink:href="#DejaVuSans-46"/>
    <use x="468.708984" xlink:href="#DejaVuSans-109"/>
    <use x="566.121094" xlink:href="#DejaVuSans-101"/>
    <use x="627.644531" xlink:href="#DejaVuSans-97"/>
    <use x="688.923828" xlink:href="#DejaVuSans-110"/>
    <use x="752.302734" xlink:href="#DejaVuSans-32"/>
    <use x="784.089844" xlink:href="#DejaVuSans-111"/>
    <use x="845.271484" xlink:href="#DejaVuSans-118"/>
    <use x="904.451172" xlink:href="#DejaVuSans-101"/>
    <use x="965.974609" xlink:href="#DejaVuSans-114"/>
    <use x="1007.087891" xlink:href="#DejaVuSans-32"/>
    <use x="1038.875" xlink:href="#DejaVuSans-103"/>
    <use x="1102.351562" xlink:href="#DejaVuSans-101"/>
    <use x="1163.875" xlink:href="#DejaVuSans-110"/>
    <use x="1227.253906" xlink:href="#DejaVuSans-101"/>
    <use x="1288.777344" xlink:href="#DejaVuSans-114"/>
    <use x="1329.890625" xlink:href="#DejaVuSans-97"/>
    <use x="1391.169922" xlink:href="#DejaVuSans-116"/>
    <use x="1430.378906" xlink:href="#DejaVuSans-105"/>
    <use x="1458.162109" xlink:href="#DejaVuSans-111"/>
    <use x="1519.34375" xlink:href="#DejaVuSans-110"/>
    <use x="1582.722656" xlink:href="#DejaVuSans-115"/>
   </g>
  </g>
 </g>
 <defs>
  <clipPath id="p7401142604">
   <rect height="266.112" width="357.12" x="57.6" y="41.472"/>
  </clipPath>
 </defs>
</svg>
