<?xml version="1.0" encoding="utf-8" standalone="no"?>
<!DOCTYPE svg PUBLIC "-//W3C//DTD SVG 1.1//EN"
  "http://www.w3.org/Graphics/SVG/1.1/DTD/svg11.dtd">
<!-- Created with matplotlib (https://matplotlib.org/) -->
<svg height="345.6pt" version="1.1" viewBox="0 0 460.8 345.6" width="460.8pt" xmlns="http://www.w3.org/2000/svg" xmlns:xlink="http://www.w3.org/1999/xlink">
 <defs>
  <style type="text/css">
*{stroke-linecap:butt;stroke-linejoin:round;}
  </style>
 </defs>
 <g id="figure_1">
  <g id="patch_1">
   <path d="M 0 345.6 
L 460.8 345.6 
L 460.8 0 
L 0 0 
z
" style="fill:#ffffff;"/>
  </g>
  <g id="axes_1">
   <g id="patch_2">
    <path d="M 57.6 307.584 
L 414.72 307.584 
L 414.72 41.472 
L 57.6 41.472 
z
" style="fill:#ffffff;"/>
   </g>
   <g id="PolyCollection_1">
    <path clip-path="url(#p93716bf4b5)" d="M 73.832727 287.519187 
L 73.832727 288.39043 
L 75.464157 288.39043 
L 77.095587 288.39043 
L 78.727017 288.39043 
L 80.358447 288.39043 
L 81.989877 288.39043 
L 83.621307 288.39043 
L 85.252736 288.39043 
L 86.884166 288.39043 
L 88.515596 288.39043 
L 90.147026 288.39043 
L 91.778456 288.39043 
L 93.409886 288.39043 
L 95.041316 288.39043 
L 96.672746 288.39043 
L 98.304175 288.39043 
L 99.935605 288.39043 
L 101.567035 288.39043 
L 103.198465 288.39043 
L 104.829895 288.39043 
L 106.461325 288.39043 
L 108.092755 288.39043 
L 109.724185 288.39043 
L 111.355614 288.39043 
L 112.987044 288.39043 
L 114.618474 288.39043 
L 116.249904 288.39043 
L 117.881334 288.39043 
L 119.512764 288.39043 
L 121.144194 288.39043 
L 122.775624 288.39043 
L 124.407053 288.39043 
L 126.038483 288.39043 
L 127.669913 288.39043 
L 129.301343 288.39043 
L 130.932773 288.39043 
L 132.564203 288.39043 
L 134.195633 288.39043 
L 135.827063 288.39043 
L 137.458492 288.39043 
L 139.089922 288.39043 
L 140.721352 288.39043 
L 142.352782 288.39043 
L 143.984212 288.39043 
L 145.615642 288.39043 
L 147.247072 288.39043 
L 148.878502 288.39043 
L 150.509931 288.39043 
L 152.141361 288.39043 
L 153.772791 288.39043 
L 155.404221 288.39043 
L 157.035651 288.39043 
L 158.667081 288.39043 
L 160.298511 288.39043 
L 161.929941 288.39043 
L 163.56137 288.39043 
L 165.1928 288.39043 
L 166.82423 288.39043 
L 168.45566 288.39043 
L 170.08709 288.39043 
L 171.71852 288.39043 
L 173.34995 288.39043 
L 174.98138 288.39043 
L 176.61281 288.39043 
L 178.244239 288.39043 
L 179.875669 288.39043 
L 181.507099 288.39043 
L 183.138529 288.39043 
L 184.769959 288.39043 
L 186.401389 288.39043 
L 188.032819 288.39043 
L 189.664249 288.39043 
L 191.295678 288.39043 
L 192.927108 288.39043 
L 194.558538 288.39043 
L 196.189968 288.39043 
L 197.821398 288.39043 
L 199.452828 288.39043 
L 201.084258 288.39043 
L 202.715688 288.39043 
L 204.347117 288.39043 
L 205.978547 288.39043 
L 207.609977 288.39043 
L 209.241407 288.39043 
L 210.872837 288.39043 
L 212.504267 288.39043 
L 214.135697 288.39043 
L 215.767127 288.39043 
L 217.398556 288.39043 
L 219.029986 288.622451 
L 220.661416 289.372313 
L 222.292846 289.375482 
L 223.924276 289.331356 
L 225.555706 289.305644 
L 227.187136 289.366729 
L 228.818566 289.352094 
L 230.449995 289.24569 
L 232.081425 289.196205 
L 233.712855 289.070482 
L 235.344285 289.076205 
L 236.975715 288.561346 
L 238.607145 288.018131 
L 240.238575 288.05875 
L 241.870005 289.107047 
L 243.501434 288.374512 
L 245.132864 289.83453 
L 246.764294 289.922911 
L 248.395724 289.386996 
L 250.027154 288.355565 
L 251.658584 287.814653 
L 253.290014 288.691413 
L 254.921444 289.235144 
L 256.552873 287.234394 
L 258.184303 289.069667 
L 259.815733 288.395818 
L 261.447163 289.989537 
L 263.078593 290.499063 
L 264.710023 290.026757 
L 266.341453 290.495679 
L 267.972883 291.280173 
L 269.604312 290.543025 
L 271.235742 290.604748 
L 272.867172 290.360251 
L 274.498602 290.688501 
L 276.130032 290.020388 
L 277.761462 289.081669 
L 279.392892 290.48243 
L 281.024322 290.186242 
L 282.655751 290.198496 
L 284.287181 290.50448 
L 285.918611 290.501684 
L 287.550041 288.906114 
L 289.181471 289.127935 
L 290.812901 288.838241 
L 292.444331 289.782304 
L 294.075761 287.34613 
L 295.70719 288.724776 
L 297.33862 289.487415 
L 298.97005 289.174338 
L 300.60148 289.976926 
L 302.23291 289.081064 
L 303.86434 289.440774 
L 305.49577 289.481208 
L 307.1272 289.061723 
L 308.75863 289.078848 
L 310.390059 289.664918 
L 312.021489 288.441111 
L 313.652919 289.226571 
L 315.284349 290.523149 
L 316.915779 289.609283 
L 318.547209 289.799309 
L 320.178639 290.689668 
L 321.810069 291.572546 
L 323.441498 290.498671 
L 325.072928 288.918612 
L 326.704358 290.044934 
L 328.335788 290.162963 
L 329.967218 289.252555 
L 331.598648 289.404863 
L 333.230078 288.894188 
L 334.861508 290.467347 
L 336.492937 291.050138 
L 338.124367 291.870597 
L 339.755797 292.779451 
L 341.387227 290.204557 
L 343.018657 292.826627 
L 344.650087 292.186593 
L 346.281517 289.786373 
L 347.912947 290.185114 
L 349.544376 290.429454 
L 351.175806 288.948145 
L 352.807236 289.728757 
L 354.438666 289.380638 
L 356.070096 290.220596 
L 357.701526 290.553756 
L 359.332956 289.663016 
L 360.964386 289.823573 
L 362.595815 290.246434 
L 364.227245 290.660402 
L 365.858675 290.786357 
L 367.490105 290.828352 
L 369.121535 292.136261 
L 370.752965 290.65301 
L 372.384395 290.753989 
L 374.015825 290.329501 
L 375.647254 290.552988 
L 377.278684 290.836953 
L 378.910114 290.195368 
L 380.541544 293.489875 
L 382.172974 289.751872 
L 383.804404 291.656902 
L 385.435834 292.188237 
L 387.067264 290.492447 
L 388.698693 293.025668 
L 390.330123 290.701174 
L 391.961553 293.599558 
L 393.592983 290.265425 
L 395.224413 290.204195 
L 396.855843 289.910073 
L 398.487273 290.508366 
L 398.487273 280.0889 
L 398.487273 280.0889 
L 396.855843 273.38799 
L 395.224413 283.764392 
L 393.592983 273.633965 
L 391.961553 279.064851 
L 390.330123 280.983456 
L 388.698693 277.457785 
L 387.067264 278.757357 
L 385.435834 282.661527 
L 383.804404 282.282177 
L 382.172974 280.035681 
L 380.541544 280.988951 
L 378.910114 280.527846 
L 377.278684 278.699424 
L 375.647254 279.860978 
L 374.015825 276.81292 
L 372.384395 279.664879 
L 370.752965 281.408983 
L 369.121535 278.313357 
L 367.490105 283.585735 
L 365.858675 281.040929 
L 364.227245 283.377745 
L 362.595815 275.283524 
L 360.964386 281.052022 
L 359.332956 281.757245 
L 357.701526 279.447541 
L 356.070096 256.984841 
L 354.438666 278.842251 
L 352.807236 277.461982 
L 351.175806 271.251855 
L 349.544376 282.342239 
L 347.912947 284.792632 
L 346.281517 271.205977 
L 344.650087 279.224363 
L 343.018657 277.424004 
L 341.387227 283.456872 
L 339.755797 280.760069 
L 338.124367 282.713857 
L 336.492937 277.999738 
L 334.861508 279.819807 
L 333.230078 277.753153 
L 331.598648 280.259623 
L 329.967218 277.6118 
L 328.335788 275.327083 
L 326.704358 277.564992 
L 325.072928 280.338155 
L 323.441498 280.183901 
L 321.810069 283.147213 
L 320.178639 281.96125 
L 318.547209 281.138568 
L 316.915779 279.184544 
L 315.284349 276.6812 
L 313.652919 278.912288 
L 312.021489 272.055582 
L 310.390059 277.823285 
L 308.75863 278.893176 
L 307.1272 278.739798 
L 305.49577 285.076033 
L 303.86434 274.855449 
L 302.23291 275.762103 
L 300.60148 273.553247 
L 298.97005 272.615877 
L 297.33862 279.653025 
L 295.70719 265.863896 
L 294.075761 235.217331 
L 292.444331 267.582714 
L 290.812901 259.402648 
L 289.181471 259.666988 
L 287.550041 230.920161 
L 285.918611 280.785667 
L 284.287181 280.714726 
L 282.655751 281.444791 
L 281.024322 279.280319 
L 279.392892 279.409759 
L 277.761462 283.39656 
L 276.130032 282.511345 
L 274.498602 282.424295 
L 272.867172 277.341537 
L 271.235742 284.552841 
L 269.604312 285.968568 
L 267.972883 278.590704 
L 266.341453 280.549129 
L 264.710023 279.259315 
L 263.078593 286.783808 
L 261.447163 271.88755 
L 259.815733 271.094018 
L 258.184303 264.575798 
L 256.552873 268.502653 
L 254.921444 277.187737 
L 253.290014 277.715472 
L 251.658584 271.833219 
L 250.027154 271.619004 
L 248.395724 283.111075 
L 246.764294 284.170273 
L 245.132864 279.725162 
L 243.501434 273.798919 
L 241.870005 284.446813 
L 240.238575 285.358343 
L 238.607145 285.621353 
L 236.975715 285.327351 
L 235.344285 287.029952 
L 233.712855 287.583089 
L 232.081425 285.02468 
L 230.449995 288.355828 
L 228.818566 287.519187 
L 227.187136 288.382927 
L 225.555706 287.519187 
L 223.924276 287.437688 
L 222.292846 288.617445 
L 220.661416 288.389278 
L 219.029986 284.869997 
L 217.398556 287.202433 
L 215.767127 287.519187 
L 214.135697 287.519187 
L 212.504267 287.519187 
L 210.872837 287.519187 
L 209.241407 287.519187 
L 207.609977 287.519187 
L 205.978547 287.519187 
L 204.347117 287.519187 
L 202.715688 287.519187 
L 201.084258 287.519187 
L 199.452828 287.519187 
L 197.821398 287.519187 
L 196.189968 287.519187 
L 194.558538 287.519187 
L 192.927108 287.519187 
L 191.295678 287.519187 
L 189.664249 287.519187 
L 188.032819 287.519187 
L 186.401389 288.178284 
L 184.769959 287.519187 
L 183.138529 287.519187 
L 181.507099 287.519187 
L 179.875669 287.519187 
L 178.244239 287.519187 
L 176.61281 287.519187 
L 174.98138 287.519187 
L 173.34995 287.519187 
L 171.71852 287.519187 
L 170.08709 287.519187 
L 168.45566 287.519187 
L 166.82423 287.519187 
L 165.1928 287.519187 
L 163.56137 287.519187 
L 161.929941 287.519187 
L 160.298511 287.519187 
L 158.667081 287.519187 
L 157.035651 287.519187 
L 155.404221 287.519187 
L 153.772791 287.519187 
L 152.141361 287.519187 
L 150.509931 287.519187 
L 148.878502 287.519187 
L 147.247072 287.519187 
L 145.615642 287.519187 
L 143.984212 287.519187 
L 142.352782 287.519187 
L 140.721352 287.519187 
L 139.089922 287.519187 
L 137.458492 287.519187 
L 135.827063 287.519187 
L 134.195633 287.519187 
L 132.564203 287.519187 
L 130.932773 287.519187 
L 129.301343 287.519187 
L 127.669913 287.519187 
L 126.038483 287.519187 
L 124.407053 287.519187 
L 122.775624 287.519187 
L 121.144194 287.519187 
L 119.512764 287.519187 
L 117.881334 287.519187 
L 116.249904 288.178284 
L 114.618474 287.519187 
L 112.987044 288.178284 
L 111.355614 287.519187 
L 109.724185 287.519187 
L 108.092755 287.519187 
L 106.461325 287.519187 
L 104.829895 287.519187 
L 103.198465 287.519187 
L 101.567035 288.178284 
L 99.935605 287.519187 
L 98.304175 287.519187 
L 96.672746 287.519187 
L 95.041316 287.519187 
L 93.409886 287.519187 
L 91.778456 287.519187 
L 90.147026 287.519187 
L 88.515596 287.519187 
L 86.884166 287.519187 
L 85.252736 287.519187 
L 83.621307 287.519187 
L 81.989877 287.519187 
L 80.358447 287.519187 
L 78.727017 287.519187 
L 77.095587 287.519187 
L 75.464157 287.519187 
L 73.832727 287.519187 
z
" style="fill:#1f77b4;fill-opacity:0.2;"/>
   </g>
   <g id="PolyCollection_2">
    <path clip-path="url(#p93716bf4b5)" d="M 73.832727 287.519187 
L 73.832727 288.39043 
L 75.464157 288.39043 
L 77.095587 288.39043 
L 78.727017 288.39043 
L 80.358447 288.39043 
L 81.989877 288.39043 
L 83.621307 288.39043 
L 85.252736 288.39043 
L 86.884166 288.39043 
L 88.515596 288.39043 
L 90.147026 288.39043 
L 91.778456 288.39043 
L 93.409886 288.39043 
L 95.041316 288.39043 
L 96.672746 288.39043 
L 98.304175 288.39043 
L 99.935605 288.39043 
L 101.567035 288.39043 
L 103.198465 288.39043 
L 104.829895 288.39043 
L 106.461325 288.39043 
L 108.092755 288.39043 
L 109.724185 288.39043 
L 111.355614 288.39043 
L 112.987044 288.39043 
L 114.618474 288.39043 
L 116.249904 288.39043 
L 117.881334 288.39043 
L 119.512764 288.39043 
L 121.144194 288.39043 
L 122.775624 288.39043 
L 124.407053 288.39043 
L 126.038483 288.39043 
L 127.669913 288.39043 
L 129.301343 288.39043 
L 130.932773 288.39043 
L 132.564203 288.39043 
L 134.195633 288.39043 
L 135.827063 288.39043 
L 137.458492 288.39043 
L 139.089922 288.39043 
L 140.721352 288.39043 
L 142.352782 288.39043 
L 143.984212 288.39043 
L 145.615642 288.39043 
L 147.247072 288.39043 
L 148.878502 288.39043 
L 150.509931 288.39043 
L 152.141361 288.39043 
L 153.772791 288.39043 
L 155.404221 288.39043 
L 157.035651 288.39043 
L 158.667081 288.39043 
L 160.298511 288.39043 
L 161.929941 288.39043 
L 163.56137 288.39043 
L 165.1928 288.39043 
L 166.82423 288.39043 
L 168.45566 288.39043 
L 170.08709 288.39043 
L 171.71852 288.39043 
L 173.34995 288.39043 
L 174.98138 288.39043 
L 176.61281 288.39043 
L 178.244239 288.39043 
L 179.875669 288.39043 
L 181.507099 288.39043 
L 183.138529 288.39043 
L 184.769959 288.39043 
L 186.401389 288.39043 
L 188.032819 288.39043 
L 189.664249 288.39043 
L 191.295678 288.39043 
L 192.927108 288.39043 
L 194.558538 288.39043 
L 196.189968 288.39043 
L 197.821398 288.39043 
L 199.452828 288.39043 
L 201.084258 288.39043 
L 202.715688 288.39043 
L 204.347117 288.39043 
L 205.978547 288.39043 
L 207.609977 288.39043 
L 209.241407 288.39043 
L 210.872837 288.39043 
L 212.504267 288.39043 
L 214.135697 288.92851 
L 215.767127 288.943439 
L 217.398556 289.389928 
L 219.029986 289.386491 
L 220.661416 289.436334 
L 222.292846 289.44203 
L 223.924276 289.422711 
L 225.555706 289.391125 
L 227.187136 289.396111 
L 228.818566 289.534423 
L 230.449995 289.534112 
L 232.081425 289.533279 
L 233.712855 289.532364 
L 235.344285 289.692176 
L 236.975715 289.690749 
L 238.607145 289.797381 
L 240.238575 289.800676 
L 241.870005 290.165143 
L 243.501434 290.486289 
L 245.132864 290.518153 
L 246.764294 290.635294 
L 248.395724 290.495251 
L 250.027154 290.57387 
L 251.658584 290.542808 
L 253.290014 290.640615 
L 254.921444 290.572389 
L 256.552873 290.518918 
L 258.184303 290.513335 
L 259.815733 291.818621 
L 261.447163 291.837981 
L 263.078593 291.818992 
L 264.710023 292.147834 
L 266.341453 292.06214 
L 267.972883 292.108177 
L 269.604312 292.231895 
L 271.235742 292.207699 
L 272.867172 292.207432 
L 274.498602 292.44091 
L 276.130032 292.548431 
L 277.761462 292.532858 
L 279.392892 292.931941 
L 281.024322 292.969783 
L 282.655751 292.936079 
L 284.287181 292.937616 
L 285.918611 292.845396 
L 287.550041 293.012172 
L 289.181471 292.803536 
L 290.812901 293.007141 
L 292.444331 293.011739 
L 294.075761 292.927794 
L 295.70719 293.091698 
L 297.33862 292.902865 
L 298.97005 293.287706 
L 300.60148 292.991702 
L 302.23291 292.980861 
L 303.86434 292.954093 
L 305.49577 294.271971 
L 307.1272 293.334739 
L 308.75863 293.328937 
L 310.390059 293.3149 
L 312.021489 293.292015 
L 313.652919 294.65148 
L 315.284349 293.343674 
L 316.915779 294.049072 
L 318.547209 294.021857 
L 320.178639 294.583424 
L 321.810069 294.573569 
L 323.441498 294.62743 
L 325.072928 294.590545 
L 326.704358 294.547411 
L 328.335788 294.560354 
L 329.967218 294.597793 
L 331.598648 294.605868 
L 333.230078 294.644988 
L 334.861508 294.812674 
L 336.492937 294.79251 
L 338.124367 294.576083 
L 339.755797 294.632791 
L 341.387227 294.730169 
L 343.018657 294.552315 
L 344.650087 294.822575 
L 346.281517 292.233417 
L 347.912947 292.227155 
L 349.544376 292.734245 
L 351.175806 294.608757 
L 352.807236 292.506632 
L 354.438666 292.428452 
L 356.070096 294.939621 
L 357.701526 293.596364 
L 359.332956 293.578602 
L 360.964386 293.868756 
L 362.595815 294.327906 
L 364.227245 294.129353 
L 365.858675 294.333512 
L 367.490105 294.282009 
L 369.121535 295.284153 
L 370.752965 293.981718 
L 372.384395 294.166225 
L 374.015825 295.028987 
L 375.647254 295.488 
L 377.278684 295.387004 
L 378.910114 294.582026 
L 380.541544 294.244502 
L 382.172974 294.146598 
L 383.804404 294.062035 
L 385.435834 294.044938 
L 387.067264 294.002002 
L 388.698693 294.79899 
L 390.330123 294.448544 
L 391.961553 295.459265 
L 393.592983 294.452225 
L 395.224413 294.151384 
L 396.855843 295.374367 
L 398.487273 294.138599 
L 398.487273 156.286224 
L 398.487273 156.286224 
L 396.855843 131.218752 
L 395.224413 171.921734 
L 393.592983 135.860651 
L 391.961553 88.398023 
L 390.330123 136.458637 
L 388.698693 128.955733 
L 387.067264 182.98961 
L 385.435834 156.20189 
L 383.804404 183.670274 
L 382.172974 185.96263 
L 380.541544 154.704857 
L 378.910114 143.504114 
L 377.278684 128.523656 
L 375.647254 128.523656 
L 374.015825 128.603785 
L 372.384395 126.535639 
L 370.752965 146.489029 
L 369.121535 126.398022 
L 367.490105 128.470682 
L 365.858675 141.520682 
L 364.227245 133.371383 
L 362.595815 141.651884 
L 360.964386 154.280268 
L 359.332956 149.871365 
L 357.701526 173.510464 
L 356.070096 128.737351 
L 354.438666 171.684166 
L 352.807236 167.121824 
L 351.175806 128.523656 
L 349.544376 159.580009 
L 347.912947 209.210405 
L 346.281517 184.183025 
L 344.650087 128.523656 
L 343.018657 178.414327 
L 341.387227 128.523656 
L 339.755797 159.393432 
L 338.124367 195.33211 
L 336.492937 125.547094 
L 334.861508 68.090788 
L 333.230078 156.962483 
L 331.598648 162.989692 
L 329.967218 187.763378 
L 328.335788 155.457876 
L 326.704358 191.055638 
L 325.072928 146.82821 
L 323.441498 110.634321 
L 321.810069 151.175394 
L 320.178639 128.402065 
L 318.547209 166.378873 
L 316.915779 155.748574 
L 315.284349 204.817845 
L 313.652919 157.332437 
L 312.021489 147.253329 
L 310.390059 76.273785 
L 308.75863 159.458032 
L 307.1272 148.938194 
L 305.49577 167.195492 
L 303.86434 191.005885 
L 302.23291 121.67878 
L 300.60148 90.003356 
L 298.97005 143.978113 
L 297.33862 190.924762 
L 295.70719 53.568 
L 294.075761 89.62494 
L 292.444331 149.570965 
L 290.812901 139.438698 
L 289.181471 179.657232 
L 287.550041 120.516053 
L 285.918611 139.892844 
L 284.287181 129.794527 
L 282.655751 133.559895 
L 281.024322 128.523656 
L 279.392892 155.766029 
L 277.761462 208.573964 
L 276.130032 168.976891 
L 274.498602 231.575575 
L 272.867172 204.836929 
L 271.235742 233.644248 
L 269.604312 208.419703 
L 267.972883 203.536805 
L 266.341453 198.952216 
L 264.710023 200.076577 
L 263.078593 238.180093 
L 261.447163 185.207745 
L 259.815733 175.403384 
L 258.184303 188.708887 
L 256.552873 192.559147 
L 254.921444 188.049197 
L 253.290014 165.628512 
L 251.658584 153.580861 
L 250.027154 157.334659 
L 248.395724 226.175896 
L 246.764294 257.695373 
L 245.132864 205.211979 
L 243.501434 217.749824 
L 241.870005 243.577592 
L 240.238575 220.916092 
L 238.607145 221.895823 
L 236.975715 268.047536 
L 235.344285 264.741975 
L 233.712855 215.795795 
L 232.081425 210.793871 
L 230.449995 245.770155 
L 228.818566 223.725665 
L 227.187136 215.374147 
L 225.555706 233.27231 
L 223.924276 217.346039 
L 222.292846 221.421949 
L 220.661416 214.605643 
L 219.029986 185.052934 
L 217.398556 224.133625 
L 215.767127 204.899427 
L 214.135697 252.73589 
L 212.504267 287.519185 
L 210.872837 257.614511 
L 209.241407 231.401143 
L 207.609977 255.615008 
L 205.978547 243.120617 
L 204.347117 214.515963 
L 202.715688 248.206121 
L 201.084258 254.321011 
L 199.452828 281.078616 
L 197.821398 287.519187 
L 196.189968 287.519187 
L 194.558538 287.519187 
L 192.927108 287.519187 
L 191.295678 287.519187 
L 189.664249 287.519187 
L 188.032819 287.519187 
L 186.401389 287.519187 
L 184.769959 287.519187 
L 183.138529 287.519187 
L 181.507099 287.519187 
L 179.875669 287.519187 
L 178.244239 287.519187 
L 176.61281 287.519187 
L 174.98138 287.519187 
L 173.34995 287.519187 
L 171.71852 287.519187 
L 170.08709 287.519187 
L 168.45566 287.519187 
L 166.82423 287.519187 
L 165.1928 287.519187 
L 163.56137 287.519187 
L 161.929941 287.519187 
L 160.298511 287.519187 
L 158.667081 287.519187 
L 157.035651 287.519187 
L 155.404221 287.519187 
L 153.772791 287.519187 
L 152.141361 287.519187 
L 150.509931 287.519187 
L 148.878502 287.519187 
L 147.247072 287.519187 
L 145.615642 287.519187 
L 143.984212 287.519187 
L 142.352782 287.519187 
L 140.721352 287.519187 
L 139.089922 287.519187 
L 137.458492 287.519187 
L 135.827063 287.519187 
L 134.195633 287.519187 
L 132.564203 287.519187 
L 130.932773 287.519187 
L 129.301343 287.519187 
L 127.669913 287.519187 
L 126.038483 287.519187 
L 124.407053 287.519187 
L 122.775624 287.519187 
L 121.144194 287.519187 
L 119.512764 287.519187 
L 117.881334 287.519187 
L 116.249904 287.519187 
L 114.618474 287.519187 
L 112.987044 287.519187 
L 111.355614 287.519187 
L 109.724185 287.519187 
L 108.092755 287.519187 
L 106.461325 287.519187 
L 104.829895 287.519187 
L 103.198465 287.519187 
L 101.567035 287.519187 
L 99.935605 287.519187 
L 98.304175 287.519187 
L 96.672746 287.519187 
L 95.041316 287.519187 
L 93.409886 287.519187 
L 91.778456 287.519187 
L 90.147026 287.519187 
L 88.515596 287.519187 
L 86.884166 287.519187 
L 85.252736 287.519187 
L 83.621307 287.519187 
L 81.989877 287.519187 
L 80.358447 287.519187 
L 78.727017 287.519187 
L 77.095587 287.519187 
L 75.464157 287.519187 
L 73.832727 287.519187 
z
" style="fill:#1f77b4;fill-opacity:0.1;"/>
   </g>
   <g id="matplotlib.axis_1">
    <g id="xtick_1">
     <g id="line2d_1">
      <defs>
       <path d="M 0 0 
L 0 3.5 
" id="mba5f39f6ab" style="stroke:#000000;stroke-width:0.8;"/>
      </defs>
      <g>
       <use style="stroke:#000000;stroke-width:0.8;" x="73.832727" xlink:href="#mba5f39f6ab" y="307.584"/>
      </g>
     </g>
     <g id="text_1">
      <!-- 0 -->
      <defs>
       <path d="M 31.78125 66.40625 
Q 24.171875 66.40625 20.328125 58.90625 
Q 16.5 51.421875 16.5 36.375 
Q 16.5 21.390625 20.328125 13.890625 
Q 24.171875 6.390625 31.78125 6.390625 
Q 39.453125 6.390625 43.28125 13.890625 
Q 47.125 21.390625 47.125 36.375 
Q 47.125 51.421875 43.28125 58.90625 
Q 39.453125 66.40625 31.78125 66.40625 
z
M 31.78125 74.21875 
Q 44.046875 74.21875 50.515625 64.515625 
Q 56.984375 54.828125 56.984375 36.375 
Q 56.984375 17.96875 50.515625 8.265625 
Q 44.046875 -1.421875 31.78125 -1.421875 
Q 19.53125 -1.421875 13.0625 8.265625 
Q 6.59375 17.96875 6.59375 36.375 
Q 6.59375 54.828125 13.0625 64.515625 
Q 19.53125 74.21875 31.78125 74.21875 
z
" id="DejaVuSans-48"/>
      </defs>
      <g transform="translate(70.651477 322.182437)scale(0.1 -0.1)">
       <use xlink:href="#DejaVuSans-48"/>
      </g>
     </g>
    </g>
    <g id="xtick_2">
     <g id="line2d_2">
      <g>
       <use style="stroke:#000000;stroke-width:0.8;" x="114.618474" xlink:href="#mba5f39f6ab" y="307.584"/>
      </g>
     </g>
     <g id="text_2">
      <!-- 25 -->
      <defs>
       <path d="M 19.1875 8.296875 
L 53.609375 8.296875 
L 53.609375 0 
L 7.328125 0 
L 7.328125 8.296875 
Q 12.9375 14.109375 22.625 23.890625 
Q 32.328125 33.6875 34.8125 36.53125 
Q 39.546875 41.84375 41.421875 45.53125 
Q 43.3125 49.21875 43.3125 52.78125 
Q 43.3125 58.59375 39.234375 62.25 
Q 35.15625 65.921875 28.609375 65.921875 
Q 23.96875 65.921875 18.8125 64.3125 
Q 13.671875 62.703125 7.8125 59.421875 
L 7.8125 69.390625 
Q 13.765625 71.78125 18.9375 73 
Q 24.125 74.21875 28.421875 74.21875 
Q 39.75 74.21875 46.484375 68.546875 
Q 53.21875 62.890625 53.21875 53.421875 
Q 53.21875 48.921875 51.53125 44.890625 
Q 49.859375 40.875 45.40625 35.40625 
Q 44.1875 33.984375 37.640625 27.21875 
Q 31.109375 20.453125 19.1875 8.296875 
z
" id="DejaVuSans-50"/>
       <path d="M 10.796875 72.90625 
L 49.515625 72.90625 
L 49.515625 64.59375 
L 19.828125 64.59375 
L 19.828125 46.734375 
Q 21.96875 47.46875 24.109375 47.828125 
Q 26.265625 48.1875 28.421875 48.1875 
Q 40.625 48.1875 47.75 41.5 
Q 54.890625 34.8125 54.890625 23.390625 
Q 54.890625 11.625 47.5625 5.09375 
Q 40.234375 -1.421875 26.90625 -1.421875 
Q 22.3125 -1.421875 17.546875 -0.640625 
Q 12.796875 0.140625 7.71875 1.703125 
L 7.71875 11.625 
Q 12.109375 9.234375 16.796875 8.0625 
Q 21.484375 6.890625 26.703125 6.890625 
Q 35.15625 6.890625 40.078125 11.328125 
Q 45.015625 15.765625 45.015625 23.390625 
Q 45.015625 31 40.078125 35.4375 
Q 35.15625 39.890625 26.703125 39.890625 
Q 22.75 39.890625 18.8125 39.015625 
Q 14.890625 38.140625 10.796875 36.28125 
z
" id="DejaVuSans-53"/>
      </defs>
      <g transform="translate(108.255974 322.182437)scale(0.1 -0.1)">
       <use xlink:href="#DejaVuSans-50"/>
       <use x="63.623047" xlink:href="#DejaVuSans-53"/>
      </g>
     </g>
    </g>
    <g id="xtick_3">
     <g id="line2d_3">
      <g>
       <use style="stroke:#000000;stroke-width:0.8;" x="155.404221" xlink:href="#mba5f39f6ab" y="307.584"/>
      </g>
     </g>
     <g id="text_3">
      <!-- 50 -->
      <g transform="translate(149.041721 322.182437)scale(0.1 -0.1)">
       <use xlink:href="#DejaVuSans-53"/>
       <use x="63.623047" xlink:href="#DejaVuSans-48"/>
      </g>
     </g>
    </g>
    <g id="xtick_4">
     <g id="line2d_4">
      <g>
       <use style="stroke:#000000;stroke-width:0.8;" x="196.189968" xlink:href="#mba5f39f6ab" y="307.584"/>
      </g>
     </g>
     <g id="text_4">
      <!-- 75 -->
      <defs>
       <path d="M 8.203125 72.90625 
L 55.078125 72.90625 
L 55.078125 68.703125 
L 28.609375 0 
L 18.3125 0 
L 43.21875 64.59375 
L 8.203125 64.59375 
z
" id="DejaVuSans-55"/>
      </defs>
      <g transform="translate(189.827468 322.182437)scale(0.1 -0.1)">
       <use xlink:href="#DejaVuSans-55"/>
       <use x="63.623047" xlink:href="#DejaVuSans-53"/>
      </g>
     </g>
    </g>
    <g id="xtick_5">
     <g id="line2d_5">
      <g>
       <use style="stroke:#000000;stroke-width:0.8;" x="236.975715" xlink:href="#mba5f39f6ab" y="307.584"/>
      </g>
     </g>
     <g id="text_5">
      <!-- 100 -->
      <defs>
       <path d="M 12.40625 8.296875 
L 28.515625 8.296875 
L 28.515625 63.921875 
L 10.984375 60.40625 
L 10.984375 69.390625 
L 28.421875 72.90625 
L 38.28125 72.90625 
L 38.28125 8.296875 
L 54.390625 8.296875 
L 54.390625 0 
L 12.40625 0 
z
" id="DejaVuSans-49"/>
      </defs>
      <g transform="translate(227.431965 322.182437)scale(0.1 -0.1)">
       <use xlink:href="#DejaVuSans-49"/>
       <use x="63.623047" xlink:href="#DejaVuSans-48"/>
       <use x="127.246094" xlink:href="#DejaVuSans-48"/>
      </g>
     </g>
    </g>
    <g id="xtick_6">
     <g id="line2d_6">
      <g>
       <use style="stroke:#000000;stroke-width:0.8;" x="277.761462" xlink:href="#mba5f39f6ab" y="307.584"/>
      </g>
     </g>
     <g id="text_6">
      <!-- 125 -->
      <g transform="translate(268.217712 322.182437)scale(0.1 -0.1)">
       <use xlink:href="#DejaVuSans-49"/>
       <use x="63.623047" xlink:href="#DejaVuSans-50"/>
       <use x="127.246094" xlink:href="#DejaVuSans-53"/>
      </g>
     </g>
    </g>
    <g id="xtick_7">
     <g id="line2d_7">
      <g>
       <use style="stroke:#000000;stroke-width:0.8;" x="318.547209" xlink:href="#mba5f39f6ab" y="307.584"/>
      </g>
     </g>
     <g id="text_7">
      <!-- 150 -->
      <g transform="translate(309.003459 322.182437)scale(0.1 -0.1)">
       <use xlink:href="#DejaVuSans-49"/>
       <use x="63.623047" xlink:href="#DejaVuSans-53"/>
       <use x="127.246094" xlink:href="#DejaVuSans-48"/>
      </g>
     </g>
    </g>
    <g id="xtick_8">
     <g id="line2d_8">
      <g>
       <use style="stroke:#000000;stroke-width:0.8;" x="359.332956" xlink:href="#mba5f39f6ab" y="307.584"/>
      </g>
     </g>
     <g id="text_8">
      <!-- 175 -->
      <g transform="translate(349.789206 322.182437)scale(0.1 -0.1)">
       <use xlink:href="#DejaVuSans-49"/>
       <use x="63.623047" xlink:href="#DejaVuSans-55"/>
       <use x="127.246094" xlink:href="#DejaVuSans-53"/>
      </g>
     </g>
    </g>
    <g id="xtick_9">
     <g id="line2d_9">
      <g>
       <use style="stroke:#000000;stroke-width:0.8;" x="400.118703" xlink:href="#mba5f39f6ab" y="307.584"/>
      </g>
     </g>
     <g id="text_9">
      <!-- 200 -->
      <g transform="translate(390.574953 322.182437)scale(0.1 -0.1)">
       <use xlink:href="#DejaVuSans-50"/>
       <use x="63.623047" xlink:href="#DejaVuSans-48"/>
       <use x="127.246094" xlink:href="#DejaVuSans-48"/>
      </g>
     </g>
    </g>
   </g>
   <g id="matplotlib.axis_2">
    <g id="ytick_1">
     <g id="line2d_10">
      <defs>
       <path d="M 0 0 
L -3.5 0 
" id="mac3f60e1d7" style="stroke:#000000;stroke-width:0.8;"/>
      </defs>
      <g>
       <use style="stroke:#000000;stroke-width:0.8;" x="57.6" xlink:href="#mac3f60e1d7" y="296.400175"/>
      </g>
     </g>
     <g id="text_10">
      <!-- 0 -->
      <g transform="translate(44.2375 300.199394)scale(0.1 -0.1)">
       <use xlink:href="#DejaVuSans-48"/>
      </g>
     </g>
    </g>
    <g id="ytick_2">
     <g id="line2d_11">
      <g>
       <use style="stroke:#000000;stroke-width:0.8;" x="57.6" xlink:href="#mac3f60e1d7" y="259.946252"/>
      </g>
     </g>
     <g id="text_11">
      <!-- 5 -->
      <g transform="translate(44.2375 263.745471)scale(0.1 -0.1)">
       <use xlink:href="#DejaVuSans-53"/>
      </g>
     </g>
    </g>
    <g id="ytick_3">
     <g id="line2d_12">
      <g>
       <use style="stroke:#000000;stroke-width:0.8;" x="57.6" xlink:href="#mac3f60e1d7" y="223.492329"/>
      </g>
     </g>
     <g id="text_12">
      <!-- 10 -->
      <g transform="translate(37.875 227.291548)scale(0.1 -0.1)">
       <use xlink:href="#DejaVuSans-49"/>
       <use x="63.623047" xlink:href="#DejaVuSans-48"/>
      </g>
     </g>
    </g>
    <g id="ytick_4">
     <g id="line2d_13">
      <g>
       <use style="stroke:#000000;stroke-width:0.8;" x="57.6" xlink:href="#mac3f60e1d7" y="187.038406"/>
      </g>
     </g>
     <g id="text_13">
      <!-- 15 -->
      <g transform="translate(37.875 190.837625)scale(0.1 -0.1)">
       <use xlink:href="#DejaVuSans-49"/>
       <use x="63.623047" xlink:href="#DejaVuSans-53"/>
      </g>
     </g>
    </g>
    <g id="ytick_5">
     <g id="line2d_14">
      <g>
       <use style="stroke:#000000;stroke-width:0.8;" x="57.6" xlink:href="#mac3f60e1d7" y="150.584484"/>
      </g>
     </g>
     <g id="text_14">
      <!-- 20 -->
      <g transform="translate(37.875 154.383702)scale(0.1 -0.1)">
       <use xlink:href="#DejaVuSans-50"/>
       <use x="63.623047" xlink:href="#DejaVuSans-48"/>
      </g>
     </g>
    </g>
    <g id="ytick_6">
     <g id="line2d_15">
      <g>
       <use style="stroke:#000000;stroke-width:0.8;" x="57.6" xlink:href="#mac3f60e1d7" y="114.130561"/>
      </g>
     </g>
     <g id="text_15">
      <!-- 25 -->
      <g transform="translate(37.875 117.92978)scale(0.1 -0.1)">
       <use xlink:href="#DejaVuSans-50"/>
       <use x="63.623047" xlink:href="#DejaVuSans-53"/>
      </g>
     </g>
    </g>
    <g id="ytick_7">
     <g id="line2d_16">
      <g>
       <use style="stroke:#000000;stroke-width:0.8;" x="57.6" xlink:href="#mac3f60e1d7" y="77.676638"/>
      </g>
     </g>
     <g id="text_16">
      <!-- 30 -->
      <defs>
       <path d="M 40.578125 39.3125 
Q 47.65625 37.796875 51.625 33 
Q 55.609375 28.21875 55.609375 21.1875 
Q 55.609375 10.40625 48.1875 4.484375 
Q 40.765625 -1.421875 27.09375 -1.421875 
Q 22.515625 -1.421875 17.65625 -0.515625 
Q 12.796875 0.390625 7.625 2.203125 
L 7.625 11.71875 
Q 11.71875 9.328125 16.59375 8.109375 
Q 21.484375 6.890625 26.8125 6.890625 
Q 36.078125 6.890625 40.9375 10.546875 
Q 45.796875 14.203125 45.796875 21.1875 
Q 45.796875 27.640625 41.28125 31.265625 
Q 36.765625 34.90625 28.71875 34.90625 
L 20.21875 34.90625 
L 20.21875 43.015625 
L 29.109375 43.015625 
Q 36.375 43.015625 40.234375 45.921875 
Q 44.09375 48.828125 44.09375 54.296875 
Q 44.09375 59.90625 40.109375 62.90625 
Q 36.140625 65.921875 28.71875 65.921875 
Q 24.65625 65.921875 20.015625 65.03125 
Q 15.375 64.15625 9.8125 62.3125 
L 9.8125 71.09375 
Q 15.4375 72.65625 20.34375 73.4375 
Q 25.25 74.21875 29.59375 74.21875 
Q 40.828125 74.21875 47.359375 69.109375 
Q 53.90625 64.015625 53.90625 55.328125 
Q 53.90625 49.265625 50.4375 45.09375 
Q 46.96875 40.921875 40.578125 39.3125 
z
" id="DejaVuSans-51"/>
      </defs>
      <g transform="translate(37.875 81.475857)scale(0.1 -0.1)">
       <use xlink:href="#DejaVuSans-51"/>
       <use x="63.623047" xlink:href="#DejaVuSans-48"/>
      </g>
     </g>
    </g>
   </g>
   <g id="line2d_17">
    <path clip-path="url(#p93716bf4b5)" d="M 73.832727 288.39043 
L 80.358447 288.284357 
L 81.989877 288.178284 
L 83.621307 288.39043 
L 90.147026 288.39043 
L 91.778456 288.178284 
L 93.409886 288.39043 
L 98.304175 288.39043 
L 99.935605 288.178284 
L 101.567035 288.39043 
L 103.198465 288.39043 
L 104.829895 288.178284 
L 106.461325 288.39043 
L 108.092755 288.178284 
L 109.724185 288.178284 
L 111.355614 288.39043 
L 112.987044 288.39043 
L 114.618474 288.178284 
L 116.249904 288.39043 
L 117.881334 288.178284 
L 119.512764 288.39043 
L 121.144194 288.178284 
L 122.775624 288.39043 
L 124.407053 288.178284 
L 126.038483 288.39043 
L 127.669913 288.178284 
L 129.301343 288.39043 
L 140.721352 288.39043 
L 142.352782 288.178284 
L 143.984212 288.39043 
L 147.247072 288.39043 
L 148.878502 288.178284 
L 153.772791 288.178284 
L 155.404221 288.39043 
L 158.667081 288.178284 
L 160.298511 288.39043 
L 161.929941 288.39043 
L 163.56137 288.178284 
L 165.1928 288.178284 
L 166.82423 288.39043 
L 168.45566 288.178284 
L 170.08709 288.39043 
L 178.244239 288.39043 
L 179.875669 288.178284 
L 181.507099 288.39043 
L 183.138529 288.178284 
L 184.769959 288.178284 
L 186.401389 288.39043 
L 192.927108 288.39043 
L 194.558538 288.178284 
L 196.189968 288.178284 
L 197.821398 288.39043 
L 199.452828 288.39043 
L 201.084258 288.178284 
L 202.715688 288.39043 
L 204.347117 288.178284 
L 205.978547 288.39043 
L 207.609977 288.39043 
L 209.241407 288.178284 
L 210.872837 288.39043 
L 215.767127 288.39043 
L 217.398556 287.537168 
L 219.029986 287.901375 
L 220.661416 288.715786 
L 222.292846 288.894398 
L 225.555706 288.662677 
L 227.187136 288.814159 
L 230.449995 288.808757 
L 232.081425 288.560336 
L 233.712855 288.658308 
L 235.344285 288.485367 
L 236.975715 285.9957 
L 238.607145 286.220559 
L 240.238575 285.660289 
L 241.870005 285.349221 
L 243.501434 281.420067 
L 245.132864 285.208022 
L 246.764294 287.76401 
L 248.395724 287.554577 
L 250.027154 285.441757 
L 251.658584 282.539206 
L 253.290014 285.378233 
L 254.921444 285.809004 
L 256.552873 283.383134 
L 258.184303 285.655445 
L 259.815733 283.767526 
L 261.447163 283.648642 
L 263.078593 289.077991 
L 264.710023 287.190856 
L 266.341453 288.39043 
L 267.972883 288.39043 
L 269.604312 288.587038 
L 271.235742 289.208556 
L 272.867172 285.129485 
L 274.498602 288.981218 
L 276.130032 287.036918 
L 277.761462 286.905187 
L 279.392892 286.249599 
L 281.024322 286.318232 
L 282.655751 286.053642 
L 284.287181 285.931878 
L 285.918611 286.411286 
L 287.550041 283.764526 
L 289.181471 283.659147 
L 290.812901 285.871878 
L 292.444331 286.17556 
L 294.075761 282.028085 
L 295.70719 283.13954 
L 297.33862 286.850177 
L 298.97005 286.261358 
L 300.60148 284.399894 
L 302.23291 285.805613 
L 303.86434 286.516862 
L 305.49577 287.640297 
L 307.1272 284.174632 
L 308.75863 284.78277 
L 310.390059 284.611683 
L 312.021489 282.62623 
L 313.652919 287.683771 
L 315.284349 285.397915 
L 316.915779 284.986004 
L 318.547209 287.031761 
L 320.178639 287.69863 
L 321.810069 288.938167 
L 323.441498 287.144048 
L 325.072928 285.727816 
L 326.704358 287.591365 
L 328.335788 284.199799 
L 329.967218 284.458298 
L 331.598648 286.20907 
L 333.230078 283.647016 
L 334.861508 284.801687 
L 336.492937 284.278064 
L 338.124367 288.358771 
L 341.387227 285.705889 
L 343.018657 286.585378 
L 344.650087 288.780431 
L 346.281517 283.659991 
L 347.912947 288.348363 
L 349.544376 288.39206 
L 351.175806 281.394696 
L 352.807236 284.65224 
L 354.438666 287.545973 
L 356.070096 285.290229 
L 357.701526 287.328435 
L 359.332956 286.376895 
L 360.964386 286.040733 
L 362.595815 284.982631 
L 364.227245 287.546739 
L 365.858675 285.687185 
L 367.490105 288.948241 
L 369.121535 285.581142 
L 370.752965 288.009345 
L 372.384395 286.569722 
L 374.015825 283.320104 
L 375.647254 286.282914 
L 377.278684 286.09846 
L 378.910114 286.556934 
L 380.541544 286.305574 
L 382.172974 286.316171 
L 383.804404 288.271444 
L 385.435834 286.093881 
L 387.067264 286.398944 
L 388.698693 285.655157 
L 390.330123 287.611027 
L 391.961553 288.596816 
L 393.592983 283.393613 
L 395.224413 288.405629 
L 396.855843 282.074514 
L 398.487273 287.450408 
L 398.487273 287.450408 
" style="fill:none;stroke:#1f77b4;stroke-linecap:square;stroke-width:0.25;"/>
   </g>
   <g id="line2d_18">
    <path clip-path="url(#p93716bf4b5)" d="M 73.832727 288.051325 
L 77.095587 288.121477 
L 80.358447 288.060264 
L 99.935605 288.018597 
L 101.567035 288.221557 
L 104.829895 288.010111 
L 108.092755 288.080263 
L 111.355614 288.092766 
L 112.987044 288.164813 
L 114.618474 288.069203 
L 116.249904 288.156101 
L 117.881334 288.051551 
L 126.038483 288.116781 
L 127.669913 288.03837 
L 132.564203 288.090644 
L 140.721352 288.127842 
L 142.352782 288.036248 
L 143.984212 288.129963 
L 148.878502 288.031779 
L 153.772791 288.016475 
L 157.035651 288.080037 
L 158.667081 287.992459 
L 161.929941 288.088523 
L 165.1928 288.045187 
L 170.08709 288.129963 
L 173.34995 288.060264 
L 181.507099 288.109964 
L 183.138529 288.007763 
L 186.401389 288.182691 
L 188.032819 288.07981 
L 194.558538 288.058142 
L 199.452828 287.941236 
L 201.084258 287.584525 
L 202.715688 286.875177 
L 204.347117 286.567275 
L 205.978547 287.181427 
L 207.609977 287.442324 
L 209.241407 286.33933 
L 210.872837 287.459445 
L 212.504267 288.099462 
L 214.135697 287.49108 
L 215.767127 285.042663 
L 217.398556 284.12073 
L 219.029986 280.497076 
L 220.661416 286.871063 
L 222.292846 286.662624 
L 223.924276 286.284313 
L 225.555706 285.309086 
L 227.187136 286.046573 
L 230.449995 287.10861 
L 232.081425 285.429651 
L 233.712855 286.638362 
L 235.344285 287.545581 
L 236.975715 285.982554 
L 238.607145 285.326872 
L 240.238575 283.252005 
L 241.870005 284.988309 
L 243.501434 277.602606 
L 245.132864 281.170962 
L 246.764294 286.181205 
L 248.395724 284.286337 
L 250.027154 275.808684 
L 251.658584 275.061301 
L 253.290014 279.589046 
L 254.921444 280.065022 
L 256.552873 276.390438 
L 258.184303 275.223249 
L 259.815733 276.868221 
L 261.447163 274.735698 
L 263.078593 286.632973 
L 264.710023 280.898898 
L 266.341453 281.710025 
L 267.972883 281.052829 
L 269.604312 284.390776 
L 271.235742 285.867574 
L 272.867172 277.889383 
L 274.498602 284.451418 
L 277.761462 283.405944 
L 279.392892 276.430585 
L 281.024322 267.68772 
L 282.655751 273.863396 
L 284.287181 273.38682 
L 285.918611 274.589402 
L 287.550041 258.797444 
L 289.181471 270.373379 
L 290.812901 265.565291 
L 292.444331 269.794206 
L 294.075761 257.549376 
L 297.33862 274.601969 
L 298.97005 270.138481 
L 300.60148 268.670694 
L 302.23291 272.621037 
L 303.86434 277.274724 
L 305.49577 283.183324 
L 307.1272 277.957069 
L 308.75863 277.357298 
L 312.021489 266.551804 
L 313.652919 278.187129 
L 315.284349 275.123962 
L 316.915779 274.215826 
L 318.547209 276.566456 
L 320.178639 271.456408 
L 321.810069 279.173049 
L 323.441498 274.564035 
L 325.072928 275.769572 
L 326.704358 278.074592 
L 328.335788 272.950509 
L 329.967218 275.698926 
L 331.598648 276.9361 
L 333.230078 275.855238 
L 334.861508 276.533376 
L 336.492937 276.425703 
L 338.124367 279.488724 
L 339.755797 276.946449 
L 341.387227 279.242131 
L 343.018657 273.619928 
L 344.650087 277.219308 
L 346.281517 271.901144 
L 347.912947 284.000924 
L 349.544376 280.476669 
L 351.175806 270.278706 
L 352.807236 275.494358 
L 354.438666 277.323854 
L 356.070096 270.452357 
L 357.701526 278.663375 
L 359.332956 280.493847 
L 360.964386 278.430354 
L 362.595815 276.575475 
L 364.227245 277.262659 
L 365.858675 281.963721 
L 367.490105 279.095106 
L 369.121535 275.060214 
L 372.384395 281.035558 
L 374.015825 276.034339 
L 375.647254 276.285889 
L 377.278684 273.713676 
L 378.910114 278.642672 
L 380.541544 280.835363 
L 382.172974 277.899599 
L 383.804404 280.916774 
L 385.435834 281.131407 
L 387.067264 278.841213 
L 388.698693 270.960553 
L 390.330123 280.587041 
L 391.961553 272.624175 
L 393.592983 271.461321 
L 395.224413 279.971691 
L 396.855843 272.426428 
L 398.487273 279.31713 
L 398.487273 279.31713 
" style="fill:none;stroke:#2ca02c;stroke-linecap:square;stroke-width:0.75;"/>
   </g>
   <g id="patch_3">
    <path d="M 57.6 307.584 
L 57.6 41.472 
" style="fill:none;stroke:#000000;stroke-linecap:square;stroke-linejoin:miter;stroke-width:0.8;"/>
   </g>
   <g id="patch_4">
    <path d="M 414.72 307.584 
L 414.72 41.472 
" style="fill:none;stroke:#000000;stroke-linecap:square;stroke-linejoin:miter;stroke-width:0.8;"/>
   </g>
   <g id="patch_5">
    <path d="M 57.6 307.584 
L 414.72 307.584 
" style="fill:none;stroke:#000000;stroke-linecap:square;stroke-linejoin:miter;stroke-width:0.8;"/>
   </g>
   <g id="patch_6">
    <path d="M 57.6 41.472 
L 414.72 41.472 
" style="fill:none;stroke:#000000;stroke-linecap:square;stroke-linejoin:miter;stroke-width:0.8;"/>
   </g>
   <g id="legend_1">
    <g id="patch_7">
     <path d="M 338.234063 78.82825 
L 407.72 78.82825 
Q 409.72 78.82825 409.72 76.82825 
L 409.72 48.472 
Q 409.72 46.472 407.72 46.472 
L 338.234063 46.472 
Q 336.234063 46.472 336.234063 48.472 
L 336.234063 76.82825 
Q 336.234063 78.82825 338.234063 78.82825 
z
" style="fill:#ffffff;opacity:0.8;stroke:#cccccc;stroke-linejoin:miter;"/>
    </g>
    <g id="line2d_19">
     <path d="M 340.234063 54.570437 
L 360.234063 54.570437 
" style="fill:none;stroke:#1f77b4;stroke-linecap:square;stroke-width:0.25;"/>
    </g>
    <g id="line2d_20"/>
    <g id="text_17">
     <!-- median -->
     <defs>
      <path d="M 52 44.1875 
Q 55.375 50.25 60.0625 53.125 
Q 64.75 56 71.09375 56 
Q 79.640625 56 84.28125 50.015625 
Q 88.921875 44.046875 88.921875 33.015625 
L 88.921875 0 
L 79.890625 0 
L 79.890625 32.71875 
Q 79.890625 40.578125 77.09375 44.375 
Q 74.3125 48.1875 68.609375 48.1875 
Q 61.625 48.1875 57.5625 43.546875 
Q 53.515625 38.921875 53.515625 30.90625 
L 53.515625 0 
L 44.484375 0 
L 44.484375 32.71875 
Q 44.484375 40.625 41.703125 44.40625 
Q 38.921875 48.1875 33.109375 48.1875 
Q 26.21875 48.1875 22.15625 43.53125 
Q 18.109375 38.875 18.109375 30.90625 
L 18.109375 0 
L 9.078125 0 
L 9.078125 54.6875 
L 18.109375 54.6875 
L 18.109375 46.1875 
Q 21.1875 51.21875 25.484375 53.609375 
Q 29.78125 56 35.6875 56 
Q 41.65625 56 45.828125 52.96875 
Q 50 49.953125 52 44.1875 
z
" id="DejaVuSans-109"/>
      <path d="M 56.203125 29.59375 
L 56.203125 25.203125 
L 14.890625 25.203125 
Q 15.484375 15.921875 20.484375 11.0625 
Q 25.484375 6.203125 34.421875 6.203125 
Q 39.59375 6.203125 44.453125 7.46875 
Q 49.3125 8.734375 54.109375 11.28125 
L 54.109375 2.78125 
Q 49.265625 0.734375 44.1875 -0.34375 
Q 39.109375 -1.421875 33.890625 -1.421875 
Q 20.796875 -1.421875 13.15625 6.1875 
Q 5.515625 13.8125 5.515625 26.8125 
Q 5.515625 40.234375 12.765625 48.109375 
Q 20.015625 56 32.328125 56 
Q 43.359375 56 49.78125 48.890625 
Q 56.203125 41.796875 56.203125 29.59375 
z
M 47.21875 32.234375 
Q 47.125 39.59375 43.09375 43.984375 
Q 39.0625 48.390625 32.421875 48.390625 
Q 24.90625 48.390625 20.390625 44.140625 
Q 15.875 39.890625 15.1875 32.171875 
z
" id="DejaVuSans-101"/>
      <path d="M 45.40625 46.390625 
L 45.40625 75.984375 
L 54.390625 75.984375 
L 54.390625 0 
L 45.40625 0 
L 45.40625 8.203125 
Q 42.578125 3.328125 38.25 0.953125 
Q 33.9375 -1.421875 27.875 -1.421875 
Q 17.96875 -1.421875 11.734375 6.484375 
Q 5.515625 14.40625 5.515625 27.296875 
Q 5.515625 40.1875 11.734375 48.09375 
Q 17.96875 56 27.875 56 
Q 33.9375 56 38.25 53.625 
Q 42.578125 51.265625 45.40625 46.390625 
z
M 14.796875 27.296875 
Q 14.796875 17.390625 18.875 11.75 
Q 22.953125 6.109375 30.078125 6.109375 
Q 37.203125 6.109375 41.296875 11.75 
Q 45.40625 17.390625 45.40625 27.296875 
Q 45.40625 37.203125 41.296875 42.84375 
Q 37.203125 48.484375 30.078125 48.484375 
Q 22.953125 48.484375 18.875 42.84375 
Q 14.796875 37.203125 14.796875 27.296875 
z
" id="DejaVuSans-100"/>
      <path d="M 9.421875 54.6875 
L 18.40625 54.6875 
L 18.40625 0 
L 9.421875 0 
z
M 9.421875 75.984375 
L 18.40625 75.984375 
L 18.40625 64.59375 
L 9.421875 64.59375 
z
" id="DejaVuSans-105"/>
      <path d="M 34.28125 27.484375 
Q 23.390625 27.484375 19.1875 25 
Q 14.984375 22.515625 14.984375 16.5 
Q 14.984375 11.71875 18.140625 8.90625 
Q 21.296875 6.109375 26.703125 6.109375 
Q 34.1875 6.109375 38.703125 11.40625 
Q 43.21875 16.703125 43.21875 25.484375 
L 43.21875 27.484375 
z
M 52.203125 31.203125 
L 52.203125 0 
L 43.21875 0 
L 43.21875 8.296875 
Q 40.140625 3.328125 35.546875 0.953125 
Q 30.953125 -1.421875 24.3125 -1.421875 
Q 15.921875 -1.421875 10.953125 3.296875 
Q 6 8.015625 6 15.921875 
Q 6 25.140625 12.171875 29.828125 
Q 18.359375 34.515625 30.609375 34.515625 
L 43.21875 34.515625 
L 43.21875 35.40625 
Q 43.21875 41.609375 39.140625 45 
Q 35.0625 48.390625 27.6875 48.390625 
Q 23 48.390625 18.546875 47.265625 
Q 14.109375 46.140625 10.015625 43.890625 
L 10.015625 52.203125 
Q 14.9375 54.109375 19.578125 55.046875 
Q 24.21875 56 28.609375 56 
Q 40.484375 56 46.34375 49.84375 
Q 52.203125 43.703125 52.203125 31.203125 
z
" id="DejaVuSans-97"/>
      <path d="M 54.890625 33.015625 
L 54.890625 0 
L 45.90625 0 
L 45.90625 32.71875 
Q 45.90625 40.484375 42.875 44.328125 
Q 39.84375 48.1875 33.796875 48.1875 
Q 26.515625 48.1875 22.3125 43.546875 
Q 18.109375 38.921875 18.109375 30.90625 
L 18.109375 0 
L 9.078125 0 
L 9.078125 54.6875 
L 18.109375 54.6875 
L 18.109375 46.1875 
Q 21.34375 51.125 25.703125 53.5625 
Q 30.078125 56 35.796875 56 
Q 45.21875 56 50.046875 50.171875 
Q 54.890625 44.34375 54.890625 33.015625 
z
" id="DejaVuSans-110"/>
     </defs>
     <g transform="translate(368.234063 58.070437)scale(0.1 -0.1)">
      <use xlink:href="#DejaVuSans-109"/>
      <use x="97.412109" xlink:href="#DejaVuSans-101"/>
      <use x="158.935547" xlink:href="#DejaVuSans-100"/>
      <use x="222.412109" xlink:href="#DejaVuSans-105"/>
      <use x="250.195312" xlink:href="#DejaVuSans-97"/>
      <use x="311.474609" xlink:href="#DejaVuSans-110"/>
     </g>
    </g>
    <g id="line2d_21">
     <path d="M 340.234063 69.248562 
L 360.234063 69.248562 
" style="fill:none;stroke:#2ca02c;stroke-linecap:square;stroke-width:0.75;"/>
    </g>
    <g id="line2d_22"/>
    <g id="text_18">
     <!-- mean -->
     <g transform="translate(368.234063 72.748562)scale(0.1 -0.1)">
      <use xlink:href="#DejaVuSans-109"/>
      <use x="97.412109" xlink:href="#DejaVuSans-101"/>
      <use x="158.935547" xlink:href="#DejaVuSans-97"/>
      <use x="220.214844" xlink:href="#DejaVuSans-110"/>
     </g>
    </g>
   </g>
  </g>
  <g id="text_19">
   <!-- log_loss.mean over generations -->
   <defs>
    <path d="M 9.421875 75.984375 
L 18.40625 75.984375 
L 18.40625 0 
L 9.421875 0 
z
" id="DejaVuSans-108"/>
    <path d="M 30.609375 48.390625 
Q 23.390625 48.390625 19.1875 42.75 
Q 14.984375 37.109375 14.984375 27.296875 
Q 14.984375 17.484375 19.15625 11.84375 
Q 23.34375 6.203125 30.609375 6.203125 
Q 37.796875 6.203125 41.984375 11.859375 
Q 46.1875 17.53125 46.1875 27.296875 
Q 46.1875 37.015625 41.984375 42.703125 
Q 37.796875 48.390625 30.609375 48.390625 
z
M 30.609375 56 
Q 42.328125 56 49.015625 48.375 
Q 55.71875 40.765625 55.71875 27.296875 
Q 55.71875 13.875 49.015625 6.21875 
Q 42.328125 -1.421875 30.609375 -1.421875 
Q 18.84375 -1.421875 12.171875 6.21875 
Q 5.515625 13.875 5.515625 27.296875 
Q 5.515625 40.765625 12.171875 48.375 
Q 18.84375 56 30.609375 56 
z
" id="DejaVuSans-111"/>
    <path d="M 45.40625 27.984375 
Q 45.40625 37.75 41.375 43.109375 
Q 37.359375 48.484375 30.078125 48.484375 
Q 22.859375 48.484375 18.828125 43.109375 
Q 14.796875 37.75 14.796875 27.984375 
Q 14.796875 18.265625 18.828125 12.890625 
Q 22.859375 7.515625 30.078125 7.515625 
Q 37.359375 7.515625 41.375 12.890625 
Q 45.40625 18.265625 45.40625 27.984375 
z
M 54.390625 6.78125 
Q 54.390625 -7.171875 48.1875 -13.984375 
Q 42 -20.796875 29.203125 -20.796875 
Q 24.46875 -20.796875 20.265625 -20.09375 
Q 16.0625 -19.390625 12.109375 -17.921875 
L 12.109375 -9.1875 
Q 16.0625 -11.328125 19.921875 -12.34375 
Q 23.78125 -13.375 27.78125 -13.375 
Q 36.625 -13.375 41.015625 -8.765625 
Q 45.40625 -4.15625 45.40625 5.171875 
L 45.40625 9.625 
Q 42.625 4.78125 38.28125 2.390625 
Q 33.9375 0 27.875 0 
Q 17.828125 0 11.671875 7.65625 
Q 5.515625 15.328125 5.515625 27.984375 
Q 5.515625 40.671875 11.671875 48.328125 
Q 17.828125 56 27.875 56 
Q 33.9375 56 38.28125 53.609375 
Q 42.625 51.21875 45.40625 46.390625 
L 45.40625 54.6875 
L 54.390625 54.6875 
z
" id="DejaVuSans-103"/>
    <path d="M 50.984375 -16.609375 
L 50.984375 -23.578125 
L -0.984375 -23.578125 
L -0.984375 -16.609375 
z
" id="DejaVuSans-95"/>
    <path d="M 44.28125 53.078125 
L 44.28125 44.578125 
Q 40.484375 46.53125 36.375 47.5 
Q 32.28125 48.484375 27.875 48.484375 
Q 21.1875 48.484375 17.84375 46.4375 
Q 14.5 44.390625 14.5 40.28125 
Q 14.5 37.15625 16.890625 35.375 
Q 19.28125 33.59375 26.515625 31.984375 
L 29.59375 31.296875 
Q 39.15625 29.25 43.1875 25.515625 
Q 47.21875 21.78125 47.21875 15.09375 
Q 47.21875 7.46875 41.1875 3.015625 
Q 35.15625 -1.421875 24.609375 -1.421875 
Q 20.21875 -1.421875 15.453125 -0.5625 
Q 10.6875 0.296875 5.421875 2 
L 5.421875 11.28125 
Q 10.40625 8.6875 15.234375 7.390625 
Q 20.0625 6.109375 24.8125 6.109375 
Q 31.15625 6.109375 34.5625 8.28125 
Q 37.984375 10.453125 37.984375 14.40625 
Q 37.984375 18.0625 35.515625 20.015625 
Q 33.0625 21.96875 24.703125 23.78125 
L 21.578125 24.515625 
Q 13.234375 26.265625 9.515625 29.90625 
Q 5.8125 33.546875 5.8125 39.890625 
Q 5.8125 47.609375 11.28125 51.796875 
Q 16.75 56 26.8125 56 
Q 31.78125 56 36.171875 55.265625 
Q 40.578125 54.546875 44.28125 53.078125 
z
" id="DejaVuSans-115"/>
    <path d="M 10.6875 12.40625 
L 21 12.40625 
L 21 0 
L 10.6875 0 
z
" id="DejaVuSans-46"/>
    <path id="DejaVuSans-32"/>
    <path d="M 2.984375 54.6875 
L 12.5 54.6875 
L 29.59375 8.796875 
L 46.6875 54.6875 
L 56.203125 54.6875 
L 35.6875 0 
L 23.484375 0 
z
" id="DejaVuSans-118"/>
    <path d="M 41.109375 46.296875 
Q 39.59375 47.171875 37.8125 47.578125 
Q 36.03125 48 33.890625 48 
Q 26.265625 48 22.1875 43.046875 
Q 18.109375 38.09375 18.109375 28.8125 
L 18.109375 0 
L 9.078125 0 
L 9.078125 54.6875 
L 18.109375 54.6875 
L 18.109375 46.1875 
Q 20.953125 51.171875 25.484375 53.578125 
Q 30.03125 56 36.53125 56 
Q 37.453125 56 38.578125 55.875 
Q 39.703125 55.765625 41.0625 55.515625 
z
" id="DejaVuSans-114"/>
    <path d="M 18.3125 70.21875 
L 18.3125 54.6875 
L 36.8125 54.6875 
L 36.8125 47.703125 
L 18.3125 47.703125 
L 18.3125 18.015625 
Q 18.3125 11.328125 20.140625 9.421875 
Q 21.96875 7.515625 27.59375 7.515625 
L 36.8125 7.515625 
L 36.8125 0 
L 27.59375 0 
Q 17.1875 0 13.234375 3.875 
Q 9.28125 7.765625 9.28125 18.015625 
L 9.28125 47.703125 
L 2.6875 47.703125 
L 2.6875 54.6875 
L 9.28125 54.6875 
L 9.28125 70.21875 
z
" id="DejaVuSans-116"/>
   </defs>
   <g transform="translate(134.789062 16.030125)scale(0.12 -0.12)">
    <use xlink:href="#DejaVuSans-108"/>
    <use x="27.783203" xlink:href="#DejaVuSans-111"/>
    <use x="88.964844" xlink:href="#DejaVuSans-103"/>
    <use x="152.441406" xlink:href="#DejaVuSans-95"/>
    <use x="202.441406" xlink:href="#DejaVuSans-108"/>
    <use x="230.224609" xlink:href="#DejaVuSans-111"/>
    <use x="291.40625" xlink:href="#DejaVuSans-115"/>
    <use x="343.505859" xlink:href="#DejaVuSans-115"/>
    <use x="395.605469" xlink:href="#DejaVuSans-46"/>
    <use x="427.392578" xlink:href="#DejaVuSans-109"/>
    <use x="524.804688" xlink:href="#DejaVuSans-101"/>
    <use x="586.328125" xlink:href="#DejaVuSans-97"/>
    <use x="647.607422" xlink:href="#DejaVuSans-110"/>
    <use x="710.986328" xlink:href="#DejaVuSans-32"/>
    <use x="742.773438" xlink:href="#DejaVuSans-111"/>
    <use x="803.955078" xlink:href="#DejaVuSans-118"/>
    <use x="863.134766" xlink:href="#DejaVuSans-101"/>
    <use x="924.658203" xlink:href="#DejaVuSans-114"/>
    <use x="965.771484" xlink:href="#DejaVuSans-32"/>
    <use x="997.558594" xlink:href="#DejaVuSans-103"/>
    <use x="1061.035156" xlink:href="#DejaVuSans-101"/>
    <use x="1122.558594" xlink:href="#DejaVuSans-110"/>
    <use x="1185.9375" xlink:href="#DejaVuSans-101"/>
    <use x="1247.460938" xlink:href="#DejaVuSans-114"/>
    <use x="1288.574219" xlink:href="#DejaVuSans-97"/>
    <use x="1349.853516" xlink:href="#DejaVuSans-116"/>
    <use x="1389.0625" xlink:href="#DejaVuSans-105"/>
    <use x="1416.845703" xlink:href="#DejaVuSans-111"/>
    <use x="1478.027344" xlink:href="#DejaVuSans-110"/>
    <use x="1541.40625" xlink:href="#DejaVuSans-115"/>
   </g>
  </g>
 </g>
 <defs>
  <clipPath id="p93716bf4b5">
   <rect height="266.112" width="357.12" x="57.6" y="41.472"/>
  </clipPath>
 </defs>
</svg>
