<?xml version="1.0" encoding="utf-8" standalone="no"?>
<!DOCTYPE svg PUBLIC "-//W3C//DTD SVG 1.1//EN"
  "http://www.w3.org/Graphics/SVG/1.1/DTD/svg11.dtd">
<!-- Created with matplotlib (https://matplotlib.org/) -->
<svg height="345.6pt" version="1.1" viewBox="0 0 460.8 345.6" width="460.8pt" xmlns="http://www.w3.org/2000/svg" xmlns:xlink="http://www.w3.org/1999/xlink">
 <defs>
  <style type="text/css">
*{stroke-linecap:butt;stroke-linejoin:round;}
  </style>
 </defs>
 <g id="figure_1">
  <g id="patch_1">
   <path d="M 0 345.6 
L 460.8 345.6 
L 460.8 0 
L 0 0 
z
" style="fill:#ffffff;"/>
  </g>
  <g id="axes_1">
   <g id="patch_2">
    <path clip-path="url(#p6a90d0d079)" d="M 88.589752 111.606597 
Q 171.244171 140.0507 253.89859 168.494802 
" style="fill:none;stroke:#000000;stroke-linecap:round;stroke-opacity:0.9;stroke-width:0.4;"/>
   </g>
   <g id="patch_3">
    <path clip-path="url(#p6a90d0d079)" d="M 88.589752 169.645195 
Q 108.532477 193.290879 128.475203 216.936563 
" style="fill:none;stroke:#000000;stroke-linecap:round;stroke-opacity:0.9;stroke-width:0.4;"/>
   </g>
   <g id="patch_4">
    <path clip-path="url(#p6a90d0d079)" d="M 88.589752 227.683792 
Q 109.028504 175.315394 129.467256 122.946995 
" style="fill:none;stroke:#000000;stroke-linecap:round;stroke-opacity:0.9;stroke-width:0.4;"/>
   </g>
   <g id="patch_5">
    <path clip-path="url(#p6a90d0d079)" d="M 88.589752 227.683792 
Q 213.354987 199.059913 338.120223 170.436034 
" style="fill:none;stroke:#000000;stroke-linecap:round;stroke-opacity:0.9;stroke-width:0.4;"/>
   </g>
   <g id="patch_6">
    <path clip-path="url(#p6a90d0d079)" d="M 88.589752 227.683792 
Q 234.396885 238.155376 380.204018 248.62696 
" style="fill:none;stroke:#000000;stroke-linecap:round;stroke-opacity:0.9;stroke-width:0.4;"/>
   </g>
   <g id="patch_7">
    <path clip-path="url(#p6a90d0d079)" d="M 88.589752 285.72239 
Q 108.720337 254.170047 128.850922 222.617705 
" style="fill:none;stroke:#000000;stroke-linecap:round;stroke-opacity:0.9;stroke-width:0.4;"/>
   </g>
   <g id="patch_8">
    <path clip-path="url(#p6a90d0d079)" d="M 88.589752 285.72239 
Q 192.309873 253.208553 296.029994 220.694717 
" style="fill:none;stroke:#000000;stroke-linecap:round;stroke-opacity:0.9;stroke-width:0.4;"/>
   </g>
   <g id="patch_9">
    <path clip-path="url(#p6a90d0d079)" d="M 130.75268 119.653468 
Q 192.354586 144.000177 253.956492 168.346887 
" style="fill:none;stroke:#000000;stroke-linecap:round;stroke-opacity:0.9;stroke-width:0.4;"/>
   </g>
   <g id="patch_10">
    <path clip-path="url(#p6a90d0d079)" d="M 130.75268 119.653468 
Q 213.558931 168.744312 296.365182 217.835157 
" style="fill:none;stroke:#000000;stroke-linecap:round;stroke-opacity:0.9;stroke-width:0.4;"/>
   </g>
   <g id="patch_11">
    <path clip-path="url(#p6a90d0d079)" d="M 130.75268 119.653468 
Q 255.487034 105.234631 380.221389 90.815794 
" style="fill:none;stroke:#000000;stroke-linecap:round;stroke-opacity:0.9;stroke-width:0.4;"/>
   </g>
   <g id="patch_12">
    <path clip-path="url(#p6a90d0d079)" d="M 130.75268 219.636922 
Q 150.695405 195.991238 170.638131 172.345554 
" style="fill:none;stroke:#000000;stroke-linecap:round;stroke-opacity:0.9;stroke-width:0.4;"/>
   </g>
   <g id="patch_13">
    <path clip-path="url(#p6a90d0d079)" d="M 172.915608 169.645195 
Q 192.230419 169.645195 211.545229 169.645195 
" style="fill:none;stroke:#000000;stroke-linecap:round;stroke-opacity:0.9;stroke-width:0.4;"/>
   </g>
   <g id="patch_14">
    <path clip-path="url(#p6a90d0d079)" d="M 215.078536 169.645195 
Q 234.393347 169.645195 253.708157 169.645195 
" style="fill:none;stroke:#000000;stroke-linecap:round;stroke-opacity:0.9;stroke-width:0.4;"/>
   </g>
   <g id="patch_15">
    <path clip-path="url(#p6a90d0d079)" d="M 257.241464 169.645195 
Q 277.184189 193.290879 297.126914 216.936563 
" style="fill:none;stroke:#000000;stroke-linecap:round;stroke-opacity:0.9;stroke-width:0.4;"/>
   </g>
   <g id="patch_16">
    <path clip-path="url(#p6a90d0d079)" d="M 257.241464 169.645195 
Q 277.184189 145.999511 297.126914 122.353827 
" style="fill:none;stroke:#000000;stroke-linecap:round;stroke-opacity:0.9;stroke-width:0.4;"/>
   </g>
   <g id="patch_17">
    <path clip-path="url(#p6a90d0d079)" d="M 299.404392 219.636922 
Q 340.601 156.504407 381.797609 93.371892 
" style="fill:none;stroke:#000000;stroke-linecap:round;stroke-opacity:0.9;stroke-width:0.4;"/>
   </g>
   <g id="patch_18">
    <path clip-path="url(#p6a90d0d079)" d="M 299.404392 119.653468 
Q 319.347117 143.299152 339.289842 166.944836 
" style="fill:none;stroke:#000000;stroke-linecap:round;stroke-opacity:0.9;stroke-width:0.4;"/>
   </g>
   <g id="patch_19">
    <path clip-path="url(#p6a90d0d079)" d="M 299.404392 119.653468 
Q 340.047715 143.748449 380.691038 167.84343 
" style="fill:none;stroke:#000000;stroke-linecap:round;stroke-opacity:0.9;stroke-width:0.4;"/>
   </g>
   <g id="patch_20">
    <path clip-path="url(#p6a90d0d079)" d="M 341.56732 169.645195 
Q 360.88213 169.645195 380.196941 169.645195 
" style="fill:none;stroke:#000000;stroke-linecap:round;stroke-opacity:0.9;stroke-width:0.4;"/>
   </g>
   <g id="PathCollection_1">
    <defs>
     <path d="M 0 3.535534 
C 0.937635 3.535534 1.836992 3.163008 2.5 2.5 
C 3.163008 1.836992 3.535534 0.937635 3.535534 0 
C 3.535534 -0.937635 3.163008 -1.836992 2.5 -2.5 
C 1.836992 -3.163008 0.937635 -3.535534 0 -3.535534 
C -0.937635 -3.535534 -1.836992 -3.163008 -2.5 -2.5 
C -3.163008 -1.836992 -3.535534 -0.937635 -3.535534 0 
C -3.535534 0.937635 -3.163008 1.836992 -2.5 2.5 
C -1.836992 3.163008 -0.937635 3.535534 0 3.535534 
z
" id="C0_0_013bb73699"/>
    </defs>
    <g clip-path="url(#p6a90d0d079)">
     <use style="fill:#fdb462;fill-opacity:0.9;" x="88.589752" xlink:href="#C0_0_013bb73699" y="53.568"/>
    </g>
    <g clip-path="url(#p6a90d0d079)">
     <use style="fill:#fdb462;fill-opacity:0.9;" x="88.589752" xlink:href="#C0_0_013bb73699" y="111.606597"/>
    </g>
    <g clip-path="url(#p6a90d0d079)">
     <use style="fill:#fdb462;fill-opacity:0.9;" x="88.589752" xlink:href="#C0_0_013bb73699" y="169.645195"/>
    </g>
    <g clip-path="url(#p6a90d0d079)">
     <use style="fill:#fdb462;fill-opacity:0.9;" x="88.589752" xlink:href="#C0_0_013bb73699" y="227.683792"/>
    </g>
    <g clip-path="url(#p6a90d0d079)">
     <use style="fill:#ffed6f;fill-opacity:0.9;" x="88.589752" xlink:href="#C0_0_013bb73699" y="285.72239"/>
    </g>
    <g clip-path="url(#p6a90d0d079)">
     <use style="fill:#80b1d3;fill-opacity:0.9;" x="130.75268" xlink:href="#C0_0_013bb73699" y="119.653468"/>
    </g>
    <g clip-path="url(#p6a90d0d079)">
     <use style="fill:#80b1d3;fill-opacity:0.9;" x="130.75268" xlink:href="#C0_0_013bb73699" y="219.636922"/>
    </g>
    <g clip-path="url(#p6a90d0d079)">
     <use style="fill:#80b1d3;fill-opacity:0.9;" x="172.915608" xlink:href="#C0_0_013bb73699" y="169.645195"/>
    </g>
    <g clip-path="url(#p6a90d0d079)">
     <use style="fill:#80b1d3;fill-opacity:0.9;" x="215.078536" xlink:href="#C0_0_013bb73699" y="169.645195"/>
    </g>
    <g clip-path="url(#p6a90d0d079)">
     <use style="fill:#80b1d3;fill-opacity:0.9;" x="257.241464" xlink:href="#C0_0_013bb73699" y="169.645195"/>
    </g>
    <g clip-path="url(#p6a90d0d079)">
     <use style="fill:#80b1d3;fill-opacity:0.9;" x="299.404392" xlink:href="#C0_0_013bb73699" y="219.636922"/>
    </g>
    <g clip-path="url(#p6a90d0d079)">
     <use style="fill:#80b1d3;fill-opacity:0.9;" x="299.404392" xlink:href="#C0_0_013bb73699" y="119.653468"/>
    </g>
    <g clip-path="url(#p6a90d0d079)">
     <use style="fill:#80b1d3;fill-opacity:0.9;" x="341.56732" xlink:href="#C0_0_013bb73699" y="169.645195"/>
    </g>
    <g clip-path="url(#p6a90d0d079)">
     <use style="fill:#b3de69;fill-opacity:0.9;" x="383.730248" xlink:href="#C0_0_013bb73699" y="90.410183"/>
    </g>
    <g clip-path="url(#p6a90d0d079)">
     <use style="fill:#b3de69;fill-opacity:0.9;" x="383.730248" xlink:href="#C0_0_013bb73699" y="169.645195"/>
    </g>
    <g clip-path="url(#p6a90d0d079)">
     <use style="fill:#b3de69;fill-opacity:0.9;" x="383.730248" xlink:href="#C0_0_013bb73699" y="248.880207"/>
    </g>
   </g>
  </g>
 </g>
 <defs>
  <clipPath id="p6a90d0d079">
   <rect height="266.112" width="357.12" x="57.6" y="41.472"/>
  </clipPath>
 </defs>
</svg>
