<?xml version="1.0" encoding="utf-8" standalone="no"?>
<!DOCTYPE svg PUBLIC "-//W3C//DTD SVG 1.1//EN"
  "http://www.w3.org/Graphics/SVG/1.1/DTD/svg11.dtd">
<!-- Created with matplotlib (https://matplotlib.org/) -->
<svg height="345.6pt" version="1.1" viewBox="0 0 460.8 345.6" width="460.8pt" xmlns="http://www.w3.org/2000/svg" xmlns:xlink="http://www.w3.org/1999/xlink">
 <defs>
  <style type="text/css">
*{stroke-linecap:butt;stroke-linejoin:round;}
  </style>
 </defs>
 <g id="figure_1">
  <g id="patch_1">
   <path d="M 0 345.6 
L 460.8 345.6 
L 460.8 0 
L 0 0 
z
" style="fill:#ffffff;"/>
  </g>
  <g id="axes_1">
   <g id="patch_2">
    <path d="M 57.6 307.584 
L 414.72 307.584 
L 414.72 41.472 
L 57.6 41.472 
z
" style="fill:#ffffff;"/>
   </g>
   <g id="PolyCollection_1">
    <path clip-path="url(#p08d3142aa3)" d="M 73.832727 228.107352 
L 73.832727 252.422284 
L 75.87458 231.373584 
L 77.916432 226.68653 
L 79.958285 226.366718 
L 82.000137 225.165172 
L 84.04199 223.188267 
L 86.083842 225.886113 
L 88.125695 221.236742 
L 90.167547 221.183421 
L 92.2094 207.77502 
L 94.251252 214.570772 
L 96.293105 212.660034 
L 98.334957 214.115419 
L 100.37681 213.869178 
L 102.418662 210.665706 
L 104.460515 199.0494 
L 106.502367 225.903289 
L 108.54422 202.322218 
L 110.586072 199.862808 
L 112.627925 193.72002 
L 114.669777 208.885901 
L 116.71163 196.546082 
L 118.753482 198.355292 
L 120.795334 221.933482 
L 122.837187 222.354784 
L 124.879039 220.888164 
L 126.920892 218.604119 
L 128.962744 211.757482 
L 131.004597 211.058787 
L 133.046449 188.663235 
L 135.088302 186.621293 
L 137.130154 192.626886 
L 139.172007 206.396793 
L 141.213859 188.91885 
L 143.255712 212.989867 
L 145.297564 212.339413 
L 147.339417 173.924913 
L 149.381269 190.620161 
L 151.423122 182.388831 
L 153.464974 212.220889 
L 155.506827 208.689193 
L 157.548679 214.723521 
L 159.590532 212.64535 
L 161.632384 181.940665 
L 163.674237 224.763734 
L 165.716089 220.414493 
L 167.757942 193.522055 
L 169.799794 217.089399 
L 171.841647 185.025922 
L 173.883499 174.109527 
L 175.925352 175.684365 
L 177.967204 208.278216 
L 180.009057 207.783315 
L 182.050909 214.291155 
L 184.092762 183.033297 
L 186.134614 198.935286 
L 188.176467 217.394749 
L 190.218319 176.17425 
L 192.260172 182.673463 
L 194.302024 174.665838 
L 196.343877 175.993763 
L 198.385729 173.891268 
L 200.427581 226.703587 
L 202.469434 172.591977 
L 204.511286 170.771141 
L 206.553139 176.336536 
L 208.594991 181.508184 
L 210.636844 180.939255 
L 212.678696 165.389357 
L 214.720549 175.847825 
L 216.762401 199.423117 
L 218.804254 175.648198 
L 220.846106 179.652965 
L 222.887959 191.712222 
L 224.929811 185.089062 
L 226.971664 158.859633 
L 229.013516 175.732925 
L 231.055369 182.682479 
L 233.097221 162.290406 
L 235.139074 182.033968 
L 237.180926 179.704958 
L 239.222779 185.41718 
L 241.264631 168.247011 
L 243.306484 172.84804 
L 245.348336 185.291485 
L 247.390189 187.975802 
L 249.432041 188.966194 
L 251.473894 177.515462 
L 253.515746 172.647607 
L 255.557599 173.255788 
L 257.599451 170.632716 
L 259.641304 169.575348 
L 261.683156 172.388761 
L 263.725009 179.652985 
L 265.766861 171.166876 
L 267.808714 169.774192 
L 269.850566 168.036322 
L 271.892419 172.952989 
L 273.934271 174.749181 
L 275.976123 155.847316 
L 278.017976 145.689721 
L 280.059828 159.965383 
L 282.101681 157.319145 
L 284.143533 178.235745 
L 286.185386 172.389169 
L 288.227238 177.916261 
L 290.269091 156.827576 
L 292.310943 154.152588 
L 294.352796 158.326001 
L 296.394648 158.409237 
L 298.436501 158.486828 
L 300.478353 162.067695 
L 302.520206 154.496004 
L 304.562058 157.724212 
L 306.603911 164.705359 
L 308.645763 165.928025 
L 310.687616 172.913083 
L 312.729468 157.983014 
L 314.771321 156.216548 
L 316.813173 155.34432 
L 318.855026 172.301776 
L 320.896878 156.390784 
L 322.938731 163.28738 
L 324.980583 167.308699 
L 327.022436 176.953783 
L 329.064288 148.339991 
L 331.106141 160.597229 
L 333.147993 137.86315 
L 335.189846 155.790979 
L 337.231698 157.447977 
L 339.273551 133.457858 
L 341.315403 130.903063 
L 343.357256 153.715109 
L 345.399108 167.105249 
L 347.440961 152.593354 
L 349.482813 172.214861 
L 351.524666 142.797651 
L 353.566518 145.091052 
L 355.60837 133.412569 
L 357.650223 141.294121 
L 359.692075 115.236716 
L 361.733928 131.844186 
L 363.77578 174.673805 
L 365.817633 131.935914 
L 367.859485 147.039231 
L 369.901338 171.865993 
L 371.94319 176.120452 
L 373.985043 147.994843 
L 376.026895 128.512036 
L 378.068748 112.571448 
L 380.1106 142.902887 
L 382.152453 173.729667 
L 384.194305 178.692806 
L 386.236158 173.023726 
L 388.27801 178.690528 
L 390.319863 119.991836 
L 392.361715 174.814462 
L 394.403568 172.063229 
L 396.44542 180.004762 
L 398.487273 167.569392 
L 398.487273 87.445911 
L 398.487273 87.445911 
L 396.44542 97.672394 
L 394.403568 93.09294 
L 392.361715 99.731342 
L 390.319863 86.565281 
L 388.27801 88.830241 
L 386.236158 95.279826 
L 384.194305 93.656914 
L 382.152453 94.96121 
L 380.1106 95.64497 
L 378.068748 90.151519 
L 376.026895 86.723887 
L 373.985043 100.995171 
L 371.94319 90.491716 
L 369.901338 98.06233 
L 367.859485 91.422256 
L 365.817633 93.66412 
L 363.77578 94.641997 
L 361.733928 100.707083 
L 359.692075 94.213986 
L 357.650223 101.711907 
L 355.60837 100.090512 
L 353.566518 109.673688 
L 351.524666 104.143393 
L 349.482813 99.608615 
L 347.440961 93.266306 
L 345.399108 101.591648 
L 343.357256 117.513769 
L 341.315403 99.189887 
L 339.273551 95.750416 
L 337.231698 98.760331 
L 335.189846 120.598356 
L 333.147993 100.23856 
L 331.106141 114.276708 
L 329.064288 100.656687 
L 327.022436 111.191213 
L 324.980583 109.021724 
L 322.938731 113.90173 
L 320.896878 116.338657 
L 318.855026 112.115169 
L 316.813173 111.664757 
L 314.771321 107.041171 
L 312.729468 112.991717 
L 310.687616 105.946983 
L 308.645763 118.313644 
L 306.603911 112.64959 
L 304.562058 110.613834 
L 302.520206 101.030838 
L 300.478353 106.434308 
L 298.436501 113.458181 
L 296.394648 117.471267 
L 294.352796 116.141176 
L 292.310943 111.806915 
L 290.269091 111.588307 
L 288.227238 119.179032 
L 286.185386 115.266619 
L 284.143533 117.099342 
L 282.101681 115.102687 
L 280.059828 115.365332 
L 278.017976 109.606243 
L 275.976123 118.922906 
L 273.934271 118.837626 
L 271.892419 116.388921 
L 269.850566 112.519531 
L 267.808714 112.53048 
L 265.766861 115.398692 
L 263.725009 117.608965 
L 261.683156 107.357238 
L 259.641304 111.26622 
L 257.599451 112.831504 
L 255.557599 114.015386 
L 253.515746 108.801305 
L 251.473894 112.658559 
L 249.432041 120.348314 
L 247.390189 121.353545 
L 245.348336 120.898829 
L 243.306484 111.879498 
L 241.264631 118.698731 
L 239.222779 117.681291 
L 237.180926 114.709878 
L 235.139074 118.841882 
L 233.097221 114.051985 
L 231.055369 110.913099 
L 229.013516 115.924195 
L 226.971664 119.167548 
L 224.929811 121.358148 
L 222.887959 125.444442 
L 220.846106 121.911635 
L 218.804254 123.248557 
L 216.762401 132.447075 
L 214.720549 120.165116 
L 212.678696 121.928374 
L 210.636844 126.858869 
L 208.594991 122.173378 
L 206.553139 117.688338 
L 204.511286 118.370254 
L 202.469434 114.888531 
L 200.427581 126.907541 
L 198.385729 118.933082 
L 196.343877 119.876837 
L 194.302024 115.495419 
L 192.260172 115.152449 
L 190.218319 122.376179 
L 188.176467 117.32925 
L 186.134614 125.27678 
L 184.092762 135.625753 
L 182.050909 131.61945 
L 180.009057 133.960547 
L 177.967204 139.415561 
L 175.925352 135.07895 
L 173.883499 123.475115 
L 171.841647 131.690093 
L 169.799794 135.297368 
L 167.757942 136.639169 
L 165.716089 142.50414 
L 163.674237 136.430739 
L 161.632384 138.532138 
L 159.590532 157.62541 
L 157.548679 151.856325 
L 155.506827 151.317855 
L 153.464974 156.510928 
L 151.423122 149.692189 
L 149.381269 152.905933 
L 147.339417 147.190007 
L 145.297564 149.122948 
L 143.255712 154.326988 
L 141.213859 153.079922 
L 139.172007 147.449438 
L 137.130154 147.587767 
L 135.088302 152.216921 
L 133.046449 149.5913 
L 131.004597 151.201137 
L 128.962744 153.68161 
L 126.920892 148.528844 
L 124.879039 163.418227 
L 122.837187 162.20786 
L 120.795334 152.957787 
L 118.753482 149.94162 
L 116.71163 158.423756 
L 114.669777 154.075388 
L 112.627925 158.439687 
L 110.586072 162.147127 
L 108.54422 176.350178 
L 106.502367 174.189558 
L 104.460515 172.110347 
L 102.418662 172.792747 
L 100.37681 168.437796 
L 98.334957 166.260808 
L 96.293105 175.114153 
L 94.251252 182.77803 
L 92.2094 177.096113 
L 90.167547 188.828999 
L 88.125695 200.702644 
L 86.083842 201.793599 
L 84.04199 200.075326 
L 82.000137 212.310459 
L 79.958285 211.072672 
L 77.916432 199.475567 
L 75.87458 204.251796 
L 73.832727 228.107352 
z
" style="fill:#1f77b4;fill-opacity:0.2;"/>
   </g>
   <g id="PolyCollection_2">
    <path clip-path="url(#p08d3142aa3)" d="M 73.832727 190.754976 
L 73.832727 295.488 
L 75.87458 265.845632 
L 77.916432 263.635768 
L 79.958285 258.841399 
L 82.000137 252.798428 
L 84.04199 263.226208 
L 86.083842 258.1698 
L 88.125695 263.343412 
L 90.167547 278.328266 
L 92.2094 273.762921 
L 94.251252 253.288315 
L 96.293105 275.631961 
L 98.334957 269.755033 
L 100.37681 266.282355 
L 102.418662 253.657528 
L 104.460515 240.620073 
L 106.502367 250.761965 
L 108.54422 247.059453 
L 110.586072 247.58431 
L 112.627925 278.857646 
L 114.669777 247.615819 
L 116.71163 244.517936 
L 118.753482 246.373253 
L 120.795334 251.827417 
L 122.837187 249.763173 
L 124.879039 244.698091 
L 126.920892 247.841985 
L 128.962744 248.970875 
L 131.004597 246.239192 
L 133.046449 244.370893 
L 135.088302 245.605812 
L 137.130154 243.698549 
L 139.172007 239.884943 
L 141.213859 244.967803 
L 143.255712 238.128334 
L 145.297564 251.088274 
L 147.339417 245.867135 
L 149.381269 242.862989 
L 151.423122 240.050492 
L 153.464974 247.515589 
L 155.506827 247.128712 
L 157.548679 245.414352 
L 159.590532 248.637866 
L 161.632384 249.029027 
L 163.674237 255.387007 
L 165.716089 250.993907 
L 167.757942 245.023184 
L 169.799794 253.168795 
L 171.841647 242.363463 
L 173.883499 239.496756 
L 175.925352 244.703905 
L 177.967204 243.28568 
L 180.009057 251.092611 
L 182.050909 253.975972 
L 184.092762 245.118829 
L 186.134614 248.287324 
L 188.176467 247.785117 
L 190.218319 255.657717 
L 192.260172 255.283667 
L 194.302024 244.809313 
L 196.343877 239.376059 
L 198.385729 256.386611 
L 200.427581 246.169091 
L 202.469434 245.453812 
L 204.511286 233.638799 
L 206.553139 256.471531 
L 208.594991 248.773512 
L 210.636844 239.807537 
L 212.678696 215.373446 
L 214.720549 244.950658 
L 216.762401 245.352625 
L 218.804254 239.915875 
L 220.846106 241.276487 
L 222.887959 250.107055 
L 224.929811 227.455453 
L 226.971664 216.187103 
L 229.013516 246.179998 
L 231.055369 250.918179 
L 233.097221 242.021532 
L 235.139074 240.31193 
L 237.180926 241.841621 
L 239.222779 246.47138 
L 241.264631 236.616977 
L 243.306484 230.041109 
L 245.348336 246.100231 
L 247.390189 247.781558 
L 249.432041 240.169854 
L 251.473894 229.347477 
L 253.515746 227.730502 
L 255.557599 244.669376 
L 257.599451 239.15828 
L 259.641304 225.108079 
L 261.683156 230.756834 
L 263.725009 248.634668 
L 265.766861 236.530214 
L 267.808714 246.777881 
L 269.850566 240.404904 
L 271.892419 252.518891 
L 273.934271 245.001991 
L 275.976123 245.043506 
L 278.017976 228.119398 
L 280.059828 221.907604 
L 282.101681 223.249469 
L 284.143533 236.175637 
L 286.185386 231.716604 
L 288.227238 212.893176 
L 290.269091 233.733189 
L 292.310943 245.638893 
L 294.352796 255.392553 
L 296.394648 261.092045 
L 298.436501 233.750245 
L 300.478353 243.990002 
L 302.520206 245.991874 
L 304.562058 244.295701 
L 306.603911 243.827623 
L 308.645763 243.189379 
L 310.687616 245.64211 
L 312.729468 236.148742 
L 314.771321 238.018606 
L 316.813173 214.551692 
L 318.855026 232.217961 
L 320.896878 220.493158 
L 322.938731 230.756409 
L 324.980583 213.469332 
L 327.022436 239.646031 
L 329.064288 199.562778 
L 331.106141 243.989696 
L 333.147993 243.260084 
L 335.189846 229.643454 
L 337.231698 233.603852 
L 339.273551 233.451919 
L 341.315403 208.495706 
L 343.357256 242.234829 
L 345.399108 210.224421 
L 347.440961 244.160221 
L 349.482813 244.948852 
L 351.524666 231.925307 
L 353.566518 220.819575 
L 355.60837 241.410406 
L 357.650223 220.827542 
L 359.692075 184.560706 
L 361.733928 231.083236 
L 363.77578 235.641464 
L 365.817633 248.496753 
L 367.859485 217.721724 
L 369.901338 235.079805 
L 371.94319 235.431597 
L 373.985043 244.832843 
L 376.026895 206.840109 
L 378.068748 214.439089 
L 380.1106 222.096237 
L 382.152453 234.382676 
L 384.194305 240.897451 
L 386.236158 224.272981 
L 388.27801 239.012232 
L 390.319863 233.032572 
L 392.361715 239.60289 
L 394.403568 215.352675 
L 396.44542 243.152419 
L 398.487273 237.710434 
L 398.487273 53.568 
L 398.487273 53.568 
L 396.44542 63.775433 
L 394.403568 65.268465 
L 392.361715 79.129866 
L 390.319863 57.567418 
L 388.27801 70.080862 
L 386.236158 67.739476 
L 384.194305 69.219584 
L 382.152453 61.031211 
L 380.1106 66.178617 
L 378.068748 68.907604 
L 376.026895 56.418115 
L 373.985043 70.54834 
L 371.94319 66.656538 
L 369.901338 77.584223 
L 367.859485 66.527967 
L 365.817633 77.233446 
L 363.77578 81.849098 
L 361.733928 84.806346 
L 359.692075 72.622652 
L 357.650223 82.909554 
L 355.60837 89.623341 
L 353.566518 79.628359 
L 351.524666 85.95251 
L 349.482813 75.405803 
L 347.440961 85.670906 
L 345.399108 81.502162 
L 343.357256 89.147258 
L 341.315403 85.619564 
L 339.273551 72.980972 
L 337.231698 61.950497 
L 335.189846 94.399391 
L 333.147993 92.072464 
L 331.106141 87.543798 
L 329.064288 67.161781 
L 327.022436 90.809511 
L 324.980583 94.927169 
L 322.938731 90.93823 
L 320.896878 97.025231 
L 318.855026 85.622374 
L 316.813173 104.245443 
L 314.771321 82.404249 
L 312.729468 75.725485 
L 310.687616 72.869828 
L 308.645763 86.945054 
L 306.603911 100.444353 
L 304.562058 99.039088 
L 302.520206 92.635183 
L 300.478353 75.797249 
L 298.436501 91.035042 
L 296.394648 91.858229 
L 294.352796 104.707216 
L 292.310943 97.932002 
L 290.269091 94.585087 
L 288.227238 98.278687 
L 286.185386 100.196396 
L 284.143533 103.877195 
L 282.101681 89.089463 
L 280.059828 105.54052 
L 278.017976 101.163454 
L 275.976123 102.18287 
L 273.934271 109.2584 
L 271.892419 88.92756 
L 269.850566 104.73065 
L 267.808714 91.86292 
L 265.766861 84.395449 
L 263.725009 105.568527 
L 261.683156 93.585508 
L 259.641304 103.524285 
L 257.599451 103.439004 
L 255.557599 105.208445 
L 253.515746 101.430427 
L 251.473894 77.544255 
L 249.432041 94.981655 
L 247.390189 110.502791 
L 245.348336 106.206669 
L 243.306484 98.089881 
L 241.264631 110.214177 
L 239.222779 102.409571 
L 237.180926 100.234212 
L 235.139074 106.422367 
L 233.097221 97.044346 
L 231.055369 96.863502 
L 229.013516 104.292442 
L 226.971664 103.624695 
L 224.929811 98.9951 
L 222.887959 114.391474 
L 220.846106 111.239198 
L 218.804254 110.575847 
L 216.762401 103.093843 
L 214.720549 109.139247 
L 212.678696 109.951684 
L 210.636844 112.176683 
L 208.594991 103.913431 
L 206.553139 102.971665 
L 204.511286 106.623318 
L 202.469434 102.792556 
L 200.427581 114.659045 
L 198.385729 113.251187 
L 196.343877 113.710064 
L 194.302024 106.484226 
L 192.260172 109.203384 
L 190.218319 110.091477 
L 188.176467 105.299234 
L 186.134614 111.227289 
L 184.092762 116.392159 
L 182.050909 115.17822 
L 180.009057 106.189767 
L 177.967204 113.135845 
L 175.925352 111.935165 
L 173.883499 109.123351 
L 171.841647 112.6786 
L 169.799794 101.626463 
L 167.757942 110.027017 
L 165.716089 117.727717 
L 163.674237 118.130414 
L 161.632384 113.428277 
L 159.590532 116.459949 
L 157.548679 115.882464 
L 155.506827 116.253002 
L 153.464974 113.302822 
L 151.423122 115.864184 
L 149.381269 113.09052 
L 147.339417 108.20726 
L 145.297564 106.334529 
L 143.255712 115.460612 
L 141.213859 114.472942 
L 139.172007 116.603796 
L 137.130154 119.14379 
L 135.088302 125.5772 
L 133.046449 126.046809 
L 131.004597 119.768225 
L 128.962744 124.100301 
L 126.920892 123.903545 
L 124.879039 129.817125 
L 122.837187 130.632693 
L 120.795334 130.543561 
L 118.753482 129.507794 
L 116.71163 141.124751 
L 114.669777 131.999718 
L 112.627925 136.675306 
L 110.586072 140.397423 
L 108.54422 151.512883 
L 106.502367 151.323886 
L 104.460515 150.848675 
L 102.418662 150.158494 
L 100.37681 143.109146 
L 98.334957 152.025388 
L 96.293105 153.730941 
L 94.251252 164.971642 
L 92.2094 155.230929 
L 90.167547 167.464582 
L 88.125695 169.596991 
L 86.083842 175.041394 
L 84.04199 176.500596 
L 82.000137 177.913695 
L 79.958285 182.853223 
L 77.916432 169.715313 
L 75.87458 186.997127 
L 73.832727 190.754976 
z
" style="fill:#1f77b4;fill-opacity:0.1;"/>
   </g>
   <g id="matplotlib.axis_1">
    <g id="xtick_1">
     <g id="line2d_1">
      <defs>
       <path d="M 0 0 
L 0 3.5 
" id="ma19f807d09" style="stroke:#000000;stroke-width:0.8;"/>
      </defs>
      <g>
       <use style="stroke:#000000;stroke-width:0.8;" x="73.832727" xlink:href="#ma19f807d09" y="307.584"/>
      </g>
     </g>
     <g id="text_1">
      <!-- 0 -->
      <defs>
       <path d="M 31.78125 66.40625 
Q 24.171875 66.40625 20.328125 58.90625 
Q 16.5 51.421875 16.5 36.375 
Q 16.5 21.390625 20.328125 13.890625 
Q 24.171875 6.390625 31.78125 6.390625 
Q 39.453125 6.390625 43.28125 13.890625 
Q 47.125 21.390625 47.125 36.375 
Q 47.125 51.421875 43.28125 58.90625 
Q 39.453125 66.40625 31.78125 66.40625 
z
M 31.78125 74.21875 
Q 44.046875 74.21875 50.515625 64.515625 
Q 56.984375 54.828125 56.984375 36.375 
Q 56.984375 17.96875 50.515625 8.265625 
Q 44.046875 -1.421875 31.78125 -1.421875 
Q 19.53125 -1.421875 13.0625 8.265625 
Q 6.59375 17.96875 6.59375 36.375 
Q 6.59375 54.828125 13.0625 64.515625 
Q 19.53125 74.21875 31.78125 74.21875 
z
" id="DejaVuSans-48"/>
      </defs>
      <g transform="translate(70.651477 322.182437)scale(0.1 -0.1)">
       <use xlink:href="#DejaVuSans-48"/>
      </g>
     </g>
    </g>
    <g id="xtick_2">
     <g id="line2d_2">
      <g>
       <use style="stroke:#000000;stroke-width:0.8;" x="114.669777" xlink:href="#ma19f807d09" y="307.584"/>
      </g>
     </g>
     <g id="text_2">
      <!-- 20 -->
      <defs>
       <path d="M 19.1875 8.296875 
L 53.609375 8.296875 
L 53.609375 0 
L 7.328125 0 
L 7.328125 8.296875 
Q 12.9375 14.109375 22.625 23.890625 
Q 32.328125 33.6875 34.8125 36.53125 
Q 39.546875 41.84375 41.421875 45.53125 
Q 43.3125 49.21875 43.3125 52.78125 
Q 43.3125 58.59375 39.234375 62.25 
Q 35.15625 65.921875 28.609375 65.921875 
Q 23.96875 65.921875 18.8125 64.3125 
Q 13.671875 62.703125 7.8125 59.421875 
L 7.8125 69.390625 
Q 13.765625 71.78125 18.9375 73 
Q 24.125 74.21875 28.421875 74.21875 
Q 39.75 74.21875 46.484375 68.546875 
Q 53.21875 62.890625 53.21875 53.421875 
Q 53.21875 48.921875 51.53125 44.890625 
Q 49.859375 40.875 45.40625 35.40625 
Q 44.1875 33.984375 37.640625 27.21875 
Q 31.109375 20.453125 19.1875 8.296875 
z
" id="DejaVuSans-50"/>
      </defs>
      <g transform="translate(108.307277 322.182437)scale(0.1 -0.1)">
       <use xlink:href="#DejaVuSans-50"/>
       <use x="63.623047" xlink:href="#DejaVuSans-48"/>
      </g>
     </g>
    </g>
    <g id="xtick_3">
     <g id="line2d_3">
      <g>
       <use style="stroke:#000000;stroke-width:0.8;" x="155.506827" xlink:href="#ma19f807d09" y="307.584"/>
      </g>
     </g>
     <g id="text_3">
      <!-- 40 -->
      <defs>
       <path d="M 37.796875 64.3125 
L 12.890625 25.390625 
L 37.796875 25.390625 
z
M 35.203125 72.90625 
L 47.609375 72.90625 
L 47.609375 25.390625 
L 58.015625 25.390625 
L 58.015625 17.1875 
L 47.609375 17.1875 
L 47.609375 0 
L 37.796875 0 
L 37.796875 17.1875 
L 4.890625 17.1875 
L 4.890625 26.703125 
z
" id="DejaVuSans-52"/>
      </defs>
      <g transform="translate(149.144327 322.182437)scale(0.1 -0.1)">
       <use xlink:href="#DejaVuSans-52"/>
       <use x="63.623047" xlink:href="#DejaVuSans-48"/>
      </g>
     </g>
    </g>
    <g id="xtick_4">
     <g id="line2d_4">
      <g>
       <use style="stroke:#000000;stroke-width:0.8;" x="196.343877" xlink:href="#ma19f807d09" y="307.584"/>
      </g>
     </g>
     <g id="text_4">
      <!-- 60 -->
      <defs>
       <path d="M 33.015625 40.375 
Q 26.375 40.375 22.484375 35.828125 
Q 18.609375 31.296875 18.609375 23.390625 
Q 18.609375 15.53125 22.484375 10.953125 
Q 26.375 6.390625 33.015625 6.390625 
Q 39.65625 6.390625 43.53125 10.953125 
Q 47.40625 15.53125 47.40625 23.390625 
Q 47.40625 31.296875 43.53125 35.828125 
Q 39.65625 40.375 33.015625 40.375 
z
M 52.59375 71.296875 
L 52.59375 62.3125 
Q 48.875 64.0625 45.09375 64.984375 
Q 41.3125 65.921875 37.59375 65.921875 
Q 27.828125 65.921875 22.671875 59.328125 
Q 17.53125 52.734375 16.796875 39.40625 
Q 19.671875 43.65625 24.015625 45.921875 
Q 28.375 48.1875 33.59375 48.1875 
Q 44.578125 48.1875 50.953125 41.515625 
Q 57.328125 34.859375 57.328125 23.390625 
Q 57.328125 12.15625 50.6875 5.359375 
Q 44.046875 -1.421875 33.015625 -1.421875 
Q 20.359375 -1.421875 13.671875 8.265625 
Q 6.984375 17.96875 6.984375 36.375 
Q 6.984375 53.65625 15.1875 63.9375 
Q 23.390625 74.21875 37.203125 74.21875 
Q 40.921875 74.21875 44.703125 73.484375 
Q 48.484375 72.75 52.59375 71.296875 
z
" id="DejaVuSans-54"/>
      </defs>
      <g transform="translate(189.981377 322.182437)scale(0.1 -0.1)">
       <use xlink:href="#DejaVuSans-54"/>
       <use x="63.623047" xlink:href="#DejaVuSans-48"/>
      </g>
     </g>
    </g>
    <g id="xtick_5">
     <g id="line2d_5">
      <g>
       <use style="stroke:#000000;stroke-width:0.8;" x="237.180926" xlink:href="#ma19f807d09" y="307.584"/>
      </g>
     </g>
     <g id="text_5">
      <!-- 80 -->
      <defs>
       <path d="M 31.78125 34.625 
Q 24.75 34.625 20.71875 30.859375 
Q 16.703125 27.09375 16.703125 20.515625 
Q 16.703125 13.921875 20.71875 10.15625 
Q 24.75 6.390625 31.78125 6.390625 
Q 38.8125 6.390625 42.859375 10.171875 
Q 46.921875 13.96875 46.921875 20.515625 
Q 46.921875 27.09375 42.890625 30.859375 
Q 38.875 34.625 31.78125 34.625 
z
M 21.921875 38.8125 
Q 15.578125 40.375 12.03125 44.71875 
Q 8.5 49.078125 8.5 55.328125 
Q 8.5 64.0625 14.71875 69.140625 
Q 20.953125 74.21875 31.78125 74.21875 
Q 42.671875 74.21875 48.875 69.140625 
Q 55.078125 64.0625 55.078125 55.328125 
Q 55.078125 49.078125 51.53125 44.71875 
Q 48 40.375 41.703125 38.8125 
Q 48.828125 37.15625 52.796875 32.3125 
Q 56.78125 27.484375 56.78125 20.515625 
Q 56.78125 9.90625 50.3125 4.234375 
Q 43.84375 -1.421875 31.78125 -1.421875 
Q 19.734375 -1.421875 13.25 4.234375 
Q 6.78125 9.90625 6.78125 20.515625 
Q 6.78125 27.484375 10.78125 32.3125 
Q 14.796875 37.15625 21.921875 38.8125 
z
M 18.3125 54.390625 
Q 18.3125 48.734375 21.84375 45.5625 
Q 25.390625 42.390625 31.78125 42.390625 
Q 38.140625 42.390625 41.71875 45.5625 
Q 45.3125 48.734375 45.3125 54.390625 
Q 45.3125 60.0625 41.71875 63.234375 
Q 38.140625 66.40625 31.78125 66.40625 
Q 25.390625 66.40625 21.84375 63.234375 
Q 18.3125 60.0625 18.3125 54.390625 
z
" id="DejaVuSans-56"/>
      </defs>
      <g transform="translate(230.818426 322.182437)scale(0.1 -0.1)">
       <use xlink:href="#DejaVuSans-56"/>
       <use x="63.623047" xlink:href="#DejaVuSans-48"/>
      </g>
     </g>
    </g>
    <g id="xtick_6">
     <g id="line2d_6">
      <g>
       <use style="stroke:#000000;stroke-width:0.8;" x="278.017976" xlink:href="#ma19f807d09" y="307.584"/>
      </g>
     </g>
     <g id="text_6">
      <!-- 100 -->
      <defs>
       <path d="M 12.40625 8.296875 
L 28.515625 8.296875 
L 28.515625 63.921875 
L 10.984375 60.40625 
L 10.984375 69.390625 
L 28.421875 72.90625 
L 38.28125 72.90625 
L 38.28125 8.296875 
L 54.390625 8.296875 
L 54.390625 0 
L 12.40625 0 
z
" id="DejaVuSans-49"/>
      </defs>
      <g transform="translate(268.474226 322.182437)scale(0.1 -0.1)">
       <use xlink:href="#DejaVuSans-49"/>
       <use x="63.623047" xlink:href="#DejaVuSans-48"/>
       <use x="127.246094" xlink:href="#DejaVuSans-48"/>
      </g>
     </g>
    </g>
    <g id="xtick_7">
     <g id="line2d_7">
      <g>
       <use style="stroke:#000000;stroke-width:0.8;" x="318.855026" xlink:href="#ma19f807d09" y="307.584"/>
      </g>
     </g>
     <g id="text_7">
      <!-- 120 -->
      <g transform="translate(309.311276 322.182437)scale(0.1 -0.1)">
       <use xlink:href="#DejaVuSans-49"/>
       <use x="63.623047" xlink:href="#DejaVuSans-50"/>
       <use x="127.246094" xlink:href="#DejaVuSans-48"/>
      </g>
     </g>
    </g>
    <g id="xtick_8">
     <g id="line2d_8">
      <g>
       <use style="stroke:#000000;stroke-width:0.8;" x="359.692075" xlink:href="#ma19f807d09" y="307.584"/>
      </g>
     </g>
     <g id="text_8">
      <!-- 140 -->
      <g transform="translate(350.148325 322.182437)scale(0.1 -0.1)">
       <use xlink:href="#DejaVuSans-49"/>
       <use x="63.623047" xlink:href="#DejaVuSans-52"/>
       <use x="127.246094" xlink:href="#DejaVuSans-48"/>
      </g>
     </g>
    </g>
    <g id="xtick_9">
     <g id="line2d_9">
      <g>
       <use style="stroke:#000000;stroke-width:0.8;" x="400.529125" xlink:href="#ma19f807d09" y="307.584"/>
      </g>
     </g>
     <g id="text_9">
      <!-- 160 -->
      <g transform="translate(390.985375 322.182437)scale(0.1 -0.1)">
       <use xlink:href="#DejaVuSans-49"/>
       <use x="63.623047" xlink:href="#DejaVuSans-54"/>
       <use x="127.246094" xlink:href="#DejaVuSans-48"/>
      </g>
     </g>
    </g>
   </g>
   <g id="matplotlib.axis_2">
    <g id="ytick_1">
     <g id="line2d_10">
      <defs>
       <path d="M 0 0 
L -3.5 0 
" id="m1c69f1b4bd" style="stroke:#000000;stroke-width:0.8;"/>
      </defs>
      <g>
       <use style="stroke:#000000;stroke-width:0.8;" x="57.6" xlink:href="#m1c69f1b4bd" y="278.511583"/>
      </g>
     </g>
     <g id="text_10">
      <!-- −0.05 -->
      <defs>
       <path d="M 10.59375 35.5 
L 73.1875 35.5 
L 73.1875 27.203125 
L 10.59375 27.203125 
z
" id="DejaVuSans-8722"/>
       <path d="M 10.6875 12.40625 
L 21 12.40625 
L 21 0 
L 10.6875 0 
z
" id="DejaVuSans-46"/>
       <path d="M 10.796875 72.90625 
L 49.515625 72.90625 
L 49.515625 64.59375 
L 19.828125 64.59375 
L 19.828125 46.734375 
Q 21.96875 47.46875 24.109375 47.828125 
Q 26.265625 48.1875 28.421875 48.1875 
Q 40.625 48.1875 47.75 41.5 
Q 54.890625 34.8125 54.890625 23.390625 
Q 54.890625 11.625 47.5625 5.09375 
Q 40.234375 -1.421875 26.90625 -1.421875 
Q 22.3125 -1.421875 17.546875 -0.640625 
Q 12.796875 0.140625 7.71875 1.703125 
L 7.71875 11.625 
Q 12.109375 9.234375 16.796875 8.0625 
Q 21.484375 6.890625 26.703125 6.890625 
Q 35.15625 6.890625 40.078125 11.328125 
Q 45.015625 15.765625 45.015625 23.390625 
Q 45.015625 31 40.078125 35.4375 
Q 35.15625 39.890625 26.703125 39.890625 
Q 22.75 39.890625 18.8125 39.015625 
Q 14.890625 38.140625 10.796875 36.28125 
z
" id="DejaVuSans-53"/>
      </defs>
      <g transform="translate(19.954687 282.310802)scale(0.1 -0.1)">
       <use xlink:href="#DejaVuSans-8722"/>
       <use x="83.789062" xlink:href="#DejaVuSans-48"/>
       <use x="147.412109" xlink:href="#DejaVuSans-46"/>
       <use x="179.199219" xlink:href="#DejaVuSans-48"/>
       <use x="242.822266" xlink:href="#DejaVuSans-53"/>
      </g>
     </g>
    </g>
    <g id="ytick_2">
     <g id="line2d_11">
      <g>
       <use style="stroke:#000000;stroke-width:0.8;" x="57.6" xlink:href="#m1c69f1b4bd" y="241.054017"/>
      </g>
     </g>
     <g id="text_11">
      <!-- 0.00 -->
      <g transform="translate(28.334375 244.853236)scale(0.1 -0.1)">
       <use xlink:href="#DejaVuSans-48"/>
       <use x="63.623047" xlink:href="#DejaVuSans-46"/>
       <use x="95.410156" xlink:href="#DejaVuSans-48"/>
       <use x="159.033203" xlink:href="#DejaVuSans-48"/>
      </g>
     </g>
    </g>
    <g id="ytick_3">
     <g id="line2d_12">
      <g>
       <use style="stroke:#000000;stroke-width:0.8;" x="57.6" xlink:href="#m1c69f1b4bd" y="203.596451"/>
      </g>
     </g>
     <g id="text_12">
      <!-- 0.05 -->
      <g transform="translate(28.334375 207.395669)scale(0.1 -0.1)">
       <use xlink:href="#DejaVuSans-48"/>
       <use x="63.623047" xlink:href="#DejaVuSans-46"/>
       <use x="95.410156" xlink:href="#DejaVuSans-48"/>
       <use x="159.033203" xlink:href="#DejaVuSans-53"/>
      </g>
     </g>
    </g>
    <g id="ytick_4">
     <g id="line2d_13">
      <g>
       <use style="stroke:#000000;stroke-width:0.8;" x="57.6" xlink:href="#m1c69f1b4bd" y="166.138884"/>
      </g>
     </g>
     <g id="text_13">
      <!-- 0.10 -->
      <g transform="translate(28.334375 169.938103)scale(0.1 -0.1)">
       <use xlink:href="#DejaVuSans-48"/>
       <use x="63.623047" xlink:href="#DejaVuSans-46"/>
       <use x="95.410156" xlink:href="#DejaVuSans-49"/>
       <use x="159.033203" xlink:href="#DejaVuSans-48"/>
      </g>
     </g>
    </g>
    <g id="ytick_5">
     <g id="line2d_14">
      <g>
       <use style="stroke:#000000;stroke-width:0.8;" x="57.6" xlink:href="#m1c69f1b4bd" y="128.681318"/>
      </g>
     </g>
     <g id="text_14">
      <!-- 0.15 -->
      <g transform="translate(28.334375 132.480537)scale(0.1 -0.1)">
       <use xlink:href="#DejaVuSans-48"/>
       <use x="63.623047" xlink:href="#DejaVuSans-46"/>
       <use x="95.410156" xlink:href="#DejaVuSans-49"/>
       <use x="159.033203" xlink:href="#DejaVuSans-53"/>
      </g>
     </g>
    </g>
    <g id="ytick_6">
     <g id="line2d_15">
      <g>
       <use style="stroke:#000000;stroke-width:0.8;" x="57.6" xlink:href="#m1c69f1b4bd" y="91.223752"/>
      </g>
     </g>
     <g id="text_15">
      <!-- 0.20 -->
      <g transform="translate(28.334375 95.02297)scale(0.1 -0.1)">
       <use xlink:href="#DejaVuSans-48"/>
       <use x="63.623047" xlink:href="#DejaVuSans-46"/>
       <use x="95.410156" xlink:href="#DejaVuSans-50"/>
       <use x="159.033203" xlink:href="#DejaVuSans-48"/>
      </g>
     </g>
    </g>
    <g id="ytick_7">
     <g id="line2d_16">
      <g>
       <use style="stroke:#000000;stroke-width:0.8;" x="57.6" xlink:href="#m1c69f1b4bd" y="53.766185"/>
      </g>
     </g>
     <g id="text_16">
      <!-- 0.25 -->
      <g transform="translate(28.334375 57.565404)scale(0.1 -0.1)">
       <use xlink:href="#DejaVuSans-48"/>
       <use x="63.623047" xlink:href="#DejaVuSans-46"/>
       <use x="95.410156" xlink:href="#DejaVuSans-50"/>
       <use x="159.033203" xlink:href="#DejaVuSans-53"/>
      </g>
     </g>
    </g>
   </g>
   <g id="line2d_17">
    <path clip-path="url(#p08d3142aa3)" d="M 73.832727 240.057062 
L 75.87458 209.041518 
L 77.916432 215.04633 
L 79.958285 215.253954 
L 84.04199 219.635359 
L 86.083842 222.833985 
L 90.167547 203.809013 
L 92.2094 194.319452 
L 94.251252 198.283608 
L 96.293105 190.515123 
L 98.334957 186.991405 
L 100.37681 179.008861 
L 102.418662 188.976404 
L 104.460515 180.521459 
L 106.502367 186.03084 
L 108.54422 183.766604 
L 110.586072 181.275106 
L 114.669777 167.44611 
L 116.71163 173.958291 
L 118.753482 177.152411 
L 120.795334 171.131245 
L 122.837187 178.176396 
L 124.879039 171.916072 
L 126.920892 174.267014 
L 128.962744 171.550917 
L 131.004597 177.153023 
L 133.046449 171.45802 
L 135.088302 163.315096 
L 137.130154 162.597778 
L 139.172007 178.73023 
L 141.213859 167.48893 
L 143.255712 166.886113 
L 145.297564 162.330661 
L 147.339417 157.136121 
L 149.381269 162.682136 
L 151.423122 160.568963 
L 153.464974 164.111989 
L 155.506827 163.0627 
L 157.548679 170.828569 
L 159.590532 163.61217 
L 161.632384 161.248272 
L 163.674237 175.68725 
L 165.716089 164.451567 
L 167.757942 144.460704 
L 169.799794 158.96262 
L 171.841647 157.495496 
L 173.883499 152.331889 
L 175.925352 151.47505 
L 177.967204 158.074697 
L 180.009057 155.938411 
L 182.050909 165.207554 
L 184.092762 158.816052 
L 186.134614 163.497366 
L 188.176467 155.517956 
L 190.218319 148.118799 
L 192.260172 142.410202 
L 194.302024 137.841979 
L 196.343877 141.497627 
L 198.385729 134.050224 
L 200.427581 165.355345 
L 202.469434 132.254887 
L 204.511286 137.035545 
L 206.553139 136.394344 
L 208.594991 140.232077 
L 210.636844 151.286175 
L 212.678696 138.715672 
L 214.720549 141.811823 
L 216.762401 157.361369 
L 218.804254 145.366182 
L 220.846106 142.479386 
L 222.887959 164.701455 
L 224.929811 154.96753 
L 226.971664 154.953487 
L 229.013516 154.379536 
L 231.055369 154.880625 
L 233.097221 122.098024 
L 235.139074 162.859151 
L 237.180926 155.917585 
L 239.222779 161.925861 
L 241.264631 136.556932 
L 243.306484 124.141244 
L 245.348336 159.316973 
L 247.390189 163.589082 
L 249.432041 163.964613 
L 251.473894 162.34008 
L 253.515746 152.003205 
L 255.557599 131.30145 
L 257.599451 129.030725 
L 259.641304 145.716629 
L 261.683156 146.564234 
L 263.725009 151.172565 
L 265.766861 149.281065 
L 267.808714 143.522256 
L 269.850566 142.687599 
L 271.892419 141.338982 
L 273.934271 149.573457 
L 275.976123 142.21869 
L 278.017976 117.854586 
L 280.059828 131.611864 
L 282.101681 134.836411 
L 284.143533 144.675488 
L 286.185386 139.965477 
L 288.227238 143.11974 
L 290.269091 135.07349 
L 292.310943 134.612386 
L 294.352796 133.705956 
L 296.394648 136.593372 
L 298.436501 139.283975 
L 300.478353 116.890179 
L 302.520206 120.886328 
L 304.562058 127.998791 
L 306.603911 133.45385 
L 308.645763 136.709741 
L 310.687616 124.867652 
L 312.729468 125.386162 
L 314.771321 128.366769 
L 316.813173 121.240063 
L 318.855026 131.802835 
L 320.896878 146.327555 
L 322.938731 127.399458 
L 324.980583 137.852194 
L 327.022436 141.311658 
L 329.064288 117.860862 
L 331.106141 137.838236 
L 333.147993 119.545213 
L 335.189846 135.118226 
L 337.231698 123.274388 
L 339.273551 117.361155 
L 341.315403 115.358605 
L 343.357256 135.559663 
L 345.399108 128.039546 
L 347.440961 118.588511 
L 349.482813 123.360843 
L 351.524666 112.741243 
L 353.566518 116.674505 
L 355.60837 117.197014 
L 357.650223 107.997092 
L 359.692075 101.564274 
L 361.733928 111.078191 
L 363.77578 124.600645 
L 365.817633 109.244291 
L 367.859485 114.372254 
L 369.901338 114.00134 
L 371.94319 119.096004 
L 373.985043 114.490913 
L 376.026895 108.510951 
L 378.068748 98.667911 
L 380.1106 114.558601 
L 382.152453 115.188265 
L 384.194305 116.788131 
L 386.236158 116.355415 
L 388.27801 118.388616 
L 390.319863 102.321882 
L 392.361715 119.035899 
L 394.403568 115.712949 
L 396.44542 118.569654 
L 398.487273 118.404772 
L 398.487273 118.404772 
" style="fill:none;stroke:#1f77b4;stroke-linecap:square;stroke-width:0.25;"/>
   </g>
   <g id="line2d_18">
    <path clip-path="url(#p08d3142aa3)" d="M 73.832727 239.954902 
L 75.87458 216.595101 
L 77.916432 213.944161 
L 79.958285 215.663605 
L 84.04199 213.731747 
L 86.083842 214.283401 
L 90.167547 205.41711 
L 92.2094 195.390902 
L 94.251252 200.062653 
L 96.293105 194.252448 
L 98.334957 193.873395 
L 100.37681 190.106835 
L 102.418662 193.57133 
L 104.460515 188.639961 
L 106.502367 198.706466 
L 108.54422 191.045945 
L 110.586072 185.708274 
L 112.627925 181.002079 
L 114.669777 180.482213 
L 116.71163 182.145661 
L 118.753482 180.736717 
L 120.795334 184.542255 
L 122.837187 189.26497 
L 124.879039 186.311849 
L 126.920892 184.150825 
L 128.962744 181.568408 
L 131.004597 181.741012 
L 133.046449 173.603865 
L 135.088302 167.906292 
L 137.130154 170.682706 
L 139.172007 178.548587 
L 141.213859 171.513463 
L 143.255712 178.125777 
L 145.297564 175.197833 
L 147.339417 162.108775 
L 149.381269 170.612821 
L 151.423122 165.011282 
L 153.464974 178.915158 
L 155.506827 172.776858 
L 157.548679 179.440194 
L 159.590532 177.925865 
L 161.632384 164.260562 
L 163.674237 180.673921 
L 165.716089 178.299254 
L 167.757942 159.06769 
L 169.799794 170.142008 
L 171.841647 161.834965 
L 173.883499 156.530208 
L 175.925352 158.710013 
L 177.967204 168.554136 
L 180.009057 168.369671 
L 182.050909 175.67577 
L 184.092762 162.69227 
L 186.134614 164.59603 
L 188.176467 165.238094 
L 190.218319 159.655317 
L 192.260172 157.588496 
L 194.302024 152.367422 
L 196.343877 156.291425 
L 198.385729 153.741187 
L 200.427581 175.222977 
L 202.469434 149.481025 
L 204.511286 151.243819 
L 206.553139 152.111501 
L 210.636844 160.255324 
L 212.678696 145.300718 
L 214.720549 153.283676 
L 216.762401 165.412104 
L 218.804254 153.013095 
L 220.846106 152.956339 
L 222.887959 165.085044 
L 224.929811 153.839143 
L 226.971664 145.389189 
L 229.013516 152.224282 
L 231.055369 154.189618 
L 233.097221 140.688611 
L 235.139074 156.025122 
L 237.180926 153.144036 
L 239.222779 157.34271 
L 241.264631 146.389556 
L 243.306484 142.289556 
L 245.348336 158.35332 
L 247.390189 160.206032 
L 249.432041 157.194189 
L 251.473894 152.985054 
L 253.515746 147.625811 
L 255.557599 143.354043 
L 257.599451 143.2198 
L 259.641304 145.238302 
L 261.683156 144.041171 
L 263.725009 151.848645 
L 265.766861 148.06424 
L 267.808714 143.091233 
L 269.850566 143.71914 
L 271.892419 147.87929 
L 273.934271 150.363497 
L 275.976123 143.702666 
L 278.017976 131.227394 
L 280.059828 138.190052 
L 282.101681 138.04183 
L 284.143533 149.582884 
L 286.185386 145.387748 
L 288.227238 148.250705 
L 290.269091 138.204686 
L 292.310943 136.237427 
L 296.394648 140.132629 
L 298.436501 138.294428 
L 300.478353 134.156785 
L 302.520206 129.300621 
L 304.562058 135.895368 
L 306.603911 141.122444 
L 308.645763 140.769915 
L 310.687616 136.264078 
L 312.729468 136.802365 
L 314.771321 134.146823 
L 316.813173 135.452413 
L 318.855026 140.734154 
L 320.896878 141.095481 
L 322.938731 135.406831 
L 327.022436 144.551394 
L 329.064288 125.014331 
L 331.106141 139.15576 
L 333.147993 127.273509 
L 335.189846 138.689502 
L 337.231698 132.972822 
L 339.273551 119.295225 
L 341.315403 118.730876 
L 343.357256 136.53639 
L 345.399108 134.750175 
L 347.440961 126.625287 
L 349.482813 136.173323 
L 351.524666 127.38337 
L 353.566518 128.114017 
L 355.60837 126.490969 
L 357.650223 122.433818 
L 359.692075 107.237822 
L 361.733928 122.860135 
L 363.77578 136.409716 
L 365.817633 118.93814 
L 367.859485 123.331255 
L 369.901338 133.440765 
L 371.94319 132.425436 
L 373.985043 126.176483 
L 376.026895 114.47014 
L 378.068748 104.884086 
L 380.1106 124.019522 
L 382.152453 130.930519 
L 384.194305 133.148094 
L 386.236158 132.315234 
L 388.27801 132.455847 
L 390.319863 113.338656 
L 392.361715 134.732682 
L 394.403568 130.724808 
L 396.44542 135.449312 
L 398.487273 129.139725 
L 398.487273 129.139725 
" style="fill:none;stroke:#2ca02c;stroke-linecap:square;stroke-width:0.75;"/>
   </g>
   <g id="patch_3">
    <path d="M 57.6 307.584 
L 57.6 41.472 
" style="fill:none;stroke:#000000;stroke-linecap:square;stroke-linejoin:miter;stroke-width:0.8;"/>
   </g>
   <g id="patch_4">
    <path d="M 414.72 307.584 
L 414.72 41.472 
" style="fill:none;stroke:#000000;stroke-linecap:square;stroke-linejoin:miter;stroke-width:0.8;"/>
   </g>
   <g id="patch_5">
    <path d="M 57.6 307.584 
L 414.72 307.584 
" style="fill:none;stroke:#000000;stroke-linecap:square;stroke-linejoin:miter;stroke-width:0.8;"/>
   </g>
   <g id="patch_6">
    <path d="M 57.6 41.472 
L 414.72 41.472 
" style="fill:none;stroke:#000000;stroke-linecap:square;stroke-linejoin:miter;stroke-width:0.8;"/>
   </g>
   <g id="legend_1">
    <g id="patch_7">
     <path d="M 338.234063 78.82825 
L 407.72 78.82825 
Q 409.72 78.82825 409.72 76.82825 
L 409.72 48.472 
Q 409.72 46.472 407.72 46.472 
L 338.234063 46.472 
Q 336.234063 46.472 336.234063 48.472 
L 336.234063 76.82825 
Q 336.234063 78.82825 338.234063 78.82825 
z
" style="fill:#ffffff;opacity:0.8;stroke:#cccccc;stroke-linejoin:miter;"/>
    </g>
    <g id="line2d_19">
     <path d="M 340.234063 54.570437 
L 360.234063 54.570437 
" style="fill:none;stroke:#1f77b4;stroke-linecap:square;stroke-width:0.25;"/>
    </g>
    <g id="line2d_20"/>
    <g id="text_17">
     <!-- median -->
     <defs>
      <path d="M 52 44.1875 
Q 55.375 50.25 60.0625 53.125 
Q 64.75 56 71.09375 56 
Q 79.640625 56 84.28125 50.015625 
Q 88.921875 44.046875 88.921875 33.015625 
L 88.921875 0 
L 79.890625 0 
L 79.890625 32.71875 
Q 79.890625 40.578125 77.09375 44.375 
Q 74.3125 48.1875 68.609375 48.1875 
Q 61.625 48.1875 57.5625 43.546875 
Q 53.515625 38.921875 53.515625 30.90625 
L 53.515625 0 
L 44.484375 0 
L 44.484375 32.71875 
Q 44.484375 40.625 41.703125 44.40625 
Q 38.921875 48.1875 33.109375 48.1875 
Q 26.21875 48.1875 22.15625 43.53125 
Q 18.109375 38.875 18.109375 30.90625 
L 18.109375 0 
L 9.078125 0 
L 9.078125 54.6875 
L 18.109375 54.6875 
L 18.109375 46.1875 
Q 21.1875 51.21875 25.484375 53.609375 
Q 29.78125 56 35.6875 56 
Q 41.65625 56 45.828125 52.96875 
Q 50 49.953125 52 44.1875 
z
" id="DejaVuSans-109"/>
      <path d="M 56.203125 29.59375 
L 56.203125 25.203125 
L 14.890625 25.203125 
Q 15.484375 15.921875 20.484375 11.0625 
Q 25.484375 6.203125 34.421875 6.203125 
Q 39.59375 6.203125 44.453125 7.46875 
Q 49.3125 8.734375 54.109375 11.28125 
L 54.109375 2.78125 
Q 49.265625 0.734375 44.1875 -0.34375 
Q 39.109375 -1.421875 33.890625 -1.421875 
Q 20.796875 -1.421875 13.15625 6.1875 
Q 5.515625 13.8125 5.515625 26.8125 
Q 5.515625 40.234375 12.765625 48.109375 
Q 20.015625 56 32.328125 56 
Q 43.359375 56 49.78125 48.890625 
Q 56.203125 41.796875 56.203125 29.59375 
z
M 47.21875 32.234375 
Q 47.125 39.59375 43.09375 43.984375 
Q 39.0625 48.390625 32.421875 48.390625 
Q 24.90625 48.390625 20.390625 44.140625 
Q 15.875 39.890625 15.1875 32.171875 
z
" id="DejaVuSans-101"/>
      <path d="M 45.40625 46.390625 
L 45.40625 75.984375 
L 54.390625 75.984375 
L 54.390625 0 
L 45.40625 0 
L 45.40625 8.203125 
Q 42.578125 3.328125 38.25 0.953125 
Q 33.9375 -1.421875 27.875 -1.421875 
Q 17.96875 -1.421875 11.734375 6.484375 
Q 5.515625 14.40625 5.515625 27.296875 
Q 5.515625 40.1875 11.734375 48.09375 
Q 17.96875 56 27.875 56 
Q 33.9375 56 38.25 53.625 
Q 42.578125 51.265625 45.40625 46.390625 
z
M 14.796875 27.296875 
Q 14.796875 17.390625 18.875 11.75 
Q 22.953125 6.109375 30.078125 6.109375 
Q 37.203125 6.109375 41.296875 11.75 
Q 45.40625 17.390625 45.40625 27.296875 
Q 45.40625 37.203125 41.296875 42.84375 
Q 37.203125 48.484375 30.078125 48.484375 
Q 22.953125 48.484375 18.875 42.84375 
Q 14.796875 37.203125 14.796875 27.296875 
z
" id="DejaVuSans-100"/>
      <path d="M 9.421875 54.6875 
L 18.40625 54.6875 
L 18.40625 0 
L 9.421875 0 
z
M 9.421875 75.984375 
L 18.40625 75.984375 
L 18.40625 64.59375 
L 9.421875 64.59375 
z
" id="DejaVuSans-105"/>
      <path d="M 34.28125 27.484375 
Q 23.390625 27.484375 19.1875 25 
Q 14.984375 22.515625 14.984375 16.5 
Q 14.984375 11.71875 18.140625 8.90625 
Q 21.296875 6.109375 26.703125 6.109375 
Q 34.1875 6.109375 38.703125 11.40625 
Q 43.21875 16.703125 43.21875 25.484375 
L 43.21875 27.484375 
z
M 52.203125 31.203125 
L 52.203125 0 
L 43.21875 0 
L 43.21875 8.296875 
Q 40.140625 3.328125 35.546875 0.953125 
Q 30.953125 -1.421875 24.3125 -1.421875 
Q 15.921875 -1.421875 10.953125 3.296875 
Q 6 8.015625 6 15.921875 
Q 6 25.140625 12.171875 29.828125 
Q 18.359375 34.515625 30.609375 34.515625 
L 43.21875 34.515625 
L 43.21875 35.40625 
Q 43.21875 41.609375 39.140625 45 
Q 35.0625 48.390625 27.6875 48.390625 
Q 23 48.390625 18.546875 47.265625 
Q 14.109375 46.140625 10.015625 43.890625 
L 10.015625 52.203125 
Q 14.9375 54.109375 19.578125 55.046875 
Q 24.21875 56 28.609375 56 
Q 40.484375 56 46.34375 49.84375 
Q 52.203125 43.703125 52.203125 31.203125 
z
" id="DejaVuSans-97"/>
      <path d="M 54.890625 33.015625 
L 54.890625 0 
L 45.90625 0 
L 45.90625 32.71875 
Q 45.90625 40.484375 42.875 44.328125 
Q 39.84375 48.1875 33.796875 48.1875 
Q 26.515625 48.1875 22.3125 43.546875 
Q 18.109375 38.921875 18.109375 30.90625 
L 18.109375 0 
L 9.078125 0 
L 9.078125 54.6875 
L 18.109375 54.6875 
L 18.109375 46.1875 
Q 21.34375 51.125 25.703125 53.5625 
Q 30.078125 56 35.796875 56 
Q 45.21875 56 50.046875 50.171875 
Q 54.890625 44.34375 54.890625 33.015625 
z
" id="DejaVuSans-110"/>
     </defs>
     <g transform="translate(368.234063 58.070437)scale(0.1 -0.1)">
      <use xlink:href="#DejaVuSans-109"/>
      <use x="97.412109" xlink:href="#DejaVuSans-101"/>
      <use x="158.935547" xlink:href="#DejaVuSans-100"/>
      <use x="222.412109" xlink:href="#DejaVuSans-105"/>
      <use x="250.195312" xlink:href="#DejaVuSans-97"/>
      <use x="311.474609" xlink:href="#DejaVuSans-110"/>
     </g>
    </g>
    <g id="line2d_21">
     <path d="M 340.234063 69.248562 
L 360.234063 69.248562 
" style="fill:none;stroke:#2ca02c;stroke-linecap:square;stroke-width:0.75;"/>
    </g>
    <g id="line2d_22"/>
    <g id="text_18">
     <!-- mean -->
     <g transform="translate(368.234063 72.748562)scale(0.1 -0.1)">
      <use xlink:href="#DejaVuSans-109"/>
      <use x="97.412109" xlink:href="#DejaVuSans-101"/>
      <use x="158.935547" xlink:href="#DejaVuSans-97"/>
      <use x="220.214844" xlink:href="#DejaVuSans-110"/>
     </g>
    </g>
   </g>
  </g>
  <g id="text_19">
   <!-- kappa.mean over generations -->
   <defs>
    <path d="M 9.078125 75.984375 
L 18.109375 75.984375 
L 18.109375 31.109375 
L 44.921875 54.6875 
L 56.390625 54.6875 
L 27.390625 29.109375 
L 57.625 0 
L 45.90625 0 
L 18.109375 26.703125 
L 18.109375 0 
L 9.078125 0 
z
" id="DejaVuSans-107"/>
    <path d="M 18.109375 8.203125 
L 18.109375 -20.796875 
L 9.078125 -20.796875 
L 9.078125 54.6875 
L 18.109375 54.6875 
L 18.109375 46.390625 
Q 20.953125 51.265625 25.265625 53.625 
Q 29.59375 56 35.59375 56 
Q 45.5625 56 51.78125 48.09375 
Q 58.015625 40.1875 58.015625 27.296875 
Q 58.015625 14.40625 51.78125 6.484375 
Q 45.5625 -1.421875 35.59375 -1.421875 
Q 29.59375 -1.421875 25.265625 0.953125 
Q 20.953125 3.328125 18.109375 8.203125 
z
M 48.6875 27.296875 
Q 48.6875 37.203125 44.609375 42.84375 
Q 40.53125 48.484375 33.40625 48.484375 
Q 26.265625 48.484375 22.1875 42.84375 
Q 18.109375 37.203125 18.109375 27.296875 
Q 18.109375 17.390625 22.1875 11.75 
Q 26.265625 6.109375 33.40625 6.109375 
Q 40.53125 6.109375 44.609375 11.75 
Q 48.6875 17.390625 48.6875 27.296875 
z
" id="DejaVuSans-112"/>
    <path id="DejaVuSans-32"/>
    <path d="M 30.609375 48.390625 
Q 23.390625 48.390625 19.1875 42.75 
Q 14.984375 37.109375 14.984375 27.296875 
Q 14.984375 17.484375 19.15625 11.84375 
Q 23.34375 6.203125 30.609375 6.203125 
Q 37.796875 6.203125 41.984375 11.859375 
Q 46.1875 17.53125 46.1875 27.296875 
Q 46.1875 37.015625 41.984375 42.703125 
Q 37.796875 48.390625 30.609375 48.390625 
z
M 30.609375 56 
Q 42.328125 56 49.015625 48.375 
Q 55.71875 40.765625 55.71875 27.296875 
Q 55.71875 13.875 49.015625 6.21875 
Q 42.328125 -1.421875 30.609375 -1.421875 
Q 18.84375 -1.421875 12.171875 6.21875 
Q 5.515625 13.875 5.515625 27.296875 
Q 5.515625 40.765625 12.171875 48.375 
Q 18.84375 56 30.609375 56 
z
" id="DejaVuSans-111"/>
    <path d="M 2.984375 54.6875 
L 12.5 54.6875 
L 29.59375 8.796875 
L 46.6875 54.6875 
L 56.203125 54.6875 
L 35.6875 0 
L 23.484375 0 
z
" id="DejaVuSans-118"/>
    <path d="M 41.109375 46.296875 
Q 39.59375 47.171875 37.8125 47.578125 
Q 36.03125 48 33.890625 48 
Q 26.265625 48 22.1875 43.046875 
Q 18.109375 38.09375 18.109375 28.8125 
L 18.109375 0 
L 9.078125 0 
L 9.078125 54.6875 
L 18.109375 54.6875 
L 18.109375 46.1875 
Q 20.953125 51.171875 25.484375 53.578125 
Q 30.03125 56 36.53125 56 
Q 37.453125 56 38.578125 55.875 
Q 39.703125 55.765625 41.0625 55.515625 
z
" id="DejaVuSans-114"/>
    <path d="M 45.40625 27.984375 
Q 45.40625 37.75 41.375 43.109375 
Q 37.359375 48.484375 30.078125 48.484375 
Q 22.859375 48.484375 18.828125 43.109375 
Q 14.796875 37.75 14.796875 27.984375 
Q 14.796875 18.265625 18.828125 12.890625 
Q 22.859375 7.515625 30.078125 7.515625 
Q 37.359375 7.515625 41.375 12.890625 
Q 45.40625 18.265625 45.40625 27.984375 
z
M 54.390625 6.78125 
Q 54.390625 -7.171875 48.1875 -13.984375 
Q 42 -20.796875 29.203125 -20.796875 
Q 24.46875 -20.796875 20.265625 -20.09375 
Q 16.0625 -19.390625 12.109375 -17.921875 
L 12.109375 -9.1875 
Q 16.0625 -11.328125 19.921875 -12.34375 
Q 23.78125 -13.375 27.78125 -13.375 
Q 36.625 -13.375 41.015625 -8.765625 
Q 45.40625 -4.15625 45.40625 5.171875 
L 45.40625 9.625 
Q 42.625 4.78125 38.28125 2.390625 
Q 33.9375 0 27.875 0 
Q 17.828125 0 11.671875 7.65625 
Q 5.515625 15.328125 5.515625 27.984375 
Q 5.515625 40.671875 11.671875 48.328125 
Q 17.828125 56 27.875 56 
Q 33.9375 56 38.28125 53.609375 
Q 42.625 51.21875 45.40625 46.390625 
L 45.40625 54.6875 
L 54.390625 54.6875 
z
" id="DejaVuSans-103"/>
    <path d="M 18.3125 70.21875 
L 18.3125 54.6875 
L 36.8125 54.6875 
L 36.8125 47.703125 
L 18.3125 47.703125 
L 18.3125 18.015625 
Q 18.3125 11.328125 20.140625 9.421875 
Q 21.96875 7.515625 27.59375 7.515625 
L 36.8125 7.515625 
L 36.8125 0 
L 27.59375 0 
Q 17.1875 0 13.234375 3.875 
Q 9.28125 7.765625 9.28125 18.015625 
L 9.28125 47.703125 
L 2.6875 47.703125 
L 2.6875 54.6875 
L 9.28125 54.6875 
L 9.28125 70.21875 
z
" id="DejaVuSans-116"/>
    <path d="M 44.28125 53.078125 
L 44.28125 44.578125 
Q 40.484375 46.53125 36.375 47.5 
Q 32.28125 48.484375 27.875 48.484375 
Q 21.1875 48.484375 17.84375 46.4375 
Q 14.5 44.390625 14.5 40.28125 
Q 14.5 37.15625 16.890625 35.375 
Q 19.28125 33.59375 26.515625 31.984375 
L 29.59375 31.296875 
Q 39.15625 29.25 43.1875 25.515625 
Q 47.21875 21.78125 47.21875 15.09375 
Q 47.21875 7.46875 41.1875 3.015625 
Q 35.15625 -1.421875 24.609375 -1.421875 
Q 20.21875 -1.421875 15.453125 -0.5625 
Q 10.6875 0.296875 5.421875 2 
L 5.421875 11.28125 
Q 10.40625 8.6875 15.234375 7.390625 
Q 20.0625 6.109375 24.8125 6.109375 
Q 31.15625 6.109375 34.5625 8.28125 
Q 37.984375 10.453125 37.984375 14.40625 
Q 37.984375 18.0625 35.515625 20.015625 
Q 33.0625 21.96875 24.703125 23.78125 
L 21.578125 24.515625 
Q 13.234375 26.265625 9.515625 29.90625 
Q 5.8125 33.546875 5.8125 39.890625 
Q 5.8125 47.609375 11.28125 51.796875 
Q 16.75 56 26.8125 56 
Q 31.78125 56 36.171875 55.265625 
Q 40.578125 54.546875 44.28125 53.078125 
z
" id="DejaVuSans-115"/>
   </defs>
   <g transform="translate(140.184375 16.030125)scale(0.12 -0.12)">
    <use xlink:href="#DejaVuSans-107"/>
    <use x="56.160156" xlink:href="#DejaVuSans-97"/>
    <use x="117.439453" xlink:href="#DejaVuSans-112"/>
    <use x="180.916016" xlink:href="#DejaVuSans-112"/>
    <use x="244.392578" xlink:href="#DejaVuSans-97"/>
    <use x="305.671875" xlink:href="#DejaVuSans-46"/>
    <use x="337.458984" xlink:href="#DejaVuSans-109"/>
    <use x="434.871094" xlink:href="#DejaVuSans-101"/>
    <use x="496.394531" xlink:href="#DejaVuSans-97"/>
    <use x="557.673828" xlink:href="#DejaVuSans-110"/>
    <use x="621.052734" xlink:href="#DejaVuSans-32"/>
    <use x="652.839844" xlink:href="#DejaVuSans-111"/>
    <use x="714.021484" xlink:href="#DejaVuSans-118"/>
    <use x="773.201172" xlink:href="#DejaVuSans-101"/>
    <use x="834.724609" xlink:href="#DejaVuSans-114"/>
    <use x="875.837891" xlink:href="#DejaVuSans-32"/>
    <use x="907.625" xlink:href="#DejaVuSans-103"/>
    <use x="971.101562" xlink:href="#DejaVuSans-101"/>
    <use x="1032.625" xlink:href="#DejaVuSans-110"/>
    <use x="1096.003906" xlink:href="#DejaVuSans-101"/>
    <use x="1157.527344" xlink:href="#DejaVuSans-114"/>
    <use x="1198.640625" xlink:href="#DejaVuSans-97"/>
    <use x="1259.919922" xlink:href="#DejaVuSans-116"/>
    <use x="1299.128906" xlink:href="#DejaVuSans-105"/>
    <use x="1326.912109" xlink:href="#DejaVuSans-111"/>
    <use x="1388.09375" xlink:href="#DejaVuSans-110"/>
    <use x="1451.472656" xlink:href="#DejaVuSans-115"/>
   </g>
  </g>
 </g>
 <defs>
  <clipPath id="p08d3142aa3">
   <rect height="266.112" width="357.12" x="57.6" y="41.472"/>
  </clipPath>
 </defs>
</svg>
