<?xml version="1.0" encoding="utf-8" standalone="no"?>
<!DOCTYPE svg PUBLIC "-//W3C//DTD SVG 1.1//EN"
  "http://www.w3.org/Graphics/SVG/1.1/DTD/svg11.dtd">
<!-- Created with matplotlib (https://matplotlib.org/) -->
<svg height="345.6pt" version="1.1" viewBox="0 0 460.8 345.6" width="460.8pt" xmlns="http://www.w3.org/2000/svg" xmlns:xlink="http://www.w3.org/1999/xlink">
 <defs>
  <style type="text/css">
*{stroke-linecap:butt;stroke-linejoin:round;}
  </style>
 </defs>
 <g id="figure_1">
  <g id="patch_1">
   <path d="M 0 345.6 
L 460.8 345.6 
L 460.8 0 
L 0 0 
z
" style="fill:#ffffff;"/>
  </g>
  <g id="axes_1">
   <g id="patch_2">
    <path d="M 57.6 307.584 
L 414.72 307.584 
L 414.72 41.472 
L 57.6 41.472 
z
" style="fill:#ffffff;"/>
   </g>
   <g id="PolyCollection_1">
    <path clip-path="url(#p4f67f51507)" d="M 73.832727 270.332917 
L 73.832727 285.236747 
L 75.87458 288.693749 
L 77.916432 289.075427 
L 79.958285 290.489409 
L 82.000137 289.656473 
L 84.04199 289.866653 
L 86.083842 290.941812 
L 88.125695 290.825458 
L 90.167547 290.941466 
L 92.2094 290.248614 
L 94.251252 291.13585 
L 96.293105 291.285398 
L 98.334957 291.246221 
L 100.37681 290.889288 
L 102.418662 291.423973 
L 104.460515 290.913224 
L 106.502367 290.764766 
L 108.54422 291.386579 
L 110.586072 290.856702 
L 112.627925 291.522018 
L 114.669777 290.910956 
L 116.71163 290.980811 
L 118.753482 291.025512 
L 120.795334 290.932587 
L 122.837187 291.026564 
L 124.879039 292.15869 
L 126.920892 291.08041 
L 128.962744 291.046317 
L 131.004597 291.040417 
L 133.046449 292.385054 
L 135.088302 291.157702 
L 137.130154 290.969797 
L 139.172007 291.071733 
L 141.213859 292.562153 
L 143.255712 291.035286 
L 145.297564 291.142406 
L 147.339417 291.012722 
L 149.381269 291.0108 
L 151.423122 291.07115 
L 153.464974 290.969086 
L 155.506827 290.919466 
L 157.548679 291.021692 
L 159.590532 292.554557 
L 161.632384 292.68823 
L 163.674237 291.053146 
L 165.716089 292.736893 
L 167.757942 292.883676 
L 169.799794 291.095206 
L 171.841647 291.29585 
L 173.883499 291.306235 
L 175.925352 291.25707 
L 177.967204 291.268702 
L 180.009057 291.30013 
L 182.050909 291.006371 
L 184.092762 291.053136 
L 186.134614 291.117049 
L 188.176467 291.10218 
L 190.218319 293.364207 
L 192.260172 293.903651 
L 194.302024 292.124359 
L 196.343877 292.213744 
L 198.385729 291.837843 
L 200.427581 291.020835 
L 202.469434 292.040987 
L 204.511286 291.976443 
L 206.553139 291.303346 
L 208.594991 291.113214 
L 210.636844 291.148741 
L 212.678696 290.810334 
L 214.720549 291.13964 
L 216.762401 291.048845 
L 218.804254 291.088967 
L 220.846106 291.723929 
L 222.887959 290.416687 
L 224.929811 290.76018 
L 226.971664 291.099743 
L 229.013516 291.487979 
L 231.055369 291.537573 
L 233.097221 294.049338 
L 235.139074 290.784018 
L 237.180926 290.681112 
L 239.222779 290.738187 
L 241.264631 293.792477 
L 243.306484 294.125366 
L 245.348336 290.787506 
L 247.390189 290.90852 
L 249.432041 290.986008 
L 251.473894 293.851287 
L 253.515746 291.47487 
L 255.557599 294.001141 
L 257.599451 294.128539 
L 259.641304 291.407027 
L 261.683156 291.613205 
L 263.725009 291.440528 
L 265.766861 291.493763 
L 267.808714 291.571523 
L 269.850566 291.675002 
L 271.892419 291.618046 
L 273.934271 291.543859 
L 275.976123 291.660887 
L 278.017976 294.213445 
L 280.059828 292.063709 
L 282.101681 291.30865 
L 284.143533 290.044247 
L 286.185386 289.746583 
L 288.227238 290.442036 
L 290.269091 291.616972 
L 292.310943 292.262768 
L 294.352796 292.466227 
L 296.394648 292.376695 
L 298.436501 292.646117 
L 300.478353 294.712189 
L 302.520206 294.759151 
L 304.562058 294.345469 
L 306.603911 291.049851 
L 308.645763 291.201647 
L 310.687616 294.372337 
L 312.729468 294.345851 
L 314.771321 294.401376 
L 316.813173 294.374719 
L 318.855026 292.113729 
L 320.896878 291.435294 
L 322.938731 292.513969 
L 324.980583 292.90429 
L 327.022436 291.689947 
L 329.064288 294.783988 
L 331.106141 291.707261 
L 333.147993 294.808852 
L 335.189846 291.922888 
L 337.231698 294.994501 
L 339.273551 294.992955 
L 341.315403 294.818769 
L 343.357256 291.941786 
L 345.399108 292.811188 
L 347.440961 295.03484 
L 349.482813 292.36495 
L 351.524666 292.336763 
L 353.566518 291.840118 
L 355.60837 293.825251 
L 357.650223 293.315427 
L 359.692075 293.494031 
L 361.733928 293.736361 
L 363.77578 293.65406 
L 365.817633 293.457502 
L 367.859485 292.632159 
L 369.901338 293.661446 
L 371.94319 292.491539 
L 373.985043 292.435354 
L 376.026895 292.814409 
L 378.068748 294.954141 
L 380.1106 292.652741 
L 382.152453 292.753852 
L 384.194305 292.638339 
L 386.236158 293.153564 
L 388.27801 292.759088 
L 390.319863 295.058985 
L 392.361715 294.797691 
L 394.403568 292.91314 
L 396.44542 293.145965 
L 398.487273 292.894953 
L 398.487273 287.715923 
L 398.487273 287.715923 
L 396.44542 287.937953 
L 394.403568 287.618273 
L 392.361715 287.632167 
L 390.319863 289.400129 
L 388.27801 287.511613 
L 386.236158 286.378343 
L 384.194305 285.453598 
L 382.152453 286.091711 
L 380.1106 287.915799 
L 378.068748 291.273807 
L 376.026895 288.968932 
L 373.985043 287.158547 
L 371.94319 286.398032 
L 369.901338 286.410422 
L 367.859485 287.936384 
L 365.817633 288.760412 
L 363.77578 287.553796 
L 361.733928 289.26054 
L 359.692075 291.386081 
L 357.650223 289.137866 
L 355.60837 289.279434 
L 353.566518 288.796296 
L 351.524666 287.899813 
L 349.482813 287.034937 
L 347.440961 288.007516 
L 345.399108 288.558189 
L 343.357256 289.332369 
L 341.315403 289.951718 
L 339.273551 289.741569 
L 337.231698 288.713761 
L 335.189846 288.06219 
L 333.147993 289.099651 
L 331.106141 288.414437 
L 329.064288 290.340961 
L 327.022436 286.036995 
L 324.980583 287.172259 
L 322.938731 287.641625 
L 320.896878 289.287147 
L 318.855026 285.789928 
L 316.813173 289.139458 
L 314.771321 289.064061 
L 312.729468 288.537002 
L 310.687616 287.34469 
L 308.645763 288.033676 
L 306.603911 285.85356 
L 304.562058 289.889265 
L 302.520206 290.117833 
L 300.478353 288.426237 
L 298.436501 287.163101 
L 296.394648 288.457257 
L 294.352796 287.752144 
L 292.310943 287.882704 
L 290.269091 286.712622 
L 288.227238 287.904029 
L 286.185386 287.57789 
L 284.143533 286.505968 
L 282.101681 287.871545 
L 280.059828 286.80489 
L 278.017976 289.353461 
L 275.976123 287.110363 
L 273.934271 288.132422 
L 271.892419 286.69483 
L 269.850566 287.583059 
L 267.808714 287.857648 
L 265.766861 287.898498 
L 263.725009 287.63476 
L 261.683156 287.912766 
L 259.641304 288.353926 
L 257.599451 287.683423 
L 255.557599 288.609989 
L 253.515746 288.13021 
L 251.473894 286.404036 
L 249.432041 288.84692 
L 247.390189 286.921821 
L 245.348336 286.434129 
L 243.306484 289.06684 
L 241.264631 288.646342 
L 239.222779 288.432915 
L 237.180926 287.449355 
L 235.139074 286.813029 
L 233.097221 288.593311 
L 231.055369 287.208228 
L 229.013516 288.648228 
L 226.971664 288.668108 
L 224.929811 288.695397 
L 222.887959 287.91683 
L 220.846106 288.010512 
L 218.804254 287.368262 
L 216.762401 286.856762 
L 214.720549 287.59471 
L 212.678696 287.268008 
L 210.636844 287.619701 
L 208.594991 288.897866 
L 206.553139 288.108868 
L 204.511286 286.195248 
L 202.469434 288.387353 
L 200.427581 287.939135 
L 198.385729 288.2318 
L 196.343877 288.170539 
L 194.302024 287.624546 
L 192.260172 288.119793 
L 190.218319 286.869293 
L 188.176467 286.264536 
L 186.134614 286.830798 
L 184.092762 286.448607 
L 182.050909 288.876209 
L 180.009057 288.75227 
L 177.967204 288.366224 
L 175.925352 286.112312 
L 173.883499 285.849874 
L 171.841647 286.176486 
L 169.799794 289.111072 
L 167.757942 288.679495 
L 165.716089 287.54268 
L 163.674237 287.66889 
L 161.632384 288.680432 
L 159.590532 289.385481 
L 157.548679 286.103224 
L 155.506827 288.025412 
L 153.464974 288.827567 
L 151.423122 286.151309 
L 149.381269 285.757205 
L 147.339417 286.432837 
L 145.297564 288.535322 
L 143.255712 287.896539 
L 141.213859 288.903827 
L 139.172007 289.226257 
L 137.130154 286.51691 
L 135.088302 286.907834 
L 133.046449 288.053856 
L 131.004597 288.640708 
L 128.962744 288.064133 
L 126.920892 288.316673 
L 124.879039 288.912724 
L 122.837187 288.277663 
L 120.795334 287.709746 
L 118.753482 287.449138 
L 116.71163 287.104672 
L 114.669777 287.025147 
L 112.627925 287.608498 
L 110.586072 287.239873 
L 108.54422 287.386726 
L 106.502367 286.831936 
L 104.460515 287.285933 
L 102.418662 287.239677 
L 100.37681 287.695217 
L 98.334957 289.047213 
L 96.293105 290.157344 
L 94.251252 287.667991 
L 92.2094 286.733876 
L 90.167547 286.087643 
L 88.125695 285.793053 
L 86.083842 286.029583 
L 84.04199 285.683139 
L 82.000137 285.165618 
L 79.958285 285.470898 
L 77.916432 283.972878 
L 75.87458 280.454921 
L 73.832727 270.332917 
z
" style="fill:#1f77b4;fill-opacity:0.2;"/>
   </g>
   <g id="PolyCollection_2">
    <path clip-path="url(#p4f67f51507)" d="M 73.832727 138.274864 
L 73.832727 290.343865 
L 75.87458 290.436876 
L 77.916432 290.563533 
L 79.958285 290.856653 
L 82.000137 290.893401 
L 84.04199 291.044044 
L 86.083842 291.16737 
L 88.125695 291.137208 
L 90.167547 291.195184 
L 92.2094 291.331232 
L 94.251252 291.329054 
L 96.293105 291.462075 
L 98.334957 291.597203 
L 100.37681 291.539039 
L 102.418662 291.683794 
L 104.460515 291.598521 
L 106.502367 291.576948 
L 108.54422 291.673094 
L 110.586072 291.679734 
L 112.627925 291.871283 
L 114.669777 291.749607 
L 116.71163 291.88892 
L 118.753482 292.008058 
L 120.795334 292.165349 
L 122.837187 292.209133 
L 124.879039 292.363833 
L 126.920892 292.346458 
L 128.962744 292.495875 
L 131.004597 292.653029 
L 133.046449 292.752387 
L 135.088302 292.699033 
L 137.130154 292.660673 
L 139.172007 292.646481 
L 141.213859 292.787085 
L 143.255712 292.908283 
L 145.297564 292.955905 
L 147.339417 293.073572 
L 149.381269 292.949998 
L 151.423122 293.152509 
L 153.464974 292.950952 
L 155.506827 292.947235 
L 157.548679 292.978894 
L 159.590532 292.939977 
L 161.632384 292.975727 
L 163.674237 293.201936 
L 165.716089 293.042831 
L 167.757942 293.315355 
L 169.799794 293.511809 
L 171.841647 293.589324 
L 173.883499 293.82047 
L 175.925352 293.690576 
L 177.967204 293.647621 
L 180.009057 293.638328 
L 182.050909 293.824331 
L 184.092762 293.784211 
L 186.134614 293.776398 
L 188.176467 293.935274 
L 190.218319 293.833314 
L 192.260172 294.096888 
L 194.302024 293.995768 
L 196.343877 293.946105 
L 198.385729 293.916569 
L 200.427581 293.883379 
L 202.469434 294.000226 
L 204.511286 293.910006 
L 206.553139 294.078704 
L 208.594991 293.93982 
L 210.636844 293.855189 
L 212.678696 293.922907 
L 214.720549 294.080519 
L 216.762401 294.167683 
L 218.804254 294.149011 
L 220.846106 294.162417 
L 222.887959 293.989179 
L 224.929811 293.97799 
L 226.971664 294.154602 
L 229.013516 294.144055 
L 231.055369 294.416538 
L 233.097221 294.251602 
L 235.139074 294.175541 
L 237.180926 294.163652 
L 239.222779 294.382901 
L 241.264631 294.201054 
L 243.306484 294.3711 
L 245.348336 294.160295 
L 247.390189 294.183539 
L 249.432041 294.255391 
L 251.473894 294.247023 
L 253.515746 294.419001 
L 255.557599 294.322921 
L 257.599451 294.304435 
L 259.641304 294.294847 
L 261.683156 294.513731 
L 263.725009 294.213226 
L 265.766861 294.432323 
L 267.808714 294.368205 
L 269.850566 294.336306 
L 271.892419 294.290515 
L 273.934271 294.240463 
L 275.976123 294.218355 
L 278.017976 294.415637 
L 280.059828 294.3719 
L 282.101681 294.392972 
L 284.143533 294.478837 
L 286.185386 294.493709 
L 288.227238 294.385952 
L 290.269091 294.623731 
L 292.310943 294.57864 
L 294.352796 294.710797 
L 296.394648 294.690106 
L 298.436501 294.856153 
L 300.478353 294.829509 
L 302.520206 294.873047 
L 304.562058 294.788025 
L 306.603911 294.79516 
L 308.645763 294.937445 
L 310.687616 294.755354 
L 312.729468 294.732364 
L 314.771321 294.741669 
L 316.813173 294.673804 
L 318.855026 295.10902 
L 320.896878 294.850856 
L 322.938731 294.806663 
L 324.980583 294.784535 
L 327.022436 295.012579 
L 329.064288 295.073113 
L 331.106141 295.071541 
L 333.147993 295.028903 
L 335.189846 295.060164 
L 337.231698 295.155129 
L 339.273551 295.272101 
L 341.315403 295.030366 
L 343.357256 295.029735 
L 345.399108 295.192573 
L 347.440961 295.241659 
L 349.482813 295.260253 
L 351.524666 295.193095 
L 353.566518 295.110556 
L 355.60837 295.092897 
L 357.650223 295.190293 
L 359.692075 295.096779 
L 361.733928 295.138968 
L 363.77578 295.206483 
L 365.817633 295.381318 
L 367.859485 295.205409 
L 369.901338 295.188348 
L 371.94319 295.460946 
L 373.985043 295.283851 
L 376.026895 295.278994 
L 378.068748 295.301078 
L 380.1106 295.276698 
L 382.152453 295.336678 
L 384.194305 295.265783 
L 386.236158 295.246934 
L 388.27801 295.431363 
L 390.319863 295.2695 
L 392.361715 295.214713 
L 394.403568 295.450857 
L 396.44542 295.372311 
L 398.487273 295.488 
L 398.487273 227.73098 
L 398.487273 227.73098 
L 396.44542 228.093198 
L 394.403568 229.193005 
L 392.361715 230.35305 
L 390.319863 280.51647 
L 388.27801 230.268391 
L 386.236158 233.736159 
L 384.194305 222.286533 
L 382.152453 248.900101 
L 380.1106 274.243932 
L 378.068748 279.98537 
L 376.026895 233.983461 
L 373.985043 199.372923 
L 371.94319 188.324039 
L 369.901338 237.243158 
L 367.859485 231.627631 
L 365.817633 225.56995 
L 363.77578 232.458728 
L 361.733928 234.675615 
L 359.692075 281.415385 
L 357.650223 231.374708 
L 355.60837 187.229748 
L 353.566518 275.611432 
L 351.524666 275.877511 
L 349.482813 230.153206 
L 347.440961 226.239269 
L 345.399108 251.612626 
L 343.357256 226.703793 
L 341.315403 171.641509 
L 339.273551 157.062548 
L 337.231698 226.575992 
L 335.189846 274.256492 
L 333.147993 226.609544 
L 331.106141 231.302758 
L 329.064288 280.028721 
L 327.022436 253.214098 
L 324.980583 234.924607 
L 322.938731 231.696994 
L 320.896878 225.673658 
L 318.855026 238.933769 
L 316.813173 228.86481 
L 314.771321 207.369172 
L 312.729468 230.417094 
L 310.687616 215.991953 
L 308.645763 146.776512 
L 306.603911 228.885051 
L 304.562058 154.905225 
L 302.520206 238.618171 
L 300.478353 236.070457 
L 298.436501 269.32014 
L 296.394648 226.71785 
L 294.352796 231.825267 
L 292.310943 263.849468 
L 290.269091 228.930866 
L 288.227238 263.959339 
L 286.185386 178.859883 
L 284.143533 233.433145 
L 282.101681 228.266053 
L 280.059828 262.547466 
L 278.017976 254.707689 
L 275.976123 151.522811 
L 273.934271 216.896377 
L 271.892419 273.380753 
L 269.850566 230.374535 
L 267.808714 228.370678 
L 265.766861 232.09051 
L 263.725009 231.481475 
L 261.683156 232.350317 
L 259.641304 263.470277 
L 257.599451 275.549425 
L 255.557599 191.834019 
L 253.515746 230.417461 
L 251.473894 198.216887 
L 249.432041 261.263577 
L 247.390189 229.31491 
L 245.348336 228.889689 
L 243.306484 228.828566 
L 241.264631 234.299373 
L 239.222779 230.497515 
L 237.180926 233.318871 
L 235.139074 202.019832 
L 233.097221 231.060598 
L 231.055369 254.863913 
L 229.013516 277.37571 
L 226.971664 193.98711 
L 224.929811 230.032126 
L 222.887959 202.806838 
L 220.846106 183.365254 
L 218.804254 147.649369 
L 216.762401 148.897885 
L 214.720549 198.687162 
L 212.678696 272.989127 
L 210.636844 261.608278 
L 208.594991 249.836596 
L 206.553139 232.642156 
L 204.511286 256.789622 
L 202.469434 223.05863 
L 200.427581 261.087341 
L 198.385729 253.844802 
L 196.343877 253.069875 
L 194.302024 263.074967 
L 192.260172 53.568 
L 190.218319 228.125564 
L 188.176467 224.680612 
L 186.134614 240.138856 
L 184.092762 172.501933 
L 182.050909 228.168437 
L 180.009057 274.487215 
L 177.967204 229.711452 
L 175.925352 274.615726 
L 173.883499 230.611062 
L 171.841647 221.49787 
L 169.799794 262.307638 
L 167.757942 228.080346 
L 165.716089 171.358264 
L 163.674237 195.720444 
L 161.632384 260.892025 
L 159.590532 252.13091 
L 157.548679 229.538558 
L 155.506827 226.682753 
L 153.464974 231.903886 
L 151.423122 272.347945 
L 149.381269 228.646534 
L 147.339417 226.083268 
L 145.297564 251.468338 
L 143.255712 267.768013 
L 141.213859 277.076247 
L 139.172007 269.997182 
L 137.130154 228.130962 
L 135.088302 269.957361 
L 133.046449 239.103421 
L 131.004597 228.447332 
L 128.962744 227.19461 
L 126.920892 230.491423 
L 124.879039 146.766188 
L 122.837187 240.475814 
L 120.795334 171.092772 
L 118.753482 231.11029 
L 116.71163 229.393516 
L 114.669777 269.434302 
L 112.627925 264.111757 
L 110.586072 272.294981 
L 108.54422 230.147088 
L 106.502367 149.75396 
L 104.460515 144.538801 
L 102.418662 266.035397 
L 100.37681 269.653083 
L 98.334957 202.903969 
L 96.293105 268.995994 
L 94.251252 228.869179 
L 92.2094 229.188216 
L 90.167547 269.721736 
L 88.125695 230.91967 
L 86.083842 231.380185 
L 84.04199 257.683651 
L 82.000137 170.424592 
L 79.958285 230.19813 
L 77.916432 166.030384 
L 75.87458 235.282174 
L 73.832727 138.274864 
z
" style="fill:#1f77b4;fill-opacity:0.1;"/>
   </g>
   <g id="matplotlib.axis_1">
    <g id="xtick_1">
     <g id="line2d_1">
      <defs>
       <path d="M 0 0 
L 0 3.5 
" id="m63a740bbe6" style="stroke:#000000;stroke-width:0.8;"/>
      </defs>
      <g>
       <use style="stroke:#000000;stroke-width:0.8;" x="73.832727" xlink:href="#m63a740bbe6" y="307.584"/>
      </g>
     </g>
     <g id="text_1">
      <!-- 0 -->
      <defs>
       <path d="M 31.78125 66.40625 
Q 24.171875 66.40625 20.328125 58.90625 
Q 16.5 51.421875 16.5 36.375 
Q 16.5 21.390625 20.328125 13.890625 
Q 24.171875 6.390625 31.78125 6.390625 
Q 39.453125 6.390625 43.28125 13.890625 
Q 47.125 21.390625 47.125 36.375 
Q 47.125 51.421875 43.28125 58.90625 
Q 39.453125 66.40625 31.78125 66.40625 
z
M 31.78125 74.21875 
Q 44.046875 74.21875 50.515625 64.515625 
Q 56.984375 54.828125 56.984375 36.375 
Q 56.984375 17.96875 50.515625 8.265625 
Q 44.046875 -1.421875 31.78125 -1.421875 
Q 19.53125 -1.421875 13.0625 8.265625 
Q 6.59375 17.96875 6.59375 36.375 
Q 6.59375 54.828125 13.0625 64.515625 
Q 19.53125 74.21875 31.78125 74.21875 
z
" id="DejaVuSans-48"/>
      </defs>
      <g transform="translate(70.651477 322.182437)scale(0.1 -0.1)">
       <use xlink:href="#DejaVuSans-48"/>
      </g>
     </g>
    </g>
    <g id="xtick_2">
     <g id="line2d_2">
      <g>
       <use style="stroke:#000000;stroke-width:0.8;" x="114.669777" xlink:href="#m63a740bbe6" y="307.584"/>
      </g>
     </g>
     <g id="text_2">
      <!-- 20 -->
      <defs>
       <path d="M 19.1875 8.296875 
L 53.609375 8.296875 
L 53.609375 0 
L 7.328125 0 
L 7.328125 8.296875 
Q 12.9375 14.109375 22.625 23.890625 
Q 32.328125 33.6875 34.8125 36.53125 
Q 39.546875 41.84375 41.421875 45.53125 
Q 43.3125 49.21875 43.3125 52.78125 
Q 43.3125 58.59375 39.234375 62.25 
Q 35.15625 65.921875 28.609375 65.921875 
Q 23.96875 65.921875 18.8125 64.3125 
Q 13.671875 62.703125 7.8125 59.421875 
L 7.8125 69.390625 
Q 13.765625 71.78125 18.9375 73 
Q 24.125 74.21875 28.421875 74.21875 
Q 39.75 74.21875 46.484375 68.546875 
Q 53.21875 62.890625 53.21875 53.421875 
Q 53.21875 48.921875 51.53125 44.890625 
Q 49.859375 40.875 45.40625 35.40625 
Q 44.1875 33.984375 37.640625 27.21875 
Q 31.109375 20.453125 19.1875 8.296875 
z
" id="DejaVuSans-50"/>
      </defs>
      <g transform="translate(108.307277 322.182437)scale(0.1 -0.1)">
       <use xlink:href="#DejaVuSans-50"/>
       <use x="63.623047" xlink:href="#DejaVuSans-48"/>
      </g>
     </g>
    </g>
    <g id="xtick_3">
     <g id="line2d_3">
      <g>
       <use style="stroke:#000000;stroke-width:0.8;" x="155.506827" xlink:href="#m63a740bbe6" y="307.584"/>
      </g>
     </g>
     <g id="text_3">
      <!-- 40 -->
      <defs>
       <path d="M 37.796875 64.3125 
L 12.890625 25.390625 
L 37.796875 25.390625 
z
M 35.203125 72.90625 
L 47.609375 72.90625 
L 47.609375 25.390625 
L 58.015625 25.390625 
L 58.015625 17.1875 
L 47.609375 17.1875 
L 47.609375 0 
L 37.796875 0 
L 37.796875 17.1875 
L 4.890625 17.1875 
L 4.890625 26.703125 
z
" id="DejaVuSans-52"/>
      </defs>
      <g transform="translate(149.144327 322.182437)scale(0.1 -0.1)">
       <use xlink:href="#DejaVuSans-52"/>
       <use x="63.623047" xlink:href="#DejaVuSans-48"/>
      </g>
     </g>
    </g>
    <g id="xtick_4">
     <g id="line2d_4">
      <g>
       <use style="stroke:#000000;stroke-width:0.8;" x="196.343877" xlink:href="#m63a740bbe6" y="307.584"/>
      </g>
     </g>
     <g id="text_4">
      <!-- 60 -->
      <defs>
       <path d="M 33.015625 40.375 
Q 26.375 40.375 22.484375 35.828125 
Q 18.609375 31.296875 18.609375 23.390625 
Q 18.609375 15.53125 22.484375 10.953125 
Q 26.375 6.390625 33.015625 6.390625 
Q 39.65625 6.390625 43.53125 10.953125 
Q 47.40625 15.53125 47.40625 23.390625 
Q 47.40625 31.296875 43.53125 35.828125 
Q 39.65625 40.375 33.015625 40.375 
z
M 52.59375 71.296875 
L 52.59375 62.3125 
Q 48.875 64.0625 45.09375 64.984375 
Q 41.3125 65.921875 37.59375 65.921875 
Q 27.828125 65.921875 22.671875 59.328125 
Q 17.53125 52.734375 16.796875 39.40625 
Q 19.671875 43.65625 24.015625 45.921875 
Q 28.375 48.1875 33.59375 48.1875 
Q 44.578125 48.1875 50.953125 41.515625 
Q 57.328125 34.859375 57.328125 23.390625 
Q 57.328125 12.15625 50.6875 5.359375 
Q 44.046875 -1.421875 33.015625 -1.421875 
Q 20.359375 -1.421875 13.671875 8.265625 
Q 6.984375 17.96875 6.984375 36.375 
Q 6.984375 53.65625 15.1875 63.9375 
Q 23.390625 74.21875 37.203125 74.21875 
Q 40.921875 74.21875 44.703125 73.484375 
Q 48.484375 72.75 52.59375 71.296875 
z
" id="DejaVuSans-54"/>
      </defs>
      <g transform="translate(189.981377 322.182437)scale(0.1 -0.1)">
       <use xlink:href="#DejaVuSans-54"/>
       <use x="63.623047" xlink:href="#DejaVuSans-48"/>
      </g>
     </g>
    </g>
    <g id="xtick_5">
     <g id="line2d_5">
      <g>
       <use style="stroke:#000000;stroke-width:0.8;" x="237.180926" xlink:href="#m63a740bbe6" y="307.584"/>
      </g>
     </g>
     <g id="text_5">
      <!-- 80 -->
      <defs>
       <path d="M 31.78125 34.625 
Q 24.75 34.625 20.71875 30.859375 
Q 16.703125 27.09375 16.703125 20.515625 
Q 16.703125 13.921875 20.71875 10.15625 
Q 24.75 6.390625 31.78125 6.390625 
Q 38.8125 6.390625 42.859375 10.171875 
Q 46.921875 13.96875 46.921875 20.515625 
Q 46.921875 27.09375 42.890625 30.859375 
Q 38.875 34.625 31.78125 34.625 
z
M 21.921875 38.8125 
Q 15.578125 40.375 12.03125 44.71875 
Q 8.5 49.078125 8.5 55.328125 
Q 8.5 64.0625 14.71875 69.140625 
Q 20.953125 74.21875 31.78125 74.21875 
Q 42.671875 74.21875 48.875 69.140625 
Q 55.078125 64.0625 55.078125 55.328125 
Q 55.078125 49.078125 51.53125 44.71875 
Q 48 40.375 41.703125 38.8125 
Q 48.828125 37.15625 52.796875 32.3125 
Q 56.78125 27.484375 56.78125 20.515625 
Q 56.78125 9.90625 50.3125 4.234375 
Q 43.84375 -1.421875 31.78125 -1.421875 
Q 19.734375 -1.421875 13.25 4.234375 
Q 6.78125 9.90625 6.78125 20.515625 
Q 6.78125 27.484375 10.78125 32.3125 
Q 14.796875 37.15625 21.921875 38.8125 
z
M 18.3125 54.390625 
Q 18.3125 48.734375 21.84375 45.5625 
Q 25.390625 42.390625 31.78125 42.390625 
Q 38.140625 42.390625 41.71875 45.5625 
Q 45.3125 48.734375 45.3125 54.390625 
Q 45.3125 60.0625 41.71875 63.234375 
Q 38.140625 66.40625 31.78125 66.40625 
Q 25.390625 66.40625 21.84375 63.234375 
Q 18.3125 60.0625 18.3125 54.390625 
z
" id="DejaVuSans-56"/>
      </defs>
      <g transform="translate(230.818426 322.182437)scale(0.1 -0.1)">
       <use xlink:href="#DejaVuSans-56"/>
       <use x="63.623047" xlink:href="#DejaVuSans-48"/>
      </g>
     </g>
    </g>
    <g id="xtick_6">
     <g id="line2d_6">
      <g>
       <use style="stroke:#000000;stroke-width:0.8;" x="278.017976" xlink:href="#m63a740bbe6" y="307.584"/>
      </g>
     </g>
     <g id="text_6">
      <!-- 100 -->
      <defs>
       <path d="M 12.40625 8.296875 
L 28.515625 8.296875 
L 28.515625 63.921875 
L 10.984375 60.40625 
L 10.984375 69.390625 
L 28.421875 72.90625 
L 38.28125 72.90625 
L 38.28125 8.296875 
L 54.390625 8.296875 
L 54.390625 0 
L 12.40625 0 
z
" id="DejaVuSans-49"/>
      </defs>
      <g transform="translate(268.474226 322.182437)scale(0.1 -0.1)">
       <use xlink:href="#DejaVuSans-49"/>
       <use x="63.623047" xlink:href="#DejaVuSans-48"/>
       <use x="127.246094" xlink:href="#DejaVuSans-48"/>
      </g>
     </g>
    </g>
    <g id="xtick_7">
     <g id="line2d_7">
      <g>
       <use style="stroke:#000000;stroke-width:0.8;" x="318.855026" xlink:href="#m63a740bbe6" y="307.584"/>
      </g>
     </g>
     <g id="text_7">
      <!-- 120 -->
      <g transform="translate(309.311276 322.182437)scale(0.1 -0.1)">
       <use xlink:href="#DejaVuSans-49"/>
       <use x="63.623047" xlink:href="#DejaVuSans-50"/>
       <use x="127.246094" xlink:href="#DejaVuSans-48"/>
      </g>
     </g>
    </g>
    <g id="xtick_8">
     <g id="line2d_8">
      <g>
       <use style="stroke:#000000;stroke-width:0.8;" x="359.692075" xlink:href="#m63a740bbe6" y="307.584"/>
      </g>
     </g>
     <g id="text_8">
      <!-- 140 -->
      <g transform="translate(350.148325 322.182437)scale(0.1 -0.1)">
       <use xlink:href="#DejaVuSans-49"/>
       <use x="63.623047" xlink:href="#DejaVuSans-52"/>
       <use x="127.246094" xlink:href="#DejaVuSans-48"/>
      </g>
     </g>
    </g>
    <g id="xtick_9">
     <g id="line2d_9">
      <g>
       <use style="stroke:#000000;stroke-width:0.8;" x="400.529125" xlink:href="#m63a740bbe6" y="307.584"/>
      </g>
     </g>
     <g id="text_9">
      <!-- 160 -->
      <g transform="translate(390.985375 322.182437)scale(0.1 -0.1)">
       <use xlink:href="#DejaVuSans-49"/>
       <use x="63.623047" xlink:href="#DejaVuSans-54"/>
       <use x="127.246094" xlink:href="#DejaVuSans-48"/>
      </g>
     </g>
    </g>
   </g>
   <g id="matplotlib.axis_2">
    <g id="ytick_1">
     <g id="line2d_10">
      <defs>
       <path d="M 0 0 
L -3.5 0 
" id="mfa26ceaa68" style="stroke:#000000;stroke-width:0.8;"/>
      </defs>
      <g>
       <use style="stroke:#000000;stroke-width:0.8;" x="57.6" xlink:href="#mfa26ceaa68" y="288.225508"/>
      </g>
     </g>
     <g id="text_10">
      <!-- 2.5 -->
      <defs>
       <path d="M 10.6875 12.40625 
L 21 12.40625 
L 21 0 
L 10.6875 0 
z
" id="DejaVuSans-46"/>
       <path d="M 10.796875 72.90625 
L 49.515625 72.90625 
L 49.515625 64.59375 
L 19.828125 64.59375 
L 19.828125 46.734375 
Q 21.96875 47.46875 24.109375 47.828125 
Q 26.265625 48.1875 28.421875 48.1875 
Q 40.625 48.1875 47.75 41.5 
Q 54.890625 34.8125 54.890625 23.390625 
Q 54.890625 11.625 47.5625 5.09375 
Q 40.234375 -1.421875 26.90625 -1.421875 
Q 22.3125 -1.421875 17.546875 -0.640625 
Q 12.796875 0.140625 7.71875 1.703125 
L 7.71875 11.625 
Q 12.109375 9.234375 16.796875 8.0625 
Q 21.484375 6.890625 26.703125 6.890625 
Q 35.15625 6.890625 40.078125 11.328125 
Q 45.015625 15.765625 45.015625 23.390625 
Q 45.015625 31 40.078125 35.4375 
Q 35.15625 39.890625 26.703125 39.890625 
Q 22.75 39.890625 18.8125 39.015625 
Q 14.890625 38.140625 10.796875 36.28125 
z
" id="DejaVuSans-53"/>
      </defs>
      <g transform="translate(34.696875 292.024726)scale(0.1 -0.1)">
       <use xlink:href="#DejaVuSans-50"/>
       <use x="63.623047" xlink:href="#DejaVuSans-46"/>
       <use x="95.410156" xlink:href="#DejaVuSans-53"/>
      </g>
     </g>
    </g>
    <g id="ytick_2">
     <g id="line2d_11">
      <g>
       <use style="stroke:#000000;stroke-width:0.8;" x="57.6" xlink:href="#mfa26ceaa68" y="253.881904"/>
      </g>
     </g>
     <g id="text_11">
      <!-- 5.0 -->
      <g transform="translate(34.696875 257.681123)scale(0.1 -0.1)">
       <use xlink:href="#DejaVuSans-53"/>
       <use x="63.623047" xlink:href="#DejaVuSans-46"/>
       <use x="95.410156" xlink:href="#DejaVuSans-48"/>
      </g>
     </g>
    </g>
    <g id="ytick_3">
     <g id="line2d_12">
      <g>
       <use style="stroke:#000000;stroke-width:0.8;" x="57.6" xlink:href="#mfa26ceaa68" y="219.538301"/>
      </g>
     </g>
     <g id="text_12">
      <!-- 7.5 -->
      <defs>
       <path d="M 8.203125 72.90625 
L 55.078125 72.90625 
L 55.078125 68.703125 
L 28.609375 0 
L 18.3125 0 
L 43.21875 64.59375 
L 8.203125 64.59375 
z
" id="DejaVuSans-55"/>
      </defs>
      <g transform="translate(34.696875 223.33752)scale(0.1 -0.1)">
       <use xlink:href="#DejaVuSans-55"/>
       <use x="63.623047" xlink:href="#DejaVuSans-46"/>
       <use x="95.410156" xlink:href="#DejaVuSans-53"/>
      </g>
     </g>
    </g>
    <g id="ytick_4">
     <g id="line2d_13">
      <g>
       <use style="stroke:#000000;stroke-width:0.8;" x="57.6" xlink:href="#mfa26ceaa68" y="185.194697"/>
      </g>
     </g>
     <g id="text_13">
      <!-- 10.0 -->
      <g transform="translate(28.334375 188.993916)scale(0.1 -0.1)">
       <use xlink:href="#DejaVuSans-49"/>
       <use x="63.623047" xlink:href="#DejaVuSans-48"/>
       <use x="127.246094" xlink:href="#DejaVuSans-46"/>
       <use x="159.033203" xlink:href="#DejaVuSans-48"/>
      </g>
     </g>
    </g>
    <g id="ytick_5">
     <g id="line2d_14">
      <g>
       <use style="stroke:#000000;stroke-width:0.8;" x="57.6" xlink:href="#mfa26ceaa68" y="150.851094"/>
      </g>
     </g>
     <g id="text_14">
      <!-- 12.5 -->
      <g transform="translate(28.334375 154.650313)scale(0.1 -0.1)">
       <use xlink:href="#DejaVuSans-49"/>
       <use x="63.623047" xlink:href="#DejaVuSans-50"/>
       <use x="127.246094" xlink:href="#DejaVuSans-46"/>
       <use x="159.033203" xlink:href="#DejaVuSans-53"/>
      </g>
     </g>
    </g>
    <g id="ytick_6">
     <g id="line2d_15">
      <g>
       <use style="stroke:#000000;stroke-width:0.8;" x="57.6" xlink:href="#mfa26ceaa68" y="116.50749"/>
      </g>
     </g>
     <g id="text_15">
      <!-- 15.0 -->
      <g transform="translate(28.334375 120.306709)scale(0.1 -0.1)">
       <use xlink:href="#DejaVuSans-49"/>
       <use x="63.623047" xlink:href="#DejaVuSans-53"/>
       <use x="127.246094" xlink:href="#DejaVuSans-46"/>
       <use x="159.033203" xlink:href="#DejaVuSans-48"/>
      </g>
     </g>
    </g>
    <g id="ytick_7">
     <g id="line2d_16">
      <g>
       <use style="stroke:#000000;stroke-width:0.8;" x="57.6" xlink:href="#mfa26ceaa68" y="82.163887"/>
      </g>
     </g>
     <g id="text_16">
      <!-- 17.5 -->
      <g transform="translate(28.334375 85.963106)scale(0.1 -0.1)">
       <use xlink:href="#DejaVuSans-49"/>
       <use x="63.623047" xlink:href="#DejaVuSans-55"/>
       <use x="127.246094" xlink:href="#DejaVuSans-46"/>
       <use x="159.033203" xlink:href="#DejaVuSans-53"/>
      </g>
     </g>
    </g>
    <g id="ytick_8">
     <g id="line2d_17">
      <g>
       <use style="stroke:#000000;stroke-width:0.8;" x="57.6" xlink:href="#mfa26ceaa68" y="47.820283"/>
      </g>
     </g>
     <g id="text_17">
      <!-- 20.0 -->
      <g transform="translate(28.334375 51.619502)scale(0.1 -0.1)">
       <use xlink:href="#DejaVuSans-50"/>
       <use x="63.623047" xlink:href="#DejaVuSans-48"/>
       <use x="127.246094" xlink:href="#DejaVuSans-46"/>
       <use x="159.033203" xlink:href="#DejaVuSans-48"/>
      </g>
     </g>
    </g>
   </g>
   <g id="line2d_18">
    <path clip-path="url(#p4f67f51507)" d="M 73.832727 281.506193 
L 75.87458 285.174025 
L 77.916432 288.573665 
L 79.958285 289.071072 
L 86.083842 289.454756 
L 90.167547 289.969953 
L 92.2094 289.770406 
L 96.293105 290.77067 
L 98.334957 290.649715 
L 100.37681 290.117976 
L 102.418662 290.784353 
L 104.460515 290.191473 
L 106.502367 289.9942 
L 108.54422 290.31275 
L 110.586072 287.977577 
L 112.627925 290.703955 
L 114.669777 288.595067 
L 116.71163 288.32485 
L 118.753482 288.486409 
L 120.795334 289.277572 
L 122.837187 289.929384 
L 124.879039 290.733932 
L 126.920892 289.761679 
L 128.962744 289.670094 
L 131.004597 290.190049 
L 133.046449 290.438816 
L 135.088302 288.941013 
L 137.130154 289.080158 
L 139.172007 290.569738 
L 141.213859 290.965369 
L 143.255712 290.502185 
L 145.297564 290.607719 
L 147.339417 289.763667 
L 149.381269 289.462132 
L 151.423122 289.759319 
L 153.464974 290.416301 
L 155.506827 289.887451 
L 157.548679 290.423255 
L 159.590532 290.758084 
L 161.632384 290.891567 
L 163.674237 290.529159 
L 165.716089 291.05448 
L 167.757942 291.183969 
L 169.799794 290.558745 
L 171.841647 289.352109 
L 175.925352 289.040624 
L 177.967204 290.6564 
L 182.050909 290.478976 
L 184.092762 288.868666 
L 188.176467 289.940706 
L 190.218319 290.832711 
L 196.343877 291.016235 
L 198.385729 290.081705 
L 200.427581 289.908285 
L 202.469434 290.006595 
L 204.511286 290.704951 
L 206.553139 290.975813 
L 208.594991 290.918023 
L 210.636844 290.453398 
L 212.678696 289.142479 
L 214.720549 290.741419 
L 216.762401 289.286485 
L 218.804254 289.8106 
L 220.846106 289.94404 
L 222.887959 289.53517 
L 224.929811 290.373501 
L 226.971664 290.133869 
L 229.013516 290.220116 
L 231.055369 289.69873 
L 233.097221 290.035137 
L 235.139074 289.559102 
L 237.180926 289.3909 
L 239.222779 289.727249 
L 241.264631 290.642765 
L 243.306484 290.487243 
L 245.348336 289.468009 
L 247.390189 289.721754 
L 249.432041 290.443 
L 251.473894 290.831618 
L 253.515746 289.909909 
L 255.557599 291.079744 
L 257.599451 289.515954 
L 259.641304 290.703335 
L 261.683156 289.863998 
L 263.725009 289.464495 
L 265.766861 289.54512 
L 267.808714 290.743175 
L 269.850566 289.631037 
L 271.892419 289.4613 
L 273.934271 289.403302 
L 275.976123 289.084681 
L 278.017976 291.782152 
L 280.059828 289.480855 
L 282.101681 289.720606 
L 284.143533 288.465434 
L 286.185386 289.35693 
L 288.227238 289.516593 
L 290.269091 289.36769 
L 296.394648 290.126731 
L 298.436501 289.896284 
L 300.478353 290.749914 
L 302.520206 291.062298 
L 304.562058 291.027206 
L 306.603911 289.435845 
L 308.645763 290.07404 
L 310.687616 290.314224 
L 312.729468 291.151073 
L 314.771321 291.230085 
L 316.813173 291.436509 
L 318.855026 289.716968 
L 320.896878 290.849061 
L 322.938731 290.813817 
L 324.980583 291.04924 
L 327.022436 289.569521 
L 329.064288 291.570761 
L 331.106141 289.779701 
L 333.147993 291.764378 
L 335.189846 290.998251 
L 337.231698 290.967147 
L 339.273551 291.747632 
L 341.315403 291.877771 
L 343.357256 291.06642 
L 345.399108 291.746933 
L 347.440961 291.717884 
L 349.482813 289.621174 
L 351.524666 290.948394 
L 353.566518 291.097072 
L 355.60837 291.469055 
L 357.650223 291.639244 
L 359.692075 292.576217 
L 361.733928 291.902065 
L 363.77578 289.640984 
L 365.817633 292.292003 
L 367.859485 290.737381 
L 369.901338 289.95648 
L 371.94319 289.49398 
L 373.985043 290.686888 
L 376.026895 290.035336 
L 378.068748 292.418892 
L 380.1106 290.011704 
L 382.152453 290.023204 
L 384.194305 289.57984 
L 386.236158 289.418289 
L 388.27801 289.777254 
L 390.319863 293.018515 
L 392.361715 289.599609 
L 396.44542 289.847122 
L 398.487273 289.55407 
L 398.487273 289.55407 
" style="fill:none;stroke:#1f77b4;stroke-linecap:square;stroke-width:0.25;"/>
   </g>
   <g id="line2d_19">
    <path clip-path="url(#p4f67f51507)" d="M 73.832727 273.323797 
L 75.87458 279.823201 
L 77.916432 280.146088 
L 79.958285 287.363541 
L 82.000137 286.935923 
L 84.04199 287.796108 
L 86.083842 288.049014 
L 88.125695 287.714139 
L 90.167547 288.445688 
L 92.2094 288.104918 
L 96.293105 290.023789 
L 100.37681 289.007614 
L 102.418662 289.357879 
L 104.460515 288.221158 
L 106.502367 288.048161 
L 108.54422 288.984485 
L 110.586072 288.576673 
L 112.627925 289.31764 
L 114.669777 288.750563 
L 116.71163 288.437913 
L 118.753482 288.447023 
L 120.795334 288.617559 
L 124.879039 289.640383 
L 126.920892 288.570458 
L 128.962744 288.914051 
L 131.004597 289.07517 
L 133.046449 289.49202 
L 135.088302 288.762574 
L 137.130154 288.468617 
L 139.172007 289.77457 
L 141.213859 290.114709 
L 143.255712 289.574691 
L 145.297564 289.721421 
L 147.339417 288.333781 
L 149.381269 287.97336 
L 151.423122 288.537011 
L 153.464974 289.220707 
L 155.506827 288.868219 
L 157.548679 288.283834 
L 159.590532 290.073102 
L 161.632384 289.683811 
L 163.674237 288.540168 
L 165.716089 289.408391 
L 167.757942 289.306212 
L 169.799794 289.45369 
L 171.841647 288.447903 
L 173.883499 288.308386 
L 177.967204 289.392049 
L 180.009057 289.589742 
L 182.050909 289.399433 
L 184.092762 288.416471 
L 190.218319 289.307457 
L 192.260172 289.279421 
L 194.302024 289.555593 
L 196.343877 289.690229 
L 202.469434 288.765536 
L 204.511286 289.019977 
L 208.594991 290.032728 
L 210.636844 289.263539 
L 212.678696 288.89941 
L 214.720549 289.116353 
L 216.762401 287.591349 
L 220.846106 289.389981 
L 222.887959 288.771355 
L 224.929811 289.310474 
L 226.971664 289.364547 
L 229.013516 289.684133 
L 231.055369 289.302294 
L 233.097221 289.795202 
L 235.139074 288.745436 
L 237.180926 288.692289 
L 239.222779 289.099359 
L 241.264631 289.916636 
L 243.306484 290.085759 
L 245.348336 288.367738 
L 247.390189 288.494063 
L 249.432041 289.836088 
L 251.473894 289.10573 
L 255.557599 290.009918 
L 257.599451 289.974727 
L 259.641304 289.797258 
L 261.683156 289.386167 
L 263.725009 289.140963 
L 265.766861 289.445524 
L 269.850566 289.518182 
L 271.892419 289.16913 
L 273.934271 289.261398 
L 275.976123 288.610239 
L 278.017976 291.227878 
L 280.059828 289.407881 
L 282.101681 289.474071 
L 284.143533 288.704686 
L 286.185386 288.43183 
L 288.227238 289.343837 
L 290.269091 288.952158 
L 292.310943 289.773605 
L 294.352796 288.825509 
L 296.394648 289.969656 
L 298.436501 289.939842 
L 300.478353 290.602214 
L 302.520206 291.728675 
L 304.562058 290.446716 
L 306.603911 288.891378 
L 308.645763 288.776666 
L 310.687616 289.788545 
L 312.729468 290.637978 
L 314.771321 290.440261 
L 316.813173 290.708568 
L 318.855026 289.267111 
L 320.896878 290.118452 
L 322.938731 289.920357 
L 324.980583 290.166857 
L 327.022436 289.369105 
L 329.064288 292.073063 
L 331.106141 289.689597 
L 333.147993 290.607351 
L 335.189846 290.110289 
L 339.273551 290.949613 
L 341.315403 291.660996 
L 343.357256 290.06023 
L 345.399108 290.458753 
L 347.440961 290.734553 
L 349.482813 288.949373 
L 351.524666 290.356972 
L 355.60837 290.373432 
L 357.650223 290.984478 
L 359.692075 292.155567 
L 361.733928 290.864116 
L 363.77578 289.913723 
L 365.817633 290.452227 
L 367.859485 289.481926 
L 369.901338 289.464951 
L 371.94319 289.005699 
L 373.985043 288.991862 
L 376.026895 289.988785 
L 378.068748 292.446053 
L 380.1106 289.677786 
L 382.152453 289.382677 
L 384.194305 288.65069 
L 388.27801 289.031858 
L 390.319863 291.773656 
L 392.361715 289.645722 
L 394.403568 289.302511 
L 396.44542 289.116712 
L 398.487273 289.293791 
L 398.487273 289.293791 
" style="fill:none;stroke:#2ca02c;stroke-linecap:square;stroke-width:0.75;"/>
   </g>
   <g id="patch_3">
    <path d="M 57.6 307.584 
L 57.6 41.472 
" style="fill:none;stroke:#000000;stroke-linecap:square;stroke-linejoin:miter;stroke-width:0.8;"/>
   </g>
   <g id="patch_4">
    <path d="M 414.72 307.584 
L 414.72 41.472 
" style="fill:none;stroke:#000000;stroke-linecap:square;stroke-linejoin:miter;stroke-width:0.8;"/>
   </g>
   <g id="patch_5">
    <path d="M 57.6 307.584 
L 414.72 307.584 
" style="fill:none;stroke:#000000;stroke-linecap:square;stroke-linejoin:miter;stroke-width:0.8;"/>
   </g>
   <g id="patch_6">
    <path d="M 57.6 41.472 
L 414.72 41.472 
" style="fill:none;stroke:#000000;stroke-linecap:square;stroke-linejoin:miter;stroke-width:0.8;"/>
   </g>
   <g id="legend_1">
    <g id="patch_7">
     <path d="M 338.234063 78.82825 
L 407.72 78.82825 
Q 409.72 78.82825 409.72 76.82825 
L 409.72 48.472 
Q 409.72 46.472 407.72 46.472 
L 338.234063 46.472 
Q 336.234063 46.472 336.234063 48.472 
L 336.234063 76.82825 
Q 336.234063 78.82825 338.234063 78.82825 
z
" style="fill:#ffffff;opacity:0.8;stroke:#cccccc;stroke-linejoin:miter;"/>
    </g>
    <g id="line2d_20">
     <path d="M 340.234063 54.570437 
L 360.234063 54.570437 
" style="fill:none;stroke:#1f77b4;stroke-linecap:square;stroke-width:0.25;"/>
    </g>
    <g id="line2d_21"/>
    <g id="text_18">
     <!-- median -->
     <defs>
      <path d="M 52 44.1875 
Q 55.375 50.25 60.0625 53.125 
Q 64.75 56 71.09375 56 
Q 79.640625 56 84.28125 50.015625 
Q 88.921875 44.046875 88.921875 33.015625 
L 88.921875 0 
L 79.890625 0 
L 79.890625 32.71875 
Q 79.890625 40.578125 77.09375 44.375 
Q 74.3125 48.1875 68.609375 48.1875 
Q 61.625 48.1875 57.5625 43.546875 
Q 53.515625 38.921875 53.515625 30.90625 
L 53.515625 0 
L 44.484375 0 
L 44.484375 32.71875 
Q 44.484375 40.625 41.703125 44.40625 
Q 38.921875 48.1875 33.109375 48.1875 
Q 26.21875 48.1875 22.15625 43.53125 
Q 18.109375 38.875 18.109375 30.90625 
L 18.109375 0 
L 9.078125 0 
L 9.078125 54.6875 
L 18.109375 54.6875 
L 18.109375 46.1875 
Q 21.1875 51.21875 25.484375 53.609375 
Q 29.78125 56 35.6875 56 
Q 41.65625 56 45.828125 52.96875 
Q 50 49.953125 52 44.1875 
z
" id="DejaVuSans-109"/>
      <path d="M 56.203125 29.59375 
L 56.203125 25.203125 
L 14.890625 25.203125 
Q 15.484375 15.921875 20.484375 11.0625 
Q 25.484375 6.203125 34.421875 6.203125 
Q 39.59375 6.203125 44.453125 7.46875 
Q 49.3125 8.734375 54.109375 11.28125 
L 54.109375 2.78125 
Q 49.265625 0.734375 44.1875 -0.34375 
Q 39.109375 -1.421875 33.890625 -1.421875 
Q 20.796875 -1.421875 13.15625 6.1875 
Q 5.515625 13.8125 5.515625 26.8125 
Q 5.515625 40.234375 12.765625 48.109375 
Q 20.015625 56 32.328125 56 
Q 43.359375 56 49.78125 48.890625 
Q 56.203125 41.796875 56.203125 29.59375 
z
M 47.21875 32.234375 
Q 47.125 39.59375 43.09375 43.984375 
Q 39.0625 48.390625 32.421875 48.390625 
Q 24.90625 48.390625 20.390625 44.140625 
Q 15.875 39.890625 15.1875 32.171875 
z
" id="DejaVuSans-101"/>
      <path d="M 45.40625 46.390625 
L 45.40625 75.984375 
L 54.390625 75.984375 
L 54.390625 0 
L 45.40625 0 
L 45.40625 8.203125 
Q 42.578125 3.328125 38.25 0.953125 
Q 33.9375 -1.421875 27.875 -1.421875 
Q 17.96875 -1.421875 11.734375 6.484375 
Q 5.515625 14.40625 5.515625 27.296875 
Q 5.515625 40.1875 11.734375 48.09375 
Q 17.96875 56 27.875 56 
Q 33.9375 56 38.25 53.625 
Q 42.578125 51.265625 45.40625 46.390625 
z
M 14.796875 27.296875 
Q 14.796875 17.390625 18.875 11.75 
Q 22.953125 6.109375 30.078125 6.109375 
Q 37.203125 6.109375 41.296875 11.75 
Q 45.40625 17.390625 45.40625 27.296875 
Q 45.40625 37.203125 41.296875 42.84375 
Q 37.203125 48.484375 30.078125 48.484375 
Q 22.953125 48.484375 18.875 42.84375 
Q 14.796875 37.203125 14.796875 27.296875 
z
" id="DejaVuSans-100"/>
      <path d="M 9.421875 54.6875 
L 18.40625 54.6875 
L 18.40625 0 
L 9.421875 0 
z
M 9.421875 75.984375 
L 18.40625 75.984375 
L 18.40625 64.59375 
L 9.421875 64.59375 
z
" id="DejaVuSans-105"/>
      <path d="M 34.28125 27.484375 
Q 23.390625 27.484375 19.1875 25 
Q 14.984375 22.515625 14.984375 16.5 
Q 14.984375 11.71875 18.140625 8.90625 
Q 21.296875 6.109375 26.703125 6.109375 
Q 34.1875 6.109375 38.703125 11.40625 
Q 43.21875 16.703125 43.21875 25.484375 
L 43.21875 27.484375 
z
M 52.203125 31.203125 
L 52.203125 0 
L 43.21875 0 
L 43.21875 8.296875 
Q 40.140625 3.328125 35.546875 0.953125 
Q 30.953125 -1.421875 24.3125 -1.421875 
Q 15.921875 -1.421875 10.953125 3.296875 
Q 6 8.015625 6 15.921875 
Q 6 25.140625 12.171875 29.828125 
Q 18.359375 34.515625 30.609375 34.515625 
L 43.21875 34.515625 
L 43.21875 35.40625 
Q 43.21875 41.609375 39.140625 45 
Q 35.0625 48.390625 27.6875 48.390625 
Q 23 48.390625 18.546875 47.265625 
Q 14.109375 46.140625 10.015625 43.890625 
L 10.015625 52.203125 
Q 14.9375 54.109375 19.578125 55.046875 
Q 24.21875 56 28.609375 56 
Q 40.484375 56 46.34375 49.84375 
Q 52.203125 43.703125 52.203125 31.203125 
z
" id="DejaVuSans-97"/>
      <path d="M 54.890625 33.015625 
L 54.890625 0 
L 45.90625 0 
L 45.90625 32.71875 
Q 45.90625 40.484375 42.875 44.328125 
Q 39.84375 48.1875 33.796875 48.1875 
Q 26.515625 48.1875 22.3125 43.546875 
Q 18.109375 38.921875 18.109375 30.90625 
L 18.109375 0 
L 9.078125 0 
L 9.078125 54.6875 
L 18.109375 54.6875 
L 18.109375 46.1875 
Q 21.34375 51.125 25.703125 53.5625 
Q 30.078125 56 35.796875 56 
Q 45.21875 56 50.046875 50.171875 
Q 54.890625 44.34375 54.890625 33.015625 
z
" id="DejaVuSans-110"/>
     </defs>
     <g transform="translate(368.234063 58.070437)scale(0.1 -0.1)">
      <use xlink:href="#DejaVuSans-109"/>
      <use x="97.412109" xlink:href="#DejaVuSans-101"/>
      <use x="158.935547" xlink:href="#DejaVuSans-100"/>
      <use x="222.412109" xlink:href="#DejaVuSans-105"/>
      <use x="250.195312" xlink:href="#DejaVuSans-97"/>
      <use x="311.474609" xlink:href="#DejaVuSans-110"/>
     </g>
    </g>
    <g id="line2d_22">
     <path d="M 340.234063 69.248562 
L 360.234063 69.248562 
" style="fill:none;stroke:#2ca02c;stroke-linecap:square;stroke-width:0.75;"/>
    </g>
    <g id="line2d_23"/>
    <g id="text_19">
     <!-- mean -->
     <g transform="translate(368.234063 72.748562)scale(0.1 -0.1)">
      <use xlink:href="#DejaVuSans-109"/>
      <use x="97.412109" xlink:href="#DejaVuSans-101"/>
      <use x="158.935547" xlink:href="#DejaVuSans-97"/>
      <use x="220.214844" xlink:href="#DejaVuSans-110"/>
     </g>
    </g>
   </g>
  </g>
  <g id="text_20">
   <!-- log_loss.mean over generations -->
   <defs>
    <path d="M 9.421875 75.984375 
L 18.40625 75.984375 
L 18.40625 0 
L 9.421875 0 
z
" id="DejaVuSans-108"/>
    <path d="M 30.609375 48.390625 
Q 23.390625 48.390625 19.1875 42.75 
Q 14.984375 37.109375 14.984375 27.296875 
Q 14.984375 17.484375 19.15625 11.84375 
Q 23.34375 6.203125 30.609375 6.203125 
Q 37.796875 6.203125 41.984375 11.859375 
Q 46.1875 17.53125 46.1875 27.296875 
Q 46.1875 37.015625 41.984375 42.703125 
Q 37.796875 48.390625 30.609375 48.390625 
z
M 30.609375 56 
Q 42.328125 56 49.015625 48.375 
Q 55.71875 40.765625 55.71875 27.296875 
Q 55.71875 13.875 49.015625 6.21875 
Q 42.328125 -1.421875 30.609375 -1.421875 
Q 18.84375 -1.421875 12.171875 6.21875 
Q 5.515625 13.875 5.515625 27.296875 
Q 5.515625 40.765625 12.171875 48.375 
Q 18.84375 56 30.609375 56 
z
" id="DejaVuSans-111"/>
    <path d="M 45.40625 27.984375 
Q 45.40625 37.75 41.375 43.109375 
Q 37.359375 48.484375 30.078125 48.484375 
Q 22.859375 48.484375 18.828125 43.109375 
Q 14.796875 37.75 14.796875 27.984375 
Q 14.796875 18.265625 18.828125 12.890625 
Q 22.859375 7.515625 30.078125 7.515625 
Q 37.359375 7.515625 41.375 12.890625 
Q 45.40625 18.265625 45.40625 27.984375 
z
M 54.390625 6.78125 
Q 54.390625 -7.171875 48.1875 -13.984375 
Q 42 -20.796875 29.203125 -20.796875 
Q 24.46875 -20.796875 20.265625 -20.09375 
Q 16.0625 -19.390625 12.109375 -17.921875 
L 12.109375 -9.1875 
Q 16.0625 -11.328125 19.921875 -12.34375 
Q 23.78125 -13.375 27.78125 -13.375 
Q 36.625 -13.375 41.015625 -8.765625 
Q 45.40625 -4.15625 45.40625 5.171875 
L 45.40625 9.625 
Q 42.625 4.78125 38.28125 2.390625 
Q 33.9375 0 27.875 0 
Q 17.828125 0 11.671875 7.65625 
Q 5.515625 15.328125 5.515625 27.984375 
Q 5.515625 40.671875 11.671875 48.328125 
Q 17.828125 56 27.875 56 
Q 33.9375 56 38.28125 53.609375 
Q 42.625 51.21875 45.40625 46.390625 
L 45.40625 54.6875 
L 54.390625 54.6875 
z
" id="DejaVuSans-103"/>
    <path d="M 50.984375 -16.609375 
L 50.984375 -23.578125 
L -0.984375 -23.578125 
L -0.984375 -16.609375 
z
" id="DejaVuSans-95"/>
    <path d="M 44.28125 53.078125 
L 44.28125 44.578125 
Q 40.484375 46.53125 36.375 47.5 
Q 32.28125 48.484375 27.875 48.484375 
Q 21.1875 48.484375 17.84375 46.4375 
Q 14.5 44.390625 14.5 40.28125 
Q 14.5 37.15625 16.890625 35.375 
Q 19.28125 33.59375 26.515625 31.984375 
L 29.59375 31.296875 
Q 39.15625 29.25 43.1875 25.515625 
Q 47.21875 21.78125 47.21875 15.09375 
Q 47.21875 7.46875 41.1875 3.015625 
Q 35.15625 -1.421875 24.609375 -1.421875 
Q 20.21875 -1.421875 15.453125 -0.5625 
Q 10.6875 0.296875 5.421875 2 
L 5.421875 11.28125 
Q 10.40625 8.6875 15.234375 7.390625 
Q 20.0625 6.109375 24.8125 6.109375 
Q 31.15625 6.109375 34.5625 8.28125 
Q 37.984375 10.453125 37.984375 14.40625 
Q 37.984375 18.0625 35.515625 20.015625 
Q 33.0625 21.96875 24.703125 23.78125 
L 21.578125 24.515625 
Q 13.234375 26.265625 9.515625 29.90625 
Q 5.8125 33.546875 5.8125 39.890625 
Q 5.8125 47.609375 11.28125 51.796875 
Q 16.75 56 26.8125 56 
Q 31.78125 56 36.171875 55.265625 
Q 40.578125 54.546875 44.28125 53.078125 
z
" id="DejaVuSans-115"/>
    <path id="DejaVuSans-32"/>
    <path d="M 2.984375 54.6875 
L 12.5 54.6875 
L 29.59375 8.796875 
L 46.6875 54.6875 
L 56.203125 54.6875 
L 35.6875 0 
L 23.484375 0 
z
" id="DejaVuSans-118"/>
    <path d="M 41.109375 46.296875 
Q 39.59375 47.171875 37.8125 47.578125 
Q 36.03125 48 33.890625 48 
Q 26.265625 48 22.1875 43.046875 
Q 18.109375 38.09375 18.109375 28.8125 
L 18.109375 0 
L 9.078125 0 
L 9.078125 54.6875 
L 18.109375 54.6875 
L 18.109375 46.1875 
Q 20.953125 51.171875 25.484375 53.578125 
Q 30.03125 56 36.53125 56 
Q 37.453125 56 38.578125 55.875 
Q 39.703125 55.765625 41.0625 55.515625 
z
" id="DejaVuSans-114"/>
    <path d="M 18.3125 70.21875 
L 18.3125 54.6875 
L 36.8125 54.6875 
L 36.8125 47.703125 
L 18.3125 47.703125 
L 18.3125 18.015625 
Q 18.3125 11.328125 20.140625 9.421875 
Q 21.96875 7.515625 27.59375 7.515625 
L 36.8125 7.515625 
L 36.8125 0 
L 27.59375 0 
Q 17.1875 0 13.234375 3.875 
Q 9.28125 7.765625 9.28125 18.015625 
L 9.28125 47.703125 
L 2.6875 47.703125 
L 2.6875 54.6875 
L 9.28125 54.6875 
L 9.28125 70.21875 
z
" id="DejaVuSans-116"/>
   </defs>
   <g transform="translate(134.789062 16.030125)scale(0.12 -0.12)">
    <use xlink:href="#DejaVuSans-108"/>
    <use x="27.783203" xlink:href="#DejaVuSans-111"/>
    <use x="88.964844" xlink:href="#DejaVuSans-103"/>
    <use x="152.441406" xlink:href="#DejaVuSans-95"/>
    <use x="202.441406" xlink:href="#DejaVuSans-108"/>
    <use x="230.224609" xlink:href="#DejaVuSans-111"/>
    <use x="291.40625" xlink:href="#DejaVuSans-115"/>
    <use x="343.505859" xlink:href="#DejaVuSans-115"/>
    <use x="395.605469" xlink:href="#DejaVuSans-46"/>
    <use x="427.392578" xlink:href="#DejaVuSans-109"/>
    <use x="524.804688" xlink:href="#DejaVuSans-101"/>
    <use x="586.328125" xlink:href="#DejaVuSans-97"/>
    <use x="647.607422" xlink:href="#DejaVuSans-110"/>
    <use x="710.986328" xlink:href="#DejaVuSans-32"/>
    <use x="742.773438" xlink:href="#DejaVuSans-111"/>
    <use x="803.955078" xlink:href="#DejaVuSans-118"/>
    <use x="863.134766" xlink:href="#DejaVuSans-101"/>
    <use x="924.658203" xlink:href="#DejaVuSans-114"/>
    <use x="965.771484" xlink:href="#DejaVuSans-32"/>
    <use x="997.558594" xlink:href="#DejaVuSans-103"/>
    <use x="1061.035156" xlink:href="#DejaVuSans-101"/>
    <use x="1122.558594" xlink:href="#DejaVuSans-110"/>
    <use x="1185.9375" xlink:href="#DejaVuSans-101"/>
    <use x="1247.460938" xlink:href="#DejaVuSans-114"/>
    <use x="1288.574219" xlink:href="#DejaVuSans-97"/>
    <use x="1349.853516" xlink:href="#DejaVuSans-116"/>
    <use x="1389.0625" xlink:href="#DejaVuSans-105"/>
    <use x="1416.845703" xlink:href="#DejaVuSans-111"/>
    <use x="1478.027344" xlink:href="#DejaVuSans-110"/>
    <use x="1541.40625" xlink:href="#DejaVuSans-115"/>
   </g>
  </g>
 </g>
 <defs>
  <clipPath id="p4f67f51507">
   <rect height="266.112" width="357.12" x="57.6" y="41.472"/>
  </clipPath>
 </defs>
</svg>
