<?xml version="1.0" encoding="utf-8" standalone="no"?>
<!DOCTYPE svg PUBLIC "-//W3C//DTD SVG 1.1//EN"
  "http://www.w3.org/Graphics/SVG/1.1/DTD/svg11.dtd">
<!-- Created with matplotlib (https://matplotlib.org/) -->
<svg height="345.6pt" version="1.1" viewBox="0 0 460.8 345.6" width="460.8pt" xmlns="http://www.w3.org/2000/svg" xmlns:xlink="http://www.w3.org/1999/xlink">
 <defs>
  <style type="text/css">
*{stroke-linecap:butt;stroke-linejoin:round;}
  </style>
 </defs>
 <g id="figure_1">
  <g id="patch_1">
   <path d="M 0 345.6 
L 460.8 345.6 
L 460.8 0 
L 0 0 
z
" style="fill:#ffffff;"/>
  </g>
  <g id="axes_1">
   <g id="patch_2">
    <path d="M 57.6 307.584 
L 414.72 307.584 
L 414.72 41.472 
L 57.6 41.472 
z
" style="fill:#ffffff;"/>
   </g>
   <g id="PolyCollection_1">
    <path clip-path="url(#p57fb3234e0)" d="M 73.832727 234.061605 
L 73.832727 260.864227 
L 75.87458 239.137318 
L 77.916432 232.865219 
L 79.958285 232.418806 
L 82.000137 233.079497 
L 84.04199 237.347203 
L 86.083842 231.63312 
L 88.125695 227.561835 
L 90.167547 224.990498 
L 92.2094 212.937353 
L 94.251252 221.133492 
L 96.293105 218.660365 
L 98.334957 222.291614 
L 100.37681 221.240631 
L 102.418662 217.269789 
L 104.460515 205.259054 
L 106.502367 232.990214 
L 108.54422 208.276804 
L 110.586072 205.437619 
L 112.627925 197.455759 
L 114.669777 217.044351 
L 116.71163 204.473368 
L 118.753482 205.455476 
L 120.795334 227.490409 
L 122.837187 228.168957 
L 124.879039 226.250657 
L 126.920892 223.633403 
L 128.962744 216.057779 
L 131.004597 214.08017 
L 133.046449 195.225481 
L 135.088302 191.051765 
L 137.130154 197.580755 
L 139.172007 210.562437 
L 141.213859 194.812996 
L 143.255712 218.705006 
L 145.297564 213.455192 
L 147.339417 179.57544 
L 149.381269 199.881915 
L 151.423122 185.795458 
L 153.464974 216.062243 
L 155.506827 211.276698 
L 157.548679 219.419267 
L 159.590532 217.847894 
L 161.632384 187.456113 
L 163.674237 230.579585 
L 165.716089 226.490445 
L 167.757942 196.152234 
L 169.799794 221.633474 
L 171.841647 192.02738 
L 173.883499 179.170693 
L 175.925352 182.185563 
L 177.967204 211.848106 
L 180.009057 212.062384 
L 182.050909 217.575582 
L 184.092762 186.764174 
L 186.134614 201.777034 
L 188.176467 220.669222 
L 190.218319 181.321715 
L 192.260172 188.366795 
L 194.302024 178.841686 
L 196.343877 181.292429 
L 198.385729 180.807539 
L 200.427581 237.204351 
L 202.469434 177.849116 
L 204.511286 174.724422 
L 206.553139 181.39168 
L 208.594991 187.956096 
L 210.636844 188.18823 
L 212.678696 169.403182 
L 214.720549 180.75362 
L 216.762401 202.937708 
L 218.804254 180.132125 
L 220.846106 185.509754 
L 222.887959 199.07707 
L 224.929811 189.402473 
L 226.971664 162.595387 
L 229.013516 179.027841 
L 231.055369 187.348974 
L 233.097221 165.939019 
L 235.139074 188.456078 
L 237.180926 183.456255 
L 239.222779 191.848815 
L 241.264631 173.956592 
L 243.306484 177.874193 
L 245.348336 187.848957 
L 247.390189 193.777318 
L 249.432041 194.848709 
L 251.473894 182.0223 
L 253.515746 173.938735 
L 255.557599 178.154471 
L 257.599451 174.58157 
L 259.641304 171.260259 
L 261.683156 175.349399 
L 263.725009 186.70614 
L 265.766861 175.031554 
L 267.808714 172.58164 
L 269.850566 171.420967 
L 271.892419 178.224298 
L 273.934271 179.13498 
L 275.976123 159.707097 
L 278.017976 148.064652 
L 280.059828 165.72474 
L 282.101681 160.278505 
L 284.143533 182.331295 
L 286.185386 177.063624 
L 288.227238 182.420577 
L 290.269091 160.349931 
L 292.310943 157.225042 
L 294.352796 163.992659 
L 296.394648 163.935518 
L 298.436501 161.6356 
L 300.478353 166.194962 
L 302.520206 158.56428 
L 304.562058 161.314182 
L 306.603911 169.171047 
L 308.645763 171.837619 
L 310.687616 177.915304 
L 312.729468 163.421251 
L 314.771321 162.653421 
L 316.813173 159.796379 
L 318.855026 178.849275 
L 320.896878 162.70699 
L 322.938731 168.242508 
L 324.980583 173.286685 
L 327.022436 183.849098 
L 329.064288 153.510887 
L 331.106141 167.063979 
L 333.147993 142.386282 
L 335.189846 160.492783 
L 337.231698 163.617672 
L 339.273551 137.171118 
L 341.315403 133.922296 
L 343.357256 157.96073 
L 345.399108 169.992446 
L 347.440961 155.528673 
L 349.482813 181.206335 
L 351.524666 145.136184 
L 353.566518 147.671809 
L 355.60837 136.821067 
L 357.650223 144.707628 
L 359.692075 116.851472 
L 361.733928 135.600808 
L 363.77578 180.313509 
L 365.817633 136.386494 
L 367.859485 151.189541 
L 369.901338 173.7066 
L 371.94319 183.527681 
L 373.985043 151.975228 
L 376.026895 129.079765 
L 378.068748 113.941539 
L 380.1106 146.886122 
L 382.152453 178.777849 
L 384.194305 183.99195 
L 386.236158 176.920772 
L 388.27801 184.581215 
L 390.319863 122.347706 
L 392.361715 180.00102 
L 394.403568 177.420755 
L 396.44542 184.920489 
L 398.487273 169.778168 
L 398.487273 87.959639 
L 398.487273 87.959639 
L 396.44542 97.994997 
L 394.403568 96.423624 
L 392.361715 103.209098 
L 390.319863 89.834572 
L 388.27801 92.35234 
L 386.236158 101.066317 
L 384.194305 96.173633 
L 382.152453 97.905715 
L 380.1106 98.619975 
L 378.068748 92.852322 
L 376.026895 89.084599 
L 373.985043 105.673297 
L 371.94319 93.093385 
L 369.901338 103.209098 
L 367.859485 94.780825 
L 365.817633 94.995104 
L 363.77578 97.637867 
L 361.733928 104.280489 
L 359.692075 97.745006 
L 357.650223 104.423341 
L 355.60837 102.066282 
L 353.566518 113.28017 
L 351.524666 107.208957 
L 349.482813 101.905573 
L 347.440961 96.352198 
L 345.399108 101.584156 
L 343.357256 119.333527 
L 341.315403 101.994856 
L 339.273551 99.405662 
L 337.231698 103.280524 
L 335.189846 123.779798 
L 333.147993 102.762686 
L 331.106141 114.315848 
L 329.064288 106.869683 
L 327.022436 111.208815 
L 324.980583 108.351773 
L 322.938731 116.851472 
L 320.896878 119.208531 
L 318.855026 113.856042 
L 316.813173 114.422987 
L 314.771321 109.923146 
L 312.729468 113.460255 
L 310.687616 109.601729 
L 308.645763 121.117392 
L 306.603911 114.708691 
L 304.562058 114.208709 
L 302.520206 104.351915 
L 300.478353 111.065963 
L 298.436501 114.494413 
L 296.394648 120.684923 
L 294.352796 118.512128 
L 292.310943 114.048 
L 290.269091 114.119426 
L 288.227238 122.851259 
L 286.185386 117.672872 
L 284.143533 118.315706 
L 282.101681 115.422951 
L 280.059828 116.422916 
L 278.017976 112.137353 
L 275.976123 120.815617 
L 273.934271 121.779869 
L 271.892419 120.190639 
L 269.850566 112.637336 
L 267.808714 111.405236 
L 265.766861 117.83358 
L 263.725009 121.547734 
L 261.683156 106.726831 
L 259.641304 113.565874 
L 257.599451 115.637229 
L 255.557599 120.279922 
L 253.515746 110.494554 
L 251.473894 116.095547 
L 249.432041 122.851259 
L 247.390189 125.310994 
L 245.348336 125.672588 
L 243.306484 114.780117 
L 241.264631 123.279816 
L 239.222779 120.165264 
L 237.180926 120.13707 
L 235.139074 121.529878 
L 233.097221 116.780046 
L 231.055369 110.923111 
L 229.013516 118.141605 
L 226.971664 124.136928 
L 224.929811 125.779727 
L 222.887959 130.297424 
L 220.846106 124.922615 
L 218.804254 125.51188 
L 216.762401 135.707947 
L 214.720549 123.708372 
L 212.678696 124.27978 
L 210.636844 131.54738 
L 208.594991 124.833332 
L 206.553139 118.654265 
L 204.511286 124.136928 
L 202.469434 117.780011 
L 200.427581 132.204395 
L 198.385729 124.708337 
L 196.343877 125.208319 
L 194.302024 118.333562 
L 192.260172 116.628266 
L 190.218319 127.243961 
L 188.176467 121.190604 
L 186.134614 130.850976 
L 184.092762 140.493492 
L 182.050909 137.065042 
L 180.009057 140.279213 
L 177.967204 144.85048 
L 175.925352 141.404174 
L 173.883499 128.208213 
L 171.841647 139.064971 
L 169.799794 139.493527 
L 167.757942 144.064794 
L 165.716089 148.493208 
L 163.674237 140.207787 
L 161.632384 142.636273 
L 159.590532 165.599745 
L 157.548679 154.992978 
L 155.506827 157.921446 
L 153.464974 161.564174 
L 151.423122 153.577444 
L 149.381269 159.492818 
L 147.339417 150.903837 
L 145.297564 150.99312 
L 143.255712 157.992872 
L 141.213859 156.992907 
L 139.172007 151.475245 
L 137.130154 150.493137 
L 135.088302 155.85009 
L 133.046449 152.778771 
L 131.004597 153.993013 
L 128.962744 159.189258 
L 126.920892 151.439532 
L 124.879039 166.992553 
L 122.837187 165.956875 
L 120.795334 155.950533 
L 118.753482 150.475281 
L 116.71163 162.135582 
L 114.669777 155.421534 
L 112.627925 159.999943 
L 110.586072 164.281934 
L 108.54422 179.206406 
L 106.502367 179.706388 
L 104.460515 177.331472 
L 102.418662 177.072553 
L 100.37681 173.135192 
L 98.334957 169.278186 
L 96.293105 179.059089 
L 94.251252 187.759674 
L 92.2094 182.259869 
L 90.167547 192.063093 
L 88.125695 206.062597 
L 86.083842 205.562615 
L 84.04199 207.205414 
L 82.000137 218.401446 
L 79.958285 216.597938 
L 77.916432 209.062491 
L 75.87458 210.776716 
L 73.832727 234.061605 
z
" style="fill:#1f77b4;fill-opacity:0.2;"/>
   </g>
   <g id="PolyCollection_2">
    <path clip-path="url(#p57fb3234e0)" d="M 73.832727 194.491578 
L 73.832727 295.488 
L 75.87458 274.20304 
L 77.916432 270.41746 
L 79.958285 266.846158 
L 82.000137 261.917761 
L 84.04199 268.631809 
L 86.083842 268.846087 
L 88.125695 270.131755 
L 90.167547 280.131401 
L 92.2094 274.703022 
L 94.251252 258.846441 
L 96.293105 274.988726 
L 98.334957 273.274501 
L 100.37681 269.846051 
L 102.418662 260.84637 
L 104.460515 251.846689 
L 106.502367 258.489311 
L 108.54422 256.70366 
L 110.586072 258.775015 
L 112.627925 273.488779 
L 114.669777 254.418027 
L 116.71163 255.560843 
L 118.753482 249.989612 
L 120.795334 259.703554 
L 122.837187 255.917973 
L 124.879039 252.703802 
L 126.920892 260.48924 
L 128.962744 257.560772 
L 131.004597 248.632517 
L 133.046449 248.275387 
L 135.088302 255.632269 
L 137.130154 251.275281 
L 139.172007 241.989895 
L 141.213859 245.346919 
L 143.255712 244.989789 
L 145.297564 251.061003 
L 147.339417 254.989435 
L 149.381269 249.561056 
L 151.423122 250.989577 
L 153.464974 253.132358 
L 155.506827 251.775263 
L 157.548679 252.703802 
L 159.590532 258.417885 
L 161.632384 253.560914 
L 163.674237 260.917796 
L 165.716089 254.775157 
L 167.757942 250.989577 
L 169.799794 263.774838 
L 171.841647 243.204138 
L 173.883499 241.918469 
L 175.925352 252.275245 
L 177.967204 247.775405 
L 180.009057 256.275104 
L 182.050909 258.417885 
L 184.092762 253.846618 
L 186.134614 248.275387 
L 188.176467 254.346601 
L 190.218319 264.346246 
L 192.260172 261.274926 
L 194.302024 256.203678 
L 196.343877 247.061144 
L 198.385729 257.846476 
L 200.427581 254.775157 
L 202.469434 251.346707 
L 204.511286 238.775724 
L 206.553139 258.703589 
L 208.594991 253.918044 
L 210.636844 246.846866 
L 212.678696 222.0906 
L 214.720549 253.132358 
L 216.762401 256.775086 
L 218.804254 245.846902 
L 220.846106 250.132464 
L 222.887959 256.560808 
L 224.929811 235.132996 
L 226.971664 223.561977 
L 229.013516 250.56102 
L 231.055369 256.846512 
L 233.097221 249.061073 
L 235.139074 246.632588 
L 237.180926 248.489665 
L 239.222779 254.846583 
L 241.264631 243.275564 
L 243.306484 237.347203 
L 245.348336 249.989612 
L 247.390189 252.346671 
L 249.432041 248.489665 
L 251.473894 235.490126 
L 253.515746 232.061676 
L 255.557599 247.418275 
L 257.599451 245.204067 
L 259.641304 229.347486 
L 261.683156 235.204422 
L 263.725009 253.489488 
L 265.766861 244.132677 
L 267.808714 257.06079 
L 269.850566 250.703872 
L 271.892419 255.060861 
L 273.934271 251.489559 
L 275.976123 256.132252 
L 278.017976 231.204563 
L 280.059828 225.561906 
L 282.101681 226.776149 
L 284.143533 244.061251 
L 286.185386 236.990073 
L 288.227238 222.06203 
L 290.269091 240.132818 
L 292.310943 248.989647 
L 294.352796 265.489063 
L 296.394648 269.203217 
L 298.436501 237.418629 
L 300.478353 253.918044 
L 302.520206 252.346671 
L 304.562058 254.846583 
L 306.603911 249.84676 
L 308.645763 245.775476 
L 310.687616 253.203784 
L 312.729468 242.061321 
L 314.771321 239.775688 
L 316.813173 221.919178 
L 318.855026 242.489878 
L 320.896878 225.990462 
L 322.938731 236.061534 
L 324.980583 218.776432 
L 327.022436 240.918505 
L 329.064288 206.205449 
L 331.106141 247.918257 
L 333.147993 249.561056 
L 335.189846 239.704262 
L 337.231698 238.418593 
L 339.273551 237.990037 
L 341.315403 212.276662 
L 343.357256 248.346813 
L 345.399108 216.705077 
L 347.440961 253.27521 
L 349.482813 247.775405 
L 351.524666 236.275812 
L 353.566518 226.919001 
L 355.60837 244.061251 
L 357.650223 226.633297 
L 359.692075 188.402508 
L 361.733928 235.347274 
L 363.77578 240.989931 
L 365.817633 255.632269 
L 367.859485 224.633368 
L 369.901338 241.561339 
L 371.94319 243.132712 
L 373.985043 247.561127 
L 376.026895 215.490834 
L 378.068748 217.91932 
L 380.1106 228.5618 
L 382.152453 240.204244 
L 384.194305 249.918186 
L 386.236158 228.276096 
L 388.27801 248.418239 
L 390.319863 238.061463 
L 392.361715 247.489701 
L 394.403568 221.633474 
L 396.44542 253.27521 
L 398.487273 248.275387 
L 398.487273 53.568 
L 398.487273 53.568 
L 396.44542 65.496149 
L 394.403568 67.067522 
L 392.361715 81.120595 
L 390.319863 58.139267 
L 388.27801 71.06738 
L 386.236158 68.924599 
L 384.194305 70.638824 
L 382.152453 63.210516 
L 380.1106 67.067522 
L 378.068748 70.853102 
L 376.026895 55.639355 
L 373.985043 73.495865 
L 371.94319 68.138912 
L 369.901338 79.452797 
L 367.859485 67.567504 
L 365.817633 77.995706 
L 363.77578 84.566902 
L 361.733928 87.8525 
L 359.692075 72.424475 
L 357.650223 85.209736 
L 355.60837 92.923748 
L 353.566518 81.781286 
L 351.524666 88.638186 
L 349.482813 75.924351 
L 347.440961 89.138168 
L 345.399108 82.924103 
L 343.357256 93.738005 
L 341.315403 88.495334 
L 339.273551 75.924351 
L 337.231698 65.210445 
L 335.189846 95.78079 
L 333.147993 93.066601 
L 331.106141 92.70947 
L 329.064288 70.067415 
L 327.022436 95.709364 
L 324.980583 98.423554 
L 322.938731 91.709506 
L 320.896878 99.834218 
L 318.855026 87.995352 
L 316.813173 107.066104 
L 314.771321 87.209665 
L 312.729468 79.495653 
L 310.687616 76.995741 
L 308.645763 89.28102 
L 306.603911 102.294845 
L 304.562058 100.316344 
L 302.520206 95.566512 
L 300.478353 80.709895 
L 298.436501 91.423802 
L 296.394648 95.637938 
L 294.352796 108.994608 
L 292.310943 101.566299 
L 290.269091 97.852145 
L 288.227238 101.994856 
L 286.185386 102.209134 
L 284.143533 103.709081 
L 282.101681 92.566618 
L 280.059828 107.208957 
L 278.017976 102.137708 
L 275.976123 104.851897 
L 273.934271 110.923111 
L 271.892419 93.352305 
L 269.850566 105.351879 
L 267.808714 92.280914 
L 265.766861 87.781073 
L 263.725009 110.61955 
L 261.683156 92.209488 
L 259.641304 106.566122 
L 257.599451 106.566122 
L 255.557599 106.208992 
L 253.515746 101.566299 
L 251.473894 79.638505 
L 249.432041 98.709258 
L 247.390189 112.984942 
L 245.348336 111.708797 
L 243.306484 101.066317 
L 241.264631 111.887362 
L 239.222779 105.923288 
L 237.180926 99.56637 
L 235.139074 109.066034 
L 233.097221 101.780578 
L 231.055369 98.066423 
L 229.013516 107.280383 
L 226.971664 104.709045 
L 224.929811 102.709116 
L 222.887959 114.664736 
L 220.846106 113.423022 
L 218.804254 113.481462 
L 216.762401 104.137637 
L 214.720549 112.661144 
L 212.678696 111.637371 
L 210.636844 111.770019 
L 208.594991 106.923252 
L 206.553139 104.637619 
L 204.511286 109.708868 
L 202.469434 100.352057 
L 200.427581 117.601445 
L 198.385729 112.637336 
L 196.343877 115.637229 
L 194.302024 108.923182 
L 192.260172 111.565945 
L 190.218319 110.851685 
L 188.176467 105.566158 
L 186.134614 110.637407 
L 184.092762 116.844329 
L 182.050909 115.565803 
L 180.009057 104.709045 
L 177.967204 113.88219 
L 175.925352 112.73257 
L 173.883499 109.637442 
L 171.841647 113.173031 
L 169.799794 100.137779 
L 167.757942 108.423199 
L 165.716089 118.579982 
L 163.674237 118.833545 
L 161.632384 111.065963 
L 159.590532 118.922827 
L 157.548679 115.208673 
L 155.506827 117.922863 
L 153.464974 115.065821 
L 151.423122 118.573633 
L 149.381269 114.280135 
L 147.339417 110.280276 
L 145.297564 106.280418 
L 143.255712 118.022859 
L 141.213859 116.887185 
L 139.172007 118.137141 
L 137.130154 121.065609 
L 135.088302 127.840879 
L 133.046449 128.589151 
L 131.004597 121.779869 
L 128.962744 126.63684 
L 126.920892 124.208354 
L 124.879039 134.886547 
L 122.837187 133.85087 
L 120.795334 133.208035 
L 118.753482 128.708195 
L 116.71163 144.386211 
L 114.669777 132.779479 
L 112.627925 137.136468 
L 110.586072 139.493527 
L 108.54422 155.809275 
L 106.502367 155.707238 
L 104.460515 155.035833 
L 102.418662 153.975157 
L 100.37681 145.56474 
L 98.334957 155.064404 
L 96.293105 155.635812 
L 94.251252 167.778239 
L 92.2094 160.849913 
L 90.167547 170.778133 
L 88.125695 174.849417 
L 86.083842 180.849205 
L 84.04199 178.992128 
L 82.000137 182.134873 
L 79.958285 185.491897 
L 77.916432 178.063589 
L 75.87458 193.634466 
L 73.832727 194.491578 
z
" style="fill:#1f77b4;fill-opacity:0.1;"/>
   </g>
   <g id="matplotlib.axis_1">
    <g id="xtick_1">
     <g id="line2d_1">
      <defs>
       <path d="M 0 0 
L 0 3.5 
" id="m30d58c5a54" style="stroke:#000000;stroke-width:0.8;"/>
      </defs>
      <g>
       <use style="stroke:#000000;stroke-width:0.8;" x="73.832727" xlink:href="#m30d58c5a54" y="307.584"/>
      </g>
     </g>
     <g id="text_1">
      <!-- 0 -->
      <defs>
       <path d="M 31.78125 66.40625 
Q 24.171875 66.40625 20.328125 58.90625 
Q 16.5 51.421875 16.5 36.375 
Q 16.5 21.390625 20.328125 13.890625 
Q 24.171875 6.390625 31.78125 6.390625 
Q 39.453125 6.390625 43.28125 13.890625 
Q 47.125 21.390625 47.125 36.375 
Q 47.125 51.421875 43.28125 58.90625 
Q 39.453125 66.40625 31.78125 66.40625 
z
M 31.78125 74.21875 
Q 44.046875 74.21875 50.515625 64.515625 
Q 56.984375 54.828125 56.984375 36.375 
Q 56.984375 17.96875 50.515625 8.265625 
Q 44.046875 -1.421875 31.78125 -1.421875 
Q 19.53125 -1.421875 13.0625 8.265625 
Q 6.59375 17.96875 6.59375 36.375 
Q 6.59375 54.828125 13.0625 64.515625 
Q 19.53125 74.21875 31.78125 74.21875 
z
" id="DejaVuSans-48"/>
      </defs>
      <g transform="translate(70.651477 322.182437)scale(0.1 -0.1)">
       <use xlink:href="#DejaVuSans-48"/>
      </g>
     </g>
    </g>
    <g id="xtick_2">
     <g id="line2d_2">
      <g>
       <use style="stroke:#000000;stroke-width:0.8;" x="114.669777" xlink:href="#m30d58c5a54" y="307.584"/>
      </g>
     </g>
     <g id="text_2">
      <!-- 20 -->
      <defs>
       <path d="M 19.1875 8.296875 
L 53.609375 8.296875 
L 53.609375 0 
L 7.328125 0 
L 7.328125 8.296875 
Q 12.9375 14.109375 22.625 23.890625 
Q 32.328125 33.6875 34.8125 36.53125 
Q 39.546875 41.84375 41.421875 45.53125 
Q 43.3125 49.21875 43.3125 52.78125 
Q 43.3125 58.59375 39.234375 62.25 
Q 35.15625 65.921875 28.609375 65.921875 
Q 23.96875 65.921875 18.8125 64.3125 
Q 13.671875 62.703125 7.8125 59.421875 
L 7.8125 69.390625 
Q 13.765625 71.78125 18.9375 73 
Q 24.125 74.21875 28.421875 74.21875 
Q 39.75 74.21875 46.484375 68.546875 
Q 53.21875 62.890625 53.21875 53.421875 
Q 53.21875 48.921875 51.53125 44.890625 
Q 49.859375 40.875 45.40625 35.40625 
Q 44.1875 33.984375 37.640625 27.21875 
Q 31.109375 20.453125 19.1875 8.296875 
z
" id="DejaVuSans-50"/>
      </defs>
      <g transform="translate(108.307277 322.182437)scale(0.1 -0.1)">
       <use xlink:href="#DejaVuSans-50"/>
       <use x="63.623047" xlink:href="#DejaVuSans-48"/>
      </g>
     </g>
    </g>
    <g id="xtick_3">
     <g id="line2d_3">
      <g>
       <use style="stroke:#000000;stroke-width:0.8;" x="155.506827" xlink:href="#m30d58c5a54" y="307.584"/>
      </g>
     </g>
     <g id="text_3">
      <!-- 40 -->
      <defs>
       <path d="M 37.796875 64.3125 
L 12.890625 25.390625 
L 37.796875 25.390625 
z
M 35.203125 72.90625 
L 47.609375 72.90625 
L 47.609375 25.390625 
L 58.015625 25.390625 
L 58.015625 17.1875 
L 47.609375 17.1875 
L 47.609375 0 
L 37.796875 0 
L 37.796875 17.1875 
L 4.890625 17.1875 
L 4.890625 26.703125 
z
" id="DejaVuSans-52"/>
      </defs>
      <g transform="translate(149.144327 322.182437)scale(0.1 -0.1)">
       <use xlink:href="#DejaVuSans-52"/>
       <use x="63.623047" xlink:href="#DejaVuSans-48"/>
      </g>
     </g>
    </g>
    <g id="xtick_4">
     <g id="line2d_4">
      <g>
       <use style="stroke:#000000;stroke-width:0.8;" x="196.343877" xlink:href="#m30d58c5a54" y="307.584"/>
      </g>
     </g>
     <g id="text_4">
      <!-- 60 -->
      <defs>
       <path d="M 33.015625 40.375 
Q 26.375 40.375 22.484375 35.828125 
Q 18.609375 31.296875 18.609375 23.390625 
Q 18.609375 15.53125 22.484375 10.953125 
Q 26.375 6.390625 33.015625 6.390625 
Q 39.65625 6.390625 43.53125 10.953125 
Q 47.40625 15.53125 47.40625 23.390625 
Q 47.40625 31.296875 43.53125 35.828125 
Q 39.65625 40.375 33.015625 40.375 
z
M 52.59375 71.296875 
L 52.59375 62.3125 
Q 48.875 64.0625 45.09375 64.984375 
Q 41.3125 65.921875 37.59375 65.921875 
Q 27.828125 65.921875 22.671875 59.328125 
Q 17.53125 52.734375 16.796875 39.40625 
Q 19.671875 43.65625 24.015625 45.921875 
Q 28.375 48.1875 33.59375 48.1875 
Q 44.578125 48.1875 50.953125 41.515625 
Q 57.328125 34.859375 57.328125 23.390625 
Q 57.328125 12.15625 50.6875 5.359375 
Q 44.046875 -1.421875 33.015625 -1.421875 
Q 20.359375 -1.421875 13.671875 8.265625 
Q 6.984375 17.96875 6.984375 36.375 
Q 6.984375 53.65625 15.1875 63.9375 
Q 23.390625 74.21875 37.203125 74.21875 
Q 40.921875 74.21875 44.703125 73.484375 
Q 48.484375 72.75 52.59375 71.296875 
z
" id="DejaVuSans-54"/>
      </defs>
      <g transform="translate(189.981377 322.182437)scale(0.1 -0.1)">
       <use xlink:href="#DejaVuSans-54"/>
       <use x="63.623047" xlink:href="#DejaVuSans-48"/>
      </g>
     </g>
    </g>
    <g id="xtick_5">
     <g id="line2d_5">
      <g>
       <use style="stroke:#000000;stroke-width:0.8;" x="237.180926" xlink:href="#m30d58c5a54" y="307.584"/>
      </g>
     </g>
     <g id="text_5">
      <!-- 80 -->
      <defs>
       <path d="M 31.78125 34.625 
Q 24.75 34.625 20.71875 30.859375 
Q 16.703125 27.09375 16.703125 20.515625 
Q 16.703125 13.921875 20.71875 10.15625 
Q 24.75 6.390625 31.78125 6.390625 
Q 38.8125 6.390625 42.859375 10.171875 
Q 46.921875 13.96875 46.921875 20.515625 
Q 46.921875 27.09375 42.890625 30.859375 
Q 38.875 34.625 31.78125 34.625 
z
M 21.921875 38.8125 
Q 15.578125 40.375 12.03125 44.71875 
Q 8.5 49.078125 8.5 55.328125 
Q 8.5 64.0625 14.71875 69.140625 
Q 20.953125 74.21875 31.78125 74.21875 
Q 42.671875 74.21875 48.875 69.140625 
Q 55.078125 64.0625 55.078125 55.328125 
Q 55.078125 49.078125 51.53125 44.71875 
Q 48 40.375 41.703125 38.8125 
Q 48.828125 37.15625 52.796875 32.3125 
Q 56.78125 27.484375 56.78125 20.515625 
Q 56.78125 9.90625 50.3125 4.234375 
Q 43.84375 -1.421875 31.78125 -1.421875 
Q 19.734375 -1.421875 13.25 4.234375 
Q 6.78125 9.90625 6.78125 20.515625 
Q 6.78125 27.484375 10.78125 32.3125 
Q 14.796875 37.15625 21.921875 38.8125 
z
M 18.3125 54.390625 
Q 18.3125 48.734375 21.84375 45.5625 
Q 25.390625 42.390625 31.78125 42.390625 
Q 38.140625 42.390625 41.71875 45.5625 
Q 45.3125 48.734375 45.3125 54.390625 
Q 45.3125 60.0625 41.71875 63.234375 
Q 38.140625 66.40625 31.78125 66.40625 
Q 25.390625 66.40625 21.84375 63.234375 
Q 18.3125 60.0625 18.3125 54.390625 
z
" id="DejaVuSans-56"/>
      </defs>
      <g transform="translate(230.818426 322.182437)scale(0.1 -0.1)">
       <use xlink:href="#DejaVuSans-56"/>
       <use x="63.623047" xlink:href="#DejaVuSans-48"/>
      </g>
     </g>
    </g>
    <g id="xtick_6">
     <g id="line2d_6">
      <g>
       <use style="stroke:#000000;stroke-width:0.8;" x="278.017976" xlink:href="#m30d58c5a54" y="307.584"/>
      </g>
     </g>
     <g id="text_6">
      <!-- 100 -->
      <defs>
       <path d="M 12.40625 8.296875 
L 28.515625 8.296875 
L 28.515625 63.921875 
L 10.984375 60.40625 
L 10.984375 69.390625 
L 28.421875 72.90625 
L 38.28125 72.90625 
L 38.28125 8.296875 
L 54.390625 8.296875 
L 54.390625 0 
L 12.40625 0 
z
" id="DejaVuSans-49"/>
      </defs>
      <g transform="translate(268.474226 322.182437)scale(0.1 -0.1)">
       <use xlink:href="#DejaVuSans-49"/>
       <use x="63.623047" xlink:href="#DejaVuSans-48"/>
       <use x="127.246094" xlink:href="#DejaVuSans-48"/>
      </g>
     </g>
    </g>
    <g id="xtick_7">
     <g id="line2d_7">
      <g>
       <use style="stroke:#000000;stroke-width:0.8;" x="318.855026" xlink:href="#m30d58c5a54" y="307.584"/>
      </g>
     </g>
     <g id="text_7">
      <!-- 120 -->
      <g transform="translate(309.311276 322.182437)scale(0.1 -0.1)">
       <use xlink:href="#DejaVuSans-49"/>
       <use x="63.623047" xlink:href="#DejaVuSans-50"/>
       <use x="127.246094" xlink:href="#DejaVuSans-48"/>
      </g>
     </g>
    </g>
    <g id="xtick_8">
     <g id="line2d_8">
      <g>
       <use style="stroke:#000000;stroke-width:0.8;" x="359.692075" xlink:href="#m30d58c5a54" y="307.584"/>
      </g>
     </g>
     <g id="text_8">
      <!-- 140 -->
      <g transform="translate(350.148325 322.182437)scale(0.1 -0.1)">
       <use xlink:href="#DejaVuSans-49"/>
       <use x="63.623047" xlink:href="#DejaVuSans-52"/>
       <use x="127.246094" xlink:href="#DejaVuSans-48"/>
      </g>
     </g>
    </g>
    <g id="xtick_9">
     <g id="line2d_9">
      <g>
       <use style="stroke:#000000;stroke-width:0.8;" x="400.529125" xlink:href="#m30d58c5a54" y="307.584"/>
      </g>
     </g>
     <g id="text_9">
      <!-- 160 -->
      <g transform="translate(390.985375 322.182437)scale(0.1 -0.1)">
       <use xlink:href="#DejaVuSans-49"/>
       <use x="63.623047" xlink:href="#DejaVuSans-54"/>
       <use x="127.246094" xlink:href="#DejaVuSans-48"/>
      </g>
     </g>
    </g>
   </g>
   <g id="matplotlib.axis_2">
    <g id="ytick_1">
     <g id="line2d_10">
      <defs>
       <path d="M 0 0 
L -3.5 0 
" id="m7dc50f7620" style="stroke:#000000;stroke-width:0.8;"/>
      </defs>
      <g>
       <use style="stroke:#000000;stroke-width:0.8;" x="57.6" xlink:href="#m7dc50f7620" y="291.488142"/>
      </g>
     </g>
     <g id="text_10">
      <!-- 0.05 -->
      <defs>
       <path d="M 10.6875 12.40625 
L 21 12.40625 
L 21 0 
L 10.6875 0 
z
" id="DejaVuSans-46"/>
       <path d="M 10.796875 72.90625 
L 49.515625 72.90625 
L 49.515625 64.59375 
L 19.828125 64.59375 
L 19.828125 46.734375 
Q 21.96875 47.46875 24.109375 47.828125 
Q 26.265625 48.1875 28.421875 48.1875 
Q 40.625 48.1875 47.75 41.5 
Q 54.890625 34.8125 54.890625 23.390625 
Q 54.890625 11.625 47.5625 5.09375 
Q 40.234375 -1.421875 26.90625 -1.421875 
Q 22.3125 -1.421875 17.546875 -0.640625 
Q 12.796875 0.140625 7.71875 1.703125 
L 7.71875 11.625 
Q 12.109375 9.234375 16.796875 8.0625 
Q 21.484375 6.890625 26.703125 6.890625 
Q 35.15625 6.890625 40.078125 11.328125 
Q 45.015625 15.765625 45.015625 23.390625 
Q 45.015625 31 40.078125 35.4375 
Q 35.15625 39.890625 26.703125 39.890625 
Q 22.75 39.890625 18.8125 39.015625 
Q 14.890625 38.140625 10.796875 36.28125 
z
" id="DejaVuSans-53"/>
      </defs>
      <g transform="translate(28.334375 295.28736)scale(0.1 -0.1)">
       <use xlink:href="#DejaVuSans-48"/>
       <use x="63.623047" xlink:href="#DejaVuSans-46"/>
       <use x="95.410156" xlink:href="#DejaVuSans-48"/>
       <use x="159.033203" xlink:href="#DejaVuSans-53"/>
      </g>
     </g>
    </g>
    <g id="ytick_2">
     <g id="line2d_11">
      <g>
       <use style="stroke:#000000;stroke-width:0.8;" x="57.6" xlink:href="#m7dc50f7620" y="248.632517"/>
      </g>
     </g>
     <g id="text_11">
      <!-- 0.10 -->
      <g transform="translate(28.334375 252.431736)scale(0.1 -0.1)">
       <use xlink:href="#DejaVuSans-48"/>
       <use x="63.623047" xlink:href="#DejaVuSans-46"/>
       <use x="95.410156" xlink:href="#DejaVuSans-49"/>
       <use x="159.033203" xlink:href="#DejaVuSans-48"/>
      </g>
     </g>
    </g>
    <g id="ytick_3">
     <g id="line2d_12">
      <g>
       <use style="stroke:#000000;stroke-width:0.8;" x="57.6" xlink:href="#m7dc50f7620" y="205.776893"/>
      </g>
     </g>
     <g id="text_12">
      <!-- 0.15 -->
      <g transform="translate(28.334375 209.576112)scale(0.1 -0.1)">
       <use xlink:href="#DejaVuSans-48"/>
       <use x="63.623047" xlink:href="#DejaVuSans-46"/>
       <use x="95.410156" xlink:href="#DejaVuSans-49"/>
       <use x="159.033203" xlink:href="#DejaVuSans-53"/>
      </g>
     </g>
    </g>
    <g id="ytick_4">
     <g id="line2d_13">
      <g>
       <use style="stroke:#000000;stroke-width:0.8;" x="57.6" xlink:href="#m7dc50f7620" y="162.921268"/>
      </g>
     </g>
     <g id="text_13">
      <!-- 0.20 -->
      <g transform="translate(28.334375 166.720487)scale(0.1 -0.1)">
       <use xlink:href="#DejaVuSans-48"/>
       <use x="63.623047" xlink:href="#DejaVuSans-46"/>
       <use x="95.410156" xlink:href="#DejaVuSans-50"/>
       <use x="159.033203" xlink:href="#DejaVuSans-48"/>
      </g>
     </g>
    </g>
    <g id="ytick_5">
     <g id="line2d_14">
      <g>
       <use style="stroke:#000000;stroke-width:0.8;" x="57.6" xlink:href="#m7dc50f7620" y="120.065644"/>
      </g>
     </g>
     <g id="text_14">
      <!-- 0.25 -->
      <g transform="translate(28.334375 123.864863)scale(0.1 -0.1)">
       <use xlink:href="#DejaVuSans-48"/>
       <use x="63.623047" xlink:href="#DejaVuSans-46"/>
       <use x="95.410156" xlink:href="#DejaVuSans-50"/>
       <use x="159.033203" xlink:href="#DejaVuSans-53"/>
      </g>
     </g>
    </g>
    <g id="ytick_6">
     <g id="line2d_15">
      <g>
       <use style="stroke:#000000;stroke-width:0.8;" x="57.6" xlink:href="#m7dc50f7620" y="77.210019"/>
      </g>
     </g>
     <g id="text_15">
      <!-- 0.30 -->
      <defs>
       <path d="M 40.578125 39.3125 
Q 47.65625 37.796875 51.625 33 
Q 55.609375 28.21875 55.609375 21.1875 
Q 55.609375 10.40625 48.1875 4.484375 
Q 40.765625 -1.421875 27.09375 -1.421875 
Q 22.515625 -1.421875 17.65625 -0.515625 
Q 12.796875 0.390625 7.625 2.203125 
L 7.625 11.71875 
Q 11.71875 9.328125 16.59375 8.109375 
Q 21.484375 6.890625 26.8125 6.890625 
Q 36.078125 6.890625 40.9375 10.546875 
Q 45.796875 14.203125 45.796875 21.1875 
Q 45.796875 27.640625 41.28125 31.265625 
Q 36.765625 34.90625 28.71875 34.90625 
L 20.21875 34.90625 
L 20.21875 43.015625 
L 29.109375 43.015625 
Q 36.375 43.015625 40.234375 45.921875 
Q 44.09375 48.828125 44.09375 54.296875 
Q 44.09375 59.90625 40.109375 62.90625 
Q 36.140625 65.921875 28.71875 65.921875 
Q 24.65625 65.921875 20.015625 65.03125 
Q 15.375 64.15625 9.8125 62.3125 
L 9.8125 71.09375 
Q 15.4375 72.65625 20.34375 73.4375 
Q 25.25 74.21875 29.59375 74.21875 
Q 40.828125 74.21875 47.359375 69.109375 
Q 53.90625 64.015625 53.90625 55.328125 
Q 53.90625 49.265625 50.4375 45.09375 
Q 46.96875 40.921875 40.578125 39.3125 
z
" id="DejaVuSans-51"/>
      </defs>
      <g transform="translate(28.334375 81.009238)scale(0.1 -0.1)">
       <use xlink:href="#DejaVuSans-48"/>
       <use x="63.623047" xlink:href="#DejaVuSans-46"/>
       <use x="95.410156" xlink:href="#DejaVuSans-51"/>
       <use x="159.033203" xlink:href="#DejaVuSans-48"/>
      </g>
     </g>
    </g>
   </g>
   <g id="line2d_16">
    <path clip-path="url(#p57fb3234e0)" d="M 73.832727 249.096787 
L 75.87458 215.740825 
L 77.916432 220.919213 
L 79.958285 220.463872 
L 82.000137 222.919143 
L 84.04199 231.561693 
L 86.083842 227.276131 
L 88.125695 219.133562 
L 90.167547 208.633934 
L 92.2094 198.812854 
L 94.251252 201.777034 
L 96.293105 195.991525 
L 98.334957 193.092818 
L 100.37681 184.491933 
L 102.418662 193.455901 
L 104.460515 186.456149 
L 106.502367 192.37826 
L 108.54422 190.098877 
L 110.586072 185.277619 
L 112.627925 176.885059 
L 114.669777 171.778097 
L 116.71163 177.635033 
L 118.753482 183.134838 
L 120.795334 176.313651 
L 122.837187 182.891149 
L 124.879039 175.563678 
L 126.920892 178.787415 
L 128.962744 176.992198 
L 131.004597 182.40017 
L 133.046449 176.849346 
L 135.088302 167.375192 
L 137.130154 166.13544 
L 139.172007 184.849063 
L 141.213859 173.7066 
L 143.255712 170.920985 
L 145.297564 165.144404 
L 147.339417 162.278434 
L 149.381269 170.421003 
L 151.423122 164.903341 
L 153.464974 168.956769 
L 155.506827 166.992553 
L 157.548679 175.197149 
L 159.590532 171.974519 
L 161.632384 166.421144 
L 163.674237 180.908268 
L 165.716089 168.206795 
L 167.757942 151.957371 
L 169.799794 161.885591 
L 171.841647 162.778416 
L 173.883499 156.2754 
L 175.925352 156.366879 
L 177.967204 162.528425 
L 180.009057 159.064262 
L 182.050909 169.313899 
L 184.092762 163.135546 
L 186.134614 167.499861 
L 188.176467 157.921446 
L 192.260172 146.02901 
L 194.302024 139.814944 
L 196.343877 145.082615 
L 198.385729 137.957867 
L 200.427581 172.27808 
L 202.469434 134.698629 
L 204.511286 142.886264 
L 206.553139 140.529205 
L 208.594991 144.211614 
L 210.636844 157.207185 
L 212.678696 142.60056 
L 214.720549 146.279001 
L 216.762401 160.689205 
L 218.804254 148.814625 
L 220.846106 144.779054 
L 222.887959 169.813881 
L 224.929811 158.421428 
L 226.971664 158.528567 
L 229.013516 157.635741 
L 231.055369 156.421499 
L 233.097221 123.00304 
L 235.139074 167.778239 
L 237.180926 158.242863 
L 239.222779 167.502974 
L 241.264631 141.243465 
L 243.306484 125.449382 
L 245.348336 162.921268 
L 247.390189 168.135369 
L 249.432041 169.063908 
L 251.473894 167.803389 
L 253.515746 155.278682 
L 255.557599 135.029399 
L 257.599451 132.492047 
L 259.641304 148.921764 
L 261.683156 149.421747 
L 263.725009 156.135794 
L 265.766861 150.743128 
L 267.808714 146.350427 
L 269.850566 146.921835 
L 271.892419 143.564811 
L 273.934271 152.028797 
L 275.976123 144.779054 
L 278.017976 116.565768 
L 280.059828 135.321056 
L 282.101681 137.690657 
L 284.143533 146.171862 
L 286.185386 144.417757 
L 288.227238 148.886051 
L 290.269091 138.029293 
L 292.310943 136.636485 
L 294.352796 137.63645 
L 296.394648 141.314891 
L 298.436501 141.77916 
L 300.478353 117.88715 
L 302.520206 123.994076 
L 304.562058 130.922402 
L 306.603911 137.453158 
L 308.645763 141.350604 
L 310.687616 125.823125 
L 312.729468 127.261817 
L 314.771321 132.743766 
L 316.813173 124.029789 
L 318.855026 135.767468 
L 320.896878 151.885945 
L 322.938731 128.856665 
L 324.980583 141.645236 
L 327.022436 147.778948 
L 329.064288 119.637088 
L 331.106141 141.993438 
L 333.147993 121.922721 
L 335.189846 138.993545 
L 337.231698 125.172606 
L 339.273551 118.529984 
L 341.315403 115.851507 
L 343.357256 139.207823 
L 345.399108 129.391742 
L 347.440961 120.208496 
L 349.482813 124.722913 
L 351.524666 115.672942 
L 353.566518 118.815688 
L 355.60837 120.208496 
L 357.650223 110.315989 
L 359.692075 106.208992 
L 361.733928 114.164067 
L 363.77578 126.029718 
L 365.817633 110.351702 
L 367.859485 117.780011 
L 369.901338 114.59666 
L 371.94319 122.279851 
L 376.026895 107.780365 
L 378.068748 102.351986 
L 380.1106 117.137176 
L 386.236158 120.333775 
L 388.27801 121.815582 
L 390.319863 107.137531 
L 392.361715 121.500117 
L 394.403568 118.208567 
L 396.44542 120.158275 
L 398.487273 119.31567 
L 398.487273 119.31567 
" style="fill:none;stroke:#1f77b4;stroke-linecap:square;stroke-width:0.25;"/>
   </g>
   <g id="line2d_17">
    <path clip-path="url(#p57fb3234e0)" d="M 73.832727 247.617263 
L 75.87458 223.232948 
L 77.916432 220.581398 
L 79.958285 221.424943 
L 82.000137 221.086964 
L 84.04199 222.792395 
L 86.083842 219.425963 
L 88.125695 215.771823 
L 90.167547 210.446401 
L 92.2094 200.333122 
L 94.251252 204.83276 
L 96.293105 200.126393 
L 98.334957 199.66387 
L 100.37681 195.68515 
L 102.418662 198.962082 
L 104.460515 195.135451 
L 106.502367 204.916272 
L 108.54422 196.882268 
L 110.586072 189.766491 
L 112.627925 184.299816 
L 114.669777 184.254544 
L 116.71163 187.328929 
L 118.753482 184.288977 
L 120.795334 189.590426 
L 122.837187 193.92883 
L 124.879039 191.480501 
L 126.920892 188.116907 
L 128.962744 186.833071 
L 131.004597 185.318494 
L 133.046449 178.300909 
L 135.088302 172.306928 
L 137.130154 174.868535 
L 139.172007 183.110433 
L 141.213859 176.36395 
L 143.255712 182.891569 
L 145.297564 176.942866 
L 147.339417 166.186196 
L 149.381269 176.040936 
L 151.423122 168.43947 
L 153.464974 182.772415 
L 155.506827 176.04936 
L 157.548679 183.286615 
L 159.590532 183.608961 
L 161.632384 168.17357 
L 163.674237 185.39568 
L 165.716089 183.847248 
L 167.757942 163.243004 
L 169.799794 173.038028 
L 171.841647 166.802295 
L 173.883499 160.160233 
L 175.925352 163.343425 
L 177.967204 172.297164 
L 180.009057 171.801999 
L 182.050909 179.136675 
L 184.092762 166.957974 
L 186.134614 168.171931 
L 188.176467 168.097171 
L 192.260172 161.107846 
L 194.302024 155.157559 
L 196.343877 160.526179 
L 198.385729 157.171089 
L 200.427581 182.47631 
L 202.469434 152.520695 
L 204.511286 155.400604 
L 206.553139 154.154087 
L 208.594991 160.309929 
L 210.636844 165.751791 
L 212.678696 148.687634 
L 214.720549 157.372415 
L 216.762401 168.583166 
L 218.804254 157.418997 
L 220.846106 157.500474 
L 222.887959 170.794961 
L 224.929811 157.367583 
L 226.971664 148.597757 
L 229.013516 155.814918 
L 231.055369 157.577782 
L 233.097221 143.171222 
L 235.139074 160.476065 
L 237.180926 156.273712 
L 239.222779 162.273775 
L 241.264631 150.851949 
L 243.306484 145.869638 
L 245.348336 162.363583 
L 247.390189 165.013214 
L 249.432041 161.894675 
L 251.473894 157.130122 
L 253.515746 149.945232 
L 255.557599 147.347174 
L 257.599451 147.096972 
L 259.641304 147.588015 
L 261.683156 145.381131 
L 263.725009 157.233813 
L 267.808714 145.099465 
L 269.850566 145.841601 
L 271.892419 151.238431 
L 273.934271 154.748978 
L 275.976123 147.040094 
L 278.017976 133.154969 
L 280.059828 141.356783 
L 282.101681 141.315749 
L 284.143533 152.392886 
L 286.185386 148.706044 
L 288.227238 152.539576 
L 290.269091 141.641777 
L 292.310943 138.917441 
L 294.352796 142.343859 
L 296.394648 144.841976 
L 298.436501 140.773992 
L 300.478353 138.113875 
L 302.520206 133.010001 
L 304.562058 139.225121 
L 306.603911 144.44044 
L 308.645763 145.264405 
L 310.687616 140.210799 
L 312.729468 140.160874 
L 314.771321 138.08293 
L 316.813173 139.203249 
L 318.855026 145.135716 
L 320.896878 145.939138 
L 322.938731 139.147863 
L 324.980583 143.858027 
L 327.022436 149.638804 
L 329.064288 129.875196 
L 331.106141 143.139582 
L 333.147993 130.007669 
L 335.189846 142.704405 
L 337.231698 137.021139 
L 339.273551 122.408705 
L 341.315403 121.536943 
L 343.357256 140.460216 
L 345.399108 137.092483 
L 347.440961 130.022001 
L 349.482813 140.587522 
L 351.524666 130.64519 
L 353.566518 131.90422 
L 355.60837 130.112629 
L 357.650223 125.818702 
L 359.692075 109.933559 
L 361.733928 126.144627 
L 363.77578 140.481068 
L 365.817633 122.209869 
L 367.859485 127.305851 
L 369.901338 136.627448 
L 371.94319 136.55611 
L 373.985043 129.746375 
L 376.026895 116.671478 
L 378.068748 107.528264 
L 380.1106 127.09919 
L 382.152453 134.356538 
L 384.194305 136.973435 
L 386.236158 135.836312 
L 388.27801 136.62313 
L 390.319863 116.756356 
L 392.361715 138.845726 
L 394.403568 134.438738 
L 396.44542 138.165804 
L 398.487273 130.66003 
L 398.487273 130.66003 
" style="fill:none;stroke:#2ca02c;stroke-linecap:square;stroke-width:0.75;"/>
   </g>
   <g id="patch_3">
    <path d="M 57.6 307.584 
L 57.6 41.472 
" style="fill:none;stroke:#000000;stroke-linecap:square;stroke-linejoin:miter;stroke-width:0.8;"/>
   </g>
   <g id="patch_4">
    <path d="M 414.72 307.584 
L 414.72 41.472 
" style="fill:none;stroke:#000000;stroke-linecap:square;stroke-linejoin:miter;stroke-width:0.8;"/>
   </g>
   <g id="patch_5">
    <path d="M 57.6 307.584 
L 414.72 307.584 
" style="fill:none;stroke:#000000;stroke-linecap:square;stroke-linejoin:miter;stroke-width:0.8;"/>
   </g>
   <g id="patch_6">
    <path d="M 57.6 41.472 
L 414.72 41.472 
" style="fill:none;stroke:#000000;stroke-linecap:square;stroke-linejoin:miter;stroke-width:0.8;"/>
   </g>
   <g id="legend_1">
    <g id="patch_7">
     <path d="M 338.234063 78.82825 
L 407.72 78.82825 
Q 409.72 78.82825 409.72 76.82825 
L 409.72 48.472 
Q 409.72 46.472 407.72 46.472 
L 338.234063 46.472 
Q 336.234063 46.472 336.234063 48.472 
L 336.234063 76.82825 
Q 336.234063 78.82825 338.234063 78.82825 
z
" style="fill:#ffffff;opacity:0.8;stroke:#cccccc;stroke-linejoin:miter;"/>
    </g>
    <g id="line2d_18">
     <path d="M 340.234063 54.570437 
L 360.234063 54.570437 
" style="fill:none;stroke:#1f77b4;stroke-linecap:square;stroke-width:0.25;"/>
    </g>
    <g id="line2d_19"/>
    <g id="text_16">
     <!-- median -->
     <defs>
      <path d="M 52 44.1875 
Q 55.375 50.25 60.0625 53.125 
Q 64.75 56 71.09375 56 
Q 79.640625 56 84.28125 50.015625 
Q 88.921875 44.046875 88.921875 33.015625 
L 88.921875 0 
L 79.890625 0 
L 79.890625 32.71875 
Q 79.890625 40.578125 77.09375 44.375 
Q 74.3125 48.1875 68.609375 48.1875 
Q 61.625 48.1875 57.5625 43.546875 
Q 53.515625 38.921875 53.515625 30.90625 
L 53.515625 0 
L 44.484375 0 
L 44.484375 32.71875 
Q 44.484375 40.625 41.703125 44.40625 
Q 38.921875 48.1875 33.109375 48.1875 
Q 26.21875 48.1875 22.15625 43.53125 
Q 18.109375 38.875 18.109375 30.90625 
L 18.109375 0 
L 9.078125 0 
L 9.078125 54.6875 
L 18.109375 54.6875 
L 18.109375 46.1875 
Q 21.1875 51.21875 25.484375 53.609375 
Q 29.78125 56 35.6875 56 
Q 41.65625 56 45.828125 52.96875 
Q 50 49.953125 52 44.1875 
z
" id="DejaVuSans-109"/>
      <path d="M 56.203125 29.59375 
L 56.203125 25.203125 
L 14.890625 25.203125 
Q 15.484375 15.921875 20.484375 11.0625 
Q 25.484375 6.203125 34.421875 6.203125 
Q 39.59375 6.203125 44.453125 7.46875 
Q 49.3125 8.734375 54.109375 11.28125 
L 54.109375 2.78125 
Q 49.265625 0.734375 44.1875 -0.34375 
Q 39.109375 -1.421875 33.890625 -1.421875 
Q 20.796875 -1.421875 13.15625 6.1875 
Q 5.515625 13.8125 5.515625 26.8125 
Q 5.515625 40.234375 12.765625 48.109375 
Q 20.015625 56 32.328125 56 
Q 43.359375 56 49.78125 48.890625 
Q 56.203125 41.796875 56.203125 29.59375 
z
M 47.21875 32.234375 
Q 47.125 39.59375 43.09375 43.984375 
Q 39.0625 48.390625 32.421875 48.390625 
Q 24.90625 48.390625 20.390625 44.140625 
Q 15.875 39.890625 15.1875 32.171875 
z
" id="DejaVuSans-101"/>
      <path d="M 45.40625 46.390625 
L 45.40625 75.984375 
L 54.390625 75.984375 
L 54.390625 0 
L 45.40625 0 
L 45.40625 8.203125 
Q 42.578125 3.328125 38.25 0.953125 
Q 33.9375 -1.421875 27.875 -1.421875 
Q 17.96875 -1.421875 11.734375 6.484375 
Q 5.515625 14.40625 5.515625 27.296875 
Q 5.515625 40.1875 11.734375 48.09375 
Q 17.96875 56 27.875 56 
Q 33.9375 56 38.25 53.625 
Q 42.578125 51.265625 45.40625 46.390625 
z
M 14.796875 27.296875 
Q 14.796875 17.390625 18.875 11.75 
Q 22.953125 6.109375 30.078125 6.109375 
Q 37.203125 6.109375 41.296875 11.75 
Q 45.40625 17.390625 45.40625 27.296875 
Q 45.40625 37.203125 41.296875 42.84375 
Q 37.203125 48.484375 30.078125 48.484375 
Q 22.953125 48.484375 18.875 42.84375 
Q 14.796875 37.203125 14.796875 27.296875 
z
" id="DejaVuSans-100"/>
      <path d="M 9.421875 54.6875 
L 18.40625 54.6875 
L 18.40625 0 
L 9.421875 0 
z
M 9.421875 75.984375 
L 18.40625 75.984375 
L 18.40625 64.59375 
L 9.421875 64.59375 
z
" id="DejaVuSans-105"/>
      <path d="M 34.28125 27.484375 
Q 23.390625 27.484375 19.1875 25 
Q 14.984375 22.515625 14.984375 16.5 
Q 14.984375 11.71875 18.140625 8.90625 
Q 21.296875 6.109375 26.703125 6.109375 
Q 34.1875 6.109375 38.703125 11.40625 
Q 43.21875 16.703125 43.21875 25.484375 
L 43.21875 27.484375 
z
M 52.203125 31.203125 
L 52.203125 0 
L 43.21875 0 
L 43.21875 8.296875 
Q 40.140625 3.328125 35.546875 0.953125 
Q 30.953125 -1.421875 24.3125 -1.421875 
Q 15.921875 -1.421875 10.953125 3.296875 
Q 6 8.015625 6 15.921875 
Q 6 25.140625 12.171875 29.828125 
Q 18.359375 34.515625 30.609375 34.515625 
L 43.21875 34.515625 
L 43.21875 35.40625 
Q 43.21875 41.609375 39.140625 45 
Q 35.0625 48.390625 27.6875 48.390625 
Q 23 48.390625 18.546875 47.265625 
Q 14.109375 46.140625 10.015625 43.890625 
L 10.015625 52.203125 
Q 14.9375 54.109375 19.578125 55.046875 
Q 24.21875 56 28.609375 56 
Q 40.484375 56 46.34375 49.84375 
Q 52.203125 43.703125 52.203125 31.203125 
z
" id="DejaVuSans-97"/>
      <path d="M 54.890625 33.015625 
L 54.890625 0 
L 45.90625 0 
L 45.90625 32.71875 
Q 45.90625 40.484375 42.875 44.328125 
Q 39.84375 48.1875 33.796875 48.1875 
Q 26.515625 48.1875 22.3125 43.546875 
Q 18.109375 38.921875 18.109375 30.90625 
L 18.109375 0 
L 9.078125 0 
L 9.078125 54.6875 
L 18.109375 54.6875 
L 18.109375 46.1875 
Q 21.34375 51.125 25.703125 53.5625 
Q 30.078125 56 35.796875 56 
Q 45.21875 56 50.046875 50.171875 
Q 54.890625 44.34375 54.890625 33.015625 
z
" id="DejaVuSans-110"/>
     </defs>
     <g transform="translate(368.234063 58.070437)scale(0.1 -0.1)">
      <use xlink:href="#DejaVuSans-109"/>
      <use x="97.412109" xlink:href="#DejaVuSans-101"/>
      <use x="158.935547" xlink:href="#DejaVuSans-100"/>
      <use x="222.412109" xlink:href="#DejaVuSans-105"/>
      <use x="250.195312" xlink:href="#DejaVuSans-97"/>
      <use x="311.474609" xlink:href="#DejaVuSans-110"/>
     </g>
    </g>
    <g id="line2d_20">
     <path d="M 340.234063 69.248562 
L 360.234063 69.248562 
" style="fill:none;stroke:#2ca02c;stroke-linecap:square;stroke-width:0.75;"/>
    </g>
    <g id="line2d_21"/>
    <g id="text_17">
     <!-- mean -->
     <g transform="translate(368.234063 72.748562)scale(0.1 -0.1)">
      <use xlink:href="#DejaVuSans-109"/>
      <use x="97.412109" xlink:href="#DejaVuSans-101"/>
      <use x="158.935547" xlink:href="#DejaVuSans-97"/>
      <use x="220.214844" xlink:href="#DejaVuSans-110"/>
     </g>
    </g>
   </g>
  </g>
  <g id="text_18">
   <!-- accuracy.mean over generations -->
   <defs>
    <path d="M 48.78125 52.59375 
L 48.78125 44.1875 
Q 44.96875 46.296875 41.140625 47.34375 
Q 37.3125 48.390625 33.40625 48.390625 
Q 24.65625 48.390625 19.8125 42.84375 
Q 14.984375 37.3125 14.984375 27.296875 
Q 14.984375 17.28125 19.8125 11.734375 
Q 24.65625 6.203125 33.40625 6.203125 
Q 37.3125 6.203125 41.140625 7.25 
Q 44.96875 8.296875 48.78125 10.40625 
L 48.78125 2.09375 
Q 45.015625 0.34375 40.984375 -0.53125 
Q 36.96875 -1.421875 32.421875 -1.421875 
Q 20.0625 -1.421875 12.78125 6.34375 
Q 5.515625 14.109375 5.515625 27.296875 
Q 5.515625 40.671875 12.859375 48.328125 
Q 20.21875 56 33.015625 56 
Q 37.15625 56 41.109375 55.140625 
Q 45.0625 54.296875 48.78125 52.59375 
z
" id="DejaVuSans-99"/>
    <path d="M 8.5 21.578125 
L 8.5 54.6875 
L 17.484375 54.6875 
L 17.484375 21.921875 
Q 17.484375 14.15625 20.5 10.265625 
Q 23.53125 6.390625 29.59375 6.390625 
Q 36.859375 6.390625 41.078125 11.03125 
Q 45.3125 15.671875 45.3125 23.6875 
L 45.3125 54.6875 
L 54.296875 54.6875 
L 54.296875 0 
L 45.3125 0 
L 45.3125 8.40625 
Q 42.046875 3.421875 37.71875 1 
Q 33.40625 -1.421875 27.6875 -1.421875 
Q 18.265625 -1.421875 13.375 4.4375 
Q 8.5 10.296875 8.5 21.578125 
z
M 31.109375 56 
z
" id="DejaVuSans-117"/>
    <path d="M 41.109375 46.296875 
Q 39.59375 47.171875 37.8125 47.578125 
Q 36.03125 48 33.890625 48 
Q 26.265625 48 22.1875 43.046875 
Q 18.109375 38.09375 18.109375 28.8125 
L 18.109375 0 
L 9.078125 0 
L 9.078125 54.6875 
L 18.109375 54.6875 
L 18.109375 46.1875 
Q 20.953125 51.171875 25.484375 53.578125 
Q 30.03125 56 36.53125 56 
Q 37.453125 56 38.578125 55.875 
Q 39.703125 55.765625 41.0625 55.515625 
z
" id="DejaVuSans-114"/>
    <path d="M 32.171875 -5.078125 
Q 28.375 -14.84375 24.75 -17.8125 
Q 21.140625 -20.796875 15.09375 -20.796875 
L 7.90625 -20.796875 
L 7.90625 -13.28125 
L 13.1875 -13.28125 
Q 16.890625 -13.28125 18.9375 -11.515625 
Q 21 -9.765625 23.484375 -3.21875 
L 25.09375 0.875 
L 2.984375 54.6875 
L 12.5 54.6875 
L 29.59375 11.921875 
L 46.6875 54.6875 
L 56.203125 54.6875 
z
" id="DejaVuSans-121"/>
    <path id="DejaVuSans-32"/>
    <path d="M 30.609375 48.390625 
Q 23.390625 48.390625 19.1875 42.75 
Q 14.984375 37.109375 14.984375 27.296875 
Q 14.984375 17.484375 19.15625 11.84375 
Q 23.34375 6.203125 30.609375 6.203125 
Q 37.796875 6.203125 41.984375 11.859375 
Q 46.1875 17.53125 46.1875 27.296875 
Q 46.1875 37.015625 41.984375 42.703125 
Q 37.796875 48.390625 30.609375 48.390625 
z
M 30.609375 56 
Q 42.328125 56 49.015625 48.375 
Q 55.71875 40.765625 55.71875 27.296875 
Q 55.71875 13.875 49.015625 6.21875 
Q 42.328125 -1.421875 30.609375 -1.421875 
Q 18.84375 -1.421875 12.171875 6.21875 
Q 5.515625 13.875 5.515625 27.296875 
Q 5.515625 40.765625 12.171875 48.375 
Q 18.84375 56 30.609375 56 
z
" id="DejaVuSans-111"/>
    <path d="M 2.984375 54.6875 
L 12.5 54.6875 
L 29.59375 8.796875 
L 46.6875 54.6875 
L 56.203125 54.6875 
L 35.6875 0 
L 23.484375 0 
z
" id="DejaVuSans-118"/>
    <path d="M 45.40625 27.984375 
Q 45.40625 37.75 41.375 43.109375 
Q 37.359375 48.484375 30.078125 48.484375 
Q 22.859375 48.484375 18.828125 43.109375 
Q 14.796875 37.75 14.796875 27.984375 
Q 14.796875 18.265625 18.828125 12.890625 
Q 22.859375 7.515625 30.078125 7.515625 
Q 37.359375 7.515625 41.375 12.890625 
Q 45.40625 18.265625 45.40625 27.984375 
z
M 54.390625 6.78125 
Q 54.390625 -7.171875 48.1875 -13.984375 
Q 42 -20.796875 29.203125 -20.796875 
Q 24.46875 -20.796875 20.265625 -20.09375 
Q 16.0625 -19.390625 12.109375 -17.921875 
L 12.109375 -9.1875 
Q 16.0625 -11.328125 19.921875 -12.34375 
Q 23.78125 -13.375 27.78125 -13.375 
Q 36.625 -13.375 41.015625 -8.765625 
Q 45.40625 -4.15625 45.40625 5.171875 
L 45.40625 9.625 
Q 42.625 4.78125 38.28125 2.390625 
Q 33.9375 0 27.875 0 
Q 17.828125 0 11.671875 7.65625 
Q 5.515625 15.328125 5.515625 27.984375 
Q 5.515625 40.671875 11.671875 48.328125 
Q 17.828125 56 27.875 56 
Q 33.9375 56 38.28125 53.609375 
Q 42.625 51.21875 45.40625 46.390625 
L 45.40625 54.6875 
L 54.390625 54.6875 
z
" id="DejaVuSans-103"/>
    <path d="M 18.3125 70.21875 
L 18.3125 54.6875 
L 36.8125 54.6875 
L 36.8125 47.703125 
L 18.3125 47.703125 
L 18.3125 18.015625 
Q 18.3125 11.328125 20.140625 9.421875 
Q 21.96875 7.515625 27.59375 7.515625 
L 36.8125 7.515625 
L 36.8125 0 
L 27.59375 0 
Q 17.1875 0 13.234375 3.875 
Q 9.28125 7.765625 9.28125 18.015625 
L 9.28125 47.703125 
L 2.6875 47.703125 
L 2.6875 54.6875 
L 9.28125 54.6875 
L 9.28125 70.21875 
z
" id="DejaVuSans-116"/>
    <path d="M 44.28125 53.078125 
L 44.28125 44.578125 
Q 40.484375 46.53125 36.375 47.5 
Q 32.28125 48.484375 27.875 48.484375 
Q 21.1875 48.484375 17.84375 46.4375 
Q 14.5 44.390625 14.5 40.28125 
Q 14.5 37.15625 16.890625 35.375 
Q 19.28125 33.59375 26.515625 31.984375 
L 29.59375 31.296875 
Q 39.15625 29.25 43.1875 25.515625 
Q 47.21875 21.78125 47.21875 15.09375 
Q 47.21875 7.46875 41.1875 3.015625 
Q 35.15625 -1.421875 24.609375 -1.421875 
Q 20.21875 -1.421875 15.453125 -0.5625 
Q 10.6875 0.296875 5.421875 2 
L 5.421875 11.28125 
Q 10.40625 8.6875 15.234375 7.390625 
Q 20.0625 6.109375 24.8125 6.109375 
Q 31.15625 6.109375 34.5625 8.28125 
Q 37.984375 10.453125 37.984375 14.40625 
Q 37.984375 18.0625 35.515625 20.015625 
Q 33.0625 21.96875 24.703125 23.78125 
L 21.578125 24.515625 
Q 13.234375 26.265625 9.515625 29.90625 
Q 5.8125 33.546875 5.8125 39.890625 
Q 5.8125 47.609375 11.28125 51.796875 
Q 16.75 56 26.8125 56 
Q 31.78125 56 36.171875 55.265625 
Q 40.578125 54.546875 44.28125 53.078125 
z
" id="DejaVuSans-115"/>
   </defs>
   <g transform="translate(132.309375 16.030125)scale(0.12 -0.12)">
    <use xlink:href="#DejaVuSans-97"/>
    <use x="61.279297" xlink:href="#DejaVuSans-99"/>
    <use x="116.259766" xlink:href="#DejaVuSans-99"/>
    <use x="171.240234" xlink:href="#DejaVuSans-117"/>
    <use x="234.619141" xlink:href="#DejaVuSans-114"/>
    <use x="275.732422" xlink:href="#DejaVuSans-97"/>
    <use x="337.011719" xlink:href="#DejaVuSans-99"/>
    <use x="391.992188" xlink:href="#DejaVuSans-121"/>
    <use x="436.921875" xlink:href="#DejaVuSans-46"/>
    <use x="468.708984" xlink:href="#DejaVuSans-109"/>
    <use x="566.121094" xlink:href="#DejaVuSans-101"/>
    <use x="627.644531" xlink:href="#DejaVuSans-97"/>
    <use x="688.923828" xlink:href="#DejaVuSans-110"/>
    <use x="752.302734" xlink:href="#DejaVuSans-32"/>
    <use x="784.089844" xlink:href="#DejaVuSans-111"/>
    <use x="845.271484" xlink:href="#DejaVuSans-118"/>
    <use x="904.451172" xlink:href="#DejaVuSans-101"/>
    <use x="965.974609" xlink:href="#DejaVuSans-114"/>
    <use x="1007.087891" xlink:href="#DejaVuSans-32"/>
    <use x="1038.875" xlink:href="#DejaVuSans-103"/>
    <use x="1102.351562" xlink:href="#DejaVuSans-101"/>
    <use x="1163.875" xlink:href="#DejaVuSans-110"/>
    <use x="1227.253906" xlink:href="#DejaVuSans-101"/>
    <use x="1288.777344" xlink:href="#DejaVuSans-114"/>
    <use x="1329.890625" xlink:href="#DejaVuSans-97"/>
    <use x="1391.169922" xlink:href="#DejaVuSans-116"/>
    <use x="1430.378906" xlink:href="#DejaVuSans-105"/>
    <use x="1458.162109" xlink:href="#DejaVuSans-111"/>
    <use x="1519.34375" xlink:href="#DejaVuSans-110"/>
    <use x="1582.722656" xlink:href="#DejaVuSans-115"/>
   </g>
  </g>
 </g>
 <defs>
  <clipPath id="p57fb3234e0">
   <rect height="266.112" width="357.12" x="57.6" y="41.472"/>
  </clipPath>
 </defs>
</svg>
